<?xml version="1.0" encoding="utf-8"?>

<svg version="1.1" id="Layer_1" xmlns="http://www.w3.org/2000/svg" xmlns:xlink="http://www.w3.org/1999/xlink" x="0px" y="0px"
	 viewBox="0 0 502 257" enable-background="new 0 0 502 257" xml:space="preserve">
    
<defs>
	<style type="text/css">
	text {
	  font-family: Helvetica, Verdana, ArialUnicodeMS, san-serif
	}
	</style>
</defs>

<g>
   <desc>
	PS 3.22 : Real-Time Communication (DICOM-RTV)
   </desc>
</g>

<g>
	<rect x="1" y="1" fill="#F2EDD6" width="500" height="255"/>
	<g>
		<g>
			<line fill="#4F8ABE" x1="152.762" y1="100.389" x2="338.49" y2="100.389"/>
			<g>
				
					<line fill="none" stroke="#005695" stroke-linecap="round" stroke-miterlimit="1" x1="152.762" y1="100.389" x2="332.289" y2="100.389"/>
				<g>
					<polygon fill="#005695" points="330.902,102.423 338.49,100.389 330.902,98.355 					"/>
				</g>
			</g>
		</g>
		<g>
			<line fill="#4F8ABE" x1="152.762" y1="69.78" x2="338.49" y2="69.78"/>
			<g>
				
					<line fill="none" stroke="#005695" stroke-linecap="round" stroke-miterlimit="1" x1="152.762" y1="69.78" x2="332.289" y2="69.78"/>
				<g>
					<polygon fill="#005695" points="330.902,71.814 338.49,69.78 330.902,67.746 					"/>
				</g>
			</g>
		</g>
		<g>
			<line fill="#4F8ABE" x1="152.762" y1="159.975" x2="338.49" y2="159.975"/>
			<g>
				
					<line fill="none" stroke="#005695" stroke-linecap="round" stroke-miterlimit="1" x1="152.762" y1="159.975" x2="332.289" y2="159.975"/>
				<g>
					<polygon fill="#005695" points="330.902,162.009 338.49,159.975 330.902,157.941 					"/>
				</g>
			</g>
		</g>
		<g>
			<line fill="#4F8ABE" x1="152.762" y1="189.768" x2="338.49" y2="189.768"/>
			<g>
				
					<line fill="none" stroke="#005695" stroke-linecap="round" stroke-miterlimit="1" x1="152.762" y1="189.768" x2="332.289" y2="189.768"/>
				<g>
					<polygon fill="#005695" points="330.902,191.802 338.49,189.768 330.902,187.734 					"/>
				</g>
			</g>
		</g>
		<g>
			<line fill="#4F8ABE" x1="152.762" y1="219.561" x2="338.49" y2="219.561"/>
			<g>
				
					<line fill="none" stroke="#005695" stroke-linecap="round" stroke-miterlimit="1" x1="152.762" y1="219.561" x2="154.762" y2="219.561"/>
				
					<line fill="none" stroke="#005695" stroke-linecap="round" stroke-miterlimit="1" stroke-dasharray="4.082,4.082" x1="158.844" y1="219.561" x2="328.248" y2="219.561"/>
				
					<line fill="none" stroke="#005695" stroke-linecap="round" stroke-miterlimit="1" x1="330.289" y1="219.561" x2="332.289" y2="219.561"/>
				<g>
					<polygon fill="#005695" points="330.902,221.595 338.49,219.561 330.902,217.527 					"/>
				</g>
			</g>
		</g>
		
			<line fill="#4F8ABE" stroke="#005695" stroke-linecap="round" stroke-miterlimit="1" stroke-dasharray="3" x1="148.072" y1="241.331" x2="148.072" y2="41.702"/>
		
			<path fill="#CCDEF0" stroke="#010101" stroke-width="0.75" stroke-linecap="round" stroke-linejoin="round" stroke-miterlimit="1" d="
			M125.572,15.669h45.001v27h-45.001V15.669z"/>
		<text transform="matrix(1 0 0 1 134.3235 31.6753)" font-size="9px">Device</text>
		
			<path fill="#CCDEF0" stroke="#010101" stroke-width="0.75" stroke-linecap="round" stroke-linejoin="round" stroke-miterlimit="1" d="
			M313.428,15.669h63v27h-63V15.669z"/>
		<text transform="matrix(1 0 0 1 328.93 31.6753)" font-size="9px">Network</text>
		
			<line fill="#4F8ABE" stroke="#005695" stroke-linecap="round" stroke-miterlimit="1" stroke-dasharray="3" x1="344.928" y1="241.331" x2="344.928" y2="41.702"/>
		<text transform="matrix(1 0 0 1 170.8885 66.9055)"><tspan x="0" y="0" font-size="8px">Video (SMPTE ST 2110-20)</tspan><tspan x="0" y="29.6" font-size="8px">Audio (SMPTE ST 2110-30)</tspan><tspan x="0" y="88.8" font-size="8px">DICOM Video Metadata (ST 2110-10)</tspan><tspan x="0" y="118.4" font-size="8px">DICOM Audio Metadata (ST 2110-10)</tspan><tspan x="0" y="148" font-size="8px">DICOM Rendition Metadata (ST 2110-10)</tspan></text>
		
			<rect x="143.573" y="61.596" fill="#CCDEF0" stroke="#010101" stroke-width="0.75" stroke-linecap="round" stroke-linejoin="round" stroke-miterlimit="1" width="9" height="165.867"/>
		
			<rect x="340.089" y="61.596" fill="#CCDEF0" stroke="#010101" stroke-width="0.75" stroke-linecap="round" stroke-linejoin="round" stroke-miterlimit="1" width="9" height="165.867"/>
	</g>
</g>
</svg>
