<?xml version="1.0" encoding="utf-8"?>

<svg version="1.1" id="Layer_1" xmlns="http://www.w3.org/2000/svg" xmlns:xlink="http://www.w3.org/1999/xlink" x="0px" y="0px"
	 viewBox="0 0 502 342" enable-background="new 0 0 502 342" xml:space="preserve">

<defs>
	<style type="text/css">
	text {
	  font-family: Helvetica, Verdana, ArialUnicodeMS, san-serif
	}
	</style>
</defs>

<g>
   <desc>
	PS 3.22 : Real-Time Communication (DICOM-RTV)
   </desc>
</g>

<g>
	<rect x="1" y="1" fill="#F2EDD6" width="500" height="340"/>
	<g>
		<g>
			<g>
				<polyline fill="none" stroke="#005695" stroke-width="2" stroke-linejoin="round" points="250.766,183.057 250.766,193.68 
					310.372,193.68 310.372,97.892 386.182,97.892 386.182,106.417 				"/>
				<g>
					<polygon fill="#005695" points="383.858,104.831 386.182,113.504 388.506,104.831 					"/>
				</g>
			</g>
		</g>
		<g>
			<g>
				<polyline fill="none" stroke="#005695" stroke-width="2" stroke-linejoin="round" points="141.042,128.057 141.042,138.68 
					190.648,138.68 190.648,97.892 231.458,97.892 231.458,106.417 				"/>
				<g>
					<polygon fill="#005695" points="229.134,104.831 231.458,113.504 233.783,104.831 					"/>
				</g>
			</g>
		</g>
		<g>
			<g>
				<polyline fill="none" stroke="#005695" stroke-width="2" stroke-linejoin="round" points="52.025,127.96 52.025,202.822 
					342.941,202.805 342.941,212.637 				"/>
				<g>
					<polygon fill="#005695" points="340.617,211.052 342.941,219.725 345.266,211.052 					"/>
				</g>
			</g>
		</g>
		<g>
			<g>
				
					<line fill="none" stroke="#005695" stroke-width="2" stroke-linejoin="round" x1="360.394" y1="191.154" x2="360.394" y2="212.024"/>
				<g>
					<polygon fill="#005695" points="358.069,210.439 360.394,219.111 362.718,210.439 					"/>
				</g>
			</g>
		</g>
		<g>
			<g>
				<polyline fill="none" stroke="#005695" stroke-width="2" stroke-linejoin="round" points="330.807,34.801 330.807,46.607 
					365.35,46.607 407.999,46.607 407.999,55.676 				"/>
				<g>
					<polygon fill="#005695" points="405.674,54.091 407.999,62.764 410.323,54.091 					"/>
				</g>
			</g>
		</g>
		<g>
			<g>
				
					<line fill="none" stroke="#005695" stroke-width="2" stroke-linejoin="round" x1="250.85" y1="89.477" x2="250.85" y2="106.238"/>
				<g>
					<polygon fill="#005695" points="248.525,104.653 250.85,113.326 253.174,104.653 					"/>
				</g>
			</g>
		</g>
		<g>
			<g>
				<polyline fill="none" stroke="#005695" stroke-width="2" stroke-linejoin="round" points="330.702,39.276 330.702,46.607 
					251.744,46.607 251.744,55.419 				"/>
				<g>
					<polygon fill="#005695" points="249.419,53.834 251.744,62.507 254.068,53.834 					"/>
				</g>
			</g>
		</g>
		<g>
			<g>
				
					<line fill="none" stroke="#005695" stroke-width="2" stroke-linejoin="round" x1="250.85" y1="135.926" x2="250.956" y2="153.829"/>
				<g>
					<polygon fill="#005695" points="248.623,152.257 250.999,160.916 253.271,152.23 					"/>
				</g>
			</g>
		</g>
		<g>
			<g>
				
					<line fill="none" stroke="#005695" stroke-width="2" stroke-linejoin="round" x1="408.192" y1="89.372" x2="408.192" y2="106.416"/>
				<g>
					<polygon fill="#005695" points="405.868,104.83 408.192,113.503 410.516,104.83 					"/>
				</g>
			</g>
		</g>
		
			<rect x="201.35" y="113.326" fill="#86B2D8" stroke="#010101" stroke-width="0.75" stroke-linecap="round" stroke-linejoin="round" stroke-miterlimit="1" width="98.999" height="22.5"/>
		<g>
			<text transform="matrix(1 0 0 1 222.8343 127.0245)" font-size="9px">Source Group</text>
		</g>
		
			<rect x="367.683" y="113.503" fill="#86B2D8" stroke="#010101" stroke-width="0.75" stroke-linecap="round" stroke-linejoin="round" stroke-miterlimit="1" width="80.999" height="22.5"/>
		<g>
			<text transform="matrix(1 0 0 1 393.9243 127.1998)" font-size="9px">Source</text>
		</g>
		
			<rect x="409.17" y="219.451" fill="#86B2D8" stroke="#010101" stroke-width="0.75" stroke-linecap="round" stroke-linejoin="round" stroke-miterlimit="1" width="80.999" height="22.5"/>
		<g>
			<text transform="matrix(1 0 0 1 432.4091 233.2067)" font-size="9px">Essence</text>
		</g>
		
			<rect x="319.636" y="219.451" fill="#86B2D8" stroke="#010101" stroke-width="0.75" stroke-linecap="round" stroke-linejoin="round" stroke-miterlimit="1" width="80.999" height="22.5"/>
		<g>
			<text transform="matrix(1 0 0 1 350.6336 233.2067)" font-size="9px">Flow</text>
		</g>
		
			<rect x="55.86" y="50.175" fill="#86B2D8" stroke="#010101" stroke-width="0.75" stroke-linecap="round" stroke-linejoin="round" stroke-miterlimit="1" width="80.999" height="22.5"/>
		<g>
			<text transform="matrix(1 0 0 1 77.3467 63.9312)" font-size="9px">Rendition</text>
		</g>
		
			<rect x="288.833" y="15.67" fill="#86B2D8" stroke="#010101" stroke-width="0.75" stroke-linecap="round" stroke-linejoin="round" stroke-miterlimit="1" width="84.003" height="22.5"/>
		<g>
			<text transform="matrix(1 0 0 1 312.4907 30.2018)" font-size="12px">Device</text>
		</g>
		
			<polygon fill="#CCDEF0" stroke="#010101" stroke-width="0.75" stroke-linecap="round" stroke-linejoin="round" stroke-miterlimit="1" points="
			214.829,171.993 250.776,160.916 286.829,172.153 286.829,172.179 250.776,183.416 		"/>
		<g>
			<text transform="matrix(1 0 0 1 237.0693 174.6102)" font-size="9px">groups</text>
		</g>
		<g>
			<text transform="matrix(1 0 0 1 275.8687 163.233)" font-size="9px">1</text>
		</g>
		<g>
			<text transform="matrix(1 0 0 1 275.8687 185.2379)" font-size="9px">1-n</text>
		</g>
		<g>
			<text transform="matrix(1 0 0 1 390.4233 168.6123)" font-size="9px">1</text>
		</g>
		<g>
			<text transform="matrix(1 0 0 1 390.4233 190.6172)" font-size="9px">1-n</text>
		</g>
		
			<polygon fill="#CCDEF0" stroke="#010101" stroke-width="0.75" stroke-linecap="round" stroke-linejoin="round" stroke-miterlimit="1" points="
			319.578,177.335 360.019,164.042 400.577,177.528 400.577,177.558 360.019,191.042 		"/>
		<g>
			<text transform="matrix(1 0 0 1 339.5083 179.9893)" font-size="9px">is origin of</text>
		</g>
		<g>
			<g>
				
					<line fill="none" stroke="#005695" stroke-width="2" stroke-linejoin="round" x1="450.014" y1="191.154" x2="450.014" y2="212.024"/>
				<g>
					<polygon fill="#005695" points="447.69,210.439 450.014,219.111 452.338,210.439 					"/>
				</g>
			</g>
		</g>
		<g>
			<text transform="matrix(1 0 0 1 480.0438 168.6123)" font-size="9px">1</text>
		</g>
		<g>
			<text transform="matrix(1 0 0 1 484.0448 190.6172)" font-size="9px">1</text>
		</g>
		
			<polygon fill="#CCDEF0" stroke="#010101" stroke-width="0.75" stroke-linecap="round" stroke-linejoin="round" stroke-miterlimit="1" points="
			409.199,177.335 449.639,164.042 490.197,177.528 490.197,177.558 449.639,191.042 		"/>
		<g>
			<text transform="matrix(1 0 0 1 442.3827 179.9893)" font-size="9px">has</text>
		</g>
		<g>
			<text transform="matrix(1 0 0 1 281.3029 67.0263)" font-size="9px">1</text>
		</g>
		<g>
			<text transform="matrix(1 0 0 1 281.3029 89.0312)" font-size="9px">1-n</text>
		</g>
		<g>
			<text transform="matrix(1 0 0 1 440.5784 89.0312)" font-size="9px">1-n</text>
		</g>
		
			<polygon fill="#CCDEF0" stroke="#010101" stroke-width="0.75" stroke-linecap="round" stroke-linejoin="round" stroke-miterlimit="1" points="
			210.458,75.749 250.898,62.456 291.456,75.942 291.456,75.972 250.898,89.456 		"/>
		<g>
			<text transform="matrix(1 0 0 1 236.3864 78.4033)" font-size="9px">defines</text>
		</g>
		<g>
			<text transform="matrix(1 0 0 1 438.9234 67.0263)" font-size="9px">1</text>
		</g>
		
			<polygon fill="#CCDEF0" stroke="#010101" stroke-width="0.75" stroke-linecap="round" stroke-linejoin="round" stroke-miterlimit="1" points="
			368.078,75.749 408.519,62.456 449.077,75.942 449.077,75.972 408.519,89.456 		"/>
		<g>
			<text transform="matrix(1 0 0 1 401.2622 78.4033)" font-size="9px">has</text>
		</g>
		<g>
			<g>
				<polyline fill="none" stroke="#005695" stroke-width="2" stroke-linejoin="round" points="408.117,135.956 408.117,147.762 
					415.66,147.762 449.309,147.762 449.309,156.831 				"/>
				<g>
					<polygon fill="#005695" points="446.985,155.246 449.309,163.919 451.633,155.246 					"/>
				</g>
			</g>
		</g>
		<g>
			<g>
				<polyline fill="none" stroke="#005695" stroke-width="2" stroke-linejoin="round" points="408.012,147.762 360.054,147.762 
					360.054,156.574 				"/>
				<g>
					<polygon fill="#005695" points="357.73,154.989 360.054,163.662 362.378,154.989 					"/>
				</g>
			</g>
		</g>
		<g>
			<g>
				
					<line fill="none" stroke="#005695" stroke-width="2" stroke-linejoin="round" x1="360.394" y1="285.533" x2="360.394" y2="296.403"/>
				<g>
					<polygon fill="#005695" points="358.069,294.818 360.394,303.49 362.718,294.818 					"/>
				</g>
			</g>
		</g>
		
			<rect x="319.636" y="303.83" fill="#86B2D8" stroke="#010101" stroke-width="0.75" stroke-linecap="round" stroke-linejoin="round" stroke-miterlimit="1" width="80.999" height="22.5"/>
		<g>
			<text transform="matrix(1 0 0 1 349.1307 317.5859)" font-size="9px">Grain</text>
		</g>
		<g>
			<text transform="matrix(1 0 0 1 390.4233 262.9915)" font-size="9px">1</text>
		</g>
		<g>
			<text transform="matrix(1 0 0 1 390.4233 284.9963)" font-size="9px">1-n</text>
		</g>
		
			<polygon fill="#CCDEF0" stroke="#010101" stroke-width="0.75" stroke-linecap="round" stroke-linejoin="round" stroke-miterlimit="1" points="
			319.578,271.715 360.019,258.422 400.577,271.907 400.577,271.937 360.019,285.422 		"/>
		<g>
			<text transform="matrix(1 0 0 1 334.2524 274.3684)" font-size="9px">composed of</text>
		</g>
		<g>
			<g>
				
					<line fill="none" stroke="#005695" stroke-width="2" stroke-linejoin="round" x1="360.054" y1="242.141" x2="360.054" y2="250.954"/>
				<g>
					<polygon fill="#005695" points="357.73,249.368 360.054,258.041 362.378,249.368 					"/>
				</g>
			</g>
		</g>
		<g>
			<text transform="matrix(1 0 0 1 82.6481 105.3021)" font-size="9px">1</text>
		</g>
		<g>
			<text transform="matrix(1 0 0 1 82.6481 127.307)" font-size="9px">1-n</text>
		</g>
		
			<polygon fill="#CCDEF0" stroke="#010101" stroke-width="0.75" stroke-linecap="round" stroke-linejoin="round" stroke-miterlimit="1" points="
			11.803,114.025 52.243,100.732 92.801,114.218 92.801,114.248 52.243,127.732 		"/>
		<g>
			<text transform="matrix(1 0 0 1 38.4831 116.6791)" font-size="9px">groups</text>
		</g>
		<g>
			<text transform="matrix(1 0 0 1 170.7686 105.3021)" font-size="9px">1</text>
		</g>
		<g>
			<text transform="matrix(1 0 0 1 170.7686 127.307)" font-size="9px">1-n</text>
		</g>
		
			<polygon fill="#CCDEF0" stroke="#010101" stroke-width="0.75" stroke-linecap="round" stroke-linejoin="round" stroke-miterlimit="1" points="
			99.923,114.025 140.364,100.732 180.922,114.218 180.922,114.248 140.364,127.732 		"/>
		<g>
			<text transform="matrix(1 0 0 1 123.857 116.6791)" font-size="9px">refers to</text>
		</g>
		<g>
			<g>
				<polyline fill="none" stroke="#005695" stroke-width="2" stroke-linejoin="round" points="95.842,72.646 95.842,84.451 
					106.385,84.451 140.034,84.451 140.034,93.521 				"/>
				<g>
					<polygon fill="#005695" points="137.709,91.936 140.034,100.609 142.358,91.936 					"/>
				</g>
			</g>
		</g>
		<g>
			<g>
				<polyline fill="none" stroke="#005695" stroke-width="2" stroke-linejoin="round" points="95.737,84.451 52.279,84.451 
					52.279,93.264 				"/>
				<g>
					<polygon fill="#005695" points="49.954,91.679 52.279,100.352 54.603,91.679 					"/>
				</g>
			</g>
		</g>
	</g>
</g>
</svg>
