<?xml version="1.0" encoding="utf-8"?>

<!DOCTYPE svg PUBLIC "-//W3C//DTD SVG 1.1//EN" "http://www.w3.org/Graphics/SVG/1.1/DTD/svg11.dtd">
<svg version="1.1" id="Layer_1" xmlns="http://www.w3.org/2000/svg" xmlns:xlink="http://www.w3.org/1999/xlink" x="0px" y="0px"
	 width="652px" height="912px" viewBox="0 0 652 912" enable-background="new 0 0 652 912" xml:space="preserve">

<defs>
	<style type="text/css">
	text {
	  font-family: Helvetica, Verdana, ArialUnicodeMS, san-serif
	}
	</style>
</defs>

<g>
   <desc>
	PS 3.21 : Transformations between DICOM and other Representations
   </desc>
</g>

<g>
	<rect x="1" y="1" fill="#F5EED6" width="650" height="910"/>
	<g>
		<g>
			<path fill="#CCDEF0" d="M102.285,27.933c0-1.98,1.62-3.6,3.6-3.6h53.577c1.98,0,3.6,1.62,3.6,3.6V47.5c0,1.98-1.62,3.6-3.6,3.6
				h-53.577c-1.98,0-3.6-1.62-3.6-3.6V27.933z"/>
			<path fill="none" stroke="#000000" stroke-width="0.75" stroke-linecap="square" stroke-miterlimit="1" d="M102.285,27.933
				c0-1.98,1.62-3.6,3.6-3.6h53.577c1.98,0,3.6,1.62,3.6,3.6V47.5c0,1.98-1.62,3.6-3.6,3.6h-53.577c-1.98,0-3.6-1.62-3.6-3.6V27.933
				z"/>
		</g>
		<text transform="matrix(1 0 0 1 100.5264 21.2632)" fill="#231F20" font-size="7">TID 1204</text>
		<rect x="105.508" y="27.333" fill="none" width="48.176" height="19.765"/>
		<text transform="matrix(1 0 0 1 105.5049 31.625)"><tspan x="0" y="0" fill="#231F20" font-size="6">Language of</tspan><tspan x="0" y="7.2" fill="#231F20" font-size="6">Content Item and </tspan><tspan x="0" y="14.4" fill="#231F20" font-size="6">Descendants</tspan></text>
		<g>
			<path fill="none" stroke="#231F20" stroke-width="0.75" stroke-linecap="square" stroke-miterlimit="10" d="M91.474,32.514"/>
		</g>
		<g>
			<path fill="#CCDEF0" d="M24.198,27.721c0-1.98,1.62-3.6,3.6-3.6h53.743c1.98,0,3.6,1.62,3.6,3.6v12.897c0,1.98-1.62,3.6-3.6,3.6
				H27.798c-1.98,0-3.6-1.62-3.6-3.6V27.721z"/>
			<path fill="none" stroke="#000000" stroke-width="0.75" stroke-linecap="square" d="M24.198,27.721c0-1.98,1.62-3.6,3.6-3.6
				h53.743c1.98,0,3.6,1.62,3.6,3.6v12.897c0,1.98-1.62,3.6-3.6,3.6H27.798c-1.98,0-3.6-1.62-3.6-3.6V27.721z"/>
		</g>
		<text transform="matrix(1 0 0 1 36.3008 32.4087)"><tspan x="0" y="0" fill="#231F20" font-size="6">Measurement</tspan><tspan x="0" y="7.2" fill="#231F20" font-size="6">Report</tspan></text>
		<text transform="matrix(1 0 0 1 23.522 21.2583)" fill="#231F20" font-size="7">TID 1500</text>
		<g>
			<g>
				<polyline fill="none" stroke="#231F20" stroke-width="0.75" stroke-linecap="square" stroke-miterlimit="10" points="
					91.37,34.314 91.37,77.085 95.503,77.085 				"/>
				<g>
					<polygon fill="#231F20" points="94.017,79.264 102.147,77.085 94.017,74.906 					"/>
				</g>
			</g>
		</g>
		<g>
			<g>
				
					<line fill="none" stroke="#231F20" stroke-width="0.75" stroke-linecap="square" stroke-miterlimit="10" x1="85.142" y1="34.281" x2="95.677" y2="34.281"/>
				<g>
					<polygon fill="#231F20" points="94.19,36.46 102.321,34.281 94.19,32.103 					"/>
				</g>
			</g>
		</g>
		<g>
			<path fill="#CCDEF0" d="M102.32,70.633c0-1.98,1.62-3.6,3.6-3.6h53.829c1.98,0,3.6,1.62,3.6,3.6v12.95c0,1.98-1.62,3.6-3.6,3.6
				H105.92c-1.98,0-3.6-1.62-3.6-3.6V70.633z"/>
			<path fill="none" stroke="#000000" stroke-width="0.75" stroke-linecap="square" stroke-miterlimit="1" d="M102.32,70.633
				c0-1.98,1.62-3.6,3.6-3.6h53.829c1.98,0,3.6,1.62,3.6,3.6v12.95c0,1.98-1.62,3.6-3.6,3.6H105.92c-1.98,0-3.6-1.62-3.6-3.6V70.633
				z"/>
		</g>
		<text transform="matrix(1 0 0 1 106.0791 78.772)" fill="#231F20" font-size="6">Observer Context</text>
		<text transform="matrix(1 0 0 1 101.6445 63.4399)" fill="#231F20" font-size="7">TID 1001</text>
		<g>
			<path fill="none" stroke="#231F20" stroke-width="0.75" stroke-linecap="square" stroke-miterlimit="10" d="M178.424,75.359"/>
		</g>
		<g>
			<g>
				<g>
					<polyline fill="none" stroke="#231F20" stroke-width="0.75" stroke-linecap="square" stroke-miterlimit="10" points="
						177.844,77.184 177.844,115.805 183.107,115.805 					"/>
					<g>
						<polygon fill="#231F20" points="181.621,117.983 189.752,115.805 181.621,113.626 						"/>
					</g>
				</g>
			</g>
			<g>
				<g>
					
						<line fill="none" stroke="#231F20" stroke-width="0.75" stroke-linecap="square" stroke-miterlimit="10" x1="163.029" y1="76.904" x2="182.15" y2="76.904"/>
					<g>
						<polygon fill="#231F20" points="180.664,79.083 188.795,76.904 180.664,74.726 						"/>
					</g>
				</g>
			</g>
		</g>
		<g>
			<g>
				<polyline fill="none" stroke="#231F20" stroke-width="0.75" stroke-linecap="square" stroke-miterlimit="10" points="
					177.844,116.146 177.844,154.768 183.107,154.768 				"/>
				<g>
					<polygon fill="#231F20" points="181.621,156.946 189.752,154.768 181.621,152.589 					"/>
				</g>
			</g>
		</g>
		<g>
			<path fill="#CCDEF0" d="M189.9,109.185c0-1.98,1.62-3.6,3.6-3.6h53.829c1.98,0,3.6,1.62,3.6,3.6v12.95c0,1.98-1.62,3.6-3.6,3.6
				H193.5c-1.98,0-3.6-1.62-3.6-3.6V109.185z"/>
			<path fill="none" stroke="#000000" stroke-width="0.75" stroke-linecap="square" stroke-miterlimit="1" d="M189.9,109.185
				c0-1.98,1.62-3.6,3.6-3.6h53.829c1.98,0,3.6,1.62,3.6,3.6v12.95c0,1.98-1.62,3.6-3.6,3.6H193.5c-1.98,0-3.6-1.62-3.6-3.6V109.185
				z"/>
		</g>
		<text transform="matrix(1 0 0 1 193.6445 117.3301)" fill="#231F20" font-size="6">Procedure Context</text>
		<text transform="matrix(1 0 0 1 189.21 102.2476)" fill="#231F20" font-size="7">TID 1005</text>
		<g>
			<g>
				<polyline fill="none" stroke="#231F20" stroke-width="0.75" stroke-linecap="square" stroke-miterlimit="10" points="
					177.996,310.829 177.996,348.485 183.26,348.485 				"/>
				<g>
					<polygon fill="#231F20" points="181.773,350.664 189.904,348.485 181.773,346.307 					"/>
				</g>
			</g>
		</g>
		<g>
			<path fill="#CCDEF0" d="M188.352,148.607c0-1.98,1.62-3.6,3.6-3.6h53.829c1.98,0,3.6,1.62,3.6,3.6v12.952
				c0,1.98-1.62,3.6-3.6,3.6h-53.829c-1.98,0-3.6-1.62-3.6-3.6V148.607z"/>
			<path fill="none" stroke="#000000" stroke-width="0.75" stroke-linecap="square" stroke-miterlimit="1" d="M188.352,148.607
				c0-1.98,1.62-3.6,3.6-3.6h53.829c1.98,0,3.6,1.62,3.6,3.6v12.952c0,1.98-1.62,3.6-3.6,3.6h-53.829c-1.98,0-3.6-1.62-3.6-3.6
				V148.607z"/>
		</g>
		<text transform="matrix(1 0 0 1 192.0957 156.7456)" fill="#231F20" font-size="6">Subject Context</text>
		<text transform="matrix(1 0 0 1 187.5117 141.415)" fill="#231F20" font-size="7">TID 1006</text>
		<g>
			<g>
				
					<line fill="none" stroke="#231F20" stroke-width="0.75" stroke-linecap="square" stroke-miterlimit="10" x1="249.539" y1="155.083" x2="268.66" y2="155.083"/>
				<g>
					<polygon fill="#231F20" points="267.174,157.262 275.305,155.083 267.174,152.904 					"/>
				</g>
			</g>
		</g>
		<g>
			<path fill="#CCDEF0" d="M276.182,264.802c0-1.98,1.62-3.6,3.6-3.6h53.832c1.979,0,3.6,1.62,3.6,3.6v12.948
				c0,1.98-1.62,3.6-3.6,3.6h-53.832c-1.98,0-3.6-1.62-3.6-3.6V264.802z"/>
			<path fill="none" stroke="#000000" stroke-width="0.75" stroke-linecap="square" stroke-miterlimit="1" d="M276.182,264.802
				c0-1.98,1.62-3.6,3.6-3.6h53.832c1.979,0,3.6,1.62,3.6,3.6v12.948c0,1.98-1.62,3.6-3.6,3.6h-53.832c-1.98,0-3.6-1.62-3.6-3.6
				V264.802z"/>
		</g>
		<text transform="matrix(1 0 0 1 279.4644 269.3394)"><tspan x="0" y="0" fill="#231F20" font-size="6">Subject Context,</tspan><tspan x="0" y="7.2" fill="#231F20" font-size="6">Device</tspan></text>
		<text transform="matrix(1 0 0 1 275.4912 258.1333)" fill="#231F20" font-size="7">TID 1010</text>
		<g>
			<path fill="#CCDEF0" d="M276.182,186.281c0-1.98,1.62-3.6,3.6-3.6h53.832c1.979,0,3.6,1.62,3.6,3.6v12.952
				c0,1.98-1.62,3.6-3.6,3.6h-53.832c-1.98,0-3.6-1.62-3.6-3.6V186.281z"/>
			<path fill="none" stroke="#000000" stroke-width="0.75" stroke-linecap="square" stroke-miterlimit="1" d="M276.182,186.281
				c0-1.98,1.62-3.6,3.6-3.6h53.832c1.979,0,3.6,1.62,3.6,3.6v12.952c0,1.98-1.62,3.6-3.6,3.6h-53.832c-1.98,0-3.6-1.62-3.6-3.6
				V186.281z"/>
		</g>
		<text transform="matrix(1 0 0 1 279.4648 190.9917)"><tspan x="0" y="0" fill="#231F20" font-size="6">Subject Context,</tspan><tspan x="0" y="7.2" fill="#231F20" font-size="6">Fetus</tspan></text>
		<text transform="matrix(1 0 0 1 275.4912 179.5913)" fill="#231F20" font-size="7">TID 1008</text>
		<g>
			<path fill="#CCDEF0" d="M276.182,148.609c0-1.98,1.62-3.6,3.6-3.6h53.832c1.979,0,3.6,1.62,3.6,3.6v12.948
				c0,1.98-1.62,3.6-3.6,3.6h-53.832c-1.98,0-3.6-1.62-3.6-3.6V148.609z"/>
			<path fill="none" stroke="#000000" stroke-width="0.75" stroke-linecap="square" stroke-miterlimit="1" d="M276.182,148.609
				c0-1.98,1.62-3.6,3.6-3.6h53.832c1.979,0,3.6,1.62,3.6,3.6v12.948c0,1.98-1.62,3.6-3.6,3.6h-53.832c-1.98,0-3.6-1.62-3.6-3.6
				V148.609z"/>
		</g>
		<text transform="matrix(1 0 0 1 279.4644 153.7183)"><tspan x="0" y="0" fill="#231F20" font-size="6">Subject Context,</tspan><tspan x="0" y="7.2" fill="#231F20" font-size="6">Patient</tspan></text>
		<text transform="matrix(1 0 0 1 275.4912 141.4194)" fill="#231F20" font-size="7">TID 1007</text>
		<g>
			<path fill="#CCDEF0" d="M276.182,225.541c0-1.98,1.62-3.6,3.6-3.6h53.832c1.979,0,3.6,1.62,3.6,3.6v12.952
				c0,1.98-1.62,3.6-3.6,3.6h-53.832c-1.98,0-3.6-1.62-3.6-3.6V225.541z"/>
			<path fill="none" stroke="#000000" stroke-width="0.75" stroke-linecap="square" stroke-miterlimit="1" d="M276.182,225.541
				c0-1.98,1.62-3.6,3.6-3.6h53.832c1.979,0,3.6,1.62,3.6,3.6v12.952c0,1.98-1.62,3.6-3.6,3.6h-53.832c-1.98,0-3.6-1.62-3.6-3.6
				V225.541z"/>
		</g>
		<text transform="matrix(1 0 0 1 279.4644 230.0874)"><tspan x="0" y="0" fill="#231F20" font-size="6">Subject Context,</tspan><tspan x="0" y="7.2" fill="#231F20" font-size="6">Specimen</tspan></text>
		<text transform="matrix(1 0 0 1 275.4912 219.1831)" fill="#231F20" font-size="7">TID 1009</text>
		<g>
			<path fill="#CCDEF0" d="M364.693,225.541c0-1.98,1.62-3.6,3.6-3.6h53.832c1.979,0,3.6,1.62,3.6,3.6v12.952
				c0,1.98-1.62,3.6-3.6,3.6h-53.832c-1.979,0-3.6-1.62-3.6-3.6V225.541z"/>
			<path fill="none" stroke="#000000" stroke-width="0.75" stroke-linecap="square" stroke-miterlimit="1" d="M364.693,225.541
				c0-1.98,1.62-3.6,3.6-3.6h53.832c1.979,0,3.6,1.62,3.6,3.6v12.952c0,1.98-1.62,3.6-3.6,3.6h-53.832c-1.979,0-3.6-1.62-3.6-3.6
				V225.541z"/>
		</g>
		<text transform="matrix(1 0 0 1 368.6465 230.0874)"><tspan x="0" y="0" fill="#231F20" font-size="6">Subject Context,</tspan><tspan x="0" y="7.2" fill="#231F20" font-size="6">Patient</tspan></text>
		<text transform="matrix(1 0 0 1 364.0049 219.1821)" fill="#231F20" font-size="7">TID 1007</text>
		<g>
			<g>
				<polyline fill="none" stroke="#231F20" stroke-width="0.75" stroke-linecap="square" stroke-miterlimit="10" points="
					264.455,155.155 264.455,192.757 269.719,192.757 				"/>
				<g>
					<polygon fill="#231F20" points="268.232,194.936 276.363,192.757 268.232,190.578 					"/>
				</g>
			</g>
		</g>
		<g>
			<g>
				<polyline fill="none" stroke="#231F20" stroke-width="0.75" stroke-linecap="square" stroke-miterlimit="10" points="
					264.455,192.851 264.455,232.017 269.719,232.017 				"/>
				<g>
					<polygon fill="#231F20" points="268.232,234.195 276.363,232.017 268.232,229.838 					"/>
				</g>
			</g>
		</g>
		<g>
			<g>
				<polyline fill="none" stroke="#231F20" stroke-width="0.75" stroke-linecap="square" stroke-miterlimit="10" points="
					264.455,232.21 264.455,271.276 269.719,271.276 				"/>
				<g>
					<polygon fill="#231F20" points="268.232,273.455 276.363,271.276 268.232,269.098 					"/>
				</g>
			</g>
		</g>
		<g>
			<g>
				
					<line fill="none" stroke="#231F20" stroke-width="0.75" stroke-linecap="square" stroke-miterlimit="10" x1="337.213" y1="232.017" x2="358.049" y2="232.017"/>
				<g>
					<polygon fill="#231F20" points="356.562,234.195 364.693,232.017 356.562,229.838 					"/>
				</g>
			</g>
		</g>
		<g>
			<g>
				
					<line fill="none" stroke="#231F20" stroke-width="0.75" stroke-linecap="square" stroke-miterlimit="10" x1="251.175" y1="424.916" x2="270.296" y2="424.916"/>
				<g>
					<polygon fill="#231F20" points="268.81,427.095 276.94,424.916 268.81,422.737 					"/>
				</g>
			</g>
		</g>
		<g>
			<path fill="#CCDEF0" d="M277.817,534.634c0-1.979,1.62-3.6,3.6-3.6h53.833c1.979,0,3.6,1.62,3.6,3.6v12.949
				c0,1.979-1.62,3.6-3.6,3.6h-53.833c-1.98,0-3.6-1.62-3.6-3.6V534.634z"/>
			<path fill="none" stroke="#000000" stroke-width="0.75" stroke-linecap="square" stroke-miterlimit="1" d="M277.817,534.634
				c0-1.979,1.62-3.6,3.6-3.6h53.833c1.979,0,3.6,1.62,3.6,3.6v12.949c0,1.979-1.62,3.6-3.6,3.6h-53.833c-1.98,0-3.6-1.62-3.6-3.6
				V534.634z"/>
		</g>
		<text transform="matrix(1 0 0 1 281.1001 539.1436)"><tspan x="0" y="0" fill="#231F20" font-size="6">Algorithm</tspan><tspan x="0" y="7.2" fill="#231F20" font-size="6">Identification</tspan></text>
		<text transform="matrix(1 0 0 1 277.127 527.9375)" fill="#231F20" font-size="7">TID 4019</text>
		<g>
			<path fill="#CCDEF0" d="M277.817,456.113c0-1.98,1.62-3.6,3.6-3.6h53.833c1.979,0,3.6,1.62,3.6,3.6v12.953
				c0,1.979-1.62,3.6-3.6,3.6h-53.833c-1.98,0-3.6-1.62-3.6-3.6V456.113z"/>
			<path fill="none" stroke="#000000" stroke-width="0.75" stroke-linecap="square" stroke-miterlimit="1" d="M277.817,456.113
				c0-1.98,1.62-3.6,3.6-3.6h53.833c1.979,0,3.6,1.62,3.6,3.6v12.953c0,1.979-1.62,3.6-3.6,3.6h-53.833c-1.98,0-3.6-1.62-3.6-3.6
				V456.113z"/>
		</g>
		<text transform="matrix(1 0 0 1 281.1006 464.2295)" fill="#231F20" font-size="6">Equation or Table</text>
		<text transform="matrix(1 0 0 1 279.0732 449.395)" fill="#231F20" font-size="7">TID 315</text>
		<g>
			<path fill="#CCDEF0" d="M277.817,418.442c0-1.98,1.62-3.6,3.6-3.6h53.833c1.979,0,3.6,1.62,3.6,3.6v12.948
				c0,1.98-1.62,3.6-3.6,3.6h-53.833c-1.98,0-3.6-1.62-3.6-3.6V418.442z"/>
			<path fill="none" stroke="#000000" stroke-width="0.75" stroke-linecap="square" stroke-miterlimit="1" d="M277.817,418.442
				c0-1.98,1.62-3.6,3.6-3.6h53.833c1.979,0,3.6,1.62,3.6,3.6v12.948c0,1.98-1.62,3.6-3.6,3.6h-53.833c-1.98,0-3.6-1.62-3.6-3.6
				V418.442z"/>
		</g>
		<text transform="matrix(1 0 0 1 281.1001 423.522)"><tspan x="0" y="0" fill="#231F20" font-size="6">Measurement</tspan><tspan x="0" y="7.2" fill="#231F20" font-size="6">Properties</tspan></text>
		<text transform="matrix(1 0 0 1 279.0732 411.2231)" fill="#231F20" font-size="7">TID 310</text>
		<g>
			<path fill="#CCDEF0" d="M277.817,495.372c0-1.979,1.62-3.6,3.6-3.6h53.833c1.979,0,3.6,1.62,3.6,3.6v12.953
				c0,1.979-1.62,3.6-3.6,3.6h-53.833c-1.98,0-3.6-1.62-3.6-3.6V495.372z"/>
			<path fill="none" stroke="#000000" stroke-width="0.75" stroke-linecap="square" stroke-miterlimit="1" d="M277.817,495.372
				c0-1.979,1.62-3.6,3.6-3.6h53.833c1.979,0,3.6,1.62,3.6,3.6v12.953c0,1.979-1.62,3.6-3.6,3.6h-53.833c-1.98,0-3.6-1.62-3.6-3.6
				V495.372z"/>
		</g>
		<text transform="matrix(1 0 0 1 281.1001 503.4893)" fill="#231F20" font-size="6">Quotation</text>
		<text transform="matrix(1 0 0 1 277.127 488.9873)" fill="#231F20" font-size="7">TID 1000</text>
		<g>
			<g>
				<polyline fill="none" stroke="#231F20" stroke-width="0.75" stroke-linecap="square" stroke-miterlimit="10" points="
					266.091,425.088 266.091,462.589 271.354,462.589 				"/>
				<g>
					<polygon fill="#231F20" points="269.868,464.768 277.999,462.589 269.868,460.41 					"/>
				</g>
			</g>
		</g>
		<g>
			<g>
				<polyline fill="none" stroke="#231F20" stroke-width="0.75" stroke-linecap="square" stroke-miterlimit="10" points="
					266.091,462.683 266.091,501.849 271.354,501.849 				"/>
				<g>
					<polygon fill="#231F20" points="269.868,504.027 277.999,501.849 269.868,499.67 					"/>
				</g>
			</g>
		</g>
		<g>
			<g>
				<polyline fill="none" stroke="#231F20" stroke-width="0.75" stroke-linecap="square" stroke-miterlimit="10" points="
					266.091,502.042 266.091,541.108 271.354,541.108 				"/>
				<g>
					<polygon fill="#231F20" points="269.868,543.287 277.999,541.108 269.868,538.93 					"/>
				</g>
			</g>
		</g>
		<g>
			<path fill="#CCDEF0" d="M189.723,417.942c0-1.98,1.62-3.6,3.6-3.6h53.831c1.98,0,3.6,1.62,3.6,3.6v12.952
				c0,1.98-1.62,3.6-3.6,3.6h-53.831c-1.98,0-3.6-1.62-3.6-3.6V417.942z"/>
			<path fill="none" stroke="#000000" stroke-width="0.75" stroke-linecap="square" stroke-miterlimit="1" d="M189.723,417.942
				c0-1.98,1.62-3.6,3.6-3.6h53.831c1.98,0,3.6,1.62,3.6,3.6v12.952c0,1.98-1.62,3.6-3.6,3.6h-53.831c-1.98,0-3.6-1.62-3.6-3.6
				V417.942z"/>
		</g>
		<text transform="matrix(1 0 0 1 193.0059 422.6235)"><tspan x="0" y="0" fill="#231F20" font-size="6">ROI</tspan><tspan x="0" y="7.2" fill="#231F20" font-size="6">Measurements</tspan></text>
		<text transform="matrix(1 0 0 1 189.0322 411.2231)" fill="#231F20" font-size="7">TID 1419</text>
		<g>
			<g>
				<polyline fill="none" stroke="#231F20" stroke-width="0.75" stroke-linecap="square" stroke-miterlimit="10" points="
					177.996,386.916 177.996,424.418 183.26,424.418 				"/>
				<g>
					<polygon fill="#231F20" points="181.773,426.597 189.904,424.418 181.773,422.239 					"/>
				</g>
			</g>
		</g>
		<g>
			<path fill="#CCDEF0" d="M101.893,304.284c0-1.98,1.62-3.6,3.6-3.6h53.829c1.98,0,3.6,1.62,3.6,3.6v12.953
				c0,1.98-1.62,3.6-3.6,3.6h-53.829c-1.98,0-3.6-1.62-3.6-3.6V304.284z"/>
			<path fill="none" stroke="#000000" stroke-width="0.75" stroke-linecap="square" stroke-miterlimit="1" d="M101.893,304.284
				c0-1.98,1.62-3.6,3.6-3.6h53.829c1.98,0,3.6,1.62,3.6,3.6v12.953c0,1.98-1.62,3.6-3.6,3.6h-53.829c-1.98,0-3.6-1.62-3.6-3.6
				V304.284z"/>
		</g>
		<text transform="matrix(1 0 0 1 105.6367 312.4224)" fill="#231F20" font-size="6">Image Library</text>
		<text transform="matrix(1 0 0 1 101.0527 297.0918)" fill="#231F20" font-size="7">TID 1600</text>
		<g>
			<g>
				<polyline fill="none" stroke="#231F20" stroke-width="0.75" stroke-linecap="square" stroke-miterlimit="10" points="
					91.385,77.348 91.385,310.761 95.518,310.761 				"/>
				<g>
					<polygon fill="#231F20" points="94.031,312.939 102.162,310.761 94.031,308.582 					"/>
				</g>
			</g>
		</g>
		<g>
			<g>
				
					<line fill="none" stroke="#231F20" stroke-width="0.75" stroke-linecap="square" stroke-miterlimit="10" x1="163.08" y1="310.761" x2="182.201" y2="310.761"/>
				<g>
					<polygon fill="#231F20" points="180.715,312.939 188.846,310.761 180.715,308.582 					"/>
				</g>
			</g>
		</g>
		<g>
			<g>
				<polyline fill="none" stroke="#231F20" stroke-width="0.75" stroke-linecap="square" stroke-miterlimit="10" points="
					498.559,310.833 498.559,348.435 503.822,348.435 				"/>
				<g>
					<polygon fill="#231F20" points="502.336,350.613 510.467,348.435 502.336,346.256 					"/>
				</g>
			</g>
		</g>
		<g>
			<g>
				<polyline fill="none" stroke="#231F20" stroke-width="0.75" stroke-linecap="square" stroke-miterlimit="10" points="
					353.08,348.808 353.08,386.61 358.344,386.61 				"/>
				<g>
					<polygon fill="#231F20" points="356.857,388.789 364.988,386.61 356.857,384.432 					"/>
				</g>
			</g>
		</g>
		<g>
			<path fill="#CCDEF0" d="M189.723,304.286c0-1.98,1.62-3.6,3.6-3.6h53.831c1.98,0,3.6,1.62,3.6,3.6v12.949
				c0,1.98-1.62,3.6-3.6,3.6h-53.831c-1.98,0-3.6-1.62-3.6-3.6V304.286z"/>
			<path fill="none" stroke="#000000" stroke-width="0.75" stroke-linecap="square" stroke-miterlimit="1" d="M189.723,304.286
				c0-1.98,1.62-3.6,3.6-3.6h53.831c1.98,0,3.6,1.62,3.6,3.6v12.949c0,1.98-1.62,3.6-3.6,3.6h-53.831c-1.98,0-3.6-1.62-3.6-3.6
				V304.286z"/>
		</g>
		<text transform="matrix(1 0 0 1 193.0054 309.395)"><tspan x="0" y="0" fill="#231F20" font-size="6">Image Library Entry</tspan><tspan x="0" y="7.2" fill="#231F20" font-size="6">Descriptors</tspan></text>
		<text transform="matrix(1 0 0 1 189.0322 297.0962)" fill="#231F20" font-size="7">TID 1602</text>
		<g>
			<path fill="#CCDEF0" d="M277.817,342.01c0-1.98,1.62-3.6,3.6-3.6h53.833c1.979,0,3.6,1.62,3.6,3.6v12.949
				c0,1.98-1.62,3.6-3.6,3.6h-53.833c-1.98,0-3.6-1.62-3.6-3.6V342.01z"/>
			<path fill="none" stroke="#000000" stroke-width="0.75" stroke-linecap="square" stroke-miterlimit="1" d="M277.817,342.01
				c0-1.98,1.62-3.6,3.6-3.6h53.833c1.979,0,3.6,1.62,3.6,3.6v12.949c0,1.98-1.62,3.6-3.6,3.6h-53.833c-1.98,0-3.6-1.62-3.6-3.6
				V342.01z"/>
		</g>
		<text transform="matrix(1 0 0 1 281.1001 347.1196)"><tspan x="0" y="0" fill="#231F20" font-size="6">Image Library Entry</tspan><tspan x="0" y="7.2" fill="#231F20" font-size="6">Descriptors</tspan></text>
		<text transform="matrix(1 0 0 1 277.127 334.8208)" fill="#231F20" font-size="7">TID 1602</text>
		<g>
			<g>
				
					<line fill="none" stroke="#231F20" stroke-width="0.75" stroke-linecap="square" stroke-miterlimit="10" x1="251.217" y1="310.761" x2="502.764" y2="310.761"/>
				<g>
					<polygon fill="#231F20" points="501.277,312.939 509.408,310.761 501.277,308.582 					"/>
				</g>
			</g>
		</g>
		<g>
			<path fill="#CCDEF0" d="M510.285,418.468c0-1.98,1.62-3.6,3.6-3.6h110.994c1.979,0,3.6,1.62,3.6,3.6v12.948
				c0,1.98-1.62,3.6-3.6,3.6H513.885c-1.979,0-3.6-1.62-3.6-3.6V418.468z"/>
			<path fill="none" stroke="#000000" stroke-width="0.75" stroke-linecap="square" stroke-miterlimit="1" d="M510.285,418.468
				c0-1.98,1.62-3.6,3.6-3.6h110.994c1.979,0,3.6,1.62,3.6,3.6v12.948c0,1.98-1.62,3.6-3.6,3.6H513.885c-1.979,0-3.6-1.62-3.6-3.6
				V418.468z"/>
		</g>
		<text transform="matrix(1 0 0 1 513.6094 423.0005)"><tspan x="0" y="0" fill="#231F20" font-size="6">Image Library Entry</tspan><tspan x="0" y="7.2" fill="#231F20" font-size="6">Descriptors fo MR</tspan></text>
		<text transform="matrix(1 0 0 1 509.6367 411.7944)" fill="#231F20" font-size="7">TID 1606</text>
		<g>
			<path fill="#CCDEF0" d="M510.285,341.958c0-1.98,1.62-3.6,3.6-3.6h110.994c1.979,0,3.6,1.62,3.6,3.6v12.952
				c0,1.98-1.62,3.6-3.6,3.6H513.885c-1.979,0-3.6-1.62-3.6-3.6V341.958z"/>
			<path fill="none" stroke="#000000" stroke-width="0.75" stroke-linecap="square" stroke-miterlimit="1" d="M510.285,341.958
				c0-1.98,1.62-3.6,3.6-3.6h110.994c1.979,0,3.6,1.62,3.6,3.6v12.952c0,1.98-1.62,3.6-3.6,3.6H513.885c-1.979,0-3.6-1.62-3.6-3.6
				V341.958z"/>
		</g>
		<text transform="matrix(1 0 0 1 513.6104 346.6685)"><tspan x="0" y="0" fill="#231F20" font-size="6">Image Library Entry</tspan><tspan x="0" y="7.2" fill="#231F20" font-size="6">Descriptors for Cross-Sectional Modalities</tspan></text>
		<text transform="matrix(1 0 0 1 509.6367 335.2681)" fill="#231F20" font-size="7">TID 1604</text>
		<g>
			<path fill="#CCDEF0" d="M510.285,304.287c0-1.98,1.62-3.6,3.6-3.6h110.994c1.979,0,3.6,1.62,3.6,3.6v12.948
				c0,1.98-1.62,3.6-3.6,3.6H513.885c-1.979,0-3.6-1.62-3.6-3.6V304.287z"/>
			<path fill="none" stroke="#000000" stroke-width="0.75" stroke-linecap="square" stroke-miterlimit="1" d="M510.285,304.287
				c0-1.98,1.62-3.6,3.6-3.6h110.994c1.979,0,3.6,1.62,3.6,3.6v12.948c0,1.98-1.62,3.6-3.6,3.6H513.885c-1.979,0-3.6-1.62-3.6-3.6
				V304.287z"/>
		</g>
		<text transform="matrix(1 0 0 1 513.6094 309.395)"><tspan x="0" y="0" fill="#231F20" font-size="6">Image Library Entry</tspan><tspan x="0" y="7.2" fill="#231F20" font-size="6">Descriptors for Projection Radiography</tspan></text>
		<text transform="matrix(1 0 0 1 509.6367 297.0962)" fill="#231F20" font-size="7">TID 1603</text>
		<g>
			<path fill="#CCDEF0" d="M510.285,380.414c0-1.98,1.62-3.6,3.6-3.6h110.994c1.979,0,3.6,1.62,3.6,3.6v12.952
				c0,1.98-1.62,3.6-3.6,3.6H513.885c-1.979,0-3.6-1.62-3.6-3.6V380.414z"/>
			<path fill="none" stroke="#000000" stroke-width="0.75" stroke-linecap="square" stroke-miterlimit="1" d="M510.285,380.414
				c0-1.98,1.62-3.6,3.6-3.6h110.994c1.979,0,3.6,1.62,3.6,3.6v12.952c0,1.98-1.62,3.6-3.6,3.6H513.885c-1.979,0-3.6-1.62-3.6-3.6
				V380.414z"/>
		</g>
		<text transform="matrix(1 0 0 1 513.6094 384.9575)"><tspan x="0" y="0" fill="#231F20" font-size="6">Image Library Entry</tspan><tspan x="0" y="7.2" fill="#231F20" font-size="6">Descriptors for CT</tspan></text>
		<text transform="matrix(1 0 0 1 509.6367 374.0532)" fill="#231F20" font-size="7">TID 1605</text>
		<g>
			<g>
				<polyline fill="none" stroke="#231F20" stroke-width="0.75" stroke-linecap="square" stroke-miterlimit="10" points="
					498.559,348.528 498.559,386.89 503.822,386.89 				"/>
				<g>
					<polygon fill="#231F20" points="502.336,389.068 510.467,386.89 502.336,384.711 					"/>
				</g>
			</g>
		</g>
		<g>
			<g>
				<polyline fill="none" stroke="#231F20" stroke-width="0.75" stroke-linecap="square" stroke-miterlimit="10" points="
					498.559,387.083 498.559,424.942 503.822,424.942 				"/>
				<g>
					<polygon fill="#231F20" points="502.336,427.121 510.467,424.942 502.336,422.764 					"/>
				</g>
			</g>
		</g>
		<g>
			<path fill="#CCDEF0" d="M510.285,457.108c0-1.979,1.62-3.6,3.6-3.6h110.994c1.979,0,3.6,1.62,3.6,3.6v12.949
				c0,1.979-1.62,3.6-3.6,3.6H513.885c-1.979,0-3.6-1.62-3.6-3.6V457.108z"/>
			<path fill="none" stroke="#000000" stroke-width="0.75" stroke-linecap="square" stroke-miterlimit="1" d="M510.285,457.108
				c0-1.979,1.62-3.6,3.6-3.6h110.994c1.979,0,3.6,1.62,3.6,3.6v12.949c0,1.979-1.62,3.6-3.6,3.6H513.885c-1.979,0-3.6-1.62-3.6-3.6
				V457.108z"/>
		</g>
		<text transform="matrix(1 0 0 1 513.6094 461.6436)"><tspan x="0" y="0" fill="#231F20" font-size="6">Image Library Entry</tspan><tspan x="0" y="7.2" fill="#231F20" font-size="6">Descriptors fo PET</tspan></text>
		<text transform="matrix(1 0 0 1 509.6367 450.437)" fill="#231F20" font-size="7">TID 1607</text>
		<g>
			<g>
				<polyline fill="none" stroke="#231F20" stroke-width="0.75" stroke-linecap="square" stroke-miterlimit="10" points="
					498.559,424.115 498.559,463.583 503.822,463.583 				"/>
				<g>
					<polygon fill="#231F20" points="502.336,465.762 510.467,463.583 502.336,461.404 					"/>
				</g>
			</g>
		</g>
		<g>
			<path fill="#CCDEF0" d="M189.723,342.01c0-1.98,1.62-3.6,3.6-3.6h53.831c1.98,0,3.6,1.62,3.6,3.6v12.949c0,1.98-1.62,3.6-3.6,3.6
				h-53.831c-1.98,0-3.6-1.62-3.6-3.6V342.01z"/>
			<path fill="none" stroke="#000000" stroke-width="0.75" stroke-linecap="square" stroke-miterlimit="1" d="M189.723,342.01
				c0-1.98,1.62-3.6,3.6-3.6h53.831c1.98,0,3.6,1.62,3.6,3.6v12.949c0,1.98-1.62,3.6-3.6,3.6h-53.831c-1.98,0-3.6-1.62-3.6-3.6
				V342.01z"/>
		</g>
		<text transform="matrix(1 0 0 1 193.0054 350.1538)" fill="#231F20" font-size="6">Image Library Entry</text>
		<text transform="matrix(1 0 0 1 189.0322 334.8208)" fill="#231F20" font-size="7">TID 1601</text>
		<g>
			<g>
				
					<line fill="none" stroke="#231F20" stroke-width="0.75" stroke-linecap="square" stroke-miterlimit="10" x1="338.85" y1="348.485" x2="357.312" y2="348.485"/>
				<g>
					<polygon fill="#231F20" points="355.826,350.664 363.957,348.485 355.826,346.307 					"/>
				</g>
			</g>
		</g>
		<g>
			<g>
				
					<line fill="none" stroke="#231F20" stroke-width="0.75" stroke-linecap="square" stroke-miterlimit="10" x1="251.217" y1="348.485" x2="271.173" y2="348.485"/>
				<g>
					<polygon fill="#231F20" points="269.687,350.664 277.817,348.485 269.687,346.307 					"/>
				</g>
			</g>
		</g>
		<g>
			<path fill="#CCDEF0" d="M364.834,456.193c0-1.98,1.62-3.6,3.6-3.6h110.994c1.979,0,3.6,1.62,3.6,3.6v12.949
				c0,1.979-1.62,3.6-3.6,3.6H368.434c-1.979,0-3.6-1.62-3.6-3.6V456.193z"/>
			<path fill="none" stroke="#000000" stroke-width="0.75" stroke-linecap="square" stroke-miterlimit="1" d="M364.834,456.193
				c0-1.98,1.62-3.6,3.6-3.6h110.994c1.979,0,3.6,1.62,3.6,3.6v12.949c0,1.979-1.62,3.6-3.6,3.6H368.434c-1.979,0-3.6-1.62-3.6-3.6
				V456.193z"/>
		</g>
		<text transform="matrix(1 0 0 1 368.1318 460.7256)"><tspan x="0" y="0" fill="#231F20" font-size="6">Image Library Entry</tspan><tspan x="0" y="7.2" fill="#231F20" font-size="6">Descriptors fo MR</tspan></text>
		<text transform="matrix(1 0 0 1 364.1582 449.519)" fill="#231F20" font-size="7">TID 1606</text>
		<g>
			<path fill="#CCDEF0" d="M364.834,379.683c0-1.98,1.62-3.6,3.6-3.6h110.994c1.979,0,3.6,1.62,3.6,3.6v12.952
				c0,1.98-1.62,3.6-3.6,3.6H368.434c-1.979,0-3.6-1.62-3.6-3.6V379.683z"/>
			<path fill="none" stroke="#000000" stroke-width="0.75" stroke-linecap="square" stroke-miterlimit="1" d="M364.834,379.683
				c0-1.98,1.62-3.6,3.6-3.6h110.994c1.979,0,3.6,1.62,3.6,3.6v12.952c0,1.98-1.62,3.6-3.6,3.6H368.434c-1.979,0-3.6-1.62-3.6-3.6
				V379.683z"/>
		</g>
		<text transform="matrix(1 0 0 1 368.1328 384.3931)"><tspan x="0" y="0" fill="#231F20" font-size="6">Image Library Entry</tspan><tspan x="0" y="7.2" fill="#231F20" font-size="6">Descriptors for Cross-Sectional Modalities</tspan></text>
		<text transform="matrix(1 0 0 1 364.1582 372.9927)" fill="#231F20" font-size="7">TID 1604</text>
		<g>
			<path fill="#CCDEF0" d="M364.834,342.011c0-1.98,1.62-3.6,3.6-3.6h110.994c1.979,0,3.6,1.62,3.6,3.6v12.948
				c0,1.98-1.62,3.6-3.6,3.6H368.434c-1.979,0-3.6-1.62-3.6-3.6V342.011z"/>
			<path fill="none" stroke="#000000" stroke-width="0.75" stroke-linecap="square" stroke-miterlimit="1" d="M364.834,342.011
				c0-1.98,1.62-3.6,3.6-3.6h110.994c1.979,0,3.6,1.62,3.6,3.6v12.948c0,1.98-1.62,3.6-3.6,3.6H368.434c-1.979,0-3.6-1.62-3.6-3.6
				V342.011z"/>
		</g>
		<text transform="matrix(1 0 0 1 368.1318 347.1196)"><tspan x="0" y="0" fill="#231F20" font-size="6">Image Library Entry</tspan><tspan x="0" y="7.2" fill="#231F20" font-size="6">Descriptors for Projection Radiography</tspan></text>
		<text transform="matrix(1 0 0 1 364.1582 334.8208)" fill="#231F20" font-size="7">TID 1603</text>
		<g>
			<path fill="#CCDEF0" d="M364.834,418.138c0-1.98,1.62-3.6,3.6-3.6h110.994c1.979,0,3.6,1.62,3.6,3.6v12.952
				c0,1.98-1.62,3.6-3.6,3.6H368.434c-1.979,0-3.6-1.62-3.6-3.6V418.138z"/>
			<path fill="none" stroke="#000000" stroke-width="0.75" stroke-linecap="square" stroke-miterlimit="1" d="M364.834,418.138
				c0-1.98,1.62-3.6,3.6-3.6h110.994c1.979,0,3.6,1.62,3.6,3.6v12.952c0,1.98-1.62,3.6-3.6,3.6H368.434c-1.979,0-3.6-1.62-3.6-3.6
				V418.138z"/>
		</g>
		<text transform="matrix(1 0 0 1 368.1318 422.6821)"><tspan x="0" y="0" fill="#231F20" font-size="6">Image Library Entry</tspan><tspan x="0" y="7.2" fill="#231F20" font-size="6">Descriptors for CT</tspan></text>
		<text transform="matrix(1 0 0 1 364.1582 411.7778)" fill="#231F20" font-size="7">TID 1605</text>
		<g>
			<g>
				<polyline fill="none" stroke="#231F20" stroke-width="0.75" stroke-linecap="square" stroke-miterlimit="10" points="
					353.107,386.253 353.107,424.614 358.371,424.614 				"/>
				<g>
					<polygon fill="#231F20" points="356.885,426.793 365.016,424.614 356.885,422.436 					"/>
				</g>
			</g>
		</g>
		<g>
			<g>
				<polyline fill="none" stroke="#231F20" stroke-width="0.75" stroke-linecap="square" stroke-miterlimit="10" points="
					353.107,424.808 353.107,462.667 358.371,462.667 				"/>
				<g>
					<polygon fill="#231F20" points="356.885,464.846 365.016,462.667 356.885,460.488 					"/>
				</g>
			</g>
		</g>
		<g>
			<path fill="#CCDEF0" d="M364.834,494.833c0-1.979,1.62-3.6,3.6-3.6h110.994c1.979,0,3.6,1.62,3.6,3.6v12.949
				c0,1.979-1.62,3.6-3.6,3.6H368.434c-1.979,0-3.6-1.62-3.6-3.6V494.833z"/>
			<path fill="none" stroke="#000000" stroke-width="0.75" stroke-linecap="square" stroke-miterlimit="1" d="M364.834,494.833
				c0-1.979,1.62-3.6,3.6-3.6h110.994c1.979,0,3.6,1.62,3.6,3.6v12.949c0,1.979-1.62,3.6-3.6,3.6H368.434c-1.979,0-3.6-1.62-3.6-3.6
				V494.833z"/>
		</g>
		<text transform="matrix(1 0 0 1 368.1318 499.3682)"><tspan x="0" y="0" fill="#231F20" font-size="6">Image Library Entry</tspan><tspan x="0" y="7.2" fill="#231F20" font-size="6">Descriptors fo PET</tspan></text>
		<text transform="matrix(1 0 0 1 364.1582 488.1621)" fill="#231F20" font-size="7">TID 1607</text>
		<g>
			<g>
				<polyline fill="none" stroke="#231F20" stroke-width="0.75" stroke-linecap="square" stroke-miterlimit="10" points="
					353.107,461.839 353.107,501.308 358.371,501.308 				"/>
				<g>
					<polygon fill="#231F20" points="356.885,503.486 365.016,501.308 356.885,499.129 					"/>
				</g>
			</g>
		</g>
		<g>
			<path fill="#CCDEF0" d="M101.893,380.27c0-1.98,1.62-3.6,3.6-3.6h53.829c1.98,0,3.6,1.62,3.6,3.6v12.952c0,1.98-1.62,3.6-3.6,3.6
				h-53.829c-1.98,0-3.6-1.62-3.6-3.6V380.27z"/>
			<path fill="none" stroke="#000000" stroke-width="0.75" stroke-linecap="square" stroke-miterlimit="1" d="M101.893,380.27
				c0-1.98,1.62-3.6,3.6-3.6h53.829c1.98,0,3.6,1.62,3.6,3.6v12.952c0,1.98-1.62,3.6-3.6,3.6h-53.829c-1.98,0-3.6-1.62-3.6-3.6
				V380.27z"/>
		</g>
		<text transform="matrix(1 0 0 1 105.6367 385.3521)"><tspan x="0" y="0" fill="#231F20" font-size="6">Planar ROI</tspan><tspan x="0" y="7.2" fill="#231F20" font-size="6">Measurements</tspan></text>
		<text transform="matrix(1 0 0 1 101.0527 373.0488)" fill="#231F20" font-size="7">TID 1410</text>
		<g>
			<g>
				<polyline fill="none" stroke="#231F20" stroke-width="0.75" stroke-linecap="square" stroke-miterlimit="10" points="
					91.385,310.49 91.385,386.746 95.518,386.746 				"/>
				<g>
					<polygon fill="#231F20" points="94.031,388.925 102.162,386.746 94.031,384.567 					"/>
				</g>
			</g>
		</g>
		<g>
			<g>
				
					<line fill="none" stroke="#231F20" stroke-width="0.75" stroke-linecap="square" stroke-miterlimit="10" x1="163.08" y1="386.746" x2="182.201" y2="386.746"/>
				<g>
					<polygon fill="#231F20" points="180.715,388.925 188.846,386.746 180.715,384.567 					"/>
				</g>
			</g>
		</g>
		<g>
			<path fill="#CCDEF0" d="M189.723,380.272c0-1.98,1.62-3.6,3.6-3.6h53.831c1.98,0,3.6,1.62,3.6,3.6v12.948
				c0,1.98-1.62,3.6-3.6,3.6h-53.831c-1.98,0-3.6-1.62-3.6-3.6V380.272z"/>
			<path fill="none" stroke="#000000" stroke-width="0.75" stroke-linecap="square" stroke-miterlimit="1" d="M189.723,380.272
				c0-1.98,1.62-3.6,3.6-3.6h53.831c1.98,0,3.6,1.62,3.6,3.6v12.948c0,1.98-1.62,3.6-3.6,3.6h-53.831c-1.98,0-3.6-1.62-3.6-3.6
				V380.272z"/>
		</g>
		<text transform="matrix(1 0 0 1 193.0054 385.3521)"><tspan x="0" y="0" fill="#231F20" font-size="6">Time Point</tspan><tspan x="0" y="7.2" fill="#231F20" font-size="6">Context</tspan></text>
		<text transform="matrix(1 0 0 1 189.0322 373.0532)" fill="#231F20" font-size="7">TID 1502</text>
		<g>
			<g>
				
					<line fill="none" stroke="#231F20" stroke-width="0.75" stroke-linecap="square" stroke-miterlimit="10" x1="251.175" y1="578.813" x2="356.969" y2="578.813"/>
				<g>
					<polygon fill="#231F20" points="355.482,580.992 363.613,578.813 355.482,576.635 					"/>
				</g>
			</g>
		</g>
		<g>
			<path fill="#CCDEF0" d="M364.49,685.206c0-1.979,1.62-3.6,3.6-3.6h53.832c1.979,0,3.6,1.62,3.6,3.6v12.949
				c0,1.979-1.62,3.6-3.6,3.6H368.09c-1.979,0-3.6-1.62-3.6-3.6V685.206z"/>
			<path fill="none" stroke="#000000" stroke-width="0.75" stroke-linecap="square" stroke-miterlimit="1" d="M364.49,685.206
				c0-1.979,1.62-3.6,3.6-3.6h53.832c1.979,0,3.6,1.62,3.6,3.6v12.949c0,1.979-1.62,3.6-3.6,3.6H368.09c-1.979,0-3.6-1.62-3.6-3.6
				V685.206z"/>
		</g>
		<text transform="matrix(1 0 0 1 367.7881 689.708)"><tspan x="0" y="0" fill="#231F20" font-size="6">Algorithm</tspan><tspan x="0" y="7.2" fill="#231F20" font-size="6">Identification</tspan></text>
		<text transform="matrix(1 0 0 1 363.8145 678.502)" fill="#231F20" font-size="7">TID 4019</text>
		<g>
			<path fill="#CCDEF0" d="M364.49,610.011c0-1.979,1.62-3.6,3.6-3.6h53.832c1.979,0,3.6,1.62,3.6,3.6v12.953
				c0,1.979-1.62,3.6-3.6,3.6H368.09c-1.979,0-3.6-1.62-3.6-3.6V610.011z"/>
			<path fill="none" stroke="#000000" stroke-width="0.75" stroke-linecap="square" stroke-miterlimit="1" d="M364.49,610.011
				c0-1.979,1.62-3.6,3.6-3.6h53.832c1.979,0,3.6,1.62,3.6,3.6v12.953c0,1.979-1.62,3.6-3.6,3.6H368.09c-1.979,0-3.6-1.62-3.6-3.6
				V610.011z"/>
		</g>
		<text transform="matrix(1 0 0 1 367.7891 618.1201)" fill="#231F20" font-size="6">Equation or Table</text>
		<text transform="matrix(1 0 0 1 365.7617 603.2861)" fill="#231F20" font-size="7">TID 315</text>
		<g>
			<path fill="#CCDEF0" d="M364.49,572.339c0-1.979,1.62-3.6,3.6-3.6h53.832c1.979,0,3.6,1.62,3.6,3.6v12.949
				c0,1.979-1.62,3.6-3.6,3.6H368.09c-1.979,0-3.6-1.62-3.6-3.6V572.339z"/>
			<path fill="none" stroke="#000000" stroke-width="0.75" stroke-linecap="square" stroke-miterlimit="1" d="M364.49,572.339
				c0-1.979,1.62-3.6,3.6-3.6h53.832c1.979,0,3.6,1.62,3.6,3.6v12.949c0,1.979-1.62,3.6-3.6,3.6H368.09c-1.979,0-3.6-1.62-3.6-3.6
				V572.339z"/>
		</g>
		<text transform="matrix(1 0 0 1 367.7881 577.4131)"><tspan x="0" y="0" fill="#231F20" font-size="6">Measurement</tspan><tspan x="0" y="7.2" fill="#231F20" font-size="6">Properties</tspan></text>
		<text transform="matrix(1 0 0 1 365.7617 565.1143)" fill="#231F20" font-size="7">TID 310</text>
		<g>
			<path fill="#CCDEF0" d="M364.49,646.749c0-1.979,1.62-3.6,3.6-3.6h53.832c1.979,0,3.6,1.62,3.6,3.6v12.953
				c0,1.979-1.62,3.6-3.6,3.6H368.09c-1.979,0-3.6-1.62-3.6-3.6V646.749z"/>
			<path fill="none" stroke="#000000" stroke-width="0.75" stroke-linecap="square" stroke-miterlimit="1" d="M364.49,646.749
				c0-1.979,1.62-3.6,3.6-3.6h53.832c1.979,0,3.6,1.62,3.6,3.6v12.953c0,1.979-1.62,3.6-3.6,3.6H368.09c-1.979,0-3.6-1.62-3.6-3.6
				V646.749z"/>
		</g>
		<text transform="matrix(1 0 0 1 367.7881 654.8604)" fill="#231F20" font-size="6">Quotation</text>
		<text transform="matrix(1 0 0 1 363.8145 640.3574)" fill="#231F20" font-size="7">TID 1000</text>
		<g>
			<g>
				<polyline fill="none" stroke="#231F20" stroke-width="0.75" stroke-linecap="square" stroke-miterlimit="10" points="
					352.764,578.886 352.764,616.487 358.027,616.487 				"/>
				<g>
					<polygon fill="#231F20" points="356.541,618.666 364.672,616.487 356.541,614.309 					"/>
				</g>
			</g>
		</g>
		<g>
			<g>
				<polyline fill="none" stroke="#231F20" stroke-width="0.75" stroke-linecap="square" stroke-miterlimit="10" points="
					352.764,616.581 352.764,653.226 358.027,653.226 				"/>
				<g>
					<polygon fill="#231F20" points="356.541,655.404 364.672,653.226 356.541,651.047 					"/>
				</g>
			</g>
		</g>
		<g>
			<g>
				<polyline fill="none" stroke="#231F20" stroke-width="0.75" stroke-linecap="square" stroke-miterlimit="10" points="
					352.764,653.419 352.764,691.681 358.027,691.681 				"/>
				<g>
					<polygon fill="#231F20" points="356.541,693.859 364.672,691.681 356.541,689.502 					"/>
				</g>
			</g>
		</g>
		<g>
			<path fill="#CCDEF0" d="M277.817,880.269c0-1.979,1.62-3.6,3.6-3.6h53.833c1.979,0,3.6,1.62,3.6,3.6v12.949
				c0,1.979-1.62,3.6-3.6,3.6h-53.833c-1.98,0-3.6-1.62-3.6-3.6V880.269z"/>
			<path fill="none" stroke="#000000" stroke-width="0.75" stroke-linecap="square" stroke-miterlimit="1" d="M277.817,880.269
				c0-1.979,1.62-3.6,3.6-3.6h53.833c1.979,0,3.6,1.62,3.6,3.6v12.949c0,1.979-1.62,3.6-3.6,3.6h-53.833c-1.98,0-3.6-1.62-3.6-3.6
				V880.269z"/>
		</g>
		<text transform="matrix(1 0 0 1 281.1001 884.748)"><tspan x="0" y="0" fill="#231F20" font-size="6">Algorithm</tspan><tspan x="0" y="7.2" fill="#231F20" font-size="6">Identification</tspan></text>
		<text transform="matrix(1 0 0 1 277.127 873.542)" fill="#231F20" font-size="7">TID 4019</text>
		<g>
			<path fill="#CCDEF0" d="M277.817,801.747c0-1.979,1.62-3.6,3.6-3.6h53.833c1.979,0,3.6,1.62,3.6,3.6V814.7
				c0,1.979-1.62,3.6-3.6,3.6h-53.833c-1.98,0-3.6-1.62-3.6-3.6V801.747z"/>
			<path fill="none" stroke="#000000" stroke-width="0.75" stroke-linecap="square" stroke-miterlimit="1" d="M277.817,801.747
				c0-1.979,1.62-3.6,3.6-3.6h53.833c1.979,0,3.6,1.62,3.6,3.6V814.7c0,1.979-1.62,3.6-3.6,3.6h-53.833c-1.98,0-3.6-1.62-3.6-3.6
				V801.747z"/>
		</g>
		<text transform="matrix(1 0 0 1 281.1006 809.834)" fill="#231F20" font-size="6">Quotation</text>
		<text transform="matrix(1 0 0 1 277.127 795)" fill="#231F20" font-size="7">TID 1000</text>
		<g>
			<path fill="#CCDEF0" d="M277.817,841.007c0-1.979,1.62-3.6,3.6-3.6h53.833c1.979,0,3.6,1.62,3.6,3.6v12.953
				c0,1.979-1.62,3.6-3.6,3.6h-53.833c-1.98,0-3.6-1.62-3.6-3.6V841.007z"/>
			<path fill="none" stroke="#000000" stroke-width="0.75" stroke-linecap="square" stroke-miterlimit="1" d="M277.817,841.007
				c0-1.979,1.62-3.6,3.6-3.6h53.833c1.979,0,3.6,1.62,3.6,3.6v12.953c0,1.979-1.62,3.6-3.6,3.6h-53.833c-1.98,0-3.6-1.62-3.6-3.6
				V841.007z"/>
		</g>
		<text transform="matrix(1 0 0 1 281.1001 849.0938)" fill="#231F20" font-size="6">Tracking Identifier</text>
		<text transform="matrix(1 0 0 1 277.127 834.5918)" fill="#231F20" font-size="7">TID 4108</text>
		<g>
			<g>
				<polyline fill="none" stroke="#231F20" stroke-width="0.75" stroke-linecap="square" stroke-miterlimit="10" points="
					266.091,770.421 266.091,808.224 271.354,808.224 				"/>
				<g>
					<polygon fill="#231F20" points="269.868,810.402 277.999,808.224 269.868,806.045 					"/>
				</g>
			</g>
		</g>
		<g>
			<g>
				<polyline fill="none" stroke="#231F20" stroke-width="0.75" stroke-linecap="square" stroke-miterlimit="10" points="
					266.091,808.317 266.091,847.483 271.354,847.483 				"/>
				<g>
					<polygon fill="#231F20" points="269.868,849.662 277.999,847.483 269.868,845.305 					"/>
				</g>
			</g>
		</g>
		<g>
			<g>
				<polyline fill="none" stroke="#231F20" stroke-width="0.75" stroke-linecap="square" stroke-miterlimit="10" points="
					266.091,847.677 266.091,886.743 271.354,886.743 				"/>
				<g>
					<polygon fill="#231F20" points="269.868,888.922 277.999,886.743 269.868,884.564 					"/>
				</g>
			</g>
		</g>
		<g>
			<path fill="#CCDEF0" d="M189.723,571.839c0-1.979,1.62-3.6,3.6-3.6h53.831c1.98,0,3.6,1.62,3.6,3.6v12.953
				c0,1.979-1.62,3.6-3.6,3.6h-53.831c-1.98,0-3.6-1.62-3.6-3.6V571.839z"/>
			<path fill="none" stroke="#000000" stroke-width="0.75" stroke-linecap="square" stroke-miterlimit="1" d="M189.723,571.839
				c0-1.979,1.62-3.6,3.6-3.6h53.831c1.98,0,3.6,1.62,3.6,3.6v12.953c0,1.979-1.62,3.6-3.6,3.6h-53.831c-1.98,0-3.6-1.62-3.6-3.6
				V571.839z"/>
		</g>
		<text transform="matrix(1 0 0 1 193.0059 576.5156)"><tspan x="0" y="0" fill="#231F20" font-size="6">ROI</tspan><tspan x="0" y="7.2" fill="#231F20" font-size="6">Measurements</tspan></text>
		<text transform="matrix(1 0 0 1 189.0322 565.1152)" fill="#231F20" font-size="7">TID 1419</text>
		<g>
			<g>
				<polyline fill="none" stroke="#231F20" stroke-width="0.75" stroke-linecap="square" stroke-miterlimit="10" points="
					177.996,540.714 177.996,578.315 183.26,578.315 				"/>
				<g>
					<polygon fill="#231F20" points="181.773,580.494 189.904,578.315 181.773,576.137 					"/>
				</g>
			</g>
		</g>
		<g>
			<path fill="#CCDEF0" d="M101.893,534.167c0-1.979,1.62-3.6,3.6-3.6h53.829c1.98,0,3.6,1.62,3.6,3.6v12.953
				c0,1.979-1.62,3.6-3.6,3.6h-53.829c-1.98,0-3.6-1.62-3.6-3.6V534.167z"/>
			<path fill="none" stroke="#000000" stroke-width="0.75" stroke-linecap="square" stroke-miterlimit="1" d="M101.893,534.167
				c0-1.979,1.62-3.6,3.6-3.6h53.829c1.98,0,3.6,1.62,3.6,3.6v12.953c0,1.979-1.62,3.6-3.6,3.6h-53.829c-1.98,0-3.6-1.62-3.6-3.6
				V534.167z"/>
		</g>
		<text transform="matrix(1 0 0 1 105.6367 539.2432)"><tspan x="0" y="0" fill="#231F20" font-size="6">Volumetric ROI</tspan><tspan x="0" y="7.2" fill="#231F20" font-size="6">Measurements</tspan></text>
		<text transform="matrix(1 0 0 1 101.0527 526.9395)" fill="#231F20" font-size="7">TID 1411</text>
		<g>
			<g>
				<polyline fill="none" stroke="#231F20" stroke-width="0.75" stroke-linecap="square" stroke-miterlimit="10" points="
					91.385,386.49 91.385,540.644 95.518,540.644 				"/>
				<g>
					<polygon fill="#231F20" points="94.031,542.822 102.162,540.644 94.031,538.465 					"/>
				</g>
			</g>
		</g>
		<g>
			<g>
				
					<line fill="none" stroke="#231F20" stroke-width="0.75" stroke-linecap="square" stroke-miterlimit="10" x1="163.08" y1="540.644" x2="182.201" y2="540.644"/>
				<g>
					<polygon fill="#231F20" points="180.715,542.822 188.846,540.644 180.715,538.465 					"/>
				</g>
			</g>
		</g>
		<g>
			<path fill="#CCDEF0" d="M189.723,534.169c0-1.979,1.62-3.6,3.6-3.6h53.831c1.98,0,3.6,1.62,3.6,3.6v12.949
				c0,1.979-1.62,3.6-3.6,3.6h-53.831c-1.98,0-3.6-1.62-3.6-3.6V534.169z"/>
			<path fill="none" stroke="#000000" stroke-width="0.75" stroke-linecap="square" stroke-miterlimit="1" d="M189.723,534.169
				c0-1.979,1.62-3.6,3.6-3.6h53.831c1.98,0,3.6,1.62,3.6,3.6v12.949c0,1.979-1.62,3.6-3.6,3.6h-53.831c-1.98,0-3.6-1.62-3.6-3.6
				V534.169z"/>
		</g>
		<text transform="matrix(1 0 0 1 193.0054 539.2441)"><tspan x="0" y="0" fill="#231F20" font-size="6">Time Point</tspan><tspan x="0" y="7.2" fill="#231F20" font-size="6">Context</tspan></text>
		<text transform="matrix(1 0 0 1 189.0322 526.9453)" fill="#231F20" font-size="7">TID 1502</text>
		<g>
			<g>
				
					<line fill="none" stroke="#231F20" stroke-width="0.75" stroke-linecap="square" stroke-miterlimit="10" x1="251.175" y1="654.228" x2="270.296" y2="654.228"/>
				<g>
					<polygon fill="#231F20" points="268.81,656.406 276.94,654.228 268.81,652.049 					"/>
				</g>
			</g>
		</g>
		<g>
			<path fill="#CCDEF0" d="M277.817,763.946c0-1.979,1.62-3.6,3.6-3.6h67.801c1.979,0,3.6,1.62,3.6,3.6v12.949
				c0,1.979-1.62,3.6-3.6,3.6h-67.801c-1.98,0-3.6-1.62-3.6-3.6V763.946z"/>
			<path fill="none" stroke="#000000" stroke-width="0.75" stroke-linecap="square" stroke-miterlimit="1" d="M277.817,763.946
				c0-1.979,1.62-3.6,3.6-3.6h67.801c1.979,0,3.6,1.62,3.6,3.6v12.949c0,1.979-1.62,3.6-3.6,3.6h-67.801c-1.98,0-3.6-1.62-3.6-3.6
				V763.946z"/>
		</g>
		<text transform="matrix(1 0 0 1 281.1001 768.4258)"><tspan x="0" y="0" fill="#231F20" font-size="6">Waveform or Temporal</tspan><tspan x="0" y="7.2" fill="#231F20" font-size="6">Coordinates</tspan></text>
		<text transform="matrix(1 0 0 1 279.0732 757.2197)" fill="#231F20" font-size="7">TID 321</text>
		<g>
			<path fill="#CCDEF0" d="M277.817,685.425c0-1.979,1.62-3.6,3.6-3.6h53.833c1.979,0,3.6,1.62,3.6,3.6v12.953
				c0,1.979-1.62,3.6-3.6,3.6h-53.833c-1.98,0-3.6-1.62-3.6-3.6V685.425z"/>
			<path fill="none" stroke="#000000" stroke-width="0.75" stroke-linecap="square" stroke-miterlimit="1" d="M277.817,685.425
				c0-1.979,1.62-3.6,3.6-3.6h53.833c1.979,0,3.6,1.62,3.6,3.6v12.953c0,1.979-1.62,3.6-3.6,3.6h-53.833c-1.98,0-3.6-1.62-3.6-3.6
				V685.425z"/>
		</g>
		<text transform="matrix(1 0 0 1 281.1006 693.5117)" fill="#231F20" font-size="6">Equation or Table</text>
		<text transform="matrix(1 0 0 1 279.0732 678.6777)" fill="#231F20" font-size="7">TID 315</text>
		<g>
			<path fill="#CCDEF0" d="M277.817,647.753c0-1.979,1.62-3.6,3.6-3.6h53.833c1.979,0,3.6,1.62,3.6,3.6v12.949
				c0,1.979-1.62,3.6-3.6,3.6h-53.833c-1.98,0-3.6-1.62-3.6-3.6V647.753z"/>
			<path fill="none" stroke="#000000" stroke-width="0.75" stroke-linecap="square" stroke-miterlimit="1" d="M277.817,647.753
				c0-1.979,1.62-3.6,3.6-3.6h53.833c1.979,0,3.6,1.62,3.6,3.6v12.949c0,1.979-1.62,3.6-3.6,3.6h-53.833c-1.98,0-3.6-1.62-3.6-3.6
				V647.753z"/>
		</g>
		<text transform="matrix(1 0 0 1 281.1001 652.8047)"><tspan x="0" y="0" fill="#231F20" font-size="6">Measurement</tspan><tspan x="0" y="7.2" fill="#231F20" font-size="6">Properties</tspan></text>
		<text transform="matrix(1 0 0 1 279.0732 640.5059)" fill="#231F20" font-size="7">TID 310</text>
		<g>
			<path fill="#CCDEF0" d="M277.817,724.685c0-1.979,1.62-3.6,3.6-3.6h53.833c1.979,0,3.6,1.62,3.6,3.6v12.953
				c0,1.979-1.62,3.6-3.6,3.6h-53.833c-1.98,0-3.6-1.62-3.6-3.6V724.685z"/>
			<path fill="none" stroke="#000000" stroke-width="0.75" stroke-linecap="square" stroke-miterlimit="1" d="M277.817,724.685
				c0-1.979,1.62-3.6,3.6-3.6h53.833c1.979,0,3.6,1.62,3.6,3.6v12.953c0,1.979-1.62,3.6-3.6,3.6h-53.833c-1.98,0-3.6-1.62-3.6-3.6
				V724.685z"/>
		</g>
		<text transform="matrix(1 0 0 1 281.1001 729.1719)"><tspan x="0" y="0" fill="#231F20" font-size="6">Image or Spatial</tspan><tspan x="0" y="7.2" fill="#231F20" font-size="6">Coordinates</tspan></text>
		<text transform="matrix(1 0 0 1 279.0732 718.2695)" fill="#231F20" font-size="7">TID 320</text>
		<g>
			<g>
				<polyline fill="none" stroke="#231F20" stroke-width="0.75" stroke-linecap="square" stroke-miterlimit="10" points="
					266.091,654.3 266.091,691.901 271.354,691.901 				"/>
				<g>
					<polygon fill="#231F20" points="269.868,694.08 277.999,691.901 269.868,689.723 					"/>
				</g>
			</g>
		</g>
		<g>
			<g>
				<polyline fill="none" stroke="#231F20" stroke-width="0.75" stroke-linecap="square" stroke-miterlimit="10" points="
					266.091,691.995 266.091,731.161 271.354,731.161 				"/>
				<g>
					<polygon fill="#231F20" points="269.868,733.34 277.999,731.161 269.868,728.982 					"/>
				</g>
			</g>
		</g>
		<g>
			<g>
				<polyline fill="none" stroke="#231F20" stroke-width="0.75" stroke-linecap="square" stroke-miterlimit="10" points="
					266.091,731.354 266.091,770.421 271.354,770.421 				"/>
				<g>
					<polygon fill="#231F20" points="269.868,772.6 277.999,770.421 269.868,768.242 					"/>
				</g>
			</g>
		</g>
		<g>
			<path fill="#CCDEF0" d="M189.723,647.253c0-1.979,1.62-3.6,3.6-3.6h53.831c1.98,0,3.6,1.62,3.6,3.6v12.953
				c0,1.979-1.62,3.6-3.6,3.6h-53.831c-1.98,0-3.6-1.62-3.6-3.6V647.253z"/>
			<path fill="none" stroke="#000000" stroke-width="0.75" stroke-linecap="square" stroke-miterlimit="1" d="M189.723,647.253
				c0-1.979,1.62-3.6,3.6-3.6h53.831c1.98,0,3.6,1.62,3.6,3.6v12.953c0,1.979-1.62,3.6-3.6,3.6h-53.831c-1.98,0-3.6-1.62-3.6-3.6
				V647.253z"/>
		</g>
		<text transform="matrix(1 0 0 1 193.0059 655.3408)" fill="#231F20" font-size="6">Measurement</text>
		<text transform="matrix(1 0 0 1 190.9785 640.5059)" fill="#231F20" font-size="7">TID 300</text>
		<g>
			<g>
				<polyline fill="none" stroke="#231F20" stroke-width="0.75" stroke-linecap="square" stroke-miterlimit="10" points="
					177.996,616.128 177.996,653.729 183.26,653.729 				"/>
				<g>
					<polygon fill="#231F20" points="181.773,655.908 189.904,653.729 181.773,651.551 					"/>
				</g>
			</g>
		</g>
		<g>
			<path fill="#CCDEF0" d="M101.893,609.581c0-1.979,1.62-3.6,3.6-3.6h53.829c1.98,0,3.6,1.62,3.6,3.6v12.953
				c0,1.979-1.62,3.6-3.6,3.6h-53.829c-1.98,0-3.6-1.62-3.6-3.6V609.581z"/>
			<path fill="none" stroke="#000000" stroke-width="0.75" stroke-linecap="square" stroke-miterlimit="1" d="M101.893,609.581
				c0-1.979,1.62-3.6,3.6-3.6h53.829c1.98,0,3.6,1.62,3.6,3.6v12.953c0,1.979-1.62,3.6-3.6,3.6h-53.829c-1.98,0-3.6-1.62-3.6-3.6
				V609.581z"/>
		</g>
		<text transform="matrix(1 0 0 1 105.6367 614.6357)"><tspan x="0" y="0" fill="#231F20" font-size="6">Measurement</tspan><tspan x="0" y="7.2" fill="#231F20" font-size="6">Group</tspan></text>
		<text transform="matrix(1 0 0 1 101.0527 602.332)" fill="#231F20" font-size="7">TID 1501</text>
		<g>
			<g>
				<polyline fill="none" stroke="#231F20" stroke-width="0.75" stroke-linecap="square" stroke-miterlimit="10" points="
					91.385,540.513 91.385,616.058 95.518,616.058 				"/>
				<g>
					<polygon fill="#231F20" points="94.031,618.236 102.162,616.058 94.031,613.879 					"/>
				</g>
			</g>
		</g>
		<g>
			<g>
				
					<line fill="none" stroke="#231F20" stroke-width="0.75" stroke-linecap="square" stroke-miterlimit="10" x1="163.08" y1="616.058" x2="182.201" y2="616.058"/>
				<g>
					<polygon fill="#231F20" points="180.715,618.236 188.846,616.058 180.715,613.879 					"/>
				</g>
			</g>
		</g>
		<g>
			<path fill="#CCDEF0" d="M189.723,609.583c0-1.979,1.62-3.6,3.6-3.6h53.831c1.98,0,3.6,1.62,3.6,3.6v12.949
				c0,1.979-1.62,3.6-3.6,3.6h-53.831c-1.98,0-3.6-1.62-3.6-3.6V609.583z"/>
			<path fill="none" stroke="#000000" stroke-width="0.75" stroke-linecap="square" stroke-miterlimit="1" d="M189.723,609.583
				c0-1.979,1.62-3.6,3.6-3.6h53.831c1.98,0,3.6,1.62,3.6,3.6v12.949c0,1.979-1.62,3.6-3.6,3.6h-53.831c-1.98,0-3.6-1.62-3.6-3.6
				V609.583z"/>
		</g>
		<text transform="matrix(1 0 0 1 193.0054 614.6348)"><tspan x="0" y="0" fill="#231F20" font-size="6">Time Point</tspan><tspan x="0" y="7.2" fill="#231F20" font-size="6">Context</tspan></text>
		<text transform="matrix(1 0 0 1 189.0322 602.3359)" fill="#231F20" font-size="7">TID 1502</text>
		<g>
			<path fill="#CCDEF0" d="M101.893,880.394c0-1.979,1.62-3.6,3.6-3.6h82.8c1.98,0,3.6,1.62,3.6,3.6v12.953
				c0,1.979-1.62,3.6-3.6,3.6h-82.8c-1.98,0-3.6-1.62-3.6-3.6V880.394z"/>
			<path fill="none" stroke="#000000" stroke-width="0.75" stroke-linecap="square" stroke-miterlimit="1" d="M101.893,880.394
				c0-1.979,1.62-3.6,3.6-3.6h82.8c1.98,0,3.6,1.62,3.6,3.6v12.953c0,1.979-1.62,3.6-3.6,3.6h-82.8c-1.98,0-3.6-1.62-3.6-3.6
				V880.394z"/>
		</g>
		<text transform="matrix(1 0 0 1 105.6367 885.4414)"><tspan x="0" y="0" fill="#231F20" font-size="6">Measurements Derived from </tspan><tspan x="0" y="7.2" fill="#231F20" font-size="6">Multiple ROI Measurements</tspan></text>
		<text transform="matrix(1 0 0 1 101.0527 873.1387)" fill="#231F20" font-size="7">TID 1420</text>
		<g>
			<g>
				<polyline fill="none" stroke="#231F20" stroke-width="0.75" stroke-linecap="square" stroke-miterlimit="10" points="
					91.385,616.159 91.385,886.87 95.518,886.87 				"/>
				<g>
					<polygon fill="#231F20" points="94.031,889.049 102.162,886.87 94.031,884.691 					"/>
				</g>
			</g>
		</g>
		<g>
			<path fill="#CCDEF0" d="M278.057,109.184c0-1.98,1.62-3.6,3.6-3.6h53.832c1.979,0,3.6,1.62,3.6,3.6v12.952
				c0,1.98-1.62,3.6-3.6,3.6h-53.832c-1.98,0-3.6-1.62-3.6-3.6V109.184z"/>
			<path fill="none" stroke="#000000" stroke-width="0.75" stroke-linecap="square" stroke-miterlimit="1" d="M278.057,109.184
				c0-1.98,1.62-3.6,3.6-3.6h53.832c1.979,0,3.6,1.62,3.6,3.6v12.952c0,1.98-1.62,3.6-3.6,3.6h-53.832c-1.98,0-3.6-1.62-3.6-3.6
				V109.184z"/>
		</g>
		<text transform="matrix(1 0 0 1 281.4556 113.1343)"><tspan x="0" y="0" fill="#231F20" font-size="6">Device Observer</tspan><tspan x="0" y="7.2" fill="#231F20" font-size="6">Identifying Attributes </tspan></text>
		<text transform="matrix(1 0 0 1 277.3809 102.2476)" fill="#231F20" font-size="7">TID 1004</text>
		<g>
			<g>
				<polyline fill="none" stroke="#231F20" stroke-width="0.75" stroke-linecap="square" stroke-miterlimit="10" points="
					266.33,77.4 266.33,116.021 271.594,116.021 				"/>
				<g>
					<polygon fill="#231F20" points="270.107,118.2 278.238,116.021 270.107,113.843 					"/>
				</g>
			</g>
		</g>
		<g>
			<path fill="#CCDEF0" d="M278.057,69.99c0-1.98,1.62-3.6,3.6-3.6h53.832c1.979,0,3.6,1.62,3.6,3.6v12.952c0,1.98-1.62,3.6-3.6,3.6
				h-53.832c-1.98,0-3.6-1.62-3.6-3.6V69.99z"/>
			<path fill="none" stroke="#000000" stroke-width="0.75" stroke-linecap="square" stroke-miterlimit="1" d="M278.057,69.99
				c0-1.98,1.62-3.6,3.6-3.6h53.832c1.979,0,3.6,1.62,3.6,3.6v12.952c0,1.98-1.62,3.6-3.6,3.6h-53.832c-1.98,0-3.6-1.62-3.6-3.6
				V69.99z"/>
		</g>
		<text transform="matrix(1 0 0 1 280.0874 73.6875)"><tspan x="0" y="0" fill="#231F20" font-size="6">Person Observer</tspan><tspan x="0" y="7.2" fill="#231F20" font-size="6">Identifying Attributes </tspan></text>
		<g>
			<g>
				
					<line fill="none" stroke="#231F20" stroke-width="0.75" stroke-linecap="square" stroke-miterlimit="10" x1="251.516" y1="77.121" x2="270.637" y2="77.121"/>
				<g>
					<polygon fill="#231F20" points="269.15,79.3 277.281,77.121 269.15,74.942 					"/>
				</g>
			</g>
		</g>
		<g>
			<path fill="#CCDEF0" d="M189.9,69.992c0-1.98,1.62-3.6,3.6-3.6h53.829c1.98,0,3.6,1.62,3.6,3.6v12.95c0,1.98-1.62,3.6-3.6,3.6
				H193.5c-1.98,0-3.6-1.62-3.6-3.6V69.992z"/>
			<path fill="none" stroke="#000000" stroke-width="0.75" stroke-linecap="square" stroke-miterlimit="1" d="M189.9,69.992
				c0-1.98,1.62-3.6,3.6-3.6h53.829c1.98,0,3.6,1.62,3.6,3.6v12.95c0,1.98-1.62,3.6-3.6,3.6H193.5c-1.98,0-3.6-1.62-3.6-3.6V69.992z
				"/>
		</g>
		<text transform="matrix(1 0 0 1 194.0869 78.772)" fill="#231F20" font-size="6">Observer Context</text>
		<text transform="matrix(1 0 0 1 189.6523 63.4399)" fill="#231F20" font-size="7">TID 1002</text>
		<text transform="matrix(1 0 0 1 275.6719 63.4395)" fill="#231F20" font-size="7">TID 1003</text>
	</g>
</g>
</svg>
