<?xml version="1.0" encoding="utf-8"?>

<!DOCTYPE svg PUBLIC "-//W3C//DTD SVG 1.1//EN" "http://www.w3.org/Graphics/SVG/1.1/DTD/svg11.dtd">
<svg version="1.1" id="Layer_1" xmlns="http://www.w3.org/2000/svg" xmlns:xlink="http://www.w3.org/1999/xlink" x="0px" y="0px"
	 width="452px" height="347px" viewBox="0 0 452 347" enable-background="new 0 0 452 347" xml:space="preserve">

<defs>
	<style type="text/css">
	text {
	  font-family: Helvetica, Verdana, ArialUnicodeMS, san-serif
	}
	</style>
</defs>

<g>
   <desc>
	PS 3.16 Content Mapping Resource
   </desc>
</g>

<g>
	<rect x="1" y="1" fill="#F5EED6" width="450" height="345"/>
	<g>
		<g>
			<path fill="none" stroke="#000000" stroke-width="0.75" stroke-linecap="square" stroke-miterlimit="10" d="M86.078,76.448"/>
		</g>
		<g>
			<g>
				<path fill="#CCDEF0" d="M191.091,109.8c0-1.98,1.62-3.6,3.6-3.6h60.8c1.979,0,3.6,1.62,3.6,3.6v12.948c0,1.98-1.62,3.6-3.6,3.6
					h-60.8c-1.98,0-3.6-1.62-3.6-3.6V109.8z"/>
				<path fill="none" stroke="#010101" stroke-width="0.75" stroke-linecap="square" stroke-miterlimit="1" d="M191.091,109.8
					c0-1.98,1.62-3.6,3.6-3.6h60.8c1.979,0,3.6,1.62,3.6,3.6v12.948c0,1.98-1.62,3.6-3.6,3.6h-60.8c-1.98,0-3.6-1.62-3.6-3.6V109.8z
					"/>
			</g>
			<text transform="matrix(1 0 0 1 193.8188 114.5161)"><tspan x="0" y="0" font-size="6">Device Observer</tspan><tspan x="0" y="7.2" font-size="6">Identifying Attributes</tspan></text>
			<text transform="matrix(1 0 0 1 190.1729 103.1201)" font-size="7">TID 1004</text>
		</g>
		<g>
			<g>
				<path fill="#CCDEF0" d="M101.926,73.244c0-1.98,1.62-3.6,3.6-3.6h60.8c1.98,0,3.6,1.62,3.6,3.6v12.948c0,1.98-1.62,3.6-3.6,3.6
					h-60.8c-1.98,0-3.6-1.62-3.6-3.6V73.244z"/>
				<path fill="none" stroke="#010101" stroke-width="0.75" stroke-linecap="square" stroke-miterlimit="1" d="M101.926,73.244
					c0-1.98,1.62-3.6,3.6-3.6h60.8c1.98,0,3.6,1.62,3.6,3.6v12.948c0,1.98-1.62,3.6-3.6,3.6h-60.8c-1.98,0-3.6-1.62-3.6-3.6V73.244z
					"/>
			</g>
			<text transform="matrix(1 0 0 1 102.1826 66.0654)" font-size="7">TID 1002</text>
			<text transform="matrix(1 0 0 1 105.1475 81.3877)" font-size="6">Observer Context</text>
		</g>
		<g>
			<g>
				<path fill="#CCDEF0" d="M190.851,72.749c0-1.98,1.62-3.6,3.6-3.6h60.8c1.979,0,3.6,1.62,3.6,3.6v12.948c0,1.98-1.62,3.6-3.6,3.6
					h-60.8c-1.98,0-3.6-1.62-3.6-3.6V72.749z"/>
				<path fill="none" stroke="#010101" stroke-width="0.75" stroke-linecap="square" stroke-miterlimit="1" d="M190.851,72.749
					c0-1.98,1.62-3.6,3.6-3.6h60.8c1.979,0,3.6,1.62,3.6,3.6v12.948c0,1.98-1.62,3.6-3.6,3.6h-60.8c-1.98,0-3.6-1.62-3.6-3.6V72.749
					z"/>
			</g>
			<text transform="matrix(1 0 0 1 193.8188 77.2939)"><tspan x="0" y="0" font-size="6">Person Observer</tspan><tspan x="0" y="7.2" font-size="6">Identifying Attributes</tspan></text>
			<text transform="matrix(1 0 0 1 190.1729 65.5703)" font-size="7">TID 1003</text>
		</g>
		<g>
			<g>
				<path fill="#CCDEF0" d="M14.771,32.138c0-1.98,1.62-3.6,3.6-3.6h53.744c1.98,0,3.6,1.62,3.6,3.6v12.897c0,1.98-1.62,3.6-3.6,3.6
					H18.372c-1.98,0-3.6-1.62-3.6-3.6V32.138z"/>
				<path fill="none" stroke="#010101" stroke-width="0.75" stroke-linecap="square" d="M14.771,32.138c0-1.98,1.62-3.6,3.6-3.6
					h53.744c1.98,0,3.6,1.62,3.6,3.6v12.897c0,1.98-1.62,3.6-3.6,3.6H18.372c-1.98,0-3.6-1.62-3.6-3.6V32.138z"/>
			</g>
			<text transform="matrix(1 0 0 1 17.7964 36.8242)"><tspan x="0" y="0" font-size="6">Planned Imaging</tspan><tspan x="0" y="7.2" font-size="6">Agent Administration</tspan></text>
			<text transform="matrix(1 0 0 1 14.7666 25.6738)" font-size="7">TID 11001</text>
		</g>
		<g>
			<g>
				<path fill="#CCDEF0" d="M101.926,109.836c0-1.98,1.62-3.6,3.6-3.6h60.8c1.98,0,3.6,1.62,3.6,3.6v12.948c0,1.98-1.62,3.6-3.6,3.6
					h-60.8c-1.98,0-3.6-1.62-3.6-3.6V109.836z"/>
				<path fill="none" stroke="#010101" stroke-width="0.75" stroke-linecap="square" stroke-miterlimit="1" d="M101.926,109.836
					c0-1.98,1.62-3.6,3.6-3.6h60.8c1.98,0,3.6,1.62,3.6,3.6v12.948c0,1.98-1.62,3.6-3.6,3.6h-60.8c-1.98,0-3.6-1.62-3.6-3.6V109.836
					z"/>
			</g>
			<text transform="matrix(1 0 0 1 105.1475 117.9795)" font-size="6">Procedure Context</text>
			<text transform="matrix(1 0 0 1 102.1826 102.998)" font-size="7">TID 1005</text>
		</g>
		<g>
			<g>
				<path fill="#CCDEF0" d="M101.93,29.693c0-1.98,1.62-3.6,3.6-3.6h60.8c1.98,0,3.6,1.62,3.6,3.6V49.26c0,1.98-1.62,3.6-3.6,3.6
					h-60.8c-1.98,0-3.6-1.62-3.6-3.6V29.693z"/>
				<path fill="none" stroke="#010101" stroke-width="0.75" stroke-linecap="square" stroke-miterlimit="1" d="M101.93,29.693
					c0-1.98,1.62-3.6,3.6-3.6h60.8c1.98,0,3.6,1.62,3.6,3.6V49.26c0,1.98-1.62,3.6-3.6,3.6h-60.8c-1.98,0-3.6-1.62-3.6-3.6V29.693z"
					/>
			</g>
			<text transform="matrix(1 0 0 1 102.1826 23.0176)" font-size="7">TID 1204</text>
			<rect x="105.15" y="29.094" fill="none" width="48.176" height="19.765"/>
			<text transform="matrix(1 0 0 1 105.144 33.3809)"><tspan x="0" y="0" font-size="6">Language of</tspan><tspan x="0" y="7.2" font-size="6">Content Item and </tspan><tspan x="0" y="14.4" font-size="6">Descendants</tspan></text>
		</g>
		<g>
			<g>
				<polyline fill="none" stroke="#000000" stroke-width="0.75" stroke-linecap="square" stroke-miterlimit="10" points="
					85.976,78.249 85.976,116.31 95.147,116.31 				"/>
				<g>
					<polygon points="93.661,118.489 101.792,116.31 93.661,114.131 					"/>
				</g>
			</g>
		</g>
		<g>
			<g>
				<polyline fill="none" stroke="#000000" stroke-width="0.75" stroke-linecap="square" stroke-miterlimit="10" points="
					177.395,78.249 177.395,116.31 184.166,116.31 				"/>
				<g>
					<polygon points="182.68,118.489 190.811,116.31 182.68,114.131 					"/>
				</g>
			</g>
		</g>
		<g>
			<g>
				<path fill="#CCDEF0" d="M101.926,146.428c0-1.98,1.62-3.6,3.6-3.6h60.8c1.98,0,3.6,1.62,3.6,3.6v12.948c0,1.98-1.62,3.6-3.6,3.6
					h-60.8c-1.98,0-3.6-1.62-3.6-3.6V146.428z"/>
				<path fill="none" stroke="#010101" stroke-width="0.75" stroke-linecap="square" stroke-miterlimit="1" d="M101.926,146.428
					c0-1.98,1.62-3.6,3.6-3.6h60.8c1.98,0,3.6,1.62,3.6,3.6v12.948c0,1.98-1.62,3.6-3.6,3.6h-60.8c-1.98,0-3.6-1.62-3.6-3.6V146.428
					z"/>
			</g>
			<text transform="matrix(1 0 0 1 105.1475 150.9727)"><tspan x="0" y="0" font-size="6">Medications and </tspan><tspan x="0" y="7.2" font-size="6">Mixture Medications</tspan></text>
			<text transform="matrix(1 0 0 1 102.1826 139.5898)" font-size="7">TID 8131</text>
		</g>
		<g>
			<g>
				<polyline fill="none" stroke="#000000" stroke-width="0.75" stroke-linecap="square" stroke-miterlimit="10" points="
					85.976,117.282 85.976,152.902 95.147,152.902 				"/>
				<g>
					<polygon points="93.661,155.081 101.792,152.902 93.661,150.723 					"/>
				</g>
			</g>
		</g>
		<g>
			<g>
				<path fill="#CCDEF0" d="M101.93,183.02c0-1.979,1.62-3.6,3.6-3.6h60.523c1.98,0,3.6,1.62,3.6,3.6v19.566
					c0,1.979-1.62,3.6-3.6,3.6H105.53c-1.98,0-3.6-1.62-3.6-3.6V183.02z"/>
				<path fill="none" stroke="#010101" stroke-width="0.75" stroke-linecap="square" stroke-miterlimit="1" d="M101.93,183.02
					c0-1.979,1.62-3.6,3.6-3.6h60.523c1.98,0,3.6,1.62,3.6,3.6v19.566c0,1.979-1.62,3.6-3.6,3.6H105.53c-1.98,0-3.6-1.62-3.6-3.6
					V183.02z"/>
			</g>
			<text transform="matrix(1 0 0 1 105.1475 187.2734)"><tspan x="0" y="0" font-size="6">Imaging Agent </tspan><tspan x="0" y="7.2" font-size="6">Administration</tspan><tspan x="0" y="14.4" font-size="6">Patient Characteristics</tspan></text>
			<text transform="matrix(1 0 0 1 102.1826 176.1816)" font-size="7">TID 10024</text>
		</g>
		<g>
			<g>
				<polyline fill="none" stroke="#000000" stroke-width="0.75" stroke-linecap="square" stroke-miterlimit="10" points="
					85.976,153.213 85.976,192.803 95.147,192.803 				"/>
				<g>
					<polygon points="93.661,194.981 101.792,192.803 93.661,190.624 					"/>
				</g>
			</g>
		</g>
		<g>
			<g>
				<path fill="#CCDEF0" d="M101.926,226.229c0-1.979,1.62-3.6,3.6-3.6h60.8c1.98,0,3.6,1.62,3.6,3.6v12.949
					c0,1.979-1.62,3.6-3.6,3.6h-60.8c-1.98,0-3.6-1.62-3.6-3.6V226.229z"/>
				<path fill="none" stroke="#010101" stroke-width="0.75" stroke-linecap="square" stroke-miterlimit="1" d="M101.926,226.229
					c0-1.979,1.62-3.6,3.6-3.6h60.8c1.98,0,3.6,1.62,3.6,3.6v12.949c0,1.979-1.62,3.6-3.6,3.6h-60.8c-1.98,0-3.6-1.62-3.6-3.6
					V226.229z"/>
			</g>
			<text transform="matrix(1 0 0 1 105.1475 230.7744)"><tspan x="0" y="0" font-size="6">Imaging Agent</tspan><tspan x="0" y="7.2" font-size="6">Information</tspan></text>
			<text transform="matrix(1 0 0 1 102.1826 219.3916)" font-size="7">TID 11002</text>
		</g>
		<g>
			<g>
				<polyline fill="none" stroke="#000000" stroke-width="0.75" stroke-linecap="square" stroke-miterlimit="10" points="
					85.976,193.168 85.976,232.703 95.147,232.703 				"/>
				<g>
					<polygon points="93.661,234.882 101.792,232.703 93.661,230.524 					"/>
				</g>
			</g>
		</g>
		<g>
			<g>
				<path fill="#CCDEF0" d="M101.93,262.82c0-1.979,1.62-3.6,3.6-3.6h60.523c1.98,0,3.6,1.62,3.6,3.6v19.568
					c0,1.979-1.62,3.6-3.6,3.6H105.53c-1.98,0-3.6-1.62-3.6-3.6V262.82z"/>
				<path fill="none" stroke="#010101" stroke-width="0.75" stroke-linecap="square" stroke-miterlimit="1" d="M101.93,262.82
					c0-1.979,1.62-3.6,3.6-3.6h60.523c1.98,0,3.6,1.62,3.6,3.6v19.568c0,1.979-1.62,3.6-3.6,3.6H105.53c-1.98,0-3.6-1.62-3.6-3.6
					V262.82z"/>
			</g>
			<text transform="matrix(1 0 0 1 105.1475 267.0752)"><tspan x="0" y="0" font-size="6">Imaging Agent </tspan><tspan x="0" y="7.2" font-size="6">Administration </tspan><tspan x="0" y="14.399" font-size="6">Consumable</tspan></text>
			<text transform="matrix(1 0 0 1 102.1826 255.9834)" font-size="7">TID 11005</text>
		</g>
		<g>
			<g>
				<polyline fill="none" stroke="#000000" stroke-width="0.75" stroke-linecap="square" stroke-miterlimit="10" points="
					85.976,232.452 85.976,272.434 95.147,272.434 				"/>
				<g>
					<polygon points="93.661,274.612 101.792,272.434 93.661,270.255 					"/>
				</g>
			</g>
		</g>
		<g>
			<g>
				<path fill="#CCDEF0" d="M101.926,306.031c0-1.979,1.62-3.6,3.6-3.6h60.8c1.98,0,3.6,1.62,3.6,3.6v12.949
					c0,1.979-1.62,3.6-3.6,3.6h-60.8c-1.98,0-3.6-1.62-3.6-3.6V306.031z"/>
				<path fill="none" stroke="#010101" stroke-width="0.75" stroke-linecap="square" stroke-miterlimit="1" d="M101.926,306.031
					c0-1.979,1.62-3.6,3.6-3.6h60.8c1.98,0,3.6,1.62,3.6,3.6v12.949c0,1.979-1.62,3.6-3.6,3.6h-60.8c-1.98,0-3.6-1.62-3.6-3.6
					V306.031z"/>
			</g>
			<text transform="matrix(1 0 0 1 105.1475 310.5762)"><tspan x="0" y="0" font-size="6">Imaging Agent </tspan><tspan x="0" y="7.2" font-size="6">Administration Steps</tspan></text>
			<text transform="matrix(1 0 0 1 102.1826 299.1934)" font-size="7">TID 11006</text>
		</g>
		<g>
			<g>
				<path fill="#CCDEF0" d="M190.851,307.021c0-1.979,1.62-3.6,3.6-3.6h60.8c1.979,0,3.6,1.62,3.6,3.6v12.949
					c0,1.979-1.62,3.6-3.6,3.6h-60.8c-1.98,0-3.6-1.62-3.6-3.6V307.021z"/>
				<path fill="none" stroke="#010101" stroke-width="0.75" stroke-linecap="square" stroke-miterlimit="1" d="M190.851,307.021
					c0-1.979,1.62-3.6,3.6-3.6h60.8c1.979,0,3.6,1.62,3.6,3.6v12.949c0,1.979-1.62,3.6-3.6,3.6h-60.8c-1.98,0-3.6-1.62-3.6-3.6
					V307.021z"/>
			</g>
			<text transform="matrix(1 0 0 1 194.0723 311.5664)"><tspan x="0" y="0" font-size="6">Imaging Agent</tspan><tspan x="0" y="7.2" font-size="6">Administration Step</tspan></text>
			<text transform="matrix(1 0 0 1 191.1074 300.1836)" font-size="7">TID 11007</text>
		</g>
		<g>
			<g>
				<path fill="#CCDEF0" d="M280.3,307.021c0-1.979,1.62-3.6,3.6-3.6H344.7c1.979,0,3.6,1.62,3.6,3.6v12.949
					c0,1.979-1.62,3.6-3.6,3.6h-60.801c-1.979,0-3.6-1.62-3.6-3.6V307.021z"/>
				<path fill="none" stroke="#010101" stroke-width="0.75" stroke-linecap="square" stroke-miterlimit="1" d="M280.3,307.021
					c0-1.979,1.62-3.6,3.6-3.6H344.7c1.979,0,3.6,1.62,3.6,3.6v12.949c0,1.979-1.62,3.6-3.6,3.6h-60.801c-1.979,0-3.6-1.62-3.6-3.6
					V307.021z"/>
			</g>
			<text transform="matrix(1 0 0 1 283.793 311.2754)"><tspan x="0" y="0" font-size="6">Imaging Agent </tspan><tspan x="0" y="7.2" font-size="6">Administration Phase</tspan></text>
			<text transform="matrix(1 0 0 1 280.8281 300.1836)" font-size="7">TID 11008</text>
		</g>
		<g>
			<g>
				<path fill="#CCDEF0" d="M369.509,307.021c0-1.979,1.62-3.6,3.6-3.6h60.525c1.979,0,3.6,1.62,3.6,3.6v19.566
					c0,1.979-1.62,3.6-3.6,3.6h-60.525c-1.979,0-3.6-1.62-3.6-3.6V307.021z"/>
				<path fill="none" stroke="#010101" stroke-width="0.75" stroke-linecap="square" stroke-miterlimit="1" d="M369.509,307.021
					c0-1.979,1.62-3.6,3.6-3.6h60.525c1.979,0,3.6,1.62,3.6,3.6v19.566c0,1.979-1.62,3.6-3.6,3.6h-60.525c-1.979,0-3.6-1.62-3.6-3.6
					V307.021z"/>
			</g>
			<text transform="matrix(1 0 0 1 372.4551 311.5664)"><tspan x="0" y="0" font-size="6">Imaging Agent </tspan><tspan x="0" y="7.2" font-size="6">Administration </tspan><tspan x="0" y="14.4" font-size="6">Syringe/Pump Activity</tspan></text>
			<text transform="matrix(1 0 0 1 369.4902 300.1836)" font-size="7">TID 11003</text>
		</g>
		<g>
			<g>
				<polyline fill="none" stroke="#000000" stroke-width="0.75" stroke-linecap="square" stroke-miterlimit="10" points="
					85.976,273.414 85.976,312.447 95.147,312.447 				"/>
				<g>
					<polygon points="93.661,314.626 101.792,312.447 93.661,310.269 					"/>
				</g>
			</g>
		</g>
		<g>
			<g>
				
					<line fill="none" stroke="#000000" stroke-width="0.75" stroke-linecap="square" stroke-miterlimit="10" x1="75.716" y1="38.698" x2="95.32" y2="38.698"/>
				<g>
					<polygon points="93.834,40.877 101.965,38.698 93.834,36.519 					"/>
				</g>
			</g>
		</g>
		<g>
			<g>
				<polyline fill="none" stroke="#000000" stroke-width="0.75" stroke-linecap="square" stroke-miterlimit="10" points="
					85.976,38.947 85.976,78.215 95.147,78.215 				"/>
				<g>
					<polygon points="93.661,80.395 101.792,78.215 93.661,76.036 					"/>
				</g>
			</g>
		</g>
		<g>
			<path fill="none" stroke="#000000" stroke-width="0.75" stroke-linecap="square" stroke-miterlimit="10" d="M183.709,76.448"/>
		</g>
		<g>
			<g>
				
					<line fill="none" stroke="#000000" stroke-width="0.75" stroke-linecap="square" stroke-miterlimit="10" x1="259.091" y1="312.447" x2="273.656" y2="312.447"/>
				<g>
					<polygon points="272.17,314.626 280.301,312.447 272.17,310.269 					"/>
				</g>
			</g>
		</g>
		<g>
			<g>
				
					<line fill="none" stroke="#000000" stroke-width="0.75" stroke-linecap="square" stroke-miterlimit="10" x1="348.3" y1="312.447" x2="362.865" y2="312.447"/>
				<g>
					<polygon points="361.379,314.626 369.51,312.447 361.379,310.269 					"/>
				</g>
			</g>
		</g>
		<g>
			<g>
				
					<line fill="none" stroke="#000000" stroke-width="0.75" stroke-linecap="square" stroke-miterlimit="10" x1="170.323" y1="312.447" x2="184.889" y2="312.447"/>
				<g>
					<polygon points="183.402,314.626 191.533,312.447 183.402,310.269 					"/>
				</g>
			</g>
		</g>
		<g>
			<path fill="#CCDEF0" d="M190.851,226.229c0-1.979,1.62-3.6,3.6-3.6h60.8c1.979,0,3.6,1.62,3.6,3.6v12.949
				c0,1.979-1.62,3.6-3.6,3.6h-60.8c-1.98,0-3.6-1.62-3.6-3.6V226.229z"/>
			<path fill="none" stroke="#010101" stroke-width="0.75" stroke-linecap="square" stroke-miterlimit="1" d="M190.851,226.229
				c0-1.979,1.62-3.6,3.6-3.6h60.8c1.979,0,3.6,1.62,3.6,3.6v12.949c0,1.979-1.62,3.6-3.6,3.6h-60.8c-1.98,0-3.6-1.62-3.6-3.6
				V226.229z"/>
		</g>
		<text transform="matrix(1 0 0 1 193.8188 230.7744)"><tspan x="0" y="0" font-size="6">Imaging Agent</tspan><tspan x="0" y="7.2" font-size="6">Component</tspan></text>
		<text transform="matrix(1 0 0 1 191.2505 219.0508)" font-size="7">TID 11004</text>
		<g>
			<g>
				
					<line fill="none" stroke="#000000" stroke-width="0.75" stroke-linecap="square" stroke-miterlimit="10" x1="170.323" y1="232.703" x2="184.889" y2="232.703"/>
				<g>
					<polygon points="183.402,234.882 191.533,232.703 183.402,230.524 					"/>
				</g>
			</g>
		</g>
		<g>
			<g>
				
					<line fill="none" stroke="#000000" stroke-width="0.75" stroke-linecap="square" stroke-miterlimit="10" x1="170.323" y1="78.215" x2="184.889" y2="78.215"/>
				<g>
					<polygon points="183.402,80.395 191.533,78.215 183.402,76.036 					"/>
				</g>
			</g>
		</g>
	</g>
</g>
</svg>
