<?xml version="1.0" encoding="utf-8"?>

<!DOCTYPE svg PUBLIC "-//W3C//DTD SVG 1.1//EN" "http://www.w3.org/Graphics/SVG/1.1/DTD/svg11.dtd">
<svg version="1.1" id="Layer_1" xmlns="http://www.w3.org/2000/svg" xmlns:xlink="http://www.w3.org/1999/xlink" x="0px" y="0px"
	 width="452px" height="402px" viewBox="0 0 452 402" enable-background="new 0 0 452 402" xml:space="preserve">

<defs>
	<style type="text/css">
	text {
	  font-family: Helvetica, Verdana, ArialUnicodeMS, san-serif
	}
	</style>
</defs>

<g>
   <desc>
	PS 3.16 Content Mapping Resource
   </desc>
</g>

<g>
	<rect x="1" y="1" fill="#F5EED6" width="450" height="400"/>
	<g>
		<g>
			<path fill="none" stroke="#000000" stroke-width="0.75" stroke-linecap="square" stroke-miterlimit="10" d="M86.078,73.727"/>
		</g>
		<g>
			<g>
				<path fill="#CCDEF0" d="M191.091,107.079c0-1.98,1.62-3.6,3.6-3.6h60.8c1.979,0,3.6,1.62,3.6,3.6v12.948
					c0,1.98-1.62,3.6-3.6,3.6h-60.8c-1.98,0-3.6-1.62-3.6-3.6V107.079z"/>
				<path fill="none" stroke="#010101" stroke-width="0.75" stroke-linecap="square" stroke-miterlimit="1" d="M191.091,107.079
					c0-1.98,1.62-3.6,3.6-3.6h60.8c1.979,0,3.6,1.62,3.6,3.6v12.948c0,1.98-1.62,3.6-3.6,3.6h-60.8c-1.98,0-3.6-1.62-3.6-3.6
					V107.079z"/>
			</g>
			<text transform="matrix(1 0 0 1 193.8188 111.7944)"><tspan x="0" y="0" font-size="6">Device Observer</tspan><tspan x="0" y="7.2" font-size="6">Identifying Attributes</tspan></text>
			<text transform="matrix(1 0 0 1 190.1729 100.3984)" font-size="7">TID 1004</text>
		</g>
		<g>
			<g>
				<path fill="#CCDEF0" d="M101.926,70.523c0-1.98,1.62-3.6,3.6-3.6h60.8c1.98,0,3.6,1.62,3.6,3.6v12.948c0,1.98-1.62,3.6-3.6,3.6
					h-60.8c-1.98,0-3.6-1.62-3.6-3.6V70.523z"/>
				<path fill="none" stroke="#010101" stroke-width="0.75" stroke-linecap="square" stroke-miterlimit="1" d="M101.926,70.523
					c0-1.98,1.62-3.6,3.6-3.6h60.8c1.98,0,3.6,1.62,3.6,3.6v12.948c0,1.98-1.62,3.6-3.6,3.6h-60.8c-1.98,0-3.6-1.62-3.6-3.6V70.523z
					"/>
			</g>
			<text transform="matrix(1 0 0 1 102.1826 63.3438)" font-size="7">TID 1002</text>
			<text transform="matrix(1 0 0 1 105.1475 78.666)" font-size="6">Observer Context</text>
		</g>
		<g>
			<g>
				<path fill="#CCDEF0" d="M190.851,70.028c0-1.98,1.62-3.6,3.6-3.6h60.8c1.979,0,3.6,1.62,3.6,3.6v12.948c0,1.98-1.62,3.6-3.6,3.6
					h-60.8c-1.98,0-3.6-1.62-3.6-3.6V70.028z"/>
				<path fill="none" stroke="#010101" stroke-width="0.75" stroke-linecap="square" stroke-miterlimit="1" d="M190.851,70.028
					c0-1.98,1.62-3.6,3.6-3.6h60.8c1.979,0,3.6,1.62,3.6,3.6v12.948c0,1.98-1.62,3.6-3.6,3.6h-60.8c-1.98,0-3.6-1.62-3.6-3.6V70.028
					z"/>
			</g>
			<text transform="matrix(1 0 0 1 193.8188 74.5723)"><tspan x="0" y="0" font-size="6">Person Observer</tspan><tspan x="0" y="7.2" font-size="6">Identifying Attributes</tspan></text>
			<text transform="matrix(1 0 0 1 190.1729 62.8486)" font-size="7">TID 1003</text>
		</g>
		<g>
			<g>
				<path fill="#CCDEF0" d="M14.771,29.417c0-1.98,1.62-3.6,3.6-3.6h53.744c1.98,0,3.6,1.62,3.6,3.6v12.897c0,1.98-1.62,3.6-3.6,3.6
					H18.372c-1.98,0-3.6-1.62-3.6-3.6V29.417z"/>
				<path fill="none" stroke="#010101" stroke-width="0.75" stroke-linecap="square" d="M14.771,29.417c0-1.98,1.62-3.6,3.6-3.6
					h53.744c1.98,0,3.6,1.62,3.6,3.6v12.897c0,1.98-1.62,3.6-3.6,3.6H18.372c-1.98,0-3.6-1.62-3.6-3.6V29.417z"/>
			</g>
			<text transform="matrix(1 0 0 1 17.7964 34.1025)"><tspan x="0" y="0" font-size="6">Performed Imaging</tspan><tspan x="0" y="7.2" font-size="6">Agent Administration</tspan></text>
			<text transform="matrix(1 0 0 1 14.7666 22.9521)" font-size="7">TID 11020</text>
		</g>
		<g>
			<g>
				<path fill="#CCDEF0" d="M101.926,107.115c0-1.98,1.62-3.6,3.6-3.6h60.8c1.98,0,3.6,1.62,3.6,3.6v12.948c0,1.98-1.62,3.6-3.6,3.6
					h-60.8c-1.98,0-3.6-1.62-3.6-3.6V107.115z"/>
				<path fill="none" stroke="#010101" stroke-width="0.75" stroke-linecap="square" stroke-miterlimit="1" d="M101.926,107.115
					c0-1.98,1.62-3.6,3.6-3.6h60.8c1.98,0,3.6,1.62,3.6,3.6v12.948c0,1.98-1.62,3.6-3.6,3.6h-60.8c-1.98,0-3.6-1.62-3.6-3.6V107.115
					z"/>
			</g>
			<text transform="matrix(1 0 0 1 105.1475 115.2578)" font-size="6">Procedure Context</text>
			<text transform="matrix(1 0 0 1 102.1826 100.2764)" font-size="7">TID 1005</text>
		</g>
		<g>
			<g>
				<path fill="#CCDEF0" d="M101.93,26.972c0-1.98,1.62-3.6,3.6-3.6h60.8c1.98,0,3.6,1.62,3.6,3.6v19.566c0,1.98-1.62,3.6-3.6,3.6
					h-60.8c-1.98,0-3.6-1.62-3.6-3.6V26.972z"/>
				<path fill="none" stroke="#010101" stroke-width="0.75" stroke-linecap="square" stroke-miterlimit="1" d="M101.93,26.972
					c0-1.98,1.62-3.6,3.6-3.6h60.8c1.98,0,3.6,1.62,3.6,3.6v19.566c0,1.98-1.62,3.6-3.6,3.6h-60.8c-1.98,0-3.6-1.62-3.6-3.6V26.972z
					"/>
			</g>
			<text transform="matrix(1 0 0 1 102.1826 20.2959)" font-size="7">TID 1204</text>
			<rect x="105.15" y="26.373" fill="none" width="48.176" height="19.765"/>
			<text transform="matrix(1 0 0 1 105.144 30.6592)"><tspan x="0" y="0" font-size="6">Language of</tspan><tspan x="0" y="7.2" font-size="6">Content Item and </tspan><tspan x="0" y="14.4" font-size="6">Descendants</tspan></text>
		</g>
		<g>
			<g>
				<polyline fill="none" stroke="#000000" stroke-width="0.75" stroke-linecap="square" stroke-miterlimit="10" points="
					85.976,75.527 85.976,113.589 95.147,113.589 				"/>
				<g>
					<polygon points="93.661,115.768 101.792,113.589 93.661,111.41 					"/>
				</g>
			</g>
		</g>
		<g>
			<g>
				<polyline fill="none" stroke="#000000" stroke-width="0.75" stroke-linecap="square" stroke-miterlimit="10" points="
					177.395,75.527 177.395,113.589 184.166,113.589 				"/>
				<g>
					<polygon points="182.68,115.768 190.811,113.589 182.68,111.41 					"/>
				</g>
			</g>
		</g>
		<g>
			<g>
				<path fill="#CCDEF0" d="M191.091,341.049c0-1.979,1.62-3.6,3.6-3.6h60.8c1.979,0,3.6,1.62,3.6,3.6v12.949
					c0,1.979-1.62,3.6-3.6,3.6h-60.8c-1.98,0-3.6-1.62-3.6-3.6V341.049z"/>
				<path fill="none" stroke="#010101" stroke-width="0.75" stroke-linecap="square" stroke-miterlimit="1" d="M191.091,341.049
					c0-1.979,1.62-3.6,3.6-3.6h60.8c1.979,0,3.6,1.62,3.6,3.6v12.949c0,1.979-1.62,3.6-3.6,3.6h-60.8c-1.98,0-3.6-1.62-3.6-3.6
					V341.049z"/>
			</g>
			<text transform="matrix(1 0 0 1 193.8188 345.7646)"><tspan x="0" y="0" font-size="6">Imaging Agent</tspan><tspan x="0" y="7.2" font-size="6">Administration Graph</tspan></text>
			<text transform="matrix(1 0 0 1 188.2266 334.3691)" font-size="7">TID 11023</text>
		</g>
		<g>
			<g>
				<polyline fill="none" stroke="#000000" stroke-width="0.75" stroke-linecap="square" stroke-miterlimit="10" points="
					177.395,309.498 177.395,347.56 184.166,347.56 				"/>
				<g>
					<polygon points="182.68,349.738 190.811,347.56 182.68,345.381 					"/>
				</g>
			</g>
		</g>
		<g>
			<g>
				<path fill="#CCDEF0" d="M101.926,143.707c0-1.98,1.62-3.6,3.6-3.6h60.8c1.98,0,3.6,1.62,3.6,3.6v12.948c0,1.98-1.62,3.6-3.6,3.6
					h-60.8c-1.98,0-3.6-1.62-3.6-3.6V143.707z"/>
				<path fill="none" stroke="#010101" stroke-width="0.75" stroke-linecap="square" stroke-miterlimit="1" d="M101.926,143.707
					c0-1.98,1.62-3.6,3.6-3.6h60.8c1.98,0,3.6,1.62,3.6,3.6v12.948c0,1.98-1.62,3.6-3.6,3.6h-60.8c-1.98,0-3.6-1.62-3.6-3.6V143.707
					z"/>
			</g>
			<text transform="matrix(1 0 0 1 105.1475 148.251)"><tspan x="0" y="0" font-size="6">Medications and </tspan><tspan x="0" y="7.2" font-size="6">Mixture Medications</tspan></text>
			<text transform="matrix(1 0 0 1 102.1826 136.8682)" font-size="7">TID 8131</text>
		</g>
		<g>
			<g>
				<polyline fill="none" stroke="#000000" stroke-width="0.75" stroke-linecap="square" stroke-miterlimit="10" points="
					85.976,114.561 85.976,150.181 95.147,150.181 				"/>
				<g>
					<polygon points="93.661,152.359 101.792,150.181 93.661,148.002 					"/>
				</g>
			</g>
		</g>
		<g>
			<g>
				<path fill="#CCDEF0" d="M101.93,180.298c0-1.98,1.62-3.6,3.6-3.6h60.523c1.98,0,3.6,1.62,3.6,3.6v19.565
					c0,1.98-1.62,3.6-3.6,3.6H105.53c-1.98,0-3.6-1.62-3.6-3.6V180.298z"/>
				<path fill="none" stroke="#010101" stroke-width="0.75" stroke-linecap="square" stroke-miterlimit="1" d="M101.93,180.298
					c0-1.98,1.62-3.6,3.6-3.6h60.523c1.98,0,3.6,1.62,3.6,3.6v19.565c0,1.98-1.62,3.6-3.6,3.6H105.53c-1.98,0-3.6-1.62-3.6-3.6
					V180.298z"/>
			</g>
			<text transform="matrix(1 0 0 1 105.1475 184.5518)"><tspan x="0" y="0" font-size="6">Imaging Agent </tspan><tspan x="0" y="7.2" font-size="6">Administration</tspan><tspan x="0" y="14.4" font-size="6">Patient Characteristics</tspan></text>
			<text transform="matrix(1 0 0 1 102.1826 173.46)" font-size="7">TID 10024</text>
		</g>
		<g>
			<g>
				<polyline fill="none" stroke="#000000" stroke-width="0.75" stroke-linecap="square" stroke-miterlimit="10" points="
					85.976,150.492 85.976,190.081 95.147,190.081 				"/>
				<g>
					<polygon points="93.661,192.26 101.792,190.081 93.661,187.902 					"/>
				</g>
			</g>
		</g>
		<g>
			<g>
				<path fill="#CCDEF0" d="M101.926,223.507c0-1.979,1.62-3.6,3.6-3.6h60.8c1.98,0,3.6,1.62,3.6,3.6v12.949
					c0,1.979-1.62,3.6-3.6,3.6h-60.8c-1.98,0-3.6-1.62-3.6-3.6V223.507z"/>
				<path fill="none" stroke="#010101" stroke-width="0.75" stroke-linecap="square" stroke-miterlimit="1" d="M101.926,223.507
					c0-1.979,1.62-3.6,3.6-3.6h60.8c1.98,0,3.6,1.62,3.6,3.6v12.949c0,1.979-1.62,3.6-3.6,3.6h-60.8c-1.98,0-3.6-1.62-3.6-3.6
					V223.507z"/>
			</g>
			<text transform="matrix(1 0 0 1 105.1475 228.0527)"><tspan x="0" y="0" font-size="6">Imaging Agent</tspan><tspan x="0" y="7.2" font-size="6">Information</tspan></text>
			<text transform="matrix(1 0 0 1 102.1826 216.6699)" font-size="7">TID 11002</text>
		</g>
		<g>
			<g>
				<polyline fill="none" stroke="#000000" stroke-width="0.75" stroke-linecap="square" stroke-miterlimit="10" points="
					85.976,190.446 85.976,229.981 95.147,229.981 				"/>
				<g>
					<polygon points="93.661,232.16 101.792,229.981 93.661,227.803 					"/>
				</g>
			</g>
		</g>
		<g>
			<g>
				<path fill="#CCDEF0" d="M101.93,260.099c0-1.979,1.62-3.6,3.6-3.6h60.523c1.98,0,3.6,1.62,3.6,3.6v19.568
					c0,1.979-1.62,3.6-3.6,3.6H105.53c-1.98,0-3.6-1.62-3.6-3.6V260.099z"/>
				<path fill="none" stroke="#010101" stroke-width="0.75" stroke-linecap="square" stroke-miterlimit="1" d="M101.93,260.099
					c0-1.979,1.62-3.6,3.6-3.6h60.523c1.98,0,3.6,1.62,3.6,3.6v19.568c0,1.979-1.62,3.6-3.6,3.6H105.53c-1.98,0-3.6-1.62-3.6-3.6
					V260.099z"/>
			</g>
			<text transform="matrix(1 0 0 1 105.1475 264.3535)"><tspan x="0" y="0" font-size="6">Imaging Agent </tspan><tspan x="0" y="7.2" font-size="6">Administration </tspan><tspan x="0" y="14.4" font-size="6">Consumable</tspan></text>
			<text transform="matrix(1 0 0 1 102.1826 253.2617)" font-size="7">TID 11005</text>
		</g>
		<g>
			<g>
				<polyline fill="none" stroke="#000000" stroke-width="0.75" stroke-linecap="square" stroke-miterlimit="10" points="
					85.976,229.73 85.976,269.712 95.147,269.712 				"/>
				<g>
					<polygon points="93.661,271.891 101.792,269.712 93.661,267.533 					"/>
				</g>
			</g>
		</g>
		<g>
			<g>
				<path fill="#CCDEF0" d="M101.926,303.31c0-1.979,1.62-3.6,3.6-3.6h60.8c1.98,0,3.6,1.62,3.6,3.6v12.949
					c0,1.979-1.62,3.6-3.6,3.6h-60.8c-1.98,0-3.6-1.62-3.6-3.6V303.31z"/>
				<path fill="none" stroke="#010101" stroke-width="0.75" stroke-linecap="square" stroke-miterlimit="1" d="M101.926,303.31
					c0-1.979,1.62-3.6,3.6-3.6h60.8c1.98,0,3.6,1.62,3.6,3.6v12.949c0,1.979-1.62,3.6-3.6,3.6h-60.8c-1.98,0-3.6-1.62-3.6-3.6
					V303.31z"/>
			</g>
			<text transform="matrix(1 0 0 1 105.1475 307.8545)"><tspan x="0" y="0" font-size="6">Imaging Agent </tspan><tspan x="0" y="7.2" font-size="6">Administration Steps</tspan></text>
			<text transform="matrix(1 0 0 1 102.1826 296.4717)" font-size="7">TID 11006</text>
		</g>
		<g>
			<g>
				<path fill="#CCDEF0" d="M190.851,304.3c0-1.979,1.62-3.6,3.6-3.6h60.8c1.979,0,3.6,1.62,3.6,3.6v12.949
					c0,1.979-1.62,3.6-3.6,3.6h-60.8c-1.98,0-3.6-1.62-3.6-3.6V304.3z"/>
				<path fill="none" stroke="#010101" stroke-width="0.75" stroke-linecap="square" stroke-miterlimit="1" d="M190.851,304.3
					c0-1.979,1.62-3.6,3.6-3.6h60.8c1.979,0,3.6,1.62,3.6,3.6v12.949c0,1.979-1.62,3.6-3.6,3.6h-60.8c-1.98,0-3.6-1.62-3.6-3.6
					V304.3z"/>
			</g>
			<text transform="matrix(1 0 0 1 194.0723 308.8447)"><tspan x="0" y="0" font-size="6">Imaging Agent</tspan><tspan x="0" y="7.2" font-size="6">Administration Step</tspan></text>
			<text transform="matrix(1 0 0 1 191.1074 297.4619)" font-size="7">TID 11007</text>
		</g>
		<g>
			<g>
				<path fill="#CCDEF0" d="M280.3,304.3c0-1.979,1.62-3.6,3.6-3.6H344.7c1.979,0,3.6,1.62,3.6,3.6v12.949c0,1.979-1.62,3.6-3.6,3.6
					h-60.801c-1.979,0-3.6-1.62-3.6-3.6V304.3z"/>
				<path fill="none" stroke="#010101" stroke-width="0.75" stroke-linecap="square" stroke-miterlimit="1" d="M280.3,304.3
					c0-1.979,1.62-3.6,3.6-3.6H344.7c1.979,0,3.6,1.62,3.6,3.6v12.949c0,1.979-1.62,3.6-3.6,3.6h-60.801c-1.979,0-3.6-1.62-3.6-3.6
					V304.3z"/>
			</g>
			<text transform="matrix(1 0 0 1 283.793 308.5537)"><tspan x="0" y="0" font-size="6">Imaging Agent </tspan><tspan x="0" y="7.2" font-size="6">Administration Phase</tspan></text>
			<text transform="matrix(1 0 0 1 280.8281 297.4619)" font-size="7">TID 11008</text>
		</g>
		<g>
			<g>
				<path fill="#CCDEF0" d="M369.509,304.3c0-1.979,1.62-3.6,3.6-3.6h60.525c1.979,0,3.6,1.62,3.6,3.6v19.566
					c0,1.979-1.62,3.6-3.6,3.6h-60.525c-1.979,0-3.6-1.62-3.6-3.6V304.3z"/>
				<path fill="none" stroke="#010101" stroke-width="0.75" stroke-linecap="square" stroke-miterlimit="1" d="M369.509,304.3
					c0-1.979,1.62-3.6,3.6-3.6h60.525c1.979,0,3.6,1.62,3.6,3.6v19.566c0,1.979-1.62,3.6-3.6,3.6h-60.525c-1.979,0-3.6-1.62-3.6-3.6
					V304.3z"/>
			</g>
			<text transform="matrix(1 0 0 1 372.4551 308.8447)"><tspan x="0" y="0" font-size="6">Imaging Agent </tspan><tspan x="0" y="7.2" font-size="6">Administration </tspan><tspan x="0" y="14.399" font-size="6">Syringe/Pump Activity</tspan></text>
			<text transform="matrix(1 0 0 1 369.4902 297.4619)" font-size="7">TID 11003</text>
		</g>
		<g>
			<g>
				<polyline fill="none" stroke="#000000" stroke-width="0.75" stroke-linecap="square" stroke-miterlimit="10" points="
					85.976,270.692 85.976,309.726 95.147,309.726 				"/>
				<g>
					<polygon points="93.661,311.904 101.792,309.726 93.661,307.547 					"/>
				</g>
			</g>
		</g>
		<g>
			<g>
				<path fill="#CCDEF0" d="M101.93,342.401c0-1.979,1.62-3.6,3.6-3.6h60.523c1.98,0,3.6,1.62,3.6,3.6v19.566
					c0,1.979-1.62,3.6-3.6,3.6H105.53c-1.98,0-3.6-1.62-3.6-3.6V342.401z"/>
				<path fill="none" stroke="#010101" stroke-width="0.75" stroke-linecap="square" stroke-miterlimit="1" d="M101.93,342.401
					c0-1.979,1.62-3.6,3.6-3.6h60.523c1.98,0,3.6,1.62,3.6,3.6v19.566c0,1.979-1.62,3.6-3.6,3.6H105.53c-1.98,0-3.6-1.62-3.6-3.6
					V342.401z"/>
			</g>
			<text transform="matrix(1 0 0 1 105.1475 346.9463)"><tspan x="0" y="0" font-size="6">Imaging Agent </tspan><tspan x="0" y="7.2" font-size="6">Administration Injector</tspan><tspan x="0" y="14.399" font-size="6">Steps</tspan></text>
			<text transform="matrix(1 0 0 1 102.1826 335.5635)" font-size="7">TID 11022</text>
		</g>
		<g>
			<g>
				<polyline fill="none" stroke="#000000" stroke-width="0.75" stroke-linecap="square" stroke-miterlimit="10" points="
					85.976,309.784 85.976,348.817 95.147,348.817 				"/>
				<g>
					<polygon points="93.661,350.996 101.792,348.817 93.661,346.639 					"/>
				</g>
			</g>
		</g>
		<g>
			<g>
				
					<line fill="none" stroke="#000000" stroke-width="0.75" stroke-linecap="square" stroke-miterlimit="10" x1="85.976" y1="348.876" x2="85.976" y2="350.876"/>
				
					<line fill="none" stroke="#000000" stroke-width="0.75" stroke-linecap="square" stroke-miterlimit="10" stroke-dasharray="3.6877,2.7658" x1="85.976" y1="353.642" x2="85.976" y2="384.526"/>
				<polyline fill="none" stroke="#000000" stroke-width="0.75" stroke-linecap="square" stroke-miterlimit="10" points="
					85.976,385.909 85.976,387.909 87.976,387.909 				"/>
				
					<line fill="none" stroke="#000000" stroke-width="0.75" stroke-linecap="square" stroke-miterlimit="10" stroke-dasharray="2.0687,1.5516" x1="89.527" y1="387.909" x2="92.372" y2="387.909"/>
				
					<line fill="none" stroke="#000000" stroke-width="0.75" stroke-linecap="square" stroke-miterlimit="10" x1="93.147" y1="387.909" x2="95.147" y2="387.909"/>
				<g>
					<polygon points="93.661,390.088 101.792,387.909 93.661,385.73 					"/>
				</g>
			</g>
		</g>
		<g>
			<g>
				
					<line fill="none" stroke="#000000" stroke-width="0.75" stroke-linecap="square" stroke-miterlimit="10" x1="75.716" y1="35.977" x2="95.32" y2="35.977"/>
				<g>
					<polygon points="93.834,38.155 101.965,35.977 93.834,33.798 					"/>
				</g>
			</g>
		</g>
		<g>
			<g>
				<polyline fill="none" stroke="#000000" stroke-width="0.75" stroke-linecap="square" stroke-miterlimit="10" points="
					85.976,36.226 85.976,75.494 95.147,75.494 				"/>
				<g>
					<polygon points="93.661,77.673 101.792,75.494 93.661,73.315 					"/>
				</g>
			</g>
		</g>
		<g>
			<path fill="none" stroke="#000000" stroke-width="0.75" stroke-linecap="square" stroke-miterlimit="10" d="M183.709,73.727"/>
		</g>
		<g>
			<g>
				
					<line fill="none" stroke="#000000" stroke-width="0.75" stroke-linecap="square" stroke-miterlimit="10" x1="259.091" y1="309.726" x2="273.656" y2="309.726"/>
				<g>
					<polygon points="272.17,311.904 280.301,309.726 272.17,307.547 					"/>
				</g>
			</g>
		</g>
		<g>
			<g>
				
					<line fill="none" stroke="#000000" stroke-width="0.75" stroke-linecap="square" stroke-miterlimit="10" x1="348.3" y1="309.726" x2="362.865" y2="309.726"/>
				<g>
					<polygon points="361.379,311.904 369.51,309.726 361.379,307.547 					"/>
				</g>
			</g>
		</g>
		<g>
			<g>
				
					<line fill="none" stroke="#000000" stroke-width="0.75" stroke-linecap="square" stroke-miterlimit="10" x1="170.323" y1="309.726" x2="184.889" y2="309.726"/>
				<g>
					<polygon points="183.402,311.904 191.533,309.726 183.402,307.547 					"/>
				</g>
			</g>
		</g>
		<g>
			<g>
				<path fill="#CCDEF0" d="M190.851,223.507c0-1.979,1.62-3.6,3.6-3.6h60.8c1.979,0,3.6,1.62,3.6,3.6v12.949
					c0,1.979-1.62,3.6-3.6,3.6h-60.8c-1.98,0-3.6-1.62-3.6-3.6V223.507z"/>
				<path fill="none" stroke="#010101" stroke-width="0.75" stroke-linecap="square" stroke-miterlimit="1" d="M190.851,223.507
					c0-1.979,1.62-3.6,3.6-3.6h60.8c1.979,0,3.6,1.62,3.6,3.6v12.949c0,1.979-1.62,3.6-3.6,3.6h-60.8c-1.98,0-3.6-1.62-3.6-3.6
					V223.507z"/>
			</g>
			<text transform="matrix(1 0 0 1 193.8188 228.0527)"><tspan x="0" y="0" font-size="6">Imaging Agent</tspan><tspan x="0" y="7.2" font-size="6">Component</tspan></text>
			<text transform="matrix(1 0 0 1 191.2505 216.3291)" font-size="7">TID 11004</text>
		</g>
		<g>
			<g>
				
					<line fill="none" stroke="#000000" stroke-width="0.75" stroke-linecap="square" stroke-miterlimit="10" x1="170.323" y1="229.981" x2="184.889" y2="229.981"/>
				<g>
					<polygon points="183.402,232.16 191.533,229.981 183.402,227.803 					"/>
				</g>
			</g>
		</g>
		<g>
			<g>
				
					<line fill="none" stroke="#000000" stroke-width="0.75" stroke-linecap="square" stroke-miterlimit="10" x1="170.323" y1="75.494" x2="184.889" y2="75.494"/>
				<g>
					<polygon points="183.402,77.673 191.533,75.494 183.402,73.315 					"/>
				</g>
			</g>
		</g>
	</g>
</g>
</svg>
