<?xml version="1.0" encoding="utf-8"?>

<!DOCTYPE svg PUBLIC "-//W3C//DTD SVG 1.1//EN" "http://www.w3.org/Graphics/SVG/1.1/DTD/svg11.dtd">
<svg version="1.1" id="Layer_1" xmlns="http://www.w3.org/2000/svg" xmlns:xlink="http://www.w3.org/1999/xlink" x="0px" y="0px"
	 width="502px" height="312px" viewBox="0 0 502 312" enable-background="new 0 0 502 312" xml:space="preserve">

<defs>
	<style type="text/css">
	text {
	  font-family: Helvetica, Verdana, ArialUnicodeMS, san-serif
	}
	</style>
</defs>

<g>
   <desc>
	PS 3.16 : Content Mapping Resource
   </desc>
</g>

<g>
	<rect x="1" y="1" fill="#F5EED6" width="500" height="310"/>
	<g>
		<text transform="matrix(1 0 0 1 260.9238 107.7056)" font-size="7">TID 3602</text>
		<g>
			<path fill="#CCDEF0" d="M261.76,240.73c0-2.06,1.685-3.744,3.744-3.744h58.512c2.06,0,3.744,1.685,3.744,3.744v12.662
				c0,2.06-1.685,3.744-3.744,3.744h-58.512c-2.06,0-3.744-1.685-3.744-3.744V240.73z"/>
			
				<path fill="none" stroke="#010101" stroke-width="0.78" stroke-linecap="round" stroke-linejoin="round" stroke-miterlimit="1" d="
				M261.76,240.73c0-2.06,1.685-3.744,3.744-3.744h58.512c2.06,0,3.744,1.685,3.744,3.744v12.662c0,2.06-1.685,3.744-3.744,3.744
				h-58.512c-2.06,0-3.744-1.685-3.744-3.744V240.73z"/>
		</g>
		<text transform="matrix(1 0 0 1 266.5439 248.5693)" font-size="6">Ad hoc Measurement</text>
		<text transform="matrix(1 0 0 1 261.0713 233.916)" font-size="7">TID 5303</text>
		<g>
			<path fill="#CCDEF0" d="M261.76,162.209c0-2.06,1.685-3.744,3.744-3.744h58.512c2.06,0,3.744,1.685,3.744,3.744v12.662
				c0,2.06-1.685,3.744-3.744,3.744h-58.512c-2.06,0-3.744-1.685-3.744-3.744V162.209z"/>
			
				<path fill="none" stroke="#010101" stroke-width="0.78" stroke-linecap="round" stroke-linejoin="round" stroke-miterlimit="1" d="
				M261.76,162.209c0-2.06,1.685-3.744,3.744-3.744h58.512c2.06,0,3.744,1.685,3.744,3.744v12.662c0,2.06-1.685,3.744-3.744,3.744
				h-58.512c-2.06,0-3.744-1.685-3.744-3.744V162.209z"/>
		</g>
		<text transform="matrix(1 0 0 1 266.5381 166.7695)"><tspan x="0" y="0" font-size="6">Pre-Coordinated</tspan><tspan x="0" y="7.2" font-size="6">Echo Measurement</tspan></text>
		<text transform="matrix(1 0 0 1 261.0713 155.374)" font-size="7">TID 5301</text>
		<g>
			<path fill="#CCDEF0" d="M261.76,201.471c0-2.06,1.685-3.744,3.744-3.744h58.512c2.06,0,3.744,1.685,3.744,3.744v12.66
				c0,2.06-1.685,3.744-3.744,3.744h-58.512c-2.06,0-3.744-1.685-3.744-3.744V201.471z"/>
			
				<path fill="none" stroke="#010101" stroke-width="0.78" stroke-linecap="round" stroke-linejoin="round" stroke-miterlimit="1" d="
				M261.76,201.471c0-2.06,1.685-3.744,3.744-3.744h58.512c2.06,0,3.744,1.685,3.744,3.744v12.66c0,2.06-1.685,3.744-3.744,3.744
				h-58.512c-2.06,0-3.744-1.685-3.744-3.744V201.471z"/>
		</g>
		<text transform="matrix(1 0 0 1 261.0713 194.9658)" font-size="7">TID 5302</text>
		<text transform="matrix(1 0 0 1 174.2407 21.8188)" font-size="7">TID 5300</text>
		<g>
			<path fill="#CCDEF0" d="M176,29.001c0-1.98,1.62-3.6,3.6-3.6h53.826c1.98,0,3.6,1.62,3.6,3.6v12.949c0,1.98-1.62,3.6-3.6,3.6
				H179.6c-1.98,0-3.6-1.62-3.6-3.6V29.001z"/>
			
				<path fill="none" stroke="#010101" stroke-width="0.75" stroke-linecap="round" stroke-linejoin="round" stroke-miterlimit="1" d="
				M176,29.001c0-1.98,1.62-3.6,3.6-3.6h53.826c1.98,0,3.6,1.62,3.6,3.6v12.949c0,1.98-1.62,3.6-3.6,3.6H179.6
				c-1.98,0-3.6-1.62-3.6-3.6V29.001z"/>
		</g>
		<g>
			<path fill="#CCDEF0" d="M261.76,68.211c0-2.059,1.685-3.744,3.744-3.744h58.241c2.06,0,3.744,1.685,3.744,3.744v19.279
				c0,2.059-1.685,3.744-3.744,3.744h-58.241c-2.06,0-3.744-1.685-3.744-3.744V68.211z"/>
			
				<path fill="none" stroke="#010101" stroke-width="0.78" stroke-linecap="round" stroke-linejoin="round" stroke-miterlimit="1" d="
				M261.76,68.211c0-2.059,1.685-3.744,3.744-3.744h58.241c2.06,0,3.744,1.685,3.744,3.744v19.279c0,2.059-1.685,3.744-3.744,3.744
				h-58.241c-2.06,0-3.744-1.685-3.744-3.744V68.211z"/>
		</g>
		<g>
			<path fill="#CCDEF0" d="M261.76,115.203c0-2.059,1.685-3.744,3.744-3.744h58.241c2.06,0,3.744,1.685,3.744,3.744v19.279
				c0,2.059-1.685,3.744-3.744,3.744h-58.241c-2.06,0-3.744-1.685-3.744-3.744V115.203z"/>
			
				<path fill="none" stroke="#010101" stroke-width="0.78" stroke-linecap="round" stroke-linejoin="round" stroke-miterlimit="1" d="
				M261.76,115.203c0-2.059,1.685-3.744,3.744-3.744h58.241c2.06,0,3.744,1.685,3.744,3.744v19.279c0,2.059-1.685,3.744-3.744,3.744
				h-58.241c-2.06,0-3.744-1.685-3.744-3.744V115.203z"/>
		</g>
		<text transform="matrix(1 0 0 1 259.9883 61.3843)" font-size="7">TID 1204</text>
		<g>
			<path fill="#CCDEF0" d="M261.76,29.145c0-2.059,1.685-3.744,3.744-3.744h58.512c2.06,0,3.744,1.685,3.744,3.744v12.662
				c0,2.059-1.685,3.744-3.744,3.744h-58.512c-2.06,0-3.744-1.685-3.744-3.744V29.145z"/>
			
				<path fill="none" stroke="#010101" stroke-width="0.78" stroke-linecap="round" stroke-linejoin="round" stroke-miterlimit="1" d="
				M261.76,29.145c0-2.059,1.685-3.744,3.744-3.744h58.512c2.06,0,3.744,1.685,3.744,3.744v12.662c0,2.059-1.685,3.744-3.744,3.744
				h-58.512c-2.06,0-3.744-1.685-3.744-3.744V29.145z"/>
		</g>
		<text transform="matrix(1 0 0 1 266.5381 33.7124)"><tspan x="0" y="0" font-size="6">Observation</tspan><tspan x="0" y="7.2" font-size="6">Context</tspan></text>
		<text transform="matrix(1 0 0 1 259.9883 21.8188)" font-size="7">TID 1001</text>
		<rect x="266.538" y="67.968" fill="none" width="48.176" height="19.766"/>
		<text transform="matrix(1 0 0 1 266.5371 72.2563)"><tspan x="0" y="0" font-size="6">Language of</tspan><tspan x="0" y="7.2" font-size="6">Content Item and </tspan><tspan x="0" y="14.4" font-size="6">Descendants</tspan></text>
		<g>
			<g>
				
					<line fill="none" stroke="#000000" stroke-width="0.75" stroke-linecap="round" stroke-linejoin="round" x1="237.024" y1="34.459" x2="255.101" y2="34.459"/>
				<g>
					<polygon points="253.614,36.638 261.745,34.459 253.614,32.28 					"/>
				</g>
			</g>
		</g>
		<g>
			<g>
				<polyline fill="none" stroke="#000000" stroke-width="0.75" stroke-linecap="round" stroke-linejoin="round" points="
					246.874,34.459 246.874,77.9 254.965,77.9 				"/>
				<g>
					<polygon points="253.479,80.079 261.609,77.9 253.479,75.722 					"/>
				</g>
			</g>
		</g>
		<g>
			<g>
				<polyline fill="none" stroke="#000000" stroke-width="0.7841" stroke-linecap="round" stroke-linejoin="round" points="
					246.874,78.225 246.874,125.176 254.662,125.176 				"/>
				<g>
					<polygon points="253.108,127.454 261.609,125.176 253.108,122.897 					"/>
				</g>
			</g>
		</g>
		<g>
			<g>
				<polyline fill="none" stroke="#000000" stroke-width="0.8319" stroke-linecap="round" stroke-linejoin="round" points="
					246.874,121.233 246.874,168.663 254.239,168.663 				"/>
				<g>
					<polygon points="252.591,171.08 261.609,168.663 252.591,166.246 					"/>
				</g>
			</g>
		</g>
		<g>
			<g>
				<polyline fill="none" stroke="#000000" stroke-width="0.75" stroke-linecap="round" stroke-linejoin="round" points="
					246.874,167.82 246.874,207.547 254.965,207.547 				"/>
				<g>
					<polygon points="253.479,209.726 261.609,207.547 253.479,205.368 					"/>
				</g>
			</g>
		</g>
		<g>
			<g>
				<polyline fill="none" stroke="#000000" stroke-width="0.75" stroke-linecap="round" stroke-linejoin="round" points="
					246.874,207.543 246.874,247.062 254.965,247.062 				"/>
				<g>
					<polygon points="253.479,249.24 261.609,247.062 253.479,244.883 					"/>
				</g>
			</g>
		</g>
		<g>
			<path fill="#CCDEF0" d="M261.76,279.98c0-2.06,1.685-3.744,3.744-3.744h58.512c2.06,0,3.744,1.685,3.744,3.744v12.662
				c0,2.06-1.685,3.744-3.744,3.744h-58.512c-2.06,0-3.744-1.685-3.744-3.744V279.98z"/>
			
				<path fill="none" stroke="#010101" stroke-width="0.78" stroke-linecap="round" stroke-linejoin="round" stroke-miterlimit="1" d="
				M261.76,279.98c0-2.06,1.685-3.744,3.744-3.744h58.512c2.06,0,3.744,1.685,3.744,3.744v12.662c0,2.06-1.685,3.744-3.744,3.744
				h-58.512c-2.06,0-3.744-1.685-3.744-3.744V279.98z"/>
		</g>
		<text transform="matrix(1 0 0 1 266.5381 287.8193)" font-size="6">Wall Motion Analysis</text>
		<text transform="matrix(1 0 0 1 261.0713 273.166)" font-size="7">TID 5204</text>
		<g>
			<g>
				<polyline fill="none" stroke="#000000" stroke-width="0.75" stroke-linecap="round" stroke-linejoin="round" points="
					246.874,246.793 246.874,286.312 254.965,286.312 				"/>
				<g>
					<polygon points="253.479,288.49 261.609,286.312 253.479,284.133 					"/>
				</g>
			</g>
		</g>
		<text transform="matrix(1 0 0 1 184.6118 33.7124)"><tspan x="0" y="0" font-size="6">Simplified Echo</tspan><tspan x="0" y="7.2" font-size="6">Procedure Report</tspan></text>
		<rect x="266.538" y="115.672" fill="none" width="47" height="20.333"/>
		<text transform="matrix(1 0 0 1 266.5381 119.9673)"><tspan x="0" y="0" font-size="6">Cardiovascular </tspan><tspan x="0" y="7.2" font-size="6">Patient </tspan><tspan x="0" y="14.4" font-size="6">Characteristics</tspan></text>
		<text transform="matrix(1 0 0 1 266.5381 206.0195)"><tspan x="0" y="0" font-size="6">Post-Coordinated</tspan><tspan x="0" y="7.2" font-size="6">Echo Measurement</tspan></text>
	</g>
</g>
</svg>
