<?xml version="1.0" encoding="utf-8"?>

<!DOCTYPE svg PUBLIC "-//W3C//DTD SVG 1.1//EN" "http://www.w3.org/Graphics/SVG/1.1/DTD/svg11.dtd">
<svg version="1.1" id="Layer_1" xmlns="http://www.w3.org/2000/svg" xmlns:xlink="http://www.w3.org/1999/xlink" x="0px" y="0px"
	 width="502px" height="577px" viewBox="0 0 502 577" enable-background="new 0 0 502 577" xml:space="preserve">

<defs>
	<style type="text/css">
	text {
	  font-family: Helvetica, Verdana, ArialUnicodeMS, san-serif
	}
	</style>
</defs>

<g>
   <desc>
	PS 3.16: Content Mapping Resource
   </desc>
</g>

<g>
	<rect x="1" y="1" fill="#F5EED8" width="500" height="575"/>
	<g>
		<g>
			<path fill="#CEDFEF" d="M134.128,151.169c0-1.98,1.62-3.6,3.6-3.6h53.577c1.98,0,3.6,1.62,3.6,3.6v19.566
				c0,1.98-1.62,3.6-3.6,3.6h-53.577c-1.98,0-3.6-1.62-3.6-3.6V151.169z"/>
			<path fill="none" stroke="#010101" stroke-width="0.75" stroke-linecap="square" stroke-miterlimit="1" d="M134.128,151.169
				c0-1.98,1.62-3.6,3.6-3.6h53.577c1.98,0,3.6,1.62,3.6,3.6v19.566c0,1.98-1.62,3.6-3.6,3.6h-53.577c-1.98,0-3.6-1.62-3.6-3.6
				V151.169z"/>
		</g>
		<g>
			<path fill="#CEDFEF" d="M212.208,269.972c0-1.98,1.62-3.6,3.6-3.6h53.574c1.979,0,3.6,1.62,3.6,3.6v19.566
				c0,1.979-1.62,3.6-3.6,3.6h-53.574c-1.98,0-3.6-1.62-3.6-3.6V269.972z"/>
			<path fill="none" stroke="#010101" stroke-width="0.75" stroke-linecap="square" stroke-miterlimit="1" d="M212.208,269.972
				c0-1.98,1.62-3.6,3.6-3.6h53.574c1.979,0,3.6,1.62,3.6,3.6v19.566c0,1.979-1.62,3.6-3.6,3.6h-53.574c-1.98,0-3.6-1.62-3.6-3.6
				V269.972z"/>
		</g>
		<g>
			<path fill="#CEDFEF" d="M212.208,309.57c0-1.979,1.62-3.6,3.6-3.6h53.574c1.979,0,3.6,1.62,3.6,3.6v19.563
				c0,1.979-1.62,3.6-3.6,3.6h-53.574c-1.98,0-3.6-1.62-3.6-3.6V309.57z"/>
			<path fill="none" stroke="#010101" stroke-width="0.75" stroke-linecap="square" stroke-miterlimit="1" d="M212.208,309.57
				c0-1.979,1.62-3.6,3.6-3.6h53.574c1.979,0,3.6,1.62,3.6,3.6v19.563c0,1.979-1.62,3.6-3.6,3.6h-53.574c-1.98,0-3.6-1.62-3.6-3.6
				V309.57z"/>
		</g>
		<g>
			<path fill="#CEDFEF" d="M385.609,350.766c0-1.979,1.62-3.6,3.6-3.6h53.828c1.979,0,3.6,1.62,3.6,3.6v12.953
				c0,1.979-1.62,3.6-3.6,3.6h-53.828c-1.979,0-3.6-1.62-3.6-3.6V350.766z"/>
			<path fill="none" stroke="#010101" stroke-width="0.75" stroke-linecap="square" stroke-miterlimit="1" d="M385.609,350.766
				c0-1.979,1.62-3.6,3.6-3.6h53.828c1.979,0,3.6,1.62,3.6,3.6v12.953c0,1.979-1.62,3.6-3.6,3.6h-53.828c-1.979,0-3.6-1.62-3.6-3.6
				V350.766z"/>
		</g>
		<text transform="matrix(1 0 0 1 387.6367 355.4824)"><tspan x="0" y="0" font-size="6">Pathology</tspan><tspan x="0" y="7.199" font-size="6">Results</tspan></text>
		<text transform="matrix(1 0 0 1 384.9326 343.5869)" font-size="7">TID 4207</text>
		<g>
			<path fill="#CEDFEF" d="M385.609,311.334c0-1.979,1.62-3.6,3.6-3.6h53.828c1.979,0,3.6,1.62,3.6,3.6v12.951
				c0,1.979-1.62,3.6-3.6,3.6h-53.828c-1.979,0-3.6-1.62-3.6-3.6V311.334z"/>
			<path fill="none" stroke="#010101" stroke-width="0.75" stroke-linecap="square" stroke-miterlimit="1" d="M385.609,311.334
				c0-1.979,1.62-3.6,3.6-3.6h53.828c1.979,0,3.6,1.62,3.6,3.6v12.951c0,1.979-1.62,3.6-3.6,3.6h-53.828c-1.979,0-3.6-1.62-3.6-3.6
				V311.334z"/>
		</g>
		<text transform="matrix(1 0 0 1 387.6367 316.0488)"><tspan x="0" y="0" font-size="6">Subject Context,</tspan><tspan x="0" y="7.201" font-size="6">Specimen</tspan></text>
		<text transform="matrix(1 0 0 1 384.9326 304.6533)" font-size="7">TID 1009</text>
		<g>
			<path fill="#CEDFEF" d="M385.609,272.276c0-1.98,1.62-3.6,3.6-3.6h53.828c1.979,0,3.6,1.62,3.6,3.6v12.942
				c0,1.98-1.62,3.6-3.6,3.6h-53.828c-1.979,0-3.6-1.62-3.6-3.6V272.276z"/>
			<path fill="none" stroke="#010101" stroke-width="0.75" stroke-linecap="square" stroke-miterlimit="1" d="M385.609,272.276
				c0-1.98,1.62-3.6,3.6-3.6h53.828c1.979,0,3.6,1.62,3.6,3.6v12.942c0,1.98-1.62,3.6-3.6,3.6h-53.828c-1.979,0-3.6-1.62-3.6-3.6
				V272.276z"/>
		</g>
		<text transform="matrix(1 0 0 1 387.6367 276.9824)"><tspan x="0" y="0" font-size="6">Breast Imaging</tspan><tspan x="0" y="7.2" font-size="6">Procedure Reported</tspan></text>
		<text transform="matrix(1 0 0 1 384.9326 265.0879)" font-size="7">TID 4201</text>
		<text transform="matrix(1 0 0 1 385.1699 383.0684)" font-size="7">TID 350</text>
		<g>
			<path fill="#CEDFEF" d="M385.609,389.748c0-1.979,1.62-3.6,3.6-3.6h53.82c1.979,0,3.6,1.62,3.6,3.6v12.951
				c0,1.979-1.62,3.6-3.6,3.6h-53.82c-1.979,0-3.6-1.62-3.6-3.6V389.748z"/>
			<path fill="none" stroke="#010101" stroke-width="0.75" stroke-linecap="square" stroke-miterlimit="1" d="M385.609,389.748
				c0-1.979,1.62-3.6,3.6-3.6h53.82c1.979,0,3.6,1.62,3.6,3.6v12.951c0,1.979-1.62,3.6-3.6,3.6h-53.82c-1.979,0-3.6-1.62-3.6-3.6
				V389.748z"/>
		</g>
		<text transform="matrix(1 0 0 1 387.6367 394.4629)"><tspan x="0" y="0" font-size="6">References to</tspan><tspan x="0" y="7.199" font-size="6">Supporting Evidence </tspan></text>
		<g>
			<path fill="#CEDFEF" d="M299.932,545.152c0-1.979,1.62-3.6,3.6-3.6h53.832c1.979,0,3.6,1.62,3.6,3.6v12.949
				c0,1.979-1.62,3.6-3.6,3.6h-53.832c-1.979,0-3.6-1.62-3.6-3.6V545.152z"/>
			<path fill="none" stroke="#010101" stroke-width="0.75" stroke-linecap="square" stroke-miterlimit="1" d="M299.932,545.152
				c0-1.979,1.62-3.6,3.6-3.6h53.832c1.979,0,3.6,1.62,3.6,3.6v12.949c0,1.979-1.62,3.6-3.6,3.6h-53.832c-1.979,0-3.6-1.62-3.6-3.6
				V545.152z"/>
		</g>
		<text transform="matrix(1 0 0 1 301.9668 549.6885)"><tspan x="0" y="0" font-size="6">Breast Imaging</tspan><tspan x="0" y="7.2" font-size="6">Assessment</tspan></text>
		<text transform="matrix(1 0 0 1 299.2549 538.4805)" font-size="7">TID 4203</text>
		<g>
			<path fill="#CEDFEF" d="M299.932,466.629c0-1.979,1.62-3.6,3.6-3.6h53.832c1.979,0,3.6,1.62,3.6,3.6v12.953
				c0,1.979-1.62,3.6-3.6,3.6h-53.832c-1.979,0-3.6-1.62-3.6-3.6V466.629z"/>
			<path fill="none" stroke="#010101" stroke-width="0.75" stroke-linecap="square" stroke-miterlimit="1" d="M299.932,466.629
				c0-1.979,1.62-3.6,3.6-3.6h53.832c1.979,0,3.6,1.62,3.6,3.6v12.953c0,1.979-1.62,3.6-3.6,3.6h-53.832c-1.979,0-3.6-1.62-3.6-3.6
				V466.629z"/>
		</g>
		<text transform="matrix(1 0 0 1 301.9668 471.3398)"><tspan x="0" y="0" font-size="6">Area</tspan><tspan x="0" y="7.2" font-size="6">Measurement</tspan></text>
		<text transform="matrix(1 0 0 1 299.2549 459.9395)" font-size="7">TID 1401</text>
		<g>
			<path fill="#CEDFEF" d="M299.932,427.562c0-1.979,1.62-3.6,3.6-3.6h53.832c1.979,0,3.6,1.62,3.6,3.6v12.949
				c0,1.979-1.62,3.6-3.6,3.6h-53.832c-1.979,0-3.6-1.62-3.6-3.6V427.562z"/>
			<path fill="none" stroke="#010101" stroke-width="0.75" stroke-linecap="square" stroke-miterlimit="1" d="M299.932,427.562
				c0-1.979,1.62-3.6,3.6-3.6h53.832c1.979,0,3.6,1.62,3.6,3.6v12.949c0,1.979-1.62,3.6-3.6,3.6h-53.832c-1.979,0-3.6-1.62-3.6-3.6
				V427.562z"/>
		</g>
		<text transform="matrix(1 0 0 1 301.9609 432.2676)"><tspan x="0" y="0" font-size="6">Volume</tspan><tspan x="0" y="7.199" font-size="6">Measurement</tspan></text>
		<text transform="matrix(1 0 0 1 299.2549 420.373)" font-size="7">TID 1402</text>
		<g>
			<path fill="#CEDFEF" d="M299.932,505.891c0-1.979,1.62-3.6,3.6-3.6h53.832c1.979,0,3.6,1.62,3.6,3.6v12.953
				c0,1.979-1.62,3.6-3.6,3.6h-53.832c-1.979,0-3.6-1.62-3.6-3.6V505.891z"/>
			<path fill="none" stroke="#010101" stroke-width="0.75" stroke-linecap="square" stroke-miterlimit="1" d="M299.932,505.891
				c0-1.979,1.62-3.6,3.6-3.6h53.832c1.979,0,3.6,1.62,3.6,3.6v12.953c0,1.979-1.62,3.6-3.6,3.6h-53.832c-1.979,0-3.6-1.62-3.6-3.6
				V505.891z"/>
		</g>
		<text transform="matrix(1 0 0 1 301.9609 510.6016)"><tspan x="0" y="0" font-size="6">Linear</tspan><tspan x="0" y="7.2" font-size="6">Measurement</tspan></text>
		<text transform="matrix(1 0 0 1 299.2549 499.5312)" font-size="7">TID 1400</text>
		<g>
			<path fill="#CEDFEF" d="M377.357,545.15c0-1.979,1.62-3.6,3.6-3.6h53.832c1.979,0,3.6,1.62,3.6,3.6v12.953
				c0,1.979-1.62,3.6-3.6,3.6h-53.832c-1.979,0-3.6-1.62-3.6-3.6V545.15z"/>
			<path fill="none" stroke="#010101" stroke-width="0.75" stroke-linecap="square" stroke-miterlimit="1" d="M377.357,545.15
				c0-1.979,1.62-3.6,3.6-3.6h53.832c1.979,0,3.6,1.62,3.6,3.6v12.953c0,1.979-1.62,3.6-3.6,3.6h-53.832c-1.979,0-3.6-1.62-3.6-3.6
				V545.15z"/>
		</g>
		<text transform="matrix(1 0 0 1 380.5811 553.2969)" font-size="6">Pathology Results</text>
		<text transform="matrix(1 0 0 1 376.6807 538.4893)" font-size="7">TID 4207</text>
		<g>
			<path fill="#CEDFEF" d="M299.932,349.078c0-1.979,1.62-3.6,3.6-3.6h53.832c1.979,0,3.6,1.62,3.6,3.6v12.953
				c0,1.979-1.62,3.6-3.6,3.6h-53.832c-1.979,0-3.6-1.62-3.6-3.6V349.078z"/>
			<path fill="none" stroke="#010101" stroke-width="0.75" stroke-linecap="square" stroke-miterlimit="1" d="M299.932,349.078
				c0-1.979,1.62-3.6,3.6-3.6h53.832c1.979,0,3.6,1.62,3.6,3.6v12.953c0,1.979-1.62,3.6-3.6,3.6h-53.832c-1.979,0-3.6-1.62-3.6-3.6
				V349.078z"/>
		</g>
		<g>
			<path fill="#CEDFEF" d="M299.932,388.342c0-1.979,1.62-3.6,3.6-3.6h53.832c1.979,0,3.6,1.62,3.6,3.6v12.953
				c0,1.979-1.62,3.6-3.6,3.6h-53.832c-1.979,0-3.6-1.62-3.6-3.6V388.342z"/>
			<path fill="none" stroke="#010101" stroke-width="0.75" stroke-linecap="square" stroke-miterlimit="1" d="M299.932,388.342
				c0-1.979,1.62-3.6,3.6-3.6h53.832c1.979,0,3.6,1.62,3.6,3.6v12.953c0,1.979-1.62,3.6-3.6,3.6h-53.832c-1.979,0-3.6-1.62-3.6-3.6
				V388.342z"/>
		</g>
		<g>
			<path fill="none" stroke="#000000" stroke-width="0.75" stroke-linecap="square" stroke-miterlimit="10" d="M123.316,72.69"/>
		</g>
		<g>
			<path fill="#CEDFEF" d="M134.125,67.984c0-1.98,1.62-3.6,3.6-3.6h53.826c1.98,0,3.6,1.62,3.6,3.6v12.948c0,1.98-1.62,3.6-3.6,3.6
				h-53.826c-1.98,0-3.6-1.62-3.6-3.6V67.984z"/>
			<path fill="none" stroke="#010101" stroke-width="0.75" stroke-linecap="square" stroke-miterlimit="1" d="M134.125,67.984
				c0-1.98,1.62-3.6,3.6-3.6h53.826c1.98,0,3.6,1.62,3.6,3.6v12.948c0,1.98-1.62,3.6-3.6,3.6h-53.826c-1.98,0-3.6-1.62-3.6-3.6
				V67.984z"/>
		</g>
		<text transform="matrix(1 0 0 1 137.3496 72.6997)"><tspan x="0" y="0" font-size="6">Breast Imaging</tspan><tspan x="0" y="7.2" font-size="6">Report Narrative</tspan></text>
		<text transform="matrix(1 0 0 1 134.123 60.8052)" font-size="7">TID 4202</text>
		<g>
			<path fill="#CEDFEF" d="M212.204,107.05c0-1.98,1.62-3.6,3.6-3.6h53.829c1.979,0,3.6,1.62,3.6,3.6v12.948
				c0,1.98-1.62,3.6-3.6,3.6h-53.829c-1.98,0-3.6-1.62-3.6-3.6V107.05z"/>
			<path fill="none" stroke="#010101" stroke-width="0.75" stroke-linecap="square" stroke-miterlimit="1" d="M212.204,107.05
				c0-1.98,1.62-3.6,3.6-3.6h53.829c1.979,0,3.6,1.62,3.6,3.6v12.948c0,1.98-1.62,3.6-3.6,3.6h-53.829c-1.98,0-3.6-1.62-3.6-3.6
				V107.05z"/>
		</g>
		<text transform="matrix(1 0 0 1 214.9331 111.7666)"><tspan x="0" y="0" font-size="6">References to</tspan><tspan x="0" y="7.2" font-size="6">Supporting Evidence</tspan></text>
		<text transform="matrix(1 0 0 1 213.2339 100.3706)" font-size="7">TID 350</text>
		<g>
			<path fill="#CEDFEF" d="M211.964,67.984c0-1.98,1.62-3.6,3.6-3.6h53.827c1.979,0,3.6,1.62,3.6,3.6v12.948
				c0,1.98-1.62,3.6-3.6,3.6h-53.827c-1.98,0-3.6-1.62-3.6-3.6V67.984z"/>
			<path fill="none" stroke="#010101" stroke-width="0.75" stroke-linecap="square" stroke-miterlimit="1" d="M211.964,67.984
				c0-1.98,1.62-3.6,3.6-3.6h53.827c1.979,0,3.6,1.62,3.6,3.6v12.948c0,1.98-1.62,3.6-3.6,3.6h-53.827c-1.98,0-3.6-1.62-3.6-3.6
				V67.984z"/>
		</g>
		<text transform="matrix(1 0 0 1 214.9331 76.1284)" font-size="6">Observer Context</text>
		<text transform="matrix(1 0 0 1 211.2871 60.8052)" font-size="7">TID 1002</text>
		<g>
			<path fill="#CEDFEF" d="M299.932,230.983c0-1.98,1.62-3.6,3.6-3.6h53.828c1.979,0,3.6,1.62,3.6,3.6v12.948
				c0,1.98-1.62,3.6-3.6,3.6h-53.828c-1.979,0-3.6-1.62-3.6-3.6V230.983z"/>
			<path fill="none" stroke="#010101" stroke-width="0.75" stroke-linecap="square" stroke-miterlimit="1" d="M299.932,230.983
				c0-1.98,1.62-3.6,3.6-3.6h53.828c1.979,0,3.6,1.62,3.6,3.6v12.948c0,1.98-1.62,3.6-3.6,3.6h-53.828c-1.979,0-3.6-1.62-3.6-3.6
				V230.983z"/>
		</g>
		<text transform="matrix(1 0 0 1 301.9609 235.6885)"><tspan x="0" y="0" font-size="6">Breast Imaging</tspan><tspan x="0" y="7.2" font-size="6">Procedure Reported</tspan></text>
		<text transform="matrix(1 0 0 1 299.4922 224.2925)" font-size="7">TID 4201</text>
		<g>
			<path fill="#CEDFEF" d="M299.932,191.555c0-1.98,1.62-3.6,3.6-3.6h53.826c1.979,0,3.6,1.62,3.6,3.6v12.948
				c0,1.98-1.62,3.6-3.6,3.6h-53.826c-1.979,0-3.6-1.62-3.6-3.6V191.555z"/>
			<path fill="none" stroke="#010101" stroke-width="0.75" stroke-linecap="square" stroke-miterlimit="1" d="M299.932,191.555
				c0-1.98,1.62-3.6,3.6-3.6h53.826c1.979,0,3.6,1.62,3.6,3.6v12.948c0,1.98-1.62,3.6-3.6,3.6h-53.826c-1.979,0-3.6-1.62-3.6-3.6
				V191.555z"/>
		</g>
		<text transform="matrix(1 0 0 1 301.9609 196.2617)"><tspan x="0" y="0" font-size="6">Breast Imaging</tspan><tspan x="0" y="7.2" font-size="6">Pathology Results</tspan></text>
		<text transform="matrix(1 0 0 1 299.4922 184.3667)" font-size="7">TID 4207</text>
		<g>
			<path fill="#CEDFEF" d="M56.041,28.38c0-1.98,1.62-3.6,3.6-3.6h53.744c1.98,0,3.6,1.62,3.6,3.6v12.897c0,1.98-1.62,3.6-3.6,3.6
				H59.641c-1.98,0-3.6-1.62-3.6-3.6V28.38z"/>
			<path fill="none" stroke="#010101" stroke-width="0.75" stroke-linecap="square" d="M56.041,28.38c0-1.98,1.62-3.6,3.6-3.6
				h53.744c1.98,0,3.6,1.62,3.6,3.6v12.897c0,1.98-1.62,3.6-3.6,3.6H59.641c-1.98,0-3.6-1.62-3.6-3.6V28.38z"/>
		</g>
		<text transform="matrix(1 0 0 1 59.0708 33.0669)"><tspan x="0" y="0" font-size="6">Breast Imaging</tspan><tspan x="0" y="7.2" font-size="6">Report</tspan></text>
		<text transform="matrix(1 0 0 1 55.3638 21.9165)" font-size="7">TID 4200</text>
		<text transform="matrix(1 0 0 1 137.3496 155.4233)"><tspan x="0" y="0" font-size="6">Breast Imaging</tspan><tspan x="0" y="7.2" font-size="6">Report</tspan><tspan x="0" y="14.4" font-size="6">Supplementary Data</tspan></text>
		<text transform="matrix(1 0 0 1 133.4863 146.084)" font-size="7">TID 4208</text>
		<g>
			<path fill="#CEDFEF" d="M212.204,231.084c0-1.98,1.62-3.6,3.6-3.6h53.829c1.979,0,3.6,1.62,3.6,3.6v12.952
				c0,1.98-1.62,3.6-3.6,3.6h-53.829c-1.98,0-3.6-1.62-3.6-3.6V231.084z"/>
			<path fill="none" stroke="#010101" stroke-width="0.75" stroke-linecap="square" stroke-miterlimit="1" d="M212.204,231.084
				c0-1.98,1.62-3.6,3.6-3.6h53.829c1.979,0,3.6,1.62,3.6,3.6v12.952c0,1.98-1.62,3.6-3.6,3.6h-53.829c-1.98,0-3.6-1.62-3.6-3.6
				V231.084z"/>
		</g>
		<text transform="matrix(1 0 0 1 214.9331 235.7925)"><tspan x="0" y="0" font-size="6">Breast Composition</tspan><tspan x="0" y="7.2" font-size="6">Section</tspan></text>
		<text transform="matrix(1 0 0 1 211.377 223.8975)" font-size="7">TID 4205</text>
		<g>
			<path fill="#CEDFEF" d="M212.204,191.556c0-1.98,1.62-3.6,3.6-3.6h53.829c1.979,0,3.6,1.62,3.6,3.6v12.95
				c0,1.98-1.62,3.6-3.6,3.6h-53.829c-1.98,0-3.6-1.62-3.6-3.6V191.556z"/>
			<path fill="none" stroke="#010101" stroke-width="0.75" stroke-linecap="square" stroke-miterlimit="1" d="M212.204,191.556
				c0-1.98,1.62-3.6,3.6-3.6h53.829c1.979,0,3.6,1.62,3.6,3.6v12.95c0,1.98-1.62,3.6-3.6,3.6h-53.829c-1.98,0-3.6-1.62-3.6-3.6
				V191.556z"/>
		</g>
		<text transform="matrix(1 0 0 1 214.939 196.3599)"><tspan x="0" y="0" font-size="6">Breast Imaging</tspan><tspan x="0" y="7.2" font-size="6">Assessment</tspan></text>
		<text transform="matrix(1 0 0 1 211.5264 184.9639)" font-size="7">TID 4203</text>
		<g>
			<path fill="#CEDFEF" d="M212.204,152.586c0-1.98,1.62-3.6,3.6-3.6h53.829c1.979,0,3.6,1.62,3.6,3.6v12.95
				c0,1.98-1.62,3.6-3.6,3.6h-53.829c-1.98,0-3.6-1.62-3.6-3.6V152.586z"/>
			<path fill="none" stroke="#010101" stroke-width="0.75" stroke-linecap="square" stroke-miterlimit="1" d="M212.204,152.586
				c0-1.98,1.62-3.6,3.6-3.6h53.829c1.979,0,3.6,1.62,3.6,3.6v12.95c0,1.98-1.62,3.6-3.6,3.6h-53.829c-1.98,0-3.6-1.62-3.6-3.6
				V152.586z"/>
		</g>
		<text transform="matrix(1 0 0 1 214.9331 157.293)"><tspan x="0" y="0" font-size="6">Breast Imaging</tspan><tspan x="0" y="7.2" font-size="6">Procedure Reported</tspan></text>
		<text transform="matrix(1 0 0 1 211.5264 145.3984)" font-size="7">TID 4201</text>
		<text transform="matrix(1 0 0 1 211.4463 302.9707)" font-size="7">TID 4206</text>
		<text transform="matrix(1 0 0 1 211.4463 263.3784)" font-size="7">TID 4204</text>
		<text transform="matrix(1 0 0 1 214.9331 313.8223)"><tspan x="0" y="0" font-size="6">Breast Imaging</tspan><tspan x="0" y="7.2" font-size="6">Report</tspan><tspan x="0" y="14.4" font-size="6">Finding Section</tspan></text>
		<text transform="matrix(1 0 0 1 214.9331 274.2251)"><tspan x="0" y="0" font-size="6">Breast Imaging</tspan><tspan x="0" y="7.2" font-size="6">Report</tspan><tspan x="0" y="14.4" font-size="6">Intervention Section</tspan></text>
		<text transform="matrix(1 0 0 1 299.4922 342.5273)" font-size="7">TID 350</text>
		<text transform="matrix(1 0 0 1 301.9609 353.625)"><tspan x="0" y="0" font-size="6">References to</tspan><tspan x="0" y="7.2" font-size="6">Supporting Evidence </tspan></text>
		<g>
			<path fill="#CEDFEF" d="M299.932,312.875c0-1.979,1.62-3.6,3.6-3.6h53.832c1.979,0,3.6,1.62,3.6,3.6v12.953
				c0,1.979-1.62,3.6-3.6,3.6h-53.832c-1.979,0-3.6-1.62-3.6-3.6V312.875z"/>
			<path fill="none" stroke="#010101" stroke-width="0.75" stroke-linecap="square" stroke-miterlimit="1" d="M299.932,312.875
				c0-1.979,1.62-3.6,3.6-3.6h53.832c1.979,0,3.6,1.62,3.6,3.6v12.953c0,1.979-1.62,3.6-3.6,3.6h-53.832c-1.979,0-3.6-1.62-3.6-3.6
				V312.875z"/>
		</g>
		<text transform="matrix(1 0 0 1 297.5459 306.7832)" font-size="7">TID 1002</text>
		<text transform="matrix(1 0 0 1 301.9609 321.0215)" font-size="6">Observer Context </text>
		<text transform="matrix(1 0 0 1 301.9609 392.8887)"><tspan x="0" y="0" font-size="6">Breast Imaging</tspan><tspan x="0" y="7.201" font-size="6">Procedure Reported</tspan></text>
		<text transform="matrix(1 0 0 1 299.2549 380.4023)" font-size="7">TID 4201</text>
		<g>
			<g>
				<polyline fill="none" stroke="#000000" stroke-width="0.75" stroke-linecap="square" stroke-miterlimit="10" points="
					123.214,116.62 123.214,158.944 127.61,158.944 				"/>
				<g>
					<polygon points="126.124,161.123 134.254,158.944 126.124,156.766 					"/>
				</g>
			</g>
		</g>
		<g>
			<path fill="#CEDFEF" d="M134.128,106.888c0-1.98,1.62-3.6,3.6-3.6h53.577c1.98,0,3.6,1.62,3.6,3.6v19.566
				c0,1.98-1.62,3.6-3.6,3.6h-53.577c-1.98,0-3.6-1.62-3.6-3.6V106.888z"/>
			<path fill="none" stroke="#010101" stroke-width="0.75" stroke-linecap="square" stroke-miterlimit="1" d="M134.128,106.888
				c0-1.98,1.62-3.6,3.6-3.6h53.577c1.98,0,3.6,1.62,3.6,3.6v19.566c0,1.98-1.62,3.6-3.6,3.6h-53.577c-1.98,0-3.6-1.62-3.6-3.6
				V106.888z"/>
		</g>
		<text transform="matrix(1 0 0 1 132.3687 100.2124)" font-size="7">TID 1204</text>
		<rect x="137.35" y="106.289" fill="none" width="48.176" height="19.765"/>
		<text transform="matrix(1 0 0 1 137.3462 110.5762)"><tspan x="0" y="0" font-size="6">Language of</tspan><tspan x="0" y="7.2" font-size="6">Content Item and </tspan><tspan x="0" y="14.4" font-size="6">Descendants</tspan></text>
		<g>
			<g>
				<polyline fill="none" stroke="#000000" stroke-width="0.75" stroke-linecap="square" stroke-miterlimit="10" points="
					123.214,74.491 123.214,116.721 127.346,116.721 				"/>
				<g>
					<polygon points="125.86,118.899 133.991,116.721 125.86,114.542 					"/>
				</g>
			</g>
		</g>
		<g>
			<g>
				
					<line fill="none" stroke="#000000" stroke-width="0.75" stroke-linecap="square" stroke-miterlimit="10" x1="116.985" y1="34.94" x2="127.52" y2="34.94"/>
				<g>
					<polygon points="126.033,37.119 134.164,34.94 126.033,32.762 					"/>
				</g>
			</g>
		</g>
		<g>
			<path fill="#CEDFEF" d="M134.125,28.682c0-1.98,1.62-3.6,3.6-3.6h53.826c1.98,0,3.6,1.62,3.6,3.6V41.63c0,1.98-1.62,3.6-3.6,3.6
				h-53.826c-1.98,0-3.6-1.62-3.6-3.6V28.682z"/>
			<path fill="none" stroke="#010101" stroke-width="0.75" stroke-linecap="square" stroke-miterlimit="1" d="M134.125,28.682
				c0-1.98,1.62-3.6,3.6-3.6h53.826c1.98,0,3.6,1.62,3.6,3.6V41.63c0,1.98-1.62,3.6-3.6,3.6h-53.826c-1.98,0-3.6-1.62-3.6-3.6
				V28.682z"/>
		</g>
		<text transform="matrix(1 0 0 1 137.3496 36.8262)" font-size="6">Observation Context</text>
		<text transform="matrix(1 0 0 1 134.123 21.5029)" font-size="7">TID 1001</text>
		<g>
			<g>
				<polyline fill="none" stroke="#000000" stroke-width="0.75" stroke-linecap="square" stroke-miterlimit="10" points="
					123.214,35.189 123.214,77.419 127.346,77.419 				"/>
				<g>
					<polygon points="125.86,79.598 133.991,77.419 125.86,75.24 					"/>
				</g>
			</g>
		</g>
		<g>
			<path fill="none" stroke="#000000" stroke-width="0.75" stroke-linecap="square" stroke-miterlimit="10" d="M201.799,72.69"/>
		</g>
		<g>
			<g>
				<polyline fill="none" stroke="#000000" stroke-width="0.75" stroke-linecap="square" stroke-miterlimit="10" points="
					201.696,74.491 201.696,116.721 205.829,116.721 				"/>
				<g>
					<polygon points="204.343,118.899 212.473,116.721 204.343,114.542 					"/>
				</g>
			</g>
		</g>
		<g>
			<g>
				
					<line fill="none" stroke="#000000" stroke-width="0.75" stroke-linecap="square" stroke-miterlimit="10" x1="195.468" y1="74.458" x2="206.002" y2="74.458"/>
				<g>
					<polygon points="204.516,76.637 212.646,74.458 204.516,72.279 					"/>
				</g>
			</g>
		</g>
		<g>
			<path fill="none" stroke="#000000" stroke-width="0.75" stroke-linecap="square" stroke-miterlimit="10" d="M201.799,157.292"/>
		</g>
		<g>
			<g>
				<polyline fill="none" stroke="#000000" stroke-width="0.75" stroke-linecap="square" stroke-miterlimit="10" points="
					201.696,159.093 201.696,198.029 205.829,198.029 				"/>
				<g>
					<polygon points="204.343,200.208 212.473,198.029 204.343,195.851 					"/>
				</g>
			</g>
		</g>
		<g>
			<g>
				<polyline fill="none" stroke="#000000" stroke-width="0.75" stroke-linecap="square" stroke-miterlimit="10" points="
					201.696,198.622 201.696,237.559 205.829,237.559 				"/>
				<g>
					<polygon points="204.343,239.737 212.473,237.559 204.343,235.38 					"/>
				</g>
			</g>
		</g>
		<g>
			<g>
				<polyline fill="none" stroke="#000000" stroke-width="0.75" stroke-linecap="square" stroke-miterlimit="10" points="
					201.696,238.151 201.696,277.088 205.829,277.088 				"/>
				<g>
					<polygon points="204.343,279.267 212.473,277.088 204.343,274.909 					"/>
				</g>
			</g>
		</g>
		<g>
			<g>
				<polyline fill="none" stroke="#000000" stroke-width="0.75" stroke-linecap="square" stroke-miterlimit="10" points="
					201.696,277.681 201.696,316.616 205.829,316.616 				"/>
				<g>
					<polygon points="204.343,318.795 212.473,316.616 204.343,314.438 					"/>
				</g>
			</g>
		</g>
		<g>
			<g>
				
					<line fill="none" stroke="#000000" stroke-width="0.75" stroke-linecap="square" stroke-miterlimit="10" x1="195.468" y1="159.06" x2="206.002" y2="159.06"/>
				<g>
					<polygon points="204.516,161.238 212.646,159.06 204.516,156.881 					"/>
				</g>
			</g>
		</g>
		<g>
			<path fill="none" stroke="#000000" stroke-width="0.75" stroke-linecap="square" stroke-miterlimit="10" d="M288.308,316.567"/>
		</g>
		<g>
			<g>
				<polyline fill="none" stroke="#000000" stroke-width="0.75" stroke-linecap="square" stroke-miterlimit="10" points="
					288.206,356.243 288.206,395.18 293.469,395.18 				"/>
				<g>
					<polygon points="291.982,397.358 300.113,395.18 291.982,393.001 					"/>
				</g>
			</g>
		</g>
		<g>
			<g>
				<polyline fill="none" stroke="#000000" stroke-width="0.75" stroke-linecap="square" stroke-miterlimit="10" points="
					288.206,319.413 288.206,355.555 293.469,355.555 				"/>
				<g>
					<polygon points="291.982,357.733 300.113,355.555 291.982,353.376 					"/>
				</g>
			</g>
		</g>
		<g>
			<g>
				<polyline fill="none" stroke="#000000" stroke-width="0.75" stroke-linecap="square" stroke-miterlimit="10" points="
					288.206,395.772 288.206,434.709 293.469,434.709 				"/>
				<g>
					<polygon points="291.982,436.888 300.113,434.709 291.982,432.53 					"/>
				</g>
			</g>
		</g>
		<g>
			<g>
				<polyline fill="none" stroke="#000000" stroke-width="0.75" stroke-linecap="square" stroke-miterlimit="10" points="
					288.206,435.302 288.206,473.105 293.469,473.105 				"/>
				<g>
					<polygon points="291.982,475.284 300.113,473.105 291.982,470.927 					"/>
				</g>
			</g>
		</g>
		<g>
			<g>
				<polyline fill="none" stroke="#000000" stroke-width="0.75" stroke-linecap="square" stroke-miterlimit="10" points="
					288.206,473.198 288.206,512.367 293.469,512.367 				"/>
				<g>
					<polygon points="291.982,514.546 300.113,512.367 291.982,510.188 					"/>
				</g>
			</g>
		</g>
		<g>
			<g>
				<polyline fill="none" stroke="#000000" stroke-width="0.75" stroke-linecap="square" stroke-miterlimit="10" points="
					288.206,512.562 288.206,551.627 293.469,551.627 				"/>
				<g>
					<polygon points="291.982,553.806 300.113,551.627 291.982,549.448 					"/>
				</g>
			</g>
		</g>
		<g>
			<g>
				
					<line fill="none" stroke="#000000" stroke-width="0.75" stroke-linecap="square" stroke-miterlimit="10" x1="273.391" y1="319.352" x2="292.512" y2="319.352"/>
				<g>
					<polygon points="291.025,321.53 299.156,319.352 291.025,317.173 					"/>
				</g>
			</g>
		</g>
		<g>
			<g>
				
					<line fill="none" stroke="#000000" stroke-width="0.75" stroke-linecap="square" stroke-miterlimit="10" x1="360.963" y1="551.627" x2="370.713" y2="551.627"/>
				<g>
					<polygon points="369.227,553.806 377.357,551.627 369.227,549.448 					"/>
				</g>
			</g>
		</g>
		<g>
			<path fill="none" stroke="#000000" stroke-width="0.75" stroke-linecap="square" stroke-miterlimit="10" d="M375.1,276.449"/>
		</g>
		<g>
			<g>
				<polyline fill="none" stroke="#000000" stroke-width="0.75" stroke-linecap="square" stroke-miterlimit="10" points="
					374.997,278.25 374.997,317.187 379.129,317.187 				"/>
				<g>
					<polygon points="377.643,319.365 385.773,317.187 377.643,315.008 					"/>
				</g>
			</g>
		</g>
		<g>
			<g>
				<polyline fill="none" stroke="#000000" stroke-width="0.75" stroke-linecap="square" stroke-miterlimit="10" points="
					374.997,317.779 374.997,356.716 379.129,356.716 				"/>
				<g>
					<polygon points="377.643,358.895 385.773,356.716 377.643,354.537 					"/>
				</g>
			</g>
		</g>
		<g>
			<g>
				<polyline fill="none" stroke="#000000" stroke-width="0.75" stroke-linecap="square" stroke-miterlimit="10" points="
					374.997,357.309 374.997,396.245 379.129,396.245 				"/>
				<g>
					<polygon points="377.643,398.424 385.773,396.245 377.643,394.066 					"/>
				</g>
			</g>
		</g>
		<g>
			<g>
				
					<line fill="none" stroke="#000000" stroke-width="0.75" stroke-linecap="square" stroke-miterlimit="10" x1="273.39" y1="278.217" x2="379.316" y2="278.217"/>
				<g>
					<polygon points="377.83,280.396 385.961,278.217 377.83,276.038 					"/>
				</g>
			</g>
		</g>
		<g>
			<g>
				
					<line fill="none" stroke="#000000" stroke-width="0.75" stroke-linecap="square" stroke-miterlimit="10" x1="273.376" y1="198.029" x2="293.209" y2="198.029"/>
				<g>
					<polygon points="291.723,200.208 299.854,198.029 291.723,195.851 					"/>
				</g>
			</g>
		</g>
		<g>
			<g>
				
					<line fill="none" stroke="#000000" stroke-width="0.75" stroke-linecap="square" stroke-miterlimit="10" x1="273.376" y1="238.151" x2="293.209" y2="238.151"/>
				<g>
					<polygon points="291.723,240.33 299.854,238.151 291.723,235.973 					"/>
				</g>
			</g>
		</g>
	</g>
</g>
</svg>
