<?xml version="1.0" encoding="utf-8"?>

<!DOCTYPE svg PUBLIC "-//W3C//DTD SVG 1.1//EN" "http://www.w3.org/Graphics/SVG/1.1/DTD/svg11.dtd">
<svg version="1.1" id="Layer_1" xmlns="http://www.w3.org/2000/svg" xmlns:xlink="http://www.w3.org/1999/xlink" x="0px" y="0px"
	 width="502px" height="202px" viewBox="0 0 502 202" enable-background="new 0 0 502 202" xml:space="preserve">

<defs>
	<style type="text/css">
	text {
	  font-family: Helvetica, Verdana, ArialUnicodeMS, san-serif
	}
	</style>
</defs>

<g>
   <desc>
	PS 3.16 : Content Mapping Resource
   </desc>
</g>

<g>
	<rect x="1" y="1" fill="#F5EED6" width="500" height="200"/>
	<g>
		<g>
			<path fill="#CCDEF0" d="M263.805,115.644c0-1.979,1.62-3.6,3.6-3.6h53.881c1.979,0,3.6,1.62,3.6,3.6v19.567
				c0,1.979-1.62,3.6-3.6,3.6h-53.881c-1.979,0-3.6-1.62-3.6-3.6V115.644z"/>
			
				<path fill="none" stroke="#010101" stroke-width="0.75" stroke-linecap="round" stroke-linejoin="round" stroke-miterlimit="1" d="
				M263.805,115.644c0-1.979,1.62-3.6,3.6-3.6h53.881c1.979,0,3.6,1.62,3.6,3.6v19.567c0,1.979-1.62,3.6-3.6,3.6h-53.881
				c-1.979,0-3.6-1.62-3.6-3.6V115.644z"/>
		</g>
		<g>
			<path fill="#CCDEF0" d="M349.811,115.644c0-1.979,1.62-3.6,3.6-3.6h53.881c1.979,0,3.6,1.62,3.6,3.6v19.567
				c0,1.979-1.62,3.6-3.6,3.6H353.41c-1.979,0-3.6-1.62-3.6-3.6V115.644z"/>
			
				<path fill="none" stroke="#010101" stroke-width="0.75" stroke-linecap="round" stroke-linejoin="round" stroke-miterlimit="1" d="
				M349.811,115.644c0-1.979,1.62-3.6,3.6-3.6h53.881c1.979,0,3.6,1.62,3.6,3.6v19.567c0,1.979-1.62,3.6-3.6,3.6H353.41
				c-1.979,0-3.6-1.62-3.6-3.6V115.644z"/>
		</g>
		<g>
			<path fill="#CCDEF0" d="M176.861,115.644c0-1.979,1.62-3.6,3.6-3.6h53.826c1.98,0,3.6,1.62,3.6,3.6v12.951
				c0,1.979-1.62,3.6-3.6,3.6h-53.826c-1.98,0-3.6-1.62-3.6-3.6V115.644z"/>
			
				<path fill="none" stroke="#010101" stroke-width="0.75" stroke-linecap="round" stroke-linejoin="round" stroke-miterlimit="1" d="
				M176.861,115.644c0-1.979,1.62-3.6,3.6-3.6h53.826c1.98,0,3.6,1.62,3.6,3.6v12.951c0,1.979-1.62,3.6-3.6,3.6h-53.826
				c-1.98,0-3.6-1.62-3.6-3.6V115.644z"/>
		</g>
		<text transform="matrix(1 0 0 1 185.6421 120.1895)"><tspan x="0" y="0" font-size="6">Radiation</tspan><tspan x="0" y="7.199" font-size="6">Dose Estimate</tspan></text>
		<text transform="matrix(1 0 0 1 181.1338 108.459)" font-size="7">TID 10031</text>
		<text transform="matrix(1 0 0 1 268.1328 108.5439)" font-size="7">TID 10033</text>
		<text transform="matrix(1 0 0 1 359.6143 120.3633)"><tspan x="0" y="0" font-size="6">Radiation</tspan><tspan x="0" y="7.199" font-size="6">Dose Estimate</tspan><tspan x="0" y="14.399" font-size="6">Parameters</tspan></text>
		<text transform="matrix(1 0 0 1 354.1094 108.6289)" font-size="7">TID 10034</text>
		<text transform="matrix(1 0 0 1 272.5898 120.3623)"><tspan x="0" y="0" font-size="6">Radiation</tspan><tspan x="0" y="7.2" font-size="6">Dose Estimate</tspan><tspan x="0" y="14.4" font-size="6">Methodology</tspan></text>
		<g>
			<path fill="#CCDEF0" d="M263.805,162.465c0-1.979,1.62-3.6,3.6-3.6h53.881c1.979,0,3.6,1.62,3.6,3.6v19.567
				c0,1.979-1.62,3.6-3.6,3.6h-53.881c-1.979,0-3.6-1.62-3.6-3.6V162.465z"/>
			
				<path fill="none" stroke="#010101" stroke-width="0.75" stroke-linecap="round" stroke-linejoin="round" stroke-miterlimit="1" d="
				M263.805,162.465c0-1.979,1.62-3.6,3.6-3.6h53.881c1.979,0,3.6,1.62,3.6,3.6v19.567c0,1.979-1.62,3.6-3.6,3.6h-53.881
				c-1.979,0-3.6-1.62-3.6-3.6V162.465z"/>
		</g>
		<text transform="matrix(1 0 0 1 272.5898 167.1836)"><tspan x="0" y="0" font-size="6">Radiation</tspan><tspan x="0" y="7.2" font-size="6">Dose Estimate</tspan><tspan x="0" y="14.4" font-size="6">Representation</tspan></text>
		<text transform="matrix(1 0 0 1 91.1104 22.5728)" font-size="7">TID 10030</text>
		<g>
			<path fill="#CCDEF0" d="M91.11,29.756c0-1.98,1.62-3.6,3.6-3.6h53.826c1.98,0,3.6,1.62,3.6,3.6v12.949c0,1.98-1.62,3.6-3.6,3.6
				H94.71c-1.98,0-3.6-1.62-3.6-3.6V29.756z"/>
			
				<path fill="none" stroke="#010101" stroke-width="0.75" stroke-linecap="round" stroke-linejoin="round" stroke-miterlimit="1" d="
				M91.11,29.756c0-1.98,1.62-3.6,3.6-3.6h53.826c1.98,0,3.6,1.62,3.6,3.6v12.949c0,1.98-1.62,3.6-3.6,3.6H94.71
				c-1.98,0-3.6-1.62-3.6-3.6V29.756z"/>
		</g>
		<g>
			<path fill="#CCDEF0" d="M176.857,68.823c0-1.98,1.62-3.6,3.6-3.6h53.577c1.98,0,3.6,1.62,3.6,3.6v19.566c0,1.98-1.62,3.6-3.6,3.6
				h-53.577c-1.98,0-3.6-1.62-3.6-3.6V68.823z"/>
			
				<path fill="none" stroke="#010101" stroke-width="0.75" stroke-linecap="round" stroke-linejoin="round" stroke-miterlimit="1" d="
				M176.857,68.823c0-1.98,1.62-3.6,3.6-3.6h53.577c1.98,0,3.6,1.62,3.6,3.6v19.566c0,1.98-1.62,3.6-3.6,3.6h-53.577
				c-1.98,0-3.6-1.62-3.6-3.6V68.823z"/>
		</g>
		<text transform="matrix(1 0 0 1 175.0991 62.1382)" font-size="7">TID 1204</text>
		<g>
			<path fill="#CCDEF0" d="M176.857,29.756c0-1.98,1.62-3.6,3.6-3.6h53.827c1.98,0,3.6,1.62,3.6,3.6v12.949c0,1.98-1.62,3.6-3.6,3.6
				h-53.827c-1.98,0-3.6-1.62-3.6-3.6V29.756z"/>
			
				<path fill="none" stroke="#010101" stroke-width="0.75" stroke-linecap="round" stroke-linejoin="round" stroke-miterlimit="1" d="
				M176.857,29.756c0-1.98,1.62-3.6,3.6-3.6h53.827c1.98,0,3.6,1.62,3.6,3.6v12.949c0,1.98-1.62,3.6-3.6,3.6h-53.827
				c-1.98,0-3.6-1.62-3.6-3.6V29.756z"/>
		</g>
		<text transform="matrix(1 0 0 1 185.6421 34.4663)"><tspan x="0" y="0" font-size="6">Observer</tspan><tspan x="0" y="7.2" font-size="6">Context</tspan></text>
		<text transform="matrix(1 0 0 1 175.0991 22.5728)" font-size="7">TID 1002</text>
		<rect x="185.643" y="68.223" fill="none" width="48.176" height="19.766"/>
		<text transform="matrix(1 0 0 1 185.6416 72.5103)"><tspan x="0" y="0" font-size="6">Language of</tspan><tspan x="0" y="7.2" font-size="6">Content Item and </tspan><tspan x="0" y="14.4" font-size="6">Descendants</tspan></text>
		<g>
			<g>
				
					<line fill="none" stroke="#000000" stroke-width="0.75" stroke-linecap="round" stroke-linejoin="round" x1="152.135" y1="35.214" x2="170.211" y2="35.214"/>
				<g>
					<polygon points="168.725,37.393 176.855,35.214 168.725,33.035 					"/>
				</g>
			</g>
		</g>
		<g>
			<g>
				<polyline fill="none" stroke="#000000" stroke-width="0.75" stroke-linecap="round" stroke-linejoin="round" points="
					161.984,35.214 161.984,78.655 170.075,78.655 				"/>
				<g>
					<polygon points="168.589,80.834 176.72,78.655 168.589,76.477 					"/>
				</g>
			</g>
		</g>
		<g>
			<g>
				<polyline fill="none" stroke="#000000" stroke-width="0.75" stroke-linecap="round" stroke-linejoin="round" points="
					161.984,78.979 161.984,121.931 170.075,121.931 				"/>
				<g>
					<polygon points="168.589,124.109 176.72,121.931 168.589,119.752 					"/>
				</g>
			</g>
		</g>
		<text transform="matrix(1 0 0 1 268.0312 155.2812)" font-size="7">TID 10032</text>
		<g>
			<g>
				<polyline fill="none" stroke="#000000" stroke-width="0.75" stroke-linecap="round" stroke-linejoin="round" points="
					248.883,122.638 248.883,168.752 256.973,168.752 				"/>
				<g>
					<polygon points="255.486,170.931 263.617,168.752 255.486,166.573 					"/>
				</g>
			</g>
		</g>
		<g>
			<g>
				
					<line fill="none" stroke="#000000" stroke-width="0.75" stroke-linecap="round" stroke-linejoin="round" x1="325.188" y1="121.931" x2="343.264" y2="121.931"/>
				<g>
					<polygon points="341.777,124.109 349.908,121.931 341.777,119.752 					"/>
				</g>
			</g>
		</g>
		<g>
			<g>
				
					<line fill="none" stroke="#000000" stroke-width="0.75" stroke-linecap="round" stroke-linejoin="round" x1="237.882" y1="122.313" x2="257.203" y2="122.313"/>
				<g>
					<polygon points="255.717,124.492 263.848,122.313 255.717,120.135 					"/>
				</g>
			</g>
		</g>
		<text transform="matrix(1 0 0 1 99.7222 34.3013)"><tspan x="0" y="0" font-size="6">Patient Radiation</tspan><tspan x="0" y="7.2" font-size="6">Dose</tspan></text>
	</g>
</g>
</svg>
