<?xml version="1.0" encoding="utf-8"?>

<!DOCTYPE svg PUBLIC "-//W3C//DTD SVG 1.1//EN" "http://www.w3.org/Graphics/SVG/1.1/DTD/svg11.dtd">
<svg version="1.1" id="Layer_1" xmlns="http://www.w3.org/2000/svg" xmlns:xlink="http://www.w3.org/1999/xlink" x="0px" y="0px"
	 width="502px" height="687px" viewBox="0 0 502 687" enable-background="new 0 0 502 687" xml:space="preserve">

<defs>
	<style type="text/css">
	text {
	  font-family: Helvetica, Verdana, ArialUnicodeMS, san-serif
	}
	</style>
</defs>

<g>
   <desc>
	PS 3.16 Part 16: Content Mapping Resource
   </desc>
   <title>
	Figure A-9b: Colon CAD SR IOD Template Structure 
   </title>
</g>

<g>
	<rect x="1" y="1" fill="#F5EED6" width="500" height="685"/>
	<g>
		<g>
			<path fill="#CCDEF0" d="M76.776,63.992c0-1.98,1.62-3.6,3.6-3.6h47.359c1.98,0,3.6,1.62,3.6,3.6v10.813c0,1.98-1.62,3.6-3.6,3.6
				H80.376c-1.98,0-3.6-1.62-3.6-3.6V63.992z"/>
			
				<path fill="none" stroke="#010101" stroke-width="0.75" stroke-linecap="round" stroke-linejoin="round" stroke-miterlimit="1" d="
				M76.776,63.992c0-1.98,1.62-3.6,3.6-3.6h47.359c1.98,0,3.6,1.62,3.6,3.6v10.813c0,1.98-1.62,3.6-3.6,3.6H80.376
				c-1.98,0-3.6-1.62-3.6-3.6V63.992z"/>
		</g>
		<text transform="matrix(1 0 0 1 82.5229 67.8267)"><tspan x="0" y="0" font-size="6">Analyses</tspan><tspan x="0" y="7.2" font-size="6">Performed</tspan></text>
		<text transform="matrix(1 0 0 1 77.2793 57.6387)" font-size="7">TID 4016</text>
		<g>
			<path fill="#CCDEF0" d="M76.776,29.066c0-1.98,1.62-3.6,3.6-3.6h47.359c1.98,0,3.6,1.62,3.6,3.6V39.88c0,1.98-1.62,3.6-3.6,3.6
				H80.376c-1.98,0-3.6-1.62-3.6-3.6V29.066z"/>
			
				<path fill="none" stroke="#010101" stroke-width="0.75" stroke-linecap="round" stroke-linejoin="round" stroke-miterlimit="1" d="
				M76.776,29.066c0-1.98,1.62-3.6,3.6-3.6h47.359c1.98,0,3.6,1.62,3.6,3.6V39.88c0,1.98-1.62,3.6-3.6,3.6H80.376
				c-1.98,0-3.6-1.62-3.6-3.6V29.066z"/>
		</g>
		<text transform="matrix(1 0 0 1 82.5171 32.8999)"><tspan x="0" y="0" font-size="6">Detections</tspan><tspan x="0" y="7.2" font-size="6">Performed</tspan></text>
		<text transform="matrix(1 0 0 1 77.2793 22.2656)" font-size="7">TID 4015</text>
		<g>
			<path fill="#CCDEF0" d="M146.331,63.992c0-1.98,1.62-3.6,3.6-3.6h47.36c1.98,0,3.6,1.62,3.6,3.6v10.813c0,1.98-1.62,3.6-3.6,3.6
				h-47.36c-1.98,0-3.6-1.62-3.6-3.6V63.992z"/>
			
				<path fill="none" stroke="#010101" stroke-width="0.75" stroke-linecap="round" stroke-linejoin="round" stroke-miterlimit="1" d="
				M146.331,63.992c0-1.98,1.62-3.6,3.6-3.6h47.36c1.98,0,3.6,1.62,3.6,3.6v10.813c0,1.98-1.62,3.6-3.6,3.6h-47.36
				c-1.98,0-3.6-1.62-3.6-3.6V63.992z"/>
		</g>
		<text transform="matrix(1 0 0 1 151.7856 67.8267)"><tspan x="0" y="0" font-size="6">Analyses</tspan><tspan x="0" y="7.2" font-size="6">Performed</tspan></text>
		<text transform="matrix(1 0 0 1 146.835 57.6387)" font-size="7">TID 4018</text>
		<g>
			<path fill="#CCDEF0" d="M146.331,29.066c0-1.98,1.62-3.6,3.6-3.6h47.36c1.98,0,3.6,1.62,3.6,3.6V39.88c0,1.98-1.62,3.6-3.6,3.6
				h-47.36c-1.98,0-3.6-1.62-3.6-3.6V29.066z"/>
			
				<path fill="none" stroke="#010101" stroke-width="0.75" stroke-linecap="round" stroke-linejoin="round" stroke-miterlimit="1" d="
				M146.331,29.066c0-1.98,1.62-3.6,3.6-3.6h47.36c1.98,0,3.6,1.62,3.6,3.6V39.88c0,1.98-1.62,3.6-3.6,3.6h-47.36
				c-1.98,0-3.6-1.62-3.6-3.6V29.066z"/>
		</g>
		<text transform="matrix(1 0 0 1 151.7798 32.8999)"><tspan x="0" y="0" font-size="6">Detections</tspan><tspan x="0" y="7.2" font-size="6">Performed</tspan></text>
		<text transform="matrix(1 0 0 1 146.835 22.2656)" font-size="7">TID 4017</text>
		<g>
			<path fill="#CCDEF0" d="M217.5,63.992c0-1.98,1.62-3.6,3.6-3.6h47.357c1.979,0,3.6,1.62,3.6,3.6v10.813c0,1.98-1.62,3.6-3.6,3.6
				H221.1c-1.98,0-3.6-1.62-3.6-3.6V63.992z"/>
			
				<path fill="none" stroke="#010101" stroke-width="0.75" stroke-linecap="round" stroke-linejoin="round" stroke-miterlimit="1" d="
				M217.5,63.992c0-1.98,1.62-3.6,3.6-3.6h47.357c1.979,0,3.6,1.62,3.6,3.6v10.813c0,1.98-1.62,3.6-3.6,3.6H221.1
				c-1.98,0-3.6-1.62-3.6-3.6V63.992z"/>
		</g>
		<text transform="matrix(1 0 0 1 222.4502 67.8267)"><tspan x="0" y="0" font-size="6">Algorithm</tspan><tspan x="0" y="7.2" font-size="6">Identification</tspan></text>
		<text transform="matrix(1 0 0 1 218.0747 57.6387)" font-size="7">TID 4019</text>
		<g>
			<path fill="#CCDEF0" d="M217.5,134.714c0-1.98,1.62-3.6,3.6-3.6h47.357c1.979,0,3.6,1.62,3.6,3.6v10.813c0,1.98-1.62,3.6-3.6,3.6
				H221.1c-1.98,0-3.6-1.62-3.6-3.6V134.714z"/>
			
				<path fill="none" stroke="#010101" stroke-width="0.75" stroke-linecap="round" stroke-linejoin="round" stroke-miterlimit="1" d="
				M217.5,134.714c0-1.98,1.62-3.6,3.6-3.6h47.357c1.979,0,3.6,1.62,3.6,3.6v10.813c0,1.98-1.62,3.6-3.6,3.6H221.1
				c-1.98,0-3.6-1.62-3.6-3.6V134.714z"/>
		</g>
		<text transform="matrix(1 0 0 1 222.4502 138.5493)"><tspan x="0" y="0" font-size="6">Algorithm</tspan><tspan x="0" y="7.2" font-size="6">Identification</tspan></text>
		<text transform="matrix(1 0 0 1 218.0747 128.3613)" font-size="7">TID 4019</text>
		<g>
			<path fill="#CCDEF0" d="M217.571,29.066c0-1.98,1.62-3.6,3.6-3.6h47.359c1.979,0,3.6,1.62,3.6,3.6V39.88c0,1.98-1.62,3.6-3.6,3.6
				h-47.359c-1.98,0-3.6-1.62-3.6-3.6V29.066z"/>
			
				<path fill="none" stroke="#010101" stroke-width="0.75" stroke-linecap="round" stroke-linejoin="round" stroke-miterlimit="1" d="
				M217.571,29.066c0-1.98,1.62-3.6,3.6-3.6h47.359c1.979,0,3.6,1.62,3.6,3.6V39.88c0,1.98-1.62,3.6-3.6,3.6h-47.359
				c-1.98,0-3.6-1.62-3.6-3.6V29.066z"/>
		</g>
		<text transform="matrix(1 0 0 1 222.4502 32.8999)"><tspan x="0" y="0" font-size="6">Algorithm</tspan><tspan x="0" y="7.2" font-size="6">Identification</tspan></text>
		<text transform="matrix(1 0 0 1 218.0737 22.2656)" font-size="7">TID 4019</text>
		<g>
			<path fill="#CCDEF0" d="M6.934,28.99c0-1.98,1.62-3.6,3.6-3.6H57.82c1.98,0,3.6,1.62,3.6,3.6v19.643c0,1.98-1.62,3.6-3.6,3.6
				H10.534c-1.98,0-3.6-1.62-3.6-3.6V28.99z"/>
			<path fill="none" stroke="#010101" stroke-width="0.75" d="M6.934,28.99c0-1.98,1.62-3.6,3.6-3.6H57.82c1.98,0,3.6,1.62,3.6,3.6
				v19.643c0,1.98-1.62,3.6-3.6,3.6H10.534c-1.98,0-3.6-1.62-3.6-3.6V28.99z"/>
		</g>
		<text transform="matrix(1 0 0 1 11.8921 32.8999)"><tspan x="0" y="0" font-size="6">Mammography</tspan><tspan x="0" y="6.6" font-size="6">CAD Document</tspan><tspan x="0" y="13.2" font-size="6">Root</tspan></text>
		<text transform="matrix(1 0 0 1 7.4365 22.8281)" font-size="7">TID 4000</text>
		<text transform="matrix(1 0 0 1 147.3481 162.7427)" font-size="7">TID 4003</text>
		<text transform="matrix(1 0 0 1 147.3481 127.3696)" font-size="7">TID 4002</text>
		<g>
			<path fill="#CCDEF0" d="M146.846,169.096c0-1.98,1.62-3.6,3.6-3.6h47.357c1.98,0,3.6,1.62,3.6,3.6v19.566
				c0,1.98-1.62,3.6-3.6,3.6h-47.357c-1.98,0-3.6-1.62-3.6-3.6V169.096z"/>
			
				<path fill="none" stroke="#010101" stroke-width="0.75" stroke-linecap="round" stroke-linejoin="round" stroke-miterlimit="1" d="
				M146.846,169.096c0-1.98,1.62-3.6,3.6-3.6h47.357c1.98,0,3.6,1.62,3.6,3.6v19.566c0,1.98-1.62,3.6-3.6,3.6h-47.357
				c-1.98,0-3.6-1.62-3.6-3.6V169.096z"/>
		</g>
		<text transform="matrix(1 0 0 1 151.7798 173.9473)"><tspan x="0" y="0" font-size="6">Individual </tspan><tspan x="0" y="6.6" font-size="6">impression /</tspan><tspan x="0" y="13.2" font-size="6">recommendation</tspan></text>
		<g>
			<path fill="#CCDEF0" d="M146.846,134.168c0-1.98,1.62-3.6,3.6-3.6h47.357c1.98,0,3.6,1.62,3.6,3.6v10.815
				c0,1.98-1.62,3.6-3.6,3.6h-47.357c-1.98,0-3.6-1.62-3.6-3.6V134.168z"/>
			
				<path fill="none" stroke="#010101" stroke-width="0.75" stroke-linecap="round" stroke-linejoin="round" stroke-miterlimit="1" d="
				M146.846,134.168c0-1.98,1.62-3.6,3.6-3.6h47.357c1.98,0,3.6,1.62,3.6,3.6v10.815c0,1.98-1.62,3.6-3.6,3.6h-47.357
				c-1.98,0-3.6-1.62-3.6-3.6V134.168z"/>
		</g>
		<text transform="matrix(1 0 0 1 151.7798 138.0029)"><tspan x="0" y="0" font-size="6">Impression</tspan><tspan x="0" y="7.2" font-size="6">Body</tspan></text>
		<g>
			<path fill="#CCDEF0" d="M288.722,169.588c0-1.98,1.62-3.6,3.6-3.6h47.358c1.979,0,3.6,1.62,3.6,3.6v10.812
				c0,1.98-1.62,3.6-3.6,3.6h-47.358c-1.979,0-3.6-1.62-3.6-3.6V169.588z"/>
			
				<path fill="none" stroke="#010101" stroke-width="0.75" stroke-linecap="round" stroke-linejoin="round" stroke-miterlimit="1" d="
				M288.722,169.588c0-1.98,1.62-3.6,3.6-3.6h47.358c1.979,0,3.6,1.62,3.6,3.6v10.812c0,1.98-1.62,3.6-3.6,3.6h-47.358
				c-1.979,0-3.6-1.62-3.6-3.6V169.588z"/>
		</g>
		<text transform="matrix(1 0 0 1 293.5215 173.6387)"><tspan x="0" y="0" font-size="6">Algorithm</tspan><tspan x="0" y="7.2" font-size="6">Identification</tspan></text>
		<text transform="matrix(1 0 0 1 289.2246 163.2334)" font-size="7">TID 4019</text>
		<text transform="matrix(1 0 0 1 218.229 162.2427)" font-size="7">TID 4002</text>
		<g>
			<path fill="#CCDEF0" d="M217.728,169.042c0-1.98,1.62-3.6,3.6-3.6h47.356c1.979,0,3.6,1.62,3.6,3.6v10.813
				c0,1.98-1.62,3.6-3.6,3.6h-47.356c-1.98,0-3.6-1.62-3.6-3.6V169.042z"/>
			
				<path fill="none" stroke="#010101" stroke-width="0.75" stroke-linecap="round" stroke-linejoin="round" stroke-miterlimit="1" d="
				M217.728,169.042c0-1.98,1.62-3.6,3.6-3.6h47.356c1.979,0,3.6,1.62,3.6,3.6v10.813c0,1.98-1.62,3.6-3.6,3.6h-47.356
				c-1.98,0-3.6-1.62-3.6-3.6V169.042z"/>
		</g>
		<text transform="matrix(1 0 0 1 222.4443 172.8765)"><tspan x="0" y="0" font-size="6">Impression</tspan><tspan x="0" y="7.2" font-size="6">Body</tspan></text>
		<g>
			<path fill="#CCDEF0" d="M76.776,99.094c0-1.98,1.62-3.6,3.6-3.6h47.359c1.98,0,3.6,1.62,3.6,3.6v10.812c0,1.98-1.62,3.6-3.6,3.6
				H80.376c-1.98,0-3.6-1.62-3.6-3.6V99.094z"/>
			
				<path fill="none" stroke="#010101" stroke-width="0.75" stroke-linecap="round" stroke-linejoin="round" stroke-miterlimit="1" d="
				M76.776,99.094c0-1.98,1.62-3.6,3.6-3.6h47.359c1.98,0,3.6,1.62,3.6,3.6v10.812c0,1.98-1.62,3.6-3.6,3.6H80.376
				c-1.98,0-3.6-1.62-3.6-3.6V99.094z"/>
		</g>
		<text transform="matrix(1 0 0 1 77.2793 127.7417)" font-size="7">TID 4001</text>
		<text transform="matrix(1 0 0 1 217.9526 195.2466)" font-size="7">TID 4004</text>
		<g>
			<path fill="#CCDEF0" d="M217.524,201.304c0-1.98,1.62-3.6,3.6-3.6h47.356c1.979,0,3.6,1.62,3.6,3.6v10.812
				c0,1.98-1.62,3.6-3.6,3.6h-47.356c-1.98,0-3.6-1.62-3.6-3.6V201.304z"/>
			
				<path fill="none" stroke="#010101" stroke-width="0.75" stroke-linecap="round" stroke-linejoin="round" stroke-miterlimit="1" d="
				M217.524,201.304c0-1.98,1.62-3.6,3.6-3.6h47.356c1.979,0,3.6,1.62,3.6,3.6v10.812c0,1.98-1.62,3.6-3.6,3.6h-47.356
				c-1.98,0-3.6-1.62-3.6-3.6V201.304z"/>
		</g>
		<text transform="matrix(1 0 0 1 222.4443 204.7808)"><tspan x="0" y="0" font-size="6">Composite</tspan><tspan x="0" y="7.2" font-size="6">Feature</tspan></text>
		<g>
			<path fill="#CCDEF0" d="M217.418,236.249c0-1.98,1.62-3.6,3.6-3.6h47.363c1.979,0,3.6,1.62,3.6,3.6v10.814
				c0,1.98-1.62,3.6-3.6,3.6h-47.363c-1.98,0-3.6-1.62-3.6-3.6V236.249z"/>
			
				<path fill="none" stroke="#010101" stroke-width="0.75" stroke-linecap="round" stroke-linejoin="round" stroke-miterlimit="1" d="
				M217.418,236.249c0-1.98,1.62-3.6,3.6-3.6h47.363c1.979,0,3.6,1.62,3.6,3.6v10.814c0,1.98-1.62,3.6-3.6,3.6h-47.363
				c-1.98,0-3.6-1.62-3.6-3.6V236.249z"/>
		</g>
		<text transform="matrix(1 0 0 1 222.4443 240.4009)"><tspan x="0" y="0" font-size="6">Single Image</tspan><tspan x="0" y="7.2" font-size="6">Finding</tspan></text>
		<text transform="matrix(1 0 0 1 217.9136 229.4438)" font-size="7">TID 4006</text>
		<g>
			<path fill="#CCDEF0" d="M288.717,377.924c0-1.979,1.62-3.6,3.6-3.6h47.358c1.979,0,3.6,1.62,3.6,3.6v10.814
				c0,1.979-1.62,3.6-3.6,3.6h-47.358c-1.979,0-3.6-1.62-3.6-3.6V377.924z"/>
			
				<path fill="none" stroke="#010101" stroke-width="0.75" stroke-linecap="round" stroke-linejoin="round" stroke-miterlimit="1" d="
				M288.717,377.924c0-1.979,1.62-3.6,3.6-3.6h47.358c1.979,0,3.6,1.62,3.6,3.6v10.814c0,1.979-1.62,3.6-3.6,3.6h-47.358
				c-1.979,0-3.6-1.62-3.6-3.6V377.924z"/>
		</g>
		<text transform="matrix(1 0 0 1 293.5156 381.4004)"><tspan x="0" y="0" font-size="6">Image</tspan><tspan x="0" y="7.201" font-size="6">Quality</tspan></text>
		<text transform="matrix(1 0 0 1 289.2246 371.0215)" font-size="7">TID 4014</text>
		<g>
			<path fill="#CCDEF0" d="M288.717,307.055c0-1.98,1.62-3.6,3.6-3.6h47.358c1.979,0,3.6,1.62,3.6,3.6v10.808
				c0,1.98-1.62,3.6-3.6,3.6h-47.358c-1.979,0-3.6-1.62-3.6-3.6V307.055z"/>
			
				<path fill="none" stroke="#010101" stroke-width="0.75" stroke-linecap="round" stroke-linejoin="round" stroke-miterlimit="1" d="
				M288.717,307.055c0-1.98,1.62-3.6,3.6-3.6h47.358c1.979,0,3.6,1.62,3.6,3.6v10.808c0,1.98-1.62,3.6-3.6,3.6h-47.358
				c-1.979,0-3.6-1.62-3.6-3.6V307.055z"/>
		</g>
		<g>
			<path fill="#CCDEF0" d="M288.717,272.371c0-1.98,1.62-3.6,3.6-3.6h47.358c1.979,0,3.6,1.62,3.6,3.6v10.81
				c0,1.98-1.62,3.6-3.6,3.6h-47.358c-1.979,0-3.6-1.62-3.6-3.6V272.371z"/>
			
				<path fill="none" stroke="#010101" stroke-width="0.75" stroke-linecap="round" stroke-linejoin="round" stroke-miterlimit="1" d="
				M288.717,272.371c0-1.98,1.62-3.6,3.6-3.6h47.358c1.979,0,3.6,1.62,3.6,3.6v10.81c0,1.98-1.62,3.6-3.6,3.6h-47.358
				c-1.979,0-3.6-1.62-3.6-3.6V272.371z"/>
		</g>
		<text transform="matrix(1 0 0 1 289.2246 265.4312)" font-size="7">TID 4022</text>
		<g>
			<path fill="#CCDEF0" d="M288.717,342.469c0-1.98,1.62-3.6,3.6-3.6h47.358c1.979,0,3.6,1.62,3.6,3.6v10.816
				c0,1.979-1.62,3.6-3.6,3.6h-47.358c-1.979,0-3.6-1.62-3.6-3.6V342.469z"/>
			
				<path fill="none" stroke="#010101" stroke-width="0.75" stroke-linecap="round" stroke-linejoin="round" stroke-miterlimit="1" d="
				M288.717,342.469c0-1.98,1.62-3.6,3.6-3.6h47.358c1.979,0,3.6,1.62,3.6,3.6v10.816c0,1.979-1.62,3.6-3.6,3.6h-47.358
				c-1.979,0-3.6-1.62-3.6-3.6V342.469z"/>
		</g>
		<text transform="matrix(1 0 0 1 293.5215 345.9453)"><tspan x="0" y="0" font-size="6">Algorithm</tspan><tspan x="0" y="7.201" font-size="6">Identification</tspan></text>
		<text transform="matrix(1 0 0 1 289.2246 336.2007)" font-size="7">TID 4019</text>
		<text transform="matrix(1 0 0 1 293.5156 275.8462)"><tspan x="0" y="0" font-size="6">Observation</tspan><tspan x="0" y="7.2" font-size="6">Context</tspan></text>
		<text transform="matrix(1 0 0 1 289.2246 301.1196)" font-size="7">TID 4021</text>
		<text transform="matrix(1 0 0 1 293.5156 314.1294)" font-size="6">Geometry</text>
		<g>
			<path fill="#CCDEF0" d="M288.717,482.105c0-1.979,1.62-3.6,3.6-3.6h47.358c1.979,0,3.6,1.62,3.6,3.6v10.816
				c0,1.979-1.62,3.6-3.6,3.6h-47.358c-1.979,0-3.6-1.62-3.6-3.6V482.105z"/>
			
				<path fill="none" stroke="#010101" stroke-width="0.75" stroke-linecap="round" stroke-linejoin="round" stroke-miterlimit="1" d="
				M288.717,482.105c0-1.979,1.62-3.6,3.6-3.6h47.358c1.979,0,3.6,1.62,3.6,3.6v10.816c0,1.979-1.62,3.6-3.6,3.6h-47.358
				c-1.979,0-3.6-1.62-3.6-3.6V482.105z"/>
		</g>
		<text transform="matrix(1 0 0 1 293.5156 489.0918)" font-size="6">Density</text>
		<text transform="matrix(1 0 0 1 289.2246 475.7812)" font-size="7">TID 4011</text>
		<g>
			<path fill="#CCDEF0" d="M288.717,412.094c0-1.979,1.62-3.6,3.6-3.6h47.358c1.979,0,3.6,1.62,3.6,3.6v10.814
				c0,1.979-1.62,3.6-3.6,3.6h-47.358c-1.979,0-3.6-1.62-3.6-3.6V412.094z"/>
			
				<path fill="none" stroke="#010101" stroke-width="0.75" stroke-linecap="round" stroke-linejoin="round" stroke-miterlimit="1" d="
				M288.717,412.094c0-1.979,1.62-3.6,3.6-3.6h47.358c1.979,0,3.6,1.62,3.6,3.6v10.814c0,1.979-1.62,3.6-3.6,3.6h-47.358
				c-1.979,0-3.6-1.62-3.6-3.6V412.094z"/>
		</g>
		<g>
			<path fill="#CCDEF0" d="M288.717,447.008c0-1.979,1.62-3.6,3.6-3.6h47.358c1.979,0,3.6,1.62,3.6,3.6v10.811
				c0,1.979-1.62,3.6-3.6,3.6h-47.358c-1.979,0-3.6-1.62-3.6-3.6V447.008z"/>
			
				<path fill="none" stroke="#010101" stroke-width="0.75" stroke-linecap="round" stroke-linejoin="round" stroke-miterlimit="1" d="
				M288.717,447.008c0-1.979,1.62-3.6,3.6-3.6h47.358c1.979,0,3.6,1.62,3.6,3.6v10.811c0,1.979-1.62,3.6-3.6,3.6h-47.358
				c-1.979,0-3.6-1.62-3.6-3.6V447.008z"/>
		</g>
		<text transform="matrix(1 0 0 1 293.5156 453.9902)" font-size="6">Non-lesion</text>
		<text transform="matrix(1 0 0 1 289.2246 440.959)" font-size="7">TID 4012</text>
		<text transform="matrix(1 0 0 1 289.2246 405.8789)" font-size="7">TID 4013</text>
		<text transform="matrix(1 0 0 1 293.5156 415.5723)"><tspan x="0" y="0" font-size="6">Selected</tspan><tspan x="0" y="7.201" font-size="6">Region</tspan></text>
		<g>
			<path fill="#CCDEF0" d="M288.717,586.867c0-1.979,1.62-3.6,3.6-3.6h47.358c1.979,0,3.6,1.62,3.6,3.6v10.814
				c0,1.979-1.62,3.6-3.6,3.6h-47.358c-1.979,0-3.6-1.62-3.6-3.6V586.867z"/>
			
				<path fill="none" stroke="#010101" stroke-width="0.75" stroke-linecap="round" stroke-linejoin="round" stroke-miterlimit="1" d="
				M288.717,586.867c0-1.979,1.62-3.6,3.6-3.6h47.358c1.979,0,3.6,1.62,3.6,3.6v10.814c0,1.979-1.62,3.6-3.6,3.6h-47.358
				c-1.979,0-3.6-1.62-3.6-3.6V586.867z"/>
		</g>
		<text transform="matrix(1 0 0 1 293.5156 590.9219)"><tspan x="0" y="0" font-size="6">Breast</tspan><tspan x="0" y="7.199" font-size="6">Geometry</tspan></text>
		<text transform="matrix(1 0 0 1 289.2246 580.5391)" font-size="7">TID 4008</text>
		<g>
			<path fill="#CCDEF0" d="M288.717,516.67c0-1.979,1.62-3.6,3.6-3.6h47.358c1.979,0,3.6,1.62,3.6,3.6v10.809
				c0,1.979-1.62,3.6-3.6,3.6h-47.358c-1.979,0-3.6-1.62-3.6-3.6V516.67z"/>
			
				<path fill="none" stroke="#010101" stroke-width="0.75" stroke-linecap="round" stroke-linejoin="round" stroke-miterlimit="1" d="
				M288.717,516.67c0-1.979,1.62-3.6,3.6-3.6h47.358c1.979,0,3.6,1.62,3.6,3.6v10.809c0,1.979-1.62,3.6-3.6,3.6h-47.358
				c-1.979,0-3.6-1.62-3.6-3.6V516.67z"/>
		</g>
		<g>
			<path fill="#CCDEF0" d="M288.717,551.766c0-1.979,1.62-3.6,3.6-3.6h47.358c1.979,0,3.6,1.62,3.6,3.6v10.816
				c0,1.979-1.62,3.6-3.6,3.6h-47.358c-1.979,0-3.6-1.62-3.6-3.6V551.766z"/>
			
				<path fill="none" stroke="#010101" stroke-width="0.75" stroke-linecap="round" stroke-linejoin="round" stroke-miterlimit="1" d="
				M288.717,551.766c0-1.979,1.62-3.6,3.6-3.6h47.358c1.979,0,3.6,1.62,3.6,3.6v10.816c0,1.979-1.62,3.6-3.6,3.6h-47.358
				c-1.979,0-3.6-1.62-3.6-3.6V551.766z"/>
		</g>
		<text transform="matrix(1 0 0 1 293.5156 555.8281)"><tspan x="0" y="0" font-size="6">Individual</tspan><tspan x="0" y="7.199" font-size="6">Calcification</tspan></text>
		<text transform="matrix(1 0 0 1 289.2246 545.7207)" font-size="7">TID 4009</text>
		<text transform="matrix(1 0 0 1 289.2246 510.6406)" font-size="7">TID 4010</text>
		<text transform="matrix(1 0 0 1 293.5156 521.416)"><tspan x="0" y="0" font-size="6">Calcification</tspan><tspan x="0" y="7.199" font-size="6">Cluster</tspan></text>
		<g>
			<path fill="#CCDEF0" d="M288.717,621.428c0-1.979,1.62-3.6,3.6-3.6h47.358c1.979,0,3.6,1.62,3.6,3.6v10.814
				c0,1.979-1.62,3.6-3.6,3.6h-47.358c-1.979,0-3.6-1.62-3.6-3.6V621.428z"/>
			
				<path fill="none" stroke="#010101" stroke-width="0.75" stroke-linecap="round" stroke-linejoin="round" stroke-miterlimit="1" d="
				M288.717,621.428c0-1.979,1.62-3.6,3.6-3.6h47.358c1.979,0,3.6,1.62,3.6,3.6v10.814c0,1.979-1.62,3.6-3.6,3.6h-47.358
				c-1.979,0-3.6-1.62-3.6-3.6V621.428z"/>
		</g>
		<g>
			<path fill="#CCDEF0" d="M288.717,656.529c0-1.979,1.62-3.6,3.6-3.6h47.358c1.979,0,3.6,1.62,3.6,3.6v10.811
				c0,1.979-1.62,3.6-3.6,3.6h-47.358c-1.979,0-3.6-1.62-3.6-3.6V656.529z"/>
			
				<path fill="none" stroke="#010101" stroke-width="0.75" stroke-linecap="round" stroke-linejoin="round" stroke-miterlimit="1" d="
				M288.717,656.529c0-1.979,1.62-3.6,3.6-3.6h47.358c1.979,0,3.6,1.62,3.6,3.6v10.811c0,1.979-1.62,3.6-3.6,3.6h-47.358
				c-1.979,0-3.6-1.62-3.6-3.6V656.529z"/>
		</g>
		<text transform="matrix(1 0 0 1 293.5156 660.3711)"><tspan x="0" y="0" font-size="6">Single Image</tspan><tspan x="0" y="7.201" font-size="6">Finding -- Calc</tspan></text>
		<text transform="matrix(1 0 0 1 289.2246 650.4805)" font-size="7">TID 4006</text>
		<text transform="matrix(1 0 0 1 289.2246 615.3984)" font-size="7">TID 4007</text>
		<text transform="matrix(1 0 0 1 293.5156 625.957)"><tspan x="0" y="0" font-size="6">Breast</tspan><tspan x="0" y="7.201" font-size="6">Composition</tspan></text>
		<g>
			<g>
				
					<line fill="none" stroke="#010101" stroke-width="2" stroke-linecap="round" stroke-linejoin="round" stroke-miterlimit="10" stroke-dasharray="3,3" x1="433.507" y1="241.79" x2="448.507" y2="241.79"/>
			</g>
		</g>
		<g>
			<g>
				
					<line fill="none" stroke="#010101" stroke-width="2" stroke-linecap="round" stroke-linejoin="round" stroke-miterlimit="10" stroke-dasharray="3,3" x1="364.281" y1="661.52" x2="379.281" y2="661.52"/>
			</g>
		</g>
		<g>
			<g>
				
					<line fill="none" stroke="#010101" stroke-width="2" stroke-linecap="round" stroke-linejoin="round" stroke-miterlimit="10" stroke-dasharray="3,3" x1="433.507" y1="277.776" x2="448.507" y2="277.776"/>
			</g>
		</g>
		<g>
			<path fill="#CCDEF0" d="M359.719,342.471c0-1.98,1.62-3.6,3.6-3.6h47.362c1.979,0,3.6,1.62,3.6,3.6v10.812
				c0,1.979-1.62,3.6-3.6,3.6h-47.362c-1.979,0-3.6-1.62-3.6-3.6V342.471z"/>
			
				<path fill="none" stroke="#010101" stroke-width="0.75" stroke-linecap="round" stroke-linejoin="round" stroke-miterlimit="1" d="
				M359.719,342.471c0-1.98,1.62-3.6,3.6-3.6h47.362c1.979,0,3.6,1.62,3.6,3.6v10.812c0,1.979-1.62,3.6-3.6,3.6h-47.362
				c-1.979,0-3.6-1.62-3.6-3.6V342.471z"/>
		</g>
		<text transform="matrix(1 0 0 1 363.9395 345.9453)"><tspan x="0" y="0" font-size="6">Composite</tspan><tspan x="0" y="7.201" font-size="6">Feature Body</tspan></text>
		<text transform="matrix(1 0 0 1 360.2285 336.1997)" font-size="7">TID 4005</text>
		<g>
			<path fill="#CCDEF0" d="M359.719,272.372c0-1.98,1.62-3.6,3.6-3.6h47.362c1.979,0,3.6,1.62,3.6,3.6v10.808
				c0,1.98-1.62,3.6-3.6,3.6h-47.362c-1.979,0-3.6-1.62-3.6-3.6V272.372z"/>
			
				<path fill="none" stroke="#010101" stroke-width="0.75" stroke-linecap="round" stroke-linejoin="round" stroke-miterlimit="1" d="
				M359.719,272.372c0-1.98,1.62-3.6,3.6-3.6h47.362c1.979,0,3.6,1.62,3.6,3.6v10.808c0,1.98-1.62,3.6-3.6,3.6h-47.362
				c-1.979,0-3.6-1.62-3.6-3.6V272.372z"/>
		</g>
		<g>
			<path fill="#CCDEF0" d="M359.719,236.385c0-1.98,1.62-3.6,3.6-3.6h47.362c1.979,0,3.6,1.62,3.6,3.6v10.81
				c0,1.98-1.62,3.6-3.6,3.6h-47.362c-1.979,0-3.6-1.62-3.6-3.6V236.385z"/>
			
				<path fill="none" stroke="#010101" stroke-width="0.75" stroke-linecap="round" stroke-linejoin="round" stroke-miterlimit="1" d="
				M359.719,236.385c0-1.98,1.62-3.6,3.6-3.6h47.362c1.979,0,3.6,1.62,3.6,3.6v10.81c0,1.98-1.62,3.6-3.6,3.6h-47.362
				c-1.979,0-3.6-1.62-3.6-3.6V236.385z"/>
		</g>
		<text transform="matrix(1 0 0 1 360.2285 229.4429)" font-size="7">TID 4004</text>
		<g>
			<path fill="#CCDEF0" d="M359.719,307.051c0-1.98,1.62-3.6,3.6-3.6h47.362c1.979,0,3.6,1.62,3.6,3.6v10.815
				c0,1.98-1.62,3.6-3.6,3.6h-47.362c-1.979,0-3.6-1.62-3.6-3.6V307.051z"/>
			
				<path fill="none" stroke="#010101" stroke-width="0.75" stroke-linecap="round" stroke-linejoin="round" stroke-miterlimit="1" d="
				M359.719,307.051c0-1.98,1.62-3.6,3.6-3.6h47.362c1.979,0,3.6,1.62,3.6,3.6v10.815c0,1.98-1.62,3.6-3.6,3.6h-47.362
				c-1.979,0-3.6-1.62-3.6-3.6V307.051z"/>
		</g>
		<text transform="matrix(1 0 0 1 363.9395 310.5278)"><tspan x="0" y="0" font-size="6">Observation</tspan><tspan x="0" y="7.2" font-size="6">Context</tspan></text>
		<text transform="matrix(1 0 0 1 360.2285 301.1177)" font-size="7">TID 4022</text>
		<text transform="matrix(1 0 0 1 363.9395 239.8579)"><tspan x="0" y="0" font-size="6">Composite</tspan><tspan x="0" y="7.2" font-size="6">Feature</tspan></text>
		<text transform="matrix(1 0 0 1 360.2285 265.4302)" font-size="7">TID 4006</text>
		<g>
			<path fill="#CCDEF0" d="M359.719,201.305c0-1.98,1.62-3.6,3.6-3.6h47.362c1.979,0,3.6,1.62,3.6,3.6v10.81
				c0,1.98-1.62,3.6-3.6,3.6h-47.362c-1.979,0-3.6-1.62-3.6-3.6V201.305z"/>
			
				<path fill="none" stroke="#010101" stroke-width="0.75" stroke-linecap="round" stroke-linejoin="round" stroke-miterlimit="1" d="
				M359.719,201.305c0-1.98,1.62-3.6,3.6-3.6h47.362c1.979,0,3.6,1.62,3.6,3.6v10.81c0,1.98-1.62,3.6-3.6,3.6h-47.362
				c-1.979,0-3.6-1.62-3.6-3.6V201.305z"/>
		</g>
		<text transform="matrix(1 0 0 1 360.2285 195.2456)" font-size="7">TID 4108</text>
		<text transform="matrix(1 0 0 1 363.9395 204.7798)"><tspan x="0" y="0" font-size="6">Tracking</tspan><tspan x="0" y="7.2" font-size="6">Identifier</tspan></text>
		<text transform="matrix(1 0 0 1 363.9395 275.8442)"><tspan x="0" y="0" font-size="6">Single Image</tspan><tspan x="0" y="7.2" font-size="6">Finding</tspan></text>
		<g>
			<path fill="#CCDEF0" d="M431.02,377.924c0-1.979,1.62-3.6,3.6-3.6h47.359c1.979,0,3.6,1.62,3.6,3.6v10.812
				c0,1.979-1.62,3.6-3.6,3.6h-47.359c-1.979,0-3.6-1.62-3.6-3.6V377.924z"/>
			
				<path fill="none" stroke="#010101" stroke-width="0.75" stroke-linecap="round" stroke-linejoin="round" stroke-miterlimit="1" d="
				M431.02,377.924c0-1.979,1.62-3.6,3.6-3.6h47.359c1.979,0,3.6,1.62,3.6,3.6v10.812c0,1.979-1.62,3.6-3.6,3.6h-47.359
				c-1.979,0-3.6-1.62-3.6-3.6V377.924z"/>
		</g>
		<text transform="matrix(1 0 0 1 435.9082 385.002)" font-size="6">Measurement</text>
		<text transform="matrix(1 0 0 1 427.3516 371.0215)" font-size="7">TID 1400, 1401, 1402</text>
		<g>
			<path fill="#CCDEF0" d="M431.02,342.471c0-1.98,1.62-3.6,3.6-3.6h47.359c1.979,0,3.6,1.62,3.6,3.6v10.812
				c0,1.979-1.62,3.6-3.6,3.6h-47.359c-1.979,0-3.6-1.62-3.6-3.6V342.471z"/>
			
				<path fill="none" stroke="#010101" stroke-width="0.75" stroke-linecap="round" stroke-linejoin="round" stroke-miterlimit="1" d="
				M431.02,342.471c0-1.98,1.62-3.6,3.6-3.6h47.359c1.979,0,3.6,1.62,3.6,3.6v10.812c0,1.979-1.62,3.6-3.6,3.6h-47.359
				c-1.979,0-3.6-1.62-3.6-3.6V342.471z"/>
		</g>
		<text transform="matrix(1 0 0 1 435.9082 349.5469)" font-size="6">Geometry</text>
		<text transform="matrix(1 0 0 1 431.5352 336.1997)" font-size="7">TID 4021</text>
		<g>
			<path fill="#CCDEF0" d="M431.02,412.096c0-1.979,1.62-3.6,3.6-3.6h47.359c1.979,0,3.6,1.62,3.6,3.6v10.811
				c0,1.979-1.62,3.6-3.6,3.6h-47.359c-1.979,0-3.6-1.62-3.6-3.6V412.096z"/>
			
				<path fill="none" stroke="#010101" stroke-width="0.75" stroke-linecap="round" stroke-linejoin="round" stroke-miterlimit="1" d="
				M431.02,412.096c0-1.979,1.62-3.6,3.6-3.6h47.359c1.979,0,3.6,1.62,3.6,3.6v10.811c0,1.979-1.62,3.6-3.6,3.6h-47.359
				c-1.979,0-3.6-1.62-3.6-3.6V412.096z"/>
		</g>
		<text transform="matrix(1 0 0 1 435.9141 415.5723)"><tspan x="0" y="0" font-size="6">Algorithm</tspan><tspan x="0" y="7.201" font-size="6">Identification</tspan></text>
		<text transform="matrix(1 0 0 1 431.5352 405.8789)" font-size="7">TID 4019</text>
		<g>
			<path fill="#CCDEF0" d="M77.856,134.096c0-1.98,1.62-3.6,3.6-3.6h46.811c1.98,0,3.6,1.62,3.6,3.6v19.566c0,1.98-1.62,3.6-3.6,3.6
				H81.457c-1.98,0-3.6-1.62-3.6-3.6V134.096z"/>
			
				<path fill="none" stroke="#010101" stroke-width="0.75" stroke-linecap="round" stroke-linejoin="round" stroke-miterlimit="1" d="
				M77.856,134.096c0-1.98,1.62-3.6,3.6-3.6h46.811c1.98,0,3.6,1.62,3.6,3.6v19.566c0,1.98-1.62,3.6-3.6,3.6H81.457
				c-1.98,0-3.6-1.62-3.6-3.6V134.096z"/>
		</g>
		<text transform="matrix(1 0 0 1 82.5171 103.5347)"><tspan x="0" y="0" font-size="6">Image</tspan><tspan x="0" y="7.2" font-size="6">Library</tspan></text>
		<text transform="matrix(1 0 0 1 77.2793 93.3628)" font-size="7">TID 4020</text>
		<g>
			<text transform="matrix(1 0 0 1 82.5171 138.3452)"><tspan x="0" y="0" font-size="6">Overall</tspan><tspan x="0" y="7.2" font-size="6">impression /</tspan><tspan x="0" y="14.4" font-size="6">recommendation</tspan></text>
		</g>
		<g>
			<g>
				
					<line fill="none" stroke="#000000" stroke-width="0.75" stroke-linejoin="round" x1="61.42" y1="34.473" x2="70.623" y2="34.473"/>
				<g>
					<polygon points="69.137,36.652 77.268,34.473 69.137,32.294 					"/>
				</g>
			</g>
		</g>
		<g>
			<g>
				
					<line fill="none" stroke="#000000" stroke-width="0.75" stroke-linejoin="round" x1="131.336" y1="34.416" x2="139.687" y2="34.416"/>
				<g>
					<polygon points="138.2,36.595 146.331,34.416 138.2,32.236 					"/>
				</g>
			</g>
		</g>
		<g>
			<g>
				
					<line fill="none" stroke="#000000" stroke-width="0.75" stroke-linejoin="round" x1="201.252" y1="34.473" x2="210.455" y2="34.473"/>
				<g>
					<polygon points="208.969,36.652 217.1,34.473 208.969,32.294 					"/>
				</g>
			</g>
		</g>
		<g>
			<g>
				
					<line fill="none" stroke="#000000" stroke-width="0.75" stroke-linejoin="round" x1="131.336" y1="69.37" x2="139.687" y2="69.37"/>
				<g>
					<polygon points="138.2,71.549 146.331,69.37 138.2,67.191 					"/>
				</g>
			</g>
		</g>
		<g>
			<g>
				
					<line fill="none" stroke="#000000" stroke-width="0.75" stroke-linejoin="round" x1="201.252" y1="69.428" x2="210.455" y2="69.428"/>
				<g>
					<polygon points="208.969,71.606 217.1,69.428 208.969,67.249 					"/>
				</g>
			</g>
		</g>
		<g>
			<g>
				
					<line fill="none" stroke="#000000" stroke-width="0.75" stroke-linejoin="round" x1="201.252" y1="139.382" x2="210.455" y2="139.382"/>
				<g>
					<polygon points="208.969,141.562 217.1,139.382 208.969,137.203 					"/>
				</g>
			</g>
		</g>
		<g>
			<g>
				
					<line fill="none" stroke="#000000" stroke-width="0.75" stroke-linejoin="round" x1="201.252" y1="174.068" x2="210.455" y2="174.068"/>
				<g>
					<polygon points="208.969,176.247 217.1,174.068 208.969,171.89 					"/>
				</g>
			</g>
		</g>
		<g>
			<g>
				
					<line fill="none" stroke="#000000" stroke-width="0.75" stroke-linejoin="round" x1="272.283" y1="174.068" x2="282.072" y2="174.068"/>
				<g>
					<polygon points="280.586,176.247 288.717,174.068 280.586,171.89 					"/>
				</g>
			</g>
		</g>
		<g>
			<g>
				
					<line fill="none" stroke="#000000" stroke-width="0.75" stroke-linejoin="round" x1="272.283" y1="241.656" x2="282.072" y2="241.656"/>
				<g>
					<polygon points="280.586,243.835 288.717,241.656 280.586,239.477 					"/>
				</g>
			</g>
		</g>
		<g>
			<g>
				
					<line fill="none" stroke="#000000" stroke-width="0.75" stroke-linejoin="round" x1="272.283" y1="206.71" x2="352.86" y2="206.71"/>
				<g>
					<polygon points="351.374,208.889 359.505,206.71 351.374,204.531 					"/>
				</g>
			</g>
		</g>
		<g>
			<g>
				<polyline fill="none" stroke="#000000" stroke-width="0.75" stroke-linejoin="round" points="65.762,34.473 65.762,69.399 
					70.536,69.399 				"/>
				<g>
					<polygon points="69.05,71.578 77.181,69.399 69.05,67.22 					"/>
				</g>
			</g>
		</g>
		<g>
			<g>
				<polyline fill="none" stroke="#000000" stroke-width="0.75" stroke-linejoin="round" points="65.762,68.749 65.762,103.674 
					70.536,103.674 				"/>
				<g>
					<polygon points="69.05,105.854 77.181,103.674 69.05,101.495 					"/>
				</g>
			</g>
		</g>
		<g>
			<g>
				<polyline fill="none" stroke="#000000" stroke-width="0.75" stroke-linejoin="round" points="65.762,103.024 65.762,143.879 
					70.536,143.879 				"/>
				<g>
					<polygon points="69.05,146.058 77.181,143.879 69.05,141.7 					"/>
				</g>
			</g>
		</g>
		<g>
			<g>
				<polyline fill="none" stroke="#000000" stroke-width="0.75" stroke-linejoin="round" points="206.222,174.095 206.222,206.71 
					210.964,206.71 				"/>
				<g>
					<polygon points="209.478,208.889 217.608,206.71 209.478,204.531 					"/>
				</g>
			</g>
		</g>
		<g>
			<g>
				
					<line fill="none" stroke="#000000" stroke-width="0.7118" stroke-linejoin="round" x1="131.867" y1="139.576" x2="139.835" y2="139.576"/>
				<g>
					<polygon points="138.425,141.644 146.142,139.576 138.425,137.508 					"/>
				</g>
			</g>
		</g>
		<g>
			<g>
				<polyline fill="none" stroke="#000000" stroke-width="0.7906" stroke-linejoin="round" points="136.344,139.602 
					136.344,179.834 139.597,179.834 				"/>
				<g>
					<polygon points="138.03,182.131 146.601,179.834 138.03,177.537 					"/>
				</g>
			</g>
		</g>
		<g>
			<g>
				<polyline fill="none" stroke="#000000" stroke-width="0.75" stroke-linejoin="round" points="206.222,206.287 206.222,241.212 
					210.996,241.212 				"/>
				<g>
					<polygon points="209.51,243.392 217.641,241.212 209.51,239.033 					"/>
				</g>
			</g>
		</g>
		<g>
			<g>
				<polyline fill="none" stroke="#000000" stroke-width="0.75" stroke-linejoin="round" points="277.304,277.237 277.304,312.624 
					282.045,312.624 				"/>
				<g>
					<polygon points="280.559,314.803 288.689,312.624 280.559,310.445 					"/>
				</g>
			</g>
		</g>
		<g>
			<path fill="#CCDEF0" d="M288.717,236.385c0-1.98,1.62-3.6,3.6-3.6h47.358c1.979,0,3.6,1.62,3.6,3.6v10.81
				c0,1.98-1.62,3.6-3.6,3.6h-47.358c-1.979,0-3.6-1.62-3.6-3.6V236.385z"/>
			
				<path fill="none" stroke="#010101" stroke-width="0.75" stroke-linecap="round" stroke-linejoin="round" stroke-miterlimit="1" d="
				M288.717,236.385c0-1.98,1.62-3.6,3.6-3.6h47.358c1.979,0,3.6,1.62,3.6,3.6v10.81c0,1.98-1.62,3.6-3.6,3.6h-47.358
				c-1.979,0-3.6-1.62-3.6-3.6V236.385z"/>
		</g>
		<text transform="matrix(1 0 0 1 289.2246 229.4448)" font-size="7">TID 4108</text>
		<text transform="matrix(1 0 0 1 293.5156 239.8599)"><tspan x="0" y="0" font-size="6">Tracking</tspan><tspan x="0" y="7.2" font-size="6">Identifier</tspan></text>
		<g>
			<g>
				<polyline fill="none" stroke="#000000" stroke-width="0.75" stroke-linejoin="round" points="277.304,241.25 277.304,276.638 
					282.045,276.638 				"/>
				<g>
					<polygon points="280.559,278.816 288.689,276.638 280.559,274.459 					"/>
				</g>
			</g>
		</g>
		<g>
			<g>
				<polyline fill="none" stroke="#000000" stroke-width="0.75" stroke-linejoin="round" points="277.304,312.201 277.304,347.65 
					282.078,347.65 				"/>
				<g>
					<polygon points="280.592,349.829 288.723,347.65 280.592,345.472 					"/>
				</g>
			</g>
		</g>
		<g>
			<g>
				<polyline fill="none" stroke="#000000" stroke-width="0.75" stroke-linejoin="round" points="277.304,347.746 277.304,382.752 
					282.045,382.752 				"/>
				<g>
					<polygon points="280.559,384.931 288.689,382.752 280.559,380.573 					"/>
				</g>
			</g>
		</g>
		<g>
			<g>
				<polyline fill="none" stroke="#000000" stroke-width="0.75" stroke-linejoin="round" points="277.304,382.533 277.304,417.312 
					282.078,417.312 				"/>
				<g>
					<polygon points="280.592,419.491 288.723,417.312 280.592,415.134 					"/>
				</g>
			</g>
		</g>
		<g>
			<g>
				
					<line fill="none" stroke="#000000" stroke-width="0.75" stroke-linejoin="round" x1="414.28" y1="347.877" x2="424.069" y2="347.877"/>
				<g>
					<polygon points="422.583,350.056 430.714,347.877 422.583,345.698 					"/>
				</g>
			</g>
		</g>
		<g>
			<g>
				
					<line fill="none" stroke="#000000" stroke-width="0.75" stroke-linejoin="round" x1="414.28" y1="277.776" x2="424.069" y2="277.776"/>
				<g>
					<polygon points="422.583,279.955 430.714,277.776 422.583,275.597 					"/>
				</g>
			</g>
		</g>
		<g>
			<g>
				
					<line fill="none" stroke="#000000" stroke-width="0.75" stroke-linejoin="round" x1="414.28" y1="241.79" x2="424.069" y2="241.79"/>
				<g>
					<polygon points="422.583,243.969 430.714,241.79 422.583,239.61 					"/>
				</g>
			</g>
		</g>
		<g>
			<g>
				
					<line fill="none" stroke="#000000" stroke-width="0.75" stroke-linejoin="round" x1="343.565" y1="661.52" x2="353.354" y2="661.52"/>
				<g>
					<polygon points="351.868,663.698 359.999,661.52 351.868,659.341 					"/>
				</g>
			</g>
		</g>
		<g>
			<g>
				<polyline fill="none" stroke="#000000" stroke-width="0.75" stroke-linejoin="round" points="419.301,347.879 419.301,383.266 
					424.042,383.266 				"/>
				<g>
					<polygon points="422.556,385.444 430.687,383.266 422.556,381.087 					"/>
				</g>
			</g>
		</g>
		<g>
			<g>
				<polyline fill="none" stroke="#000000" stroke-width="0.75" stroke-linejoin="round" points="419.301,382.842 419.301,418.293 
					424.075,418.293 				"/>
				<g>
					<polygon points="422.589,420.472 430.72,418.293 422.589,416.114 					"/>
				</g>
			</g>
		</g>
		<g>
			<g>
				<polyline fill="none" stroke="#000000" stroke-width="0.75" stroke-linejoin="round" points="348.3,206.787 348.3,241.212 
					353.041,241.212 				"/>
				<g>
					<polygon points="351.555,243.392 359.686,241.212 351.555,239.033 					"/>
				</g>
			</g>
		</g>
		<g>
			<g>
				<polyline fill="none" stroke="#000000" stroke-width="0.75" stroke-linejoin="round" points="348.3,241.084 348.3,276.756 
					353.074,276.756 				"/>
				<g>
					<polygon points="351.588,278.936 359.719,276.756 351.588,274.577 					"/>
				</g>
			</g>
		</g>
		<g>
			<g>
				<polyline fill="none" stroke="#000000" stroke-width="0.75" stroke-linejoin="round" points="348.3,277.296 348.3,312.207 
					353.041,312.207 				"/>
				<g>
					<polygon points="351.555,314.386 359.686,312.207 351.555,310.027 					"/>
				</g>
			</g>
		</g>
		<g>
			<g>
				<polyline fill="none" stroke="#000000" stroke-width="0.75" stroke-linejoin="round" points="348.3,312.059 348.3,346.969 
					353.041,346.969 				"/>
				<g>
					<polygon points="351.555,349.147 359.686,346.969 351.555,344.79 					"/>
				</g>
			</g>
		</g>
		<g>
			<g>
				<polyline fill="none" stroke="#000000" stroke-width="0.75" stroke-linejoin="round" points="277.304,417.234 277.304,452.412 
					282.045,452.412 				"/>
				<g>
					<polygon points="280.559,454.591 288.689,452.412 280.559,450.233 					"/>
				</g>
			</g>
		</g>
		<g>
			<g>
				<polyline fill="none" stroke="#000000" stroke-width="0.75" stroke-linejoin="round" points="277.304,452.352 277.304,488.875 
					282.078,488.875 				"/>
				<g>
					<polygon points="280.592,491.054 288.723,488.875 280.592,486.696 					"/>
				</g>
			</g>
		</g>
		<g>
			<g>
				<polyline fill="none" stroke="#000000" stroke-width="0.75" stroke-linejoin="round" points="277.304,488.979 277.304,522.072 
					282.045,522.072 				"/>
				<g>
					<polygon points="280.559,524.251 288.689,522.072 280.559,519.894 					"/>
				</g>
			</g>
		</g>
		<g>
			<g>
				<polyline fill="none" stroke="#000000" stroke-width="0.75" stroke-linejoin="round" points="277.304,522.1 277.304,557.172 
					282.078,557.172 				"/>
				<g>
					<polygon points="280.592,559.351 288.723,557.172 280.592,554.993 					"/>
				</g>
			</g>
		</g>
		<g>
			<g>
				<polyline fill="none" stroke="#000000" stroke-width="0.75" stroke-linejoin="round" points="277.304,557.312 277.304,592.273 
					282.045,592.273 				"/>
				<g>
					<polygon points="280.559,594.452 288.689,592.273 280.559,590.095 					"/>
				</g>
			</g>
		</g>
		<g>
			<g>
				<polyline fill="none" stroke="#000000" stroke-width="0.75" stroke-linejoin="round" points="277.304,592.137 277.304,626.834 
					282.078,626.834 				"/>
				<g>
					<polygon points="280.592,629.013 288.723,626.834 280.592,624.655 					"/>
				</g>
			</g>
		</g>
		<g>
			<g>
				<polyline fill="none" stroke="#000000" stroke-width="0.75" stroke-linejoin="round" points="277.304,626.801 277.304,661.934 
					282.045,661.934 				"/>
				<g>
					<polygon points="280.559,664.112 288.689,661.934 280.559,659.755 					"/>
				</g>
			</g>
		</g>
	</g>
</g>
</svg>
