<?xml version="1.0" encoding="utf-8"?>

<!DOCTYPE svg PUBLIC "-//W3C//DTD SVG 1.1//EN" "http://www.w3.org/Graphics/SVG/1.1/DTD/svg11.dtd">
<svg version="1.1" id="Layer_1" xmlns="http://www.w3.org/2000/svg" xmlns:xlink="http://www.w3.org/1999/xlink" x="0px" y="0px"
	 width="602px" height="401.215px" viewBox="0 0 602 401.215" enable-background="new 0 0 602 401.215" xml:space="preserve">

<defs>
	<style type="text/css">
	text {
	  font-family: Helvetica, Verdana, ArialUnicodeMS, san-serif
	}
	</style>
</defs>

<g>
   <desc>
	PS 3.3 Part 3: Information Object Definitions
   </desc>
</g>

<g>
	<rect x="1" y="1" fill="#F5EED6" width="600" height="370"/>
	<g>
		<g>
			<path fill="#C0E2CA" stroke="#000000" d="M337.918,106.904c0,0.436-0.352,0.79-0.791,0.79H264.63c-0.437,0-0.79-0.354-0.79-0.79
				v-82.78c0-0.437,0.354-0.791,0.79-0.791h72.497c0.439,0,0.791,0.354,0.791,0.791V106.904z"/>
			<path fill="#C0E2CA" stroke="#000000" d="M283.981,38.558c-20.869,5.817-35.891,24.229-35.891,64.314
				c0,29.158,23.633,52.801,52.788,52.801c29.156,0,52.791-23.643,52.791-52.801c0-39.971-15.057-58.474-35.961-64.313
				L283.981,38.558z"/>
			<g>
				<path opacity="0.5" fill="#E3ECF6" stroke="#000000" stroke-dasharray="2,2" d="M361.89,108.387H158.626
					c-3.316,0-6.005,28.37-6.005,63.371c0,35.014,2.688,62.667,6.005,62.667l-0.001-0.1l54.493-5.184v-33.103l-11.882-1.665
					l-5.11-58.391l165.764,0.031"/>
				<path opacity="0.5" fill="#FFFFFF" stroke="#000000" stroke-dasharray="2,2" d="M158.624,234.425
					c-3.316,0-6.005-27.653-6.005-62.667c0-35.001,2.688-63.371,6.006-63.371h-8.639c-3.316,0-6.005,28.37-6.005,63.371
					c0,35.014,2.688,63.388,6.005,63.388l8.637-0.82"/>
			</g>
			<g>
				<path opacity="0.5" fill="#E3ECF6" stroke="#000000" stroke-dasharray="4,2" d="M240.118,108.387h203.255
					c3.316,0,6.005,28.37,6.005,63.371c0,35.014-2.688,62.667-6.005,62.667l0.001-0.1l-54.493-5.184v-33.103l11.882-1.665
					l5.11-58.391l-165.755,0.031"/>
				<path opacity="0.5" fill="#FFFFFF" stroke="#000000" stroke-dasharray="2,2" d="M443.377,234.425
					c3.316,0,6.005-27.653,6.005-62.667c0-35.001-2.688-63.371-6.005-63.371h8.638c3.315,0,6.004,28.37,6.004,63.371
					c0,35.014-2.688,63.388-6.004,63.388l-8.637-0.82"/>
			</g>
		</g>
		<path fill="none" stroke="#000000" stroke-linejoin="round" stroke-miterlimit="10" d="M353.355,93.249
			c-15.871,3.851-33.67,6.01-52.477,6.01c-18.806,0-36.606-2.159-52.474-6.01H353.355z"/>
		<rect x="274.979" y="84.207" fill="none" stroke="#000000" stroke-miterlimit="10" width="51.803" height="9.042"/>
		<rect x="287.532" y="84.207" fill="none" stroke="#000000" stroke-miterlimit="10" width="26.692" height="23.332"/>
		<path fill="#E6E6E6" stroke="#000000" stroke-miterlimit="10" d="M271.222,118.438h59.313v94.923c0,2.621-2.123,4.746-4.742,4.746
			h-49.825c-2.622,0-4.746-2.125-4.746-4.746V118.438z"/>
		<path fill="#B3B3B3" stroke="#000000" stroke-linejoin="round" stroke-miterlimit="10" d="M330.535,163.576c0-2.209-1.791-4-4-4
			h-51.313c-2.209,0-4,1.791-4,4v50.53c0,2.209,1.791,4.001,4,4.001h51.313c2.209,0,4-1.792,4-4.001V163.576z"/>
		<line fill="none" stroke="#000000" stroke-miterlimit="10" x1="330.535" y1="128.975" x2="271.222" y2="128.975"/>
		<rect x="277.152" y="185.479" fill="#808285" stroke="#000000" stroke-miterlimit="10" width="47.453" height="30.848"/>
		<path fill="#B2CEE7" stroke="#000000" d="M318.377,229.378c0,2.621-2.125,4.746-4.746,4.746h-25.505
			c-2.621,0-4.746-2.125-4.746-4.746V112.44c0-2.621,2.125-4.746,4.746-4.746h25.505c2.621,0,4.746,2.125,4.746,4.746V229.378z"/>
		<path fill="#CCDEF0" stroke="#000000" d="M315.264,228.991c0,2.621-2.125,4.744-4.746,4.744h-19.278
			c-2.62,0-4.743-2.123-4.743-4.744V124.964c0-2.619,2.123-4.746,4.743-4.746h19.278c2.621,0,4.746,2.127,4.746,4.746V228.991z"/>
		<path fill="none" stroke="#000000" stroke-miterlimit="10" d="M311.557,143.355c0,1.749-1.418,3.165-3.164,3.165h-15.026
			c-1.748,0-3.164-1.416-3.164-3.165v-16.611c0-1.747,1.416-3.164,3.164-3.164h15.026c1.746,0,3.164,1.417,3.164,3.164V143.355z"/>
		<g>
			<g>
				<polyline fill="none" stroke="#005695" stroke-linejoin="round" points="269.601,196.115 255.677,177.037 248.664,177.037 				
					"/>
				<g>
					<polygon fill="#005695" points="270.779,192.802 274.823,203.271 266.085,196.228 					"/>
				</g>
			</g>
		</g>
		<polyline fill="none" points="225.097,184.91 200.129,184.91 200.129,171.807 251.436,171.807 251.436,184.91 225.097,184.91 		
			"/>
		<text transform="matrix(1 0 0 1 204.4497 180.3921)" font-size="12">Detector</text>
		<g>
			<path fill="#D89C7A" stroke="#000000" d="M361.145,232.462c-3.531,7.057-7.92-1.663-8.658-5.234
				c-1.15-5.569-0.209-10.684,1.496-16.046c2.76-8.684,8.477,0.74,9.309,4.96C364.316,221.344,364.193,227.922,361.145,232.462z"/>
			<path fill="#D89C7A" stroke="#000000" d="M243.102,232.462c3.531,7.057,7.92-1.663,8.658-5.234
				c1.151-5.569,0.21-10.684-1.495-16.046c-2.761-8.684-8.479,0.74-9.311,4.96C239.928,221.344,240.053,227.922,243.102,232.462z"/>
			<path fill="#D89C7A" stroke="#000000" d="M358.338,269.915c-3.23-2.327-5.924-4.999-6.656-10.377
				c-0.598-4.41-2.555-11.801-2.025-16.373c0.785-6.813,2.752-25.26,11.217-18.974C371.531,232.105,376.348,274.019,358.338,269.915
				z"/>
			<path fill="#D89C7A" stroke="#000000" d="M253.099,235.019c0.358,10.158,0.857,24.867-3.53,33.567
				c-5.175,10.26-13.593,7.732-16.668-3.786c-1.171-4.382,0.797-12.362,1.392-16.725c0.838-6.148,2.574-10.503,4.646-16.048
				C242.854,221.544,250.801,224.973,253.099,235.019z"/>
			<path fill="#D89C7A" stroke="#000000" d="M269.674,272.31c-2.181,7.806-4.519,14.582,0.521,22.166
				c4.769,7.175,12.765,9.765,20.62,12.454c5.81,1.99,14.757,1.866,20.503-0.284c2.961-1.108,8.805-2.094,11.045-4.241
				c2.342-2.243,8.359-6.058,9.24-9.038c2.48-8.397,4.146-14.238-0.604-22.481c-4.211-7.312-12.523-10.172-20.17-12.825
				C296.566,253.112,277.262,260.105,269.674,272.31z"/>
			<path fill="#D89C7A" stroke="#000000" d="M263.593,284.476c1.354-11.278-1.328-20.04-12.747-24.431
				c-4.731-1.818-9.575-4.301-14.741-2.487c-4.866,1.708-8.036,6.311-8.581,11.195c-0.992,8.911-1.593,22.481,9.24,26.116
				C246.856,298.255,261.16,298.078,263.593,284.476z"/>
			<path fill="#D89C7A" stroke="#000000" d="M363.314,292.286c5.332-4.048,7.273-6.254,10.279-12.228
				c1.775-3.525,0.23-12.143-0.039-16.189c-0.863-12.992-14.996-14.276-23.584-8.147c-9.199,6.563-16.518,14.062-12.832,26.392
				C340.379,292.953,353.441,298.784,363.314,292.286z"/>
			<path fill="#D89C7A" stroke="#000000" d="M330.307,279.806c3.754-4.358,5.34-10.743,3.766-16.323
				c-1.98-7.013-7.695-12.462-15.01-13.495c-0.266-0.039-0.6-0.079-0.885-0.105c-0.254-0.025-0.605-0.05-0.891-0.062
				c-0.232-0.011-0.609-0.02-0.891-0.018c-0.215,0-0.615,0.011-0.893,0.024c-0.189,0.012-0.617,0.044-0.889,0.069
				c-4.457,0.537-8.496,2.597-11.621,5.928c-0.915,1.135-1.785,2.404-2.515,3.742l0.004,0.151c-0.73-1.338-1.599-2.607-2.512-3.741
				c-3.125-3.331-7.165-5.392-11.623-5.929c-0.271-0.024-0.699-0.058-0.889-0.068c-0.277-0.014-0.678-0.024-0.893-0.025
				c-0.281-0.001-0.658,0.007-0.891,0.019c-0.286,0.012-0.638,0.037-0.891,0.062c-0.286,0.026-0.619,0.066-0.886,0.106
				c-7.315,1.032-13.03,6.482-15.01,13.494c-1.574,5.581,0.012,11.966,3.766,16.324c0.18,0.209,0.363,0.412,0.551,0.611"/>
			<path fill="#D89C7A" stroke="#000000" d="M267.924,274.646c3.227,9.655,3.265,18.832-6.144,24.896
				c-7.604,4.902-21.436,3.903-25.827-5.567c-4.806-10.365-2.386-19.907,7.217-26.021
				C252.218,262.195,261.689,267.732,267.924,274.646z"/>
			<path fill="#D89C7A" stroke="#000000" d="M356.352,265.789c8.037,6.196,13.264,14.162,8.225,24.376
				c-4.338,8.796-14.867,14.293-24.447,9.236C319.219,288.364,335.045,255.342,356.352,265.789z"/>
			<path fill="#D89C7A" stroke="#000000" d="M322.051,325.165c-4.219,1.895-8.438,3.79-12.656,5.685
				c-3.637,1.634-9.908,0.372-13.858,0.388c-7.427,0.031-15.771-5.853-20.475-11.227c-5.113-5.844-11.352-14.658-9.396-23.059
				c2.237-9.616,4.326-18.16,12.846-24.55c13.326-9.995,36.733-9.805,47.866,3.213c2.539,2.97,6.539,6.093,7.479,9.973
				c0.893,3.688,3.824,9.858,2.896,13.582c-1.043,4.193-1.418,9.8-3.389,13.632c-2.102,4.082-6.768,7.869-9.773,11.365
				C323.229,324.587,322.533,324.901,322.051,325.165z"/>
		</g>
		<g opacity="0.4">
			<rect x="277.152" y="185.479" fill="#808285" width="47.453" height="30.848"/>
			<g>
				<polyline fill="none" stroke="#000000" stroke-miterlimit="10" points="324.605,215.327 324.605,216.327 323.605,216.327 				
					"/>
				
					<line fill="none" stroke="#000000" stroke-miterlimit="10" stroke-dasharray="1.9762,1.9762" x1="321.629" y1="216.327" x2="279.141" y2="216.327"/>
				<polyline fill="none" stroke="#000000" stroke-miterlimit="10" points="278.152,216.327 277.152,216.327 277.152,215.327 				
					"/>
				
					<line fill="none" stroke="#000000" stroke-miterlimit="10" stroke-dasharray="1.9232,1.9232" x1="277.152" y1="213.404" x2="277.152" y2="187.441"/>
				<polyline fill="none" stroke="#000000" stroke-miterlimit="10" points="277.152,186.479 277.152,185.479 278.152,185.479 				
					"/>
				
					<line fill="none" stroke="#000000" stroke-miterlimit="10" stroke-dasharray="1.9762,1.9762" x1="280.128" y1="185.479" x2="322.617" y2="185.479"/>
				<polyline fill="none" stroke="#000000" stroke-miterlimit="10" points="323.605,185.479 324.605,185.479 324.605,186.479 				
					"/>
				
					<line fill="none" stroke="#000000" stroke-miterlimit="10" stroke-dasharray="1.9232,1.9232" x1="324.605" y1="188.402" x2="324.605" y2="214.365"/>
			</g>
		</g>
		<rect x="270.481" y="219.084" opacity="0.85" fill="#F5EED6" width="60" height="18"/>
		<rect x="272.581" y="223.333" fill="none" width="55.802" height="13.105"/>
		<text transform="matrix(1 0 0 1 272.5806 231.9199)" font-size="12">Chest Wall</text>
		<rect x="258.454" y="335.562" fill="none" width="88.15" height="13.104"/>
		<text transform="matrix(1 0 0 1 258.4541 344.1465)" font-size="12">Patient Posterior</text>
		<rect x="386.978" y="273.719" fill="none" width="64.174" height="16.664"/>
		<text transform="matrix(1 0 0 1 387.0146 282.3027)" font-size="12">Patient Right</text>
		<rect x="155.41" y="273.719" fill="none" width="65.297" height="13.324"/>
		<text transform="matrix(1 0 0 1 159.8159 282.3027)" font-size="12">Patient Left</text>
	</g>
</g>
</svg>
