<?xml version="1.0" encoding="utf-8"?>

<!DOCTYPE svg PUBLIC "-//W3C//DTD SVG 1.1//EN" "http://www.w3.org/Graphics/SVG/1.1/DTD/svg11.dtd">
<svg version="1.1" id="Layer_1" xmlns="http://www.w3.org/2000/svg" xmlns:xlink="http://www.w3.org/1999/xlink" x="0px" y="0px"
	 width="362px" height="197px" viewBox="0 0 362 197" enable-background="new 0 0 362 197" xml:space="preserve">
        
<defs>
	<style type="text/css">
	text {
	  font-family: Helvetica, Verdana, ArialUnicodeMS, san-serif
	}
	</style>
</defs>

<g>
   <desc>
	PS 3.3 Information Object Definitions
   </desc>
</g>

<g>
	<rect x="1" y="1" fill="#F5EED6" width="360" height="195"/>
	<g>
		<path fill="#F5EED6" d="M261.32,109.686c0,1.96,0.151,3.884,0.441,5.763c8.056-6.218,13.25-15.962,13.25-26.927
			c0-2.454-0.266-4.846-0.761-7.153C266.334,88.244,261.32,98.376,261.32,109.686z"/>
		<g>
			<text transform="matrix(1 0 0 1 80.3252 23.8359)" font-size="9">Input</text>
		</g>
		<g>
			<text transform="matrix(1 0 0 1 258.9121 23.8359)" font-size="9">Result</text>
		</g>
		
			<rect x="15.334" y="28.639" fill="#FFFFFF" stroke="#000000" stroke-width="0.5" stroke-miterlimit="10" width="150" height="150.002"/>
		
			<rect x="196.666" y="31.139" fill="#FFFFFF" stroke="#000000" stroke-width="0.5" stroke-miterlimit="10" width="150" height="150.002"/>
		<path fill="#005695" stroke="#000000" stroke-width="0.5" stroke-miterlimit="10" d="M261.32,109.686
			c0,1.96,0.151,3.884,0.441,5.763c8.056-6.218,13.25-15.962,13.25-26.927c0-2.454-0.266-4.846-0.761-7.153
			C266.334,88.244,261.32,98.376,261.32,109.686z"/>
		<path fill="none" stroke="#000000" stroke-width="0.5" stroke-miterlimit="10" d="M94.674,88.521c0,18.779-15.221,34-34,34
			c-18.778,0-34-15.221-34-34c0-18.774,15.222-34,34-34C79.453,54.521,94.674,69.747,94.674,88.521z"/>
		<circle fill="none" stroke="#000000" stroke-width="0.5" stroke-miterlimit="10" cx="118.482" cy="109.686" r="37.5"/>
		<g>
			<text transform="matrix(1 0 0 1 42.7197 78.5586)"><tspan x="0" y="0" font-size="9.6429">Prostate</tspan><tspan x="8.579" y="12.643" font-size="9.6429">PTV</tspan><tspan x="12.063" y="25.287" font-size="9.6429">(2)</tspan></text>
		</g>
		<g>
			<text transform="matrix(1 0 0 1 102.9766 106.29)"><tspan x="0" y="0" font-size="9">Rectum</tspan><tspan x="10.004" y="11.8" font-size="9">(1)</tspan></text>
		</g>
	</g>
</g>
</svg>
