<?xml version="1.0" encoding="utf-8"?>

<!DOCTYPE svg PUBLIC "-//W3C//DTD SVG 1.1//EN" "http://www.w3.org/Graphics/SVG/1.1/DTD/svg11.dtd">
<svg version="1.1" id="Layer_1" xmlns="http://www.w3.org/2000/svg" xmlns:xlink="http://www.w3.org/1999/xlink" x="0px" y="0px"
	 width="522px" height="722px" viewBox="0 0 522 722" enable-background="new 0 0 522 722" xml:space="preserve">

<defs>
	<style type="text/css">
	text {
	  font-family: Helvetica, Verdana, ArialUnicodeMS, san-serif
	}
	</style>
</defs>

<g>
   <desc>
	PS 3.3 Part 3: Information Object Definitions
   </desc>
</g>

<g>
	<rect x="1" y="1" fill="#F5EED6" width="520" height="720"/>
	<g>
		
			<rect x="17.79" y="613.921" fill="#86B2D8" stroke="#010101" stroke-width="0.75" stroke-linecap="round" stroke-linejoin="round" stroke-miterlimit="1" width="128.777" height="18"/>
		
			<rect x="176.005" y="397.554" fill="#86B2D8" stroke="#010101" stroke-width="0.75" stroke-linecap="round" stroke-linejoin="round" stroke-miterlimit="1" width="83.994" height="17.998"/>
		
			<rect x="176.005" y="433.562" fill="#86B2D8" stroke="#010101" stroke-width="0.75" stroke-linecap="round" stroke-linejoin="round" stroke-miterlimit="1" width="83.994" height="18"/>
		
			<rect x="176.005" y="469.562" fill="#86B2D8" stroke="#010101" stroke-width="0.75" stroke-linecap="round" stroke-linejoin="round" stroke-miterlimit="1" width="83.994" height="18"/>
		
			<rect x="17.789" y="397.553" fill="#86B2D8" stroke="#010101" stroke-width="0.75" stroke-linecap="round" stroke-linejoin="round" stroke-miterlimit="1" width="128.779" height="18"/>
		
			<rect x="17.789" y="433.562" fill="#86B2D8" stroke="#010101" stroke-width="0.75" stroke-linecap="round" stroke-linejoin="round" stroke-miterlimit="1" width="128.779" height="18"/>
		
			<rect x="17.79" y="469.562" fill="#86B2D8" stroke="#010101" stroke-width="0.75" stroke-linecap="round" stroke-linejoin="round" stroke-miterlimit="1" width="128.777" height="18"/>
		
			<rect x="17.79" y="504.876" fill="#86B2D8" stroke="#010101" stroke-width="0.75" stroke-linecap="round" stroke-linejoin="round" stroke-miterlimit="1" width="128.777" height="18"/>
		
			<rect x="17.789" y="362.281" fill="#86B2D8" stroke="#010101" stroke-width="0.75" stroke-linecap="round" stroke-linejoin="round" stroke-miterlimit="1" width="128.779" height="18.001"/>
		<g>
			<text transform="matrix(1 0 0 1 175.2046 359.3442)" font-size="9">0-n</text>
		</g>
		<g>
			<text transform="matrix(1 0 0 1 175.2046 395.0781)" font-size="9">0-n</text>
		</g>
		<g>
			<text transform="matrix(1 0 0 1 175.2046 430.8125)" font-size="9">0-n</text>
		</g>
		<g>
			<text transform="matrix(1 0 0 1 175.2046 466.5479)" font-size="9">0-n</text>
		</g>
		
			<rect x="176.005" y="504.876" fill="#86B2D8" stroke="#010101" stroke-width="0.75" stroke-linecap="round" stroke-linejoin="round" stroke-miterlimit="1" width="83.994" height="18"/>
		<g>
			<text transform="matrix(1 0 0 1 175.2046 501.8623)" font-size="9">0-n</text>
		</g>
		<g>
			<text transform="matrix(1 0 0 1 133.2646 359.3442)" font-size="9">0-n</text>
		</g>
		<g>
			<text transform="matrix(1 0 0 1 133.2646 395.0781)" font-size="9">0-n</text>
		</g>
		<g>
			<text transform="matrix(1 0 0 1 133.2646 430.8125)" font-size="9">0-n</text>
		</g>
		<g>
			<text transform="matrix(1 0 0 1 133.2646 466.5479)" font-size="9">0-n</text>
		</g>
		<g>
			<text transform="matrix(1 0 0 1 133.2646 501.8623)" font-size="9">0-n</text>
		</g>
		
			<rect x="17.79" y="540.19" fill="#86B2D8" stroke="#010101" stroke-width="0.75" stroke-linecap="round" stroke-linejoin="round" stroke-miterlimit="1" width="128.777" height="18"/>
		<g>
			<text transform="matrix(1 0 0 1 133.2646 537.1768)" font-size="9">0-n</text>
		</g>
		
			<rect x="17.79" y="576.851" fill="#86B2D8" stroke="#010101" stroke-width="0.75" stroke-linecap="round" stroke-linejoin="round" stroke-miterlimit="1" width="128.777" height="18"/>
		<g>
			<text transform="matrix(1 0 0 1 133.2646 574.2412)" font-size="9">0-n</text>
		</g>
		
			<rect x="176.005" y="540.19" fill="#86B2D8" stroke="#010101" stroke-width="0.75" stroke-linecap="round" stroke-linejoin="round" stroke-miterlimit="1" width="83.994" height="18"/>
		<g>
			<text transform="matrix(1 0 0 1 175.2046 537.1777)" font-size="9">0-n</text>
		</g>
		
			<rect x="176.005" y="576.851" fill="#86B2D8" stroke="#010101" stroke-width="0.75" stroke-linecap="round" stroke-linejoin="round" stroke-miterlimit="1" width="83.994" height="18"/>
		<g>
			<text transform="matrix(1 0 0 1 175.2046 573.8379)" font-size="9">0-n</text>
		</g>
		
			<rect x="176.005" y="362.281" fill="#86B2D8" stroke="#010101" stroke-width="0.75" stroke-linecap="round" stroke-linejoin="round" stroke-miterlimit="1" width="83.994" height="18.001"/>
		
			<rect x="17.789" y="327.189" fill="#86B2D8" stroke="#010101" stroke-width="0.75" stroke-linecap="round" stroke-linejoin="round" stroke-miterlimit="1" width="128.779" height="18.001"/>
		<g>
			<text transform="matrix(1 0 0 1 175.2046 324.2524)" font-size="9">0-n</text>
		</g>
		<g>
			<text transform="matrix(1 0 0 1 133.2646 324.2524)" font-size="9">0-n</text>
		</g>
		
			<rect x="176.005" y="327.189" fill="#86B2D8" stroke="#010101" stroke-width="0.75" stroke-linecap="round" stroke-linejoin="round" stroke-miterlimit="1" width="83.994" height="18.001"/>
		<g>
			<text transform="matrix(1 0 0 1 133.2646 611.3174)" font-size="9">0-n</text>
		</g>
		
			<rect x="17.79" y="650.985" fill="#86B2D8" stroke="#010101" stroke-width="0.75" stroke-linecap="round" stroke-linejoin="round" stroke-miterlimit="1" width="128.777" height="18"/>
		<g>
			<text transform="matrix(1 0 0 1 133.2646 611.3115)" font-size="9">0-n</text>
		</g>
		
			<rect x="176.005" y="613.921" fill="#86B2D8" stroke="#010101" stroke-width="0.75" stroke-linecap="round" stroke-linejoin="round" stroke-miterlimit="1" width="83.994" height="18"/>
		<g>
			<text transform="matrix(1 0 0 1 175.2046 610.9082)" font-size="9">0-n</text>
		</g>
		<g>
			<text transform="matrix(1 0 0 1 133.2646 648.3877)" font-size="9">0-n</text>
		</g>
		
			<rect x="17.79" y="688.056" fill="#86B2D8" stroke="#010101" stroke-width="0.75" stroke-linecap="round" stroke-linejoin="round" stroke-miterlimit="1" width="128.777" height="18"/>
		<g>
			<g>
				<polyline fill="none" stroke="#005695" stroke-width="2" stroke-miterlimit="1" points="153.692,405.96 161.024,405.96 
					161.024,371.351 				"/>
				<g>
					<polygon fill="#005695" points="155.278,408.284 146.605,405.96 155.278,403.636 					"/>
				</g>
			</g>
		</g>
		<g>
			<g>
				<polyline fill="none" stroke="#005695" stroke-width="2" stroke-miterlimit="1" points="169.059,405.96 160.999,405.96 
					160.999,371.351 				"/>
				<g>
					<polygon fill="#005695" points="167.473,403.636 176.146,405.96 167.473,408.284 					"/>
				</g>
			</g>
		</g>
		<g>
			<g>
				<polyline fill="none" stroke="#005695" stroke-width="2" stroke-miterlimit="1" points="153.692,371.3 161.024,371.3 
					161.024,336.69 				"/>
				<g>
					<polygon fill="#005695" points="155.278,373.624 146.605,371.3 155.278,368.976 					"/>
				</g>
			</g>
		</g>
		<g>
			<g>
				<polyline fill="none" stroke="#005695" stroke-width="2" stroke-miterlimit="1" points="169.059,371.3 160.999,371.3 
					160.999,336.69 				"/>
				<g>
					<polygon fill="#005695" points="167.473,368.976 176.146,371.3 167.473,373.624 					"/>
				</g>
			</g>
		</g>
		<g>
			<g>
				<polyline fill="none" stroke="#005695" stroke-width="2" stroke-miterlimit="1" points="153.692,441.95 161.024,441.95 
					161.024,405.884 				"/>
				<g>
					<polygon fill="#005695" points="155.278,444.274 146.605,441.95 155.278,439.626 					"/>
				</g>
			</g>
		</g>
		<g>
			<g>
				<polyline fill="none" stroke="#005695" stroke-width="2" stroke-miterlimit="1" points="169.059,441.95 160.999,441.95 
					160.999,405.884 				"/>
				<g>
					<polygon fill="#005695" points="167.473,439.626 176.146,441.95 167.473,444.274 					"/>
				</g>
			</g>
		</g>
		<g>
			<g>
				<polyline fill="none" stroke="#005695" stroke-width="2" stroke-miterlimit="1" points="153.692,477.96 161.024,477.96 
					161.024,441.894 				"/>
				<g>
					<polygon fill="#005695" points="155.278,480.284 146.605,477.96 155.278,475.636 					"/>
				</g>
			</g>
		</g>
		<g>
			<g>
				<polyline fill="none" stroke="#005695" stroke-width="2" stroke-miterlimit="1" points="169.059,477.96 160.999,477.96 
					160.999,441.894 				"/>
				<g>
					<polygon fill="#005695" points="167.473,475.636 176.146,477.96 167.473,480.284 					"/>
				</g>
			</g>
		</g>
		<g>
			<g>
				<polyline fill="none" stroke="#005695" stroke-width="2" stroke-miterlimit="1" points="153.692,513.97 161.024,513.97 
					161.024,477.903 				"/>
				<g>
					<polygon fill="#005695" points="155.278,516.294 146.605,513.97 155.278,511.646 					"/>
				</g>
			</g>
		</g>
		<g>
			<g>
				<polyline fill="none" stroke="#005695" stroke-width="2" stroke-miterlimit="1" points="169.059,513.97 160.999,513.97 
					160.999,477.903 				"/>
				<g>
					<polygon fill="#005695" points="167.473,511.646 176.146,513.97 167.473,516.294 					"/>
				</g>
			</g>
		</g>
		<g>
			<g>
				<polyline fill="none" stroke="#005695" stroke-width="2" stroke-miterlimit="1" points="153.692,549.979 161.024,549.979 
					161.024,513.913 				"/>
				<g>
					<polygon fill="#005695" points="155.278,552.304 146.605,549.979 155.278,547.655 					"/>
				</g>
			</g>
		</g>
		<g>
			<g>
				<polyline fill="none" stroke="#005695" stroke-width="2" stroke-miterlimit="1" points="169.059,549.979 160.999,549.979 
					160.999,513.913 				"/>
				<g>
					<polygon fill="#005695" points="167.473,547.655 176.146,549.979 167.473,552.304 					"/>
				</g>
			</g>
		</g>
		<g>
			<g>
				<polyline fill="none" stroke="#005695" stroke-width="2" stroke-miterlimit="1" points="169.059,586.351 160.999,586.351 
					160.999,550.14 				"/>
				<g>
					<polygon fill="#005695" points="167.473,584.026 176.146,586.351 167.473,588.675 					"/>
				</g>
			</g>
		</g>
		<g>
			<g>
				<polyline fill="none" stroke="#005695" stroke-width="2" stroke-miterlimit="1" points="153.692,586.351 161.024,586.351 
					161.024,550.196 				"/>
				<g>
					<polygon fill="#005695" points="155.278,588.675 146.605,586.351 155.278,584.026 					"/>
				</g>
			</g>
		</g>
		<g>
			<g>
				<polyline fill="none" stroke="#005695" stroke-width="2" stroke-miterlimit="1" points="153.692,336.303 161.024,336.303 
					161.024,310.777 				"/>
				<g>
					<polygon fill="#005695" points="155.278,338.627 146.605,336.303 155.278,333.979 					"/>
				</g>
			</g>
		</g>
		<g>
			<g>
				<polyline fill="none" stroke="#005695" stroke-width="2" stroke-miterlimit="1" points="169.059,336.303 160.999,336.303 
					160.999,310.777 				"/>
				<g>
					<polygon fill="#005695" points="167.473,333.979 176.146,336.303 167.473,338.627 					"/>
				</g>
			</g>
		</g>
		<g>
			<g>
				<polyline fill="none" stroke="#005695" stroke-width="2" stroke-miterlimit="1" points="153.692,623.427 161.024,623.427 
					161.024,586.403 				"/>
				<g>
					<polygon fill="#005695" points="155.278,625.751 146.605,623.427 155.278,621.103 					"/>
				</g>
			</g>
		</g>
		<g>
			<g>
				<polyline fill="none" stroke="#005695" stroke-width="2" stroke-miterlimit="1" points="169.059,623.421 160.999,623.421 
					160.999,586.339 				"/>
				<g>
					<polygon fill="#005695" points="167.473,621.097 176.146,623.421 167.473,625.745 					"/>
				</g>
			</g>
		</g>
		<g>
			<g>
				<polyline fill="none" stroke="#005695" stroke-width="2" stroke-miterlimit="1" points="153.692,660.497 161.024,660.497 
					161.024,623.374 				"/>
				<g>
					<polygon fill="#005695" points="155.278,662.821 146.605,660.497 155.278,658.173 					"/>
				</g>
			</g>
		</g>
		<g>
			<g>
				<polyline fill="none" stroke="#005695" stroke-width="2" stroke-miterlimit="1" points="153.692,697.567 161.024,697.567 
					161.024,660.765 				"/>
				<g>
					<polygon fill="#005695" points="155.278,699.892 146.605,697.567 155.278,695.243 					"/>
				</g>
			</g>
		</g>
		<g>
			<text transform="matrix(1 0 0 1 133.2646 685.458)" font-size="9">0-n</text>
		</g>
		<g>
			<text transform="matrix(1 0 0 1 43.9438 480.7852)" font-size="8">Real-World Value DR</text>
		</g>
		<g>
			<text transform="matrix(1 0 0 1 31.7075 444.7852)" font-size="8">Encapsulated Document DR</text>
		</g>
		<g>
			<text transform="matrix(1 0 0 1 45.5024 516.0996)" font-size="8">RT Structure Set DR</text>
		</g>
		<g>
			<text transform="matrix(1 0 0 1 36.6118 551.415)" font-size="8">RT Treatment Record DR</text>
		</g>
		<g>
			<text transform="matrix(1 0 0 1 50.8345 588.0742)" font-size="8">Measurement DR</text>
		</g>
		<g>
			<text transform="matrix(1 0 0 1 51.2759 625.1445)" font-size="8">Surface Scan DR</text>
		</g>
		<g>
			<text transform="matrix(1 0 0 1 51.7231 662.21)" font-size="8">Tractography DR</text>
		</g>
		<g>
			<text transform="matrix(1 0 0 1 23.9341 699.2793)" font-size="8">Content Assessments Result DR</text>
		</g>
		<g>
			<text transform="matrix(1 0 0 1 187.1353 373.5059)" font-size="8">Fiducials DR</text>
		</g>
		<g>
			<text transform="matrix(1 0 0 1 191.8013 408.7764)" font-size="8">Image DR</text>
		</g>
		<g>
			<text transform="matrix(1 0 0 1 185.356 444.7852)" font-size="8">Raw Data DR</text>
		</g>
		<g>
			<text transform="matrix(1 0 0 1 51.0552 373.5059)" font-size="8">Spectroscopy DR</text>
		</g>
		<g>
			<text transform="matrix(1 0 0 1 52.8306 338.4136)" font-size="8">Presentation DR</text>
		</g>
		<g>
			<text transform="matrix(1 0 0 1 184.6938 480.7861)" font-size="8">Waveform DR</text>
		</g>
		<g>
			<text transform="matrix(1 0 0 1 178.02 516.0996)" font-size="8">SR Document DR</text>
		</g>
		<g>
			<text transform="matrix(1 0 0 1 187.1372 551.415)" font-size="8">RT Dose DR</text>
		</g>
		<g>
			<text transform="matrix(1 0 0 1 188.4692 588.0752)" font-size="8">RT Plan DR</text>
		</g>
		<g>
			<text transform="matrix(1 0 0 1 194.9126 625.1445)" font-size="8">Plan DR</text>
		</g>
		<g>
			<text transform="matrix(1 0 0 1 181.5747 338.4146)" font-size="8">Registration DR</text>
		</g>
		<g>
			<text transform="matrix(1 0 0 1 52.6157 408.7764)" font-size="8">Stereometric DR</text>
		</g>
		<g>
			<rect x="287.836" y="599.374" fill="#FFFFFF" stroke="#000000" stroke-miterlimit="1" width="198.129" height="106.682"/>
			<g>
				<g>
					
						<line fill="none" stroke="#005695" stroke-width="2" stroke-linecap="round" stroke-miterlimit="1" x1="343.564" y1="625.438" x2="343.564" y2="632.965"/>
					<g>
						<polygon fill="#005695" points="341.24,631.38 343.564,640.053 345.889,631.38 						"/>
					</g>
				</g>
			</g>
			
				<rect x="303.062" y="610.712" fill="#86B2D8" stroke="#010101" stroke-width="0.75" stroke-linecap="round" stroke-linejoin="round" stroke-miterlimit="1" width="81" height="14.727"/>
			<g>
				<text transform="matrix(1 0 0 1 310.543 620.7617)" font-size="9">Higher Level DR</text>
			</g>
			<g>
				<g>
					
						<line fill="none" stroke="#005695" stroke-width="2" stroke-linecap="round" stroke-miterlimit="1" x1="343.555" y1="666.021" x2="343.555" y2="659.021"/>
					<g>
						<polygon fill="#005695" points="345.879,664.437 343.555,673.109 341.23,664.437 						"/>
					</g>
				</g>
			</g>
			
				<polygon fill="#CCDEF0" stroke="#010101" stroke-width="0.75" stroke-linecap="round" stroke-linejoin="round" stroke-miterlimit="1" points="
				298.561,649.761 343.492,640.899 388.561,649.888 388.561,649.907 343.492,658.899 			"/>
			<g>
				<text transform="matrix(1 0 0 1 322.2949 651.9053)" font-size="9">references</text>
			</g>
			
				<rect x="303.062" y="673.983" fill="#86B2D8" stroke="#010101" stroke-width="0.75" stroke-linecap="round" stroke-linejoin="round" stroke-miterlimit="1" width="81" height="14.727"/>
			<g>
				<text transform="matrix(1 0 0 1 311.543 684.0332)" font-size="9">Lower Level DR</text>
			</g>
			<g>
				<rect x="400.631" y="610.708" fill="none" width="77.203" height="87.334"/>
				<text transform="matrix(1 0 0 1 400.627 617.1035)"><tspan x="0" y="0" font-size="9">The Higher-Level</tspan><tspan x="0" y="10.801" font-size="9">Directory Record</tspan><tspan x="0" y="21.6" font-size="9">references a</tspan><tspan x="0" y="32.4" font-size="9">Lower- Level</tspan><tspan x="0" y="43.201" font-size="9">Directory Entity</tspan><tspan x="0" y="54" font-size="9">that includes the</tspan><tspan x="0" y="64.801" font-size="9">Lower-Level</tspan><tspan x="0" y="75.6" font-size="9">Directory Record</tspan></text>
			</g>
		</g>
		<g>
			<g>
				
					<line fill="none" stroke="#005695" stroke-width="2" stroke-linecap="round" stroke-miterlimit="1" x1="161.125" y1="115.408" x2="161.125" y2="132.071"/>
				<g>
					<polygon fill="#005695" points="158.8,130.485 161.125,139.158 163.449,130.485 					"/>
				</g>
			</g>
		</g>
		<g>
			<g>
				<polyline fill="none" stroke="#005695" stroke-width="2" stroke-linecap="round" stroke-miterlimit="1" points="247.659,91.339 
					247.659,85.933 161.531,85.933 				"/>
				<g>
					<polygon fill="#005695" points="249.983,89.754 247.659,98.427 245.334,89.754 					"/>
				</g>
			</g>
		</g>
		<g>
			<g>
				
					<line fill="none" stroke="#005695" stroke-width="2" stroke-linecap="round" stroke-miterlimit="1" x1="161.079" y1="91.339" x2="161.079" y2="85.933"/>
				<g>
					<polygon fill="#005695" points="163.403,89.754 161.079,98.427 158.754,89.754 					"/>
				</g>
			</g>
		</g>
		
			<rect x="108.366" y="15.944" fill="#86B2D8" stroke="#010101" stroke-width="0.75" stroke-linecap="round" stroke-linejoin="round" stroke-miterlimit="1" width="105.509" height="16.232"/>
		<g>
			<text transform="matrix(1 0 0 1 124.4375 27.0205)" font-size="8">Root Directory Entity</text>
		</g>
		<g>
			<g>
				
					<line fill="none" stroke="#005695" stroke-width="2" stroke-linecap="round" stroke-miterlimit="1" x1="161.189" y1="32.231" x2="161.138" y2="49.017"/>
				<g>
					<polygon fill="#005695" points="158.818,47.425 161.116,56.104 163.466,47.439 					"/>
				</g>
			</g>
		</g>
		
			<rect x="123.247" y="99.177" fill="#86B2D8" stroke="#010101" stroke-width="0.75" stroke-linecap="round" stroke-linejoin="round" stroke-miterlimit="1" width="75.745" height="16.231"/>
		<g>
			<text transform="matrix(1 0 0 1 141.7749 110.2549)" font-size="8">Patient DR</text>
		</g>
		
			<rect x="214.596" y="99.408" fill="#86B2D8" stroke="#010101" stroke-width="0.75" stroke-linecap="round" stroke-linejoin="round" stroke-miterlimit="1" width="66.001" height="16"/>
		<g>
			<text transform="matrix(1 0 0 1 217.5732 110.2549)" font-size="8">Color Palette DR</text>
		</g>
		<g>
			<text transform="matrix(1 0 0 1 187.9946 139.6343)" font-size="8">1</text>
		</g>
		
			<polygon fill="#CCDEF0" stroke="#010101" stroke-width="0.75" stroke-linecap="round" stroke-linejoin="round" stroke-miterlimit="1" points="
			128.555,64.096 160.97,56.104 193.483,64.212 193.483,64.23 160.97,72.336 		"/>
		<g>
			<text transform="matrix(1 0 0 1 146.2114 66.4395)" font-size="8">includes</text>
		</g>
		<g>
			<text transform="matrix(1 0 0 1 189.0015 61.4414)" font-size="8">1</text>
		</g>
		<g>
			<text transform="matrix(1 0 0 1 165.9248 96.4873)" font-size="8">0-n</text>
		</g>
		<g>
			<text transform="matrix(1 0 0 1 252.2734 96.4873)" font-size="8">0-n</text>
		</g>
		<g>
			<g>
				<polyline fill="none" stroke="#005695" stroke-width="2" stroke-linecap="round" stroke-miterlimit="1" points="251.978,174.06 
					251.978,168.326 161.17,168.326 161.17,155.246 				"/>
				<g>
					<polygon fill="#005695" points="254.302,172.475 251.978,181.147 249.654,172.475 					"/>
				</g>
			</g>
		</g>
		<g>
			<g>
				
					<line fill="none" stroke="#005695" stroke-width="2" stroke-linecap="round" stroke-miterlimit="1" x1="161.079" y1="174.06" x2="161.079" y2="168.326"/>
				<g>
					<polygon fill="#005695" points="163.403,172.475 161.079,181.147 158.754,172.475 					"/>
				</g>
			</g>
		</g>
		
			<rect x="211.916" y="181.803" fill="#86B2D8" stroke="#010101" stroke-width="0.75" stroke-linecap="round" stroke-linejoin="round" stroke-miterlimit="1" width="80.002" height="16"/>
		<g>
			<text transform="matrix(1 0 0 1 219.0063 192.6479)" font-size="8">HL7 Struc Doc DR</text>
		</g>
		<g>
			<text transform="matrix(1 0 0 1 165.9248 178.8804)" font-size="8">1-n</text>
		</g>
		<g>
			<text transform="matrix(1 0 0 1 256.5933 178.8804)" font-size="8">0-n</text>
		</g>
		<g>
			<g>
				<polyline fill="none" stroke="#005695" stroke-width="2" stroke-linecap="round" stroke-miterlimit="1" points="324.062,91.339 
					324.062,85.933 247.659,85.933 				"/>
				<g>
					<polygon fill="#005695" points="326.387,89.754 324.062,98.427 321.738,89.754 					"/>
				</g>
			</g>
		</g>
		
			<rect x="295.641" y="99.408" fill="#86B2D8" stroke="#010101" stroke-width="0.75" stroke-linecap="round" stroke-linejoin="round" stroke-miterlimit="1" width="56.002" height="16"/>
		<g>
			<text transform="matrix(1 0 0 1 298.9277 106.3252)"><tspan x="0" y="0" font-size="7">Generic Implant</tspan><tspan x="4.088" y="5.995" font-size="7">Template DR</tspan></text>
		</g>
		<g>
			<text transform="matrix(1 0 0 1 328.3203 96.4873)" font-size="8">0-n</text>
		</g>
		
			<rect x="30.248" y="99.408" fill="#86B2D8" stroke="#010101" stroke-width="0.75" stroke-linecap="round" stroke-linejoin="round" stroke-miterlimit="1" width="80.002" height="16"/>
		<g>
			<text transform="matrix(1 0 0 1 32.6626 110.2549)" font-size="8">Hanging Protocol DR</text>
		</g>
		<g>
			<text transform="matrix(1 0 0 1 74.9253 96.4873)" font-size="8">0-n</text>
		</g>
		<g>
			<g>
				<polyline fill="none" stroke="#005695" stroke-width="2" stroke-linecap="round" stroke-miterlimit="1" points="70.31,91.339 
					70.31,85.933 161.117,85.933 161.117,72.852 				"/>
				<g>
					<polygon fill="#005695" points="72.634,89.754 70.31,98.427 67.986,89.754 					"/>
				</g>
			</g>
		</g>
		<g>
			<g>
				<polyline fill="none" stroke="#005695" stroke-width="2" stroke-linecap="round" stroke-miterlimit="1" points="396.867,91.339 
					396.867,85.933 323.703,85.933 				"/>
				<g>
					<polygon fill="#005695" points="399.191,89.754 396.867,98.427 394.543,89.754 					"/>
				</g>
			</g>
		</g>
		
			<rect x="366.807" y="99.408" fill="#86B2D8" stroke="#010101" stroke-width="0.75" stroke-linecap="round" stroke-linejoin="round" stroke-miterlimit="1" width="60" height="16"/>
		<g>
			<text transform="matrix(1 0 0 1 369.7598 106.3252)"><tspan x="0" y="0" font-size="7">Implant Template</tspan><tspan x="11.285" y="5.995" font-size="7">Group DR</tspan></text>
		</g>
		<g>
			<text transform="matrix(1 0 0 1 401.4883 96.4873)" font-size="8">0-n</text>
		</g>
		<g>
			<g>
				<polyline fill="none" stroke="#005695" stroke-width="2" stroke-linecap="round" stroke-miterlimit="1" points="473.271,91.339 
					473.271,85.933 396.867,85.933 				"/>
				<g>
					<polygon fill="#005695" points="475.596,89.754 473.271,98.427 470.947,89.754 					"/>
				</g>
			</g>
		</g>
		
			<rect x="442.211" y="99.408" fill="#86B2D8" stroke="#010101" stroke-width="0.75" stroke-linecap="round" stroke-linejoin="round" stroke-miterlimit="1" width="62" height="16"/>
		<g>
			<text transform="matrix(1 0 0 1 445.5859 106.3252)"><tspan x="0" y="0" font-size="7">Implant Assembly</tspan><tspan x="7.003" y="5.995" font-size="7">Template DR</tspan></text>
		</g>
		<g>
			<text transform="matrix(1 0 0 1 477.8945 96.4873)" font-size="8">0-n</text>
		</g>
		
			<polygon fill="#CCDEF0" stroke="#010101" stroke-width="0.75" stroke-linecap="round" stroke-linejoin="round" stroke-miterlimit="1" points="
			120.427,302.504 160.945,294.514 201.586,302.62 201.586,302.638 160.945,310.744 		"/>
		<g>
			<text transform="matrix(1 0 0 1 142.1064 304.8457)" font-size="8">references</text>
		</g>
		<g>
			<g>
				
					<line fill="none" stroke="#005695" stroke-width="2" stroke-linecap="round" stroke-miterlimit="1" x1="161.076" y1="279.941" x2="161.076" y2="287.426"/>
				<g>
					<polygon fill="#005695" points="158.751,285.841 161.076,294.514 163.4,285.841 					"/>
				</g>
			</g>
		</g>
		<g>
			<text transform="matrix(1 0 0 1 180.498 294.9961)" font-size="8">1</text>
		</g>
		
			<polygon fill="#CCDEF0" stroke="#010101" stroke-width="0.75" stroke-linecap="round" stroke-linejoin="round" stroke-miterlimit="1" points="
			128.722,147.149 161.136,139.158 193.647,147.265 193.647,147.284 161.136,155.391 		"/>
		<g>
			<text transform="matrix(1 0 0 1 142.2861 149.4839)" font-size="8">references</text>
		</g>
		<g>
			<g>
				
					<line fill="none" stroke="#005695" stroke-width="2" stroke-linecap="round" stroke-miterlimit="1" x1="161.125" y1="197.768" x2="161.125" y2="214.431"/>
				<g>
					<polygon fill="#005695" points="158.8,212.846 161.125,221.519 163.449,212.846 					"/>
				</g>
			</g>
		</g>
		<g>
			<text transform="matrix(1 0 0 1 189.167 221.9946)" font-size="8">1</text>
		</g>
		<g>
			<g>
				
					<line fill="none" stroke="#005695" stroke-width="2" stroke-linecap="round" stroke-miterlimit="1" x1="161.079" y1="237.641" x2="161.079" y2="256.843"/>
				<g>
					<polygon fill="#005695" points="158.754,255.258 161.079,263.931 163.403,255.258 					"/>
				</g>
			</g>
		</g>
		<g>
			<text transform="matrix(1 0 0 1 182.0015 240.5005)" font-size="8">0-n</text>
		</g>
		
			<polygon fill="#CCDEF0" stroke="#010101" stroke-width="0.75" stroke-linecap="round" stroke-linejoin="round" stroke-miterlimit="1" points="
			128.722,229.51 161.136,221.519 193.647,229.625 193.647,229.644 161.136,237.749 		"/>
		<g>
			<text transform="matrix(1 0 0 1 142.2861 231.8442)" font-size="8">references</text>
		</g>
		
			<rect x="123.247" y="181.57" fill="#86B2D8" stroke="#010101" stroke-width="0.75" stroke-linecap="round" stroke-linejoin="round" stroke-miterlimit="1" width="75.745" height="16.232"/>
		<g>
			<text transform="matrix(1 0 0 1 143.9995 192.6479)" font-size="8">Study DR</text>
		</g>
		
			<rect x="123.247" y="263.931" fill="#86B2D8" stroke="#010101" stroke-width="0.75" stroke-linecap="round" stroke-linejoin="round" stroke-miterlimit="1" width="75.745" height="16.231"/>
		<g>
			<text transform="matrix(1 0 0 1 142.8901 275.0083)" font-size="8">Series DR</text>
		</g>
	</g>
</g>
</svg>
