<?xml version="1.0" encoding="utf-8"?>

<!DOCTYPE svg PUBLIC "-//W3C//DTD SVG 1.1//EN" "http://www.w3.org/Graphics/SVG/1.1/DTD/svg11.dtd">
<svg version="1.1" id="Layer_1" xmlns="http://www.w3.org/2000/svg" xmlns:xlink="http://www.w3.org/1999/xlink" x="0px" y="0px"
	 width="357px" height="192px" viewBox="0 0 357 192" enable-background="new 0 0 357 192" xml:space="preserve">
        
<defs>
	<style type="text/css">
	text {
	  font-family: Helvetica, Verdana, ArialUnicodeMS, san-serif
	}
	</style>
</defs>

<g>
   <desc>
	PS 3.3 Information Object Definitions
   </desc>
</g>

<g>
	<rect x="1" y="1" fill="#F5EED6" width="355" height="190"/>
	<g>
		<g>
			
				<path fill="#B2CEE7" stroke="#010101" stroke-width="0.75" stroke-linecap="round" stroke-linejoin="round" stroke-miterlimit="1" d="
				M119.393,153.621c0,12.043-23.328,21.805-52.105,21.805s-52.105-9.762-52.105-21.805c0-12.047,23.328-21.809,52.105-21.809
				S119.393,141.574,119.393,153.621z"/>
			<g>
				<text transform="matrix(1 0 0 1 28.0117 147.332)"><tspan x="0" y="0" font-size="9">Conceptual Volume</tspan><tspan x="17.763" y="17.6" font-size="9">“Lung, left”</tspan></text>
			</g>
		</g>
		<g>
			
				<path fill="#B2CEE7" stroke="#010101" stroke-width="0.75" stroke-linecap="round" stroke-linejoin="round" stroke-miterlimit="1" d="
				M341.818,153.621c0,12.043-23.328,21.805-52.105,21.805c-28.779,0-52.107-9.762-52.107-21.805
				c0-12.047,23.328-21.809,52.107-21.809C318.49,131.812,341.818,141.574,341.818,153.621z"/>
			<g>
				<text transform="matrix(1 0 0 1 250.4355 147.3311)"><tspan x="0" y="0" font-size="9">Conceptual Volume</tspan><tspan x="15.012" y="17.601" font-size="9">“Lung, right”</tspan></text>
			</g>
		</g>
		<g>
			<g>
				
					<line fill="none" stroke="#005695" stroke-width="2" stroke-linecap="round" stroke-linejoin="round" x1="178.499" y1="39.09" x2="178.499" y2="66.287"/>
				<g>
					<polygon fill="#005695" points="176.175,64.702 178.499,73.375 180.823,64.702 					"/>
				</g>
			</g>
		</g>
		<g>
			<g>
				
					<line fill="none" stroke="#005695" stroke-width="2" stroke-linecap="round" stroke-linejoin="round" x1="178.499" y1="39.09" x2="72.73" y2="127.273"/>
				<g>
					<polygon fill="#005695" points="72.46,124.474 67.287,131.812 75.437,128.044 					"/>
				</g>
			</g>
		</g>
		<g>
			<g>
				
					<line fill="none" stroke="#005695" stroke-width="2" stroke-linecap="round" stroke-linejoin="round" x1="178.499" y1="39.09" x2="284.27" y2="127.273"/>
				<g>
					<polygon fill="#005695" points="281.563,128.044 289.713,131.812 284.54,124.474 					"/>
				</g>
			</g>
		</g>
		<g>
			<g>
				
					<line fill="none" stroke="#005695" stroke-width="2" stroke-linecap="round" stroke-linejoin="round" x1="230.605" y1="101.215" x2="232.353" y2="102.189"/>
				
					<line fill="none" stroke="#005695" stroke-width="2" stroke-linecap="round" stroke-linejoin="round" stroke-dasharray="3.9787,2.984" x1="234.958" y1="103.643" x2="276.22" y2="126.659"/>
				
					<line fill="none" stroke="#005695" stroke-width="2" stroke-linecap="round" stroke-linejoin="round" x1="277.522" y1="127.386" x2="279.27" y2="128.359"/>
				<g>
					<polygon fill="#005695" points="276.753,129.617 285.459,131.812 279.018,125.558 					"/>
				</g>
			</g>
		</g>
		<g>
			<g>
				
					<line fill="none" stroke="#005695" stroke-width="2" stroke-linecap="round" stroke-linejoin="round" x1="126.393" y1="101.215" x2="124.649" y2="102.195"/>
				
					<line fill="none" stroke="#005695" stroke-width="2" stroke-linecap="round" stroke-linejoin="round" stroke-dasharray="3.9493,2.962" x1="122.067" y1="103.646" x2="81.188" y2="126.633"/>
				
					<line fill="none" stroke="#005695" stroke-width="2" stroke-linecap="round" stroke-linejoin="round" x1="79.897" y1="127.358" x2="78.154" y2="128.339"/>
				<g>
					<polygon fill="#005695" points="78.396,125.536 71.977,131.812 80.675,129.588 					"/>
				</g>
			</g>
		</g>
		
			<rect x="134.016" y="16.574" fill="#86B2D8" stroke="#010101" stroke-width="0.75" stroke-linecap="round" stroke-linejoin="round" stroke-miterlimit="1" width="90" height="22.5"/>
		<g>
			<text transform="matrix(1 0 0 1 139.998 30.3281)" font-size="9">RT Physician Intent</text>
		</g>
		<g>
			
				<ellipse fill="#B2CEE7" stroke="#010101" stroke-width="0.75" stroke-linecap="round" stroke-linejoin="round" stroke-miterlimit="1" cx="178.499" cy="96.176" rx="52.106" ry="21.809"/>
			<g>
				<text transform="matrix(1 0 0 1 139.2285 89.877)"><tspan x="0" y="0" font-size="9">Conceptual Volume</tspan><tspan x="26.266" y="17.601" font-size="9">“Lung”</tspan></text>
			</g>
		</g>
	</g>
</g>
</svg>
