<?xml version="1.0" encoding="utf-8"?>

<!DOCTYPE svg PUBLIC "-//W3C//DTD SVG 1.1//EN" "http://www.w3.org/Graphics/SVG/1.1/DTD/svg11.dtd">
<svg version="1.1" id="Layer_1" xmlns="http://www.w3.org/2000/svg" xmlns:xlink="http://www.w3.org/1999/xlink" x="0px" y="0px"
	 width="402px" height="392px" viewBox="0 0 402 392" enable-background="new 0 0 402 392" xml:space="preserve">

<defs>
	<style type="text/css">
	text {
	  font-family: Helvetica, Verdana, ArialUnicodeMS, san-serif
	}
	</style>
</defs>

<g>
   <desc>
	PS 3.3 Part 3: Information Object Definitions
   </desc>
</g>

<g>
	<rect x="1" y="1" fill="#F5EED8" width="400" height="390"/>
	<g>
		<g>
			<path fill="#D89D7E" stroke="#000000" d="M261.172,267.168c-3.531,7.057-7.919-1.663-8.657-5.234
				c-1.151-5.569-0.209-10.684,1.495-16.046c2.761-8.684,8.478,0.74,9.31,4.96C264.345,256.05,264.221,262.628,261.172,267.168z"/>
			<path fill="#D89D7E" stroke="#000000" d="M143.133,267.168c3.532,7.057,7.92-1.663,8.658-5.234
				c1.152-5.569,0.21-10.684-1.495-16.046c-2.761-8.684-8.479,0.74-9.311,4.96C139.959,256.05,140.084,262.628,143.133,267.168z"/>
			<path fill="#D89D7E" stroke="#000000" d="M258.366,304.621c-3.231-2.327-5.925-4.999-6.656-10.377
				c-0.599-4.41-2.555-11.801-2.026-16.373c0.786-6.813,2.753-25.26,11.218-18.974C271.559,266.812,276.376,308.725,258.366,304.621
				z"/>
			<path fill="#D89D7E" stroke="#000000" d="M153.13,269.725c0.358,10.158,0.857,24.867-3.531,33.567
				c-5.174,10.26-13.593,7.732-16.668-3.786c-1.17-4.382,0.797-12.362,1.392-16.725c0.837-6.148,2.574-10.503,4.646-16.048
				C142.886,256.25,150.833,259.679,153.13,269.725z"/>
			<path fill="#D89D7E" stroke="#000000" d="M169.706,307.016c-2.181,7.806-4.519,14.582,0.521,22.166
				c4.769,7.175,12.764,9.765,20.619,12.454c5.81,1.99,14.754,1.866,20.5-0.284c2.962-1.108,8.806-2.094,11.046-4.241
				c2.342-2.243,8.358-6.058,9.239-9.038c2.481-8.397,4.146-14.238-0.603-22.481c-4.212-7.312-12.524-10.172-20.171-12.825
				C196.598,287.818,177.293,294.812,169.706,307.016z"/>
			<path fill="#D89D7E" stroke="#000000" d="M163.625,319.182c1.354-11.278-1.329-20.04-12.748-24.431
				c-4.731-1.818-9.575-4.301-14.741-2.487c-4.867,1.708-8.037,6.311-8.581,11.195c-0.993,8.911-1.593,22.481,9.24,26.116
				C146.888,332.961,161.191,332.784,163.625,319.182z"/>
			<path fill="#D89D7E" stroke="#000000" d="M263.342,326.992c5.332-4.048,7.273-6.254,10.28-12.228
				c1.775-3.525,0.23-12.143-0.039-16.189c-0.864-12.992-14.996-14.276-23.585-8.147c-9.198,6.563-16.518,14.062-12.832,26.392
				C240.406,327.659,253.47,333.49,263.342,326.992z"/>
			<path fill="#D89D7E" stroke="#000000" d="M230.334,314.512c3.754-4.358,5.34-10.743,3.766-16.323
				c-1.979-7.013-7.695-12.462-15.01-13.495c-0.266-0.039-0.6-0.079-0.885-0.105c-0.254-0.025-0.605-0.05-0.891-0.062
				c-0.232-0.011-0.609-0.02-0.891-0.018c-0.215,0-0.615,0.011-0.893,0.024c-0.189,0.012-0.617,0.044-0.889,0.069
				c-4.457,0.537-8.496,2.597-11.621,5.928c-0.914,1.135-1.783,2.404-2.511,3.742l0.003,0.151c-0.729-1.338-1.597-2.607-2.511-3.741
				c-3.125-3.331-7.165-5.392-11.623-5.929c-0.271-0.024-0.699-0.058-0.889-0.068c-0.278-0.014-0.678-0.024-0.893-0.025
				c-0.281-0.001-0.658,0.007-0.891,0.019c-0.286,0.012-0.638,0.037-0.891,0.062c-0.286,0.026-0.619,0.066-0.886,0.106
				c-7.315,1.032-13.03,6.482-15.009,13.494c-1.575,5.581,0.011,11.966,3.765,16.324c0.18,0.209,0.364,0.412,0.551,0.611"/>
			<path fill="#D89D7E" stroke="#000000" d="M167.955,309.353c3.227,9.655,3.265,18.832-6.143,24.896
				c-7.605,4.902-21.436,3.903-25.827-5.567c-4.806-10.365-2.386-19.907,7.216-26.021
				C152.25,296.901,161.721,302.438,167.955,309.353z"/>
			<path fill="#D89D7E" stroke="#000000" d="M256.38,300.495c8.036,6.196,13.263,14.162,8.225,24.376
				c-4.339,8.796-14.868,14.293-24.448,9.236C219.246,323.07,235.073,290.048,256.38,300.495z"/>
			<path fill="#D89D7E" stroke="#000000" d="M222.078,359.871c-4.219,1.895-8.438,3.789-12.656,5.685
				c-3.636,1.633-9.905,0.371-13.855,0.387c-7.426,0.031-15.771-5.852-20.474-11.226c-5.114-5.844-11.352-14.658-9.397-23.059
				c2.237-9.616,4.327-18.16,12.845-24.55c13.327-9.995,36.73-9.805,47.863,3.213c2.539,2.97,6.539,6.093,7.479,9.973
				c0.894,3.688,3.824,9.858,2.897,13.582c-1.043,4.193-1.419,9.8-3.39,13.632c-2.101,4.082-6.767,7.869-9.773,11.365
				C223.256,359.293,222.562,359.607,222.078,359.871z"/>
		</g>
		<g>
			<g>
				<path fill="#C2E2CC" stroke="#000000" d="M237.918,124.151c0,0.436-0.352,0.79-0.791,0.79H164.63
					c-0.437,0-0.791-0.354-0.791-0.79v-82.78c0-0.437,0.354-0.791,0.791-0.791h72.497c0.439,0,0.791,0.354,0.791,0.791V124.151z"/>
				<path fill="#C2E2CC" stroke="#000000" d="M183.982,55.805c-20.87,5.817-35.891,24.229-35.891,64.314
					c0,29.158,23.633,52.802,52.79,52.802c29.155,0,52.79-23.644,52.79-52.802c0-39.971-15.057-58.474-35.961-64.313L183.982,55.805
					z"/>
				<g>
					<path opacity="0.5" fill="#E4EDF6" stroke="#000000" stroke-dasharray="2,2" d="M261.89,125.634H58.626
						c-3.316,0-6.005,28.37-6.005,63.374c0,35.019,2.688,62.675,6.005,62.675l-0.001-0.1l54.493-5.184v-33.107l-11.882-1.665
						l-5.11-58.396l165.764,0.031"/>
					<path opacity="0.5" fill="#FFFFFF" stroke="#000000" stroke-dasharray="2,2" d="M58.625,251.683
						c-3.316,0-6.005-27.656-6.005-62.675c0-35.004,2.688-63.374,6.005-63.374h-8.639c-3.316,0-6.005,28.37-6.005,63.374
						c0,35.019,2.688,63.396,6.005,63.396l8.637-0.82"/>
				</g>
				<g>
					<path opacity="0.5" fill="#E4EDF6" stroke="#000000" stroke-dasharray="4,2" d="M140.119,125.634h203.254
						c3.316,0,6.005,28.37,6.005,63.374c0,35.019-2.688,62.675-6.005,62.675l0.001-0.1l-54.493-5.184v-33.107l11.882-1.665
						l5.11-58.396l-165.754,0.031"/>
					<path opacity="0.5" fill="#FFFFFF" stroke="#000000" stroke-dasharray="2,2" d="M343.377,251.683
						c3.316,0,6.005-27.656,6.005-62.675c0-35.004-2.688-63.374-6.005-63.374h8.638c3.315,0,6.004,28.37,6.004,63.374
						c0,35.019-2.688,63.396-6.004,63.396l-8.637-0.82"/>
				</g>
			</g>
			<path fill="none" stroke="#000000" stroke-linejoin="round" stroke-miterlimit="10" d="M253.22,110.672
				c-15.871,3.851-33.671,6.01-52.477,6.01s-36.607-2.159-52.474-6.01H253.22z"/>
			<rect x="174.842" y="101.63" fill="none" stroke="#000000" stroke-miterlimit="10" width="51.803" height="9.042"/>
			<rect x="187.396" y="101.63" fill="none" stroke="#000000" stroke-miterlimit="10" width="26.692" height="23.332"/>
			<path fill="#E6E6E6" stroke="#000000" stroke-miterlimit="10" d="M171.085,135.861h59.313v94.924
				c0,2.621-2.122,4.745-4.742,4.745h-49.825c-2.622,0-4.746-2.124-4.746-4.745V135.861z"/>
			<path fill="#B3B3B3" stroke="#000000" stroke-linejoin="round" stroke-miterlimit="10" d="M230.398,181
				c0-2.21-1.791-4.001-4-4.001h-51.313c-2.209,0-4,1.791-4,4.001v50.53c0,2.209,1.791,4,4,4h51.313c2.209,0,4-1.791,4-4V181z"/>
			<line fill="none" stroke="#000000" stroke-miterlimit="10" x1="230.398" y1="146.397" x2="171.085" y2="146.397"/>
			<rect x="177.016" y="202.903" fill="#828486" stroke="#000000" stroke-miterlimit="10" width="47.453" height="30.848"/>
			<path fill="#B4CFE6" stroke="#000000" d="M218.24,246.802c0,2.621-2.125,4.746-4.745,4.746H187.99
				c-2.621,0-4.746-2.125-4.746-4.746V129.863c0-2.621,2.125-4.746,4.746-4.746h25.505c2.62,0,4.745,2.125,4.745,4.746V246.802z"/>
			<path fill="#CEDFEF" stroke="#000000" d="M215.127,246.415c0,2.621-2.125,4.744-4.745,4.744h-19.278
				c-2.621,0-4.744-2.123-4.744-4.744V142.387c0-2.619,2.123-4.746,4.744-4.746h19.278c2.62,0,4.745,2.127,4.745,4.746V246.415z"/>
			<path fill="none" stroke="#000000" stroke-miterlimit="10" d="M211.42,160.779c0,1.748-1.418,3.164-3.163,3.164h-15.027
				c-1.747,0-3.163-1.416-3.163-3.164v-16.612c0-1.747,1.416-3.164,3.163-3.164h15.027c1.745,0,3.163,1.417,3.163,3.164V160.779z"/>
			<rect x="106.318" y="183.687" fill="none" width="63.813" height="13.324"/>
			<text transform="matrix(1 0 0 1 110.4639 192.271)" font-size="12">Gantry Left</text>
			<rect x="168.111" y="256.183" fill="none" width="65.297" height="13.324"/>
			<text transform="matrix(1 0 0 1 169.1938 264.7656)" font-size="12">Gantry Front</text>
			<rect x="168.111" y="25.607" fill="none" width="65.297" height="13.324"/>
			<text transform="matrix(1 0 0 1 170.001 34.1919)" font-size="12">Gantry Rear</text>
			<rect x="233.222" y="183.687" fill="none" width="65.297" height="13.324"/>
			<text transform="matrix(1 0 0 1 234.2988 192.2715)" font-size="12">Gantry Right</text>
		</g>
	</g>
</g>
</svg>
