<?xml version="1.0" encoding="utf-8"?>

<!DOCTYPE svg PUBLIC "-//W3C//DTD SVG 1.1//EN" "http://www.w3.org/Graphics/SVG/1.1/DTD/svg11.dtd">
<svg version="1.1" id="Layer_1" xmlns="http://www.w3.org/2000/svg" xmlns:xlink="http://www.w3.org/1999/xlink" x="0px" y="0px"
	 width="502px" height="332px" viewBox="0 0 502 332" enable-background="new 0 0 502 332" xml:space="preserve">

<defs>
	<style type="text/css">
	text {
	  font-family: Helvetica, Verdana, ArialUnicodeMS, san-serif
	}
	</style>
</defs>

<g>
   <desc>
	PS 3.3 Part 3: Information Object Definitions
   </desc>
</g>

<g>
	<rect x="1" y="1" fill="#F5EED6" width="500" height="330"/>
	<g>
		
			<rect x="192.992" y="15.206" fill="#86B2D8" stroke="#010101" stroke-width="0.7151" stroke-linecap="round" stroke-linejoin="round" stroke-miterlimit="1" width="100" height="18"/>
		
			<rect x="131.965" y="125.419" fill="#86B2D8" stroke="#010101" stroke-width="0.7151" stroke-linecap="round" stroke-linejoin="round" stroke-miterlimit="1" width="99.934" height="18"/>
		<g>
			<g>
				
					<line fill="none" stroke="#005695" stroke-width="2" stroke-miterlimit="1" x1="181.929" y1="96.104" x2="181.929" y2="118.935"/>
				<g>
					<polygon fill="#005695" points="179.604,117.35 181.929,126.022 184.253,117.35 					"/>
				</g>
			</g>
		</g>
		<g>
			<g>
				<polyline fill="none" stroke="#005695" stroke-width="2" stroke-miterlimit="1" points="242.659,33.206 242.659,49.858 
					181.554,49.858 181.554,71.154 				"/>
				<g>
					<polygon fill="#005695" points="179.229,69.568 181.554,78.241 183.878,69.568 					"/>
				</g>
			</g>
		</g>
		<g>
			<g>
				<polyline fill="none" stroke="#005695" stroke-width="2" stroke-miterlimit="1" points="243.038,33.206 243.038,49.858 
					305.109,49.858 305.109,67.096 				"/>
				<g>
					<polygon fill="#005695" points="302.785,65.511 305.109,74.184 307.434,65.511 					"/>
				</g>
			</g>
		</g>
		<g>
			<g>
				
					<line fill="none" stroke="#005695" stroke-width="2" stroke-miterlimit="1" x1="181.554" y1="143.481" x2="181.554" y2="162.248"/>
				<g>
					<polygon fill="#005695" points="179.229,160.662 181.554,169.335 183.878,160.662 					"/>
				</g>
			</g>
		</g>
		
			<polygon fill="#CCDEF0" stroke="#010101" stroke-width="0.75" stroke-linecap="round" stroke-linejoin="round" stroke-miterlimit="1" points="
			240.105,87.24 305.008,74.44 370.102,87.425 370.102,87.455 305.008,100.44 		"/>
		<g>
			<text transform="matrix(1 0 0 1 266.5908 89.9092)" font-size="9">for PDR consists of</text>
		</g>
		<g>
			<text transform="matrix(1 0 0 1 352.5957 78.4551)" font-size="9">1</text>
		</g>
		<g>
			<text transform="matrix(1 0 0 1 344.5938 101.1807)" font-size="9">0-n</text>
		</g>
		<g>
			<text transform="matrix(1 0 0 1 221.3179 27.501)" font-size="12">Fraction</text>
		</g>
		
			<polygon fill="#CCDEF0" stroke="#010101" stroke-width="0.75" stroke-linecap="round" stroke-linejoin="round" stroke-miterlimit="1" points="
			136.935,177.589 181.858,168.722 226.923,177.716 226.923,177.737 181.858,186.733 		"/>
		<g>
			<text transform="matrix(1 0 0 1 165.1768 180.2012)" font-size="9">contains</text>
		</g>
		<g>
			<text transform="matrix(1 0 0 1 210.1255 168.748)" font-size="9">1</text>
		</g>
		<g>
			<text transform="matrix(1 0 0 1 202.123 191.4727)" font-size="9">1-n</text>
		</g>
		
			<polygon fill="#CCDEF0" stroke="#010101" stroke-width="0.75" stroke-linecap="round" stroke-linejoin="round" stroke-miterlimit="1" points="
			136.865,87.047 181.79,78.18 226.854,87.174 226.854,87.195 181.79,96.192 		"/>
		<g>
			<text transform="matrix(1 0 0 1 170.6143 89.6602)" font-size="9">treats</text>
		</g>
		<g>
			<text transform="matrix(1 0 0 1 210.1255 78.2061)" font-size="9">1</text>
		</g>
		<g>
			<text transform="matrix(1 0 0 1 202.123 100.9307)" font-size="9">1-n</text>
		</g>
		<g>
			<text transform="matrix(1 0 0 1 135.229 137.6948)" font-size="12">Application Setup</text>
		</g>
		
			<rect x="255.137" y="125.419" fill="#86B2D8" stroke="#010101" stroke-width="0.7151" stroke-linecap="round" stroke-linejoin="round" stroke-miterlimit="1" width="99.934" height="18"/>
		<g>
			<g>
				
					<line fill="none" stroke="#005695" stroke-width="2" stroke-miterlimit="1" x1="305.104" y1="100.229" x2="305.104" y2="118.935"/>
				<g>
					<polygon fill="#005695" points="302.779,117.35 305.104,126.022 307.428,117.35 					"/>
				</g>
			</g>
		</g>
		<g>
			<text transform="matrix(1 0 0 1 290.0996 137.6948)" font-size="12">Pulse</text>
		</g>
		
			<rect x="131.898" y="212.378" fill="#86B2D8" stroke="#010101" stroke-width="0.7151" stroke-linecap="round" stroke-linejoin="round" stroke-miterlimit="1" width="99.934" height="18"/>
		
			<rect x="131.965" y="298.794" fill="#86B2D8" stroke="#010101" stroke-width="0.7151" stroke-linecap="round" stroke-linejoin="round" stroke-miterlimit="1" width="99.934" height="18"/>
		<g>
			<g>
				
					<line fill="none" stroke="#005695" stroke-width="2" stroke-miterlimit="1" x1="181.867" y1="187.188" x2="181.867" y2="205.896"/>
				<g>
					<polygon fill="#005695" points="179.543,204.311 181.867,212.983 184.191,204.311 					"/>
				</g>
			</g>
		</g>
		<g>
			<g>
				
					<line fill="none" stroke="#005695" stroke-width="2" stroke-miterlimit="1" x1="181.929" y1="273.604" x2="181.929" y2="292.31"/>
				<g>
					<polygon fill="#005695" points="179.604,290.725 181.929,299.397 184.253,290.725 					"/>
				</g>
			</g>
		</g>
		<g>
			<text transform="matrix(1 0 0 1 159.5161 224.6729)" font-size="12">Channel</text>
		</g>
		<g>
			<g>
				
					<line fill="none" stroke="#005695" stroke-width="2" stroke-miterlimit="1" x1="181.485" y1="230.439" x2="181.485" y2="249.205"/>
				<g>
					<polygon fill="#005695" points="179.161,247.62 181.485,256.293 183.81,247.62 					"/>
				</g>
			</g>
		</g>
		
			<polygon fill="#CCDEF0" stroke="#010101" stroke-width="0.75" stroke-linecap="round" stroke-linejoin="round" stroke-miterlimit="1" points="
			136.865,264.547 181.79,255.68 226.854,264.674 226.854,264.695 181.79,273.692 		"/>
		<g>
			<text transform="matrix(1 0 0 1 165.1079 267.1602)" font-size="9">contains</text>
		</g>
		<g>
			<text transform="matrix(1 0 0 1 210.1255 255.7061)" font-size="9">1</text>
		</g>
		<g>
			<text transform="matrix(1 0 0 1 202.123 278.4307)" font-size="9">0-n</text>
		</g>
		<g>
			<text transform="matrix(1 0 0 1 144.2437 311.0703)" font-size="12">Control Points</text>
		</g>
	</g>
</g>
</svg>
