<?xml version="1.0" encoding="utf-8"?>

<!DOCTYPE svg PUBLIC "-//W3C//DTD SVG 1.1//EN" "http://www.w3.org/Graphics/SVG/1.1/DTD/svg11.dtd">
<svg version="1.1" id="Layer_1" xmlns="http://www.w3.org/2000/svg" xmlns:xlink="http://www.w3.org/1999/xlink" x="0px" y="0px"
	 width="552px" height="482px" viewBox="0 0 552 482" enable-background="new 0 0 552 482" xml:space="preserve">

<defs>
	<style type="text/css">
	text {
	  font-family: Helvetica, Verdana, ArialUnicodeMS, san-serif
	}
	</style>
</defs>

<g>
   <desc>
	PS 3.3 Part 3: Information Object Definitions
   </desc>
</g>

<g>
	<rect x="1" y="1" fill="#F5EED6" width="550" height="480"/>
	<g>
		<g>
			<path fill="#F7941E" d="M232.703,51.65c6.429-3.027,10.243-8.542,8.758-13.239c-1.695-5.369-9.667-7.636-17.805-5.065
				c-8.139,2.572-13.361,9.007-11.665,14.375c1.269,4.018,6.053,6.298,11.792,6.114"/>
			<g>
				<path fill="none" stroke="#003468" stroke-miterlimit="10" d="M232.703,51.65c6.429-3.027,10.243-8.542,8.758-13.239
					c-1.695-5.369-9.667-7.636-17.805-5.065c-8.139,2.572-13.361,9.007-11.665,14.375c0.522,1.653,1.639,3.012,3.173,4.026"/>
				<g>
					<polygon fill="#003468" points="212.561,53.64 223.783,53.835 214.163,48.054 					"/>
				</g>
			</g>
		</g>
		<g>
			<g>
				<line fill="none" stroke="#ED1C24" stroke-width="2" x1="290.299" y1="266.944" x2="359.667" y2="290.688"/>
				<g>
					<polygon fill="#ED1C24" points="356.289,293.217 369.726,294.131 358.547,286.619 					"/>
				</g>
			</g>
		</g>
		
			<line fill="none" stroke="#000000" stroke-width="2" stroke-linecap="round" stroke-linejoin="round" x1="238.907" y1="86.155" x2="226.726" y2="43.066"/>
		<g>
			<g>
				<line fill="none" stroke="#00AEEF" stroke-width="2" x1="289.424" y1="267.569" x2="176.038" y2="314.614"/>
				<g>
					<polygon fill="#00AEEF" points="176.898,310.482 166.218,318.688 179.57,316.923 					"/>
				</g>
			</g>
		</g>
		<text transform="matrix(0.8999 0 0 1 319.3359 362.085)"><tspan x="0" y="0" fill="#0DB14B" font-size="14">+Y</tspan><tspan x="17.513" y="3.001" fill="#0DB14B" font-size="14">p</tspan></text>
		
			<text transform="matrix(0.8999 -0.0019 0.0017 1 268.396 393.9688)" fill="#0DB14B" font-size="14">+Y</text>
		<text transform="matrix(0.8999 0 0 1 149.4385 309.9473)"><tspan x="0" y="0" fill="#00AEEF" font-size="14">+Z</tspan><tspan x="16.727" y="3" fill="#00AEEF" font-size="14">p</tspan></text>
		
			<text transform="matrix(0.8999 -0.0019 0.0017 1 390.0713 218.5537)" fill="#ED1C24" font-size="14">+X</text>
		
			<text transform="matrix(0.8999 -0.0019 0.0017 1 129.3574 228.2798)" fill="#00AEEF" font-size="14">+Z</text>
		<text transform="matrix(0.8999 0 0 1 354.2129 450.1309)" font-size="14">X-Ray Source</text>
		<text transform="matrix(0.8999 0 0 1 98.4209 83.334)" font-size="14">X-Ray Detector</text>
		<text transform="matrix(0.8999 0 0 1 367.0859 305.4141)"><tspan x="0" y="0" fill="#ED1C24" font-size="14">+X</tspan><tspan x="17.514" y="3" fill="#ED1C24" font-size="12">p</tspan></text>
		<line fill="none" stroke="#000000" stroke-linecap="round" x1="113.408" y1="347.694" x2="390.071" y2="220.725"/>
		<line fill="none" stroke="#000000" stroke-linecap="round" x1="522.617" y1="320.743" x2="138.688" y2="230.782"/>
		<g>
			<g>
				<path fill="#CCCCCC" d="M282.047,55.759c1.646-0.102,2.646,1.12,2.222,2.714l-12.417,46.585
					c-0.425,1.594-2.118,3.01-3.762,3.145l-67.321,5.537c-1.644,0.135-2.854-1.097-2.689-2.739l4.775-47.385
					c0.166-1.642,1.648-3.068,3.295-3.17L282.047,55.759z"/>
				<path fill="none" stroke="#9D9FA2" stroke-linecap="round" stroke-linejoin="round" stroke-dasharray="3,2" d="M282.047,55.759
					c1.646-0.102,2.646,1.12,2.222,2.714l-12.417,46.585c-0.425,1.594-2.118,3.01-3.762,3.145l-67.321,5.537
					c-1.644,0.135-2.854-1.097-2.689-2.739l4.775-47.385c0.166-1.642,1.648-3.068,3.295-3.17L282.047,55.759z"/>
			</g>
			<g>
				
					<line fill="none" stroke="#000000" stroke-width="0.5" stroke-linecap="round" stroke-linejoin="round" stroke-dasharray="1,3" x1="272.546" y1="102.455" x2="198.439" y2="107.442"/>
				
					<line fill="none" stroke="#000000" stroke-width="0.5" stroke-linecap="round" stroke-linejoin="round" stroke-dasharray="1,3" x1="274.076" y1="96.715" x2="199.019" y2="101.687"/>
				
					<line fill="none" stroke="#000000" stroke-width="0.5" stroke-linecap="round" stroke-linejoin="round" stroke-dasharray="1,3" x1="275.612" y1="90.951" x2="199.541" y2="95.954"/>
				
					<line fill="none" stroke="#000000" stroke-width="0.5" stroke-linecap="round" stroke-linejoin="round" stroke-dasharray="1,3" x1="277.24" y1="85.047" x2="200.07" y2="90.296"/>
				
					<line fill="none" stroke="#000000" stroke-width="0.5" stroke-linecap="round" stroke-linejoin="round" stroke-dasharray="1,3" x1="278.691" y1="79.192" x2="200.521" y2="84.434"/>
				
					<line fill="none" stroke="#000000" stroke-width="0.5" stroke-linecap="round" stroke-linejoin="round" stroke-dasharray="1,3" x1="280.279" y1="73.438" x2="201.34" y2="78.65"/>
				
					<line fill="none" stroke="#000000" stroke-width="0.5" stroke-linecap="round" stroke-linejoin="round" stroke-dasharray="1,3" x1="281.52" y1="67.551" x2="201.899" y2="73.101"/>
				
					<line fill="none" stroke="#000000" stroke-width="0.5" stroke-linecap="round" stroke-linejoin="round" stroke-dasharray="1,3" x1="283.053" y1="61.643" x2="202.493" y2="67.209"/>
				
					<line fill="none" stroke="#000000" stroke-width="0.5" stroke-linecap="round" stroke-linejoin="round" stroke-dasharray="1,3" x1="276.169" y1="56.189" x2="266.397" y2="107.942"/>
				
					<line fill="none" stroke="#000000" stroke-width="0.5" stroke-linecap="round" stroke-linejoin="round" stroke-dasharray="1,3" x1="267.894" y1="56.785" x2="258.97" y2="108.615"/>
				
					<line fill="none" stroke="#000000" stroke-width="0.5" stroke-linecap="round" stroke-linejoin="round" stroke-dasharray="1,3" x1="259.617" y1="57.382" x2="251.543" y2="109.288"/>
				
					<line fill="none" stroke="#000000" stroke-width="0.5" stroke-linecap="round" stroke-linejoin="round" stroke-dasharray="1,3" x1="251.341" y1="57.978" x2="244.115" y2="109.961"/>
				
					<line fill="none" stroke="#000000" stroke-width="0.5" stroke-linecap="round" stroke-linejoin="round" stroke-dasharray="1,3" x1="243.065" y1="58.575" x2="236.688" y2="110.634"/>
				
					<line fill="none" stroke="#000000" stroke-width="0.5" stroke-linecap="round" stroke-linejoin="round" stroke-dasharray="1,3" x1="234.788" y1="59.171" x2="229.26" y2="111.307"/>
				
					<line fill="none" stroke="#000000" stroke-width="0.5" stroke-linecap="round" stroke-linejoin="round" stroke-dasharray="1,3" x1="226.512" y1="59.767" x2="221.833" y2="111.979"/>
				
					<line fill="none" stroke="#000000" stroke-width="0.5" stroke-linecap="round" stroke-linejoin="round" stroke-dasharray="1,3" x1="218.236" y1="60.363" x2="214.405" y2="112.653"/>
				
					<line fill="none" stroke="#000000" stroke-width="0.5" stroke-linecap="round" stroke-linejoin="round" stroke-dasharray="1,3" x1="209.959" y1="60.96" x2="206.979" y2="113.325"/>
			</g>
		</g>
		<g>
			<g>
				<path fill="#999999" d="M218.41,119.863c1.051,1.272,3.155,1.792,4.677,1.155l63.108-26.427c1.522-0.637,2.095-2.329,1.272-3.76
					l-23.157-40.287c-0.822-1.431-2.729-2.055-4.239-1.388l-70.537,31.2c-1.509,0.667-1.884,2.254-0.833,3.527L218.41,119.863z"/>
				<path fill="none" stroke="#4D4D4F" stroke-width="2" stroke-linecap="round" stroke-linejoin="round" d="M218.41,119.863
					c1.051,1.272,3.155,1.792,4.677,1.155l63.108-26.427c1.522-0.637,2.095-2.329,1.272-3.76l-23.157-40.287
					c-0.822-1.431-2.729-2.055-4.239-1.388l-70.537,31.2c-1.509,0.667-1.884,2.254-0.833,3.527L218.41,119.863z"/>
			</g>
			<g>
				
					<line fill="none" stroke="#000000" stroke-width="0.5" stroke-linecap="round" stroke-linejoin="round" x1="217.034" y1="118.197" x2="285.686" y2="87.731"/>
				
					<line fill="none" stroke="#000000" stroke-width="0.5" stroke-linecap="round" stroke-linejoin="round" x1="213.394" y1="113.788" x2="282.816" y2="82.738"/>
				
					<line fill="none" stroke="#000000" stroke-width="0.5" stroke-linecap="round" stroke-linejoin="round" x1="209.573" y1="109.161" x2="280.021" y2="77.73"/>
				
					<line fill="none" stroke="#000000" stroke-width="0.5" stroke-linecap="round" stroke-linejoin="round" x1="205.753" y1="104.536" x2="277.348" y2="72.744"/>
				
					<line fill="none" stroke="#000000" stroke-width="0.5" stroke-linecap="round" stroke-linejoin="round" x1="201.946" y1="99.924" x2="274.209" y2="67.772"/>
				
					<line fill="none" stroke="#000000" stroke-width="0.5" stroke-linecap="round" stroke-linejoin="round" x1="198.186" y1="95.371" x2="271.231" y2="62.841"/>
				
					<line fill="none" stroke="#000000" stroke-width="0.5" stroke-linecap="round" stroke-linejoin="round" x1="194.705" y1="90.678" x2="268.646" y2="57.976"/>
				
					<line fill="none" stroke="#000000" stroke-width="0.5" stroke-linecap="round" stroke-linejoin="round" x1="190.588" y1="86.169" x2="265.623" y2="52.828"/>
				
					<line fill="none" stroke="#000000" stroke-width="0.5" stroke-linecap="round" stroke-linejoin="round" x1="194.127" y1="78.132" x2="226.942" y2="119.328"/>
				
					<line fill="none" stroke="#000000" stroke-width="0.5" stroke-linecap="round" stroke-linejoin="round" x1="201.724" y1="74.793" x2="233.824" y2="116.454"/>
				
					<line fill="none" stroke="#000000" stroke-width="0.5" stroke-linecap="round" stroke-linejoin="round" x1="209.321" y1="71.455" x2="240.705" y2="113.58"/>
				
					<line fill="none" stroke="#000000" stroke-width="0.5" stroke-linecap="round" stroke-linejoin="round" x1="216.917" y1="68.116" x2="247.587" y2="110.705"/>
				
					<line fill="none" stroke="#000000" stroke-width="0.5" stroke-linecap="round" stroke-linejoin="round" x1="224.514" y1="64.778" x2="254.468" y2="107.831"/>
				
					<line fill="none" stroke="#000000" stroke-width="0.5" stroke-linecap="round" stroke-linejoin="round" x1="232.11" y1="61.439" x2="261.351" y2="104.957"/>
				
					<line fill="none" stroke="#000000" stroke-width="0.5" stroke-linecap="round" stroke-linejoin="round" x1="239.707" y1="58.101" x2="268.232" y2="102.082"/>
				
					<line fill="none" stroke="#000000" stroke-width="0.5" stroke-linecap="round" stroke-linejoin="round" x1="247.304" y1="54.762" x2="275.115" y2="99.208"/>
				
					<line fill="none" stroke="#000000" stroke-width="0.5" stroke-linecap="round" stroke-linejoin="round" x1="254.9" y1="51.424" x2="281.994" y2="96.334"/>
			</g>
			<g>
				<path fill="none" stroke="#4D4D4F" stroke-width="2" stroke-linecap="round" stroke-linejoin="round" d="M218.41,119.863
					c1.051,1.272,3.155,1.792,4.677,1.155l63.108-26.427c1.522-0.637,2.095-2.329,1.272-3.76l-23.157-40.287
					c-0.822-1.431-2.729-2.055-4.239-1.388l-70.537,31.2c-1.509,0.667-1.884,2.254-0.833,3.527L218.41,119.863z"/>
			</g>
		</g>
		
			<line fill="none" stroke="#000000" stroke-width="2" stroke-linecap="round" stroke-linejoin="round" x1="337.993" y1="436.548" x2="238.155" y2="84.434"/>
		<g>
			<g>
				<line fill="none" stroke="#0DB14B" stroke-width="2" x1="290.241" y1="266.944" x2="290.241" y2="383.901"/>
				<g>
					<polygon fill="#0DB14B" points="286.755,381.523 290.241,394.532 293.728,381.523 					"/>
				</g>
			</g>
		</g>
		<g>
			<g>
				<line fill="none" stroke="#0DB14B" stroke-width="2" x1="290.241" y1="266.686" x2="317.955" y2="364.855"/>
				<g>
					<polygon fill="#0DB14B" points="313.954,363.515 320.844,375.087 320.664,361.62 					"/>
				</g>
			</g>
		</g>
		<polygon opacity="0.7" fill="#BCBEC0" stroke="#000000" stroke-linecap="round" points="365.227,399.479 526,254.701 
			258.356,208.056 26,279.723 		"/>
		
			<polygon opacity="0.6" fill="#B2CEE7" stroke="#000000" stroke-width="0.5" stroke-linecap="round" stroke-linejoin="round" points="
			164.417,237.715 213.621,98.02 343.557,103.099 290.061,267.427 		"/>
		<polyline fill="#FFC20E" points="254.736,139.382 330.012,144.705 290.596,266.377 		"/>
		<g>
			<g>
				<path fill="none" stroke="#003468" stroke-miterlimit="10" d="M328.227,139.577c-11.767-5.676-24.556-8.788-37.928-8.788
					c-9.31,0-18.338,1.509-26.935,4.341"/>
				<g>
					<polygon fill="#003468" points="264.213,131.767 255.098,138.315 266.266,137.202 					"/>
				</g>
			</g>
		</g>
		
			<polygon opacity="0.4" fill="#86B2D8" stroke="#000000" stroke-width="0.5" stroke-linecap="round" stroke-linejoin="round" points="
			290.272,266.377 374.155,228.238 382.172,75.267 290.272,79.511 		"/>
		<polyline fill="#FFF200" points="318.837,179.125 290.793,266.377 290.826,187.087 		"/>
		<g>
			<g>
				<line fill="none" stroke="#ED1C24" stroke-width="2" x1="290.241" y1="266.686" x2="380.414" y2="225.17"/>
				<g>
					<polygon fill="#ED1C24" points="379.713,229.332 390.071,220.725 376.797,222.998 					"/>
				</g>
			</g>
		</g>
		<g>
			<g>
				<line fill="none" stroke="#00AEEF" stroke-width="2" x1="290.241" y1="266.686" x2="148.473" y2="233.375"/>
				<g>
					<polygon fill="#00AEEF" points="151.585,230.524 138.124,230.943 149.99,237.312 					"/>
				</g>
			</g>
		</g>
		<g>
			<path fill="#9D9FA2" stroke="#000000" stroke-linecap="round" stroke-linejoin="round" d="M344.72,442.325
				c0.217,0.818-1.854,2.078-4.625,2.814c-2.771,0.737-5.194,0.67-5.411-0.148v0.014c0,0,2.471,9.56,3.528,13.719
				c0.89,3.499,5.181,5.567,8.19,3.208l-0.061,0.057c1.046-0.977,1.994-2.171,2.033-3.686
				C348.416,456.737,344.72,442.325,344.72,442.325z"/>
		</g>
		
			<ellipse transform="matrix(0.9665 -0.2567 0.2567 0.9665 -102.5173 102.0852)" fill="none" stroke="#000000" stroke-linecap="round" stroke-linejoin="round" cx="339.702" cy="443.658" rx="5.192" ry="1.533"/>
		<g>
			<path fill="#FEDA00" d="M344.25,441.836c-1.155-0.564-4.127-0.233-6.636,0.742c-2.513,0.978-3.609,2.228-2.455,2.796
				c1.153,0.564,4.127,0.232,6.634-0.747C344.304,443.649,345.403,442.402,344.25,441.836z"/>
			<path d="M340.08,443.424c0.114,0.055-0.002,0.18-0.254,0.279c-0.253,0.099-0.549,0.131-0.665,0.075
				c-0.111-0.053-0.001-0.179,0.257-0.278C339.67,443.401,339.965,443.368,340.08,443.424z"/>
			<path d="M339.534,444.046c-0.443,0.093-0.853,0.103-1.05,0.003c-0.016-0.007-0.028-0.014-0.04-0.022l-2.786,1.084
				c0.015,0.007,0.029,0.015,0.043,0.021c0.673,0.329,2.05,0.308,3.539,0.002L339.534,444.046z"/>
			<path d="M340.624,443.622c0.261-0.181,0.329-0.36,0.129-0.457c-0.012-0.007-0.028-0.014-0.047-0.021l2.784-1.082
				c0.018,0.006,0.032,0.013,0.046,0.021c0.67,0.331,0.464,0.925-0.405,1.536L340.624,443.622z"/>
			<path d="M338.539,443.643c0.259-0.18,0.68-0.374,1.163-0.474c0.037-0.008,0.072-0.015,0.107-0.02l0.313-1.071
				c-0.036,0.006-0.073,0.014-0.109,0.021c-1.633,0.343-3.104,0.964-3.996,1.576L338.539,443.643z"/>
		</g>
		<text transform="matrix(0.8999 0 0 1 53.1592 284.208)" font-size="11">XZ plane</text>
		<text transform="matrix(1 0 0 1 312.8691 268.876)" font-size="14">Isocenter</text>
		<text transform="matrix(1 0 0 1 297.6729 282.0205)" font-size="14">O</text>
		
			<line fill="none" stroke="#000000" stroke-width="0.5" stroke-linecap="round" stroke-linejoin="round" stroke-dasharray="2,3" x1="290.299" y1="266.944" x2="332.915" y2="135.789"/>
		
			<line fill="none" stroke="#000000" stroke-width="0.5" stroke-linecap="round" stroke-linejoin="round" stroke-dasharray="2,3" x1="290.299" y1="266.944" x2="254.736" y2="139.382"/>
		
			<line fill="none" stroke="#000000" stroke-width="0.5" stroke-linecap="round" stroke-linejoin="round" stroke-dasharray="2,3" x1="290.096" y1="266.944" x2="291.032" y2="38.596"/>
		
			<line fill="none" stroke="#000000" stroke-width="0.5" stroke-linecap="round" stroke-linejoin="round" stroke-dasharray="2,3" x1="290.096" y1="266.944" x2="90.969" y2="220.725"/>
		
			<line fill="none" stroke="#000000" stroke-width="0.5" stroke-linecap="round" stroke-linejoin="round" stroke-dasharray="2,3" x1="290.096" y1="266.944" x2="418.303" y2="208.056"/>
		<g>
			<path stroke="#000000" stroke-miterlimit="1" d="M297.596,266.252c0-3.868-3.132-7-7-7v7H297.596z"/>
			
				<path fill="#FFFFFF" stroke="#010101" stroke-width="0.75" stroke-linecap="round" stroke-linejoin="round" stroke-miterlimit="1" d="
				M290.596,259.252c-3.866,0-7,3.132-7,7h7V259.252z"/>
			<path stroke="#000000" stroke-miterlimit="1" d="M283.596,266.252c0,3.866,3.134,7,7,7v-7H283.596z"/>
			
				<path fill="#FFFFFF" stroke="#010101" stroke-width="0.75" stroke-linecap="round" stroke-linejoin="round" stroke-miterlimit="1" d="
				M290.596,266.252v7c3.868,0,7-3.134,7-7H290.596z"/>
		</g>
		<g>
			<text transform="matrix(0.8999 0 0 1 336.7871 87.9141)" font-size="11">XY plane</text>
		</g>
		<g>
			<text transform="matrix(0.8999 0 0 1 421.709 204.3037)"><tspan x="0" y="0" font-size="11">Positioner Isocenter</tspan><tspan x="0" y="13.2" font-size="11">Primary Angle Ap</tspan><tspan x="85.59" y="16.2" font-size="9">1</tspan><tspan x="90.595" y="13.2" font-size="11"> = +90ยบ</tspan></text>
		</g>
		<g>
			<text transform="matrix(0.8999 0 0 1 23.459 200.6616)"><tspan x="0" y="0" font-size="11">Positioner Isocenter</tspan><tspan x="0" y="13.2" font-size="11">Secondary Angle Ap</tspan><tspan x="100.289" y="16.2" font-size="9">2</tspan><tspan x="105.294" y="13.2" font-size="11"> = +90ยบ</tspan></text>
		</g>
		<g>
			<text transform="matrix(0.8999 0 0 1 290.1699 21.4219)"><tspan x="0" y="0" font-size="11">Positioner Isocenter Primary Angle Ap</tspan><tspan x="185.861" y="3" font-size="9">1</tspan><tspan x="190.866" y="0" font-size="11"> = 0ยบ</tspan><tspan x="0" y="13.2" font-size="11">Positioner Isocenter Secondary Angle Ap</tspan><tspan x="200.562" y="16.2" font-size="9">2</tspan><tspan x="205.568" y="13.2" font-size="11"> = 0ยบ</tspan></text>
		</g>
		<g>
			<text transform="matrix(0.8999 0 0 1 187.877 193.9033)" font-size="11">YpZ plane</text>
		</g>
		<text transform="matrix(0.8999 0 0 1 195.3384 31.4688)"><tspan x="0" y="0" fill="#003468" font-size="14">Ap</tspan><tspan x="17.124" y="3" fill="#003468" font-size="14">3</tspan></text>
		<g>
			<g>
				<path fill="none" stroke="#003468" stroke-miterlimit="10" d="M310.566,170.903c-8.547-1.799-15.736,1.423-20.232,7.002"/>
				<g>
					<polygon fill="#003468" points="309.646,167.647 318.837,174.087 307.656,173.106 					"/>
				</g>
			</g>
		</g>
		
			<line fill="none" stroke="#000000" stroke-width="0.5" stroke-linecap="round" stroke-linejoin="round" stroke-dasharray="2,3" x1="290.826" y1="187.087" x2="318.837" y2="179.125"/>
		
			<line fill="none" stroke="#000000" stroke-width="0.5" stroke-linecap="round" stroke-linejoin="round" stroke-dasharray="2,3" x1="254.736" y1="139.382" x2="330.012" y2="144.577"/>
		<text transform="matrix(0.8999 0 0 1 294.2607 163.3354)"><tspan x="0" y="0" fill="#003468" font-size="14">Ap</tspan><tspan x="17.125" y="3" fill="#003468" font-size="14">1</tspan></text>
		<text transform="matrix(0.8999 0 0 1 292.0107 126.6118)"><tspan x="0" y="0" fill="#003468" font-size="14">Ap</tspan><tspan x="17.125" y="3" fill="#003468" font-size="14">2</tspan></text>
	</g>
</g>
</svg>
