<?xml version="1.0" encoding="utf-8"?>

<!DOCTYPE svg PUBLIC "-//W3C//DTD SVG 1.1//EN" "http://www.w3.org/Graphics/SVG/1.1/DTD/svg11.dtd">
<svg version="1.1" id="Layer_1" xmlns="http://www.w3.org/2000/svg" xmlns:xlink="http://www.w3.org/1999/xlink" x="0px" y="0px"
	 width="502px" height="353.773px" viewBox="0 0 502 353.773" enable-background="new 0 0 502 353.773" xml:space="preserve">

<defs>
	<style type="text/css">
	text {
	  font-family: Helvetica, Verdana, ArialUnicodeMS, san-serif
	}
	</style>
</defs>

<g>
   <desc>
	PS 3.3 Part 3: Information Object Definitions
   </desc>
</g>

<g>
	<rect x="1" y="1" fill="#F5EED8" width="500" height="351.773"/>
	<g>
		<g>
			<polygon fill="#FFFFFF" stroke="#000000" stroke-linecap="round" stroke-linejoin="round" points="303.811,266.712 
				346.924,286.572 339.631,327.244 283.52,298.753 278.691,296.332 270.078,291.154 262.375,285.81 255.791,280.47 
				250.494,275.302 246.587,270.441 244.142,266.033 243.173,262.167 243.68,258.943 245.61,256.419 248.888,254.652 
				253.424,253.673 259.09,253.511 265.744,254.148 273.229,255.599 281.361,257.832 289.951,260.779 298.779,264.402 			"/>
			<polygon fill="#FFFFFF" stroke="#000000" stroke-linecap="round" stroke-linejoin="round" points="228.863,207.144 
				261.893,184.681 417.219,244.81 390.326,276.597 			"/>
			<polyline fill="#E7E8E9" stroke="#000000" stroke-linecap="round" stroke-linejoin="round" points="389.064,281.99 
				415.869,250.011 417.219,244.81 390.326,276.597 			"/>
			<polygon fill="#E7E8E9" stroke="#000000" stroke-linecap="round" stroke-linejoin="round" points="389.125,281.91 
				383.756,304.826 357.326,337.554 370.527,273.902 389.064,281.99 			"/>
			<polygon fill="#BDBFC1" stroke="#000000" stroke-linecap="round" stroke-linejoin="round" points="228.794,211.667 
				228.863,207.144 390.326,276.597 389.064,281.99 370.527,273.902 357.326,337.554 339.631,327.244 350.861,264.63 			"/>
		</g>
		<polygon fill="#8AB4D7" stroke="#000000" stroke-linecap="round" points="244.611,176.887 237.389,181.652 220.234,174.272 
			205.631,183.908 222.19,191.68 210.728,199.243 351.49,259.73 377.461,229.363 		"/>
		<g display="none">
			<polygon display="inline" fill="#B4CFE6" stroke="#000000" points="231.5,179.177 230.975,178.357 229.135,176.852 
				227.758,175.883 221.37,172.145 218.107,171.697 215.542,171.484 212.31,172.551 210.546,173.688 208.666,175.277 
				207.481,177.412 207.243,179.654 207.396,181.431 208.511,184.226 210.423,185.656 212.957,187.486 220.678,188.904 
				222.492,189.101 225.054,189.308 226.16,189.066 228.563,188.13 230.606,186.269 231.912,183.849 232.232,181.326 			"/>
			<polygon display="inline" fill="#B4CFE6" stroke="#000000" points="254.314,181.724 253.367,180.138 252.064,179.048 
				250.671,178.675 249.113,178.314 247.609,178.832 246.117,179.529 245.152,180.927 244.516,182.171 244.324,183.773 
				244.747,185.539 245.698,187.123 246.996,188.22 248.386,188.617 249.948,188.917 251.458,188.439 252.917,187.701 
				253.912,186.337 254.492,185.076 254.717,183.49 			"/>
			<polygon display="inline" fill="#B4CFE6" stroke="#000000" points="234.417,182.378 233.648,181.201 232.441,179.898 
				230.875,179.343 229.236,178.964 227.753,179.474 226.359,179.984 225.167,181.205 224.423,182.898 224.281,184.718 
				224.761,186.291 225.494,187.503 226.746,188.767 228.296,189.357 229.939,189.675 231.431,189.208 232.804,188.667 
				233.968,187.435 234.701,185.757 234.863,183.957 			"/>
			<polygon display="inline" fill="#B4CFE6" stroke="#000000" points="275.488,187.58 275.357,187.22 274.652,186.207 
				274.232,185.949 265.713,182.744 260.232,180.751 258.789,180.394 254.469,180.066 253.521,180.41 252.332,180.982 
				251.992,181.361 251.099,182.49 250.525,184.023 250.383,185.654 250.703,187.046 250.835,187.576 251.662,188.593 
				252.347,189.392 256.281,191.351 262.102,192.474 263.4,192.726 272.268,194.335 272.748,194.33 273.836,193.705 
				274.104,193.476 274.973,192.281 275.557,190.693 275.738,189.019 			"/>
			<polygon display="inline" fill="#B4CFE6" stroke="#000000" points="256.264,187.718 255.494,186.324 253.588,184.652 
				251.312,183.382 244.165,179.451 238.726,178.529 235.657,178.152 232.316,179.382 231.327,180.128 228.942,182.269 
				227.406,185.111 227.042,188.062 227.05,189.138 228.126,192.138 230.476,193.9 234.99,196.646 243.384,198.392 246.066,198.933 
				248.8,199.078 250.573,198.58 253.018,197.486 255.133,195.408 256.52,192.751 256.926,190.017 			"/>
			<polygon display="inline" fill="#B4CFE6" stroke="#000000" points="279.137,189.132 278.361,187.925 277.316,187.13 
				276.41,186.931 275.027,186.646 273.846,187.125 272.738,187.695 271.994,188.839 271.568,189.804 271.436,191.074 
				271.793,192.445 272.566,193.648 273.607,194.453 274.713,194.699 275.896,194.917 277.084,194.464 278.172,193.869 
				278.938,192.746 279.33,191.771 279.48,190.507 			"/>
			<polygon display="inline" fill="#B4CFE6" stroke="#000000" points="298.955,193.054 298.789,192.683 298.141,191.759 
				297.633,191.5 289.977,188.837 288.77,188.546 279.891,187.037 278.627,187.015 277.932,187.218 276.848,187.785 275.926,189.05 
				275.818,189.228 275.307,190.753 275.209,192.365 275.242,192.574 275.617,194.117 276.4,195.082 276.965,195.552 
				278.133,196.05 286.842,198.31 288.057,198.542 296.088,199.242 296.652,199.214 297.598,198.636 297.891,198.367 
				298.619,197.287 299.084,195.853 299.205,194.345 			"/>
			<polygon display="inline" fill="#B4CFE6" stroke="#000000" points="263.924,190.507 262.367,188.412 260.562,186.234 
				257.695,185.24 255.137,184.646 252.387,185.486 250.146,186.404 248.183,188.546 246.912,191.484 246.593,194.601 
				247.291,197.257 248.738,199.441 250.671,201.505 253.504,202.605 256.078,203.019 258.848,202.312 261.023,201.287 
				262.906,199.121 264.148,196.234 264.512,193.169 			"/>
			<polygon display="inline" fill="#B4CFE6" stroke="#000000" points="233.214,190.548 232.755,189.574 232.152,188.871 
				230.988,187.628 229.859,187.091 227.796,186.626 225.742,187.287 224.585,187.669 223.187,189.253 222.642,190.337 
				222.428,192.052 222.394,192.968 222.632,194.021 223.099,195.003 223.698,195.722 224.914,196.916 226.029,197.488 
				228.099,197.892 229.267,197.564 231.293,196.859 232.642,195.257 233.226,194.205 233.384,192.496 233.439,191.591 			"/>
			<polygon display="inline" fill="#B4CFE6" stroke="#000000" points="280.682,194.238 280.523,193.869 278.479,191.914 
				276.137,190.156 272.477,188.839 264.383,188.029 261.621,187.757 258.564,189.068 258.297,189.195 255.67,191.759 
				253.918,195.107 253.416,198.535 253.492,198.781 254.367,201.681 256.432,203.33 262.699,207.824 266.379,209.203 
				269.533,209.441 272.58,209.486 273.014,209.324 276.158,207.703 278.912,204.773 278.967,204.669 280.73,201.183 
				280.775,201.095 281.406,197.353 			"/>
			<polygon display="inline" fill="#B4CFE6" stroke="#000000" points="250.453,198.833 249.371,197.722 249.046,197.396 
				242.132,193.005 237.713,190.287 233.873,189.419 232.103,189.039 230.214,189.664 229.657,189.849 228.229,191.175 
				227.328,193.015 227.134,194.994 227.683,196.703 227.96,197.482 229.296,198.74 232.326,201.273 237.167,203.132 
				244.857,205.964 246.41,206.226 246.816,206.277 248.41,205.662 249.783,204.31 249.834,204.224 250.647,202.562 
				250.675,202.482 250.916,200.531 			"/>
			<polygon display="inline" fill="#B4CFE6" stroke="#000000" points="302.928,194.71 302.312,193.621 301.408,192.853 
				300.395,192.564 299.494,192.363 298.352,192.664 297.473,193.177 296.678,194.08 296.383,194.978 296.146,196.041 
				296.359,197.23 296.977,198.318 297.881,199.089 298.891,199.39 299.791,199.564 300.938,199.285 301.801,198.748 
				302.613,197.863 302.885,196.957 303.133,195.902 			"/>
			<polygon display="inline" fill="#B4CFE6" stroke="#000000" points="288.223,198.378 287.881,196.691 287.076,195.617 
				285.639,194.125 283.643,193.63 282.24,193.318 280.354,193.976 279.137,194.615 278.078,196.019 277.695,196.777 
				277.322,197.818 277.232,198.914 277.234,199.898 277.617,201.582 278.465,202.621 279.871,204.142 281.859,204.679 
				283.264,204.917 285.162,204.308 286.35,203.628 287.377,202.212 287.828,201.498 288.199,200.453 288.301,199.355 			"/>
			<polygon display="inline" fill="#B4CFE6" stroke="#000000" points="313.816,198.65 313.014,197.501 312.5,197.248 
				308.623,195.419 306.146,194.908 303.18,194.91 302.506,195.041 301.354,195.488 300.932,195.746 300.545,196.136 
				300.275,196.582 300.174,196.992 300.385,197.746 300.545,198.277 302.439,199.689 303.096,199.986 305.369,200.876 
				309.977,201.533 311.941,201.15 312.418,201.039 312.951,200.685 313.273,200.46 313.564,200.148 313.771,199.794 
				313.852,199.472 313.918,199.037 			"/>
			<polygon display="inline" fill="#B4CFE6" stroke="#000000" points="317.404,204.093 317.312,203.806 316.57,202.63 
				316.107,202.365 314.992,202.126 314.664,202.087 314.67,202.087 314.664,202.087 314.078,202.015 314.664,202.087 
				299.816,197.324 289.26,194.13 287.668,193.771 286.336,194.412 284.854,195.21 283.557,196.964 282.711,199.322 
				282.496,201.796 282.947,203.886 283.691,204.902 284.885,206.398 295.787,208.746 311.818,211.925 312.676,212.271 
				313.801,212.449 314.326,212.441 315.523,211.63 315.725,211.431 316.721,209.91 317.408,207.923 317.652,205.851 			"/>
			<polygon display="inline" fill="#B4CFE6" stroke="#000000" points="253.467,202.009 253.262,201.183 252.847,200.435 
				252.452,199.88 251.47,198.945 250.46,198.607 248.919,198.308 247.875,198.724 246.388,199.318 245.454,200.613 
				244.958,201.539 244.899,202.882 244.962,203.613 245.174,204.445 245.593,205.199 246.031,205.722 247,206.667 248.005,207.029 
				249.55,207.287 250.601,206.91 252.073,206.285 252.973,204.976 253.49,204.068 253.574,202.732 			"/>
			<polygon display="inline" fill="#B4CFE6" stroke="#000000" points="277.072,202.335 276.086,200.972 274.852,199.58 
				273.004,198.957 271.301,198.617 269.541,199.189 268.072,199.828 266.799,201.255 265.986,203.187 265.803,205.226 
				266.279,206.96 267.213,208.361 268.502,209.707 270.332,210.382 272.045,210.646 273.814,210.134 275.26,209.451 276.5,208.011 
				277.299,206.097 277.504,204.074 			"/>
			<polygon display="inline" fill="#B4CFE6" stroke="#000000" points="272.018,208.279 271.594,206.707 270.666,205.705 
				270.211,205.378 263.223,201.818 254.955,199.437 253.367,199.128 252.207,199.003 251.565,199.164 250.099,199.757 
				248.855,201.105 248.089,202.935 247.957,204.878 248.484,206.539 248.861,207.011 250.023,208.144 251.056,208.789 
				259.002,212.001 266.844,213.541 268.162,213.744 268.691,213.763 270.016,213.144 270.25,212.882 271.256,211.72 
				271.893,210.173 272.037,208.542 			"/>
			<polygon display="inline" fill="#B4CFE6" stroke="#000000" points="305.086,213.427 304.707,211.478 303.732,210.253 
				303.307,209.947 302.412,209.767 288.068,203.707 278.287,199.783 276.332,199.388 274.221,200.33 273.279,200.779 
				271.709,202.568 270.697,204.982 270.455,207.525 271.023,209.679 271.568,210.792 273.041,212.349 283.195,215.457 
				298.299,219.777 299.098,220.195 300.545,220.39 301.043,220.416 302.561,219.585 302.732,219.396 303.986,217.826 
				304.826,215.767 305.1,213.619 			"/>
			<polygon display="inline" fill="#B4CFE6" stroke="#000000" points="321.244,206.65 320.877,205.876 319.82,204.371 
				318.197,203.583 317.307,203.392 315.611,203.513 314.697,204.027 313.68,204.794 313.168,205.392 312.756,206.181 
				312.523,207.005 312.521,207.699 312.598,209.281 313,210.039 314.033,211.55 315.646,212.361 316.543,212.503 318.236,212.416 
				319.133,211.875 320.178,211.142 320.684,210.539 321.094,209.746 321.334,208.923 321.355,208.232 			"/>
			<polygon display="inline" fill="#B4CFE6" stroke="#000000" points="357.729,224.064 357.475,223.242 355.033,221.373 
				349.668,218.515 336.941,211.267 323.674,205.244 322.631,205.025 320.635,204.642 319.805,205.019 318.771,205.613 
				317.717,206.861 316.859,208.507 316.371,210.216 316.346,211.644 316.555,212.462 317.076,213.47 318.648,214.875 
				331.492,221.746 345.027,227.466 350.568,229.992 353.562,230.806 354.221,230.845 354.953,230.457 355.707,229.867 
				356.52,228.771 357.236,227.386 357.719,225.976 357.869,224.816 			"/>
			<polygon display="inline" fill="#B4CFE6" stroke="#000000" points="275.176,209.328 274.559,208.095 273.686,207.185 
				272.734,206.781 271.498,206.552 270.451,206.775 269.217,207.332 268.52,208.232 267.881,209.242 267.711,210.365 
				267.957,211.669 268.016,211.861 268.359,212.546 268.574,212.896 269.438,213.81 270.385,214.232 271.625,214.429 
				272.676,214.236 273.895,213.656 274.613,212.775 275.223,211.751 275.412,210.636 			"/>
			<polygon display="inline" fill="#B4CFE6" stroke="#000000" points="285.301,213.896 285.023,213.222 281.717,210.935 
				280.717,210.576 278.328,209.81 275.342,209.578 274.371,209.722 273.236,210.115 272.637,210.394 272.1,210.814 
				271.732,211.292 271.607,211.736 271.441,212.642 271.701,213.214 273.186,214.978 275.217,216.146 276.254,216.482 
				280.764,217.603 282.84,217.328 283.539,217.201 284.311,216.816 285.002,216.25 285.477,215.609 285.646,215.025 			"/>
			<polygon display="inline" fill="#B4CFE6" stroke="#000000" points="308.205,216.189 308.135,214.476 307.672,213.722 
				306.588,212.115 304.922,211.263 303.898,211.146 302.174,211.242 301.164,211.837 300.184,212.589 299.635,213.236 
				299.207,214.074 298.988,214.927 298.996,216.076 299.053,217.341 299.992,218.781 300.609,219.695 302.268,220.568 
				303.295,220.634 305.016,220.574 306.01,219.949 307.02,219.24 307.561,218.582 307.988,217.748 308.219,216.894 			"/>
			<polygon display="inline" fill="#B4CFE6" stroke="#000000" points="345.773,233.312 345.428,232.523 342.904,230.507 
				337.357,227.412 324.225,219.589 310.555,213.074 308.4,212.626 307.316,212.505 306.479,212.886 305.33,213.578 
				304.197,214.931 303.307,216.673 302.84,218.449 302.893,219.896 303.084,220.781 303.734,221.757 305.348,223.261 
				318.564,230.681 332.523,236.898 338.252,239.646 341.346,240.541 342.117,240.501 342.861,240.109 343.699,239.427 
				344.58,238.236 345.328,236.767 345.801,235.304 345.902,234.13 			"/>
			<polygon display="inline" fill="#B4CFE6" stroke="#000000" points="362.609,227.275 362.336,226.791 361.221,225.566 
				359.646,224.916 358.982,224.935 357.391,224.978 356.098,225.705 355.717,225.992 355.334,226.505 355.021,227.136 
				354.846,227.763 354.842,228.259 355.119,229.597 355.418,230.074 356.514,231.304 358.084,231.974 359.818,231.945 
				360.35,231.902 361.662,231.193 362.033,230.892 362.41,230.373 362.723,229.74 362.904,229.111 362.92,228.615 			"/>
			<g display="inline">
				<polygon fill="#B4CFE6" stroke="#000000" points="361.736,226.869 364.805,213.212 365.803,211.291 366.225,210.748 
					366.834,210.189 367.391,209.904 367.711,209.906 367.047,209.757 366.324,209.771 365.688,209.947 365.262,210.255 
					363.85,211.347 363.611,212.021 360.051,225.041 359.307,229.732 359.516,231.884 359.906,232.773 360.922,233.464 
					360.951,231.564 				"/>
				<polyline fill="#B4CFE6" stroke="#000000" points="366.834,210.189 366.225,210.748 365.803,211.291 364.805,213.212 
					361.736,226.869 360.951,231.564 360.922,233.464 361.191,233.595 364.678,230.759 365.08,230.085 365.803,227.664 
					366.668,222.996 368.211,210.72 367.711,209.906 367.391,209.904 366.834,210.189 				"/>
			</g>
			<polygon display="inline" fill="#B4CFE6" stroke="#000000" points="350.604,238.566 350.326,237.099 349.979,236.642 
				348.828,235.316 347.201,234.603 345.416,234.632 344.791,234.708 343.477,235.441 343.051,235.775 342.633,236.333 
				342.303,237.009 342.135,237.66 342.154,238.164 342.402,239.63 342.775,240.074 343.904,241.408 345.527,242.146 
				347.326,242.132 347.943,242.027 349.281,241.31 349.697,240.964 350.111,240.396 350.436,239.722 350.613,239.07 			"/>
			<g display="inline">
				<polygon fill="#B4CFE6" stroke="#000000" points="348.939,237.14 351.77,222.97 352.836,220.908 353.297,220.31 
					353.979,219.675 354.615,219.322 354.988,219.287 354.289,219.125 353.518,219.154 352.822,219.369 352.342,219.726 
					350.904,220.845 350.594,221.623 347.279,235.08 346.664,239.906 346.969,242.109 347.322,243.113 348.357,243.886 
					348.281,241.968 				"/>
				<polyline fill="#B4CFE6" stroke="#000000" points="353.979,219.675 353.297,220.31 352.836,220.908 351.77,222.97 
					348.939,237.14 348.281,241.968 348.357,243.886 348.68,243.982 352.588,240.703 353.02,239.978 353.732,237.455 
					354.486,232.648 355.617,220.056 354.988,219.287 354.615,219.322 353.979,219.675 				"/>
			</g>
		</g>
		<g>
			<polygon fill="#E7E8E9" stroke="#000000" stroke-linecap="round" stroke-linejoin="round" points="142.519,65.191 
				151.193,169.941 125.499,185.126 110.461,55.015 			"/>
			<polygon fill="#E7E8E9" stroke="#000000" stroke-linecap="round" stroke-linejoin="round" points="234.494,69.279 
				263.408,55.162 262.33,79.093 234.117,94.258 			"/>
			<polygon fill="#FFFFFF" stroke="#000000" stroke-linecap="round" stroke-linejoin="round" points="234.494,69.279 86.782,26.772 
				118.039,17.039 263.408,55.162 			"/>
			<polygon fill="#BDBFC1" stroke="#000000" stroke-linecap="round" stroke-linejoin="round" points="234.494,69.279 86.782,26.772 
				107.177,176.209 125.499,185.126 110.461,55.015 234.117,94.258 			"/>
		</g>
		<g>
			<g>
				<line fill="none" stroke="#EB222F" stroke-width="2" x1="238.234" y1="121.11" x2="279.264" y2="95.689"/>
				<g>
					<polygon fill="#EB222F" points="279.078,99.905 288.301,90.09 275.406,93.978 					"/>
				</g>
			</g>
		</g>
		<g>
			<path fill="none" stroke="#21B152" d="M159.815,117.646"/>
		</g>
		<g>
			<g>
				<line fill="none" stroke="#21B152" stroke-width="2" x1="238.225" y1="119.604" x2="238.225" y2="152.439"/>
				<g>
					<polygon fill="#21B152" points="234.738,150.061 238.224,163.07 241.711,150.062 					"/>
				</g>
			</g>
		</g>
		<text transform="matrix(1 0 0 1 180.9668 175.7607)"><tspan x="0" y="0" fill="#00B0ED" font-size="12">Z</tspan><tspan x="8.415" y="5" fill="#00B0ED" font-size="9">t</tspan></text>
		<text transform="matrix(1 0 0 1 258.1309 249.1401)"><tspan x="0" y="0" fill="#21B152" font-size="12">Y</tspan><tspan x="8.752" y="5" fill="#21B152" font-size="9">t</tspan></text>
		<g>
			<g>
				<line fill="none" stroke="#00B0ED" stroke-width="2" x1="237.808" y1="120.72" x2="190.896" y2="102.308"/>
				<g>
					<polygon fill="#00B0ED" points="194.383,99.931 181,98.423 191.836,106.421 					"/>
				</g>
			</g>
		</g>
		<text transform="matrix(1 0 0 1 276.9941 211.9917)"><tspan x="0" y="0" font-size="12">O</tspan><tspan x="9.418" y="5" font-size="9">t</tspan></text>
		<g>
			<g>
				<line fill="none" stroke="#21B152" stroke-width="2" x1="271.287" y1="202.167" x2="271.287" y2="235.757"/>
				<g>
					<polygon fill="#21B152" points="267.801,233.379 271.287,246.388 274.773,233.379 					"/>
				</g>
			</g>
		</g>
		<g>
			<g>
				<line fill="none" stroke="#EB222F" stroke-width="2" x1="271.33" y1="201.906" x2="301.956" y2="185.019"/>
				<g>
					<polygon fill="#EB222F" points="301.557,189.22 311.266,179.886 298.19,183.115 					"/>
				</g>
			</g>
		</g>
		<text transform="matrix(1 -0.0019 0.0019 1 164.0513 101.7139)" fill="#00B0ED" font-size="12.5">+Z</text>
		<text transform="matrix(1 -0.0019 0.0019 1 288.3008 88.3809)" fill="#EB222F" font-size="12.5">+X</text>
		<text transform="matrix(1 -0.0019 0.0019 1 216.7178 163.0474)" fill="#21B152" font-size="12.5">+Y</text>
		<text transform="matrix(1 -0.0048 0.0048 1 253.9355 146.251)" font-size="12.5">(Tx, Ty, Tz)</text>
		<g>
			<text transform="matrix(1 -3.400000e-04 3.400000e-04 1 238.397 112.9175)" font-size="12.5">O</text>
		</g>
		<g>
			<g>
				
					<line fill="none" stroke="#000000" stroke-width="2" stroke-dasharray="1,1" x1="266.928" y1="191.561" x2="237.933" y2="119.845"/>
				<g>
					<polygon points="269.269,188.05 270.912,201.417 262.804,190.664 					"/>
				</g>
			</g>
		</g>
		<g>
			<g>
				<line fill="none" stroke="#00B0ED" stroke-width="2" x1="271.287" y1="202.167" x2="199.897" y2="174.142"/>
				<g>
					<polygon fill="#00B0ED" points="203.385,171.766 190.001,170.257 200.837,178.255 					"/>
				</g>
			</g>
		</g>
		<text transform="matrix(1 0 0 1 313.6035 178.2622)"><tspan x="0" y="0" fill="#EB222F" font-size="12">X</tspan><tspan x="8.752" y="5" fill="#EB222F" font-size="9">t</tspan></text>
		<g>
			<path stroke="#000000" stroke-miterlimit="1" d="M242.902,119.624c0.002-2.763-2.238-4.999-5.001-4.999v5.003L242.902,119.624z"
				/>
			
				<path fill="#FFFFFF" stroke="#010101" stroke-width="0.75" stroke-linecap="round" stroke-linejoin="round" stroke-miterlimit="1" d="
				M237.901,114.625c-2.761,0-4.999,2.24-4.999,5.004l4.999-0.001V114.625z"/>
			<path stroke="#000000" stroke-miterlimit="1" d="M232.902,119.628c0.002,2.761,2.241,4.999,5.002,4.998l-0.003-4.999
				L232.902,119.628z"/>
			
				<path fill="#FFFFFF" stroke="#010101" stroke-width="0.75" stroke-linecap="round" stroke-linejoin="round" stroke-miterlimit="1" d="
				M237.901,119.627l0.003,4.999c2.761-0.002,5-2.242,4.998-5.003L237.901,119.627z"/>
		</g>
	</g>
</g>
</svg>
