<?xml version="1.0" encoding="utf-8"?>

<svg version="1.1" id="Layer_1" xmlns="http://www.w3.org/2000/svg" xmlns:xlink="http://www.w3.org/1999/xlink" x="0px" y="0px"
	 viewBox="0 0 502 202" enable-background="new 0 0 502 202" xml:space="preserve">

<defs>
	<style type="text/css">
	text {
	  font-family: Helvetica, Verdana, ArialUnicodeMS, san-serif
	}
	</style>
</defs>

<g>
   <desc>
	PS 3.3 Part 3: Information Object Definitions
   </desc>
</g>

<g>
	<rect x="1" y="1" fill="#F2EDD6" width="500" height="200"/>
	<g>
		
			<rect x="311.626" y="111.45" fill="none" stroke="#C8C8C8" stroke-width="0.9996" stroke-linecap="square" stroke-miterlimit="10" width="113.135" height="14.194"/>
		<g>
			<g>
				
					<line fill="none" stroke="#000000" stroke-linecap="round" stroke-miterlimit="1" x1="276.276" y1="33.37" x2="276.276" y2="186.081"/>
				<g>
					<polygon points="273.952,34.956 276.276,26.283 278.6,34.956 					"/>
				</g>
			</g>
		</g>
		<g>
			<g>
				
					<line fill="none" stroke="#000000" stroke-linecap="round" stroke-miterlimit="1" x1="438.875" y1="161.128" x2="113.646" y2="161.128"/>
				<g>
					<polygon points="437.29,158.804 445.963,161.128 437.29,163.452 					"/>
				</g>
			</g>
		</g>
		
			<line fill="#808285" stroke="#939598" stroke-width="0.5" stroke-linecap="round" stroke-miterlimit="1" stroke-dasharray="4,2,1,2" x1="423.575" y1="68.865" x2="240.915" y2="68.865"/>
		
			<line fill="#808285" stroke="#939598" stroke-width="0.5" stroke-linecap="round" stroke-miterlimit="1" stroke-dasharray="4,2,1,2" x1="311.086" y1="83.065" x2="240.915" y2="83.065"/>
		
			<line fill="#808285" stroke="#939598" stroke-width="0.5" stroke-linecap="round" stroke-miterlimit="1" stroke-dasharray="4,2,1,2" x1="311.303" y1="97.255" x2="241.131" y2="97.255"/>
		
			<line fill="#808285" stroke="#939598" stroke-width="0.5" stroke-linecap="round" stroke-miterlimit="1" stroke-dasharray="4,2,1,2" x1="311.303" y1="111.449" x2="241.131" y2="111.449"/>
		
			<line fill="#808285" stroke="#939598" stroke-width="0.5" stroke-linecap="round" stroke-miterlimit="1" stroke-dasharray="4,2,1,2" x1="311.086" y1="125.643" x2="240.915" y2="125.643"/>
		
			<line fill="#808285" stroke="#939598" stroke-width="0.5" stroke-linecap="round" stroke-miterlimit="1" stroke-dasharray="4,2,1,2" x1="424.76" y1="139.837" x2="242.099" y2="139.837"/>
		
			<line fill="#808285" stroke="#939598" stroke-width="0.5" stroke-linecap="round" stroke-miterlimit="1" stroke-dasharray="4,4" x1="127.787" y1="57.769" x2="127.787" y2="165.386"/>
		
			<line fill="#808285" stroke="#939598" stroke-width="0.5" stroke-linecap="round" stroke-miterlimit="1" stroke-dasharray="4,4" x1="240.915" y1="57.508" x2="240.915" y2="165.131"/>
		
			<line fill="#808285" stroke="#939598" stroke-width="0.5" stroke-linecap="round" stroke-miterlimit="1" stroke-dasharray="4,4" x1="311.626" y1="57.769" x2="311.626" y2="165.386"/>
		
			<line fill="#808285" stroke="#939598" stroke-width="0.5" stroke-linecap="round" stroke-miterlimit="1" stroke-dasharray="4,4" x1="424.75" y1="57.508" x2="424.75" y2="165.131"/>
		<rect x="273.621" y="15.918" fill="none" width="7.109" height="8.511"/>
		<text transform="matrix(0.9288 0 0 1 273.6208 22.3609)" font-size="9px">Y</text>
		<rect x="450.712" y="156.873" fill="none" width="7.109" height="8.511"/>
		<text transform="matrix(0.9288 0 0 1 450.7112 163.315)" font-size="9px">X</text>
		<text transform="matrix(0.9288 0 0 1 122.4437 176.6316)" font-size="9px">tail</text>
		<text transform="matrix(0.9288 0 0 1 236.501 176.6316)" font-size="9px">tip</text>
		<text transform="matrix(0.9288 0 0 1 306.2859 174.1488)" font-size="9px">tail</text>
		<text transform="matrix(0.9288 0 0 1 420.3431 174.1488)" font-size="9px">tip</text>
		
			<rect x="127.787" y="68.872" fill-rule="evenodd" clip-rule="evenodd" fill="#CCDEF0" stroke="#000000" stroke-miterlimit="1" width="113.135" height="14.194"/>
		
			<rect x="127.787" y="97.255" fill-rule="evenodd" clip-rule="evenodd" fill="#CCDEF0" stroke="#000000" stroke-miterlimit="1" width="113.135" height="14.194"/>
		
			<rect x="127.787" y="125.643" fill-rule="evenodd" clip-rule="evenodd" fill="#CCDEF0" stroke="#000000" stroke-miterlimit="1" width="113.135" height="14.194"/>
		
			<rect x="311.626" y="83.062" fill-rule="evenodd" clip-rule="evenodd" fill="#CCDEF0" stroke="#000000" stroke-miterlimit="1" width="113.135" height="14.194"/>
		
			<rect x="311.626" y="111.45" fill-rule="evenodd" clip-rule="evenodd" fill="#CCDEF0" stroke="#000000" stroke-miterlimit="1" width="113.135" height="14.194"/>
		<rect x="44.179" y="47.439" fill="none" width="76.552" height="92.398"/>
		<text transform="matrix(0.9288 0 0 1 51.5048 53.8819)"><tspan x="0" y="0" font-size="9px">Number of Parallel </tspan><tspan x="-5.981" y="10.8" font-size="9px">RT Beam Delimiters</tspan><tspan x="69.526" y="25.1" font-size="9px">5</tspan><tspan x="69.526" y="39.4" font-size="9px">4</tspan><tspan x="69.526" y="53.7" font-size="9px">3</tspan><tspan x="69.526" y="68" font-size="9px">2</tspan><tspan x="69.526" y="82.3" font-size="9px">1 </tspan></text>
	</g>
</g>
</svg>
