<?xml version="1.0" encoding="utf-8"?>
<!-- Generator: Adobe Illustrator 13.0.0, SVG Export Plug-In . SVG Version: 6.00 Build 14948)  -->
<!DOCTYPE svg PUBLIC "-//W3C//DTD SVG 1.1//EN" "http://www.w3.org/Graphics/SVG/1.1/DTD/svg11.dtd">
<svg version="1.1" id="Layer_1" xmlns="http://www.w3.org/2000/svg" xmlns:xlink="http://www.w3.org/1999/xlink" x="0px" y="0px"
	 width="508.667px" height="736.566px" viewBox="-20 -15 508.667 736.566" enable-background="new -20 -15 508.667 736.566"
	 xml:space="preserve">

<defs>
	<style type="text/css">
	text {
	  font-family: Helvetica, Verdana, ArialUnicodeMS, san-serif
	}
	</style>
</defs>

	<rect x="108.333" y="0.5" fill="#FFFFFF" stroke="#010101" width="270.833" height="543.167"/>
<g>
	<g>
		<polyline fill="none" stroke="#010101" points="163.327,261.558 164.637,270.166 155.891,267.135 		"/>
		<line fill="none" stroke="#010101" x1="157.406" y1="261.902" x2="164.534" y2="270.269"/>
	</g>
	<g>
		<polyline fill="none" stroke="#010101" points="155.909,280.406 164.515,279.099 161.486,287.842 		"/>
		<line fill="none" stroke="#010101" x1="156.251" y1="286.328" x2="164.618" y2="279.202"/>
	</g>
	<polygon id="Mouse_Body_1_" fill="#FFFFFF" stroke="#010101" points="193.341,302.821 155.202,275.259 193.341,247.7 284.92,247.7 
		300.833,275.259 284.92,302.821 	"/>
	<path id="ear_2_1_" fill="#FFFFFF" stroke="#010101" d="M181.912,287.219c0,0-2.795,11.721-7.915,15.67
		c-5.118,3.948-11.338,4.464-13.894,1.149c-2.555-3.312-0.478-9.198,4.641-13.146C169.864,286.945,181.912,287.219,181.912,287.219z
		"/>
	<path id="ear_1_1_" fill="#FFFFFF" stroke="#010101" d="M179.962,266.511c0,0-11.723-2.794-15.671-7.915
		c-3.949-5.117-4.465-11.338-1.152-13.894c3.311-2.555,9.198-0.478,13.146,4.642C180.234,254.465,179.962,266.511,179.962,266.511z"
		/>
	<path id="tail_1_" fill="none" stroke="#010101" d="M300.833,274.916c0,0,12.348,7.158,22.035,0
		c7.918-5.852,16.524-8.608,19.969-6.197c10.852,7.596-0.688,15.492-0.688,15.492"/>
</g>
<text transform="matrix(1 0 0 1 -5 509.834)" font-size="12">Gantry Front</text>
<text transform="matrix(1 0 0 1 -4.1665 43.502)" font-size="12">Gantry Rear</text>
<text transform="matrix(1 0 0 1 165.5 565.6689)" font-size="12">View from above gantry/table</text>
<text transform="matrix(1 0 0 1 178.5 706.6689)" font-size="12">View from front of gantry</text>
<text transform="matrix(1 0 0 1 -2.5 635.7832)" font-size="12">Gantry Left</text>
<text transform="matrix(1 0 0 1 406.9995 634.2832)" font-size="12">Gantry Right</text>
<rect x="108.333" y="583.5" fill="#FFFFFF" stroke="#010101" width="270.833" height="96.168"/>
<ellipse stroke="#000000" cx="173.833" cy="280.783" rx="3.5" ry="3"/>
<ellipse stroke="#000000" cx="173.833" cy="270.783" rx="3.5" ry="3"/>
<text transform="matrix(1 0 0 1 422.8335 273.7832)" font-size="12">Gantry</text>
<path fill="none" stroke="#000000" d="M400.833,331.783c0,6.627-5.373,12-12,12h-297c-6.627,0-12-5.373-12-12v-112
	c0-6.627,5.373-12,12-12h297c6.627,0,12,5.373,12,12V331.783z"/>
<text transform="matrix(1 0 0 1 221.8335 279.6348)" font-size="12">RFP</text>
<polygon id="Mouse_Body_2_" fill="#FFFFFF" stroke="#010101" points="193.117,659.821 147.833,645.783 195.833,612.783 
	285.833,613.783 312.833,644.783 287.443,659.821 "/>
<path id="ear_1_2_" fill="#FFFFFF" stroke="#010101" d="M188.962,626.512c0,0-11.723-2.795-15.671-7.915
	c-3.949-5.117-4.465-11.339-1.152-13.894c3.311-2.555,9.198-0.479,13.146,4.642S188.962,626.512,188.962,626.512z"/>
<path id="tail_2_" fill="none" stroke="#010101" d="M312.833,643.916c0,0,12.348,7.158,22.035,0
	c7.918-5.852,16.524-8.607,19.969-6.197c10.852,7.597-0.688,15.492-0.688,15.492"/>
<ellipse stroke="#000000" cx="180.833" cy="632.783" rx="3.5" ry="3"/>
<g>
	<polyline fill="none" stroke="#010101" points="150.909,647.406 159.515,646.099 156.486,654.842 	"/>
	<line fill="none" stroke="#010101" x1="151.251" y1="653.328" x2="159.618" y2="646.201"/>
</g>
<text transform="matrix(1 0 0 1 225.8335 640.6348)" font-size="12">RFP</text>
<text transform="matrix(1 0 0 1 207.8335 235.6348)" font-size="12">Mouse Right</text>
<text transform="matrix(1 0 0 1 205.8335 321.6348)" font-size="12">Mouse Left</text>
</svg>
