<?xml version="1.0" encoding="utf-8"?>

<!DOCTYPE svg PUBLIC "-//W3C//DTD SVG 1.1//EN" "http://www.w3.org/Graphics/SVG/1.1/DTD/svg11.dtd">
<svg version="1.1" id="Layer_1" xmlns="http://www.w3.org/2000/svg" xmlns:xlink="http://www.w3.org/1999/xlink" x="0px" y="0px"
	 width="602px" height="387px" viewBox="0 0 602 387" enable-background="new 0 0 602 387" xml:space="preserve">

<defs>
	<style type="text/css">
	text {
	  font-family: Helvetica, Verdana, ArialUnicodeMS, san-serif
	}
	</style>
</defs>

<g>
   <desc>
	PS 3.3 Part 3: Information Object Definitions
   </desc>
</g>

<g>
	<rect x="1" y="1" fill="#F5EED6" width="600" height="385"/>
	<g>
		<rect x="267.523" y="55.213" fill="#C0E2CA" stroke="#000000" width="66.715" height="317.404"/>
		<rect x="276.499" y="108.621" fill="#CCDEF0" stroke="#000000" width="49.749" height="183.649"/>
		<polyline fill="#FFF56D" points="335.938,291.861 301.468,140.079 267.523,291.861 		"/>
		<g>
			<line fill="none" stroke="#FFFFFF" stroke-miterlimit="10" x1="333.283" y1="292.44" x2="301.42" y2="140.079"/>
			<line fill="none" stroke="#FFFFFF" stroke-miterlimit="10" x1="327.947" y1="293.459" x2="301.42" y2="140.079"/>
			<line fill="none" stroke="#FFFFFF" stroke-miterlimit="10" x1="322.578" y1="294.291" x2="301.42" y2="140.079"/>
			<line fill="none" stroke="#FFFFFF" stroke-miterlimit="10" x1="317.182" y1="294.936" x2="301.42" y2="140.079"/>
			<line fill="none" stroke="#FFFFFF" stroke-miterlimit="10" x1="311.764" y1="295.392" x2="301.42" y2="140.079"/>
			<line fill="none" stroke="#FFFFFF" stroke-miterlimit="10" x1="306.338" y1="295.658" x2="301.42" y2="140.079"/>
			<line fill="none" stroke="#FFFFFF" stroke-miterlimit="10" x1="300.905" y1="295.735" x2="301.42" y2="140.079"/>
			<line fill="none" stroke="#FFFFFF" stroke-miterlimit="10" x1="295.473" y1="295.623" x2="301.42" y2="140.079"/>
			<line fill="none" stroke="#FFFFFF" stroke-miterlimit="10" x1="290.048" y1="295.321" x2="301.42" y2="140.079"/>
			<line fill="none" stroke="#FFFFFF" stroke-miterlimit="10" x1="284.637" y1="294.83" x2="301.42" y2="140.079"/>
			<line fill="none" stroke="#FFFFFF" stroke-miterlimit="10" x1="279.246" y1="294.15" x2="301.42" y2="140.079"/>
			<line fill="none" stroke="#FFFFFF" stroke-miterlimit="10" x1="273.882" y1="293.283" x2="301.42" y2="140.079"/>
			<line fill="none" stroke="#FFFFFF" stroke-miterlimit="10" x1="268.552" y1="292.229" x2="301.42" y2="140.079"/>
		</g>
		<polyline fill="none" stroke="#000000" stroke-width="0.5" stroke-miterlimit="10" points="335.938,291.861 301.42,140.079 
			267.523,291.861 		"/>
		<path fill="#B2CEE7" stroke="#000000" d="M339.834,308.943c0,2.81-17.285,5.088-38.614,5.088c-21.324,0-38.611-2.278-38.611-5.088
			h-0.197v-16.673h77.421V308.943z"/>
		<path fill="#CCDEF0" stroke="#000000" d="M324.469,109.24c0-4.057-10.41-7.345-23.247-7.346
			c-12.836,0.001-23.24,3.288-23.241,7.347l5.95,57.051l34.588-0.001L324.469,109.24z"/>
		<g>
			<ellipse fill="#FEDA00" cx="301.223" cy="142.36" rx="4.594" ry="4.722"/>
			<path d="M300.803,142.451c0-0.257,0.209-0.466,0.461-0.466c0.258,0,0.467,0.209,0.467,0.466c0,0.256-0.209,0.464-0.467,0.464
				C301.012,142.915,300.803,142.707,300.803,142.451z"/>
			<path d="M301.829,141.396c0.353,0.202,0.593,0.592,0.593,1.039c0,0.035-0.002,0.066-0.004,0.1h2.814
				c0.002-0.033,0.002-0.066,0.002-0.1c0-1.513-0.803-2.836-1.996-3.538L301.829,141.396z"/>
			<path d="M300.725,141.396c-0.357,0.202-0.598,0.592-0.598,1.039c0,0.035,0.002,0.066,0.004,0.1h-2.815c0-0.033,0-0.066,0-0.1
				c0-1.513,0.801-2.836,1.993-3.538L300.725,141.396z"/>
			<path d="M301.922,143.426c-0.352,0.206-0.811,0.276-1.197,0.054c-0.027-0.018-0.057-0.036-0.084-0.054l-1.408,2.436
				c0.029,0.018,0.057,0.035,0.086,0.053c1.311,0.756,2.857,0.629,4.062-0.053L301.922,143.426z"/>
		</g>
		<text transform="matrix(1 -0.0019 0.0019 1 475.6895 119.5718)" font-size="12">CW</text>
		<text transform="matrix(1 -0.0019 0.0019 1 106.332 119.5718)" font-size="12">CC</text>
		
			<line fill="none" stroke="#000000" stroke-width="0.5" stroke-dasharray="4,4" x1="301.242" y1="303.151" x2="301.242" y2="14.32"/>
		<g>
			<g>
				<path fill="none" stroke="#000000" stroke-miterlimit="10" stroke-dasharray="8,4" d="M468.604,101.984
					c-43.859-40.93-102.732-65.977-167.454-65.977c-64.289,0-122.805,24.712-166.569,65.154"/>
				<g>
					<polygon points="469.14,98.549 474.969,108.14 465.125,102.75 					"/>
				</g>
				<g>
					<polygon points="134.057,97.728 128.183,107.292 138.052,101.947 					"/>
				</g>
			</g>
		</g>
		<g>
			<polygon fill="#D89C7A" stroke="#000000" points="254.81,372.68 254.125,364.187 253.416,360.942 252.54,359.219 
				251.095,357.954 250.195,357.384 247.527,356.629 244.004,356.386 240.302,356.701 237.134,357.514 235.119,358.671 
				234.199,359.401 233.559,361.138 233.001,362.706 232.652,366.06 232.852,372.678 			"/>
			<path fill="#D89C7A" stroke="#000000" d="M248.434,346.785c0.918,0.909,1.836,1.818,2.754,2.728
				c0.688,0.682,0.888,2.71,1.179,3.646c0.722,2.321-1.063,4.906-2.254,6.641c-1.269,1.848-3.708,2.932-5.89,3.121
				c-2.144,0.185-5.251,0.241-6.936-1.423c-0.86-0.851-2.116-1.727-2.772-2.739c-0.653-1.009-0.875-2.43-1.243-3.572
				c-0.71-2.206,0.755-4.785,1.937-6.485c1.253-1.804,3.452-3.266,5.679-3.448C243.282,345.056,246.559,344.874,248.434,346.785z"/>
			<path fill="#D89C7A" stroke="#000000" d="M299.562,314.248c2.052,1.54,4.385,2.693,6.292,4.428
				c1.789,1.631,2.27,3.889,3.521,5.865c2.209,3.486,2.398,9.678,0.725,13.425c-4.701,10.518-15.562,16.97-27.148,12.693
				c-9.999-3.69-15.623-15.551-11.621-25.384C275.582,314.833,289.012,309.253,299.562,314.248
				C301.788,315.919,295.332,312.245,299.562,314.248z"/>
			<path fill="#D89C7A" stroke="#000000" d="M307.283,319.704c-10.676,3.896-23.96,3.871-34.534-0.351
				c-4.438-1.772-4.672-10.434-5.268-14.194c-1.199-7.576-2.397-15.152-3.596-22.729c-0.873-5.516,1.052-11.718,1.825-17.2
				c0.849-6.024,7.477-8.005,12.31-10.026c4.624-1.935,11.823-1.306,16.804-0.832c5.467,0.52,12.636,0.828,16.587,5.222
				c6.85,7.61,5.836,20.011,4.367,29.665c-0.85,5.592-1.674,11.188-2.551,16.775C312.586,310.115,312.207,318.027,307.283,319.704z"
				/>
			<path fill="#D89C7A" stroke="#000000" d="M335.342,270.101c1.439,2.283,3.412,5.063,3.154,7.954
				c-0.301,3.395-0.781,5.871-3.287,8.353c-1.137,1.125-2.252,1.91-3.592,2.799c-1.385,0.917-2.842,0.965-4.484,1.237
				c-3,0.498-5.438-0.233-8.027-1.689c-5.279-2.968-7.975-9.751-4.98-15.318c1.602-2.978,3.785-4.555,6.609-6.298
				c1.592-0.981,6.473-1.337,8.197-0.583C331.299,267.59,333.215,268.634,335.342,270.101z"/>
			<path fill="#D89C7A" stroke="#000000" d="M242.544,282.382c0.858,1.432,1.717,2.862,2.575,4.294
				c0.717,1.196,2.397,1.867,3.541,2.613c1.918,1.252,5.427,2.3,7.667,1.626c1.633-0.492,3.267-0.983,4.899-1.475
				c1.328-0.399,2.697-2.227,3.66-3.109c2.243-2.056,2.704-5.256,2.763-8.19c0.062-3.126-1.658-5.188-3.217-7.839
				c-0.571-0.972-2.72-1.85-3.654-2.472c-1.3-0.866-2.352-0.916-3.93-1.151c-5.88-0.878-11.99,2.174-13.97,7.957
				C242.135,276.812,241.406,280.224,242.544,282.382z"/>
			<path fill="#D89C7A" stroke="#000000" d="M284.684,256.787c-1.284-0.977-2.567-1.953-3.851-2.93
				c-1.154-0.878-1.575-2.242-2.228-3.53c-0.658-1.298-1.038-1.933-1.045-3.349c-0.007-1.229-0.469-3.406,0.084-4.523
				c0.764-1.543,1.528-3.085,2.292-4.628c0.57-1.15,2.601-2.141,3.603-2.913c1.83-1.412,5.366-2.369,7.633-1.871
				c1.505,0.331,3.392,0.437,4.802,1.056c1.455,0.639,2.876,2.211,4.139,3.181c1.916,1.472,2.947,5.018,2.947,7.345
				c0,3.144-0.387,6.07-2.518,8.66c-2.06,2.503-4.906,3.565-7.89,4.226C289.774,258.146,287.581,257.417,284.684,256.787z"/>
			<path fill="#D89C7A" stroke="#000000" d="M280.964,175.396c-1.919,1.065-5.78,2.262-7.083,3.992
				c-2.289,3.04-4.577,6.081-6.866,9.121c-2.528,3.358-2.776,9.63-2.089,13.729c1.271,7.585,2.543,15.171,3.815,22.756
				c0.526,3.139,1.967,12.417,6.437,12.746c5.708,0.419,11.58,1.374,17.296,0.949c7.034-0.522,13.615,0.927,17.234-5.928
				c2.273-4.305,2.494-10.724,3.262-15.464c0.672-4.157,1.346-8.314,2.018-12.472c0.301-1.858,1.205-4.341,0.807-6.223
				c-1.773-8.377-4.566-16.413-12.533-20.895C296.223,173.751,288.786,173.345,280.964,175.396z"/>
			<path fill="#D89C7A" stroke="#000000" d="M331.596,188.778c5.057,3.926,8.211,32.944,0.402,29.053
				C325.801,214.747,324.705,185.917,331.596,188.778z"/>
			<path fill="#D89C7A" stroke="#000000" d="M332.328,226.109c4.107,0.727,7.568,0.069,9.496-4.007
				c1.666-3.523-0.326-7.72-3.895-9.224c-3.816-1.61-7.9,0.585-9.527,4.051C326.588,220.788,328.92,224.232,332.328,226.109z"/>
			<path fill="#D89C7A" stroke="#000000" d="M346.947,220.431c4.947,4.479,9.895,8.958,14.842,13.437
				c1.496,1.354,2.701,3.125,3.994,4.668c2.828,3.374,5.652,6.751,8.48,10.126c1.65,1.968,3.1,3.828,4.494,5.986
				c1.756,2.714-0.703,4.628-2.637,6.29c-2.311,1.981-4.643,4.013-7.199,5.675c-2.9,1.885-4.953-0.226-7.225-2.135
				c-4.516-3.795-8.332-8.865-12.352-13.175c-3.338-3.577-5.984-7.197-8.805-11.22c-1.98-2.824-3.963-5.65-5.943-8.473
				c-1.346-1.923-1.686-3.223-0.1-5.197c1.688-2.1,3.471-3.864,5.736-5.342C342.764,219.422,344.426,218.573,346.947,220.431z"/>
			<path fill="#D89C7A" stroke="#000000" d="M375.664,275.236c2.814-0.418,4.158-0.771,6.533-2.31
				c1.908-1.237,2.648-3.665,2.881-5.782c0.5-4.584-3.381-8.561-7.961-8.872c-4.92-0.337-8.938,3.521-9.432,8.155
				C367.168,271.301,371.092,274.64,375.664,275.236z"/>
			<path fill="#D89C7A" stroke="#000000" d="M376.297,275.672c-9.188,4.617-22.908,11.066-33.242,11.5
				c-5.896,0.248-11.707,0.537-15.064-5.198c-2.768-4.726-2.266-11.119,2.076-14.89c8.705-7.557,23.688-6.789,34.389-7.836
				c3.986-0.391,10.33-1.77,12.904,2.461C380.043,266.117,381.07,272.104,376.297,275.672z"/>
			<polygon fill="#D89C7A" stroke="#000000" points="253.941,287.988 257.729,288.615 260.675,289.196 262.204,289.617 
				263.374,291.164 264.338,294.041 264.217,306.857 260.313,323.122 254.167,347.729 253.63,348.984 253.343,349.551 
				252.318,350.304 250.32,350.511 247.107,350.737 245.286,350.655 243.104,350.394 241,350.005 239.396,349.568 236.109,348.357 
				234.687,347.633 233.922,346.607 233.797,345.263 235.648,319.918 237.03,303.168 240.996,290.769 242.848,288.268 
				244.472,287.105 244.781,286.942 246.774,287.062 250.041,287.436 253.438,287.91 			"/>
			<path fill="#D89C7A" stroke="#000000" d="M317.619,372.678c0.031-1.778,0.061-3.557,0.092-5.335
				c-1.523-6.632-3.047-13.264-4.57-19.896c-1.143-4.968-9.689-4.539-13.687-4.738c-6.171-0.308-12.308-0.28-18.474,0.132
				c-4.523,0.303-11.905,0.054-13.125,5.497c-0.888,3.959-1.776,7.918-2.664,11.877c-0.521,2.325-1.769,5.297-1.714,7.695
				c0.011,0.472,0.016,2.779,0.063,4.767L317.619,372.678z"/>
		</g>
	</g>
</g>
</svg>
