<?xml version="1.0" encoding="utf-8"?>

<svg version="1.1" id="Layer_1" xmlns="http://www.w3.org/2000/svg" xmlns:xlink="http://www.w3.org/1999/xlink" x="0px" y="0px"
	 viewBox="0 0 502 347" enable-background="new 0 0 502 347" xml:space="preserve">

<defs>
	<style type="text/css">
	text {
	  font-family: Helvetica, Verdana, ArialUnicodeMS, san-serif
	}
	</style>
</defs>

<g>
   <desc>
	PS 3.3 Part 3: Information Object Definitions
   </desc>
</g>

<g>
	<rect x="1" y="1" fill="#F2EDD6" width="500" height="345"/>
	<g>
		<g>
			<g>
				
					<line fill="none" stroke="#005695" stroke-width="2" stroke-miterlimit="1" x1="357.279" y1="129.141" x2="357.279" y2="119.645"/>
				<g>
					<polygon fill="#005695" points="359.603,127.556 357.279,136.229 354.955,127.556 					"/>
				</g>
			</g>
		</g>
		<g>
			<g>
				
					<line fill="none" stroke="#005695" stroke-width="2" stroke-miterlimit="1" x1="148.857" y1="119.443" x2="148.857" y2="142.288"/>
				<g>
					<polygon fill="#005695" points="146.533,140.702 148.857,149.375 151.182,140.702 					"/>
				</g>
			</g>
		</g>
		<g>
			<g>
				<polyline fill="none" stroke="#005695" stroke-width="2" stroke-miterlimit="1" points="235.741,203.003 235.741,179.53 
					148.985,179.53 148.933,167.189 				"/>
				<g>
					<polygon fill="#005695" points="238.065,201.418 235.741,210.091 233.417,201.418 					"/>
				</g>
			</g>
		</g>
		<g>
			<g>
				
					<line fill="none" stroke="#005695" stroke-width="2" stroke-miterlimit="1" x1="250.859" y1="119.837" x2="250.859" y2="142.284"/>
				<g>
					<polygon fill="#005695" points="248.535,140.699 250.859,149.371 253.184,140.699 					"/>
				</g>
			</g>
		</g>
		<g>
			<g>
				<polyline fill="none" stroke="#005695" stroke-width="2" stroke-miterlimit="1" points="266.661,203.003 266.661,194.074 
					357.279,194.074 357.279,179.569 				"/>
				<g>
					<polygon fill="#005695" points="268.985,201.418 266.661,210.091 264.337,201.418 					"/>
				</g>
			</g>
		</g>
		<g>
			<g>
				
					<line fill="none" stroke="#005695" stroke-width="2" stroke-miterlimit="1" x1="251.051" y1="203.003" x2="251.051" y2="167.189"/>
				<g>
					<polygon fill="#005695" points="253.375,201.418 251.051,210.091 248.727,201.418 					"/>
				</g>
			</g>
		</g>
		<g>
			<g>
				<line fill="none" stroke="#005695" stroke-width="2" stroke-miterlimit="1" x1="148.93" y1="79.637" x2="148.874" y2="94.211"/>
				<g>
					<polygon fill="#005695" points="146.556,92.617 148.848,101.299 151.205,92.635 					"/>
				</g>
			</g>
		</g>
		<g>
			<g>
				<line fill="none" stroke="#005695" stroke-width="2" stroke-miterlimit="1" x1="148.93" y1="30.799" x2="148.874" y2="45.685"/>
				<g>
					<polygon fill="#005695" points="146.556,44.091 148.848,52.772 151.204,44.109 					"/>
				</g>
			</g>
		</g>
		
			<polygon fill="#CCDEF0" stroke="#010101" stroke-width="0.75" stroke-linecap="round" stroke-linejoin="round" stroke-miterlimit="1" points="
			103.925,158.237 148.858,149.375 193.923,158.364 193.923,158.386 148.858,167.375 		"/>
		<g>
			<text transform="matrix(1 0 0 1 132.1621 160.812)" font-size="9px">contains</text>
		</g>
		
			<polygon fill="#CCDEF0" stroke="#010101" stroke-width="0.75" stroke-linecap="round" stroke-linejoin="round" stroke-miterlimit="1" points="
			205.852,158.233 250.787,149.371 295.85,158.36 295.85,158.382 250.787,167.371 		"/>
		<g>
			<text transform="matrix(1 0 0 1 236.0947 160.812)" font-size="9px">creates</text>
		</g>
		
			<polygon fill="#CCDEF0" stroke="#010101" stroke-width="0.75" stroke-linecap="round" stroke-linejoin="round" stroke-miterlimit="1" points="
			307.466,158.382 356.893,136.229 406.466,158.703 406.466,158.753 356.893,181.229 		"/>
		<g>
			<text transform="matrix(1 0 0 1 342.5454 151.3745)"><tspan x="0" y="0" font-size="9px">spatially</tspan><tspan x="-9.751" y="8.8" font-size="9px">or temporally</tspan><tspan x="1.747" y="17.6" font-size="9px">defines</tspan></text>
		</g>
		
			<rect x="208.968" y="101.299" fill="#86B2D8" stroke="#010101" stroke-width="0.75" stroke-linecap="round" stroke-linejoin="round" stroke-miterlimit="1" width="83.992" height="18"/>
		<g>
			<text transform="matrix(1 0 0 1 222.2788 113.5728)" font-size="12px">Equipment</text>
		</g>
		
			<rect x="307.786" y="101.299" fill="#86B2D8" stroke="#010101" stroke-width="0.75" stroke-linecap="round" stroke-linejoin="round" stroke-miterlimit="1" width="99" height="18"/>
		<g>
			<text transform="matrix(1 0 0 1 312.8359 113.5728)" font-size="10px">Frame of Reference</text>
		</g>
		
			<rect x="106.849" y="12.737" fill="#86B2D8" stroke="#010101" stroke-width="0.75" stroke-linecap="round" stroke-linejoin="round" stroke-miterlimit="1" width="84.004" height="18"/>
		<g>
			<text transform="matrix(1 0 0 1 130.167 25.0054)" font-size="12px">Patient</text>
		</g>
		
			<rect x="106.853" y="101.437" fill="#86B2D8" stroke="#010101" stroke-width="0.75" stroke-linecap="round" stroke-linejoin="round" stroke-miterlimit="1" width="83.996" height="18"/>
		<g>
			<text transform="matrix(1 0 0 1 133.5049 113.7085)" font-size="12px">Study</text>
		</g>
		<g>
			<text transform="matrix(1 0 0 1 178.6182 149.8892)" font-size="9px">1</text>
		</g>
		<g>
			<text transform="matrix(1 0 0 1 170.6162 171.8951)" font-size="9px">1-n</text>
		</g>
		<g>
			<text transform="matrix(1 0 0 1 279.9502 149.8892)" font-size="9px">1</text>
		</g>
		<g>
			<text transform="matrix(1 0 0 1 271.9473 171.8951)" font-size="9px">1-n</text>
		</g>
		<g>
			<text transform="matrix(1 0 0 1 390.9473 145.8579)" font-size="9px">0-1</text>
		</g>
		<g>
			<text transform="matrix(1 0 0 1 390.9473 176.5025)" font-size="9px">0-n</text>
		</g>
		
			<polygon fill="#CCDEF0" stroke="#010101" stroke-width="0.75" stroke-linecap="round" stroke-linejoin="round" stroke-miterlimit="1" points="
			94.739,66.065 148.66,52.772 202.74,66.257 202.74,66.288 148.66,79.772 		"/>
		<g>
			<text transform="matrix(1 0 0 1 117.3262 68.7193)" font-size="9px">is the subject of</text>
		</g>
		<g>
			<text transform="matrix(1 0 0 1 191.5894 55.9771)" font-size="9px">1</text>
		</g>
		<g>
			<text transform="matrix(1 0 0 1 183.5869 83.023)" font-size="9px">1-n</text>
		</g>
		
			<rect x="209.001" y="210.31" fill="#86B2D8" stroke="#010101" stroke-width="0.75" stroke-linecap="round" stroke-linejoin="round" stroke-miterlimit="1" width="84.001" height="17.987"/>
		<g>
			<text transform="matrix(1 0 0 1 233.9932 222.5928)" font-size="12px">Series</text>
		</g>
		<g>
			<g>
				<polyline fill="none" stroke="#005695" stroke-width="2" stroke-miterlimit="1" points="103.955,250.732 103.955,241.962 
					201.54,241.962 				"/>
				<g>
					<polygon fill="#005695" points="106.279,249.147 103.955,257.819 101.63,249.147 					"/>
				</g>
			</g>
		</g>
		<g>
			<g>
				<polyline fill="none" stroke="#005695" stroke-width="2" stroke-miterlimit="1" points="201.54,251.049 201.54,241.962 
					249.212,241.962 249.212,227.615 				"/>
				<g>
					<polygon fill="#005695" points="203.864,249.464 201.54,258.137 199.215,249.464 					"/>
				</g>
			</g>
		</g>
		<g>
			<g>
				
					<line fill="none" stroke="#005695" stroke-width="2" stroke-miterlimit="1" x1="201.622" y1="276.709" x2="201.568" y2="290.204"/>
				<g>
					<polygon fill="#005695" points="199.25,288.609 201.54,297.291 203.898,288.628 					"/>
				</g>
			</g>
		</g>
		<g>
			<g>
				
					<line fill="none" stroke="#005695" stroke-width="2" stroke-miterlimit="1" x1="103.955" y1="276.709" x2="103.901" y2="290.204"/>
				<g>
					<polygon fill="#005695" points="101.583,288.609 103.873,297.291 106.232,288.628 					"/>
				</g>
			</g>
		</g>
		
			<polygon fill="#CCDEF0" stroke="#010101" stroke-width="0.75" stroke-linecap="round" stroke-linejoin="round" stroke-miterlimit="1" points="
			156.582,267.583 201.516,258.721 246.582,267.71 246.582,267.731 201.516,276.72 		"/>
		<g>
			<text transform="matrix(1 0 0 1 184.8204 270.1587)" font-size="9px">contains</text>
		</g>
		
			<rect x="160.764" y="298.263" fill="#86B2D8" stroke="#010101" stroke-width="0.75" stroke-linecap="round" stroke-linejoin="round" stroke-miterlimit="1" width="83.996" height="36"/>
		<g>
			<text transform="matrix(1 0 0 1 169.0797 314.7017)"><tspan x="0" y="0" font-size="12px">RT Segment</tspan><tspan x="4.989" y="11.733" font-size="12px">Annotation</tspan></text>
		</g>
		<g>
			<text transform="matrix(1 0 0 1 239.8277 259.2261)" font-size="9px">1</text>
		</g>
		<g>
			<text transform="matrix(1 0 0 1 229.2955 283.3775)" font-size="9px">0-n</text>
		</g>
		
			<polygon fill="#CCDEF0" stroke="#010101" stroke-width="0.75" stroke-linecap="round" stroke-linejoin="round" stroke-miterlimit="1" points="
			58.916,267.583 103.849,258.721 148.915,267.71 148.915,267.731 103.849,276.72 		"/>
		<g>
			<text transform="matrix(1 0 0 1 87.1534 270.1587)" font-size="9px">contains</text>
		</g>
		
			<rect x="63.097" y="298.263" fill="#86B2D8" stroke="#010101" stroke-width="0.75" stroke-linecap="round" stroke-linejoin="round" stroke-miterlimit="1" width="83.996" height="36"/>
		<g>
			<text transform="matrix(1 0 0 1 69.7486 314.7017)"><tspan x="0" y="0" font-size="12px">RT Physician</tspan><tspan x="20.332" y="11.733" font-size="12px">Intent</tspan></text>
		</g>
		<g>
			<text transform="matrix(1 0 0 1 142.1607 259.2261)" font-size="9px">1</text>
		</g>
		<g>
			<text transform="matrix(1 0 0 1 131.6285 283.3775)" font-size="9px">0-n</text>
		</g>
		<g>
			<g>
				<polyline fill="none" stroke="#005695" stroke-width="2" stroke-miterlimit="1" points="299.122,251.049 299.122,241.962 
					249.212,241.962 				"/>
				<g>
					<polygon fill="#005695" points="301.447,249.464 299.122,258.137 296.798,249.464 					"/>
				</g>
			</g>
		</g>
		<g>
			<g>
				
					<line fill="none" stroke="#005695" stroke-width="2" stroke-miterlimit="1" x1="299.872" y1="276.709" x2="299.819" y2="290.204"/>
				<g>
					<polygon fill="#005695" points="297.501,288.609 299.79,297.291 302.149,288.628 					"/>
				</g>
			</g>
		</g>
		
			<polygon fill="#CCDEF0" stroke="#010101" stroke-width="0.75" stroke-linecap="round" stroke-linejoin="round" stroke-miterlimit="1" points="
			254.833,267.583 299.767,258.721 344.833,267.71 344.833,267.731 299.767,276.72 		"/>
		<g>
			<text transform="matrix(1 0 0 1 283.0713 270.1587)" font-size="9px">contains</text>
		</g>
		
			<rect x="259.015" y="298.263" fill="#86B2D8" stroke="#010101" stroke-width="0.75" stroke-linecap="round" stroke-linejoin="round" stroke-miterlimit="1" width="83.996" height="36"/>
		<g>
			<text transform="matrix(1 0 0 1 265.9946 314.7017)"><tspan x="0" y="0" font-size="12px">RT Radiation</tspan><tspan x="26.01" y="11.733" font-size="12px">Set</tspan></text>
		</g>
		<g>
			<text transform="matrix(1 0 0 1 338.0786 259.2261)" font-size="9px">1</text>
		</g>
		<g>
			<text transform="matrix(1 0 0 1 327.5464 283.3775)" font-size="9px">0-n</text>
		</g>
		<g>
			<g>
				<polyline fill="none" stroke="#005695" stroke-width="2" stroke-miterlimit="1" points="397.373,251.049 397.373,241.962 
					299.122,241.962 				"/>
				<g>
					<polygon fill="#005695" points="399.698,249.464 397.373,258.137 395.049,249.464 					"/>
				</g>
			</g>
		</g>
		<g>
			<g>
				
					<line fill="none" stroke="#005695" stroke-width="2" stroke-miterlimit="1" x1="398.123" y1="276.709" x2="398.07" y2="290.204"/>
				<g>
					<polygon fill="#005695" points="395.752,288.609 398.041,297.291 400.4,288.628 					"/>
				</g>
			</g>
		</g>
		
			<polygon fill="#CCDEF0" stroke="#010101" stroke-width="0.75" stroke-linecap="round" stroke-linejoin="round" stroke-miterlimit="1" points="
			353.084,267.583 398.018,258.721 443.084,267.71 443.084,267.731 398.018,276.72 		"/>
		<g>
			<text transform="matrix(1 0 0 1 381.3222 270.1587)" font-size="9px">contains</text>
		</g>
		
			<rect x="357.266" y="298.263" fill="#86B2D8" stroke="#010101" stroke-width="0.75" stroke-linecap="round" stroke-linejoin="round" stroke-miterlimit="1" width="83.996" height="36"/>
		<g>
			<text transform="matrix(1 0 0 1 364.2455 314.7017)" font-size="12px">RT Radiation</text>
		</g>
		<g>
			<text transform="matrix(1 0 0 1 436.3295 259.2261)" font-size="9px">1</text>
		</g>
		<g>
			<text transform="matrix(1 0 0 1 425.7973 283.3775)" font-size="9px">0-n</text>
		</g>
	</g>
</g>
</svg>
