<?xml version="1.0" encoding="utf-8"?>

<!DOCTYPE svg PUBLIC "-//W3C//DTD SVG 1.1//EN" "http://www.w3.org/Graphics/SVG/1.1/DTD/svg11.dtd">
<svg version="1.1" id="Layer_1" xmlns="http://www.w3.org/2000/svg" xmlns:xlink="http://www.w3.org/1999/xlink" x="0px" y="0px"
	 width="502px" height="872px" viewBox="0 0 502 872" enable-background="new 0 0 502 872" xml:space="preserve">
    
<defs>
	<style type="text/css">
	text {
	  font-family: Helvetica, Verdana, ArialUnicodeMS, san-serif
	}
	</style>
</defs>

<g>
   <desc>
	PS 3.3 Part 3: Information Object Definitions
   </desc>
</g>

<g>
	<rect x="1" y="1" fill="#F5EED6" width="500" height="870"/>
	<g>
		<g>
			<path fill="#B2CEE7" d="M409.88,422.637c0,1.622-2.238,2.936-5,2.936H104.881c-2.762,0-5-1.314-5-2.936V108.503
				c0-1.621,2.238-2.936,5-2.936H404.88c2.762,0,5,1.314,5,2.936V422.637z"/>
			<rect x="132.38" y="35.57" fill="#4F8ABE" width="245" height="460"/>
			
				<rect x="147.38" y="50.237" fill="#FFFFFF" stroke="#000000" stroke-width="1.1034" stroke-miterlimit="10" width="215" height="430.667"/>
			<g>
				<g>
					<g>
						<g>
							<path fill="#E6E6E6" stroke="#000000" stroke-width="0.3075" stroke-linejoin="round" stroke-miterlimit="10" d="
								M200.372,168.77c4.484-5.084,7.117-13.345,7.074-21.485l-0.002-0.03c0.186-13.369-14.105-25.75-13.57-41.727
								c0.096-2.905,2.758-7.89,2.969-7.563c0.211,0.322-1.366,2.942-1.779,6.055c-1.475,11.119,16.406,23.511,16.406,45.949v0.035
								c0,12.211-4.08,21.707-11.211,26.208c0,0,0.149-1.181,0.149-3.386v-0.03C200.408,171.463,200.372,168.77,200.372,168.77z"/>
						</g>
					</g>
					<g>
						<path fill="#999999" d="M195.187,114.568c0,0,4.877,10.618,7.873,15.599c3.104,5.156,5.182,11.08,5.307,16.786
							c0.291,8.615-2.283,17.842-7.837,24.655l-0.135-2.592c2.452-3.008,7.2-10.212,7.2-21.952c0-6.049-3.508-13.219-6.863-19.708
							c-0.16-0.311-1.973-3.657-3.346-6.867C195.933,117.091,195.187,114.568,195.187,114.568z"/>
					</g>
				</g>
				<path fill="#E6E6E6" stroke="#000000" stroke-width="0.4724" stroke-miterlimit="10" d="M200.993,306.029
					c-11.873,0-23.105-25.154-32.961-48.314c-18.885-44.381,1.416-91.595,32.961-91.595h0.039c31.543,0,51.846,47.214,32.961,91.595
					c-9.855,23.16-21.09,48.314-32.961,48.314H200.993z"/>
				<path fill="#999999" d="M201.238,305.762c-7.874,0-17.522-11.131-25.843-33.082c-6.642-17.52-8.408-34.975-8.848-37.854
					c0,0,3.473,23.217,11.602,40.188c4.323,9.029,13.577,27.533,23.089,27.533c9.513,0,18.87-19.139,22.712-28.373
					c9.398-22.594,11.229-39.348,11.229-39.348c-0.611,4.033-2.24,21.984-8.684,37.842
					C217.802,294.062,209.11,305.762,201.238,305.762z"/>
				<path fill="#FFFFFF" stroke="#000000" stroke-width="0.4227" stroke-miterlimit="10" d="M178.439,273.395
					c-5.886-0.754-10.384-4.842-10.384-9.766c0-5.465,5.53-9.895,12.355-9.895c6.822,0,12.354,4.43,12.354,9.895"/>
				<path fill="#B3B3B3" stroke="#BCBEC0" stroke-width="0.4227" stroke-miterlimit="10" d="M169.474,265.631
					c-1.863,0,1.26-10.814,10.475-10.814c7.126,0,12.363,6.209,10.605,6.508c-1.486,0.252-3.479-2.562-11.479-1.365
					C171.185,261.141,170.819,265.631,169.474,265.631z"/>
				<path fill="#FFFFFF" stroke="#000000" stroke-width="0.4227" stroke-miterlimit="10" d="M224.063,273.395
					c5.889-0.754,10.387-4.842,10.387-9.766c0-5.465-5.531-9.895-12.355-9.895c-6.822,0-12.354,4.43-12.354,9.895"/>
				<path fill="#B3B3B3" stroke="#BCBEC0" stroke-width="0.4227" stroke-miterlimit="10" d="M233.03,265.631
					c1.863,0-1.258-10.814-10.475-10.814c-7.125,0-12.363,6.209-10.604,6.508c1.486,0.252,3.479-2.562,11.479-1.365
					C231.319,261.141,231.685,265.631,233.03,265.631z"/>
				<circle stroke="#000000" stroke-width="0.4724" stroke-miterlimit="10" cx="192.292" cy="283.645" r="3.874"/>
				
					<ellipse fill="#FFFFFF" stroke="#000000" stroke-width="0.4724" stroke-miterlimit="10" cx="192.292" cy="285.494" rx="1.17" ry="1.678"/>
				<circle stroke="#000000" stroke-width="0.4724" stroke-miterlimit="10" cx="207.913" cy="283.645" r="3.873"/>
				
					<ellipse fill="#FFFFFF" stroke="#000000" stroke-width="0.4724" stroke-miterlimit="10" cx="207.913" cy="285.494" rx="1.17" ry="1.678"/>
				<path stroke="#000000" stroke-width="0.4724" stroke-miterlimit="10" d="M200.628,304.809c2.26,0,3.52-1.646,4.047-3.029
					c1.396-3.656,2.207-5.154-4.047-5.154c-6.256,0-5.443,1.498-4.049,5.154C197.11,303.162,198.368,304.809,200.628,304.809z"/>
				<path fill="none" stroke="#000000" stroke-width="0.4724" stroke-miterlimit="10" d="M168.442,312.18
					c2.688-10.74,8.818-13.75,15.975-13.75c2.66,0,5.449,0.836,8.095,2.303"/>
				<path fill="none" stroke="#000000" stroke-width="0.4724" stroke-miterlimit="10" d="M156.543,305.105
					c3.603-4.84,10.255-8.531,18.191-9.473c6.725-0.799,13.017,0.541,17.601,3.318"/>
				<path fill="none" stroke="#000000" stroke-width="0.4724" stroke-miterlimit="10" d="M190.163,295.48
					c-4.424-2.77-12.18-4.605-21.011-4.605c-7.305,0-13.877,1.258-18.434,3.26"/>
				<path fill="none" stroke="#000000" stroke-width="0.4724" stroke-miterlimit="10" d="M232.995,312.18
					c-2.689-10.74-8.818-13.75-15.977-13.75c-2.658,0-5.449,0.836-8.094,2.303"/>
				<path fill="none" stroke="#000000" stroke-width="0.4724" stroke-miterlimit="10" d="M244.894,305.105
					c-3.602-4.84-10.256-8.531-18.189-9.473c-6.727-0.799-13.02,0.541-17.604,3.318"/>
				<path fill="none" stroke="#000000" stroke-width="0.4724" stroke-miterlimit="10" d="M211.272,295.48
					c4.424-2.77,12.182-4.605,21.012-4.605c7.307,0,13.877,1.258,18.434,3.26"/>
				<path fill="#999999" d="M164.226,233.006c6.163-2.031,10.391-18.467,9.596-38.238l-0.111-0.025
					c-1.28,20.186-6.066,36.246-10.689,35.873C163.021,230.615,163.854,233.129,164.226,233.006"/>
				<path fill="#999999" d="M236.657,233.006c-6.164-2.031-10.393-18.467-9.598-38.238l0.109-0.025
					c1.285,20.186,6.068,36.246,10.691,35.873C237.86,230.615,237.028,233.129,236.657,233.006"/>
			</g>
			<g>
				<g>
					<g>
						<g>
							<path fill="#D6A477" stroke="#000000" stroke-width="0.1294" stroke-miterlimit="10" d="M309.387,362.366
								c-4.486,5.084-7.117,13.344-7.074,21.486v0.029c-0.186,13.371,14.107,25.75,13.572,41.728
								c-0.096,2.904-2.756,7.889-2.969,7.562c-0.211-0.322,1.365-2.941,1.777-6.055c1.475-11.12-16.404-23.511-16.404-45.95v-0.035
								c0-12.211,4.08-21.705,11.211-26.207c0,0-0.15,1.182-0.15,3.385v0.031C309.35,359.673,309.387,362.366,309.387,362.366z"/>
						</g>
					</g>
					<g>
						<path fill="#977348" d="M314.574,416.567c0,0-4.879-10.619-7.875-15.6c-3.102-5.156-5.182-11.08-5.307-16.787
							c-0.291-8.613,2.283-17.84,7.836-24.654l0.135,2.592c-2.451,3.008-7.199,10.213-7.199,21.951
							c0,6.051,3.508,13.221,6.863,19.709c0.16,0.311,1.973,3.658,3.346,6.867C313.826,414.044,314.574,416.567,314.574,416.567z"/>
					</g>
				</g>
				<path fill="#D6A477" stroke="#000000" stroke-width="0.1294" stroke-miterlimit="10" d="M308.766,225.118
					c11.873,0,23.105,25.152,32.961,48.309c18.885,44.374-1.418,91.59-32.961,91.59h-0.039c-31.545,0-51.845-47.216-32.961-91.59
					c9.855-23.156,21.09-48.309,32.961-48.309H308.766z"/>
				<path fill="#977348" d="M308.52,225.388c7.875,0,17.523,11.129,25.844,33.079c6.643,17.514,8.408,34.967,8.846,37.846
					c0,0-3.469-23.214-11.6-40.184c-4.324-9.026-13.578-27.527-23.09-27.527s-18.869,19.136-22.711,28.369
					c-9.398,22.59-11.229,39.342-11.229,39.342c0.611-4.033,2.24-21.983,8.684-37.836
					C291.957,237.085,300.648,225.388,308.52,225.388z"/>
				<path fill="#ECBFA6" stroke="#000000" stroke-width="0.1294" stroke-miterlimit="10" d="M331.318,257.75
					c5.887,0.754,10.385,4.841,10.385,9.764c0,5.464-5.529,9.891-12.355,9.891c-6.822,0-12.354-4.427-12.354-9.891"/>
				<path fill="#977348" d="M340.285,265.513c1.863,0-1.26,10.812-10.477,10.812c-7.123,0-12.361-6.208-10.604-6.507
					c1.484-0.252,3.48,2.562,11.48,1.365C338.574,270.001,338.939,265.513,340.285,265.513z"/>
				<path fill="#ECBFA6" stroke="#000000" stroke-width="0.1294" stroke-miterlimit="10" d="M285.693,257.75
					c-5.887,0.754-10.385,4.841-10.385,9.764c0,5.464,5.531,9.891,12.354,9.891c6.824,0,12.355-4.427,12.355-9.891"/>
				<path fill="#977348" d="M276.727,265.513c-1.861,0,1.26,10.812,10.475,10.812c7.127,0,12.363-6.208,10.605-6.507
					c-1.486-0.252-3.479,2.562-11.479,1.365C278.439,270.001,278.074,265.513,276.727,265.513z"/>
				<circle stroke="#000000" stroke-width="0.4724" stroke-miterlimit="10" cx="317.467" cy="247.501" r="3.873"/>
				
					<ellipse fill="#FFFFFF" stroke="#000000" stroke-width="0.4724" stroke-miterlimit="10" cx="317.466" cy="245.652" rx="1.171" ry="1.677"/>
				<circle stroke="#000000" stroke-width="0.4724" stroke-miterlimit="10" cx="301.845" cy="247.501" r="3.872"/>
				
					<ellipse fill="#FFFFFF" stroke="#000000" stroke-width="0.4724" stroke-miterlimit="10" cx="301.846" cy="245.652" rx="1.17" ry="1.677"/>
				<path stroke="#000000" stroke-width="0.4724" stroke-miterlimit="10" d="M309.131,226.341c-2.26,0-3.52,1.646-4.049,3.028
					c-1.395,3.656-2.207,5.153,4.049,5.153c6.254,0,5.443-1.497,4.047-5.153C312.65,227.986,311.391,226.341,309.131,226.341z"/>
				<path fill="none" stroke="#000000" stroke-width="0.4724" stroke-miterlimit="10" d="M341.316,218.97
					c-2.689,10.739-8.818,13.749-15.975,13.749c-2.66,0-5.449-0.836-8.096-2.303"/>
				<path fill="none" stroke="#000000" stroke-width="0.4724" stroke-miterlimit="10" d="M353.217,226.044
					c-3.604,4.839-10.256,8.529-18.193,9.471c-6.725,0.799-13.016-0.541-17.6-3.317"/>
				<path fill="none" stroke="#000000" stroke-width="0.4724" stroke-miterlimit="10" d="M319.596,235.667
					c4.424,2.77,12.18,4.604,21.01,4.604c7.307,0,13.879-1.257,18.436-3.259"/>
				<path fill="none" stroke="#000000" stroke-width="0.4724" stroke-miterlimit="10" d="M276.764,218.97
					c2.689,10.739,8.818,13.749,15.975,13.749c2.658,0,5.449-0.836,8.096-2.303"/>
				<path fill="none" stroke="#000000" stroke-width="0.4724" stroke-miterlimit="10" d="M264.864,226.044
					c3.602,4.839,10.257,8.529,18.19,9.471c6.725,0.799,13.018-0.541,17.604-3.317"/>
				<path fill="none" stroke="#000000" stroke-width="0.4724" stroke-miterlimit="10" d="M298.486,235.667
					c-4.424,2.77-12.182,4.604-21.012,4.604c-7.305,0-13.877-1.257-18.434-3.259"/>
				<path fill="#977348" d="M345.533,298.132c-6.164,2.031-10.393,18.465-9.596,38.234l0.111,0.025
					c1.279-20.184,6.066-36.242,10.689-35.869C346.738,300.522,345.904,298.009,345.533,298.132"/>
				<path fill="#977348" d="M273.102,298.132c6.162,2.031,10.393,18.465,9.598,38.234l-0.111,0.025
					c-1.283-20.184-6.068-36.242-10.689-35.869C271.898,300.522,272.73,298.009,273.102,298.132"/>
			</g>
			<rect x="132.667" y="105.296" opacity="0.4" fill="#B2CEE7" width="244.488" height="319.961"/>
			<g>
				<text transform="matrix(1 0 0 1 99.8809 25.5723)" font-size="11">View from above gantry/table</text>
			</g>
			<g>
				<text transform="matrix(1 0 0 1 32.3882 115.3184)" font-size="11">Gantry Rear</text>
			</g>
			<g>
				<text transform="matrix(1 0 0 1 23.8154 268.6294)" font-size="11">Field of View</text>
			</g>
			<g>
				<text transform="matrix(1 0 0 1 23.77 421.9468)" font-size="11">Gantry Front</text>
			</g>
			<g>
				<text transform="matrix(1 0 0 1 186.2617 185.6816)"><tspan x="0" y="0" font-size="13">1\1\2</tspan><tspan x="4.361" y="25.867" font-size="13">FFP</tspan></text>
			</g>
			<g>
				<text transform="matrix(1 0 0 1 294.584 328.1235)"><tspan x="0" y="0" font-size="13">1\1\1</tspan><tspan x="2.914" y="25.867" font-size="13">HFP</tspan></text>
			</g>
			<path opacity="0.4" fill="#ED1C24" d="M394.132,310.72c0,2.677-2.238,4.848-5,4.848H120.628c-2.761,0-5-2.171-5-4.848v-90.302
				c0-2.676,2.239-4.851,5-4.851h268.504c2.762,0,5,2.175,5,4.851V310.72z"/>
		</g>
		<g>
			<g>
				<text transform="matrix(1 0 0 1 96.7456 535.3223)" font-size="11">View from front of gantry</text>
			</g>
			<g>
				<text transform="matrix(1 0 0 1 31.0962 840.959)" font-size="11">Gantry Left</text>
			</g>
			<g>
				<text transform="matrix(1 0 0 1 416.4863 840.959)" font-size="11">Gantry Right</text>
			</g>
			<path fill="#B2CEE7" d="M406.745,850.396c0,3.186-2.335,5.783-5.205,5.783H101.951c-2.876,0-5.206-2.598-5.206-5.783V551.964
				c0-3.195,2.33-5.785,5.206-5.785H401.54c2.87,0,5.205,2.59,5.205,5.785V850.396z"/>
			<radialGradient id="SVGID_1_" cx="251.7446" cy="701.709" r="143.5032" gradientUnits="userSpaceOnUse">
				<stop  offset="0.9116" style="stop-color:#FFFFFF"/>
				<stop  offset="0.9582" style="stop-color:#B2CEE7"/>
				<stop  offset="1" style="stop-color:#4F8ABE"/>
			</radialGradient>
			<circle fill="url(#SVGID_1_)" cx="251.745" cy="701.71" r="143.503"/>
			<rect x="131.604" y="751.339" fill="#4F8ABE" width="244.998" height="9"/>
			
				<rect x="146.496" y="632.054" fill="#FFFFFF" stroke="#000000" stroke-width="0.597" stroke-miterlimit="10" width="215.213" height="119.056"/>
			<g>
				<g>
					<path fill="#D6A477" stroke="#000000" stroke-width="0.8333" stroke-miterlimit="10" d="M341.643,734.514
						c-2.246,1.823-7.425,5.798-7.425,5.798l-0.017,6.151c0,1.943,1.662,1.521,3.713,1.521c2.049,0,3.712,0.423,3.712-1.521
						L341.643,734.514z"/>
				</g>
				<g>
					<path fill="#D6A477" stroke="#000000" stroke-width="0.8333" stroke-miterlimit="10" d="M275.547,734.514
						c2.243,1.823,7.425,5.798,7.425,5.798l0.015,6.151c0,1.943-1.662,1.521-3.713,1.521c-2.049,0-3.712,0.423-3.712-1.521
						L275.547,734.514z"/>
				</g>
				<g>
					<path fill="none" stroke="#000000" stroke-width="0.8333" stroke-miterlimit="10" d="M264.524,734.511
						c4.396-9.014,32.666-11.195,37.48-8.278"/>
					<path fill="none" stroke="#000000" stroke-width="0.8333" stroke-miterlimit="10" d="M299.727,725.581
						c-4.646-2.906-34.704-1.992-40.686,10.316"/>
					<path fill="none" stroke="#000000" stroke-width="0.8333" stroke-miterlimit="10" d="M276.914,731.142
						c4.036-4.414,15.843-7.979,25.276-4.369"/>
				</g>
				<g>
					<path fill="none" stroke="#000000" stroke-width="0.8333" stroke-miterlimit="10" d="M341.171,731.142
						c-4.04-4.414-15.845-7.979-25.279-4.369"/>
					<path fill="none" stroke="#000000" stroke-width="0.8333" stroke-miterlimit="10" d="M353.557,734.511
						c-4.395-9.014-32.666-11.195-37.479-8.278"/>
					<path fill="none" stroke="#000000" stroke-width="0.8333" stroke-miterlimit="10" d="M318.358,725.581
						c4.646-2.906,34.7-1.992,40.683,10.316"/>
				</g>
				<path fill="#D6A477" stroke="#000000" stroke-width="0.8333" stroke-miterlimit="10" d="M332.16,706.812
					c6.184-0.99,10.908-6.351,10.908-12.81c0-7.168-5.811-12.978-12.977-12.978c-7.165,0-12.974,5.81-12.974,12.978"/>
				<path fill="#D6A477" stroke="#000000" stroke-width="0.8333" stroke-miterlimit="10" d="M284.246,706.812
					c-6.183-0.99-10.906-6.351-10.906-12.81c0-7.168,5.809-12.978,12.975-12.978c7.165,0,12.976,5.81,12.976,12.978"/>
				<path fill="#D6A477" stroke="#000000" stroke-width="0.8333" stroke-miterlimit="10" d="M351.359,718.977
					c0-26.158-13.675-16.62-13.675-16.62s-1.022-18.528-28.912-18.528c-27.615,0-27.776,18.528-27.776,18.528
					s-14.59-9.538-14.59,16.764c0,19.395,18.851,28.407,42.366,28.407C332.289,747.527,351.359,738.371,351.359,718.977z"/>
				<g>
					<g>
						<g>
							<path fill="#D6A477" stroke="#000000" stroke-width="0.8333" stroke-miterlimit="10" d="M313.363,747.102
								c-6.563-7.021-10.64-12.015-11.235-23.809v-0.042c-1.331-19.352,17.285-38.372,15.268-61.471
								c-0.365-4.199-4.418-11.214-4.682-10.729c-0.264,0.484,2.113,4.16,2.927,8.636c2.917,15.992-20.621,35.302-18.818,67.798
								l0.004,0.053c0.582,10.494,3.027,12.695,7.068,19.53"/>
						</g>
					</g>
					<g>
						<path fill="#977348" d="M313.138,747.098c-3.681-4.354-10.31-7.538-11.23-24.11c-0.485-8.76,3.75-19.414,7.832-29.068
							c0.196-0.463,2.413-5.443,4.039-10.198c1.723-5.029,2.543-8.744,2.543-8.744s-5.839,15.749-9.551,23.193
							c-3.842,7.705-6.22,16.438-5.931,24.713c0.252,10.739,3.44,15.437,9.516,24.375"/>
					</g>
				</g>
			</g>
			<g>
				<g>
					<g>
						<g>
							<path fill="#E6E6E6" stroke="#000000" stroke-width="0.3229" stroke-linejoin="round" stroke-miterlimit="10" d="
								M199.482,725.304c4.71-5.339,7.475-14.016,7.429-22.564l-0.001-0.031c0.195-14.042-14.814-27.044-14.253-43.823
								c0.101-3.052,2.896-8.285,3.118-7.944c0.221,0.341-1.435,3.091-1.867,6.36c-1.549,11.679,17.229,24.691,17.229,48.257v0.037
								c0,12.824-4.285,22.797-11.773,27.524c0,0,0.157-1.24,0.157-3.556v-0.033C199.521,728.132,199.482,725.304,199.482,725.304z"
								/>
						</g>
					</g>
					<g>
						<path fill="#999999" d="M194.036,668.38c0,0,5.121,11.151,8.27,16.383c3.258,5.416,5.44,11.637,5.571,17.629
							c0.307,9.049-2.396,18.738-8.229,25.894l-0.142-2.722c2.575-3.159,7.561-10.725,7.561-23.055
							c0-6.353-3.683-13.883-7.207-20.698c-0.169-0.325-2.071-3.839-3.513-7.212C194.819,671.031,194.036,668.38,194.036,668.38z"/>
					</g>
				</g>
				<g>
					<path fill="#E6E6E6" stroke="#000000" stroke-width="0.4962" stroke-linejoin="bevel" stroke-miterlimit="10" d="
						M168.118,734.618c2.243,1.819,7.423,5.796,7.423,5.796l0.017,6.155c0,1.939-1.662,1.517-3.712,1.517
						c-2.051,0-3.712,0.423-3.712-1.517L168.118,734.618z"/>
					<path fill="#ECBFA6" stroke="#000000" stroke-width="0.5315" stroke-miterlimit="10" d="M175.542,746.569
						c0-1.94-1.662-3.514-3.713-3.514c-2.05,0-3.712,1.573-3.712,3.514c0,1.939,1.662,1.517,3.712,1.517
						C173.88,748.086,175.542,748.509,175.542,746.569z"/>
					
						<line fill="none" stroke="#000000" stroke-width="0.4452" stroke-miterlimit="10" x1="169.846" y1="744.954" x2="169.846" y2="748.115"/>
					
						<line fill="none" stroke="#000000" stroke-width="0.4452" stroke-miterlimit="10" x1="171.845" y1="744.954" x2="171.845" y2="748.115"/>
					
						<line fill="none" stroke="#000000" stroke-width="0.4452" stroke-miterlimit="10" x1="173.844" y1="744.954" x2="173.844" y2="748.115"/>
				</g>
				<g>
					<path fill="#E6E6E6" stroke="#000000" stroke-width="0.4962" stroke-linejoin="bevel" stroke-miterlimit="10" d="
						M234.213,734.618c-2.243,1.819-7.423,5.796-7.423,5.796l-0.017,6.155c0,1.939,1.662,1.517,3.712,1.517s3.712,0.423,3.712-1.517
						L234.213,734.618z"/>
					<path fill="#ECBFA6" stroke="#000000" stroke-width="0.5315" stroke-miterlimit="10" d="M226.79,746.569
						c0-1.94,1.662-3.514,3.712-3.514s3.712,1.573,3.712,3.514c0,1.939-1.662,1.517-3.712,1.517S226.79,748.509,226.79,746.569z"/>
					
						<line fill="none" stroke="#000000" stroke-width="0.4452" stroke-miterlimit="10" x1="232.485" y1="744.954" x2="232.485" y2="748.115"/>
					
						<line fill="none" stroke="#000000" stroke-width="0.4452" stroke-miterlimit="10" x1="230.486" y1="744.954" x2="230.486" y2="748.115"/>
					
						<line fill="none" stroke="#000000" stroke-width="0.4452" stroke-miterlimit="10" x1="228.487" y1="744.954" x2="228.487" y2="748.115"/>
				</g>
				<path fill="#E6E6E6" stroke="#000000" stroke-width="0.4962" stroke-miterlimit="10" d="M158.4,718.517
					c0-19.395,19.068-35.117,42.586-35.117s42.586,15.723,42.586,35.117c0.001,19.396-19.068,29.113-42.586,29.113
					C177.47,747.63,158.4,737.912,158.4,718.517z"/>
				<path fill="#999999" d="M201.569,746.68c-9.101,0-23.745-3.543-33.362-11.271c-7.676-6.168-6.229-6.687-6.734-7.7
					c0,0,18.724,6.484,39.663,6.484c20.954,0,39.664-6.484,39.664-6.484c-0.792,1.833,0.751,2.117-6.695,7.7
					C224.056,742.941,210.668,746.68,201.569,746.68z"/>
				<path fill="#FFFFFF" stroke="#000000" stroke-width="0.4962" stroke-miterlimit="10" d="M177.598,706.352
					c-6.183-0.991-10.906-6.351-10.906-12.812c0-7.166,5.809-12.975,12.976-12.975c7.166,0,12.975,5.809,12.975,12.975"/>
				<path fill="#B3B3B3" stroke="#BCBEC0" stroke-width="0.4962" stroke-miterlimit="10" d="M168.181,696.167
					c-1.956,0,1.323-14.184,11.001-14.184c7.483,0,12.983,8.146,11.138,8.535c-1.56,0.332-3.654-3.36-12.055-1.79
					C169.978,690.277,169.595,696.167,168.181,696.167z"/>
				<path fill="#FFFFFF" stroke="#000000" stroke-width="0.4962" stroke-miterlimit="10" d="M225.515,706.352
					c6.183-0.991,10.906-6.351,10.906-12.812c0-7.166-5.81-12.975-12.976-12.975c-7.165,0-12.975,5.809-12.975,12.975"/>
				<path fill="#B3B3B3" stroke="#BCBEC0" stroke-width="0.4962" stroke-miterlimit="10" d="M234.931,696.167
					c1.957,0-1.322-14.184-11.001-14.184c-7.483,0-12.983,8.146-11.138,8.535c1.562,0.332,3.654-3.36,12.057-1.79
					C233.134,690.277,233.517,696.167,234.931,696.167z"/>
				<circle stroke="#000000" stroke-width="0.4962" stroke-miterlimit="10" cx="192.134" cy="714.353" r="4.068"/>
				
					<ellipse fill="#FFFFFF" stroke="#000000" stroke-width="0.4962" stroke-miterlimit="10" cx="192.135" cy="714.433" rx="1.229" ry="1.763"/>
				<circle stroke="#000000" stroke-width="0.4962" stroke-miterlimit="10" cx="208.54" cy="714.353" r="4.067"/>
				
					<ellipse fill="#FFFFFF" stroke="#000000" stroke-width="0.4962" stroke-miterlimit="10" cx="208.54" cy="714.433" rx="1.229" ry="1.763"/>
				<path stroke="#000000" stroke-width="0.3825" stroke-miterlimit="10" d="M200.888,725.935c2.373,0,3.697-1.028,4.252-1.892
					c1.465-2.282,2.318-3.218-4.252-3.218c-6.568,0-5.717,0.936-4.251,3.218C197.193,724.906,198.515,725.935,200.888,725.935z"/>
				<g>
					<path fill="none" stroke="#000000" stroke-width="0.4962" stroke-miterlimit="10" d="M245.234,734.049
						c-4.396-9.012-32.666-11.194-37.48-8.277"/>
					<path fill="none" stroke="#000000" stroke-width="0.4962" stroke-miterlimit="10" d="M210.035,725.12
						c4.646-2.908,34.701-1.992,40.684,10.315"/>
					<path fill="none" stroke="#000000" stroke-width="0.4962" stroke-miterlimit="10" d="M232.847,730.682
						c-4.038-4.416-15.844-7.979-25.278-4.37"/>
				</g>
				<g>
					<path fill="none" stroke="#000000" stroke-width="0.4962" stroke-miterlimit="10" d="M168.589,730.682
						c4.038-4.416,15.844-7.979,25.279-4.37"/>
					<path fill="none" stroke="#000000" stroke-width="0.4962" stroke-miterlimit="10" d="M156.201,734.049
						c4.396-9.012,32.667-11.194,37.481-8.277"/>
					<path fill="none" stroke="#000000" stroke-width="0.4962" stroke-miterlimit="10" d="M191.401,725.12
						c-4.646-2.908-34.701-1.992-40.684,10.315"/>
				</g>
				<g>
					<path fill="#ECBFA6" stroke="#000000" stroke-width="0.4962" stroke-miterlimit="10" d="M187.523,746.569
						c0-1.94-1.662-3.514-3.712-3.514s-3.712,1.573-3.712,3.514c0,1.939,1.662,1.517,3.712,1.517S187.523,748.509,187.523,746.569z"
						/>
					
						<line fill="none" stroke="#000000" stroke-width="0.4452" stroke-miterlimit="10" x1="181.827" y1="744.954" x2="181.827" y2="748.115"/>
					
						<line fill="none" stroke="#000000" stroke-width="0.4452" stroke-miterlimit="10" x1="183.826" y1="744.954" x2="183.826" y2="748.115"/>
					
						<line fill="none" stroke="#000000" stroke-width="0.4452" stroke-miterlimit="10" x1="185.826" y1="744.954" x2="185.826" y2="748.115"/>
				</g>
				<g>
					<path fill="#ECBFA6" stroke="#000000" stroke-width="0.4962" stroke-miterlimit="10" d="M215.141,746.569
						c0-1.94,1.662-3.514,3.712-3.514s3.712,1.573,3.712,3.514c0,1.939-1.662,1.517-3.712,1.517S215.141,748.509,215.141,746.569z"
						/>
					
						<line fill="none" stroke="#000000" stroke-width="0.4452" stroke-miterlimit="10" x1="220.837" y1="744.954" x2="220.837" y2="748.115"/>
					
						<line fill="none" stroke="#000000" stroke-width="0.4452" stroke-miterlimit="10" x1="218.837" y1="744.954" x2="218.837" y2="748.115"/>
					
						<line fill="none" stroke="#000000" stroke-width="0.4452" stroke-miterlimit="10" x1="216.838" y1="744.954" x2="216.838" y2="748.115"/>
				</g>
			</g>
		</g>
	</g>
</g>
</svg>
