<?xml version="1.0" encoding="utf-8"?>
<!DOCTYPE svg PUBLIC "-//W3C//DTD SVG 1.1//EN" "http://www.w3.org/Graphics/SVG/1.1/DTD/svg11.dtd">
<svg version="1.1" id="Layer_1" xmlns="http://www.w3.org/2000/svg" xmlns:xlink="http://www.w3.org/1999/xlink" x="0px" y="0px"
	 width="502px" height="292px" viewBox="0 0 502 292" enable-background="new 0 0 502 292" xml:space="preserve">
        
<defs>
	<style type="text/css">
	text {
	  font-family: Helvetica, Verdana, ArialUnicodeMS, san-serif
	}
	</style>
</defs>

<g>
   <desc>
	PS 3.3 Information Object Definitions
   </desc>
</g>

<g>
	<g>
		
			<line fill="none" stroke="#005695" stroke-width="3" stroke-linecap="round" stroke-miterlimit="1" x1="424.428" y1="249.627" x2="454.342" y2="249.627"/>
		<g>
			<polygon fill="#005695" points="427.103,253.549 412.468,249.627 427.103,245.705 			"/>
		</g>
		<g>
			<polygon fill="#005695" points="451.667,253.549 466.302,249.627 451.667,245.705 			"/>
		</g>
	</g>
</g>
<g>
	<rect x="1" y="1" fill="#F5EED6" width="500" height="290"/>
	<g>
		<g>
			
				<radialGradient id="SVGID_1_" cx="420.832" cy="70.1831" r="82.5293" gradientTransform="matrix(0.9091 0 0 0.9091 33.7989 13.3454)" gradientUnits="userSpaceOnUse">
				<stop  offset="0.0459" style="stop-color:#FFFFFF"/>
				<stop  offset="0.9113" style="stop-color:#C0E2CA"/>
			</radialGradient>
			
				<radialGradient id="SVGID_2_" cx="411.8779" cy="75.6709" r="78.3604" gradientTransform="matrix(0.9091 0 0 0.9091 33.7989 13.3454)" gradientUnits="userSpaceOnUse">
				<stop  offset="0.049" style="stop-color:#FFFFFF"/>
				<stop  offset="1" style="stop-color:#000000"/>
			</radialGradient>
			
				<path fill="url(#SVGID_1_)" stroke="url(#SVGID_2_)" stroke-width="0.75" stroke-linecap="round" stroke-linejoin="round" stroke-miterlimit="1" d="
				M479.134,82.137c0,39.156-31.738,70.896-70.896,70.896c-39.156,0-70.896-31.74-70.896-70.896s31.74-70.896,70.896-70.896
				C447.396,11.24,479.134,42.98,479.134,82.137z"/>
			
				<radialGradient id="SVGID_3_" cx="412.0449" cy="267.6855" r="66.3598" gradientTransform="matrix(0.9617 0 0 0.7732 11.9748 13.9014)" gradientUnits="userSpaceOnUse">
				<stop  offset="0.0459" style="stop-color:#FFFFFF"/>
				<stop  offset="0.9113" style="stop-color:#FFC20E"/>
			</radialGradient>
			
				<radialGradient id="SVGID_4_" cx="412.0449" cy="267.6855" r="66.7277" gradientTransform="matrix(0.9617 0 0 0.7732 11.9748 13.9014)" gradientUnits="userSpaceOnUse">
				<stop  offset="0.049" style="stop-color:#FFFFFF"/>
				<stop  offset="1" style="stop-color:#000000"/>
			</radialGradient>
			
				<rect x="333.237" y="180.511" fill="url(#SVGID_3_)" stroke="url(#SVGID_4_)" stroke-width="0.75" stroke-linecap="round" stroke-linejoin="round" stroke-miterlimit="1" width="150" height="80.729"/>
			<g>
				<g>
					<path fill="#FFFFFF" d="M362.856,116.451c-1.732,15.95-6.639,50.138-4.289,74.264h4.746
						c-2.709-24.191,2.195-57.318,4.605-74.185L362.856,116.451z"/>
					<g>
						<path fill="none" stroke="#000000" stroke-width="0.25" d="M363.856,116.466l-1-0.016c-0.035,0.323-0.071,0.653-0.109,0.99"/>
						<path fill="none" stroke="#000000" stroke-width="0.25" stroke-dasharray="1.9867,0.9934" d="M362.637,118.425
							c-1.849,16.306-6.138,47.738-4.205,70.793"/>
						<path fill="none" stroke="#000000" stroke-width="0.25" d="M358.475,189.72c0.03,0.333,0.061,0.665,0.093,0.995h1"/>
						
							<line fill="none" stroke="#000000" stroke-width="0.25" stroke-dasharray="1.373,0.6865" x1="360.254" y1="190.715" x2="361.971" y2="190.715"/>
						<path fill="none" stroke="#000000" stroke-width="0.25" d="M362.313,190.715h1c-0.037-0.33-0.072-0.661-0.106-0.994"/>
						<path fill="none" stroke="#000000" stroke-width="0.25" stroke-dasharray="1.9865,0.9932" d="M363.11,188.732
							c-2.177-23.289,2.194-53.941,4.598-70.726"/>
						<path fill="none" stroke="#000000" stroke-width="0.25" d="M367.777,117.518c0.048-0.335,0.096-0.665,0.142-0.988l-1-0.016"/>
						
							<line fill="none" stroke="#000000" stroke-width="0.25" stroke-dasharray="1.5316,0.7658" x1="366.153" y1="116.502" x2="364.239" y2="116.472"/>
					</g>
				</g>
				<path fill="#CCDEF0" stroke="#000000" stroke-width="0.25" stroke-linejoin="bevel" d="M362.278,190.477
					c-2.896-23.935,2.211-58.393,4.525-73.947h-2.768c-1.889,16.4-7.066,50.079-4.365,73.947H362.278z"/>
			</g>
			<g>
				<g>
					<path fill="#FFFFFF" d="M436.435,134.188c6.322,13.289,17.592,37.315,21.43,56.526h-4.746
						c-4.184-18.304-14.385-42.619-21.881-56.15L436.435,134.188z"/>
					<g>
						<path fill="none" stroke="#000000" stroke-width="0.25" d="M435.438,134.261l0.997-0.072c0.14,0.294,0.282,0.594,0.428,0.899"
							/>
						<path fill="none" stroke="#000000" stroke-width="0.25" stroke-dasharray="2.0203,1.0101" d="M437.294,135.998
							c6.266,13.216,16.346,35.14,20.263,53.238"/>
						<path fill="none" stroke="#000000" stroke-width="0.25" d="M457.663,189.735c0.069,0.328,0.136,0.654,0.201,0.979h-1"/>
						
							<line fill="none" stroke="#000000" stroke-width="0.25" stroke-dasharray="1.373,0.6865" x1="456.178" y1="190.715" x2="454.461" y2="190.715"/>
						<path fill="none" stroke="#000000" stroke-width="0.25" d="M454.118,190.715h-1c-0.073-0.321-0.148-0.646-0.227-0.971"/>
						<path fill="none" stroke="#000000" stroke-width="0.25" stroke-dasharray="2.0143,1.0071" d="M452.656,188.768
							c-4.288-17.457-13.552-39.638-20.699-52.887"/>
						<path fill="none" stroke="#000000" stroke-width="0.25" d="M431.718,135.439c-0.161-0.296-0.321-0.588-0.48-0.875l0.997-0.072
							"/>
						
							<line fill="none" stroke="#000000" stroke-width="0.25" stroke-dasharray="1.6054,0.8027" x1="433.035" y1="134.435" x2="435.037" y2="134.29"/>
					</g>
				</g>
				<path fill="#CCDEF0" stroke="#000000" stroke-width="0.25" stroke-linejoin="bevel" d="M454.089,190.536
					c-3.65-17.988-15.01-44.043-21.578-55.733h2.766c6.377,12.325,17.592,37.795,21.42,55.733H454.089z"/>
			</g>
			<g>
				<g>
					<path fill="#FFFFFF" d="M382.22,134.723c4.004,9.998-2.24,44.265,7.729,56.19l4.596-0.154
						c-11.408-17.648-3.719-43.358-7.725-56.593L382.22,134.723z"/>
					<g>
						<path fill="none" stroke="#000000" stroke-width="0.25" d="M383.213,134.603l-0.993,0.12c0.117,0.293,0.226,0.607,0.326,0.941
							"/>
						<path fill="none" stroke="#000000" stroke-width="0.25" stroke-dasharray="2.0165,1.0082" d="M382.804,136.637
							c2.674,11.477-1.933,40.946,6.242,53.073"/>
						<path fill="none" stroke="#000000" stroke-width="0.25" d="M389.335,190.124c0.197,0.272,0.401,0.536,0.613,0.789l0.999-0.033
							"/>
						
							<line fill="none" stroke="#000000" stroke-width="0.25" stroke-dasharray="1.2991,0.6496" x1="391.597" y1="190.857" x2="393.22" y2="190.804"/>
						<path fill="none" stroke="#000000" stroke-width="0.25" d="M393.545,190.792l0.999-0.033c-0.182-0.28-0.358-0.563-0.53-0.849"
							/>
						<path fill="none" stroke="#000000" stroke-width="0.25" stroke-dasharray="2.0311,1.0155" d="M393.502,189.033
							c-9.521-16.918-3.302-40.271-6.299-53.411"/>
						<path fill="none" stroke="#000000" stroke-width="0.25" d="M387.085,135.128c-0.082-0.328-0.171-0.648-0.266-0.962
							l-0.993,0.12"/>
						
							<line fill="none" stroke="#000000" stroke-width="0.25" stroke-dasharray="1.3166,0.6583" x1="385.173" y1="134.365" x2="383.539" y2="134.563"/>
					</g>
				</g>
				<path fill="#CCDEF0" stroke="#000000" stroke-width="0.25" stroke-linejoin="bevel" d="M393.821,191.438
					c-11.484-17.414-4.414-44.729-8.027-56.953l-2.541,0.201c4.314,12.771-3.107,39.909,8.174,57.314L393.821,191.438z"/>
			</g>
			<g>
				<g>
					<path fill="#FFFFFF" d="M406.05,141.074c14.301,21.378,4.75,34.959,15.824,49.839l4.596-0.154
						c-11.408-17.648-3.16-30.891-15.424-49.767L406.05,141.074z"/>
					<g>
						<path fill="none" stroke="#000000" stroke-width="0.25" d="M407.05,141.058l-1,0.017c0.188,0.281,0.372,0.561,0.552,0.839"/>
						<path fill="none" stroke="#000000" stroke-width="0.25" stroke-dasharray="1.9613,0.9807" d="M407.129,142.745
							c12.378,19.853,4.435,32.934,13.887,46.957"/>
						<path fill="none" stroke="#000000" stroke-width="0.25" d="M421.289,190.102c0.188,0.27,0.383,0.541,0.585,0.812l0.999-0.033"
							/>
						
							<line fill="none" stroke="#000000" stroke-width="0.25" stroke-dasharray="1.2991,0.6496" x1="423.522" y1="190.857" x2="425.146" y2="190.804"/>
						<path fill="none" stroke="#000000" stroke-width="0.25" d="M425.471,190.792l0.999-0.033
							c-0.184-0.283-0.361-0.566-0.535-0.848"/>
						<path fill="none" stroke="#000000" stroke-width="0.25" stroke-dasharray="1.9486,0.9743" d="M425.432,189.075
							c-9.635-16.431-2.846-29.21-13.594-46.825"/>
						<path fill="none" stroke="#000000" stroke-width="0.25" d="M411.584,141.838c-0.175-0.281-0.354-0.563-0.538-0.846l-1,0.017"
							/>
						
							<line fill="none" stroke="#000000" stroke-width="0.25" stroke-dasharray="1.4984,0.7492" x1="409.297" y1="141.021" x2="407.424" y2="141.052"/>
					</g>
				</g>
				<path fill="#CCDEF0" stroke="#000000" stroke-width="0.25" stroke-linejoin="bevel" d="M425.749,191.438
					c-11.486-17.414-4.414-32.242-15.969-50.362l-2.541,0.201c13.406,16.541,5.037,34.855,16.113,50.724L425.749,191.438z"/>
			</g>
			<g>
				
					<path fill="#CCDEF0" stroke="#010101" stroke-width="0.75" stroke-linecap="round" stroke-linejoin="round" stroke-miterlimit="1" d="
					M418.085,32.797c0,5.437-4.41,9.845-9.848,9.846c-5.436,0-9.846-4.41-9.846-9.848c0-5.438,4.41-9.846,9.846-9.844
					C413.675,22.949,418.085,27.358,418.085,32.797z"/>
				
					<path fill="#CCDEF0" stroke="#010101" stroke-width="0.75" stroke-linecap="round" stroke-linejoin="round" stroke-miterlimit="1" d="
					M393.415,39.406c0,5.436-4.408,9.845-9.848,9.847c-5.438,0.001-9.844-4.411-9.846-9.848c0.002-5.437,4.408-9.845,9.846-9.843
					C389.007,29.559,393.415,33.968,393.415,39.406z"/>
				
					<path fill="#CCDEF0" stroke="#010101" stroke-width="0.75" stroke-linecap="round" stroke-linejoin="round" stroke-miterlimit="1" d="
					M375.354,57.466c0.002,5.437-4.406,9.845-9.846,9.847c-5.438,0-9.846-4.41-9.85-9.846c0.006-5.439,4.412-9.849,9.848-9.845
					C370.946,47.621,375.354,52.028,375.354,57.466z"/>
				
					<path fill="#CCDEF0" stroke="#010101" stroke-width="0.75" stroke-linecap="round" stroke-linejoin="round" stroke-miterlimit="1" d="
					M368.745,82.137c0.002,5.438-4.406,9.845-9.846,9.847c-5.438,0-9.848-4.409-9.848-9.85c0.002-5.437,4.41-9.844,9.846-9.842
					C364.339,72.29,368.747,76.696,368.745,82.137z"/>
				
					<circle fill="#CCDEF0" stroke="#010101" stroke-width="0.75" stroke-linecap="round" stroke-linejoin="round" stroke-miterlimit="1" cx="450.967" cy="106.806" r="9.847"/>
				
					<path fill="#CCDEF0" stroke="#010101" stroke-width="0.75" stroke-linecap="round" stroke-linejoin="round" stroke-miterlimit="1" d="
					M467.425,82.137c0,5.435-4.408,9.845-9.848,9.845c-5.438,0-9.848-4.409-9.848-9.849c0.002-5.436,4.412-9.844,9.848-9.843
					C463.017,72.289,467.425,76.696,467.425,82.137z"/>
				
					<circle fill="#CCDEF0" stroke="#010101" stroke-width="0.75" stroke-linecap="round" stroke-linejoin="round" stroke-miterlimit="1" cx="450.967" cy="57.466" r="9.847"/>
				
					<path fill="#CCDEF0" stroke="#010101" stroke-width="0.75" stroke-linecap="round" stroke-linejoin="round" stroke-miterlimit="1" d="
					M442.755,39.408c0,5.436-4.408,9.844-9.848,9.845c-5.436,0.001-9.846-4.41-9.846-9.848c0.002-5.437,4.41-9.846,9.846-9.844
					C438.347,29.56,442.753,33.968,442.755,39.408z"/>
				
					<path fill="#CCDEF0" stroke="#010101" stroke-width="0.75" stroke-linecap="round" stroke-linejoin="round" stroke-miterlimit="1" d="
					M370.821,226.559c0,5.438-4.408,9.846-9.848,9.847c-5.436,0-9.848-4.408-9.848-9.849c0.002-5.437,4.41-9.845,9.846-9.843
					C366.413,216.713,370.821,221.118,370.821,226.559z"/>
				
					<path fill="#CCDEF0" stroke="#010101" stroke-width="0.75" stroke-linecap="round" stroke-linejoin="round" stroke-miterlimit="1" d="
					M402.329,226.559c0.002,5.438-4.406,9.846-9.846,9.847c-5.438,0-9.848-4.408-9.848-9.849c0.002-5.437,4.41-9.845,9.846-9.843
					C397.923,216.713,402.331,221.118,402.329,226.559z"/>
				
					<path fill="#CCDEF0" stroke="#010101" stroke-width="0.75" stroke-linecap="round" stroke-linejoin="round" stroke-miterlimit="1" d="
					M433.841,226.559c0,5.438-4.41,9.846-9.848,9.847c-5.436,0-9.848-4.408-9.848-9.849c0.002-5.437,4.41-9.845,9.846-9.843
					C429.431,216.713,433.841,221.118,433.841,226.559z"/>
				
					<circle fill="#CCDEF0" stroke="#010101" stroke-width="0.75" stroke-linecap="round" stroke-linejoin="round" stroke-miterlimit="1" cx="455.502" cy="226.558" r="9.847"/>
				
					<circle fill="#CCDEF0" stroke="#010101" stroke-width="0.75" stroke-linecap="round" stroke-linejoin="round" stroke-miterlimit="1" cx="365.508" cy="106.805" r="9.847"/>
				
					<path fill="#CCDEF0" stroke="#010101" stroke-width="0.75" stroke-linecap="round" stroke-linejoin="round" stroke-miterlimit="1" d="
					M370.821,200.322c0,5.437-4.408,9.845-9.848,9.847c-5.436,0-9.848-4.408-9.848-9.85c0.002-5.437,4.41-9.846,9.846-9.843
					C366.413,190.476,370.821,194.882,370.821,200.322z"/>
				
					<path fill="#CCDEF0" stroke="#010101" stroke-width="0.75" stroke-linecap="round" stroke-linejoin="round" stroke-miterlimit="1" d="
					M402.329,200.322c0.002,5.437-4.406,9.845-9.846,9.847c-5.438,0-9.848-4.408-9.848-9.85c0.002-5.437,4.41-9.846,9.846-9.843
					C397.923,190.476,402.331,194.882,402.329,200.322z"/>
				
					<path fill="#CCDEF0" stroke="#010101" stroke-width="0.75" stroke-linecap="round" stroke-linejoin="round" stroke-miterlimit="1" d="
					M433.841,200.322c0,5.437-4.41,9.845-9.848,9.847c-5.436,0-9.848-4.408-9.848-9.85c0.002-5.437,4.41-9.846,9.846-9.843
					C429.431,190.476,433.841,194.882,433.841,200.322z"/>
				
					<circle fill="#CCDEF0" stroke="#010101" stroke-width="0.75" stroke-linecap="round" stroke-linejoin="round" stroke-miterlimit="1" cx="455.502" cy="200.321" r="9.847"/>
				
					<path fill="#CCDEF0" stroke="#010101" stroke-width="0.75" stroke-linecap="round" stroke-linejoin="round" stroke-miterlimit="1" d="
					M393.415,124.866c0,5.438-4.408,9.845-9.848,9.847c-5.438,0.002-9.846-4.408-9.846-9.848c0.002-5.438,4.408-9.846,9.846-9.843
					C389.009,115.02,393.415,119.428,393.415,124.866z"/>
				
					<path fill="#CCDEF0" stroke="#010101" stroke-width="0.75" stroke-linecap="round" stroke-linejoin="round" stroke-miterlimit="1" d="
					M442.757,124.867c-0.002,5.437-4.41,9.846-9.85,9.846c-5.436,0-9.846-4.409-9.846-9.849c0.002-5.437,4.41-9.845,9.846-9.843
					C438.347,115.02,442.757,119.428,442.757,124.867z"/>
				
					<circle fill="#CCDEF0" stroke="#010101" stroke-width="0.75" stroke-linecap="round" stroke-linejoin="round" stroke-miterlimit="1" cx="408.238" cy="131.473" r="9.847"/>
			</g>
			<g>
				<g>
					<text transform="matrix(0.9288 0 0 1 405.3828 35.8545)" font-size="11.0284">1</text>
				</g>
				<g>
					<text transform="matrix(0.9288 0 0 1 377.8633 42.4653)" font-size="11.0284">12</text>
				</g>
				<g>
					<text transform="matrix(0.9288 0 0 1 359.8037 60.5273)" font-size="11.0284">11</text>
				</g>
				<g>
					<text transform="matrix(0.9288 0 0 1 353.1953 85.1948)" font-size="11.0284">10</text>
				</g>
				<g>
					<text transform="matrix(0.9288 0 0 1 380.7158 127.9233)" font-size="11.0284">8</text>
				</g>
				<g>
					<text transform="matrix(0.9288 0 0 1 405.3857 134.5317)" font-size="11.0284">7</text>
				</g>
				<g>
					<text transform="matrix(0.9288 0 0 1 430.0547 127.9229)" font-size="11.0284">6</text>
				</g>
				<g>
					<text transform="matrix(0.9288 0 0 1 448.1123 109.8647)" font-size="11.0284">5</text>
				</g>
				<g>
					<text transform="matrix(0.9288 0 0 1 454.7227 85.1929)" font-size="11.0284">4</text>
				</g>
				<g>
					<text transform="matrix(0.9288 0 0 1 448.1133 60.5234)" font-size="11.0284">3</text>
				</g>
				<g>
					<text transform="matrix(0.9288 0 0 1 430.0537 42.4648)" font-size="11.0284">2</text>
				</g>
				<g>
					<rect x="381.192" y="77.016" fill="none" width="54.092" height="10.241"/>
					<text transform="matrix(0.9288 0 0 1 381.1855 84.8994)" font-size="11.0284">Afterloader</text>
				</g>
				<g>
					<text transform="matrix(0.9288 0 0 1 354.708 229.6172)" font-size="11.0284">A5</text>
				</g>
				<g>
					<text transform="matrix(0.9288 0 0 1 386.2168 229.6172)" font-size="11.0284">A6</text>
				</g>
				<g>
					<text transform="matrix(0.9288 0 0 1 417.7266 229.6172)" font-size="11.0284">A7</text>
				</g>
				<g>
					<text transform="matrix(0.9288 0 0 1 449.2354 229.6172)" font-size="11.0284">A8</text>
				</g>
				<g>
					<rect x="367.276" y="245.219" fill="none" width="81.924" height="10.24"/>
					<text transform="matrix(0.9288 0 0 1 367.2686 253.1006)" font-size="11.0284">Source Applicator</text>
				</g>
				<g>
					<text transform="matrix(0.9288 0 0 1 354.708 203.3809)" font-size="11.0284">A1</text>
				</g>
				<g>
					<text transform="matrix(0.9288 0 0 1 386.2168 203.3809)" font-size="11.0284">A2</text>
				</g>
				<g>
					<text transform="matrix(0.9288 0 0 1 417.7266 203.3809)" font-size="11.0284">A3</text>
				</g>
				<g>
					<text transform="matrix(0.9288 0 0 1 449.2354 203.3809)" font-size="11.0284">A4</text>
				</g>
				<g>
					<text transform="matrix(0.9288 0 0 1 362.6553 109.8647)" font-size="11.0284">9</text>
				</g>
			</g>
		</g>
		<g>
			
				<line fill="#4F8ABE" stroke="#005695" stroke-linecap="round" stroke-linejoin="round" stroke-miterlimit="1" stroke-dasharray="3" x1="273.259" y1="275.721" x2="273.259" y2="66.67"/>
			
				<rect x="22.868" y="77.359" fill="#CCDEF0" stroke="#010101" stroke-width="0.75" stroke-linecap="round" stroke-linejoin="round" stroke-miterlimit="1" width="250.389" height="186.391"/>
			
				<line fill="#4F8ABE" stroke="#005695" stroke-linecap="round" stroke-linejoin="round" stroke-miterlimit="1" stroke-dasharray="3" x1="22.866" y1="275.721" x2="22.866" y2="66.67"/>
			
				<rect x="40.434" y="93.869" fill="#86B2D8" stroke="#010101" stroke-width="0.75" stroke-linecap="round" stroke-linejoin="round" stroke-miterlimit="1" width="232.823" height="169.881"/>
			
				<rect x="57.211" y="217.039" fill="#B2CEE7" stroke="#010101" stroke-width="0.75" stroke-linecap="round" stroke-linejoin="round" stroke-miterlimit="1" width="216.046" height="31.211"/>
			
				<rect x="57.211" y="109.03" fill="#B2CEE7" stroke="#010101" stroke-width="0.75" stroke-linecap="round" stroke-linejoin="round" stroke-miterlimit="1" width="216.046" height="108.009"/>
			
				<rect x="73.878" y="124.15" fill="#86B2D8" stroke="#010101" stroke-width="0.75" stroke-linecap="round" stroke-linejoin="round" stroke-miterlimit="1" width="199.379" height="92.889"/>
			
				<rect x="73.878" y="232.404" fill="#86B2D8" stroke="#010101" stroke-width="0.75" stroke-linecap="round" stroke-linejoin="round" stroke-miterlimit="1" width="199.379" height="15.846"/>
			
				<rect x="91.211" y="139.553" fill="#FFFFFF" stroke="#010101" stroke-width="0.75" stroke-linecap="round" stroke-linejoin="round" stroke-miterlimit="1" width="182.046" height="77.486"/>
			
				<line fill="#FFFFFF" stroke="#010101" stroke-width="0.75" stroke-linecap="round" stroke-linejoin="round" stroke-miterlimit="1" x1="91.211" y1="154.942" x2="273.257" y2="154.942"/>
			
				<line fill="#FFFFFF" stroke="#010101" stroke-width="0.75" stroke-linecap="round" stroke-linejoin="round" stroke-miterlimit="1" x1="91.211" y1="170.447" x2="273.257" y2="170.447"/>
			
				<line fill="#FFFFFF" stroke="#010101" stroke-width="0.75" stroke-linecap="round" stroke-linejoin="round" stroke-miterlimit="1" x1="91.211" y1="185.852" x2="273.257" y2="185.852"/>
			
				<line fill="#FFFFFF" stroke="#010101" stroke-width="0.75" stroke-linecap="round" stroke-linejoin="round" stroke-miterlimit="1" x1="91.211" y1="201.155" x2="273.257" y2="201.155"/>
			<g>
				<rect x="24.454" y="82.891" fill="none" width="205.157" height="8.511"/>
				<text transform="matrix(0.9288 0 0 1 24.4546 89.2681)" font-size="9">Applicator Setup Sequence (300A,0230)</text>
				<rect x="45.075" y="97.48" fill="none" width="198.935" height="8.512"/>
				<text transform="matrix(0.9288 0 0 1 45.0752 103.8579)" font-size="9">Item 1</text>
				<rect x="62.08" y="112.807" fill="none" width="176.348" height="8.511"/>
				<text transform="matrix(0.9288 0 0 1 62.0811 119.1846)" font-size="9">&gt;Channel Sequence (300A,0280)</text>
				<rect x="78.892" y="128.314" fill="none" width="123.968" height="8.51"/>
				<text transform="matrix(0.9288 0 0 1 78.8926 134.6997)" font-size="9">Item 1</text>
				<rect x="78.892" y="236.568" fill="none" width="123.968" height="8.51"/>
				<text transform="matrix(0.9288 0 0 1 78.8926 242.9531)" font-size="9">Item 1</text>
				<rect x="99.653" y="144.33" fill="none" width="173.471" height="8.51"/>
				<text transform="matrix(0.9288 0 0 1 99.6528 150.7441)" font-size="9">&gt;&gt;Channel Number (300A,0282)</text>
				<rect x="99.653" y="159.229" fill="none" width="172.922" height="8.51"/>
				<text transform="matrix(0.9288 0 0 1 99.6528 165.6436)" font-size="9">&gt;&gt;Afterloader Channel ID (300A,0273)</text>
				<rect x="99.653" y="174.129" fill="none" width="172.922" height="8.51"/>
				<text transform="matrix(0.9288 0 0 1 99.6528 180.543)" font-size="9">&gt;&gt;...</text>
				<rect x="99.653" y="189.027" fill="none" width="172.922" height="8.51"/>
				<text transform="matrix(0.9288 0 0 1 99.6528 195.4424)" font-size="9">&gt;&gt;Source Applicator Number (300A,0290)</text>
				<rect x="99.653" y="203.928" fill="none" width="172.922" height="8.51"/>
				<text transform="matrix(0.9288 0 0 1 99.6528 210.3418)" font-size="9">&gt;&gt;Source Applicator ID (300A,0291)</text>
				<rect x="62.08" y="220.237" fill="none" width="176.348" height="8.512"/>
				<text transform="matrix(0.9288 0 0 1 62.0811 226.6348)" font-size="9">&gt;Applicator Setup Name (300A,0236)</text>
			</g>
		</g>
		<g>
			<g>
				<line fill="none" stroke="#000000" x1="278.575" y1="85.696" x2="326.968" y2="85.696"/>
				<g>
					<polygon points="324.986,88.602 335.827,85.696 324.986,82.791 					"/>
				</g>
			</g>
		</g>
		<g>
			<g>
				<polyline fill="none" stroke="#000000" points="278.575,117.062 308.147,117.062 350.681,157.331 				"/>
				<g>
					<polygon points="347.244,158.078 357.114,163.422 351.239,153.859 					"/>
				</g>
			</g>
		</g>
		<g>
			<g>
				<line fill="none" stroke="#000000" x1="308.81" y1="117.062" x2="310.31" y2="117.062"/>
				<polyline fill="none" stroke="#000000" stroke-dasharray="3.0578,3.0578" points="313.367,117.062 321.249,117.062 
					371.892,156.157 				"/>
				<line fill="none" stroke="#000000" x1="373.102" y1="157.092" x2="374.289" y2="158.008"/>
				<g>
					<polygon points="370.945,159.097 381.302,163.422 374.496,154.498 					"/>
				</g>
			</g>
		</g>
		<g>
			<g>
				<line fill="none" stroke="#000000" x1="278.575" y1="224.493" x2="325.491" y2="224.493"/>
				<g>
					<polygon points="323.51,227.398 334.351,224.493 323.51,221.588 					"/>
				</g>
			</g>
		</g>
		<g>
			<g>
				<line fill="none" stroke="#000000" x1="288.206" y1="200.833" x2="339.747" y2="200.7"/>
				<g>
					<polygon points="337.773,203.611 348.606,200.678 337.758,197.801 					"/>
				</g>
			</g>
		</g>
		<path fill="none" stroke="#000000" d="M279.228,216.466c1.121,0,1.869-0.239,2.246-0.719c0.375-0.479,0.562-1.555,0.562-3.228
			c0-2.809,0.051-4.84,0.154-6.092c0.104-1.251,0.393-2.301,0.865-3.151c0.475-0.849,1.271-1.586,2.393-2.212
			c-1.109-0.536-1.957-1.392-2.539-2.567c-0.582-1.175-0.873-3.211-0.873-6.11c0-2.669-0.049-4.301-0.146-4.895
			s-0.287-1.051-0.564-1.37c-0.277-0.318-0.977-0.479-2.098-0.479"/>
	</g>
</g>
</svg>
