<?xml version="1.0" encoding="utf-8"?>

<!DOCTYPE svg PUBLIC "-//W3C//DTD SVG 1.1//EN" "http://www.w3.org/Graphics/SVG/1.1/DTD/svg11.dtd">
<svg version="1.1" id="Layer_1" xmlns="http://www.w3.org/2000/svg" xmlns:xlink="http://www.w3.org/1999/xlink" x="0px" y="0px"
	 width="502px" height="347px" viewBox="0 0 502 347" enable-background="new 0 0 502 347" xml:space="preserve">
        
<defs>
	<style type="text/css">
	text {
	  font-family: Helvetica, Verdana, ArialUnicodeMS, san-serif
	}
	</style>
</defs>

<g>
   <desc>
	PS 3.3 Information Object Definitions
   </desc>
</g>

<g>
	<rect x="1" y="1" fill="#F5EED6" width="500" height="345"/>
	<g>
		<g>
			<g>
				
					<line fill="none" stroke="#005695" stroke-width="2" stroke-miterlimit="1" x1="357.517" y1="131.641" x2="357.517" y2="122.145"/>
				<g>
					<polygon fill="#005695" points="359.841,130.056 357.517,138.729 355.192,130.056 					"/>
				</g>
			</g>
		</g>
		<g>
			<g>
				
					<line fill="none" stroke="#005695" stroke-width="2" stroke-miterlimit="1" x1="149.095" y1="121.943" x2="149.095" y2="144.788"/>
				<g>
					<polygon fill="#005695" points="146.771,143.202 149.095,151.875 151.419,143.202 					"/>
				</g>
			</g>
		</g>
		<g>
			<g>
				<polyline fill="none" stroke="#005695" stroke-width="2" stroke-miterlimit="1" points="189.979,205.503 189.979,182.036 
					149.223,182.023 149.17,169.689 				"/>
				<g>
					<polygon fill="#005695" points="192.303,203.918 189.979,212.591 187.654,203.918 					"/>
				</g>
			</g>
		</g>
		<g>
			<g>
				
					<line fill="none" stroke="#005695" stroke-width="2" stroke-miterlimit="1" x1="251.097" y1="122.337" x2="251.097" y2="144.784"/>
				<g>
					<polygon fill="#005695" points="248.772,143.198 251.097,151.871 253.421,143.198 					"/>
				</g>
			</g>
		</g>
		<g>
			<g>
				<polyline fill="none" stroke="#005695" stroke-width="2" stroke-miterlimit="1" points="220.898,205.503 220.898,196.574 
					357.517,196.574 357.517,182.069 				"/>
				<g>
					<polygon fill="#005695" points="223.223,203.918 220.898,212.591 218.574,203.918 					"/>
				</g>
			</g>
		</g>
		<g>
			<g>
				<polyline fill="none" stroke="#005695" stroke-width="2" stroke-miterlimit="1" points="155.993,253.231 155.993,244.462 
					205.237,244.462 205.237,229.798 				"/>
				<g>
					<polygon fill="#005695" points="158.317,251.646 155.993,260.319 153.669,251.646 					"/>
				</g>
			</g>
		</g>
		<g>
			<g>
				<polyline fill="none" stroke="#005695" stroke-width="2" stroke-miterlimit="1" points="252.91,253.549 252.91,244.462 
					205.237,244.462 205.237,230.115 				"/>
				<g>
					<polygon fill="#005695" points="255.234,251.964 252.91,260.637 250.586,251.964 					"/>
				</g>
			</g>
		</g>
		<g>
			<g>
				<polyline fill="none" stroke="#005695" stroke-width="2" stroke-miterlimit="1" points="205.416,205.503 205.416,181.746 
					251.161,181.746 251.161,169.689 				"/>
				<g>
					<polygon fill="#005695" points="207.74,203.918 205.416,212.591 203.092,203.918 					"/>
				</g>
			</g>
		</g>
		<g>
			<g>
				
					<line fill="none" stroke="#005695" stroke-width="2" stroke-miterlimit="1" x1="149.167" y1="82.137" x2="149.112" y2="96.711"/>
				<g>
					<polygon fill="#005695" points="146.793,95.117 149.085,103.799 151.442,95.135 					"/>
				</g>
			</g>
		</g>
		<g>
			<g>
				
					<line fill="none" stroke="#005695" stroke-width="2" stroke-miterlimit="1" x1="149.167" y1="33.299" x2="149.111" y2="48.185"/>
				<g>
					<polygon fill="#005695" points="146.793,46.591 149.085,55.272 151.441,46.608 					"/>
				</g>
			</g>
		</g>
		<g>
			<g>
				
					<line fill="none" stroke="#005695" stroke-width="2" stroke-miterlimit="1" x1="253.66" y1="279.209" x2="253.606" y2="292.703"/>
				<g>
					<polygon fill="#005695" points="251.289,291.109 253.578,299.791 255.937,291.128 					"/>
				</g>
			</g>
		</g>
		<g>
			<g>
				
					<line fill="none" stroke="#005695" stroke-width="2" stroke-miterlimit="1" x1="155.994" y1="279.209" x2="155.94" y2="292.703"/>
				<g>
					<polygon fill="#005695" points="153.622,291.109 155.912,299.791 158.271,291.128 					"/>
				</g>
			</g>
		</g>
		
			<polygon fill="#CCDEF0" stroke="#010101" stroke-width="0.75" stroke-linecap="round" stroke-linejoin="round" stroke-miterlimit="1" points="
			104.162,160.737 149.096,151.875 194.16,160.864 194.16,160.886 149.096,169.875 		"/>
		<g>
			<text transform="matrix(1 0 0 1 132.3994 163.312)" font-size="9">contains</text>
		</g>
		
			<polygon fill="#CCDEF0" stroke="#010101" stroke-width="0.75" stroke-linecap="round" stroke-linejoin="round" stroke-miterlimit="1" points="
			206.09,160.733 251.024,151.871 296.088,160.86 296.088,160.882 251.024,169.871 		"/>
		<g>
			<text transform="matrix(1 0 0 1 236.332 163.312)" font-size="9">creates</text>
		</g>
		
			<polygon fill="#CCDEF0" stroke="#010101" stroke-width="0.75" stroke-linecap="round" stroke-linejoin="round" stroke-miterlimit="1" points="
			307.703,160.882 357.131,138.729 406.703,161.203 406.703,161.253 357.131,183.729 		"/>
		<g>
			<text transform="matrix(1 0 0 1 342.7832 153.8745)"><tspan x="0" y="0" font-size="9">spatially</tspan><tspan x="-9.752" y="8.8" font-size="9">or temporally</tspan><tspan x="1.746" y="17.6" font-size="9">defines</tspan></text>
		</g>
		
			<rect x="209.205" y="103.799" fill="#86B2D8" stroke="#010101" stroke-width="0.75" stroke-linecap="round" stroke-linejoin="round" stroke-miterlimit="1" width="83.992" height="18"/>
		<g>
			<text transform="matrix(1 0 0 1 222.5161 116.0728)" font-size="12">Equipment</text>
		</g>
		
			<rect x="308.023" y="103.799" fill="#86B2D8" stroke="#010101" stroke-width="0.75" stroke-linecap="round" stroke-linejoin="round" stroke-miterlimit="1" width="99" height="18"/>
		<g>
			<text transform="matrix(1 0 0 1 313.0732 116.0728)" font-size="10">Frame of Reference</text>
		</g>
		
			<rect x="107.086" y="15.237" fill="#86B2D8" stroke="#010101" stroke-width="0.75" stroke-linecap="round" stroke-linejoin="round" stroke-miterlimit="1" width="84.004" height="18"/>
		<g>
			<text transform="matrix(1 0 0 1 130.4043 27.5054)" font-size="12">Patient</text>
		</g>
		
			<rect x="107.09" y="103.937" fill="#86B2D8" stroke="#010101" stroke-width="0.75" stroke-linecap="round" stroke-linejoin="round" stroke-miterlimit="1" width="83.996" height="18"/>
		<g>
			<text transform="matrix(1 0 0 1 133.7422 116.2085)" font-size="12">Study</text>
		</g>
		<g>
			<text transform="matrix(1 0 0 1 178.8555 152.3892)" font-size="9">1</text>
		</g>
		<g>
			<text transform="matrix(1 0 0 1 170.8535 174.395)" font-size="9">1-n</text>
		</g>
		<g>
			<text transform="matrix(1 0 0 1 280.1875 152.3892)" font-size="9">1</text>
		</g>
		<g>
			<text transform="matrix(1 0 0 1 272.1846 174.395)" font-size="9">1-n</text>
		</g>
		<g>
			<text transform="matrix(1 0 0 1 391.1846 148.3579)" font-size="9">0-1</text>
		</g>
		<g>
			<text transform="matrix(1 0 0 1 391.1846 179.002)" font-size="9">0-n</text>
		</g>
		
			<polygon fill="#CCDEF0" stroke="#010101" stroke-width="0.75" stroke-linecap="round" stroke-linejoin="round" stroke-miterlimit="1" points="
			94.977,68.565 148.897,55.272 202.978,68.757 202.978,68.788 148.897,82.272 		"/>
		<g>
			<text transform="matrix(1 0 0 1 117.5635 71.2192)" font-size="9">is the subject of</text>
		</g>
		<g>
			<text transform="matrix(1 0 0 1 191.8267 58.4771)" font-size="9">1</text>
		</g>
		<g>
			<text transform="matrix(1 0 0 1 183.8242 85.5229)" font-size="9">1-n</text>
		</g>
		
			<polygon fill="#CCDEF0" stroke="#010101" stroke-width="0.75" stroke-linecap="round" stroke-linejoin="round" stroke-miterlimit="1" points="
			208.621,270.083 253.555,261.221 298.621,270.21 298.621,270.231 253.555,279.22 		"/>
		<g>
			<text transform="matrix(1 0 0 1 236.8589 272.6582)" font-size="9">contains</text>
		</g>
		
			<rect x="163.238" y="212.81" fill="#86B2D8" stroke="#010101" stroke-width="0.75" stroke-linecap="round" stroke-linejoin="round" stroke-miterlimit="1" width="84.001" height="17.987"/>
		<g>
			<text transform="matrix(1 0 0 1 188.2305 225.0928)" font-size="12">Series</text>
		</g>
		
			<rect x="212.803" y="295.763" fill="#86B2D8" stroke="#010101" stroke-width="0.75" stroke-linecap="round" stroke-linejoin="round" stroke-miterlimit="1" width="83.996" height="36"/>
		<g>
			<text transform="matrix(1 0 0 1 221.1182 312.2012)"><tspan x="0" y="0" font-size="12">RT Segment</tspan><tspan x="4.989" y="11.734" font-size="12">Annotation</tspan></text>
		</g>
		<g>
			<text transform="matrix(1 0 0 1 291.8662 261.7266)" font-size="9">1</text>
		</g>
		<g>
			<text transform="matrix(1 0 0 1 281.334 285.877)" font-size="9">0-n</text>
		</g>
		
			<polygon fill="#CCDEF0" stroke="#010101" stroke-width="0.75" stroke-linecap="round" stroke-linejoin="round" stroke-miterlimit="1" points="
			110.954,270.083 155.888,261.221 200.954,270.21 200.954,270.231 155.888,279.22 		"/>
		<g>
			<text transform="matrix(1 0 0 1 139.1919 272.6582)" font-size="9">contains</text>
		</g>
		
			<rect x="115.136" y="295.763" fill="#86B2D8" stroke="#010101" stroke-width="0.75" stroke-linecap="round" stroke-linejoin="round" stroke-miterlimit="1" width="83.996" height="36"/>
		<g>
			<text transform="matrix(1 0 0 1 121.7871 312.2012)"><tspan x="0" y="0" font-size="12">RT Physician</tspan><tspan x="20.332" y="11.734" font-size="12">Intent</tspan></text>
		</g>
		<g>
			<text transform="matrix(1 0 0 1 194.1992 261.7266)" font-size="9">1</text>
		</g>
		<g>
			<text transform="matrix(1 0 0 1 183.667 285.877)" font-size="9">0-n</text>
		</g>
	</g>
</g>
</svg>
