<?xml version="1.0" encoding="utf-8"?>

<!DOCTYPE svg PUBLIC "-//W3C//DTD SVG 1.1//EN" "http://www.w3.org/Graphics/SVG/1.1/DTD/svg11.dtd">
<svg version="1.1" id="Layer_1" xmlns="http://www.w3.org/2000/svg" xmlns:xlink="http://www.w3.org/1999/xlink" x="0px" y="0px"
	 width="362px" height="197px" viewBox="0 0 362 197" enable-background="new 0 0 362 197" xml:space="preserve">
        
<defs>
	<style type="text/css">
	text {
	  font-family: Helvetica, Verdana, ArialUnicodeMS, san-serif
	}
	</style>
</defs>

<g>
   <desc>
	PS 3.3 Information Object Definitions
   </desc>
</g>

<g>
	<rect x="1" y="1" fill="#F5EED6" width="360" height="195"/>
	<g>
		<g>
			<text transform="matrix(1 0 0 1 80.3252 23.8359)" font-size="9">Input</text>
		</g>
		<g>
			<text transform="matrix(1 0 0 1 258.9121 23.8359)" font-size="9">Result</text>
		</g>
		
			<rect x="15.334" y="28.639" fill="#FFFFFF" stroke="#000000" stroke-width="0.5" stroke-miterlimit="10" width="150" height="150.002"/>
		
			<rect x="196.666" y="31.139" fill="#FFFFFF" stroke="#000000" stroke-width="0.5" stroke-miterlimit="10" width="150" height="150.002"/>
		<g>
			<path fill="#005695" stroke="#000000" stroke-width="0.5" stroke-miterlimit="10" d="M297.809,53.64
				c-14.042,0-26.146,11.818-31.721,28.867c-5.888-5.475-14.046-8.867-23.064-8.867c-17.948,0-32.5,13.434-32.5,30
				c0,16.57,14.552,30,32.5,30c9.019,0,17.177-3.392,23.064-8.866c5.575,17.049,17.679,28.866,31.721,28.866
				c19.33,0,35-22.385,35-50C332.809,76.026,317.139,53.64,297.809,53.64z"/>
			<ellipse fill="#FFFFFF" stroke="#000000" stroke-width="0.5" stroke-miterlimit="10" cx="302.848" cy="83.331" rx="13" ry="15"/>
		</g>
		<g>
			<ellipse fill="none" stroke="#000000" stroke-width="0.5" stroke-miterlimit="10" cx="61.689" cy="103.64" rx="32.5" ry="30"/>
			<ellipse fill="none" stroke="#000000" stroke-width="0.5" stroke-miterlimit="10" cx="116.475" cy="103.64" rx="35" ry="50"/>
			<g>
				<text transform="matrix(1 0 0 1 50.6885 100.2432)"><tspan x="0" y="0" font-size="9">Heart</tspan><tspan x="5.504" y="11.8" font-size="9">(1)</tspan></text>
			</g>
			<g>
				<text transform="matrix(1 0 0 1 98.7158 130.3047)"><tspan x="0" y="0" font-size="9">Left Lung</tspan><tspan x="13.267" y="11.801" font-size="9">(2)</tspan></text>
			</g>
			<g>
				<text transform="matrix(1 0 0 1 112.5146 80.3047)"><tspan x="0" y="0" font-size="9">CTV</tspan><tspan x="3.5" y="11.801" font-size="9">(3)</tspan></text>
			</g>
			<ellipse fill="none" stroke="#000000" stroke-width="0.5" stroke-miterlimit="10" cx="121.514" cy="83.331" rx="13" ry="15"/>
		</g>
	</g>
</g>
</svg>
