<?xml version="1.0" encoding="utf-8"?>

<!DOCTYPE svg PUBLIC "-//W3C//DTD SVG 1.1//EN" "http://www.w3.org/Graphics/SVG/1.1/DTD/svg11.dtd">
<svg version="1.1" id="Layer_1" xmlns="http://www.w3.org/2000/svg" xmlns:xlink="http://www.w3.org/1999/xlink" x="0px" y="0px"
	 width="602.002px" height="382.012px" viewBox="0 0 602.002 382.012" enable-background="new 0 0 602.002 382.012"
	 xml:space="preserve">

<defs>
	<style type="text/css">
	text {
	  font-family: Helvetica, Verdana, ArialUnicodeMS, san-serif
	}
	</style>
</defs>

<g>
   <desc>
	PS 3.3 Part 3: Information Object Definitions
   </desc>
</g>

<g>
	<polyline fill="#F5EED6" points="1,1 601.002,1 601.002,381.012 1,381.012 	"/>
	<g>
		<rect x="343.01" y="47.612" fill="#C0E2CA" stroke="#000000" width="66.711" height="317.402"/>
		<rect x="337.262" y="267.996" fill="#CCDEF0" stroke="#000000" width="5.748" height="33.345"/>
		<polyline fill="#FFF56D" points="289.296,292.916 221.516,134.688 221.516,285.265 		"/>
		<g>
			<line fill="none" stroke="#FFFFFF" stroke-miterlimit="10" x1="282.71" y1="292.608" x2="221.516" y2="134.688"/>
			<line fill="none" stroke="#FFFFFF" stroke-miterlimit="10" x1="276.295" y1="291.838" x2="221.516" y2="134.688"/>
			<line fill="none" stroke="#FFFFFF" stroke-miterlimit="10" x1="269.684" y1="290.558" x2="221.516" y2="134.688"/>
			<line fill="none" stroke="#FFFFFF" stroke-miterlimit="10" x1="263.721" y1="290.33" x2="221.516" y2="134.688"/>
			<line fill="none" stroke="#FFFFFF" stroke-miterlimit="10" x1="257.882" y1="289.628" x2="220.706" y2="131.229"/>
			<line fill="none" stroke="#FFFFFF" stroke-miterlimit="10" x1="251.976" y1="288.92" x2="221.516" y2="134.688"/>
			<line fill="none" stroke="#FFFFFF" stroke-miterlimit="10" x1="246.31" y1="288.241" x2="221.516" y2="134.688"/>
			<line fill="none" stroke="#FFFFFF" stroke-miterlimit="10" x1="240.753" y1="287.574" x2="221.516" y2="134.688"/>
			<line fill="none" stroke="#FFFFFF" stroke-miterlimit="10" x1="235.295" y1="286.918" x2="221.516" y2="134.688"/>
			<line fill="none" stroke="#FFFFFF" stroke-miterlimit="10" x1="229.916" y1="286.273" x2="221.516" y2="134.688"/>
			<line fill="none" stroke="#FFFFFF" stroke-miterlimit="10" x1="224.852" y1="285.666" x2="221.516" y2="134.688"/>
		</g>
		<polyline fill="none" stroke="#000000" stroke-width="0.5" stroke-miterlimit="10" points="289.369,293.407 221.516,134.688 
			221.516,285.151 		"/>
		<path fill="#CCDEF0" stroke="#000000" d="M309.635,317.587c16.043,0.03,27.627-0.103,27.627-0.103V102.042
			c0-3.317-28.369-6.006-63.365-6.006s-63.367,2.689-63.367,6.006l6.004,55.581h33.088l1.662-11.883l58.383-5.111L309.635,317.587z"
			/>
		<path fill="#B2CEE7" stroke="#000000" d="M216.533,299.462v1.878c6.146,4.24,59.404,16.192,93.102,16.255v-21.757l-93.102-11.171
			V299.462z"/>
		<g>
			<ellipse fill="#FEDA00" cx="221.609" cy="134.763" rx="4.594" ry="4.722"/>
			<path d="M221.189,134.854c0-0.257,0.209-0.466,0.461-0.466c0.258,0,0.467,0.209,0.467,0.466c0,0.256-0.209,0.463-0.467,0.463
				C221.398,135.316,221.189,135.109,221.189,134.854z"/>
			<path d="M222.215,133.798c0.354,0.202,0.594,0.592,0.594,1.039c0,0.035-0.002,0.066-0.004,0.1h2.814
				c0.002-0.033,0.002-0.066,0.002-0.1c0-1.513-0.803-2.836-1.996-3.539L222.215,133.798z"/>
			<path d="M221.111,133.798c-0.357,0.202-0.598,0.592-0.598,1.039c0,0.035,0.002,0.066,0.004,0.1h-2.814c0-0.033,0-0.066,0-0.1
				c0-1.513,0.801-2.836,1.992-3.539L221.111,133.798z"/>
			<path d="M222.309,135.827c-0.352,0.206-0.811,0.276-1.197,0.054c-0.027-0.018-0.057-0.036-0.084-0.054l-1.408,2.436
				c0.029,0.018,0.057,0.035,0.086,0.053c1.311,0.756,2.857,0.629,4.062-0.053L222.309,135.827z"/>
		</g>
		
			<line fill="none" stroke="#000000" stroke-width="0.5" stroke-dasharray="4,4" x1="229.702" y1="333.077" x2="229.702" y2="16.999"/>
		<g>
			<text transform="matrix(1.0877 0 0 1 231.7197 28.5664)"><tspan x="0" y="0" font-size="12">Ab</tspan><tspan x="13.91" y="3" font-size="10">2</tspan></text>
		</g>
		<g>
			<g>
				<path fill="none" stroke="#005695" stroke-width="2" stroke-miterlimit="10" d="M218.224,25.375
					c-8.779,0.387-17.436,1.25-25.943,2.565"/>
				<g>
					<polygon fill="#005695" points="215.756,22.009 228.854,25.142 215.945,28.979 					"/>
				</g>
			</g>
		</g>
		<g>
			<g>
				<path fill="none" stroke="#005695" stroke-width="2" stroke-miterlimit="10" d="M294.501,34.183
					c-8.648-2.325-17.509-4.181-26.558-5.537"/>
				<g>
					<polygon fill="#005695" points="270.75,25.555 257.396,27.302 269.834,32.467 					"/>
				</g>
			</g>
		</g>
		
			<line fill="none" stroke="#000000" stroke-width="0.5" stroke-dasharray="4,4" x1="224.97" y1="336.574" x2="257.534" y2="16.999"/>
		<g>
			<g>
				<line fill="none" stroke="#0DB14B" stroke-width="2" x1="228.61" y1="298.408" x2="276.847" y2="303.959"/>
				<g>
					<polygon fill="#0DB14B" points="274.546,306.619 285.648,304.972 275.211,300.846 					"/>
				</g>
			</g>
		</g>
		<g>
			<g>
				<line fill="none" stroke="#00AEEF" stroke-width="2" x1="228.389" y1="298.219" x2="233.982" y2="249.6"/>
				<g>
					<polygon fill="#00AEEF" points="236.642,251.9 234.995,240.798 230.87,251.236 					"/>
				</g>
			</g>
		</g>
		<g>
			<path fill="#FFFFFF" stroke="#000000" stroke-miterlimit="1" d="M232.953,298.212c0.006-2.488-2.015-4.502-4.499-4.502v4.502
				H232.953z"/>
			<path fill="#808080" stroke="#000000" stroke-linecap="round" stroke-linejoin="round" stroke-miterlimit="1" d="M228.454,293.71
				c-2.483,0-4.501,2.018-4.501,4.502h4.501V293.71z"/>
			<path fill="#FFFFFF" stroke="#000000" stroke-miterlimit="1" d="M223.953,298.212c0.002,2.489,2.018,4.498,4.507,4.498
				l-0.006-4.498H223.953z"/>
			<path fill="#808080" stroke="#000000" stroke-linecap="round" stroke-linejoin="round" stroke-miterlimit="1" d="
				M228.454,298.212l0.006,4.498c2.481,0,4.499-2.016,4.493-4.498H228.454z"/>
		</g>
		<text transform="matrix(1.0877 -0.0021 0.0019 1 285.4917 308.147)"><tspan x="0" y="0" fill="#0DB14B" font-size="12">+Y</tspan><tspan x="14.244" y="3" fill="#0DB14B" font-size="11">b</tspan></text>
		<text transform="matrix(1.0877 -0.0021 0.0019 1 237.582 243.4536)"><tspan x="0" y="0" fill="#00AEEF" font-size="12">+Z</tspan><tspan x="13.57" y="2.999" fill="#00AEEF" font-size="11">b</tspan></text>
		<g>
			<text transform="matrix(1.0877 0 0 1 195.1587 293.4048)"><tspan x="0" y="0" font-size="12">O</tspan><tspan x="8.95" y="3" font-size="11">b</tspan></text>
		</g>
		<g>
			<path fill="none" d="M279.062,274.719"/>
		</g>
		<g>
			<path fill="none" d="M221.647,274.719"/>
		</g>
		<g>
			<path fill="none" d="M222.063,222.485"/>
		</g>
		<g>
			<path fill="none" d="M222.063,280.286"/>
		</g>
	</g>
</g>
</svg>
