<?xml version="1.0" encoding="utf-8"?>

<!DOCTYPE svg PUBLIC "-//W3C//DTD SVG 1.1//EN" "http://www.w3.org/Graphics/SVG/1.1/DTD/svg11.dtd">
<svg version="1.1" id="Layer_1" xmlns="http://www.w3.org/2000/svg" xmlns:xlink="http://www.w3.org/1999/xlink" x="0px" y="0px"
	 width="597px" height="257px" viewBox="0 0 597 257" enable-background="new 0 0 597 257" xml:space="preserve">
        
<defs>
	<style type="text/css">
	text {
	  font-family: Helvetica, Verdana, ArialUnicodeMS, san-serif
	}
	</style>
</defs>

<g>
   <desc>
	PS 3.3 Information Object Definitions
   </desc>
</g>

<g>
	<rect x="1" y="1" fill="#F5EED6" width="595" height="255"/>
	<g>
		<g>
			<g>
				<g>
					
						<line fill="none" stroke="#000000" stroke-width="3" stroke-linecap="round" stroke-miterlimit="1" x1="93.962" y1="61.35" x2="543.25" y2="61.35"/>
					<g>
						<polygon points="540.872,64.836 553.881,61.35 540.872,57.863 						"/>
					</g>
				</g>
			</g>
			
				<line fill="none" stroke="#000000" stroke-width="0.75" stroke-miterlimit="1" x1="94.316" y1="121.265" x2="554.447" y2="121.265"/>
			
				<line fill="none" stroke="#000000" stroke-width="0.75" stroke-miterlimit="1" x1="94.316" y1="146.932" x2="554.447" y2="146.932"/>
			
				<line fill="none" stroke="#000000" stroke-width="0.75" stroke-miterlimit="1" x1="94.316" y1="186.118" x2="554.447" y2="186.118"/>
			
				<line fill="none" stroke="#000000" stroke-width="0.75" stroke-miterlimit="1" x1="94.316" y1="213.345" x2="554.447" y2="213.345"/>
		</g>
		<g>
			
				<rect x="102.1" y="226.644" fill="#FFFFFF" stroke="#010101" stroke-width="0.75" stroke-linecap="round" stroke-linejoin="round" stroke-miterlimit="1" width="80" height="14"/>
			<g>
				<rect x="105.352" y="230.689" fill="none" width="73.498" height="8.93"/>
				<text transform="matrix(0.9288 0 0 1 105.3516 235.6855)" font-size="7">RSet = RT Radiation Set</text>
			</g>
		</g>
		<g>
			<rect x="103.986" y="16.356" fill="#CCDEF0" stroke="#B2CEE7" stroke-miterlimit="1" width="426.461" height="90"/>
			
				<polyline fill="#FFFFFF" stroke="#010101" stroke-width="0.75" stroke-linecap="round" stroke-linejoin="round" stroke-miterlimit="1" points="
				520.449,21.35 109.111,21.35 109.111,101.35 520.449,101.35 			"/>
			<g>
				<g>
					<rect x="453.488" y="31.35" fill="#B2CEE7" width="60" height="60"/>
					<g>
						<polyline fill="none" stroke="#010101" stroke-width="0.5" stroke-miterlimit="1" points="513.488,90.35 513.488,91.35 
							512.488,91.35 						"/>
						
							<line fill="none" stroke="#010101" stroke-width="0.5" stroke-miterlimit="1" stroke-dasharray="2,2" x1="510.488" y1="91.35" x2="455.488" y2="91.35"/>
						<polyline fill="none" stroke="#010101" stroke-width="0.5" stroke-miterlimit="1" points="454.488,91.35 453.488,91.35 
							453.488,90.35 						"/>
						
							<line fill="none" stroke="#010101" stroke-width="0.5" stroke-miterlimit="1" stroke-dasharray="2,2" x1="453.488" y1="88.35" x2="453.488" y2="33.35"/>
						<polyline fill="none" stroke="#010101" stroke-width="0.5" stroke-miterlimit="1" points="453.488,32.35 453.488,31.35 
							454.488,31.35 						"/>
						
							<line fill="none" stroke="#010101" stroke-width="0.5" stroke-miterlimit="1" stroke-dasharray="2,2" x1="456.488" y1="31.35" x2="511.488" y2="31.35"/>
						<polyline fill="none" stroke="#010101" stroke-width="0.5" stroke-miterlimit="1" points="512.488,31.35 513.488,31.35 
							513.488,32.35 						"/>
						
							<line fill="none" stroke="#010101" stroke-width="0.5" stroke-miterlimit="1" stroke-dasharray="2,2" x1="513.488" y1="34.35" x2="513.488" y2="89.35"/>
					</g>
				</g>
				<g>
					<rect x="457.484" y="37.773" fill="#86B2D8" width="52" height="18"/>
					<g>
						<polyline fill="none" stroke="#010101" stroke-width="0.5" stroke-miterlimit="1" points="457.484,38.773 457.484,37.773 
							458.484,37.773 						"/>
						
							<line fill="none" stroke="#010101" stroke-width="0.5" stroke-miterlimit="1" stroke-dasharray="2,2" x1="460.484" y1="37.773" x2="507.484" y2="37.773"/>
						<polyline fill="none" stroke="#010101" stroke-width="0.5" stroke-miterlimit="1" points="508.484,37.773 509.484,37.773 
							509.484,38.773 						"/>
						
							<line fill="none" stroke="#010101" stroke-width="0.5" stroke-miterlimit="1" stroke-dasharray="1.7778,1.7778" x1="509.484" y1="40.551" x2="509.484" y2="53.885"/>
						<polyline fill="none" stroke="#010101" stroke-width="0.5" stroke-miterlimit="1" points="509.484,54.773 509.484,55.773 
							508.484,55.773 						"/>
						
							<line fill="none" stroke="#010101" stroke-width="0.5" stroke-miterlimit="1" stroke-dasharray="2,2" x1="506.484" y1="55.773" x2="459.484" y2="55.773"/>
						<polyline fill="none" stroke="#010101" stroke-width="0.5" stroke-miterlimit="1" points="458.484,55.773 457.484,55.773 
							457.484,54.773 						"/>
						
							<line fill="none" stroke="#010101" stroke-width="0.5" stroke-miterlimit="1" stroke-dasharray="1.7778,1.7778" x1="457.484" y1="52.996" x2="457.484" y2="39.662"/>
					</g>
				</g>
			</g>
			
				<rect x="184.41" y="31.635" fill="#B2CEE7" stroke="#010101" stroke-width="0.75" stroke-linecap="round" stroke-linejoin="round" stroke-miterlimit="1" width="60" height="60"/>
			<g>
				
					<rect x="188.408" y="38.059" fill="#86B2D8" stroke="#010101" stroke-width="0.75" stroke-linecap="round" stroke-linejoin="round" stroke-miterlimit="1" width="52" height="18"/>
				<rect x="220.408" y="38.054" fill="#FFFFFF" width="20" height="18"/>
				
					<rect x="188.408" y="38.059" fill="none" stroke="#010101" stroke-width="0.75" stroke-linecap="round" stroke-linejoin="round" stroke-miterlimit="1" width="52" height="18"/>
			</g>
			
				<rect x="117.172" y="31.635" fill="#B2CEE7" stroke="#010101" stroke-width="0.75" stroke-linecap="round" stroke-linejoin="round" stroke-miterlimit="1" width="60" height="60"/>
			
				<rect x="121.172" y="38.059" fill="#86B2D8" stroke="#010101" stroke-width="0.75" stroke-linecap="round" stroke-linejoin="round" stroke-miterlimit="1" width="52" height="18"/>
			
				<rect x="251.646" y="31.635" fill="#B2CEE7" stroke="#010101" stroke-width="0.75" stroke-linecap="round" stroke-linejoin="round" stroke-miterlimit="1" width="60" height="60"/>
			<g>
				
					<rect x="255.5" y="38.059" fill="#86B2D8" stroke="#010101" stroke-width="0.75" stroke-linecap="round" stroke-linejoin="round" stroke-miterlimit="1" width="52" height="18"/>
				<rect x="255.5" y="38.054" fill="#FFFFFF" width="32" height="18"/>
				
					<rect x="255.5" y="38.059" fill="none" stroke="#010101" stroke-width="0.75" stroke-linecap="round" stroke-linejoin="round" stroke-miterlimit="1" width="52" height="18"/>
			</g>
			
				<rect x="255.266" y="67.215" fill="#86B2D8" stroke="#010101" stroke-width="0.75" stroke-linecap="round" stroke-linejoin="round" stroke-miterlimit="1" width="52" height="18"/>
			
				<rect x="318.883" y="31.635" fill="#B2CEE7" stroke="#010101" stroke-width="0.75" stroke-linecap="round" stroke-linejoin="round" stroke-miterlimit="1" width="60" height="60"/>
			
				<rect x="322.59" y="38.059" fill="#86B2D8" stroke="#010101" stroke-width="0.75" stroke-linecap="round" stroke-linejoin="round" stroke-miterlimit="1" width="52" height="18"/>
			
				<rect x="386.123" y="31.635" fill="#B2CEE7" stroke="#010101" stroke-width="0.75" stroke-linecap="round" stroke-linejoin="round" stroke-miterlimit="1" width="60" height="60"/>
			
				<rect x="390.119" y="38.059" fill="#86B2D8" stroke="#010101" stroke-width="0.75" stroke-linecap="round" stroke-linejoin="round" stroke-miterlimit="1" width="52" height="18"/>
		</g>
		<g>
			<rect x="128.172" y="43.555" fill="none" width="40" height="7"/>
			<text transform="matrix(1 0 0 1 128.7207 48.5625)" font-size="7">RSet_A_Fx1</text>
			<rect x="195.408" y="40.054" fill="none" width="40" height="14"/>
			<text transform="matrix(1 0 0 1 195.957 45.0605)"><tspan x="0" y="0" font-size="7">RSet_A_Fx2</tspan><tspan x="9.529" y="7.516" font-size="7">Partial</tspan></text>
			<rect x="262.645" y="40.054" fill="none" width="40" height="14"/>
			<text transform="matrix(1 0 0 1 263.1934 45.0605)"><tspan x="0" y="0" font-size="7">RSet_A_Fx2</tspan><tspan x="0.773" y="7.516" font-size="7">Resumption</tspan></text>
			<rect x="262.645" y="72.711" fill="none" width="40" height="7"/>
			<text transform="matrix(1 0 0 1 263.1934 77.7188)" font-size="7">RSet_A_Fx3</text>
			<rect x="329.879" y="43.555" fill="none" width="40" height="7"/>
			<text transform="matrix(1 0 0 1 330.4297 48.5625)" font-size="7">RSet_A_Fx4</text>
			<rect x="464.486" y="43.555" fill="none" width="38" height="7"/>
			<text transform="matrix(1 0 0 1 479.7266 49.9941)" font-size="9">...</text>
			<rect x="397.117" y="43.555" fill="none" width="40" height="7"/>
			<text transform="matrix(1 0 0 1 397.666 48.5625)" font-size="7">RSet_A_Fx5</text>
			<rect x="560.078" y="57.357" fill="none" width="20.713" height="8.51"/>
			<text transform="matrix(0.9288 0 0 1 560.0781 64.5156)" font-size="10">time</text>
			<text transform="matrix(0.9288 0 0 1 46.4092 124.4766)"><tspan x="0" y="0" font-size="9">RT Course</tspan><tspan x="-25.523" y="26.799" font-size="9">Treatment Phase</tspan><tspan x="-23.519" y="37.6" font-size="9">Phase 1: Normal</tspan><tspan x="-32.023" y="64.399" font-size="9">Treatment Session</tspan><tspan x="-32.515" y="91.199" font-size="9">Treatment Fraction</tspan></text>
		</g>
		<g>
			<g>
				<g>
					
						<line fill="none" stroke="#000000" stroke-width="0.5" stroke-linecap="round" stroke-miterlimit="1" x1="103.986" y1="121.265" x2="103.986" y2="119.265"/>
					
						<line fill="none" stroke="#000000" stroke-width="0.5" stroke-linecap="round" stroke-miterlimit="1" stroke-dasharray="0.7941,1.5882" x1="103.986" y1="117.677" x2="103.986" y2="116.088"/>
					
						<line fill="none" stroke="#000000" stroke-width="0.5" stroke-linecap="round" stroke-miterlimit="1" stroke-dasharray="3.1763,1.5882,0.7941,1.5882" x1="103.986" y1="115.294" x2="103.986" y2="108.941"/>
					
						<line fill="none" stroke="#000000" stroke-width="0.5" stroke-linecap="round" stroke-miterlimit="1" x1="103.986" y1="108.147" x2="103.986" y2="106.147"/>
				</g>
			</g>
			<g>
				<g>
					
						<line fill="none" stroke="#000000" stroke-width="0.5" stroke-linecap="round" stroke-miterlimit="1" x1="530.447" y1="121.265" x2="530.447" y2="119.265"/>
					
						<line fill="none" stroke="#000000" stroke-width="0.5" stroke-linecap="round" stroke-miterlimit="1" stroke-dasharray="0.7941,1.5882" x1="530.447" y1="117.677" x2="530.447" y2="116.088"/>
					
						<line fill="none" stroke="#000000" stroke-width="0.5" stroke-linecap="round" stroke-miterlimit="1" stroke-dasharray="3.1763,1.5882,0.7941,1.5882" x1="530.447" y1="115.294" x2="530.447" y2="108.941"/>
					
						<line fill="none" stroke="#000000" stroke-width="0.5" stroke-linecap="round" stroke-miterlimit="1" x1="530.447" y1="108.147" x2="530.447" y2="106.147"/>
				</g>
			</g>
			<g>
				<g>
					
						<line fill="none" stroke="#000000" stroke-width="0.5" stroke-linecap="round" stroke-miterlimit="1" x1="109.111" y1="101.349" x2="109.111" y2="103.349"/>
					
						<line fill="none" stroke="#000000" stroke-width="0.5" stroke-linecap="round" stroke-miterlimit="1" stroke-dasharray="1.0142,2.0284" x1="109.111" y1="105.377" x2="109.111" y2="107.405"/>
					
						<line fill="none" stroke="#000000" stroke-width="0.5" stroke-linecap="round" stroke-miterlimit="1" stroke-dasharray="4.0569,2.0284,1.0142,2.0284" x1="109.111" y1="108.42" x2="109.111" y2="143.917"/>
					
						<line fill="none" stroke="#000000" stroke-width="0.5" stroke-linecap="round" stroke-miterlimit="1" x1="109.111" y1="144.932" x2="109.111" y2="146.932"/>
				</g>
			</g>
			<g>
				<g>
					
						<line fill="none" stroke="#000000" stroke-width="0.5" stroke-linecap="round" stroke-miterlimit="1" x1="117.172" y1="91.631" x2="117.172" y2="93.631"/>
					
						<line fill="none" stroke="#000000" stroke-width="0.5" stroke-linecap="round" stroke-miterlimit="1" stroke-dasharray="0.9525,1.905" x1="117.172" y1="95.536" x2="117.172" y2="97.44"/>
					
						<line fill="none" stroke="#000000" stroke-width="0.5" stroke-linecap="round" stroke-miterlimit="1" stroke-dasharray="3.81,1.905,0.9525,1.905" x1="117.172" y1="98.394" x2="117.172" y2="183.166"/>
					
						<line fill="none" stroke="#000000" stroke-width="0.5" stroke-linecap="round" stroke-miterlimit="1" x1="117.172" y1="184.118" x2="117.172" y2="186.118"/>
				</g>
			</g>
			<g>
				<g>
					
						<line fill="none" stroke="#000000" stroke-width="0.5" stroke-linecap="round" stroke-miterlimit="1" x1="177.172" y1="91.631" x2="177.172" y2="93.631"/>
					
						<line fill="none" stroke="#000000" stroke-width="0.5" stroke-linecap="round" stroke-miterlimit="1" stroke-dasharray="0.9525,1.905" x1="177.172" y1="95.536" x2="177.172" y2="97.44"/>
					
						<line fill="none" stroke="#000000" stroke-width="0.5" stroke-linecap="round" stroke-miterlimit="1" stroke-dasharray="3.81,1.905,0.9525,1.905" x1="177.172" y1="98.394" x2="177.172" y2="183.166"/>
					
						<line fill="none" stroke="#000000" stroke-width="0.5" stroke-linecap="round" stroke-miterlimit="1" x1="177.172" y1="184.118" x2="177.172" y2="186.118"/>
				</g>
			</g>
			<g>
				<g>
					
						<line fill="none" stroke="#000000" stroke-width="0.5" stroke-linecap="round" stroke-miterlimit="1" x1="121.289" y1="56.059" x2="121.289" y2="58.059"/>
					
						<line fill="none" stroke="#000000" stroke-width="0.5" stroke-linecap="round" stroke-miterlimit="1" stroke-dasharray="1.0288,2.0575" x1="121.289" y1="60.116" x2="121.289" y2="62.174"/>
					
						<line fill="none" stroke="#000000" stroke-width="0.5" stroke-linecap="round" stroke-miterlimit="1" stroke-dasharray="4.1151,2.0575,1.0288,2.0575" x1="121.289" y1="63.202" x2="121.289" y2="210.316"/>
					
						<line fill="none" stroke="#000000" stroke-width="0.5" stroke-linecap="round" stroke-miterlimit="1" x1="121.289" y1="211.345" x2="121.289" y2="213.345"/>
				</g>
			</g>
			<g>
				<g>
					
						<line fill="none" stroke="#000000" stroke-width="0.5" stroke-linecap="round" stroke-miterlimit="1" x1="173.289" y1="56.059" x2="173.289" y2="58.059"/>
					
						<line fill="none" stroke="#000000" stroke-width="0.5" stroke-linecap="round" stroke-miterlimit="1" stroke-dasharray="1.0288,2.0575" x1="173.289" y1="60.116" x2="173.289" y2="62.174"/>
					
						<line fill="none" stroke="#000000" stroke-width="0.5" stroke-linecap="round" stroke-miterlimit="1" stroke-dasharray="4.1151,2.0575,1.0288,2.0575" x1="173.289" y1="63.202" x2="173.289" y2="210.316"/>
					
						<line fill="none" stroke="#000000" stroke-width="0.5" stroke-linecap="round" stroke-miterlimit="1" x1="173.289" y1="211.345" x2="173.289" y2="213.345"/>
				</g>
			</g>
			<g>
				<g>
					
						<line fill="none" stroke="#000000" stroke-width="0.5" stroke-linecap="round" stroke-miterlimit="1" x1="520.449" y1="100.172" x2="520.449" y2="102.172"/>
					
						<line fill="none" stroke="#000000" stroke-width="0.5" stroke-linecap="round" stroke-miterlimit="1" stroke-dasharray="1.0463,2.0926" x1="520.449" y1="104.265" x2="520.449" y2="106.357"/>
					
						<line fill="none" stroke="#000000" stroke-width="0.5" stroke-linecap="round" stroke-miterlimit="1" stroke-dasharray="4.1851,2.0926,1.0463,2.0926" x1="520.449" y1="107.403" x2="520.449" y2="144.023"/>
					
						<line fill="none" stroke="#000000" stroke-width="0.5" stroke-linecap="round" stroke-miterlimit="1" x1="520.449" y1="145.069" x2="520.449" y2="147.069"/>
				</g>
			</g>
		</g>
		<g>
			
				<line fill="none" stroke="#005695" stroke-width="6" stroke-linecap="round" stroke-miterlimit="1" x1="104.568" y1="121.504" x2="530.447" y2="121.265"/>
			
				<line fill="none" stroke="#005695" stroke-width="6" stroke-linecap="round" stroke-miterlimit="1" x1="109.111" y1="146.932" x2="520.449" y2="146.932"/>
			<path fill="none" stroke="#005695" stroke-width="6" stroke-linecap="round" stroke-miterlimit="1" d="M475.715,187.382"/>
			<path fill="none" stroke="#005695" stroke-width="6" stroke-linecap="round" stroke-miterlimit="1" d="M459.111,187.382"/>
			
				<line fill="none" stroke="#005695" stroke-width="6" stroke-linecap="round" stroke-miterlimit="1" x1="117.172" y1="186.118" x2="177.172" y2="186.118"/>
			
				<line fill="none" stroke="#005695" stroke-width="6" stroke-linecap="round" stroke-miterlimit="1" x1="173.289" y1="213.356" x2="121.289" y2="213.356"/>
		</g>
	</g>
</g>
</svg>
