<?xml version="1.0" encoding="utf-8"?>

<!DOCTYPE svg PUBLIC "-//W3C//DTD SVG 1.1//EN" "http://www.w3.org/Graphics/SVG/1.1/DTD/svg11.dtd">
<svg version="1.1" id="Layer_1" xmlns="http://www.w3.org/2000/svg" xmlns:xlink="http://www.w3.org/1999/xlink" x="0px" y="0px"
	 width="502px" height="252px" viewBox="0 0 502 252" enable-background="new 0 0 502 252" xml:space="preserve">

<defs>
	<style type="text/css">
	text {
	  font-family: Helvetica, Verdana, ArialUnicodeMS, san-serif
	}
	</style>
</defs>

<g>
   <desc>
	PS 3.3 Information Object Definitions
   </desc>
</g>

<g>
	<rect x="1" y="1" fill="#F5EED6" width="500" height="250"/>
	<g>
		<g>
			<g>
				
					<line fill="none" stroke="#000000" stroke-width="2" stroke-linecap="round" stroke-miterlimit="1" x1="38.5" y1="163.497" x2="456.412" y2="163.497"/>
				<g>
					<polygon points="454.827,165.821 463.5,163.497 454.827,161.173 					"/>
				</g>
			</g>
		</g>
		<g>
			<g>
				
					<line fill="none" stroke="#000000" stroke-width="2" stroke-linecap="round" stroke-miterlimit="1" x1="38.5" y1="93.497" x2="456.412" y2="93.497"/>
				<g>
					<polygon points="454.827,95.821 463.5,93.497 454.827,91.173 					"/>
				</g>
			</g>
		</g>
		<text transform="matrix(1 0 0 1 82.5156 25.7407)" font-size="10">Step size 1.0mm</text>
		<text transform="matrix(1 0 0 1 60.6406 231.8242)" font-size="10">Step size 0.5mm</text>
		<rect x="76" y="71.622" stroke="#000000" stroke-width="0.75" width="87.5" height="43.75"/>
		<rect x="163.5" y="71.622" fill="#737577" stroke="#000000" stroke-width="0.75" width="87.5" height="43.75"/>
		<rect x="251" y="71.622" fill="#B6B8BA" stroke="#000000" stroke-width="0.75" width="87.5" height="43.75"/>
		<rect x="338.5" y="71.622" fill="#FFFFFF" stroke="#000000" stroke-width="0.75" width="87.5" height="43.75"/>
		<rect x="76.001" y="141.622" stroke="#000000" stroke-width="0.75" width="43.75" height="43.749"/>
		<rect x="119.752" y="141.622" fill="#474749" stroke="#000000" stroke-width="0.75" width="43.75" height="43.749"/>
		<rect x="163.502" y="141.622" fill="#636466" stroke="#000000" stroke-width="0.75" width="43.75" height="43.749"/>
		<rect x="207.252" y="141.622" fill="#7C7D80" stroke="#000000" stroke-width="0.75" width="43.75" height="43.749"/>
		<rect x="251.002" y="141.622" fill="#ACAEB1" stroke="#000000" stroke-width="0.75" width="43.75" height="43.749"/>
		<rect x="294.752" y="141.622" fill="#C7C8CA" stroke="#000000" stroke-width="0.75" width="43.75" height="43.749"/>
		<rect x="338.5" y="141.622" fill="#E1E2E3" stroke="#000000" stroke-width="0.75" width="43.75" height="43.749"/>
		<rect x="382.248" y="141.622" fill="#FFFFFF" stroke="#000000" stroke-width="0.75" width="43.75" height="43.749"/>
		
			<line fill="none" stroke="#000000" stroke-width="0.75" stroke-linecap="round" stroke-miterlimit="1" stroke-dasharray="6,2" x1="76.001" y1="50.011" x2="76.001" y2="205.774"/>
		
			<line fill="none" stroke="#000000" stroke-width="0.75" stroke-linecap="round" stroke-miterlimit="1" stroke-dasharray="6,2" x1="119.751" y1="185.775" x2="119.751" y2="205.775"/>
		
			<line fill="none" stroke="#000000" stroke-width="0.75" stroke-linecap="round" stroke-miterlimit="1" stroke-dasharray="4,4" x1="163.501" y1="70.816" x2="163.501" y2="50.816"/>
		<path fill="none" stroke="#000000" stroke-miterlimit="10" d="M74.75,44.972c0-1.588,0.256-2.954,0.768-4.102
			c0.512-1.147,1.775-2.146,3.789-2.996c2.014-0.853,4.378-1.384,7.092-1.592c2.714-0.212,7.228-0.336,13.542-0.373
			c4.437,0,7.954-0.102,10.547-0.302c2.595-0.201,4.771-0.731,6.529-1.592c1.757-0.86,2.671-2.208,2.739-4.044h-0.014
			c0.069,1.836,0.982,3.184,2.74,4.044s3.934,1.391,6.529,1.592c2.594,0.2,6.11,0.302,10.547,0.302
			c6.315,0.037,10.829,0.161,13.543,0.373c2.714,0.208,5.078,0.739,7.092,1.592c2.014,0.85,3.276,1.849,3.789,2.996
			c0.512,1.147,0.768,2.514,0.768,4.102"/>
		<path fill="none" stroke="#000000" stroke-miterlimit="10" d="M122.877,211.297c0,1.059-0.143,1.969-0.427,2.734
			c-0.285,0.765-0.986,1.431-2.105,1.997c-1.119,0.568-2.432,0.922-3.939,1.062c-1.508,0.142-4.016,0.224-7.524,0.249
			c-2.465,0-4.418,0.067-5.859,0.201c-1.441,0.133-2.65,0.487-3.627,1.061c-0.977,0.574-1.484,1.473-1.522,2.696h0.008
			c-0.037-1.224-0.545-2.122-1.521-2.696c-0.977-0.573-2.186-0.928-3.627-1.061c-1.44-0.134-3.395-0.201-5.859-0.201
			c-3.509-0.025-6.016-0.107-7.523-0.249c-1.508-0.14-2.821-0.493-3.94-1.062c-1.119-0.566-1.82-1.232-2.104-1.997
			c-0.284-0.766-0.427-1.676-0.427-2.734"/>
	</g>
</g>
</svg>
