<?xml version="1.0" encoding="utf-8"?>

<svg version="1.1" id="Layer_1" xmlns="http://www.w3.org/2000/svg" xmlns:xlink="http://www.w3.org/1999/xlink" x="0px" y="0px"
	 viewBox="0 0 502 437" enable-background="new 0 0 502 437" xml:space="preserve">

<defs>
	<style type="text/css">
	text {
	  font-family: Helvetica, Verdana, ArialUnicodeMS, san-serif
	}
	</style>
</defs>

<g>
   <desc>
	PS 3.3 Part 3: Information Object Definitions
   </desc>
</g>

<g>
	<rect x="1" y="1" fill="#F2EDD6" width="500" height="435"/>
	<g>
		
			<text transform="matrix(0.8999 -0.0019 0.0017 1 329.8083 28.8011)" fill="#00AEEF" font-size="14px">+Z</text>
		<text transform="matrix(0.8999 0 0 1 388.9073 79.3624)" font-size="11px">Radiation Source</text>
		<text transform="matrix(0.8999 0 0 1 253.5093 115.6726)" font-size="11px">Wedge</text>
		<text transform="matrix(0.8999 0 0 1 296.1534 417.0169)" font-size="11px">Beam Central Axis</text>
		<g>
			<text transform="matrix(0.8999 0 0 1 37.1547 228.6655)"><tspan x="0" y="0" font-size="11px">Isodose Line measured in water</tspan><tspan x="89.891" y="13.2" font-size="11px">(e.g., at 50%)</tspan></text>
		</g>
		<g>
			<text transform="matrix(0.8999 0 0 1 44.8544 295.6998)"><tspan x="0" y="0" font-size="11px">Radiation Beam Wedge Angle</tspan><tspan x="86.823" y="13.2" font-size="11px">(300A,0652)</tspan></text>
		</g>
		<g>
			<g>
				<line fill="none" stroke="#000000" stroke-miterlimit="1" x1="182.505" y1="225.984" x2="209.198" y2="225.984"/>
				<g>
					<polygon points="208.009,227.727 214.514,225.984 208.009,224.241 					"/>
				</g>
			</g>
		</g>
		<g>
			<g>
				<line fill="none" stroke="#000000" stroke-miterlimit="1" x1="182.505" y1="292.74" x2="209.198" y2="292.74"/>
				<g>
					<polygon points="208.009,294.483 214.514,292.74 208.009,290.997 					"/>
				</g>
			</g>
		</g>
		<g>
			<g>
				<line fill="none" stroke="#000000" stroke-miterlimit="1" x1="385.657" y1="76.091" x2="347.821" y2="76.091"/>
				<g>
					<polygon points="349.01,74.348 342.505,76.091 349.01,77.835 					"/>
				</g>
			</g>
		</g>
		<polyline fill="#B2CEE7" stroke="#005695" stroke-width="2" stroke-miterlimit="1" points="442.275,202.919 442.275,377.351 
			235.095,377.351 235.095,202.919 		"/>
		
			<line fill="none" stroke="#000000" stroke-width="0.75" stroke-miterlimit="1" x1="243.077" y1="306.509" x2="434.293" y2="306.509"/>
		
			<line fill="none" stroke="#000000" stroke-width="0.75" stroke-miterlimit="1" stroke-dasharray="4,4" x1="243.077" y1="263.479" x2="431.606" y2="349.54"/>
		<path fill-rule="evenodd" clip-rule="evenodd" fill="none" stroke="#F26522" stroke-miterlimit="1" d="M386.895,203.261
			c0,0,1.654,104.17-6.063,115.745c-7.716,11.574-85.315-34.679-90.942-48.847c-4.456-11.22-6.614-66.898-6.614-66.898"/>
		<g>
			<g>
				<path fill="none" stroke="#000000" stroke-width="0.75" stroke-miterlimit="1" d="M270.681,306.509
					c0-7.523,1.321-14.737,3.743-21.424"/>
				<g>
					<polygon points="275.904,287.315 277.014,278.971 271.88,285.642 					"/>
				</g>
			</g>
		</g>
		<g>
			<g>
				
					<line fill="none" stroke="#00AEEF" stroke-width="2" stroke-linecap="round" x1="337.138" y1="397.811" x2="337.138" y2="44.983"/>
				<g>
					<polygon fill="#00AEEF" points="341.206,47.757 337.138,32.58 333.071,47.757 					"/>
				</g>
			</g>
		</g>
		<polygon opacity="0.55" fill-rule="evenodd" clip-rule="evenodd" fill="#B2CEE7" stroke="#000000" stroke-miterlimit="1" points="
			289.29,139.887 392.425,139.887 289.29,115.694 		"/>
		<g>
			<circle cx="337.228" cy="76.112" r="6"/>
			<path fill="#FEDA00" d="M340.109,71.48c-2.491-1.478-5.805-0.611-7.393,1.943c-1.59,2.56-0.855,5.833,1.642,7.321
				c2.489,1.478,5.803,0.608,7.382-1.956C343.328,76.229,342.601,72.963,340.109,71.48z"/>
			<path d="M337.41,75.638c0.245,0.143,0.31,0.47,0.153,0.731c-0.159,0.258-0.491,0.343-0.74,0.197
				c-0.237-0.138-0.312-0.468-0.147-0.729C336.835,75.579,337.163,75.492,337.41,75.638z"/>
			<path d="M337.776,77.267c-0.419,0.243-0.937,0.268-1.368,0.008c-0.032-0.018-0.061-0.036-0.091-0.059l-1.763,2.838
				c0.031,0.018,0.064,0.038,0.094,0.056c1.452,0.862,3.216,0.806,4.634,0.005L337.776,77.267z"/>
			<path d="M338.466,76.157c0.027-0.473-0.195-0.944-0.625-1.197c-0.027-0.018-0.061-0.036-0.097-0.054l1.764-2.833
				c0.033,0.016,0.064,0.033,0.096,0.054c1.451,0.867,2.213,2.421,2.137,4.022L338.466,76.157z"/>
			<path d="M335.774,76.211c0.027-0.47,0.24-0.979,0.699-1.24c0.035-0.02,0.069-0.038,0.107-0.051l-1.45-2.805
				c-0.037,0.015-0.072,0.036-0.106,0.056c-1.541,0.898-2.388,2.524-2.492,4.127L335.774,76.211z"/>
		</g>
		
			<line fill="none" stroke="#000000" stroke-width="0.75" stroke-miterlimit="1" x1="217.726" y1="225.984" x2="281.239" y2="225.984"/>
		
			<line fill="none" stroke="#000000" stroke-width="0.75" stroke-miterlimit="1" x1="217.726" y1="292.74" x2="268.739" y2="292.74"/>
	</g>
</g>
</svg>
