<?xml version="1.0" encoding="utf-8"?>

<!DOCTYPE svg PUBLIC "-//W3C//DTD SVG 1.1//EN" "http://www.w3.org/Graphics/SVG/1.1/DTD/svg11.dtd">
<svg version="1.1" id="Layer_1" xmlns="http://www.w3.org/2000/svg" xmlns:xlink="http://www.w3.org/1999/xlink" x="0px" y="0px"
	 width="502px" height="322px" viewBox="0 0 502 322" enable-background="new 0 0 502 322" xml:space="preserve">

<defs>
	<style type="text/css">
	text {
	  font-family: Helvetica, Verdana, ArialUnicodeMS, san-serif
	}
	</style>
</defs>

<g>
   <desc>
	PS 3.3 Information Object Definitions
   </desc>
</g>

<g>
	<rect x="1" y="1" fill="#F5EED6" width="500" height="320"/>
	<g>
		<g>
			<g>
				<polyline fill="none" stroke="#005695" stroke-width="2" stroke-linejoin="round" points="161.764,133.929 161.764,305.904 
					304.355,305.904 304.355,295.111 				"/>
				<g>
					<polygon fill="#005695" points="306.68,296.696 304.355,288.023 302.031,296.696 					"/>
				</g>
			</g>
		</g>
		<g>
			<g>
				
					<line fill="none" stroke="#005695" stroke-width="2" stroke-linejoin="round" x1="304.635" y1="260.715" x2="304.635" y2="249.803"/>
				<g>
					<polygon fill="#005695" points="306.959,251.388 304.635,242.715 302.311,251.388 					"/>
				</g>
			</g>
		</g>
		<g>
			<g>
				
					<line fill="none" stroke="#005695" stroke-width="2" stroke-linejoin="round" x1="388.562" y1="260.715" x2="388.562" y2="249.803"/>
				<g>
					<polygon fill="#005695" points="390.887,251.388 388.562,242.715 386.238,251.388 					"/>
				</g>
			</g>
		</g>
		<g>
			<g>
				<polyline fill="none" stroke="#005695" stroke-width="2" stroke-linejoin="round" points="304.047,305.904 388.562,305.904 
					388.562,295.111 				"/>
				<g>
					<polygon fill="#005695" points="390.887,296.696 388.562,288.023 386.238,296.696 					"/>
				</g>
			</g>
		</g>
		
			<polygon fill="#CCDEF0" stroke="#010101" stroke-width="0.75" stroke-linecap="round" stroke-linejoin="round" stroke-miterlimit="1" points="
			357.062,274.447 388.517,287.74 420.062,274.256 420.062,274.225 388.517,260.74 		"/>
		
			<polygon fill="#CCDEF0" stroke="#010101" stroke-width="0.75" stroke-linecap="round" stroke-linejoin="round" stroke-miterlimit="1" points="
			272.985,274.447 304.44,287.74 335.986,274.256 335.986,274.225 304.44,260.74 		"/>
		<g>
			<g>
				
					<line fill="none" stroke="#005695" stroke-width="2" stroke-linejoin="round" x1="304.635" y1="193.994" x2="304.635" y2="204.906"/>
				<g>
					<polygon fill="#005695" points="302.311,203.321 304.635,211.994 306.959,203.321 					"/>
				</g>
			</g>
		</g>
		
			<rect x="267.562" y="212.521" fill="#86B2D8" stroke="#010101" stroke-width="0.75" stroke-linecap="round" stroke-linejoin="round" stroke-miterlimit="1" width="74" height="29.906"/>
		<g>
			<text transform="matrix(1 0 0 1 286.2207 225.582)"><tspan x="0" y="0" font-size="10">Protocol</tspan><tspan x="3.889" y="9.334" font-size="10">Codes</tspan></text>
		</g>
		<g>
			<g>
				
					<line fill="none" stroke="#005695" stroke-width="2" stroke-linejoin="round" x1="388.562" y1="193.994" x2="388.562" y2="204.906"/>
				<g>
					<polygon fill="#005695" points="386.238,203.321 388.562,211.994 390.887,203.321 					"/>
				</g>
			</g>
		</g>
		
			<rect x="351.562" y="212.521" fill="#86B2D8" stroke="#010101" stroke-width="0.75" stroke-linecap="round" stroke-linejoin="round" stroke-miterlimit="1" width="74" height="29.906"/>
		<g>
			<text transform="matrix(1 0 0 1 370.2246 225.582)"><tspan x="0" y="0" font-size="10">Protocol</tspan><tspan x="-7.5" y="9.334" font-size="10">Parameters</tspan></text>
		</g>
		<g>
			<g>
				<polyline fill="none" stroke="#005695" stroke-width="2" stroke-linejoin="round" points="242.309,34.15 242.309,43.033 
					162.291,43.033 162.291,50.534 				"/>
				<g>
					<polygon fill="#005695" points="159.967,48.949 162.291,57.622 164.615,48.949 					"/>
				</g>
			</g>
		</g>
		<g>
			<g>
				<polyline fill="none" stroke="#005695" stroke-width="2" stroke-linejoin="round" points="242.355,34.15 242.355,43.033 
					302.433,43.033 302.433,50.534 				"/>
				<g>
					<polygon fill="#005695" points="300.108,48.949 302.433,57.622 304.757,48.949 					"/>
				</g>
			</g>
		</g>
		<g>
			<g>
				
					<line fill="none" stroke="#005695" stroke-width="2" stroke-linejoin="round" x1="304.48" y1="134.675" x2="304.48" y2="159.597"/>
				<g>
					<polygon fill="#005695" points="302.156,158.012 304.48,166.685 306.805,158.012 					"/>
				</g>
			</g>
		</g>
		<g>
			<g>
				<polyline fill="none" stroke="#005695" stroke-width="2" stroke-linejoin="round" points="304.047,148.804 388.562,148.804 
					388.562,159.598 				"/>
				<g>
					<polygon fill="#005695" points="386.238,158.013 388.562,166.686 390.887,158.013 					"/>
				</g>
			</g>
		</g>
		
			<polygon fill="#CCDEF0" stroke="#010101" stroke-width="0.75" stroke-linecap="round" stroke-linejoin="round" stroke-miterlimit="1" points="
			357.062,180.262 388.517,166.969 420.062,180.453 420.062,180.484 388.517,193.969 		"/>
		<g>
			<text transform="matrix(1 0 0 1 374.0518 182.9258)" font-size="9">defines</text>
		</g>
		<g>
			<text transform="matrix(1 0 0 1 415.0566 171.4727)" font-size="9">1</text>
		</g>
		<g>
			<text transform="matrix(1 0 0 1 407.0547 194.1973)" font-size="9">0-n</text>
		</g>
		
			<polygon fill="#CCDEF0" stroke="#010101" stroke-width="0.75" stroke-linecap="round" stroke-linejoin="round" stroke-miterlimit="1" points="
			272.985,180.262 304.44,166.969 335.986,180.453 335.986,180.484 304.44,193.969 		"/>
		<g>
			<text transform="matrix(1 0 0 1 283.2197 182.9258)" font-size="9">references</text>
		</g>
		<g>
			<text transform="matrix(1 0 0 1 330.9805 171.4727)" font-size="9">1</text>
		</g>
		<g>
			<text transform="matrix(1 0 0 1 322.9785 194.1973)" font-size="9">0-n</text>
		</g>
		<g>
			<text transform="matrix(1 0 0 1 373.5576 276.7168)" font-size="9">records</text>
		</g>
		<g>
			<text transform="matrix(1 0 0 1 407.0547 265.2617)" font-size="9">0-n</text>
		</g>
		<g>
			<text transform="matrix(1 0 0 1 415.0566 287.9883)" font-size="9">1</text>
		</g>
		<g>
			<text transform="matrix(1 0 0 1 283.2197 276.7168)" font-size="9">references</text>
		</g>
		<g>
			<text transform="matrix(1 0 0 1 322.9785 265.2617)" font-size="9">0-n</text>
		</g>
		<g>
			<text transform="matrix(1 0 0 1 330.9805 287.9883)" font-size="9">1</text>
		</g>
		
			<rect x="253.944" y="105.675" fill="#86B2D8" stroke="#010101" stroke-width="0.75" stroke-linecap="round" stroke-linejoin="round" stroke-miterlimit="1" width="99" height="29"/>
		<g>
			<text transform="matrix(1 0 0 1 286.2109 118.2827)"><tspan x="0" y="0" font-size="10">Defined</tspan><tspan x="-25.566" y="9.333" font-size="10">Procedure Protocol</tspan></text>
		</g>
		<g>
			<g>
				
					<line fill="none" stroke="#005695" stroke-width="2" stroke-linejoin="round" x1="302.295" y1="75.479" x2="302.295" y2="98.588"/>
				<g>
					<polygon fill="#005695" points="299.971,97.002 302.295,105.675 304.619,97.002 					"/>
				</g>
			</g>
		</g>
		<g>
			<g>
				
					<line fill="none" stroke="#005695" stroke-width="2" stroke-linejoin="round" x1="162.292" y1="75.425" x2="162.292" y2="98.588"/>
				<g>
					<polygon fill="#005695" points="159.968,97.002 162.292,105.675 164.616,97.002 					"/>
				</g>
			</g>
		</g>
		
			<polygon fill="#CCDEF0" stroke="#010101" stroke-width="0.75" stroke-linecap="round" stroke-linejoin="round" stroke-miterlimit="1" points="
			172.675,180.544 204.129,167.251 235.676,180.735 235.676,180.767 204.129,194.251 		"/>
		<g>
			<text transform="matrix(1 0 0 1 185.6543 183.208)" font-size="9">based on</text>
		</g>
		<g>
			<text transform="matrix(1 0 0 1 233.4204 171.7539)" font-size="9">1</text>
		</g>
		<g>
			<text transform="matrix(1 0 0 1 225.418 194.4795)" font-size="9">0-n</text>
		</g>
		<g>
			<g>
				<polyline fill="none" stroke="#005695" stroke-width="2" stroke-linejoin="round" points="278.664,98.621 278.664,85.186 
					243.962,85.186 243.962,206.118 203.816,206.118 203.816,194.12 				"/>
				<g>
					<polygon fill="#005695" points="280.988,97.035 278.664,105.708 276.34,97.035 					"/>
				</g>
			</g>
		</g>
		
			<rect x="112.792" y="105.675" fill="#86B2D8" stroke="#010101" stroke-width="0.75" stroke-linecap="round" stroke-linejoin="round" stroke-miterlimit="1" width="99" height="29"/>
		<g>
			<text transform="matrix(1 0 0 1 138.9497 118.2827)"><tspan x="0" y="0" font-size="10">Performed</tspan><tspan x="-19.458" y="9.333" font-size="10">Procedure Protocol</tspan></text>
		</g>
		
			<rect x="200.361" y="16.095" fill="#86B2D8" stroke="#010101" stroke-width="0.75" stroke-linecap="round" stroke-linejoin="round" stroke-miterlimit="1" width="84.003" height="18"/>
		<g>
			<text transform="matrix(1 0 0 1 213.6738 28.3828)" font-size="12">Equipment</text>
		</g>
		
			<polygon fill="#CCDEF0" stroke="#010101" stroke-width="0.75" stroke-linecap="round" stroke-linejoin="round" stroke-miterlimit="1" points="
			117.292,66.412 162.227,57.55 207.292,66.54 207.292,66.56 162.227,75.55 		"/>
		<g>
			<text transform="matrix(1 0 0 1 147.5352 69.0088)" font-size="9">creates</text>
		</g>
		
			<polygon fill="#CCDEF0" stroke="#010101" stroke-width="0.75" stroke-linecap="round" stroke-linejoin="round" stroke-miterlimit="1" points="
			257.295,66.412 302.229,57.55 347.294,66.54 347.294,66.56 302.229,75.55 		"/>
		<g>
			<text transform="matrix(1 0 0 1 287.5361 69.0088)" font-size="9">creates</text>
		</g>
		<g>
			<text transform="matrix(1 0 0 1 322.5586 57.5547)" font-size="9">1</text>
		</g>
		<g>
			<text transform="matrix(1 0 0 1 322.5576 80.2803)" font-size="9">0-n</text>
		</g>
		<g>
			<text transform="matrix(1 0 0 1 184.1621 57.5547)" font-size="9">1</text>
		</g>
		<g>
			<text transform="matrix(1 0 0 1 183.4414 80.2803)" font-size="9">0-n</text>
		</g>
		<g>
			<g>
				
					<line fill="none" stroke="#005695" stroke-width="2" stroke-linejoin="round" x1="113.51" y1="193.994" x2="113.51" y2="204.906"/>
				<g>
					<polygon fill="#005695" points="111.186,203.321 113.51,211.994 115.834,203.321 					"/>
				</g>
			</g>
		</g>
		
			<rect x="76.438" y="212.521" fill="#86B2D8" stroke="#010101" stroke-width="0.75" stroke-linecap="round" stroke-linejoin="round" stroke-miterlimit="1" width="74" height="29.906"/>
		<g>
			<text transform="matrix(1 0 0 1 92.0361 230.249)" font-size="10">Instances</text>
		</g>
		<g>
			<g>
				<polyline fill="none" stroke="#005695" stroke-width="2" stroke-linejoin="round" points="162.148,148.804 113.139,148.804 
					113.139,159.598 				"/>
				<g>
					<polygon fill="#005695" points="110.815,158.013 113.139,166.686 115.463,158.013 					"/>
				</g>
			</g>
		</g>
		<g>
			<g>
				<polyline fill="none" stroke="#005695" stroke-width="2" stroke-linejoin="round" points="162.121,148.804 202.695,148.804 
					202.695,159.598 				"/>
				<g>
					<polygon fill="#005695" points="200.371,158.013 202.695,166.686 205.019,158.013 					"/>
				</g>
			</g>
		</g>
		
			<polygon fill="#CCDEF0" stroke="#010101" stroke-width="0.75" stroke-linecap="round" stroke-linejoin="round" stroke-miterlimit="1" points="
			81.86,180.262 113.315,166.969 144.861,180.453 144.861,180.484 113.315,193.969 		"/>
		<g>
			<text transform="matrix(1 0 0 1 95.3486 183.208)" font-size="9">results in</text>
		</g>
		<g>
			<text transform="matrix(1 0 0 1 139.856 171.4727)" font-size="9">1</text>
		</g>
		<g>
			<text transform="matrix(1 0 0 1 131.8535 194.1973)" font-size="9">0-n</text>
		</g>
	</g>
</g>
</svg>
