<?xml version="1.0" encoding="utf-8"?>

<!DOCTYPE svg PUBLIC "-//W3C//DTD SVG 1.1//EN" "http://www.w3.org/Graphics/SVG/1.1/DTD/svg11.dtd">
<svg version="1.1" id="Layer_1" xmlns="http://www.w3.org/2000/svg" xmlns:xlink="http://www.w3.org/1999/xlink" x="0px" y="0px"
	 width="502px" height="637px" viewBox="0 0 502 637" enable-background="new 0 0 502 637" xml:space="preserve">

<defs>
	<style type="text/css">
	text {
	  font-family: Helvetica, Verdana, ArialUnicodeMS, san-serif
	}
	</style>
</defs>

<g>
   <desc>
	PS 3.3 Part 3: Information Object Definitions
   </desc>
</g>

<g>
	<rect x="1" y="1" fill="#F5EED6" width="500" height="635"/>
	<g>
		<g>
			<g>
				
					<line fill="none" stroke="#005695" stroke-width="2" stroke-miterlimit="1" x1="374.107" y1="131.193" x2="374.107" y2="121.697"/>
				<g>
					<polygon fill="#005695" points="376.432,129.607 374.107,138.28 371.783,129.607 					"/>
				</g>
			</g>
		</g>
		<g>
			<g>
				
					<line fill="none" stroke="#005695" stroke-width="2" stroke-miterlimit="1" x1="165.686" y1="121.495" x2="165.686" y2="144.339"/>
				<g>
					<polygon fill="#005695" points="163.361,142.754 165.686,151.427 168.01,142.754 					"/>
				</g>
			</g>
		</g>
		<g>
			<g>
				<polyline fill="none" stroke="#005695" stroke-width="2" stroke-miterlimit="1" points="206.569,205.056 206.569,181.588 
					165.813,181.575 165.761,169.241 				"/>
				<g>
					<polygon fill="#005695" points="208.894,203.471 206.569,212.144 204.245,203.471 					"/>
				</g>
			</g>
		</g>
		<g>
			<g>
				
					<line fill="none" stroke="#005695" stroke-width="2" stroke-miterlimit="1" x1="267.688" y1="121.89" x2="267.688" y2="144.335"/>
				<g>
					<polygon fill="#005695" points="265.363,142.75 267.688,151.423 270.012,142.75 					"/>
				</g>
			</g>
		</g>
		<g>
			<g>
				<polyline fill="none" stroke="#005695" stroke-width="2" stroke-miterlimit="1" points="237.489,205.056 237.489,196.126 
					374.107,196.126 374.107,181.621 				"/>
				<g>
					<polygon fill="#005695" points="239.813,203.471 237.489,212.144 235.165,203.471 					"/>
				</g>
			</g>
		</g>
		<g>
			<g>
				<polyline fill="none" stroke="#005695" stroke-width="2" stroke-miterlimit="1" points="222.007,205.056 222.007,181.298 
					267.752,181.298 267.752,169.241 				"/>
				<g>
					<polygon fill="#005695" points="224.331,203.471 222.007,212.144 219.683,203.471 					"/>
				</g>
			</g>
		</g>
		<g>
			<g>
				
					<line fill="none" stroke="#005695" stroke-width="2" stroke-miterlimit="1" x1="165.758" y1="82.769" x2="165.704" y2="96.264"/>
				<g>
					<polygon fill="#005695" points="163.386,94.67 165.676,103.352 168.035,94.688 					"/>
				</g>
			</g>
		</g>
		<g>
			<g>
				<line fill="none" stroke="#005695" stroke-width="2" stroke-miterlimit="1" x1="165.758" y1="33.57" x2="165.703" y2="47.738"/>
				<g>
					<polygon fill="#005695" points="163.385,46.144 165.676,54.825 168.033,46.162 					"/>
				</g>
			</g>
		</g>
		<g>
			<g>
				<polyline fill="none" stroke="#005695" stroke-width="2" stroke-miterlimit="1" points="214.288,289.819 221.619,289.819 
					221.619,264.294 				"/>
				<g>
					<polygon fill="#005695" points="215.873,292.144 207.2,289.819 215.873,287.495 					"/>
				</g>
			</g>
		</g>
		<g>
			<g>
				<polyline fill="none" stroke="#005695" stroke-width="2" stroke-miterlimit="1" points="229.654,289.819 221.594,289.819 
					221.594,264.294 				"/>
				<g>
					<polygon fill="#005695" points="228.068,287.495 236.741,289.819 228.068,292.144 					"/>
				</g>
			</g>
		</g>
		<g>
			<g>
				<polyline fill="none" stroke="#005695" stroke-width="2" stroke-miterlimit="1" points="214.288,324.385 221.619,324.385 
					221.619,289.775 				"/>
				<g>
					<polygon fill="#005695" points="215.873,326.709 207.2,324.385 215.873,322.061 					"/>
				</g>
			</g>
		</g>
		<g>
			<g>
				<polyline fill="none" stroke="#005695" stroke-width="2" stroke-miterlimit="1" points="229.654,324.385 221.594,324.385 
					221.594,289.775 				"/>
				<g>
					<polygon fill="#005695" points="228.068,322.061 236.741,324.385 228.068,326.709 					"/>
				</g>
			</g>
		</g>
		<g>
			<g>
				<polyline fill="none" stroke="#005695" stroke-width="2" stroke-miterlimit="1" points="214.288,360.375 221.619,360.375 
					221.619,324.309 				"/>
				<g>
					<polygon fill="#005695" points="215.873,362.699 207.2,360.375 215.873,358.051 					"/>
				</g>
			</g>
		</g>
		<g>
			<g>
				<polyline fill="none" stroke="#005695" stroke-width="2" stroke-miterlimit="1" points="229.654,360.375 221.594,360.375 
					221.594,324.309 				"/>
				<g>
					<polygon fill="#005695" points="228.068,358.051 236.741,360.375 228.068,362.699 					"/>
				</g>
			</g>
		</g>
		<g>
			<g>
				<polyline fill="none" stroke="#005695" stroke-width="2" stroke-miterlimit="1" points="214.288,396.385 221.619,396.385 
					221.619,360.318 				"/>
				<g>
					<polygon fill="#005695" points="215.873,398.709 207.2,396.385 215.873,394.061 					"/>
				</g>
			</g>
		</g>
		<g>
			<g>
				<polyline fill="none" stroke="#005695" stroke-width="2" stroke-miterlimit="1" points="229.654,396.385 221.594,396.385 
					221.594,360.318 				"/>
				<g>
					<polygon fill="#005695" points="228.068,394.061 236.741,396.385 228.068,398.709 					"/>
				</g>
			</g>
		</g>
		<g>
			<g>
				<polyline fill="none" stroke="#005695" stroke-width="2" stroke-miterlimit="1" points="214.288,432.395 221.619,432.395 
					221.619,396.328 				"/>
				<g>
					<polygon fill="#005695" points="215.873,434.719 207.2,432.395 215.873,430.07 					"/>
				</g>
			</g>
		</g>
		<g>
			<g>
				<polyline fill="none" stroke="#005695" stroke-width="2" stroke-miterlimit="1" points="229.654,432.395 221.594,432.395 
					221.594,396.328 				"/>
				<g>
					<polygon fill="#005695" points="228.068,430.07 236.741,432.395 228.068,434.719 					"/>
				</g>
			</g>
		</g>
		<g>
			<g>
				<polyline fill="none" stroke="#005695" stroke-width="2" stroke-miterlimit="1" points="214.288,468.404 221.619,468.404 
					221.619,432.338 				"/>
				<g>
					<polygon fill="#005695" points="215.873,470.729 207.2,468.404 215.873,466.08 					"/>
				</g>
			</g>
		</g>
		<g>
			<g>
				<polyline fill="none" stroke="#005695" stroke-width="2" stroke-miterlimit="1" points="229.654,468.404 221.594,468.404 
					221.594,432.338 				"/>
				<g>
					<polygon fill="#005695" points="228.068,466.08 236.741,468.404 228.068,470.729 					"/>
				</g>
			</g>
		</g>
		<g>
			<g>
				<polyline fill="none" stroke="#005695" stroke-width="2" stroke-miterlimit="1" points="229.654,504.775 221.594,504.775 
					221.594,468.564 				"/>
				<g>
					<polygon fill="#005695" points="228.068,502.451 236.741,504.775 228.068,507.1 					"/>
				</g>
			</g>
		</g>
		<g>
			<g>
				
					<line fill="none" stroke="#005695" stroke-width="2" stroke-miterlimit="1" x1="221.78" y1="230.317" x2="221.78" y2="239.392"/>
				<g>
					<polygon fill="#005695" points="219.456,237.807 221.78,246.479 224.104,237.807 					"/>
				</g>
			</g>
		</g>
		
			<polygon fill="#CCDEF0" stroke="#010101" stroke-width="0.75" stroke-linecap="round" stroke-linejoin="round" stroke-miterlimit="1" points="
			120.753,160.289 165.687,151.427 210.751,160.417 210.751,160.438 165.687,169.427 		"/>
		<g>
			<text transform="matrix(1 0 0 1 148.9907 162.8833)" font-size="9">contains</text>
		</g>
		
			<polygon fill="#CCDEF0" stroke="#010101" stroke-width="0.75" stroke-linecap="round" stroke-linejoin="round" stroke-miterlimit="1" points="
			222.681,160.285 267.615,151.423 312.68,160.413 312.68,160.434 267.615,169.423 		"/>
		<g>
			<text transform="matrix(1 0 0 1 252.9238 162.8833)" font-size="9">creates</text>
		</g>
		
			<polygon fill="#CCDEF0" stroke="#010101" stroke-width="0.75" stroke-linecap="round" stroke-linejoin="round" stroke-miterlimit="1" points="
			324.295,160.435 373.723,138.28 423.295,160.756 423.295,160.806 373.723,183.28 		"/>
		<g>
			<text transform="matrix(1 0 0 1 359.374 153.4458)"><tspan x="0" y="0" font-size="9">spatially</tspan><tspan x="-9.751" y="8.8" font-size="9">or temporally</tspan><tspan x="1.747" y="17.6" font-size="9">defines</tspan></text>
		</g>
		
			<rect x="225.796" y="103.352" fill="#86B2D8" stroke="#010101" stroke-width="0.75" stroke-linecap="round" stroke-linejoin="round" stroke-miterlimit="1" width="83.993" height="18"/>
		<g>
			<text transform="matrix(1 0 0 1 239.1074 115.644)" font-size="12">Equipment</text>
		</g>
		
			<rect x="324.615" y="103.352" fill="#86B2D8" stroke="#010101" stroke-width="0.75" stroke-linecap="round" stroke-linejoin="round" stroke-miterlimit="1" width="99" height="18"/>
		<g>
			<text transform="matrix(1 0 0 1 329.6641 115.644)" font-size="10">Frame of Reference</text>
		</g>
		
			<rect x="123.677" y="14.789" fill="#86B2D8" stroke="#010101" stroke-width="0.75" stroke-linecap="round" stroke-linejoin="round" stroke-miterlimit="1" width="84.004" height="18"/>
		<g>
			<text transform="matrix(1 0 0 1 146.9956 27.0767)" font-size="12">Patient</text>
		</g>
		
			<rect x="123.681" y="103.489" fill="#86B2D8" stroke="#010101" stroke-width="0.75" stroke-linecap="round" stroke-linejoin="round" stroke-miterlimit="1" width="83.996" height="18"/>
		<g>
			<text transform="matrix(1 0 0 1 150.3335 115.7798)" font-size="12">Study</text>
		</g>
		<g>
			<text transform="matrix(1 0 0 1 195.4468 151.9604)" font-size="9">1</text>
		</g>
		<g>
			<text transform="matrix(1 0 0 1 187.4448 173.9663)" font-size="9">1-n</text>
		</g>
		<g>
			<text transform="matrix(1 0 0 1 296.7793 151.9604)" font-size="9">1</text>
		</g>
		<g>
			<text transform="matrix(1 0 0 1 288.7754 173.9663)" font-size="9">1-n</text>
		</g>
		<g>
			<text transform="matrix(1 0 0 1 407.7754 147.9292)" font-size="9">0-1</text>
		</g>
		<g>
			<text transform="matrix(1 0 0 1 407.7754 178.5737)" font-size="9">0-n</text>
		</g>
		
			<polygon fill="#CCDEF0" stroke="#010101" stroke-width="0.75" stroke-linecap="round" stroke-linejoin="round" stroke-miterlimit="1" points="
			111.567,68.118 165.488,54.825 219.568,68.31 219.568,68.341 165.488,81.825 		"/>
		<g>
			<text transform="matrix(1 0 0 1 134.1548 70.7905)" font-size="9">is the subject of</text>
		</g>
		<g>
			<text transform="matrix(1 0 0 1 208.418 58.0483)" font-size="9">1</text>
		</g>
		<g>
			<text transform="matrix(1 0 0 1 200.4155 85.0942)" font-size="9">1-n</text>
		</g>
		
			<rect x="236.601" y="316.479" fill="#86B2D8" stroke="#010101" stroke-width="0.75" stroke-linecap="round" stroke-linejoin="round" stroke-miterlimit="1" width="83.995" height="17.998"/>
		<g>
			<text transform="matrix(1 0 0 1 266.0908 328.7656)" font-size="9">Image</text>
		</g>
		
			<rect x="236.601" y="352.486" fill="#86B2D8" stroke="#010101" stroke-width="0.75" stroke-linecap="round" stroke-linejoin="round" stroke-miterlimit="1" width="83.995" height="18"/>
		<g>
			<text transform="matrix(1 0 0 1 258.0947 364.7744)" font-size="9">Waveform</text>
		</g>
		
			<rect x="236.601" y="388.486" fill="#86B2D8" stroke="#010101" stroke-width="0.75" stroke-linecap="round" stroke-linejoin="round" stroke-miterlimit="1" width="83.995" height="18"/>
		<g>
			<text transform="matrix(1 0 0 1 263.0898 400.7744)" font-size="9">Surface</text>
		</g>
		
			<rect x="78.389" y="315.385" fill="#86B2D8" stroke="#010101" stroke-width="0.75" stroke-linecap="round" stroke-linejoin="round" stroke-miterlimit="1" width="128.778" height="18"/>
		<g>
			<text transform="matrix(1 0 0 1 105.4312 327.6729)" font-size="9">Presentation State</text>
		</g>
		
			<rect x="78.389" y="351.375" fill="#86B2D8" stroke="#010101" stroke-width="0.75" stroke-linecap="round" stroke-linejoin="round" stroke-miterlimit="1" width="128.778" height="18"/>
		<g>
			<text transform="matrix(1 0 0 1 122.6973 363.6641)" font-size="9">Raw Data</text>
		</g>
		
			<rect x="78.385" y="387.385" fill="#86B2D8" stroke="#010101" stroke-width="0.75" stroke-linecap="round" stroke-linejoin="round" stroke-miterlimit="1" width="128.778" height="18"/>
		
			<rect x="78.385" y="423.385" fill="#86B2D8" stroke="#010101" stroke-width="0.75" stroke-linecap="round" stroke-linejoin="round" stroke-miterlimit="1" width="128.778" height="18"/>
		
			<rect x="78.389" y="280.384" fill="#86B2D8" stroke="#010101" stroke-width="0.75" stroke-linecap="round" stroke-linejoin="round" stroke-miterlimit="1" width="128.778" height="18.001"/>
		<g>
			<text transform="matrix(1 0 0 1 114.4438 292.6724)" font-size="9">SR Document</text>
		</g>
		
			<polygon fill="#CCDEF0" stroke="#010101" stroke-width="0.75" stroke-linecap="round" stroke-linejoin="round" stroke-miterlimit="1" points="
			176.702,255.343 221.636,246.479 266.701,255.47 266.701,255.491 221.636,264.479 		"/>
		<g>
			<text transform="matrix(1 0 0 1 204.9404 257.937)" font-size="9">contains</text>
		</g>
		<g>
			<text transform="matrix(1 0 0 1 243.2817 247.0151)" font-size="9">1</text>
		</g>
		<g>
			<text transform="matrix(1 0 0 1 235.8008 278.269)" font-size="9">0-n</text>
		</g>
		<g>
			<text transform="matrix(1 0 0 1 235.8008 314.0034)" font-size="9">0-n</text>
		</g>
		<g>
			<text transform="matrix(1 0 0 1 235.8008 349.7383)" font-size="9">0-n</text>
		</g>
		<g>
			<text transform="matrix(1 0 0 1 235.8008 385.4727)" font-size="9">0-n</text>
		</g>
		
			<rect x="236.601" y="423.801" fill="#86B2D8" stroke="#010101" stroke-width="0.75" stroke-linecap="round" stroke-linejoin="round" stroke-miterlimit="1" width="83.995" height="18"/>
		<g>
			<text transform="matrix(1 0 0 1 245.832 436.0889)" font-size="9">Spatial Fiducials</text>
		</g>
		<g>
			<text transform="matrix(1 0 0 1 235.8008 420.7871)" font-size="9">0-n</text>
		</g>
		<g>
			<text transform="matrix(1 0 0 1 193.8608 278.269)" font-size="9">0-n</text>
		</g>
		<g>
			<text transform="matrix(1 0 0 1 193.8608 314.0034)" font-size="9">0-n</text>
		</g>
		<g>
			<text transform="matrix(1 0 0 1 193.8608 349.7383)" font-size="9">0-n</text>
		</g>
		<g>
			<text transform="matrix(1 0 0 1 193.8608 385.4727)" font-size="9">0-n</text>
		</g>
		<g>
			<text transform="matrix(1 0 0 1 193.8608 420.7871)" font-size="9">0-n</text>
		</g>
		
			<rect x="78.385" y="458.699" fill="#86B2D8" stroke="#010101" stroke-width="0.75" stroke-linecap="round" stroke-linejoin="round" stroke-miterlimit="1" width="128.778" height="18"/>
		<g>
			<text transform="matrix(1 0 0 1 193.8608 456.1016)" font-size="9">0-n</text>
		</g>
		<g>
			<g>
				<polyline fill="none" stroke="#005695" stroke-width="2" stroke-miterlimit="1" points="214.288,504.775 221.619,504.775 
					221.619,468.621 				"/>
				<g>
					<polygon fill="#005695" points="215.873,507.1 207.2,504.775 215.873,502.451 					"/>
				</g>
			</g>
		</g>
		
			<rect x="78.385" y="495.764" fill="#86B2D8" stroke="#010101" stroke-width="0.75" stroke-linecap="round" stroke-linejoin="round" stroke-miterlimit="1" width="128.778" height="18"/>
		<g>
			<text transform="matrix(1 0 0 1 193.8608 493.166)" font-size="9">0-n</text>
		</g>
		
			<rect x="236.601" y="459.115" fill="#86B2D8" stroke="#010101" stroke-width="0.75" stroke-linecap="round" stroke-linejoin="round" stroke-miterlimit="1" width="83.995" height="18"/>
		<g>
			<text transform="matrix(1 0 0 1 254.5859 471.4033)" font-size="9">Registration</text>
		</g>
		<g>
			<text transform="matrix(1 0 0 1 235.8008 456.1016)" font-size="9">0-n</text>
		</g>
		
			<rect x="236.601" y="495.775" fill="#86B2D8" stroke="#010101" stroke-width="0.75" stroke-linecap="round" stroke-linejoin="round" stroke-miterlimit="1" width="83.995" height="18"/>
		<g>
			<text transform="matrix(1 0 0 1 235.8008 492.7617)" font-size="9">0-n</text>
		</g>
		
			<rect x="236.601" y="281.206" fill="#86B2D8" stroke="#010101" stroke-width="0.75" stroke-linecap="round" stroke-linejoin="round" stroke-miterlimit="1" width="83.995" height="18.001"/>
		<g>
			<text transform="matrix(1 0 0 1 269.5908 293.4941)" font-size="9">Plan</text>
		</g>
		
			<rect x="179.829" y="212.361" fill="#86B2D8" stroke="#010101" stroke-width="0.75" stroke-linecap="round" stroke-linejoin="round" stroke-miterlimit="1" width="84.001" height="17.987"/>
		<g>
			<text transform="matrix(1 0 0 1 204.8218 224.6641)" font-size="12">Series</text>
		</g>
		<g>
			<text transform="matrix(1 0 0 1 248.8359 507.4033)" font-size="9">Measurements</text>
		</g>
		<g>
			<text transform="matrix(1 0 0 1 99.687 399.209)" font-size="9">Tractography Results</text>
		</g>
		<g>
			<text transform="matrix(1 0 0 1 115.1909 435.2178)" font-size="9">Spectroscopy</text>
		</g>
		<g>
			<text transform="matrix(1 0 0 1 93.4248 471.2178)" font-size="9">Encapsulated Document</text>
		</g>
		<g>
			<text transform="matrix(1 0 0 1 88.6787 506.5322)" font-size="9">Real-World Value Mapping</text>
		</g>
		<g>
			<g>
				<polyline fill="none" stroke="#005695" stroke-width="2" stroke-miterlimit="1" points="214.288,540.93 221.619,540.93 
					221.619,504.775 				"/>
				<g>
					<polygon fill="#005695" points="215.873,543.254 207.2,540.93 215.873,538.605 					"/>
				</g>
			</g>
		</g>
		
			<rect x="78.385" y="531.918" fill="#86B2D8" stroke="#010101" stroke-width="0.75" stroke-linecap="round" stroke-linejoin="round" stroke-miterlimit="1" width="128.778" height="18"/>
		<g>
			<text transform="matrix(1 0 0 1 193.8608 529.3203)" font-size="9">0-n</text>
		</g>
		<g>
			<text transform="matrix(1 0 0 1 86.9297 542.6865)" font-size="9">Content Assessment Result</text>
		</g>
		<g>
			<g>
				<polyline fill="none" stroke="#005695" stroke-width="2" stroke-miterlimit="1" points="229.654,540.83 221.594,540.83 
					221.594,504.764 				"/>
				<g>
					<polygon fill="#005695" points="228.068,538.506 236.741,540.83 228.068,543.154 					"/>
				</g>
			</g>
		</g>
		<g>
			<g>
				<polyline fill="none" stroke="#005695" stroke-width="2" stroke-miterlimit="1" points="229.654,576.84 221.594,576.84 
					221.594,540.773 				"/>
				<g>
					<polygon fill="#005695" points="228.068,574.516 236.741,576.84 228.068,579.164 					"/>
				</g>
			</g>
		</g>
		<g>
			<g>
				<polyline fill="none" stroke="#005695" stroke-width="2" stroke-miterlimit="1" points="229.654,613.211 221.594,613.211 
					221.594,577 				"/>
				<g>
					<polygon fill="#005695" points="228.068,610.887 236.741,613.211 228.068,615.535 					"/>
				</g>
			</g>
		</g>
		
			<rect x="236.601" y="532.236" fill="#86B2D8" stroke="#010101" stroke-width="0.75" stroke-linecap="round" stroke-linejoin="round" stroke-miterlimit="1" width="83.995" height="18"/>
		<g>
			<text transform="matrix(1 0 0 1 268.0928 544.5244)" font-size="9">Dose</text>
		</g>
		<g>
			<text transform="matrix(1 0 0 1 235.8008 529.2227)" font-size="9">0-n</text>
		</g>
		
			<rect x="236.601" y="567.551" fill="#86B2D8" stroke="#010101" stroke-width="0.75" stroke-linecap="round" stroke-linejoin="round" stroke-miterlimit="1" width="83.995" height="18"/>
		<g>
			<text transform="matrix(1 0 0 1 252.3359 579.8389)" font-size="9">Structure Set</text>
		</g>
		<g>
			<text transform="matrix(1 0 0 1 235.8008 564.5371)" font-size="9">0-n</text>
		</g>
		
			<rect x="236.601" y="604.211" fill="#86B2D8" stroke="#010101" stroke-width="0.75" stroke-linecap="round" stroke-linejoin="round" stroke-miterlimit="1" width="83.995" height="18"/>
		<g>
			<text transform="matrix(1 0 0 1 235.8008 601.1973)" font-size="9">0-n</text>
		</g>
		<g>
			<text transform="matrix(1 0 0 1 242.334 615.8389)" font-size="9">Treatment Record</text>
		</g>
		<g>
			<g>
				<polyline fill="none" stroke="#005695" stroke-width="2" stroke-miterlimit="1" points="214.288,576.947 221.619,576.947 
					221.619,540.793 				"/>
				<g>
					<polygon fill="#005695" points="215.873,579.271 207.2,576.947 215.873,574.623 					"/>
				</g>
			</g>
		</g>
		
			<rect x="78.385" y="567.936" fill="#86B2D8" stroke="#010101" stroke-width="0.75" stroke-linecap="round" stroke-linejoin="round" stroke-miterlimit="1" width="128.778" height="18"/>
		<g>
			<text transform="matrix(1 0 0 1 193.8608 565.3379)" font-size="9">0-n</text>
		</g>
		<g>
			<text transform="matrix(1 0 0 1 90.9312 578.7041)" font-size="9">Stereometric Relationship</text>
		</g>
	</g>
</g>
</svg>
