<?xml version="1.0" encoding="utf-8"?>

<!DOCTYPE svg PUBLIC "-//W3C//DTD SVG 1.1//EN" "http://www.w3.org/Graphics/SVG/1.1/DTD/svg11.dtd">
<svg version="1.1" id="Layer_1" xmlns="http://www.w3.org/2000/svg" xmlns:xlink="http://www.w3.org/1999/xlink" x="0px" y="0px"
	 width="956.414px" height="407px" viewBox="0 0 956.414 407" enable-background="new 0 0 956.414 407" xml:space="preserve">
        
<defs>
	<style type="text/css">
	text {
	  font-family: Helvetica, Verdana, ArialUnicodeMS, san-serif
	}
	</style>
</defs>

<g>
   <desc>
	PS 3.3 Information Object Definitions
   </desc>
</g>

<g>
	<rect x="1" y="1" fill="#F5EED6" width="954.414" height="405"/>
	<g>
		<g>
			
				<line fill="none" stroke="#000000" stroke-width="0.75" stroke-miterlimit="1" x1="493.518" y1="122.254" x2="917.93" y2="122.254"/>
			
				<line fill="none" stroke="#000000" stroke-width="0.75" stroke-miterlimit="1" x1="493.518" y1="147.921" x2="917.93" y2="147.921"/>
			
				<line fill="none" stroke="#000000" stroke-width="0.75" stroke-miterlimit="1" x1="493.518" y1="187.363" x2="917.93" y2="187.363"/>
			
				<line fill="none" stroke="#000000" stroke-width="0.75" stroke-miterlimit="1" x1="494.184" y1="213.704" x2="918.596" y2="213.704"/>
			
				<line fill="none" stroke="#000000" stroke-width="0.75" stroke-miterlimit="1" x1="493.518" y1="251.104" x2="917.93" y2="251.104"/>
			
				<line fill="none" stroke="#000000" stroke-width="0.75" stroke-miterlimit="1" x1="493.518" y1="278.331" x2="917.93" y2="278.331"/>
			
				<line fill="none" stroke="#000000" stroke-width="0.75" stroke-miterlimit="1" x1="493.518" y1="304.704" x2="917.93" y2="304.704"/>
		</g>
		<g>
			<rect x="923.084" y="58.347" fill="none" width="22.816" height="8.51"/>
			<text transform="matrix(0.9288 0 0 1 923.084 65.5049)" font-size="10">time</text>
			<text transform="matrix(0.9288 0 0 1 445.5488 125.4648)"><tspan x="0" y="0" font-size="9">RT Course</tspan><tspan x="-40.021" y="26.801" font-size="9">RT Treatment Phase</tspan><tspan x="-23.52" y="37.601" font-size="9">Phase 1: Normal</tspan><tspan x="-57.537" y="64.4" font-size="9">Treatment Phase Interval</tspan><tspan x="-40.021" y="91.201" font-size="9">RT Treatment Phase</tspan><tspan x="-17.53" y="102" font-size="9">Phase 2: Boost</tspan><tspan x="-81.532" y="128.801" font-size="9">Prescription A (index 1): PTV-A</tspan><tspan x="-81.532" y="155.601" font-size="9">Prescription B (index 2): PTV-B</tspan><tspan x="-82.525" y="182.4" font-size="9">Prescription C (index 3): PTV-C</tspan></text>
		</g>
		<g>
			
				<line fill="none" stroke="#005695" stroke-width="6" stroke-linecap="round" stroke-miterlimit="1" x1="505.723" y1="122.493" x2="889.477" y2="122.493"/>
			
				<line fill="none" stroke="#005695" stroke-width="6" stroke-linecap="round" stroke-miterlimit="1" x1="510.266" y1="147.921" x2="769.797" y2="147.921"/>
			
				<line fill="none" stroke="#005695" stroke-width="6" stroke-linecap="round" stroke-miterlimit="1" x1="769.797" y1="187.363" x2="786.4" y2="187.363"/>
			
				<line fill="none" stroke="#005695" stroke-width="6" stroke-linecap="round" stroke-miterlimit="1" x1="786.4" y1="213.704" x2="879.715" y2="213.704"/>
			
				<line fill="none" stroke="#005695" stroke-width="6" stroke-linecap="round" stroke-miterlimit="1" x1="518.327" y1="251.607" x2="697.92" y2="251.607"/>
			
				<line fill="none" stroke="#005695" stroke-width="6" stroke-linecap="round" stroke-miterlimit="1" x1="762.846" y1="278.846" x2="570.924" y2="278.846"/>
			
				<line fill="none" stroke="#005695" stroke-width="6" stroke-linecap="round" stroke-miterlimit="1" x1="867.992" y1="304.704" x2="792.191" y2="304.704"/>
			<g>
				<g>
					
						<line fill="none" stroke="#000000" stroke-width="3" stroke-linecap="round" stroke-miterlimit="1" x1="493.102" y1="62.339" x2="906.633" y2="62.339"/>
					<g>
						<polygon points="904.255,65.825 917.264,62.339 904.255,58.853 						"/>
					</g>
				</g>
			</g>
		</g>
		<g>
			<rect x="505.142" y="17.346" fill="#CCDEF0" stroke="#B2CEE7" stroke-miterlimit="1" width="384.335" height="90"/>
			
				<polyline fill="#FFFFFF" stroke="#010101" stroke-width="0.75" stroke-linecap="round" stroke-linejoin="round" stroke-miterlimit="1" points="
				879.713,22.339 786.4,22.339 786.4,102.339 879.713,102.339 			"/>
			
				<rect x="510.266" y="22.339" fill="#FFFFFF" stroke="#010101" stroke-width="0.75" stroke-linecap="round" stroke-linejoin="round" stroke-miterlimit="1" width="259.531" height="80"/>
			<rect x="518.928" y="32.624" fill="#B2CEE7" width="10" height="60"/>
			<rect x="520.928" y="39.048" fill="#6799C8" width="6" height="18"/>
			<rect x="531.928" y="32.624" fill="#B2CEE7" width="10" height="60"/>
			<rect x="533.928" y="39.048" fill="#6799C8" width="6" height="18"/>
			<rect x="544.928" y="32.624" fill="#B2CEE7" width="10" height="60"/>
			<rect x="546.928" y="39.048" fill="#6799C8" width="6" height="18"/>
			<rect x="557.928" y="32.624" fill="#B2CEE7" width="10" height="60"/>
			<rect x="559.928" y="39.048" fill="#6799C8" width="6" height="18"/>
			<rect x="570.928" y="32.624" fill="#B2CEE7" width="10" height="60"/>
			<rect x="572.928" y="39.048" fill="#6799C8" width="6" height="18"/>
			<rect x="792.191" y="32.624" fill="#B2CEE7" width="10" height="60"/>
			<rect x="794.191" y="39.048" fill="#F7941E" width="6" height="18"/>
			<rect x="805.191" y="32.624" fill="#B2CEE7" width="10" height="60"/>
			<rect x="807.191" y="39.048" fill="#F7941E" width="6" height="18"/>
			<rect x="818.191" y="32.624" fill="#B2CEE7" width="10" height="60"/>
			<rect x="820.191" y="39.048" fill="#F7941E" width="6" height="18"/>
			<rect x="831.191" y="32.624" fill="#B2CEE7" width="10" height="60"/>
			<rect x="833.191" y="39.048" fill="#F7941E" width="6" height="18"/>
			<rect x="844.191" y="32.624" fill="#B2CEE7" width="10" height="60"/>
			<rect x="846.191" y="39.048" fill="#F7941E" width="6" height="18"/>
			<rect x="857.191" y="32.624" fill="#B2CEE7" width="10" height="60"/>
			<rect x="859.191" y="39.048" fill="#F7941E" width="6" height="18"/>
			<rect x="583.928" y="32.624" fill="#B2CEE7" width="10" height="60"/>
			<rect x="585.928" y="39.048" fill="#6799C8" width="6" height="18"/>
			<rect x="596.928" y="32.624" fill="#B2CEE7" width="10" height="60"/>
			<rect x="598.928" y="39.048" fill="#6799C8" width="6" height="18"/>
			<rect x="609.928" y="32.624" fill="#B2CEE7" width="10" height="60"/>
			<rect x="611.928" y="39.048" fill="#6799C8" width="6" height="18"/>
			<rect x="622.928" y="32.624" fill="#B2CEE7" width="10" height="60"/>
			<rect x="624.928" y="39.048" fill="#6799C8" width="6" height="18"/>
			<rect x="635.928" y="32.624" fill="#B2CEE7" width="10" height="60"/>
			<rect x="637.928" y="39.048" fill="#6799C8" width="6" height="18"/>
			<rect x="648.928" y="32.624" fill="#B2CEE7" width="10" height="60"/>
			<rect x="650.928" y="39.048" fill="#6799C8" width="6" height="18"/>
			<rect x="661.928" y="32.624" fill="#B2CEE7" width="10" height="60"/>
			<rect x="663.928" y="39.048" fill="#6799C8" width="6" height="18"/>
			<rect x="674.928" y="32.624" fill="#B2CEE7" width="10" height="60"/>
			<rect x="676.928" y="39.048" fill="#6799C8" width="6" height="18"/>
			<rect x="687.928" y="32.624" fill="#B2CEE7" width="10" height="60"/>
			<rect x="689.928" y="39.048" fill="#6799C8" width="6" height="18"/>
			<rect x="700.928" y="32.624" fill="#B2CEE7" width="10" height="60"/>
			<rect x="713.928" y="32.624" fill="#B2CEE7" width="10" height="60"/>
			<rect x="726.928" y="32.624" fill="#B2CEE7" width="10" height="60"/>
			<rect x="739.928" y="32.624" fill="#B2CEE7" width="10" height="60"/>
			<rect x="752.928" y="32.624" fill="#B2CEE7" width="10" height="60"/>
			<rect x="624.928" y="67.548" fill="#0DB14B" width="6" height="18"/>
			<rect x="637.922" y="67.548" fill="#0DB14B" width="6" height="18"/>
			<rect x="650.916" y="67.548" fill="#0DB14B" width="6" height="18"/>
			<rect x="663.91" y="67.548" fill="#0DB14B" width="6" height="18"/>
			<rect x="676.904" y="67.548" fill="#0DB14B" width="6" height="18"/>
			<rect x="689.898" y="67.548" fill="#0DB14B" width="6" height="18"/>
			<rect x="585.912" y="67.548" fill="#0DB14B" width="6" height="18"/>
			<rect x="572.928" y="67.548" fill="#0DB14B" width="6" height="18"/>
			<rect x="598.906" y="67.548" fill="#0DB14B" width="6" height="18"/>
			<rect x="611.9" y="67.548" fill="#0DB14B" width="6" height="18"/>
			<rect x="702.893" y="67.548" fill="#0DB14B" width="6" height="18"/>
			<rect x="715.887" y="67.548" fill="#0DB14B" width="6" height="18"/>
			<rect x="728.881" y="67.548" fill="#0DB14B" width="6" height="18"/>
			<rect x="741.875" y="67.548" fill="#0DB14B" width="6" height="18"/>
			<rect x="754.869" y="67.548" fill="#0DB14B" width="6" height="18"/>
		</g>
		<g>
			
				<rect x="17.101" y="181.684" fill="#CCDEF0" stroke="#010101" stroke-width="0.75" stroke-linecap="round" stroke-linejoin="round" stroke-miterlimit="1" width="293.566" height="76.378"/>
			
				<rect x="33.025" y="194.156" fill="#86B2D8" stroke="#010101" stroke-width="0.75" stroke-linecap="round" stroke-linejoin="round" stroke-miterlimit="1" width="277.642" height="63.905"/>
			<rect x="18.264" y="184.248" fill="none" width="175.978" height="7.715"/>
			<text transform="matrix(0.9288 0 0 1 18.2773 190.0332)" font-size="8.1589">Treatment Phase Interval Sequence</text>
			<rect x="36.958" y="197.432" fill="none" width="156.672" height="7.715"/>
			<text transform="matrix(0.9288 0 0 1 36.9712 203.2168)" font-size="8.1589">Item 1</text>
			
				<rect x="48.233" y="205.986" fill="#B2CEE7" stroke="#010101" stroke-width="0.75" stroke-linecap="round" stroke-linejoin="round" stroke-miterlimit="1" width="262.434" height="13.016"/>
			<rect x="52.373" y="209.41" fill="none" width="142.655" height="7.716"/>
			<text transform="matrix(0.9288 0 0 1 52.3862 215.1953)" font-size="8.1589">&gt;Previous Treatment Phase Index</text>
			<rect x="254.966" y="184.234" fill="none" width="44.534" height="7.715"/>
			<text transform="matrix(0.9288 0 0 1 254.9854 190.0215)" font-size="8.1589">(30xx,0890)</text>
			<rect x="254.966" y="209.427" fill="none" width="44.984" height="7.714"/>
			<text transform="matrix(0.9288 0 0 1 254.9849 215.1973)" font-size="8.1589">(30xx,0116)</text>
			<rect x="317.633" y="209.427" fill="none" width="44.984" height="7.714"/>
			<text transform="matrix(0.9288 0 0 1 317.6523 215.1973)" font-size="8.1589">= 1</text>
			
				<rect x="48.233" y="219.002" fill="#B2CEE7" stroke="#010101" stroke-width="0.75" stroke-linecap="round" stroke-linejoin="round" stroke-miterlimit="1" width="262.434" height="13.016"/>
			<rect x="52.373" y="222.426" fill="none" width="142.655" height="7.716"/>
			<text transform="matrix(0.9288 0 0 1 52.3862 228.2109)" font-size="8.1589">&gt;Temporal Relationship Interval Anchor</text>
			<rect x="254.966" y="222.442" fill="none" width="44.984" height="7.714"/>
			<text transform="matrix(0.9288 0 0 1 254.9849 228.2129)" font-size="8.1589">(30xx,0892)</text>
			<rect x="317.633" y="222.442" fill="none" width="44.984" height="7.714"/>
			<text transform="matrix(0.9288 0 0 1 317.6523 228.2129)" font-size="8.1589">= END</text>
			
				<rect x="48.233" y="232.018" fill="#B2CEE7" stroke="#010101" stroke-width="0.75" stroke-linecap="round" stroke-linejoin="round" stroke-miterlimit="1" width="262.434" height="13.016"/>
			<rect x="52.373" y="235.441" fill="none" width="142.655" height="7.716"/>
			<text transform="matrix(0.9288 0 0 1 52.3862 241.2266)" font-size="8.1589">&gt;Minimum Number of Interval Days</text>
			<rect x="254.966" y="235.458" fill="none" width="44.984" height="7.714"/>
			<text transform="matrix(0.9288 0 0 1 254.9849 241.2285)" font-size="8.1589">(30xx,0894)</text>
			<rect x="317.633" y="235.458" fill="none" width="44.984" height="7.714"/>
			<text transform="matrix(0.9288 0 0 1 317.6523 241.2285)" font-size="8.1589">= 7</text>
			
				<rect x="48.233" y="245.033" fill="#B2CEE7" stroke="#010101" stroke-width="0.75" stroke-linecap="round" stroke-linejoin="round" stroke-miterlimit="1" width="262.434" height="13.016"/>
			<rect x="52.373" y="248.457" fill="none" width="142.655" height="7.716"/>
			<text transform="matrix(0.9288 0 0 1 52.3862 254.2422)" font-size="8.1589">&gt;Maximum Number of Interval Days</text>
			<rect x="254.966" y="248.474" fill="none" width="44.984" height="7.714"/>
			<text transform="matrix(0.9288 0 0 1 254.9849 254.2441)" font-size="8.1589">(30xx,0896)</text>
			<rect x="317.633" y="248.474" fill="none" width="44.984" height="7.714"/>
			<text transform="matrix(0.9288 0 0 1 317.6523 254.2441)" font-size="8.1589">= 7</text>
			<g>
				<g>
					<line fill="none" stroke="#000000" stroke-miterlimit="1" x1="382.879" y1="187.363" x2="317.632" y2="187.363"/>
					<g>
						<polygon points="381.294,185.039 389.967,187.363 381.294,189.688 						"/>
					</g>
				</g>
			</g>
		</g>
		<g>
			
				<rect x="15.937" y="272.966" fill="#CCDEF0" stroke="#010101" stroke-width="0.75" stroke-linecap="round" stroke-linejoin="round" stroke-miterlimit="1" width="293.566" height="116.688"/>
			
				<rect x="31.862" y="285.438" fill="#86B2D8" stroke="#010101" stroke-width="0.75" stroke-linecap="round" stroke-linejoin="round" stroke-miterlimit="1" width="277.642" height="104.216"/>
			
				<rect x="47.07" y="321.314" fill="#B2CEE7" stroke="#010101" stroke-width="0.75" stroke-linecap="round" stroke-linejoin="round" stroke-miterlimit="1" width="262.434" height="68.34"/>
			
				<rect x="62.18" y="334.879" fill="#86B2D8" stroke="#010101" stroke-width="0.75" stroke-linecap="round" stroke-linejoin="round" stroke-miterlimit="1" width="247.323" height="54.775"/>
			
				<rect x="77.39" y="348.721" fill="#FFFFFF" stroke="#010101" stroke-width="0.75" stroke-linecap="round" stroke-linejoin="round" stroke-miterlimit="1" width="232.113" height="40.934"/>
			<rect x="17.101" y="275.53" fill="none" width="175.978" height="7.715"/>
			<text transform="matrix(0.9288 0 0 1 17.1138 281.3164)" font-size="8.1589">RT Prescription Sequence</text>
			
				<rect x="47.07" y="310.27" fill="#B2CEE7" stroke="#010101" stroke-width="0.75" stroke-linecap="round" stroke-linejoin="round" stroke-miterlimit="1" width="262.434" height="11"/>
			<rect x="35.794" y="288.714" fill="none" width="156.672" height="7.715"/>
			<text transform="matrix(0.9288 0 0 1 35.8076 294.5)" font-size="8.1589">Item 1</text>
			<rect x="51.209" y="313.693" fill="none" width="142.655" height="7.716"/>
			<text transform="matrix(0.9288 0 0 1 51.2227 319.4824)" font-size="8.1589">...</text>
			
				<rect x="47.07" y="297.269" fill="#B2CEE7" stroke="#010101" stroke-width="0.75" stroke-linecap="round" stroke-linejoin="round" stroke-miterlimit="1" width="262.434" height="13.016"/>
			<rect x="51.209" y="300.692" fill="none" width="142.655" height="7.716"/>
			<text transform="matrix(0.9288 0 0 1 51.2227 306.4785)" font-size="8.1589">&gt;Prescription Index</text>
			<rect x="51.209" y="324.738" fill="none" width="141.988" height="7.715"/>
			<text transform="matrix(0.9288 0 0 1 51.2227 330.5098)" font-size="8.1589">&gt;Fraction-Based Relationship Sequence</text>
			
				<line fill="#FFFFFF" stroke="#010101" stroke-width="0.75" stroke-linecap="round" stroke-linejoin="round" stroke-miterlimit="1" x1="77.39" y1="362.494" x2="309.503" y2="362.494"/>
			<rect x="84.767" y="352.879" fill="none" width="124.83" height="7.715"/>
			<text transform="matrix(0.9288 0 0 1 84.7803 358.7188)" font-size="8.1589">&gt;&gt;Referenced RT Prescription Index</text>
			<rect x="84.767" y="366.387" fill="none" width="160.539" height="7.715"/>
			<text transform="matrix(0.9288 0 0 1 84.7798 372.2266)" font-size="8.1589">&gt;&gt;Fraction-Based Relationship Interval Anchor</text>
			<rect x="66.45" y="338.795" fill="none" width="127.729" height="7.716"/>
			<text transform="matrix(0.9288 0 0 1 66.4634 344.5674)" font-size="8.1589">Item 1</text>
			<rect x="253.802" y="275.517" fill="none" width="44.534" height="7.715"/>
			<text transform="matrix(0.9288 0 0 1 253.8218 281.3037)" font-size="8.1589">(30xx,0940)</text>
			<rect x="253.802" y="324.725" fill="none" width="44.985" height="7.716"/>
			<text transform="matrix(0.9288 0 0 1 253.8213 330.4971)" font-size="8.1589">(30xx,0982)</text>
			<rect x="253.802" y="352.867" fill="none" width="44.984" height="7.714"/>
			<text transform="matrix(0.9288 0 0 1 253.8213 358.6387)" font-size="8.1589">(30xx,0148)</text>
			<rect x="253.802" y="366.375" fill="none" width="44.582" height="7.715"/>
			<text transform="matrix(0.9288 0 0 1 253.8213 372.1465)" font-size="8.1589">(30xx,0984)</text>
			<rect x="316.469" y="352.867" fill="none" width="44.984" height="7.714"/>
			<text transform="matrix(0.9288 0 0 1 316.4888 358.6387)" font-size="8.1589">= 1</text>
			
				<line fill="#FFFFFF" stroke="#010101" stroke-width="0.75" stroke-linecap="round" stroke-linejoin="round" stroke-miterlimit="1" x1="77.39" y1="375.985" x2="309.503" y2="375.985"/>
			<rect x="84.767" y="379.878" fill="none" width="160.539" height="7.715"/>
			<text transform="matrix(0.9288 0 0 1 84.7798 385.7168)" font-size="8.1589">&gt;&gt;Number of Interval Fractions</text>
			<rect x="253.802" y="379.866" fill="none" width="44.582" height="7.715"/>
			<text transform="matrix(0.9288 0 0 1 253.8213 385.6377)" font-size="8.1589">(30xx,0971)</text>
			<rect x="316.469" y="366.358" fill="none" width="44.984" height="7.714"/>
			<text transform="matrix(0.9288 0 0 1 316.4888 372.1299)" font-size="8.1589">= END</text>
			<rect x="316.469" y="379.85" fill="none" width="44.984" height="7.714"/>
			<text transform="matrix(0.9288 0 0 1 316.4888 385.6211)" font-size="8.1589">= -10</text>
			<rect x="253.802" y="300.709" fill="none" width="44.984" height="7.714"/>
			<text transform="matrix(0.9288 0 0 1 253.8213 306.4805)" font-size="8.1589">(30xx,0118)</text>
			<rect x="316.469" y="300.709" fill="none" width="44.984" height="7.714"/>
			<text transform="matrix(0.9288 0 0 1 316.4888 306.4805)" font-size="8.1589">= 2</text>
			<g>
				<g>
					<line fill="none" stroke="#000000" stroke-miterlimit="1" x1="357.685" y1="278.834" x2="317.633" y2="278.834"/>
					<g>
						<polygon points="356.1,276.51 364.772,278.834 356.1,281.158 						"/>
					</g>
				</g>
			</g>
		</g>
		<g>
			<g>
				<g>
					
						<line fill="none" stroke="#000000" stroke-width="0.5" stroke-linecap="round" stroke-miterlimit="1" x1="505.142" y1="122.254" x2="505.142" y2="120.254"/>
					
						<line fill="none" stroke="#000000" stroke-width="0.5" stroke-linecap="round" stroke-miterlimit="1" stroke-dasharray="0.7941,1.5882" x1="505.142" y1="118.666" x2="505.142" y2="117.077"/>
					
						<line fill="none" stroke="#000000" stroke-width="0.5" stroke-linecap="round" stroke-miterlimit="1" stroke-dasharray="3.1763,1.5882,0.7941,1.5882" x1="505.142" y1="116.283" x2="505.142" y2="109.931"/>
					
						<line fill="none" stroke="#000000" stroke-width="0.5" stroke-linecap="round" stroke-miterlimit="1" x1="505.142" y1="109.137" x2="505.142" y2="107.137"/>
				</g>
			</g>
			<g>
				<g>
					
						<line fill="none" stroke="#000000" stroke-width="0.5" stroke-linecap="round" stroke-miterlimit="1" x1="889.477" y1="122.254" x2="889.477" y2="120.254"/>
					
						<line fill="none" stroke="#000000" stroke-width="0.5" stroke-linecap="round" stroke-miterlimit="1" stroke-dasharray="0.7941,1.5882" x1="889.477" y1="118.666" x2="889.477" y2="117.077"/>
					
						<line fill="none" stroke="#000000" stroke-width="0.5" stroke-linecap="round" stroke-miterlimit="1" stroke-dasharray="3.1763,1.5882,0.7941,1.5882" x1="889.477" y1="116.283" x2="889.477" y2="109.931"/>
					
						<line fill="none" stroke="#000000" stroke-width="0.5" stroke-linecap="round" stroke-miterlimit="1" x1="889.477" y1="109.137" x2="889.477" y2="107.137"/>
				</g>
			</g>
			<g>
				<g>
					
						<line fill="none" stroke="#000000" stroke-width="0.5" stroke-linecap="round" stroke-miterlimit="1" x1="510.266" y1="102.338" x2="510.266" y2="104.338"/>
					
						<line fill="none" stroke="#000000" stroke-width="0.5" stroke-linecap="round" stroke-miterlimit="1" stroke-dasharray="1.0142,2.0284" x1="510.266" y1="106.366" x2="510.266" y2="108.395"/>
					
						<line fill="none" stroke="#000000" stroke-width="0.5" stroke-linecap="round" stroke-miterlimit="1" stroke-dasharray="4.0569,2.0284,1.0142,2.0284" x1="510.266" y1="109.409" x2="510.266" y2="144.906"/>
					
						<line fill="none" stroke="#000000" stroke-width="0.5" stroke-linecap="round" stroke-miterlimit="1" x1="510.266" y1="145.921" x2="510.266" y2="147.921"/>
				</g>
			</g>
			<g>
				<g>
					
						<line fill="none" stroke="#000000" stroke-width="0.5" stroke-linecap="round" stroke-miterlimit="1" x1="518.327" y1="92.62" x2="518.327" y2="94.62"/>
					
						<line fill="none" stroke="#000000" stroke-width="0.5" stroke-linecap="round" stroke-miterlimit="1" stroke-dasharray="0.9809,1.9619" x1="518.327" y1="96.582" x2="518.327" y2="98.544"/>
					
						<line fill="none" stroke="#000000" stroke-width="0.5" stroke-linecap="round" stroke-miterlimit="1" stroke-dasharray="3.9237,1.9619,0.9809,1.9619" x1="518.327" y1="99.524" x2="518.327" y2="248.627"/>
					
						<line fill="none" stroke="#000000" stroke-width="0.5" stroke-linecap="round" stroke-miterlimit="1" x1="518.327" y1="249.607" x2="518.327" y2="251.607"/>
				</g>
			</g>
			<g>
				<g>
					
						<line fill="none" stroke="#000000" stroke-width="0.5" stroke-linecap="round" stroke-miterlimit="1" x1="697.92" y1="92.62" x2="697.92" y2="94.62"/>
					
						<line fill="none" stroke="#000000" stroke-width="0.5" stroke-linecap="round" stroke-miterlimit="1" stroke-dasharray="0.9809,1.9619" x1="697.92" y1="96.582" x2="697.92" y2="98.544"/>
					
						<line fill="none" stroke="#000000" stroke-width="0.5" stroke-linecap="round" stroke-miterlimit="1" stroke-dasharray="3.9237,1.9619,0.9809,1.9619" x1="697.92" y1="99.524" x2="697.92" y2="248.627"/>
					
						<line fill="none" stroke="#000000" stroke-width="0.5" stroke-linecap="round" stroke-miterlimit="1" x1="697.92" y1="249.607" x2="697.92" y2="251.607"/>
				</g>
			</g>
			<g>
				<g>
					
						<line fill="none" stroke="#000000" stroke-width="0.5" stroke-linecap="round" stroke-miterlimit="1" x1="570.924" y1="92.624" x2="570.924" y2="94.624"/>
					
						<line fill="none" stroke="#000000" stroke-width="0.5" stroke-linecap="round" stroke-miterlimit="1" stroke-dasharray="0.9849,1.9698" x1="570.924" y1="96.594" x2="570.924" y2="98.563"/>
					
						<line fill="none" stroke="#000000" stroke-width="0.5" stroke-linecap="round" stroke-miterlimit="1" stroke-dasharray="3.9397,1.9698,0.9849,1.9698" x1="570.924" y1="99.549" x2="570.924" y2="275.849"/>
					
						<line fill="none" stroke="#000000" stroke-width="0.5" stroke-linecap="round" stroke-miterlimit="1" x1="570.924" y1="276.834" x2="570.924" y2="278.834"/>
				</g>
			</g>
			<g>
				<g>
					
						<line fill="none" stroke="#000000" stroke-width="0.5" stroke-linecap="round" stroke-miterlimit="1" x1="762.846" y1="92.62" x2="762.846" y2="94.62"/>
					
						<line fill="none" stroke="#000000" stroke-width="0.5" stroke-linecap="round" stroke-miterlimit="1" stroke-dasharray="0.9849,1.9699" x1="762.846" y1="96.59" x2="762.846" y2="98.56"/>
					
						<line fill="none" stroke="#000000" stroke-width="0.5" stroke-linecap="round" stroke-miterlimit="1" stroke-dasharray="3.9398,1.9699,0.9849,1.9699" x1="762.846" y1="99.545" x2="762.846" y2="275.849"/>
					
						<line fill="none" stroke="#000000" stroke-width="0.5" stroke-linecap="round" stroke-miterlimit="1" x1="762.846" y1="276.834" x2="762.846" y2="278.834"/>
				</g>
			</g>
			<g>
				<g>
					
						<line fill="none" stroke="#000000" stroke-width="0.5" stroke-linecap="round" stroke-miterlimit="1" x1="769.797" y1="101.161" x2="769.797" y2="103.161"/>
					
						<line fill="none" stroke="#000000" stroke-width="0.5" stroke-linecap="round" stroke-miterlimit="1" stroke-dasharray="0.9676,1.9351" x1="769.797" y1="105.097" x2="769.797" y2="107.031"/>
					
						<line fill="none" stroke="#000000" stroke-width="0.5" stroke-linecap="round" stroke-miterlimit="1" stroke-dasharray="3.8702,1.9351,0.9676,1.9351" x1="769.797" y1="107.999" x2="769.797" y2="185.403"/>
					
						<line fill="none" stroke="#000000" stroke-width="0.5" stroke-linecap="round" stroke-miterlimit="1" x1="769.797" y1="186.371" x2="769.797" y2="188.371"/>
				</g>
			</g>
			<g>
				<g>
					
						<line fill="none" stroke="#000000" stroke-width="0.5" stroke-linecap="round" stroke-miterlimit="1" x1="786.4" y1="101.161" x2="786.4" y2="103.161"/>
					
						<line fill="none" stroke="#000000" stroke-width="0.5" stroke-linecap="round" stroke-miterlimit="1" stroke-dasharray="1.037,2.074" x1="786.4" y1="105.235" x2="786.4" y2="107.31"/>
					
						<line fill="none" stroke="#000000" stroke-width="0.5" stroke-linecap="round" stroke-miterlimit="1" stroke-dasharray="4.148,2.074,1.037,2.074" x1="786.4" y1="108.346" x2="786.4" y2="209.973"/>
					
						<line fill="none" stroke="#000000" stroke-width="0.5" stroke-linecap="round" stroke-miterlimit="1" x1="786.4" y1="211.01" x2="786.4" y2="213.01"/>
				</g>
			</g>
			<g>
				<g>
					
						<line fill="none" stroke="#000000" stroke-width="0.5" stroke-linecap="round" stroke-miterlimit="1" x1="792.191" y1="94.081" x2="792.191" y2="96.081"/>
					
						<line fill="none" stroke="#000000" stroke-width="0.5" stroke-linecap="round" stroke-miterlimit="1" stroke-dasharray="1.0179,2.0357" x1="792.191" y1="98.117" x2="792.191" y2="100.152"/>
					
						<line fill="none" stroke="#000000" stroke-width="0.5" stroke-linecap="round" stroke-miterlimit="1" stroke-dasharray="4.0714,2.0357,1.0179,2.0357" x1="792.191" y1="101.17" x2="792.191" y2="301.688"/>
					
						<line fill="none" stroke="#000000" stroke-width="0.5" stroke-linecap="round" stroke-miterlimit="1" x1="792.191" y1="302.706" x2="792.191" y2="304.706"/>
				</g>
			</g>
			<g>
				<g>
					
						<line fill="none" stroke="#000000" stroke-width="0.5" stroke-linecap="round" stroke-miterlimit="1" x1="867.992" y1="94.081" x2="867.992" y2="96.081"/>
					
						<line fill="none" stroke="#000000" stroke-width="0.5" stroke-linecap="round" stroke-miterlimit="1" stroke-dasharray="1.0179,2.0357" x1="867.992" y1="98.117" x2="867.992" y2="100.152"/>
					
						<line fill="none" stroke="#000000" stroke-width="0.5" stroke-linecap="round" stroke-miterlimit="1" stroke-dasharray="4.0714,2.0357,1.0179,2.0357" x1="867.992" y1="101.17" x2="867.992" y2="301.688"/>
					
						<line fill="none" stroke="#000000" stroke-width="0.5" stroke-linecap="round" stroke-miterlimit="1" x1="867.992" y1="302.706" x2="867.992" y2="304.706"/>
				</g>
			</g>
			<g>
				<g>
					
						<line fill="none" stroke="#000000" stroke-width="0.5" stroke-linecap="round" stroke-miterlimit="1" x1="879.715" y1="102.339" x2="879.715" y2="104.339"/>
					
						<line fill="none" stroke="#000000" stroke-width="0.5" stroke-linecap="round" stroke-miterlimit="1" stroke-dasharray="1.0324,2.0647" x1="879.715" y1="106.403" x2="879.715" y2="108.469"/>
					
						<line fill="none" stroke="#000000" stroke-width="0.5" stroke-linecap="round" stroke-miterlimit="1" stroke-dasharray="4.1294,2.0647,1.0324,2.0647" x1="879.715" y1="109.501" x2="879.715" y2="210.672"/>
					
						<line fill="none" stroke="#000000" stroke-width="0.5" stroke-linecap="round" stroke-miterlimit="1" x1="879.715" y1="211.704" x2="879.715" y2="213.704"/>
				</g>
			</g>
		</g>
	</g>
</g>
</svg>
