<?xml version="1.0" encoding="utf-8"?>

<!DOCTYPE svg PUBLIC "-//W3C//DTD SVG 1.1//EN" "http://www.w3.org/Graphics/SVG/1.1/DTD/svg11.dtd">
<svg version="1.1" id="Layer_1" xmlns="http://www.w3.org/2000/svg" xmlns:xlink="http://www.w3.org/1999/xlink" x="0px" y="0px"
	 width="502px" height="142px" viewBox="0 0 502 142" enable-background="new 0 0 502 142" xml:space="preserve">

<defs>
	<style type="text/css">
	text {
	  font-family: Helvetica, Verdana, ArialUnicodeMS, san-serif
	}
	</style>
</defs>

<g>
   <desc>
	PS 3.3 Part 3: Information Object Definitions
   </desc>
</g>

<g>
	<rect x="1" y="1" fill="#F5EED8" width="500" height="140"/>
	<g>
		<g>
			<polygon fill="#CEDFEF" stroke="#000000" points="146.295,35.914 145.715,35.151 143.085,32.472 141.328,31.578 133.15,28.344 
				128.385,26.853 124.978,27.206 120.132,27.873 115.796,30.484 112.88,34.542 112.012,39.207 113.374,43.505 116.659,46.548 
				119.297,48.065 124.202,49.36 133.781,49.502 135.995,49.353 140.092,48.6 141.219,48.065 144.437,45.938 146.572,42.788 
				147.232,39.224 			"/>
			<path fill="#CEDFEF" stroke="#000000" d="M112.173,38.467"/>
			<polygon fill="#CEDFEF" stroke="#000000" points="178.983,38.439 177.715,36.257 175.936,34.906 174.066,33.955 171.653,33.639 
				169.326,34.097 167.21,35.211 165.787,36.852 164.656,38.713 164.312,41.173 164.818,43.749 166.076,45.946 167.842,47.331 
				169.751,48.201 172.156,48.575 174.463,48.034 176.603,46.979 177.954,45.288 179.114,43.461 179.483,41.015 			"/>
			<polygon fill="#CEDFEF" stroke="#000000" points="150.027,38.819 149.149,37.67 147.416,35.415 144.976,34.385 142.881,34.012 
				140.211,34.428 138.669,35.451 136.777,36.885 135.518,39.138 135.149,41.751 135.746,44.199 136.55,45.396 138.347,47.629 
				140.82,48.587 142.903,49.029 145.556,48.537 147.133,47.585 148.992,46.116 150.223,43.861 150.593,41.263 			"/>
			<polyline fill="#CEDFEF" stroke="#000000" points="144.333,33.64 142.019,35.118 138.882,39.673 137.913,44.888 139.318,49.665 
				142.774,53.015 148.748,55.597 154.013,56.992 164.908,57.474 168.412,57.607 172.971,56.639 174.813,55.634 178.199,53.207 
				180.469,49.66 181.205,45.671 180.273,41.992 179.383,40.644 176.512,37.505 173.44,36.384 163.864,32.959 158.773,31.309 
				151.778,31.377 146.643,32.164 144.333,33.64 			"/>
			<polygon fill="#CEDFEF" stroke="#000000" points="208.79,42.761 208.638,42.378 207.537,40.527 205.958,39.719 205.317,39.424 
				192.971,36.463 185.113,34.676 179.052,35.06 176.931,35.493 175.836,36.115 174.173,37.642 173.926,38.128 172.959,40.171 
				172.66,42.527 172.705,42.746 172.66,42.527 173.09,44.72 173.203,45.289 174.439,47.125 175.337,48.051 177.29,48.922 
				183.035,50.998 191.052,51.488 203.689,52.113 204.382,52.011 206.123,51.55 207.662,49.977 207.902,49.672 208.85,47.517 
				209.167,45.055 			"/>
			<polygon fill="#CEDFEF" stroke="#000000" points="213.901,43.944 212.803,42.276 211.318,41.304 209.876,40.554 207.909,40.446 
				206.156,40.839 204.471,41.856 203.481,43.145 202.617,44.699 202.411,46.687 202.898,48.715 203.986,50.392 205.462,51.388 
				206.928,52.089 208.893,52.234 210.633,51.792 212.338,50.811 213.283,49.49 214.167,47.955 214.389,45.973 			"/>
			<polygon fill="#CEDFEF" stroke="#000000" points="146.262,45.141 145.695,43.816 144.606,42.188 143.21,40.652 140.511,39.6 
				138.667,39.139 135.513,39.575 133.944,40.651 131.64,42.382 130.842,44.298 130.206,46.146 130.1,47.593 130.35,49.138 
				130.906,50.481 132.095,52.06 133.455,53.638 136.192,54.605 138.02,55.151 141.157,54.635 142.765,53.639 145.004,51.847 
				145.853,49.963 146.382,48.102 146.507,46.671 			"/>
			<polygon fill="#CEDFEF" stroke="#000000" points="242.533,45.471 242.318,45.088 241.266,43.378 239.831,42.638 239.041,42.368 
				227.573,40.15 214.848,39.932 213.04,40.181 211.179,40.602 210.321,41.015 208.836,42.51 207.891,44.817 207.865,44.979 
				207.675,47.343 207.677,47.474 208.238,49.937 209.46,51.71 210.244,52.219 212.009,53.014 213.759,53.492 226.395,54.912 
				238.101,54.191 238.927,54.026 240.454,53.597 241.759,52.135 242.034,51.761 242.775,49.798 242.953,47.556 			"/>
			<polygon fill="#CEDFEF" stroke="#000000" points="190.836,43.726 188.636,40.566 186.143,37.748 182.216,35.961 178.238,35.291 
				173.866,36.034 170.85,37.814 167.712,40.347 165.591,44.316 164.932,48.913 165.873,53.182 168.203,56.251 170.533,59.237 
				174.564,60.808 178.504,61.686 182.82,60.712 185.943,59.151 188.981,56.51 191.018,52.533 191.679,47.985 			"/>
			<polygon fill="#CEDFEF" stroke="#000000" points="214.834,46.021 214.644,45.651 211.414,41.81 208.171,40.074 203.01,38.308 
				197.812,37.365 187.207,38.219 182.397,39.082 178.037,42.115 177.834,42.318 174.957,46.763 174.022,51.814 175.225,56.413 
				175.324,56.776 178.511,60.093 187.098,64.656 192.502,66.101 197.678,67.188 201.784,66.817 207.041,65.511 207.491,65.208 
				211.937,61.725 214.94,56.723 215.969,51.146 			"/>
			<polygon fill="#CEDFEF" stroke="#000000" points="248.279,46.743 247.354,45.195 246.018,44.221 244.943,43.592 243.096,43.331 
				241.687,43.688 240.027,44.431 238.886,46.024 238.34,46.902 238.015,48.616 238.344,50.425 239.262,51.979 240.59,52.971 
				241.682,53.559 243.525,53.852 244.926,53.453 246.596,52.739 247.762,51.158 248.267,50.262 248.605,48.554 			"/>
			<polygon fill="#CEDFEF" stroke="#000000" points="225.444,49.074 224.157,47.068 222.146,45.411 219.919,44.317 217.041,44.068 
				214.613,44.609 212.36,45.91 210.651,47.58 209.532,50.159 209.233,53.123 209.818,55.869 211.16,57.838 213.111,59.569 
				215.383,60.571 218.254,60.904 220.656,60.265 222.955,59.049 224.617,57.332 225.695,54.752 225.99,51.812 			"/>
			<polygon fill="#CEDFEF" stroke="#000000" points="264.366,50.231 263.251,49.146 262.394,48.447 256.693,46.781 255.064,46.557 
				251.499,46.287 247.528,46.73 246.303,47.059 245.146,47.763 244.527,48.175 244.096,48.735 243.943,49.329 244.096,49.841 
				244.412,50.804 245.184,51.388 248.196,52.901 251.536,53.674 253.195,53.863 259.677,54.021 261.087,53.602 263.026,52.999 
				263.808,52.44 264.351,51.696 264.55,50.906 			"/>
			<polygon fill="#CEDFEF" stroke="#000000" points="268.866,53.151 268.745,52.841 267.462,50.552 265.653,49.567 264.909,49.276 
				263.552,49.329 240.448,45.648 224.865,43.446 222.079,44.075 220.545,45.242 218.449,47.327 217.071,50.552 216.699,54.259 
				217.41,57.689 219.05,60.142 220.321,61.596 222.928,62.754 238.639,63.725 262.013,64.76 263.331,65.083 264.12,64.948 
				266.087,64.33 267.802,62.334 267.979,62.055 269.038,59.265 269.354,56.094 			"/>
			<polygon fill="#CEDFEF" stroke="#000000" points="169.195,50.504 167.568,48.465 167.148,48.138 157.97,44.424 155.122,43.291 
				149.052,40.944 144.289,41.043 141.374,41.459 138.787,43.274 138.368,43.653 136.853,46.159 136.401,49.073 137.105,51.8 
				137.345,52.576 139.295,54.848 143.163,57.27 146.322,58.416 152.588,59.45 162.596,60.938 163.158,60.869 165.677,60.414 
				167.889,58.744 169.367,56.193 169.833,53.259 			"/>
			<polygon fill="#CEDFEF" stroke="#000000" points="173.196,54.721 173.232,54.272 172.977,53.038 172.729,52.484 171.729,50.617 
				170.401,49.493 168.382,48.659 166.648,48.46 164.294,48.865 162.836,49.901 161.246,51.309 160.522,52.963 160.341,54.369 
				160.263,55.57 160.521,56.814 161.069,57.859 161.826,59.22 163.135,60.374 165.182,61.151 166.908,61.404 169.252,60.945 
				170.736,59.956 172.28,58.508 173.034,56.872 173.145,55.46 173.232,54.272 			"/>
			<polygon fill="#CEDFEF" stroke="#000000" points="198.574,54.979 197.119,53.076 196.492,52.775 194.412,51.904 184.167,48.961 
				172.81,48.185 171.193,48.384 168.676,48.82 167.962,49.232 165.942,50.846 164.636,53.357 164.313,56.258 165.04,58.959 
				166.663,60.913 167.265,61.512 168.662,62.072 171.162,63.014 182.368,65.192 192.965,64.976 193.723,64.832 195.869,64.373 
				197.714,62.771 198.902,60.348 199.208,57.571 			"/>
			<polygon fill="#CEDFEF" stroke="#000000" points="208.059,53.073 206.503,50.982 204.857,49.186 202.17,48.042 199.562,47.7 
				196.646,48.255 194.704,49.533 192.655,51.261 191.312,53.931 190.952,57.004 191.649,59.855 193.256,61.904 194.826,63.781 
				197.554,64.834 200.149,65.276 203.046,64.623 205.042,63.443 207.052,61.664 208.359,58.985 208.719,55.926 			"/>
			<polygon fill="#CEDFEF" stroke="#000000" points="248.106,58.338 246.469,55.924 245.848,55.625 243.484,54.557 242.218,54.569 
				220.912,50.014 206.7,47.269 203.325,47.917 200.348,50.458 199.479,51.243 197.813,54.591 197.361,58.447 198.218,62.016 
				198.862,63.141 201.188,66.144 204.344,67.36 218.69,68.912 240.302,70.814 241.522,71.203 242.261,71.088 244.754,70.443 
				246.924,68.341 248.353,65.206 248.37,65.12 248.766,61.777 248.773,61.645 			"/>
			<polygon fill="#CEDFEF" stroke="#000000" points="275.232,55.859 274.405,54.242 272.817,52.26 271.104,51.438 268.611,50.586 
				266.057,51.188 264.395,51.626 262.79,53.08 262.13,54.162 261.456,55.367 261.129,56.729 260.973,57.736 261.132,59.997 
				262.005,61.589 263.541,63.613 265.291,64.367 267.76,65.277 270.337,64.73 271.982,64.238 273.557,62.753 274.293,61.724 
				274.963,60.507 275.297,59.133 275.356,58.115 			"/>
			<polygon fill="#CEDFEF" stroke="#000000" points="331.335,73.715 330.751,71.877 329.585,71.139 325.474,68.816 316.86,65.681 
				296.601,57.646 276.368,51.769 273.374,51.68 271.39,52.158 270.458,52.854 268.786,54.386 267.468,56.738 266.772,59.436 
				266.841,61.93 267.116,62.879 268.075,64.983 270.452,66.644 272.261,67.589 292.011,75.004 312.827,80.642 321.544,83.276 
				326.12,83.849 327.64,83.272 328.495,82.579 329.782,81.163 330.847,79.088 331.485,76.758 331.573,74.621 			"/>
			<polygon fill="#CEDFEF" stroke="#000000" points="203.468,57.123 202.599,55.367 201.364,54.226 199.737,53.525 198.056,53.153 
				196.065,53.534 194.578,54.281 193.25,55.604 192.445,56.979 192.185,58.858 192.261,59.427 192.445,60.553 192.514,60.874 
				193.369,62.635 194.586,63.797 196.235,64.453 197.91,64.868 199.89,64.439 201.396,63.734 202.688,62.379 203.517,61.021 
				203.796,59.145 			"/>
			<polygon fill="#CEDFEF" stroke="#000000" points="218.202,61.682 217.746,60.468 216.482,59.683 211.494,57.536 208.043,57.055 
				205.844,56.809 202.097,57.124 200.356,57.476 198.784,58.286 197.7,59.396 197.323,60.583 197.732,61.607 199.662,63.191 
				201.233,64.117 204.202,65.151 206.596,65.376 212.649,65.872 214.691,65.417 216.327,64.853 217.456,64.236 218.233,63.408 
				218.506,62.531 			"/>
			<polygon fill="#CEDFEF" stroke="#000000" points="253.082,61.344 252.255,59.727 250.667,57.744 248.954,56.922 246.461,56.07 
				243.906,56.673 242.244,57.11 240.64,58.564 239.979,59.646 239.306,60.852 238.979,62.213 238.822,63.221 238.981,65.481 
				239.854,67.073 241.391,69.098 243.141,69.852 245.609,70.762 248.187,70.215 249.832,69.723 251.406,68.237 252.143,67.208 
				252.812,65.991 253.146,64.617 253.206,63.6 			"/>
			<polygon fill="#CEDFEF" stroke="#000000" points="311.298,81.022 310.56,79.146 306.526,76.738 304.954,75.938 296.087,72.512 
				275.282,63.771 254.596,57.35 251.549,57.229 249.329,57.828 248.418,58.541 246.584,60.224 245.18,62.746 244.492,65.599 
				244.66,68.198 244.893,69.238 246.051,71.385 248.454,73.181 250.531,74.07 270.712,82.144 292.048,88.368 301.007,91.272 
				305.71,91.939 307.429,91.233 308.278,90.524 309.7,88.962 310.839,86.726 311.481,84.257 311.499,82.024 			"/>
			<polygon fill="#CEDFEF" stroke="#000000" points="339.749,78.998 339.235,77.447 338.673,76.297 336.847,74.807 335.673,74.283 
				333.146,73.654 330.659,74.109 329.519,74.506 328.063,75.768 327.452,76.398 326.985,77.314 326.759,78.334 326.815,79.248 
				327.259,80.805 327.856,81.938 329.644,83.46 330.843,83.942 333.36,84.61 335.872,84.19 336.999,83.757 338.503,82.519 
				339.103,81.872 339.565,80.946 339.792,79.921 			"/>
			<g>
				<polygon fill="#CEDFEF" stroke="#000000" points="336.356,81.286 337.067,73.115 340.491,50.409 341.968,47.755 342.632,47.128 
					343.62,46.637 344.56,46.602 343.911,46.515 343.2,46.497 342.567,46.553 342.14,46.668 341.165,46.999 339.077,49.027 
					338.646,49.495 334.433,71.527 333.772,79.634 334.374,83.421 334.962,84.214 335.733,84.809 337.095,85.362 336.589,84.874 
									"/>
				<polygon fill="#CEDFEF" stroke="#000000" points="342.632,47.128 341.968,47.755 340.491,50.409 337.067,73.115 336.356,81.286 
					336.589,84.874 337.095,85.362 339.997,84.687 343.62,46.637 				"/>
				<polygon fill="#CEDFEF" stroke="#000000" points="345.13,46.887 344.56,46.602 343.62,46.637 339.997,84.687 342.937,83.085 
					343.556,82.171 344.478,78.23 345.302,70.227 346.136,48.818 				"/>
			</g>
			<polygon fill="#CEDFEF" stroke="#000000" points="319.009,86.992 318.569,85.265 317.886,84.091 316.024,82.46 314.659,81.983 
				312.052,81.282 309.493,81.739 308.196,82.226 306.761,83.521 306.079,84.222 305.571,85.212 305.345,86.296 305.438,87.253 
				305.804,88.987 306.526,90.14 308.345,91.808 309.737,92.238 312.331,92.983 314.917,92.568 316.2,92.04 317.69,90.771 
				318.358,90.052 318.86,89.048 319.091,87.958 			"/>
			<g>
				<polygon fill="#CEDFEF" stroke="#000000" points="321.056,53.378 320.31,54.078 318.687,56.969 315.472,81.138 314.921,89.784 
					315.308,93.538 315.909,94.02 319.231,93.113 322.181,52.801 				"/>
				<polygon fill="#CEDFEF" stroke="#000000" points="314.921,89.784 315.472,81.138 318.687,56.969 320.31,54.078 321.056,53.378 
					322.181,52.801 323.267,52.709 322.583,52.616 321.819,52.607 321.122,52.685 320.63,52.832 319.616,53.182 319.302,53.493 
					316.901,55.9 312.929,79.295 312.425,87.867 313.165,91.858 313.665,92.786 314.534,93.388 315.909,94.02 315.308,93.538 				
					"/>
				<polygon fill="#CEDFEF" stroke="#000000" points="323.929,52.979 323.267,52.709 322.181,52.801 319.231,93.113 322.563,91.235 
					323.247,90.235 324.181,86.038 324.876,77.57 325.151,54.96 				"/>
			</g>
		</g>
		<polygon fill="#538DBE" stroke="#000000" points="147.585,28.782 79.808,38.81 311.402,90.353 372.031,66.192 		"/>
		<g>
			<polygon fill="#CEDFEF" stroke="#000000" stroke-linecap="round" stroke-linejoin="round" points="135.811,38.267 
				134.494,38.462 133.532,38.601 131.423,38.663 129.079,38.548 126.308,38.235 114.935,36.714 112.99,36.209 113.387,34.078 
				116.325,29.99 120.695,27.358 125.578,26.687 129.012,26.329 133.815,27.833 142.058,31.093 143.827,31.993 144.845,33.03 
				135.838,38.312 			"/>
			<polygon fill="#CEDFEF" stroke="#000000" points="179.494,37.829 178.226,35.646 176.446,34.296 174.577,33.345 172.164,33.028 
				169.837,33.486 167.721,34.601 166.298,36.241 165.167,38.103 164.823,40.562 165.329,43.139 166.587,45.336 168.353,46.721 
				170.262,47.591 172.667,47.965 174.974,47.424 177.113,46.368 178.465,44.678 179.625,42.851 179.994,40.404 			"/>
			<path fill="#CEDFEF" stroke="#000000" d="M137.061,44.786l1.589,1.975c0.029-0.009,0.082,0.001,0.153,0.024
				c-0.166-0.171,0.192,0.063,0.85,0.245c0.305,0.07,0.597,0.173,0.885,0.291c0.625,0.057,1.219,0.229,1.764,0.491
				c0.173,0.058,0.338,0.124,0.496,0.2c0.26,0.101,0.509,0.215,0.735,0.354c0.019,0.008,0.042,0.012,0.061,0.02l2.474-0.459
				l1.577-0.952l1.859-1.469l1.23-2.255l0.37-2.599l-0.565-2.443l-0.878-1.149l-1.733-2.255l-2.44-1.03l-2.095-0.373l-2.67,0.416
				l-1.542,1.023l-1.892,1.434l-1.26,2.253l-0.368,2.613l0.597,2.448L137.061,44.786z"/>
			<path fill="#CEDFEF" stroke="#000000" d="M180.784,41.382l-0.891-1.349l-2.871-3.139l-3.071-1.121l-9.576-3.425l-5.091-1.65
				l-6.995,0.068l-5.136,0.787l-2.31,1.476l-2.314,1.479l-3.137,4.555l-0.969,5.215l0.765,2.601c0.133,0.05,0.283,0.103,0.464,0.152
				c0.305,0.07,0.597,0.173,0.885,0.291c0.625,0.057,1.22,0.229,1.766,0.492c0.173,0.059,0.339,0.125,0.498,0.201
				c0.264,0.103,0.516,0.219,0.744,0.36c0.091,0.038,0.179,0.08,0.267,0.122c0.056,0.012,0.11,0.031,0.167,0.041
				c1.72,0.318,3.42,0.582,4.959,1.433c0.999,0.149,1.993,0.298,2.977,0.462c0.397,0.035,0.794,0.068,1.19,0.104
				c1.7,0.155,3.241,0.358,4.778,0.962c0.586-0.078,1.184-0.053,1.765,0.074c0.806,0.002,1.615,0.223,2.36,0.717
				c0.263,0.176,0.533,0.342,0.811,0.496c0.139,0.045,0.317,0.102,0.434,0.129c0.005,0.001,0.007,0.001,0.012,0.001
				c0.366,0.012,0.729,0.013,1.096,0.005c1.1-0.023,2.124,0.352,2.956,0.982c0.391,0.096,0.772,0.234,1.138,0.428
				c0.075,0.027,0.152,0.045,0.227,0.076c0.061,0.005,0.121,0.011,0.212,0.02c0.903,0.092,1.864,0.135,2.734,0.422
				c0.728,0.24,1.866,0.557,2.657,0.742l1.041-0.567l3.386-2.427l2.27-3.547l0.736-3.989L180.784,41.382z"/>
			<polygon fill="#CEDFEF" stroke="#000000" points="209.301,42.15 209.148,41.768 208.048,39.917 206.469,39.108 205.828,38.813 
				193.481,35.853 185.624,34.065 179.562,34.449 177.441,34.883 176.347,35.505 174.684,37.031 174.437,37.518 173.47,39.561 
				173.171,41.917 173.216,42.136 173.171,41.917 173.601,44.109 173.714,44.679 174.95,46.515 175.848,47.44 177.801,48.312 
				183.546,50.388 191.562,50.878 204.2,51.503 204.893,51.4 206.634,50.939 208.173,49.366 208.413,49.062 209.36,46.906 
				209.678,44.444 			"/>
			<polygon fill="#CEDFEF" stroke="#000000" points="214.412,43.334 213.313,41.666 211.829,40.693 210.387,39.943 208.42,39.836 
				206.667,40.229 204.981,41.246 203.992,42.534 203.128,44.089 202.922,46.076 203.409,48.104 204.497,49.781 205.973,50.777 
				207.438,51.479 209.403,51.624 211.144,51.182 212.849,50.2 213.794,48.88 214.678,47.345 214.899,45.362 			"/>
			<polygon fill="#CEDFEF" stroke="#000000" points="243.044,44.86 242.829,44.478 241.776,42.768 240.342,42.027 239.552,41.758 
				228.084,39.54 215.358,39.321 213.551,39.57 211.689,39.991 210.832,40.404 209.347,41.899 208.401,44.207 208.376,44.369 
				208.186,46.732 208.188,46.863 208.749,49.326 209.971,51.1 210.755,51.608 212.52,52.403 214.27,52.882 226.905,54.302 
				238.611,53.581 239.438,53.416 240.965,52.986 242.27,51.524 242.545,51.15 243.286,49.188 243.464,46.945 			"/>
			<path fill="#CEDFEF" stroke="#000000" d="M174.984,55.733c0.796,0.105,1.545,0.337,2.217,0.672
				c0.225,0.017,0.449,0.028,0.675,0.068c1.833,0.33,3.614,0.561,5.438,1c0.729,0.177,1.444,0.396,2.167,0.595
				c0.199,0.037,0.401,0.077,0.614,0.128c0.196,0.033,0.431,0.076,0.614,0.123l2.783-2.42l2.036-3.977l0.661-4.548l-0.843-4.26
				l-2.2-3.159l-2.493-2.818l-3.927-1.787l-3.978-0.67l-4.372,0.743l-3.017,1.78l-3.138,2.532l-2.121,3.97l-0.659,4.597l0.941,4.269
				l1.028,1.354c0.359,0.096,0.712,0.229,1.049,0.41c0.073,0.025,0.147,0.043,0.219,0.072c0.061,0.005,0.121,0.011,0.212,0.02
				c0.903,0.092,1.864,0.135,2.734,0.422C172.624,55.179,174.403,55.655,174.984,55.733z"/>
			<path fill="#CEDFEF" stroke="#000000" d="M206.634,63.204c0.555,0.023,1.708,0.268,2.131,0.311
				c0.181,0.02,0.362,0.039,0.544,0.06l3.139-2.46l3.004-5.002l1.028-5.577l-1.135-5.124l-0.19-0.37l-3.229-3.842l-3.243-1.735
				l-5.161-1.767l-5.198-0.942l-10.604,0.854l-4.81,0.863l-4.36,3.033l-0.203,0.203l-2.877,4.444l-0.935,5.052l1.202,4.599
				l0.022,0.083c0.503,0.117,0.972,0.296,1.41,0.516c0.236,0.017,0.471,0.03,0.708,0.072c1.833,0.33,3.614,0.561,5.438,1
				c0.733,0.178,1.451,0.398,2.177,0.598c0.209,0.039,0.42,0.078,0.643,0.131c0.311,0.054,0.697,0.131,0.822,0.205
				c0.108,0.028,0.219,0.057,0.328,0.085c0.985-0.087,1.944,0.038,2.801,0.374c0.476-0.076,0.965-0.072,1.486,0.021
				c1.545-0.085,3.022,0.388,4.072,1.405c0.266,0.119,0.525,0.265,0.774,0.441c0.123,0.053,0.246,0.105,0.368,0.163
				c0.24,0.044,0.48,0.105,0.716,0.202c2.686,1.111,6.061,1.639,8.938,2.062C206.507,63.172,206.567,63.192,206.634,63.204z"/>
			<polygon fill="#CEDFEF" stroke="#000000" points="248.789,46.133 247.864,44.585 246.528,43.61 245.455,42.981 243.606,42.721 
				242.197,43.078 240.538,43.82 239.396,45.414 238.851,46.292 238.525,48.006 238.854,49.814 239.772,51.368 241.101,52.36 
				242.192,52.948 244.036,53.241 245.437,52.843 247.106,52.129 248.272,50.548 248.776,49.651 249.115,47.943 			"/>
			<polygon fill="#CEDFEF" stroke="#000000" points="225.955,48.464 224.668,46.458 222.657,44.801 220.43,43.707 217.552,43.458 
				215.124,43.999 212.871,45.3 211.162,46.97 210.043,49.549 209.744,52.513 210.329,55.259 211.671,57.228 213.622,58.959 
				215.894,59.961 218.765,60.294 221.167,59.654 223.466,58.438 225.128,56.722 226.206,54.142 226.501,51.201 			"/>
			<polygon fill="#CEDFEF" stroke="#000000" points="264.877,49.621 263.762,48.536 262.904,47.837 257.204,46.171 255.575,45.946 
				252.01,45.677 248.039,46.12 246.813,46.448 245.658,47.152 245.039,47.564 244.607,48.125 244.454,48.719 244.606,49.23 
				244.923,50.193 245.694,50.777 248.706,52.291 252.047,53.063 253.706,53.253 260.188,53.411 261.598,52.991 263.537,52.389 
				264.318,51.83 264.861,51.086 265.061,50.296 			"/>
			<polygon fill="#CEDFEF" stroke="#000000" points="269.377,52.541 269.256,52.23 267.973,49.941 266.164,48.957 265.42,48.666 
				264.062,48.719 240.959,45.038 225.376,42.836 222.59,43.465 221.056,44.632 218.96,46.717 217.582,49.941 217.21,53.648 
				217.921,57.079 239.149,63.114 262.523,64.149 263.842,64.472 264.631,64.338 266.598,63.721 268.312,61.724 268.49,61.445 
				269.549,58.654 269.865,55.483 			"/>
			<path fill="#CEDFEF" stroke="#000000" d="M195.699,60.32c0.246,0.114,0.486,0.249,0.718,0.413
				c0.123,0.053,0.246,0.105,0.368,0.163c0.24,0.044,0.48,0.105,0.716,0.202c2.335,0.967,5.191,1.49,7.788,1.891l0.264-0.156
				l2.01-1.778l1.308-2.68l0.359-3.06l-0.66-2.853l-1.556-2.091l-1.646-1.797l-2.688-1.144l-2.607-0.342l-2.917,0.555l-1.941,1.278
				l-2.049,1.728l-1.344,2.67l-0.359,3.073l0.609,2.494C193.457,58.915,194.76,59.391,195.699,60.32z"/>
			<path fill="#CEDFEF" stroke="#000000" d="M246.359,55.015l-2.363-1.068l-1.268,0.013l-21.306-4.556l-14.212-2.745l-3.375,0.648
				l-2.978,2.541l-0.868,0.785l-1.666,4.067c0,0,24.677,6.531,26.496,7.252c0.562-0.045,1.131,0.021,1.681,0.242
				c1.645,0.657,3.413,0.074,5.132,0.439c1.918,0.205,7.014,0.873,7.806,1.09C239.789,63.82,246.359,55.015,246.359,55.015z"/>
			<polygon fill="#CEDFEF" stroke="#000000" points="275.195,56.923 275.098,55.082 274.414,53.499 272.828,51.657 271.336,50.8 
				268.891,50.015 267.039,50.452 264.887,50.956 263.418,52.28 262.639,53.37 262.004,54.494 261.674,55.784 261.668,56.659 
				261.74,58.828 262.467,60.387 264.002,62.267 265.531,63.063 267.951,63.899 270.49,63.359 271.963,62.96 273.404,61.606 
				274.252,60.565 274.883,59.429 275.219,58.13 			"/>
			<polygon fill="#CEDFEF" stroke="#000000" points="315.528,64.34 297.111,57.036 276.879,51.158 273.885,51.069 271.9,51.548 
				270.969,52.244 269.297,53.775 267.979,56.128 267.283,60.985 308.069,66.896 314.545,66.134 			"/>
			<path fill="#CEDFEF" stroke="#000000" d="M245.076,64.687c1.75-0.53,6.102-7.553,6.102-7.553l-1.714-0.822l-2.492-0.852
				l-2.555,0.603l-1.662,0.438l-1.604,1.454l-0.66,1.082l-0.674,1.205l-0.327,1.362l-0.156,1.008l0.078,1.108
				c0.009,0.002,0.019,0.002,0.027,0.004C239.789,63.82,242.922,65.358,245.076,64.687z"/>
			<path fill="#CEDFEF" stroke="#000000" d="M335.422,71.796c0.545,0.002,1.062,0.113,1.565,0.279
				c0.121-0.021,0.258-0.045,0.418-0.07c0.089-0.02,0.17-0.049,0.258-0.068l3.339-22.138l1.477-2.654l0.664-0.627l0.988-0.491
				l0.939-0.035l-0.648-0.087l-0.711-0.018l-0.633,0.056l-0.428,0.115l-0.975,0.331l-2.088,2.028l-0.432,0.468l-4.213,22.028
				l-0.068,0.844C335.057,71.767,335.239,71.761,335.422,71.796z"/>
			<polyline fill="#CEDFEF" stroke="#000000" points="344.131,46.026 343.143,46.518 342.479,47.145 341.002,49.799 337.663,71.937 
				345.839,68.946 346.646,48.208 345.641,46.276 345.07,45.991 344.131,46.026 			"/>
			<path fill="#CEDFEF" stroke="#000000" d="M316.06,79.944l3.138-23.586l1.623-2.891l0.746-0.7l1.125-0.577l1.086-0.092
				l-0.684-0.093l-0.764-0.009l-0.697,0.077l-0.492,0.147l-1.014,0.35l-0.314,0.312l-2.4,2.407l-3.973,23.389l-0.022,0.389
				c0.095,0.123,0.188,0.254,0.281,0.381C314.889,79.796,315.415,80.011,316.06,79.944z"/>
			<path fill="#CEDFEF" stroke="#000000" d="M322.691,52.19l-1.125,0.577l-0.746,0.7l-1.623,2.891l-3.138,23.586
				c0.519-0.051,1.117-0.283,2.214-0.779l2.522-1.068c1.511-0.607,3.072-1.141,4.596-1.508l0.271-22.239l-1.223-1.981l-0.662-0.27
				L322.691,52.19z"/>
			<path fill="#CEDFEF" stroke="#000000" stroke-linecap="round" stroke-linejoin="round" d="M275.037,70.851
				c-3.029-0.475-29.221-5.833-29.961-6.164l0.615-2.551l1.403-2.522l1.833-1.683l0.911-0.713l2.221-0.599l3.047,0.12l20.687,6.422
				l17.428,7.398l3.648,1.434l2.23,0.795l-2.242,0.658l-3.324-0.344c-2.026-0.184-4.053-0.365-6.078-0.547L275.037,70.851z"/>
			<polygon fill="#CEDFEF" stroke="#000000" stroke-linecap="round" stroke-linejoin="round" points="137.363,45.549 132.15,41.771 
				134.455,40.041 136.023,38.965 139.178,38.528 141.021,38.989 143.721,40.042 145.117,41.578 146.206,43.206 146.772,44.53 
				147.018,46.061 146.893,47.491 			"/>
			<path fill="#CEDFEF" stroke="#000000" d="M162.818,52.786c0.139,0.045,0.317,0.102,0.434,0.129
				c0.005,0.001,0.007,0.001,0.012,0.001c0.366,0.012,0.729,0.013,1.096,0.005c1.101-0.023,2.124,0.352,2.956,0.982
				c0.391,0.096,0.772,0.234,1.138,0.428c0.075,0.027,0.152,0.045,0.227,0.076c0.061,0.005,0.121,0.011,0.212,0.02
				c0.378,0.039,0.765,0.071,1.151,0.113l0.301-1.892l-0.638-2.755l-1.627-2.039l-0.42-0.327l-9.179-3.714l-2.848-1.133l-6.07-2.347
				l-4.763,0.099l-2.915,0.416l-2.587,1.815l-0.419,0.379l-1.516,2.506l2.025,1.399c0.083,0.027,0.168,0.057,0.264,0.082
				c0.305,0.07,0.597,0.173,0.885,0.291c0.625,0.057,1.22,0.229,1.766,0.492c0.173,0.059,0.339,0.125,0.498,0.201
				c0.264,0.103,0.516,0.219,0.744,0.36c0.091,0.038,0.179,0.08,0.267,0.122c0.056,0.012,0.11,0.031,0.167,0.041
				c1.72,0.318,3.42,0.582,4.959,1.433c0.999,0.149,1.993,0.298,2.977,0.462c0.397,0.035,0.794,0.068,1.19,0.104
				c1.7,0.155,3.241,0.358,4.778,0.962c0.586-0.078,1.184-0.053,1.765,0.074c0.806,0.002,1.615,0.223,2.36,0.717
				C162.271,52.466,162.541,52.632,162.818,52.786z"/>
			<path fill="#CEDFEF" stroke="#000000" d="M173.487,52.428l-0.247-0.554l-1-1.867l-1.328-1.124l-2.02-0.834l-1.733-0.199
				l-2.354,0.405l-1.458,1.036l-1.59,1.407l-0.24,0.549l0.588,1.104c0.233,0.151,0.47,0.3,0.714,0.436
				c0.139,0.045,0.317,0.102,0.434,0.129c0.005,0.001,0.007,0.001,0.012,0.001c0.366,0.012,0.729,0.013,1.096,0.005
				c1.1-0.023,2.124,0.352,2.956,0.982c0.391,0.096,0.772,0.234,1.138,0.428c0.075,0.027,0.152,0.045,0.227,0.076
				c0.061,0.005,0.121,0.011,0.212,0.02c0.903,0.092,1.864,0.135,2.734,0.422c0.538,0.178,1.302,0.397,1.984,0.575l0.045-0.574
				l0.088-1.188L173.487,52.428z"/>
			<path fill="#CEDFEF" stroke="#000000" d="M199.085,54.369l-1.455-1.903l-0.627-0.301l-2.08-0.871l-10.245-2.943l-11.357-0.776
				l-1.616,0.199l-2.518,0.437l-0.714,0.412l-2.02,1.613l-1.307,2.512l-0.025,0.228c0.805,0.118,1.545,0.45,2.178,0.925
				c0.396,0.096,0.783,0.234,1.153,0.432c0.075,0.027,0.153,0.045,0.228,0.076c0.061,0.005,0.121,0.011,0.212,0.02
				c0.903,0.092,1.864,0.135,2.734,0.422c0.998,0.33,2.777,0.807,3.358,0.885c0.796,0.105,1.545,0.337,2.217,0.672
				c0.225,0.017,0.449,0.028,0.675,0.068c1.833,0.33,3.614,0.561,5.438,1c0.733,0.178,1.451,0.398,2.177,0.598
				c0.209,0.039,0.42,0.078,0.643,0.131c0.311,0.054,0.697,0.131,0.822,0.205c0.108,0.028,0.219,0.057,0.328,0.085
				c0.985-0.087,1.944,0.038,2.801,0.374c0.476-0.076,0.965-0.072,1.486,0.021c1.545-0.085,3.022,0.388,4.072,1.405
				c0.266,0.119,0.525,0.265,0.774,0.441c0.123,0.053,0.246,0.105,0.368,0.163c0.24,0.044,0.48,0.105,0.716,0.202
				c0.34,0.141,1.912-1.361,1.912-1.361l0.306-2.776L199.085,54.369z"/>
			<path fill="#CEDFEF" stroke="#000000" d="M196.27,60.01c0.068,0.093,0.156,0.168,0.23,0.255c0.795,0.342,1.6,0.646,2.412,0.959
				c0.679,0.261,1.688,0.778,2.418,1.035c0.259,0.059,0.518,0.117,0.777,0.17c0.135,0.021,0.27,0.04,0.405,0.061l0.686-0.721
				l0.829-1.357l0.279-1.877l-0.328-2.021l-0.869-1.756l-1.234-1.142l-1.627-0.7l-1.682-0.372l-1.99,0.381l-1.487,0.747
				l-1.328,1.323l-0.805,1.375l-0.261,1.879l0.041,0.302C194.073,58.503,195.406,58.945,196.27,60.01z"/>
			<path fill="#CEDFEF" stroke="#000000" d="M206.606,63.204c0.542,0.016,1.728,0.268,2.158,0.311
				c1.293,0.133,2.605,0.328,3.907,0.219c2.504-0.211,4.199-0.593,6.317-1.725l0.027-0.088l-0.304-0.849l-0.456-1.215l-1.264-0.785
				l-4.988-2.146l-3.451-0.481l-2.199-0.246l-3.747,0.315l-1.74,0.352l-1.572,0.811l-1.084,1.11l-0.377,1.187l0.409,1.025
				l0.786,0.646c2.371,0.748,5.055,1.17,7.409,1.518C206.499,63.171,206.548,63.193,206.606,63.204z"/>
		</g>
		<text transform="matrix(1 0 0 1 387.8408 30.9248)" font-size="10">Patient Plane</text>
		<g>
			<g>
				<polyline fill="none" stroke="#000000" points="385.563,28.364 373.87,28.37 351.135,67.959 				"/>
				<g>
					<polygon points="350.215,66.06 348.487,72.568 353.238,67.796 					"/>
				</g>
			</g>
		</g>
		<g>
			<g>
				<line fill="none" stroke="#21B152" x1="174.742" y1="45.068" x2="174.742" y2="103.985"/>
				<path fill="#21B152" d="M174.742,102.965l3.603-2.189l0.082,0.122l-2.333,5.875c-0.45,2.047-0.9,4.095-1.351,6.142
					c-0.45-2.047-0.9-4.095-1.351-6.142l-2.333-5.875l0.062-0.122L174.742,102.965z"/>
			</g>
		</g>
		<text transform="matrix(1 0 0 1 247.9927 30.9473)" fill="#EB222F" font-size="10">+X</text>
		<text transform="matrix(1 0 0 1 165.4873 122.8633)" fill="#21B152" font-size="10">+Y</text>
		<text transform="matrix(1 0 0 1 54.6714 24.7036)" fill="#00B0ED" font-size="10">+Z</text>
		<g>
			<g>
				<line fill="none" stroke="#00B0ED" x1="174.523" y1="45.156" x2="77.616" y2="26.43"/>
				<path fill="#00B0ED" d="M78.618,26.623l1.467,3.953l-0.136,0.057l-5.325-3.406c-1.924-0.831-3.849-1.661-5.773-2.492
					c2.095-0.054,4.191-0.107,6.286-0.162l6.211-1.176l0.108,0.083L78.618,26.623z"/>
			</g>
		</g>
		<g>
			<g>
				<line fill="none" stroke="#EB222F" x1="174.658" y1="45.426" x2="237.274" y2="31.309"/>
				<path fill="#EB222F" d="M236.279,31.533L233.35,28.5l0.102-0.106l6.245,0.984c2.096-0.011,4.192-0.022,6.288-0.033
					c-1.897,0.89-3.796,1.779-5.693,2.669l-5.218,3.568l-0.133-0.033L236.279,31.533z"/>
			</g>
		</g>
	</g>
</g>
</svg>
