<?xml version="1.0" encoding="utf-8"?>

<!DOCTYPE svg PUBLIC "-//W3C//DTD SVG 1.1//EN" "http://www.w3.org/Graphics/SVG/1.1/DTD/svg11.dtd">
<svg version="1.1" id="Layer_1" xmlns="http://www.w3.org/2000/svg" xmlns:xlink="http://www.w3.org/1999/xlink" x="0px" y="0px"
	 width="532px" height="527px" viewBox="0 0 532 527" enable-background="new 0 0 532 527" xml:space="preserve">

<defs>
	<style type="text/css">
	text {
	  font-family: Helvetica, Verdana, ArialUnicodeMS, san-serif
	}
	</style>
</defs>

<g>
   <desc>
	PS 3.3 Part 3: Information Object Definitions
   </desc>
</g>

<g>
	<rect x="1" y="1" fill="#F5EED6" width="530" height="525"/>
	<g>
		<polygon opacity="0.5" fill="#6799C8" stroke="#000000" stroke-linejoin="round" stroke-miterlimit="10" points="383.015,149.897 
			402.875,144.057 385.771,308.031 320.282,366.262 		"/>
		<path opacity="0.7" fill="#005695" stroke="#000000" stroke-linejoin="round" stroke-miterlimit="10" d="M163.633,152.424
			c46.314-7.565,106.044-17.323,106.044-17.323l133.197,8.956l-19.86,5.841L163.633,152.424z"/>
		<polygon opacity="0.4" fill="#86B2D8" stroke="#000000" stroke-linejoin="round" stroke-miterlimit="10" points="118.33,281.226 
			123.312,356.323 167.531,372.92 		"/>
		
			<polygon opacity="0.6" fill="#B3B3B3" stroke="#000000" stroke-width="0.5" stroke-linejoin="round" stroke-miterlimit="10" stroke-dasharray="6" points="
			156.29,512.191 516,361.575 370.917,14.809 16,138.654 		"/>
		<polygon opacity="0.6" fill="#0DB14B" stroke="#000000" stroke-linejoin="round" stroke-miterlimit="10" points="191.423,330.88 
			331.521,275.697 286.396,164.187 147.038,215.354 		"/>
		<polygon opacity="0.6" fill="#0DB14B" stroke="#000000" stroke-linejoin="round" stroke-miterlimit="10" points="186.045,342.714 
			326.142,287.529 281.018,176.02 141.659,227.188 		"/>
		<polygon opacity="0.6" fill="#0DB14B" stroke="#000000" stroke-linejoin="round" stroke-miterlimit="10" points="186.045,342.714 
			191.423,330.88 147.038,215.354 141.659,227.188 		"/>
		<polygon opacity="0.6" fill="#0DB14B" stroke="#000000" stroke-linejoin="round" stroke-miterlimit="10" points="326.142,287.529 
			331.521,275.697 191.423,330.88 186.045,342.714 		"/>
		
			<line fill="none" stroke="#000000" stroke-linejoin="round" stroke-miterlimit="10" x1="286.396" y1="164.187" x2="281.018" y2="176.02"/>
		<polygon opacity="0.4" fill="#CCDEF0" stroke="#000000" stroke-linejoin="round" stroke-miterlimit="10" points="167.531,372.92 
			269.678,411.258 275.999,181.37 110.362,161.126 118.33,281.226 		"/>
		<path opacity="0.7" fill="#86B2D8" stroke="#000000" stroke-linejoin="round" stroke-miterlimit="10" d="M383.015,149.897
			L275.999,181.37l-165.637-20.244c0,0,23.947-3.911,53.271-8.702L383.015,149.897z"/>
		<polygon opacity="0.6" fill="#B2CEE7" stroke="#000000" stroke-linejoin="round" stroke-miterlimit="10" points="320.282,366.262 
			269.678,411.258 275.999,181.37 383.015,149.897 		"/>
		<rect x="157.036" y="220.814" fill="none" width="97.891" height="18.209"/>
		<text transform="matrix(1 0 0 1 157.0356 226.5352)"><tspan x="0" y="0" font-size="8">MPR Top Left Hand Corner</tspan><tspan x="0" y="9.6" font-size="8">(0070,x505) </tspan></text>
		<g>
			<rect x="335.773" y="273.851" fill="none" width="88.686" height="18.21"/>
			<text transform="matrix(1 0 0 1 335.7715 279.5723)"><tspan x="0" y="0" font-size="8">MPR Slab Thickness </tspan><tspan x="0" y="9.6" font-size="8">(0070,x503)</tspan></text>
		</g>
		<circle cx="143.918" cy="220.598" r="3.872"/>
		<g>
			<g>
				
					<line fill="none" stroke="#000000" stroke-width="3" stroke-linejoin="round" x1="185.525" y1="205.496" x2="144.025" y2="220.733"/>
				<g>
					<polygon points="180.375,201.816 200.495,200 183.98,211.634 					"/>
				</g>
			</g>
		</g>
		<g>
			<g>
				
					<line fill="none" stroke="#4D4D4F" stroke-width="2" stroke-linejoin="round" x1="283.385" y1="169.565" x2="281.977" y2="170.083"/>
				
					<line fill="none" stroke="#4D4D4F" stroke-width="2" stroke-linejoin="round" stroke-dasharray="2.9414,2.9414" x1="279.216" y1="171.096" x2="203.284" y2="198.976"/>
				
					<line fill="none" stroke="#4D4D4F" stroke-width="2" stroke-linejoin="round" x1="201.903" y1="199.482" x2="200.495" y2="200"/>
			</g>
		</g>
		<g>
			<g>
				
					<line fill="none" stroke="#4D4D4F" stroke-width="2" stroke-linejoin="round" x1="165.033" y1="275.408" x2="165.564" y2="276.811"/>
				
					<line fill="none" stroke="#4D4D4F" stroke-width="2" stroke-linejoin="round" stroke-dasharray="3.0912,3.0912" x1="166.661" y1="279.701" x2="185.84" y2="330.282"/>
				
					<line fill="none" stroke="#4D4D4F" stroke-width="2" stroke-linejoin="round" x1="186.388" y1="331.728" x2="186.92" y2="333.13"/>
			</g>
		</g>
		<g>
			<g>
				
					<line fill="none" stroke="#000000" stroke-width="3" stroke-linejoin="round" x1="144.025" y1="220.733" x2="159.313" y2="260.522"/>
				<g>
					<polygon points="153.152,259.068 165.033,275.408 162.916,255.317 					"/>
				</g>
			</g>
		</g>
		
			<line fill="none" stroke="#000000" stroke-width="3" stroke-linecap="round" stroke-miterlimit="10" x1="331.521" y1="275.697" x2="326.142" y2="287.529"/>
		<g>
			<g>
				
					<line fill="none" stroke="#0DB14B" stroke-width="2" stroke-linejoin="round" x1="110.681" y1="161.029" x2="112.972" y2="198.115"/>
				<g>
					<polygon fill="#0DB14B" points="109.345,195.956 113.627,208.726 116.305,195.526 					"/>
				</g>
			</g>
		</g>
		<g>
			<g>
				
					<line fill="none" stroke="#ED1C24" stroke-width="2" stroke-linejoin="round" x1="110.876" y1="161.062" x2="151.579" y2="153.606"/>
				<g>
					<polygon fill="#ED1C24" points="149.868,157.464 162.036,151.69 148.611,150.605 					"/>
				</g>
			</g>
		</g>
		<g>
			<g>
				
					<line fill="none" stroke="#00AEEF" stroke-width="2" stroke-linejoin="round" x1="110.338" y1="160.814" x2="143.968" y2="164.75"/>
				<g>
					<polygon fill="#00AEEF" points="141.201,167.937 154.527,165.986 142.012,161.011 					"/>
				</g>
			</g>
		</g>
		<g>
			<rect x="303.584" y="124.162" fill="none" width="107.504" height="11.004"/>
			<text transform="matrix(1 0 0 1 303.584 129.8872)" font-size="8">MPR View Width (0070,x508)</text>
		</g>
		<g>
			<rect x="224.084" y="106.787" fill="none" width="142.004" height="9.505"/>
			<text transform="matrix(1 0 0 1 224.084 112.5122)" font-size="8">MPR View Width Direction (0070,x507)</text>
		</g>
		<g>
			<rect x="162.431" y="433.412" fill="none" width="142.004" height="9.506"/>
			<text transform="matrix(1 0 0 1 162.4307 439.1377)" font-size="8">MPR View Height Direction (0070,x511)</text>
		</g>
		<g>
			<rect x="180.182" y="419.162" fill="none" width="108.712" height="9.506"/>
			<text transform="matrix(1 0 0 1 180.1821 424.8877)" font-size="8">MPR View Height (0070,x512)</text>
		</g>
		<polyline fill="none" stroke="#000000" stroke-width="0.75" stroke-miterlimit="10" points="191.423,199.261 202.273,110.664 
			221.232,110.664 		"/>
		<polyline fill="none" stroke="#000000" stroke-width="0.75" stroke-miterlimit="10" points="282.524,170.017 289.625,127.365 
			301.084,127.365 		"/>
		<polyline fill="none" stroke="#000000" stroke-width="0.75" stroke-miterlimit="10" points="159.382,268.947 141.732,437.1 
			160.691,437.1 		"/>
		<polyline fill="none" stroke="#000000" stroke-width="0.75" stroke-miterlimit="10" points="186.92,333.13 158.557,422.399 
			177.516,422.399 		"/>
	</g>
</g>
</svg>
