<?xml version="1.0" encoding="utf-8"?>
<!-- Generator: Adobe Illustrator 13.0.0, SVG Export Plug-In . SVG Version: 6.00 Build 14948)  -->
<!DOCTYPE svg PUBLIC "-//W3C//DTD SVG 1.1//EN" "http://www.w3.org/Graphics/SVG/1.1/DTD/svg11.dtd">
<svg version="1.1" id="Layer_1" xmlns="http://www.w3.org/2000/svg" xmlns:xlink="http://www.w3.org/1999/xlink" x="0px" y="0px"
	 width="508.667px" height="736.566px" viewBox="-20 -15 508.667 736.566" enable-background="new -20 -15 508.667 736.566"
	 xml:space="preserve">

<defs>
	<style type="text/css">
	text {
	  font-family: Helvetica, Verdana, ArialUnicodeMS, san-serif
	}
	</style>
</defs>

	<rect x="108.333" y="0.5" fill="#FFFFFF" stroke="#010101" width="270.833" height="543.167"/>
<g>
	<g>
		<polyline fill="none" stroke="#010101" points="155.953,314.988 169.841,312.876 164.953,326.988 		"/>
		<line fill="none" stroke="#010101" x1="156.507" y1="324.542" x2="170.007" y2="313.042"/>
	</g>
	<g>
		<polyline fill="none" stroke="#010101" points="186.367,326.958 184.255,313.07 198.367,317.958 		"/>
		<line fill="none" stroke="#010101" x1="195.921" y1="326.404" x2="184.421" y2="312.904"/>
	</g>
	<polygon id="Mouse_Body" fill="#FFFFFF" stroke="#010101" points="222.539,266.554 178.062,328.098 133.589,266.554 
		133.589,118.775 178.062,93.098 222.539,118.775 	"/>
	<path id="ear_2" fill="#FFFFFF" stroke="#010101" d="M197.36,285c0,0,18.914,4.509,25.287,12.77
		c6.371,8.26,7.203,18.297,1.856,22.421c-5.344,4.122-14.842,0.77-21.213-7.49C196.917,304.439,197.36,285,197.36,285z"/>
	<path id="ear_1" fill="#FFFFFF" stroke="#010101" d="M163.946,288.145c0,0-4.509,18.915-12.771,25.287
		c-8.258,6.372-18.297,7.204-22.42,1.858c-4.123-5.345-0.77-14.843,7.49-21.213C144.505,287.705,163.946,288.145,163.946,288.145z"
		/>
	<path id="tail" fill="none" stroke="#010101" d="M177.507,93.098c0,0,11.552-19.924,0-35.556
		c-9.443-12.777-13.889-26.666-10-32.223c12.258-17.508,25,1.111,25,1.111"/>
</g>
<g>
	<g>
		<polyline fill="none" stroke="#010101" points="328.902,240.094 315.011,242.207 319.902,228.094 		"/>
		<line fill="none" stroke="#010101" x1="328.345" y1="230.54" x2="314.845" y2="242.041"/>
	</g>
	<g>
		<polyline fill="none" stroke="#010101" points="298.487,228.123 300.596,242.011 286.487,237.123 		"/>
		<line fill="none" stroke="#010101" x1="288.93" y1="228.677" x2="300.43" y2="242.177"/>
	</g>
	<polygon id="Mouse_Body_1_" fill="#FFFFFF" stroke="#010101" points="262.316,288.527 306.792,226.983 351.263,288.527 
		351.263,436.306 306.792,461.984 262.316,436.306 	"/>
	<path id="ear_2_1_" fill="#FFFFFF" stroke="#010101" d="M287.494,270.083c0,0-18.914-4.51-25.287-12.771
		c-6.371-8.259-7.203-18.297-1.855-22.42c5.344-4.122,14.843-0.77,21.214,7.49C287.934,250.642,287.494,270.083,287.494,270.083z"/>
	<path id="ear_1_1_" fill="#FFFFFF" stroke="#010101" d="M320.908,266.937c0,0,4.51-18.916,12.771-25.287
		c8.258-6.373,18.297-7.205,22.42-1.859c4.123,5.343,0.771,14.843-7.49,21.214S320.908,266.937,320.908,266.937z"/>
	<path id="tail_1_" fill="none" stroke="#010101" d="M307.345,461.984c0,0-11.551,19.924,0,35.557
		c9.443,12.777,13.891,26.666,10,32.223c-12.258,17.51-24.999-1.109-24.999-1.109"/>
</g>
<text transform="matrix(1 0 0 1 166.6665 144.502)" font-size="12">1\1\2</text>
<text transform="matrix(1 0 0 1 166.6665 173.3008)" font-size="12">FFP</text>
<text transform="matrix(1 0 0 1 -5 509.834)" font-size="12">Gantry Front</text>
<text transform="matrix(1 0 0 1 -4.1665 43.502)" font-size="12">Gantry Rear</text>
<text transform="matrix(1 0 0 1 165.5 565.6689)" font-size="12">View from above gantry/table</text>
<text transform="matrix(1 0 0 1 178.5 706.6689)" font-size="12">View from front of gantry</text>
<text transform="matrix(1 0 0 1 -2.5 635.7832)" font-size="12">Gantry Left</text>
<text transform="matrix(1 0 0 1 406.9995 634.2832)" font-size="12">Gantry Right</text>
<rect x="108.333" y="583.5" fill="#FFFFFF" stroke="#010101" width="270.833" height="96.168"/>
<g>
	<circle fill="none" stroke="#000000" cx="294.13" cy="596.449" r="9.167"/>
	<circle fill="none" stroke="#000000" cx="330.796" cy="596.449" r="9.167"/>
	<polygon fill="#FFFFFF" stroke="#000000" points="293.757,650.529 278.578,624.235 293.757,597.94 332.187,597.94 347.369,624.235 
		332.187,650.529 	"/>
	<polygon fill="#FFFFFF" stroke="#000000" points="296.705,671.108 292.285,666.089 289.546,638.06 295.917,636.679 305.024,663.33 
		303.076,669.729 	"/>
	<line fill="none" stroke="#000000" x1="296.332" y1="663.549" x2="296.88" y2="670.882"/>
	<line fill="none" stroke="#000000" x1="300.365" y1="662.45" x2="302.564" y2="669.417"/>
	<polygon fill="#FFFFFF" stroke="#000000" points="328.482,671.108 332.904,666.089 335.64,638.06 329.271,636.679 320.164,663.33 
		322.111,669.729 	"/>
	<line fill="none" stroke="#000000" x1="328.857" y1="663.549" x2="328.306" y2="670.882"/>
	<line fill="none" stroke="#000000" x1="324.824" y1="662.45" x2="322.623" y2="669.417"/>
	<path fill="none" stroke="#000000" d="M313.38,618.45c0,0-9.717,3.481-10.266,11.731c-0.553,8.25,12.646,12.833,13.562,23.468
		c0.918,10.634-2.934,24.384-15.766,24.384"/>
</g>
<g>
	<path fill="none" stroke="#000000" d="M172.381,617.45c0,0-9.717,3.481-10.267,11.731c-0.551,8.25,12.649,12.833,13.566,23.468
		c0.917,10.634-2.934,24.384-15.767,24.384"/>
	<polygon fill="#FFFFFF" stroke="#000000" points="155.705,670.108 151.284,665.089 148.546,637.06 154.917,635.679 164.024,662.33 
		162.076,668.729 	"/>
	<line fill="none" stroke="#000000" x1="155.331" y1="662.549" x2="155.881" y2="669.882"/>
	<line fill="none" stroke="#000000" x1="159.365" y1="661.45" x2="161.564" y2="668.417"/>
	<polygon fill="#FFFFFF" stroke="#000000" points="187.482,670.108 191.903,665.089 194.641,637.06 188.271,635.679 179.163,662.33 
		181.111,668.729 	"/>
	<line fill="none" stroke="#000000" x1="187.856" y1="662.549" x2="187.306" y2="669.882"/>
	<line fill="none" stroke="#000000" x1="183.823" y1="661.45" x2="181.623" y2="668.417"/>
	<polygon fill="#FFFFFF" stroke="#000000" points="152.758,649.529 137.578,623.235 152.758,596.94 191.188,596.94 206.369,623.235 
		191.188,649.529 	"/>
	<circle fill="#FFFFFF" stroke="#000000" cx="153.131" cy="595.449" r="9.167"/>
	<circle fill="#FFFFFF" stroke="#000000" cx="189.797" cy="595.449" r="9.167"/>
	<ellipse stroke="#000000" cx="172.833" cy="629.283" rx="3.5" ry="3"/>
	<g>
		<polyline fill="none" stroke="#010101" points="151.953,632.988 165.841,630.876 160.953,644.988 		"/>
		<line fill="none" stroke="#010101" x1="152.507" y1="642.542" x2="166.007" y2="631.042"/>
	</g>
	<g>
		<polyline fill="none" stroke="#010101" points="182.367,644.958 180.255,631.07 194.367,635.958 		"/>
		<line fill="none" stroke="#010101" x1="191.921" y1="644.404" x2="180.421" y2="630.904"/>
	</g>
	<ellipse stroke="#000000" cx="160.333" cy="617.283" rx="3.5" ry="3"/>
	<ellipse stroke="#000000" cx="183.333" cy="617.283" rx="3.5" ry="3"/>
</g>
<text transform="matrix(1 0 0 1 422.8335 273.7832)" font-size="12">Field of View</text>
<path fill="none" stroke="#000000" d="M400.833,331.783c0,6.627-5.373,12-12,12h-297c-6.627,0-12-5.373-12-12v-112
	c0-6.627,5.373-12,12-12h297c6.627,0,12,5.373,12,12V331.783z"/>
<text transform="matrix(1 0 0 1 295.8335 372.835)" font-size="12">2\1\1</text>
<text transform="matrix(1 0 0 1 295.8335 401.6348)" font-size="12">HFP</text>
</svg>
