<?xml version="1.0" encoding="utf-8"?>

<!DOCTYPE svg PUBLIC "-//W3C//DTD SVG 1.1//EN" "http://www.w3.org/Graphics/SVG/1.1/DTD/svg11.dtd">
<svg version="1.1" id="Layer_1" xmlns="http://www.w3.org/2000/svg" xmlns:xlink="http://www.w3.org/1999/xlink" x="0px" y="0px"
	 width="502px" height="137px" viewBox="0 0 502 137" enable-background="new 0 0 502 137" xml:space="preserve">
    
<defs>
	<style type="text/css">
	text {
	  font-family: Helvetica, Verdana, ArialUnicodeMS, san-serif
	}
	</style>
</defs>

<g>
   <desc>
	PS 3.3 Part 3: Information Object Definitions
   </desc>
</g>

<g>
	<rect x="1" y="1" fill="#F5EED6" width="500" height="135"/>
	<g>
		<g>
			<g>
				<line fill="none" stroke="#005695" stroke-width="2" stroke-miterlimit="1" x1="251" y1="77.733" x2="251" y2="96.438"/>
				<g>
					<polygon fill="#005695" points="248.675,94.854 251,103.526 253.324,94.854 					"/>
				</g>
			</g>
		</g>
		<g>
			<g>
				<line fill="none" stroke="#005695" stroke-width="2" stroke-miterlimit="1" x1="251" y1="33.88" x2="251" y2="52.646"/>
				<g>
					<polygon fill="#005695" points="248.675,51.061 251,59.733 253.324,51.061 					"/>
				</g>
			</g>
		</g>
		
			<rect x="188.001" y="103.112" fill="#86B2D8" stroke="#010101" stroke-width="0.75" stroke-linecap="round" stroke-linejoin="round" stroke-miterlimit="1" width="125.999" height="18.008"/>
		<g>
			<text transform="matrix(1 0 0 1 199.6396 115.3936)" font-size="12">Procedure Protocol</text>
		</g>
		
			<polygon fill="#CCDEF0" stroke="#010101" stroke-width="0.75" stroke-linecap="round" stroke-linejoin="round" stroke-miterlimit="1" points="
			206,68.595 250.933,59.733 296,68.723 296,68.743 250.933,77.733 		"/>
		<g>
			<text transform="matrix(1 0 0 1 236.2432 71.1963)" font-size="9">creates</text>
		</g>
		<g>
			<text transform="matrix(1 0 0 1 279.2617 59.7422)" font-size="9">1</text>
		</g>
		<g>
			<text transform="matrix(1 0 0 1 271.2588 82.4678)" font-size="9">1-n</text>
		</g>
		
			<rect x="188" y="15.88" fill="#86B2D8" stroke="#010101" stroke-width="0.8461" stroke-linecap="round" stroke-linejoin="round" stroke-miterlimit="1" width="126" height="18"/>
		<g>
			<text transform="matrix(1 0 0 1 222.3149 28.1709)" font-size="12">Equipment</text>
		</g>
	</g>
</g>
</svg>
