<?xml version="1.0" encoding="utf-8"?>
<!-- Generator: Adobe Illustrator 13.0.0, SVG Export Plug-In . SVG Version: 6.00 Build 14948)  -->
<!DOCTYPE svg PUBLIC "-//W3C//DTD SVG 1.1//EN" "http://www.w3.org/Graphics/SVG/1.1/DTD/svg11.dtd">
<svg version="1.1" id="Layer_1" xmlns="http://www.w3.org/2000/svg" xmlns:xlink="http://www.w3.org/1999/xlink" x="0px" y="0px"
	 width="448.667px" height="741.566px" viewBox="-19 -17 448.667 741.566" enable-background="new -19 -17 448.667 741.566"
	 xml:space="preserve">

<defs>
	<style type="text/css">
	text {
	  font-family: Helvetica, Verdana, ArialUnicodeMS, san-serif
	}
	</style>
</defs>

	<rect x="108.333" y="0.5" fill="#FFFFFF" stroke="#010101" width="270.833" height="678.167"/>
<g>
	<g>
		<polyline fill="none" stroke="#010101" points="221.953,309.988 235.841,307.876 230.953,321.988 		"/>
		<line fill="none" stroke="#010101" x1="222.507" y1="319.542" x2="236.007" y2="308.042"/>
	</g>
	<g>
		<polyline fill="none" stroke="#010101" points="252.367,321.958 250.255,308.07 264.367,312.958 		"/>
		<line fill="none" stroke="#010101" x1="261.921" y1="321.404" x2="250.421" y2="307.904"/>
	</g>
	<polygon id="Mouse_Body" fill="#FFFFFF" stroke="#010101" points="288.539,261.554 244.062,323.098 199.589,261.554 
		199.589,113.775 244.062,88.098 288.539,113.775 	"/>
	<path id="ear_2" fill="#FFFFFF" stroke="#010101" d="M263.36,280c0,0,18.914,4.509,25.287,12.77
		c6.371,8.26,7.203,18.297,1.856,22.421c-5.344,4.122-14.842,0.769-21.213-7.491C262.917,299.439,263.36,280,263.36,280z"/>
	<path id="ear_1" fill="#FFFFFF" stroke="#010101" d="M229.946,283.145c0,0-4.509,18.915-12.771,25.287
		c-8.258,6.372-18.297,7.205-22.42,1.858c-4.123-5.344-0.771-14.842,7.49-21.213C210.505,282.705,229.946,283.145,229.946,283.145z"
		/>
	<path id="tail" fill="none" stroke="#010101" d="M243.507,88.098c0,0,11.552-19.924,0-35.556
		c-9.443-12.777-13.889-26.666-10-32.223c12.258-17.508,25,1.111,25,1.111"/>
</g>
<g>
	<g>
		<polyline fill="none" stroke="#010101" points="266.901,355.094 253.012,357.207 257.901,343.094 		"/>
		<line fill="none" stroke="#010101" x1="266.346" y1="345.54" x2="252.846" y2="357.041"/>
	</g>
	<g>
		<polyline fill="none" stroke="#010101" points="236.487,343.123 238.596,357.011 224.487,352.123 		"/>
		<line fill="none" stroke="#010101" x1="226.93" y1="343.677" x2="238.43" y2="357.177"/>
	</g>
	<polygon id="Mouse_Body_1_" fill="#FFFFFF" stroke="#010101" points="200.316,403.527 244.792,341.983 289.264,403.527 
		289.264,551.306 244.792,576.984 200.316,551.306 	"/>
	<path id="ear_2_1_" fill="#FFFFFF" stroke="#010101" d="M225.494,385.083c0,0-18.914-4.51-25.287-12.771
		c-6.371-8.26-7.203-18.297-1.856-22.42c5.344-4.122,14.843-0.77,21.214,7.49C225.934,365.643,225.494,385.083,225.494,385.083z"/>
	<path id="ear_1_1_" fill="#FFFFFF" stroke="#010101" d="M258.908,381.938c0,0,4.51-18.916,12.771-25.287
		c8.258-6.374,18.297-7.206,22.42-1.859c4.123,5.343,0.771,14.843-7.49,21.214C278.348,382.376,258.908,381.938,258.908,381.938z"/>
	<path id="tail_1_" fill="none" stroke="#010101" d="M245.346,576.984c0,0-11.552,19.924,0,35.557
		c9.442,12.777,13.889,26.666,10,32.223c-12.259,17.509-25-1.11-25-1.11"/>
</g>
<text transform="matrix(1 0 0 1 232.6665 193.502)" font-size="12">1\1\2</text>
<text transform="matrix(1 0 0 1 232.6665 222.3008)" font-size="12">FFP</text>
<text transform="matrix(1 0 0 1 228.3335 474.335)" font-size="12">1\1\1</text>
<text transform="matrix(1 0 0 1 228.3335 503.1348)" font-size="12">HFP</text>
<text transform="matrix(1 0 0 1 -6 641.834)" font-size="12">Gantry Front</text>
<text transform="matrix(1 0 0 1 -4.1665 43.502)" font-size="12">Gantry Rear</text>
<text transform="matrix(1 0 0 1 165.5 707.6689)" font-size="12">View from above gantry/table</text>
</svg>
