<?xml version="1.0" encoding="utf-8"?>

<!DOCTYPE svg PUBLIC "-//W3C//DTD SVG 1.1//EN" "http://www.w3.org/Graphics/SVG/1.1/DTD/svg11.dtd">
<svg version="1.1" id="Layer_1" xmlns="http://www.w3.org/2000/svg" xmlns:xlink="http://www.w3.org/1999/xlink" x="0px" y="0px"
	 width="502px" height="722px" viewBox="0 0 502 722" enable-background="new 0 0 502 722" xml:space="preserve">

<defs>
	<style type="text/css">
	text {
	  font-family: Helvetica, Verdana, ArialUnicodeMS, san-serif
	}
	</style>
</defs>

<g>
   <desc>
	PS 3.3 Part 3: Information Object Definitions
   </desc>
</g>

<g>
	<rect x="1" y="1" fill="#F5EED6" width="500" height="720"/>
	<g>
		
			<rect x="7.789" y="613.921" fill="#86B2D8" stroke="#010101" stroke-width="0.75" stroke-linecap="round" stroke-linejoin="round" stroke-miterlimit="1" width="128.777" height="18"/>
		
			<rect x="166.005" y="397.554" fill="#86B2D8" stroke="#010101" stroke-width="0.75" stroke-linecap="round" stroke-linejoin="round" stroke-miterlimit="1" width="83.994" height="17.998"/>
		
			<rect x="166.005" y="433.562" fill="#86B2D8" stroke="#010101" stroke-width="0.75" stroke-linecap="round" stroke-linejoin="round" stroke-miterlimit="1" width="83.994" height="18"/>
		
			<rect x="166.005" y="469.562" fill="#86B2D8" stroke="#010101" stroke-width="0.75" stroke-linecap="round" stroke-linejoin="round" stroke-miterlimit="1" width="83.994" height="18"/>
		
			<rect x="7.788" y="397.553" fill="#86B2D8" stroke="#010101" stroke-width="0.75" stroke-linecap="round" stroke-linejoin="round" stroke-miterlimit="1" width="128.779" height="18"/>
		
			<rect x="7.788" y="433.562" fill="#86B2D8" stroke="#010101" stroke-width="0.75" stroke-linecap="round" stroke-linejoin="round" stroke-miterlimit="1" width="128.779" height="18"/>
		
			<rect x="7.789" y="469.562" fill="#86B2D8" stroke="#010101" stroke-width="0.75" stroke-linecap="round" stroke-linejoin="round" stroke-miterlimit="1" width="128.777" height="18"/>
		
			<rect x="7.789" y="504.876" fill="#86B2D8" stroke="#010101" stroke-width="0.75" stroke-linecap="round" stroke-linejoin="round" stroke-miterlimit="1" width="128.777" height="18"/>
		
			<rect x="7.788" y="362.281" fill="#86B2D8" stroke="#010101" stroke-width="0.75" stroke-linecap="round" stroke-linejoin="round" stroke-miterlimit="1" width="128.779" height="18.001"/>
		<g>
			<text transform="matrix(1 0 0 1 165.2041 359.3457)" font-size="9">0-n</text>
		</g>
		<g>
			<text transform="matrix(1 0 0 1 165.2041 395.0801)" font-size="9">0-n</text>
		</g>
		<g>
			<text transform="matrix(1 0 0 1 165.2041 430.8145)" font-size="9">0-n</text>
		</g>
		<g>
			<text transform="matrix(1 0 0 1 165.2041 466.5488)" font-size="9">0-n</text>
		</g>
		
			<rect x="166.005" y="504.876" fill="#86B2D8" stroke="#010101" stroke-width="0.75" stroke-linecap="round" stroke-linejoin="round" stroke-miterlimit="1" width="83.994" height="18"/>
		<g>
			<text transform="matrix(1 0 0 1 165.2041 501.8633)" font-size="9">0-n</text>
		</g>
		<g>
			<text transform="matrix(1 0 0 1 123.2642 359.3457)" font-size="9">0-n</text>
		</g>
		<g>
			<text transform="matrix(1 0 0 1 123.2642 395.0801)" font-size="9">0-n</text>
		</g>
		<g>
			<text transform="matrix(1 0 0 1 123.2642 430.8145)" font-size="9">0-n</text>
		</g>
		<g>
			<text transform="matrix(1 0 0 1 123.2642 466.5488)" font-size="9">0-n</text>
		</g>
		<g>
			<text transform="matrix(1 0 0 1 123.2642 501.8633)" font-size="9">0-n</text>
		</g>
		
			<rect x="7.789" y="540.19" fill="#86B2D8" stroke="#010101" stroke-width="0.75" stroke-linecap="round" stroke-linejoin="round" stroke-miterlimit="1" width="128.777" height="18"/>
		<g>
			<text transform="matrix(1 0 0 1 123.2642 537.1777)" font-size="9">0-n</text>
		</g>
		
			<rect x="7.789" y="576.851" fill="#86B2D8" stroke="#010101" stroke-width="0.75" stroke-linecap="round" stroke-linejoin="round" stroke-miterlimit="1" width="128.777" height="18"/>
		<g>
			<text transform="matrix(1 0 0 1 123.2642 574.2422)" font-size="9">0-n</text>
		</g>
		
			<rect x="166.005" y="540.19" fill="#86B2D8" stroke="#010101" stroke-width="0.75" stroke-linecap="round" stroke-linejoin="round" stroke-miterlimit="1" width="83.994" height="18"/>
		<g>
			<text transform="matrix(1 0 0 1 165.2041 537.1787)" font-size="9">0-n</text>
		</g>
		
			<rect x="166.005" y="576.851" fill="#86B2D8" stroke="#010101" stroke-width="0.75" stroke-linecap="round" stroke-linejoin="round" stroke-miterlimit="1" width="83.994" height="18"/>
		<g>
			<text transform="matrix(1 0 0 1 165.2041 573.8389)" font-size="9">0-n</text>
		</g>
		
			<rect x="166.005" y="362.281" fill="#86B2D8" stroke="#010101" stroke-width="0.75" stroke-linecap="round" stroke-linejoin="round" stroke-miterlimit="1" width="83.994" height="18.001"/>
		
			<rect x="7.788" y="327.189" fill="#86B2D8" stroke="#010101" stroke-width="0.75" stroke-linecap="round" stroke-linejoin="round" stroke-miterlimit="1" width="128.779" height="18.001"/>
		<g>
			<text transform="matrix(1 0 0 1 165.2041 324.2539)" font-size="9">0-n</text>
		</g>
		<g>
			<text transform="matrix(1 0 0 1 123.2642 324.2539)" font-size="9">0-n</text>
		</g>
		
			<rect x="166.005" y="327.189" fill="#86B2D8" stroke="#010101" stroke-width="0.75" stroke-linecap="round" stroke-linejoin="round" stroke-miterlimit="1" width="83.994" height="18.001"/>
		<g>
			<text transform="matrix(1 0 0 1 123.2642 611.3184)" font-size="9">0-n</text>
		</g>
		
			<rect x="7.789" y="650.985" fill="#86B2D8" stroke="#010101" stroke-width="0.75" stroke-linecap="round" stroke-linejoin="round" stroke-miterlimit="1" width="128.777" height="18"/>
		<g>
			<text transform="matrix(1 0 0 1 123.2642 611.3125)" font-size="9">0-n</text>
		</g>
		
			<rect x="166.005" y="613.921" fill="#86B2D8" stroke="#010101" stroke-width="0.75" stroke-linecap="round" stroke-linejoin="round" stroke-miterlimit="1" width="83.994" height="18"/>
		<g>
			<text transform="matrix(1 0 0 1 165.2041 610.9092)" font-size="9">0-n</text>
		</g>
		<g>
			<text transform="matrix(1 0 0 1 123.2642 648.3887)" font-size="9">0-n</text>
		</g>
		<g>
			<g>
				<polyline fill="none" stroke="#005695" stroke-width="2" stroke-miterlimit="1" points="143.692,405.96 151.023,405.96 
					151.023,371.351 				"/>
				<g>
					<polygon fill="#005695" points="145.277,408.284 136.604,405.96 145.277,403.636 					"/>
				</g>
			</g>
		</g>
		<g>
			<g>
				<polyline fill="none" stroke="#005695" stroke-width="2" stroke-miterlimit="1" points="159.058,405.96 150.998,405.96 
					150.998,371.351 				"/>
				<g>
					<polygon fill="#005695" points="157.473,403.636 166.146,405.96 157.473,408.284 					"/>
				</g>
			</g>
		</g>
		<g>
			<g>
				<polyline fill="none" stroke="#005695" stroke-width="2" stroke-miterlimit="1" points="143.692,371.3 151.023,371.3 
					151.023,336.69 				"/>
				<g>
					<polygon fill="#005695" points="145.277,373.624 136.604,371.3 145.277,368.976 					"/>
				</g>
			</g>
		</g>
		<g>
			<g>
				<polyline fill="none" stroke="#005695" stroke-width="2" stroke-miterlimit="1" points="159.058,371.3 150.998,371.3 
					150.998,336.69 				"/>
				<g>
					<polygon fill="#005695" points="157.473,368.976 166.146,371.3 157.473,373.624 					"/>
				</g>
			</g>
		</g>
		<g>
			<g>
				<polyline fill="none" stroke="#005695" stroke-width="2" stroke-miterlimit="1" points="143.692,441.95 151.023,441.95 
					151.023,405.884 				"/>
				<g>
					<polygon fill="#005695" points="145.277,444.274 136.604,441.95 145.277,439.626 					"/>
				</g>
			</g>
		</g>
		<g>
			<g>
				<polyline fill="none" stroke="#005695" stroke-width="2" stroke-miterlimit="1" points="159.058,441.95 150.998,441.95 
					150.998,405.884 				"/>
				<g>
					<polygon fill="#005695" points="157.473,439.626 166.146,441.95 157.473,444.274 					"/>
				</g>
			</g>
		</g>
		<g>
			<g>
				<polyline fill="none" stroke="#005695" stroke-width="2" stroke-miterlimit="1" points="143.692,477.96 151.023,477.96 
					151.023,441.894 				"/>
				<g>
					<polygon fill="#005695" points="145.277,480.284 136.604,477.96 145.277,475.636 					"/>
				</g>
			</g>
		</g>
		<g>
			<g>
				<polyline fill="none" stroke="#005695" stroke-width="2" stroke-miterlimit="1" points="159.058,477.96 150.998,477.96 
					150.998,441.894 				"/>
				<g>
					<polygon fill="#005695" points="157.473,475.636 166.146,477.96 157.473,480.284 					"/>
				</g>
			</g>
		</g>
		<g>
			<g>
				<polyline fill="none" stroke="#005695" stroke-width="2" stroke-miterlimit="1" points="143.692,513.97 151.023,513.97 
					151.023,477.903 				"/>
				<g>
					<polygon fill="#005695" points="145.277,516.294 136.604,513.97 145.277,511.646 					"/>
				</g>
			</g>
		</g>
		<g>
			<g>
				<polyline fill="none" stroke="#005695" stroke-width="2" stroke-miterlimit="1" points="159.058,513.97 150.998,513.97 
					150.998,477.903 				"/>
				<g>
					<polygon fill="#005695" points="157.473,511.646 166.146,513.97 157.473,516.294 					"/>
				</g>
			</g>
		</g>
		<g>
			<g>
				<polyline fill="none" stroke="#005695" stroke-width="2" stroke-miterlimit="1" points="143.692,549.979 151.023,549.979 
					151.023,513.913 				"/>
				<g>
					<polygon fill="#005695" points="145.277,552.304 136.604,549.979 145.277,547.655 					"/>
				</g>
			</g>
		</g>
		<g>
			<g>
				<polyline fill="none" stroke="#005695" stroke-width="2" stroke-miterlimit="1" points="159.058,549.979 150.998,549.979 
					150.998,513.913 				"/>
				<g>
					<polygon fill="#005695" points="157.473,547.655 166.146,549.979 157.473,552.304 					"/>
				</g>
			</g>
		</g>
		<g>
			<g>
				<polyline fill="none" stroke="#005695" stroke-width="2" stroke-miterlimit="1" points="159.058,586.351 150.998,586.351 
					150.998,550.14 				"/>
				<g>
					<polygon fill="#005695" points="157.473,584.026 166.146,586.351 157.473,588.675 					"/>
				</g>
			</g>
		</g>
		<g>
			<g>
				<polyline fill="none" stroke="#005695" stroke-width="2" stroke-miterlimit="1" points="143.692,586.351 151.023,586.351 
					151.023,550.196 				"/>
				<g>
					<polygon fill="#005695" points="145.277,588.675 136.604,586.351 145.277,584.026 					"/>
				</g>
			</g>
		</g>
		<g>
			<g>
				<polyline fill="none" stroke="#005695" stroke-width="2" stroke-miterlimit="1" points="143.692,336.303 151.023,336.303 
					151.023,310.777 				"/>
				<g>
					<polygon fill="#005695" points="145.277,338.627 136.604,336.303 145.277,333.979 					"/>
				</g>
			</g>
		</g>
		<g>
			<g>
				<polyline fill="none" stroke="#005695" stroke-width="2" stroke-miterlimit="1" points="159.058,336.303 150.998,336.303 
					150.998,310.777 				"/>
				<g>
					<polygon fill="#005695" points="157.473,333.979 166.146,336.303 157.473,338.627 					"/>
				</g>
			</g>
		</g>
		<g>
			<g>
				<polyline fill="none" stroke="#005695" stroke-width="2" stroke-miterlimit="1" points="143.692,623.427 151.023,623.427 
					151.023,586.403 				"/>
				<g>
					<polygon fill="#005695" points="145.277,625.751 136.604,623.427 145.277,621.103 					"/>
				</g>
			</g>
		</g>
		<g>
			<g>
				<polyline fill="none" stroke="#005695" stroke-width="2" stroke-miterlimit="1" points="159.058,623.421 150.998,623.421 
					150.998,586.339 				"/>
				<g>
					<polygon fill="#005695" points="157.473,621.097 166.146,623.421 157.473,625.745 					"/>
				</g>
			</g>
		</g>
		<g>
			<g>
				<polyline fill="none" stroke="#005695" stroke-width="2" stroke-miterlimit="1" points="143.692,660.497 151.023,660.497 
					151.023,623.374 				"/>
				<g>
					<polygon fill="#005695" points="145.277,662.821 136.604,660.497 145.277,658.173 					"/>
				</g>
			</g>
		</g>
		<g>
			<text transform="matrix(1 0 0 1 33.9434 480.7871)" font-size="8">Real-World Value DR</text>
		</g>
		<g>
			<text transform="matrix(1 0 0 1 21.707 444.7871)" font-size="8">Encapsulated Document DR</text>
		</g>
		<g>
			<text transform="matrix(1 0 0 1 35.502 516.1016)" font-size="8">RT Structure Set DR</text>
		</g>
		<g>
			<text transform="matrix(1 0 0 1 26.6113 551.416)" font-size="8">RT Treatment Record DR</text>
		</g>
		<g>
			<text transform="matrix(1 0 0 1 40.834 588.0762)" font-size="8">Measurement DR</text>
		</g>
		<g>
			<text transform="matrix(1 0 0 1 41.2754 625.1465)" font-size="8">Surface Scan DR</text>
		</g>
		<g>
			<text transform="matrix(1 0 0 1 41.7227 662.2109)" font-size="8">Tractography DR</text>
		</g>
		<g>
			<text transform="matrix(1 0 0 1 177.1348 373.5068)" font-size="8">Fiducials DR</text>
		</g>
		<g>
			<text transform="matrix(1 0 0 1 181.8008 408.7773)" font-size="8">Image DR</text>
		</g>
		<g>
			<text transform="matrix(1 0 0 1 175.3555 444.7871)" font-size="8">Raw Data DR</text>
		</g>
		<g>
			<text transform="matrix(1 0 0 1 41.0547 373.5078)" font-size="8">Spectroscopy DR</text>
		</g>
		<g>
			<text transform="matrix(1 0 0 1 42.8301 338.415)" font-size="8">Presentation DR</text>
		</g>
		<g>
			<text transform="matrix(1 0 0 1 174.6934 480.7871)" font-size="8">Waveform DR</text>
		</g>
		<g>
			<text transform="matrix(1 0 0 1 168.0195 516.1016)" font-size="8">SR Document DR</text>
		</g>
		<g>
			<text transform="matrix(1 0 0 1 177.1367 551.416)" font-size="8">RT Dose DR</text>
		</g>
		<g>
			<text transform="matrix(1 0 0 1 178.4688 588.0762)" font-size="8">RT Plan DR</text>
		</g>
		<g>
			<text transform="matrix(1 0 0 1 184.9121 625.1465)" font-size="8">Plan DR</text>
		</g>
		<g>
			<text transform="matrix(1 0 0 1 171.5742 338.416)" font-size="8">Registration DR</text>
		</g>
		<g>
			<text transform="matrix(1 0 0 1 42.6152 408.7773)" font-size="8">Stereometric DR</text>
		</g>
		<g>
			<rect x="277.836" y="599.374" fill="#FFFFFF" stroke="#000000" stroke-miterlimit="1" width="198.129" height="106.682"/>
			<g>
				<g>
					
						<line fill="none" stroke="#005695" stroke-width="2" stroke-linecap="round" stroke-miterlimit="1" x1="333.564" y1="625.438" x2="333.564" y2="632.965"/>
					<g>
						<polygon fill="#005695" points="331.24,631.38 333.564,640.053 335.889,631.38 						"/>
					</g>
				</g>
			</g>
			
				<rect x="293.062" y="610.712" fill="#86B2D8" stroke="#010101" stroke-width="0.75" stroke-linecap="round" stroke-linejoin="round" stroke-miterlimit="1" width="81" height="14.727"/>
			<g>
				<text transform="matrix(1 0 0 1 300.542 620.7637)" font-size="9">Higher Level DR</text>
			</g>
			<g>
				<g>
					
						<line fill="none" stroke="#005695" stroke-width="2" stroke-linecap="round" stroke-miterlimit="1" x1="333.554" y1="666.021" x2="333.554" y2="659.021"/>
					<g>
						<polygon fill="#005695" points="335.878,664.437 333.554,673.109 331.229,664.437 						"/>
					</g>
				</g>
			</g>
			
				<polygon fill="#CCDEF0" stroke="#010101" stroke-width="0.75" stroke-linecap="round" stroke-linejoin="round" stroke-miterlimit="1" points="
				288.56,649.761 333.492,640.899 378.56,649.888 378.56,649.907 333.492,658.899 			"/>
			<g>
				<text transform="matrix(1 0 0 1 312.2949 651.9062)" font-size="9">references</text>
			</g>
			
				<rect x="293.062" y="673.983" fill="#86B2D8" stroke="#010101" stroke-width="0.75" stroke-linecap="round" stroke-linejoin="round" stroke-miterlimit="1" width="81" height="14.727"/>
			<g>
				<text transform="matrix(1 0 0 1 301.542 684.0342)" font-size="9">Lower Level DR</text>
			</g>
			<g>
				<rect x="390.631" y="610.708" fill="none" width="77.203" height="87.334"/>
				<text transform="matrix(1 0 0 1 390.627 617.1055)"><tspan x="0" y="0" font-size="9">The Higher-Level</tspan><tspan x="0" y="10.8" font-size="9">Directory Record</tspan><tspan x="0" y="21.6" font-size="9">references a</tspan><tspan x="0" y="32.4" font-size="9">Lower- Level</tspan><tspan x="0" y="43.2" font-size="9">Directory Entity</tspan><tspan x="0" y="54" font-size="9">that includes the</tspan><tspan x="0" y="64.8" font-size="9">Lower-Level</tspan><tspan x="0" y="75.6" font-size="9">Directory Record</tspan></text>
			</g>
		</g>
		<g>
			<g>
				
					<line fill="none" stroke="#005695" stroke-width="2" stroke-linecap="round" stroke-miterlimit="1" x1="151.124" y1="115.408" x2="151.124" y2="132.071"/>
				<g>
					<polygon fill="#005695" points="148.8,130.485 151.124,139.158 153.448,130.485 					"/>
				</g>
			</g>
		</g>
		<g>
			<g>
				<polyline fill="none" stroke="#005695" stroke-width="2" stroke-linecap="round" stroke-miterlimit="1" points="237.658,91.339 
					237.658,85.933 151.53,85.933 				"/>
				<g>
					<polygon fill="#005695" points="239.982,89.754 237.658,98.427 235.334,89.754 					"/>
				</g>
			</g>
		</g>
		<g>
			<g>
				
					<line fill="none" stroke="#005695" stroke-width="2" stroke-linecap="round" stroke-miterlimit="1" x1="151.078" y1="91.339" x2="151.078" y2="85.933"/>
				<g>
					<polygon fill="#005695" points="153.402,89.754 151.078,98.427 148.754,89.754 					"/>
				</g>
			</g>
		</g>
		
			<rect x="98.365" y="15.944" fill="#86B2D8" stroke="#010101" stroke-width="0.75" stroke-linecap="round" stroke-linejoin="round" stroke-miterlimit="1" width="105.509" height="16.232"/>
		<g>
			<text transform="matrix(1 0 0 1 114.437 27.022)" font-size="8">Root Directory Entity</text>
		</g>
		<g>
			<g>
				
					<line fill="none" stroke="#005695" stroke-width="2" stroke-linecap="round" stroke-miterlimit="1" x1="151.188" y1="32.231" x2="151.137" y2="49.017"/>
				<g>
					<polygon fill="#005695" points="148.817,47.425 151.115,56.104 153.466,47.439 					"/>
				</g>
			</g>
		</g>
		
			<rect x="113.246" y="99.177" fill="#86B2D8" stroke="#010101" stroke-width="0.75" stroke-linecap="round" stroke-linejoin="round" stroke-miterlimit="1" width="75.745" height="16.231"/>
		<g>
			<text transform="matrix(1 0 0 1 131.7744 110.2563)" font-size="8">Patient DR</text>
		</g>
		
			<rect x="204.596" y="99.408" fill="#86B2D8" stroke="#010101" stroke-width="0.75" stroke-linecap="round" stroke-linejoin="round" stroke-miterlimit="1" width="66.002" height="16"/>
		<g>
			<text transform="matrix(1 0 0 1 207.5728 110.2563)" font-size="8">Color Palette DR</text>
		</g>
		<g>
			<text transform="matrix(1 0 0 1 177.9941 139.6357)" font-size="8">1</text>
		</g>
		
			<polygon fill="#CCDEF0" stroke="#010101" stroke-width="0.75" stroke-linecap="round" stroke-linejoin="round" stroke-miterlimit="1" points="
			118.555,64.096 150.97,56.104 183.482,64.212 183.482,64.23 150.97,72.336 		"/>
		<g>
			<text transform="matrix(1 0 0 1 136.2109 66.4409)" font-size="8">includes</text>
		</g>
		<g>
			<text transform="matrix(1 0 0 1 179.001 61.4429)" font-size="8">1</text>
		</g>
		<g>
			<text transform="matrix(1 0 0 1 155.9243 96.4888)" font-size="8">0-n</text>
		</g>
		<g>
			<text transform="matrix(1 0 0 1 242.2729 96.4888)" font-size="8">0-n</text>
		</g>
		<g>
			<g>
				<polyline fill="none" stroke="#005695" stroke-width="2" stroke-linecap="round" stroke-miterlimit="1" points="241.978,174.06 
					241.978,168.326 151.17,168.326 151.17,155.246 				"/>
				<g>
					<polygon fill="#005695" points="244.302,172.475 241.978,181.147 239.653,172.475 					"/>
				</g>
			</g>
		</g>
		<g>
			<g>
				
					<line fill="none" stroke="#005695" stroke-width="2" stroke-linecap="round" stroke-miterlimit="1" x1="151.078" y1="174.06" x2="151.078" y2="168.326"/>
				<g>
					<polygon fill="#005695" points="153.402,172.475 151.078,181.147 148.754,172.475 					"/>
				</g>
			</g>
		</g>
		
			<rect x="201.915" y="181.803" fill="#86B2D8" stroke="#010101" stroke-width="0.75" stroke-linecap="round" stroke-linejoin="round" stroke-miterlimit="1" width="80.003" height="16"/>
		<g>
			<text transform="matrix(1 0 0 1 209.0059 192.6494)" font-size="8">HL7 Struc Doc DR</text>
		</g>
		<g>
			<text transform="matrix(1 0 0 1 155.9243 178.8818)" font-size="8">1-n</text>
		</g>
		<g>
			<text transform="matrix(1 0 0 1 246.5928 178.8818)" font-size="8">0-n</text>
		</g>
		<g>
			<g>
				<polyline fill="none" stroke="#005695" stroke-width="2" stroke-linecap="round" stroke-miterlimit="1" points="314.062,91.339 
					314.062,85.933 237.658,85.933 				"/>
				<g>
					<polygon fill="#005695" points="316.387,89.754 314.062,98.427 311.738,89.754 					"/>
				</g>
			</g>
		</g>
		
			<rect x="285.641" y="99.408" fill="#86B2D8" stroke="#010101" stroke-width="0.75" stroke-linecap="round" stroke-linejoin="round" stroke-miterlimit="1" width="56.001" height="16"/>
		<g>
			<text transform="matrix(1 0 0 1 288.9268 106.3267)"><tspan x="0" y="0" font-size="7">Generic Implant</tspan><tspan x="4.088" y="5.995" font-size="7">Template DR</tspan></text>
		</g>
		<g>
			<text transform="matrix(1 0 0 1 318.3203 96.4888)" font-size="8">0-n</text>
		</g>
		
			<rect x="20.247" y="99.408" fill="#86B2D8" stroke="#010101" stroke-width="0.75" stroke-linecap="round" stroke-linejoin="round" stroke-miterlimit="1" width="80.002" height="16"/>
		<g>
			<text transform="matrix(1 0 0 1 22.6621 110.2563)" font-size="8">Hanging Protocol DR</text>
		</g>
		<g>
			<text transform="matrix(1 0 0 1 64.9248 96.4888)" font-size="8">0-n</text>
		</g>
		<g>
			<g>
				<polyline fill="none" stroke="#005695" stroke-width="2" stroke-linecap="round" stroke-miterlimit="1" points="60.31,91.339 
					60.31,85.933 151.116,85.933 151.116,72.852 				"/>
				<g>
					<polygon fill="#005695" points="62.634,89.754 60.31,98.427 57.985,89.754 					"/>
				</g>
			</g>
		</g>
		<g>
			<g>
				<polyline fill="none" stroke="#005695" stroke-width="2" stroke-linecap="round" stroke-miterlimit="1" points="386.867,91.339 
					386.867,85.933 313.702,85.933 				"/>
				<g>
					<polygon fill="#005695" points="389.191,89.754 386.867,98.427 384.543,89.754 					"/>
				</g>
			</g>
		</g>
		
			<rect x="356.807" y="99.408" fill="#86B2D8" stroke="#010101" stroke-width="0.75" stroke-linecap="round" stroke-linejoin="round" stroke-miterlimit="1" width="60" height="16"/>
		<g>
			<text transform="matrix(1 0 0 1 359.7588 106.3267)"><tspan x="0" y="0" font-size="7">Implant Template</tspan><tspan x="11.285" y="5.995" font-size="7">Group DR</tspan></text>
		</g>
		<g>
			<text transform="matrix(1 0 0 1 391.4873 96.4888)" font-size="8">0-n</text>
		</g>
		<g>
			<g>
				<polyline fill="none" stroke="#005695" stroke-width="2" stroke-linecap="round" stroke-miterlimit="1" points="463.271,91.339 
					463.271,85.933 386.867,85.933 				"/>
				<g>
					<polygon fill="#005695" points="465.596,89.754 463.271,98.427 460.947,89.754 					"/>
				</g>
			</g>
		</g>
		
			<rect x="432.211" y="99.408" fill="#86B2D8" stroke="#010101" stroke-width="0.75" stroke-linecap="round" stroke-linejoin="round" stroke-miterlimit="1" width="62" height="16"/>
		<g>
			<text transform="matrix(1 0 0 1 435.5859 106.3267)"><tspan x="0" y="0" font-size="7">Implant Assembly</tspan><tspan x="7.002" y="5.995" font-size="7">Template DR</tspan></text>
		</g>
		<g>
			<text transform="matrix(1 0 0 1 467.8945 96.4888)" font-size="8">0-n</text>
		</g>
		
			<polygon fill="#CCDEF0" stroke="#010101" stroke-width="0.75" stroke-linecap="round" stroke-linejoin="round" stroke-miterlimit="1" points="
			110.427,302.504 150.944,294.514 191.586,302.62 191.586,302.638 150.944,310.744 		"/>
		<g>
			<text transform="matrix(1 0 0 1 132.106 304.8472)" font-size="8">references</text>
		</g>
		<g>
			<g>
				
					<line fill="none" stroke="#005695" stroke-width="2" stroke-linecap="round" stroke-miterlimit="1" x1="151.075" y1="279.941" x2="151.075" y2="287.426"/>
				<g>
					<polygon fill="#005695" points="148.751,285.841 151.075,294.514 153.399,285.841 					"/>
				</g>
			</g>
		</g>
		<g>
			<text transform="matrix(1 0 0 1 170.4976 294.9976)" font-size="8">1</text>
		</g>
		
			<polygon fill="#CCDEF0" stroke="#010101" stroke-width="0.75" stroke-linecap="round" stroke-linejoin="round" stroke-miterlimit="1" points="
			118.722,147.149 151.136,139.158 183.646,147.265 183.646,147.284 151.136,155.391 		"/>
		<g>
			<text transform="matrix(1 0 0 1 132.2856 149.4854)" font-size="8">references</text>
		</g>
		<g>
			<g>
				
					<line fill="none" stroke="#005695" stroke-width="2" stroke-linecap="round" stroke-miterlimit="1" x1="151.124" y1="197.768" x2="151.124" y2="214.431"/>
				<g>
					<polygon fill="#005695" points="148.8,212.846 151.124,221.519 153.448,212.846 					"/>
				</g>
			</g>
		</g>
		<g>
			<text transform="matrix(1 0 0 1 179.1665 221.9961)" font-size="8">1</text>
		</g>
		<g>
			<g>
				
					<line fill="none" stroke="#005695" stroke-width="2" stroke-linecap="round" stroke-miterlimit="1" x1="151.078" y1="237.641" x2="151.078" y2="256.843"/>
				<g>
					<polygon fill="#005695" points="148.754,255.258 151.078,263.931 153.402,255.258 					"/>
				</g>
			</g>
		</g>
		<g>
			<text transform="matrix(1 0 0 1 172.001 240.502)" font-size="8">0-n</text>
		</g>
		
			<polygon fill="#CCDEF0" stroke="#010101" stroke-width="0.75" stroke-linecap="round" stroke-linejoin="round" stroke-miterlimit="1" points="
			118.722,229.51 151.136,221.519 183.646,229.625 183.646,229.644 151.136,237.749 		"/>
		<g>
			<text transform="matrix(1 0 0 1 132.2856 231.8457)" font-size="8">references</text>
		</g>
		
			<rect x="113.246" y="181.57" fill="#86B2D8" stroke="#010101" stroke-width="0.75" stroke-linecap="round" stroke-linejoin="round" stroke-miterlimit="1" width="75.745" height="16.232"/>
		<g>
			<text transform="matrix(1 0 0 1 133.999 192.6494)" font-size="8">Study DR</text>
		</g>
		
			<rect x="113.246" y="263.931" fill="#86B2D8" stroke="#010101" stroke-width="0.75" stroke-linecap="round" stroke-linejoin="round" stroke-miterlimit="1" width="75.745" height="16.231"/>
		<g>
			<text transform="matrix(1 0 0 1 132.8896 275.0098)" font-size="8">Series DR</text>
		</g>
	</g>
</g>
</svg>
