<?xml version="1.0" encoding="utf-8"?>

<!DOCTYPE svg PUBLIC "-//W3C//DTD SVG 1.1//EN" "http://www.w3.org/Graphics/SVG/1.1/DTD/svg11.dtd">
<svg version="1.1" id="Layer_1" xmlns="http://www.w3.org/2000/svg" xmlns:xlink="http://www.w3.org/1999/xlink" x="0px" y="0px"
	 width="777px" height="302px" viewBox="0 0 777 302" enable-background="new 0 0 777 302" xml:space="preserve">

<defs>
	<style type="text/css">
	text {
	  font-family: Helvetica, Verdana, ArialUnicodeMS, san-serif
	}
	</style>
</defs>

<g>
   <desc>
	PS 3.3 Information Object Definitions
   </desc>
</g>

<g>
	<rect x="1" y="1" fill="#F5EED6" width="775" height="300"/>
	<g>
		<g>
			<polygon fill="#EDF3F9" points="470.617,164.244 470.617,234.059 16.396,234.059 16.396,24.044 585.729,24.044 585.729,164.244 
							"/>
			<g>
				<polyline fill="none" stroke="#939598" stroke-miterlimit="1" points="472.617,164.244 470.617,164.244 470.617,166.244 				"/>
				
					<line fill="none" stroke="#939598" stroke-miterlimit="1" stroke-dasharray="3.8714,3.8714" x1="470.617" y1="170.115" x2="470.617" y2="230.123"/>
				<polyline fill="none" stroke="#939598" stroke-miterlimit="1" points="470.617,232.059 470.617,234.059 468.617,234.059 				"/>
				
					<line fill="none" stroke="#939598" stroke-miterlimit="1" stroke-dasharray="3.9843,3.9843" x1="464.633" y1="234.059" x2="20.388" y2="234.059"/>
				<polyline fill="none" stroke="#939598" stroke-miterlimit="1" points="18.396,234.059 16.396,234.059 16.396,232.059 				"/>
				
					<line fill="none" stroke="#939598" stroke-miterlimit="1" stroke-dasharray="4.0395,4.0395" x1="16.396" y1="228.02" x2="16.396" y2="28.064"/>
				<polyline fill="none" stroke="#939598" stroke-miterlimit="1" points="16.396,26.044 16.396,24.044 18.396,24.044 				"/>
				
					<line fill="none" stroke="#939598" stroke-miterlimit="1" stroke-dasharray="4.0095,4.0095" x1="22.405" y1="24.044" x2="581.725" y2="24.044"/>
				<polyline fill="none" stroke="#939598" stroke-miterlimit="1" points="583.729,24.044 585.729,24.044 585.729,26.044 				"/>
				
					<line fill="none" stroke="#939598" stroke-miterlimit="1" stroke-dasharray="3.8914,3.8914" x1="585.729" y1="29.936" x2="585.729" y2="160.299"/>
				<polyline fill="none" stroke="#939598" stroke-miterlimit="1" points="585.729,162.244 585.729,164.244 583.729,164.244 				"/>
				
					<line fill="none" stroke="#939598" stroke-miterlimit="1" stroke-dasharray="4.1153,4.1153" x1="579.614" y1="164.244" x2="474.675" y2="164.244"/>
			</g>
		</g>
		<g>
			<g>
				<line fill="none" stroke="#005695" stroke-miterlimit="1" x1="221.851" y1="169.334" x2="250.307" y2="169.334"/>
				<g>
					<polygon fill="#005695" points="249.514,170.496 253.851,169.334 249.514,168.172 					"/>
				</g>
			</g>
		</g>
		<g>
			<path fill="#CCDEF0" d="M108.761,172.668c0,2.762,2.239,5,5,5h103.706c2.761,0,5-2.238,5-5v-7c0-2.762-2.239-5-5-5H113.761
				c-2.761,0-5,2.238-5,5V172.668z"/>
			<path fill="none" stroke="#005695" stroke-miterlimit="1" d="M108.761,172.668c0,2.762,2.239,5,5,5h103.706c2.761,0,5-2.238,5-5
				v-7c0-2.762-2.239-5-5-5H113.761c-2.761,0-5,2.238-5,5V172.668z"/>
		</g>
		<g>
			<text transform="matrix(1 0 0 1 225.9297 165.6035)" font-size="8">0-n</text>
		</g>
		
			<rect x="41.77" y="33.651" fill="#86B2D8" stroke="#FFF200" stroke-width="2" stroke-linecap="round" stroke-linejoin="round" stroke-miterlimit="1" width="100" height="22.5"/>
		<g>
			<text transform="matrix(1 0 0 1 47.752 43.6538)"><tspan x="0" y="0" font-size="8">Opth OCT Enface Image</tspan><tspan x="19.34" y="6.933" font-size="8">SOP Instance</tspan></text>
		</g>
		<g>
			<g>
				<line fill="none" stroke="#005695" stroke-miterlimit="1" x1="221.851" y1="74.858" x2="250.307" y2="74.858"/>
				<g>
					<polygon fill="#005695" points="249.514,76.02 253.851,74.858 249.514,73.696 					"/>
				</g>
			</g>
		</g>
		<g>
			<g>
				<polyline fill="none" stroke="#005695" stroke-miterlimit="1" points="91.746,57.255 91.746,74.858 103.496,74.858 				"/>
				<g>
					<polygon fill="#005695" points="102.704,76.02 107.04,74.858 102.704,73.696 					"/>
				</g>
			</g>
		</g>
		<g>
			<g>
				<polyline fill="none" stroke="#005695" stroke-miterlimit="1" points="91.745,75.093 91.745,143.083 103.895,143.083 				"/>
				<g>
					<polygon fill="#005695" points="103.102,144.246 107.438,143.083 103.102,141.921 					"/>
				</g>
			</g>
		</g>
		<g>
			<g>
				<polyline fill="none" stroke="#005695" stroke-miterlimit="1" points="91.746,143.25 91.746,169.334 104.201,169.334 				"/>
				<g>
					<polygon fill="#005695" points="103.409,170.496 107.745,169.334 103.409,168.172 					"/>
				</g>
			</g>
		</g>
		<g>
			<path fill="#CCDEF0" d="M108.761,78.218c0,2.761,2.239,5,5,5h103.706c2.761,0,5-2.239,5-5v-7c0-2.761-2.239-5-5-5H113.761
				c-2.761,0-5,2.239-5,5V78.218z"/>
			<path fill="none" stroke="#005695" stroke-miterlimit="1" d="M108.761,78.218c0,2.761,2.239,5,5,5h103.706c2.761,0,5-2.239,5-5
				v-7c0-2.761-2.239-5-5-5H113.761c-2.761,0-5,2.239-5,5V78.218z"/>
		</g>
		<text transform="matrix(1 0 0 1 115.1846 72.7891)"><tspan x="0" y="0" font-size="6">References Referenced Surface Mesh</tspan><tspan x="0" y="7.2" font-size="6">Identification Sequence</tspan></text>
		<text transform="matrix(1 0 0 1 115.1846 170.832)" font-size="6">References Source Image Sequence</text>
		<g>
			<path fill="#CCDEF0" d="M108.761,146.304c0,2.761,2.239,5,5,5h103.706c2.761,0,5-2.239,5-5v-7c0-2.761-2.239-5-5-5H113.761
				c-2.761,0-5,2.239-5,5V146.304z"/>
			<path fill="none" stroke="#005695" stroke-miterlimit="1" d="M108.761,146.304c0,2.761,2.239,5,5,5h103.706c2.761,0,5-2.239,5-5
				v-7c0-2.761-2.239-5-5-5H113.761c-2.761,0-5,2.239-5,5V146.304z"/>
		</g>
		<g>
			<text transform="matrix(1 0 0 1 225.9297 139.5425)" font-size="8">1-n</text>
		</g>
		<text transform="matrix(1 0 0 1 115.1846 144.4717)" font-size="6">References Source Image Sequence</text>
		<g>
			<text transform="matrix(1 0 0 1 225.9297 71.3457)" font-size="8">1-n</text>
		</g>
		<g>
			<g>
				<line fill="none" stroke="#005695" stroke-miterlimit="1" x1="426.949" y1="253.805" x2="671.798" y2="253.805"/>
				<g>
					<polygon fill="#005695" points="671.006,254.967 675.342,253.805 671.006,252.643 					"/>
				</g>
			</g>
		</g>
		<g>
			<text transform="matrix(1 0 0 1 430.7188 250.4385)" font-size="8">0-1</text>
		</g>
		
			<rect x="676.608" y="172.562" fill="#86B2D8" stroke="#ED1C24" stroke-width="2" stroke-linecap="round" stroke-linejoin="round" stroke-miterlimit="1" width="84" height="22.5"/>
		<g>
			<text transform="matrix(1 0 0 1 701.043 182.5625)"><tspan x="0" y="0" font-size="8">Raw Data</tspan><tspan x="-7.117" y="6.933" font-size="8">SOP Instance</tspan></text>
		</g>
		
			<rect x="676.608" y="242.553" fill="#86B2D8" stroke="#F7941E" stroke-width="2" stroke-linecap="round" stroke-linejoin="round" stroke-miterlimit="1" width="84" height="22.5"/>
		<g>
			<text transform="matrix(1 0 0 1 700.5977 252.5498)"><tspan x="0" y="0" font-size="8">OP Image</tspan><tspan x="-6.672" y="6.933" font-size="8">SOP Instance</tspan></text>
		</g>
		<g>
			<g>
				<path fill="#CCDEF0" d="M313.234,216.545c0,2.762,2.239,5,5,5h103.707c2.762,0,5-2.238,5-5v-7c0-2.762-2.238-5-5-5H318.234
					c-2.761,0-5,2.238-5,5V216.545z"/>
				<path fill="none" stroke="#005695" stroke-miterlimit="1" d="M313.234,216.545c0,2.762,2.239,5,5,5h103.707c2.762,0,5-2.238,5-5
					v-7c0-2.762-2.238-5-5-5H318.234c-2.761,0-5,2.238-5,5V216.545z"/>
			</g>
			<text transform="matrix(1 0 0 1 320.4912 211.1104)"><tspan x="0" y="0" font-size="6">References Source Image Sequence</tspan><tspan x="0" y="7.2" font-size="6">in the Derived Image Sequence</tspan></text>
		</g>
		<g>
			<g>
				<path fill="#CCDEF0" d="M312.94,257.514c0,2.762,2.239,5,5,5h104.001c2.762,0,5-2.238,5-5v-7c0-2.762-2.238-5-5-5H317.94
					c-2.761,0-5,2.238-5,5V257.514z"/>
				<path fill="none" stroke="#005695" stroke-miterlimit="1" d="M312.94,257.514c0,2.762,2.239,5,5,5h104.001c2.762,0,5-2.238,5-5
					v-7c0-2.762-2.238-5-5-5H317.94c-2.761,0-5,2.238-5,5V257.514z"/>
			</g>
			<text transform="matrix(1 0 0 1 320.4907 252.0781)"><tspan x="0" y="0" font-size="6">References Referenced Image</tspan><tspan x="0" y="7.2" font-size="6">Sequence</tspan></text>
		</g>
		<g>
			<text transform="matrix(1 0 0 1 430.7188 210.1709)" font-size="8">1-n</text>
		</g>
		<rect x="254.852" y="63.607" fill="#86B2D8" stroke="#F7941E" stroke-width="2" stroke-miterlimit="1" width="94" height="22.5"/>
		<g>
			<text transform="matrix(1 0 0 1 262.2734 72.9707)"><tspan x="0" y="0" font-size="8">Surface Segmentation</tspan><tspan x="14.9" y="6.933" font-size="8">SOP Instance</tspan></text>
		</g>
		<g>
			<g>
				<polyline fill="none" stroke="#005695" stroke-miterlimit="1" points="301.849,87.026 301.849,113.236 314.306,113.236 				"/>
				<g>
					<polygon fill="#005695" points="313.513,114.398 317.85,113.236 313.513,112.074 					"/>
				</g>
			</g>
		</g>
		<g>
			<g>
				<polyline fill="none" stroke="#005695" stroke-miterlimit="1" points="296.81,180.584 296.81,212.805 309.267,212.805 				"/>
				<g>
					<polygon fill="#005695" points="308.474,213.967 312.811,212.805 308.474,211.643 					"/>
				</g>
			</g>
		</g>
		<g>
			<g>
				<polyline fill="none" stroke="#005695" stroke-miterlimit="1" points="296.81,212.676 296.81,253.803 309.267,253.803 				"/>
				<g>
					<polygon fill="#005695" points="308.474,254.965 312.811,253.803 308.474,252.641 					"/>
				</g>
			</g>
		</g>
		<g>
			<g>
				<path fill="#CCDEF0" d="M317.98,117.029c0,2.761,2.239,5,5,5h104c2.762,0,5-2.239,5-5v-7c0-2.761-2.238-5-5-5h-104
					c-2.761,0-5,2.239-5,5V117.029z"/>
				<path fill="none" stroke="#005695" stroke-miterlimit="1" d="M317.98,117.029c0,2.761,2.239,5,5,5h104c2.762,0,5-2.239,5-5v-7
					c0-2.761-2.238-5-5-5h-104c-2.761,0-5,2.239-5,5V117.029z"/>
			</g>
			<text transform="matrix(1 0 0 1 325.5312 111.5977)"><tspan x="0" y="0" font-size="6">References Segment Surface Source</tspan><tspan x="0" y="7.2" font-size="6">Instance Sequence</tspan></text>
		</g>
		<g>
			<g>
				<path fill="#EDF3F9" d="M389.021,27.544c0,2.761,2.238,5,5,5h118c2.762,0,5-2.239,5-5v-7c0-2.761-2.238-5-5-5h-118
					c-2.762,0-5,2.239-5,5V27.544z"/>
				<path fill="none" stroke="#939598" stroke-miterlimit="1" stroke-dasharray="4,4" d="M389.021,27.544c0,2.761,2.238,5,5,5h118
					c2.762,0,5-2.239,5-5v-7c0-2.761-2.238-5-5-5h-118c-2.762,0-5,2.239-5,5V27.544z"/>
			</g>
			<g>
				<text transform="matrix(1 0 0 1 397.8867 26.8281)" font-size="8">Same Frame of Reference UID</text>
			</g>
		</g>
		<g>
			<g>
				<polyline fill="none" stroke="#005695" stroke-miterlimit="1" points="643.342,213.262 658.655,213.262 658.654,245.795 
					671.798,245.795 				"/>
				<g>
					<polygon fill="#005695" points="671.006,246.957 675.342,245.795 671.006,244.633 					"/>
				</g>
			</g>
		</g>
		<g>
			<path fill="#CCDEF0" d="M529.039,186.518c0,2.762,2.238,5,5,5h103.999c2.762,0,5-2.238,5-5v-7c0-2.762-2.238-5-5-5H534.039
				c-2.762,0-5,2.238-5,5V186.518z"/>
			<path fill="none" stroke="#005695" stroke-miterlimit="1" d="M529.039,186.518c0,2.762,2.238,5,5,5h103.999c2.762,0,5-2.238,5-5
				v-7c0-2.762-2.238-5-5-5H534.039c-2.762,0-5,2.238-5,5V186.518z"/>
		</g>
		<g>
			<text transform="matrix(1 0 0 1 647.8203 179.8594)" font-size="8">0-n</text>
		</g>
		<text transform="matrix(1 0 0 1 536.8408 181.0996)"><tspan x="0" y="0" font-size="6">References Source Image Sequence</tspan><tspan x="0" y="7.199" font-size="6">in the Derived Image Sequence</tspan></text>
		<g>
			<g>
				<line fill="none" stroke="#005695" stroke-miterlimit="1" x1="643.342" y1="183.812" x2="671.798" y2="183.812"/>
				<g>
					<polygon fill="#005695" points="671.006,184.975 675.342,183.812 671.006,182.65 					"/>
				</g>
			</g>
		</g>
		<g>
			<g>
				<polyline fill="none" stroke="#005695" stroke-miterlimit="1" points="512.078,183.254 512.078,213.748 524.534,213.748 				"/>
				<g>
					<polygon fill="#005695" points="523.742,214.91 528.078,213.748 523.742,212.586 					"/>
				</g>
			</g>
		</g>
		<g>
			<g>
				<polyline fill="none" stroke="#005695" stroke-miterlimit="1" points="512.078,155.102 512.078,182.973 524.534,182.973 				"/>
				<g>
					<polygon fill="#005695" points="523.742,184.135 528.078,182.973 523.742,181.811 					"/>
				</g>
			</g>
		</g>
		<g>
			<path fill="#CCDEF0" d="M529.038,216.547c0,2.762,2.238,5,5,5h104c2.762,0,5-2.238,5-5v-7c0-2.762-2.238-5-5-5h-104
				c-2.762,0-5,2.238-5,5V216.547z"/>
			<path fill="none" stroke="#005695" stroke-miterlimit="1" d="M529.038,216.547c0,2.762,2.238,5,5,5h104c2.762,0,5-2.238,5-5v-7
				c0-2.762-2.238-5-5-5h-104c-2.762,0-5,2.238-5,5V216.547z"/>
		</g>
		<text transform="matrix(1 0 0 1 536.8408 211.1094)"><tspan x="0" y="0" font-size="6">References Referenced Image</tspan><tspan x="0" y="7.2" font-size="6">Sequence</tspan></text>
		<g>
			<text transform="matrix(1 0 0 1 647.8193 210.5879)" font-size="8">0-n</text>
		</g>
		<g>
			<g>
				<line fill="none" stroke="#005695" stroke-miterlimit="1" x1="223.055" y1="143.083" x2="460.421" y2="143.083"/>
				<g>
					<polygon fill="#005695" points="459.629,144.246 463.965,143.083 459.629,141.921 					"/>
				</g>
			</g>
		</g>
		<g>
			<g>
				<polyline fill="none" stroke="#005695" stroke-miterlimit="1" points="431.988,113.529 450.325,113.529 450.324,135.076 
					460.421,135.076 				"/>
				<g>
					<polygon fill="#005695" points="459.629,136.238 463.965,135.076 459.629,133.914 					"/>
				</g>
			</g>
		</g>
		<g>
			<g>
				<polyline fill="none" stroke="#005695" stroke-miterlimit="1" points="426.949,213.309 450.325,213.309 450.324,151.176 
					460.421,151.176 				"/>
				<g>
					<polygon fill="#005695" points="459.629,152.338 463.965,151.176 459.629,150.014 					"/>
				</g>
			</g>
		</g>
		<g>
			<text transform="matrix(1 0 0 1 435.7598 110.5811)" font-size="8">0-n</text>
		</g>
		
			<rect x="465.214" y="131.727" fill="#86B2D8" stroke="#F7941E" stroke-width="2" stroke-miterlimit="1" width="94" height="22.5"/>
		<g>
			<text transform="matrix(1 0 0 1 473.5342 142.2388)"><tspan x="0" y="0" font-size="8">Structural OPT Image</tspan><tspan x="14" y="6.933" font-size="8">SOP Instance</tspan></text>
		</g>
		
			<rect x="255.041" y="158.084" fill="#86B2D8" stroke="#F7941E" stroke-width="2" stroke-miterlimit="1" width="102" height="22.5"/>
		<g>
			<text transform="matrix(1 0 0 1 258.6938 167.4375)"><tspan x="0" y="0" font-size="8">Opth OCT B-Scan Volume</tspan><tspan x="6.443" y="6.934" font-size="8">Analysis SOP Instance</tspan></text>
		</g>
		<g>
			<rect x="16.396" y="248.441" fill="#FFFFFF" width="179.584" height="37.014"/>
			
				<rect x="21.543" y="265.779" fill="#86B2D8" stroke="#ED1C24" stroke-width="2" stroke-linecap="round" stroke-linejoin="round" stroke-miterlimit="1" width="50" height="14"/>
			<rect x="81.301" y="265.779" fill="#86B2D8" stroke="#F7941E" stroke-width="2" stroke-miterlimit="1" width="50" height="14"/>
			
				<rect x="140.127" y="265.779" fill="#86B2D8" stroke="#FFF200" stroke-width="2" stroke-linecap="round" stroke-linejoin="round" stroke-miterlimit="1" width="50" height="14"/>
			<rect x="24.371" y="251.471" fill="none" width="166.422" height="28.309"/>
			<text transform="matrix(0.9288 0 0 1 24.3711 257.1934)"><tspan x="0" y="0" font-size="8">Legend:</tspan><tspan x="0" y="17.6" font-size="8">Stage 1 Data</tspan><tspan x="46.698" y="17.6" font-size="8" letter-spacing="15.073">	</tspan><tspan x="64.597" y="17.6" font-size="8">Stage 2 Data</tspan><tspan x="111.295" y="17.6" font-size="8" letter-spacing="15.073">	</tspan><tspan x="129.194" y="17.6" font-size="8">Stage 3 Data</tspan></text>
		</g>
	</g>
</g>
</svg>
