<?xml version="1.0" encoding="utf-8"?>

<!DOCTYPE svg PUBLIC "-//W3C//DTD SVG 1.1//EN" "http://www.w3.org/Graphics/SVG/1.1/DTD/svg11.dtd">
<svg version="1.1" id="Layer_1" xmlns="http://www.w3.org/2000/svg" xmlns:xlink="http://www.w3.org/1999/xlink" x="0px" y="0px"
	 width="502px" height="287px" viewBox="0 0 502 287" enable-background="new 0 0 502 287" xml:space="preserve">

<defs>
	<style type="text/css">
	text {
	  font-family: Helvetica, Verdana, ArialUnicodeMS, san-serif
	}
	</style>
</defs>

<g>
   <desc>
	PS 3.3 Part 3: Information Object Definitions
   </desc>
</g>

<g>
	<rect x="1" y="1" fill="#F5EED6" width="500" height="285"/>
	<g>
		<rect x="60.546" y="27.161" fill="#B2CEE7" width="409.704" height="28"/>
		<rect x="60.546" y="81.161" fill="#B2CEE7" width="409.704" height="28"/>
		<rect x="60.546" y="134.876" fill="#B2CEE7" width="409.704" height="28.557"/>
		<rect x="60" y="188.844" fill="#B2CEE7" width="410.25" height="28.596"/>
		<g>
			<g>
				
					<rect x="68.031" y="140.161" fill="#86B2D8" stroke="#010101" stroke-width="0.75" stroke-linecap="round" stroke-linejoin="round" stroke-miterlimit="1" width="125.994" height="17.987"/>
			</g>
			<g>
				<text transform="matrix(1 0 0 1 74.3394 152.4668)" font-size="12">Performing Physician</text>
			</g>
		</g>
		<g>
			<g>
				
					<rect x="68.031" y="86.161" fill="#86B2D8" stroke="#010101" stroke-width="0.75" stroke-linecap="round" stroke-linejoin="round" stroke-miterlimit="1" width="125.994" height="18"/>
			</g>
			<g>
				<text transform="matrix(1 0.0022 -0.0022 1 77.6631 98.1855)" font-size="12">Physician of Record</text>
			</g>
		</g>
		<g>
			
				<rect x="68.031" y="32.161" fill="#86B2D8" stroke="#010101" stroke-width="0.75" stroke-linecap="round" stroke-linejoin="round" stroke-miterlimit="1" width="125.994" height="18"/>
			<g>
				<text transform="matrix(1 0.0022 -0.0022 1 78.999 44.2861)" font-size="12">Referring Physician</text>
			</g>
		</g>
		<g>
			<text transform="matrix(1 0 0 1 341.4766 143.5264)"><tspan x="0" y="0" font-size="9">Creates the images and</tspan><tspan x="0" y="8.134" font-size="9">evidence in a series within the</tspan><tspan x="0" y="16.267" font-size="9">study (series attribute)</tspan></text>
		</g>
		<g>
			<text transform="matrix(1 0.0022 -0.0022 1 341.5 93.4946)"><tspan x="0" y="0" font-size="9">Responsible for primary care</tspan><tspan x="0" y="8.133" font-size="9">of Patient during study</tspan></text>
		</g>
		<g>
			<text transform="matrix(1 0.0022 -0.0022 1 341.4824 43.5649)" font-size="9">Refers Patient for study</text>
		</g>
		<g>
			<text transform="matrix(1 0 0 1 341.4766 201.5801)"><tspan x="0" y="0" font-size="9">Interprets the images and</tspan><tspan x="0" y="8.133" font-size="9">evidence of the study</tspan></text>
		</g>
		<rect x="185.25" y="243.128" fill="#B2CEE7" width="285" height="28"/>
		<g>
			<text transform="matrix(1 0 0 1 341.4766 255.5664)"><tspan x="0" y="0" font-size="9">Provides specialized advice</tspan><tspan x="0" y="8.133" font-size="9">about Patient’s condition</tspan></text>
		</g>
		<g>
			<g>
				
					<rect x="68.031" y="194.147" fill="#86B2D8" stroke="#010101" stroke-width="0.75" stroke-linecap="round" stroke-linejoin="round" stroke-miterlimit="1" width="125.994" height="17.988"/>
			</g>
			<g>
				<text transform="matrix(1 0 0 1 81.3315 206.168)" font-size="12">Reading Physician</text>
			</g>
		</g>
		<g>
			<g>
				
					<rect x="194.025" y="248.134" fill="#86B2D8" stroke="#010101" stroke-width="0.75" stroke-linecap="round" stroke-linejoin="round" stroke-miterlimit="1" width="125.995" height="17.988"/>
			</g>
			<g>
				<text transform="matrix(1 0 0 1 201.3257 260.1543)" font-size="12">Consulting Physician</text>
			</g>
		</g>
		<g>
			<g>
				
					<line fill="none" stroke="#005695" stroke-width="2" stroke-miterlimit="1" x1="130.966" y1="158.149" x2="130.95" y2="187.06"/>
				<g>
					<polygon fill="#005695" points="128.626,185.474 130.946,194.147 133.275,185.477 					"/>
				</g>
			</g>
		</g>
		<g>
			<g>
				
					<line fill="none" stroke="#005695" stroke-width="2" stroke-miterlimit="1" x1="130.987" y1="104.161" x2="130.987" y2="133.074"/>
				<g>
					<polygon fill="#005695" points="128.663,131.488 130.987,140.161 133.311,131.488 					"/>
				</g>
			</g>
		</g>
		<g>
			<g>
				
					<line fill="none" stroke="#005695" stroke-width="2" stroke-miterlimit="1" x1="131.028" y1="50.161" x2="131.011" y2="79.074"/>
				<g>
					<polygon fill="#005695" points="128.688,77.487 131.007,86.161 133.336,77.49 					"/>
				</g>
			</g>
		</g>
		<g>
			<g>
				<polyline fill="none" stroke="#005695" stroke-width="2" stroke-miterlimit="1" points="107.524,79.074 107.524,68.161 
					46.75,68.161 46.75,223.872 107.524,223.872 107.524,212.136 				"/>
				<g>
					<polygon fill="#005695" points="109.848,77.488 107.524,86.161 105.2,77.488 					"/>
				</g>
			</g>
		</g>
		<g>
			<g>
				<polyline fill="none" stroke="#005695" stroke-width="2" stroke-miterlimit="1" points="131.029,25.074 131.029,15.872 
					31.75,15.872 31.75,241.622 131.029,241.622 131.029,212.136 				"/>
				<g>
					<polygon fill="#005695" points="133.353,23.488 131.029,32.161 128.705,23.488 					"/>
				</g>
			</g>
		</g>
		<g>
			<g>
				<polyline fill="none" stroke="#005695" stroke-width="2" stroke-miterlimit="1" points="287.418,240.25 287.418,38.975 
					194.29,38.975 				"/>
				<g>
					<polygon fill="#005695" points="289.742,238.665 287.418,247.338 285.094,238.665 					"/>
				</g>
			</g>
		</g>
		<g>
			<g>
				<polyline fill="none" stroke="#005695" stroke-width="2" stroke-miterlimit="1" points="262.404,240.25 262.404,93.498 
					193.924,93.498 				"/>
				<g>
					<polygon fill="#005695" points="264.729,238.665 262.404,247.338 260.08,238.665 					"/>
				</g>
			</g>
		</g>
		<g>
			<g>
				<polyline fill="none" stroke="#005695" stroke-width="2" stroke-miterlimit="1" points="237.405,240.25 237.405,204.293 
					194.025,204.293 				"/>
				<g>
					<polygon fill="#005695" points="239.729,238.665 237.405,247.338 235.081,238.665 					"/>
				</g>
			</g>
		</g>
	</g>
</g>
</svg>
