<?xml version="1.0" encoding="utf-8"?>

<!DOCTYPE svg PUBLIC "-//W3C//DTD SVG 1.1//EN" "http://www.w3.org/Graphics/SVG/1.1/DTD/svg11.dtd">
<svg version="1.1" id="Layer_1" xmlns="http://www.w3.org/2000/svg" xmlns:xlink="http://www.w3.org/1999/xlink" x="0px" y="0px"
	 width="498.076px" height="362px" viewBox="0 0 498.076 362" enable-background="new 0 0 498.076 362" xml:space="preserve">

<defs>
	<style type="text/css">
	text {
	  font-family: Helvetica, Verdana, ArialUnicodeMS, san-serif
	}
	</style>
</defs>

<g>
   <desc>
	PS 3.3 Part 3: Information Object Definitions
   </desc>
</g>

<g>
	<rect x="1" y="1" fill="#F5EED8" width="496.076" height="360"/>
	<g>
		
			<rect x="104.867" y="106.183" fill="#CEDFEF" stroke="#010101" stroke-width="0.75" stroke-linecap="round" stroke-linejoin="round" stroke-miterlimit="1" width="228.343" height="240.939"/>
		
			<rect x="122.432" y="196.259" fill="#8AB4D7" stroke="#010101" stroke-width="0.75" stroke-linecap="round" stroke-linejoin="round" stroke-miterlimit="1" width="210.778" height="76.68"/>
		
			<rect x="139.209" y="211.421" fill="#B4CFE6" stroke="#010101" stroke-width="0.75" stroke-linecap="round" stroke-linejoin="round" stroke-miterlimit="1" width="193.708" height="61.518"/>
		<rect x="130.372" y="199.87" fill="none" width="198.934" height="8.51"/>
		<text transform="matrix(0.9288 0 0 1 130.3716 206.2754)" font-size="9">Item 2 (Frame 2)</text>
		<rect x="149.537" y="215.196" fill="none" width="176.345" height="8.51"/>
		<text transform="matrix(0.9288 0 0 1 149.5371 221.6016)" font-size="9">&gt;Frame Pixel Shift Sequence (0028,9415)</text>
		
			<rect x="155.876" y="226.54" fill="#8AB4D7" stroke="#010101" stroke-width="0.75" stroke-linecap="round" stroke-linejoin="round" stroke-miterlimit="1" width="177.333" height="46.398"/>
		<rect x="166.349" y="230.702" fill="none" width="123.965" height="8.51"/>
		<text transform="matrix(0.9288 0 0 1 166.3486 237.1172)" font-size="9">Item 1</text>
		
			<rect x="173.209" y="241.942" fill="#FFFFFF" stroke="#010101" stroke-width="0.75" stroke-linecap="round" stroke-linejoin="round" stroke-miterlimit="1" width="159.708" height="30.779"/>
		
			<line fill="#FFFFFF" stroke="#010101" stroke-width="0.75" stroke-linecap="round" stroke-linejoin="round" stroke-miterlimit="1" x1="173.209" y1="257.333" x2="332.917" y2="257.333"/>
		<rect x="181.349" y="246.718" fill="none" width="148.63" height="8.51"/>
		<text transform="matrix(0.9288 0 0 1 181.3486 253.1328)" font-size="9">&gt;&gt;Subtraction Item ID (0028,9416)</text>
		<rect x="181.349" y="260.718" fill="none" width="147.298" height="8.51"/>
		<text transform="matrix(0.9288 0 0 1 181.3486 267.1328)" font-size="9">&gt;&gt;Mask Sub-Pixel Shift (0028,6114)</text>
		
			<rect x="122.432" y="270.655" fill="#8AB4D7" stroke="#010101" stroke-width="0.75" stroke-linecap="round" stroke-linejoin="round" stroke-miterlimit="1" width="210.778" height="76.68"/>
		
			<rect x="139.209" y="285.817" fill="#B4CFE6" stroke="#010101" stroke-width="0.75" stroke-linecap="round" stroke-linejoin="round" stroke-miterlimit="1" width="193.708" height="61.518"/>
		<rect x="130.372" y="274.267" fill="none" width="198.934" height="8.51"/>
		<text transform="matrix(0.9288 0 0 1 130.3716 280.6719)" font-size="9">Item 3 (Frame 3)</text>
		<rect x="149.537" y="289.593" fill="none" width="176.345" height="8.51"/>
		<text transform="matrix(0.9288 0 0 1 149.5371 295.998)" font-size="9">&gt;Frame Pixel Shift Sequence (0028,9415)</text>
		
			<rect x="155.876" y="300.937" fill="#8AB4D7" stroke="#010101" stroke-width="0.75" stroke-linecap="round" stroke-linejoin="round" stroke-miterlimit="1" width="177.333" height="46.398"/>
		<rect x="166.349" y="305.099" fill="none" width="123.965" height="8.51"/>
		<text transform="matrix(0.9288 0 0 1 166.3486 311.5137)" font-size="9">Item 1</text>
		
			<rect x="173.209" y="316.339" fill="#FFFFFF" stroke="#010101" stroke-width="0.75" stroke-linecap="round" stroke-linejoin="round" stroke-miterlimit="1" width="159.708" height="30.779"/>
		
			<line fill="#FFFFFF" stroke="#010101" stroke-width="0.75" stroke-linecap="round" stroke-linejoin="round" stroke-miterlimit="1" x1="173.209" y1="331.729" x2="332.917" y2="331.729"/>
		<rect x="181.349" y="321.114" fill="none" width="148.63" height="8.51"/>
		<text transform="matrix(0.9288 0 0 1 181.3486 327.5293)" font-size="9">&gt;&gt;Subtraction Item ID (0028,9416)</text>
		<rect x="181.349" y="335.114" fill="none" width="147.298" height="8.51"/>
		<text transform="matrix(0.9288 0 0 1 181.3486 341.5293)" font-size="9">&gt;&gt;Mask Sub-Pixel Shift (0028,6114)</text>
		<rect x="124.151" y="110.811" fill="none" width="205.155" height="8.51"/>
		<text transform="matrix(0.9288 0 0 1 124.1509 117.2153)" font-size="9">Per-Frame Functional Groups Sequence (5200,9230) </text>
		
			<rect x="104.867" y="14.665" fill="#CEDFEF" stroke="#010101" stroke-width="0.75" stroke-linecap="round" stroke-linejoin="round" stroke-miterlimit="1" width="228.343" height="91.35"/>
		<rect x="124.151" y="19.291" fill="none" width="205.155" height="8.51"/>
		<text transform="matrix(0.9288 0 0 1 124.1509 25.7007)" font-size="9">Mask Subtraction Sequence (0028,6100)</text>
		
			<rect x="122.432" y="29.301" fill="#8AB4D7" stroke="#010101" stroke-width="0.75" stroke-linecap="round" stroke-linejoin="round" stroke-miterlimit="1" width="210.778" height="76.679"/>
		<rect x="130.372" y="32.912" fill="none" width="198.934" height="8.511"/>
		<text transform="matrix(0.9288 0 0 1 130.3716 39.3447)" font-size="9">Item 1</text>
		
			<rect x="139.997" y="44.462" fill="#FFFFFF" stroke="#010101" stroke-width="0.75" stroke-linecap="round" stroke-linejoin="round" stroke-miterlimit="1" width="193.213" height="61.347"/>
		
			<line fill="#FFFFFF" stroke="#010101" stroke-width="0.75" stroke-linecap="round" stroke-linejoin="round" stroke-miterlimit="1" x1="139.997" y1="90.472" x2="333.21" y2="90.472"/>
		
			<line fill="#FFFFFF" stroke="#010101" stroke-width="0.75" stroke-linecap="round" stroke-linejoin="round" stroke-miterlimit="1" x1="139.997" y1="75.135" x2="333.21" y2="75.135"/>
		
			<line fill="#FFFFFF" stroke="#010101" stroke-width="0.75" stroke-linecap="round" stroke-linejoin="round" stroke-miterlimit="1" x1="139.997" y1="59.798" x2="333.21" y2="59.798"/>
		<rect x="149.537" y="48.239" fill="none" width="176.345" height="8.51"/>
		<text transform="matrix(0.9288 0 0 1 149.5371 54.6714)" font-size="9">&gt;Mask Operation (0028,6101)</text>
		<rect x="149.537" y="63.745" fill="none" width="176.774" height="8.51"/>
		<text transform="matrix(0.9288 0 0 1 149.5371 70.1777)" font-size="9">&gt;Applicable Frame Range (0028,6102)</text>
		<rect x="149.537" y="78.137" fill="none" width="176.774" height="8.51"/>
		<text transform="matrix(0.9288 0 0 1 149.5371 84.541)" font-size="9">&gt;Mask Frame Numbers (0028,6100)</text>
		<rect x="149.537" y="94.76" fill="none" width="176.774" height="8.51"/>
		<text transform="matrix(0.9288 0 0 1 149.5371 101.1934)" font-size="9">&gt;Subtraction Item ID (0028,9416)</text>
		<rect x="337.538" y="48.239" fill="none" width="55.535" height="8.51"/>
		<text transform="matrix(0.9288 0 0 1 337.5381 54.6807)" font-size="9">= AVG_SUB</text>
		<rect x="337.538" y="63.745" fill="none" width="55.672" height="8.51"/>
		<text transform="matrix(0.9288 0 0 1 337.5381 70.1865)" font-size="9">= 2\3</text>
		<rect x="337.538" y="78.137" fill="none" width="55.672" height="8.51"/>
		<text transform="matrix(0.9288 0 0 1 337.5381 84.5498)" font-size="9">= 1</text>
		<rect x="337.538" y="94.76" fill="none" width="55.672" height="8.51"/>
		<text transform="matrix(0.9288 0 0 1 337.5381 101.2021)" font-size="9">= 100</text>
		<rect x="337.538" y="168.906" fill="none" width="55.535" height="8.511"/>
		<text transform="matrix(0.9288 0 0 1 337.5381 175.3159)" font-size="9">= 100</text>
		<rect x="337.538" y="184.413" fill="none" width="55.672" height="8.51"/>
		<text transform="matrix(0.9288 0 0 1 337.5381 190.8223)" font-size="9">= 0.0\0.0</text>
		<rect x="337.538" y="244.907" fill="none" width="55.535" height="8.51"/>
		<text transform="matrix(0.9288 0 0 1 337.5381 251.3164)" font-size="9">= 100</text>
		<rect x="337.538" y="260.413" fill="none" width="55.672" height="8.51"/>
		<text transform="matrix(0.9288 0 0 1 337.5381 266.8223)" font-size="9">= 1.3\2.4</text>
		<rect x="337.538" y="320.239" fill="none" width="55.535" height="8.51"/>
		<text transform="matrix(0.9288 0 0 1 337.5381 326.6504)" font-size="9">= 100</text>
		<rect x="337.538" y="335.745" fill="none" width="55.672" height="8.51"/>
		<text transform="matrix(0.9288 0 0 1 337.5381 342.1562)" font-size="9">= 1.9\3.0</text>
		
			<rect x="122.432" y="119.989" fill="#8AB4D7" stroke="#010101" stroke-width="0.75" stroke-linecap="round" stroke-linejoin="round" stroke-miterlimit="1" width="210.778" height="76.678"/>
		
			<rect x="139.209" y="135.15" fill="#B4CFE6" stroke="#010101" stroke-width="0.75" stroke-linecap="round" stroke-linejoin="round" stroke-miterlimit="1" width="193.708" height="61.517"/>
		<rect x="130.372" y="123.6" fill="none" width="198.934" height="8.512"/>
		<text transform="matrix(0.9288 0 0 1 130.3716 130.0054)" font-size="9">Item 1 (Frame 1)</text>
		<rect x="149.537" y="138.927" fill="none" width="176.345" height="8.511"/>
		<text transform="matrix(0.9288 0 0 1 149.5371 145.332)" font-size="9">&gt;Frame Pixel Shift Sequence (0028,9415)</text>
		
			<rect x="155.876" y="150.271" fill="#8AB4D7" stroke="#010101" stroke-width="0.75" stroke-linecap="round" stroke-linejoin="round" stroke-miterlimit="1" width="177.333" height="46.396"/>
		<rect x="166.349" y="154.434" fill="none" width="123.965" height="8.51"/>
		<text transform="matrix(0.9288 0 0 1 166.3486 160.8472)" font-size="9">Item 1</text>
		
			<rect x="173.209" y="165.673" fill="#FFFFFF" stroke="#010101" stroke-width="0.75" stroke-linecap="round" stroke-linejoin="round" stroke-miterlimit="1" width="159.708" height="30.779"/>
		
			<line fill="#FFFFFF" stroke="#010101" stroke-width="0.75" stroke-linecap="round" stroke-linejoin="round" stroke-miterlimit="1" x1="173.209" y1="181.062" x2="332.917" y2="181.062"/>
		<rect x="181.349" y="170.45" fill="none" width="148.63" height="8.51"/>
		<text transform="matrix(0.9288 0 0 1 181.3486 176.8628)" font-size="9">&gt;&gt;Subtraction Item ID (0028,9416)</text>
		<rect x="181.349" y="184.45" fill="none" width="147.298" height="8.51"/>
		<text transform="matrix(0.9288 0 0 1 181.3486 190.8633)" font-size="9">&gt;&gt;Mask Sub-Pixel Shift (0028,6114)</text>
	</g>
</g>
</svg>
