<?xml version="1.0" encoding="utf-8"?>

<!DOCTYPE svg PUBLIC "-//W3C//DTD SVG 1.1//EN" "http://www.w3.org/Graphics/SVG/1.1/DTD/svg11.dtd">
<svg version="1.1" id="Layer_1" xmlns="http://www.w3.org/2000/svg" xmlns:xlink="http://www.w3.org/1999/xlink" x="0px" y="0px"
	 width="602px" height="497.65px" viewBox="0 0 602 497.65" enable-background="new 0 0 602 497.65" xml:space="preserve">

<defs>
	<style type="text/css">
	text {
	  font-family: Helvetica, Verdana, ArialUnicodeMS, san-serif
	}
	</style>
</defs>

<g>
   <desc>
	PS 3.3 Part 3: Information Object Definitions
   </desc>
</g>

<g>
	<rect x="1" y="1" fill="#F5EED6" width="600" height="390"/>
	<g>
		<rect x="234.382" y="55.421" fill="#C0E2CA" stroke="#000000" width="66.711" height="317.394"/>
		
			<rect x="271.16" y="112.551" transform="matrix(0.9659 0.2588 -0.2588 0.9659 62.9831 -69.6554)" fill="#CCDEF0" stroke="#000000" width="49.745" height="183.643"/>
		<polyline fill="#FFF56D" points="305.758,301.616 311.75,146.087 239.678,283.91 		"/>
		<g>
			<line fill="none" stroke="#FFFFFF" stroke-miterlimit="10" x1="303.044" y1="301.488" x2="311.704" y2="146.074"/>
			<line fill="none" stroke="#FFFFFF" stroke-miterlimit="10" x1="297.626" y1="301.091" x2="311.704" y2="146.074"/>
			<line fill="none" stroke="#FFFFFF" stroke-miterlimit="10" x1="292.225" y1="300.505" x2="311.704" y2="146.074"/>
			<line fill="none" stroke="#FFFFFF" stroke-miterlimit="10" x1="286.847" y1="299.731" x2="311.704" y2="146.074"/>
			<line fill="none" stroke="#FFFFFF" stroke-miterlimit="10" x1="281.499" y1="298.771" x2="311.704" y2="146.074"/>
			<line fill="none" stroke="#FFFFFF" stroke-miterlimit="10" x1="276.188" y1="297.624" x2="311.704" y2="146.074"/>
			<line fill="none" stroke="#FFFFFF" stroke-miterlimit="10" x1="270.92" y1="296.292" x2="311.704" y2="146.074"/>
			<line fill="none" stroke="#FFFFFF" stroke-miterlimit="10" x1="265.702" y1="294.777" x2="311.704" y2="146.074"/>
			<line fill="none" stroke="#FFFFFF" stroke-miterlimit="10" x1="260.54" y1="293.082" x2="311.704" y2="146.074"/>
			<line fill="none" stroke="#FFFFFF" stroke-miterlimit="10" x1="255.44" y1="291.207" x2="311.704" y2="146.074"/>
			<line fill="none" stroke="#FFFFFF" stroke-miterlimit="10" x1="250.41" y1="289.155" x2="311.704" y2="146.074"/>
			<line fill="none" stroke="#FFFFFF" stroke-miterlimit="10" x1="245.453" y1="286.929" x2="311.704" y2="146.074"/>
			<line fill="none" stroke="#FFFFFF" stroke-miterlimit="10" x1="240.577" y1="284.531" x2="311.704" y2="146.074"/>
		</g>
		<polyline fill="none" stroke="#000000" stroke-width="0.5" stroke-miterlimit="10" points="305.758,301.616 311.704,146.074 
			239.678,283.91 		"/>
		<path fill="#B2CEE7" stroke="#000000" d="M305.101,319.125c-0.727,2.714-18.015,0.44-38.612-5.079
			c-20.597-5.519-36.705-12.193-35.978-14.907l-0.19-0.051l4.315-16.105l74.781,20.038L305.101,319.125z"/>
		<path fill="#CCDEF0" stroke="#000000" d="M341.943,122.255c1.05-3.918-8.149-9.787-20.549-13.109
			c-12.398-3.322-23.299-2.84-24.351,1.079l-9.016,56.64l33.406,8.951L341.943,122.255z"/>
		
			<line fill="none" stroke="#000000" stroke-width="0.5" stroke-dasharray="4,4" x1="261.979" y1="332.596" x2="344.231" y2="24.594"/>
		<g>
			<g>
				<line fill="none" stroke="#ED1C24" stroke-width="2" x1="268.873" y1="306.799" x2="315.772" y2="319.365"/>
				<g>
					<polygon fill="#ED1C24" points="313.106,321.659 324.33,321.658 314.61,316.046 					"/>
				</g>
			</g>
		</g>
		<g>
			<g>
				<line fill="none" stroke="#00AEEF" stroke-width="2" x1="269.171" y1="306.883" x2="281.838" y2="259.609"/>
				<g>
					<polygon fill="#00AEEF" points="284.132,262.275 284.131,251.052 278.519,260.771 					"/>
				</g>
			</g>
		</g>
		
			<line fill="none" stroke="#000000" stroke-width="0.5" stroke-dasharray="4,4" x1="268.257" y1="330.596" x2="268.257" y2="14.518"/>
		<g>
			<g>
				<path fill="none" stroke="#005695" stroke-width="2" stroke-miterlimit="10" d="M257.626,32.925
					c-16.604,0.628-32.832,2.721-48.56,6.153"/>
				<g>
					<polygon fill="#005695" points="255.159,29.59 268.257,32.725 255.346,36.56 					"/>
				</g>
			</g>
		</g>
		<g>
			<g>
				<path fill="none" stroke="#005695" stroke-width="2" stroke-miterlimit="10" d="M392.933,62.377
					c-13.756-6.965-28.175-12.813-43.135-17.426"/>
				<g>
					<polygon fill="#005695" points="353.043,42.349 339.58,42.016 351.073,49.038 					"/>
				</g>
			</g>
		</g>
		<g>
			<text transform="matrix(1.0877 0 0 1 293.7427 36.1616)"><tspan x="0" y="0" font-size="12">Ab</tspan><tspan x="13.91" y="3" font-size="10">1</tspan></text>
		</g>
		<g>
			<text transform="matrix(1.0877 0 0 1 280.9194 250.5078)"><tspan x="0" y="0" fill="#00AEEF" font-size="12">+Z</tspan><tspan x="13.57" y="3" fill="#00AEEF" font-size="11">b</tspan></text>
		</g>
		<g>
			<text transform="matrix(1.0877 0 0 1 245.4854 301.001)"><tspan x="0" y="0" font-size="12">O</tspan><tspan x="8.95" y="3" font-size="11">b</tspan></text>
		</g>
		<g>
			<text transform="matrix(1.0877 0 0 1 325.6753 326.4941)"><tspan x="0" y="0" fill="#ED1C24" font-size="12">+X</tspan><tspan x="14.244" y="3" fill="#ED1C24" font-size="11">b</tspan></text>
		</g>
		<g>
			<path fill="#FFFFFF" stroke="#000000" stroke-miterlimit="1" d="M272.955,305.806c0.006-2.488-2.015-4.501-4.5-4.501v4.501
				H272.955z"/>
			<path fill="#808080" stroke="#000000" stroke-linecap="round" stroke-linejoin="round" stroke-miterlimit="1" d="
				M268.455,301.305c-2.484,0-4.5,2.017-4.5,4.501h4.5V301.305z"/>
			<path fill="#FFFFFF" stroke="#000000" stroke-miterlimit="1" d="M263.955,305.806c0.002,2.489,2.016,4.499,4.507,4.499
				l-0.007-4.499H263.955z"/>
			<path fill="#808080" stroke="#000000" stroke-linecap="round" stroke-linejoin="round" stroke-miterlimit="1" d="
				M268.455,305.806l0.007,4.499c2.481,0,4.499-2.017,4.493-4.499H268.455z"/>
		</g>
		<g display="none">
			
				<text transform="matrix(1 -0.0019 0.0019 1 323.3335 281.498)" display="inline" fill="#ED1C24" font-size="12">+X</text>
			<g display="inline">
				<g>
					<line fill="none" stroke="#ED1C24" stroke-width="2" x1="267.782" y1="282.314" x2="316.335" y2="282.314"/>
					<g>
						<polygon fill="#ED1C24" points="314.354,285.22 325.195,282.314 314.354,279.409 						"/>
					</g>
				</g>
			</g>
			
				<text transform="matrix(1 -0.0019 0.0019 1 270.2363 232.7637)" display="inline" fill="#00AEEF" font-size="12">+Z</text>
			<g display="inline">
				<g>
					<line fill="none" stroke="#00AEEF" stroke-width="2" x1="268.605" y1="287.881" x2="268.605" y2="238.939"/>
					<g>
						<polygon fill="#00AEEF" points="271.511,240.921 268.605,230.08 265.7,240.921 						"/>
					</g>
				</g>
			</g>
			<g display="inline">
				<path stroke="#000000" stroke-miterlimit="1" d="M274.18,282.076c0.007-3.176-2.571-5.744-5.743-5.744v5.744H274.18z"/>
				<path fill="#FFFFFF" stroke="#010101" stroke-linecap="round" stroke-linejoin="round" stroke-miterlimit="1" d="
					M268.437,276.332c-3.167,0-5.74,2.572-5.74,5.744h5.74V276.332z"/>
				<path stroke="#000000" stroke-miterlimit="1" d="M262.697,282.076c0.002,3.176,2.573,5.741,5.748,5.741l-0.008-5.741H262.697z"
					/>
				<path fill="#FFFFFF" stroke="#010101" stroke-linecap="round" stroke-linejoin="round" stroke-miterlimit="1" d="
					M268.437,282.076l0.008,5.741c3.168,0,5.742-2.571,5.735-5.741H268.437z"/>
			</g>
			<g display="inline">
				<text transform="matrix(1 0 0 1 253.5347 275.8574)" font-size="12">O</text>
			</g>
		</g>
	</g>
</g>
</svg>
