<?xml version="1.0" encoding="utf-8"?>

<!DOCTYPE svg PUBLIC "-//W3C//DTD SVG 1.1//EN" "http://www.w3.org/Graphics/SVG/1.1/DTD/svg11.dtd">
<svg version="1.1" id="Layer_1" xmlns="http://www.w3.org/2000/svg" xmlns:xlink="http://www.w3.org/1999/xlink" x="0px" y="0px"
	 width="602px" height="392px" viewBox="0 0 602 392" enable-background="new 0 0 602 392" xml:space="preserve">

<defs>
	<style type="text/css">
	text {
	  font-family: Helvetica, Verdana, ArialUnicodeMS, san-serif
	}
	</style>
</defs>

<g>
   <desc>
	PS 3.3 Part 3: Information Object Definitions
   </desc>
</g>

<g>
	<rect x="1" y="1" fill="#F5EED6" width="600" height="390"/>
	<g>
		<g>
			<text transform="matrix(1 -0.0019 0.0019 1 104.7476 35.0532)"><tspan x="0" y="0" font-size="12">+</tspan><tspan x="7.008" y="0" font-size="12">θ</tspan></text>
			<text transform="matrix(1 -0.0019 0.0019 1 28.0737 35.0459)"><tspan x="0" y="0" font-size="12">-</tspan><tspan x="3.996" y="0" font-size="12">θ</tspan></text>
			<rect x="40.277" y="57.755" fill="#C0E2CA" stroke="#000000" width="66.711" height="317.394"/>
			<rect x="49.253" y="111.158" fill="#CCDEF0" stroke="#000000" width="49.745" height="183.644"/>
			<polyline fill="#FCBB76" points="40.277,294.485 51.643,142.611 108.688,294.485 			"/>
			<polyline fill="#FFF56D" points="108.688,294.393 96.494,142.612 40.277,294.393 			"/>
			<g>
				<line fill="none" stroke="#FFFFFF" stroke-miterlimit="10" x1="96.494" y1="142.612" x2="45.607" y2="296.263"/>
				<line fill="none" stroke="#FFFFFF" stroke-miterlimit="10" x1="96.494" y1="142.612" x2="51.001" y2="297.946"/>
				<line fill="none" stroke="#FFFFFF" stroke-miterlimit="10" x1="96.494" y1="142.612" x2="56.45" y2="299.438"/>
				<line fill="none" stroke="#FFFFFF" stroke-miterlimit="10" x1="96.494" y1="142.612" x2="61.948" y2="300.74"/>
				<line fill="none" stroke="#FFFFFF" stroke-miterlimit="10" x1="96.494" y1="142.612" x2="67.488" y2="301.851"/>
				<line fill="none" stroke="#FFFFFF" stroke-miterlimit="10" x1="96.494" y1="142.612" x2="73.063" y2="302.766"/>
				<line fill="none" stroke="#FFFFFF" stroke-miterlimit="10" x1="96.494" y1="142.612" x2="78.667" y2="303.485"/>
				<line fill="none" stroke="#FFFFFF" stroke-miterlimit="10" x1="96.494" y1="142.612" x2="84.292" y2="304.011"/>
				<line fill="none" stroke="#FFFFFF" stroke-miterlimit="10" x1="96.494" y1="142.612" x2="89.933" y2="304.339"/>
				<line fill="none" stroke="#FFFFFF" stroke-miterlimit="10" x1="96.494" y1="142.612" x2="95.581" y2="304.469"/>
				<line fill="none" stroke="#FFFFFF" stroke-miterlimit="10" x1="96.494" y1="142.612" x2="101.23" y2="304.403"/>
				<line fill="none" stroke="#FFFFFF" stroke-miterlimit="10" x1="96.494" y1="142.612" x2="106.874" y2="304.14"/>
			</g>
			<g>
				<line fill="none" stroke="#FFFFFF" stroke-miterlimit="10" x1="51.848" y1="142.612" x2="102.734" y2="296.263"/>
				<line fill="none" stroke="#FFFFFF" stroke-miterlimit="10" x1="51.848" y1="142.612" x2="97.341" y2="297.946"/>
				<line fill="none" stroke="#FFFFFF" stroke-miterlimit="10" x1="51.848" y1="142.612" x2="91.892" y2="299.438"/>
				<line fill="none" stroke="#FFFFFF" stroke-miterlimit="10" x1="51.848" y1="142.612" x2="86.395" y2="300.74"/>
				<line fill="none" stroke="#FFFFFF" stroke-miterlimit="10" x1="51.848" y1="142.612" x2="80.854" y2="301.851"/>
				<line fill="none" stroke="#FFFFFF" stroke-miterlimit="10" x1="51.848" y1="142.612" x2="75.279" y2="302.766"/>
				<line fill="none" stroke="#FFFFFF" stroke-miterlimit="10" x1="51.848" y1="142.612" x2="69.675" y2="303.485"/>
				<line fill="none" stroke="#FFFFFF" stroke-miterlimit="10" x1="51.848" y1="142.612" x2="64.05" y2="304.011"/>
				<line fill="none" stroke="#FFFFFF" stroke-miterlimit="10" x1="51.848" y1="142.612" x2="58.41" y2="304.339"/>
				<line fill="none" stroke="#FFFFFF" stroke-miterlimit="10" x1="51.848" y1="142.612" x2="52.762" y2="304.469"/>
				<line fill="none" stroke="#FFFFFF" stroke-miterlimit="10" x1="51.848" y1="142.612" x2="47.112" y2="304.403"/>
				<line fill="none" stroke="#FFFFFF" stroke-miterlimit="10" x1="51.848" y1="142.612" x2="41.469" y2="304.14"/>
			</g>
			<path fill="#B2CEE7" stroke="#000000" d="M112.585,311.475c0,2.81-17.287,5.088-38.611,5.088
				c-21.324,0-38.611-2.278-38.611-5.088h-0.197v-16.673h77.418V311.475z"/>
			<polyline fill="none" stroke="#000000" stroke-width="0.5" points="40.277,294.485 51.643,142.611 108.688,294.485 			"/>
			<polyline fill="none" stroke="#000000" stroke-width="0.5" stroke-miterlimit="10" points="108.688,294.393 96.494,142.612 
				40.277,294.393 			"/>
			<path fill="#CCDEF0" stroke="#000000" stroke-dasharray="2,2" d="M123.88,117.551c0.635-4.006-9.128-8.882-21.807-10.891
				c-12.678-2.008-23.469-0.388-24.104,3.619l-3.047,57.271l34.158,5.41L123.88,117.551z"/>
			<path fill="#CCDEF0" stroke="#000000" stroke-dasharray="2,2" d="M69.98,110.279c-0.635-4.007-11.427-5.627-24.105-3.619
				c-12.677,2.008-22.441,6.884-21.806,10.891l14.799,55.409l34.159-5.409L69.98,110.279z"/>
			<g>
				<g>
					<line fill="none" stroke="#000000" stroke-width="0.5" x1="112.585" y1="37.105" x2="111.968" y2="41.058"/>
					
						<line fill="none" stroke="#000000" stroke-width="0.5" stroke-dasharray="2.0325,2.0325" x1="111.655" y1="43.066" x2="111.185" y2="46.078"/>
					
						<line fill="none" stroke="#000000" stroke-width="0.5" stroke-dasharray="8.1299,2.0325,2.0325,2.0325" x1="111.028" y1="47.082" x2="71.712" y2="299.108"/>
					<line fill="none" stroke="#000000" stroke-width="0.5" x1="71.555" y1="300.112" x2="70.938" y2="304.064"/>
				</g>
			</g>
			<g>
				<g>
					<line fill="none" stroke="#000000" stroke-width="0.5" x1="34.983" y1="38.405" x2="35.615" y2="42.355"/>
					
						<line fill="none" stroke="#000000" stroke-width="0.5" stroke-dasharray="2.0035,2.0035" x1="35.932" y1="44.333" x2="36.406" y2="47.301"/>
					
						<line fill="none" stroke="#000000" stroke-width="0.5" stroke-dasharray="8.0139,2.0035,2.0035,2.0035" x1="36.564" y1="48.29" x2="76.281" y2="296.57"/>
					<line fill="none" stroke="#000000" stroke-width="0.5" x1="76.439" y1="297.559" x2="77.071" y2="301.509"/>
				</g>
			</g>
			
				<line fill="none" stroke="#000000" stroke-width="0.5" stroke-dasharray="4,4" x1="74.151" y1="305.683" x2="74.151" y2="16.852"/>
			<g>
				<path stroke="#000000" stroke-miterlimit="1" d="M79.614,284.05c0.006-3.176-2.571-5.744-5.743-5.744v5.744H79.614z"/>
				<path fill="#FFFFFF" stroke="#010101" stroke-linecap="round" stroke-linejoin="round" stroke-miterlimit="1" d="
					M73.872,278.306c-3.167,0-5.74,2.572-5.74,5.744h5.74V278.306z"/>
				<path stroke="#000000" stroke-miterlimit="1" d="M68.131,284.05c0.002,3.176,2.573,5.741,5.748,5.741l-0.008-5.741H68.131z"/>
				<path fill="#FFFFFF" stroke="#010101" stroke-linecap="round" stroke-linejoin="round" stroke-miterlimit="1" d="M73.872,284.05
					l0.008,5.741c3.167,0,5.741-2.571,5.735-5.741H73.872z"/>
			</g>
			<g>
				<ellipse fill="#FCDD7F" cx="95.649" cy="144.894" rx="4.593" ry="4.722"/>
				<circle fill="#95979A" cx="95.692" cy="144.984" r="0.464"/>
				<path fill="#95979A" d="M96.253,143.929c0.354,0.202,0.594,0.592,0.594,1.039c0,0.035-0.001,0.066-0.003,0.1h2.813
					c0.002-0.033,0.002-0.066,0.002-0.1c0-1.513-0.803-2.836-1.995-3.538L96.253,143.929z"/>
				<path fill="#95979A" d="M95.15,143.929c-0.356,0.202-0.597,0.592-0.597,1.039c0,0.035,0.002,0.066,0.004,0.1h-2.815
					c0-0.033,0-0.066,0-0.1c0-1.513,0.802-2.836,1.993-3.538L95.15,143.929z"/>
				<path fill="#95979A" d="M96.348,145.958c-0.353,0.206-0.81,0.276-1.197,0.054c-0.028-0.018-0.056-0.036-0.084-0.054
					l-1.409,2.436c0.029,0.018,0.058,0.035,0.085,0.053c1.311,0.756,2.858,0.629,4.062-0.053L96.348,145.958z"/>
			</g>
			<g>
				<ellipse fill="#FCDD7F" cx="51.831" cy="144.894" rx="4.593" ry="4.722"/>
				<circle fill="#95979A" cx="51.874" cy="144.984" r="0.464"/>
				<path fill="#95979A" d="M52.436,143.929c0.354,0.202,0.594,0.592,0.594,1.039c0,0.035-0.001,0.066-0.003,0.1h2.813
					c0.002-0.033,0.002-0.066,0.002-0.1c0-1.513-0.803-2.836-1.995-3.538L52.436,143.929z"/>
				<path fill="#95979A" d="M51.332,143.929c-0.356,0.202-0.597,0.592-0.597,1.039c0,0.035,0.002,0.066,0.004,0.1h-2.815
					c0-0.033,0-0.066,0-0.1c0-1.513,0.802-2.836,1.993-3.538L51.332,143.929z"/>
				<path fill="#95979A" d="M52.53,145.958c-0.352,0.206-0.81,0.276-1.197,0.054c-0.028-0.018-0.056-0.036-0.084-0.054l-1.408,2.436
					c0.029,0.018,0.057,0.035,0.085,0.053c1.311,0.756,2.858,0.629,4.063-0.053L52.53,145.958z"/>
			</g>
			<g>
				<g>
					<path fill="none" stroke="#000000" stroke-miterlimit="10" d="M105.586,40.688c-10.584-1.442-21.39-2.188-32.369-2.188
						c-10.616,0-21.069,0.696-31.317,2.045"/>
					<g>
						<polygon points="104.642,38.843 110.844,41.465 104.162,42.296 						"/>
					</g>
					<g>
						<polygon points="42.85,38.702 36.638,41.3 43.317,42.157 						"/>
					</g>
				</g>
			</g>
		</g>
		<g>
			<rect x="508.125" y="57.755" fill="#C0E2CA" stroke="#000000" width="66.711" height="317.394"/>
			<rect x="502.377" y="278.13" fill="#CCDEF0" stroke="#000000" width="5.748" height="33.345"/>
			<polyline fill="#FFF56D" points="450.828,294.802 386.631,144.818 386.631,293.844 			"/>
			<g>
				<line fill="none" stroke="#FFFFFF" stroke-miterlimit="10" x1="445.555" y1="296.952" x2="386.631" y2="144.818"/>
				<line fill="none" stroke="#FFFFFF" stroke-miterlimit="10" x1="440.209" y1="298.916" x2="386.631" y2="144.818"/>
				<line fill="none" stroke="#FFFFFF" stroke-miterlimit="10" x1="434.799" y1="300.692" x2="386.631" y2="144.818"/>
				<line fill="none" stroke="#FFFFFF" stroke-miterlimit="10" x1="429.328" y1="302.278" x2="386.631" y2="144.818"/>
				<line fill="none" stroke="#FFFFFF" stroke-miterlimit="10" x1="423.807" y1="303.673" x2="386.631" y2="144.818"/>
				<line fill="none" stroke="#FFFFFF" stroke-miterlimit="10" x1="418.24" y1="304.873" x2="386.631" y2="144.818"/>
				<line fill="none" stroke="#FFFFFF" stroke-miterlimit="10" x1="412.637" y1="305.878" x2="386.631" y2="144.818"/>
				<line fill="none" stroke="#FFFFFF" stroke-miterlimit="10" x1="406.998" y1="306.688" x2="386.631" y2="144.818"/>
				<line fill="none" stroke="#FFFFFF" stroke-miterlimit="10" x1="401.338" y1="307.3" x2="386.631" y2="144.818"/>
				<line fill="none" stroke="#FFFFFF" stroke-miterlimit="10" x1="395.658" y1="307.714" x2="386.631" y2="144.818"/>
				<line fill="none" stroke="#FFFFFF" stroke-miterlimit="10" x1="389.967" y1="307.93" x2="386.631" y2="144.818"/>
			</g>
			<polyline fill="none" stroke="#000000" stroke-width="0.5" stroke-miterlimit="10" points="450.828,294.802 386.631,144.818 
				386.631,293.844 			"/>
			<path fill="#CCDEF0" stroke="#000000" d="M474.75,316.559c16.043,0.03,27.627-0.103,27.627-0.103V112.178
				c0-3.316-28.369-6.005-63.365-6.005s-63.367,2.688-63.367,6.005l6.004,55.573h33.088l1.662-11.882l58.383-5.11L474.75,316.559z"
				/>
			<path fill="#B2CEE7" stroke="#000000" d="M474.75,294.802h-93.102v16.673c6.146,4.24,59.404,5.021,93.102,5.084V294.802z"/>
			<g>
				<g>
					<line fill="none" stroke="#0DB14B" stroke-width="2" x1="386.631" y1="284.288" x2="435.186" y2="284.288"/>
					<g>
						<polygon fill="#0DB14B" points="433.204,287.193 444.045,284.288 433.204,281.383 						"/>
					</g>
				</g>
			</g>
			<text transform="matrix(1 -0.0019 0.0019 1 387.5098 234.7383)" fill="#00AEEF" font-size="12">+Z</text>
			<text transform="matrix(1 -0.0019 0.0019 1 443.5059 282.7959)" fill="#0DB14B" font-size="12">+Y</text>
			<g>
				<g>
					<line fill="none" stroke="#00AEEF" stroke-width="2" x1="387.047" y1="289.854" x2="387.047" y2="240.913"/>
					<g>
						<polygon fill="#00AEEF" points="389.952,242.895 387.047,232.054 384.142,242.895 						"/>
					</g>
				</g>
			</g>
			<g>
				<path stroke="#000000" stroke-miterlimit="1" d="M392.156,284.05c0.008-3.176-2.57-5.745-5.74-5.745v5.745H392.156z"/>
				<path fill="#FFFFFF" stroke="#010101" stroke-linecap="round" stroke-linejoin="round" stroke-miterlimit="1" d="
					M386.416,278.305c-3.17,0-5.742,2.573-5.742,5.745h5.742V278.305z"/>
				<path stroke="#000000" stroke-miterlimit="1" d="M380.674,284.05c0.002,3.177,2.572,5.742,5.75,5.742l-0.008-5.742H380.674z"/>
				<path fill="#FFFFFF" stroke="#010101" stroke-linecap="round" stroke-linejoin="round" stroke-miterlimit="1" d="
					M386.416,284.05l0.008,5.742c3.166,0,5.74-2.572,5.732-5.742H386.416z"/>
			</g>
			<g>
				<ellipse fill="#FEDA00" cx="386.725" cy="144.894" rx="4.594" ry="4.722"/>
				<path d="M386.305,144.984c0-0.257,0.209-0.466,0.461-0.466c0.258,0,0.467,0.209,0.467,0.466c0,0.256-0.209,0.463-0.467,0.463
					C386.514,145.447,386.305,145.24,386.305,144.984z"/>
				<path d="M387.33,143.929c0.354,0.202,0.594,0.592,0.594,1.039c0,0.035-0.002,0.066-0.004,0.1h2.814
					c0.002-0.033,0.002-0.066,0.002-0.1c0-1.513-0.803-2.836-1.996-3.538L387.33,143.929z"/>
				<path d="M386.227,143.929c-0.357,0.202-0.598,0.592-0.598,1.039c0,0.035,0.002,0.066,0.004,0.1h-2.814c0-0.033,0-0.066,0-0.1
					c0-1.513,0.801-2.836,1.992-3.538L386.227,143.929z"/>
				<path d="M387.424,145.958c-0.352,0.206-0.811,0.276-1.197,0.054c-0.027-0.018-0.057-0.036-0.084-0.054l-1.408,2.436
					c0.029,0.018,0.057,0.035,0.086,0.053c1.311,0.756,2.857,0.629,4.062-0.053L387.424,145.958z"/>
			</g>
			<g>
				<text transform="matrix(1 0 0 1 372.1074 277.8311)" font-size="12">O</text>
			</g>
		</g>
		<g>
			<rect x="184.281" y="57.755" fill="#C0E2CA" stroke="#000000" width="66.711" height="317.394"/>
			<rect x="193.257" y="111.158" fill="#CCDEF0" stroke="#000000" width="49.745" height="183.644"/>
			<polyline fill="#FFF56D" points="252.692,294.393 218.226,142.612 184.281,294.393 			"/>
			<g>
				<line fill="none" stroke="#FFFFFF" stroke-miterlimit="10" x1="250.038" y1="294.972" x2="218.178" y2="142.612"/>
				<line fill="none" stroke="#FFFFFF" stroke-miterlimit="10" x1="244.701" y1="295.99" x2="218.178" y2="142.612"/>
				<line fill="none" stroke="#FFFFFF" stroke-miterlimit="10" x1="239.333" y1="296.822" x2="218.178" y2="142.612"/>
				<line fill="none" stroke="#FFFFFF" stroke-miterlimit="10" x1="233.937" y1="297.467" x2="218.178" y2="142.612"/>
				<line fill="none" stroke="#FFFFFF" stroke-miterlimit="10" x1="228.523" y1="297.923" x2="218.178" y2="142.612"/>
				<line fill="none" stroke="#FFFFFF" stroke-miterlimit="10" x1="223.096" y1="298.189" x2="218.178" y2="142.612"/>
				<line fill="none" stroke="#FFFFFF" stroke-miterlimit="10" x1="217.663" y1="298.267" x2="218.178" y2="142.612"/>
				<line fill="none" stroke="#FFFFFF" stroke-miterlimit="10" x1="212.23" y1="298.154" x2="218.178" y2="142.612"/>
				<line fill="none" stroke="#FFFFFF" stroke-miterlimit="10" x1="206.806" y1="297.853" x2="218.178" y2="142.612"/>
				<line fill="none" stroke="#FFFFFF" stroke-miterlimit="10" x1="201.395" y1="297.361" x2="218.178" y2="142.612"/>
				<line fill="none" stroke="#FFFFFF" stroke-miterlimit="10" x1="196.004" y1="296.682" x2="218.178" y2="142.612"/>
				<line fill="none" stroke="#FFFFFF" stroke-miterlimit="10" x1="190.64" y1="295.814" x2="218.178" y2="142.612"/>
				<line fill="none" stroke="#FFFFFF" stroke-miterlimit="10" x1="185.31" y1="294.76" x2="218.178" y2="142.612"/>
			</g>
			<polyline fill="none" stroke="#000000" stroke-width="0.5" stroke-miterlimit="10" points="252.692,294.393 218.178,142.612 
				184.281,294.393 			"/>
			<path fill="#B2CEE7" stroke="#000000" d="M256.589,311.475c0,2.81-17.287,5.088-38.611,5.088
				c-21.324,0-38.611-2.278-38.611-5.088h-0.197v-16.673h77.418V311.475z"/>
			<path fill="#CCDEF0" stroke="#000000" d="M241.222,111.778c0-4.056-10.405-7.345-23.242-7.345
				c-12.836,0-23.24,3.289-23.241,7.346l5.95,57.043l34.584,0L241.222,111.778z"/>
			
				<line fill="none" stroke="#000000" stroke-width="0.5" stroke-dasharray="4,4" x1="218.155" y1="305.683" x2="218.155" y2="16.852"/>
			<text transform="matrix(1 -0.0019 0.0019 1 272.7725 283.4717)" fill="#ED1C24" font-size="12">+X</text>
			<g>
				<g>
					<line fill="none" stroke="#ED1C24" stroke-width="2" x1="217.221" y1="284.288" x2="265.775" y2="284.288"/>
					<g>
						<polygon fill="#ED1C24" points="263.793,287.193 274.634,284.288 263.793,281.383 						"/>
					</g>
				</g>
			</g>
			<text transform="matrix(1 -0.0019 0.0019 1 219.6748 234.7363)" fill="#00AEEF" font-size="12">+Z</text>
			<g>
				<g>
					<line fill="none" stroke="#00AEEF" stroke-width="2" x1="218.044" y1="289.854" x2="218.044" y2="240.913"/>
					<g>
						<polygon fill="#00AEEF" points="220.949,242.895 218.044,232.054 215.139,242.895 						"/>
					</g>
				</g>
			</g>
			<g>
				<path stroke="#000000" stroke-miterlimit="1" d="M223.618,284.05c0.006-3.176-2.571-5.744-5.743-5.744v5.744H223.618z"/>
				<path fill="#FFFFFF" stroke="#010101" stroke-linecap="round" stroke-linejoin="round" stroke-miterlimit="1" d="
					M217.875,278.306c-3.167,0-5.74,2.572-5.74,5.744h5.74V278.306z"/>
				<path stroke="#000000" stroke-miterlimit="1" d="M212.135,284.05c0.002,3.176,2.573,5.741,5.748,5.741l-0.008-5.741H212.135z"/>
				<path fill="#FFFFFF" stroke="#010101" stroke-linecap="round" stroke-linejoin="round" stroke-miterlimit="1" d="
					M217.875,284.05l0.008,5.741c3.167,0,5.741-2.571,5.735-5.741H217.875z"/>
			</g>
			<g>
				<ellipse fill="#FEDA00" cx="217.98" cy="144.894" rx="4.594" ry="4.722"/>
				<path d="M217.561,144.984c0-0.257,0.209-0.466,0.461-0.466c0.258,0,0.467,0.209,0.467,0.466c0,0.256-0.209,0.463-0.467,0.463
					C217.77,145.447,217.561,145.24,217.561,144.984z"/>
				<path d="M218.586,143.929c0.354,0.202,0.594,0.592,0.594,1.039c0,0.035-0.002,0.066-0.004,0.1h2.814
					c0.002-0.033,0.002-0.066,0.002-0.1c0-1.513-0.803-2.836-1.996-3.538L218.586,143.929z"/>
				<path d="M217.482,143.929c-0.357,0.202-0.598,0.592-0.598,1.039c0,0.035,0.002,0.066,0.004,0.1h-2.814c0-0.033,0-0.066,0-0.1
					c0-1.513,0.801-2.836,1.992-3.538L217.482,143.929z"/>
				<path d="M218.68,145.958c-0.352,0.206-0.811,0.276-1.197,0.054c-0.027-0.018-0.057-0.036-0.084-0.054l-1.408,2.436
					c0.029,0.018,0.057,0.035,0.086,0.053c1.311,0.756,2.857,0.629,4.062-0.053L218.68,145.958z"/>
			</g>
			<g>
				<text transform="matrix(1 0 0 1 202.9731 277.8311)" font-size="12">O</text>
			</g>
		</g>
		<g>
			
				<line fill="none" stroke="#000000" stroke-width="0.5" stroke-dasharray="8,2,2,2" x1="386.27" y1="284.03" x2="74.06" y2="284.03"/>
			<g>
				<g>
					<polyline fill="none" stroke="#005695" stroke-linejoin="round" points="375.383,295.658 349.601,323.563 342.314,323.563 
											"/>
					<g>
						<polygon fill="#005695" points="371.904,295.143 381.395,289.151 376.172,299.086 						"/>
					</g>
				</g>
			</g>
			<g>
				<g>
					<polyline fill="none" stroke="#005695" stroke-linejoin="round" points="229.757,295.066 265.407,323.563 272.335,323.563 
											"/>
					<g>
						<polygon fill="#005695" points="229.491,298.572 222.837,289.534 233.119,294.034 						"/>
					</g>
				</g>
			</g>
			<rect x="274.212" y="318.477" fill="none" width="67.934" height="10.174"/>
			<text transform="matrix(1 0 0 1 274.2104 327.0713)" font-size="12">ISOCENTER</text>
		</g>
	</g>
</g>
</svg>
