<?xml version="1.0" encoding="utf-8"?>

<!DOCTYPE svg PUBLIC "-//W3C//DTD SVG 1.1//EN" "http://www.w3.org/Graphics/SVG/1.1/DTD/svg11.dtd">
<svg version="1.1" id="Layer_1" xmlns="http://www.w3.org/2000/svg" xmlns:xlink="http://www.w3.org/1999/xlink" x="0px" y="0px"
	 width="602px" height="512px" viewBox="0 0 602 512" enable-background="new 0 0 602 512" xml:space="preserve">

<defs>
	<style type="text/css">
	text {
	  font-family: Helvetica, Verdana, ArialUnicodeMS, san-serif
	}
	</style>
</defs>

<g>
   <desc>
	PS 3.3 Part 3: Information Object Definitions
   </desc>
</g>

<g>
	<rect x="1" y="1" fill="#F5EED8" width="600" height="510"/>
	<g>
		<g>
			<polyline fill="#C2E2CC" points="55.947,496.536 55.947,34.036 163.907,34.036 163.907,496.536 			"/>
			<line fill="none" stroke="#000000" x1="55.947" y1="34.036" x2="55.947" y2="496.536"/>
			<line fill="none" stroke="#000000" x1="163.907" y1="34.036" x2="163.907" y2="496.536"/>
			<rect x="70.509" y="91.035" fill="#CEDFEF" stroke="#000000" width="80.701" height="296.511"/>
			<polyline fill="#FFF479" points="166.931,388.863 111.016,142.063 55.947,388.863 			"/>
			<g>
				<line fill="none" stroke="#FFFFFF" stroke-miterlimit="10" x1="162.625" y1="389.218" x2="110.938" y2="142.063"/>
				<line fill="none" stroke="#FFFFFF" stroke-miterlimit="10" x1="153.967" y1="390.87" x2="110.938" y2="142.063"/>
				<line fill="none" stroke="#FFFFFF" stroke-miterlimit="10" x1="145.256" y1="392.221" x2="110.938" y2="142.063"/>
				<line fill="none" stroke="#FFFFFF" stroke-miterlimit="10" x1="136.503" y1="393.266" x2="110.938" y2="142.063"/>
				<line fill="none" stroke="#FFFFFF" stroke-miterlimit="10" x1="127.72" y1="394.006" x2="110.938" y2="142.063"/>
				<line fill="none" stroke="#FFFFFF" stroke-miterlimit="10" x1="118.917" y1="394.438" x2="110.938" y2="142.063"/>
				<line fill="none" stroke="#FFFFFF" stroke-miterlimit="10" x1="110.103" y1="394.563" x2="110.938" y2="142.063"/>
				<line fill="none" stroke="#FFFFFF" stroke-miterlimit="10" x1="101.291" y1="394.381" x2="110.938" y2="142.063"/>
				<line fill="none" stroke="#FFFFFF" stroke-miterlimit="10" x1="92.49" y1="393.892" x2="110.938" y2="142.063"/>
				<line fill="none" stroke="#FFFFFF" stroke-miterlimit="10" x1="83.711" y1="393.095" x2="110.938" y2="142.063"/>
				<line fill="none" stroke="#FFFFFF" stroke-miterlimit="10" x1="74.966" y1="391.992" x2="110.938" y2="142.063"/>
				<line fill="none" stroke="#FFFFFF" stroke-miterlimit="10" x1="66.264" y1="390.585" x2="110.938" y2="142.063"/>
				<line fill="none" stroke="#FFFFFF" stroke-miterlimit="10" x1="57.617" y1="388.874" x2="110.938" y2="142.063"/>
			</g>
			<path fill="#B4CFE6" stroke="#000000" d="M48.238,389.271h124.967v27.048c0,4.558-28.045,8.254-62.639,8.254
				c-34.592,0-62.328-3.696-62.328-8.254V389.271z"/>
			<polyline fill="none" stroke="#000000" stroke-width="0.5" stroke-miterlimit="10" points="166.931,388.863 110.938,142.063 
				55.947,388.278 			"/>
			<path fill="#CEDFEF" stroke="#000000" d="M148.322,92.041c0-6.58-16.88-11.916-37.705-11.916
				c-20.823,0-37.702,5.335-37.704,11.917l9.653,92.54l56.104-0.001L148.322,92.041z"/>
			
				<line fill="none" stroke="#000000" stroke-width="0.5" stroke-dasharray="4,4" x1="110.902" y1="371.557" x2="110.902" y2="15.536"/>
			
				<text transform="matrix(1 -0.0019 0.0019 1 163.9082 368.6338)" fill="#EB222F" font-size="12.9783">+X</text>
			<g>
				<g>
					<line fill="none" stroke="#EB222F" stroke-width="2" x1="109.386" y1="371.887" x2="167.385" y2="371.887"/>
					<g>
						<polygon fill="#EB222F" points="165.404,374.792 176.245,371.887 165.404,368.981 						"/>
					</g>
				</g>
			</g>
			
				<text transform="matrix(1 -0.0019 0.0019 1 113.3936 311.9854)" fill="#00B0ED" font-size="12.9783">+Z</text>
			<g>
				<g>
					<line fill="none" stroke="#00B0ED" stroke-width="2" x1="110.721" y1="371.01" x2="110.721" y2="321.151"/>
					<g>
						<polygon fill="#00B0ED" points="113.626,323.133 110.721,312.292 107.816,323.133 						"/>
					</g>
				</g>
			</g>
			<g>
				<g>
					<line fill="none" stroke="#EB222F" stroke-width="2" x1="123.987" y1="404.004" x2="181.986" y2="404.004"/>
					<g>
						<polygon fill="#EB222F" points="180.004,406.909 190.845,404.004 180.004,401.099 						"/>
					</g>
				</g>
			</g>
			<g>
				<g>
					<line fill="none" stroke="#00B0ED" stroke-width="2" x1="125.322" y1="404.004" x2="125.322" y2="357.062"/>
					<g>
						<polygon fill="#00B0ED" points="128.227,359.043 125.322,348.202 122.417,359.043 						"/>
					</g>
				</g>
			</g>
			<g>
				<path fill="#FDD931" d="M103.166,145.764c0-4.23,3.34-7.66,7.453-7.66c4.112,0,7.452,3.43,7.452,7.66s-3.34,7.657-7.452,7.657
					C106.505,153.421,103.166,149.994,103.166,145.764z"/>
				<path d="M109.937,145.911c0-0.417,0.339-0.755,0.748-0.755c0.418,0,0.757,0.339,0.757,0.755c0,0.415-0.339,0.751-0.757,0.751
					C110.276,146.662,109.937,146.326,109.937,145.911z"/>
				<path d="M111.601,144.199c0.573,0.328,0.963,0.96,0.963,1.686c0,0.057-0.003,0.108-0.007,0.162h4.566
					c0.003-0.054,0.003-0.108,0.003-0.162c0-2.454-1.302-4.601-3.238-5.74L111.601,144.199z"/>
				<path d="M109.81,144.199c-0.579,0.328-0.97,0.96-0.97,1.686c0,0.057,0.004,0.108,0.007,0.162h-4.565c0-0.054,0-0.108,0-0.162
					c0-2.454,1.299-4.601,3.231-5.74L109.81,144.199z"/>
				<path d="M111.752,147.491c-0.57,0.334-1.314,0.448-1.942,0.087c-0.044-0.029-0.092-0.059-0.136-0.087l-2.285,3.951
					c0.048,0.028,0.093,0.057,0.14,0.085c2.126,1.227,4.636,1.021,6.591-0.085L111.752,147.491z"/>
			</g>
			<g>
				<text transform="matrix(1 0 0 1 94.2407 367.2676)" font-size="12.9782">O</text>
			</g>
			<g>
				<text transform="matrix(1.0877 0 0 1 121.1729 345.9961)"><tspan x="0" y="0" fill="#00B0ED" font-size="12.9782">+Z</tspan><tspan x="14.676" y="2.434" fill="#00B0ED" font-size="12.9782">b</tspan></text>
			</g>
			<g>
				<text transform="matrix(1.0877 0 0 1 121.8223 419.0732)"><tspan x="0" y="0" font-size="12.9782">O</tspan><tspan x="9.68" y="2.434" font-size="12.9782">b</tspan></text>
			</g>
			<g>
				<text transform="matrix(1.0877 0 0 1 178.5952 400.915)"><tspan x="0" y="0" fill="#EB222F" font-size="12.9782">+X</tspan><tspan x="15.405" y="2.434" fill="#EB222F" font-size="12.9782">b</tspan></text>
			</g>
			<rect x="56.655" y="393.442" fill="none" width="59.253" height="13.203"/>
			<text transform="matrix(1 0 0 1 56.6572 402.7324)" font-size="12.9782">(Bx,By,Bz)</text>
			<g>
				<g>
					
						<line fill="none" stroke="#000000" stroke-width="3" stroke-dasharray="3,3" x1="110.679" y1="371.58" x2="119.396" y2="390.397"/>
					<g>
						<polygon points="115.232,389.705 123.864,400.044 121.56,386.774 						"/>
					</g>
				</g>
			</g>
			<g>
				<path stroke="#000000" stroke-miterlimit="1" d="M114.729,371.498c0.005-2.468-1.998-4.463-4.462-4.463v4.463H114.729z"/>
				<path fill="#FFFFFF" stroke="#010101" stroke-linecap="round" stroke-linejoin="round" stroke-miterlimit="1" d="
					M110.267,367.035c-2.461,0-4.461,1.999-4.461,4.463h4.461V367.035z"/>
				<path stroke="#000000" stroke-miterlimit="1" d="M105.806,371.498c0.002,2.469,2,4.462,4.467,4.462l-0.006-4.462H105.806z"/>
				<path fill="#FFFFFF" stroke="#010101" stroke-linecap="round" stroke-linejoin="round" stroke-miterlimit="1" d="
					M110.267,371.498l0.006,4.462c2.461,0,4.461-1.998,4.456-4.462H110.267z"/>
			</g>
			<g>
				<path fill="#FFFFFF" stroke="#000000" stroke-miterlimit="1" d="M128.972,404.021c0.005-2.019-1.635-3.65-3.65-3.65v3.65
					H128.972z"/>
				<path fill="#808080" stroke="#000000" stroke-linecap="round" stroke-linejoin="round" stroke-miterlimit="1" d="
					M125.322,400.37c-2.015,0-3.65,1.636-3.65,3.65h3.65V400.37z"/>
				<path fill="#FFFFFF" stroke="#000000" stroke-miterlimit="1" d="M121.671,404.021c0.002,2.02,1.636,3.649,3.655,3.649
					l-0.005-3.649H121.671z"/>
				<path fill="#808080" stroke="#000000" stroke-linecap="round" stroke-linejoin="round" stroke-miterlimit="1" d="
					M125.322,404.021l0.005,3.649c2.013,0,3.65-1.636,3.646-3.649H125.322z"/>
			</g>
		</g>
		<g>
			<polyline fill="#C2E2CC" points="501.775,496.5 501.775,34 565.287,34 565.287,496.5 501.775,496.5 			"/>
			<line fill="none" stroke="#000000" x1="501.775" y1="34" x2="501.775" y2="496.5"/>
			<rect x="492.45" y="361.88" fill="#CEDFEF" stroke="#000000" width="9.325" height="54.095"/>
			<polyline fill="#FFF479" points="408.861,390.011 304.702,146.688 304.702,388.456 			"/>
			<g>
				<line fill="none" stroke="#FFFFFF" stroke-miterlimit="10" x1="400.269" y1="392.415" x2="304.664" y2="145.604"/>
				<line fill="none" stroke="#FFFFFF" stroke-miterlimit="10" x1="391.597" y1="395.601" x2="304.664" y2="145.604"/>
				<line fill="none" stroke="#FFFFFF" stroke-miterlimit="10" x1="382.819" y1="398.482" x2="304.664" y2="145.604"/>
				<line fill="none" stroke="#FFFFFF" stroke-miterlimit="10" x1="373.944" y1="401.056" x2="304.664" y2="145.604"/>
				<line fill="none" stroke="#FFFFFF" stroke-miterlimit="10" x1="364.987" y1="403.317" x2="304.664" y2="145.604"/>
				<line fill="none" stroke="#FFFFFF" stroke-miterlimit="10" x1="355.957" y1="405.265" x2="304.664" y2="145.604"/>
				<line fill="none" stroke="#FFFFFF" stroke-miterlimit="10" x1="346.866" y1="406.895" x2="304.664" y2="145.604"/>
				<line fill="none" stroke="#FFFFFF" stroke-miterlimit="10" x1="337.719" y1="408.208" x2="304.664" y2="145.604"/>
				<line fill="none" stroke="#FFFFFF" stroke-miterlimit="10" x1="328.533" y1="409.201" x2="304.664" y2="145.604"/>
				<line fill="none" stroke="#FFFFFF" stroke-miterlimit="10" x1="319.319" y1="409.873" x2="304.664" y2="145.604"/>
				<line fill="none" stroke="#FFFFFF" stroke-miterlimit="10" x1="310.085" y1="410.224" x2="304.664" y2="145.604"/>
			</g>
			<polyline fill="none" stroke="#000000" stroke-width="0.5" stroke-miterlimit="10" points="408.823,388.926 304.664,145.604 
				304.664,387.372 			"/>
			<path fill="#CEDFEF" stroke="#000000" d="M447.632,424.222c26.025,0.05,44.818-0.166,44.818-0.166V92.651
				c0-5.38-46.022-9.742-102.796-9.742s-102.816,4.361-102.816,9.742l9.739,90.155h53.695l2.696-19.276l94.714-8.29L447.632,424.222
				z"/>
			<path fill="#B4CFE6" stroke="#000000" d="M296.578,405.815v10.159c9.977,6.879,96.387,8.146,151.054,8.247v-35.296H296.578"/>
			<g>
				<g>
					<line fill="none" stroke="#21B152" stroke-width="2" x1="304.663" y1="371.87" x2="362.676" y2="371.87"/>
					<g>
						<polygon fill="#21B152" points="360.694,374.775 371.535,371.87 360.694,368.965 						"/>
					</g>
				</g>
			</g>
			
				<text transform="matrix(1 -0.0019 0.0019 1 297.6514 311.9492)" fill="#00B0ED" font-size="12.9783">+Z</text>
			
				<text transform="matrix(1 -0.0019 0.0019 1 359.291 368.5967)" fill="#21B152" font-size="12.9783">+Y</text>
			<g>
				<g>
					<line fill="none" stroke="#00B0ED" stroke-width="2" x1="305.34" y1="371.87" x2="305.34" y2="322.291"/>
					<g>
						<polygon fill="#00B0ED" points="308.249,324.272 305.34,313.432 302.431,324.272 						"/>
					</g>
				</g>
			</g>
			<g>
				<path fill="#FDD931" d="M297.361,145.726c0-4.23,3.339-7.66,7.455-7.66c4.121,0,7.464,3.43,7.464,7.66s-3.343,7.657-7.464,7.657
					C300.7,153.382,297.361,149.956,297.361,145.726z"/>
				<path d="M304.135,145.873c0-0.417,0.339-0.755,0.748-0.755c0.419,0,0.759,0.339,0.759,0.755c0,0.416-0.34,0.751-0.759,0.751
					C304.474,146.624,304.135,146.288,304.135,145.873z"/>
				<path d="M305.8,144.16c0.575,0.328,0.964,0.96,0.964,1.686c0,0.057-0.002,0.108-0.006,0.162h4.574
					c0.003-0.054,0.003-0.107,0.003-0.162c0-2.454-1.303-4.601-3.243-5.74L305.8,144.16z"/>
				<path d="M304.007,144.16c-0.579,0.328-0.971,0.96-0.971,1.686c0,0.057,0.004,0.108,0.007,0.162h-4.567c0-0.054,0-0.107,0-0.162
					c0-2.454,1.299-4.601,3.231-5.74L304.007,144.16z"/>
				<path d="M305.952,147.452c-0.571,0.334-1.316,0.448-1.945,0.087c-0.044-0.029-0.092-0.059-0.136-0.087l-2.288,3.951
					c0.048,0.029,0.092,0.057,0.14,0.085c2.128,1.227,4.642,1.021,6.6-0.085L305.952,147.452z"/>
			</g>
			<g>
				<text transform="matrix(1 0 0 1 289.0742 367.2324)" font-size="12.9782">O</text>
			</g>
			<text transform="matrix(1.0877 -0.0021 0.0019 1 378.3887 400.9395)"><tspan x="0" y="0" fill="#21B152" font-size="12.9783">+Y</tspan><tspan x="15.406" y="2.433" fill="#21B152" font-size="12.9783">b</tspan></text>
			<text transform="matrix(1.0877 -0.0021 0.0019 1 313.8301 344.6602)"><tspan x="0" y="0" fill="#00B0ED" font-size="12.9783">+Z</tspan><tspan x="14.677" y="2.434" fill="#00B0ED" font-size="12.9783">b</tspan></text>
			<g>
				<text transform="matrix(1.0877 0 0 1 321.624 419.0381)"><tspan x="0" y="0" font-size="12.9782">O</tspan><tspan x="9.679" y="2.434" font-size="12.9782">b</tspan></text>
			</g>
			<g>
				<g>
					<line fill="none" stroke="#21B152" stroke-width="2" x1="324.13" y1="403.35" x2="382.132" y2="403.35"/>
					<g>
						<polygon fill="#21B152" points="380.15,406.255 390.991,403.35 380.15,400.444 						"/>
					</g>
				</g>
			</g>
			<g>
				<g>
					<line fill="none" stroke="#00B0ED" stroke-width="2" x1="325.466" y1="403.35" x2="325.466" y2="356.407"/>
					<g>
						<polygon fill="#00B0ED" points="328.371,358.389 325.466,347.548 322.561,358.389 						"/>
					</g>
				</g>
			</g>
			<g>
				<g>
					
						<line fill="none" stroke="#000000" stroke-width="3" stroke-dasharray="3,3" x1="305.012" y1="371.775" x2="317.522" y2="391.085"/>
					<g>
						<polygon points="313.304,390.984 323.302,400.008 319.156,387.193 						"/>
					</g>
				</g>
			</g>
			<g>
				<path stroke="#000000" stroke-miterlimit="1" d="M309.478,371.775c0.007-2.467-2.001-4.463-4.466-4.463v4.463H309.478z"/>
				<path fill="#FFFFFF" stroke="#010101" stroke-linecap="round" stroke-linejoin="round" stroke-miterlimit="1" d="
					M305.012,367.312c-2.467,0-4.465,1.999-4.465,4.463h4.465V367.312z"/>
				<path stroke="#000000" stroke-miterlimit="1" d="M300.546,371.775c0.002,2.467,1.999,4.459,4.471,4.459l-0.006-4.459H300.546z"
					/>
				<path fill="#FFFFFF" stroke="#010101" stroke-linecap="round" stroke-linejoin="round" stroke-miterlimit="1" d="
					M305.012,371.775l0.006,4.459c2.462,0,4.467-1.997,4.46-4.459H305.012z"/>
			</g>
			<g>
				<path fill="#FFFFFF" stroke="#000000" stroke-miterlimit="1" d="M329.046,403.671c0.005-2.019-1.634-3.651-3.649-3.651v3.651
					H329.046z"/>
				<path fill="#808080" stroke="#000000" stroke-linecap="round" stroke-linejoin="round" stroke-miterlimit="1" d="
					M325.396,400.02c-2.015,0-3.65,1.636-3.65,3.651h3.65V400.02z"/>
				<path fill="#FFFFFF" stroke="#000000" stroke-miterlimit="1" d="M321.746,403.671c0.001,2.019,1.636,3.648,3.655,3.648
					l-0.005-3.648H321.746z"/>
				<path fill="#808080" stroke="#000000" stroke-linecap="round" stroke-linejoin="round" stroke-miterlimit="1" d="
					M325.396,403.671l0.005,3.648c2.013,0,3.649-1.635,3.645-3.648H325.396z"/>
			</g>
			<polygon fill="none" points="254.779,405.097 255.071,392.479 314.338,392.479 314.047,405.097 			"/>
			<text transform="matrix(1 0 0 1 255.0547 401.7686)" font-size="12.9782">(Bx,By,Bz)</text>
		</g>
	</g>
</g>
</svg>
