<?xml version="1.0" encoding="utf-8"?>

<!DOCTYPE svg PUBLIC "-//W3C//DTD SVG 1.1//EN" "http://www.w3.org/Graphics/SVG/1.1/DTD/svg11.dtd">
<svg version="1.1" id="Layer_1" xmlns="http://www.w3.org/2000/svg" xmlns:xlink="http://www.w3.org/1999/xlink" x="0px" y="0px"
	 width="502px" height="202px" viewBox="0 0 502 202" enable-background="new 0 0 502 202" xml:space="preserve">

<defs>
	<style type="text/css">
	text {
	  font-family: Helvetica, Verdana, ArialUnicodeMS, san-serif
	}
	</style>
</defs>

<g>
   <desc>
	PS 3.3 Part 3: Information Object Definitions
   </desc>
</g>

<g>
	<rect x="1" y="1" fill="#F5EED6" width="500" height="200"/>
	<g>
		<g>
			<g>
				<polyline fill="none" stroke="#005695" stroke-width="2" stroke-miterlimit="1" points="80.4,99.696 92.839,99.696 
					92.839,154.404 99.166,154.404 				"/>
				<g>
					<polygon fill="#005695" points="97.58,156.729 106.253,154.404 97.58,152.08 					"/>
				</g>
			</g>
		</g>
		<g>
			<g>
				<polyline fill="none" stroke="#005695" stroke-width="2" stroke-miterlimit="1" points="80.4,99.888 92.839,99.888 
					92.839,45.179 99.166,45.179 				"/>
				<g>
					<polygon fill="#005695" points="97.58,47.503 106.253,45.179 97.58,42.854 					"/>
				</g>
			</g>
		</g>
		<g>
			<g>
				
					<line fill="none" stroke="#005695" stroke-width="2" stroke-miterlimit="1" x1="159.803" y1="47.957" x2="177.417" y2="47.957"/>
				<g>
					<polygon fill="#005695" points="175.831,50.281 184.504,47.957 175.831,45.633 					"/>
				</g>
			</g>
		</g>
		<g>
			<g>
				
					<line fill="none" stroke="#005695" stroke-width="2" stroke-miterlimit="1" x1="238.868" y1="47.957" x2="251.417" y2="47.957"/>
				<g>
					<polygon fill="#005695" points="249.831,50.281 258.504,47.957 249.831,45.633 					"/>
				</g>
			</g>
		</g>
		<g>
			<g>
				
					<line fill="none" stroke="#005695" stroke-width="2" stroke-miterlimit="1" x1="286.469" y1="154.932" x2="347.726" y2="154.932"/>
				<g>
					<polygon fill="#005695" points="346.141,157.256 354.813,154.932 346.141,152.607 					"/>
				</g>
			</g>
		</g>
		<g>
			<g>
				
					<line fill="none" stroke="#005695" stroke-width="2" stroke-miterlimit="1" x1="311.636" y1="47.957" x2="371.906" y2="47.957"/>
				<g>
					<polygon fill="#005695" points="370.321,50.281 378.994,47.957 370.321,45.633 					"/>
				</g>
			</g>
		</g>
		
			<rect x="378.994" y="16.498" fill="#4F8ABE" stroke="#010101" stroke-width="0.75" stroke-linecap="round" stroke-linejoin="round" stroke-miterlimit="1" width="72" height="63"/>
		<g>
			<text transform="matrix(1 0 0 1 391.7637 51.0366)" font-size="11">DISPLAY</text>
		</g>
		
			<rect x="354.813" y="125.752" fill="#B2CEE7" stroke="#010101" stroke-width="0.75" stroke-linecap="round" stroke-linejoin="round" stroke-miterlimit="1" width="120.363" height="56"/>
		<g>
			<text transform="matrix(1 0 0 1 367.3105 154.8711)"><tspan x="0" y="0" font-size="11">Measurement Units</tspan><tspan x="8.236" y="10.533" font-size="11">Code Sequence</tspan><tspan x="16.804" y="21.066" font-size="11">(0040,08EA)</tspan></text>
		</g>
		<rect x="381.61" y="129.912" fill="#FFFFFF" stroke="#000000" stroke-miterlimit="1" width="66.77" height="13"/>
		<line fill="#FFFFFF" stroke="#000000" stroke-miterlimit="1" x1="414.995" y1="129.912" x2="414.995" y2="142.912"/>
		<g>
			<text transform="matrix(1 0 0 1 383.457 140.7285)" font-size="11">Value</text>
		</g>
		<g>
			<text transform="matrix(1 0 0 1 421.4385 140.7285)" font-size="11">Unit</text>
		</g>
		<text transform="matrix(1 0 0 1 293.666 147.3496)"><tspan x="0" y="0" font-size="11">Real World</tspan><tspan x="13.136" y="20.533" font-size="11">Value</tspan></text>
		
			<rect x="106.459" y="29.964" fill="#86B2D8" stroke="#010101" stroke-width="0.75" stroke-linecap="round" stroke-linejoin="round" stroke-miterlimit="1" width="54" height="36"/>
		<g>
			<text transform="matrix(1 0 0 1 112.979 44.4038)"><tspan x="0" y="0" font-size="11">Modality</tspan><tspan x="10.089" y="10.533" font-size="11">LUT</tspan></text>
		</g>
		
			<rect x="184.504" y="29.964" fill="#86B2D8" stroke="#010101" stroke-width="0.75" stroke-linecap="round" stroke-linejoin="round" stroke-miterlimit="1" width="54" height="36"/>
		<g>
			<text transform="matrix(1 0 0 1 202.0244 44.4038)"><tspan x="0" y="0" font-size="11">VOI</tspan><tspan x="-0.916" y="10.533" font-size="11">LUT</tspan></text>
		</g>
		
			<rect x="258.504" y="29.964" fill="#86B2D8" stroke="#010101" stroke-width="0.75" stroke-linecap="round" stroke-linejoin="round" stroke-miterlimit="1" width="54" height="36"/>
		<g>
			<text transform="matrix(1 0 0 1 281.8301 44.4038)"><tspan x="0" y="0" font-size="11">P</tspan><tspan x="-6.722" y="10.533" font-size="11">LUT</tspan></text>
		</g>
		
			<rect x="106.459" y="122.502" fill="#86B2D8" stroke="#010101" stroke-width="0.75" stroke-linecap="round" stroke-linejoin="round" stroke-miterlimit="1" width="180.729" height="63"/>
		<g>
			<text transform="matrix(1 0 0 1 113.3594 135.2402)"><tspan x="0" y="0" font-size="11">Real-Value LUT Data (0040,9212)</tspan><tspan x="78.573" y="16.533" font-size="11">or</tspan><tspan x="40.667" y="33.067" font-size="11">Real World Value</tspan><tspan x="11.612" y="43.601" font-size="11">Intercept and Slope attributes</tspan></text>
		</g>
		
			<rect x="26.823" y="81.888" fill="#86B2D8" stroke="#010101" stroke-width="0.75" stroke-linecap="round" stroke-linejoin="round" stroke-miterlimit="1" width="54" height="36"/>
		<g>
			<text transform="matrix(1 0 0 1 37.6167 96.3276)"><tspan x="0" y="0" font-size="11">Stored</tspan><tspan x="-0.612" y="10.534" font-size="11">Values</tspan></text>
		</g>
		<g>
			<g>
				
					<line fill="none" stroke="#005695" stroke-width="2" stroke-miterlimit="1" x1="414.868" y1="63.382" x2="414.868" y2="118.664"/>
				<g>
					<polygon fill="#005695" points="412.544,117.079 414.868,125.752 417.192,117.079 					"/>
				</g>
			</g>
		</g>
		<g>
			<path fill="#FFFFFF" d="M411.368,67.892c-0.553,0-1-0.448-1-1v-7c0-0.552,0.447-1,1-1h7c0.553,0,1,0.448,1,1v7
				c0,0.552-0.447,1-1,1H411.368z"/>
			<g>
				<path fill="#005695" d="M418.368,59.892v7h-7v-7H418.368 M418.368,57.892h-7c-1.104,0-2,0.896-2,2v7c0,1.104,0.896,2,2,2h7
					c1.104,0,2-0.896,2-2v-7C420.368,58.787,419.473,57.892,418.368,57.892L418.368,57.892z"/>
			</g>
		</g>
	</g>
</g>
</svg>
