<?xml version="1.0" encoding="utf-8"?>

<!DOCTYPE svg PUBLIC "-//W3C//DTD SVG 1.1//EN" "http://www.w3.org/Graphics/SVG/1.1/DTD/svg11.dtd">
<svg version="1.1" id="Layer_1" xmlns="http://www.w3.org/2000/svg" xmlns:xlink="http://www.w3.org/1999/xlink" x="0px" y="0px"
	 width="502px" height="247px" viewBox="0 0 502 247" enable-background="new 0 0 502 247" xml:space="preserve">

<defs>
	<style type="text/css">
	text {
	  font-family: Helvetica, Verdana, ArialUnicodeMS, san-serif
	}
	</style>
</defs>

<g>
   <desc>
	PS 3.3 Part 3: Information Object Definitions
   </desc>
</g>

<g>
	<rect x="1" y="1" fill="#F5EED6" width="500" height="245"/>
	<g>
		<path fill="none" stroke="#939598" stroke-width="0.5" stroke-miterlimit="10" stroke-dasharray="1,1" d="M258.235,123.983
			c5.078,10.11,7.938,21.528,7.938,33.613"/>
		<path fill="none" stroke="#939598" stroke-width="0.5" stroke-miterlimit="10" stroke-dasharray="1,1" d="M123.646,190.289
			c-4.793-9.881-7.481-20.973-7.481-32.692"/>
		<path fill="none" stroke="#939598" stroke-width="0.5" stroke-miterlimit="10" stroke-dasharray="1,1" d="M275.978,117.665
			c5.538,12.046,8.629,25.464,8.629,39.608"/>
		<path fill="none" stroke="#939598" stroke-width="0.5" stroke-miterlimit="10" stroke-dasharray="1,1" d="M106.459,198.513
			c-6.019-12.46-9.396-26.452-9.396-41.239"/>
		<path fill="none" stroke="#939598" stroke-width="0.5" stroke-miterlimit="10" stroke-dasharray="1,1" d="M89.681,206.729
			c-7.202-14.899-11.242-31.626-11.242-49.3"/>
		<path fill="none" stroke="#939598" stroke-width="0.5" stroke-miterlimit="10" stroke-dasharray="1,1" d="M292.6,108.501
			c7.092,14.806,11.065,31.401,11.065,48.929"/>
		<text transform="matrix(1 0 0 1 117.4307 23.4629)" font-size="10">IEC X-ray Image Receptor Z-Axis</text>
		<g>
			<g>
				<line fill="none" stroke="#003468" stroke-miterlimit="10" x1="52.991" y1="157.6" x2="329.347" y2="157.6"/>
			</g>
			
				<line fill="none" stroke="#003468" stroke-linecap="square" stroke-miterlimit="10" x1="116.164" y1="152.6" x2="116.165" y2="162.461"/>
			
				<line fill="none" stroke="#003468" stroke-linecap="square" stroke-miterlimit="10" x1="134.914" y1="152.602" x2="134.915" y2="162.6"/>
			
				<line fill="none" stroke="#003468" stroke-linecap="square" stroke-miterlimit="10" x1="153.669" y1="152.6" x2="153.665" y2="162.466"/>
			
				<line fill="none" stroke="#003468" stroke-linecap="square" stroke-miterlimit="10" x1="172.419" y1="152.596" x2="172.415" y2="162.604"/>
			
				<line fill="none" stroke="#003468" stroke-linecap="square" stroke-miterlimit="10" x1="59.91" y1="152.6" x2="59.911" y2="162.461"/>
			
				<line fill="none" stroke="#003468" stroke-linecap="square" stroke-miterlimit="10" x1="78.66" y1="152.602" x2="78.661" y2="162.6"/>
			
				<line fill="none" stroke="#003468" stroke-linecap="square" stroke-miterlimit="10" x1="97.415" y1="152.6" x2="97.411" y2="162.466"/>
			
				<line fill="none" stroke="#003468" stroke-linecap="square" stroke-miterlimit="10" x1="191.17" y1="152.596" x2="191.166" y2="162.604"/>
			
				<line fill="none" stroke="#003468" stroke-linecap="square" stroke-miterlimit="10" x1="209.923" y1="152.601" x2="209.921" y2="162.6"/>
			
				<line fill="none" stroke="#003468" stroke-linecap="square" stroke-miterlimit="10" x1="228.673" y1="152.6" x2="228.673" y2="162.461"/>
			
				<line fill="none" stroke="#003468" stroke-linecap="square" stroke-miterlimit="10" x1="247.423" y1="152.6" x2="247.423" y2="162.6"/>
			
				<line fill="none" stroke="#003468" stroke-linecap="square" stroke-miterlimit="10" x1="266.173" y1="152.6" x2="266.173" y2="162.461"/>
			
				<line fill="none" stroke="#003468" stroke-linecap="square" stroke-miterlimit="10" x1="284.925" y1="152.6" x2="284.925" y2="162.461"/>
			
				<line fill="none" stroke="#003468" stroke-linecap="square" stroke-miterlimit="10" x1="303.675" y1="152.6" x2="303.675" y2="162.6"/>
			
				<line fill="none" stroke="#003468" stroke-linecap="square" stroke-miterlimit="10" x1="322.425" y1="152.6" x2="322.425" y2="162.461"/>
		</g>
		<g>
			<g>
				
					<line fill="none" stroke="#2D5585" stroke-miterlimit="10" stroke-dasharray="1,1" x1="66.797" y1="217.807" x2="315.54" y2="97.394"/>
			</g>
			
				<line fill="none" stroke="#2D5585" stroke-linecap="square" stroke-miterlimit="10" stroke-dasharray="1,1" x1="123.207" y1="189.349" x2="124.098" y2="191.188"/>
			
				<line fill="none" stroke="#2D5585" stroke-linecap="square" stroke-miterlimit="10" stroke-dasharray="1,1" x1="140.083" y1="181.18" x2="140.987" y2="183.044"/>
			
				<line fill="none" stroke="#2D5585" stroke-linecap="square" stroke-miterlimit="10" stroke-dasharray="1,1" x1="156.965" y1="173.007" x2="157.852" y2="174.85"/>
			
				<line fill="none" stroke="#2D5585" stroke-linecap="square" stroke-miterlimit="10" stroke-dasharray="1,1" x1="173.841" y1="164.837" x2="174.74" y2="166.705"/>
			
				<line fill="none" stroke="#2D5585" stroke-linecap="square" stroke-miterlimit="10" stroke-dasharray="1,1" x1="72.574" y1="213.859" x2="73.465" y2="215.698"/>
			
				<line fill="none" stroke="#2D5585" stroke-linecap="square" stroke-miterlimit="10" stroke-dasharray="1,1" x1="89.45" y1="205.69" x2="90.354" y2="207.555"/>
			
				<line fill="none" stroke="#2D5585" stroke-linecap="square" stroke-miterlimit="10" stroke-dasharray="1,1" x1="106.332" y1="197.518" x2="107.219" y2="199.36"/>
			
				<line fill="none" stroke="#2D5585" stroke-linecap="square" stroke-miterlimit="10" stroke-dasharray="1,1" x1="190.718" y1="156.666" x2="191.618" y2="158.535"/>
			
				<line fill="none" stroke="#2D5585" stroke-linecap="square" stroke-miterlimit="10" stroke-dasharray="1,1" x1="207.598" y1="148.496" x2="208.498" y2="150.363"/>
			
				<line fill="none" stroke="#2D5585" stroke-linecap="square" stroke-miterlimit="10" stroke-dasharray="1,1" x1="224.475" y1="140.326" x2="225.364" y2="142.166"/>
			
				<line fill="none" stroke="#2D5585" stroke-linecap="square" stroke-miterlimit="10" stroke-dasharray="1,1" x1="241.351" y1="132.157" x2="242.253" y2="134.022"/>
			
				<line fill="none" stroke="#2D5585" stroke-linecap="square" stroke-miterlimit="10" stroke-dasharray="1,1" x1="258.228" y1="123.987" x2="259.118" y2="125.826"/>
			
				<line fill="none" stroke="#2D5585" stroke-linecap="square" stroke-miterlimit="10" stroke-dasharray="1,1" x1="275.105" y1="115.816" x2="275.995" y2="117.656"/>
			
				<line fill="none" stroke="#2D5585" stroke-linecap="square" stroke-miterlimit="10" stroke-dasharray="1,1" x1="291.982" y1="107.646" x2="292.885" y2="109.512"/>
			
				<line fill="none" stroke="#2D5585" stroke-linecap="square" stroke-miterlimit="10" stroke-dasharray="1,1" x1="308.859" y1="99.477" x2="309.749" y2="101.316"/>
		</g>
		<text transform="matrix(1 0 0 1 345.9316 161.6348)" font-size="10">IEC X-ray Image Receptor Plane</text>
		<text transform="matrix(1 0 0 1 10.4482 229.1074)" font-size="10">Non-normal Image Plane</text>
		<path fill="none" stroke="#939598" stroke-width="0.5" stroke-miterlimit="10" stroke-dasharray="1,1" d="M172.112,157.459
			c0,3.021,0.706,5.878,1.961,8.414"/>
		<path fill="none" stroke="#939598" stroke-width="0.5" stroke-miterlimit="10" stroke-dasharray="1,1" d="M210.087,157.459
			c0-2.537-0.498-4.957-1.4-7.17"/>
		<path fill="none" stroke="#939598" stroke-width="0.5" stroke-miterlimit="10" stroke-dasharray="1,1" d="M153.203,157.46
			c0,6.009,1.398,11.691,3.888,16.739"/>
		<path fill="none" stroke="#939598" stroke-width="0.5" stroke-miterlimit="10" stroke-dasharray="1,1" d="M228.996,157.46
			c0-5.506-1.175-10.737-3.286-15.458"/>
		<path fill="none" stroke="#939598" stroke-width="0.5" stroke-miterlimit="10" stroke-dasharray="1,1" d="M134.771,157.461
			c0,8.855,2.043,17.233,5.685,24.688"/>
		<path fill="none" stroke="#939598" stroke-width="0.5" stroke-miterlimit="10" stroke-dasharray="1,1" d="M247.428,157.461
			c0-8.377-1.828-16.325-5.106-23.47"/>
		<path fill="none" stroke="#939598" stroke-width="0.5" stroke-miterlimit="10" stroke-dasharray="1,1" d="M309.287,99.257
			c8.417,17.352,13.138,36.829,13.138,57.409"/>
		<path fill="none" stroke="#939598" stroke-width="0.5" stroke-miterlimit="10" stroke-dasharray="1,1" d="M73.053,215.904
			c-8.982-17.807-14.042-37.932-14.042-59.238"/>
		<text transform="matrix(1 -0.0019 0.0019 1 309.3516 177.3496)"><tspan x="0" y="0" fill="#ED1C24" font-size="12.9783">+Xr, </tspan><tspan x="27.769" y="0" fill="#0DB14B" font-size="12.9783">+Yr</tspan></text>
		
			<text transform="matrix(1 -0.0019 0.0019 1 196.853 41.9629)" fill="#00AEEF" font-size="12.9783">+Zr</text>
		<g>
			<g>
				<line fill="none" stroke="#0DB14B" stroke-width="2" x1="189.851" y1="157.918" x2="335.991" y2="157.918"/>
				<g>
					<polygon fill="#0DB14B" points="334.01,160.823 344.851,157.918 334.01,155.013 					"/>
				</g>
			</g>
		</g>
		<g>
			<g>
				<line fill="none" stroke="#00AEEF" stroke-width="2" x1="191.186" y1="157.979" x2="191.186" y2="36.838"/>
				<g>
					<polygon fill="#00AEEF" points="194.091,38.82 191.186,27.979 188.28,38.82 					"/>
				</g>
			</g>
		</g>
		<g>
			<g>
				<line fill="none" stroke="#ED1C24" stroke-width="2" x1="191.04" y1="157.918" x2="327.178" y2="157.918"/>
				<g>
					<polygon fill="#ED1C24" points="325.196,160.823 336.037,157.918 325.196,155.013 					"/>
				</g>
			</g>
		</g>
	</g>
</g>
</svg>
