<?xml version="1.0" encoding="utf-8"?>

<!DOCTYPE svg PUBLIC "-//W3C//DTD SVG 1.1//EN" "http://www.w3.org/Graphics/SVG/1.1/DTD/svg11.dtd">
<svg version="1.1" id="Layer_1" xmlns="http://www.w3.org/2000/svg" xmlns:xlink="http://www.w3.org/1999/xlink" x="0px" y="0px"
	 width="502px" height="262px" viewBox="0 0 502 262" enable-background="new 0 0 502 262" xml:space="preserve">

<defs>
	<style type="text/css">
	text {
	  font-family: Helvetica, Verdana, ArialUnicodeMS, san-serif
	}
	</style>
</defs>

<g>
   <desc>
	PS 3.3 Part 3: Information Object Definitions
   </desc>
</g>

<g>
	<rect x="1" y="1" fill="#F5EED8" width="500" height="260"/>
	<g>
		
			<rect x="82.93" y="15.964" fill="#CEDFEF" stroke="#010101" stroke-width="0.75" stroke-linecap="round" stroke-linejoin="round" stroke-miterlimit="1" width="336.14" height="231.079"/>
		
			<rect x="100.496" y="29.771" fill="#8AB4D7" stroke="#010101" stroke-width="0.75" stroke-linecap="round" stroke-linejoin="round" stroke-miterlimit="1" width="318.575" height="217.271"/>
		
			<rect x="117.273" y="228.367" fill="#CEDFEF" stroke="#010101" stroke-width="0.75" stroke-linecap="round" stroke-linejoin="round" stroke-miterlimit="1" width="301.797" height="18.676"/>
		<rect x="120.4" y="234.934" fill="none" width="86.421" height="8.51"/>
		<text transform="matrix(0.9288 0 0 1 120.4004 241.376)" font-size="9">&gt;.... Other Attributes</text>
		<rect x="86.734" y="18.792" fill="none" width="205.154" height="8.51"/>
		<text transform="matrix(0.9288 0 0 1 86.7344 25.2017)" font-size="9">Contributing Sources Sequence (0018,9506) </text>
		
			<rect x="117.273" y="44.932" fill="#CEDFEF" stroke="#010101" stroke-width="0.75" stroke-linecap="round" stroke-linejoin="round" stroke-miterlimit="1" width="301.797" height="183.436"/>
		<rect x="107.355" y="33.383" fill="none" width="198.932" height="8.51"/>
		<text transform="matrix(0.9288 0 0 1 107.355 39.7915)" font-size="9">Item 1</text>
		<rect x="120.4" y="48.709" fill="none" width="282.846" height="8.51"/>
		<text transform="matrix(0.9288 0 0 1 120.4004 55.1182)" font-size="9">&gt;Contributing SOP Instances Reference Sequence (0020,9529)</text>
		
			<rect x="133.94" y="60.053" fill="#8AB4D7" stroke="#010101" stroke-width="0.75" stroke-linecap="round" stroke-linejoin="round" stroke-miterlimit="1" width="285.13" height="168.314"/>
		<rect x="140.812" y="64.215" fill="none" width="123.965" height="8.51"/>
		<text transform="matrix(0.9288 0 0 1 140.812 70.6289)" font-size="9">Item 1</text>
		
			<rect x="151.273" y="75.453" fill="#CEDFEF" stroke="#010101" stroke-width="0.75" stroke-linecap="round" stroke-linejoin="round" stroke-miterlimit="1" width="267.797" height="152.914"/>
		
			<line fill="#CEDFEF" stroke="#010101" stroke-width="0.75" stroke-linecap="round" stroke-linejoin="round" stroke-miterlimit="1" x1="151.273" y1="90.844" x2="419.07" y2="90.844"/>
		<rect x="159.412" y="80.23" fill="none" width="148.631" height="8.51"/>
		<text transform="matrix(0.9288 0 0 1 159.4121 86.6396)" font-size="9">&gt;&gt;Study Instance UID (0020,000D)</text>
		<rect x="159.412" y="94.23" fill="none" width="169.889" height="8.51"/>
		<text transform="matrix(0.9288 0 0 1 159.4121 100.6719)" font-size="9">&gt;&gt;Referenced Series Sequence (0008,1115)</text>
		
			<rect x="170.292" y="105.526" fill="#8AB4D7" stroke="#010101" stroke-width="0.75" stroke-linecap="round" stroke-linejoin="round" stroke-miterlimit="1" width="248.778" height="122.841"/>
		<rect x="176.812" y="111.715" fill="none" width="123.965" height="8.511"/>
		<text transform="matrix(0.9288 0 0 1 176.812 118.1289)" font-size="9">Item 1</text>
		
			<rect x="187.273" y="121.873" fill="#CEDFEF" stroke="#010101" stroke-width="0.75" stroke-linecap="round" stroke-linejoin="round" stroke-miterlimit="1" width="231.797" height="106.494"/>
		
			<line fill="#CEDFEF" stroke="#010101" stroke-width="0.75" stroke-linecap="round" stroke-linejoin="round" stroke-miterlimit="1" x1="187.273" y1="137.263" x2="419.07" y2="137.263"/>
		
			<line fill="#CEDFEF" stroke="#010101" stroke-width="0.75" stroke-linecap="round" stroke-linejoin="round" stroke-miterlimit="1" x1="187.273" y1="152.945" x2="419.07" y2="152.945"/>
		<rect x="195.413" y="126.65" fill="none" width="148.63" height="8.51"/>
		<text transform="matrix(0.9288 0 0 1 195.4121 133.0596)" font-size="9">&gt;&gt;&gt;Series Instance UID (0020,000E)</text>
		<rect x="195.413" y="140.65" fill="none" width="162.798" height="8.51"/>
		<text transform="matrix(0.9288 0 0 1 195.4121 147.0596)" font-size="9">&gt;&gt;&gt;Series Number (0020,0011)</text>
		<rect x="195.413" y="154.789" fill="none" width="194.798" height="8.51"/>
		<text transform="matrix(0.9288 0 0 1 195.4121 161.1992)" font-size="9">&gt;&gt;&gt;Referenced Instance Sequence (0008,114A)</text>
		
			<rect x="203.972" y="167.025" fill="#8AB4D7" stroke="#010101" stroke-width="0.75" stroke-linecap="round" stroke-linejoin="round" stroke-miterlimit="1" width="215.098" height="61.342"/>
		<rect x="211.913" y="170.637" fill="none" width="198.933" height="8.512"/>
		<text transform="matrix(0.9288 0 0 1 211.9121 177.0469)" font-size="9">Item 1</text>
		
			<rect x="221.537" y="182.357" fill="#FFFFFF" stroke="#010101" stroke-width="0.75" stroke-linecap="round" stroke-linejoin="round" stroke-miterlimit="1" width="197.534" height="46.01"/>
		
			<line fill="#FFFFFF" stroke="#010101" stroke-width="0.75" stroke-linecap="round" stroke-linejoin="round" stroke-miterlimit="1" x1="221.537" y1="213.031" x2="419.07" y2="213.031"/>
		
			<line fill="#FFFFFF" stroke="#010101" stroke-width="0.75" stroke-linecap="round" stroke-linejoin="round" stroke-miterlimit="1" x1="221.537" y1="197.693" x2="419.07" y2="197.693"/>
		<rect x="231.078" y="186.135" fill="none" width="176.344" height="8.512"/>
		<text transform="matrix(0.9288 0 0 1 231.0776 192.5449)" font-size="9">&gt;&gt;&gt;&gt;Referenced SOP Class UID (0008,1150)</text>
		<rect x="231.078" y="201.643" fill="none" width="183.557" height="8.51"/>
		<text transform="matrix(0.9288 0 0 1 231.0776 208.084)" font-size="9">&gt;&gt;&gt;&gt;Referenced SOP Instance UID (0008,1155)</text>
		<rect x="231.078" y="216.033" fill="none" width="176.776" height="8.51"/>
		<text transform="matrix(0.9288 0 0 1 231.0776 222.4434)" font-size="9">&gt;&gt;&gt;&gt;Instance Number (0020,0013)</text>
	</g>
</g>
</svg>
