<?xml version="1.0" encoding="utf-8"?>

<!DOCTYPE svg PUBLIC "-//W3C//DTD SVG 1.1//EN" "http://www.w3.org/Graphics/SVG/1.1/DTD/svg11.dtd">
<svg version="1.1" id="Layer_1" xmlns="http://www.w3.org/2000/svg" xmlns:xlink="http://www.w3.org/1999/xlink" x="0px" y="0px"
	 width="527px" height="212px" viewBox="0 0 527 212" enable-background="new 0 0 527 212" xml:space="preserve">
        
<defs>
	<style type="text/css">
	text {
	  font-family: Helvetica, Verdana, ArialUnicodeMS, san-serif
	}
	</style>
</defs>

<g>
   <desc>
	PS 3.3 Information Object Definitions
   </desc>
</g>

<g>
	<rect x="1" y="1" fill="#F5EED6" width="525" height="210"/>
	<g>
		<g>
			
				<rect x="85.012" y="19.166" fill="#86B2D8" stroke="#010101" stroke-width="0.75" stroke-linecap="round" stroke-linejoin="round" stroke-miterlimit="1" width="90" height="22.5"/>
			<g>
				<text transform="matrix(1 0 0 1 90.9941 32.9199)" font-size="9">RT Physician Intent</text>
			</g>
			<g>
				
					<ellipse fill="#B2CEE7" stroke="#010101" stroke-width="0.75" stroke-linecap="round" stroke-linejoin="round" stroke-miterlimit="1" cx="191.331" cy="97.76" rx="52.106" ry="21.809"/>
				<g>
					<text transform="matrix(1 0 0 1 152.0605 91.4609)"><tspan x="0" y="0" font-size="9">Conceptual Volume</tspan><tspan x="15.012" y="17.601" font-size="9">“Lung, right”</tspan></text>
				</g>
			</g>
			<g>
				
					<path fill="#B2CEE7" stroke="#010101" stroke-width="0.75" stroke-linecap="round" stroke-linejoin="round" stroke-miterlimit="1" d="
					M119.789,97.76c0,12.043-23.328,21.805-52.105,21.805c-28.778,0-52.106-9.762-52.106-21.805
					c0-12.047,23.328-21.809,52.106-21.809C96.461,75.951,119.789,85.713,119.789,97.76z"/>
				<g>
					<text transform="matrix(1 0 0 1 28.4082 91.4609)"><tspan x="0" y="0" font-size="9">Conceptual Volume</tspan><tspan x="17.763" y="17.6" font-size="9">“Lung, left”</tspan></text>
				</g>
			</g>
			<g>
				<g>
					
						<line fill="none" stroke="#005695" stroke-width="2" stroke-linecap="round" stroke-linejoin="round" x1="71.738" y1="72.732" x2="129.496" y2="43.064"/>
					<g>
						<polygon fill="#005695" points="74.211,74.075 65.434,75.971 72.087,69.94 						"/>
					</g>
				</g>
			</g>
			<g>
				<g>
					
						<line fill="none" stroke="#005695" stroke-width="2" stroke-linecap="round" stroke-linejoin="round" x1="187.251" y1="72.711" x2="129.496" y2="43.064"/>
					<g>
						<polygon fill="#005695" points="186.902,69.919 193.557,75.947 184.779,74.055 						"/>
					</g>
				</g>
			</g>
		</g>
		<g>
			
				<rect x="391.422" y="152.834" fill="#86B2D8" stroke="#010101" stroke-width="0.75" stroke-linecap="round" stroke-linejoin="round" stroke-miterlimit="1" width="120" height="40"/>
			
				<ellipse fill="#B2CEE7" stroke="#010101" stroke-width="0.75" stroke-linecap="round" stroke-linejoin="round" stroke-miterlimit="1" cx="469.403" cy="179.541" rx="29.05" ry="8.051"/>
			<g>
				<text transform="matrix(1 0 0 1 457.793 182.3867)" font-size="9">ROI 5</text>
			</g>
			<g>
				
					<ellipse fill="#B2CEE7" stroke="#010101" stroke-width="0.75" stroke-linecap="round" stroke-linejoin="round" stroke-miterlimit="1" cx="453.437" cy="97.76" rx="52.106" ry="21.809"/>
				<g>
					<text transform="matrix(1 0 0 1 414.1641 91.4609)"><tspan x="0" y="0" font-size="9">Conceptual Volume</tspan><tspan x="15.012" y="17.6" font-size="9">“Lung, right”</tspan></text>
				</g>
			</g>
			<g>
				<g>
					
						<line fill="none" stroke="#005695" stroke-width="2" stroke-linecap="round" stroke-linejoin="round" x1="453.438" y1="41.666" x2="453.438" y2="68.863"/>
					<g>
						<polygon fill="#005695" points="451.113,67.278 453.438,75.951 455.762,67.278 						"/>
					</g>
				</g>
			</g>
			<g>
				<text transform="matrix(1 0 0 1 395.7354 163.5273)" font-size="9">RT Structure Set</text>
			</g>
			<g>
				<g>
					
						<line fill="none" stroke="#005695" stroke-width="2" stroke-linecap="round" stroke-linejoin="round" x1="453.438" y1="120.244" x2="454.032" y2="122.153"/>
					
						<line fill="none" stroke="#005695" stroke-width="2" stroke-linecap="round" stroke-linejoin="round" stroke-dasharray="3.786,2.8395" x1="454.877" y1="124.864" x2="466.279" y2="161.463"/>
					
						<line fill="none" stroke="#005695" stroke-width="2" stroke-linecap="round" stroke-linejoin="round" x1="466.701" y1="162.818" x2="467.296" y2="164.728"/>
					<g>
						<polygon fill="#005695" points="464.605,163.905 469.404,171.494 469.044,162.522 						"/>
					</g>
				</g>
			</g>
			
				<rect x="408.438" y="19.166" fill="#86B2D8" stroke="#010101" stroke-width="0.75" stroke-linecap="round" stroke-linejoin="round" stroke-miterlimit="1" width="90" height="22.5"/>
			<g>
				<text transform="matrix(1 0 0 1 418.4199 28.5195)"><tspan x="0" y="0" font-size="9">RT Segmentation</tspan><tspan x="9.748" y="8.801" font-size="9">Annotation 2</tspan></text>
			</g>
		</g>
		<g>
			<g>
				
					<path fill="#B2CEE7" stroke="#010101" stroke-width="0.75" stroke-linecap="round" stroke-linejoin="round" stroke-miterlimit="1" d="
					M370.547,97.76c0,12.043-23.328,21.805-52.105,21.805c-28.779,0-52.107-9.762-52.107-21.805
					c0-12.047,23.328-21.809,52.107-21.809C347.219,75.951,370.547,85.713,370.547,97.76z"/>
				<g>
					<text transform="matrix(1 0 0 1 279.1641 91.459)"><tspan x="0" y="0" font-size="9">Conceptual Volume</tspan><tspan x="17.763" y="17.601" font-size="9">“Lung, left”</tspan></text>
				</g>
			</g>
			<g>
				<g>
					
						<line fill="none" stroke="#005695" stroke-width="2" stroke-linecap="round" stroke-linejoin="round" x1="318.439" y1="41.666" x2="318.439" y2="68.863"/>
					<g>
						<polygon fill="#005695" points="316.115,67.278 318.439,75.951 320.764,67.278 						"/>
					</g>
				</g>
			</g>
			<g>
				
					<rect x="256.422" y="152.834" fill="#86B2D8" stroke="#010101" stroke-width="0.75" stroke-linecap="round" stroke-linejoin="round" stroke-miterlimit="1" width="120" height="40"/>
				
					<ellipse fill="#B2CEE7" stroke="#010101" stroke-width="0.75" stroke-linecap="round" stroke-linejoin="round" stroke-miterlimit="1" cx="329.365" cy="179.541" rx="29.049" ry="8.051"/>
				<g>
					<text transform="matrix(1 0 0 1 260.8477 163.5273)" font-size="9">Segmentation</text>
				</g>
				<g>
					<text transform="matrix(1 0 0 1 307.7422 182.3867)" font-size="9">Segment 3</text>
				</g>
			</g>
			<g>
				<g>
					
						<line fill="none" stroke="#005695" stroke-width="2" stroke-linecap="round" stroke-linejoin="round" x1="318.439" y1="120.244" x2="318.854" y2="122.201"/>
					
						<line fill="none" stroke="#005695" stroke-width="2" stroke-linecap="round" stroke-linejoin="round" stroke-dasharray="4.3474,3.2606" x1="319.53" y1="125.391" x2="327.079" y2="161.009"/>
					
						<line fill="none" stroke="#005695" stroke-width="2" stroke-linecap="round" stroke-linejoin="round" x1="327.417" y1="162.604" x2="327.831" y2="164.561"/>
					<g>
						<polygon fill="#005695" points="325.229,163.492 329.301,171.494 329.776,162.528 						"/>
					</g>
				</g>
			</g>
			
				<rect x="273.439" y="19.166" fill="#86B2D8" stroke="#010101" stroke-width="0.75" stroke-linecap="round" stroke-linejoin="round" stroke-miterlimit="1" width="90" height="22.5"/>
			<g>
				<text transform="matrix(1 0 0 1 283.4199 28.5195)"><tspan x="0" y="0" font-size="9">RT Segmentation</tspan><tspan x="9.748" y="8.801" font-size="9">Annotation 1</tspan></text>
			</g>
		</g>
	</g>
</g>
</svg>
