<?xml version="1.0" encoding="utf-8"?>

<!DOCTYPE svg PUBLIC "-//W3C//DTD SVG 1.1//EN" "http://www.w3.org/Graphics/SVG/1.1/DTD/svg11.dtd">
<svg version="1.1" id="Layer_1" xmlns="http://www.w3.org/2000/svg" xmlns:xlink="http://www.w3.org/1999/xlink" x="0px" y="0px"
	 width="502px" height="77px" viewBox="0 0 502 77" enable-background="new 0 0 502 77" xml:space="preserve">
        
<defs>
	<style type="text/css">
	text {
	  font-family: Helvetica, Verdana, ArialUnicodeMS, san-serif
	}
	</style>
</defs>

<g>
   <desc>
	PS 3.3 Information Object Definitions
   </desc>
</g>

<g>
	<rect x="1" y="1" fill="#F5EED6" width="500" height="75"/>
	<g>
		<g>
			<line fill="#4F8ABE" x1="133.64" y1="38.5" x2="195.682" y2="38.5"/>
			<g>
				<line fill="none" stroke="#005695" stroke-width="2" stroke-miterlimit="1" x1="133.64" y1="38.5" x2="186.822" y2="38.5"/>
				<g>
					<polygon fill="#005695" points="184.841,41.405 195.682,38.5 184.841,35.595 					"/>
				</g>
			</g>
		</g>
		<g>
			<line fill="#4F8ABE" x1="304.883" y1="38.5" x2="368.359" y2="38.5"/>
			<g>
				<line fill="none" stroke="#005695" stroke-width="2" stroke-miterlimit="1" x1="304.883" y1="38.5" x2="359.5" y2="38.5"/>
				<g>
					<polygon fill="#005695" points="357.519,41.405 368.359,38.5 357.519,35.595 					"/>
				</g>
			</g>
		</g>
		
			<rect x="368.359" y="24.1" fill="#86B2D8" stroke="#010101" stroke-width="0.75" stroke-linecap="round" stroke-linejoin="round" stroke-miterlimit="1" width="63" height="28.801"/>
		<text transform="matrix(1 0 0 1 381.5186 35.2847)"><tspan x="0" y="0" font-size="10">Protocol</tspan><tspan x="-1.392" y="12" font-size="10">Approval</tspan></text>
		
			<rect x="70.641" y="24.1" fill="#86B2D8" stroke="#010101" stroke-width="0.75" stroke-linecap="round" stroke-linejoin="round" stroke-miterlimit="1" width="62.999" height="28.801"/>
		<text transform="matrix(1 0 0 1 78.2368 41.2852)" font-size="10">Equipment</text>
		<g>
			<text transform="matrix(1 0 0 1 195.6821 29.8359)" font-size="9">1</text>
		</g>
		<g>
			<text transform="matrix(1 0 0 1 292.2246 29.8359)" font-size="9">1,n</text>
		</g>
		<polygon fill="#CCDEF0" stroke="#000000" stroke-linejoin="round" stroke-miterlimit="10" points="251.367,61.5 306.643,38.66 
			250.957,15.5 195.682,38.34 		"/>
		<text transform="matrix(1 0 0 1 236.3745 41.2842)" font-size="10">creates</text>
	</g>
</g>
</svg>
