<?xml version="1.0" encoding="utf-8"?>

<!DOCTYPE svg PUBLIC "-//W3C//DTD SVG 1.1//EN" "http://www.w3.org/Graphics/SVG/1.1/DTD/svg11.dtd">
<svg version="1.1" id="Layer_1" xmlns="http://www.w3.org/2000/svg" xmlns:xlink="http://www.w3.org/1999/xlink" x="0px" y="0px"
	 width="552px" height="382px" viewBox="0 0 552 382" enable-background="new 0 0 552 382" xml:space="preserve">

<defs>
	<style type="text/css">
	text {
	  font-family: Helvetica, Verdana, ArialUnicodeMS, san-serif
	}
	</style>
</defs>

<g>
   <desc>
	PS 3.3 Part 3: Information Object Definitions
   </desc>
</g>

<g>
	<rect x="1" y="1" fill="#F5EED6" width="550" height="380"/>
	<g>
		<polyline fill="#DEE9F5" points="43.157,324.086 431.939,324.086 431.939,35.672 43.157,35.672 		"/>
		<rect x="194.113" y="81.803" fill="#B2CEE7" width="180.003" height="201.036"/>
		<circle fill="#FFF200" cx="194.113" cy="282.339" r="5"/>
		<circle fill="#F7941E" cx="374.116" cy="282.339" r="5"/>
		
			<line fill="#F2F2F2" stroke="#000000" stroke-width="0.5" stroke-miterlimit="10" x1="43.157" y1="282.822" x2="431.939" y2="282.822"/>
		
			<line fill="none" stroke="#B3B3B3" stroke-width="0.5" stroke-miterlimit="10" x1="43.157" y1="76.935" x2="431.939" y2="76.935"/>
		
			<line fill="none" stroke="#B3B3B3" stroke-width="0.5" stroke-miterlimit="10" x1="43.157" y1="118.056" x2="431.939" y2="118.056"/>
		
			<line fill="none" stroke="#B3B3B3" stroke-width="0.5" stroke-miterlimit="10" x1="43.157" y1="159.317" x2="431.939" y2="159.317"/>
		
			<line fill="none" stroke="#B3B3B3" stroke-width="0.5" stroke-miterlimit="10" x1="43.157" y1="200.438" x2="431.939" y2="200.438"/>
		
			<line fill="none" stroke="#B3B3B3" stroke-width="0.5" stroke-miterlimit="10" x1="43.157" y1="241.702" x2="431.939" y2="241.702"/>
		
			<line fill="none" stroke="#B3B3B3" stroke-width="0.5" stroke-miterlimit="10" x1="376.412" y1="324.086" x2="376.412" y2="35.672"/>
		
			<line fill="none" stroke="#B3B3B3" stroke-width="0.5" stroke-miterlimit="10" x1="320.886" y1="324.086" x2="320.886" y2="35.672"/>
		
			<line fill="none" stroke="#B3B3B3" stroke-width="0.5" stroke-miterlimit="10" x1="265.358" y1="324.086" x2="265.358" y2="35.672"/>
		
			<line fill="none" stroke="#B3B3B3" stroke-width="0.5" stroke-miterlimit="10" x1="209.737" y1="324.086" x2="209.737" y2="35.672"/>
		
			<line fill="none" stroke="#B3B3B3" stroke-width="0.5" stroke-miterlimit="10" x1="154.21" y1="324.086" x2="154.21" y2="35.672"/>
		
			<line fill="none" stroke="#B3B3B3" stroke-width="0.5" stroke-miterlimit="10" x1="98.684" y1="324.086" x2="98.684" y2="35.672"/>
		
			<line fill="#F2F2F2" stroke="#000000" stroke-width="0.5" stroke-miterlimit="10" x1="43.157" y1="35.672" x2="43.157" y2="324.086"/>
		
			<line fill="none" stroke="#000000" stroke-width="0.5" stroke-miterlimit="10" x1="194.113" y1="282.214" x2="267.72" y2="251.868"/>
		
			<line fill="none" stroke="#000000" stroke-width="0.5" stroke-miterlimit="10" x1="374.116" y1="282.313" x2="300.72" y2="251.868"/>
		<ellipse fill="#F7941E" cx="293.97" cy="249.868" rx="9.208" ry="5.875"/>
		<ellipse fill="#FFF200" cx="274.97" cy="249.868" rx="9.208" ry="5.875"/>
		<circle fill="#FFF200" cx="194.113" cy="87.743" r="5"/>
		<circle fill="#F7941E" cx="374.116" cy="81.493" r="5"/>
		
			<line fill="none" stroke="#000000" stroke-width="0.5" stroke-miterlimit="10" x1="194.113" y1="87.868" x2="267.72" y2="118.214"/>
		
			<line fill="none" stroke="#000000" stroke-width="0.5" stroke-miterlimit="10" x1="374.116" y1="81.519" x2="300.72" y2="118.214"/>
		<ellipse fill="#F7941E" cx="293.97" cy="120.214" rx="9.208" ry="5.875"/>
		<ellipse fill="#FFF200" cx="274.97" cy="120.214" rx="9.208" ry="5.875"/>
		<path fill-rule="evenodd" clip-rule="evenodd" fill="none" stroke="#ED2224" stroke-width="2" stroke-miterlimit="10" d="
			M414.877,282.313c-4.509-0.011-10.419-0.048-14.927-0.022c-4.509,0.022-7.287-2.604-7.8-6.561c-0.1-0.766-0.404-1.504-0.61-2.256
			c-1.05-3.841-2.458-7.574-2.396-11.685c0.05-3.208-0.309-6.427-0.576-9.635c-0.54-6.478-1.14-12.951-1.717-19.425
			c-0.208-3.158-0.416-6.315-0.624-9.474c-0.151-1.547-0.376-3.094-0.439-4.644c-0.225-5.672-1.602-11.348-1.848-17.018
			c-0.367-8.472-1.562-16.94-1.96-25.411c-0.405-8.567-1.253-17.139-1.701-25.703c-0.327-6.244-0.771-12.48-1.166-18.72
			c-0.425-6.691-0.854-13.382-1.279-20.072c-0.199-5.289-0.36-10.578-0.621-15.863c-0.092-1.85-0.624-3.69-0.88-5.528
			c-0.611-4.417-1.096-8.86-1.951-13.231c-0.358-1.838,0.583-4.164-1.537-5.524c-0.827,0.75-2.224,2.358-2.941,3.02
			c-1.152,1.062-3.115,2.896-4.34,2.991c-1.321,0.104-1.396-1.37-2.75-2.241c-2.02-1.3-5.647-2.693-6.889-1.229
			c-1.942,2.291-6.386,2.362-8.97,2.257c-1.473-0.06-2.951,0.005-4.423-0.06c-2.83-0.124-5.664-0.506-8.482-0.408
			c-5.268,0.183-10.524,0.661-15.789,0.954c-2.281,0.127-4.361,0.111-6.509,1.622c-2.462,1.733-5.803,1.261-8.588,0.531
			c-2.963-0.774-5.798-1.213-8.865-1.051c-2.062,0.108-4.177-0.994-6.259-0.957c-4.381,0.08-8.752,0.668-13.137,0.826
			c-2.996,0.107-6.079,0.351-8.985-0.235c-1.878-0.379-3.504-0.604-5.341-0.05c-1.853,0.561-3.777,0.946-5.695,1.058
			c-5.871,0.344-11.752,0.478-17.629,0.692c-3.516,0.182-7.029,0.438-10.547,0.525c-3.459,0.087-4.695,0.786-7.915,2.015
			c-3.924,1.497-7.77,3.335-11.82,4.339c-9.288,2.303-18.802,3.372-28.32,4.251c-5.643,0.521-11.304,0.906-16.965,1.168
			c-6.851,0.316-13.712,0.452-20.57,0.638c-2.259,0.062-4.521-0.002-6.779,0.067c-0.638,0.019-20.771,0.52-30.207,0.549
			c-1.023-0.01-7.554,0.206-8.134,0.227c-5.385,0.191-10.847,0.264-16.133,1.116c-10.381,1.675-20.657,3.987-30.989,5.97
			c-1.859,0.357-2.582,1.161-2.601,3.137c-0.083,8.703-0.393,17.402-0.505,26.104c-0.128,10.025-0.135,20.054-0.195,30.08
			c-0.002,0.239-1.137,63.283-1.137,63.283"/>
		<g>
			<text transform="matrix(1 0 0 1 441.2988 103.6533)" font-size="8">Distal Depth Fraction</text>
		</g>
		<g>
			<text transform="matrix(1 0 0 1 375.3672 337.165)" font-size="8">Distal Depth</text>
		</g>
		<g>
			<text transform="matrix(1 0 0 1 371.3535 362.29)" font-size="8">Distal Limit</text>
		</g>
		<g>
			<text transform="matrix(1 0 0 1 191.354 362.29)" font-size="8">Proximal Limit</text>
		</g>
		<g>
			<text transform="matrix(1 0 0 1 239.188 348.54)" font-size="8">Range Modulated Region</text>
		</g>
		<g>
			<text transform="matrix(1 0 0 1 436.3848 284.749)" font-size="8">range (mm)</text>
		</g>
		<g>
			<text transform="matrix(1 0 0 1 17.3174 27.7085)" font-size="8">Dose Ratio (%)</text>
		</g>
		<g>
			<text transform="matrix(1 0 0 1 28.5928 37.7505)" font-size="6">120</text>
		</g>
		<g>
			<text transform="matrix(1 0 0 1 28.5928 79.1182)" font-size="6">100</text>
		</g>
		<g>
			<text transform="matrix(1 0 0 1 31.9297 120.4858)" font-size="6">80</text>
		</g>
		<g>
			<text transform="matrix(1 0 0 1 31.9297 161.8535)" font-size="6">60</text>
		</g>
		<g>
			<text transform="matrix(1 0 0 1 31.9297 203.2207)" font-size="6">40</text>
		</g>
		<g>
			<text transform="matrix(1 0 0 1 31.9297 244.5889)" font-size="6">20</text>
		</g>
		<g>
			<text transform="matrix(1 0 0 1 35.2666 285.957)" font-size="6">0</text>
		</g>
		<g>
			<text transform="matrix(1 0 0 1 44.3535 292.207)" font-size="6">0</text>
		</g>
		<g>
			<text transform="matrix(1 0 0 1 99.8535 292.207)" font-size="6">50</text>
		</g>
		<g>
			<text transform="matrix(1 0 0 1 155.3535 292.207)" font-size="6">100</text>
		</g>
		<g>
			<text transform="matrix(1 0 0 1 210.8535 292.207)" font-size="6">150</text>
		</g>
		<g>
			<text transform="matrix(1 0 0 1 266.3535 292.207)" font-size="6">200</text>
		</g>
		<g>
			<text transform="matrix(1 0 0 1 321.8535 292.207)" font-size="6">250</text>
		</g>
		<g>
			<text transform="matrix(1 0 0 1 377.3535 292.207)" font-size="6">300</text>
		</g>
		<g>
			<text transform="matrix(1 0 0 1 432.8535 292.207)" font-size="6">350</text>
		</g>
		<g>
			<text transform="matrix(1 0 0 1 29.9316 327.3242)" font-size="6">-20</text>
		</g>
		<g>
			<text transform="matrix(1 0 0 1 218.1206 27.7085)" font-size="12">Depth Dose</text>
		</g>
		
			<line fill="none" stroke="#000000" stroke-width="0.5" stroke-miterlimit="10" stroke-dasharray="4,1,1" x1="379.116" y1="101.368" x2="438.215" y2="101.368"/>
		<g>
			<text transform="matrix(1 0 0 1 441.2988 142.3198)" font-size="8">Reference Dose Definition</text>
		</g>
		
			<line fill="none" stroke="#ED1C24" stroke-width="0.5" stroke-miterlimit="10" stroke-dasharray="2,2" x1="379.116" y1="140.035" x2="438.215" y2="140.035"/>
		<polyline fill="none" stroke="#000000" stroke-width="0.5" stroke-miterlimit="10" stroke-dasharray="2,2" points="
			194.113,354.401 194.113,88.618 43.157,88.618 		"/>
		<polyline fill="none" stroke="#000000" stroke-width="0.5" stroke-miterlimit="10" stroke-dasharray="4,2" points="
			374.116,354.802 374.116,81.368 43.157,81.368 		"/>
		<polyline fill="none" stroke="#000000" stroke-width="0.5" stroke-miterlimit="10" stroke-dasharray="4,1,1" points="
			377.371,328.968 377.371,101.368 43.157,101.368 		"/>
		<g>
			<text transform="matrix(1 0 0 1 209.6206 241.749)"><tspan x="0" y="0" font-size="8">Nominal Range Modulated Region Depths</tspan><tspan x="54.934" y="9.601" font-size="8">(300A,0504)</tspan></text>
		</g>
		<g>
			<text transform="matrix(1 0 0 1 264.5542 121.9985)"><tspan x="0" y="0" font-size="8">(300A,0503)</tspan><tspan x="-45.811" y="11.6" font-size="8">Nominal Range Modulation Fractions</tspan></text>
		</g>
		<g>
			<g>
				<line fill="none" stroke="#003468" stroke-miterlimit="10" x1="331.387" y1="346.468" x2="368.801" y2="346.468"/>
				<g>
					<polygon fill="#003468" points="367.611,348.211 374.116,346.468 367.611,344.725 					"/>
				</g>
			</g>
		</g>
		<g>
			<g>
				<line fill="none" stroke="#003468" stroke-miterlimit="10" x1="199.429" y1="346.468" x2="237.054" y2="346.468"/>
				<g>
					<polygon fill="#003468" points="200.618,348.211 194.113,346.468 200.618,344.725 					"/>
				</g>
			</g>
		</g>
	</g>
</g>
</svg>
