<?xml version="1.0" encoding="utf-8"?>

<!DOCTYPE svg PUBLIC "-//W3C//DTD SVG 1.1//EN" "http://www.w3.org/Graphics/SVG/1.1/DTD/svg11.dtd">
<svg version="1.1" id="Layer_1" xmlns="http://www.w3.org/2000/svg" xmlns:xlink="http://www.w3.org/1999/xlink" x="0px" y="0px"
	 width="602px" height="397px" viewBox="0 0 602 397" enable-background="new 0 0 602 397" xml:space="preserve">

<defs>
	<style type="text/css">
	text {
	  font-family: Helvetica, Verdana, ArialUnicodeMS, san-serif
	}
	</style>
</defs>

<g>
   <desc>
	PS 3.3 Part 3: Information Object Definitions
   </desc>
</g>

<g>
	<rect x="1" y="1" fill="#F5EED6" width="600" height="395"/>
	<g>
		<g>
			<rect x="108.441" y="63.367" fill="#C0E2CA" stroke="#000000" width="66.711" height="317.393"/>
			<rect x="117.417" y="117.79" fill="#CCDEF0" stroke="#000000" width="49.745" height="182.625"/>
			<polyline fill="#FFF56D" points="176.853,300.004 164.658,148.224 108.441,300.004 			"/>
			<g>
				<line fill="none" stroke="#FFFFFF" stroke-miterlimit="10" x1="164.658" y1="148.224" x2="113.771" y2="301.875"/>
				<line fill="none" stroke="#FFFFFF" stroke-miterlimit="10" x1="164.658" y1="148.224" x2="119.166" y2="303.559"/>
				<line fill="none" stroke="#FFFFFF" stroke-miterlimit="10" x1="164.658" y1="148.224" x2="124.614" y2="305.051"/>
				<line fill="none" stroke="#FFFFFF" stroke-miterlimit="10" x1="164.658" y1="148.224" x2="130.112" y2="306.352"/>
				<line fill="none" stroke="#FFFFFF" stroke-miterlimit="10" x1="164.658" y1="148.224" x2="135.652" y2="307.463"/>
				<line fill="none" stroke="#FFFFFF" stroke-miterlimit="10" x1="164.658" y1="148.224" x2="141.228" y2="308.377"/>
				<line fill="none" stroke="#FFFFFF" stroke-miterlimit="10" x1="164.658" y1="148.224" x2="146.831" y2="309.098"/>
				<line fill="none" stroke="#FFFFFF" stroke-miterlimit="10" x1="164.658" y1="148.224" x2="152.457" y2="309.623"/>
				<line fill="none" stroke="#FFFFFF" stroke-miterlimit="10" x1="164.658" y1="148.224" x2="158.097" y2="309.951"/>
				<line fill="none" stroke="#FFFFFF" stroke-miterlimit="10" x1="164.658" y1="148.224" x2="163.745" y2="310.08"/>
				<line fill="none" stroke="#FFFFFF" stroke-miterlimit="10" x1="164.658" y1="148.224" x2="169.395" y2="310.016"/>
				<line fill="none" stroke="#FFFFFF" stroke-miterlimit="10" x1="164.658" y1="148.224" x2="175.038" y2="309.752"/>
			</g>
			<path fill="#B2CEE7" stroke="#000000" d="M180.749,317.086c0,2.811-17.286,5.088-38.61,5.088s-38.611-2.277-38.611-5.088h-0.196
				v-16.672h77.418V317.086z"/>
			<polyline fill="none" stroke="#000000" stroke-width="0.5" stroke-miterlimit="10" points="176.853,300.004 164.658,148.224 
				108.441,300.004 			"/>
			<path fill="#CCDEF0" stroke="#000000" d="M192.044,123.163c0.635-4.006-9.128-8.882-21.807-10.891
				c-12.678-2.008-23.469-0.388-24.104,3.619l-3.048,57.271l34.158,5.41L192.044,123.163z"/>
			<g>
				<g>
					<line fill="none" stroke="#000000" stroke-width="0.5" x1="182.291" y1="32.985" x2="181.674" y2="36.938"/>
					
						<line fill="none" stroke="#000000" stroke-width="0.5" stroke-dasharray="2.0003,2.0003" x1="181.366" y1="38.914" x2="180.903" y2="41.878"/>
					
						<line fill="none" stroke="#000000" stroke-width="0.5" stroke-dasharray="8.0012,2.0003,2.0003,2.0003" x1="180.749" y1="42.867" x2="139.874" y2="304.735"/>
					<line fill="none" stroke="#000000" stroke-width="0.5" x1="139.719" y1="305.724" x2="139.103" y2="309.676"/>
				</g>
			</g>
			
				<line fill="none" stroke="#000000" stroke-width="0.5" stroke-dasharray="4,4" x1="142.315" y1="311.295" x2="142.315" y2="22.463"/>
			<g>
				<g>
					<path fill="none" stroke="#005695" stroke-width="2" stroke-miterlimit="10" d="M130.751,35.707
						c-8.782,0.386-17.44,1.25-25.95,2.565"/>
					<g>
						<polygon fill="#005695" points="128.283,32.341 141.382,35.473 128.472,39.311 						"/>
					</g>
				</g>
			</g>
			<g>
				<g>
					<path fill="none" stroke="#005695" stroke-width="2" stroke-miterlimit="10" d="M218.302,46.848
						c-8.517-2.774-17.271-5.092-26.238-6.92"/>
					<g>
						<polygon fill="#005695" points="195.029,36.988 181.602,38.034 193.752,43.843 						"/>
					</g>
				</g>
			</g>
			<text transform="matrix(1 -0.0019 0.0019 1 198.7656 306.4082)"><tspan x="0" y="0" fill="#ED1C24" font-size="12">+X</tspan><tspan x="15.012" y="2.999" fill="#ED1C24" font-size="12">s</tspan></text>
			<text transform="matrix(1 -0.0019 0.0019 1 152.5078 233.1602)"><tspan x="0" y="0" fill="#00AEEF" font-size="12">+Z</tspan><tspan x="14.338" y="3" fill="#00AEEF" font-size="12">s</tspan></text>
			<g>
				<g>
					<g>
						<line fill="none" stroke="#ED1C24" stroke-width="2" x1="142.374" y1="289.941" x2="190.33" y2="297.536"/>
						<g>
							<polygon fill="#ED1C24" points="187.918,300.096 199.08,298.922 188.827,294.356 							"/>
						</g>
					</g>
				</g>
				<g>
					<g>
						<line fill="none" stroke="#00AEEF" stroke-width="2" x1="142.374" y1="289.941" x2="150.048" y2="238.592"/>
						<g>
							<polygon fill="#00AEEF" points="152.628,240.981 151.357,229.83 146.882,240.122 							"/>
						</g>
					</g>
				</g>
			</g>
			<g>
				<ellipse fill="#FEDA00" cx="163.81" cy="150.505" rx="4.594" ry="4.722"/>
				<path d="M163.39,150.596c0-0.257,0.209-0.466,0.461-0.466c0.258,0,0.467,0.209,0.467,0.466c0,0.256-0.209,0.463-0.467,0.463
					C163.599,151.059,163.39,150.852,163.39,150.596z"/>
				<path d="M164.415,149.541c0.354,0.202,0.594,0.592,0.594,1.039c0,0.035-0.002,0.066-0.004,0.1h2.814
					c0.002-0.033,0.002-0.066,0.002-0.1c0-1.513-0.803-2.836-1.996-3.538L164.415,149.541z"/>
				<path d="M163.312,149.541c-0.357,0.202-0.598,0.592-0.598,1.039c0,0.035,0.002,0.066,0.004,0.1h-2.814c0-0.033,0-0.066,0-0.1
					c0-1.513,0.801-2.836,1.992-3.538L163.312,149.541z"/>
				<path d="M164.509,151.57c-0.352,0.206-0.811,0.276-1.197,0.054c-0.027-0.018-0.057-0.036-0.084-0.054l-1.408,2.436
					c0.029,0.018,0.057,0.035,0.086,0.053c1.311,0.756,2.857,0.629,4.062-0.053L164.509,151.57z"/>
			</g>
			<g>
				<text transform="matrix(1.0877 0 0 1 153.4927 27.9517)"><tspan x="0" y="0" font-size="12">As</tspan><tspan x="13.236" y="3" font-size="10">1</tspan></text>
			</g>
			<text transform="matrix(1 -0.0019 0.0019 1 198.7656 288.4082)" fill="#ED1C24" font-size="12">+X</text>
			<g>
				<g>
					<line fill="none" stroke="#ED1C24" stroke-width="2" x1="141.021" y1="289.9" x2="189.575" y2="289.9"/>
					<g>
						<polygon fill="#ED1C24" points="187.594,292.806 198.435,289.9 187.594,286.995 						"/>
					</g>
				</g>
			</g>
			<text transform="matrix(1 -0.0019 0.0019 1 124.7549 233.1494)" fill="#00AEEF" font-size="12">+Z</text>
			<g>
				<g>
					<line fill="none" stroke="#00AEEF" stroke-width="2" x1="142.374" y1="289.941" x2="142.229" y2="238.197"/>
					<g>
						<polygon fill="#00AEEF" points="145.14,240.171 142.204,229.338 139.329,240.187 						"/>
					</g>
				</g>
			</g>
			<g>
				<text transform="matrix(1 0 0 1 118.2085 285.2422)"><tspan x="0" y="0" font-size="12">O</tspan><tspan x="9.334" y="3" font-size="12">s</tspan></text>
			</g>
			<g>
				<path stroke="#000000" stroke-miterlimit="1" d="M147.451,289.662c0.007-3.176-2.571-5.744-5.742-5.744v5.744H147.451z"/>
				<path fill="#FFFFFF" stroke="#010101" stroke-linecap="round" stroke-linejoin="round" stroke-miterlimit="1" d="
					M141.709,283.918c-3.168,0-5.74,2.572-5.74,5.744h5.74V283.918z"/>
				<path stroke="#000000" stroke-miterlimit="1" d="M135.969,289.662c0.002,3.176,2.572,5.74,5.748,5.74l-0.008-5.74H135.969z"/>
				<path fill="#FFFFFF" stroke="#010101" stroke-linecap="round" stroke-linejoin="round" stroke-miterlimit="1" d="
					M141.709,289.662l0.008,5.74c3.167,0,5.741-2.57,5.734-5.74H141.709z"/>
			</g>
		</g>
		<g>
			<polyline fill="#FFF56D" points="309.838,300.682 322.032,148.902 378.249,300.682 			"/>
			<g>
				<line fill="none" stroke="#FFFFFF" stroke-miterlimit="10" x1="322.349" y1="148.902" x2="373.235" y2="302.551"/>
				<line fill="none" stroke="#FFFFFF" stroke-miterlimit="10" x1="322.349" y1="148.902" x2="367.841" y2="304.234"/>
				<line fill="none" stroke="#FFFFFF" stroke-miterlimit="10" x1="322.349" y1="148.902" x2="362.394" y2="305.727"/>
				<line fill="none" stroke="#FFFFFF" stroke-miterlimit="10" x1="322.349" y1="148.902" x2="356.896" y2="307.029"/>
				<line fill="none" stroke="#FFFFFF" stroke-miterlimit="10" x1="322.349" y1="148.902" x2="351.354" y2="308.139"/>
				<line fill="none" stroke="#FFFFFF" stroke-miterlimit="10" x1="322.349" y1="148.902" x2="345.78" y2="309.055"/>
				<line fill="none" stroke="#FFFFFF" stroke-miterlimit="10" x1="322.349" y1="148.902" x2="340.175" y2="309.773"/>
				<line fill="none" stroke="#FFFFFF" stroke-miterlimit="10" x1="322.349" y1="148.902" x2="334.55" y2="310.299"/>
				<line fill="none" stroke="#FFFFFF" stroke-miterlimit="10" x1="322.349" y1="148.902" x2="328.909" y2="310.627"/>
				<line fill="none" stroke="#FFFFFF" stroke-miterlimit="10" x1="322.349" y1="148.902" x2="323.263" y2="310.758"/>
				<line fill="none" stroke="#FFFFFF" stroke-miterlimit="10" x1="322.349" y1="148.902" x2="317.612" y2="310.691"/>
				<line fill="none" stroke="#FFFFFF" stroke-miterlimit="10" x1="322.349" y1="148.902" x2="311.97" y2="310.428"/>
			</g>
			<polyline fill="none" stroke="#000000" stroke-width="0.5" stroke-miterlimit="10" points="309.838,300.682 322.032,148.902 
				378.249,300.682 			"/>
			<rect x="431.958" y="63.367" fill="#C0E2CA" stroke="#000000" width="66.711" height="317.393"/>
			<rect x="426.21" y="283.742" fill="#CCDEF0" stroke="#000000" width="5.748" height="33.344"/>
			<path fill="#B2CEE7" stroke="#000000" d="M398.757,300.414h-93.102v16.672c6.146,4.24,59.404,5.021,93.102,5.084V300.414z"/>
			<path fill="#CCDEF0" stroke="#000000" d="M398.757,322.17c16.043,0.031,27.627-0.102,27.627-0.102V117.79
				c0-3.316-28.369-6.005-63.365-6.005s-63.366,2.688-63.366,6.005l6.003,55.573h33.088l1.662-11.882l58.383-5.11L398.757,322.17z"
				/>
			<text transform="matrix(1 -0.0019 0.0019 1 374.5381 311.0879)"><tspan x="0" y="0" fill="#0DB14B" font-size="12">+Y</tspan><tspan x="15.012" y="3" fill="#0DB14B" font-size="12">s</tspan></text>
			<g>
				<ellipse fill="#FEDA00" cx="321.725" cy="149.066" rx="4.594" ry="4.722"/>
				<path d="M321.305,149.157c0-0.257,0.209-0.466,0.461-0.466c0.258,0,0.467,0.209,0.467,0.466c0,0.256-0.209,0.463-0.467,0.463
					C321.514,149.62,321.305,149.413,321.305,149.157z"/>
				<path d="M322.33,148.101c0.354,0.202,0.594,0.592,0.594,1.039c0,0.035-0.002,0.066-0.004,0.1h2.814
					c0.002-0.033,0.002-0.066,0.002-0.1c0-1.513-0.803-2.836-1.996-3.538L322.33,148.101z"/>
				<path d="M321.227,148.101c-0.357,0.202-0.598,0.592-0.598,1.039c0,0.035,0.002,0.066,0.004,0.1h-2.814c0-0.033,0-0.066,0-0.1
					c0-1.513,0.801-2.836,1.992-3.538L321.227,148.101z"/>
				<path d="M322.424,150.13c-0.352,0.206-0.811,0.276-1.197,0.054c-0.027-0.018-0.057-0.036-0.084-0.054l-1.408,2.436
					c0.029,0.018,0.057,0.035,0.086,0.053c1.311,0.756,2.857,0.629,4.062-0.053L322.424,150.13z"/>
			</g>
			<g>
				<g>
					<line fill="none" stroke="#0DB14B" stroke-width="2" x1="310.431" y1="289.9" x2="373.384" y2="289.9"/>
					<g>
						<polygon fill="#0DB14B" points="371.402,292.806 382.243,289.9 371.402,286.995 						"/>
					</g>
				</g>
			</g>
			<g>
				<g>
					<line fill="none" stroke="#0DB14B" stroke-width="2" x1="310.623" y1="289.797" x2="373.224" y2="295.031"/>
					<g>
						<polygon fill="#0DB14B" points="371.007,297.762 382.052,295.77 371.49,291.971 						"/>
					</g>
				</g>
			</g>
			<text transform="matrix(1 -0.0019 0.0019 1 374.5381 288.4082)" fill="#0DB14B" font-size="12">+Y</text>
			<g>
				<text transform="matrix(1 0 0 1 287.3882 284.6787)"><tspan x="0" y="0" font-size="12">O</tspan><tspan x="9.334" y="3" font-size="12">s</tspan></text>
			</g>
			<g>
				<text transform="matrix(1.0877 0 0 1 311.3965 27.9517)"><tspan x="0" y="0" font-size="12">As</tspan><tspan x="13.235" y="3" font-size="10">2</tspan></text>
			</g>
			<g>
				<g>
					<line fill="none" stroke="#000000" stroke-width="0.5" x1="331.688" y1="31.267" x2="331.359" y2="35.253"/>
					
						<line fill="none" stroke="#000000" stroke-width="0.5" stroke-dasharray="1.996,1.996" x1="331.196" y1="37.242" x2="330.95" y2="40.226"/>
					
						<line fill="none" stroke="#000000" stroke-width="0.5" stroke-dasharray="7.9841,1.996,1.996,1.996" x1="330.868" y1="41.221" x2="309.141" y2="304.8"/>
					<line fill="none" stroke="#000000" stroke-width="0.5" x1="309.059" y1="305.795" x2="308.73" y2="309.781"/>
				</g>
			</g>
			<g>
				<g>
					<path fill="none" stroke="#005695" stroke-width="2" stroke-miterlimit="10" d="M298.966,33.907
						c-8.78,0.387-17.436,1.25-25.943,2.565"/>
					<g>
						<polygon fill="#005695" points="296.498,30.542 309.597,33.674 296.687,37.512 						"/>
					</g>
				</g>
			</g>
			<g>
				<g>
					<path fill="none" stroke="#005695" stroke-width="2" stroke-miterlimit="10" d="M369.489,41.811
						c-8.648-2.325-17.51-4.181-26.558-5.538"/>
					<g>
						<polygon fill="#005695" points="345.738,33.183 332.384,34.93 344.822,40.095 						"/>
					</g>
				</g>
			</g>
			
				<line fill="none" stroke="#000000" stroke-width="0.5" stroke-dasharray="4,4" x1="310.531" y1="311.295" x2="310.531" y2="29.543"/>
			<text transform="matrix(1 -0.0019 0.0019 1 319.9219 233.1621)"><tspan x="0" y="0" fill="#00AEEF" font-size="12">+Z</tspan><tspan x="14.338" y="3" fill="#00AEEF" font-size="12">s</tspan></text>
			<g>
				<g>
					<g>
						<line fill="none" stroke="#00AEEF" stroke-width="2" x1="310.431" y1="289.9" x2="315.104" y2="235.934"/>
						<g>
							<polygon fill="#00AEEF" points="317.827,238.158 315.868,227.107 312.038,237.657 							"/>
						</g>
					</g>
				</g>
			</g>
			<text transform="matrix(1 -0.0019 0.0019 1 293.3101 233.1494)" fill="#00AEEF" font-size="12">+Z</text>
			<g>
				<g>
					<line fill="none" stroke="#00AEEF" stroke-width="2" x1="310.847" y1="289.643" x2="310.537" y2="236.104"/>
					<g>
						<polygon fill="#00AEEF" points="313.454,238.068 310.486,227.244 307.644,238.102 						"/>
					</g>
				</g>
			</g>
			<g>
				<path stroke="#000000" stroke-miterlimit="1" d="M316.35,289.662c0.008-3.176-2.57-5.746-5.74-5.746v5.746H316.35z"/>
				<path fill="#FFFFFF" stroke="#010101" stroke-linecap="round" stroke-linejoin="round" stroke-miterlimit="1" d="
					M310.609,283.916c-3.17,0-5.742,2.574-5.742,5.746h5.742V283.916z"/>
				<path stroke="#000000" stroke-miterlimit="1" d="M304.867,289.662c0.002,3.176,2.572,5.742,5.75,5.742l-0.008-5.742H304.867z"/>
				<path fill="#FFFFFF" stroke="#010101" stroke-linecap="round" stroke-linejoin="round" stroke-miterlimit="1" d="
					M310.609,289.662l0.008,5.742c3.166,0,5.74-2.572,5.732-5.742H310.609z"/>
			</g>
		</g>
		
			<line fill="none" stroke="#000000" stroke-width="0.5" stroke-dasharray="8,2,2,2" x1="310.103" y1="289.643" x2="141.897" y2="289.643"/>
	</g>
</g>
</svg>
