<?xml version="1.0" encoding="utf-8"?>

<!DOCTYPE svg PUBLIC "-//W3C//DTD SVG 1.1//EN" "http://www.w3.org/Graphics/SVG/1.1/DTD/svg11.dtd">
<svg version="1.1" id="Layer_1" xmlns="http://www.w3.org/2000/svg" xmlns:xlink="http://www.w3.org/1999/xlink" x="0px" y="0px"
	 width="362px" height="197px" viewBox="0 0 362 197" enable-background="new 0 0 362 197" xml:space="preserve">
        
<defs>
	<style type="text/css">
	text {
	  font-family: Helvetica, Verdana, ArialUnicodeMS, san-serif
	}
	</style>
</defs>

<g>
   <desc>
	PS 3.3 Information Object Definitions
   </desc>
</g>

<g>
	<rect x="1" y="1" fill="#F5EED6" width="360" height="195"/>
	<g>
		<path fill="#F5EED6" d="M300.57,53.639c-15.038,0-27.856,13.551-32.81,32.568c-6.353-6.484-15.203-10.514-24.999-10.514
			c-19.33,0-35,15.673-35,35c0,19.332,15.67,35,35,35c11.766,0,22.166-5.81,28.512-14.711c6.25,13.64,17.033,22.656,29.297,22.656
			c19.33,0,35-22.385,35-50C335.57,76.025,319.9,53.639,300.57,53.639z"/>
		<g>
			<text transform="matrix(1 0 0 1 80.3252 23.8359)" font-size="9">Input</text>
		</g>
		<g>
			<text transform="matrix(1 0 0 1 258.9121 23.8359)" font-size="9">Result</text>
		</g>
		
			<rect x="15.334" y="28.639" fill="#FFFFFF" stroke="#000000" stroke-width="0.5" stroke-miterlimit="10" width="150" height="150.002"/>
		
			<rect x="196.666" y="31.139" fill="#FFFFFF" stroke="#000000" stroke-width="0.5" stroke-miterlimit="10" width="150" height="150.002"/>
		<path fill="#005695" stroke="#000000" stroke-width="0.5" stroke-miterlimit="10" d="M300.57,53.639
			c-15.038,0-27.856,13.551-32.81,32.568c-6.353-6.484-15.203-10.514-24.999-10.514c-19.33,0-35,15.673-35,35
			c0,19.332,15.67,35,35,35c11.766,0,22.166-5.81,28.512-14.711c6.25,13.64,17.033,22.656,29.297,22.656c19.33,0,35-22.385,35-50
			C335.57,76.025,319.9,53.639,300.57,53.639z"/>
		<path fill="none" stroke="#000000" stroke-width="0.5" stroke-miterlimit="10" d="M98.697,110.693c0,19.332-15.668,35-35,35
			c-19.33,0-35-15.668-35-35c0-19.327,15.67-35,35-35C83.029,75.693,98.697,91.366,98.697,110.693z"/>
		<ellipse fill="none" stroke="#000000" stroke-width="0.5" stroke-miterlimit="10" cx="121.506" cy="103.639" rx="35" ry="50"/>
		<g>
			<text transform="matrix(1 0 0 1 38.1709 95.5732)"><tspan x="0" y="0" font-size="9">Spinal Cord</tspan><tspan x="14.26" y="11.8" font-size="9">PRV</tspan><tspan x="18.013" y="23.601" font-size="9">(1)</tspan></text>
		</g>
		<g>
			<text transform="matrix(1 0 0 1 102.7383 100.2422)"><tspan x="0" y="0" font-size="9">Left Lung</tspan><tspan x="13.268" y="11.8" font-size="9">(2)</tspan></text>
		</g>
	</g>
</g>
</svg>
