<?xml version="1.0" encoding="utf-8"?>

<!DOCTYPE svg PUBLIC "-//W3C//DTD SVG 1.1//EN" "http://www.w3.org/Graphics/SVG/1.1/DTD/svg11.dtd">
<svg version="1.1" id="Layer_1" xmlns="http://www.w3.org/2000/svg" xmlns:xlink="http://www.w3.org/1999/xlink" x="0px" y="0px"
	 width="742.452px" height="943.354px" viewBox="0 0 742.452 943.354" enable-background="new 0 0 742.452 943.354"
	 xml:space="preserve">

<defs>
	<style type="text/css">
	text {
	  font-family: Helvetica, Verdana, ArialUnicodeMS, san-serif
	}
	</style>
</defs>

<g>
   <desc>
	PS 3.3 Part 3: Information Object Definitions
   </desc>
</g>

<g>
<rect x="1" y="1" fill="#F5EED8" width="600" height="865"/>
<g>
	<g>
		<g>
			<defs>
				<rect id="SVGID_1_" x="338.222" y="731.779" width="236.002" height="119.669"/>
			</defs>
			<clipPath id="SVGID_2_">
				<use xlink:href="#SVGID_1_"  overflow="visible"/>
			</clipPath>
			<rect x="607.53" y="307.083" clip-path="url(#SVGID_2_)" fill="#C2E2CC" stroke="#000000" width="133.422" height="634.771"/>
			<rect x="596.034" y="747.817" clip-path="url(#SVGID_2_)" fill="#CEDFEF" stroke="#000000" width="11.496" height="66.689"/>
			<polyline clip-path="url(#SVGID_2_)" fill="#FFF479" points="492.983,782.498 364.589,482.547 364.589,780.582 			"/>
			
				<line clip-path="url(#SVGID_2_)" fill="none" stroke="#FFFFFF" stroke-miterlimit="10" x1="482.39" y1="785.462" x2="364.542" y2="481.21"/>
			
				<line clip-path="url(#SVGID_2_)" fill="none" stroke="#FFFFFF" stroke-miterlimit="10" x1="471.698" y1="789.39" x2="364.542" y2="481.21"/>
			
				<line clip-path="url(#SVGID_2_)" fill="none" stroke="#FFFFFF" stroke-miterlimit="10" x1="460.878" y1="792.942" x2="364.542" y2="481.21"/>
			
				<line clip-path="url(#SVGID_2_)" fill="none" stroke="#FFFFFF" stroke-miterlimit="10" x1="449.937" y1="796.114" x2="364.542" y2="481.21"/>
			
				<line clip-path="url(#SVGID_2_)" fill="none" stroke="#FFFFFF" stroke-miterlimit="10" x1="438.894" y1="798.903" x2="364.542" y2="481.21"/>
			
				<line clip-path="url(#SVGID_2_)" fill="none" stroke="#FFFFFF" stroke-miterlimit="10" x1="427.761" y1="801.304" x2="364.542" y2="481.21"/>
			
				<line clip-path="url(#SVGID_2_)" fill="none" stroke="#FFFFFF" stroke-miterlimit="10" x1="416.554" y1="803.313" x2="364.542" y2="481.21"/>
			
				<line clip-path="url(#SVGID_2_)" fill="none" stroke="#FFFFFF" stroke-miterlimit="10" x1="405.276" y1="804.933" x2="364.542" y2="481.21"/>
			
				<line clip-path="url(#SVGID_2_)" fill="none" stroke="#FFFFFF" stroke-miterlimit="10" x1="393.956" y1="806.157" x2="364.542" y2="481.21"/>
			
				<line clip-path="url(#SVGID_2_)" fill="none" stroke="#FFFFFF" stroke-miterlimit="10" x1="382.597" y1="806.985" x2="364.542" y2="481.21"/>
			
				<line clip-path="url(#SVGID_2_)" fill="none" stroke="#FFFFFF" stroke-miterlimit="10" x1="371.214" y1="807.417" x2="364.542" y2="481.21"/>
			<polyline clip-path="url(#SVGID_2_)" fill="none" stroke="#000000" stroke-width="0.5" stroke-miterlimit="10" points="
				492.937,781.161 364.542,481.21 364.542,779.245 			"/>
			<path clip-path="url(#SVGID_2_)" fill="#CEDFEF" stroke="#000000" d="M540.78,824.675c32.086,0.061,55.254-0.205,55.254-0.205
				V415.929c0-6.633-56.738-12.01-126.73-12.01s-126.734,5.377-126.734,12.01l12.008,111.144h66.176l3.324-23.761l116.766-10.221
				L540.78,824.675z"/>
			<path clip-path="url(#SVGID_2_)" fill="#B4CFE6" stroke="#000000" d="M419.548,822.405c38.014,1.726,85.211,2.202,121.232,2.27
				v-43.514H354.577v20.821v12.524c2.752,1.899,10.232,3.452,20.941,4.719L419.548,822.405z"/>
			<g clip-path="url(#SVGID_2_)">
				<path fill="#FDD931" d="M355.542,481.36c0-5.215,4.117-9.443,9.188-9.443s9.188,4.229,9.188,9.443s-4.117,9.439-9.188,9.439
					S355.542,486.575,355.542,481.36z"/>
				<path d="M363.89,481.542c0-0.514,0.418-0.932,0.922-0.932c0.516,0,0.934,0.418,0.934,0.932c0,0.512-0.418,0.926-0.934,0.926
					C364.308,482.468,363.89,482.054,363.89,481.542z"/>
				<path d="M365.94,479.431c0.707,0.404,1.188,1.184,1.188,2.078c0,0.07-0.004,0.133-0.008,0.199h5.629
					c0.004-0.066,0.004-0.133,0.004-0.199c0-3.025-1.605-5.672-3.992-7.076L365.94,479.431z"/>
				<path d="M363.733,479.431c-0.715,0.404-1.195,1.184-1.195,2.078c0,0.07,0.004,0.133,0.008,0.199h-5.629c0-0.066,0-0.133,0-0.199
					c0-3.025,1.602-5.672,3.984-7.076L363.733,479.431z"/>
				<path d="M366.128,483.489c-0.703,0.412-1.621,0.553-2.395,0.107c-0.055-0.035-0.113-0.072-0.168-0.107l-2.816,4.871
					c0.059,0.035,0.113,0.07,0.172,0.105c2.621,1.512,5.715,1.258,8.125-0.105L366.128,483.489z"/>
			</g>
			
				<rect x="383.319" y="788.244" clip-path="url(#SVGID_2_)" fill="#FFFFFF" stroke="#000000" stroke-miterlimit="10" width="90" height="7"/>
			<g clip-path="url(#SVGID_2_)">
				<text transform="matrix(1 0 0 1 345.3203 754.4355)" font-size="16">O</text>
			</g>
			<g clip-path="url(#SVGID_2_)">
				<text transform="matrix(1.0877 0 0 1 435.7266 816.1426)"><tspan x="0" y="0" font-size="16">O</tspan><tspan x="11.934" y="3" font-size="16">d</tspan><tspan x="20.321" y="6" font-size="16">n</tspan></text>
			</g>
			<g clip-path="url(#SVGID_2_)">
				<g>
					
						<line fill="none" stroke="#000000" stroke-width="4" stroke-dasharray="3,3" x1="365.29" y1="759.415" x2="413.021" y2="793.552"/>
					<g>
						<polygon points="407.739,795.488 424.552,801.798 413.147,787.927 						"/>
					</g>
				</g>
			</g>
			<g clip-path="url(#SVGID_2_)">
				<path stroke="#000000" stroke-miterlimit="1" d="M370.466,760.017c0.008-3.041-2.461-5.502-5.496-5.502v5.502H370.466z"/>
				<path fill="#FFFFFF" stroke="#010101" stroke-linecap="round" stroke-linejoin="round" stroke-miterlimit="1" d="
					M364.97,754.515c-3.037,0-5.5,2.465-5.5,5.502h5.5V754.515z"/>
				<path stroke="#000000" stroke-miterlimit="1" d="M359.47,760.017c0.002,3.041,2.463,5.498,5.506,5.498l-0.006-5.498H359.47z"/>
				<path fill="#FFFFFF" stroke="#010101" stroke-linecap="round" stroke-linejoin="round" stroke-miterlimit="1" d="
					M364.97,760.017l0.006,5.498c3.033,0,5.498-2.463,5.49-5.498H364.97z"/>
			</g>
			<g clip-path="url(#SVGID_2_)">
				<path fill="#FFFFFF" stroke="#000000" stroke-miterlimit="1" d="M433.823,806.174c0.006-2.488-2.016-4.502-4.5-4.502v4.502
					H433.823z"/>
				<path fill="#808080" stroke="#000000" stroke-linecap="round" stroke-linejoin="round" stroke-miterlimit="1" d="
					M429.323,801.672c-2.482,0-4.5,2.018-4.5,4.502h4.5V801.672z"/>
				<path fill="#FFFFFF" stroke="#000000" stroke-miterlimit="1" d="M424.823,806.174c0.002,2.488,2.018,4.498,4.506,4.498
					l-0.006-4.498H424.823z"/>
				<path fill="#808080" stroke="#000000" stroke-linecap="round" stroke-linejoin="round" stroke-miterlimit="1" d="
					M429.323,806.174l0.006,4.498c2.482,0,4.5-2.016,4.494-4.498H429.323z"/>
			</g>
		</g>
		<g>
			<defs>
				<rect id="SVGID_3_" x="27.502" y="731.796" width="175.867" height="119.652"/>
			</defs>
			<clipPath id="SVGID_4_">
				<use xlink:href="#SVGID_3_"  overflow="visible"/>
			</clipPath>
			<rect x="42.966" y="307.086" clip-path="url(#SVGID_4_)" fill="#C2E2CC" stroke="#000000" width="133.422" height="634.744"/>
			<rect x="60.919" y="413.892" clip-path="url(#SVGID_4_)" fill="#CEDFEF" stroke="#000000" width="99.49" height="365.523"/>
			<polyline clip-path="url(#SVGID_4_)" fill="#FFF479" points="179.79,781.039 110.856,476.801 42.966,781.039 			"/>
			
				<line clip-path="url(#SVGID_4_)" fill="none" stroke="#FFFFFF" stroke-miterlimit="10" x1="174.481" y1="781.477" x2="110.761" y2="476.801"/>
			
				<line clip-path="url(#SVGID_4_)" fill="none" stroke="#FFFFFF" stroke-miterlimit="10" x1="163.808" y1="783.514" x2="110.761" y2="476.801"/>
			
				<line clip-path="url(#SVGID_4_)" fill="none" stroke="#FFFFFF" stroke-miterlimit="10" x1="153.069" y1="785.178" x2="110.761" y2="476.801"/>
			
				<line clip-path="url(#SVGID_4_)" fill="none" stroke="#FFFFFF" stroke-miterlimit="10" x1="142.278" y1="786.467" x2="110.761" y2="476.801"/>
			
				<line clip-path="url(#SVGID_4_)" fill="none" stroke="#FFFFFF" stroke-miterlimit="10" x1="131.45" y1="787.379" x2="110.761" y2="476.801"/>
			
				<line clip-path="url(#SVGID_4_)" fill="none" stroke="#FFFFFF" stroke-miterlimit="10" x1="120.597" y1="787.912" x2="110.761" y2="476.801"/>
			
				<line clip-path="url(#SVGID_4_)" fill="none" stroke="#FFFFFF" stroke-miterlimit="10" x1="109.731" y1="788.066" x2="110.761" y2="476.801"/>
			
				<line clip-path="url(#SVGID_4_)" fill="none" stroke="#FFFFFF" stroke-miterlimit="10" x1="98.866" y1="787.842" x2="110.761" y2="476.801"/>
			
				<line clip-path="url(#SVGID_4_)" fill="none" stroke="#FFFFFF" stroke-miterlimit="10" x1="88.017" y1="787.238" x2="110.761" y2="476.801"/>
			
				<line clip-path="url(#SVGID_4_)" fill="none" stroke="#FFFFFF" stroke-miterlimit="10" x1="77.194" y1="786.256" x2="110.761" y2="476.801"/>
			
				<line clip-path="url(#SVGID_4_)" fill="none" stroke="#FFFFFF" stroke-miterlimit="10" x1="66.413" y1="784.896" x2="110.761" y2="476.801"/>
			
				<line clip-path="url(#SVGID_4_)" fill="none" stroke="#FFFFFF" stroke-miterlimit="10" x1="55.685" y1="783.162" x2="110.761" y2="476.801"/>
			
				<line clip-path="url(#SVGID_4_)" fill="none" stroke="#FFFFFF" stroke-miterlimit="10" x1="45.024" y1="781.053" x2="110.761" y2="476.801"/>
			<path clip-path="url(#SVGID_4_)" fill="#B4CFE6" stroke="#000000" d="M128.852,824.769c-5.942,0.192-12.155,0.295-18.55,0.295
				c-42.646,0-76.841-4.557-76.841-10.176v-33.346h154.063v33.346c0.001,2.854-8.918,5.434-23.283,7.281L128.852,824.769z"/>
			<polyline clip-path="url(#SVGID_4_)" fill="none" stroke="#000000" stroke-width="0.5" stroke-miterlimit="10" points="
				179.79,781.039 110.761,476.801 42.966,780.318 			"/>
			<path clip-path="url(#SVGID_4_)" fill="#CEDFEF" stroke="#000000" d="M156.849,415.132c0-8.112-20.811-14.689-46.484-14.69
				c-25.672,0.001-46.48,6.577-46.482,14.691l11.9,114.082l69.168-0.001L156.849,415.132z"/>
			
				<line clip-path="url(#SVGID_4_)" fill="none" stroke="#000000" stroke-width="0.5" stroke-dasharray="4,4" x1="110.716" y1="759.703" x2="110.716" y2="225.279"/>
			<path clip-path="url(#SVGID_4_)" fill="#FDD931" d="M101.179,481.363c0-5.215,4.117-9.443,9.188-9.443s9.188,4.229,9.188,9.443
				s-4.117,9.439-9.188,9.439S101.179,486.578,101.179,481.363z"/>
			<path clip-path="url(#SVGID_4_)" d="M109.526,481.545c0-0.514,0.418-0.932,0.922-0.932c0.516,0,0.934,0.418,0.934,0.932
				c0,0.512-0.418,0.926-0.934,0.926C109.944,482.471,109.526,482.057,109.526,481.545z"/>
			<path clip-path="url(#SVGID_4_)" d="M111.577,479.434c0.707,0.404,1.188,1.184,1.188,2.078c0,0.07-0.004,0.133-0.008,0.199h5.629
				c0.004-0.066,0.004-0.133,0.004-0.199c0-3.025-1.605-5.672-3.992-7.076L111.577,479.434z"/>
			<path clip-path="url(#SVGID_4_)" d="M109.37,479.434c-0.715,0.404-1.195,1.184-1.195,2.078c0,0.07,0.004,0.133,0.008,0.199
				h-5.629c0-0.066,0-0.133,0-0.199c0-3.025,1.602-5.672,3.984-7.076L109.37,479.434z"/>
			<path clip-path="url(#SVGID_4_)" d="M111.765,483.492c-0.703,0.412-1.621,0.553-2.395,0.107
				c-0.055-0.035-0.113-0.072-0.168-0.107l-2.816,4.871c0.059,0.035,0.113,0.07,0.172,0.105c2.621,1.512,5.715,1.258,8.125-0.105
				L111.765,483.492z"/>
			
				<rect x="53.563" y="788.236" clip-path="url(#SVGID_4_)" fill="#FFFFFF" stroke="#000000" stroke-miterlimit="10" width="90" height="7"/>
			<g clip-path="url(#SVGID_4_)">
				<text transform="matrix(1.0877 0 0 1 98.8545 816.5039)"><tspan x="0" y="0" font-size="16">O</tspan><tspan x="11.934" y="3" font-size="16">d</tspan><tspan x="20.32" y="6" font-size="16">n</tspan></text>
			</g>
			<g clip-path="url(#SVGID_4_)">
				<path fill="#FFFFFF" stroke="#000000" stroke-miterlimit="1" d="M94.471,805.487c0.006-2.488-2.015-4.501-4.5-4.501v4.501
					H94.471z"/>
				<path fill="#808080" stroke="#000000" stroke-linecap="round" stroke-linejoin="round" stroke-miterlimit="1" d="
					M89.971,800.986c-2.484,0-4.5,2.017-4.5,4.501h4.5V800.986z"/>
				<path fill="#FFFFFF" stroke="#000000" stroke-miterlimit="1" d="M85.471,805.487c0.002,2.489,2.016,4.499,4.507,4.499
					l-0.007-4.499H85.471z"/>
				<path fill="#808080" stroke="#000000" stroke-linecap="round" stroke-linejoin="round" stroke-miterlimit="1" d="
					M89.971,805.487l0.007,4.499c2.481,0,4.499-2.017,4.493-4.499H89.971z"/>
			</g>
			<g clip-path="url(#SVGID_4_)">
				<text transform="matrix(1 0 0 1 90.1729 754.4355)" font-size="16">O</text>
			</g>
			<g clip-path="url(#SVGID_4_)">
				<g>
					
						<line fill="none" stroke="#000000" stroke-width="4" stroke-dasharray="3,3" x1="110.398" y1="759.13" x2="97.89" y2="787.044"/>
					<g>
						<polygon points="94.945,782.25 92.094,799.979 103.429,786.052 						"/>
					</g>
				</g>
			</g>
			<g clip-path="url(#SVGID_4_)">
				<path stroke="#000000" stroke-miterlimit="1" d="M116.154,759.631c0.005-3.042-2.463-5.502-5.502-5.502v5.502H116.154z"/>
				<path fill="#FFFFFF" stroke="#010101" stroke-linecap="round" stroke-linejoin="round" stroke-miterlimit="1" d="
					M110.652,754.129c-3.033,0-5.498,2.464-5.498,5.502h5.498V754.129z"/>
				<path stroke="#000000" stroke-miterlimit="1" d="M105.154,759.631c0.002,3.043,2.465,5.5,5.506,5.5l-0.008-5.5H105.154z"/>
				<path fill="#FFFFFF" stroke="#010101" stroke-linecap="round" stroke-linejoin="round" stroke-miterlimit="1" d="
					M110.652,759.631l0.008,5.5c3.034,0,5.499-2.463,5.494-5.5H110.652z"/>
			</g>
		</g>
		<g>
			<g>
				<line fill="none" stroke="#005995" stroke-width="2" x1="320.396" y1="772.088" x2="363.954" y2="772.088"/>
				<g>
					<polygon fill="#005995" points="361.576,775.574 374.585,772.088 361.576,768.602 					"/>
				</g>
			</g>
		</g>
		<g>
			<g>
				<line fill="none" stroke="#005995" stroke-width="2" x1="214.066" y1="772.088" x2="120.82" y2="772.088"/>
				<g>
					<polygon fill="#005995" points="123.197,768.602 110.188,772.088 123.197,775.574 					"/>
				</g>
			</g>
		</g>
		<polygon fill="none" points="218.415,779.866 218.91,764.31 319.28,764.31 318.786,779.866 		"/>
		<text transform="matrix(1 0 0 1 218.8735 775.7598)"><tspan x="0" y="0" font-size="16">(Dx</tspan><tspan x="23.347" y="3" font-size="16">n</tspan><tspan x="31.733" y="0" font-size="16">,Dy</tspan><tspan x="54.197" y="3" font-size="16">n</tspan><tspan x="62.583" y="0" font-size="16">,Dz</tspan><tspan x="85.046" y="3" font-size="16">n</tspan><tspan x="93.433" y="0" font-size="16">)</tspan></text>
	</g>
	<rect x="264.837" y="690.162" fill="none" width="30.368" height="29.186"/>
	<text transform="matrix(1 0 0 1 270.7866 707.3379)" font-size="24">...</text>
	<g>
		<g>
			<defs>
				<rect id="SVGID_5_" x="338.222" y="558.057" width="236.002" height="119.669"/>
			</defs>
			<clipPath id="SVGID_6_">
				<use xlink:href="#SVGID_5_"  overflow="visible"/>
			</clipPath>
			<rect x="607.53" y="133.337" clip-path="url(#SVGID_6_)" fill="#C2E2CC" stroke="#000000" width="133.422" height="634.794"/>
			<rect x="596.034" y="574.095" clip-path="url(#SVGID_6_)" fill="#CEDFEF" stroke="#000000" width="11.496" height="66.689"/>
			<polyline clip-path="url(#SVGID_6_)" fill="#FFF479" points="492.983,608.775 364.589,308.801 364.589,606.859 			"/>
			
				<line clip-path="url(#SVGID_6_)" fill="none" stroke="#FFFFFF" stroke-miterlimit="10" x1="482.39" y1="611.739" x2="364.542" y2="307.464"/>
			
				<line clip-path="url(#SVGID_6_)" fill="none" stroke="#FFFFFF" stroke-miterlimit="10" x1="471.698" y1="615.667" x2="364.542" y2="307.464"/>
			
				<line clip-path="url(#SVGID_6_)" fill="none" stroke="#FFFFFF" stroke-miterlimit="10" x1="460.878" y1="619.22" x2="364.542" y2="307.464"/>
			
				<line clip-path="url(#SVGID_6_)" fill="none" stroke="#FFFFFF" stroke-miterlimit="10" x1="449.937" y1="622.392" x2="364.542" y2="307.464"/>
			
				<line clip-path="url(#SVGID_6_)" fill="none" stroke="#FFFFFF" stroke-miterlimit="10" x1="438.894" y1="625.181" x2="364.542" y2="307.464"/>
			
				<line clip-path="url(#SVGID_6_)" fill="none" stroke="#FFFFFF" stroke-miterlimit="10" x1="427.761" y1="627.581" x2="364.542" y2="307.464"/>
			
				<line clip-path="url(#SVGID_6_)" fill="none" stroke="#FFFFFF" stroke-miterlimit="10" x1="416.554" y1="629.591" x2="364.542" y2="307.464"/>
			
				<line clip-path="url(#SVGID_6_)" fill="none" stroke="#FFFFFF" stroke-miterlimit="10" x1="405.276" y1="631.21" x2="364.542" y2="307.464"/>
			
				<line clip-path="url(#SVGID_6_)" fill="none" stroke="#FFFFFF" stroke-miterlimit="10" x1="393.956" y1="632.435" x2="364.542" y2="307.464"/>
			
				<line clip-path="url(#SVGID_6_)" fill="none" stroke="#FFFFFF" stroke-miterlimit="10" x1="382.597" y1="633.263" x2="364.542" y2="307.464"/>
			
				<line clip-path="url(#SVGID_6_)" fill="none" stroke="#FFFFFF" stroke-miterlimit="10" x1="371.214" y1="633.694" x2="364.542" y2="307.464"/>
			<polyline clip-path="url(#SVGID_6_)" fill="none" stroke="#000000" stroke-width="0.5" stroke-miterlimit="10" points="
				492.937,607.438 364.542,307.464 364.542,605.522 			"/>
			<path clip-path="url(#SVGID_6_)" fill="#CEDFEF" stroke="#000000" d="M540.78,650.952c32.086,0.061,55.254-0.205,55.254-0.205
				V242.183c0-6.633-56.738-12.01-126.73-12.01s-126.734,5.377-126.734,12.01l12.008,111.146h66.176l3.324-23.764l116.766-10.221
				L540.78,650.952z"/>
			<path clip-path="url(#SVGID_6_)" fill="#B4CFE6" stroke="#000000" d="M419.548,648.683c38.014,1.726,85.211,2.202,121.232,2.27
				v-43.514H354.577v20.821v12.524c2.752,1.899,10.232,3.452,20.941,4.719L419.548,648.683z"/>
			<g clip-path="url(#SVGID_6_)">
				<path fill="#FDD931" d="M355.542,307.615c0-5.215,4.117-9.443,9.188-9.443s9.188,4.229,9.188,9.443s-4.117,9.439-9.188,9.439
					S355.542,312.83,355.542,307.615z"/>
				<path d="M363.89,307.796c0-0.514,0.418-0.932,0.922-0.932c0.516,0,0.934,0.418,0.934,0.932c0,0.512-0.418,0.926-0.934,0.926
					C364.308,308.722,363.89,308.308,363.89,307.796z"/>
				<path d="M365.94,305.685c0.707,0.404,1.188,1.184,1.188,2.078c0,0.07-0.004,0.133-0.008,0.199h5.629
					c0.004-0.066,0.004-0.133,0.004-0.199c0-3.025-1.605-5.672-3.992-7.076L365.94,305.685z"/>
				<path d="M363.733,305.685c-0.715,0.404-1.195,1.184-1.195,2.078c0,0.07,0.004,0.133,0.008,0.199h-5.629c0-0.066,0-0.133,0-0.199
					c0-3.025,1.602-5.672,3.984-7.076L363.733,305.685z"/>
				<path d="M366.128,309.744c-0.703,0.412-1.621,0.553-2.395,0.107c-0.055-0.035-0.113-0.072-0.168-0.107l-2.816,4.871
					c0.059,0.035,0.113,0.07,0.172,0.105c2.621,1.512,5.715,1.258,8.125-0.105L366.128,309.744z"/>
			</g>
			
				<rect x="372.521" y="614.521" clip-path="url(#SVGID_6_)" fill="#FFFFFF" stroke="#000000" stroke-miterlimit="10" width="90" height="7"/>
			<g clip-path="url(#SVGID_6_)">
				<text transform="matrix(1 0 0 1 345.3203 580.6953)" font-size="16">O</text>
			</g>
			<g clip-path="url(#SVGID_6_)">
				<text transform="matrix(1.0877 0 0 1 417.7266 642.4023)"><tspan x="0" y="0" font-size="16">O</tspan><tspan x="11.934" y="3" font-size="16">d</tspan><tspan x="20.321" y="6" font-size="16">1</tspan></text>
			</g>
			<g clip-path="url(#SVGID_6_)">
				<g>
					
						<line fill="none" stroke="#000000" stroke-width="4" stroke-dasharray="3,3" x1="365.29" y1="585.692" x2="397.252" y2="617.687"/>
					<g>
						<polygon points="391.723,618.729 407.271,627.715 398.3,612.158 						"/>
					</g>
				</g>
			</g>
			<g clip-path="url(#SVGID_6_)">
				<path stroke="#000000" stroke-miterlimit="1" d="M370.466,586.294c0.008-3.041-2.461-5.502-5.496-5.502v5.502H370.466z"/>
				<path fill="#FFFFFF" stroke="#010101" stroke-linecap="round" stroke-linejoin="round" stroke-miterlimit="1" d="
					M364.97,580.792c-3.037,0-5.5,2.465-5.5,5.502h5.5V580.792z"/>
				<path stroke="#000000" stroke-miterlimit="1" d="M359.47,586.294c0.002,3.041,2.463,5.498,5.506,5.498l-0.006-5.498H359.47z"/>
				<path fill="#FFFFFF" stroke="#010101" stroke-linecap="round" stroke-linejoin="round" stroke-miterlimit="1" d="
					M364.97,586.294l0.006,5.498c3.033,0,5.498-2.463,5.49-5.498H364.97z"/>
			</g>
			<g clip-path="url(#SVGID_6_)">
				<path fill="#FFFFFF" stroke="#000000" stroke-miterlimit="1" d="M415.825,632.451c0.006-2.488-2.016-4.502-4.5-4.502v4.502
					H415.825z"/>
				<path fill="#808080" stroke="#000000" stroke-linecap="round" stroke-linejoin="round" stroke-miterlimit="1" d="
					M411.325,627.949c-2.482,0-4.5,2.018-4.5,4.502h4.5V627.949z"/>
				<path fill="#FFFFFF" stroke="#000000" stroke-miterlimit="1" d="M406.825,632.451c0.002,2.488,2.018,4.498,4.506,4.498
					l-0.006-4.498H406.825z"/>
				<path fill="#808080" stroke="#000000" stroke-linecap="round" stroke-linejoin="round" stroke-miterlimit="1" d="
					M411.325,632.451l0.006,4.498c2.482,0,4.5-2.016,4.494-4.498H411.325z"/>
			</g>
		</g>
		<g>
			<defs>
				<rect id="SVGID_7_" x="27.502" y="558.073" width="175.867" height="119.652"/>
			</defs>
			<clipPath id="SVGID_8_">
				<use xlink:href="#SVGID_7_"  overflow="visible"/>
			</clipPath>
			<rect x="42.966" y="133.34" clip-path="url(#SVGID_8_)" fill="#C2E2CC" stroke="#000000" width="133.422" height="634.767"/>
			<rect x="60.919" y="240.146" clip-path="url(#SVGID_8_)" fill="#CEDFEF" stroke="#000000" width="99.49" height="365.546"/>
			<polyline clip-path="url(#SVGID_8_)" fill="#FFF479" points="179.79,607.316 110.856,303.055 42.966,607.316 			"/>
			
				<line clip-path="url(#SVGID_8_)" fill="none" stroke="#FFFFFF" stroke-miterlimit="10" x1="174.481" y1="607.754" x2="110.761" y2="303.055"/>
			
				<line clip-path="url(#SVGID_8_)" fill="none" stroke="#FFFFFF" stroke-miterlimit="10" x1="163.808" y1="609.791" x2="110.761" y2="303.055"/>
			
				<line clip-path="url(#SVGID_8_)" fill="none" stroke="#FFFFFF" stroke-miterlimit="10" x1="153.069" y1="611.455" x2="110.761" y2="303.055"/>
			
				<line clip-path="url(#SVGID_8_)" fill="none" stroke="#FFFFFF" stroke-miterlimit="10" x1="142.278" y1="612.744" x2="110.761" y2="303.055"/>
			
				<line clip-path="url(#SVGID_8_)" fill="none" stroke="#FFFFFF" stroke-miterlimit="10" x1="131.45" y1="613.656" x2="110.761" y2="303.055"/>
			
				<line clip-path="url(#SVGID_8_)" fill="none" stroke="#FFFFFF" stroke-miterlimit="10" x1="120.597" y1="614.189" x2="110.761" y2="303.055"/>
			
				<line clip-path="url(#SVGID_8_)" fill="none" stroke="#FFFFFF" stroke-miterlimit="10" x1="109.731" y1="614.344" x2="110.761" y2="303.055"/>
			
				<line clip-path="url(#SVGID_8_)" fill="none" stroke="#FFFFFF" stroke-miterlimit="10" x1="98.866" y1="614.119" x2="110.761" y2="303.055"/>
			
				<line clip-path="url(#SVGID_8_)" fill="none" stroke="#FFFFFF" stroke-miterlimit="10" x1="88.017" y1="613.516" x2="110.761" y2="303.055"/>
			
				<line clip-path="url(#SVGID_8_)" fill="none" stroke="#FFFFFF" stroke-miterlimit="10" x1="77.194" y1="612.533" x2="110.761" y2="303.055"/>
			
				<line clip-path="url(#SVGID_8_)" fill="none" stroke="#FFFFFF" stroke-miterlimit="10" x1="66.413" y1="611.174" x2="110.761" y2="303.055"/>
			
				<line clip-path="url(#SVGID_8_)" fill="none" stroke="#FFFFFF" stroke-miterlimit="10" x1="55.685" y1="609.439" x2="110.761" y2="303.055"/>
			
				<line clip-path="url(#SVGID_8_)" fill="none" stroke="#FFFFFF" stroke-miterlimit="10" x1="45.024" y1="607.33" x2="110.761" y2="303.055"/>
			<path clip-path="url(#SVGID_8_)" fill="#B4CFE6" stroke="#000000" d="M128.852,651.046c-5.942,0.192-12.155,0.295-18.55,0.295
				c-42.646,0-76.841-4.557-76.841-10.176v-33.346h154.063v33.346c0.001,2.854-8.918,5.434-23.283,7.281L128.852,651.046z"/>
			<polyline clip-path="url(#SVGID_8_)" fill="none" stroke="#000000" stroke-width="0.5" stroke-miterlimit="10" points="
				179.79,607.316 110.761,303.055 42.966,606.596 			"/>
			<path clip-path="url(#SVGID_8_)" fill="#CEDFEF" stroke="#000000" d="M156.849,241.386c0-8.112-20.811-14.689-46.484-14.69
				c-25.672,0.001-46.48,6.577-46.482,14.691l11.9,114.086l69.168-0.001L156.849,241.386z"/>
			
				<line clip-path="url(#SVGID_8_)" fill="none" stroke="#000000" stroke-width="0.5" stroke-dasharray="4,4" x1="110.716" y1="585.98" x2="110.716" y2="51.534"/>
			<path clip-path="url(#SVGID_8_)" fill="#FDD931" d="M101.179,307.618c0-5.215,4.117-9.443,9.188-9.443s9.188,4.229,9.188,9.443
				s-4.117,9.439-9.188,9.439S101.179,312.833,101.179,307.618z"/>
			<path clip-path="url(#SVGID_8_)" d="M109.526,307.799c0-0.514,0.418-0.932,0.922-0.932c0.516,0,0.934,0.418,0.934,0.932
				c0,0.512-0.418,0.926-0.934,0.926C109.944,308.725,109.526,308.311,109.526,307.799z"/>
			<path clip-path="url(#SVGID_8_)" d="M111.577,305.688c0.707,0.404,1.188,1.184,1.188,2.078c0,0.07-0.004,0.133-0.008,0.199h5.629
				c0.004-0.066,0.004-0.133,0.004-0.199c0-3.025-1.605-5.672-3.992-7.076L111.577,305.688z"/>
			<path clip-path="url(#SVGID_8_)" d="M109.37,305.688c-0.715,0.404-1.195,1.184-1.195,2.078c0,0.07,0.004,0.133,0.008,0.199
				h-5.629c0-0.066,0-0.133,0-0.199c0-3.025,1.602-5.672,3.984-7.076L109.37,305.688z"/>
			<path clip-path="url(#SVGID_8_)" d="M111.765,309.747c-0.703,0.412-1.621,0.553-2.395,0.107
				c-0.055-0.035-0.113-0.072-0.168-0.107l-2.816,4.871c0.059,0.035,0.113,0.07,0.172,0.105c2.621,1.512,5.715,1.258,8.125-0.105
				L111.765,309.747z"/>
			
				<rect x="71.564" y="614.514" clip-path="url(#SVGID_8_)" fill="#FFFFFF" stroke="#000000" stroke-miterlimit="10" width="90" height="7"/>
			<g clip-path="url(#SVGID_8_)">
				<text transform="matrix(1.0877 0 0 1 124.0542 642.7617)"><tspan x="0" y="0" font-size="16">O</tspan><tspan x="11.934" y="3" font-size="16">d</tspan><tspan x="20.32" y="6" font-size="16">1</tspan></text>
			</g>
			<g clip-path="url(#SVGID_8_)">
				<path fill="#FFFFFF" stroke="#000000" stroke-miterlimit="1" d="M119.672,631.765c0.006-2.488-2.015-4.501-4.5-4.501v4.501
					H119.672z"/>
				<path fill="#808080" stroke="#000000" stroke-linecap="round" stroke-linejoin="round" stroke-miterlimit="1" d="
					M115.172,627.264c-2.484,0-4.5,2.017-4.5,4.501h4.5V627.264z"/>
				<path fill="#FFFFFF" stroke="#000000" stroke-miterlimit="1" d="M110.672,631.765c0.002,2.489,2.016,4.499,4.507,4.499
					l-0.007-4.499H110.672z"/>
				<path fill="#808080" stroke="#000000" stroke-linecap="round" stroke-linejoin="round" stroke-miterlimit="1" d="
					M115.172,631.765l0.007,4.499c2.481,0,4.499-2.017,4.493-4.499H115.172z"/>
			</g>
			<g clip-path="url(#SVGID_8_)">
				<text transform="matrix(1 0 0 1 90.1729 580.6943)" font-size="16">O</text>
			</g>
			<g clip-path="url(#SVGID_8_)">
				<g>
					
						<line fill="none" stroke="#000000" stroke-width="4" stroke-dasharray="3,3" x1="110.398" y1="585.407" x2="113.501" y2="612.176"/>
					<g>
						<polygon points="108.519,609.562 115.134,626.257 117.754,608.491 						"/>
					</g>
				</g>
			</g>
			<g clip-path="url(#SVGID_8_)">
				<path stroke="#000000" stroke-miterlimit="1" d="M116.154,585.908c0.005-3.042-2.463-5.502-5.502-5.502v5.502H116.154z"/>
				<path fill="#FFFFFF" stroke="#010101" stroke-linecap="round" stroke-linejoin="round" stroke-miterlimit="1" d="
					M110.652,580.406c-3.033,0-5.498,2.464-5.498,5.502h5.498V580.406z"/>
				<path stroke="#000000" stroke-miterlimit="1" d="M105.154,585.908c0.002,3.043,2.465,5.5,5.506,5.5l-0.008-5.5H105.154z"/>
				<path fill="#FFFFFF" stroke="#010101" stroke-linecap="round" stroke-linejoin="round" stroke-miterlimit="1" d="
					M110.652,585.908l0.008,5.5c3.034,0,5.499-2.463,5.494-5.5H110.652z"/>
			</g>
		</g>
		<g>
			<g>
				<polyline fill="none" stroke="#005995" stroke-width="2" points="320.396,589.198 338.589,589.198 362.237,598.711 				"/>
				<g>
					<polygon fill="#005995" points="358.73,601.059 372.101,602.679 361.333,594.589 					"/>
				</g>
			</g>
		</g>
		<g>
			<g>
				<polyline fill="none" stroke="#005995" stroke-width="2" points="210.467,589.198 192.271,589.198 129.308,598.592 				"/>
				<g>
					<polygon fill="#005995" points="131.145,594.792 118.793,600.16 132.174,601.688 					"/>
				</g>
			</g>
		</g>
		<polygon fill="none" points="215.176,597.14 215.687,581.583 319.243,581.583 318.733,597.14 		"/>
		<text transform="matrix(1 0 0 1 215.6479 593.0361)"><tspan x="0" y="0" font-size="16">(Dx</tspan><tspan x="23.347" y="3" font-size="16">1</tspan><tspan x="31.733" y="0" font-size="16">,Dy</tspan><tspan x="54.197" y="3" font-size="16">1</tspan><tspan x="62.583" y="0" font-size="16">,Dz</tspan><tspan x="85.047" y="3" font-size="16">1</tspan><tspan x="93.433" y="0" font-size="16">)</tspan></text>
	</g>
	<g>
		<g>
			<polyline fill="#FFF479" points="492.983,443.188 364.589,143.2 364.589,441.271 			"/>
			<line fill="none" stroke="#FFFFFF" stroke-miterlimit="10" x1="482.39" y1="446.152" x2="364.542" y2="141.863"/>
			<line fill="none" stroke="#FFFFFF" stroke-miterlimit="10" x1="471.698" y1="450.08" x2="364.542" y2="141.863"/>
			<line fill="none" stroke="#FFFFFF" stroke-miterlimit="10" x1="460.878" y1="453.634" x2="364.542" y2="141.863"/>
			<line fill="none" stroke="#FFFFFF" stroke-miterlimit="10" x1="449.937" y1="456.807" x2="364.542" y2="141.863"/>
			<line fill="none" stroke="#FFFFFF" stroke-miterlimit="10" x1="438.894" y1="459.596" x2="364.542" y2="141.863"/>
			<line fill="none" stroke="#FFFFFF" stroke-miterlimit="10" x1="427.761" y1="461.996" x2="364.542" y2="141.863"/>
			<line fill="none" stroke="#FFFFFF" stroke-miterlimit="10" x1="416.554" y1="464.006" x2="364.542" y2="141.863"/>
			<line fill="none" stroke="#FFFFFF" stroke-miterlimit="10" x1="405.276" y1="465.625" x2="364.542" y2="141.863"/>
			<line fill="none" stroke="#FFFFFF" stroke-miterlimit="10" x1="393.956" y1="466.851" x2="364.542" y2="141.863"/>
			<line fill="none" stroke="#FFFFFF" stroke-miterlimit="10" x1="382.597" y1="467.679" x2="364.542" y2="141.863"/>
			<line fill="none" stroke="#FFFFFF" stroke-miterlimit="10" x1="371.214" y1="468.11" x2="364.542" y2="141.863"/>
			<polyline fill="none" stroke="#000000" stroke-width="0.5" stroke-miterlimit="10" points="492.937,441.852 364.542,141.863 
				364.542,439.935 			"/>
			<path fill="#CEDFEF" stroke="#000000" d="M574.497,69.882c-22.76-3.203-61.38-5.31-105.193-5.31
				c-69.992,0-126.734,5.377-126.734,12.01l12.008,111.146h66.176l3.324-23.764l116.766-10.221l-0.062,331.627
				c13.027,0.024,24.584-0.005,33.718-0.048"/>
			<path fill="#B4CFE6" stroke="#000000" d="M419.548,483.101c38.014,1.726,85.211,2.202,121.232,2.271v-43.52H354.577v20.823
				v12.526c2.752,1.899,10.232,3.453,20.941,4.719L419.548,483.101z"/>
			<path fill="#FDD931" d="M355.542,142.013c0-5.215,4.117-9.443,9.188-9.443s9.188,4.229,9.188,9.443s-4.117,9.439-9.188,9.439
				S355.542,147.228,355.542,142.013z"/>
			<path d="M363.89,142.195c0-0.514,0.418-0.932,0.922-0.932c0.516,0,0.934,0.418,0.934,0.932c0,0.512-0.418,0.926-0.934,0.926
				C364.308,143.121,363.89,142.707,363.89,142.195z"/>
			<path d="M365.94,140.083c0.707,0.404,1.188,1.184,1.188,2.078c0,0.07-0.004,0.133-0.008,0.199h5.629
				c0.004-0.066,0.004-0.133,0.004-0.199c0-3.025-1.605-5.672-3.992-7.076L365.94,140.083z"/>
			<path d="M363.733,140.083c-0.715,0.404-1.195,1.184-1.195,2.078c0,0.07,0.004,0.133,0.008,0.199h-5.629c0-0.066,0-0.133,0-0.199
				c0-3.025,1.602-5.672,3.984-7.076L363.733,140.083z"/>
			<path d="M366.128,144.142c-0.703,0.412-1.621,0.553-2.395,0.107c-0.055-0.035-0.113-0.072-0.168-0.107l-2.816,4.871
				c0.059,0.035,0.113,0.07,0.172,0.105c2.621,1.512,5.715,1.258,8.125-0.105L366.128,144.142z"/>
			<rect x="361.722" y="448.936" fill="#FFFFFF" stroke="#000000" stroke-miterlimit="10" width="90" height="7"/>
			<g>
				<text transform="matrix(1 0 0 1 345.3203 415.0962)" font-size="16">O</text>
			</g>
			<g>
				<text transform="matrix(1.0877 0 0 1 396.25 476.8018)"><tspan x="0" y="0" font-size="16">O</tspan><tspan x="11.934" y="3" font-size="16">d</tspan></text>
			</g>
			<g>
				<g>
					
						<line fill="none" stroke="#000000" stroke-width="4" stroke-dasharray="3,3" x1="364.573" y1="420.823" x2="379.859" y2="450.27"/>
					<g>
						<polygon points="374.272,449.598 386.39,462.851 382.524,445.314 						"/>
					</g>
				</g>
			</g>
			<path stroke="#000000" stroke-miterlimit="1" d="M370.466,420.704c0.008-3.042-2.461-5.503-5.496-5.503v5.503H370.466z"/>
			<path fill="#FFFFFF" stroke="#010101" stroke-linecap="round" stroke-linejoin="round" stroke-miterlimit="1" d="M364.97,415.201
				c-3.037,0-5.5,2.465-5.5,5.503h5.5V415.201z"/>
			<path stroke="#000000" stroke-miterlimit="1" d="M359.47,420.704c0.002,3.042,2.463,5.499,5.506,5.499l-0.006-5.499H359.47z"/>
			<path fill="#FFFFFF" stroke="#010101" stroke-linecap="round" stroke-linejoin="round" stroke-miterlimit="1" d="M364.97,420.704
				l0.006,5.499c3.033,0,5.498-2.463,5.49-5.499H364.97z"/>
			<path fill="#FFFFFF" stroke="#000000" stroke-miterlimit="1" d="M394.228,466.867c0.006-2.488-2.016-4.503-4.5-4.503v4.503
				H394.228z"/>
			<path fill="#808080" stroke="#000000" stroke-linecap="round" stroke-linejoin="round" stroke-miterlimit="1" d="
				M389.728,462.364c-2.482,0-4.5,2.019-4.5,4.503h4.5V462.364z"/>
			<path fill="#FFFFFF" stroke="#000000" stroke-miterlimit="1" d="M385.228,466.867c0.002,2.488,2.018,4.498,4.506,4.498
				l-0.006-4.498H385.228z"/>
			<path fill="#808080" stroke="#000000" stroke-linecap="round" stroke-linejoin="round" stroke-miterlimit="1" d="
				M389.728,466.867l0.006,4.498c2.482,0,4.5-2.016,4.494-4.498H389.728z"/>
		</g>
		<g>
			<line fill="none" stroke="#000000" x1="176.388" y1="29.933" x2="176.388" y2="534.013"/>
			<line fill="none" stroke="#000000" x1="42.966" y1="534.013" x2="42.966" y2="29.933"/>
			<rect x="42.966" y="29.933" fill="#C2E2CC" width="133.422" height="503.918"/>
			<rect x="60.919" y="74.544" fill="#CEDFEF" stroke="#000000" width="99.49" height="365.56"/>
			<polyline fill="#FFF479" points="179.79,441.729 110.856,137.454 42.966,441.729 			"/>
			<line fill="none" stroke="#FFFFFF" stroke-miterlimit="10" x1="174.481" y1="442.166" x2="110.761" y2="137.454"/>
			<line fill="none" stroke="#FFFFFF" stroke-miterlimit="10" x1="163.808" y1="444.203" x2="110.761" y2="137.454"/>
			<line fill="none" stroke="#FFFFFF" stroke-miterlimit="10" x1="153.069" y1="445.868" x2="110.761" y2="137.454"/>
			<line fill="none" stroke="#FFFFFF" stroke-miterlimit="10" x1="142.278" y1="447.157" x2="110.761" y2="137.454"/>
			<line fill="none" stroke="#FFFFFF" stroke-miterlimit="10" x1="131.45" y1="448.069" x2="110.761" y2="137.454"/>
			<line fill="none" stroke="#FFFFFF" stroke-miterlimit="10" x1="120.597" y1="448.603" x2="110.761" y2="137.454"/>
			<line fill="none" stroke="#FFFFFF" stroke-miterlimit="10" x1="109.731" y1="448.757" x2="110.761" y2="137.454"/>
			<line fill="none" stroke="#FFFFFF" stroke-miterlimit="10" x1="98.866" y1="448.532" x2="110.761" y2="137.454"/>
			<line fill="none" stroke="#FFFFFF" stroke-miterlimit="10" x1="88.017" y1="447.929" x2="110.761" y2="137.454"/>
			<line fill="none" stroke="#FFFFFF" stroke-miterlimit="10" x1="77.194" y1="446.946" x2="110.761" y2="137.454"/>
			<line fill="none" stroke="#FFFFFF" stroke-miterlimit="10" x1="66.413" y1="445.587" x2="110.761" y2="137.454"/>
			<line fill="none" stroke="#FFFFFF" stroke-miterlimit="10" x1="55.685" y1="443.852" x2="110.761" y2="137.454"/>
			<line fill="none" stroke="#FFFFFF" stroke-miterlimit="10" x1="45.024" y1="441.742" x2="110.761" y2="137.454"/>
			<path fill="#B4CFE6" stroke="#000000" d="M128.852,485.465c-5.942,0.191-12.155,0.295-18.55,0.295
				c-42.646,0-76.841-4.558-76.841-10.178v-33.35h154.063v33.35c0.001,2.854-8.918,5.434-23.283,7.282L128.852,485.465z"/>
			<polyline fill="none" stroke="#000000" stroke-width="0.5" stroke-miterlimit="10" points="179.79,441.729 110.761,137.454 
				42.966,441.008 			"/>
			<path fill="#CEDFEF" stroke="#000000" d="M156.849,75.785c0-8.112-20.811-14.689-46.484-14.69
				c-25.672,0.001-46.48,6.577-46.482,14.691l11.9,114.086l69.168-0.001L156.849,75.785z"/>
			
				<line fill="none" stroke="#000000" stroke-width="0.5" stroke-dasharray="4,4" x1="110.716" y1="420.39" x2="110.716" y2="15.552"/>
			<path fill="#FDD931" d="M101.179,142.016c0-5.215,4.117-9.443,9.188-9.443s9.188,4.229,9.188,9.443s-4.117,9.439-9.188,9.439
				S101.179,147.231,101.179,142.016z"/>
			<path d="M109.526,142.198c0-0.514,0.418-0.932,0.922-0.932c0.516,0,0.934,0.418,0.934,0.932c0,0.512-0.418,0.926-0.934,0.926
				C109.944,143.124,109.526,142.709,109.526,142.198z"/>
			<path d="M111.577,140.086c0.707,0.404,1.188,1.184,1.188,2.078c0,0.07-0.004,0.133-0.008,0.199h5.629
				c0.004-0.066,0.004-0.133,0.004-0.199c0-3.025-1.605-5.672-3.992-7.076L111.577,140.086z"/>
			<path d="M109.37,140.086c-0.715,0.404-1.195,1.184-1.195,2.078c0,0.07,0.004,0.133,0.008,0.199h-5.629c0-0.066,0-0.133,0-0.199
				c0-3.025,1.602-5.672,3.984-7.076L109.37,140.086z"/>
			<path d="M111.765,144.145c-0.703,0.412-1.621,0.553-2.395,0.107c-0.055-0.035-0.113-0.072-0.168-0.107l-2.816,4.871
				c0.059,0.035,0.113,0.07,0.172,0.105c2.621,1.512,5.715,1.258,8.125-0.105L111.765,144.145z"/>
			<rect x="83.086" y="448.928" fill="#FFFFFF" stroke="#000000" stroke-miterlimit="10" width="90" height="7"/>
			<g>
				<text transform="matrix(1.0877 0 0 1 146.4966 477.1621)"><tspan x="0" y="0" font-size="16">O</tspan><tspan x="11.934" y="3" font-size="16">d</tspan></text>
			</g>
			<path fill="#FFFFFF" stroke="#000000" stroke-miterlimit="1" d="M143.793,466.18c0.006-2.488-2.015-4.501-4.5-4.501v4.501
				H143.793z"/>
			<path fill="#808080" stroke="#000000" stroke-linecap="round" stroke-linejoin="round" stroke-miterlimit="1" d="
				M139.293,461.679c-2.484,0-4.5,2.017-4.5,4.501h4.5V461.679z"/>
			<path fill="#FFFFFF" stroke="#000000" stroke-miterlimit="1" d="M134.793,466.18c0.002,2.49,2.016,4.5,4.507,4.5l-0.007-4.5
				H134.793z"/>
			<path fill="#808080" stroke="#000000" stroke-linecap="round" stroke-linejoin="round" stroke-miterlimit="1" d="M139.293,466.18
				l0.007,4.5c2.481,0,4.499-2.017,4.493-4.5H139.293z"/>
			<g>
				<text transform="matrix(1 0 0 1 90.1729 415.0942)" font-size="16">O</text>
			</g>
			<g>
				<g>
					
						<line fill="none" stroke="#000000" stroke-width="4" stroke-dasharray="3,3" x1="110.039" y1="420.538" x2="128.218" y2="450.045"/>
					<g>
						<polygon points="122.598,449.784 135.653,462.113 130.513,444.907 						"/>
					</g>
				</g>
			</g>
			<path stroke="#000000" stroke-miterlimit="1" d="M116.154,420.318c0.005-3.042-2.463-5.503-5.502-5.503v5.503H116.154z"/>
			<path fill="#FFFFFF" stroke="#010101" stroke-linecap="round" stroke-linejoin="round" stroke-miterlimit="1" d="
				M110.652,414.815c-3.033,0-5.498,2.464-5.498,5.503h5.498V414.815z"/>
			<path stroke="#000000" stroke-miterlimit="1" d="M105.154,420.318c0.002,3.043,2.465,5.5,5.506,5.5l-0.008-5.5H105.154z"/>
			<path fill="#FFFFFF" stroke="#010101" stroke-linecap="round" stroke-linejoin="round" stroke-miterlimit="1" d="
				M110.652,420.318l0.008,5.5c3.034,0,5.499-2.463,5.494-5.5H110.652z"/>
		</g>
		<g>
			<g>
				<g>
					<polyline fill="none" stroke="#005995" stroke-width="2" points="309.597,412.899 327.79,412.899 359.361,431.659 					"/>
					<g>
						<polygon fill="#005995" points="355.536,433.441 368.501,437.09 359.099,427.447 						"/>
					</g>
				</g>
			</g>
			<g>
				<g>
					<polyline fill="none" stroke="#005995" stroke-width="2" points="221.267,412.718 203.071,412.718 135.457,432.96 					"/>
					<g>
						<polygon fill="#005995" points="136.735,428.939 125.272,436.01 138.735,435.618 						"/>
					</g>
				</g>
			</g>
			<polygon fill="none" points="223.814,420.75 224.231,405.191 308.706,405.191 308.29,420.75 			"/>
			<text transform="matrix(1 0 0 1 224.1973 418.0669)" font-size="18">(Dx,Dy,Dz)</text>
		</g>
	</g>
</g>
</g>
</svg>
