<?xml version="1.0" encoding="utf-8"?>

<!DOCTYPE svg PUBLIC "-//W3C//DTD SVG 1.1//EN" "http://www.w3.org/Graphics/SVG/1.1/DTD/svg11.dtd">
<svg version="1.1" id="Layer_1" xmlns="http://www.w3.org/2000/svg" xmlns:xlink="http://www.w3.org/1999/xlink" x="0px" y="0px"
	 width="532px" height="527px" viewBox="0 0 532 527" enable-background="new 0 0 532 527" xml:space="preserve">

<defs>
	<style type="text/css">
	text {
	  font-family: Helvetica, Verdana, ArialUnicodeMS, san-serif
	}
	</style>
</defs>

<g>
   <desc>
	PS 3.3 Part 3: Information Object Definitions
   </desc>
</g>

<g>
	<rect x="1" y="1" fill="#F5EED6" width="530" height="525"/>
	<g>
		<polygon opacity="0.6" fill="#6799C8" stroke="#000000" stroke-miterlimit="10" points="388.598,144.896 409.332,138.798 
			391.477,309.991 323.104,370.786 		"/>
		<path opacity="0.7" fill="#005695" stroke="#000000" stroke-linejoin="round" stroke-miterlimit="10" d="M159.558,147.534
			c48.354-7.899,110.713-18.086,110.713-18.086l139.061,9.35l-20.734,6.099L159.558,147.534z"/>
		<polygon opacity="0.5" fill="#86B2D8" stroke="#000000" stroke-miterlimit="10" points="112.26,282.006 117.462,360.409 
			163.628,377.737 		"/>
		
			<polygon opacity="0.6" fill="#B3B3B3" stroke="#000000" stroke-width="0.5" stroke-linejoin="round" stroke-miterlimit="10" stroke-dasharray="6" points="
			161.04,510.941 520.75,360.325 375.667,13.559 20.75,137.404 		"/>
		<polygon opacity="0.6" fill="#0DB14B" stroke="#000000" stroke-miterlimit="10" points="193.257,339.462 339.522,281.85 
			292.412,165.43 146.917,218.851 		"/>
		<polygon opacity="0.5" fill="#CCDEF0" stroke="#000000" stroke-miterlimit="10" points="163.628,377.737 270.271,417.763 
			276.871,177.754 103.941,156.62 112.26,282.006 		"/>
		<path opacity="0.7" fill="#86B2D8" stroke="#000000" stroke-linejoin="round" stroke-miterlimit="10" d="M388.598,144.896
			l-111.727,32.858l-172.93-21.135c0,0,25.001-4.084,55.617-9.085L388.598,144.896z"/>
		<polygon opacity="0.6" fill="#B2CEE7" stroke="#000000" stroke-miterlimit="10" points="323.104,370.786 270.271,417.763 
			276.871,177.754 388.598,144.896 		"/>
		<rect x="157.89" y="218.935" fill="none" width="102.201" height="19.011"/>
		<text transform="matrix(1 0 0 1 157.8901 224.6558)"><tspan x="0" y="0" font-size="8">MPR Top Left Hand Corner</tspan><tspan x="0" y="9.6" font-size="8">(0070,x505) </tspan></text>
		<circle cx="146.805" cy="218.71" r="4.043"/>
		<g>
			<g>
				<line fill="none" stroke="#0DB14B" stroke-width="2" x1="104.275" y1="157.08" x2="106.695" y2="196.265"/>
				<g>
					<polygon fill="#0DB14B" points="103.068,194.106 107.35,206.876 110.028,193.677 					"/>
				</g>
			</g>
		</g>
		<g>
			<g>
				<line fill="none" stroke="#ED1C24" stroke-width="2" x1="104.479" y1="157.114" x2="147.433" y2="149.246"/>
				<g>
					<polygon fill="#ED1C24" points="145.722,153.104 157.89,147.33 144.466,146.245 					"/>
				</g>
			</g>
		</g>
		<g>
			<g>
				<line fill="none" stroke="#00AEEF" stroke-width="2" x1="103.917" y1="156.855" x2="139.492" y2="161.019"/>
				<g>
					<polygon fill="#00AEEF" points="136.725,164.206 150.051,162.255 137.536,157.28 					"/>
				</g>
			</g>
		</g>
		<g>
			<g>
				
					<line fill="none" stroke="#000000" stroke-width="3" stroke-linejoin="round" x1="188.65" y1="203.371" x2="147.15" y2="218.608"/>
				<g>
					<polygon points="183.5,199.691 203.62,197.875 187.105,209.509 					"/>
				</g>
			</g>
		</g>
		<g>
			<g>
				
					<line fill="none" stroke="#4D4D4F" stroke-width="2" stroke-linejoin="round" x1="292.412" y1="165.43" x2="291.003" y2="165.945"/>
				
					<line fill="none" stroke="#4D4D4F" stroke-width="2" stroke-linejoin="round" stroke-dasharray="2.9527,2.9527" x1="288.229" y1="166.958" x2="206.416" y2="196.853"/>
				
					<line fill="none" stroke="#4D4D4F" stroke-width="2" stroke-linejoin="round" x1="205.029" y1="197.36" x2="203.62" y2="197.875"/>
			</g>
		</g>
		<g>
			<g>
				
					<line fill="none" stroke="#4D4D4F" stroke-width="2" stroke-linejoin="round" x1="168.158" y1="273.283" x2="168.689" y2="274.686"/>
				
					<line fill="none" stroke="#4D4D4F" stroke-width="2" stroke-linejoin="round" stroke-dasharray="2.9469,2.9469" x1="169.735" y1="277.441" x2="192.203" y2="336.682"/>
				
					<line fill="none" stroke="#4D4D4F" stroke-width="2" stroke-linejoin="round" x1="192.726" y1="338.06" x2="193.257" y2="339.462"/>
			</g>
		</g>
		<g>
			<g>
				
					<line fill="none" stroke="#000000" stroke-width="3" stroke-linejoin="round" x1="147.15" y1="218.608" x2="162.438" y2="258.397"/>
				<g>
					<polygon points="156.277,256.943 168.158,273.283 166.041,253.192 					"/>
				</g>
			</g>
		</g>
		<g>
			<rect x="314.209" y="122.037" fill="none" width="107.504" height="11.004"/>
			<text transform="matrix(1 0 0 1 314.209 127.7622)" font-size="8">MPR View Width (0070,x508)</text>
		</g>
		<g>
			<rect x="227.209" y="104.662" fill="none" width="142.004" height="9.505"/>
			<text transform="matrix(1 0 0 1 227.209 110.3872)" font-size="8">MPR View Width Direction (0070,x507)</text>
		</g>
		<g>
			<rect x="165.556" y="436.287" fill="none" width="142.004" height="9.506"/>
			<text transform="matrix(1 0 0 1 165.5557 442.0127)" font-size="8">MPR View Height Direction (0070,x511)</text>
		</g>
		<g>
			<rect x="183.307" y="422.037" fill="none" width="108.712" height="9.506"/>
			<text transform="matrix(1 0 0 1 183.3071 427.7627)" font-size="8">MPR View Height (0070,x512)</text>
		</g>
		<polyline fill="none" stroke="#000000" stroke-width="0.75" stroke-miterlimit="10" points="194.548,197.136 205.398,108.539 
			224.357,108.539 		"/>
		<polyline fill="none" stroke="#000000" stroke-width="0.75" stroke-miterlimit="10" points="292.412,165.43 300.25,125.24 
			311.709,125.24 		"/>
		<polyline fill="none" stroke="#000000" stroke-width="0.75" stroke-miterlimit="10" points="162.507,266.822 144.857,439.975 
			163.816,439.975 		"/>
		<polyline fill="none" stroke="#000000" stroke-width="0.75" stroke-miterlimit="10" points="193.257,339.462 161.682,425.274 
			180.641,425.274 		"/>
	</g>
</g>
</svg>
