<?xml version="1.0" encoding="utf-8"?>

<!DOCTYPE svg PUBLIC "-//W3C//DTD SVG 1.1//EN" "http://www.w3.org/Graphics/SVG/1.1/DTD/svg11.dtd">
<svg version="1.1" id="Layer_1" xmlns="http://www.w3.org/2000/svg" xmlns:xlink="http://www.w3.org/1999/xlink" x="0px" y="0px"
	 width="602px" height="232px" viewBox="0 0 602 232" enable-background="new 0 0 602 232" xml:space="preserve">

<defs>
	<style type="text/css">
	text {
	  font-family: Helvetica, Verdana, ArialUnicodeMS, san-serif
	}
	</style>
</defs>

<g>
   <desc>
	PS 3.3 Part 3: Information Object Definitions
   </desc>
</g>

<g>
	<rect x="1" y="1" fill="#F5EED6" width="600" height="230"/>
	<g>
		<g>
			<rect x="350.969" y="51.171" fill="#CCDEF0" stroke="#000000" stroke-miterlimit="1" width="188.996" height="141.75"/>
			<g>
				<g>
					<line fill="none" stroke="#000000" stroke-miterlimit="1" x1="343.769" y1="192.922" x2="343.769" y2="65.458"/>
					<g>
						<polygon points="346.093,67.044 343.769,58.371 341.444,67.044 						"/>
					</g>
				</g>
			</g>
			<g>
				<g>
					<line fill="none" stroke="#000000" stroke-miterlimit="1" x1="525.678" y1="200.121" x2="350.333" y2="200.121"/>
					<g>
						<polygon points="524.093,197.797 532.766,200.121 524.093,202.445 						"/>
					</g>
				</g>
			</g>
			<rect x="387.553" y="51.636" fill="#B2CEE7" width="152" height="100"/>
			<g>
				<g>
					<polyline fill="none" stroke="#000000" stroke-miterlimit="1" stroke-dasharray="6,2" points="544.864,152.101 
						386.833,152.101 386.833,36.576 					"/>
					<g>
						<polygon points="543.279,149.776 551.952,152.101 543.279,154.425 						"/>
					</g>
					<g>
						<polygon points="389.157,38.161 386.833,29.488 384.509,38.161 						"/>
					</g>
				</g>
			</g>
			<rect x="350.969" y="183.921" fill="#003468" stroke="#000000" stroke-miterlimit="1" width="9" height="9"/>
			<text transform="matrix(1 0 0 1 381.3467 25.6255)"><tspan x="0" y="0" font-size="10">Y</tspan><tspan x="6.67" y="3" font-size="10">d</tspan></text>
			<text transform="matrix(1 0 0 1 371.627 161.9062)"><tspan x="0" y="0" font-size="10">O</tspan><tspan x="7.777" y="3" font-size="10">d</tspan></text>
			<text transform="matrix(1 0 0 1 553.7461 155.0654)"><tspan x="0" y="0" font-size="10">X</tspan><tspan x="6.67" y="3" font-size="10">d</tspan></text>
			<text transform="matrix(1 0 0 1 444.79 90.8657)"><tspan x="0" y="0" font-size="10">Detector</tspan><tspan x="5.28" y="12" font-size="10">Active</tspan><tspan x="8.335" y="24" font-size="10">Area</tspan></text>
			<text transform="matrix(1 0 0 1 359.5566 182.2422)" font-size="10">TLHC</text>
			<text transform="matrix(1 0 0 1 401.623 211.9336)" font-size="10">Column Direction</text>
			<text transform="matrix(1 0 0 1 318.7227 122.5762)"><tspan x="0" y="0" font-size="10">Row</tspan><tspan x="-19.453" y="12" font-size="10">Direction</tspan></text>
			<g>
				<path fill="#FFFFFF" stroke="#000000" stroke-miterlimit="1" d="M390.794,151.921c0.006-2.488-2.015-4.502-4.499-4.502v4.502
					H390.794z"/>
				<path fill="#808080" stroke="#000000" stroke-linecap="round" stroke-linejoin="round" stroke-miterlimit="1" d="
					M386.295,147.419c-2.483,0-4.501,2.018-4.501,4.502h4.501V147.419z"/>
				<path fill="#FFFFFF" stroke="#000000" stroke-miterlimit="1" d="M381.794,151.921c0.002,2.488,2.018,4.498,4.507,4.498
					l-0.006-4.498H381.794z"/>
				<path fill="#808080" stroke="#000000" stroke-linecap="round" stroke-linejoin="round" stroke-miterlimit="1" d="
					M386.295,151.921l0.006,4.498c2.481,0,4.499-2.016,4.493-4.498H386.295z"/>
			</g>
		</g>
		<g>
			<rect x="36.022" y="51.171" fill="#CCDEF0" stroke="#000000" stroke-miterlimit="1" width="189" height="141.75"/>
			<g>
				<g>
					<line fill="none" stroke="#000000" stroke-miterlimit="1" x1="232.274" y1="178.634" x2="232.274" y2="51.171"/>
					<g>
						<polygon points="234.598,177.049 232.274,185.722 229.95,177.049 						"/>
					</g>
				</g>
			</g>
			<g>
				<g>
					<line fill="none" stroke="#000000" stroke-miterlimit="1" x1="225.022" y1="44.601" x2="49.674" y2="44.601"/>
					<g>
						<polygon points="51.259,42.276 42.586,44.601 51.259,46.925 						"/>
					</g>
				</g>
			</g>
			<rect x="72.61" y="51.636" fill="#B2CEE7" width="152" height="100"/>
			<g>
				<g>
					<polyline fill="none" stroke="#000000" stroke-miterlimit="1" stroke-dasharray="6,2" points="237.12,152.101 71.889,152.101 
						71.889,36.576 					"/>
					<g>
						<polygon points="235.535,149.776 244.208,152.101 235.535,154.425 						"/>
					</g>
					<g>
						<polygon points="74.213,38.161 71.889,29.488 69.565,38.161 						"/>
					</g>
				</g>
			</g>
			<rect x="216.022" y="51.171" fill="#003468" stroke="#000000" stroke-miterlimit="1" width="9" height="9"/>
			<text transform="matrix(1 0 0 1 66.395 25.6255)"><tspan x="0" y="0" font-size="10">Y</tspan><tspan x="6.67" y="3" font-size="10">d</tspan></text>
			<text transform="matrix(1 0 0 1 56.6748 162.2656)"><tspan x="0" y="0" font-size="10">O</tspan><tspan x="7.778" y="3" font-size="10">d</tspan></text>
			<text transform="matrix(1 0 0 1 245.9946 155.0654)"><tspan x="0" y="0" font-size="10">X</tspan><tspan x="6.67" y="3" font-size="10">d</tspan></text>
			<text transform="matrix(1 0 0 1 129.8384 90.8657)"><tspan x="0" y="0" font-size="10">Detector</tspan><tspan x="5.281" y="12" font-size="10">Active</tspan><tspan x="8.335" y="24" font-size="10">Area</tspan></text>
			<text transform="matrix(1 0 0 1 190.605 68.7422)" font-size="10">TLHC</text>
			<text transform="matrix(1 0 0 1 93.8711 40.9331)" font-size="10">Column Direction</text>
			<text transform="matrix(1 0 0 1 238.7949 115.376)"><tspan x="0" y="0" font-size="10">Row</tspan><tspan x="0" y="12" font-size="10">Direction</tspan></text>
			<g>
				<path fill="#FFFFFF" stroke="#000000" stroke-miterlimit="1" d="M76.443,152.146c0.006-2.488-2.015-4.502-4.499-4.502v4.502
					H76.443z"/>
				<path fill="#808080" stroke="#000000" stroke-linecap="round" stroke-linejoin="round" stroke-miterlimit="1" d="
					M71.944,147.644c-2.482,0-4.5,2.018-4.5,4.502h4.5V147.644z"/>
				<path fill="#FFFFFF" stroke="#000000" stroke-miterlimit="1" d="M67.444,152.146c0.002,2.488,2.018,4.498,4.506,4.498
					l-0.006-4.498H67.444z"/>
				<path fill="#808080" stroke="#000000" stroke-linecap="round" stroke-linejoin="round" stroke-miterlimit="1" d="
					M71.944,152.146l0.006,4.498c2.481,0,4.499-2.016,4.493-4.498H71.944z"/>
			</g>
		</g>
	</g>
</g>
</svg>
