<?xml version="1.0" encoding="utf-8"?>

<!DOCTYPE svg PUBLIC "-//W3C//DTD SVG 1.1//EN" "http://www.w3.org/Graphics/SVG/1.1/DTD/svg11.dtd">
<svg version="1.1" id="Layer_1" xmlns="http://www.w3.org/2000/svg" xmlns:xlink="http://www.w3.org/1999/xlink" x="0px" y="0px"
	 width="502px" height="272px" viewBox="0 0 502 272" enable-background="new 0 0 502 272" xml:space="preserve">

<defs>
	<style type="text/css">
	text {
	  font-family: Helvetica, Verdana, ArialUnicodeMS, san-serif
	}
	</style>
</defs>

<g>
   <desc>
	PS 3.3 Part 3: Information Object Definitions
   </desc>
</g>

<g>
	<rect x="1" y="1" fill="#F5EED8" width="500" height="270"/>
	<g>
		
			<rect x="86.563" y="12.953" fill="#CEDFEF" stroke="#010101" stroke-width="0.75" stroke-linecap="round" stroke-linejoin="round" stroke-miterlimit="1" width="250.39" height="240.939"/>
		<rect x="87.847" y="15.782" fill="none" width="205.157" height="8.511"/>
		<text transform="matrix(0.9288 0 0 1 87.8477 22.186)" font-size="9">X-Ray 3D Acquisition Sequence (0018,9507)</text>
		<rect x="344.901" y="137.268" fill="none" width="78.036" height="8.51"/>
		<text transform="matrix(0.9288 0 0 1 344.9014 143.6758)" font-size="9">Acquisition context 2</text>
		<rect x="344.901" y="30.372" fill="none" width="78.036" height="8.51"/>
		<text transform="matrix(0.9288 0 0 1 344.9014 36.7803)" font-size="9">Acquisition context 1</text>
		<rect x="344.901" y="86.125" fill="none" width="73.672" height="20.5"/>
		<text transform="matrix(0.9288 0 0 1 344.9014 92.5342)"><tspan x="0" y="0" font-size="9">SOP instance A</tspan><tspan x="0" y="10.8" font-size="9"> = frames M1 to M2</tspan></text>
		<rect x="344.901" y="193.02" fill="none" width="73.672" height="20.5"/>
		<text transform="matrix(0.9288 0 0 1 344.9014 199.4297)"><tspan x="0" y="0" font-size="9">SOP instance A</tspan><tspan x="0" y="10.8" font-size="9"> = frames C1 to C2</tspan></text>
		
			<rect x="104.129" y="26.76" fill="#8AB4D7" stroke="#010101" stroke-width="0.75" stroke-linecap="round" stroke-linejoin="round" stroke-miterlimit="1" width="232.824" height="106.84"/>
		
			<rect x="120.906" y="41.921" fill="#B4CFE6" stroke="#010101" stroke-width="0.75" stroke-linecap="round" stroke-linejoin="round" stroke-miterlimit="1" width="216.047" height="76.429"/>
		
			<rect x="120.906" y="118.35" fill="#B4CFE6" stroke="#010101" stroke-width="0.75" stroke-linecap="round" stroke-linejoin="round" stroke-miterlimit="1" width="216.047" height="15.25"/>
		<rect x="108.468" y="30.371" fill="none" width="198.934" height="8.512"/>
		<text transform="matrix(0.9288 0 0 1 108.4683 36.7759)" font-size="9">Item 1</text>
		<rect x="125.473" y="45.698" fill="none" width="176.347" height="8.511"/>
		<text transform="matrix(0.9288 0 0 1 125.4741 52.1025)" font-size="9">&gt;Source Image Sequence (0008,2112)</text>
		<rect x="125.473" y="121.447" fill="none" width="176.347" height="8.512"/>
		<text transform="matrix(0.9288 0 0 1 125.4741 127.8525)" font-size="9">&gt;... (other attributes: angles, etc…)</text>
		
			<rect x="137.573" y="57.041" fill="#8AB4D7" stroke="#010101" stroke-width="0.75" stroke-linecap="round" stroke-linejoin="round" stroke-miterlimit="1" width="199.38" height="61.309"/>
		<rect x="142.285" y="61.205" fill="none" width="123.967" height="8.51"/>
		<text transform="matrix(0.9288 0 0 1 142.2856 67.6177)" font-size="9">Item 1</text>
		
			<rect x="154.906" y="72.443" fill="#FFFFFF" stroke="#010101" stroke-width="0.75" stroke-linecap="round" stroke-linejoin="round" stroke-miterlimit="1" width="182.047" height="45.906"/>
		
			<line fill="#FFFFFF" stroke="#010101" stroke-width="0.75" stroke-linecap="round" stroke-linejoin="round" stroke-miterlimit="1" x1="154.906" y1="87.833" x2="336.953" y2="87.833"/>
		
			<line fill="#FFFFFF" stroke="#010101" stroke-width="0.75" stroke-linecap="round" stroke-linejoin="round" stroke-miterlimit="1" x1="154.906" y1="103.438" x2="336.953" y2="103.438"/>
		<rect x="163.046" y="77.22" fill="none" width="173.472" height="8.51"/>
		<text transform="matrix(0.9288 0 0 1 163.0459 83.6616)" font-size="9">&gt;&gt;Referenced SOP Class UID (0008,1150)</text>
		<rect x="163.046" y="92.12" fill="none" width="172.923" height="8.51"/>
		<text transform="matrix(0.9288 0 0 1 163.0459 98.5615)" font-size="9">&gt;&gt;Referenced SOP Instance UID (0008,1155)</text>
		<rect x="163.046" y="107.019" fill="none" width="174.277" height="8.512"/>
		<text transform="matrix(0.9288 0 0 1 163.0459 113.4604)" font-size="9">&gt;&gt;Referenced Frame Number (0008,1160)</text>
		
			<rect x="104.129" y="133.65" fill="#8AB4D7" stroke="#010101" stroke-width="0.75" stroke-linecap="round" stroke-linejoin="round" stroke-miterlimit="1" width="232.824" height="106.84"/>
		
			<rect x="120.906" y="148.811" fill="#B4CFE6" stroke="#010101" stroke-width="0.75" stroke-linecap="round" stroke-linejoin="round" stroke-miterlimit="1" width="216.047" height="76.43"/>
		
			<rect x="120.906" y="225.24" fill="#B4CFE6" stroke="#010101" stroke-width="0.75" stroke-linecap="round" stroke-linejoin="round" stroke-miterlimit="1" width="216.047" height="15.25"/>
		<rect x="108.468" y="137.262" fill="none" width="198.934" height="8.512"/>
		<text transform="matrix(0.9288 0 0 1 108.4683 143.6719)" font-size="9">Item 2</text>
		<rect x="125.473" y="152.588" fill="none" width="176.347" height="8.512"/>
		<text transform="matrix(0.9288 0 0 1 125.4741 158.998)" font-size="9">&gt;Source Image Sequence (0008,2112)</text>
		<rect x="125.473" y="228.338" fill="none" width="176.347" height="8.512"/>
		<text transform="matrix(0.9288 0 0 1 125.4741 234.748)" font-size="9">&gt;... (other attributes: angles, etc…)</text>
		
			<rect x="137.573" y="163.932" fill="#8AB4D7" stroke="#010101" stroke-width="0.75" stroke-linecap="round" stroke-linejoin="round" stroke-miterlimit="1" width="199.38" height="61.309"/>
		<rect x="142.285" y="168.096" fill="none" width="123.967" height="8.51"/>
		<text transform="matrix(0.9288 0 0 1 142.2856 174.5137)" font-size="9">Item 1</text>
		
			<rect x="154.906" y="179.334" fill="#FFFFFF" stroke="#010101" stroke-width="0.75" stroke-linecap="round" stroke-linejoin="round" stroke-miterlimit="1" width="182.047" height="45.906"/>
		
			<line fill="#FFFFFF" stroke="#010101" stroke-width="0.75" stroke-linecap="round" stroke-linejoin="round" stroke-miterlimit="1" x1="154.906" y1="194.723" x2="336.953" y2="194.723"/>
		
			<line fill="#FFFFFF" stroke="#010101" stroke-width="0.75" stroke-linecap="round" stroke-linejoin="round" stroke-miterlimit="1" x1="154.906" y1="210.328" x2="336.953" y2="210.328"/>
		<rect x="163.046" y="184.111" fill="none" width="173.472" height="8.51"/>
		<text transform="matrix(0.9288 0 0 1 163.0459 190.5527)" font-size="9">&gt;&gt;Referenced SOP Class UID (0008,1150)</text>
		<rect x="163.046" y="199.01" fill="none" width="172.923" height="8.51"/>
		<text transform="matrix(0.9288 0 0 1 163.0459 205.4512)" font-size="9">&gt;&gt;Referenced SOP Instance UID (0008,1155)</text>
		<rect x="163.046" y="213.91" fill="none" width="174.277" height="8.512"/>
		<text transform="matrix(0.9288 0 0 1 163.0459 220.3516)" font-size="9">&gt;&gt;Referenced Frame Number (0008,1160)</text>
	</g>
</g>
</svg>
