<?xml version="1.0" encoding="utf-8"?>

<!DOCTYPE svg PUBLIC "-//W3C//DTD SVG 1.1//EN" "http://www.w3.org/Graphics/SVG/1.1/DTD/svg11.dtd">
<svg version="1.1" id="Layer_1" xmlns="http://www.w3.org/2000/svg" xmlns:xlink="http://www.w3.org/1999/xlink" x="0px" y="0px"
	 width="502px" height="152px" viewBox="0 0 502 152" enable-background="new 0 0 502 152" xml:space="preserve">
    
<defs>
	<style type="text/css">
	text {
	  font-family: Helvetica, Verdana, ArialUnicodeMS, san-serif
	}
	</style>
</defs>

<g>
   <desc>
	PS 3.3 Part 3: Information Object Definitions
   </desc>
</g>

<g>
	<rect x="1" y="1" fill="#F5EED6" width="500" height="150"/>
	<g>
		
			<rect x="154.501" y="16.579" fill="#86B2D8" stroke="#010101" stroke-width="0.6657" stroke-linecap="round" stroke-linejoin="round" stroke-miterlimit="1" width="78" height="18"/>
		
			<rect x="251.619" y="16.579" fill="#86B2D8" stroke="#010101" stroke-width="0.7761" stroke-linecap="round" stroke-linejoin="round" stroke-miterlimit="1" width="106" height="18"/>
		<g>
			<g>
				<polyline fill="none" stroke="#005695" stroke-width="2" stroke-miterlimit="1" points="304.619,81.963 304.619,98.837 
					268.33,98.837 268.33,110.024 				"/>
				<g>
					<polygon fill="#005695" points="266.006,108.439 268.33,117.112 270.654,108.439 					"/>
				</g>
			</g>
		</g>
		<g>
			<g>
				
					<line fill="none" stroke="#005695" stroke-width="2" stroke-miterlimit="1" x1="304.619" y1="34.641" x2="304.619" y2="53.407"/>
				<g>
					<polygon fill="#005695" points="302.295,51.821 304.619,60.494 306.943,51.821 					"/>
				</g>
			</g>
		</g>
		
			<rect x="188.311" y="117.413" fill="#86B2D8" stroke="#010101" stroke-width="0.75" stroke-linecap="round" stroke-linejoin="round" stroke-miterlimit="1" width="125.998" height="18.008"/>
		<g>
			<text transform="matrix(1 0 0 1 216.6299 129.6934)" font-size="12">Color Palette</text>
		</g>
		<g>
			<text transform="matrix(1 0 0 1 176.8252 28.8667)" font-size="12">Image</text>
		</g>
		
			<polygon fill="#CCDEF0" stroke="#010101" stroke-width="0.825" stroke-linecap="round" stroke-linejoin="round" stroke-miterlimit="1" points="
			255.501,71.287 304.917,61.533 354.487,71.427 354.487,71.45 304.917,81.347 		"/>
		<g>
			<text transform="matrix(1 0 0 1 276.2402 73.9067)" font-size="9">may reference</text>
		</g>
		<g>
			<text transform="matrix(1 0 0 1 329.2588 62.1938)" font-size="9">0-n</text>
		</g>
		<g>
			<text transform="matrix(1 0 0 1 329.2588 84.918)" font-size="9">1-n</text>
		</g>
		<g>
			<g>
				<polyline fill="none" stroke="#005695" stroke-width="2" stroke-miterlimit="1" points="193.501,81.963 193.501,98.837 
					229.79,98.837 229.79,110.024 				"/>
				<g>
					<polygon fill="#005695" points="227.466,108.439 229.79,117.112 232.114,108.439 					"/>
				</g>
			</g>
		</g>
		<g>
			<g>
				
					<line fill="none" stroke="#005695" stroke-width="2" stroke-miterlimit="1" x1="193.501" y1="34.641" x2="193.501" y2="53.407"/>
				<g>
					<polygon fill="#005695" points="191.177,51.821 193.501,60.494 195.825,51.821 					"/>
				</g>
			</g>
		</g>
		
			<polygon fill="#CCDEF0" stroke="#010101" stroke-width="0.825" stroke-linecap="round" stroke-linejoin="round" stroke-miterlimit="1" points="
			144.381,71.287 193.798,61.533 243.369,71.427 243.369,71.45 193.798,81.347 		"/>
		<g>
			<text transform="matrix(1 0 0 1 165.1221 73.9067)" font-size="9">may reference</text>
		</g>
		<g>
			<text transform="matrix(1 0 0 1 218.1401 62.1938)" font-size="9">0-n</text>
		</g>
		<g>
			<text transform="matrix(1 0 0 1 218.1401 84.918)" font-size="9">1-n</text>
		</g>
		<g>
			<text transform="matrix(1 0 0 1 255.2539 28.8472)" font-size="12">Presentation State</text>
		</g>
	</g>
</g>
</svg>
