<?xml version="1.0" encoding="utf-8"?>

<!DOCTYPE svg PUBLIC "-//W3C//DTD SVG 1.1//EN" "http://www.w3.org/Graphics/SVG/1.1/DTD/svg11.dtd">
<svg version="1.1" id="Layer_1" xmlns="http://www.w3.org/2000/svg" xmlns:xlink="http://www.w3.org/1999/xlink" x="0px" y="0px"
	 width="502px" height="542px" viewBox="0 0 502 542" enable-background="new 0 0 502 542" xml:space="preserve">

<defs>
	<style type="text/css">
	text {
	  font-family: Helvetica, Verdana, ArialUnicodeMS, san-serif
	}
	</style>
</defs>

<g>
   <desc>
	PS 3.3 Part 3: Information Object Definitions
   </desc>
</g>

<g>
	<rect x="1" y="1" fill="#F5EED8" width="500" height="540"/>
	<g>
		<circle fill="#CEDFEF" stroke="#95979A" stroke-miterlimit="1" stroke-dasharray="1,4" cx="262.917" cy="212.695" r="174.678"/>
		
			<ellipse fill="#B4CFE6" stroke="#010101" stroke-width="0.75" stroke-linecap="round" stroke-linejoin="round" stroke-miterlimit="1" cx="264.965" cy="271.194" rx="52.666" ry="28"/>
		
			<rect x="132.94" y="131.923" transform="matrix(0.9717 -0.236 0.236 0.9717 -26.7563 59.1262)" fill="#8AB4D7" stroke="#010101" stroke-width="0.75" stroke-linecap="round" stroke-linejoin="round" stroke-miterlimit="1" width="201.305" height="18.804"/>
		<polygon opacity="0.6" fill="#FFF02B" stroke="#000000" stroke-miterlimit="1" points="292.021,383.781 208.249,145.228 
			232.64,139.306 257.035,133.38 		"/>
		<g>
			<g>
				<path fill="none" stroke="#000000" stroke-width="2" stroke-miterlimit="1" d="M252.287,57.875
					c-9.663,0.654-19.083,2.192-28.18,4.535"/>
				<g>
					<polygon points="249.782,54.535 262.916,57.516 250.051,61.502 					"/>
				</g>
				<g>
					<polygon points="225.439,58.441 213.916,65.413 227.381,65.138 					"/>
				</g>
			</g>
		</g>
		
			<rect x="164.313" y="299.566" fill="#8AB4D7" stroke="#010101" stroke-width="0.75" stroke-linecap="round" stroke-linejoin="round" stroke-miterlimit="1" width="201.303" height="4.5"/>
		<g>
			<text transform="matrix(0.8815 0 0 1 31.6885 216.002)" font-size="12">Isocenter</text>
		</g>
		<g>
			<text transform="matrix(0.8815 0 0 1 417.103 100.5845)" font-size="12">Image Receptor</text>
		</g>
		<g>
			<text transform="matrix(0.8815 0 0 1 9.4932 387.6777)" font-size="12">X-Ray Source</text>
		</g>
		<g>
			<text transform="matrix(0.8815 0 0 1 229.1626 77.6958)"><tspan x="0" y="0" font-size="12">Beam</tspan><tspan x="0.328" y="12.408" font-size="12">Angle</tspan></text>
		</g>
		
			<line fill="none" stroke="#5A5B5D" stroke-miterlimit="1" stroke-dasharray="6,6" x1="79.296" y1="212.166" x2="245.455" y2="212.166"/>
		
			<line fill="none" stroke="#5A5B5D" stroke-miterlimit="1" stroke-dasharray="6,6" x1="79.796" y1="250.167" x2="211.444" y2="250.167"/>
		<g>
			<text transform="matrix(0.8815 0 0 1 42.4062 253.7979)" font-size="12">Patient</text>
		</g>
		<g>
			<text transform="matrix(0.8815 0 0 1 44.7666 276.0527)" font-size="12">Object</text>
		</g>
		<g>
			<text transform="matrix(0.8815 0 0 1 42.4062 305.124)"><tspan x="0" y="0" font-size="12">Patient</tspan><tspan x="3.671" y="12.408" font-size="12">Table</tspan></text>
		</g>
		
			<path fill="#EB222F" stroke="#010101" stroke-width="0.75" stroke-linecap="round" stroke-linejoin="round" stroke-miterlimit="1" d="
			M265.017,285.998c-3.586-7.189-7.172-6.061-10.758-13.25c-5.59-11.207,10.646-20.623,10.713-5.056
			c0-15.561,16.277-6.18,10.707,5.062c-3.564,7.189-7.127,6.057-10.689,13.244"/>
		<path stroke="#000000" stroke-miterlimit="1" d="M254.455,212.695c0-2.485-2.014-4.5-4.5-4.5v4.5H254.455z"/>
		
			<path fill="#FFFFFF" stroke="#010101" stroke-width="0.75" stroke-linecap="round" stroke-linejoin="round" stroke-miterlimit="1" d="
			M249.955,208.195c-2.485,0-4.5,2.015-4.5,4.5h4.5V208.195z"/>
		<path stroke="#000000" stroke-miterlimit="1" d="M245.455,212.695c0,2.485,2.015,4.5,4.5,4.5v-4.5H245.455z"/>
		
			<path fill="#FFFFFF" stroke="#010101" stroke-width="0.75" stroke-linecap="round" stroke-linejoin="round" stroke-miterlimit="1" d="
			M249.955,212.695v4.5c2.486,0,4.5-2.015,4.5-4.5H249.955z"/>
		
			<path fill="#F5987E" stroke="#010101" stroke-width="0.75" stroke-linecap="round" stroke-linejoin="round" stroke-miterlimit="1" d="
			M234.852,147.932c-8.137-1.622-15.316,0.686-23.452-0.937c-12.68-2.529,19.336-15.021,21.259-7.694
			c-1.787-7.356,32.474-10.982,22.41-2.909c-6.443,5.162-13.834,6.391-20.272,11.554"/>
		
			<ellipse transform="matrix(0.9717 -0.2361 0.2361 0.9717 -82.4052 79.8036)" fill="#FDD931" cx="292.09" cy="384.06" rx="7.773" ry="7.99"/>
		<circle cx="291.983" cy="383.928" r="0.785"/>
		<path d="M291.484,385.887c-0.666-0.191-1.217-0.736-1.396-1.473c-0.014-0.055-0.023-0.109-0.031-0.166l-4.629,1.125
			c0.012,0.055,0.023,0.111,0.037,0.164c0.605,2.49,2.453,4.342,4.691,5.023L291.484,385.887z"/>
		<path d="M293.296,385.447c0.504-0.477,0.744-1.213,0.566-1.949c-0.014-0.055-0.029-0.109-0.047-0.162l4.629-1.125
			c0.014,0.055,0.027,0.109,0.041,0.164c0.604,2.49-0.188,4.982-1.865,6.615L293.296,385.447z"/>
		<path d="M290.515,382.588c0.498-0.48,1.223-0.779,1.949-0.566c0.055,0.016,0.107,0.035,0.158,0.055l1.342-4.57
			c-0.053-0.018-0.107-0.033-0.162-0.051c-2.457-0.721-4.947,0.107-6.658,1.707L290.515,382.588z"/>
		
			<line fill="none" stroke="#5A5B5D" stroke-miterlimit="1" stroke-dasharray="6,6" x1="79.796" y1="273.166" x2="264.021" y2="273.166"/>
		
			<line fill="none" stroke="#5A5B5D" stroke-miterlimit="1" stroke-dasharray="6,6" x1="79.796" y1="301.666" x2="148.833" y2="301.666"/>
		
			<line fill="none" stroke="#5A5B5D" stroke-miterlimit="1" stroke-dasharray="6,6" x1="79.796" y1="384.041" x2="292.746" y2="384.041"/>
		<g>
			<g>
				<line fill="none" stroke="#005995" stroke-width="2" x1="115.098" y1="219.193" x2="115.098" y2="294.277"/>
				<g>
					<polygon fill="#005995" points="112.773,220.779 115.098,212.106 117.422,220.779 					"/>
				</g>
				<g>
					<polygon fill="#005995" points="112.773,292.692 115.098,301.365 117.422,292.692 					"/>
				</g>
			</g>
		</g>
		<rect x="104.098" y="253.614" fill="#CEDFEF" width="22" height="14.5"/>
		<g>
			<text transform="matrix(0.8815 0 0 1 108.0459 264.1733)" font-size="12">TH</text>
		</g>
		<g>
			<g>
				<g>
					<line fill="none" stroke="#005995" stroke-width="2" x1="341.643" y1="123.593" x2="397.215" y2="349.832"/>
					<g>
						<polygon fill="#005995" points="339.764,125.687 339.953,116.71 344.279,124.578 						"/>
					</g>
					<g>
						<polygon fill="#005995" points="394.58,348.847 398.906,356.715 399.094,347.738 						"/>
					</g>
				</g>
			</g>
			<g>
				<g>
					<line fill="none" stroke="#005995" stroke-width="2" x1="377.872" y1="188.444" x2="416.708" y2="345.399"/>
					<g>
						<polygon fill="#005995" points="375.997,190.542 376.169,181.564 380.508,189.425 						"/>
					</g>
					<g>
						<polygon fill="#005995" points="414.071,344.419 418.41,352.279 418.583,343.303 						"/>
					</g>
				</g>
			</g>
			<g>
				<g>
					<line fill="none" stroke="#005995" stroke-width="2" x1="412.379" y1="245.265" x2="435.913" y2="339.788"/>
					<g>
						<polygon fill="#005995" points="410.507,247.365 410.667,238.388 415.018,246.242 						"/>
					</g>
					<g>
						<polygon fill="#005995" points="433.274,338.812 437.625,346.666 437.785,337.688 						"/>
					</g>
				</g>
			</g>
		</g>
		<rect x="415.595" y="300.066" fill="#F2EFD4" width="26" height="14.5"/>
		<g>
			<text transform="matrix(0.8815 0 0 1 417.1323 311.9023)" font-size="12">SOD</text>
		</g>
		<g>
			<text transform="matrix(0.8815 0 0 1 198.6455 111.873)" font-size="12">#Px</text>
		</g>
		<g>
			<g>
				<line fill="none" stroke="#005995" stroke-width="2" x1="136.246" y1="247.264" x2="136.246" y2="265.237"/>
				<g>
					<polygon fill="#005995" points="133.922,263.651 136.246,272.324 138.57,263.651 					"/>
				</g>
			</g>
		</g>
		<g>
			<g>
				<line fill="none" stroke="#005995" stroke-width="2" x1="136.246" y1="326.74" x2="136.246" y2="308.412"/>
				<g>
					<polygon fill="#005995" points="138.57,309.997 136.246,301.324 133.922,309.997 					"/>
				</g>
			</g>
		</g>
		<rect x="125.239" y="279.416" fill="#CEDFEF" width="22" height="14.5"/>
		<g>
			<text transform="matrix(0.8815 0 0 1 128.8936 289.9727)" font-size="12">TO</text>
		</g>
		<polyline fill="none" stroke="#343434" points="221.015,109.099 228.855,109.099 242.348,136.347 		"/>
		<g>
			<rect x="70.141" y="426.619" fill="#FFFFFF" stroke="#000000" stroke-width="1.2964" width="351" height="99.715"/>
			<g>
				<text transform="matrix(1 0 0 1 275.5229 437.4961)"><tspan x="0" y="0" font-size="8">ISO : Source Isocenter Distance</tspan><tspan x="0" y="11.6" font-size="8">SID : Source Image Receptor Distance</tspan><tspan x="0" y="23.2" font-size="8">SOD: Source Object Distance</tspan><tspan x="0" y="34.8" font-size="8">TH : Table Height</tspan><tspan x="0" y="46.4" font-size="8">TO : Distance Object Table Top</tspan><tspan x="0" y="58" font-size="8">D: Distance in Object</tspan><tspan x="0" y="69.6" font-size="8">#Px: Number Pixels</tspan><tspan x="0" y="81.2" font-size="8">ΔPx: Imager Pixel Spacing</tspan></text>
			</g>
			<g>
				<text transform="matrix(1 0 0 1 77.4414 441.042)"><tspan x="0" y="0" font-size="10">D = # Px * Δ Px * SOD / SID</tspan><tspan x="0" y="16" font-size="10">SOD = ISO - (TH-TO) / cos°(Beam Angle)</tspan></text>
			</g>
		</g>
		<g>
			<g>
				<line fill="none" stroke="#00B0ED" stroke-width="2" x1="264.144" y1="299.305" x2="264.144" y2="26.297"/>
				<g>
					<polygon fill="#00B0ED" points="267.63,28.674 264.144,15.666 260.658,28.674 					"/>
				</g>
			</g>
		</g>
		<g>
			<g>
				
					<line fill="none" stroke="#00B0ED" stroke-width="2" stroke-dasharray="2,2" x1="272.105" y1="298.912" x2="205.661" y2="32.287"/>
				<g>
					<polygon fill="#00B0ED" points="209.619,33.751 203.09,21.971 202.853,35.437 					"/>
				</g>
			</g>
		</g>
		
			<line fill="none" stroke="#5A5B5D" stroke-miterlimit="1" stroke-dasharray="6,6" x1="232.4" y1="141.811" x2="413.099" y2="97.884"/>
		
			<line fill="none" stroke="#5A5B5D" stroke-miterlimit="1" stroke-dasharray="6,6" x1="250.135" y1="212.106" x2="386.839" y2="178.874"/>
		
			<line fill="none" stroke="#5A5B5D" stroke-miterlimit="1" stroke-dasharray="6,6" x1="264.021" y1="273.613" x2="423.113" y2="234.939"/>
		
			<line fill="none" stroke="#5A5B5D" stroke-miterlimit="1" stroke-dasharray="6,6" x1="292.769" y1="382.922" x2="455.23" y2="343.428"/>
		<rect x="338.734" y="148.696" fill="#CEDFEF" width="22" height="14.5"/>
		<g>
			<text transform="matrix(0.8815 0 0 1 340.5425 160.4414)" font-size="12">SID</text>
		</g>
		<rect x="373.986" y="205.695" fill="#CEDFEF" width="22" height="14.5"/>
		<g>
			<text transform="matrix(0.8815 0 0 1 375.8755 217.1948)" font-size="12">ISO</text>
		</g>
		<g>
			<text transform="matrix(0.8815 0 0 1 260.5103 277.373)" fill="#FFFFFF" font-size="14">D</text>
		</g>
	</g>
</g>
</svg>
