<?xml version="1.0" encoding="utf-8"?>

<!DOCTYPE svg PUBLIC "-//W3C//DTD SVG 1.1//EN" "http://www.w3.org/Graphics/SVG/1.1/DTD/svg11.dtd">
<svg version="1.1" id="Layer_1" xmlns="http://www.w3.org/2000/svg" xmlns:xlink="http://www.w3.org/1999/xlink" x="0px" y="0px"
	 width="522px" height="722px" viewBox="0 0 522 722" enable-background="new 0 0 522 722" xml:space="preserve">
        
<defs>
	<style type="text/css">
	text {
	  font-family: Helvetica, Verdana, ArialUnicodeMS, san-serif
	}
	</style>
</defs>

<g>
   <desc>
	PS 3.3 Information Object Definitions
   </desc>
</g>

<g>
	<rect x="1" y="1" fill="#F5EED6" width="520" height="720"/>
	<g>
		
			<rect x="17.791" y="613.921" fill="#86B2D8" stroke="#010101" stroke-width="0.75" stroke-linecap="round" stroke-linejoin="round" stroke-miterlimit="1" width="128.777" height="18"/>
		
			<rect x="176.006" y="397.554" fill="#86B2D8" stroke="#010101" stroke-width="0.75" stroke-linecap="round" stroke-linejoin="round" stroke-miterlimit="1" width="83.994" height="17.998"/>
		
			<rect x="176.006" y="433.562" fill="#86B2D8" stroke="#010101" stroke-width="0.75" stroke-linecap="round" stroke-linejoin="round" stroke-miterlimit="1" width="83.994" height="18"/>
		
			<rect x="176.006" y="469.562" fill="#86B2D8" stroke="#010101" stroke-width="0.75" stroke-linecap="round" stroke-linejoin="round" stroke-miterlimit="1" width="83.994" height="18"/>
		
			<rect x="17.789" y="397.553" fill="#86B2D8" stroke="#010101" stroke-width="0.75" stroke-linecap="round" stroke-linejoin="round" stroke-miterlimit="1" width="128.779" height="18"/>
		
			<rect x="17.789" y="433.562" fill="#86B2D8" stroke="#010101" stroke-width="0.75" stroke-linecap="round" stroke-linejoin="round" stroke-miterlimit="1" width="128.779" height="18"/>
		
			<rect x="17.791" y="469.562" fill="#86B2D8" stroke="#010101" stroke-width="0.75" stroke-linecap="round" stroke-linejoin="round" stroke-miterlimit="1" width="128.777" height="18"/>
		
			<rect x="17.791" y="504.876" fill="#86B2D8" stroke="#010101" stroke-width="0.75" stroke-linecap="round" stroke-linejoin="round" stroke-miterlimit="1" width="128.777" height="18"/>
		
			<rect x="17.789" y="362.281" fill="#86B2D8" stroke="#010101" stroke-width="0.75" stroke-linecap="round" stroke-linejoin="round" stroke-miterlimit="1" width="128.779" height="18.001"/>
		<g>
			<text transform="matrix(1 0 0 1 175.2046 359.3257)" font-size="9">0-n</text>
		</g>
		<g>
			<text transform="matrix(1 0 0 1 175.2046 395.0605)" font-size="9">0-n</text>
		</g>
		<g>
			<text transform="matrix(1 0 0 1 175.2046 430.7949)" font-size="9">0-n</text>
		</g>
		<g>
			<text transform="matrix(1 0 0 1 175.2046 466.5293)" font-size="9">0-n</text>
		</g>
		
			<rect x="176.006" y="504.876" fill="#86B2D8" stroke="#010101" stroke-width="0.75" stroke-linecap="round" stroke-linejoin="round" stroke-miterlimit="1" width="83.994" height="18"/>
		<g>
			<text transform="matrix(1 0 0 1 175.2046 501.8438)" font-size="9">0-n</text>
		</g>
		<g>
			<text transform="matrix(1 0 0 1 133.2651 359.3257)" font-size="9">0-n</text>
		</g>
		<g>
			<text transform="matrix(1 0 0 1 133.2651 395.0605)" font-size="9">0-n</text>
		</g>
		<g>
			<text transform="matrix(1 0 0 1 133.2651 430.7949)" font-size="9">0-n</text>
		</g>
		<g>
			<text transform="matrix(1 0 0 1 133.2651 466.5293)" font-size="9">0-n</text>
		</g>
		<g>
			<text transform="matrix(1 0 0 1 133.2651 501.8438)" font-size="9">0-n</text>
		</g>
		
			<rect x="17.791" y="540.19" fill="#86B2D8" stroke="#010101" stroke-width="0.75" stroke-linecap="round" stroke-linejoin="round" stroke-miterlimit="1" width="128.777" height="18"/>
		<g>
			<text transform="matrix(1 0 0 1 133.2651 537.1582)" font-size="9">0-n</text>
		</g>
		
			<rect x="17.791" y="576.851" fill="#86B2D8" stroke="#010101" stroke-width="0.75" stroke-linecap="round" stroke-linejoin="round" stroke-miterlimit="1" width="128.777" height="18"/>
		<g>
			<text transform="matrix(1 0 0 1 133.2651 574.2227)" font-size="9">0-n</text>
		</g>
		
			<rect x="176.006" y="540.19" fill="#86B2D8" stroke="#010101" stroke-width="0.75" stroke-linecap="round" stroke-linejoin="round" stroke-miterlimit="1" width="83.994" height="18"/>
		<g>
			<text transform="matrix(1 0 0 1 175.2046 537.1582)" font-size="9">0-n</text>
		</g>
		
			<rect x="176.006" y="576.851" fill="#86B2D8" stroke="#010101" stroke-width="0.75" stroke-linecap="round" stroke-linejoin="round" stroke-miterlimit="1" width="83.994" height="18"/>
		<g>
			<text transform="matrix(1 0 0 1 175.2046 573.8184)" font-size="9">0-n</text>
		</g>
		
			<rect x="176.006" y="362.281" fill="#86B2D8" stroke="#010101" stroke-width="0.75" stroke-linecap="round" stroke-linejoin="round" stroke-miterlimit="1" width="83.994" height="18.001"/>
		
			<rect x="17.789" y="327.189" fill="#86B2D8" stroke="#010101" stroke-width="0.75" stroke-linecap="round" stroke-linejoin="round" stroke-miterlimit="1" width="128.779" height="18.001"/>
		<g>
			<text transform="matrix(1 0 0 1 175.2046 324.2339)" font-size="9">0-n</text>
		</g>
		<g>
			<text transform="matrix(1 0 0 1 133.2651 324.2339)" font-size="9">0-n</text>
		</g>
		
			<rect x="176.006" y="327.189" fill="#86B2D8" stroke="#010101" stroke-width="0.75" stroke-linecap="round" stroke-linejoin="round" stroke-miterlimit="1" width="83.994" height="18.001"/>
		<g>
			<text transform="matrix(1 0 0 1 133.2651 611.2988)" font-size="9">0-n</text>
		</g>
		
			<rect x="17.791" y="650.985" fill="#86B2D8" stroke="#010101" stroke-width="0.75" stroke-linecap="round" stroke-linejoin="round" stroke-miterlimit="1" width="128.777" height="18"/>
		<g>
			<text transform="matrix(1 0 0 1 133.2651 611.293)" font-size="9">0-n</text>
		</g>
		
			<rect x="176.006" y="613.921" fill="#86B2D8" stroke="#010101" stroke-width="0.75" stroke-linecap="round" stroke-linejoin="round" stroke-miterlimit="1" width="83.994" height="18"/>
		<g>
			<text transform="matrix(1 0 0 1 175.2046 610.8887)" font-size="9">0-n</text>
		</g>
		<g>
			<text transform="matrix(1 0 0 1 133.2651 648.3691)" font-size="9">0-n</text>
		</g>
		
			<rect x="17.791" y="688.056" fill="#86B2D8" stroke="#010101" stroke-width="0.75" stroke-linecap="round" stroke-linejoin="round" stroke-miterlimit="1" width="128.777" height="18"/>
		<g>
			<g>
				<polyline fill="none" stroke="#005695" stroke-width="2" stroke-miterlimit="1" points="153.693,405.96 161.025,405.96 
					161.025,371.351 				"/>
				<g>
					<polygon fill="#005695" points="155.279,408.284 146.606,405.96 155.279,403.636 					"/>
				</g>
			</g>
		</g>
		<g>
			<g>
				<polyline fill="none" stroke="#005695" stroke-width="2" stroke-miterlimit="1" points="169.06,405.96 161,405.96 161,371.351 
									"/>
				<g>
					<polygon fill="#005695" points="167.474,403.636 176.147,405.96 167.474,408.284 					"/>
				</g>
			</g>
		</g>
		<g>
			<g>
				<polyline fill="none" stroke="#005695" stroke-width="2" stroke-miterlimit="1" points="153.693,371.3 161.025,371.3 
					161.025,336.69 				"/>
				<g>
					<polygon fill="#005695" points="155.279,373.624 146.606,371.3 155.279,368.976 					"/>
				</g>
			</g>
		</g>
		<g>
			<g>
				<polyline fill="none" stroke="#005695" stroke-width="2" stroke-miterlimit="1" points="169.06,371.3 161,371.3 161,336.69 				
					"/>
				<g>
					<polygon fill="#005695" points="167.474,368.976 176.147,371.3 167.474,373.624 					"/>
				</g>
			</g>
		</g>
		<g>
			<g>
				<polyline fill="none" stroke="#005695" stroke-width="2" stroke-miterlimit="1" points="153.693,441.95 161.025,441.95 
					161.025,405.884 				"/>
				<g>
					<polygon fill="#005695" points="155.279,444.274 146.606,441.95 155.279,439.626 					"/>
				</g>
			</g>
		</g>
		<g>
			<g>
				<polyline fill="none" stroke="#005695" stroke-width="2" stroke-miterlimit="1" points="169.06,441.95 161,441.95 161,405.884 
									"/>
				<g>
					<polygon fill="#005695" points="167.474,439.626 176.147,441.95 167.474,444.274 					"/>
				</g>
			</g>
		</g>
		<g>
			<g>
				<polyline fill="none" stroke="#005695" stroke-width="2" stroke-miterlimit="1" points="153.693,477.96 161.025,477.96 
					161.025,441.894 				"/>
				<g>
					<polygon fill="#005695" points="155.279,480.284 146.606,477.96 155.279,475.636 					"/>
				</g>
			</g>
		</g>
		<g>
			<g>
				<polyline fill="none" stroke="#005695" stroke-width="2" stroke-miterlimit="1" points="169.06,477.96 161,477.96 161,441.894 
									"/>
				<g>
					<polygon fill="#005695" points="167.474,475.636 176.147,477.96 167.474,480.284 					"/>
				</g>
			</g>
		</g>
		<g>
			<g>
				<polyline fill="none" stroke="#005695" stroke-width="2" stroke-miterlimit="1" points="153.693,513.97 161.025,513.97 
					161.025,477.903 				"/>
				<g>
					<polygon fill="#005695" points="155.279,516.294 146.606,513.97 155.279,511.646 					"/>
				</g>
			</g>
		</g>
		<g>
			<g>
				<polyline fill="none" stroke="#005695" stroke-width="2" stroke-miterlimit="1" points="169.06,513.97 161,513.97 161,477.903 
									"/>
				<g>
					<polygon fill="#005695" points="167.474,511.646 176.147,513.97 167.474,516.294 					"/>
				</g>
			</g>
		</g>
		<g>
			<g>
				<polyline fill="none" stroke="#005695" stroke-width="2" stroke-miterlimit="1" points="153.693,549.979 161.025,549.979 
					161.025,513.913 				"/>
				<g>
					<polygon fill="#005695" points="155.279,552.304 146.606,549.979 155.279,547.655 					"/>
				</g>
			</g>
		</g>
		<g>
			<g>
				<polyline fill="none" stroke="#005695" stroke-width="2" stroke-miterlimit="1" points="169.06,549.979 161,549.979 
					161,513.913 				"/>
				<g>
					<polygon fill="#005695" points="167.474,547.655 176.147,549.979 167.474,552.304 					"/>
				</g>
			</g>
		</g>
		<g>
			<g>
				<polyline fill="none" stroke="#005695" stroke-width="2" stroke-miterlimit="1" points="169.06,586.351 161,586.351 161,550.14 
									"/>
				<g>
					<polygon fill="#005695" points="167.474,584.026 176.147,586.351 167.474,588.675 					"/>
				</g>
			</g>
		</g>
		<g>
			<g>
				<polyline fill="none" stroke="#005695" stroke-width="2" stroke-miterlimit="1" points="153.693,586.351 161.025,586.351 
					161.025,550.196 				"/>
				<g>
					<polygon fill="#005695" points="155.279,588.675 146.606,586.351 155.279,584.026 					"/>
				</g>
			</g>
		</g>
		<g>
			<g>
				<polyline fill="none" stroke="#005695" stroke-width="2" stroke-miterlimit="1" points="153.693,336.303 161.025,336.303 
					161.025,310.777 				"/>
				<g>
					<polygon fill="#005695" points="155.279,338.627 146.606,336.303 155.279,333.979 					"/>
				</g>
			</g>
		</g>
		<g>
			<g>
				<polyline fill="none" stroke="#005695" stroke-width="2" stroke-miterlimit="1" points="169.06,336.303 161,336.303 
					161,310.777 				"/>
				<g>
					<polygon fill="#005695" points="167.474,333.979 176.147,336.303 167.474,338.627 					"/>
				</g>
			</g>
		</g>
		<g>
			<g>
				<polyline fill="none" stroke="#005695" stroke-width="2" stroke-miterlimit="1" points="153.693,623.427 161.025,623.427 
					161.025,586.403 				"/>
				<g>
					<polygon fill="#005695" points="155.279,625.751 146.606,623.427 155.279,621.103 					"/>
				</g>
			</g>
		</g>
		<g>
			<g>
				<polyline fill="none" stroke="#005695" stroke-width="2" stroke-miterlimit="1" points="169.06,623.421 161,623.421 
					161,586.339 				"/>
				<g>
					<polygon fill="#005695" points="167.474,621.097 176.147,623.421 167.474,625.745 					"/>
				</g>
			</g>
		</g>
		<g>
			<g>
				<polyline fill="none" stroke="#005695" stroke-width="2" stroke-miterlimit="1" points="153.693,660.497 161.025,660.497 
					161.025,623.374 				"/>
				<g>
					<polygon fill="#005695" points="155.279,662.821 146.606,660.497 155.279,658.173 					"/>
				</g>
			</g>
		</g>
		<g>
			<g>
				<polyline fill="none" stroke="#005695" stroke-width="2" stroke-miterlimit="1" points="153.693,697.567 161.025,697.567 
					161.025,660.765 				"/>
				<g>
					<polygon fill="#005695" points="155.279,699.892 146.606,697.567 155.279,695.243 					"/>
				</g>
			</g>
		</g>
		<g>
			<text transform="matrix(1 0 0 1 133.2651 685.4395)" font-size="9">0-n</text>
		</g>
		<g>
			<text transform="matrix(1 0 0 1 61.0269 480.7666)" font-size="8">Real-World Value DR</text>
		</g>
		<g>
			<text transform="matrix(1 0 0 1 36.5537 444.7666)" font-size="8">Encapsulated Document DR</text>
		</g>
		<g>
			<text transform="matrix(1 0 0 1 64.144 516.0811)" font-size="8">RT Structure Set DR</text>
		</g>
		<g>
			<text transform="matrix(1 0 0 1 46.3628 551.3965)" font-size="8">RT Treatment Record DR</text>
		</g>
		<g>
			<text transform="matrix(1 0 0 1 74.8081 588.0566)" font-size="8">Measurement DR</text>
		</g>
		<g>
			<text transform="matrix(1 0 0 1 75.6909 625.126)" font-size="8">Surface Scan DR</text>
		</g>
		<g>
			<text transform="matrix(1 0 0 1 76.5854 662.1914)" font-size="8">Tractography DR</text>
		</g>
		<g>
			<text transform="matrix(1 0 0 1 21.0073 699.2607)" font-size="8">Content Assessments Result DR</text>
		</g>
		<g>
			<text transform="matrix(1 0 0 1 186.6147 373.4863)" font-size="8">Fiducials DR</text>
		</g>
		<g>
			<text transform="matrix(1 0 0 1 186.6147 408.7578)" font-size="8">Image DR</text>
		</g>
		<g>
			<text transform="matrix(1 0 0 1 186.6147 444.7666)" font-size="8">Raw Data DR</text>
		</g>
		<g>
			<text transform="matrix(1 0 0 1 75.2495 373.4883)" font-size="8">Spectroscopy DR</text>
		</g>
		<g>
			<text transform="matrix(1 0 0 1 78.8003 338.395)" font-size="8">Presentation DR</text>
		</g>
		<g>
			<text transform="matrix(1 0 0 1 186.6147 480.7676)" font-size="8">Waveform DR</text>
		</g>
		<g>
			<text transform="matrix(1 0 0 1 186.6147 516.0811)" font-size="8">SR Document DR</text>
		</g>
		<g>
			<text transform="matrix(1 0 0 1 186.6147 551.3965)" font-size="8">RT Dose DR</text>
		</g>
		<g>
			<text transform="matrix(1 0 0 1 186.6147 588.0566)" font-size="8">RT Plan DR</text>
		</g>
		<g>
			<text transform="matrix(1 0 0 1 186.6147 625.127)" font-size="8">Plan DR</text>
		</g>
		
			<rect x="176.006" y="650.985" fill="#86B2D8" stroke="#010101" stroke-width="0.75" stroke-linecap="round" stroke-linejoin="round" stroke-miterlimit="1" width="83.994" height="18"/>
		<g>
			<text transform="matrix(1 0 0 1 175.2046 647.9531)" font-size="9">0-n</text>
		</g>
		<g>
			<g>
				<polyline fill="none" stroke="#005695" stroke-width="2" stroke-miterlimit="1" points="169.06,660.485 161,660.485 
					161,623.403 				"/>
				<g>
					<polygon fill="#005695" points="167.474,658.161 176.147,660.485 167.474,662.81 					"/>
				</g>
			</g>
		</g>
		<g>
			<text transform="matrix(1 0 0 1 186.6147 662.1914)" font-size="8">Radiotherapy DR</text>
		</g>
		<g>
			<text transform="matrix(1 0 0 1 186.6147 338.396)" font-size="8">Registration DR</text>
		</g>
		<g>
			<text transform="matrix(1 0 0 1 78.3701 408.7578)" font-size="8">Stereometric DR</text>
		</g>
		<g>
			<rect x="287.836" y="599.374" fill="#FFFFFF" stroke="#000000" stroke-miterlimit="1" width="198.129" height="106.682"/>
			<g>
				<g>
					
						<line fill="none" stroke="#005695" stroke-width="2" stroke-linecap="round" stroke-miterlimit="1" x1="343.565" y1="625.438" x2="343.565" y2="632.965"/>
					<g>
						<polygon fill="#005695" points="341.241,631.38 343.565,640.053 345.889,631.38 						"/>
					</g>
				</g>
			</g>
			
				<rect x="303.063" y="610.712" fill="#86B2D8" stroke="#010101" stroke-width="0.75" stroke-linecap="round" stroke-linejoin="round" stroke-miterlimit="1" width="81" height="14.727"/>
			<g>
				<text transform="matrix(1 0 0 1 310.5425 620.7441)" font-size="9">Higher Level DR</text>
			</g>
			<g>
				<g>
					
						<line fill="none" stroke="#005695" stroke-width="2" stroke-linecap="round" stroke-miterlimit="1" x1="343.555" y1="666.021" x2="343.555" y2="659.021"/>
					<g>
						<polygon fill="#005695" points="345.879,664.437 343.555,673.109 341.231,664.437 						"/>
					</g>
				</g>
			</g>
			
				<polygon fill="#CCDEF0" stroke="#010101" stroke-width="0.75" stroke-linecap="round" stroke-linejoin="round" stroke-miterlimit="1" points="
				298.561,649.761 343.493,640.899 388.561,649.888 388.561,649.907 343.493,658.899 			"/>
			<g>
				<text transform="matrix(1 0 0 1 322.2954 651.8867)" font-size="9">references</text>
			</g>
			
				<rect x="303.063" y="673.983" fill="#86B2D8" stroke="#010101" stroke-width="0.75" stroke-linecap="round" stroke-linejoin="round" stroke-miterlimit="1" width="81" height="14.727"/>
			<g>
				<text transform="matrix(1 0 0 1 311.5425 684.0137)" font-size="9">Lower Level DR</text>
			</g>
			<g>
				<rect x="400.631" y="610.708" fill="none" width="77.203" height="87.334"/>
				<text transform="matrix(1 0 0 1 400.6274 617.0859)"><tspan x="0" y="0" font-size="9">The Higher-Level</tspan><tspan x="0" y="10.799" font-size="9">Directory Record</tspan><tspan x="0" y="21.6" font-size="9">references a</tspan><tspan x="0" y="32.4" font-size="9">Lower- Level</tspan><tspan x="0" y="43.199" font-size="9">Directory Entity</tspan><tspan x="0" y="54" font-size="9">that includes the</tspan><tspan x="0" y="64.799" font-size="9">Lower-Level</tspan><tspan x="0" y="75.6" font-size="9">Directory Record</tspan></text>
			</g>
		</g>
		<g>
			<g>
				
					<line fill="none" stroke="#005695" stroke-width="2" stroke-linecap="round" stroke-miterlimit="1" x1="161.125" y1="115.408" x2="161.125" y2="132.071"/>
				<g>
					<polygon fill="#005695" points="158.801,130.485 161.125,139.158 163.45,130.485 					"/>
				</g>
			</g>
		</g>
		<g>
			<g>
				<polyline fill="none" stroke="#005695" stroke-width="2" stroke-linecap="round" stroke-miterlimit="1" points="247.66,91.339 
					247.66,85.933 161.532,85.933 				"/>
				<g>
					<polygon fill="#005695" points="249.984,89.754 247.66,98.427 245.335,89.754 					"/>
				</g>
			</g>
		</g>
		<g>
			<g>
				
					<line fill="none" stroke="#005695" stroke-width="2" stroke-linecap="round" stroke-miterlimit="1" x1="161.08" y1="91.339" x2="161.08" y2="85.933"/>
				<g>
					<polygon fill="#005695" points="163.404,89.754 161.08,98.427 158.755,89.754 					"/>
				</g>
			</g>
		</g>
		
			<rect x="108.367" y="15.944" fill="#86B2D8" stroke="#010101" stroke-width="0.75" stroke-linecap="round" stroke-linejoin="round" stroke-miterlimit="1" width="105.509" height="16.232"/>
		<g>
			<text transform="matrix(1 0 0 1 124.4375 27.002)" font-size="8">Root Directory Entity</text>
		</g>
		<g>
			<g>
				
					<line fill="none" stroke="#005695" stroke-width="2" stroke-linecap="round" stroke-miterlimit="1" x1="161.19" y1="32.231" x2="161.139" y2="49.017"/>
				<g>
					<polygon fill="#005695" points="158.819,47.425 161.117,56.104 163.467,47.439 					"/>
				</g>
			</g>
		</g>
		
			<rect x="123.248" y="99.177" fill="#86B2D8" stroke="#010101" stroke-width="0.75" stroke-linecap="round" stroke-linejoin="round" stroke-miterlimit="1" width="75.745" height="16.231"/>
		<g>
			<text transform="matrix(1 0 0 1 141.7749 110.2363)" font-size="8">Patient DR</text>
		</g>
		
			<rect x="214.597" y="99.408" fill="#86B2D8" stroke="#010101" stroke-width="0.75" stroke-linecap="round" stroke-linejoin="round" stroke-miterlimit="1" width="66.001" height="16"/>
		<g>
			<text transform="matrix(1 0 0 1 217.5737 110.2363)" font-size="8">Color Palette DR</text>
		</g>
		<g>
			<text transform="matrix(1 0 0 1 187.9946 139.6157)" font-size="8">1</text>
		</g>
		
			<polygon fill="#CCDEF0" stroke="#010101" stroke-width="0.75" stroke-linecap="round" stroke-linejoin="round" stroke-miterlimit="1" points="
			128.556,64.096 160.971,56.104 193.484,64.212 193.484,64.23 160.971,72.336 		"/>
		<g>
			<text transform="matrix(1 0 0 1 146.2114 66.4209)" font-size="8">includes</text>
		</g>
		<g>
			<text transform="matrix(1 0 0 1 189.0015 61.4229)" font-size="8">1</text>
		</g>
		<g>
			<text transform="matrix(1 0 0 1 165.9248 96.4688)" font-size="8">0-n</text>
		</g>
		<g>
			<text transform="matrix(1 0 0 1 252.2739 96.4688)" font-size="8">0-n</text>
		</g>
		<g>
			<g>
				
					<line fill="none" stroke="#005695" stroke-width="2" stroke-linecap="round" stroke-miterlimit="1" x1="161.08" y1="174.06" x2="161.08" y2="155.391"/>
				<g>
					<polygon fill="#005695" points="163.404,172.475 161.08,181.147 158.755,172.475 					"/>
				</g>
			</g>
		</g>
		<g>
			<text transform="matrix(1 0 0 1 165.9248 178.8618)" font-size="8">1-n</text>
		</g>
		<g>
			<g>
				<polyline fill="none" stroke="#005695" stroke-width="2" stroke-linecap="round" stroke-miterlimit="1" points="324.063,91.339 
					324.063,85.933 247.66,85.933 				"/>
				<g>
					<polygon fill="#005695" points="326.387,89.754 324.063,98.427 321.739,89.754 					"/>
				</g>
			</g>
		</g>
		
			<rect x="295.641" y="99.408" fill="#86B2D8" stroke="#010101" stroke-width="0.75" stroke-linecap="round" stroke-linejoin="round" stroke-miterlimit="1" width="56.002" height="16"/>
		<g>
			<text transform="matrix(1 0 0 1 298.9282 106.3066)"><tspan x="0" y="0" font-size="7">Generic Implant</tspan><tspan x="4.088" y="5.995" font-size="7">Template DR</tspan></text>
		</g>
		<g>
			<text transform="matrix(1 0 0 1 328.3218 96.4688)" font-size="8">0-n</text>
		</g>
		
			<rect x="30.249" y="99.408" fill="#86B2D8" stroke="#010101" stroke-width="0.75" stroke-linecap="round" stroke-linejoin="round" stroke-miterlimit="1" width="80.002" height="16"/>
		<g>
			<text transform="matrix(1 0 0 1 32.6626 110.2363)" font-size="8">Hanging Protocol DR</text>
		</g>
		<g>
			<text transform="matrix(1 0 0 1 74.9253 96.4688)" font-size="8">0-n</text>
		</g>
		<g>
			<g>
				<polyline fill="none" stroke="#005695" stroke-width="2" stroke-linecap="round" stroke-miterlimit="1" points="70.311,91.339 
					70.311,85.933 161.118,85.933 161.118,72.852 				"/>
				<g>
					<polygon fill="#005695" points="72.635,89.754 70.311,98.427 67.987,89.754 					"/>
				</g>
			</g>
		</g>
		<g>
			<g>
				<polyline fill="none" stroke="#005695" stroke-width="2" stroke-linecap="round" stroke-miterlimit="1" points="396.868,91.339 
					396.868,85.933 323.704,85.933 				"/>
				<g>
					<polygon fill="#005695" points="399.192,89.754 396.868,98.427 394.543,89.754 					"/>
				</g>
			</g>
		</g>
		
			<rect x="366.807" y="99.408" fill="#86B2D8" stroke="#010101" stroke-width="0.75" stroke-linecap="round" stroke-linejoin="round" stroke-miterlimit="1" width="60" height="16"/>
		<g>
			<text transform="matrix(1 0 0 1 369.7593 106.3066)"><tspan x="0" y="0" font-size="7">Implant Template</tspan><tspan x="11.285" y="5.995" font-size="7">Group DR</tspan></text>
		</g>
		<g>
			<text transform="matrix(1 0 0 1 401.4878 96.4688)" font-size="8">0-n</text>
		</g>
		<g>
			<g>
				<polyline fill="none" stroke="#005695" stroke-width="2" stroke-linecap="round" stroke-miterlimit="1" points="473.272,91.339 
					473.272,85.933 396.868,85.933 				"/>
				<g>
					<polygon fill="#005695" points="475.596,89.754 473.272,98.427 470.948,89.754 					"/>
				</g>
			</g>
		</g>
		
			<rect x="442.211" y="99.408" fill="#86B2D8" stroke="#010101" stroke-width="0.75" stroke-linecap="round" stroke-linejoin="round" stroke-miterlimit="1" width="62" height="16"/>
		<g>
			<text transform="matrix(1 0 0 1 445.5864 106.3066)"><tspan x="0" y="0" font-size="7">Implant Assembly</tspan><tspan x="7.003" y="5.995" font-size="7">Template DR</tspan></text>
		</g>
		<g>
			<text transform="matrix(1 0 0 1 477.895 96.4688)" font-size="8">0-n</text>
		</g>
		
			<polygon fill="#CCDEF0" stroke="#010101" stroke-width="0.75" stroke-linecap="round" stroke-linejoin="round" stroke-miterlimit="1" points="
			120.428,302.504 160.946,294.514 201.587,302.62 201.587,302.638 160.946,310.744 		"/>
		<g>
			<text transform="matrix(1 0 0 1 142.1064 304.8271)" font-size="8">references</text>
		</g>
		<g>
			<g>
				
					<line fill="none" stroke="#005695" stroke-width="2" stroke-linecap="round" stroke-miterlimit="1" x1="161.077" y1="279.941" x2="161.077" y2="287.426"/>
				<g>
					<polygon fill="#005695" points="158.752,285.841 161.077,294.514 163.401,285.841 					"/>
				</g>
			</g>
		</g>
		<g>
			<text transform="matrix(1 0 0 1 180.498 294.9775)" font-size="8">1</text>
		</g>
		
			<polygon fill="#CCDEF0" stroke="#010101" stroke-width="0.75" stroke-linecap="round" stroke-linejoin="round" stroke-miterlimit="1" points="
			128.723,147.149 161.137,139.158 193.648,147.265 193.648,147.284 161.137,155.391 		"/>
		<g>
			<text transform="matrix(1 0 0 1 142.2861 149.4653)" font-size="8">references</text>
		</g>
		<g>
			<g>
				
					<line fill="none" stroke="#005695" stroke-width="2" stroke-linecap="round" stroke-miterlimit="1" x1="161.125" y1="197.768" x2="161.125" y2="214.431"/>
				<g>
					<polygon fill="#005695" points="158.801,212.846 161.125,221.519 163.45,212.846 					"/>
				</g>
			</g>
		</g>
		<g>
			<text transform="matrix(1 0 0 1 189.167 221.9761)" font-size="8">1</text>
		</g>
		<g>
			<g>
				
					<line fill="none" stroke="#005695" stroke-width="2" stroke-linecap="round" stroke-miterlimit="1" x1="161.08" y1="237.641" x2="161.08" y2="256.843"/>
				<g>
					<polygon fill="#005695" points="158.755,255.258 161.08,263.931 163.404,255.258 					"/>
				</g>
			</g>
		</g>
		<g>
			<text transform="matrix(1 0 0 1 182.0015 240.4819)" font-size="8">0-n</text>
		</g>
		
			<polygon fill="#CCDEF0" stroke="#010101" stroke-width="0.75" stroke-linecap="round" stroke-linejoin="round" stroke-miterlimit="1" points="
			128.723,229.51 161.137,221.519 193.648,229.625 193.648,229.644 161.137,237.749 		"/>
		<g>
			<text transform="matrix(1 0 0 1 142.2861 231.8257)" font-size="8">references</text>
		</g>
		
			<rect x="123.248" y="181.57" fill="#86B2D8" stroke="#010101" stroke-width="0.75" stroke-linecap="round" stroke-linejoin="round" stroke-miterlimit="1" width="75.745" height="16.232"/>
		<g>
			<text transform="matrix(1 0 0 1 143.9995 192.6294)" font-size="8">Study DR</text>
		</g>
		
			<rect x="123.248" y="263.931" fill="#86B2D8" stroke="#010101" stroke-width="0.75" stroke-linecap="round" stroke-linejoin="round" stroke-miterlimit="1" width="75.745" height="16.231"/>
		<g>
			<text transform="matrix(1 0 0 1 142.8901 274.9897)" font-size="8">Series DR</text>
		</g>
	</g>
</g>
</svg>
