<?xml version="1.0" encoding="utf-8"?>

<!DOCTYPE svg PUBLIC "-//W3C//DTD SVG 1.1//EN" "http://www.w3.org/Graphics/SVG/1.1/DTD/svg11.dtd">
<svg version="1.1" id="Layer_1" xmlns="http://www.w3.org/2000/svg" xmlns:xlink="http://www.w3.org/1999/xlink" x="0px" y="0px"
	 width="552px" height="382px" viewBox="0 0 552 382" enable-background="new 0 0 552 382" xml:space="preserve">

<defs>
	<style type="text/css">
	text {
	  font-family: Helvetica, Verdana, ArialUnicodeMS, san-serif
	}
	</style>
</defs>

<g>
   <desc>
	PS 3.3 Part 3: Information Object Definitions
   </desc>
</g>

<g>
	<g>
		<rect x="1" y="1" fill="#F5EED6" width="550" height="380"/>
	</g>
	<g>
		<polyline fill="#DEE9F5" points="70.833,324.159 460.564,324.159 460.564,35.557 70.833,35.557 		"/>
		<rect x="70.643" y="82.812" fill="#B2CEE7" width="180.003" height="201.036"/>
		
			<line fill="#F2F2F2" stroke="#000000" stroke-width="0.5" stroke-miterlimit="10" x1="70.833" y1="35.557" x2="70.833" y2="324.159"/>
		
			<line fill="none" stroke="#B3B3B3" stroke-width="0.5" stroke-miterlimit="10" x1="70.833" y1="76.847" x2="460.564" y2="76.847"/>
		
			<line fill="none" stroke="#B3B3B3" stroke-width="0.5" stroke-miterlimit="10" x1="70.833" y1="117.995" x2="460.564" y2="117.995"/>
		
			<line fill="none" stroke="#B3B3B3" stroke-width="0.5" stroke-miterlimit="10" x1="70.833" y1="159.284" x2="460.564" y2="159.284"/>
		
			<line fill="none" stroke="#B3B3B3" stroke-width="0.5" stroke-miterlimit="10" x1="70.833" y1="200.433" x2="460.564" y2="200.433"/>
		
			<line fill="none" stroke="#B3B3B3" stroke-width="0.5" stroke-miterlimit="10" x1="70.833" y1="241.722" x2="460.564" y2="241.722"/>
		
			<line fill="#F2F2F2" stroke="#000000" stroke-width="0.5" stroke-miterlimit="10" x1="70.833" y1="282.87" x2="460.564" y2="282.87"/>
		
			<line fill="none" stroke="#B3B3B3" stroke-width="0.5" stroke-miterlimit="10" x1="411.848" y1="132.18" x2="411.848" y2="35.557"/>
		
			<line fill="none" stroke="#B3B3B3" stroke-width="0.5" stroke-miterlimit="10" x1="411.848" y1="324.159" x2="411.848" y2="147.93"/>
		
			<line fill="none" stroke="#B3B3B3" stroke-width="0.5" stroke-miterlimit="10" x1="363.131" y1="93.929" x2="363.131" y2="35.557"/>
		
			<line fill="none" stroke="#B3B3B3" stroke-width="0.5" stroke-miterlimit="10" x1="363.131" y1="132.179" x2="363.131" y2="112.43"/>
		
			<line fill="none" stroke="#B3B3B3" stroke-width="0.5" stroke-miterlimit="10" x1="363.131" y1="324.159" x2="363.131" y2="147.929"/>
		
			<line fill="none" stroke="#B3B3B3" stroke-width="0.5" stroke-miterlimit="10" x1="314.414" y1="93.93" x2="314.414" y2="35.557"/>
		
			<line fill="none" stroke="#B3B3B3" stroke-width="0.5" stroke-miterlimit="10" x1="314.414" y1="132.179" x2="314.414" y2="112.429"/>
		
			<line fill="none" stroke="#B3B3B3" stroke-width="0.5" stroke-miterlimit="10" x1="314.414" y1="324.159" x2="314.414" y2="147.929"/>
		
			<line fill="none" stroke="#B3B3B3" stroke-width="0.5" stroke-miterlimit="10" x1="265.698" y1="324.159" x2="265.698" y2="35.557"/>
		
			<line fill="none" stroke="#B3B3B3" stroke-width="0.5" stroke-miterlimit="10" x1="216.982" y1="324.159" x2="216.982" y2="35.557"/>
		
			<line fill="none" stroke="#B3B3B3" stroke-width="0.5" stroke-miterlimit="10" x1="168.265" y1="324.159" x2="168.265" y2="35.557"/>
		
			<line fill="none" stroke="#B3B3B3" stroke-width="0.5" stroke-miterlimit="10" x1="119.549" y1="324.159" x2="119.549" y2="35.557"/>
		<g>
			<text transform="matrix(1 0 0 1 464.8633 283.2588)" font-size="8">range (mm)</text>
		</g>
		<g>
			<text transform="matrix(1 0 0 1 45.7964 26.2183)" font-size="8">Dose Ratio (%)</text>
		</g>
		<g>
			<text transform="matrix(1 0 0 1 57.0718 36.2603)" font-size="6">120</text>
		</g>
		<g>
			<text transform="matrix(1 0 0 1 57.0718 77.6279)" font-size="6">100</text>
		</g>
		<g>
			<text transform="matrix(1 0 0 1 60.4087 118.9956)" font-size="6">80</text>
		</g>
		<g>
			<text transform="matrix(1 0 0 1 60.4087 160.3633)" font-size="6">60</text>
		</g>
		<g>
			<text transform="matrix(1 0 0 1 60.4087 201.7305)" font-size="6">40</text>
		</g>
		<g>
			<text transform="matrix(1 0 0 1 60.4087 243.0986)" font-size="6">20</text>
		</g>
		<g>
			<text transform="matrix(1 0 0 1 63.7456 284.4668)" font-size="6">0</text>
		</g>
		<g>
			<text transform="matrix(1 0 0 1 72.8325 290.7168)" font-size="6">280</text>
		</g>
		<g>
			<text transform="matrix(1 0 0 1 120.8325 290.7168)" font-size="6">285</text>
		</g>
		<g>
			<text transform="matrix(1 0 0 1 170.0825 290.7168)" font-size="6">290</text>
		</g>
		<g>
			<text transform="matrix(1 0 0 1 218.0825 290.7168)" font-size="6">295</text>
		</g>
		<g>
			<text transform="matrix(1 0 0 1 267.3325 290.7168)" font-size="6">300</text>
		</g>
		<g>
			<text transform="matrix(1 0 0 1 315.332 290.7168)" font-size="6">305</text>
		</g>
		<g>
			<text transform="matrix(1 0 0 1 364.582 290.7168)" font-size="6">310</text>
		</g>
		<g>
			<text transform="matrix(1 0 0 1 413.832 290.7168)" font-size="6">315</text>
		</g>
		<g>
			<text transform="matrix(1 0 0 1 461.582 290.7168)" font-size="6">320</text>
		</g>
		<g>
			<text transform="matrix(1 0 0 1 58.4106 325.834)" font-size="6">-20</text>
		</g>
		<path fill-rule="evenodd" clip-rule="evenodd" fill="none" stroke="#ED2224" stroke-width="2" stroke-miterlimit="10" d="
			M70.833,74.885c7.064-0.307,26.625-0.776,33.691-0.879c8.358-0.123,16.723-0.003,25.083,0.156
			c4.517,0.086,9.033,0.403,13.541,0.738c9.595,0.713,19.181,1.56,28.778,2.246c6.332,0.453,12.657,0.577,19-0.233
			c5.353-0.683,10.771-0.84,16.135-1.452c9.059-1.033,18.101-2.205,27.141-3.395c2.956-0.389,4.706-1.062,8.38,1.801
			c5.227,4.245,10.409,8.544,15.7,12.708c2.451,1.929,5.193,3.486,7.66,5.396c4.931,3.82,6.794,9.587,9.719,14.787
			c5.527,9.831,10.753,19.836,16.447,29.568c5.878,10.048,10.045,20.817,14.246,31.595c1.785,4.579,3.588,9.15,5.375,13.728
			c3.662,9.376,7.41,18.72,10.955,28.14c3.414,9.073,8.1,17.364,13.678,25.305c5.344,7.605,9.893,15.77,14.785,23.691
			c1.342,2.174,2.76,4.33,4.08,6.463c1.904,3.08,8.15,4.078,10.547,5.114c1.5,0.648,5.475,2.251,10.105,4.516
			c3.957,1.936,8.123,3.868,12.369,4.908c3.965,0.973,8.182,0.817,12.279,1.282c4.775,0.542,9.799,1.151,20.346,1.57
			c10.289,0.408,38.441,0.319,38.441,0.319"/>
		<circle fill="#F7941E" cx="251.021" cy="283.349" r="5"/>
		
			<line fill="none" stroke="#000000" stroke-width="0.5" stroke-miterlimit="10" x1="251.021" y1="283.323" x2="177.625" y2="252.878"/>
		<ellipse fill="#F7941E" cx="170.875" cy="250.878" rx="9.208" ry="5.875"/>
		<circle fill="#F7941E" cx="251.021" cy="82.503" r="5"/>
		
			<line fill="none" stroke="#000000" stroke-width="0.5" stroke-miterlimit="10" x1="251.021" y1="82.528" x2="177.625" y2="119.224"/>
		<ellipse fill="#F7941E" cx="170.875" cy="121.224" rx="9.208" ry="5.875"/>
		<g>
			<text transform="matrix(1 0 0 1 319.2041 104.6631)" font-size="8">Distal Depth Fraction</text>
		</g>
		<g>
			<text transform="matrix(1 0 0 1 269.7715 338.1748)" font-size="8">Distal Depth</text>
		</g>
		<g>
			<text transform="matrix(1 0 0 1 248.2588 363.2998)" font-size="8">Distal Limit</text>
		</g>
		<g>
			<text transform="matrix(1 0 0 1 116.0928 349.5498)" font-size="8">Range Modulated Region</text>
		</g>
		<g>
			<text transform="matrix(1 0 0 1 234.0137 28.7183)" font-size="12">Depth Dose</text>
		</g>
		
			<line fill="none" stroke="#000000" stroke-width="0.5" stroke-miterlimit="10" stroke-dasharray="4,1,1" x1="274.771" y1="102.378" x2="316.369" y2="102.378"/>
		<polyline fill="none" stroke="#000000" stroke-width="0.5" stroke-miterlimit="10" stroke-dasharray="4,2" points="
			251.021,355.812 251.021,82.378 71.354,82.378 		"/>
		<polyline fill="none" stroke="#000000" stroke-width="0.5" stroke-miterlimit="10" stroke-dasharray="4,1,1" points="
			273.026,329.978 273.026,102.378 70.322,102.378 		"/>
		<g>
			<text transform="matrix(1 0 0 1 86.5254 242.7588)"><tspan x="0" y="0" font-size="8">Nominal Range Modulated Region Depths</tspan><tspan x="54.934" y="9.601" font-size="8">(300A,0504)</tspan></text>
		</g>
		<g>
			<text transform="matrix(1 0 0 1 141.459 123.0083)"><tspan x="0" y="0" font-size="8">(300A,0503)</tspan><tspan x="-45.811" y="11.6" font-size="8">Nominal Range Modulation Fractions</tspan></text>
		</g>
		<g>
			<g>
				<line fill="none" stroke="#003468" stroke-miterlimit="10" x1="208.292" y1="347.478" x2="245.706" y2="347.478"/>
				<g>
					<polygon fill="#003468" points="244.517,349.221 251.021,347.478 244.517,345.734 					"/>
				</g>
			</g>
		</g>
		<g>
			<g>
				<line fill="none" stroke="#003468" stroke-miterlimit="10" x1="76.333" y1="347.478" x2="113.958" y2="347.478"/>
				<g>
					<polygon fill="#003468" points="77.522,349.221 71.018,347.478 77.522,345.734 					"/>
				</g>
			</g>
		</g>
		<g>
			<text transform="matrix(1 0 0 1 340.6104 141.4863)" font-size="8">Reference Dose Definition</text>
		</g>
		
			<line fill="none" stroke="#ED1C24" stroke-width="0.5" stroke-miterlimit="10" stroke-dasharray="2,2" x1="293.732" y1="139.202" x2="337.525" y2="139.202"/>
	</g>
</g>
</svg>
