<?xml version="1.0" encoding="utf-8"?>

<!DOCTYPE svg PUBLIC "-//W3C//DTD SVG 1.1//EN" "http://www.w3.org/Graphics/SVG/1.1/DTD/svg11.dtd">
<svg version="1.1" id="Layer_1" xmlns="http://www.w3.org/2000/svg" xmlns:xlink="http://www.w3.org/1999/xlink" x="0px" y="0px"
	 width="967px" height="592px" viewBox="0 0 967 592" enable-background="new 0 0 967 592" xml:space="preserve">
    
<defs>
	<style type="text/css">
	text {
	  font-family: Helvetica, Verdana, ArialUnicodeMS, san-serif
	}
	</style>
</defs>

<g>
   <desc>
	PS 3.3 Information Object Definitions
   </desc>
</g>

<g>
	<rect x="1" y="1" fill="#F5EED6" width="965" height="590"/>
	<g>
		
			<rect x="45.151" y="16.193" fill="#CCDEF0" stroke="#010101" stroke-width="0.75" stroke-linecap="round" stroke-linejoin="round" stroke-miterlimit="1" width="130" height="159.517"/>
		<g>
			<text transform="matrix(1 0 0 1 53.0293 28.4556)"><tspan x="0" y="0" font-size="8">Volumentric Presentation State </tspan><tspan x="21.113" y="9.6" font-size="8">Input Set Sequence</tspan><tspan x="34.236" y="19.2" font-size="8">(0070,120A)</tspan></text>
		</g>
		<rect x="375.38" y="196.651" fill="#CCDEF0" width="341.5" height="209.109"/>
		<rect x="375.38" y="426.697" fill="#CCDEF0" width="341.5" height="149.109"/>
		<polygon fill="#FFFFFF" stroke="#005695" stroke-linejoin="round" points="864.884,418.737 934.812,418.737 934.812,414.843 
			945.499,422.433 934.812,430.02 934.812,426.656 864.884,426.656 		"/>
		<g>
			<text transform="matrix(1 0 0 1 867.7441 424.5605)" font-size="6">P-Values or PCS-Values</text>
		</g>
		<polyline fill="#FFFFFF" stroke="#005695" stroke-linejoin="round" points="648.208,268.044 677.645,268.044 677.645,286.854 
			681.539,286.854 673.949,297.541 666.362,286.854 669.726,286.854 669.726,275.858 648.116,275.858 		"/>
		<g>
			<text transform="matrix(1 0 0 1 651.0488 273.8784)" font-size="6">RGBA</text>
		</g>
		<polyline fill="#FFFFFF" stroke="#005695" stroke-linejoin="round" points="699.286,305.706 758.957,305.706 758.957,385.992 
			762.852,385.992 755.262,396.68 747.675,385.992 751.038,385.992 751.038,313.521 699.194,313.521 		"/>
		<g>
			<text transform="matrix(1 0 0 1 702.127 311.541)" font-size="6">RGBA</text>
		</g>
		<polyline fill="#FFFFFF" stroke="#005695" stroke-linejoin="round" points="648.302,501.21 758.938,501.21 758.938,458.213 
			762.852,458.213 755.223,447.525 747.596,458.213 750.977,458.213 750.977,493.396 648.209,493.396 		"/>
		<g>
			<text transform="matrix(1 0 0 1 651.7266 499.3975)" font-size="6">RGBA</text>
		</g>
		
			<rect x="729.614" y="397.431" fill="#B2CEE7" stroke="#010101" stroke-width="0.75" stroke-linecap="round" stroke-linejoin="round" stroke-miterlimit="1" width="50" height="50"/>
		<g>
			<text transform="matrix(1 0 0 1 746.0801 421.3496)"><tspan x="0" y="0" font-size="6">RGBA</tspan><tspan x="-6.837" y="5.491" font-size="6">Compositor</tspan></text>
		</g>
		<polygon fill="#FFFFFF" stroke="#005695" stroke-linecap="round" stroke-linejoin="round" points="479.025,238.415 
			479.025,230.563 485.73,230.563 485.73,224.748 496.416,234.747 485.73,244.748 485.73,238.415 		"/>
		<polygon fill="#FFFFFF" stroke="#005695" stroke-linecap="round" stroke-linejoin="round" points="527.555,238.415 
			527.555,230.563 534.26,230.563 534.26,224.748 544.945,234.747 534.26,244.748 534.26,238.415 		"/>
		<g>
			<g>
				<polyline fill="none" stroke="#000000" stroke-miterlimit="1" points="464.209,261.618 512.522,261.618 512.522,253.202 				"/>
				<g>
					<polygon points="514.847,254.787 512.522,246.114 510.198,254.787 					"/>
				</g>
			</g>
		</g>
		
			<rect x="449.033" y="223.748" fill="#B2CEE7" stroke="#010101" stroke-width="0.75" stroke-linecap="round" stroke-linejoin="round" stroke-miterlimit="1" width="30" height="22"/>
		<g>
			<text transform="matrix(1 0 0 1 452.374 236.417)" font-size="6">VOI LUT</text>
		</g>
		
			<rect x="497.584" y="223.748" fill="#B2CEE7" stroke="#010101" stroke-width="0.75" stroke-linecap="round" stroke-linejoin="round" stroke-miterlimit="1" width="30" height="22"/>
		<g>
			<text transform="matrix(1 0 0 1 500.4082 236.4175)" font-size="6">Cropping</text>
		</g>
		<g>
			<text transform="matrix(1 0 0 1 396.707 258.4365)"><tspan x="0" y="0" font-size="6">Input Specific</tspan><tspan x="0" y="9.291" font-size="6">Parameters</tspan></text>
		</g>
		
			<rect x="597.118" y="261.299" fill="#B2CEE7" stroke="#010101" stroke-width="0.75" stroke-linecap="round" stroke-linejoin="round" stroke-miterlimit="1" width="51" height="22"/>
		<g>
			<text transform="matrix(1 0 0 1 599.9355 273.9639)" font-size="6">Volume Blending</text>
		</g>
		<polyline fill="#FFFFFF" stroke="#005695" stroke-linejoin="round" points="597.13,230.584 626.566,230.584 626.566,249.394 
			630.461,249.394 622.871,260.081 615.284,249.394 618.647,249.394 618.647,238.398 597.038,238.398 		"/>
		
			<rect x="546.038" y="223.748" fill="#B2CEE7" stroke="#010101" stroke-width="0.75" stroke-linecap="round" stroke-linejoin="round" stroke-miterlimit="1" width="51" height="22"/>
		<g>
			<text transform="matrix(1 0 0 1 553.8545 236.4194)" font-size="6">Classification</text>
		</g>
		<g>
			<text transform="matrix(1 0 0 1 599.9707 236.4194)" font-size="6">RGBA</text>
		</g>
		
			<rect x="648.196" y="298.759" fill="#B2CEE7" stroke="#010101" stroke-width="0.75" stroke-linecap="round" stroke-linejoin="round" stroke-miterlimit="1" width="51" height="22"/>
		<g>
			<text transform="matrix(1 0 0 1 651.0137 311.4229)" font-size="6">Volume Blending</text>
		</g>
		<polygon fill="#FFFFFF" stroke="#005695" stroke-linecap="round" stroke-linejoin="round" points="479.025,314.021 
			479.025,306.17 485.73,306.17 485.73,300.354 496.416,310.354 485.73,320.354 485.73,314.021 		"/>
		<polygon fill="#FFFFFF" stroke="#005695" stroke-linecap="round" stroke-linejoin="round" points="527.555,314.021 
			527.555,306.17 534.26,306.17 534.26,300.354 544.945,310.354 534.26,320.354 534.26,314.021 		"/>
		<g>
			<g>
				<polyline fill="none" stroke="#000000" stroke-miterlimit="1" points="464.209,337.225 512.522,337.225 512.522,328.809 				"/>
				<g>
					<polygon points="514.847,330.394 512.522,321.721 510.198,330.394 					"/>
				</g>
			</g>
		</g>
		
			<rect x="449.033" y="299.354" fill="#B2CEE7" stroke="#010101" stroke-width="0.75" stroke-linecap="round" stroke-linejoin="round" stroke-miterlimit="1" width="30" height="22"/>
		<g>
			<text transform="matrix(1 0 0 1 452.374 312.0195)" font-size="6">VOI LUT</text>
		</g>
		
			<rect x="497.584" y="299.354" fill="#B2CEE7" stroke="#010101" stroke-width="0.75" stroke-linecap="round" stroke-linejoin="round" stroke-miterlimit="1" width="30" height="22"/>
		<g>
			<text transform="matrix(1 0 0 1 500.4082 312.0195)" font-size="6">Cropping</text>
		</g>
		<g>
			<text transform="matrix(1 0 0 1 396.707 334.0391)"><tspan x="0" y="0" font-size="6">Input Specific</tspan><tspan x="0" y="9.29" font-size="6">Parameters</tspan></text>
		</g>
		<polyline fill="#FFFFFF" stroke="#005695" stroke-linejoin="round" points="597.13,314.018 626.566,314.018 626.566,295.208 
			630.461,295.208 622.871,284.521 615.284,295.208 618.647,295.208 618.647,306.203 597.038,306.203 		"/>
		
			<rect x="546.038" y="299.354" fill="#B2CEE7" stroke="#010101" stroke-width="0.75" stroke-linecap="round" stroke-linejoin="round" stroke-miterlimit="1" width="51" height="22"/>
		<g>
			<text transform="matrix(1 0 0 1 553.8545 312.0215)" font-size="6">Classification</text>
		</g>
		<g>
			<text transform="matrix(1 0 0 1 599.9707 312.0215)" font-size="6">RGBA</text>
		</g>
		<polygon fill="#FFFFFF" stroke="#005695" stroke-linecap="round" stroke-linejoin="round" points="479.025,462.499 
			479.025,454.647 485.73,454.647 485.73,448.833 496.416,458.831 485.73,468.833 485.73,462.499 		"/>
		<polygon fill="#FFFFFF" stroke="#005695" stroke-linecap="round" stroke-linejoin="round" points="527.555,462.499 
			527.555,454.647 534.26,454.647 534.26,448.833 544.945,458.831 534.26,468.833 534.26,462.499 		"/>
		<g>
			<g>
				<polyline fill="none" stroke="#000000" stroke-miterlimit="1" points="464.209,485.702 512.522,485.702 512.522,477.286 				"/>
				<g>
					<polygon points="514.847,478.871 512.522,470.198 510.198,478.871 					"/>
				</g>
			</g>
		</g>
		
			<rect x="449.033" y="447.833" fill="#B2CEE7" stroke="#010101" stroke-width="0.75" stroke-linecap="round" stroke-linejoin="round" stroke-miterlimit="1" width="30" height="22"/>
		<g>
			<text transform="matrix(1 0 0 1 452.374 460.5049)" font-size="6">VOI LUT</text>
		</g>
		
			<rect x="497.584" y="447.833" fill="#B2CEE7" stroke="#010101" stroke-width="0.75" stroke-linecap="round" stroke-linejoin="round" stroke-miterlimit="1" width="30" height="22"/>
		<g>
			<text transform="matrix(1 0 0 1 500.4082 460.5059)" font-size="6">Cropping</text>
		</g>
		<g>
			<text transform="matrix(1 0 0 1 396.707 482.5244)"><tspan x="0" y="0" font-size="6">Input Specific</tspan><tspan x="0" y="9.29" font-size="6">Parameters</tspan></text>
		</g>
		<g>
			<text transform="matrix(1 0 0 1 378.9282 435.9883)" font-size="8">Volume Stream 2</text>
		</g>
		<g>
			<text transform="matrix(1 0 0 1 378.9282 206.4316)" font-size="8">Volume Stream 1</text>
		</g>
		
			<rect x="597.118" y="485.383" fill="#B2CEE7" stroke="#010101" stroke-width="0.75" stroke-linecap="round" stroke-linejoin="round" stroke-miterlimit="1" width="51" height="22"/>
		<g>
			<text transform="matrix(1 0 0 1 599.9355 498.0518)" font-size="6">Volume Blending</text>
		</g>
		<polyline fill="#FFFFFF" stroke="#005695" stroke-linejoin="round" points="597.13,454.668 626.566,454.668 626.566,473.478 
			630.461,473.478 622.871,484.165 615.284,473.478 618.647,473.478 618.647,462.482 597.038,462.482 		"/>
		<polygon fill="#FFFFFF" stroke="#005695" stroke-linejoin="round" points="779.62,418.737 803.188,418.737 803.188,414.843 
			813.876,422.433 803.188,430.02 803.188,426.656 779.62,426.656 		"/>
		
			<rect x="546.038" y="447.833" fill="#B2CEE7" stroke="#010101" stroke-width="0.75" stroke-linecap="round" stroke-linejoin="round" stroke-miterlimit="1" width="51" height="22"/>
		<g>
			<text transform="matrix(1 0 0 1 553.8545 460.5078)" font-size="6">Classification</text>
		</g>
		<g>
			<text transform="matrix(1 0 0 1 599.9707 460.5078)" font-size="6">RGBA</text>
		</g>
		<polygon fill="#FFFFFF" stroke="#005695" stroke-linecap="round" stroke-linejoin="round" points="479.025,538.105 
			479.025,530.254 485.73,530.254 485.73,524.438 496.416,534.438 485.73,544.438 485.73,538.105 		"/>
		<polygon fill="#FFFFFF" stroke="#005695" stroke-linecap="round" stroke-linejoin="round" points="527.555,538.105 
			527.555,530.254 534.26,530.254 534.26,524.438 544.945,534.438 534.26,544.438 534.26,538.105 		"/>
		<g>
			<g>
				<polyline fill="none" stroke="#000000" stroke-miterlimit="1" points="464.209,561.309 512.522,561.309 512.522,552.893 				"/>
				<g>
					<polygon points="514.847,554.478 512.522,545.805 510.198,554.478 					"/>
				</g>
			</g>
		</g>
		
			<rect x="449.033" y="523.438" fill="#B2CEE7" stroke="#010101" stroke-width="0.75" stroke-linecap="round" stroke-linejoin="round" stroke-miterlimit="1" width="30" height="22"/>
		<g>
			<text transform="matrix(1 0 0 1 452.374 536.1074)" font-size="6">VOI LUT</text>
		</g>
		
			<rect x="497.584" y="523.438" fill="#B2CEE7" stroke="#010101" stroke-width="0.75" stroke-linecap="round" stroke-linejoin="round" stroke-miterlimit="1" width="30" height="22"/>
		<g>
			<text transform="matrix(1 0 0 1 500.4082 536.1074)" font-size="6">Cropping</text>
		</g>
		<g>
			<text transform="matrix(1 0 0 1 396.707 558.127)"><tspan x="0" y="0" font-size="6">Input Specific</tspan><tspan x="0" y="9.29" font-size="6">Parameters</tspan></text>
		</g>
		<polyline fill="#FFFFFF" stroke="#005695" stroke-linejoin="round" points="597.13,538.103 626.566,538.103 626.566,519.292 
			630.461,519.292 622.871,508.604 615.284,519.292 618.647,519.292 618.647,530.288 597.038,530.288 		"/>
		
			<rect x="546.038" y="523.438" fill="#B2CEE7" stroke="#010101" stroke-width="0.75" stroke-linecap="round" stroke-linejoin="round" stroke-miterlimit="1" width="51" height="22"/>
		<g>
			<text transform="matrix(1 0 0 1 553.8545 536.1094)" font-size="6">Classification</text>
		</g>
		<g>
			<text transform="matrix(1 0 0 1 599.9707 536.1094)" font-size="6">RGBA</text>
		</g>
		<polygon fill="#FFFFFF" stroke="#005695" stroke-linecap="round" stroke-linejoin="round" points="479.025,366.737 
			479.025,358.886 485.73,358.886 485.73,353.07 496.416,363.069 485.73,373.07 485.73,366.737 		"/>
		<polygon fill="#FFFFFF" stroke="#005695" stroke-linecap="round" stroke-linejoin="round" points="527.555,366.737 
			527.555,358.886 534.26,358.886 534.26,353.07 544.945,363.069 534.26,373.07 534.26,366.737 		"/>
		<g>
			<g>
				<polyline fill="none" stroke="#000000" stroke-miterlimit="1" points="464.209,389.94 512.522,389.94 512.522,381.524 				"/>
				<g>
					<polygon points="514.847,383.109 512.522,374.437 510.198,383.109 					"/>
				</g>
			</g>
		</g>
		
			<rect x="449.033" y="352.07" fill="#B2CEE7" stroke="#010101" stroke-width="0.75" stroke-linecap="round" stroke-linejoin="round" stroke-miterlimit="1" width="30" height="22"/>
		<g>
			<text transform="matrix(1 0 0 1 452.374 364.7354)" font-size="6">VOI LUT</text>
		</g>
		
			<rect x="497.584" y="352.07" fill="#B2CEE7" stroke="#010101" stroke-width="0.75" stroke-linecap="round" stroke-linejoin="round" stroke-miterlimit="1" width="30" height="22"/>
		<g>
			<text transform="matrix(1 0 0 1 500.4082 364.7363)" font-size="6">Cropping</text>
		</g>
		<g>
			<text transform="matrix(1 0 0 1 396.707 386.7549)"><tspan x="0" y="0" font-size="6">Input Specific</tspan><tspan x="0" y="9.29" font-size="6">Parameters</tspan></text>
		</g>
		<polyline fill="#FFFFFF" stroke="#005695" stroke-linejoin="round" points="597.13,366.734 677.862,366.734 677.862,332.405 
			681.757,332.405 674.167,321.718 666.58,332.405 669.943,332.405 669.943,358.92 597.038,358.92 		"/>
		
			<rect x="546.038" y="352.07" fill="#B2CEE7" stroke="#010101" stroke-width="0.75" stroke-linecap="round" stroke-linejoin="round" stroke-miterlimit="1" width="51" height="22"/>
		<g>
			<text transform="matrix(1 0 0 1 553.8545 364.7383)" font-size="6">Classification</text>
		</g>
		<g>
			<text transform="matrix(1 0 0 1 599.9707 364.7383)" font-size="6">RGBA</text>
		</g>
		<g>
			<text transform="matrix(1 0 0 1 782.6699 424.1826)" font-size="6">RGBA</text>
		</g>
		
			<rect x="814.884" y="397.809" fill="#B2CEE7" stroke="#010101" stroke-width="0.75" stroke-linecap="round" stroke-linejoin="round" stroke-miterlimit="1" width="50" height="49.999"/>
		<g>
			<text transform="matrix(1 0 0 1 829.7109 421.3496)"><tspan x="0" y="0" font-size="6">Volume</tspan><tspan x="-3.672" y="5.491" font-size="6">Rendering</tspan></text>
		</g>
		
			<rect x="190.829" y="16.193" fill="#CCDEF0" stroke="#010101" stroke-width="0.75" stroke-linecap="round" stroke-linejoin="round" stroke-miterlimit="1" width="130" height="159.517"/>
		
			<rect x="60.651" y="62.155" fill="#B2CEE7" stroke="#010101" stroke-width="0.75" stroke-linecap="round" stroke-linejoin="round" stroke-miterlimit="1" width="98.999" height="44.971"/>
		<g>
			<text transform="matrix(1 0 0 1 97.6528 87.1455)" font-size="9">Item 1</text>
		</g>
		
			<rect x="60.651" y="118.424" fill="#B2CEE7" stroke="#010101" stroke-width="0.75" stroke-linecap="round" stroke-linejoin="round" stroke-miterlimit="1" width="98.999" height="44.971"/>
		<g>
			<text transform="matrix(1 0 0 1 97.6519 143.4141)" font-size="9">Item 2</text>
		</g>
		<g>
			<g>
				
					<line fill="none" stroke="#005695" stroke-width="2" stroke-linecap="round" stroke-linejoin="round" x1="171.722" y1="135.873" x2="206.31" y2="130.388"/>
				<g>
					<polygon fill="#005695" points="174.616,138.944 161.222,137.538 173.524,132.057 					"/>
				</g>
			</g>
		</g>
		<g>
			<g>
				
					<line fill="none" stroke="#005695" stroke-width="2" stroke-linecap="round" stroke-linejoin="round" x1="171.225" y1="74.832" x2="206.31" y2="62.21"/>
				<g>
					<polygon fill="#005695" points="174.643,77.308 161.222,78.431 172.282,70.747 					"/>
				</g>
			</g>
		</g>
		<g>
			<g>
				
					<line fill="none" stroke="#005695" stroke-width="2" stroke-linecap="round" stroke-linejoin="round" x1="171.771" y1="147.926" x2="206.31" y2="152.239"/>
				<g>
					<polygon fill="#005695" points="173.698,151.68 161.222,146.608 174.562,144.761 					"/>
				</g>
			</g>
		</g>
		<g>
			<g>
				
					<line fill="none" stroke="#005695" stroke-width="2" stroke-linecap="round" stroke-linejoin="round" x1="171.853" y1="84.695" x2="206.31" y2="84.695"/>
				<g>
					<polygon fill="#005695" points="174.23,88.182 161.222,84.695 174.23,81.209 					"/>
				</g>
			</g>
		</g>
		<g>
			<g>
				
					<line fill="none" stroke="#005695" stroke-width="2" stroke-linecap="round" stroke-linejoin="round" x1="171.329" y1="95.775" x2="206.31" y2="107.181"/>
				<g>
					<polygon fill="#005695" points="172.509,99.827 161.222,92.479 174.67,93.198 					"/>
				</g>
			</g>
		</g>
		
			<rect x="206.31" y="50.968" fill="#B2CEE7" stroke="#010101" stroke-width="0.75" stroke-linecap="round" stroke-linejoin="round" stroke-miterlimit="1" width="98.999" height="22.485"/>
		<g>
			<text transform="matrix(1 0 0 1 243.3076 64.6602)" font-size="9">Item 1</text>
		</g>
		<g>
			<text transform="matrix(1 0 0 1 199.8145 28.4556)"><tspan x="0" y="0" font-size="8">Volumentric Presentation State</tspan><tspan x="27.117" y="9.6" font-size="8">Input Sequence</tspan><tspan x="33.568" y="19.2" font-size="8">(0070,1201)</tspan></text>
		</g>
		
			<rect x="206.31" y="73.453" fill="#B2CEE7" stroke="#010101" stroke-width="0.75" stroke-linecap="round" stroke-linejoin="round" stroke-miterlimit="1" width="98.999" height="22.485"/>
		<g>
			<text transform="matrix(1 0 0 1 243.3066 87.1455)" font-size="9">Item 2</text>
		</g>
		
			<rect x="206.31" y="95.938" fill="#B2CEE7" stroke="#010101" stroke-width="0.75" stroke-linecap="round" stroke-linejoin="round" stroke-miterlimit="1" width="98.999" height="22.485"/>
		<g>
			<text transform="matrix(1 0 0 1 243.3066 109.6309)" font-size="9">Item 3</text>
		</g>
		
			<rect x="206.31" y="118.424" fill="#B2CEE7" stroke="#010101" stroke-width="0.75" stroke-linecap="round" stroke-linejoin="round" stroke-miterlimit="1" width="98.999" height="22.485"/>
		<g>
			<text transform="matrix(1 0 0 1 243.3066 132.1162)" font-size="9">Item 4</text>
		</g>
		
			<rect x="206.31" y="140.909" fill="#B2CEE7" stroke="#010101" stroke-width="0.75" stroke-linecap="round" stroke-linejoin="round" stroke-miterlimit="1" width="98.999" height="22.485"/>
		<g>
			<text transform="matrix(1 0 0 1 243.3066 154.6016)" font-size="9">Item 5</text>
		</g>
		<g>
			<g>
				<g>
					<polyline fill="none" stroke="#000000" stroke-miterlimit="10" points="305.309,152.151 336.505,152.151 336.505,561.311 
						463.81,561.309 463.81,552.893 					"/>
					<g>
						<polygon points="466.134,554.478 463.81,545.805 461.485,554.478 						"/>
					</g>
				</g>
			</g>
		</g>
		<g>
			<g>
				<g>
					<polyline fill="none" stroke="#000000" stroke-miterlimit="10" points="305.309,128.956 342.552,128.956 342.552,485.708 
						463.81,485.706 463.81,477.29 					"/>
					<g>
						<polygon points="466.134,478.875 463.81,470.202 461.485,478.875 						"/>
					</g>
				</g>
			</g>
		</g>
		<g>
			<g>
				<g>
					<polyline fill="none" stroke="#000000" stroke-miterlimit="10" points="305.309,107.406 348.599,107.406 348.599,389.938 
						463.81,389.937 463.81,381.521 					"/>
					<g>
						<polygon points="466.134,383.105 463.81,374.433 461.485,383.105 						"/>
					</g>
				</g>
			</g>
		</g>
		<g>
			<g>
				<g>
					<polyline fill="none" stroke="#000000" stroke-miterlimit="10" points="305.309,85.234 354.646,85.234 354.646,337.223 
						463.81,337.221 463.81,328.805 					"/>
					<g>
						<polygon points="466.134,330.39 463.81,321.717 461.485,330.39 						"/>
					</g>
				</g>
			</g>
		</g>
		<g>
			<g>
				<g>
					<polyline fill="none" stroke="#000000" stroke-miterlimit="10" points="305.309,62.055 360.692,62.055 360.692,261.62 
						463.81,261.618 463.81,253.202 					"/>
					<g>
						<polygon points="466.134,254.787 463.81,246.114 461.485,254.787 						"/>
					</g>
				</g>
			</g>
		</g>
		<polyline fill="#FFFFFF" stroke="#005695" stroke-linejoin="round" points="321.685,230.557 437.386,230.557 437.386,224.748 
			448.072,234.747 437.386,244.748 437.386,238.412 321.685,238.412 		"/>
		<g>
			<text transform="matrix(1 0 0 1 396.707 236.417)" font-size="6">Volume 1 Input</text>
		</g>
		<polyline fill="#FFFFFF" stroke="#005695" stroke-linejoin="round" points="321.685,306.163 437.386,306.163 437.386,300.354 
			448.072,310.354 437.386,320.354 437.386,314.019 321.685,314.019 		"/>
		<g>
			<text transform="matrix(1 0 0 1 396.707 312.0195)" font-size="6">Volume 1 Input</text>
		</g>
		<polyline fill="#FFFFFF" stroke="#005695" stroke-linejoin="round" points="321.685,454.642 437.386,454.642 437.386,448.833 
			448.072,458.831 437.386,468.833 437.386,462.497 321.685,462.497 		"/>
		<g>
			<text transform="matrix(1 0 0 1 396.707 460.5049)" font-size="6">Volume 2 Input</text>
		</g>
		<polyline fill="#FFFFFF" stroke="#005695" stroke-linejoin="round" points="321.685,530.247 437.386,530.247 437.386,524.438 
			448.072,534.438 437.386,544.438 437.386,538.103 321.685,538.103 		"/>
		<g>
			<text transform="matrix(1 0 0 1 396.707 536.1074)" font-size="6">Volume 2 Input</text>
		</g>
		<polyline fill="#FFFFFF" stroke="#005695" stroke-linejoin="round" points="321.685,358.879 437.386,358.879 437.386,353.07 
			448.072,363.069 437.386,373.07 437.386,366.734 321.685,366.734 		"/>
		<g>
			<text transform="matrix(1 0 0 1 396.707 364.7354)" font-size="6">Volume 1 Input</text>
		</g>
		<g>
			
				<rect x="196.673" y="426.697" fill="#CCDEF0" stroke="#010101" stroke-width="0.7882" stroke-linecap="round" stroke-linejoin="round" stroke-miterlimit="1" width="125" height="149.109"/>
			<g>
				<g>
					
						<rect x="239.213" y="471.252" fill="#86B2D8" stroke="#010101" stroke-width="0.75" stroke-linecap="round" stroke-linejoin="round" stroke-miterlimit="1" width="49.958" height="49.96"/>
					
						<rect x="238.103" y="472.362" fill="#86B2D8" stroke="#010101" stroke-width="0.75" stroke-linecap="round" stroke-linejoin="round" stroke-miterlimit="1" width="49.96" height="49.961"/>
					
						<rect x="236.992" y="473.473" fill="#86B2D8" stroke="#010101" stroke-width="0.75" stroke-linecap="round" stroke-linejoin="round" stroke-miterlimit="1" width="49.961" height="49.961"/>
					
						<rect x="235.882" y="474.583" fill="#86B2D8" stroke="#010101" stroke-width="0.75" stroke-linecap="round" stroke-linejoin="round" stroke-miterlimit="1" width="49.961" height="49.961"/>
					
						<rect x="234.771" y="475.692" fill="#86B2D8" stroke="#010101" stroke-width="0.75" stroke-linecap="round" stroke-linejoin="round" stroke-miterlimit="1" width="49.961" height="49.963"/>
					
						<rect x="233.616" y="476.849" fill="#86B2D8" stroke="#010101" stroke-width="0.75" stroke-linecap="round" stroke-linejoin="round" stroke-miterlimit="1" width="49.958" height="49.963"/>
					
						<rect x="232.506" y="477.959" fill="#86B2D8" stroke="#010101" stroke-width="0.75" stroke-linecap="round" stroke-linejoin="round" stroke-miterlimit="1" width="49.96" height="49.962"/>
					
						<rect x="231.396" y="479.069" fill="#86B2D8" stroke="#010101" stroke-width="0.75" stroke-linecap="round" stroke-linejoin="round" stroke-miterlimit="1" width="49.961" height="49.962"/>
					
						<rect x="230.285" y="480.18" fill="#86B2D8" stroke="#010101" stroke-width="0.75" stroke-linecap="round" stroke-linejoin="round" stroke-miterlimit="1" width="49.961" height="49.962"/>
					
						<rect x="229.175" y="481.289" fill="#86B2D8" stroke="#010101" stroke-width="0.75" stroke-linecap="round" stroke-linejoin="round" stroke-miterlimit="1" width="49.961" height="49.963"/>
				</g>
				<g>
					<text transform="matrix(1 0 0 1 235.395 506.8574)" font-size="8.8818">Volume 2</text>
				</g>
			</g>
		</g>
		<g>
			
				<rect x="196.673" y="196.651" fill="#CCDEF0" stroke="#010101" stroke-width="0.7767" stroke-linecap="round" stroke-linejoin="round" stroke-miterlimit="1" width="125" height="209.109"/>
			<g>
				<g>
					
						<rect x="239.213" y="271.206" fill="#86B2D8" stroke="#010101" stroke-width="0.75" stroke-linecap="round" stroke-linejoin="round" stroke-miterlimit="1" width="49.958" height="49.96"/>
					
						<rect x="238.103" y="272.316" fill="#86B2D8" stroke="#010101" stroke-width="0.75" stroke-linecap="round" stroke-linejoin="round" stroke-miterlimit="1" width="49.96" height="49.961"/>
					
						<rect x="236.992" y="273.427" fill="#86B2D8" stroke="#010101" stroke-width="0.75" stroke-linecap="round" stroke-linejoin="round" stroke-miterlimit="1" width="49.961" height="49.961"/>
					
						<rect x="235.882" y="274.536" fill="#86B2D8" stroke="#010101" stroke-width="0.75" stroke-linecap="round" stroke-linejoin="round" stroke-miterlimit="1" width="49.961" height="49.962"/>
					
						<rect x="234.771" y="275.646" fill="#86B2D8" stroke="#010101" stroke-width="0.75" stroke-linecap="round" stroke-linejoin="round" stroke-miterlimit="1" width="49.961" height="49.963"/>
					
						<rect x="233.616" y="276.803" fill="#86B2D8" stroke="#010101" stroke-width="0.75" stroke-linecap="round" stroke-linejoin="round" stroke-miterlimit="1" width="49.958" height="49.962"/>
					
						<rect x="232.506" y="277.913" fill="#86B2D8" stroke="#010101" stroke-width="0.75" stroke-linecap="round" stroke-linejoin="round" stroke-miterlimit="1" width="49.96" height="49.962"/>
					
						<rect x="231.396" y="279.023" fill="#86B2D8" stroke="#010101" stroke-width="0.75" stroke-linecap="round" stroke-linejoin="round" stroke-miterlimit="1" width="49.961" height="49.962"/>
					
						<rect x="230.285" y="280.133" fill="#86B2D8" stroke="#010101" stroke-width="0.75" stroke-linecap="round" stroke-linejoin="round" stroke-miterlimit="1" width="49.961" height="49.963"/>
					
						<rect x="229.175" y="281.243" fill="#86B2D8" stroke="#010101" stroke-width="0.75" stroke-linecap="round" stroke-linejoin="round" stroke-miterlimit="1" width="49.961" height="49.963"/>
				</g>
				<g>
					<text transform="matrix(1 0 0 1 235.395 306.8105)" font-size="8.8818">Volume 1</text>
				</g>
			</g>
		</g>
		<g>
			<g>
				<path fill="none" stroke="#ED1C24" stroke-width="1.9694" stroke-linecap="round" stroke-linejoin="round" d="M60.408,84.415
					H35.9c-7.92,0-14.399,4.892-14.399,10.872v198.956c0,5.979,6.479,10.872,14.399,10.872h177.146"/>
				<g>
					<polygon fill="#ED1C24" points="209.925,309.691 227.005,305.114 209.925,300.537 					"/>
				</g>
			</g>
		</g>
		<g>
			<g>
				<path fill="none" stroke="#0DB14B" stroke-width="1.9808" stroke-linecap="round" stroke-linejoin="round" d="M59.971,141.073
					H45.98c-7.548,0-13.724,8.047-13.724,17.881v327.215c0,9.835,6.176,17.882,13.724,17.882h166.985"/>
				<g>
					<polygon fill="#0DB14B" points="209.826,508.654 227.005,504.051 209.826,499.447 					"/>
				</g>
			</g>
		</g>
	</g>
</g>
</svg>
