<?xml version="1.0" encoding="utf-8"?>

<svg version="1.1" id="Layer_1" xmlns="http://www.w3.org/2000/svg" xmlns:xlink="http://www.w3.org/1999/xlink" x="0px" y="0px"
	 viewBox="0 0 542 227" enable-background="new 0 0 542 227" xml:space="preserve">

<defs>
	<style type="text/css">
	text {
	  font-family: Helvetica, Verdana, ArialUnicodeMS, san-serif
	}
	</style>
</defs>

<g>
   <desc>
	PS 3.3 Part 3: Information Object Definitions
   </desc>
</g>

<g>
	<rect x="1" y="1" fill="#F2EDD6" width="540" height="225"/>
	<g>
		<text transform="matrix(0.8999 0 0 1 364.4113 198.5248)" font-size="11px">Base Beam Modifier Definition Plane</text>
		
			<line fill="none" stroke="#000000" stroke-width="2" stroke-linecap="round" x1="136.501" y1="195.525" x2="359.479" y2="195.525"/>
		
			<text transform="matrix(0.8999 -0.0019 0.0017 1 231.4572 28.8167)" fill="#00AEEF" font-size="14px">+Z</text>
		<text transform="matrix(0.8999 0 0 1 290.5563 79.3781)" font-size="11px">Nominal Device Source Location</text>
		<g>
			<text transform="matrix(0.8999 0 0 1 50.4846 110.8695)"><tspan x="0" y="0" font-size="11px">RT Beam Limiting</tspan><tspan x="-37.903" y="13.2" font-size="11px">Device Proximal Distance</tspan><tspan x="26.871" y="26.4" font-size="11px">(300A,0642)</tspan><tspan x="0" y="51.6" font-size="11px">RT Beam Limiting</tspan><tspan x="-22.623" y="64.8" font-size="11px">Device Distal Distance</tspan><tspan x="26.871" y="78" font-size="11px">(300A,0643)</tspan></text>
		</g>
		<g>
			<g>
				
					<line fill="none" stroke="#00AEEF" stroke-width="2" stroke-linecap="round" x1="238.894" y1="195.032" x2="238.795" y2="44.999"/>
				<g>
					<polygon fill="#00AEEF" points="242.864,47.77 238.787,32.596 234.73,47.775 					"/>
				</g>
			</g>
		</g>
		<g>
			<circle cx="238.877" cy="76.128" r="6"/>
			<path fill="#FEDA00" d="M241.758,71.496c-2.491-1.478-5.805-0.611-7.393,1.943c-1.59,2.56-0.855,5.833,1.642,7.321
				c2.489,1.478,5.803,0.608,7.382-1.956C244.977,76.244,244.25,72.979,241.758,71.496z"/>
			<path d="M239.059,75.654c0.245,0.143,0.31,0.47,0.153,0.731c-0.16,0.258-0.491,0.343-0.739,0.197
				c-0.237-0.138-0.312-0.468-0.147-0.729C238.483,75.595,238.812,75.508,239.059,75.654z"/>
			<path d="M239.425,77.283c-0.419,0.243-0.937,0.268-1.368,0.008c-0.032-0.018-0.061-0.036-0.091-0.059l-1.763,2.838
				c0.031,0.018,0.064,0.039,0.093,0.056c1.452,0.862,3.216,0.806,4.634,0.005L239.425,77.283z"/>
			<path d="M240.115,76.173c0.027-0.473-0.195-0.944-0.625-1.197c-0.027-0.018-0.061-0.036-0.097-0.054l1.764-2.833
				c0.033,0.015,0.064,0.033,0.096,0.054c1.451,0.867,2.212,2.421,2.137,4.022L240.115,76.173z"/>
			<path d="M237.423,76.227c0.027-0.471,0.24-0.979,0.699-1.24c0.035-0.02,0.069-0.038,0.107-0.051l-1.45-2.805
				c-0.037,0.016-0.072,0.036-0.106,0.056c-1.541,0.898-2.388,2.524-2.492,4.127L237.423,76.227z"/>
		</g>
		<g>
			<g>
				<polyline fill="none" stroke="#000000" stroke-miterlimit="1" points="132.831,107.336 139.707,107.336 146.598,125.71 
					153.292,125.71 				"/>
				<g>
					<polygon points="152.103,127.453 158.607,125.71 152.103,123.966 					"/>
				</g>
			</g>
		</g>
		<g>
			<g>
				<polyline fill="none" stroke="#000000" stroke-miterlimit="1" points="132.831,160.176 139.707,160.176 146.598,139.903 
					153.292,139.903 				"/>
				<g>
					<polygon points="152.103,141.646 158.607,139.903 152.103,138.16 					"/>
				</g>
			</g>
		</g>
		
			<line fill="none" stroke="#000000" stroke-width="0.75" stroke-linecap="round" stroke-miterlimit="1" stroke-dasharray="4,4" x1="193.7" y1="210.625" x2="193.7" y2="67.548"/>
		
			<line fill="none" stroke="#000000" stroke-width="0.75" stroke-miterlimit="1" x1="160.444" y1="76.107" x2="231.457" y2="76.107"/>
		<g>
			<g>
				
					<line fill="none" stroke="#005695" stroke-width="3" stroke-linecap="round" stroke-miterlimit="1" x1="193.7" y1="127.126" x2="193.7" y2="88.067"/>
				<g>
					<polygon fill="#005695" points="197.622,124.451 193.7,139.087 189.778,124.451 					"/>
				</g>
				<g>
					<polygon fill="#005695" points="197.622,90.742 193.7,76.107 189.778,90.742 					"/>
				</g>
			</g>
		</g>
		
			<line fill="none" stroke="#000000" stroke-width="0.75" stroke-linecap="round" stroke-miterlimit="1" stroke-dasharray="4,4" x1="173.2" y1="210.625" x2="173.2" y2="67.548"/>
		<g>
			<g>
				
					<line fill="none" stroke="#005695" stroke-width="3" stroke-linecap="round" stroke-miterlimit="1" x1="173.2" y1="113.749" x2="173.2" y2="88.067"/>
				<g>
					<polygon fill="#005695" points="177.122,111.074 173.2,125.71 169.278,111.074 					"/>
				</g>
				<g>
					<polygon fill="#005695" points="177.122,90.742 173.2,76.107 169.278,90.742 					"/>
				</g>
			</g>
		</g>
		<g>
			<g>
				<line fill="none" stroke="#000000" stroke-miterlimit="1" x1="287.306" y1="76.107" x2="249.47" y2="76.107"/>
				<g>
					<polygon points="250.659,74.364 244.154,76.107 250.659,77.85 					"/>
				</g>
			</g>
		</g>
		
			<line fill="none" stroke="#000000" stroke-width="0.75" stroke-miterlimit="1" x1="214.399" y1="125.713" x2="160.229" y2="125.713"/>
		
			<line fill="none" stroke="#000000" stroke-width="0.75" stroke-miterlimit="1" x1="214.616" y1="139.903" x2="160.444" y2="139.903"/>
		
			<line fill="#808285" stroke="#939598" stroke-width="0.5" stroke-linecap="round" stroke-miterlimit="1" stroke-dasharray="4,4" x1="216.939" y1="100.417" x2="216.939" y2="208.034"/>
		
			<line fill="#808285" stroke="#939598" stroke-width="0.5" stroke-linecap="round" stroke-miterlimit="1" stroke-dasharray="4,4" x1="330.064" y1="100.156" x2="330.064" y2="207.779"/>
		
			<rect x="216.939" y="125.709" fill-rule="evenodd" clip-rule="evenodd" fill="#CCDEF0" stroke="#000000" stroke-miterlimit="1" width="113.135" height="14.194"/>
	</g>
</g>
</svg>
