<?xml version="1.0" encoding="utf-8"?>

<!DOCTYPE svg PUBLIC "-//W3C//DTD SVG 1.1//EN" "http://www.w3.org/Graphics/SVG/1.1/DTD/svg11.dtd">
<svg version="1.1" id="Layer_1" xmlns="http://www.w3.org/2000/svg" xmlns:xlink="http://www.w3.org/1999/xlink" x="0px" y="0px"
	 width="502px" height="567px" viewBox="0 0 502 567" enable-background="new 0 0 502 567" xml:space="preserve">
    
<defs>
	<style type="text/css">
	text {
	  font-family: Helvetica, Verdana, ArialUnicodeMS, san-serif
	}
	</style>
</defs>

<g>
   <desc>
	PS 3.3 Part 3: Information Object Definitions
   </desc>
</g>

<g>
	<rect x="1" y="1" fill="#F5EED6" width="500" height="565"/>
	<g>
		<path fill="#B2CEE7" d="M444.083,504.743c0,2.178-2.238,3.944-5,3.944H139.078c-2.761,0-5-1.767-5-3.944V82.633
			c0-2.179,2.239-3.945,5-3.945h300.005c2.762,0,5,1.767,5,3.945V504.743z"/>
		<rect x="166.578" y="37.341" fill="#4F8ABE" width="245.005" height="512.693"/>
		
			<rect x="181.578" y="53.688" fill="#FFFFFF" stroke="#000000" stroke-width="1.1649" stroke-miterlimit="10" width="215.005" height="480"/>
		<g>
			<g>
				<g>
					<g>
						<g>
							<path fill="#E6E6E6" stroke="#000000" stroke-width="0.3075" stroke-linejoin="round" stroke-miterlimit="10" d="
								M288.682,140.217c4.484-5.083,7.117-13.344,7.074-21.484l-0.002-0.03c0.186-13.369-14.105-25.75-13.57-41.727
								c0.096-2.905,2.758-7.89,2.969-7.563c0.211,0.322-1.366,2.942-1.779,6.055c-1.475,11.119,16.406,23.511,16.406,45.949v0.035
								c0,12.211-4.08,21.706-11.211,26.207c0,0,0.149-1.181,0.149-3.385v-0.031C288.718,142.911,288.682,140.217,288.682,140.217z"
								/>
						</g>
					</g>
					<g>
						<path fill="#999999" d="M283.496,86.017c0,0,4.877,10.618,7.873,15.599c3.104,5.156,5.182,11.08,5.307,16.786
							c0.291,8.615-2.283,17.842-7.837,24.655l-0.135-2.592c2.452-3.008,7.2-10.212,7.2-21.952c0-6.049-3.508-13.219-6.863-19.708
							c-0.16-0.311-1.973-3.657-3.346-6.867C284.242,88.539,283.496,86.017,283.496,86.017z"/>
					</g>
				</g>
				<path fill="#E6E6E6" stroke="#000000" stroke-width="0.4724" stroke-miterlimit="10" d="M289.303,277.478
					c-11.873,0-23.105-25.154-32.961-48.314c-18.886-44.381,1.416-91.595,32.961-91.595h0.039c31.543,0,51.846,47.214,32.961,91.595
					c-9.855,23.16-21.09,48.314-32.961,48.314H289.303z"/>
				<path fill="#999999" d="M289.548,277.21c-7.874,0-17.522-11.131-25.843-33.082c-6.642-17.52-8.408-34.975-8.848-37.854
					c0,0,3.473,23.217,11.602,40.188c4.323,9.029,13.577,27.533,23.089,27.533c9.513,0,18.87-19.139,22.712-28.373
					c9.398-22.594,11.229-39.348,11.229-39.348c-0.611,4.033-2.24,21.984-8.684,37.842
					C306.111,265.511,297.42,277.21,289.548,277.21z"/>
				<path fill="#FFFFFF" stroke="#000000" stroke-width="0.4227" stroke-miterlimit="10" d="M266.749,244.843
					c-5.886-0.754-10.384-4.842-10.384-9.766c0-5.465,5.53-9.895,12.355-9.895c6.822,0,12.354,4.43,12.354,9.895"/>
				<path fill="#B3B3B3" stroke="#BCBEC0" stroke-width="0.4227" stroke-miterlimit="10" d="M257.783,237.079
					c-1.863,0,1.26-10.814,10.475-10.814c7.126,0,12.363,6.209,10.605,6.508c-1.486,0.252-3.479-2.562-11.479-1.365
					C259.494,232.589,259.129,237.079,257.783,237.079z"/>
				<path fill="#FFFFFF" stroke="#000000" stroke-width="0.4227" stroke-miterlimit="10" d="M312.373,244.843
					c5.889-0.754,10.387-4.842,10.387-9.766c0-5.465-5.531-9.895-12.355-9.895c-6.822,0-12.354,4.43-12.354,9.895"/>
				<path fill="#B3B3B3" stroke="#BCBEC0" stroke-width="0.4227" stroke-miterlimit="10" d="M321.34,237.079
					c1.863,0-1.258-10.814-10.475-10.814c-7.125,0-12.363,6.209-10.604,6.508c1.486,0.252,3.479-2.562,11.479-1.365
					C319.629,232.589,319.994,237.079,321.34,237.079z"/>
				<circle stroke="#000000" stroke-width="0.4724" stroke-miterlimit="10" cx="280.602" cy="255.093" r="3.874"/>
				
					<ellipse fill="#FFFFFF" stroke="#000000" stroke-width="0.4724" stroke-miterlimit="10" cx="280.602" cy="256.942" rx="1.17" ry="1.678"/>
				<circle stroke="#000000" stroke-width="0.4724" stroke-miterlimit="10" cx="296.223" cy="255.093" r="3.873"/>
				
					<ellipse fill="#FFFFFF" stroke="#000000" stroke-width="0.4724" stroke-miterlimit="10" cx="296.223" cy="256.942" rx="1.17" ry="1.678"/>
				<path stroke="#000000" stroke-width="0.4724" stroke-miterlimit="10" d="M288.938,276.257c2.26,0,3.52-1.646,4.047-3.029
					c1.396-3.656,2.207-5.154-4.047-5.154c-6.256,0-5.443,1.498-4.049,5.154C285.42,274.61,286.678,276.257,288.938,276.257z"/>
				<path fill="none" stroke="#000000" stroke-width="0.4724" stroke-miterlimit="10" d="M256.752,283.628
					c2.688-10.74,8.818-13.75,15.975-13.75c2.66,0,5.449,0.836,8.095,2.303"/>
				<path fill="none" stroke="#000000" stroke-width="0.4724" stroke-miterlimit="10" d="M244.852,276.554
					c3.604-4.84,10.256-8.531,18.192-9.473c6.725-0.799,13.017,0.541,17.601,3.318"/>
				<path fill="none" stroke="#000000" stroke-width="0.4724" stroke-miterlimit="10" d="M278.473,266.929
					c-4.424-2.77-12.18-4.605-21.011-4.605c-7.306,0-13.878,1.258-18.435,3.26"/>
				<path fill="none" stroke="#000000" stroke-width="0.4724" stroke-miterlimit="10" d="M321.305,283.628
					c-2.689-10.74-8.818-13.75-15.977-13.75c-2.658,0-5.449,0.836-8.094,2.303"/>
				<path fill="none" stroke="#000000" stroke-width="0.4724" stroke-miterlimit="10" d="M333.203,276.554
					c-3.602-4.84-10.256-8.531-18.189-9.473c-6.727-0.799-13.02,0.541-17.604,3.318"/>
				<path fill="none" stroke="#000000" stroke-width="0.4724" stroke-miterlimit="10" d="M299.582,266.929
					c4.424-2.77,12.182-4.605,21.012-4.605c7.307,0,13.877,1.258,18.434,3.26"/>
				<path fill="#999999" d="M252.535,204.454c6.163-2.031,10.391-18.467,9.596-38.238l-0.111-0.025
					c-1.28,20.186-6.066,36.246-10.689,35.873C251.33,202.063,252.164,204.577,252.535,204.454"/>
				<path fill="#999999" d="M324.967,204.454c-6.164-2.031-10.393-18.467-9.598-38.238l0.109-0.025
					c1.285,20.186,6.068,36.246,10.691,35.873C326.17,202.063,325.338,204.577,324.967,204.454"/>
			</g>
			<g>
				<g>
					<g>
						<g>
							<path fill="#D6A477" stroke="#000000" stroke-width="0.1294" stroke-miterlimit="10" d="M289.373,447.158
								c-4.486,5.084-7.117,13.344-7.074,21.486v0.029c-0.186,13.371,14.107,25.75,13.572,41.727
								c-0.096,2.904-2.756,7.889-2.969,7.562c-0.211-0.322,1.365-2.941,1.777-6.055c1.475-11.119-16.404-23.51-16.404-45.949
								v-0.035c0-12.211,4.08-21.705,11.211-26.207c0,0-0.15,1.182-0.15,3.385v0.031
								C289.336,444.465,289.373,447.158,289.373,447.158z"/>
						</g>
					</g>
					<g>
						<path fill="#977348" d="M294.561,501.359c0,0-4.879-10.619-7.875-15.6c-3.102-5.156-5.182-11.08-5.307-16.787
							c-0.291-8.613,2.283-17.84,7.836-24.654l0.135,2.592c-2.451,3.008-7.199,10.213-7.199,21.951
							c0,6.051,3.508,13.221,6.863,19.709c0.16,0.311,1.973,3.658,3.346,6.867C293.812,498.836,294.561,501.359,294.561,501.359z"/>
					</g>
				</g>
				<path fill="#D6A477" stroke="#000000" stroke-width="0.1294" stroke-miterlimit="10" d="M288.752,309.895
					c11.873,0,23.105,25.156,32.961,48.316c18.885,44.382-1.418,91.598-32.961,91.598h-0.039c-31.545,0-51.846-47.216-32.961-91.598
					c9.855-23.16,21.09-48.316,32.961-48.316H288.752z"/>
				<path fill="#977348" d="M288.506,310.164c7.875,0,17.523,11.131,25.844,33.084c6.643,17.518,8.408,34.973,8.846,37.852
					c0,0-3.469-23.217-11.6-40.189c-4.324-9.027-13.578-27.531-23.09-27.531s-18.869,19.139-22.711,28.373
					c-9.398,22.595-11.229,39.348-11.229,39.348c0.611-4.033,2.24-21.986,8.684-37.841
					C271.943,321.863,280.635,310.164,288.506,310.164z"/>
				<path fill="#ECBFA6" stroke="#000000" stroke-width="0.1294" stroke-miterlimit="10" d="M311.305,342.531
					c5.887,0.754,10.385,4.842,10.385,9.766c0,5.465-5.529,9.893-12.355,9.893c-6.822,0-12.354-4.428-12.354-9.893"/>
				<path fill="#977348" d="M320.271,350.295c1.863,0-1.26,10.815-10.477,10.815c-7.123,0-12.361-6.21-10.604-6.509
					c1.484-0.252,3.48,2.563,11.48,1.365C318.561,354.785,318.926,350.295,320.271,350.295z"/>
				<path fill="#ECBFA6" stroke="#000000" stroke-width="0.1294" stroke-miterlimit="10" d="M265.68,342.531
					c-5.887,0.754-10.385,4.842-10.385,9.766c0,5.465,5.531,9.893,12.354,9.893c6.824,0,12.355-4.428,12.355-9.893"/>
				<path fill="#977348" d="M256.713,350.295c-1.861,0,1.26,10.815,10.475,10.815c7.127,0,12.363-6.21,10.605-6.509
					c-1.486-0.252-3.479,2.563-11.479,1.365C258.426,354.785,258.061,350.295,256.713,350.295z"/>
				<circle stroke="#000000" stroke-width="0.4724" stroke-miterlimit="10" cx="297.453" cy="332.282" r="3.873"/>
				
					<ellipse fill="#FFFFFF" stroke="#000000" stroke-width="0.4724" stroke-miterlimit="10" cx="297.452" cy="330.432" rx="1.171" ry="1.679"/>
				<circle stroke="#000000" stroke-width="0.4724" stroke-miterlimit="10" cx="281.831" cy="332.282" r="3.872"/>
				
					<ellipse fill="#FFFFFF" stroke="#000000" stroke-width="0.4724" stroke-miterlimit="10" cx="281.832" cy="330.432" rx="1.17" ry="1.679"/>
				<path stroke="#000000" stroke-width="0.4724" stroke-miterlimit="10" d="M289.117,311.117c-2.26,0-3.52,1.646-4.049,3.03
					c-1.395,3.655-2.207,5.153,4.049,5.153c6.254,0,5.443-1.498,4.047-5.153C292.637,312.764,291.377,311.117,289.117,311.117z"/>
				<path fill="none" stroke="#000000" stroke-width="0.4724" stroke-miterlimit="10" d="M321.303,303.746
					c-2.689,10.741-8.818,13.75-15.975,13.75c-2.66,0-5.449-0.835-8.096-2.303"/>
				<path fill="none" stroke="#000000" stroke-width="0.4724" stroke-miterlimit="10" d="M333.203,310.821
					c-3.604,4.839-10.256,8.531-18.193,9.473c-6.725,0.798-13.016-0.541-17.6-3.319"/>
				<path fill="none" stroke="#000000" stroke-width="0.4724" stroke-miterlimit="10" d="M299.582,320.445
					c4.424,2.77,12.18,4.605,21.01,4.605c7.307,0,13.879-1.258,18.436-3.26"/>
				<path fill="none" stroke="#000000" stroke-width="0.4724" stroke-miterlimit="10" d="M256.75,303.746
					c2.689,10.741,8.818,13.75,15.975,13.75c2.658,0,5.449-0.835,8.096-2.303"/>
				<path fill="none" stroke="#000000" stroke-width="0.4724" stroke-miterlimit="10" d="M244.851,310.821
					c3.602,4.839,10.257,8.531,18.19,9.473c6.725,0.798,13.018-0.541,17.604-3.319"/>
				<path fill="none" stroke="#000000" stroke-width="0.4724" stroke-miterlimit="10" d="M278.473,320.445
					c-4.424,2.77-12.182,4.605-21.012,4.605c-7.306,0-13.878-1.258-18.434-3.26"/>
				<path fill="#977348" d="M325.52,382.92c-6.164,2.031-10.393,18.468-9.596,38.238l0.111,0.025
					c1.279-20.186,6.066-36.246,10.689-35.873C326.725,385.311,325.891,382.797,325.52,382.92"/>
				<path fill="#977348" d="M253.088,382.92c6.162,2.031,10.393,18.468,9.598,38.238l-0.111,0.025
					c-1.283-20.186-6.068-36.246-10.69-35.873C251.884,385.311,252.717,382.797,253.088,382.92"/>
			</g>
		</g>
		<g>
			<text transform="matrix(1 0 0 1 134.0278 26.7163)" font-size="11">View from top of gantry</text>
		</g>
		<g>
			<text transform="matrix(1 0 0 1 66.5356 88.4385)" font-size="11">Gantry Rear</text>
		</g>
		<g>
			<text transform="matrix(1 0 0 1 57.9175 505.0625)" font-size="11">Gantry Front</text>
		</g>
		<g>
			<g>
				<text transform="matrix(1 0 0 1 274.5713 172.3452)"><tspan x="0" y="0" font-size="13">1\1\2</tspan><tspan x="4.36" y="25.867" font-size="13">FFP</tspan></text>
			</g>
			<g>
				<text transform="matrix(1 0 0 1 274.5713 395.5742)"><tspan x="0" y="0" font-size="13">1\1\1</tspan><tspan x="2.913" y="25.866" font-size="13">HFP</tspan></text>
			</g>
		</g>
		<rect x="165.579" y="78.803" opacity="0.4" fill="#B2CEE7" width="246.614" height="430.512"/>
	</g>
</g>
</svg>
