<?xml version="1.0" encoding="utf-8"?>

<!DOCTYPE svg PUBLIC "-//W3C//DTD SVG 1.1//EN" "http://www.w3.org/Graphics/SVG/1.1/DTD/svg11.dtd">
<svg version="1.1" id="Layer_1" xmlns="http://www.w3.org/2000/svg" xmlns:xlink="http://www.w3.org/1999/xlink" x="0px" y="0px"
	 width="362px" height="197px" viewBox="0 0 362 197" enable-background="new 0 0 362 197" xml:space="preserve">
        
<defs>
	<style type="text/css">
	text {
	  font-family: Helvetica, Verdana, ArialUnicodeMS, san-serif
	}
	</style>
</defs>

<g>
   <desc>
	PS 3.3 Information Object Definitions
   </desc>
</g>

<g>
	<rect x="1" y="1" fill="#F5EED6" width="360" height="195"/>
	<g>
		<g>
			<text transform="matrix(1 0 0 1 80.3252 23.8359)" font-size="9">Input</text>
		</g>
		<g>
			<text transform="matrix(1 0 0 1 258.9121 23.8359)" font-size="9">Result</text>
		</g>
		
			<rect x="15.334" y="28.639" fill="#FFFFFF" stroke="#000000" stroke-width="0.5" stroke-miterlimit="10" width="150" height="150.002"/>
		
			<rect x="196.666" y="31.139" fill="#FFFFFF" stroke="#000000" stroke-width="0.5" stroke-miterlimit="10" width="150" height="150.002"/>
		<ellipse fill="#005695" stroke="#000000" stroke-width="0.5" stroke-miterlimit="10" cx="305.873" cy="103.639" rx="35" ry="50"/>
		<circle fill="#005695" stroke="#000000" stroke-width="0.5" stroke-miterlimit="10" cx="234.963" cy="103.639" r="30"/>
		<circle fill="none" stroke="#000000" stroke-width="0.5" stroke-miterlimit="10" cx="54.627" cy="103.639" r="30"/>
		<ellipse fill="none" stroke="#000000" stroke-width="0.5" stroke-miterlimit="10" cx="125.537" cy="103.639" rx="35" ry="50"/>
		<g>
			<text transform="matrix(1 0 0 1 32.8613 103.6367)"><tspan x="0" y="0" font-size="9">Right Lung</tspan><tspan x="16.266" y="11.801" font-size="9">(1)</tspan></text>
		</g>
		<g>
			<text transform="matrix(1 0 0 1 107.7773 103.6367)"><tspan x="0" y="0" font-size="9">Left Lung</tspan><tspan x="13.268" y="11.801" font-size="9">(2)</tspan></text>
		</g>
	</g>
</g>
</svg>
