<?xml version="1.0" encoding="utf-8"?>

<!DOCTYPE svg PUBLIC "-//W3C//DTD SVG 1.1//EN" "http://www.w3.org/Graphics/SVG/1.1/DTD/svg11.dtd">
<svg version="1.1" id="Layer_1" xmlns="http://www.w3.org/2000/svg" xmlns:xlink="http://www.w3.org/1999/xlink" x="0px" y="0px"
	 width="502px" height="322px" viewBox="0 0 502 322" enable-background="new 0 0 502 322" xml:space="preserve">
    
<defs>
	<style type="text/css">
	text {
	  font-family: Helvetica, Verdana, ArialUnicodeMS, san-serif
	}
	</style>
</defs>

<g>
   <desc>
	PS 3.3 Part 3: Information Object Definitions
   </desc>
</g>

<g>
	<rect x="1" y="1" fill="#F5EED6" width="500" height="320"/>
	<g>
		<g>
			<g>
				<polyline fill="none" stroke="#005695" stroke-width="2" stroke-linejoin="round" points="119.764,133.929 119.764,305.904 
					262.355,305.904 262.355,295.111 				"/>
				<g>
					<polygon fill="#005695" points="264.68,296.696 262.355,288.023 260.031,296.696 					"/>
				</g>
			</g>
		</g>
		<g>
			<g>
				
					<line fill="none" stroke="#005695" stroke-width="2" stroke-linejoin="round" x1="262.635" y1="260.715" x2="262.635" y2="249.803"/>
				<g>
					<polygon fill="#005695" points="264.959,251.388 262.635,242.715 260.311,251.388 					"/>
				</g>
			</g>
		</g>
		<g>
			<g>
				
					<line fill="none" stroke="#005695" stroke-width="2" stroke-linejoin="round" x1="346.562" y1="260.715" x2="346.562" y2="249.803"/>
				<g>
					<polygon fill="#005695" points="348.887,251.388 346.562,242.715 344.238,251.388 					"/>
				</g>
			</g>
		</g>
		<g>
			<g>
				
					<line fill="none" stroke="#005695" stroke-width="2" stroke-linejoin="round" x1="430.562" y1="260.715" x2="430.562" y2="249.803"/>
				<g>
					<polygon fill="#005695" points="432.887,251.388 430.562,242.715 428.238,251.388 					"/>
				</g>
			</g>
		</g>
		<g>
			<g>
				<polyline fill="none" stroke="#005695" stroke-width="2" stroke-linejoin="round" points="262.047,305.904 346.562,305.904 
					346.562,295.111 				"/>
				<g>
					<polygon fill="#005695" points="348.887,296.696 346.562,288.023 344.238,296.696 					"/>
				</g>
			</g>
		</g>
		<g>
			<g>
				<polyline fill="none" stroke="#005695" stroke-width="2" stroke-linejoin="round" points="347.129,305.904 430.562,305.904 
					430.562,295.111 				"/>
				<g>
					<polygon fill="#005695" points="432.887,296.696 430.562,288.023 428.238,296.696 					"/>
				</g>
			</g>
		</g>
		
			<polygon fill="#CCDEF0" stroke="#010101" stroke-width="0.75" stroke-linecap="round" stroke-linejoin="round" stroke-miterlimit="1" points="
			315.062,274.447 346.517,287.74 378.062,274.256 378.062,274.225 346.517,260.74 		"/>
		
			<polygon fill="#CCDEF0" stroke="#010101" stroke-width="0.75" stroke-linecap="round" stroke-linejoin="round" stroke-miterlimit="1" points="
			399.062,274.447 430.517,287.74 462.062,274.256 462.062,274.225 430.517,260.74 		"/>
		
			<polygon fill="#CCDEF0" stroke="#010101" stroke-width="0.75" stroke-linecap="round" stroke-linejoin="round" stroke-miterlimit="1" points="
			230.985,274.447 262.44,287.74 293.986,274.256 293.986,274.225 262.44,260.74 		"/>
		<g>
			<g>
				
					<line fill="none" stroke="#005695" stroke-width="2" stroke-linejoin="round" x1="262.635" y1="193.994" x2="262.635" y2="204.906"/>
				<g>
					<polygon fill="#005695" points="260.311,203.321 262.635,211.994 264.959,203.321 					"/>
				</g>
			</g>
		</g>
		
			<rect x="225.562" y="212.521" fill="#86B2D8" stroke="#010101" stroke-width="0.75" stroke-linecap="round" stroke-linejoin="round" stroke-miterlimit="1" width="74" height="29.906"/>
		<g>
			<text transform="matrix(1 0 0 1 244.2202 225.5859)"><tspan x="0" y="0" font-size="10">Protocol</tspan><tspan x="3.889" y="9.334" font-size="10">Codes</tspan></text>
		</g>
		<g>
			<g>
				
					<line fill="none" stroke="#005695" stroke-width="2" stroke-linejoin="round" x1="346.562" y1="193.994" x2="346.562" y2="204.906"/>
				<g>
					<polygon fill="#005695" points="344.238,203.321 346.562,211.994 348.887,203.321 					"/>
				</g>
			</g>
		</g>
		
			<rect x="309.562" y="212.521" fill="#86B2D8" stroke="#010101" stroke-width="0.75" stroke-linecap="round" stroke-linejoin="round" stroke-miterlimit="1" width="74" height="29.906"/>
		<g>
			<text transform="matrix(1 0 0 1 322.3877 225.5859)"><tspan x="0" y="0" font-size="10">Acquisition</tspan><tspan x="3.337" y="9.334" font-size="10">Elements</tspan></text>
		</g>
		<g>
			<g>
				
					<line fill="none" stroke="#005695" stroke-width="2" stroke-linejoin="round" x1="430.562" y1="193.994" x2="430.562" y2="204.906"/>
				<g>
					<polygon fill="#005695" points="428.238,203.321 430.562,211.994 432.887,203.321 					"/>
				</g>
			</g>
		</g>
		
			<rect x="393.562" y="212.521" fill="#86B2D8" stroke="#010101" stroke-width="0.75" stroke-linecap="round" stroke-linejoin="round" stroke-miterlimit="1" width="74" height="29.906"/>
		<g>
			<text transform="matrix(1 0 0 1 397.2129 225.5859)"><tspan x="0" y="0" font-size="10">Reconstruction</tspan><tspan x="12.508" y="9.334" font-size="10">Elements</tspan></text>
		</g>
		<g>
			<g>
				<polyline fill="none" stroke="#005695" stroke-width="2" stroke-linejoin="round" points="200.309,34.15 200.309,43.033 
					120.291,43.033 120.291,50.534 				"/>
				<g>
					<polygon fill="#005695" points="117.967,48.949 120.291,57.622 122.615,48.949 					"/>
				</g>
			</g>
		</g>
		<g>
			<g>
				<polyline fill="none" stroke="#005695" stroke-width="2" stroke-linejoin="round" points="200.355,34.15 200.355,43.033 
					260.433,43.033 260.433,50.534 				"/>
				<g>
					<polygon fill="#005695" points="258.108,48.949 260.433,57.622 262.757,48.949 					"/>
				</g>
			</g>
		</g>
		<g>
			<g>
				
					<line fill="none" stroke="#005695" stroke-width="2" stroke-linejoin="round" x1="262.48" y1="134.675" x2="262.48" y2="159.597"/>
				<g>
					<polygon fill="#005695" points="260.156,158.012 262.48,166.685 264.805,158.012 					"/>
				</g>
			</g>
		</g>
		<g>
			<g>
				<polyline fill="none" stroke="#005695" stroke-width="2" stroke-linejoin="round" points="262.047,148.804 346.562,148.804 
					346.562,159.598 				"/>
				<g>
					<polygon fill="#005695" points="344.238,158.013 346.562,166.686 348.887,158.013 					"/>
				</g>
			</g>
		</g>
		<g>
			<g>
				<polyline fill="none" stroke="#005695" stroke-width="2" stroke-linejoin="round" points="347.129,148.804 430.562,148.804 
					430.562,159.598 				"/>
				<g>
					<polygon fill="#005695" points="428.238,158.013 430.562,166.686 432.887,158.013 					"/>
				</g>
			</g>
		</g>
		
			<polygon fill="#CCDEF0" stroke="#010101" stroke-width="0.75" stroke-linecap="round" stroke-linejoin="round" stroke-miterlimit="1" points="
			315.062,180.262 346.517,166.969 378.062,180.453 378.062,180.484 346.517,193.969 		"/>
		<g>
			<text transform="matrix(1 0 0 1 332.0518 182.9297)" font-size="9">defines</text>
		</g>
		<g>
			<text transform="matrix(1 0 0 1 373.0566 171.4766)" font-size="9">1</text>
		</g>
		<g>
			<text transform="matrix(1 0 0 1 365.0547 194.2012)" font-size="9">0-n</text>
		</g>
		
			<polygon fill="#CCDEF0" stroke="#010101" stroke-width="0.75" stroke-linecap="round" stroke-linejoin="round" stroke-miterlimit="1" points="
			399.062,180.262 430.517,166.969 462.062,180.453 462.062,180.484 430.517,193.969 		"/>
		<g>
			<text transform="matrix(1 0 0 1 416.0518 182.9297)" font-size="9">defines</text>
		</g>
		<g>
			<text transform="matrix(1 0 0 1 457.0566 171.4766)" font-size="9">1</text>
		</g>
		<g>
			<text transform="matrix(1 0 0 1 449.0547 194.2012)" font-size="9">0-n</text>
		</g>
		
			<polygon fill="#CCDEF0" stroke="#010101" stroke-width="0.75" stroke-linecap="round" stroke-linejoin="round" stroke-miterlimit="1" points="
			230.985,180.262 262.44,166.969 293.986,180.453 293.986,180.484 262.44,193.969 		"/>
		<g>
			<text transform="matrix(1 0 0 1 241.2197 182.9297)" font-size="9">references</text>
		</g>
		<g>
			<text transform="matrix(1 0 0 1 288.9805 171.4766)" font-size="9">1</text>
		</g>
		<g>
			<text transform="matrix(1 0 0 1 280.9785 194.2012)" font-size="9">0-n</text>
		</g>
		<g>
			<text transform="matrix(1 0 0 1 331.5576 276.7207)" font-size="9">records</text>
		</g>
		<g>
			<text transform="matrix(1 0 0 1 365.0547 265.2656)" font-size="9">0-n</text>
		</g>
		<g>
			<text transform="matrix(1 0 0 1 373.0566 287.9922)" font-size="9">1</text>
		</g>
		<g>
			<text transform="matrix(1 0 0 1 415.5576 276.7207)" font-size="9">records</text>
		</g>
		<g>
			<text transform="matrix(1 0 0 1 449.0547 265.2656)" font-size="9">0-n</text>
		</g>
		<g>
			<text transform="matrix(1 0 0 1 457.0566 287.9922)" font-size="9">1</text>
		</g>
		<g>
			<text transform="matrix(1 0 0 1 241.2197 276.7207)" font-size="9">references</text>
		</g>
		<g>
			<text transform="matrix(1 0 0 1 280.9785 265.2656)" font-size="9">0-n</text>
		</g>
		<g>
			<text transform="matrix(1 0 0 1 288.9805 287.9922)" font-size="9">1</text>
		</g>
		
			<rect x="211.944" y="105.675" fill="#86B2D8" stroke="#010101" stroke-width="0.75" stroke-linecap="round" stroke-linejoin="round" stroke-miterlimit="1" width="99" height="29"/>
		<g>
			<text transform="matrix(1 0 0 1 244.2104 118.2866)"><tspan x="0" y="0" font-size="10">Defined</tspan><tspan x="-25.566" y="9.333" font-size="10">Procedure Protocol</tspan></text>
		</g>
		<g>
			<g>
				
					<line fill="none" stroke="#005695" stroke-width="2" stroke-linejoin="round" x1="260.295" y1="75.479" x2="260.295" y2="98.588"/>
				<g>
					<polygon fill="#005695" points="257.971,97.002 260.295,105.675 262.619,97.002 					"/>
				</g>
			</g>
		</g>
		<g>
			<g>
				
					<line fill="none" stroke="#005695" stroke-width="2" stroke-linejoin="round" x1="120.292" y1="75.425" x2="120.292" y2="98.588"/>
				<g>
					<polygon fill="#005695" points="117.968,97.002 120.292,105.675 122.616,97.002 					"/>
				</g>
			</g>
		</g>
		
			<polygon fill="#CCDEF0" stroke="#010101" stroke-width="0.75" stroke-linecap="round" stroke-linejoin="round" stroke-miterlimit="1" points="
			130.675,180.544 162.129,167.251 193.676,180.735 193.676,180.767 162.129,194.251 		"/>
		<g>
			<text transform="matrix(1 0 0 1 143.6543 183.2119)" font-size="9">based on</text>
		</g>
		<g>
			<text transform="matrix(1 0 0 1 191.4204 171.7578)" font-size="9">1</text>
		</g>
		<g>
			<text transform="matrix(1 0 0 1 183.418 194.4834)" font-size="9">0-n</text>
		</g>
		<g>
			<g>
				<polyline fill="none" stroke="#005695" stroke-width="2" stroke-linejoin="round" points="236.664,98.621 236.664,85.186 
					201.962,85.186 201.962,206.118 161.816,206.118 161.816,194.12 				"/>
				<g>
					<polygon fill="#005695" points="238.988,97.035 236.664,105.708 234.339,97.035 					"/>
				</g>
			</g>
		</g>
		
			<rect x="70.792" y="105.675" fill="#86B2D8" stroke="#010101" stroke-width="0.75" stroke-linecap="round" stroke-linejoin="round" stroke-miterlimit="1" width="99" height="29"/>
		<g>
			<text transform="matrix(1 0 0 1 96.9497 118.2866)"><tspan x="0" y="0" font-size="10">Performed</tspan><tspan x="-19.458" y="9.333" font-size="10">Procedure Protocol</tspan></text>
		</g>
		
			<rect x="158.361" y="16.095" fill="#86B2D8" stroke="#010101" stroke-width="0.75" stroke-linecap="round" stroke-linejoin="round" stroke-miterlimit="1" width="84.003" height="18"/>
		<g>
			<text transform="matrix(1 0 0 1 171.6738 28.3867)" font-size="12">Equipment</text>
		</g>
		
			<polygon fill="#CCDEF0" stroke="#010101" stroke-width="0.75" stroke-linecap="round" stroke-linejoin="round" stroke-miterlimit="1" points="
			75.292,66.412 120.227,57.55 165.292,66.54 165.292,66.56 120.227,75.55 		"/>
		<g>
			<text transform="matrix(1 0 0 1 105.5352 69.0127)" font-size="9">creates</text>
		</g>
		
			<polygon fill="#CCDEF0" stroke="#010101" stroke-width="0.75" stroke-linecap="round" stroke-linejoin="round" stroke-miterlimit="1" points="
			215.295,66.412 260.229,57.55 305.294,66.54 305.294,66.56 260.229,75.55 		"/>
		<g>
			<text transform="matrix(1 0 0 1 245.5361 69.0127)" font-size="9">creates</text>
		</g>
		<g>
			<text transform="matrix(1 0 0 1 280.5586 57.5586)" font-size="9">1</text>
		</g>
		<g>
			<text transform="matrix(1 0 0 1 280.5576 80.2842)" font-size="9">0-n</text>
		</g>
		<g>
			<text transform="matrix(1 0 0 1 142.1621 57.5586)" font-size="9">1</text>
		</g>
		<g>
			<text transform="matrix(1 0 0 1 141.4414 80.2842)" font-size="9">0-n</text>
		</g>
		<g>
			<g>
				
					<line fill="none" stroke="#005695" stroke-width="2" stroke-linejoin="round" x1="71.51" y1="193.994" x2="71.51" y2="204.906"/>
				<g>
					<polygon fill="#005695" points="69.186,203.321 71.51,211.994 73.834,203.321 					"/>
				</g>
			</g>
		</g>
		
			<rect x="34.438" y="212.521" fill="#86B2D8" stroke="#010101" stroke-width="0.75" stroke-linecap="round" stroke-linejoin="round" stroke-miterlimit="1" width="74" height="29.906"/>
		<g>
			<text transform="matrix(1 0 0 1 50.0361 230.2529)" font-size="10">Instances</text>
		</g>
		<g>
			<g>
				<polyline fill="none" stroke="#005695" stroke-width="2" stroke-linejoin="round" points="120.148,148.804 71.139,148.804 
					71.139,159.598 				"/>
				<g>
					<polygon fill="#005695" points="68.815,158.013 71.139,166.686 73.463,158.013 					"/>
				</g>
			</g>
		</g>
		<g>
			<g>
				<polyline fill="none" stroke="#005695" stroke-width="2" stroke-linejoin="round" points="120.121,148.804 160.695,148.804 
					160.695,159.598 				"/>
				<g>
					<polygon fill="#005695" points="158.371,158.013 160.695,166.686 163.019,158.013 					"/>
				</g>
			</g>
		</g>
		
			<polygon fill="#CCDEF0" stroke="#010101" stroke-width="0.75" stroke-linecap="round" stroke-linejoin="round" stroke-miterlimit="1" points="
			39.86,180.262 71.315,166.969 102.861,180.453 102.861,180.484 71.315,193.969 		"/>
		<g>
			<text transform="matrix(1 0 0 1 53.3486 183.2119)" font-size="9">results in</text>
		</g>
		<g>
			<text transform="matrix(1 0 0 1 97.856 171.4766)" font-size="9">1</text>
		</g>
		<g>
			<text transform="matrix(1 0 0 1 89.8535 194.2012)" font-size="9">0-n</text>
		</g>
	</g>
</g>
</svg>
