<?xml version="1.0" encoding="utf-8"?>

<!DOCTYPE svg PUBLIC "-//W3C//DTD SVG 1.1//EN" "http://www.w3.org/Graphics/SVG/1.1/DTD/svg11.dtd">
<svg version="1.1" id="Layer_1" xmlns="http://www.w3.org/2000/svg" xmlns:xlink="http://www.w3.org/1999/xlink" x="0px" y="0px"
	 width="552px" height="362px" viewBox="0 0 552 362" enable-background="new 0 0 552 362" xml:space="preserve">

<defs>
	<style type="text/css">
	text {
	  font-family: Helvetica, Verdana, ArialUnicodeMS, san-serif
	}
	</style>
</defs>

<g>
   <desc>
	PS 3.3 Information Object Definitions
   </desc>
</g>

<g>
	<g>
		<rect x="1" y="1" fill="#F5EED6" width="550" height="360"/>
	</g>
	<g>
		<g>
			<polygon fill="#CCDEF0" points="319.115,45.519 319.115,140.736 198.007,230.471 198.007,135.254 			"/>
			<g>
				<polyline fill="none" stroke="#808285" stroke-linejoin="bevel" points="317.508,46.709 319.115,45.519 319.115,47.519 				"/>
				
					<line fill="none" stroke="#808285" stroke-linejoin="bevel" stroke-dasharray="3.8816,2.9112" x1="319.115" y1="50.43" x2="319.115" y2="137.281"/>
				<polyline fill="none" stroke="#808285" stroke-linejoin="bevel" points="319.115,138.736 319.115,140.736 317.508,141.927 				
					"/>
				
					<line fill="none" stroke="#808285" stroke-linejoin="bevel" stroke-dasharray="3.9128,2.9346" x1="315.15" y1="143.674" x2="200.793" y2="228.406"/>
				<polyline fill="none" stroke="#808285" stroke-linejoin="bevel" points="199.614,229.28 198.007,230.471 198.007,228.471 				
					"/>
				
					<line fill="none" stroke="#808285" stroke-linejoin="bevel" stroke-dasharray="3.8816,2.9112" x1="198.007" y1="225.56" x2="198.007" y2="138.709"/>
				<polyline fill="none" stroke="#808285" stroke-linejoin="bevel" points="198.007,137.254 198.007,135.254 199.614,134.063 				
					"/>
				
					<line fill="none" stroke="#808285" stroke-linejoin="bevel" stroke-dasharray="3.9128,2.9346" x1="201.972" y1="132.316" x2="316.329" y2="47.583"/>
			</g>
		</g>
		<g>
			<polygon fill="#CCDEF0" points="396.74,211.107 319.115,140.736 198.007,230.471 275.632,300.844 			"/>
			<g>
				<polyline fill="none" stroke="#808285" stroke-linejoin="bevel" points="395.133,212.298 396.74,211.107 395.259,209.764 				
					"/>
				
					<line fill="none" stroke="#808285" stroke-linejoin="bevel" stroke-dasharray="3.9911,2.9933" x1="393.041" y1="207.754" x2="321.706" y2="143.085"/>
				<polyline fill="none" stroke="#808285" stroke-linejoin="bevel" points="320.597,142.08 319.115,140.736 317.508,141.927 				
					"/>
				
					<line fill="none" stroke="#808285" stroke-linejoin="bevel" stroke-dasharray="3.9128,2.9346" x1="315.15" y1="143.674" x2="200.793" y2="228.406"/>
				<polyline fill="none" stroke="#808285" stroke-linejoin="bevel" points="199.614,229.28 198.007,230.471 199.489,231.814 				
					"/>
				
					<line fill="none" stroke="#808285" stroke-linejoin="bevel" stroke-dasharray="3.9911,2.9933" x1="201.707" y1="233.824" x2="273.042" y2="298.495"/>
				<polyline fill="none" stroke="#808285" stroke-linejoin="bevel" points="274.15,299.5 275.632,300.844 277.239,299.653 				"/>
				
					<line fill="none" stroke="#808285" stroke-linejoin="bevel" stroke-dasharray="3.9128,2.9346" x1="279.597" y1="297.906" x2="393.954" y2="213.172"/>
			</g>
		</g>
		<g>
			<polygon fill="#CCDEF0" points="396.74,211.107 319.115,140.736 319.115,45.519 396.74,115.891 			"/>
			<g>
				<polyline fill="none" stroke="#808285" stroke-linejoin="bevel" points="396.74,209.107 396.74,211.107 395.259,209.764 				"/>
				
					<line fill="none" stroke="#808285" stroke-linejoin="bevel" stroke-dasharray="3.9911,2.9933" x1="393.041" y1="207.754" x2="321.706" y2="143.085"/>
				<polyline fill="none" stroke="#808285" stroke-linejoin="bevel" points="320.597,142.08 319.115,140.736 319.115,138.736 				
					"/>
				
					<line fill="none" stroke="#808285" stroke-linejoin="bevel" stroke-dasharray="3.8816,2.9112" x1="319.115" y1="135.825" x2="319.115" y2="48.975"/>
				<polyline fill="none" stroke="#808285" stroke-linejoin="bevel" points="319.115,47.519 319.115,45.519 320.597,46.862 				"/>
				
					<line fill="none" stroke="#808285" stroke-linejoin="bevel" stroke-dasharray="3.9911,2.9933" x1="322.814" y1="48.873" x2="394.149" y2="113.542"/>
				<polyline fill="none" stroke="#808285" stroke-linejoin="bevel" points="395.259,114.547 396.74,115.891 396.74,117.891 				"/>
				
					<line fill="none" stroke="#808285" stroke-linejoin="bevel" stroke-dasharray="3.8816,2.9112" x1="396.74" y1="120.802" x2="396.74" y2="207.651"/>
			</g>
		</g>
		<polygon fill="none" stroke="#000000" stroke-linejoin="bevel" stroke-miterlimit="10" points="275.632,300.844 198.007,230.471 
			198.007,135.254 275.632,205.625 		"/>
		<polygon fill="none" stroke="#000000" stroke-linejoin="bevel" stroke-miterlimit="10" points="396.74,211.107 396.74,115.891 
			275.632,205.625 275.632,300.844 		"/>
		<polygon fill="none" stroke="#000000" stroke-linejoin="bevel" stroke-miterlimit="10" points="396.74,115.891 319.115,45.519 
			198.007,135.254 275.632,205.625 		"/>
		
			<line fill="none" stroke="#00AEEF" stroke-width="0.75" stroke-dasharray="4,2,1,2" x1="433.872" y1="72.34" x2="414.483" y2="86.686"/>
		<circle fill="#636466" stroke="#000000" stroke-linejoin="bevel" stroke-miterlimit="10" cx="414.347" cy="86.767" r="5.555"/>
		
			<line fill="none" stroke="#00AEEF" stroke-width="0.75" stroke-dasharray="4,2,1,2" x1="414.483" y1="86.686" x2="142.469" y2="287.895"/>
		<line fill="none" stroke="#000000" stroke-width="0.75" x1="232.83" y1="214.654" x2="240.624" y2="221.68"/>
		<g>
			<g>
				
					<line fill="none" stroke="#000000" stroke-width="0.75" stroke-linecap="round" x1="152.369" y1="142.125" x2="152.555" y2="142.293"/>
				
					<line fill="none" stroke="#000000" stroke-width="0.75" stroke-linecap="round" stroke-dasharray="0.5039,2.0154" x1="154.052" y1="143.642" x2="231.896" y2="213.812"/>
				
					<line fill="none" stroke="#000000" stroke-width="0.75" stroke-linecap="round" x1="232.645" y1="214.487" x2="232.83" y2="214.654"/>
			</g>
		</g>
		
			<line fill="none" stroke="#000000" stroke-width="0.75" stroke-linecap="round" stroke-dasharray="0.5,2" x1="22.426" y1="178.85" x2="142.512" y2="287.807"/>
		<line fill="none" stroke="#000000" stroke-width="0.75" x1="236.82" y1="212.215" x2="236.82" y2="225.176"/>
		<line fill="none" stroke="#808285" stroke-width="0.75" x1="354.461" y1="125.397" x2="361.778" y2="131.94"/>
		<g>
			<polyline fill="none" stroke="#000000" stroke-width="0.75" stroke-linecap="round" stroke-dasharray="0.5,2" points="
				238.591,20.723 352.364,123.437 353.757,124.695 			"/>
		</g>
		<line fill="none" stroke="#808285" stroke-width="0.75" x1="357.928" y1="122.42" x2="357.928" y2="134.188"/>
		<g>
			<g>
				<line fill="none" stroke="#000000" stroke-width="0.75" x1="151.759" y1="148.574" x2="67.288" y2="211.4"/>
				<g>
					<polygon points="150.014,147.971 155.491,145.798 151.834,150.418 					"/>
				</g>
				<g>
					<polygon points="67.213,209.556 63.556,214.176 69.033,212.003 					"/>
				</g>
			</g>
		</g>
		<g>
			<g>
				<line fill="none" stroke="#000000" stroke-width="0.75" x1="240.151" y1="28.098" x2="33.763" y2="179.862"/>
				<g>
					<polygon points="238.41,27.486 243.898,25.343 240.217,29.943 					"/>
				</g>
				<g>
					<polygon points="33.697,178.017 30.016,182.617 35.504,180.474 					"/>
				</g>
			</g>
		</g>
		<g>
			<rect x="422.162" y="89.765" fill="none" width="107.412" height="22.001"/>
			<text transform="matrix(1 0 0 1 424.4473 96.9209)"><tspan x="0" y="0" font-size="10">Viewpoint LookAt Point</tspan><tspan x="23.066" y="12" font-size="10">(0070, 1604)</tspan></text>
		</g>
		<g>
			<rect x="88.55" y="219.471" fill="none" width="107.412" height="22.002"/>
			<text transform="matrix(1 0 0 1 91.6768 226.626)"><tspan x="0" y="0" font-size="10">Viewpoint Up Direction</tspan><tspan x="22.224" y="12" font-size="10">(0070, 1605)</tspan></text>
		</g>
		<g>
			<rect x="31.833" y="277.093" fill="none" width="89.294" height="22.002"/>
			<text transform="matrix(1 0 0 1 35.623 284.2461)"><tspan x="0" y="0" font-size="10">Viewpoint Position</tspan><tspan x="12.502" y="12" font-size="10">(0070, 1603)</tspan></text>
		</g>
		<g>
			<rect x="74.15" y="330.275" fill="none" width="136.723" height="11.002"/>
			<text transform="matrix(1 0 0 1 76.9233 337.4346)" font-size="10">Viewpoint Coordinate System</text>
		</g>
		<g>
			<rect x="113.398" y="95.198" fill="#F5EED6" width="55.261" height="16.857"/>
			<g>
				<rect x="112.354" y="98.683" fill="none" width="57.269" height="14.08"/>
				<text transform="matrix(1 0 0 1 116.8687 105.8398)"><tspan x="0" y="0" font-size="10">Distance</tspan><tspan x="38.906" y="3" font-size="8">far</tspan></text>
			</g>
		</g>
		<g>
			<rect x="321.34" y="34.003" fill="none" width="105.063" height="14.08"/>
			<text transform="matrix(1 0 0 1 321.3418 41.1602)"><tspan x="0" y="0" font-size="10">(X</tspan><tspan x="10" y="3" font-size="8">left</tspan><tspan x="20.672" y="0" font-size="10">, Y</tspan><tspan x="32.898" y="3" font-size="8">top</tspan><tspan x="44.02" y="0" font-size="10">, Distance</tspan><tspan x="88.482" y="3" font-size="8">far</tspan><tspan x="97.818" y="0" font-size="10">)</tspan></text>
		</g>
		<g>
			<rect x="401.357" y="211.656" fill="none" width="120.836" height="14.08"/>
			<text transform="matrix(1 0 0 1 401.3574 218.8135)"><tspan x="0" y="0" font-size="10">(X</tspan><tspan x="10" y="3" font-size="8">right</tspan><tspan x="25.562" y="0" font-size="10">, Y</tspan><tspan x="37.789" y="3" font-size="8">bottom</tspan><tspan x="62.246" y="0" font-size="10">, Distance</tspan><tspan x="106.709" y="3" font-size="8">far</tspan><tspan x="116.045" y="0" font-size="10">)</tspan></text>
		</g>
		<g>
			<rect x="279.326" y="303.461" fill="none" width="127.45" height="14.078"/>
			<text transform="matrix(1 0 0 1 279.3262 310.6172)"><tspan x="0" y="0" font-size="10">(X</tspan><tspan x="10" y="3" font-size="8">right</tspan><tspan x="25.562" y="0" font-size="10">, Y</tspan><tspan x="37.789" y="3" font-size="8">bottom</tspan><tspan x="62.246" y="0" font-size="10">, Distance</tspan><tspan x="106.709" y="3" font-size="8">near</tspan><tspan x="122.721" y="0" font-size="10">)</tspan></text>
		</g>
		<g>
			<rect x="87.981" y="171.205" fill="#F5EED6" width="55.261" height="16.858"/>
			<g>
				<rect x="86.936" y="174.689" fill="none" width="57.269" height="14.08"/>
				<text transform="matrix(1 0 0 1 88.1133 181.8457)"><tspan x="0" y="0" font-size="10">Distance</tspan><tspan x="38.906" y="3" font-size="8">near</tspan></text>
			</g>
		</g>
		<circle cx="319.208" cy="45.911" r="2.5"/>
		<circle cx="396.842" cy="210.906" r="2.5"/>
		<circle cx="275.633" cy="300.238" r="2.5"/>
		<polygon fill="none" stroke="#000000" stroke-linejoin="round" stroke-miterlimit="10" points="158.333,302.158 149.331,308.887 
			130.52,291.873 139.357,285.18 		"/>
		<text transform="matrix(1 -0.0019 0.0019 1 113.7778 321.9873)" fill="#00AEEF" font-size="12">+Z</text>
		<text transform="matrix(1 -0.0019 0.0019 1 145.8452 252.9238)" fill="#0DB14B" font-size="12">+Y</text>
		<text transform="matrix(1 -0.0019 0.0019 1 174.6094 317.5391)" fill="#ED1C24" font-size="12">+X</text>
		<polygon opacity="0.6" fill="#DCDDDE" stroke="#000000" stroke-linejoin="round" stroke-miterlimit="10" points="130.621,291.661 
			149.431,308.675 149.431,290.807 130.621,273.793 		"/>
		<polygon opacity="0.6" fill="#DCDDDE" stroke="#000000" stroke-linejoin="round" stroke-miterlimit="10" points="158.434,301.946 
			149.431,308.675 149.431,290.807 158.434,284.078 		"/>
		<linearGradient id="SVGID_1_" gradientUnits="userSpaceOnUse" x1="157.6274" y1="280.2334" x2="154.1126" y2="275.2137">
			<stop  offset="0.0385" style="stop-color:#58595B"/>
			<stop  offset="0.4543" style="stop-color:#FFFFFF"/>
			<stop  offset="1" style="stop-color:#333333"/>
		</linearGradient>
		<path opacity="0.8" fill="url(#SVGID_1_)" stroke="#000000" stroke-linejoin="round" stroke-miterlimit="10" d="M150.984,277.624
			l3.939-2.944l-0.237,0.143c1.145-0.918,2.799-0.922,3.913,0.063c1.248,1.104,1.345,3.035,0.215,4.312
			c-0.052,0.058-0.104,0.113-0.159,0.166l0.002,0.002l-3.12,2.333L150.984,277.624z"/>
		<g>
			<g>
				
					<line fill="none" stroke="#ED1C24" stroke-width="1.7639" stroke-linecap="round" stroke-linejoin="round" x1="142.512" y1="287.807" x2="167.731" y2="311.167"/>
				<g>
					<polygon fill="#ED1C24" points="164.103,311.998 174.609,317.539 168.282,307.486 					"/>
				</g>
			</g>
		</g>
		<g>
			<g>
				
					<line fill="none" stroke="#00AEEF" stroke-width="2" stroke-linecap="round" stroke-linejoin="round" x1="142.469" y1="287.895" x2="115.635" y2="309.432"/>
				<g>
					<polygon fill="#00AEEF" points="115.307,305.225 107.344,316.086 119.671,310.662 					"/>
				</g>
			</g>
		</g>
		<g>
			<g>
				
					<line fill="none" stroke="#0DB14B" stroke-width="2" stroke-linecap="round" stroke-linejoin="round" x1="142.256" y1="288.094" x2="142.256" y2="253.967"/>
				<g>
					<polygon fill="#0DB14B" points="145.743,256.345 142.256,243.336 138.77,256.345 					"/>
				</g>
			</g>
		</g>
		<g>
			<path stroke="#000000" stroke-miterlimit="1" d="M147.167,287.537c0-2.762-2.239-5-5-5v5H147.167z"/>
			
				<path fill="#FFFFFF" stroke="#010101" stroke-width="0.75" stroke-linecap="round" stroke-linejoin="round" stroke-miterlimit="1" d="
				M142.167,282.537c-2.761,0-5,2.238-5,5h5V282.537z"/>
			<path stroke="#000000" stroke-miterlimit="1" d="M137.167,287.537c0,2.76,2.239,5,5,5v-5H137.167z"/>
			
				<path fill="#FFFFFF" stroke="#010101" stroke-width="0.75" stroke-linecap="round" stroke-linejoin="round" stroke-miterlimit="1" d="
				M142.167,287.537v5c2.761,0,5-2.24,5-5H142.167z"/>
		</g>
		<polygon opacity="0.6" fill="#DCDDDE" stroke="#000000" stroke-linejoin="round" stroke-miterlimit="10" points="158.434,284.078 
			149.431,290.807 130.621,273.793 139.458,267.1 		"/>
	</g>
</g>
</svg>
