<?xml version="1.0" encoding="utf-8"?>

<!DOCTYPE svg PUBLIC "-//W3C//DTD SVG 1.1//EN" "http://www.w3.org/Graphics/SVG/1.1/DTD/svg11.dtd">
<svg version="1.1" id="Layer_1" xmlns="http://www.w3.org/2000/svg" xmlns:xlink="http://www.w3.org/1999/xlink" x="0px" y="0px"
	 width="602px" height="182px" viewBox="0 0 602 182" enable-background="new 0 0 602 182" xml:space="preserve">

<defs>
	<style type="text/css">
	text {
	  font-family: Helvetica, Verdana, ArialUnicodeMS, san-serif
	}
	</style>
</defs>

<g>
   <desc>
	PS 3.3 Part 3: Information Object Definitions
   </desc>
</g>

<g>
	<rect x="1" y="1" fill="#F5EED8" width="600" height="180"/>
	<g>
		<g>
			<rect x="491.244" y="15.264" fill="#C2E2CC" width="56.704" height="151.4"/>
			<line fill="#C2E2CC" stroke="#CCCCCC" x1="547.948" y1="15.257" x2="547.948" y2="166.743"/>
			<line fill="#C2E2CC" stroke="#CCCCCC" x1="491.244" y1="166.743" x2="491.244" y2="15.257"/>
			<rect x="486.542" y="77.58" fill="#CEDFEF" stroke="#CCCCCC" width="4.812" height="27.92"/>
			<polyline fill="#FFF479" points="443.38,91.54 410.734,15.259 389.635,15.256 389.635,90.737 			"/>
			<g>
				<line fill="none" stroke="#FFFFFF" stroke-miterlimit="10" x1="438.965" y1="93.34" x2="408.725" y2="15.253"/>
				<line fill="none" stroke="#FFFFFF" stroke-miterlimit="10" x1="434.489" y1="94.984" x2="406.772" y2="15.256"/>
				<line fill="none" stroke="#FFFFFF" stroke-miterlimit="10" x1="429.96" y1="96.472" x2="404.865" y2="15.254"/>
				<line fill="none" stroke="#FFFFFF" stroke-miterlimit="10" x1="425.381" y1="97.8" x2="403.001" y2="15.257"/>
				<line fill="none" stroke="#FFFFFF" stroke-miterlimit="10" x1="420.758" y1="98.968" x2="401.171" y2="15.263"/>
				<line fill="none" stroke="#FFFFFF" stroke-miterlimit="10" x1="416.098" y1="99.973" x2="399.369" y2="15.256"/>
				<line fill="none" stroke="#FFFFFF" stroke-miterlimit="10" x1="411.407" y1="100.813" x2="397.594" y2="15.256"/>
				<line fill="none" stroke="#FFFFFF" stroke-miterlimit="10" x1="406.687" y1="101.491" x2="395.837" y2="15.257"/>
				<line fill="none" stroke="#FFFFFF" stroke-miterlimit="10" x1="401.948" y1="102.004" x2="394.097" y2="15.257"/>
				<line fill="none" stroke="#FFFFFF" stroke-miterlimit="10" x1="397.192" y1="102.351" x2="392.366" y2="15.257"/>
				<line fill="none" stroke="#FFFFFF" stroke-miterlimit="10" x1="392.429" y1="102.531" x2="390.643" y2="15.255"/>
			</g>
			
				<line fill="none" stroke="#BDBFC1" stroke-width="0.5" stroke-miterlimit="10" x1="389.635" y1="15.256" x2="389.635" y2="90.737"/>
			
				<line fill="none" stroke="#BDBFC1" stroke-width="0.5" stroke-miterlimit="10" x1="443.38" y1="91.54" x2="410.734" y2="15.259"/>
			<path fill="#CEDFEF" stroke="#CCCCCC" d="M463.439,15.257l0.005,76.283v18.217c13.396,0.025,23.098-0.086,23.098-0.086V15.256"/>
			<path fill="#B4CFE6" stroke="#000000" stroke-width="2" d="M463.444,91.54h-77.979v13.96c5.149,3.553,49.771,4.205,77.979,4.257
				V91.54z"/>
			<rect x="471.025" y="68.916" fill="none" width="71.333" height="36.584"/>
			<text transform="matrix(1 0 0 1 471.0273 75.3545)"><tspan x="0" y="0" font-size="9">BREAST</tspan><tspan x="0" y="10.8" font-size="9">SUPPORT</tspan><tspan x="0" y="28.8" font-size="14">ANTERIOR</tspan></text>
			<rect x="297.182" y="68.916" fill="none" width="80.591" height="36.584"/>
			<text transform="matrix(1 0 0 1 343.2031 75.3545)"><tspan x="0" y="0" font-size="9">BREAST </tspan><tspan x="-7.209" y="10.8" font-size="9">SUPPORT</tspan><tspan x="-44.303" y="28.8" font-size="14">POSTERIOR</tspan></text>
		</g>
		<g>
			<rect x="123.41" y="15.31" fill="#C2E2CC" width="55.857" height="151.434"/>
			<rect x="130.926" y="15.743" fill="#CEDFEF" width="41.651" height="76.645"/>
			<line fill="#C2E2CC" stroke="#CCCCCC" x1="123.41" y1="15.31" x2="123.41" y2="166.743"/>
			<line fill="#C2E2CC" stroke="#CCCCCC" x1="179.267" y1="166.743" x2="179.267" y2="15.31"/>
			<polyline fill="none" stroke="#CCCCCC" points="130.926,15.31 130.926,91.54 172.577,91.54 172.577,15.31 			"/>
			<polygon fill="#FFF479" points="180.691,91.197 163.557,15.227 140.285,15.227 123.41,91.197 			"/>
			<g>
				
					<line fill="none" stroke="#FFFFFF" stroke-linecap="round" stroke-miterlimit="10" x1="178.468" y1="91.682" x2="162.491" y2="15.276"/>
				
					<line fill="none" stroke="#FFFFFF" stroke-linecap="round" stroke-miterlimit="10" x1="174" y1="92.535" x2="160.636" y2="15.252"/>
				
					<line fill="none" stroke="#FFFFFF" stroke-linecap="round" stroke-miterlimit="10" x1="169.505" y1="93.231" x2="158.805" y2="15.239"/>
				
					<line fill="none" stroke="#FFFFFF" stroke-linecap="round" stroke-miterlimit="10" x1="164.987" y1="93.771" x2="156.992" y2="15.212"/>
				
					<line fill="none" stroke="#FFFFFF" stroke-linecap="round" stroke-miterlimit="10" x1="160.454" y1="94.153" x2="155.196" y2="15.21"/>
				
					<line fill="none" stroke="#FFFFFF" stroke-linecap="round" stroke-miterlimit="10" x1="155.91" y1="94.376" x2="153.407" y2="15.21"/>
				
					<line fill="none" stroke="#FFFFFF" stroke-linecap="round" stroke-miterlimit="10" x1="151.361" y1="94.44" x2="151.623" y2="15.241"/>
				
					<line fill="none" stroke="#FFFFFF" stroke-linecap="round" stroke-miterlimit="10" x1="146.812" y1="94.347" x2="149.836" y2="15.241"/>
				
					<line fill="none" stroke="#FFFFFF" stroke-linecap="round" stroke-miterlimit="10" x1="142.27" y1="94.094" x2="148.044" y2="15.273"/>
				
					<line fill="none" stroke="#FFFFFF" stroke-linecap="round" stroke-miterlimit="10" x1="137.739" y1="93.683" x2="146.246" y2="15.246"/>
				
					<line fill="none" stroke="#FFFFFF" stroke-linecap="round" stroke-miterlimit="10" x1="133.226" y1="93.113" x2="144.429" y2="15.276"/>
				
					<line fill="none" stroke="#FFFFFF" stroke-linecap="round" stroke-miterlimit="10" x1="128.735" y1="92.388" x2="142.6" y2="15.249"/>
				
					<line fill="none" stroke="#FFFFFF" stroke-linecap="round" stroke-miterlimit="10" x1="124.272" y1="91.505" x2="140.738" y2="15.279"/>
			</g>
			
				<line fill="none" stroke="#D2D4D5" stroke-width="0.5" stroke-linecap="round" stroke-miterlimit="10" x1="140.022" y1="15.49" x2="123.41" y2="91.197"/>
			
				<line fill="none" stroke="#D2D4D5" stroke-width="0.5" stroke-linecap="round" stroke-miterlimit="10" x1="180.691" y1="91.414" x2="163.424" y2="15.445"/>
			<path fill="#B4CFE6" stroke="#000000" stroke-width="2" d="M119.131,105.5h0.165c0,2.353,14.475,4.26,32.329,4.26
				c17.855,0,32.329-1.907,32.329-4.26V91.54h-64.822V105.5z"/>
			<rect x="191.437" y="64.907" fill="none" width="46.183" height="36.584"/>
			<text transform="matrix(1 0 0 1 191.4375 71.3457)"><tspan x="0" y="0" font-size="9">BREAST</tspan><tspan x="0" y="10.8" font-size="9">SUPPORT</tspan><tspan x="0" y="28.8" font-size="14">RIGHT</tspan></text>
			<rect x="66.921" y="64.907" fill="none" width="44.939" height="36.584"/>
			<text transform="matrix(1 0 0 1 77.2915 71.3457)"><tspan x="0" y="0" font-size="9">BREAST </tspan><tspan x="-7.209" y="10.8" font-size="9">SUPPORT</tspan><tspan x="1.686" y="28.8" font-size="14">LEFT</tspan></text>
			<rect x="124.189" y="43.483" fill="none" width="55.019" height="40.493"/>
			<text transform="matrix(1 0 0 1 132.4932 50.6411)"><tspan x="0" y="0" font-size="10">BREAST </tspan><tspan x="-4.005" y="14" font-size="10">SUPPORT</tspan><tspan x="0.429" y="32" font-size="14">HEAD</tspan></text>
			<rect x="124.189" y="117.344" fill="none" width="55.019" height="40.201"/>
			<text transform="matrix(1 0 0 1 132.4932 124.4961)"><tspan x="0" y="0" font-size="10">BREAST </tspan><tspan x="-4.005" y="14" font-size="10">SUPPORT</tspan><tspan x="0.436" y="32" font-size="14">FOOT</tspan></text>
		</g>
	</g>
</g>
</svg>
