<?xml version="1.0" encoding="utf-8"?>
<!-- Generator: Adobe Illustrator 13.0.0, SVG Export Plug-In . SVG Version: 6.00 Build 14948)  -->
<!DOCTYPE svg PUBLIC "-//W3C//DTD SVG 1.1//EN" "http://www.w3.org/Graphics/SVG/1.1/DTD/svg11.dtd">
<svg version="1.1" id="Layer_1" xmlns="http://www.w3.org/2000/svg" xmlns:xlink="http://www.w3.org/1999/xlink" x="0px" y="0px"
	 width="574.667px" height="477px" viewBox="-221.131 -119.5 574.667 477" enable-background="new -221.131 -119.5 574.667 477"
	 xml:space="preserve">

<defs>
	<style type="text/css">
	text {
	  font-family: Helvetica, Verdana, ArialUnicodeMS, san-serif
	}
	</style>
</defs>

	<g>
	<g>
		<circle fill="none" stroke="#000000" cx="-73.714" cy="-22.5" r="12.5"/>
		<circle fill="none" stroke="#000000" cx="-23.714" cy="-22.5" r="12.5"/>
		<polygon fill="#FFFFFF" stroke="#000000" points="-74.221,51.245 -94.922,15.389 -74.221,-20.467 -21.818,-20.467 -1.117,15.389 
			-21.818,51.245 		"/>
		<polygon fill="#FFFFFF" stroke="#000000" points="-70.204,79.307 -76.233,72.464 -79.966,34.242 -71.279,32.359 -58.859,68.7 
			-61.516,77.425 		"/>
		<line fill="none" stroke="#000000" x1="-70.714" y1="69" x2="-69.964" y2="79"/>
		<line fill="none" stroke="#000000" x1="-65.214" y1="67.5" x2="-62.214" y2="77"/>
		<polygon fill="#FFFFFF" stroke="#000000" points="-26.872,79.307 -20.842,72.464 -17.109,34.242 -25.796,32.359 -38.216,68.7 
			-35.559,77.425 		"/>
		<line fill="none" stroke="#000000" x1="-26.361" y1="69" x2="-27.111" y2="79"/>
		<line fill="none" stroke="#000000" x1="-31.861" y1="67.5" x2="-34.861" y2="77"/>
		<path fill="none" stroke="#000000" d="M-47.464,7.5c0,0-13.25,4.75-14,16s17.25,17.5,18.5,32s-4,33.25-21.5,33.25"/>
	</g>
	<g>
		<circle fill="none" stroke="#000000" cx="38.286" cy="-22.5" r="12.5"/>
		<circle fill="none" stroke="#000000" cx="88.286" cy="-22.5" r="12.5"/>
		<polygon fill="#FFFFFF" stroke="#000000" points="37.779,51.245 17.078,15.389 37.779,-20.467 90.182,-20.467 110.883,15.389 
			90.182,51.245 		"/>
		<polygon fill="#FFFFFF" stroke="#000000" points="41.796,79.307 35.767,72.464 32.034,34.242 40.721,32.359 53.141,68.7 
			50.484,77.425 		"/>
		<line fill="none" stroke="#000000" x1="41.286" y1="69" x2="42.036" y2="79"/>
		<line fill="none" stroke="#000000" x1="46.786" y1="67.5" x2="49.786" y2="77"/>
		<polygon fill="#FFFFFF" stroke="#000000" points="85.128,79.307 91.158,72.464 94.891,34.242 86.204,32.359 73.784,68.7 
			76.441,77.425 		"/>
		<line fill="none" stroke="#000000" x1="85.639" y1="69" x2="84.889" y2="79"/>
		<line fill="none" stroke="#000000" x1="80.139" y1="67.5" x2="77.139" y2="77"/>
		<path fill="none" stroke="#000000" d="M64.536,7.5c0,0-13.25,4.75-14,16s17.25,17.5,18.5,32s-4,33.25-21.5,33.25"/>
	</g>
	<g>
		<circle fill="none" stroke="#000000" cx="151.953" cy="-21.833" r="12.5"/>
		<circle fill="none" stroke="#000000" cx="201.953" cy="-21.833" r="12.5"/>
		<polygon fill="#FFFFFF" stroke="#000000" points="151.445,51.912 130.745,16.056 151.445,-19.8 203.85,-19.8 224.55,16.056 
			203.85,51.912 		"/>
		<polygon fill="#FFFFFF" stroke="#000000" points="155.463,79.973 149.434,73.131 145.701,34.909 154.389,33.026 166.809,69.367 
			164.15,78.092 		"/>
		<line fill="none" stroke="#000000" x1="154.953" y1="69.666" x2="155.703" y2="79.666"/>
		<line fill="none" stroke="#000000" x1="160.453" y1="68.166" x2="163.453" y2="77.666"/>
		<polygon fill="#FFFFFF" stroke="#000000" points="198.795,79.973 204.825,73.131 208.559,34.909 199.871,33.026 187.451,69.367 
			190.107,78.092 		"/>
		<line fill="none" stroke="#000000" x1="199.307" y1="69.666" x2="198.557" y2="79.666"/>
		<line fill="none" stroke="#000000" x1="193.807" y1="68.166" x2="190.807" y2="77.666"/>
		<path fill="none" stroke="#000000" d="M178.203,8.167c0,0-13.25,4.75-14,16s17.25,17.5,18.5,32s-4,33.25-21.5,33.25"/>
	</g>
</g>
<g>
	<g>
		<circle fill="none" stroke="#000000" cx="-74.713" cy="112.167" r="12.5"/>
		<circle fill="none" stroke="#000000" cx="-24.713" cy="112.167" r="12.5"/>
		<polygon fill="#FFFFFF" stroke="#000000" points="-75.221,185.912 -95.921,150.057 -75.221,114.2 -22.818,114.2 -2.117,150.057 
			-22.818,185.912 		"/>
		<polygon fill="#FFFFFF" stroke="#000000" points="-71.204,213.975 -77.232,207.131 -80.965,168.909 -72.278,167.025 
			-59.858,203.367 -62.516,212.092 		"/>
		<line fill="none" stroke="#000000" x1="-71.713" y1="203.667" x2="-70.963" y2="213.667"/>
		<line fill="none" stroke="#000000" x1="-66.213" y1="202.167" x2="-63.213" y2="211.667"/>
		<polygon fill="#FFFFFF" stroke="#000000" points="-27.872,213.975 -21.841,207.131 -18.109,168.909 -26.795,167.025 
			-39.215,203.367 -36.558,212.092 		"/>
		<line fill="none" stroke="#000000" x1="-27.361" y1="203.667" x2="-28.111" y2="213.667"/>
		<line fill="none" stroke="#000000" x1="-32.861" y1="202.167" x2="-35.861" y2="211.667"/>
		<path fill="none" stroke="#000000" d="M-48.463,142.167c0,0-13.25,4.75-14,16s17.25,17.5,18.5,32s-4,33.25-21.5,33.25"/>
	</g>
	<g>
		<circle fill="none" stroke="#000000" cx="37.287" cy="112.167" r="12.5"/>
		<circle fill="none" stroke="#000000" cx="87.287" cy="112.167" r="12.5"/>
		<polygon fill="#FFFFFF" stroke="#000000" points="36.779,185.912 16.079,150.057 36.779,114.2 89.182,114.2 109.883,150.057 
			89.182,185.912 		"/>
		<polygon fill="#FFFFFF" stroke="#000000" points="40.796,213.975 34.768,207.131 31.035,168.909 39.722,167.025 52.143,203.367 
			49.484,212.092 		"/>
		<line fill="none" stroke="#000000" x1="40.287" y1="203.667" x2="41.037" y2="213.667"/>
		<line fill="none" stroke="#000000" x1="45.787" y1="202.167" x2="48.787" y2="211.667"/>
		<polygon fill="#FFFFFF" stroke="#000000" points="84.129,213.975 90.158,207.131 93.891,168.909 85.205,167.025 72.785,203.367 
			75.441,212.092 		"/>
		<line fill="none" stroke="#000000" x1="84.639" y1="203.667" x2="83.889" y2="213.667"/>
		<line fill="none" stroke="#000000" x1="79.139" y1="202.167" x2="76.139" y2="211.667"/>
		<path fill="none" stroke="#000000" d="M63.537,142.167c0,0-13.25,4.75-14,16s17.25,17.5,18.5,32s-4,33.25-21.5,33.25"/>
	</g>
	<g>
		<circle fill="none" stroke="#000000" cx="150.953" cy="112.834" r="12.5"/>
		<circle fill="none" stroke="#000000" cx="200.953" cy="112.834" r="12.5"/>
		<polygon fill="#FFFFFF" stroke="#000000" points="150.445,186.578 129.746,150.723 150.445,114.867 202.85,114.867 
			223.551,150.723 202.85,186.578 		"/>
		<polygon fill="#FFFFFF" stroke="#000000" points="154.463,214.641 148.434,207.797 144.701,169.576 153.389,167.693 
			165.809,204.033 163.15,212.759 		"/>
		<line fill="none" stroke="#000000" x1="153.953" y1="204.334" x2="154.703" y2="214.333"/>
		<line fill="none" stroke="#000000" x1="159.453" y1="202.834" x2="162.453" y2="212.333"/>
		<polygon fill="#FFFFFF" stroke="#000000" points="197.795,214.641 203.826,207.797 207.559,169.576 198.871,167.693 
			186.451,204.033 189.109,212.759 		"/>
		<line fill="none" stroke="#000000" x1="198.307" y1="204.334" x2="197.557" y2="214.333"/>
		<line fill="none" stroke="#000000" x1="192.807" y1="202.834" x2="189.807" y2="212.333"/>
		<path fill="none" stroke="#000000" d="M177.203,142.834c0,0-13.25,4.75-14,16s17.25,17.5,18.5,32s-4,33.249-21.5,33.249"/>
	</g>
</g>
<rect x="-122.5" y="-64" fill="none" width="374" height="322"/>
<rect x="-114.5" y="234.25" fill="#FFFFFF" stroke="#000000" width="360.5" height="20.5"/>
<ellipse fill="none" stroke="#000000" cx="66" cy="122.5" rx="264" ry="212"/>
<path fill="none" stroke="#000000" d="M353.5,345c0,6.627-5.233,12-11.688,12h-550.292c-6.455,0-11.688-5.373-11.688-12v-452
	c0-6.627,5.233-12,11.688-12h550.292c6.454,0,11.688,5.373,11.688,12V345z"/>
<text transform="matrix(1 0 0 1 -60.5 -4.333)" font-size="12">1\1\1</text>
<text transform="matrix(1 0 0 1 49.834 -3.667)" font-size="12">2\1\1</text>
<text transform="matrix(1 0 0 1 163.168 -2.667)" font-size="12">3\1\1</text>
<text transform="matrix(1 0 0 1 -61.5 131.667)" font-size="12">1\2\1</text>
<text transform="matrix(1 0 0 1 48.834 132.333)" font-size="12">2\2\1</text>
<text transform="matrix(1 0 0 1 162.168 133.333)" font-size="12">3\2\1</text>
<text transform="matrix(1 0 0 1 -201 314.5)" font-size="12">Gantry Left</text>
<text transform="matrix(1 0 0 1 253.5 314)" font-size="12">Gantry Right</text>
<text transform="matrix(1 0 0 1 -203.5 -94.3335)" font-size="12">View from front of gantry</text>
</svg>
