<?xml version="1.0" encoding="utf-8"?>

<!DOCTYPE svg PUBLIC "-//W3C//DTD SVG 1.1//EN" "http://www.w3.org/Graphics/SVG/1.1/DTD/svg11.dtd">
<svg version="1.1" id="Layer_1" xmlns="http://www.w3.org/2000/svg" xmlns:xlink="http://www.w3.org/1999/xlink" x="0px" y="0px"
	 width="502px" height="372px" viewBox="0 0 502 372" enable-background="new 0 0 502 372" xml:space="preserve">

<defs>
	<style type="text/css">
	text {
	  font-family: Helvetica, Verdana, ArialUnicodeMS, san-serif
	}
	</style>
</defs>

<g>
   <desc>
	PS 3.3 Information Object Definitions
   </desc>
</g>

<rect x="1" y="1" fill="#F5EED6" width="500" height="370"/>
<g>
	<g>
		<polygon fill="#FFFFFF" points="31.565,41.927 31.565,186.52 38.766,193.519 24.365,202.019 31.565,208.519 31.565,356.544 
			143.15,356.544 143.15,208.269 135.95,202.019 150.351,193.519 143.15,186.52 143.15,42.26 		"/>
		<polyline fill="none" stroke="#000000" stroke-linecap="round" stroke-linejoin="round" stroke-miterlimit="1" points="
			143.15,356.544 143.15,208.269 135.95,202.019 150.351,193.519 143.15,186.52 143.15,42.26 		"/>
		<polyline fill="none" stroke="#000000" stroke-linecap="round" stroke-linejoin="round" stroke-miterlimit="1" points="
			31.565,41.927 31.565,186.52 38.766,193.519 24.365,202.019 31.565,208.519 31.565,356.544 		"/>
		<polygon fill="#E6E6E6" stroke="#000000" stroke-miterlimit="1" points="31.565,299.445 31.565,347.471 143.15,347.471 
			143.15,299.434 		"/>
		<g>
			<polygon fill="#CCCCCC" stroke="#000000" stroke-miterlimit="1" points="31.565,99.183 31.565,186.52 38.766,193.519 
				24.365,202.019 31.565,208.519 31.565,299.445 143.15,299.434 143.15,208.269 135.95,202.019 150.351,193.519 143.15,186.52 
				143.15,99.183 			"/>
		</g>
		<rect x="31.565" y="51.795" fill="#E6E6E6" stroke="#000000" stroke-miterlimit="1" width="111.585" height="47.388"/>
		<rect x="31.649" y="99.595" fill="#999999" stroke="#000000" stroke-miterlimit="1" width="111.417" height="9.417"/>
		<rect x="31.649" y="290.025" fill="#999999" stroke="#000000" stroke-miterlimit="1" width="111.417" height="9.417"/>
		<path fill="#86B2D8" stroke="#010101" stroke-linecap="round" stroke-linejoin="round" stroke-miterlimit="1" d="M31.565,356.433"
			/>
		
			<line fill="#86B2D8" stroke="#010101" stroke-linecap="round" stroke-linejoin="round" stroke-miterlimit="1" x1="31.565" y1="346.925" x2="143.15" y2="346.925"/>
		
			<line fill="#86B2D8" stroke="#010101" stroke-linecap="round" stroke-linejoin="round" stroke-miterlimit="1" x1="31.565" y1="337.415" x2="143.15" y2="337.415"/>
		
			<line fill="#86B2D8" stroke="#010101" stroke-linecap="round" stroke-linejoin="round" stroke-miterlimit="1" x1="31.565" y1="327.907" x2="143.15" y2="327.907"/>
		
			<line fill="#86B2D8" stroke="#010101" stroke-linecap="round" stroke-linejoin="round" stroke-miterlimit="1" x1="31.565" y1="318.397" x2="143.15" y2="318.397"/>
		
			<line fill="#86B2D8" stroke="#010101" stroke-linecap="round" stroke-linejoin="round" stroke-miterlimit="1" x1="31.565" y1="308.89" x2="143.15" y2="308.89"/>
		
			<line fill="#86B2D8" stroke="#010101" stroke-linecap="round" stroke-linejoin="round" stroke-miterlimit="1" x1="31.565" y1="299.38" x2="143.15" y2="299.38"/>
		
			<line fill="#86B2D8" stroke="#010101" stroke-linecap="round" stroke-linejoin="round" stroke-miterlimit="1" x1="31.565" y1="289.872" x2="143.15" y2="289.872"/>
		
			<line fill="#86B2D8" stroke="#010101" stroke-linecap="round" stroke-linejoin="round" stroke-miterlimit="1" x1="31.565" y1="280.362" x2="143.15" y2="280.362"/>
		
			<line fill="#86B2D8" stroke="#010101" stroke-linecap="round" stroke-linejoin="round" stroke-miterlimit="1" x1="31.565" y1="270.854" x2="143.15" y2="270.854"/>
		
			<line fill="#86B2D8" stroke="#010101" stroke-linecap="round" stroke-linejoin="round" stroke-miterlimit="1" x1="31.565" y1="261.345" x2="143.15" y2="261.345"/>
		
			<line fill="#86B2D8" stroke="#010101" stroke-linecap="round" stroke-linejoin="round" stroke-miterlimit="1" x1="31.565" y1="251.837" x2="143.15" y2="251.837"/>
		
			<line fill="#86B2D8" stroke="#010101" stroke-linecap="round" stroke-linejoin="round" stroke-miterlimit="1" x1="31.565" y1="242.327" x2="143.15" y2="242.327"/>
		
			<line fill="#86B2D8" stroke="#010101" stroke-linecap="round" stroke-linejoin="round" stroke-miterlimit="1" x1="31.565" y1="232.817" x2="143.15" y2="232.817"/>
		
			<line fill="#86B2D8" stroke="#010101" stroke-linecap="round" stroke-linejoin="round" stroke-miterlimit="1" x1="31.565" y1="166.257" x2="143.15" y2="166.257"/>
		
			<line fill="#86B2D8" stroke="#010101" stroke-linecap="round" stroke-linejoin="round" stroke-miterlimit="1" x1="31.565" y1="156.748" x2="143.15" y2="156.748"/>
		
			<line fill="#86B2D8" stroke="#010101" stroke-linecap="round" stroke-linejoin="round" stroke-miterlimit="1" x1="31.565" y1="147.135" x2="143.15" y2="147.135"/>
		
			<line fill="#86B2D8" stroke="#010101" stroke-linecap="round" stroke-linejoin="round" stroke-miterlimit="1" x1="31.565" y1="137.626" x2="143.15" y2="137.626"/>
		
			<line fill="#86B2D8" stroke="#010101" stroke-linecap="round" stroke-linejoin="round" stroke-miterlimit="1" x1="31.565" y1="128.117" x2="143.15" y2="128.117"/>
		
			<line fill="#86B2D8" stroke="#010101" stroke-linecap="round" stroke-linejoin="round" stroke-miterlimit="1" x1="31.565" y1="118.608" x2="143.15" y2="118.608"/>
		
			<line fill="#86B2D8" stroke="#010101" stroke-linecap="round" stroke-linejoin="round" stroke-miterlimit="1" x1="31.565" y1="109.1" x2="143.15" y2="109.1"/>
		
			<line fill="#86B2D8" stroke="#010101" stroke-linecap="round" stroke-linejoin="round" stroke-miterlimit="1" x1="31.565" y1="99.591" x2="143.15" y2="99.591"/>
		
			<line fill="#86B2D8" stroke="#010101" stroke-linecap="round" stroke-linejoin="round" stroke-miterlimit="1" x1="31.565" y1="90.082" x2="143.15" y2="90.082"/>
		
			<line fill="#86B2D8" stroke="#010101" stroke-linecap="round" stroke-linejoin="round" stroke-miterlimit="1" x1="31.565" y1="80.573" x2="143.15" y2="80.573"/>
		
			<line fill="#86B2D8" stroke="#010101" stroke-linecap="round" stroke-linejoin="round" stroke-miterlimit="1" x1="31.565" y1="71.064" x2="143.15" y2="71.064"/>
		
			<line fill="#86B2D8" stroke="#010101" stroke-linecap="round" stroke-linejoin="round" stroke-miterlimit="1" x1="31.565" y1="61.556" x2="143.15" y2="61.556"/>
		
			<line fill="#86B2D8" stroke="#010101" stroke-linecap="round" stroke-linejoin="round" stroke-miterlimit="1" x1="31.565" y1="52.046" x2="143.15" y2="52.046"/>
	</g>
	<path fill="#86B2D8" stroke="#010101" stroke-linecap="round" stroke-linejoin="round" stroke-miterlimit="1" d="M143.15,356.433"
		/>
	<g>
		<g>
			<text transform="matrix(0.9288 0 0 1 409.3691 95.7842)" font-size="9.6631">R</text>
		</g>
		<g>
			<text transform="matrix(0.9288 0 0 1 435.0352 95.7842)" font-size="9.6631">G</text>
		</g>
		<g>
			<text transform="matrix(0.9288 0 0 1 461.4473 95.7842)" font-size="9.6631">B</text>
		</g>
		<rect x="400.302" y="99.665" fill="#CCDEF0" width="77.242" height="199.942"/>
		<rect x="400.228" y="99.595" fill="#86B2D8" width="77.333" height="8.334"/>
		<rect x="400.302" y="291.274" fill="#86B2D8" width="77.333" height="8.333"/>
		
			<rect x="400.302" y="99.665" fill="none" stroke="#010101" stroke-width="1.0605" stroke-linecap="round" stroke-linejoin="round" stroke-miterlimit="1" width="77.242" height="199.942"/>
		
			<line fill="#86B2D8" stroke="#010101" stroke-width="0.75" stroke-linecap="round" stroke-linejoin="round" stroke-miterlimit="1" x1="400.302" y1="216.812" x2="477.544" y2="216.812"/>
		
			<line fill="#86B2D8" stroke="#010101" stroke-width="0.75" stroke-linecap="round" stroke-linejoin="round" stroke-miterlimit="1" x1="400.302" y1="208.444" x2="477.544" y2="208.444"/>
		
			<line fill="#86B2D8" stroke="#010101" stroke-width="0.75" stroke-linecap="round" stroke-linejoin="round" stroke-miterlimit="1" x1="400.302" y1="225.198" x2="477.544" y2="225.198"/>
		
			<line fill="#86B2D8" stroke="#010101" stroke-width="0.75" stroke-linecap="round" stroke-linejoin="round" stroke-miterlimit="1" x1="400.302" y1="200.079" x2="477.544" y2="200.079"/>
		
			<line fill="#86B2D8" stroke="#010101" stroke-width="0.75" stroke-linecap="round" stroke-linejoin="round" stroke-miterlimit="1" x1="400.302" y1="191.718" x2="477.544" y2="191.718"/>
		
			<line fill="#86B2D8" stroke="#010101" stroke-width="0.75" stroke-linecap="round" stroke-linejoin="round" stroke-miterlimit="1" x1="400.302" y1="183.351" x2="477.544" y2="183.351"/>
		
			<line fill="#86B2D8" stroke="#010101" stroke-width="0.75" stroke-linecap="round" stroke-linejoin="round" stroke-miterlimit="1" x1="400.302" y1="174.985" x2="477.544" y2="174.985"/>
		
			<line fill="#86B2D8" stroke="#010101" stroke-width="0.75" stroke-linecap="round" stroke-linejoin="round" stroke-miterlimit="1" x1="400.302" y1="166.62" x2="477.544" y2="166.62"/>
		
			<line fill="#86B2D8" stroke="#010101" stroke-width="0.75" stroke-linecap="round" stroke-linejoin="round" stroke-miterlimit="1" x1="400.302" y1="158.224" x2="477.544" y2="158.224"/>
		
			<line fill="#86B2D8" stroke="#010101" stroke-width="0.75" stroke-linecap="round" stroke-linejoin="round" stroke-miterlimit="1" x1="400.302" y1="149.858" x2="477.544" y2="149.858"/>
		
			<line fill="#86B2D8" stroke="#010101" stroke-width="0.75" stroke-linecap="round" stroke-linejoin="round" stroke-miterlimit="1" x1="400.302" y1="141.493" x2="477.544" y2="141.493"/>
		
			<line fill="#86B2D8" stroke="#010101" stroke-width="0.75" stroke-linecap="round" stroke-linejoin="round" stroke-miterlimit="1" x1="400.302" y1="133.128" x2="477.544" y2="133.128"/>
		
			<line fill="#86B2D8" stroke="#010101" stroke-width="0.75" stroke-linecap="round" stroke-linejoin="round" stroke-miterlimit="1" x1="400.302" y1="124.761" x2="477.544" y2="124.761"/>
		
			<line fill="#86B2D8" stroke="#010101" stroke-width="0.75" stroke-linecap="round" stroke-linejoin="round" stroke-miterlimit="1" x1="400.302" y1="116.396" x2="477.544" y2="116.396"/>
		
			<line fill="#86B2D8" stroke="#010101" stroke-width="0.75" stroke-linecap="round" stroke-linejoin="round" stroke-miterlimit="1" x1="400.302" y1="108.03" x2="477.544" y2="108.03"/>
		
			<line fill="#86B2D8" stroke="#010101" stroke-width="0.75" stroke-linecap="round" stroke-linejoin="round" stroke-miterlimit="1" x1="451.803" y1="99.665" x2="451.803" y2="299.345"/>
		
			<line fill="#86B2D8" stroke="#010101" stroke-width="0.75" stroke-linecap="round" stroke-linejoin="round" stroke-miterlimit="1" x1="426.044" y1="99.665" x2="426.044" y2="299.595"/>
		
			<line fill="#86B2D8" stroke="#010101" stroke-width="0.75" stroke-linecap="round" stroke-linejoin="round" stroke-miterlimit="1" x1="400.302" y1="291.499" x2="477.544" y2="291.499"/>
		
			<line fill="#86B2D8" stroke="#010101" stroke-width="0.75" stroke-linecap="round" stroke-linejoin="round" stroke-miterlimit="1" x1="400.302" y1="283.103" x2="477.544" y2="283.103"/>
		
			<line fill="#86B2D8" stroke="#010101" stroke-width="0.75" stroke-linecap="round" stroke-linejoin="round" stroke-miterlimit="1" x1="400.302" y1="274.737" x2="477.544" y2="274.737"/>
		
			<line fill="#86B2D8" stroke="#010101" stroke-width="0.75" stroke-linecap="round" stroke-linejoin="round" stroke-miterlimit="1" x1="400.302" y1="266.372" x2="477.544" y2="266.372"/>
		
			<line fill="#86B2D8" stroke="#010101" stroke-width="0.75" stroke-linecap="round" stroke-linejoin="round" stroke-miterlimit="1" x1="400.302" y1="258.007" x2="477.544" y2="258.007"/>
		
			<line fill="#86B2D8" stroke="#010101" stroke-width="0.75" stroke-linecap="round" stroke-linejoin="round" stroke-miterlimit="1" x1="400.302" y1="249.64" x2="477.544" y2="249.64"/>
		
			<line fill="#86B2D8" stroke="#010101" stroke-width="0.75" stroke-linecap="round" stroke-linejoin="round" stroke-miterlimit="1" x1="400.302" y1="241.274" x2="477.544" y2="241.274"/>
		
			<line fill="#86B2D8" stroke="#010101" stroke-width="0.75" stroke-linecap="round" stroke-linejoin="round" stroke-miterlimit="1" x1="400.302" y1="232.909" x2="477.544" y2="232.909"/>
		<rect x="409.539" y="73.456" fill="none" width="57.973" height="10.685"/>
		<text transform="matrix(0.9288 0 0 1 417.3652 80.6133)" font-size="10">Color LUT</text>
	</g>
	<g>
		<polygon fill="#FFFFFF" stroke="#4F8ABE" stroke-linecap="round" stroke-linejoin="round" stroke-miterlimit="1" points="
			163.907,212.658 163.907,183.685 343.534,183.685 343.534,173.245 371.093,198.496 343.534,223.755 343.534,212.658 		"/>
		<g>
			<rect x="197.439" y="189.407" fill="none" width="114.807" height="18.167"/>
			<text transform="matrix(0.9288 0 0 1 205.46 195.0664)"><tspan x="0" y="0" font-size="7.9062">Mapping from Float to LUT via</tspan><tspan x="-5.95" y="9.488" font-size="7.9062">Linear Interpolation by application</tspan></text>
		</g>
	</g>
	<g>
		<polyline fill="none" stroke="#000000" stroke-linecap="round" stroke-miterlimit="1" points="172.601,119.595 158.974,119.595 
			146.07,105.595 		"/>
		<g>
			<g>
				
					<line fill="none" stroke="#005695" stroke-linecap="round" stroke-miterlimit="1" x1="145.978" y1="103.661" x2="392.944" y2="103.661"/>
				<g>
					<polygon fill="#005695" points="391.755,105.404 398.26,103.661 391.755,101.918 					"/>
				</g>
			</g>
		</g>
		<g>
			<g>
				
					<line fill="none" stroke="#005695" stroke-linecap="round" stroke-miterlimit="1" x1="155.978" y1="71.411" x2="392.984" y2="100.758"/>
				<g>
					<polygon fill="#005695" points="391.591,102.342 398.26,101.411 392.019,98.882 					"/>
				</g>
			</g>
		</g>
		<polyline fill="none" stroke="#005695" stroke-miterlimit="1" points="145.734,94.653 153.189,94.653 153.189,44.061 		"/>
	</g>
	<g>
		<polyline fill="none" stroke="#000000" stroke-linecap="round" stroke-miterlimit="1" points="172.601,279.261 158.974,279.261 
			146.07,293.261 		"/>
		<g>
			<g>
				
					<line fill="none" stroke="#005695" stroke-linecap="round" stroke-miterlimit="1" x1="145.978" y1="294.729" x2="392.944" y2="294.729"/>
				<g>
					<polygon fill="#005695" points="391.755,296.472 398.26,294.729 391.755,292.985 					"/>
				</g>
			</g>
		</g>
		<g>
			<g>
				
					<line fill="none" stroke="#005695" stroke-linecap="round" stroke-miterlimit="1" x1="155.978" y1="326.979" x2="392.984" y2="297.632"/>
				<g>
					<polygon fill="#005695" points="392.019,299.508 398.26,296.979 391.591,296.048 					"/>
				</g>
			</g>
		</g>
		<polyline fill="none" stroke="#005695" stroke-miterlimit="1" points="145.734,303.736 153.189,303.736 153.189,354.329 		"/>
	</g>
	<rect x="47.121" y="15.456" fill="none" width="80.473" height="23.685"/>
	<text transform="matrix(0.9288 0 0 1 58.1846 22.6104)"><tspan x="0" y="0" font-size="10">Stored Values</tspan><tspan x="-2.776" y="12" font-size="10">(floats/doubles)</tspan></text>
	<rect x="174.124" y="275.792" fill="none" width="147.018" height="9.596"/>
	<text transform="matrix(0.9288 0 0 1 174.3613 281.4492)" font-size="7.9062">Maximum Stored Value Mapped (0028,1232)</text>
	<rect x="174.124" y="116.458" fill="none" width="147.018" height="9.596"/>
	<text transform="matrix(0.9288 0 0 1 175.3813 122.1162)" font-size="7.9062">Minimum Stored Value Mapped (0028,1231)</text>
	<rect x="47.42" y="191.167" fill="none" width="79.875" height="11.703"/>
	<text transform="matrix(0.9288 0 0 1 79.6162 199.7578)" font-size="12">. . .</text>
	<g>
		<g>
			<g>
				
					<line fill="none" stroke="#005695" stroke-width="1.2429" stroke-linecap="round" stroke-miterlimit="1" x1="388.783" y1="106.896" x2="388.783" y2="284.822"/>
				<g>
					<polygon fill="#005695" points="386.616,283.344 388.783,291.429 390.95,283.344 					"/>
				</g>
			</g>
		</g>
	</g>
	<text transform="matrix(0.9288 0 0 1 342.2363 140.8452)"><tspan x="0" y="0" font-size="7.9062">Palette Color</tspan><tspan x="-18.009" y="9.487" font-size="7.9062">Number of Entries</tspan></text>
</g>
</svg>
