<?xml version="1.0" encoding="utf-8"?>

<!DOCTYPE svg PUBLIC "-//W3C//DTD SVG 1.1//EN" "http://www.w3.org/Graphics/SVG/1.1/DTD/svg11.dtd">
<svg version="1.1" id="Layer_1" xmlns="http://www.w3.org/2000/svg" xmlns:xlink="http://www.w3.org/1999/xlink" x="0px" y="0px"
	 width="602px" height="522px" viewBox="0 0 602 522" enable-background="new 0 0 602 522" xml:space="preserve">

<defs>
	<style type="text/css">
	text {
	  font-family: Helvetica, Verdana, ArialUnicodeMS, san-serif
	}
	</style>
</defs>

<g>
   <desc>
	PS 3.3 Part 3: Information Object Definitions
   </desc>
</g>

<g>
	<rect x="1" y="1" fill="#F5EED8" width="600" height="520"/>
	<g>
		<g>
			
				<line fill="none" stroke="#000000" stroke-width="0.5" stroke-dasharray="4,4" x1="108.483" y1="396.67" x2="108.483" y2="170.188"/>
			<rect x="54.114" y="42.62" fill="#C2E2CC" width="112.875" height="462.001"/>
			<line fill="none" stroke="#000000" stroke-miterlimit="10" x1="54.113" y1="42.62" x2="54.113" y2="505.288"/>
			<line fill="none" stroke="#000000" stroke-miterlimit="10" x1="166.989" y1="42.62" x2="166.989" y2="505.288"/>
			<rect x="69.303" y="88.7" fill="#CEDFEF" stroke="#000000" width="84.165" height="308.97"/>
			<polyline fill="#FFF479" points="169.867,396.978 149.232,140.193 54.114,396.978 			"/>
			<line fill="none" stroke="#FFFFFF" stroke-miterlimit="10" x1="149.232" y1="140.193" x2="63.133" y2="400.142"/>
			<line fill="none" stroke="#FFFFFF" stroke-miterlimit="10" x1="149.232" y1="140.193" x2="72.26" y2="402.99"/>
			<line fill="none" stroke="#FFFFFF" stroke-miterlimit="10" x1="149.232" y1="140.193" x2="81.48" y2="405.515"/>
			<line fill="none" stroke="#FFFFFF" stroke-miterlimit="10" x1="149.232" y1="140.193" x2="90.782" y2="407.715"/>
			<line fill="none" stroke="#FFFFFF" stroke-miterlimit="10" x1="149.232" y1="140.193" x2="100.155" y2="409.593"/>
			<line fill="none" stroke="#FFFFFF" stroke-miterlimit="10" x1="149.232" y1="140.193" x2="109.589" y2="411.144"/>
			<line fill="none" stroke="#FFFFFF" stroke-miterlimit="10" x1="149.232" y1="140.193" x2="119.072" y2="412.359"/>
			<line fill="none" stroke="#FFFFFF" stroke-miterlimit="10" x1="149.232" y1="140.193" x2="128.588" y2="413.248"/>
			<line fill="none" stroke="#FFFFFF" stroke-miterlimit="10" x1="149.232" y1="140.193" x2="138.132" y2="413.805"/>
			<line fill="none" stroke="#FFFFFF" stroke-miterlimit="10" x1="149.232" y1="140.193" x2="147.688" y2="414.023"/>
			<line fill="none" stroke="#FFFFFF" stroke-miterlimit="10" x1="149.232" y1="140.193" x2="157.246" y2="413.912"/>
			<line fill="none" stroke="#FFFFFF" stroke-miterlimit="10" x1="149.232" y1="140.193" x2="166.797" y2="413.468"/>
			<path fill="#B4CFE6" stroke="#000000" d="M176.459,425.876c0,4.753-29.25,8.609-65.33,8.609c-36.08,0-65.329-3.856-65.329-8.609
				l-0.005-28.387h130.665V425.876z"/>
			<polyline fill="none" stroke="#000000" stroke-width="0.5" stroke-miterlimit="10" points="169.867,396.978 149.232,140.193 
				54.114,396.978 			"/>
			<path fill="#CEDFEF" stroke="#000000" d="M195.57,97.792c1.075-6.777-15.446-15.027-36.896-18.426
				c-21.451-3.396-39.709-0.655-40.782,6.123l-5.159,96.895l57.794,9.152L195.57,97.792z"/>
			<polygon fill="#FFFFFF" stroke="#000000" stroke-width="0.5" stroke-miterlimit="10" points="165.989,417.488 56.344,404.484 
				57.266,398.545 166.912,411.549 			"/>
			<g>
				<text transform="matrix(1 -0.0019 0.0019 1 134.4272 428.3809)"><tspan x="0" y="0" fill="#EB222F" font-size="13.6">+X</tspan><tspan x="17.013" y="2.55" fill="#EB222F" font-size="13.6">d</tspan></text>
			</g>
			<g>
				<text transform="matrix(1 -0.0019 0.0019 1 86.9722 367.5762)"><tspan x="0" y="0" fill="#00B0ED" font-size="13.6">+Z</tspan><tspan x="16.25" y="2.549" fill="#00B0ED" font-size="13.6">d</tspan></text>
			</g>
			<g>
				<text transform="matrix(1 0 0 1 65.7461 422.2598)"><tspan x="0" y="0" font-size="13.6">O</tspan><tspan x="10.579" y="2.55" font-size="13.6">d</tspan></text>
			</g>
			<g>
				<g>
					<line fill="none" stroke="#EB222F" stroke-width="2" x1="89.294" y1="417.558" x2="127.038" y2="422.044"/>
					<g>
						<polygon fill="#EB222F" points="124.727,424.695 135.835,423.09 125.413,418.925 						"/>
					</g>
				</g>
			</g>
			<path fill="#FFFFFF" stroke="#000000" stroke-miterlimit="1" d="M93.877,417.783c0.005-2.115-1.712-3.826-3.824-3.826v3.826
				H93.877z"/>
			<path fill="#808080" stroke="#000000" stroke-linecap="round" stroke-linejoin="round" stroke-miterlimit="1" d="M90.053,413.957
				c-2.111,0-3.827,1.715-3.827,3.826h3.827V413.957z"/>
			<path fill="#FFFFFF" stroke="#000000" stroke-miterlimit="1" d="M86.227,417.783c0.001,2.117,1.715,3.824,3.832,3.824
				l-0.005-3.824H86.227z"/>
			<path fill="#808080" stroke="#000000" stroke-linecap="round" stroke-linejoin="round" stroke-miterlimit="1" d="M90.053,417.783
				l0.005,3.824c2.109,0,3.825-1.714,3.819-3.824H90.053z"/>
			<path fill="#FDD931" d="M140.026,144.053c0-4.411,3.482-7.988,7.772-7.988c4.289,0,7.772,3.577,7.772,7.988
				s-3.483,7.984-7.772,7.984C143.509,152.037,140.026,148.464,140.026,144.053z"/>
			<path d="M147.087,144.207c0-0.436,0.354-0.788,0.781-0.788c0.436,0,0.79,0.353,0.79,0.788c0,0.432-0.354,0.783-0.79,0.783
				C147.441,144.99,147.087,144.639,147.087,144.207z"/>
			<path d="M148.823,142.42c0.598,0.343,1.004,1.001,1.004,1.758c0,0.06-0.003,0.112-0.007,0.169h4.762
				c0.003-0.057,0.003-0.112,0.003-0.169c0-2.559-1.359-4.797-3.378-5.985L148.823,142.42z"/>
			<path d="M146.955,142.42c-0.604,0.343-1.012,1.001-1.012,1.758c0,0.06,0.004,0.112,0.007,0.169h-4.762c0-0.057,0-0.112,0-0.169
				c0-2.559,1.355-4.797,3.371-5.985L146.955,142.42z"/>
			<path d="M148.982,145.854c-0.595,0.349-1.374,0.468-2.027,0.09c-0.046-0.029-0.096-0.061-0.142-0.09l-2.382,4.121
				c0.05,0.028,0.096,0.059,0.145,0.089c2.218,1.279,4.834,1.064,6.874-0.089L148.982,145.854z"/>
			<g>
				<g>
					<line fill="none" stroke="#000000" stroke-width="0.5" x1="150.225" y1="30.665" x2="149.608" y2="34.617"/>
					
						<line fill="none" stroke="#000000" stroke-width="0.5" stroke-dasharray="1.9755,1.9755" x1="149.303" y1="36.569" x2="148.847" y2="39.497"/>
					
						<line fill="none" stroke="#000000" stroke-width="0.5" stroke-dasharray="7.9022,1.9755,1.9755,1.9755" x1="148.694" y1="40.473" x2="91.289" y2="408.412"/>
					<line fill="none" stroke="#000000" stroke-width="0.5" x1="91.136" y1="409.388" x2="90.52" y2="413.34"/>
				</g>
			</g>
			
				<line fill="none" stroke="#000000" stroke-width="0.5" stroke-dasharray="4,4" x1="90.094" y1="417.557" x2="90.094" y2="26.247"/>
			<g>
				<text transform="matrix(1.0877 0 0 1 113.9443 25.811)"><tspan x="0" y="0" font-size="10.2">Ad</tspan><tspan x="11.823" y="5.053" font-size="10.2">1</tspan></text>
			</g>
			<g>
				<g>
					<path fill="none" stroke="#005995" stroke-width="2" stroke-miterlimit="10" d="M138.554,36.524
						c-12.474-1.575-25.134-2.551-37.951-2.899"/>
					<g>
						<polygon fill="#005995" points="136.654,32.806 149.08,38.001 135.722,39.716 						"/>
					</g>
					<g>
						<polygon fill="#005995" points="103.043,30.244 89.97,33.48 102.91,37.215 						"/>
					</g>
				</g>
			</g>
			<g>
				<g>
					<line fill="none" stroke="#00B0ED" stroke-width="2" x1="89.97" y1="417.605" x2="96.032" y2="379.343"/>
					<g>
						<polygon fill="#00B0ED" points="98.591,381.755 97.418,370.593 92.853,380.846 						"/>
					</g>
				</g>
			</g>
		</g>
		<g>
			<rect x="494.828" y="42.62" fill="#C2E2CC" width="61.377" height="462.668"/>
			<line fill="none" stroke="#000000" stroke-miterlimit="10" x1="494.828" y1="42.62" x2="494.828" y2="505.288"/>
			<polyline fill="#FFF479" points="287.632,397.366 308.26,140.582 403.365,397.366 			"/>
			<line fill="none" stroke="#FFFFFF" stroke-miterlimit="10" x1="308.186" y1="140.582" x2="397.32" y2="400.532"/>
			<line fill="none" stroke="#FFFFFF" stroke-miterlimit="10" x1="308.186" y1="140.582" x2="388.195" y2="403.379"/>
			<line fill="none" stroke="#FFFFFF" stroke-miterlimit="10" x1="308.186" y1="140.582" x2="378.979" y2="405.903"/>
			<line fill="none" stroke="#FFFFFF" stroke-miterlimit="10" x1="308.186" y1="140.582" x2="369.68" y2="408.104"/>
			<line fill="none" stroke="#FFFFFF" stroke-miterlimit="10" x1="308.186" y1="140.582" x2="360.305" y2="409.983"/>
			<line fill="none" stroke="#FFFFFF" stroke-miterlimit="10" x1="308.186" y1="140.582" x2="350.871" y2="411.532"/>
			<line fill="none" stroke="#FFFFFF" stroke-miterlimit="10" x1="308.186" y1="140.582" x2="341.391" y2="412.749"/>
			<line fill="none" stroke="#FFFFFF" stroke-miterlimit="10" x1="308.186" y1="140.582" x2="331.875" y2="413.639"/>
			<line fill="none" stroke="#FFFFFF" stroke-miterlimit="10" x1="308.186" y1="140.582" x2="322.33" y2="414.192"/>
			<line fill="none" stroke="#FFFFFF" stroke-miterlimit="10" x1="308.186" y1="140.582" x2="312.779" y2="414.411"/>
			<line fill="none" stroke="#FFFFFF" stroke-miterlimit="10" x1="308.186" y1="140.582" x2="303.219" y2="414.3"/>
			<line fill="none" stroke="#FFFFFF" stroke-miterlimit="10" x1="308.186" y1="140.582" x2="293.678" y2="413.856"/>
			<polyline fill="none" stroke="#000000" stroke-width="0.5" stroke-miterlimit="10" points="287.632,397.366 308.26,140.582 
				403.365,397.366 			"/>
			<rect x="485.105" y="368.71" fill="#CEDFEF" stroke="#000000" width="9.723" height="56.41"/>
			<path fill="#CEDFEF" stroke="#000000" d="M438.369,433.721c27.141,0.052,46.736-0.175,46.736-0.175V87.942
				c0-5.608-47.992-10.157-107.197-10.157s-107.203,4.549-107.203,10.157l10.158,94.022h55.976l2.811-20.102l98.77-8.646
				L438.369,433.721z"/>
			<path fill="#B4CFE6" stroke="#000000" d="M438.574,396.922H281.067v28.206c10.406,7.174,100.5,8.496,157.507,8.602V396.922z"/>
			<path fill="#FDD931" d="M281.68,143.295c0-4.411,3.484-7.988,7.773-7.988s7.767,3.577,7.767,7.988s-3.478,7.984-7.767,7.984
				S281.68,147.706,281.68,143.295z"/>
			<path d="M288.743,143.449c0-0.436,0.354-0.788,0.779-0.788c0.437,0,0.791,0.353,0.791,0.788c0,0.432-0.354,0.783-0.791,0.783
				C289.096,144.232,288.743,143.881,288.743,143.449z"/>
			<path d="M290.477,141.662c0.598,0.343,1.006,1.001,1.006,1.758c0,0.06-0.002,0.112-0.004,0.169h4.756
				c0.004-0.057,0.004-0.112,0.004-0.169c0-2.559-1.356-4.797-3.375-5.985L290.477,141.662z"/>
			<path d="M288.61,141.662c-0.604,0.343-1.008,1.001-1.008,1.758c0,0.06,0.001,0.112,0.006,0.169h-4.764c0-0.057,0-0.112,0-0.169
				c0-2.559,1.355-4.797,3.373-5.985L288.61,141.662z"/>
			<path d="M290.638,145.096c-0.598,0.349-1.371,0.468-2.028,0.09c-0.045-0.029-0.092-0.061-0.14-0.09l-2.386,4.121
				c0.052,0.028,0.097,0.059,0.146,0.089c2.22,1.279,4.836,1.064,6.876-0.089L290.638,145.096z"/>
			<polygon fill="#FFFFFF" stroke="#000000" stroke-width="0.5" stroke-miterlimit="10" points="398.74,416.731 289.115,403.728 
				290.037,397.788 399.664,410.792 			"/>
			<g>
				<g>
					<line fill="none" stroke="#21B152" stroke-width="2" x1="326.578" y1="415.663" x2="366.259" y2="420.229"/>
					<g>
						<polygon fill="#21B152" points="363.959,422.889 375.061,421.242 364.623,417.116 						"/>
					</g>
				</g>
			</g>
			<path fill="#FFFFFF" stroke="#000000" stroke-miterlimit="1" d="M330.27,415.497c0.004-2.115-1.713-3.827-3.824-3.827v3.827
				H330.27z"/>
			<path fill="#808080" stroke="#000000" stroke-linecap="round" stroke-linejoin="round" stroke-miterlimit="1" d="M326.445,411.67
				c-2.111,0-3.826,1.715-3.826,3.827h3.826V411.67z"/>
			<path fill="#FFFFFF" stroke="#000000" stroke-miterlimit="1" d="M322.619,415.497c0.002,2.116,1.715,3.822,3.83,3.822
				l-0.004-3.822H322.619z"/>
			<path fill="#808080" stroke="#000000" stroke-linecap="round" stroke-linejoin="round" stroke-miterlimit="1" d="
				M326.445,415.497l0.004,3.822c2.109,0,3.824-1.713,3.82-3.822H326.445z"/>
			<g>
				<text transform="matrix(1 -0.0019 0.0019 1 374.6436 429.1543)"><tspan x="0" y="0" fill="#21B152" font-size="13.6">+Y</tspan><tspan x="17.014" y="2.549" fill="#21B152" font-size="13.6">d</tspan></text>
			</g>
			<g>
				<text transform="matrix(1 -0.0019 0.0019 1 334.2256 368.9609)"><tspan x="0" y="0" fill="#00B0ED" font-size="13.6">+Z</tspan><tspan x="16.25" y="2.549" fill="#00B0ED" font-size="13.6">d</tspan></text>
			</g>
			<g>
				<text transform="matrix(1 0 0 1 302.9014 419.9727)"><tspan x="0" y="0" font-size="13.6">O</tspan><tspan x="10.578" y="2.55" font-size="13.6">d</tspan></text>
			</g>
			
				<line fill="none" stroke="#000000" stroke-width="0.5" stroke-dasharray="4,4" x1="326.373" y1="433.766" x2="326.373" y2="30.665"/>
			
				<line fill="none" stroke="#000000" stroke-width="0.5" stroke-dasharray="8,2,2,2" x1="326.664" y1="414.852" x2="368.439" y2="30.665"/>
			<g>
				<text transform="matrix(1.0877 0 0 1 338.082 25.7534)"><tspan x="0" y="0" font-size="10.2">Ad</tspan><tspan x="11.824" y="2.55" font-size="8.5">2</tspan></text>
			</g>
			<g>
				<g>
					<path fill="none" stroke="#005995" stroke-width="2" stroke-miterlimit="10" d="M357.352,34.306
						c-6.667-0.53-13.382-0.89-20.14-1.074"/>
					<g>
						<polygon fill="#005995" points="355.248,30.777 367.936,35.296 354.688,37.728 						"/>
					</g>
					<g>
						<polygon fill="#005995" points="339.676,29.95 326.578,33.087 339.489,36.92 						"/>
					</g>
				</g>
			</g>
			<g>
				<g>
					<line fill="none" stroke="#00B0ED" stroke-width="2" x1="326.389" y1="415.503" x2="330.991" y2="375.496"/>
					<g>
						<polygon fill="#00B0ED" points="333.651,377.796 332.004,366.694 327.879,377.132 						"/>
					</g>
				</g>
			</g>
		</g>
	</g>
	<g display="none">
		<g display="inline">
			<line fill="none" stroke="#000000" stroke-width="0.5" x1="151.989" y1="112.6" x2="151.373" y2="116.552"/>
			
				<line fill="none" stroke="#000000" stroke-width="0.5" stroke-dasharray="1.9605,1.9605" x1="151.07" y1="118.489" x2="150.617" y2="121.395"/>
			
				<line fill="none" stroke="#000000" stroke-width="0.5" stroke-dasharray="7.8422,1.9605,1.9605,1.9605" x1="150.466" y1="122.363" x2="108.305" y2="392.59"/>
			<line fill="none" stroke="#000000" stroke-width="0.5" x1="108.154" y1="393.559" x2="107.537" y2="397.511"/>
		</g>
	</g>
	
		<line display="none" fill="none" stroke="#000000" stroke-width="0.5" stroke-dasharray="4,4" x1="289.7" y1="388.937" x2="289.7" y2="136.612"/>
</g>
</svg>
