<?xml version="1.0" encoding="utf-8"?>

<!DOCTYPE svg PUBLIC "-//W3C//DTD SVG 1.1//EN" "http://www.w3.org/Graphics/SVG/1.1/DTD/svg11.dtd">
<svg version="1.1" id="Layer_1" xmlns="http://www.w3.org/2000/svg" xmlns:xlink="http://www.w3.org/1999/xlink" x="0px" y="0px"
	 width="502px" height="332px" viewBox="0 0 502 332" enable-background="new 0 0 502 332" xml:space="preserve">

<defs>
	<style type="text/css">
	text {
	  font-family: Helvetica, Verdana, ArialUnicodeMS, san-serif
	}
	</style>
</defs>

<g>
   <desc>
	PS 3.3 Part 3: Information Object Definitions
   </desc>
</g>

<g>
	<rect x="1" y="1" fill="#F5EED6" width="500" height="330"/>
	<g>
		<rect x="309.738" y="172.652" fill="#6799C8" width="130.605" height="143.977"/>
		<text transform="matrix(0.9288 0 0 1 368.1289 227.5391)"><tspan x="0" y="0" font-size="8">Frames of</tspan><tspan x="0" y="9.6" font-size="8">Reconstruction 2</tspan></text>
		<rect x="309.738" y="28.676" fill="#B2CEE7" stroke="#B2CEE7" stroke-miterlimit="1" width="130.605" height="143.976"/>
		
			<rect x="61.657" y="14.87" fill="#CCDEF0" stroke="#010101" stroke-width="0.75" stroke-linecap="round" stroke-linejoin="round" stroke-miterlimit="1" width="242.89" height="301.607"/>
		<rect x="62.94" y="17.699" fill="none" width="205.157" height="8.511"/>
		<text transform="matrix(0.9288 0 0 1 62.9409 23.3838)" font-size="8">Per-Frame Functional Groups Sequence (5200,9230)</text>
		
			<rect x="79.222" y="28.676" fill="#86B2D8" stroke="#010101" stroke-width="0.75" stroke-linecap="round" stroke-linejoin="round" stroke-miterlimit="1" width="225.325" height="61.073"/>
		
			<rect x="96" y="43.837" fill="#B2CEE7" stroke="#010101" stroke-width="0.75" stroke-linecap="round" stroke-linejoin="round" stroke-miterlimit="1" width="208.547" height="45.912"/>
		<rect x="83.562" y="32.288" fill="none" width="198.935" height="8.512"/>
		<text transform="matrix(0.9288 0 0 1 83.5615 37.9736)" font-size="8">Item 1</text>
		<rect x="100.566" y="47.615" fill="none" width="176.348" height="8.511"/>
		<text transform="matrix(0.9288 0 0 1 100.5674 53.3003)" font-size="8">&gt;X-Ray 3D Frame Type Sequence (0018,9504)</text>
		
			<rect x="112.667" y="58.958" fill="#86B2D8" stroke="#010101" stroke-width="0.75" stroke-linecap="round" stroke-linejoin="round" stroke-miterlimit="1" width="191.88" height="30.792"/>
		<rect x="117.378" y="63.122" fill="none" width="123.967" height="8.51"/>
		<text transform="matrix(0.9288 0 0 1 117.3789 68.8154)" font-size="8">Item 1</text>
		
			<rect x="130" y="74.359" fill="#FFFFFF" stroke="#010101" stroke-width="0.75" stroke-linecap="round" stroke-linejoin="round" stroke-miterlimit="1" width="174.547" height="15.391"/>
		<rect x="138.139" y="79.137" fill="none" width="165.973" height="8.51"/>
		<text transform="matrix(0.9288 0 0 1 138.1387 84.8496)" font-size="8">&gt;&gt;Reconstruction Index (0020,9536)</text>
		
			<rect x="79.222" y="111.432" fill="#86B2D8" stroke="#010101" stroke-width="0.75" stroke-linecap="round" stroke-linejoin="round" stroke-miterlimit="1" width="225.325" height="61.072"/>
		
			<rect x="96" y="126.593" fill="#B2CEE7" stroke="#010101" stroke-width="0.75" stroke-linecap="round" stroke-linejoin="round" stroke-miterlimit="1" width="208.547" height="45.911"/>
		<rect x="83.562" y="115.044" fill="none" width="198.935" height="8.51"/>
		<text transform="matrix(0.9288 0 0 1 83.5615 120.729)" font-size="8">Item N</text>
		<rect x="100.566" y="130.37" fill="none" width="176.348" height="8.51"/>
		<text transform="matrix(0.9288 0 0 1 100.5674 136.0557)" font-size="8">&gt;X-Ray 3D Frame Type Sequence (0018,9504)</text>
		
			<rect x="112.667" y="141.714" fill="#86B2D8" stroke="#010101" stroke-width="0.75" stroke-linecap="round" stroke-linejoin="round" stroke-miterlimit="1" width="191.88" height="30.79"/>
		<rect x="117.378" y="145.876" fill="none" width="123.967" height="8.51"/>
		<text transform="matrix(0.9288 0 0 1 117.3789 151.5708)" font-size="8">Item 1</text>
		
			<rect x="130" y="157.114" fill="#FFFFFF" stroke="#010101" stroke-width="0.75" stroke-linecap="round" stroke-linejoin="round" stroke-miterlimit="1" width="174.547" height="15.39"/>
		<rect x="138.139" y="161.892" fill="none" width="165.973" height="8.509"/>
		<text transform="matrix(0.9288 0 0 1 138.1387 167.582)" font-size="8">&gt;&gt;Reconstruction Index (0020,9536)</text>
		
			<rect x="79.222" y="255.404" fill="#86B2D8" stroke="#010101" stroke-width="0.75" stroke-linecap="round" stroke-linejoin="round" stroke-miterlimit="1" width="225.325" height="61.072"/>
		
			<rect x="96" y="270.564" fill="#B2CEE7" stroke="#010101" stroke-width="0.75" stroke-linecap="round" stroke-linejoin="round" stroke-miterlimit="1" width="208.547" height="45.912"/>
		<rect x="83.562" y="259.016" fill="none" width="198.935" height="8.51"/>
		<text transform="matrix(0.9288 0 0 1 83.5615 264.7051)" font-size="8">Item N+k</text>
		<rect x="83.562" y="97.043" fill="none" width="198.935" height="8.511"/>
		<text transform="matrix(0.9288 0 0 1 83.5615 102.729)" font-size="8">....</text>
		<rect x="83.562" y="241.016" fill="none" width="198.935" height="8.51"/>
		<text transform="matrix(0.9288 0 0 1 83.5615 246.7051)" font-size="8">....</text>
		<rect x="100.566" y="274.342" fill="none" width="176.348" height="8.51"/>
		<text transform="matrix(0.9288 0 0 1 100.5674 280.0312)" font-size="8">&gt;X-Ray 3D Frame Type Sequence (0018,9504)</text>
		
			<rect x="112.667" y="285.686" fill="#86B2D8" stroke="#010101" stroke-width="0.75" stroke-linecap="round" stroke-linejoin="round" stroke-miterlimit="1" width="191.88" height="30.791"/>
		<rect x="117.378" y="289.848" fill="none" width="123.967" height="8.51"/>
		<text transform="matrix(0.9288 0 0 1 117.3789 295.5469)" font-size="8">Item 1</text>
		
			<rect x="130" y="301.086" fill="#FFFFFF" stroke="#010101" stroke-width="0.75" stroke-linecap="round" stroke-linejoin="round" stroke-miterlimit="1" width="174.547" height="15.391"/>
		<rect x="138.139" y="305.863" fill="none" width="165.973" height="8.51"/>
		<text transform="matrix(0.9288 0 0 1 138.1387 311.5576)" font-size="8">&gt;&gt;Reconstruction Index (0020,9536)</text>
		
			<rect x="79.222" y="172.652" fill="#86B2D8" stroke="#010101" stroke-width="0.75" stroke-linecap="round" stroke-linejoin="round" stroke-miterlimit="1" width="225.325" height="61.072"/>
		
			<rect x="96" y="187.812" fill="#B2CEE7" stroke="#010101" stroke-width="0.75" stroke-linecap="round" stroke-linejoin="round" stroke-miterlimit="1" width="208.547" height="45.912"/>
		<rect x="83.562" y="176.264" fill="none" width="198.935" height="8.51"/>
		<text transform="matrix(0.9288 0 0 1 83.5615 181.9492)" font-size="8">Item N+1</text>
		<rect x="100.566" y="191.59" fill="none" width="176.348" height="8.51"/>
		<text transform="matrix(0.9288 0 0 1 100.5674 197.2754)" font-size="8">&gt;X-Ray 3D Frame Type Sequence (0018,9504)</text>
		
			<rect x="112.667" y="202.934" fill="#86B2D8" stroke="#010101" stroke-width="0.75" stroke-linecap="round" stroke-linejoin="round" stroke-miterlimit="1" width="191.88" height="30.791"/>
		<rect x="117.378" y="207.096" fill="none" width="123.967" height="8.51"/>
		<text transform="matrix(0.9288 0 0 1 117.3789 212.791)" font-size="8">Item 1</text>
		
			<rect x="130" y="218.334" fill="#FFFFFF" stroke="#010101" stroke-width="0.75" stroke-linecap="round" stroke-linejoin="round" stroke-miterlimit="1" width="174.547" height="15.391"/>
		<rect x="138.139" y="223.111" fill="none" width="165.973" height="8.51"/>
		<text transform="matrix(0.9288 0 0 1 138.1387 228.8018)" font-size="8">&gt;&gt;Reconstruction Index (0020,9536)</text>
		<g>
			<rect x="311.799" y="78.266" fill="none" width="36" height="10.25"/>
			<text transform="matrix(0.9288 0 0 1 311.7969 83.9565)" font-size="8">= 1</text>
		</g>
		<g>
			<rect x="311.799" y="32.289" fill="none" width="70.332" height="8.51"/>
			<text transform="matrix(0.9288 0 0 1 311.7969 37.9785)" font-size="8">Frame 1</text>
		</g>
		<g>
			<rect x="311.799" y="161.021" fill="none" width="36" height="10.249"/>
			<text transform="matrix(0.9288 0 0 1 311.7969 166.7114)" font-size="8">= 1</text>
		</g>
		<g>
			<rect x="311.799" y="115.044" fill="none" width="70.332" height="8.51"/>
			<text transform="matrix(0.9288 0 0 1 311.7969 120.7334)" font-size="8">Frame N</text>
		</g>
		<g>
			<rect x="311.799" y="222.24" fill="none" width="36" height="10.248"/>
			<text transform="matrix(0.9288 0 0 1 311.7969 227.9316)" font-size="8">= 2</text>
		</g>
		<g>
			<rect x="311.799" y="176.262" fill="none" width="70.332" height="8.51"/>
			<text transform="matrix(0.9288 0 0 1 311.7969 181.9531)" font-size="8">Frame N+1</text>
		</g>
		<g>
			<rect x="311.799" y="304.996" fill="none" width="36" height="10.25"/>
			<text transform="matrix(0.9288 0 0 1 311.7969 310.6875)" font-size="8">= 2</text>
		</g>
		<g>
			<rect x="311.799" y="259.02" fill="none" width="70.332" height="8.51"/>
			<text transform="matrix(0.9288 0 0 1 311.7969 264.71)" font-size="8">Frame N+k</text>
		</g>
		<text transform="matrix(0.9288 0 0 1 368.1289 83.5625)"><tspan x="0" y="0" font-size="8">Frames of</tspan><tspan x="0" y="9.6" font-size="8">Reconstruction 1</tspan></text>
		<polyline fill="none" stroke="#000000" stroke-miterlimit="1" points="351.463,28.676 363.463,28.676 363.463,172.652 
			351.463,172.652 		"/>
		<polyline fill="none" stroke="#000000" stroke-miterlimit="1" points="351.463,172.652 363.463,172.652 363.463,316.629 
			351.463,316.629 		"/>
	</g>
</g>
</svg>
