<?xml version="1.0" encoding="utf-8"?>

<!DOCTYPE svg PUBLIC "-//W3C//DTD SVG 1.1//EN" "http://www.w3.org/Graphics/SVG/1.1/DTD/svg11.dtd">
<svg version="1.1" id="Layer_1" xmlns="http://www.w3.org/2000/svg" xmlns:xlink="http://www.w3.org/1999/xlink" x="0px" y="0px"
	 width="502px" height="872px" viewBox="0 0 502 872" enable-background="new 0 0 502 872" xml:space="preserve">
    
<defs>
	<style type="text/css">
	text {
	  font-family: Helvetica, Verdana, ArialUnicodeMS, san-serif
	}
	</style>
</defs>

<g>
   <desc>
	PS 3.3 Part 3: Information Object Definitions
   </desc>
</g>

<g>
	<rect x="1" y="1" fill="#F5EED6" width="500" height="870"/>
	<g>
		<g>
			<g>
				<text transform="matrix(1 0 0 1 96.6499 535.8535)" font-size="11">View from front of gantry</text>
			</g>
			<g>
				<text transform="matrix(1 0 0 1 31.8911 838.8359)" font-size="11">Gantry Left</text>
			</g>
			<g>
				<text transform="matrix(1 0 0 1 415.6885 838.8359)" font-size="11">Gantry Right</text>
			</g>
			<path fill="#B2CEE7" d="M406.649,848.27c0,3.186-2.335,5.783-5.205,5.783H101.855c-2.876,0-5.206-2.598-5.206-5.783V549.838
				c0-3.194,2.33-5.784,5.206-5.784h299.589c2.87,0,5.205,2.59,5.205,5.784V848.27z"/>
			<radialGradient id="SVGID_1_" cx="251.6494" cy="699.584" r="143.5024" gradientUnits="userSpaceOnUse">
				<stop  offset="0.9116" style="stop-color:#FFFFFF"/>
				<stop  offset="0.9582" style="stop-color:#B2CEE7"/>
				<stop  offset="1" style="stop-color:#4F8ABE"/>
			</radialGradient>
			<circle fill="url(#SVGID_1_)" cx="251.649" cy="699.584" r="143.503"/>
			<rect x="129.149" y="742.104" fill="#4F8ABE" width="245" height="9"/>
			
				<rect x="144.041" y="632.123" fill="#FFFFFF" stroke="#000000" stroke-width="0.5" stroke-miterlimit="10" width="215.217" height="107.855"/>
			<g>
				
					<ellipse fill="#E6E6E6" stroke="#000000" stroke-width="0.5" stroke-miterlimit="10" cx="189.262" cy="689.869" rx="8.714" ry="9.653"/>
				<path fill="#E6E6E6" stroke="#000000" stroke-width="0.5" stroke-miterlimit="10" d="M355.335,651.539
					c-14.459-5.147-36.912,87.764-75.756,75.412c1.127-0.515,3.273-2.703,3.977-3.406c0.704-0.703,1.242-1.482,1.242-1.482
					C310.728,733.715,337.05,648.688,355.335,651.539z"/>
				<path fill="#999999" d="M285.385,726.116c8.437,0.046,16.843-3.581,25.476-14.452c3.059-3.85,5.203-6.502,8.314-10.996
					c2.413-3.486,3.387-4.973,5.899-8.85c2.604-4.015,6.974-11.269,6.974-11.269l3.485-5.358
					c-4.559,8.85-8.577,16.022-13.402,23.801c-2.646,4.264-5.668,8.357-9.124,12.672c-8.859,11.061-18.32,17.178-28.928,16.091"/>
				<path fill="#E6E6E6" stroke="#000000" stroke-width="0.5" stroke-miterlimit="10" d="M239.054,680.797
					c-26.49,3.785-86.688,30.33-86.688,35.158c0,1.072,66.505,20.599,99.807,20.851c3.279,0.253,6.307,0,9.587-0.252
					c1.261,0,2.271-0.505,3.532-0.505c3.279-0.505,6.56-1.262,9.839-2.523c2.019-0.756,3.784-1.514,5.55-2.775
					c2.02-1.514,3.533-3.027,5.047-5.045c1.009-1.262,1.514-2.775,2.018-4.289c0.252-0.757,0.505-1.262,0.505-2.018
					c0.757-4.795,0-9.335-1.261-14.129c0-0.252-0.505-0.504-0.505-0.757c-2.523-10.597-10.597-18.669-20.688-21.949
					c-2.522-0.757-5.045-1.262-7.568-1.767c-1.514-0.252-3.027-0.252-4.541-0.504C248.894,680.041,244.101,680.293,239.054,680.797z
					"/>
				<path stroke="#000000" stroke-width="0.5" stroke-miterlimit="10" d="M152.366,715.955c0,0.805,3.784,0.442,5.364,0.268
					c2.179-0.24,4.29,0.27,4.022-3.658c0-4.654-1.878-1.973-4.559-0.633C155.772,712.643,152.366,715.15,152.366,715.955z"/>
				<path fill="#999999" d="M160.68,717.027c20.113,4.023,29.512,4.997,38.651,7.291c27.826,6.984,68.621,10.41,68.621,10.41
					c-8.314,4.021-35.668,1.072-63.559-5.096c-26.613-5.886-37.727-8.004-46.903-12.758"/>
				<path fill="#999999" d="M251.761,732.736c-14.422,0-26.469-1.846-26.469-12.661s11.689-19.583,26.111-19.583
					c2.958,0,5.801,0.369,8.451,1.049l0.855,0.322c-0.283-0.111-0.568-0.219-0.857-0.323c-3.293-1.183-6.953-1.843-10.809-1.843
					c-14.422,0-26.111,9.225-26.111,20.603c0,11.38,11.689,12.546,26.111,12.546c0.993,0,1.973-0.043,2.938-0.129
					C251.981,732.717,252.282,732.736,251.761,732.736z"/>
				<circle stroke="#000000" stroke-width="0.5" stroke-miterlimit="10" cx="174.175" cy="708.724" r="3.153"/>
				<circle fill="#FFFFFF" stroke="#000000" stroke-width="0.5" stroke-miterlimit="10" cx="173.248" cy="708.605" r="1.514"/>
				<path fill="none" stroke="#000000" stroke-width="0.5" stroke-miterlimit="10" d="M147.964,722.902
					c10.468-0.656,13.4-2.151,13.4-3.898c0-0.648-0.814-1.33-2.245-1.977"/>
				<path fill="none" stroke="#000000" stroke-width="0.5" stroke-miterlimit="10" d="M154.859,725.807
					c4.715-0.879,8.313-2.502,9.23-4.439c0.777-1.641-0.527-3.178-3.234-4.297"/>
				<path fill="none" stroke="#000000" stroke-width="0.5" stroke-miterlimit="10" d="M164.237,717.602
					c2.699,1.08,4.488,2.973,4.488,5.128c0,1.783-1.226,3.388-3.177,4.499"/>
				<g>
					
						<ellipse fill="#FFFFFF" stroke="#000000" stroke-width="0.5" stroke-miterlimit="10" cx="195.549" cy="687.488" rx="8.714" ry="9.654"/>
					<path fill="#B3B3B3" stroke="#BCBEC0" stroke-width="0.5" stroke-miterlimit="10" d="M201.966,687.758
						c1.144,0.334,1.873-6.424-3.779-8.076c-4.372-1.277-9.104,1.343-8.099,1.828c0.851,0.412,2.762-0.845,7.376,1.276
						C202.015,684.878,201.141,687.517,201.966,687.758z"/>
				</g>
				<g>
					<linearGradient id="SVGID_2_" gradientUnits="userSpaceOnUse" x1="174.6606" y1="741.9141" x2="199.2281" y2="717.3466">
						<stop  offset="0.4116" style="stop-color:#ECBFA6"/>
						<stop  offset="0.5402" style="stop-color:#E6E6E6"/>
					</linearGradient>
					<path fill="url(#SVGID_2_)" stroke="#000000" stroke-width="0.5" stroke-miterlimit="10" d="M189.402,721.05
						c0,0-0.331,0.276-2.399,2.408c-2.44,2.515,15.672,5.168,6.372,5.606c-5.785,0.273-20.613-2.119-27.039,0.449
						c-1.652,0.662-1.729,1.373-1.145,1.904l0.062,0.082c-0.41,0.297-0.479,0.635,0.031,1.014c0.877,0.648,1.752,0.402,2.351,0.297
						c0.063-0.01,0.124-0.02,0.182-0.027l-0.119,0.018c-0.26,0.256-0.086,0.572,0.819,0.963c3.871,1.673,6.36-0.945,16.3-0.977
						c6.878-0.022,11.591,1.172,13.285,1.411c7.104,1.001,9.279-3.179,8.166-6.91c-0.522-1.747-2.634-5.535-2.634-5.535"/>
					<path fill="none" stroke="#000000" stroke-width="0.5" stroke-miterlimit="10" d="M203.635,721.753
						c0,0,2.111,3.788,2.634,5.535c1.113,3.731-1.062,7.911-8.166,6.91c-1.694-0.239-6.407-1.434-13.285-1.411
						c-9.939,0.031-12.429,2.649-16.3,0.977c-3.825-1.652,5.393-1.979,5.393-1.979"/>
					<path fill="none" stroke="#000000" stroke-width="0.5" stroke-miterlimit="10" d="M189.402,721.05c0,0-0.331,0.276-2.399,2.408
						c-2.44,2.515,15.672,5.168,6.372,5.606c-5.785,0.273-20.613-2.119-27.039,0.449c-1.652,0.662-1.729,1.373-1.145,1.904"/>
					<path fill="none" stroke="#000000" stroke-width="0.5" stroke-miterlimit="10" d="M167.817,732.783
						c-0.594,0.069-1.562,0.449-2.532-0.27c-2.245-1.662,6.72-2.555,6.72-2.555"/>
				</g>
				<g>
					<linearGradient id="SVGID_3_" gradientUnits="userSpaceOnUse" x1="229.5088" y1="732.5996" x2="271.0898" y2="732.5996">
						<stop  offset="0.498" style="stop-color:#ECBFA6"/>
						<stop  offset="0.7074" style="stop-color:#E6E6E6"/>
					</linearGradient>
					<path fill="url(#SVGID_3_)" stroke="#000000" stroke-width="0.5" stroke-miterlimit="10" d="M259.779,733.371
						c-5.769,0.518-22.538-1.244-28.849,1.594c-1.623,0.73-1.67,1.444-1.064,1.95l0.067,0.08c-0.397,0.314-0.452,0.654,0.073,1.011
						c0.904,0.611,1.768,0.328,2.361,0.198c0.063-0.015,0.124-0.026,0.181-0.035l-0.118,0.022c-0.25,0.266-0.062,0.574,0.859,0.928
						c3.938,1.506,6.314-1.215,16.242-1.668c6.873-0.312,11.632,0.682,13.335,0.849c7.139,0.698,9.136-3.569,7.864-7.25
						c-0.595-1.724-0.085-5.419-0.085-5.419"/>
					<path fill="none" stroke="#000000" stroke-width="0.5" stroke-miterlimit="10" d="M270.646,725.631c0,0-0.51,3.695,0.085,5.419
						c1.271,3.681-0.726,7.948-7.864,7.25c-1.703-0.167-6.462-1.161-13.335-0.849c-9.928,0.453-12.305,3.174-16.242,1.668
						c-3.892-1.489,5.304-2.206,5.304-2.206"/>
					<path fill="none" stroke="#000000" stroke-width="0.5" stroke-miterlimit="10" d="M241.23,731.136
						c3.514,2.618,26.57,1.403,17.298,2.235c-5.77,0.518-20.541-0.899-26.996,1.594c-2.322,0.896-2.285,1.35-1.527,1.981"/>
					<path fill="none" stroke="#000000" stroke-width="0.5" stroke-miterlimit="10" d="M232.549,738.169
						c-0.591,0.094-1.542,0.515-2.542-0.163c-2.312-1.565,6.605-2.836,6.605-2.836"/>
				</g>
			</g>
		</g>
		<g>
			<path fill="#B2CEE7" d="M406.648,423.166c0,1.624-2.238,2.938-5,2.938H101.65c-2.762,0-5-1.313-5-2.938V109.039
				c0-1.621,2.238-2.936,5-2.936h299.998c2.762,0,5,1.314,5,2.936V423.166z"/>
			<g>
				<rect x="129.149" y="36.104" fill="#4F8ABE" width="245" height="460"/>
				
					<rect x="144.149" y="50.771" fill="#FFFFFF" stroke="#000000" stroke-width="0.4736" stroke-miterlimit="10" width="215" height="430.666"/>
			</g>
			<g>
				<g>
					<g>
						<g>
							<path fill="#E6E6E6" stroke="#000000" stroke-width="0.5" stroke-linejoin="round" stroke-miterlimit="10" d="
								M287.02,265.766c4.953,4.372,13.004,6.936,20.938,6.895l0.029-0.001c13.028,0.181,25.093-13.747,40.662-13.226
								c2.832,0.093,7.688,2.688,7.371,2.893c-0.316,0.206-2.868-1.33-5.902-1.732c-10.836-1.437-22.91,15.987-44.776,15.987h-0.034
								c-11.9,0-21.152-3.978-25.539-10.925c0,0,1.15,0.146,3.299,0.146h0.03C284.395,265.802,287.02,265.766,287.02,265.766z"/>
						</g>
					</g>
					<g>
						<path fill="#999999" d="M339.838,260.713c0,0-10.348,4.752-15.201,7.673c-5.025,3.023-10.797,5.05-16.358,5.171
							c-8.396,0.283-17.387-2.225-24.026-7.637l2.526-0.132c2.931,2.39,9.95,7.017,21.392,7.017c5.895,0,12.881-3.418,19.205-6.688
							c0.303-0.156,3.563-1.922,6.692-3.26C337.378,261.44,339.838,260.713,339.838,260.713z"/>
					</g>
				</g>
				<path fill="#E6E6E6" stroke="#000000" stroke-width="0.5" stroke-miterlimit="10" d="M153.258,266.372
					c0-11.57,24.514-22.517,47.084-32.12c43.248-18.404,89.259,1.38,89.259,32.12v0.036c0,30.74-46.011,50.525-89.259,32.121
					c-22.57-9.604-47.084-20.552-47.084-32.121V266.372z"/>
				<path fill="#999999" d="M153.52,266.61c0-7.673,10.847-17.076,32.24-25.185c17.07-6.472,34.08-8.193,36.886-8.62
					c0,0-22.624,3.383-39.163,11.305c-8.797,4.214-26.831,13.23-26.831,22.5c0,9.271,18.651,18.39,27.65,22.132
					c22.019,9.16,38.344,10.943,38.344,10.943c-3.931-0.597-21.425-2.184-36.876-8.462
					C164.922,282.752,153.52,274.281,153.52,266.61z"/>
				<path fill="#FFFFFF" stroke="#000000" stroke-width="0.5" stroke-miterlimit="10" d="M185.061,244.394
					c0.736-5.737,4.719-10.119,9.518-10.119c5.324,0,9.641,5.389,9.641,12.04c0,6.648-4.316,12.038-9.641,12.038"/>
				<path fill="#B3B3B3" stroke="#BCBEC0" stroke-width="0.5" stroke-miterlimit="10" d="M192.628,235.656
					c0-1.816,10.538,1.228,10.538,10.207c0,6.943-6.051,12.048-6.342,10.335c-0.246-1.448,2.498-3.392,1.329-11.187
					C197.002,237.323,192.628,236.969,192.628,235.656z"/>
				<path fill="#FFFFFF" stroke="#000000" stroke-width="0.5" stroke-miterlimit="10" d="M185.061,288.855
					c0.736,5.736,4.719,10.119,9.518,10.119c5.324,0,9.641-5.39,9.641-12.039c0-6.648-4.316-12.039-9.641-12.039"/>
				<path fill="#B3B3B3" stroke="#BCBEC0" stroke-width="0.5" stroke-miterlimit="10" d="M192.628,297.592
					c0,1.816,10.538-1.227,10.538-10.207c0-6.943-6.051-12.047-6.342-10.334c-0.246,1.449,2.498,3.391,1.329,11.188
					C197.002,295.926,192.628,296.281,192.628,297.592z"/>
				<circle stroke="#000000" stroke-width="0.5" stroke-miterlimit="10" cx="175.073" cy="257.893" r="3.774"/>
				
					<ellipse fill="#FFFFFF" stroke="#000000" stroke-width="0.5" stroke-miterlimit="10" cx="173.27" cy="257.893" rx="1.637" ry="1.14"/>
				<circle stroke="#000000" stroke-width="0.5" stroke-miterlimit="10" cx="175.073" cy="273.115" r="3.773"/>
				
					<ellipse fill="#FFFFFF" stroke="#000000" stroke-width="0.5" stroke-miterlimit="10" cx="173.27" cy="273.116" rx="1.637" ry="1.14"/>
				<path stroke="#000000" stroke-width="0.5" stroke-miterlimit="10" d="M154.448,266.016c0,2.202,1.604,3.43,2.952,3.945
					c3.562,1.359,5.022,2.15,5.022-3.945s-1.46-5.305-5.022-3.945C156.053,262.587,154.448,263.813,154.448,266.016z"/>
				<path fill="none" stroke="#000000" stroke-width="0.5" stroke-miterlimit="10" d="M147.265,234.65
					c10.468,2.62,13.399,8.594,13.399,15.568c0,2.591-0.813,5.31-2.244,7.888"/>
				<path fill="none" stroke="#000000" stroke-width="0.5" stroke-miterlimit="10" d="M154.16,223.055
					c4.715,3.511,8.314,9.994,9.23,17.728c0.777,6.554-0.527,12.685-3.234,17.152"/>
				<path fill="none" stroke="#000000" stroke-width="0.5" stroke-miterlimit="10" d="M163.539,255.817
					c2.697-4.311,4.487-11.869,4.487-20.475c0-7.119-1.226-13.523-3.177-17.964"/>
				<path fill="none" stroke="#000000" stroke-width="0.5" stroke-miterlimit="10" d="M147.265,297.557
					c10.468-2.619,13.399-8.593,13.399-15.566c0-2.592-0.813-5.311-2.244-7.89"/>
				<path fill="none" stroke="#000000" stroke-width="0.5" stroke-miterlimit="10" d="M154.16,309.152
					c4.715-3.51,8.314-9.993,9.23-17.727c0.777-6.553-0.527-12.686-3.234-17.152"/>
				<path fill="none" stroke="#000000" stroke-width="0.5" stroke-miterlimit="10" d="M163.539,276.389
					c2.697,4.312,4.487,11.871,4.487,20.477c0,7.119-1.226,13.523-3.177,17.963"/>
				<path fill="#999999" d="M224.419,230.541c1.979,6.007,17.996,10.127,37.265,9.352l0.023-0.107
					c-19.671-1.249-35.322-5.913-34.958-10.418C226.749,229.367,224.3,230.18,224.419,230.541"/>
				<path fill="#999999" d="M224.419,301.125c1.979-6.006,17.996-10.127,37.265-9.352l0.023,0.107
					c-19.671,1.25-35.322,5.913-34.958,10.418C226.749,302.299,224.3,301.487,224.419,301.125"/>
			</g>
			<g>
				<text transform="matrix(1 0 0 1 100.0005 27.6978)" font-size="11">View from above gantry/table</text>
			</g>
			<g>
				<text transform="matrix(1 0 0 1 26.2515 115.8545)" font-size="11">Gantry Rear</text>
			</g>
			<g>
				<text transform="matrix(1 0 0 1 24.5649 422.478)" font-size="11">Gantry Front</text>
			</g>
			<g>
				<text transform="matrix(1 0 0 1 208.0566 222.2251)"><tspan x="0" y="0" font-size="13">Mouse Right</tspan><tspan x="23.489" y="51.333" font-size="13">RFP</tspan><tspan x="4.332" y="102.667" font-size="13">Mouse Left</tspan></text>
			</g>
			<rect x="129.327" y="106.34" opacity="0.4" fill="#B2CEE7" width="245" height="320"/>
			<g>
				<text transform="matrix(1 0 0 1 414.3467 269.1665)" font-size="11">Gantry</text>
			</g>
		</g>
	</g>
</g>
</svg>
