<?xml version="1.0" encoding="utf-8"?>

<!DOCTYPE svg PUBLIC "-//W3C//DTD SVG 1.1//EN" "http://www.w3.org/Graphics/SVG/1.1/DTD/svg11.dtd">
<svg version="1.1" id="Layer_1" xmlns="http://www.w3.org/2000/svg" xmlns:xlink="http://www.w3.org/1999/xlink" x="0px" y="0px"
	 width="502px" height="557.483px" viewBox="0 0 502 557.483" enable-background="new 0 0 502 557.483" xml:space="preserve">

<defs>
	<style type="text/css">
	text {
	  font-family: Helvetica, Verdana, ArialUnicodeMS, san-serif
	}
	</style>
</defs>

<g>
   <desc>
	PS 3.3 Part 3: Information Object Definitions
   </desc>
</g>

<g>
	<rect x="1" y="1" fill="#F5EED8" width="500" height="555.483"/>
	<g>
		<g>
			<g>
				<text transform="matrix(0.8815 0 0 1 151.1035 28.02)" font-size="10">a. No spatial transformation</text>
			</g>
			<rect x="151.104" y="32.5" fill="#B4CFE6" stroke="#000000" stroke-miterlimit="1" width="188.997" height="141.75"/>
			<rect x="151.104" y="32.5" fill="#003768" stroke="#000000" stroke-miterlimit="1" width="9" height="9"/>
			<text transform="matrix(1 0 0 1 160.0625 49.5195)"><tspan x="0" y="0" font-size="9">TLHC</tspan><tspan x="0" y="10.8" font-size="9">Pixel (1,1)</tspan></text>
			<text transform="matrix(1 0 0 1 280.3828 49.5195)" font-size="9">Pixel (640,1)</text>
			<text transform="matrix(1 0 0 1 160.0527 162.1587)" font-size="9">Pixel (1,480)</text>
			<text transform="matrix(1 0 0 1 305.6592 151.3599)"><tspan x="0" y="0" font-size="9">BRHC</tspan><tspan x="-35.033" y="10.8" font-size="9">Pixel (640,480)</tspan></text>
			<rect x="331.101" y="32.5" fill="#FFFFFF" stroke="#000000" stroke-miterlimit="1" width="9" height="9"/>
			<rect x="151.104" y="165.25" fill="#FFFFFF" stroke="#000000" stroke-miterlimit="1" width="9" height="9"/>
			<rect x="331.101" y="165.25" fill="#FFFFFF" stroke="#000000" stroke-miterlimit="1" width="9" height="9"/>
		</g>
		<g>
			<g>
				<text transform="matrix(0.8815 0 0 1 53.1318 333.4248)" font-size="10">b. 90ยบ clockwise rotation</text>
			</g>
			<rect x="53.131" y="337.772" fill="#B4CFE6" stroke="#000000" stroke-miterlimit="1" width="141.75" height="188.99"/>
			<rect x="185.881" y="337.772" fill="#003768" stroke="#000000" stroke-miterlimit="1" width="9" height="8.998"/>
			<text transform="matrix(1 0 0 1 62.0562 354.8945)"><tspan x="0" y="0" font-size="9">TLHC</tspan><tspan x="0" y="10.8" font-size="9">Pixel (1,480)</tspan></text>
			<text transform="matrix(1 0 0 1 144.9561 354.8936)" font-size="9">Pixel (1,1)</text>
			<text transform="matrix(1 0 0 1 62.3359 514.6348)" font-size="9">Pixel (640,480)</text>
			<text transform="matrix(1 0 0 1 160.334 504.0742)"><tspan x="0" y="0" font-size="9">BRHC</tspan><tspan x="-25.022" y="10.8" font-size="9">Pixel (640,1)</tspan></text>
			<rect x="185.881" y="517.763" fill="#FFFFFF" stroke="#000000" stroke-miterlimit="1" width="9" height="9"/>
			<rect x="53.131" y="337.772" fill="#FFFFFF" stroke="#000000" stroke-miterlimit="1" width="9" height="8.998"/>
			<rect x="53.131" y="517.763" fill="#FFFFFF" stroke="#000000" stroke-miterlimit="1" width="9" height="9"/>
		</g>
		<g>
			<g>
				<text transform="matrix(0.8815 0 0 1 307.125 321.5449)"><tspan x="0" y="0" font-size="10">c. 90ยบ clockwise rotation</tspan><tspan x="0" y="12" font-size="10">and horizontal flip</tspan></text>
			</g>
			<rect x="307.119" y="338.125" fill="#B4CFE6" stroke="#000000" stroke-miterlimit="1" width="141.75" height="188.994"/>
			<rect x="307.119" y="338.125" fill="#003768" stroke="#000000" stroke-miterlimit="1" width="9" height="9"/>
			<text transform="matrix(1 0 0 1 316.4082 355.2529)"><tspan x="0" y="0" font-size="9">TLHC</tspan><tspan x="0" y="10.8" font-size="9">Pixel (1,1)</tspan></text>
			<text transform="matrix(1 0 0 1 389.2295 355.2539)" font-size="9">Pixel (1,480)</text>
			<text transform="matrix(1 0 0 1 316.3281 514.9941)" font-size="9">Pixel (640,1)</text>
			<text transform="matrix(1 0 0 1 414.1465 504.4346)"><tspan x="0" y="0" font-size="9">BRHC</tspan><tspan x="-35.033" y="10.8" font-size="9">Pixel (640,480)</tspan></text>
			<rect x="307.119" y="518.119" fill="#FFFFFF" stroke="#000000" stroke-miterlimit="1" width="9" height="9"/>
			<rect x="439.869" y="338.125" fill="#FFFFFF" stroke="#000000" stroke-miterlimit="1" width="9" height="9"/>
			<rect x="439.869" y="518.119" fill="#FFFFFF" stroke="#000000" stroke-miterlimit="1" width="9" height="9"/>
		</g>
		<g>
			<g>
				<g>
					
						<line fill="none" stroke="#005995" stroke-width="2" stroke-linecap="round" stroke-miterlimit="1" x1="248.78" y1="176.143" x2="370.347" y2="293.533"/>
					<g>
						<polygon fill="#005995" points="366.214,294.39 377.994,300.918 371.058,289.373 						"/>
					</g>
				</g>
			</g>
			<g>
				<g>
					
						<line fill="none" stroke="#005995" stroke-width="2" stroke-linecap="round" stroke-miterlimit="1" x1="115.642" y1="308.536" x2="248.78" y2="176.143"/>
					<g>
						<polygon fill="#005995" points="119.786,309.331 108.103,316.032 114.869,304.388 						"/>
					</g>
				</g>
			</g>
			
				<rect x="159.467" y="219.96" fill="#FFFFFF" stroke="#000000" stroke-linecap="round" stroke-miterlimit="1" width="45" height="45"/>
			<g>
				
					<line fill="none" stroke="#005995" stroke-linecap="round" stroke-miterlimit="1" x1="165.091" y1="225.585" x2="198.842" y2="225.585"/>
				
					<line fill="none" stroke="#005995" stroke-linecap="round" stroke-miterlimit="1" stroke-dasharray="2,2" x1="165.091" y1="225.585" x2="165.091" y2="259.335"/>
				<g>
					<g>
						<path fill="none" stroke="#005995" stroke-linecap="round" stroke-miterlimit="1" d="M192.805,225.585
							c0,12.247-7.944,22.639-18.96,26.303"/>
						<g>
							<polygon fill="#005995" points="175.238,248.503 165.091,253.299 176.277,254.22 							"/>
						</g>
					</g>
				</g>
			</g>
			
				<rect x="253.78" y="219.96" fill="#FFFFFF" stroke="#000000" stroke-linecap="round" stroke-miterlimit="1" width="107.74" height="45"/>
			<g>
				
					<line fill="none" stroke="#005995" stroke-linecap="round" stroke-miterlimit="1" stroke-dasharray="6" x1="337.623" y1="225.584" x2="337.623" y2="253.299"/>
				<g>
					<g>
						
							<line fill="none" stroke="#005995" stroke-linecap="round" stroke-miterlimit="1" x1="329.788" y1="259.337" x2="352.505" y2="259.337"/>
						<g>
							<polygon fill="#005995" points="331.77,262.242 320.929,259.337 331.77,256.432 							"/>
						</g>
					</g>
				</g>
				<polygon fill="none" stroke="#005995" stroke-linecap="round" stroke-miterlimit="1" points="341.796,228.245 348.057,239.091 
					354.317,249.935 341.796,249.935 				"/>
				<polygon fill="none" stroke="#005995" stroke-linecap="round" stroke-miterlimit="1" stroke-dasharray="2,2" points="
					333.45,228.245 327.189,239.091 320.929,249.935 333.45,249.935 				"/>
			</g>
			<g>
				<text transform="matrix(0.8815 0 0 1 300.2373 250.4487)" fill="#005995" font-size="10">+</text>
			</g>
			<g>
				
					<line fill="none" stroke="#005995" stroke-linecap="round" stroke-miterlimit="1" x1="259.425" y1="225.586" x2="293.175" y2="225.586"/>
				
					<line fill="none" stroke="#005995" stroke-linecap="round" stroke-miterlimit="1" stroke-dasharray="2,2" x1="259.425" y1="225.586" x2="259.425" y2="259.336"/>
				<g>
					<g>
						<path fill="none" stroke="#005995" stroke-linecap="round" stroke-miterlimit="1" d="M287.139,225.585
							c0,12.247-7.944,22.639-18.96,26.303"/>
						<g>
							<polygon fill="#005995" points="269.572,248.503 259.425,253.299 270.61,254.22 							"/>
						</g>
					</g>
				</g>
			</g>
		</g>
	</g>
</g>
</svg>
