<?xml version="1.0" encoding="utf-8"?>

<!DOCTYPE svg PUBLIC "-//W3C//DTD SVG 1.1//EN" "http://www.w3.org/Graphics/SVG/1.1/DTD/svg11.dtd">
<svg version="1.1" id="Layer_1" xmlns="http://www.w3.org/2000/svg" xmlns:xlink="http://www.w3.org/1999/xlink" x="0px" y="0px"
	 width="502px" height="357px" viewBox="0 0 502 357" enable-background="new 0 0 502 357" xml:space="preserve">
    
<defs>
	<style type="text/css">
	text {
	  font-family: Helvetica, Verdana, ArialUnicodeMS, san-serif
	}
	</style>
</defs>

<g>
   <desc>
	PS 3.3 Part 3: Information Object Definitions
   </desc>
</g>

<g>
	<rect x="1" y="1" fill="#F5EED6" width="500" height="355"/>
	<g>
		<g>
			<text transform="matrix(1 0 0 1 92.8657 25.353)" font-size="11">View from front of gantry</text>
		</g>
		<g>
			<text transform="matrix(1 0 0 1 34.0024 326.1797)" font-size="11">Gantry Left</text>
		</g>
		<g>
			<text transform="matrix(1 0 0 1 406.252 326.1797)" font-size="11">Gantry Right</text>
		</g>
		<path fill="#B2CEE7" d="M402.865,335.613c0,3.186-2.335,5.783-5.205,5.783H98.071c-2.876,0-5.206-2.598-5.206-5.783V37.182
			c0-3.194,2.33-5.785,5.206-5.785H397.66c2.87,0,5.205,2.59,5.205,5.785V335.613z"/>
		<radialGradient id="SVGID_1_" cx="247.8647" cy="186.9277" r="143.5027" gradientUnits="userSpaceOnUse">
			<stop  offset="0.9116" style="stop-color:#FFFFFF"/>
			<stop  offset="0.9582" style="stop-color:#B2CEE7"/>
			<stop  offset="1" style="stop-color:#4F8ABE"/>
		</radialGradient>
		<circle fill="url(#SVGID_1_)" cx="247.865" cy="186.928" r="143.503"/>
		<rect x="142.865" y="262.969" fill="#4F8ABE" width="210" height="9"/>
		
			<rect x="147.698" y="102.867" fill="#FFFFFF" stroke="#000000" stroke-width="0.6448" stroke-miterlimit="10" width="200.334" height="157.816"/>
		<g>
			<g>
				<path fill="#D6A477" stroke="#000000" stroke-width="0.5" stroke-miterlimit="10" d="M201.087,162.513
					c-1.347,1.093-4.454,3.478-4.454,3.478l-0.01,3.692c0,1.165,0.997,0.911,2.228,0.911c1.229,0,2.227,0.254,2.227-0.911
					L201.087,162.513z"/>
			</g>
			<g>
				<path fill="#D6A477" stroke="#000000" stroke-width="0.5" stroke-miterlimit="10" d="M161.43,162.513
					c1.345,1.093,4.454,3.478,4.454,3.478l0.01,3.692c0,1.165-0.998,0.911-2.229,0.911c-1.229,0-2.227,0.254-2.227-0.911
					L161.43,162.513z"/>
			</g>
			<g>
				<path fill="none" stroke="#000000" stroke-width="0.5" stroke-miterlimit="10" d="M154.816,162.51
					c2.638-5.407,19.6-6.717,22.488-4.966"/>
				<path fill="none" stroke="#000000" stroke-width="0.5" stroke-miterlimit="10" d="M175.937,157.153
					c-2.787-1.744-20.821-1.195-24.41,6.189"/>
				<path fill="none" stroke="#000000" stroke-width="0.5" stroke-miterlimit="10" d="M162.249,160.49
					c2.423-2.649,9.507-4.787,15.167-2.622"/>
			</g>
			<g>
				<path fill="none" stroke="#000000" stroke-width="0.5" stroke-miterlimit="10" d="M200.804,160.49
					c-2.423-2.649-9.506-4.787-15.167-2.622"/>
				<path fill="none" stroke="#000000" stroke-width="0.5" stroke-miterlimit="10" d="M208.236,162.51
					c-2.637-5.407-19.6-6.717-22.488-4.966"/>
				<path fill="none" stroke="#000000" stroke-width="0.5" stroke-miterlimit="10" d="M187.116,157.153
					c2.787-1.744,20.821-1.195,24.41,6.189"/>
			</g>
			<path fill="#D6A477" stroke="#000000" stroke-width="0.5" stroke-miterlimit="10" d="M195.398,145.891
				c3.71-0.593,6.544-3.81,6.544-7.686c0-4.3-3.485-7.786-7.785-7.786c-4.299,0-7.785,3.486-7.785,7.786"/>
			<path fill="#D6A477" stroke="#000000" stroke-width="0.5" stroke-miterlimit="10" d="M166.649,145.891
				c-3.711-0.593-6.545-3.81-6.545-7.686c0-4.3,3.486-7.786,7.785-7.786c4.3,0,7.786,3.486,7.786,7.786"/>
			<path fill="#D6A477" stroke="#000000" stroke-width="0.5" stroke-miterlimit="10" d="M206.917,153.191
				c0-15.696-8.205-9.973-8.205-9.973S198.1,132.1,181.365,132.1c-16.569,0-16.666,11.118-16.666,11.118s-8.754-5.724-8.754,10.058
				c0,11.637,11.31,17.045,25.42,17.045S206.917,164.828,206.917,153.191z"/>
			<g>
				<g>
					<g>
						<path fill="#D6A477" stroke="#000000" stroke-width="0.5" stroke-miterlimit="10" d="M184.12,170.066
							c-3.938-4.213-6.384-7.21-6.741-14.285l-0.001-0.026c-0.799-11.61,10.372-23.023,9.161-36.881
							c-0.22-2.521-2.651-6.729-2.81-6.438c-0.158,0.291,1.268,2.495,1.756,5.181c1.751,9.595-12.373,21.181-11.291,40.679
							l0.002,0.031c0.35,6.297,1.817,7.618,4.242,11.719"/>
					</g>
				</g>
				<g>
					<path fill="#977348" d="M183.984,170.064c-2.208-2.613-6.187-4.524-6.738-14.468c-0.292-5.256,2.25-11.647,4.699-17.44
						c0.118-0.277,1.448-3.267,2.424-6.12c1.033-3.018,1.525-5.246,1.525-5.246s-3.503,9.45-5.73,13.916
						c-2.306,4.623-3.731,9.864-3.559,14.829c0.151,6.443,2.064,9.261,5.71,14.625"/>
				</g>
			</g>
		</g>
		<g>
			<g>
				<path fill="#E6E7E8" stroke="#000000" stroke-width="0.5" stroke-miterlimit="10" d="M267.427,162.513
					c-1.348,1.093-4.455,3.478-4.455,3.478l-0.01,3.692c0,1.165,0.997,0.911,2.228,0.911c1.229,0,2.228,0.254,2.228-0.911
					L267.427,162.513z"/>
			</g>
			<g>
				<path fill="#E6E7E8" stroke="#000000" stroke-width="0.5" stroke-miterlimit="10" d="M227.769,162.513
					c1.346,1.093,4.455,3.478,4.455,3.478l0.009,3.692c0,1.165-0.997,0.911-2.228,0.911c-1.229,0-2.228,0.254-2.228-0.911
					L227.769,162.513z"/>
			</g>
			<g>
				<path fill="none" stroke="#000000" stroke-width="0.5" stroke-miterlimit="10" d="M221.155,162.51
					c2.638-5.407,19.6-6.717,22.488-4.966"/>
				<path fill="none" stroke="#000000" stroke-width="0.5" stroke-miterlimit="10" d="M242.276,157.153
					c-2.787-1.744-20.822-1.195-24.411,6.189"/>
				<path fill="none" stroke="#000000" stroke-width="0.5" stroke-miterlimit="10" d="M228.589,160.49
					c2.422-2.649,9.506-4.787,15.166-2.622"/>
			</g>
			<g>
				<path fill="none" stroke="#000000" stroke-width="0.5" stroke-miterlimit="10" d="M267.144,160.49
					c-2.424-2.649-9.507-4.787-15.168-2.622"/>
				<path fill="none" stroke="#000000" stroke-width="0.5" stroke-miterlimit="10" d="M274.575,162.51
					c-2.637-5.407-19.6-6.717-22.488-4.966"/>
				<path fill="none" stroke="#000000" stroke-width="0.5" stroke-miterlimit="10" d="M253.456,157.153
					c2.787-1.744,20.82-1.195,24.41,6.189"/>
			</g>
			<path fill="#E6E7E8" stroke="#000000" stroke-width="0.5" stroke-miterlimit="10" d="M261.737,145.891
				c3.71-0.593,6.545-3.81,6.545-7.686c0-4.3-3.486-7.786-7.786-7.786c-4.299,0-7.784,3.486-7.784,7.786"/>
			<path fill="#E6E7E8" stroke="#000000" stroke-width="0.5" stroke-miterlimit="10" d="M232.988,145.891
				c-3.71-0.593-6.544-3.81-6.544-7.686c0-4.3,3.485-7.786,7.785-7.786c4.299,0,7.785,3.486,7.785,7.786"/>
			<path fill="#E6E7E8" stroke="#000000" stroke-width="0.5" stroke-miterlimit="10" d="M273.257,153.191
				c0-15.696-8.205-9.973-8.205-9.973s-0.613-11.118-17.348-11.118c-16.569,0-16.666,11.118-16.666,11.118
				s-8.754-5.724-8.754,10.058c0,11.637,11.311,17.045,25.42,17.045C261.814,170.321,273.257,164.828,273.257,153.191z"/>
			<g>
				<g>
					<path fill="#E6E7E8" stroke="#000000" stroke-width="0.5" stroke-miterlimit="10" d="M250.459,170.066
						c-3.938-4.213-6.384-7.21-6.741-14.285v-0.026c-0.799-11.61,10.371-23.023,9.16-36.881c-0.219-2.521-2.65-6.729-2.809-6.438
						c-0.158,0.291,1.268,2.495,1.756,5.181c1.75,9.595-12.373,21.181-11.291,40.679l0.002,0.031
						c0.35,6.297,1.816,7.618,4.241,11.719"/>
				</g>
			</g>
			<g>
				<path fill="#A7A9AC" d="M250.323,170.064c-2.208-2.613-6.186-4.524-6.738-14.468c-0.291-5.256,2.25-11.647,4.699-17.44
					c0.118-0.277,1.448-3.267,2.424-6.12c1.033-3.018,1.525-5.246,1.525-5.246s-3.503,9.45-5.73,13.916
					c-2.305,4.623-3.731,9.864-3.559,14.829c0.151,6.443,2.064,9.261,5.71,14.625"/>
			</g>
		</g>
		<g>
			<g>
				<path fill="#D6A477" stroke="#000000" stroke-width="0.5" stroke-miterlimit="10" d="M333.766,162.513
					c-1.348,1.093-4.455,3.478-4.455,3.478l-0.01,3.692c0,1.165,0.997,0.911,2.228,0.911c1.229,0,2.228,0.254,2.228-0.911
					L333.766,162.513z"/>
			</g>
			<g>
				<path fill="#D6A477" stroke="#000000" stroke-width="0.5" stroke-miterlimit="10" d="M294.107,162.513
					c1.346,1.093,4.455,3.478,4.455,3.478l0.009,3.692c0,1.165-0.997,0.911-2.228,0.911c-1.229,0-2.228,0.254-2.228-0.911
					L294.107,162.513z"/>
			</g>
			<g>
				<path fill="none" stroke="#000000" stroke-width="0.5" stroke-miterlimit="10" d="M287.494,162.51
					c2.638-5.407,19.6-6.717,22.488-4.966"/>
				<path fill="none" stroke="#000000" stroke-width="0.5" stroke-miterlimit="10" d="M308.615,157.153
					c-2.787-1.744-20.822-1.195-24.411,6.189"/>
				<path fill="none" stroke="#000000" stroke-width="0.5" stroke-miterlimit="10" d="M294.928,160.49
					c2.422-2.649,9.506-4.787,15.166-2.622"/>
			</g>
			<g>
				<path fill="none" stroke="#000000" stroke-width="0.5" stroke-miterlimit="10" d="M333.482,160.49
					c-2.424-2.649-9.507-4.787-15.168-2.622"/>
				<path fill="none" stroke="#000000" stroke-width="0.5" stroke-miterlimit="10" d="M340.914,162.51
					c-2.637-5.407-19.6-6.717-22.488-4.966"/>
				<path fill="none" stroke="#000000" stroke-width="0.5" stroke-miterlimit="10" d="M319.795,157.153
					c2.787-1.744,20.82-1.195,24.41,6.189"/>
			</g>
			<path fill="#D6A477" stroke="#000000" stroke-width="0.5" stroke-miterlimit="10" d="M328.076,145.891
				c3.71-0.593,6.545-3.81,6.545-7.686c0-4.3-3.486-7.786-7.786-7.786c-4.299,0-7.784,3.486-7.784,7.786"/>
			<path fill="#D6A477" stroke="#000000" stroke-width="0.5" stroke-miterlimit="10" d="M299.327,145.891
				c-3.71-0.593-6.544-3.81-6.544-7.686c0-4.3,3.485-7.786,7.785-7.786c4.299,0,7.785,3.486,7.785,7.786"/>
			<path fill="#D6A477" stroke="#000000" stroke-width="0.5" stroke-miterlimit="10" d="M339.596,153.191
				c0-15.696-8.205-9.973-8.205-9.973s-0.613-11.118-17.348-11.118c-16.569,0-16.666,11.118-16.666,11.118
				s-8.754-5.724-8.754,10.058c0,11.637,11.311,17.045,25.42,17.045C328.153,170.321,339.596,164.828,339.596,153.191z"/>
			<g>
				<g>
					<g>
						<path fill="#D6A477" stroke="#000000" stroke-width="0.5" stroke-miterlimit="10" d="M316.798,170.066
							c-3.938-4.213-6.384-7.21-6.741-14.285v-0.026c-0.799-11.61,10.371-23.023,9.16-36.881c-0.219-2.521-2.65-6.729-2.809-6.438
							c-0.158,0.291,1.268,2.495,1.756,5.181c1.75,9.595-12.373,21.181-11.291,40.679l0.002,0.031
							c0.35,6.297,1.816,7.618,4.241,11.719"/>
					</g>
				</g>
				<g>
					<path fill="#977348" d="M316.662,170.064c-2.208-2.613-6.186-4.524-6.738-14.468c-0.291-5.256,2.25-11.647,4.699-17.44
						c0.118-0.277,1.448-3.267,2.424-6.12c1.033-3.018,1.525-5.246,1.525-5.246s-3.503,9.45-5.73,13.916
						c-2.305,4.623-3.731,9.864-3.559,14.829c0.151,6.443,2.064,9.261,5.71,14.625"/>
				</g>
			</g>
		</g>
		<g>
			<g>
				<path fill="#D6A477" stroke="#000000" stroke-width="0.5" stroke-miterlimit="10" d="M201.087,235.463
					c-1.347,1.094-4.454,3.479-4.454,3.479l-0.01,3.691c0,1.166,0.997,0.912,2.228,0.912c1.229,0,2.227,0.254,2.227-0.912
					L201.087,235.463z"/>
			</g>
			<g>
				<path fill="#D6A477" stroke="#000000" stroke-width="0.5" stroke-miterlimit="10" d="M161.43,235.463
					c1.345,1.094,4.454,3.479,4.454,3.479l0.01,3.691c0,1.166-0.998,0.912-2.229,0.912c-1.229,0-2.227,0.254-2.227-0.912
					L161.43,235.463z"/>
			</g>
			<g>
				<path fill="none" stroke="#000000" stroke-width="0.5" stroke-miterlimit="10" d="M154.816,235.461
					c2.638-5.408,19.6-6.717,22.488-4.967"/>
				<path fill="none" stroke="#000000" stroke-width="0.5" stroke-miterlimit="10" d="M175.937,230.104
					c-2.787-1.744-20.821-1.195-24.41,6.189"/>
				<path fill="none" stroke="#000000" stroke-width="0.5" stroke-miterlimit="10" d="M162.249,233.439
					c2.423-2.648,9.507-4.787,15.167-2.621"/>
			</g>
			<g>
				<path fill="none" stroke="#000000" stroke-width="0.5" stroke-miterlimit="10" d="M200.804,233.439
					c-2.423-2.648-9.506-4.787-15.167-2.621"/>
				<path fill="none" stroke="#000000" stroke-width="0.5" stroke-miterlimit="10" d="M208.236,235.461
					c-2.637-5.408-19.6-6.717-22.488-4.967"/>
				<path fill="none" stroke="#000000" stroke-width="0.5" stroke-miterlimit="10" d="M187.116,230.104
					c2.787-1.744,20.821-1.195,24.41,6.189"/>
			</g>
			<path fill="#D6A477" stroke="#000000" stroke-width="0.5" stroke-miterlimit="10" d="M195.398,218.842
				c3.71-0.594,6.544-3.811,6.544-7.686c0-4.301-3.485-7.787-7.785-7.787c-4.299,0-7.785,3.486-7.785,7.787"/>
			<path fill="#D6A477" stroke="#000000" stroke-width="0.5" stroke-miterlimit="10" d="M166.649,218.842
				c-3.711-0.594-6.545-3.811-6.545-7.686c0-4.301,3.486-7.787,7.785-7.787c4.3,0,7.786,3.486,7.786,7.787"/>
			<path fill="#D6A477" stroke="#000000" stroke-width="0.5" stroke-miterlimit="10" d="M206.917,226.141
				c0-15.695-8.205-9.973-8.205-9.973s-0.612-11.117-17.347-11.117c-16.569,0-16.666,11.117-16.666,11.117
				s-8.754-5.723-8.754,10.059c0,11.637,11.31,17.045,25.42,17.045S206.917,237.777,206.917,226.141z"/>
			<g>
				<g>
					<g>
						<path fill="#D6A477" stroke="#000000" stroke-width="0.5" stroke-miterlimit="10" d="M184.12,243.016
							c-3.938-4.213-6.384-7.209-6.741-14.285l-0.001-0.025c-0.799-11.611,10.372-23.023,9.161-36.883
							c-0.22-2.52-2.651-6.729-2.81-6.438s1.268,2.496,1.756,5.182c1.751,9.596-12.373,21.182-11.291,40.68l0.002,0.031
							c0.35,6.297,1.817,7.617,4.242,11.719"/>
					</g>
				</g>
				<g>
					<path fill="#977348" d="M183.984,243.014c-2.208-2.613-6.187-4.523-6.738-14.467c-0.292-5.256,2.25-11.648,4.699-17.441
						c0.118-0.277,1.448-3.266,2.424-6.119c1.033-3.018,1.525-5.246,1.525-5.246s-3.503,9.449-5.73,13.916
						c-2.306,4.623-3.731,9.863-3.559,14.828c0.151,6.443,2.064,9.262,5.71,14.625"/>
				</g>
			</g>
		</g>
		<g>
			<g>
				<path fill="#D6A477" stroke="#000000" stroke-width="0.5" stroke-miterlimit="10" d="M267.427,235.463
					c-1.348,1.094-4.455,3.479-4.455,3.479l-0.01,3.691c0,1.166,0.997,0.912,2.228,0.912c1.229,0,2.228,0.254,2.228-0.912
					L267.427,235.463z"/>
			</g>
			<g>
				<path fill="#D6A477" stroke="#000000" stroke-width="0.5" stroke-miterlimit="10" d="M227.769,235.463
					c1.346,1.094,4.455,3.479,4.455,3.479l0.009,3.691c0,1.166-0.997,0.912-2.228,0.912c-1.229,0-2.228,0.254-2.228-0.912
					L227.769,235.463z"/>
			</g>
			<g>
				<path fill="none" stroke="#000000" stroke-width="0.5" stroke-miterlimit="10" d="M221.155,235.461
					c2.638-5.408,19.6-6.717,22.488-4.967"/>
				<path fill="none" stroke="#000000" stroke-width="0.5" stroke-miterlimit="10" d="M242.276,230.104
					c-2.787-1.744-20.822-1.195-24.411,6.189"/>
				<path fill="none" stroke="#000000" stroke-width="0.5" stroke-miterlimit="10" d="M228.589,233.439
					c2.422-2.648,9.506-4.787,15.166-2.621"/>
			</g>
			<g>
				<path fill="none" stroke="#000000" stroke-width="0.5" stroke-miterlimit="10" d="M267.144,233.439
					c-2.424-2.648-9.507-4.787-15.168-2.621"/>
				<path fill="none" stroke="#000000" stroke-width="0.5" stroke-miterlimit="10" d="M274.575,235.461
					c-2.637-5.408-19.6-6.717-22.488-4.967"/>
				<path fill="none" stroke="#000000" stroke-width="0.5" stroke-miterlimit="10" d="M253.456,230.104
					c2.787-1.744,20.82-1.195,24.41,6.189"/>
			</g>
			<path fill="#D6A477" stroke="#000000" stroke-width="0.5" stroke-miterlimit="10" d="M261.737,218.842
				c3.71-0.594,6.545-3.811,6.545-7.686c0-4.301-3.486-7.787-7.786-7.787c-4.299,0-7.784,3.486-7.784,7.787"/>
			<path fill="#D6A477" stroke="#000000" stroke-width="0.5" stroke-miterlimit="10" d="M232.988,218.842
				c-3.71-0.594-6.544-3.811-6.544-7.686c0-4.301,3.485-7.787,7.785-7.787c4.299,0,7.785,3.486,7.785,7.787"/>
			<path fill="#D6A477" stroke="#000000" stroke-width="0.5" stroke-miterlimit="10" d="M273.257,226.141
				c0-15.695-8.205-9.973-8.205-9.973s-0.613-11.117-17.348-11.117c-16.569,0-16.666,11.117-16.666,11.117
				s-8.754-5.723-8.754,10.059c0,11.637,11.311,17.045,25.42,17.045C261.814,243.271,273.257,237.777,273.257,226.141z"/>
			<g>
				<g>
					<g>
						<path fill="#D6A477" stroke="#000000" stroke-width="0.5" stroke-miterlimit="10" d="M250.459,243.016
							c-3.938-4.213-6.384-7.209-6.741-14.285v-0.025c-0.799-11.611,10.371-23.023,9.16-36.883c-0.219-2.52-2.65-6.729-2.809-6.438
							s1.268,2.496,1.756,5.182c1.75,9.596-12.373,21.182-11.291,40.68l0.002,0.031c0.35,6.297,1.816,7.617,4.241,11.719"/>
					</g>
				</g>
				<g>
					<path fill="#977348" d="M250.323,243.014c-2.208-2.613-6.186-4.523-6.738-14.467c-0.291-5.256,2.25-11.648,4.699-17.441
						c0.118-0.277,1.448-3.266,2.424-6.119c1.033-3.018,1.525-5.246,1.525-5.246s-3.503,9.449-5.73,13.916
						c-2.305,4.623-3.731,9.863-3.559,14.828c0.151,6.443,2.064,9.262,5.71,14.625"/>
				</g>
			</g>
		</g>
		<g>
			<g>
				<path fill="#D6A477" stroke="#000000" stroke-width="0.5" stroke-miterlimit="10" d="M333.766,235.463
					c-1.348,1.094-4.455,3.479-4.455,3.479l-0.01,3.691c0,1.166,0.997,0.912,2.228,0.912c1.229,0,2.228,0.254,2.228-0.912
					L333.766,235.463z"/>
			</g>
			<g>
				<path fill="#D6A477" stroke="#000000" stroke-width="0.5" stroke-miterlimit="10" d="M294.107,235.463
					c1.346,1.094,4.455,3.479,4.455,3.479l0.009,3.691c0,1.166-0.997,0.912-2.228,0.912c-1.229,0-2.228,0.254-2.228-0.912
					L294.107,235.463z"/>
			</g>
			<g>
				<path fill="none" stroke="#000000" stroke-width="0.5" stroke-miterlimit="10" d="M287.494,235.461
					c2.638-5.408,19.6-6.717,22.488-4.967"/>
				<path fill="none" stroke="#000000" stroke-width="0.5" stroke-miterlimit="10" d="M308.615,230.104
					c-2.787-1.744-20.822-1.195-24.411,6.189"/>
				<path fill="none" stroke="#000000" stroke-width="0.5" stroke-miterlimit="10" d="M294.928,233.439
					c2.422-2.648,9.506-4.787,15.166-2.621"/>
			</g>
			<g>
				<path fill="none" stroke="#000000" stroke-width="0.5" stroke-miterlimit="10" d="M333.482,233.439
					c-2.424-2.648-9.507-4.787-15.168-2.621"/>
				<path fill="none" stroke="#000000" stroke-width="0.5" stroke-miterlimit="10" d="M340.914,235.461
					c-2.637-5.408-19.6-6.717-22.488-4.967"/>
				<path fill="none" stroke="#000000" stroke-width="0.5" stroke-miterlimit="10" d="M319.795,230.104
					c2.787-1.744,20.82-1.195,24.41,6.189"/>
			</g>
			<path fill="#D6A477" stroke="#000000" stroke-width="0.5" stroke-miterlimit="10" d="M328.076,218.842
				c3.71-0.594,6.545-3.811,6.545-7.686c0-4.301-3.486-7.787-7.786-7.787c-4.299,0-7.784,3.486-7.784,7.787"/>
			<path fill="#D6A477" stroke="#000000" stroke-width="0.5" stroke-miterlimit="10" d="M299.327,218.842
				c-3.71-0.594-6.544-3.811-6.544-7.686c0-4.301,3.485-7.787,7.785-7.787c4.299,0,7.785,3.486,7.785,7.787"/>
			<path fill="#D6A477" stroke="#000000" stroke-width="0.5" stroke-miterlimit="10" d="M339.596,226.141
				c0-15.695-8.205-9.973-8.205-9.973s-0.613-11.117-17.348-11.117c-16.569,0-16.666,11.117-16.666,11.117
				s-8.754-5.723-8.754,10.059c0,11.637,11.311,17.045,25.42,17.045C328.153,243.271,339.596,237.777,339.596,226.141z"/>
			<g>
				<g>
					<g>
						<path fill="#D6A477" stroke="#000000" stroke-width="0.5" stroke-miterlimit="10" d="M316.798,243.016
							c-3.938-4.213-6.384-7.209-6.741-14.285v-0.025c-0.799-11.611,10.371-23.023,9.16-36.883c-0.219-2.52-2.65-6.729-2.809-6.438
							s1.268,2.496,1.756,5.182c1.75,9.596-12.373,21.182-11.291,40.68l0.002,0.031c0.35,6.297,1.816,7.617,4.241,11.719"/>
					</g>
				</g>
				<g>
					<path fill="#977348" d="M316.662,243.014c-2.208-2.613-6.186-4.523-6.738-14.467c-0.291-5.256,2.25-11.648,4.699-17.441
						c0.118-0.277,1.448-3.266,2.424-6.119c1.033-3.018,1.525-5.246,1.525-5.246s-3.503,9.449-5.73,13.916
						c-2.305,4.623-3.731,9.863-3.559,14.828c0.151,6.443,2.064,9.262,5.71,14.625"/>
				</g>
			</g>
		</g>
		<g>
			<path fill="#D6A477" d="M159.024,149.191c0-4.33,2.34-7.839,5.227-7.839h22.881c2.887,0,5.227,3.51,5.227,7.839v4.321
				c0,4.33-2.34,7.839-5.227,7.839h-22.881c-2.887,0-5.227-3.51-5.227-7.839V149.191z"/>
			<path fill="#E6E7E8" d="M230.136,149.191c0-4.33,2.34-7.839,5.227-7.839h22.881c2.887,0,5.227,3.51,5.227,7.839v4.321
				c0,4.33-2.34,7.839-5.227,7.839h-22.881c-2.887,0-5.227-3.51-5.227-7.839V149.191z"/>
			<path fill="#D6A477" d="M301.247,149.191c0-4.33,2.339-7.839,5.226-7.839h22.882c2.887,0,5.227,3.51,5.227,7.839v4.321
				c0,4.33-2.34,7.839-5.227,7.839h-22.882c-2.887,0-5.226-3.51-5.226-7.839V149.191z"/>
			<path fill="#D6A477" d="M159.024,222.541c0-4.33,2.34-7.84,5.227-7.84h22.881c2.887,0,5.227,3.51,5.227,7.84v4.32
				c0,4.33-2.34,7.84-5.227,7.84h-22.881c-2.887,0-5.227-3.51-5.227-7.84V222.541z"/>
			<path fill="#D6A477" d="M230.136,222.541c0-4.33,2.34-7.84,5.227-7.84h22.881c2.887,0,5.227,3.51,5.227,7.84v4.32
				c0,4.33-2.34,7.84-5.227,7.84h-22.881c-2.887,0-5.227-3.51-5.227-7.84V222.541z"/>
			<path fill="#D6A477" d="M301.247,222.541c0-4.33,2.339-7.84,5.226-7.84h22.882c2.887,0,5.227,3.51,5.227,7.84v4.32
				c0,4.33-2.34,7.84-5.227,7.84h-22.882c-2.887,0-5.226-3.51-5.226-7.84V222.541z"/>
		</g>
		<g>
			<g>
				<text transform="matrix(1 0 0 1 164.7397 155.6025)" font-size="13">1\1\1</text>
			</g>
			<g>
				<text transform="matrix(1 0 0 1 231.708 155.6025)" font-size="13">2\1\1</text>
			</g>
			<g>
				<text transform="matrix(1 0 0 1 298.6758 155.6025)" font-size="13">3\1\1</text>
			</g>
			<g>
				<text transform="matrix(1 0 0 1 164.7397 228.9492)" font-size="13">1\2\1</text>
			</g>
			<g>
				<text transform="matrix(1 0 0 1 231.708 228.9492)" font-size="13">2\2\1</text>
			</g>
			<g>
				<text transform="matrix(1 0 0 1 298.6758 228.9492)" font-size="13">3\2\1</text>
			</g>
		</g>
	</g>
</g>
</svg>
