<?xml version="1.0" encoding="utf-8"?>
<!DOCTYPE svg PUBLIC "-//W3C//DTD SVG 1.1//EN" "http://www.w3.org/Graphics/SVG/1.1/DTD/svg11.dtd">
<svg version="1.1" id="Layer_1" xmlns="http://www.w3.org/2000/svg" xmlns:xlink="http://www.w3.org/1999/xlink" x="0px" y="0px"
	 width="602px" height="333.938px" viewBox="0 0 602 333.938" enable-background="new 0 0 602 333.938" xml:space="preserve">
        
<defs>
	<style type="text/css">
	text {
	  font-family: Helvetica, Verdana, ArialUnicodeMS, san-serif
	}
	</style>
</defs>

<g>
   <desc>
	PS 3.3 Information Object Definitions
   </desc>
</g>

<g>
	<rect x="1" y="1" fill="#F5EED6" width="600" height="331.938"/>
	<g>
		
			<line fill="none" stroke="#000000" stroke-width="0.75" stroke-miterlimit="1" x1="139.172" y1="242.399" x2="530.195" y2="242.399"/>
		
			<line fill="none" stroke="#000000" stroke-width="0.75" stroke-miterlimit="1" x1="139.172" y1="274.627" x2="530.195" y2="274.627"/>
		<rect x="14.948" y="173.862" fill="none" width="112.023" height="119.362"/>
		<text transform="matrix(0.9288 0 0 1 46.5815 180.3027)"><tspan x="0" y="0" font-size="9">Transfer Tube Length</tspan><tspan x="36.018" y="10.799" font-size="9">(300A,02A4)</tspan><tspan x="-14.018" y="32.399" font-size="9">Channel Effective Length</tspan><tspan x="37.015" y="43.199" font-size="9">(300A,0271)</tspan><tspan x="-0.017" y="64.799" font-size="9">Channel Inner Length</tspan><tspan x="37.015" y="75.6" font-size="9">(300A,0272)</tspan><tspan x="-29.518" y="97.199" font-size="9">Source Applicator Tip Length</tspan><tspan x="37.015" y="108" font-size="9">(300A.0274)</tspan></text>
		
			<line fill="none" stroke="#000000" stroke-width="0.75" stroke-miterlimit="1" x1="139.172" y1="209.899" x2="530.195" y2="209.899"/>
		
			<line fill="none" stroke="#000000" stroke-width="0.75" stroke-miterlimit="1" x1="139.172" y1="177.182" x2="530.195" y2="177.182"/>
		
			<line fill="none" stroke="#000000" stroke-width="0.75" stroke-linecap="round" stroke-miterlimit="1" stroke-dasharray="6,2" x1="145.172" y1="154.824" x2="145.172" y2="297.939"/>
		
			<line fill="none" stroke="#000000" stroke-width="0.75" stroke-linecap="round" stroke-miterlimit="1" stroke-dasharray="4,4" x1="304.592" y1="130.366" x2="304.592" y2="194.754"/>
		
			<line fill="none" stroke="#000000" stroke-width="0.75" stroke-linecap="round" stroke-miterlimit="1" stroke-dasharray="4,4" x1="462.773" y1="103.444" x2="462.773" y2="297.939"/>
		
			<line fill="none" stroke="#000000" stroke-width="0.75" stroke-linecap="round" stroke-miterlimit="1" stroke-dasharray="4,4" x1="489.979" y1="103.444" x2="489.979" y2="297.939"/>
		
			<line fill="none" stroke="#000000" stroke-width="0.75" stroke-linecap="round" stroke-miterlimit="1" stroke-dasharray="4,4" x1="516.824" y1="103.444" x2="516.824" y2="297.939"/>
		<path fill="none" stroke="#005695" stroke-width="4" stroke-linecap="round" stroke-miterlimit="1" d="M462.773,209.899"/>
		<path fill="none" stroke="#005695" stroke-width="4" stroke-linecap="round" stroke-miterlimit="1" d="M304.592,209.899"/>
		<path fill="none" stroke="#005695" stroke-width="4" stroke-linecap="round" stroke-miterlimit="1" d="M304.592,209.899"/>
		<path fill="none" stroke="#005695" stroke-width="4" stroke-linecap="round" stroke-miterlimit="1" d="M145.172,209.899"/>
		<path fill="none" stroke="#005695" stroke-width="4" stroke-linecap="round" stroke-miterlimit="1" d="M304.592,242.399"/>
		<path fill="none" stroke="#005695" stroke-width="4" stroke-linecap="round" stroke-miterlimit="1" d="M145.172,242.399"/>
		<g>
			<g>
				
					<line fill="none" stroke="#005695" stroke-width="3" stroke-linecap="round" stroke-miterlimit="1" x1="474.428" y1="274.627" x2="504.342" y2="274.627"/>
				<g>
					<polygon fill="#005695" points="477.103,278.549 462.468,274.627 477.103,270.705 					"/>
				</g>
				<g>
					<polygon fill="#005695" points="501.667,278.549 516.302,274.627 501.667,270.705 					"/>
				</g>
			</g>
		</g>
		<g>
			<g>
				<line fill="none" stroke="#000000" stroke-miterlimit="1" x1="145.061" y1="27.398" x2="145.061" y2="70.304"/>
				<g>
					<polygon points="143.317,69.115 145.061,75.62 146.804,69.115 					"/>
				</g>
			</g>
		</g>
		<path fill="#FFC20E" stroke="#000000" d="M410.463,106.013H304.057v19.096h119.965
			C423.57,119.007,411.131,112.448,410.463,106.013z"/>
		<path fill="#FFC20E" stroke="#000000" d="M506.783,106.013h-90.957c0.668,6.435,13.107,12.994,13.559,19.096h77.398
			C520.168,125.109,520.168,106.013,506.783,106.013z"/>
		<g>
			<path fill="#FFFFFF" d="M182.464,119.663c-0.105-5.959-12.015-12.364-13.456-18.67l-0.041,0.003
				c-7.774,0.79-15.878,2.36-24.383,5.018v19.096c13.501-4.131,25.997-5.554,37.753-5.45L182.464,119.663z"/>
			<g>
				<path fill="none" stroke="#000000" d="M181.464,119.654c0.292,0,0.583,0.002,0.873,0.005l0.126,0.004
					c-0.006-0.329-0.047-0.659-0.122-0.99"/>
				<path fill="none" stroke="#000000" stroke-dasharray="1.9454,0.9727" d="M182.056,117.745
					c-1.939-4.957-10.213-10.173-12.564-15.35"/>
				<path fill="none" stroke="#000000" d="M169.302,101.945c-0.123-0.318-0.222-0.635-0.294-0.953l-0.041,0.003
					c-0.316,0.032-0.633,0.065-0.951,0.1"/>
				<path fill="none" stroke="#000000" stroke-dasharray="2.0886,1.0443" d="M166.982,101.213
					c-6.716,0.793-13.68,2.179-20.936,4.352"/>
				<path fill="none" stroke="#000000" d="M145.541,105.719c-0.318,0.097-0.637,0.195-0.956,0.294v1"/>
				<line fill="none" stroke="#000000" stroke-dasharray="2.137,1.0685" x1="144.584" y1="108.082" x2="144.584" y2="123.575"/>
				<path fill="none" stroke="#000000" d="M144.584,124.109v1c0.32-0.098,0.639-0.194,0.958-0.289"/>
				<path fill="none" stroke="#000000" stroke-dasharray="1.9685,0.9843" d="M146.487,124.543
					c12.261-3.547,23.692-4.876,34.496-4.89"/>
			</g>
		</g>
		<g>
			<path fill="#FFFFFF" d="M283.192,106.013c-38.072,16.17-61.791-8.146-108.521-5.437c0.999,6.5,13.659,13.117,13.536,19.254
				c40.11,1.938,60.68,20.152,94.985,5.278h20.865v-19.096H283.192z"/>
			<g>
				<path fill="none" stroke="#000000" d="M175.67,100.522c-0.332,0.017-0.665,0.035-1,0.054c0.05,0.323,0.128,0.646,0.232,0.969"/>
				<path fill="none" stroke="#000000" stroke-dasharray="1.9993,0.9996" d="M175.27,102.473
					c2.496,5.362,11.279,10.765,12.734,15.875"/>
				<path fill="none" stroke="#000000" d="M188.12,118.837c0.063,0.333,0.094,0.664,0.087,0.994c0.334,0.016,0.668,0.034,1,0.052"/>
				<path fill="none" stroke="#000000" stroke-dasharray="2.012,1.006" d="M190.212,119.942c38.8,2.43,59.251,19.791,92.98,5.167
					h19.365"/>
				<polyline fill="none" stroke="#000000" points="303.057,125.109 304.057,125.109 304.057,124.109 				"/>
				<line fill="none" stroke="#000000" stroke-dasharray="2.137,1.0685" x1="304.057" y1="123.041" x2="304.057" y2="107.547"/>
				<polyline fill="none" stroke="#000000" points="304.057,107.013 304.057,106.013 303.057,106.013 				"/>
				<path fill="none" stroke="#000000" stroke-dasharray="1.9874,0.9937" d="M302.062,106.013h-18.871
					c-37.664,15.997-61.28-7.628-107.025-5.515"/>
			</g>
		</g>
		<path fill="#CCDEF0" stroke="#000000" stroke-linejoin="bevel" d="M283.192,112.561c-36.967,15.862-59.768-6.576-104.426-5.515
			l5.899,6.002c41.778,0.87,63.206,20.669,98.526,5.513h20.865v-6H283.192z"/>
		<path fill="#CCDEF0" stroke="#000000" stroke-linejoin="bevel" d="M172.969,107.281c-8.771,0.592-18.172,2.188-27.909,5.28v6
			c11.809-3.75,23.328-5.302,33.749-5.524C177.095,111.136,174.742,109.212,172.969,107.281z"/>
		<g>
			<g>
				<path fill="none" stroke="#005695" stroke-width="3" stroke-linecap="round" stroke-miterlimit="1" d="M156.676,174.324
					c55.977-11.06,88.514,21.426,126.516,2.85h8.903"/>
				<g>
					<polygon fill="#005695" points="160.206,177.592 145.06,177.174 158.385,169.961 					"/>
				</g>
				<g>
					<polygon fill="#005695" points="289.421,181.096 304.057,177.174 289.421,173.251 					"/>
				</g>
			</g>
		</g>
		<g>
			<g>
				<path fill="none" stroke="#005695" stroke-width="3" stroke-linecap="round" stroke-miterlimit="1" d="M156.676,206.721
					c55.977-11.06,88.514,21.426,126.516,2.85h167.129"/>
				<g>
					<polygon fill="#005695" points="160.206,209.988 145.06,209.57 158.385,202.358 					"/>
				</g>
				<g>
					<polygon fill="#005695" points="447.648,213.492 462.283,209.57 447.648,205.648 					"/>
				</g>
			</g>
		</g>
		<g>
			<g>
				<path fill="none" stroke="#005695" stroke-width="3" stroke-linecap="round" stroke-miterlimit="1" d="M156.676,239.117
					c55.977-11.06,88.514,21.426,126.516,2.85h194.34"/>
				<g>
					<polygon fill="#005695" points="160.206,242.385 145.06,241.967 158.385,234.755 					"/>
				</g>
				<g>
					<polygon fill="#005695" points="474.859,245.889 489.494,241.967 474.859,238.045 					"/>
				</g>
			</g>
		</g>
		<path fill="#CCDEF0" stroke="#000000" d="M414.26,112.561H304.057v6h116.107C418.312,116.58,416.105,114.574,414.26,112.561z"/>
		<path fill="#CCDEF0" stroke="#000000" d="M486.77,112.561h-67.146c1.846,2.013,4.053,4.019,5.904,6h61.242
			C491.062,118.561,491.029,112.561,486.77,112.561z"/>
		<path fill="#005695" stroke="#000000" stroke-width="0.5" d="M473.141,115.561c0,0.552-0.541,1-1.211,1h-18.316
			c-0.67,0-1.213-0.448-1.213-1l0,0c0-0.552,0.543-1,1.213-1h18.316C472.6,114.561,473.141,115.009,473.141,115.561L473.141,115.561
			z"/>
		<rect x="131.06" y="78.015" fill="#C0E2CA" stroke="#000000" width="14" height="75"/>
		<g>
			<rect x="123.227" y="16.921" fill="none" width="43.667" height="8.461"/>
			<text transform="matrix(0.9288 0 0 1 124.6167 23.375)" font-size="9">Afterloader</text>
		</g>
		<g>
			<g>
				<line fill="none" stroke="#000000" stroke-miterlimit="1" x1="219.62" y1="27.398" x2="219.62" y2="94.492"/>
				<g>
					<polygon points="217.876,93.303 219.62,99.807 221.363,93.303 					"/>
				</g>
			</g>
		</g>
		<g>
			<rect x="189.619" y="16.921" fill="none" width="60" height="8.461"/>
			<text transform="matrix(0.9288 0 0 1 190.5825 23.375)" font-size="9">Transfer Tube *</text>
		</g>
		<g>
			<g>
				<line fill="none" stroke="#000000" stroke-miterlimit="1" x1="304.307" y1="38.605" x2="304.307" y2="94.492"/>
				<g>
					<polygon points="302.563,93.303 304.307,99.807 306.05,93.303 					"/>
				</g>
			</g>
		</g>
		<g>
			<rect x="268.475" y="16.921" fill="none" width="71.666" height="19.668"/>
			<text transform="matrix(0.9288 0 0 1 271.0859 23.375)"><tspan x="0" y="0" font-size="9">Source-Applicator</tspan><tspan x="16.005" y="10.8" font-size="9">connector</tspan></text>
		</g>
		<g>
			<g>
				<line fill="none" stroke="#000000" stroke-miterlimit="1" x1="386.98" y1="27.398" x2="386.98" y2="94.492"/>
				<g>
					<polygon points="385.237,93.303 386.98,99.807 388.724,93.303 					"/>
				</g>
			</g>
		</g>
		<g>
			<rect x="351.312" y="16.921" fill="none" width="71.334" height="8.461"/>
			<text transform="matrix(0.9288 0 0 1 353.9863 23.375)" font-size="9">Source Applicator</text>
		</g>
		<g>
			<g>
				<line fill="none" stroke="#000000" stroke-miterlimit="1" x1="462.771" y1="27.398" x2="462.771" y2="97.515"/>
				<g>
					<polygon points="461.028,96.326 462.771,102.831 464.515,96.326 					"/>
				</g>
			</g>
		</g>
		<g>
			<rect x="442.848" y="16.921" fill="none" width="142.668" height="8.461"/>
			<text transform="matrix(0.9288 0 0 1 446.3447 23.3745)" font-size="9">Center of distal-most source position</text>
		</g>
		<g>
			<g>
				<line fill="none" stroke="#000000" stroke-miterlimit="1" x1="489.977" y1="43.523" x2="489.977" y2="97.515"/>
				<g>
					<polygon points="488.233,96.326 489.977,102.831 491.72,96.326 					"/>
				</g>
			</g>
		</g>
		<g>
			<rect x="470.055" y="33.046" fill="none" width="117" height="8.461"/>
			<text transform="matrix(0.9288 0 0 1 474.8809 39.5005)" font-size="9">Source Applicator lumen end</text>
		</g>
		<g>
			<g>
				<line fill="none" stroke="#000000" stroke-miterlimit="1" x1="516.822" y1="59.679" x2="516.822" y2="97.515"/>
				<g>
					<polygon points="515.079,96.326 516.822,102.831 518.565,96.326 					"/>
				</g>
			</g>
		</g>
		<g>
			<rect x="500.93" y="49.171" fill="none" width="85.955" height="8.461"/>
			<text transform="matrix(0.9288 0 0 1 505.3369 55.625)" font-size="9">Source Applicator tip</text>
		</g>
		<linearGradient id="SVGID_1_" gradientUnits="userSpaceOnUse" x1="300.9731" y1="130.2651" x2="300.9731" y2="101.3486">
			<stop  offset="0" style="stop-color:#FFFFFF"/>
			<stop  offset="0.1685" style="stop-color:#0B0B0B"/>
			<stop  offset="0.2637" style="stop-color:#7F7F7F"/>
			<stop  offset="0.3956" style="stop-color:#8E8E8E"/>
			<stop  offset="0.5421" style="stop-color:#636363"/>
			<stop  offset="0.6264" style="stop-color:#5F5F5F"/>
			<stop  offset="0.7179" style="stop-color:#EAEAEA"/>
			<stop  offset="0.7912" style="stop-color:#FFFFFF"/>
			<stop  offset="1" style="stop-color:#000000"/>
		</linearGradient>
		<rect x="283.223" y="101.349" opacity="0.6" fill="url(#SVGID_1_)" stroke="#000000" width="35.5" height="28.917"/>
		<g>
			<g>
				<g>
					<path fill="none" stroke="#000000" d="M416.48,132.537c0.318-0.13,0.626-0.26,0.921-0.391"/>
					<path fill="none" stroke="#000000" stroke-dasharray="2.0138,1.0069" d="M418.315,131.722
						c20.192-9.799-21.486-21.597-3.15-32.416"/>
					<path fill="none" stroke="#000000" d="M415.599,99.057c0.28-0.158,0.574-0.315,0.882-0.472"/>
				</g>
			</g>
			<g>
				<g>
					<path fill="none" stroke="#000000" d="M421.844,132.537c0.318-0.13,0.626-0.26,0.921-0.391"/>
					<path fill="none" stroke="#000000" stroke-dasharray="2.0138,1.0069" d="M423.679,131.722
						c20.192-9.799-21.486-21.597-3.15-32.416"/>
					<path fill="none" stroke="#000000" d="M420.962,99.057c0.28-0.158,0.574-0.315,0.882-0.472"/>
				</g>
			</g>
		</g>
		<g>
			<g>
				<path fill="none" stroke="#000000" d="M174.982,126.787c0.319-0.13,0.625-0.26,0.921-0.391"/>
				<path fill="none" stroke="#000000" stroke-dasharray="2.0138,1.0069" d="M176.818,125.972
					c20.192-9.799-21.487-21.597-3.151-32.416"/>
				<path fill="none" stroke="#000000" d="M174.1,93.307c0.281-0.158,0.575-0.315,0.882-0.472"/>
			</g>
		</g>
		<g>
			<g>
				<path fill="none" stroke="#000000" d="M180.748,126.787c0.319-0.13,0.625-0.26,0.921-0.391"/>
				<path fill="none" stroke="#000000" stroke-dasharray="2.0138,1.0069" d="M182.583,125.972
					c20.191-9.799-21.487-21.597-3.151-32.416"/>
				<path fill="none" stroke="#000000" d="M179.866,93.307c0.281-0.158,0.575-0.315,0.882-0.472"/>
			</g>
		</g>
		<g>
			<rect x="14.948" y="307.016" fill="none" width="420.814" height="10"/>
			<text transform="matrix(0.9288 0 0 1 14.9478 313.458)" font-size="9">* The Transfer Tube may not be used. In that case, the Source Applicator is directly connected to the Afterloader.</text>
		</g>
	</g>
</g>
</svg>
