<?xml version="1.0" encoding="utf-8"?>

<!DOCTYPE svg PUBLIC "-//W3C//DTD SVG 1.1//EN" "http://www.w3.org/Graphics/SVG/1.1/DTD/svg11.dtd">
<svg version="1.1" id="Layer_1" xmlns="http://www.w3.org/2000/svg" xmlns:xlink="http://www.w3.org/1999/xlink" x="0px" y="0px"
	 width="601.99px" height="392px" viewBox="0 0 601.99 392" enable-background="new 0 0 601.99 392" xml:space="preserve">

<defs>
	<style type="text/css">
	text {
	  font-family: Helvetica, Verdana, ArialUnicodeMS, san-serif
	}
	</style>
</defs>

<g>
   <desc>
	PS 3.3 Part 3: Information Object Definitions
   </desc>
</g>

<g>
	<rect x="1" y="1" fill="#F5EED6" width="599.99" height="390"/>
	<g>
		<polyline fill="#FFF56D" points="382.449,295.069 394.644,143.29 450.86,295.069 		"/>
		<g>
			<line fill="none" stroke="#FFFFFF" stroke-miterlimit="10" x1="394.6" y1="143.29" x2="447.288" y2="296.939"/>
			<line fill="none" stroke="#FFFFFF" stroke-miterlimit="10" x1="394.6" y1="143.29" x2="441.894" y2="298.623"/>
			<line fill="none" stroke="#FFFFFF" stroke-miterlimit="10" x1="394.6" y1="143.29" x2="436.446" y2="300.115"/>
			<line fill="none" stroke="#FFFFFF" stroke-miterlimit="10" x1="394.6" y1="143.29" x2="430.948" y2="301.417"/>
			<line fill="none" stroke="#FFFFFF" stroke-miterlimit="10" x1="394.6" y1="143.29" x2="425.407" y2="302.527"/>
			<line fill="none" stroke="#FFFFFF" stroke-miterlimit="10" x1="394.6" y1="143.29" x2="419.833" y2="303.442"/>
			<line fill="none" stroke="#FFFFFF" stroke-miterlimit="10" x1="394.6" y1="143.29" x2="414.228" y2="304.162"/>
			<line fill="none" stroke="#FFFFFF" stroke-miterlimit="10" x1="394.6" y1="143.29" x2="408.603" y2="304.688"/>
			<line fill="none" stroke="#FFFFFF" stroke-miterlimit="10" x1="394.6" y1="143.29" x2="402.962" y2="305.016"/>
			<line fill="none" stroke="#FFFFFF" stroke-miterlimit="10" x1="394.6" y1="143.29" x2="397.315" y2="305.146"/>
			<line fill="none" stroke="#FFFFFF" stroke-miterlimit="10" x1="394.6" y1="143.29" x2="391.665" y2="305.08"/>
			<line fill="none" stroke="#FFFFFF" stroke-miterlimit="10" x1="394.6" y1="143.29" x2="386.022" y2="304.816"/>
		</g>
		<polyline fill="none" stroke="#000000" stroke-width="0.5" stroke-miterlimit="10" points="382.449,295.069 394.644,143.29 
			450.86,295.069 		"/>
		<rect x="504.926" y="57.755" fill="#C0E2CA" stroke="#000000" width="66.711" height="317.394"/>
		<rect x="499.178" y="278.13" fill="#CCDEF0" stroke="#000000" width="5.748" height="33.345"/>
		
			<line fill="none" stroke="#000000" stroke-width="0.5" stroke-dasharray="4,4" x1="383.432" y1="144.818" x2="383.432" y2="283.754"/>
		<path fill="#CCDEF0" stroke="#000000" d="M471.551,316.559c16.043,0.03,27.627-0.103,27.627-0.103V112.178
			c0-3.316-28.369-6.005-63.365-6.005s-63.367,2.688-63.367,6.005l6.004,55.573h33.088l1.662-11.882l58.383-5.11L471.551,316.559z"
			/>
		<path fill="#B2CEE7" stroke="#000000" d="M471.673,294.807h-93.104v16.673c6.149,4.24,59.407,5.021,93.104,5.084V294.807z"/>
		<text transform="matrix(1 -0.0019 0.0019 1 392.8975 241.9375)"><tspan x="0" y="0" fill="#00AEEF" font-size="12">+Z</tspan><tspan x="14.338" y="3" fill="#00AEEF" font-size="12">s</tspan></text>
		<text transform="matrix(1 -0.0019 0.0019 1 425.1934 284.2363)"><tspan x="0" y="0" fill="#0DB14B" font-size="12">+Y</tspan><tspan x="15.012" y="2.999" fill="#0DB14B" font-size="12">s</tspan></text>
		<g>
			<g>
				<line fill="none" stroke="#0DB14B" stroke-width="2" x1="383.432" y1="283.567" x2="431.617" y2="287.443"/>
				<g>
					<polygon fill="#0DB14B" points="429.409,290.18 440.448,288.153 429.875,284.389 					"/>
				</g>
			</g>
		</g>
		<g>
			<g>
				<line fill="none" stroke="#00AEEF" stroke-width="2" x1="383.551" y1="284.099" x2="386.793" y2="241.298"/>
				<g>
					<polygon fill="#00AEEF" points="389.54,243.493 387.462,232.464 383.746,243.055 					"/>
				</g>
			</g>
		</g>
		<g>
			<path stroke="#000000" stroke-miterlimit="1" d="M389.317,284.05c0.008-3.176-2.57-5.745-5.74-5.745v5.745H389.317z"/>
			<path fill="#FFFFFF" stroke="#010101" stroke-linecap="round" stroke-linejoin="round" stroke-miterlimit="1" d="
				M383.577,278.305c-3.17,0-5.742,2.573-5.742,5.745h5.742V278.305z"/>
			<path stroke="#000000" stroke-miterlimit="1" d="M377.835,284.05c0.002,3.177,2.572,5.742,5.75,5.742l-0.008-5.742H377.835z"/>
			<path fill="#FFFFFF" stroke="#010101" stroke-linecap="round" stroke-linejoin="round" stroke-miterlimit="1" d="M383.577,284.05
				l0.008,5.742c3.166,0,5.74-2.572,5.732-5.742H383.577z"/>
		</g>
		<g>
			<ellipse fill="#FEDA00" cx="383.525" cy="144.894" rx="4.594" ry="4.722"/>
			<path d="M383.105,144.984c0-0.257,0.209-0.466,0.461-0.466c0.258,0,0.467,0.209,0.467,0.466c0,0.256-0.209,0.463-0.467,0.463
				C383.314,145.447,383.105,145.24,383.105,144.984z"/>
			<path d="M384.131,143.929c0.354,0.202,0.594,0.592,0.594,1.039c0,0.035-0.002,0.066-0.004,0.1h2.814
				c0.002-0.033,0.002-0.066,0.002-0.1c0-1.513-0.803-2.836-1.996-3.538L384.131,143.929z"/>
			<path d="M383.027,143.929c-0.357,0.202-0.598,0.592-0.598,1.039c0,0.035,0.002,0.066,0.004,0.1h-2.814c0-0.033,0-0.066,0-0.1
				c0-1.513,0.801-2.836,1.992-3.538L383.027,143.929z"/>
			<path d="M384.225,145.958c-0.352,0.206-0.811,0.276-1.197,0.054c-0.027-0.018-0.057-0.036-0.084-0.054l-1.408,2.436
				c0.029,0.018,0.057,0.035,0.086,0.053c1.311,0.756,2.857,0.629,4.062-0.053L384.225,145.958z"/>
		</g>
		<g>
			<text transform="matrix(1 0 0 1 360.377 277.832)"><tspan x="0" y="0" font-size="12">O</tspan><tspan x="8.95" y="3" font-size="12">s</tspan></text>
		</g>
	</g>
	<g>
		<rect x="181.418" y="57.755" fill="#C0E2CA" stroke="#000000" width="66.711" height="317.394"/>
		<rect x="190.394" y="112.178" fill="#CCDEF0" stroke="#000000" width="49.745" height="182.624"/>
		<polyline fill="#FFF56D" points="249.83,294.393 237.635,142.612 181.418,294.393 		"/>
		<g>
			<line fill="none" stroke="#FFFFFF" stroke-miterlimit="10" x1="237.635" y1="142.612" x2="186.749" y2="296.263"/>
			<line fill="none" stroke="#FFFFFF" stroke-miterlimit="10" x1="237.635" y1="142.612" x2="192.143" y2="297.946"/>
			<line fill="none" stroke="#FFFFFF" stroke-miterlimit="10" x1="237.635" y1="142.612" x2="197.591" y2="299.438"/>
			<line fill="none" stroke="#FFFFFF" stroke-miterlimit="10" x1="237.635" y1="142.612" x2="203.089" y2="300.74"/>
			<line fill="none" stroke="#FFFFFF" stroke-miterlimit="10" x1="237.635" y1="142.612" x2="208.629" y2="301.851"/>
			<line fill="none" stroke="#FFFFFF" stroke-miterlimit="10" x1="237.635" y1="142.612" x2="214.205" y2="302.766"/>
			<line fill="none" stroke="#FFFFFF" stroke-miterlimit="10" x1="237.635" y1="142.612" x2="219.808" y2="303.485"/>
			<line fill="none" stroke="#FFFFFF" stroke-miterlimit="10" x1="237.635" y1="142.612" x2="225.434" y2="304.011"/>
			<line fill="none" stroke="#FFFFFF" stroke-miterlimit="10" x1="237.635" y1="142.612" x2="231.074" y2="304.339"/>
			<line fill="none" stroke="#FFFFFF" stroke-miterlimit="10" x1="237.635" y1="142.612" x2="236.722" y2="304.469"/>
			<line fill="none" stroke="#FFFFFF" stroke-miterlimit="10" x1="237.635" y1="142.612" x2="242.372" y2="304.403"/>
			<line fill="none" stroke="#FFFFFF" stroke-miterlimit="10" x1="237.635" y1="142.612" x2="248.015" y2="304.14"/>
		</g>
		<path fill="#B2CEE7" stroke="#000000" d="M253.726,311.475c0,2.81-17.286,5.088-38.61,5.088s-38.611-2.278-38.611-5.088h-0.196
			v-16.673h77.418V311.475z"/>
		<polyline fill="none" stroke="#000000" stroke-width="0.5" stroke-miterlimit="10" points="249.83,294.393 237.635,142.612 
			181.418,294.393 		"/>
		<path fill="#CCDEF0" stroke="#000000" d="M265.021,117.551c0.635-4.006-9.128-8.882-21.807-10.891
			c-12.678-2.008-23.469-0.388-24.104,3.619l-3.048,57.271l34.158,5.41L265.021,117.551z"/>
		<g>
			<g>
				<line fill="none" stroke="#000000" stroke-width="0.5" x1="253.726" y1="37.105" x2="253.109" y2="41.058"/>
				
					<line fill="none" stroke="#000000" stroke-width="0.5" stroke-dasharray="2.0325,2.0325" x1="252.796" y1="43.066" x2="252.326" y2="46.078"/>
				
					<line fill="none" stroke="#000000" stroke-width="0.5" stroke-dasharray="8.1299,2.0325,2.0325,2.0325" x1="252.169" y1="47.082" x2="212.853" y2="299.108"/>
				<line fill="none" stroke="#000000" stroke-width="0.5" x1="212.696" y1="300.112" x2="212.08" y2="304.064"/>
			</g>
		</g>
		
			<line fill="none" stroke="#000000" stroke-width="0.5" stroke-dasharray="4,4" x1="215.292" y1="305.683" x2="215.292" y2="16.852"/>
		<g>
			<path stroke="#000000" stroke-miterlimit="1" d="M220.755,284.05c0.007-3.176-2.571-5.744-5.742-5.744v5.744H220.755z"/>
			<path fill="#FFFFFF" stroke="#010101" stroke-linecap="round" stroke-linejoin="round" stroke-miterlimit="1" d="
				M215.013,278.306c-3.168,0-5.74,2.572-5.74,5.744h5.74V278.306z"/>
			<path stroke="#000000" stroke-miterlimit="1" d="M209.273,284.05c0.002,3.176,2.572,5.741,5.748,5.741l-0.008-5.741H209.273z"/>
			<path fill="#FFFFFF" stroke="#010101" stroke-linecap="round" stroke-linejoin="round" stroke-miterlimit="1" d="M215.013,284.05
				l0.008,5.741c3.167,0,5.741-2.571,5.734-5.741H215.013z"/>
		</g>
		<g>
			<g>
				<path fill="none" stroke="#000000" stroke-miterlimit="10" d="M247.861,40.744c-10.409-2.032-21.909-3.436-32.783-2.243"/>
				<g>
					<polygon points="247.023,38.853 253.065,41.825 246.346,42.272 					"/>
				</g>
			</g>
		</g>
		<text transform="matrix(1 -0.0019 0.0019 1 271.7407 297.8711)"><tspan x="0" y="0" fill="#ED1C24" font-size="12">+X</tspan><tspan x="15.012" y="2.999" fill="#ED1C24" font-size="12">s</tspan></text>
		<text transform="matrix(1 -0.0019 0.0019 1 224.043 241.9375)"><tspan x="0" y="0" fill="#00AEEF" font-size="12">+Z</tspan><tspan x="14.338" y="3" fill="#00AEEF" font-size="12">s</tspan></text>
		<g>
			<g>
				<g>
					<line fill="none" stroke="#ED1C24" stroke-width="2" x1="214.006" y1="284.132" x2="261.962" y2="291.728"/>
					<g>
						<polygon fill="#ED1C24" points="259.551,294.287 270.712,293.113 260.459,288.548 						"/>
					</g>
				</g>
			</g>
			<g>
				<g>
					<line fill="none" stroke="#00AEEF" stroke-width="2" x1="213.948" y1="289.759" x2="221.604" y2="241.419"/>
					<g>
						<polygon fill="#00AEEF" points="224.164,243.831 222.99,232.669 218.424,242.922 						"/>
					</g>
				</g>
			</g>
		</g>
		<g>
			<path stroke="#000000" stroke-miterlimit="1" d="M220.428,284.05c0.007-3.176-2.571-5.744-5.742-5.744v5.744H220.428z"/>
			<path fill="#FFFFFF" stroke="#010101" stroke-linecap="round" stroke-linejoin="round" stroke-miterlimit="1" d="
				M214.686,278.306c-3.168,0-5.74,2.572-5.74,5.744h5.74V278.306z"/>
			<path stroke="#000000" stroke-miterlimit="1" d="M208.946,284.05c0.002,3.176,2.572,5.741,5.748,5.741l-0.008-5.741H208.946z"/>
			<path fill="#FFFFFF" stroke="#010101" stroke-linecap="round" stroke-linejoin="round" stroke-miterlimit="1" d="M214.686,284.05
				l0.008,5.741c3.167,0,5.741-2.571,5.734-5.741H214.686z"/>
		</g>
		<g>
			<ellipse fill="#FEDA00" cx="236.787" cy="144.894" rx="4.594" ry="4.722"/>
			<path d="M236.367,144.984c0-0.257,0.209-0.466,0.461-0.466c0.258,0,0.467,0.209,0.467,0.466c0,0.256-0.209,0.463-0.467,0.463
				C236.576,145.447,236.367,145.24,236.367,144.984z"/>
			<path d="M237.392,143.929c0.354,0.202,0.594,0.592,0.594,1.039c0,0.035-0.002,0.066-0.004,0.1h2.814
				c0.002-0.033,0.002-0.066,0.002-0.1c0-1.513-0.803-2.836-1.996-3.538L237.392,143.929z"/>
			<path d="M236.289,143.929c-0.357,0.202-0.598,0.592-0.598,1.039c0,0.035,0.002,0.066,0.004,0.1h-2.814c0-0.033,0-0.066,0-0.1
				c0-1.513,0.801-2.836,1.992-3.538L236.289,143.929z"/>
			<path d="M237.486,145.958c-0.352,0.206-0.811,0.276-1.197,0.054c-0.027-0.018-0.057-0.036-0.084-0.054l-1.408,2.436
				c0.029,0.018,0.057,0.035,0.086,0.053c1.311,0.756,2.857,0.629,4.062-0.053L237.486,145.958z"/>
		</g>
		<g>
			<text transform="matrix(1 0 0 1 192.7251 277.8311)"><tspan x="0" y="0" font-size="12">O</tspan><tspan x="8.95" y="3" font-size="12">s</tspan></text>
		</g>
	</g>
	<g>
		<text transform="matrix(1 -0.0019 0.0019 1 103.3091 35.0532)"><tspan x="0" y="0" font-size="12">+</tspan><tspan x="7.008" y="0" font-size="12">θ</tspan></text>
		<text transform="matrix(1 -0.0019 0.0019 1 230.8428 35.4932)" font-size="12">θ</text>
		<text transform="matrix(1 -0.0019 0.0019 1 26.6353 35.0459)"><tspan x="0" y="0" font-size="12">-</tspan><tspan x="3.996" y="0" font-size="12">θ</tspan></text>
		<rect x="38.836" y="57.755" fill="#C0E2CA" stroke="#000000" width="66.711" height="317.394"/>
		<rect x="47.812" y="111.158" fill="#CCDEF0" stroke="#000000" width="49.745" height="183.644"/>
		<polyline fill="#FCBB76" points="38.836,294.485 50.202,142.611 107.248,294.485 		"/>
		<polyline fill="#FFF56D" points="107.248,294.393 95.053,142.612 38.836,294.393 		"/>
		<g>
			<line fill="none" stroke="#FFFFFF" stroke-miterlimit="10" x1="95.053" y1="142.612" x2="44.167" y2="296.263"/>
			<line fill="none" stroke="#FFFFFF" stroke-miterlimit="10" x1="95.053" y1="142.612" x2="49.561" y2="297.946"/>
			<line fill="none" stroke="#FFFFFF" stroke-miterlimit="10" x1="95.053" y1="142.612" x2="55.009" y2="299.438"/>
			<line fill="none" stroke="#FFFFFF" stroke-miterlimit="10" x1="95.053" y1="142.612" x2="60.507" y2="300.74"/>
			<line fill="none" stroke="#FFFFFF" stroke-miterlimit="10" x1="95.053" y1="142.612" x2="66.047" y2="301.851"/>
			<line fill="none" stroke="#FFFFFF" stroke-miterlimit="10" x1="95.053" y1="142.612" x2="71.622" y2="302.766"/>
			<line fill="none" stroke="#FFFFFF" stroke-miterlimit="10" x1="95.053" y1="142.612" x2="77.226" y2="303.485"/>
			<line fill="none" stroke="#FFFFFF" stroke-miterlimit="10" x1="95.053" y1="142.612" x2="82.852" y2="304.011"/>
			<line fill="none" stroke="#FFFFFF" stroke-miterlimit="10" x1="95.053" y1="142.612" x2="88.492" y2="304.339"/>
			<line fill="none" stroke="#FFFFFF" stroke-miterlimit="10" x1="95.053" y1="142.612" x2="94.14" y2="304.469"/>
			<line fill="none" stroke="#FFFFFF" stroke-miterlimit="10" x1="95.053" y1="142.612" x2="99.789" y2="304.403"/>
			<line fill="none" stroke="#FFFFFF" stroke-miterlimit="10" x1="95.053" y1="142.612" x2="105.433" y2="304.14"/>
		</g>
		<g>
			<line fill="none" stroke="#FFFFFF" stroke-miterlimit="10" x1="50.407" y1="142.612" x2="101.293" y2="296.263"/>
			<line fill="none" stroke="#FFFFFF" stroke-miterlimit="10" x1="50.407" y1="142.612" x2="95.9" y2="297.946"/>
			<line fill="none" stroke="#FFFFFF" stroke-miterlimit="10" x1="50.407" y1="142.612" x2="90.451" y2="299.438"/>
			<line fill="none" stroke="#FFFFFF" stroke-miterlimit="10" x1="50.407" y1="142.612" x2="84.954" y2="300.74"/>
			<line fill="none" stroke="#FFFFFF" stroke-miterlimit="10" x1="50.407" y1="142.612" x2="79.414" y2="301.851"/>
			<line fill="none" stroke="#FFFFFF" stroke-miterlimit="10" x1="50.407" y1="142.612" x2="73.838" y2="302.766"/>
			<line fill="none" stroke="#FFFFFF" stroke-miterlimit="10" x1="50.407" y1="142.612" x2="68.234" y2="303.485"/>
			<line fill="none" stroke="#FFFFFF" stroke-miterlimit="10" x1="50.407" y1="142.612" x2="62.609" y2="304.011"/>
			<line fill="none" stroke="#FFFFFF" stroke-miterlimit="10" x1="50.407" y1="142.612" x2="56.969" y2="304.339"/>
			<line fill="none" stroke="#FFFFFF" stroke-miterlimit="10" x1="50.407" y1="142.612" x2="51.321" y2="304.469"/>
			<line fill="none" stroke="#FFFFFF" stroke-miterlimit="10" x1="50.407" y1="142.612" x2="45.671" y2="304.403"/>
			<line fill="none" stroke="#FFFFFF" stroke-miterlimit="10" x1="50.407" y1="142.612" x2="40.028" y2="304.14"/>
		</g>
		<path fill="#B2CEE7" stroke="#000000" d="M111.144,311.475c0,2.81-17.287,5.088-38.611,5.088c-21.324,0-38.611-2.278-38.611-5.088
			h-0.197v-16.673h77.418V311.475z"/>
		<polyline fill="none" stroke="#000000" stroke-width="0.5" points="38.836,294.485 50.202,142.611 107.248,294.485 		"/>
		<polyline fill="none" stroke="#000000" stroke-width="0.5" stroke-miterlimit="10" points="107.248,294.393 95.053,142.612 
			38.836,294.393 		"/>
		<path fill="#CCDEF0" stroke="#000000" stroke-dasharray="2,2" d="M122.439,117.551c0.635-4.006-9.128-8.882-21.807-10.891
			c-12.678-2.008-23.469-0.388-24.104,3.619l-3.047,57.271l34.158,5.41L122.439,117.551z"/>
		<path fill="#CCDEF0" stroke="#000000" stroke-dasharray="2,2" d="M68.539,110.279c-0.635-4.007-11.427-5.627-24.105-3.619
			c-12.677,2.008-22.441,6.884-21.806,10.891l14.799,55.409l34.159-5.409L68.539,110.279z"/>
		<g>
			<g>
				<line fill="none" stroke="#000000" stroke-width="0.5" x1="111.144" y1="37.105" x2="110.527" y2="41.058"/>
				
					<line fill="none" stroke="#000000" stroke-width="0.5" stroke-dasharray="2.0325,2.0325" x1="110.214" y1="43.066" x2="109.744" y2="46.078"/>
				
					<line fill="none" stroke="#000000" stroke-width="0.5" stroke-dasharray="8.1299,2.0325,2.0325,2.0325" x1="109.588" y1="47.082" x2="70.271" y2="299.108"/>
				<line fill="none" stroke="#000000" stroke-width="0.5" x1="70.114" y1="300.112" x2="69.498" y2="304.064"/>
			</g>
		</g>
		<g>
			<g>
				<line fill="none" stroke="#000000" stroke-width="0.5" x1="33.542" y1="38.405" x2="34.174" y2="42.355"/>
				
					<line fill="none" stroke="#000000" stroke-width="0.5" stroke-dasharray="2.0035,2.0035" x1="34.491" y1="44.333" x2="34.965" y2="47.301"/>
				
					<line fill="none" stroke="#000000" stroke-width="0.5" stroke-dasharray="8.0139,2.0035,2.0035,2.0035" x1="35.124" y1="48.29" x2="74.84" y2="296.57"/>
				<line fill="none" stroke="#000000" stroke-width="0.5" x1="74.998" y1="297.559" x2="75.63" y2="301.509"/>
			</g>
		</g>
		<line fill="none" stroke="#000000" stroke-width="0.5" stroke-dasharray="4,4" x1="72.71" y1="305.683" x2="72.71" y2="16.852"/>
		<g>
			<path stroke="#000000" stroke-miterlimit="1" d="M78.173,284.05c0.006-3.176-2.571-5.744-5.743-5.744v5.744H78.173z"/>
			<path fill="#FFFFFF" stroke="#010101" stroke-linecap="round" stroke-linejoin="round" stroke-miterlimit="1" d="M72.431,278.306
				c-3.167,0-5.74,2.572-5.74,5.744h5.74V278.306z"/>
			<path stroke="#000000" stroke-miterlimit="1" d="M66.69,284.05c0.002,3.176,2.573,5.741,5.748,5.741l-0.008-5.741H66.69z"/>
			<path fill="#FFFFFF" stroke="#010101" stroke-linecap="round" stroke-linejoin="round" stroke-miterlimit="1" d="M72.431,284.05
				l0.008,5.741c3.167,0,5.741-2.571,5.735-5.741H72.431z"/>
		</g>
		<g>
			<ellipse fill="#FCDD7F" cx="94.208" cy="144.894" rx="4.593" ry="4.722"/>
			<circle fill="#95979A" cx="94.251" cy="144.984" r="0.464"/>
			<path fill="#95979A" d="M94.812,143.929c0.354,0.202,0.594,0.592,0.594,1.039c0,0.035-0.001,0.066-0.003,0.1h2.813
				c0.002-0.033,0.002-0.066,0.002-0.1c0-1.513-0.803-2.836-1.995-3.538L94.812,143.929z"/>
			<path fill="#95979A" d="M93.709,143.929c-0.356,0.202-0.597,0.592-0.597,1.039c0,0.035,0.002,0.066,0.004,0.1h-2.815
				c0-0.033,0-0.066,0-0.1c0-1.513,0.802-2.836,1.993-3.538L93.709,143.929z"/>
			<path fill="#95979A" d="M94.907,145.958c-0.353,0.206-0.81,0.276-1.197,0.054c-0.028-0.018-0.056-0.036-0.084-0.054l-1.409,2.436
				c0.029,0.018,0.058,0.035,0.085,0.053c1.311,0.756,2.858,0.629,4.062-0.053L94.907,145.958z"/>
		</g>
		<g>
			<ellipse fill="#FCDD7F" cx="50.39" cy="144.894" rx="4.593" ry="4.722"/>
			<circle fill="#95979A" cx="50.433" cy="144.984" r="0.464"/>
			<path fill="#95979A" d="M50.995,143.929c0.354,0.202,0.594,0.592,0.594,1.039c0,0.035-0.001,0.066-0.003,0.1h2.813
				c0.002-0.033,0.002-0.066,0.002-0.1c0-1.513-0.803-2.836-1.995-3.538L50.995,143.929z"/>
			<path fill="#95979A" d="M49.891,143.929c-0.356,0.202-0.597,0.592-0.597,1.039c0,0.035,0.002,0.066,0.004,0.1h-2.815
				c0-0.033,0-0.066,0-0.1c0-1.513,0.802-2.836,1.993-3.538L49.891,143.929z"/>
			<path fill="#95979A" d="M51.089,145.958c-0.352,0.206-0.81,0.276-1.197,0.054c-0.028-0.018-0.056-0.036-0.084-0.054l-1.408,2.436
				c0.029,0.018,0.057,0.035,0.085,0.053c1.311,0.756,2.858,0.629,4.063-0.053L51.089,145.958z"/>
		</g>
		<g>
			<g>
				<path fill="none" stroke="#000000" stroke-miterlimit="10" d="M104.146,40.688c-10.584-1.442-21.39-2.188-32.369-2.188
					c-10.616,0-21.069,0.696-31.317,2.045"/>
				<g>
					<polygon points="103.201,38.843 109.403,41.465 102.721,42.296 					"/>
				</g>
				<g>
					<polygon points="41.409,38.702 35.197,41.3 41.876,42.157 					"/>
				</g>
			</g>
		</g>
	</g>
	<g>
		
			<line fill="none" stroke="#000000" stroke-width="0.5" stroke-dasharray="8,2,2,2" x1="383.064" y1="284.03" x2="72.432" y2="284.03"/>
		<g>
			<g>
				<polyline fill="none" stroke="#005695" stroke-linejoin="round" points="372.184,295.658 346.405,323.563 339.12,323.563 				
					"/>
				<g>
					<polygon fill="#005695" points="368.705,295.143 378.195,289.151 372.973,299.086 					"/>
				</g>
			</g>
		</g>
		<g>
			<g>
				<polyline fill="none" stroke="#005695" stroke-linejoin="round" points="226.567,295.066 262.217,323.563 269.145,323.563 				
					"/>
				<g>
					<polygon fill="#005695" points="226.301,298.572 219.647,289.534 229.929,294.034 					"/>
				</g>
			</g>
		</g>
		<rect x="271.022" y="318.011" fill="none" width="67.929" height="10.174"/>
		<text transform="matrix(1 0 0 1 271.0186 326.6152)" font-size="12">ISOCENTER</text>
	</g>
</g>
</svg>
