<?xml version="1.0" encoding="utf-8"?>

<!DOCTYPE svg PUBLIC "-//W3C//DTD SVG 1.1//EN" "http://www.w3.org/Graphics/SVG/1.1/DTD/svg11.dtd">
<svg version="1.1" id="Layer_1" xmlns="http://www.w3.org/2000/svg" xmlns:xlink="http://www.w3.org/1999/xlink" x="0px" y="0px"
	 width="602px" height="507px" viewBox="0 0 602 507" enable-background="new 0 0 602 507" xml:space="preserve">

<defs>
	<style type="text/css">
	text {
	  font-family: Helvetica, Verdana, ArialUnicodeMS, san-serif
	}
	</style>
</defs>

<g>
   <desc>
	PS 3.3 Part 3: Information Object Definitions
   </desc>
</g>

<g>
	<rect x="1" y="1" fill="#F5EED8" width="600" height="505"/>
	<g>
		<g>
			
				<line fill="none" stroke="#000000" stroke-width="0.5" stroke-dasharray="4,4" x1="108.646" y1="382.193" x2="108.646" y2="155.711"/>
			<rect x="54.276" y="28.143" fill="#C2E2CC" width="112.875" height="462.001"/>
			<line fill="none" stroke="#000000" stroke-miterlimit="10" x1="54.276" y1="28.143" x2="54.276" y2="490.812"/>
			<line fill="none" stroke="#000000" stroke-miterlimit="10" x1="167.151" y1="28.143" x2="167.151" y2="490.812"/>
			<rect x="69.466" y="74.224" fill="#CEDFEF" stroke="#000000" width="84.165" height="308.97"/>
			<polyline fill="#FFF479" points="170.029,382.501 149.395,125.716 54.276,382.501 			"/>
			<g>
				<line fill="none" stroke="#FFFFFF" stroke-miterlimit="10" x1="149.395" y1="125.716" x2="63.296" y2="385.665"/>
				<line fill="none" stroke="#FFFFFF" stroke-miterlimit="10" x1="149.395" y1="125.716" x2="72.422" y2="388.514"/>
				<line fill="none" stroke="#FFFFFF" stroke-miterlimit="10" x1="149.395" y1="125.716" x2="81.643" y2="391.038"/>
				<line fill="none" stroke="#FFFFFF" stroke-miterlimit="10" x1="149.395" y1="125.716" x2="90.945" y2="393.238"/>
				<line fill="none" stroke="#FFFFFF" stroke-miterlimit="10" x1="149.395" y1="125.716" x2="100.318" y2="395.116"/>
				<line fill="none" stroke="#FFFFFF" stroke-miterlimit="10" x1="149.395" y1="125.716" x2="109.752" y2="396.667"/>
				<line fill="none" stroke="#FFFFFF" stroke-miterlimit="10" x1="149.395" y1="125.716" x2="119.234" y2="397.883"/>
				<line fill="none" stroke="#FFFFFF" stroke-miterlimit="10" x1="149.395" y1="125.716" x2="128.751" y2="398.771"/>
				<line fill="none" stroke="#FFFFFF" stroke-miterlimit="10" x1="149.395" y1="125.716" x2="138.294" y2="399.328"/>
				<line fill="none" stroke="#FFFFFF" stroke-miterlimit="10" x1="149.395" y1="125.716" x2="147.851" y2="399.547"/>
				<line fill="none" stroke="#FFFFFF" stroke-miterlimit="10" x1="149.395" y1="125.716" x2="157.409" y2="399.436"/>
				<line fill="none" stroke="#FFFFFF" stroke-miterlimit="10" x1="149.395" y1="125.716" x2="166.959" y2="398.991"/>
			</g>
			<path fill="#B4CFE6" stroke="#000000" d="M176.622,411.399c0,4.753-29.25,8.609-65.33,8.609c-36.08,0-65.329-3.856-65.329-8.609
				h-0.331v-28.206h130.99V411.399z"/>
			<polyline fill="none" stroke="#000000" stroke-width="0.5" stroke-miterlimit="10" points="170.029,382.501 149.395,125.716 
				54.276,382.501 			"/>
			<path fill="#CEDFEF" stroke="#000000" d="M195.732,83.315c1.075-6.777-15.446-15.027-36.896-18.426
				c-21.451-3.397-39.709-0.655-40.782,6.123l-5.159,96.895l57.794,9.152L195.732,83.315z"/>
			<polygon fill="#FFFFFF" stroke="#000000" stroke-width="0.5" stroke-miterlimit="10" points="166.151,403.012 56.506,390.008 
				57.429,384.068 167.075,397.072 			"/>
			<g>
				<text transform="matrix(1 -0.0019 0.0019 1 134.5898 413.9043)"><tspan x="0" y="0" fill="#EB222F" font-size="13.6">+X</tspan><tspan x="17.013" y="2.55" fill="#EB222F" font-size="13.6">d</tspan></text>
			</g>
			<g>
				<text transform="matrix(1 -0.0019 0.0019 1 87.1348 353.0996)"><tspan x="0" y="0" fill="#00B0ED" font-size="13.6">+Z</tspan><tspan x="16.25" y="2.549" fill="#00B0ED" font-size="13.6">d</tspan></text>
			</g>
			<g>
				<text transform="matrix(1 0 0 1 65.9087 407.7832)"><tspan x="0" y="0" font-size="13.6">O</tspan><tspan x="10.579" y="2.55" font-size="13.6">d</tspan></text>
			</g>
			<g>
				<g>
					<line fill="none" stroke="#EB222F" stroke-width="2" x1="89.457" y1="403.081" x2="127.2" y2="407.567"/>
					<g>
						<polygon fill="#EB222F" points="124.89,410.219 135.998,408.613 125.576,404.448 						"/>
					</g>
				</g>
			</g>
			<g>
				<g>
					<line fill="none" stroke="#00B0ED" stroke-width="2" x1="89.329" y1="408.203" x2="96.195" y2="364.866"/>
					<g>
						<polygon fill="#00B0ED" points="98.754,367.278 97.581,356.116 93.015,366.369 						"/>
					</g>
				</g>
			</g>
			<path fill="#FFFFFF" stroke="#000000" stroke-miterlimit="1" d="M93.284,403.307c0.005-2.115-1.712-3.826-3.824-3.826v3.826
				H93.284z"/>
			<path fill="#808080" stroke="#000000" stroke-linecap="round" stroke-linejoin="round" stroke-miterlimit="1" d="M89.46,399.48
				c-2.111,0-3.827,1.715-3.827,3.826h3.827V399.48z"/>
			<path fill="#FFFFFF" stroke="#000000" stroke-miterlimit="1" d="M85.633,403.307c0.001,2.117,1.715,3.824,3.832,3.824
				l-0.005-3.824H85.633z"/>
			<path fill="#808080" stroke="#000000" stroke-linecap="round" stroke-linejoin="round" stroke-miterlimit="1" d="M89.46,403.307
				l0.005,3.824c2.109,0,3.825-1.714,3.819-3.824H89.46z"/>
			<g>
				<g>
					<line fill="none" stroke="#000000" stroke-width="0.5" x1="165.861" y1="16.188" x2="165.245" y2="20.141"/>
					
						<line fill="none" stroke="#000000" stroke-width="0.5" stroke-dasharray="1.9755,1.9755" x1="164.94" y1="22.093" x2="164.483" y2="25.021"/>
					
						<line fill="none" stroke="#000000" stroke-width="0.5" stroke-dasharray="7.9022,1.9755,1.9755,1.9755" x1="164.331" y1="25.997" x2="106.925" y2="393.936"/>
					<line fill="none" stroke="#000000" stroke-width="0.5" x1="106.773" y1="394.911" x2="106.156" y2="398.863"/>
				</g>
			</g>
			<path fill="#FDD931" d="M140.189,129.576c0-4.412,3.482-7.988,7.772-7.988c4.289,0,7.772,3.577,7.772,7.988
				c0,4.411-3.483,7.984-7.772,7.984C143.671,137.561,140.189,133.987,140.189,129.576z"/>
			<path d="M147.25,129.73c0-0.435,0.354-0.788,0.781-0.788c0.436,0,0.79,0.353,0.79,0.788c0,0.432-0.354,0.783-0.79,0.783
				C147.604,130.513,147.25,130.162,147.25,129.73z"/>
			<path d="M148.985,127.943c0.598,0.343,1.004,1.001,1.004,1.758c0,0.06-0.003,0.112-0.007,0.169h4.762
				c0.003-0.057,0.003-0.113,0.003-0.169c0-2.559-1.359-4.797-3.378-5.985L148.985,127.943z"/>
			<path d="M147.118,127.943c-0.604,0.343-1.012,1.001-1.012,1.758c0,0.06,0.004,0.112,0.007,0.169h-4.762c0-0.057,0-0.113,0-0.169
				c0-2.559,1.355-4.797,3.371-5.985L147.118,127.943z"/>
			<path d="M149.145,131.377c-0.595,0.349-1.374,0.467-2.027,0.09c-0.046-0.029-0.096-0.061-0.142-0.09l-2.382,4.121
				c0.05,0.029,0.096,0.059,0.145,0.089c2.218,1.279,4.834,1.064,6.874-0.089L149.145,131.377z"/>
		</g>
		<g>
			<rect x="494.991" y="28.143" fill="#C2E2CC" width="61.377" height="462.668"/>
			<line fill="none" stroke="#000000" stroke-miterlimit="10" x1="494.991" y1="28.143" x2="494.991" y2="490.812"/>
			<polyline fill="#FFF479" points="287.795,382.89 308.422,126.105 403.527,382.89 			"/>
			<g>
				<line fill="none" stroke="#FFFFFF" stroke-miterlimit="10" x1="308.348" y1="126.105" x2="397.482" y2="386.056"/>
				<line fill="none" stroke="#FFFFFF" stroke-miterlimit="10" x1="308.348" y1="126.105" x2="388.357" y2="388.902"/>
				<line fill="none" stroke="#FFFFFF" stroke-miterlimit="10" x1="308.348" y1="126.105" x2="379.141" y2="391.427"/>
				<line fill="none" stroke="#FFFFFF" stroke-miterlimit="10" x1="308.348" y1="126.105" x2="369.842" y2="393.627"/>
				<line fill="none" stroke="#FFFFFF" stroke-miterlimit="10" x1="308.348" y1="126.105" x2="360.467" y2="395.507"/>
				<line fill="none" stroke="#FFFFFF" stroke-miterlimit="10" x1="308.348" y1="126.105" x2="351.033" y2="397.056"/>
				<line fill="none" stroke="#FFFFFF" stroke-miterlimit="10" x1="308.348" y1="126.105" x2="341.554" y2="398.272"/>
				<line fill="none" stroke="#FFFFFF" stroke-miterlimit="10" x1="308.348" y1="126.105" x2="332.037" y2="399.162"/>
				<line fill="none" stroke="#FFFFFF" stroke-miterlimit="10" x1="308.348" y1="126.105" x2="322.492" y2="399.716"/>
				<line fill="none" stroke="#FFFFFF" stroke-miterlimit="10" x1="308.348" y1="126.105" x2="312.942" y2="399.935"/>
				<line fill="none" stroke="#FFFFFF" stroke-miterlimit="10" x1="308.348" y1="126.105" x2="303.382" y2="399.823"/>
				<line fill="none" stroke="#FFFFFF" stroke-miterlimit="10" x1="308.348" y1="126.105" x2="293.841" y2="399.38"/>
			</g>
			<polyline fill="none" stroke="#000000" stroke-width="0.5" stroke-miterlimit="10" points="287.795,382.89 308.422,126.105 
				403.527,382.89 			"/>
			<rect x="485.269" y="354.233" fill="#CEDFEF" stroke="#000000" width="9.723" height="56.41"/>
			<path fill="#CEDFEF" stroke="#000000" d="M438.531,419.244c27.142,0.052,46.737-0.175,46.737-0.175V73.466
				c0-5.609-47.992-10.158-107.197-10.158c-59.206,0-107.203,4.549-107.203,10.158l10.158,94.022h55.976l2.811-20.102l98.77-8.646
				L438.531,419.244z"/>
			<path fill="#B4CFE6" stroke="#000000" d="M438.736,382.445H281.229v28.206c10.406,7.174,100.499,8.496,157.507,8.602V382.445z"/>
			<path fill="#FDD931" d="M281.843,128.818c0-4.412,3.484-7.988,7.773-7.988s7.767,3.577,7.767,7.988
				c0,4.411-3.478,7.984-7.767,7.984S281.843,133.229,281.843,128.818z"/>
			<path d="M288.905,128.972c0-0.435,0.354-0.788,0.779-0.788c0.437,0,0.791,0.353,0.791,0.788c0,0.432-0.354,0.783-0.791,0.783
				C289.259,129.755,288.905,129.404,288.905,128.972z"/>
			<path d="M290.64,127.185c0.598,0.343,1.006,1.001,1.006,1.758c0,0.06-0.002,0.112-0.004,0.169h4.756
				c0.004-0.057,0.004-0.113,0.004-0.169c0-2.559-1.356-4.797-3.375-5.985L290.64,127.185z"/>
			<path d="M288.772,127.185c-0.604,0.343-1.008,1.001-1.008,1.758c0,0.06,0.001,0.112,0.006,0.169h-4.764c0-0.057,0-0.113,0-0.169
				c0-2.559,1.355-4.797,3.373-5.985L288.772,127.185z"/>
			<path d="M290.801,130.619c-0.598,0.349-1.371,0.467-2.028,0.09c-0.045-0.029-0.092-0.061-0.14-0.09l-2.386,4.121
				c0.052,0.029,0.097,0.059,0.146,0.089c2.22,1.279,4.836,1.064,6.876-0.089L290.801,130.619z"/>
			
				<line fill="none" stroke="#000000" stroke-width="0.5" stroke-dasharray="4,4" x1="289.7" y1="381.437" x2="289.7" y2="154.953"/>
			<polygon fill="#FFFFFF" stroke="#000000" stroke-width="0.5" stroke-miterlimit="10" points="398.902,402.255 289.277,389.251 
				290.199,383.312 399.826,396.315 			"/>
			<g>
				<g>
					<line fill="none" stroke="#21B152" stroke-width="2" x1="326.74" y1="401.187" x2="366.421" y2="405.753"/>
					<g>
						<polygon fill="#21B152" points="364.121,408.412 375.223,406.766 364.785,402.64 						"/>
					</g>
				</g>
			</g>
			<g>
				<g>
					<line fill="none" stroke="#00B0ED" stroke-width="2" x1="326.552" y1="401.026" x2="331.154" y2="361.02"/>
					<g>
						<polygon fill="#00B0ED" points="333.814,363.319 332.167,352.218 328.042,362.655 						"/>
					</g>
				</g>
			</g>
			<path fill="#FFFFFF" stroke="#000000" stroke-miterlimit="1" d="M330.432,401.021c0.005-2.115-1.713-3.827-3.824-3.827v3.827
				H330.432z"/>
			<path fill="#808080" stroke="#000000" stroke-linecap="round" stroke-linejoin="round" stroke-miterlimit="1" d="
				M326.607,397.193c-2.111,0-3.826,1.715-3.826,3.827h3.826V397.193z"/>
			<path fill="#FFFFFF" stroke="#000000" stroke-miterlimit="1" d="M322.781,401.021c0.002,2.116,1.715,3.822,3.831,3.822
				l-0.005-3.822H322.781z"/>
			<path fill="#808080" stroke="#000000" stroke-linecap="round" stroke-linejoin="round" stroke-miterlimit="1" d="
				M326.607,401.021l0.005,3.822c2.108,0,3.824-1.713,3.819-3.822H326.607z"/>
			<g>
				<text transform="matrix(1 -0.0019 0.0019 1 374.8066 414.6777)"><tspan x="0" y="0" fill="#21B152" font-size="13.6">+Y</tspan><tspan x="17.014" y="2.549" fill="#21B152" font-size="13.6">d</tspan></text>
			</g>
			<g>
				<text transform="matrix(1 -0.0019 0.0019 1 334.3887 354.4844)"><tspan x="0" y="0" fill="#00B0ED" font-size="13.6">+Z</tspan><tspan x="16.25" y="2.549" fill="#00B0ED" font-size="13.6">d</tspan></text>
			</g>
			<g>
				<text transform="matrix(1 0 0 1 303.0645 405.4961)"><tspan x="0" y="0" font-size="13.6">O</tspan><tspan x="10.578" y="2.55" font-size="13.6">d</tspan></text>
			</g>
		</g>
	</g>
</g>
</svg>
