<?xml version="1.0" encoding="utf-8"?>

<svg version="1.1" id="Layer_1" xmlns="http://www.w3.org/2000/svg" xmlns:xlink="http://www.w3.org/1999/xlink" x="0px" y="0px"
	 viewBox="0 0 502 307" enable-background="new 0 0 502 307" xml:space="preserve">

<defs>
	<style type="text/css">
	text {
	  font-family: Helvetica, Verdana, ArialUnicodeMS, san-serif
	}
	</style>
</defs>

<g>
   <desc>
	PS 3.3 Part 3: Information Object Definitions
   </desc>
</g>

<g>
	<rect x="1" y="1" fill="#F2EDD6" width="500" height="305"/>
	<g>
		
			<text transform="matrix(0.8999 -0.0019 0.0017 1 379.3119 129.5217)" fill="#0DB14B" font-size="14px">+Y</text>
		
			<text transform="matrix(0.8999 -0.0019 0.0017 1 400.4121 239.5743)" fill="#ED1C24" font-size="14px">+X</text>
		
			<text transform="matrix(0.8999 -0.0019 0.0017 1 249.9245 28.2)" fill="#00AEEF" font-size="14px">+Z</text>
		<text transform="matrix(0.8999 0 0 1 293.3496 278.2233)" font-size="11px">Base Beam Modifier Definition Plane</text>
		<text transform="matrix(0.8999 0 0 1 309.0236 78.7613)"><tspan x="0" y="0" font-size="11px">RT Device Distance Reference Location</tspan><tspan x="0" y="13.2" font-size="11px">(e.g., Radiation source)</tspan></text>
		<g>
			<text transform="matrix(0.8999 0 0 1 10.3675 78.1122)"><tspan x="0" y="0" font-size="11px">RT Beam Modifier Definition Distance</tspan><tspan x="122.858" y="13.2" font-size="11px">(300A,0688)</tspan></text>
		</g>
		<polygon fill="none" stroke="#000000" stroke-linecap="round" points="257.231,124.828 437.121,166.47 257.449,291.242 
			77.449,166.47 		"/>
		<g>
			<polygon fill="#F1F2F2" stroke="#D1D3D4" stroke-width="0.5" stroke-linecap="round" points="257.449,291.242 77.449,166.47 
				257.231,124.828 437.121,166.47 			"/>
			
				<line fill="#F1F2F2" stroke="#D1D3D4" stroke-width="0.5" stroke-linecap="round" x1="433.451" y1="169.018" x2="252.37" y2="125.954"/>
			
				<line fill="#F1F2F2" stroke="#D1D3D4" stroke-width="0.5" stroke-linecap="round" x1="429.629" y1="171.673" x2="247.377" y2="127.111"/>
			
				<line fill="#F1F2F2" stroke="#D1D3D4" stroke-width="0.5" stroke-linecap="round" x1="425.643" y1="174.441" x2="242.245" y2="128.299"/>
			
				<line fill="#F1F2F2" stroke="#D1D3D4" stroke-width="0.5" stroke-linecap="round" x1="421.485" y1="177.329" x2="236.968" y2="129.522"/>
			
				<line fill="#F1F2F2" stroke="#D1D3D4" stroke-width="0.5" stroke-linecap="round" x1="417.142" y1="180.345" x2="231.541" y2="130.779"/>
			
				<line fill="#F1F2F2" stroke="#D1D3D4" stroke-width="0.5" stroke-linecap="round" x1="412.602" y1="183.498" x2="225.957" y2="132.072"/>
			
				<line fill="#F1F2F2" stroke="#D1D3D4" stroke-width="0.5" stroke-linecap="round" x1="407.85" y1="186.797" x2="220.208" y2="133.404"/>
			
				<line fill="#F1F2F2" stroke="#D1D3D4" stroke-width="0.5" stroke-linecap="round" x1="402.873" y1="190.253" x2="214.288" y2="134.775"/>
			
				<line fill="#F1F2F2" stroke="#D1D3D4" stroke-width="0.5" stroke-linecap="round" x1="397.653" y1="193.878" x2="208.189" y2="136.188"/>
			
				<line fill="#F1F2F2" stroke="#D1D3D4" stroke-width="0.5" stroke-linecap="round" x1="392.173" y1="197.684" x2="201.902" y2="137.644"/>
			
				<line fill="#F1F2F2" stroke="#D1D3D4" stroke-width="0.5" stroke-linecap="round" x1="386.412" y1="201.685" x2="195.419" y2="139.145"/>
			
				<line fill="#F1F2F2" stroke="#D1D3D4" stroke-width="0.5" stroke-linecap="round" x1="380.348" y1="205.896" x2="188.73" y2="140.695"/>
			
				<line fill="#F1F2F2" stroke="#D1D3D4" stroke-width="0.5" stroke-linecap="round" x1="373.956" y1="210.335" x2="181.825" y2="142.294"/>
			
				<line fill="#F1F2F2" stroke="#D1D3D4" stroke-width="0.5" stroke-linecap="round" x1="367.21" y1="215.019" x2="174.695" y2="143.946"/>
			
				<line fill="#F1F2F2" stroke="#D1D3D4" stroke-width="0.5" stroke-linecap="round" x1="360.079" y1="219.972" x2="167.326" y2="145.652"/>
			
				<line fill="#F1F2F2" stroke="#D1D3D4" stroke-width="0.5" stroke-linecap="round" x1="352.529" y1="225.215" x2="159.709" y2="147.417"/>
			
				<line fill="#F1F2F2" stroke="#D1D3D4" stroke-width="0.5" stroke-linecap="round" x1="344.522" y1="230.775" x2="151.828" y2="149.242"/>
			
				<line fill="#F1F2F2" stroke="#D1D3D4" stroke-width="0.5" stroke-linecap="round" x1="336.016" y1="236.682" x2="143.672" y2="151.131"/>
			
				<line fill="#F1F2F2" stroke="#D1D3D4" stroke-width="0.5" stroke-linecap="round" x1="326.961" y1="242.97" x2="135.224" y2="153.088"/>
			
				<line fill="#F1F2F2" stroke="#D1D3D4" stroke-width="0.5" stroke-linecap="round" x1="317.304" y1="249.677" x2="126.47" y2="155.116"/>
			
				<line fill="#F1F2F2" stroke="#D1D3D4" stroke-width="0.5" stroke-linecap="round" x1="306.981" y1="256.845" x2="117.391" y2="157.218"/>
			
				<line fill="#F1F2F2" stroke="#D1D3D4" stroke-width="0.5" stroke-linecap="round" x1="295.923" y1="264.525" x2="107.971" y2="159.4"/>
			
				<line fill="#F1F2F2" stroke="#D1D3D4" stroke-width="0.5" stroke-linecap="round" x1="284.047" y1="272.772" x2="98.188" y2="161.666"/>
			
				<line fill="#F1F2F2" stroke="#D1D3D4" stroke-width="0.5" stroke-linecap="round" x1="271.258" y1="281.652" x2="88.022" y2="164.021"/>
			
				<line fill="#F1F2F2" stroke="#D1D3D4" stroke-width="0.5" stroke-linecap="round" x1="81.126" y1="169.018" x2="262.094" y2="125.954"/>
			
				<line fill="#F1F2F2" stroke="#D1D3D4" stroke-width="0.5" stroke-linecap="round" x1="84.956" y1="171.673" x2="267.091" y2="127.111"/>
			
				<line fill="#F1F2F2" stroke="#D1D3D4" stroke-width="0.5" stroke-linecap="round" x1="88.949" y1="174.441" x2="272.226" y2="128.299"/>
			
				<line fill="#F1F2F2" stroke="#D1D3D4" stroke-width="0.5" stroke-linecap="round" x1="93.114" y1="177.329" x2="277.506" y2="129.522"/>
			
				<line fill="#F1F2F2" stroke="#D1D3D4" stroke-width="0.5" stroke-linecap="round" x1="97.465" y1="180.345" x2="282.936" y2="130.779"/>
			
				<line fill="#F1F2F2" stroke="#D1D3D4" stroke-width="0.5" stroke-linecap="round" x1="102.014" y1="183.498" x2="288.524" y2="132.072"/>
			
				<line fill="#F1F2F2" stroke="#D1D3D4" stroke-width="0.5" stroke-linecap="round" x1="106.774" y1="186.797" x2="294.276" y2="133.404"/>
			
				<line fill="#F1F2F2" stroke="#D1D3D4" stroke-width="0.5" stroke-linecap="round" x1="111.76" y1="190.253" x2="300.2" y2="134.775"/>
			
				<line fill="#F1F2F2" stroke="#D1D3D4" stroke-width="0.5" stroke-linecap="round" x1="116.99" y1="193.878" x2="306.303" y2="136.188"/>
			
				<line fill="#F1F2F2" stroke="#D1D3D4" stroke-width="0.5" stroke-linecap="round" x1="122.48" y1="197.684" x2="312.594" y2="137.644"/>
			
				<line fill="#F1F2F2" stroke="#D1D3D4" stroke-width="0.5" stroke-linecap="round" x1="128.252" y1="201.685" x2="319.081" y2="139.145"/>
			
				<line fill="#F1F2F2" stroke="#D1D3D4" stroke-width="0.5" stroke-linecap="round" x1="134.327" y1="205.896" x2="325.773" y2="140.695"/>
			
				<line fill="#F1F2F2" stroke="#D1D3D4" stroke-width="0.5" stroke-linecap="round" x1="140.73" y1="210.335" x2="332.682" y2="142.294"/>
			
				<line fill="#F1F2F2" stroke="#D1D3D4" stroke-width="0.5" stroke-linecap="round" x1="147.488" y1="215.019" x2="339.817" y2="143.946"/>
			
				<line fill="#F1F2F2" stroke="#D1D3D4" stroke-width="0.5" stroke-linecap="round" x1="154.632" y1="219.972" x2="347.19" y2="145.652"/>
			
				<line fill="#F1F2F2" stroke="#D1D3D4" stroke-width="0.5" stroke-linecap="round" x1="162.196" y1="225.215" x2="354.812" y2="147.417"/>
			
				<line fill="#F1F2F2" stroke="#D1D3D4" stroke-width="0.5" stroke-linecap="round" x1="170.217" y1="230.775" x2="362.697" y2="149.242"/>
			
				<line fill="#F1F2F2" stroke="#D1D3D4" stroke-width="0.5" stroke-linecap="round" x1="178.74" y1="236.682" x2="370.859" y2="151.131"/>
			
				<line fill="#F1F2F2" stroke="#D1D3D4" stroke-width="0.5" stroke-linecap="round" x1="187.811" y1="242.97" x2="379.311" y2="153.088"/>
			
				<line fill="#F1F2F2" stroke="#D1D3D4" stroke-width="0.5" stroke-linecap="round" x1="197.486" y1="249.677" x2="388.071" y2="155.116"/>
			
				<line fill="#F1F2F2" stroke="#D1D3D4" stroke-width="0.5" stroke-linecap="round" x1="207.827" y1="256.845" x2="397.155" y2="157.218"/>
			
				<line fill="#F1F2F2" stroke="#D1D3D4" stroke-width="0.5" stroke-linecap="round" x1="218.905" y1="264.525" x2="406.582" y2="159.4"/>
			
				<line fill="#F1F2F2" stroke="#D1D3D4" stroke-width="0.5" stroke-linecap="round" x1="230.803" y1="272.772" x2="416.37" y2="161.666"/>
			
				<line fill="#F1F2F2" stroke="#D1D3D4" stroke-width="0.5" stroke-linecap="round" x1="243.615" y1="281.652" x2="426.543" y2="164.021"/>
		</g>
		<g>
			<g>
				
					<line fill="none" stroke="#ED1C24" stroke-width="2" stroke-linecap="round" x1="159.709" y1="139.116" x2="389.027" y2="222.3"/>
				<g>
					<polygon fill="#ED1C24" points="385.032,225.177 400.686,226.529 387.806,217.53 					"/>
				</g>
			</g>
		</g>
		<g>
			<g>
				
					<line fill="none" stroke="#0DB14B" stroke-width="2" stroke-linecap="round" x1="131.877" y1="221.179" x2="366.236" y2="133.969"/>
				<g>
					<polygon fill="#0DB14B" points="365.054,138.748 377.86,129.643 362.217,131.124 					"/>
				</g>
			</g>
		</g>
		<g>
			<g>
				
					<line fill="none" stroke="#00AEEF" stroke-width="2" stroke-linecap="round" x1="257.361" y1="174.415" x2="257.264" y2="44.382"/>
				<g>
					<polygon fill="#00AEEF" points="261.333,47.153 257.254,31.979 253.198,47.159 					"/>
				</g>
			</g>
		</g>
		<g>
			<circle cx="257.344" cy="75.511" r="6"/>
			<path fill="#FEDA00" d="M260.225,70.879c-2.491-1.478-5.805-0.611-7.393,1.943c-1.59,2.56-0.855,5.833,1.642,7.321
				c2.489,1.478,5.803,0.609,7.382-1.956C263.444,75.628,262.717,72.362,260.225,70.879z"/>
			<path d="M257.526,75.037c0.245,0.143,0.31,0.471,0.153,0.731c-0.159,0.259-0.491,0.343-0.739,0.197
				c-0.237-0.138-0.312-0.468-0.147-0.729C256.951,74.978,257.279,74.891,257.526,75.037z"/>
			<path d="M257.892,76.666c-0.419,0.243-0.937,0.268-1.368,0.008c-0.032-0.018-0.061-0.036-0.091-0.059l-1.763,2.838
				c0.031,0.018,0.064,0.038,0.093,0.056c1.452,0.862,3.216,0.806,4.634,0.005L257.892,76.666z"/>
			<path d="M258.582,75.556c0.027-0.473-0.195-0.944-0.625-1.197c-0.027-0.018-0.061-0.036-0.097-0.054l1.764-2.833
				c0.033,0.015,0.064,0.033,0.096,0.054c1.451,0.867,2.212,2.421,2.137,4.022L258.582,75.556z"/>
			<path d="M255.89,75.61c0.027-0.471,0.24-0.979,0.699-1.24c0.035-0.02,0.069-0.038,0.107-0.051l-1.45-2.805
				c-0.037,0.015-0.072,0.036-0.106,0.056c-1.541,0.897-2.388,2.524-2.492,4.127L255.89,75.61z"/>
		</g>
		<g>
			<g>
				<line fill="none" stroke="#000000" stroke-miterlimit="1" x1="179.264" y1="75.42" x2="189.725" y2="75.42"/>
				<g>
					<polygon points="188.536,77.163 195.04,75.42 188.536,73.677 					"/>
				</g>
			</g>
		</g>
		
			<line fill="none" stroke="#000000" stroke-width="0.75" stroke-linecap="round" stroke-miterlimit="1" stroke-dasharray="4,4" x1="209.167" y1="190.008" x2="209.167" y2="66.931"/>
		
			<line fill="none" stroke="#000000" stroke-width="0.75" stroke-miterlimit="1" x1="196.344" y1="173.641" x2="257.033" y2="173.641"/>
		<line fill="none" stroke="#000000" stroke-width="0.75" stroke-miterlimit="1" x1="196.344" y1="75.49" x2="251.344" y2="75.49"/>
		<path fill="none" stroke="#005695" stroke-width="4" stroke-linecap="round" stroke-miterlimit="1" d="M168.44,173.641"/>
		<path fill="none" stroke="#005695" stroke-width="4" stroke-linecap="round" stroke-miterlimit="1" d="M168.44,197.741"/>
		<path fill="none" stroke="#005695" stroke-width="4" stroke-linecap="round" stroke-miterlimit="1" d="M200.94,197.741"/>
		<g>
			<g>
				
					<line fill="none" stroke="#005695" stroke-width="3" stroke-linecap="round" stroke-miterlimit="1" x1="209.167" y1="161.335" x2="209.167" y2="87.45"/>
				<g>
					<polygon fill="#005695" points="213.089,158.66 209.167,173.296 205.245,158.66 					"/>
				</g>
				<g>
					<polygon fill="#005695" points="213.089,90.125 209.167,75.49 205.245,90.125 					"/>
				</g>
			</g>
		</g>
		<g>
			<g>
				<line fill="none" stroke="#000000" stroke-miterlimit="1" x1="305.773" y1="75.49" x2="267.937" y2="75.49"/>
				<g>
					<polygon points="269.126,73.747 262.622,75.49 269.126,77.233 					"/>
				</g>
			</g>
		</g>
	</g>
</g>
</svg>
