<?xml version="1.0" encoding="utf-8"?>

<!DOCTYPE svg PUBLIC "-//W3C//DTD SVG 1.1//EN" "http://www.w3.org/Graphics/SVG/1.1/DTD/svg11.dtd">
<svg version="1.1" id="Layer_1" xmlns="http://www.w3.org/2000/svg" xmlns:xlink="http://www.w3.org/1999/xlink" x="0px" y="0px"
	 width="552px" height="432px" viewBox="0 0 552 432" enable-background="new 0 0 552 432" xml:space="preserve">

<defs>
	<style type="text/css">
	text {
	  font-family: Helvetica, Verdana, ArialUnicodeMS, san-serif
	}
	</style>
</defs>

<g>
   <desc>
	PS 3.3 Part 3: Information Object Definitions
   </desc>
</g>

<g>
	<rect x="1" y="1" fill="#F5EED6" width="550" height="430"/>
	<g>
		<g>
			<g>
				<line fill="none" stroke="#0DB14B" stroke-width="2" x1="307.375" y1="271.451" x2="307.375" y2="395.275"/>
				<g>
					<polygon fill="#0DB14B" points="303.889,392.897 307.375,405.906 310.861,392.897 					"/>
				</g>
			</g>
		</g>
		<text transform="matrix(0.8999 0 0 1 276.0171 363.8003)"><tspan x="0" y="0" fill="#0DB14B" font-size="14">Y</tspan><tspan x="9.338" y="3" fill="#0DB14B" font-size="10">t</tspan></text>
		
			<text transform="matrix(0.8999 -0.0019 0.0017 1 294.8066 420.811)" fill="#0DB14B" font-size="14">+Y</text>
		<g>
			<g>
				<line fill="none" stroke="#0DB14B" stroke-width="2" x1="293.444" y1="353.327" x2="307.602" y2="271.451"/>
				<g>
					<polygon fill="#0DB14B" points="297.285,351.578 291.633,363.802 290.414,350.389 					"/>
				</g>
			</g>
		</g>
		<text transform="matrix(0.8999 0 0 1 168.2041 172.8735)"><tspan x="0" y="0" fill="#00AEEF" font-size="14">Z</tspan><tspan x="8.552" y="3" fill="#00AEEF" font-size="10">t</tspan></text>
		
			<text transform="matrix(0.8999 -0.0019 0.0017 1 376.0479 202.4727)" fill="#ED1C24" font-size="14">+X</text>
		<text transform="matrix(0.8999 0 0 1 440.0273 207.085)"><tspan x="0" y="0" fill="#003468" font-size="14.6685">At</tspan><tspan x="13.859" y="3" fill="#003468" font-size="10">3</tspan></text>
		<polygon opacity="0.7" fill="#BCBEC0" stroke="#000000" stroke-linecap="round" points="456.077,414.14 527,238.853 
			232.657,198.912 27,313.457 		"/>
		<polygon fill="#FFF200" stroke="#FFF200" stroke-miterlimit="10" points="417.455,191.881 405.364,232.123 307.602,271.451 		"/>
		<polygon fill="#F7941E" stroke="#F7941E" stroke-miterlimit="10" points="186.219,233.365 307.602,271.451 163.743,246.322 		"/>
		<polygon fill="#FFC20E" stroke="#FFC20E" stroke-miterlimit="10" points="307.602,271.451 183.456,180.065 186.219,233.365 		"/>
		
			<line fill="none" stroke="#000000" stroke-width="0.5" stroke-linecap="round" stroke-linejoin="round" stroke-dasharray="2,3" x1="307.602" y1="271.451" x2="442.219" y2="217.929"/>
		
			<line fill="none" stroke="#E53725" stroke-linecap="round" stroke-linejoin="round" x1="307.602" y1="271.451" x2="417.455" y2="191.881"/>
		
			<line fill="none" stroke="#000000" stroke-linecap="round" stroke-linejoin="round" x1="500.464" y1="304.439" x2="307.602" y2="271.451"/>
		
			<line fill="none" stroke="#000000" stroke-linecap="round" stroke-linejoin="round" stroke-dasharray="6,2" x1="307.602" y1="271.451" x2="186.228" y2="233.365"/>
		<g>
			<g>
				<line fill="none" stroke="#ED1C24" stroke-width="2" x1="307.602" y1="271.489" x2="372.75" y2="212.384"/>
				<g>
					<polygon fill="#ED1C24" points="373.332,216.564 380.624,205.241 368.646,211.4 					"/>
				</g>
			</g>
		</g>
		
			<polygon opacity="0.6" fill="#B2CEE7" stroke="#000000" stroke-width="0.5" stroke-linecap="round" stroke-linejoin="round" points="
			307.602,271.451 417.455,191.881 297.892,116.498 183.344,177.912 		"/>
		
			<polygon opacity="0.5" fill="#86B2D8" stroke="#000000" stroke-width="0.5" stroke-linecap="round" stroke-linejoin="round" points="
			307.488,271.451 307.488,95.381 180.097,17.858 182.797,177.912 		"/>
		
			<polygon opacity="0.5" fill="#86B2D8" stroke="#000000" stroke-width="0.5" stroke-linecap="round" stroke-linejoin="round" points="
			334.865,112.385 463.558,40.834 417.431,191.875 307.602,271.451 		"/>
		<g>
			<g>
				
					<line fill="none" stroke="#000000" stroke-width="0.5" stroke-linecap="round" stroke-linejoin="round" x1="186.228" y1="233.365" x2="187.215" y2="233.524"/>
				
					<line fill="none" stroke="#000000" stroke-width="0.5" stroke-linecap="round" stroke-linejoin="round" stroke-dasharray="1.9926,2.9889" x1="190.166" y1="233.999" x2="326.4" y2="255.914"/>
				
					<line fill="none" stroke="#000000" stroke-width="0.5" stroke-linecap="round" stroke-linejoin="round" x1="327.876" y1="256.151" x2="328.863" y2="256.31"/>
			</g>
		</g>
		
			<line fill="none" stroke="#000000" stroke-width="0.5" stroke-linecap="round" stroke-linejoin="round" stroke-dasharray="2,3" x1="183.344" y1="177.912" x2="186.228" y2="233.365"/>
		
			<line fill="none" stroke="#000000" stroke-width="0.5" stroke-linecap="round" stroke-linejoin="round" stroke-dasharray="2,3" x1="186.228" y1="233.365" x2="163.217" y2="246.625"/>
		
			<line fill="none" stroke="#000000" stroke-linecap="round" stroke-linejoin="round" x1="212.574" y1="357.003" x2="307.602" y2="271.451"/>
		<g>
			<g>
				<line fill="none" stroke="#ED1C24" stroke-width="2" x1="307.602" y1="271.451" x2="408.845" y2="198.117"/>
				<g>
					<polygon fill="#ED1C24" points="408.965,202.335 417.455,191.881 404.874,196.688 					"/>
				</g>
			</g>
		</g>
		
			<line fill="none" stroke="#000000" stroke-width="0.5" stroke-linecap="round" stroke-linejoin="round" stroke-dasharray="2,3" x1="358.612" y1="225.703" x2="405.239" y2="232.373"/>
		
			<line fill="none" stroke="#000000" stroke-width="0.5" stroke-linecap="round" stroke-linejoin="round" stroke-dasharray="2,3" x1="405.364" y1="232.373" x2="358.737" y2="280.041"/>
		
			<line fill="none" stroke="#000000" stroke-width="0.5" stroke-linecap="round" stroke-linejoin="round" stroke-dasharray="2,3" x1="431.219" y1="181.916" x2="307.602" y2="271.757"/>
		
			<line fill="none" stroke="#000000" stroke-width="0.5" stroke-linecap="round" stroke-linejoin="round" stroke-dasharray="2,3" x1="405.239" y1="232.373" x2="417.455" y2="191.881"/>
		
			<text transform="matrix(0.8999 -0.0019 0.0017 1 106.8574 243.1235)" fill="#00AEEF" font-size="14">+Z</text>
		<g>
			<g>
				<line fill="none" stroke="#00AEEF" stroke-width="2" x1="307.602" y1="271.451" x2="135.737" y2="241.094"/>
				<g>
					<polygon fill="#00AEEF" points="138.685,238.074 125.268,239.245 137.472,244.941 					"/>
				</g>
			</g>
		</g>
		<g>
			<g>
				<line fill="none" stroke="#00AEEF" stroke-width="2" x1="307.602" y1="271.451" x2="191.838" y2="184.306"/>
				<g>
					<polygon fill="#00AEEF" points="195.834,182.951 183.344,177.912 191.641,188.521 					"/>
				</g>
			</g>
		</g>
		<g>
			<g>
				<path fill="none" stroke="#003468" stroke-linecap="round" d="M436.81,218.388c0.243-1.76,0.367-3.546,0.367-5.354
					c0-6.516-1.615-12.748-4.561-18.481"/>
				<g>
					<polygon fill="#003468" points="436.033,194.749 427.825,187.094 431.105,197.827 					"/>
				</g>
			</g>
		</g>
		<text transform="matrix(0.8999 0 0 1 154.0386 198.585)"><tspan x="0" y="0" fill="#003468" font-size="14">At</tspan><tspan x="13.228" y="3" fill="#003468" font-size="10">2</tspan></text>
		<text transform="matrix(0.8999 0 0 1 280.9551 50.6909)"><tspan x="0" y="0" font-size="11">X</tspan><tspan x="7.338" y="3" font-size="10">t</tspan><tspan x="10.116" y="0" font-size="11">Z</tspan><tspan x="16.836" y="3" font-size="10">t</tspan><tspan x="19.614" y="0" font-size="11"> plane</tspan></text>
		<text transform="matrix(0.8999 0 0 1 399.3301 91.0249)"><tspan x="0" y="0" font-size="11">X</tspan><tspan x="7.338" y="3" font-size="10">t</tspan><tspan x="10.116" y="0" font-size="11">Y</tspan><tspan x="17.452" y="3" font-size="10">t</tspan><tspan x="20.23" y="0" font-size="11"> plane</tspan></text>
		<text transform="matrix(0.8999 0 0 1 187.8589 64.5249)"><tspan x="0" y="0" font-size="11">YZ</tspan><tspan x="14.057" y="3" font-size="10">t</tspan><tspan x="16.835" y="0" font-size="11"> plane</tspan></text>
		<text transform="matrix(0.8999 0 0 1 64.6221 309.0327)" font-size="11">XZ plane</text>
		
			<path fill="none" stroke="#000000" stroke-width="0.5" stroke-linecap="round" stroke-linejoin="round" stroke-dasharray="2,3" d="
			M182.797,177.912"/>
		
			<path fill="none" stroke="#000000" stroke-width="0.5" stroke-linecap="round" stroke-linejoin="round" stroke-dasharray="2,3" d="
			M307.602,271.451"/>
		<text transform="matrix(0.8999 0 0 1 134.7769 228.4819)"><tspan x="0" y="0" fill="#003468" font-size="14.6685">At</tspan><tspan x="13.859" y="3" fill="#003468" font-size="10">1</tspan></text>
		
			<line fill="none" stroke="#000000" stroke-width="0.5" stroke-linecap="round" stroke-linejoin="round" stroke-dasharray="2,3" x1="167.496" y1="227.715" x2="186.219" y2="233.365"/>
		<g>
			<g>
				<path fill="none" stroke="#003468" stroke-linecap="round" d="M147.259,242.993c1.674-7.295,5.812-11.322,12.24-13.671"/>
				<g>
					<polygon fill="#003468" points="158.616,232.074 166.361,227.532 157.383,227.592 					"/>
				</g>
			</g>
		</g>
		<g>
			<g>
				<path fill="none" stroke="#003468" stroke-linecap="round" d="M176.08,230.309c-2.531-6.497-3.909-13.494-3.909-20.786
					c0-9.292,2.237-18.105,6.247-26.016"/>
				<g>
					<polygon fill="#003468" points="179.699,186.068 181.991,177.386 175.665,183.758 					"/>
				</g>
			</g>
		</g>
		<text transform="matrix(0.8999 0 0 1 401.8027 184.8955)"><tspan x="0" y="0" fill="#ED1C24" font-size="14.6685">X</tspan><tspan x="10.837" y="6.112" fill="#ED1C24" font-size="10">t</tspan></text>
		<polyline fill="none" stroke="#000000" points="314.445,144.655 353.252,48.929 328.886,48.929 		"/>
		<text transform="matrix(1 0 0 1 310.8691 286.1909)"><tspan x="0" y="0" font-size="12">O</tspan><tspan x="9.418" y="5" font-size="9">t</tspan></text>
	</g>
</g>
</svg>
