<?xml version="1.0" encoding="utf-8"?>

<svg version="1.1" id="Layer_1" xmlns="http://www.w3.org/2000/svg" xmlns:xlink="http://www.w3.org/1999/xlink" x="0px" y="0px"
	 viewBox="0 0 502 332" enable-background="new 0 0 502 332" xml:space="preserve">

<defs>
	<style type="text/css">
	text {
	  font-family: Helvetica, Verdana, ArialUnicodeMS, san-serif
	}
	</style>
</defs>

<g>
   <desc>
	PS 3.3 Part 3: Information Object Definitions
   </desc>
</g>

<g>
	<rect x="1" y="1" fill="#F2EDD6" width="500" height="330"/>
	<g>
		
			<text transform="matrix(0.8999 -0.0019 0.0017 1 342.7727 154.7214)" fill="#0DB14B" font-size="14px">+Y</text>
		
			<text transform="matrix(0.8999 -0.0019 0.0017 1 363.8729 264.774)" fill="#ED1C24" font-size="14px">+X</text>
		
			<text transform="matrix(0.8999 -0.0019 0.0017 1 213.3853 27.9998)" fill="#00AEEF" font-size="14px">+Z</text>
		<text transform="matrix(0.8999 0 0 1 256.8104 303.423)" font-size="11px">Base Beam Modifier Definition Plane</text>
		<text transform="matrix(0.8999 0 0 1 318.0357 107.7363)"><tspan x="0" y="0" font-size="11px">Beam Modifier Orientation Angle</tspan><tspan x="98.425" y="13.2" font-size="11px">(300A,0645)</tspan><tspan x="109.999" y="26.4" font-size="11px">value = 0ยบ</tspan></text>
		<text transform="matrix(0.8999 0 0 1 272.4844 71.961)" font-size="11px">Radiation source</text>
		<polygon fill="none" stroke="#000000" stroke-linecap="round" points="220.692,150.028 400.582,191.669 220.91,316.442 
			40.91,191.669 		"/>
		<g>
			<polygon fill="#F1F2F2" stroke="#D1D3D4" stroke-width="0.5" stroke-linecap="round" points="220.91,316.442 40.91,191.669 
				220.692,150.028 400.582,191.669 			"/>
			
				<line fill="#F1F2F2" stroke="#D1D3D4" stroke-width="0.5" stroke-linecap="round" x1="396.912" y1="194.218" x2="215.831" y2="151.154"/>
			
				<line fill="#F1F2F2" stroke="#D1D3D4" stroke-width="0.5" stroke-linecap="round" x1="393.089" y1="196.873" x2="210.838" y2="152.311"/>
			
				<line fill="#F1F2F2" stroke="#D1D3D4" stroke-width="0.5" stroke-linecap="round" x1="389.104" y1="199.641" x2="205.706" y2="153.499"/>
			
				<line fill="#F1F2F2" stroke="#D1D3D4" stroke-width="0.5" stroke-linecap="round" x1="384.946" y1="202.528" x2="200.429" y2="154.721"/>
			
				<line fill="#F1F2F2" stroke="#D1D3D4" stroke-width="0.5" stroke-linecap="round" x1="380.603" y1="205.544" x2="195.002" y2="155.978"/>
			
				<line fill="#F1F2F2" stroke="#D1D3D4" stroke-width="0.5" stroke-linecap="round" x1="376.062" y1="208.697" x2="189.417" y2="157.272"/>
			
				<line fill="#F1F2F2" stroke="#D1D3D4" stroke-width="0.5" stroke-linecap="round" x1="371.311" y1="211.997" x2="183.669" y2="158.603"/>
			
				<line fill="#F1F2F2" stroke="#D1D3D4" stroke-width="0.5" stroke-linecap="round" x1="366.334" y1="215.453" x2="177.749" y2="159.975"/>
			
				<line fill="#F1F2F2" stroke="#D1D3D4" stroke-width="0.5" stroke-linecap="round" x1="361.114" y1="219.078" x2="171.649" y2="161.387"/>
			
				<line fill="#F1F2F2" stroke="#D1D3D4" stroke-width="0.5" stroke-linecap="round" x1="355.634" y1="222.884" x2="165.363" y2="162.844"/>
			
				<line fill="#F1F2F2" stroke="#D1D3D4" stroke-width="0.5" stroke-linecap="round" x1="349.872" y1="226.885" x2="158.88" y2="164.345"/>
			
				<line fill="#F1F2F2" stroke="#D1D3D4" stroke-width="0.5" stroke-linecap="round" x1="343.808" y1="231.096" x2="152.191" y2="165.895"/>
			
				<line fill="#F1F2F2" stroke="#D1D3D4" stroke-width="0.5" stroke-linecap="round" x1="337.417" y1="235.534" x2="145.286" y2="167.494"/>
			
				<line fill="#F1F2F2" stroke="#D1D3D4" stroke-width="0.5" stroke-linecap="round" x1="330.671" y1="240.219" x2="138.156" y2="169.145"/>
			
				<line fill="#F1F2F2" stroke="#D1D3D4" stroke-width="0.5" stroke-linecap="round" x1="323.54" y1="245.171" x2="130.787" y2="170.852"/>
			
				<line fill="#F1F2F2" stroke="#D1D3D4" stroke-width="0.5" stroke-linecap="round" x1="315.99" y1="250.414" x2="123.169" y2="172.616"/>
			
				<line fill="#F1F2F2" stroke="#D1D3D4" stroke-width="0.5" stroke-linecap="round" x1="307.983" y1="255.975" x2="115.289" y2="174.442"/>
			
				<line fill="#F1F2F2" stroke="#D1D3D4" stroke-width="0.5" stroke-linecap="round" x1="299.476" y1="261.882" x2="107.133" y2="176.331"/>
			
				<line fill="#F1F2F2" stroke="#D1D3D4" stroke-width="0.5" stroke-linecap="round" x1="290.422" y1="268.17" x2="98.685" y2="178.288"/>
			
				<line fill="#F1F2F2" stroke="#D1D3D4" stroke-width="0.5" stroke-linecap="round" x1="280.764" y1="274.876" x2="89.931" y2="180.315"/>
			
				<line fill="#F1F2F2" stroke="#D1D3D4" stroke-width="0.5" stroke-linecap="round" x1="270.442" y1="282.045" x2="80.852" y2="182.418"/>
			
				<line fill="#F1F2F2" stroke="#D1D3D4" stroke-width="0.5" stroke-linecap="round" x1="259.384" y1="289.724" x2="71.431" y2="184.6"/>
			
				<line fill="#F1F2F2" stroke="#D1D3D4" stroke-width="0.5" stroke-linecap="round" x1="247.507" y1="297.971" x2="61.649" y2="186.866"/>
			
				<line fill="#F1F2F2" stroke="#D1D3D4" stroke-width="0.5" stroke-linecap="round" x1="234.719" y1="306.852" x2="51.483" y2="189.221"/>
			
				<line fill="#F1F2F2" stroke="#D1D3D4" stroke-width="0.5" stroke-linecap="round" x1="44.587" y1="194.218" x2="225.555" y2="151.154"/>
			
				<line fill="#F1F2F2" stroke="#D1D3D4" stroke-width="0.5" stroke-linecap="round" x1="48.417" y1="196.873" x2="230.551" y2="152.311"/>
			
				<line fill="#F1F2F2" stroke="#D1D3D4" stroke-width="0.5" stroke-linecap="round" x1="52.409" y1="199.641" x2="235.687" y2="153.499"/>
			
				<line fill="#F1F2F2" stroke="#D1D3D4" stroke-width="0.5" stroke-linecap="round" x1="56.575" y1="202.528" x2="240.966" y2="154.721"/>
			
				<line fill="#F1F2F2" stroke="#D1D3D4" stroke-width="0.5" stroke-linecap="round" x1="60.926" y1="205.544" x2="246.397" y2="155.978"/>
			
				<line fill="#F1F2F2" stroke="#D1D3D4" stroke-width="0.5" stroke-linecap="round" x1="65.475" y1="208.697" x2="251.985" y2="157.272"/>
			
				<line fill="#F1F2F2" stroke="#D1D3D4" stroke-width="0.5" stroke-linecap="round" x1="70.235" y1="211.997" x2="257.737" y2="158.603"/>
			
				<line fill="#F1F2F2" stroke="#D1D3D4" stroke-width="0.5" stroke-linecap="round" x1="75.221" y1="215.453" x2="263.661" y2="159.975"/>
			
				<line fill="#F1F2F2" stroke="#D1D3D4" stroke-width="0.5" stroke-linecap="round" x1="80.45" y1="219.078" x2="269.764" y2="161.387"/>
			
				<line fill="#F1F2F2" stroke="#D1D3D4" stroke-width="0.5" stroke-linecap="round" x1="85.941" y1="222.884" x2="276.054" y2="162.844"/>
			
				<line fill="#F1F2F2" stroke="#D1D3D4" stroke-width="0.5" stroke-linecap="round" x1="91.712" y1="226.885" x2="282.541" y2="164.345"/>
			
				<line fill="#F1F2F2" stroke="#D1D3D4" stroke-width="0.5" stroke-linecap="round" x1="97.788" y1="231.096" x2="289.234" y2="165.895"/>
			
				<line fill="#F1F2F2" stroke="#D1D3D4" stroke-width="0.5" stroke-linecap="round" x1="104.191" y1="235.534" x2="296.143" y2="167.494"/>
			
				<line fill="#F1F2F2" stroke="#D1D3D4" stroke-width="0.5" stroke-linecap="round" x1="110.949" y1="240.219" x2="303.278" y2="169.145"/>
			
				<line fill="#F1F2F2" stroke="#D1D3D4" stroke-width="0.5" stroke-linecap="round" x1="118.093" y1="245.171" x2="310.651" y2="170.852"/>
			
				<line fill="#F1F2F2" stroke="#D1D3D4" stroke-width="0.5" stroke-linecap="round" x1="125.657" y1="250.414" x2="318.273" y2="172.616"/>
			
				<line fill="#F1F2F2" stroke="#D1D3D4" stroke-width="0.5" stroke-linecap="round" x1="133.678" y1="255.975" x2="326.158" y2="174.442"/>
			
				<line fill="#F1F2F2" stroke="#D1D3D4" stroke-width="0.5" stroke-linecap="round" x1="142.2" y1="261.882" x2="334.32" y2="176.331"/>
			
				<line fill="#F1F2F2" stroke="#D1D3D4" stroke-width="0.5" stroke-linecap="round" x1="151.271" y1="268.17" x2="342.772" y2="178.288"/>
			
				<line fill="#F1F2F2" stroke="#D1D3D4" stroke-width="0.5" stroke-linecap="round" x1="160.946" y1="274.876" x2="351.532" y2="180.315"/>
			
				<line fill="#F1F2F2" stroke="#D1D3D4" stroke-width="0.5" stroke-linecap="round" x1="171.287" y1="282.045" x2="360.616" y2="182.418"/>
			
				<line fill="#F1F2F2" stroke="#D1D3D4" stroke-width="0.5" stroke-linecap="round" x1="182.366" y1="289.724" x2="370.043" y2="184.6"/>
			
				<line fill="#F1F2F2" stroke="#D1D3D4" stroke-width="0.5" stroke-linecap="round" x1="194.264" y1="297.971" x2="379.831" y2="186.866"/>
			
				<line fill="#F1F2F2" stroke="#D1D3D4" stroke-width="0.5" stroke-linecap="round" x1="207.075" y1="306.852" x2="390.004" y2="189.221"/>
		</g>
		<g>
			<g>
				
					<line fill="none" stroke="#ED1C24" stroke-width="2" stroke-linecap="round" x1="123.17" y1="164.316" x2="352.487" y2="247.499"/>
				<g>
					<polygon fill="#ED1C24" points="348.493,250.377 364.147,251.729 351.267,242.73 					"/>
				</g>
			</g>
		</g>
		<g>
			<g>
				
					<line fill="none" stroke="#0DB14B" stroke-width="2" stroke-linecap="round" x1="95.337" y1="246.379" x2="329.696" y2="159.169"/>
				<g>
					<polygon fill="#0DB14B" points="328.515,163.948 341.321,154.843 325.678,156.324 					"/>
				</g>
			</g>
		</g>
		<g>
			<g>
				
					<line fill="none" stroke="#00AEEF" stroke-width="2" stroke-linecap="round" x1="220.768" y1="199.615" x2="220.768" y2="45.582"/>
				<g>
					<polygon fill="#00AEEF" points="224.836,48.356 220.768,33.179 216.701,48.356 					"/>
				</g>
			</g>
		</g>
		<g>
			<circle cx="220.805" cy="68.71" r="6"/>
			<path fill="#FEDA00" d="M223.686,64.079c-2.491-1.478-5.805-0.611-7.393,1.943c-1.59,2.56-0.855,5.833,1.642,7.321
				c2.489,1.478,5.803,0.609,7.382-1.956C226.905,68.827,226.178,65.562,223.686,64.079z"/>
			<path d="M220.987,68.237c0.244,0.143,0.309,0.471,0.153,0.731c-0.16,0.259-0.491,0.343-0.74,0.197
				c-0.237-0.138-0.312-0.468-0.147-0.729C220.412,68.178,220.74,68.091,220.987,68.237z"/>
			<path d="M221.353,69.865c-0.419,0.243-0.937,0.268-1.368,0.008c-0.032-0.018-0.061-0.036-0.091-0.059l-1.763,2.838
				c0.031,0.018,0.064,0.039,0.094,0.056c1.452,0.862,3.216,0.806,4.634,0.005L221.353,69.865z"/>
			<path d="M222.043,68.756c0.027-0.473-0.195-0.944-0.625-1.197c-0.027-0.018-0.061-0.036-0.097-0.054l1.764-2.833
				c0.033,0.015,0.064,0.033,0.096,0.054c1.451,0.867,2.213,2.421,2.137,4.022L222.043,68.756z"/>
			<path d="M219.351,68.809c0.027-0.471,0.24-0.979,0.699-1.24c0.035-0.02,0.069-0.038,0.107-0.051l-1.45-2.805
				c-0.037,0.015-0.072,0.036-0.106,0.056c-1.541,0.897-2.388,2.524-2.492,4.127L219.351,68.809z"/>
		</g>
		<path fill="none" stroke="#005695" stroke-width="4" stroke-linecap="round" stroke-miterlimit="1" d="M131.9,170.841"/>
		<path fill="none" stroke="#005695" stroke-width="4" stroke-linecap="round" stroke-miterlimit="1" d="M131.9,194.941"/>
		<path fill="none" stroke="#005695" stroke-width="4" stroke-linecap="round" stroke-miterlimit="1" d="M164.4,194.941"/>
		<g>
			<g>
				<line fill="none" stroke="#000000" stroke-miterlimit="1" x1="269.234" y1="68.69" x2="231.398" y2="68.69"/>
				<g>
					<polygon points="232.587,66.947 226.083,68.69 232.587,70.433 					"/>
				</g>
			</g>
		</g>
		<g>
			<g>
				<polyline fill="none" stroke="#000000" stroke-miterlimit="1" points="316.117,104.871 306.364,104.871 282.216,115.697 				"/>
				<g>
					<polygon points="282.588,113.62 277.366,117.871 284.014,116.801 					"/>
				</g>
			</g>
		</g>
		<polygon fill="none" stroke="#000000" stroke-linejoin="round" points="139.055,104.15 227.305,125.104 227.305,155.743 
			139.055,127.502 		"/>
		<polyline fill="none" stroke="#000000" stroke-linejoin="round" points="224.837,110.088 312.719,127.402 227.305,155.743 
			138.827,127.402 		"/>
		
			<line fill="none" stroke="#000000" stroke-linejoin="round" stroke-dasharray="4,2" x1="138.827" y1="127.402" x2="224.837" y2="110.088"/>
		<g>
			<g>
				
					<line fill="none" stroke="#0DB14B" stroke-linecap="round" stroke-dasharray="4,2" x1="179.719" y1="139.374" x2="258.789" y2="119.476"/>
				<g>
					<polygon fill="#0DB14B" points="257.94,121.786 264.803,117.962 256.947,117.842 					"/>
				</g>
			</g>
		</g>
		<g>
			<g>
				
					<line fill="none" stroke="#ED1C24" stroke-linecap="round" stroke-dasharray="4,2" x1="179.128" y1="119.007" x2="263.138" y2="140.291"/>
				<g>
					<polygon fill="#ED1C24" points="261.294,141.921 269.15,141.814 262.293,137.979 					"/>
				</g>
			</g>
		</g>
		<line fill="none" stroke="#000000" x1="139.055" y1="104.15" x2="224.837" y2="110.088"/>
		<line fill="none" stroke="#000000" x1="227.305" y1="125.465" x2="312.719" y2="127.402"/>
	</g>
</g>
</svg>
