<?xml version="1.0" encoding="utf-8"?>

<!DOCTYPE svg PUBLIC "-//W3C//DTD SVG 1.1//EN" "http://www.w3.org/Graphics/SVG/1.1/DTD/svg11.dtd">
<svg version="1.1" id="Layer_1" xmlns="http://www.w3.org/2000/svg" xmlns:xlink="http://www.w3.org/1999/xlink" x="0px" y="0px"
	 width="502px" height="567px" viewBox="0 0 502 567" enable-background="new 0 0 502 567" xml:space="preserve">

<defs>
	<style type="text/css">
	text {
	  font-family: Helvetica, Verdana, ArialUnicodeMS, san-serif
	}
	</style>
</defs>

<g>
   <desc>
	PS 3.3 Part 3: Information Object Definitions
   </desc>
</g>

<g>
	<rect x="1" y="1" fill="#F5EED6" width="500" height="565"/>
	<g>
		<g>
			<g>
				
					<line fill="none" stroke="#005695" stroke-width="2" stroke-miterlimit="1" x1="374.107" y1="131.878" x2="374.107" y2="122.383"/>
				<g>
					<polygon fill="#005695" points="376.432,130.293 374.107,138.966 371.783,130.293 					"/>
				</g>
			</g>
		</g>
		<g>
			<g>
				
					<line fill="none" stroke="#005695" stroke-width="2" stroke-miterlimit="1" x1="165.686" y1="122.181" x2="165.686" y2="145.025"/>
				<g>
					<polygon fill="#005695" points="163.362,143.439 165.686,152.112 168.01,143.439 					"/>
				</g>
			</g>
		</g>
		<g>
			<g>
				<polyline fill="none" stroke="#005695" stroke-width="2" stroke-miterlimit="1" points="206.57,205.742 206.57,182.273 
					165.814,182.261 165.761,169.927 				"/>
				<g>
					<polygon fill="#005695" points="208.894,204.156 206.57,212.829 204.246,204.156 					"/>
				</g>
			</g>
		</g>
		<g>
			<g>
				
					<line fill="none" stroke="#005695" stroke-width="2" stroke-miterlimit="1" x1="267.688" y1="122.575" x2="267.688" y2="145.021"/>
				<g>
					<polygon fill="#005695" points="265.363,143.436 267.688,152.108 270.012,143.436 					"/>
				</g>
			</g>
		</g>
		<g>
			<g>
				<polyline fill="none" stroke="#005695" stroke-width="2" stroke-miterlimit="1" points="237.49,205.742 237.49,196.812 
					374.107,196.812 374.107,182.307 				"/>
				<g>
					<polygon fill="#005695" points="239.814,204.156 237.49,212.829 235.166,204.156 					"/>
				</g>
			</g>
		</g>
		<g>
			<g>
				<polyline fill="none" stroke="#005695" stroke-width="2" stroke-miterlimit="1" points="222.007,205.742 222.007,181.983 
					267.752,181.983 267.752,169.927 				"/>
				<g>
					<polygon fill="#005695" points="224.332,204.156 222.007,212.829 219.683,204.156 					"/>
				</g>
			</g>
		</g>
		<g>
			<g>
				<line fill="none" stroke="#005695" stroke-width="2" stroke-miterlimit="1" x1="165.758" y1="83.454" x2="165.705" y2="96.95"/>
				<g>
					<polygon fill="#005695" points="163.387,95.355 165.676,104.037 168.035,95.374 					"/>
				</g>
			</g>
		</g>
		<g>
			<g>
				
					<line fill="none" stroke="#005695" stroke-width="2" stroke-miterlimit="1" x1="165.758" y1="34.256" x2="165.704" y2="48.423"/>
				<g>
					<polygon fill="#005695" points="163.386,46.829 165.676,55.511 168.034,46.847 					"/>
				</g>
			</g>
		</g>
		<g>
			<g>
				<polyline fill="none" stroke="#005695" stroke-width="2" stroke-miterlimit="1" points="214.288,290.505 221.62,290.505 
					221.62,264.979 				"/>
				<g>
					<polygon fill="#005695" points="215.874,292.829 207.201,290.505 215.874,288.181 					"/>
				</g>
			</g>
		</g>
		<g>
			<g>
				<polyline fill="none" stroke="#005695" stroke-width="2" stroke-miterlimit="1" points="229.654,290.505 221.594,290.505 
					221.594,264.979 				"/>
				<g>
					<polygon fill="#005695" points="228.069,288.181 236.742,290.505 228.069,292.829 					"/>
				</g>
			</g>
		</g>
		<g>
			<g>
				<polyline fill="none" stroke="#005695" stroke-width="2" stroke-miterlimit="1" points="214.288,325.07 221.62,325.07 
					221.62,290.461 				"/>
				<g>
					<polygon fill="#005695" points="215.874,327.395 207.201,325.07 215.874,322.746 					"/>
				</g>
			</g>
		</g>
		<g>
			<g>
				<polyline fill="none" stroke="#005695" stroke-width="2" stroke-miterlimit="1" points="229.654,325.07 221.594,325.07 
					221.594,290.461 				"/>
				<g>
					<polygon fill="#005695" points="228.069,322.746 236.742,325.07 228.069,327.395 					"/>
				</g>
			</g>
		</g>
		<g>
			<g>
				<polyline fill="none" stroke="#005695" stroke-width="2" stroke-miterlimit="1" points="214.288,361.061 221.62,361.061 
					221.62,324.994 				"/>
				<g>
					<polygon fill="#005695" points="215.874,363.385 207.201,361.061 215.874,358.736 					"/>
				</g>
			</g>
		</g>
		<g>
			<g>
				<polyline fill="none" stroke="#005695" stroke-width="2" stroke-miterlimit="1" points="229.654,361.061 221.594,361.061 
					221.594,324.994 				"/>
				<g>
					<polygon fill="#005695" points="228.069,358.736 236.742,361.061 228.069,363.385 					"/>
				</g>
			</g>
		</g>
		<g>
			<g>
				<polyline fill="none" stroke="#005695" stroke-width="2" stroke-miterlimit="1" points="214.288,397.07 221.62,397.07 
					221.62,361.004 				"/>
				<g>
					<polygon fill="#005695" points="215.874,399.395 207.201,397.07 215.874,394.746 					"/>
				</g>
			</g>
		</g>
		<g>
			<g>
				<polyline fill="none" stroke="#005695" stroke-width="2" stroke-miterlimit="1" points="229.654,397.07 221.594,397.07 
					221.594,361.004 				"/>
				<g>
					<polygon fill="#005695" points="228.069,394.746 236.742,397.07 228.069,399.395 					"/>
				</g>
			</g>
		</g>
		<g>
			<g>
				<polyline fill="none" stroke="#005695" stroke-width="2" stroke-miterlimit="1" points="214.288,433.08 221.62,433.08 
					221.62,397.014 				"/>
				<g>
					<polygon fill="#005695" points="215.874,435.404 207.201,433.08 215.874,430.756 					"/>
				</g>
			</g>
		</g>
		<g>
			<g>
				<polyline fill="none" stroke="#005695" stroke-width="2" stroke-miterlimit="1" points="229.654,433.08 221.594,433.08 
					221.594,397.014 				"/>
				<g>
					<polygon fill="#005695" points="228.069,430.756 236.742,433.08 228.069,435.404 					"/>
				</g>
			</g>
		</g>
		<g>
			<g>
				<polyline fill="none" stroke="#005695" stroke-width="2" stroke-miterlimit="1" points="214.288,469.09 221.62,469.09 
					221.62,433.023 				"/>
				<g>
					<polygon fill="#005695" points="215.874,471.414 207.201,469.09 215.874,466.766 					"/>
				</g>
			</g>
		</g>
		<g>
			<g>
				<polyline fill="none" stroke="#005695" stroke-width="2" stroke-miterlimit="1" points="229.654,469.09 221.594,469.09 
					221.594,433.023 				"/>
				<g>
					<polygon fill="#005695" points="228.069,466.766 236.742,469.09 228.069,471.414 					"/>
				</g>
			</g>
		</g>
		<g>
			<g>
				<polyline fill="none" stroke="#005695" stroke-width="2" stroke-miterlimit="1" points="229.654,505.461 221.594,505.461 
					221.594,469.25 				"/>
				<g>
					<polygon fill="#005695" points="228.069,503.137 236.742,505.461 228.069,507.785 					"/>
				</g>
			</g>
		</g>
		<g>
			<g>
				
					<line fill="none" stroke="#005695" stroke-width="2" stroke-miterlimit="1" x1="221.781" y1="231.003" x2="221.781" y2="240.078"/>
				<g>
					<polygon fill="#005695" points="219.457,238.492 221.781,247.165 224.105,238.492 					"/>
				</g>
			</g>
		</g>
		
			<polygon fill="#CCDEF0" stroke="#010101" stroke-width="0.75" stroke-linecap="round" stroke-linejoin="round" stroke-miterlimit="1" points="
			120.753,160.975 165.687,152.112 210.751,161.103 210.751,161.123 165.687,170.112 		"/>
		<g>
			<text transform="matrix(1 0 0 1 148.9907 163.5703)" font-size="9">contains</text>
		</g>
		
			<polygon fill="#CCDEF0" stroke="#010101" stroke-width="0.75" stroke-linecap="round" stroke-linejoin="round" stroke-miterlimit="1" points="
			222.681,160.971 267.615,152.108 312.68,161.099 312.68,161.119 267.615,170.108 		"/>
		<g>
			<text transform="matrix(1 0 0 1 252.9238 163.5703)" font-size="9">creates</text>
		</g>
		
			<polygon fill="#CCDEF0" stroke="#010101" stroke-width="0.75" stroke-linecap="round" stroke-linejoin="round" stroke-miterlimit="1" points="
			324.295,161.12 373.723,138.966 423.295,161.441 423.295,161.491 373.723,183.966 		"/>
		<g>
			<text transform="matrix(1 0 0 1 359.374 154.1328)"><tspan x="0" y="0" font-size="9">spatially</tspan><tspan x="-9.751" y="8.8" font-size="9">or temporally</tspan><tspan x="1.747" y="17.6" font-size="9">defines</tspan></text>
		</g>
		
			<rect x="225.796" y="104.037" fill="#86B2D8" stroke="#010101" stroke-width="0.75" stroke-linecap="round" stroke-linejoin="round" stroke-miterlimit="1" width="83.993" height="18"/>
		<g>
			<text transform="matrix(1 0 0 1 239.1074 116.3311)" font-size="12">Equipment</text>
		</g>
		
			<rect x="324.615" y="104.037" fill="#86B2D8" stroke="#010101" stroke-width="0.75" stroke-linecap="round" stroke-linejoin="round" stroke-miterlimit="1" width="99" height="18"/>
		<g>
			<text transform="matrix(1 0 0 1 329.6641 116.3311)" font-size="10">Frame of Reference</text>
		</g>
		
			<rect x="123.677" y="15.475" fill="#86B2D8" stroke="#010101" stroke-width="0.75" stroke-linecap="round" stroke-linejoin="round" stroke-miterlimit="1" width="84.004" height="18"/>
		<g>
			<text transform="matrix(1 0 0 1 146.9956 27.7637)" font-size="12">Patient</text>
		</g>
		
			<rect x="123.681" y="104.175" fill="#86B2D8" stroke="#010101" stroke-width="0.75" stroke-linecap="round" stroke-linejoin="round" stroke-miterlimit="1" width="83.996" height="18"/>
		<g>
			<text transform="matrix(1 0 0 1 150.3335 116.4668)" font-size="12">Study</text>
		</g>
		<g>
			<text transform="matrix(1 0 0 1 195.4468 152.6475)" font-size="9">1</text>
		</g>
		<g>
			<text transform="matrix(1 0 0 1 187.4448 174.6533)" font-size="9">1-n</text>
		</g>
		<g>
			<text transform="matrix(1 0 0 1 296.7793 152.6475)" font-size="9">1</text>
		</g>
		<g>
			<text transform="matrix(1 0 0 1 288.7754 174.6533)" font-size="9">1-n</text>
		</g>
		<g>
			<text transform="matrix(1 0 0 1 407.7754 148.6162)" font-size="9">0-1</text>
		</g>
		<g>
			<text transform="matrix(1 0 0 1 407.7754 179.2607)" font-size="9">0-n</text>
		</g>
		
			<polygon fill="#CCDEF0" stroke="#010101" stroke-width="0.75" stroke-linecap="round" stroke-linejoin="round" stroke-miterlimit="1" points="
			111.568,68.804 165.489,55.511 219.569,68.995 219.569,69.026 165.489,82.511 		"/>
		<g>
			<text transform="matrix(1 0 0 1 134.1548 71.4775)" font-size="9">is the subject of</text>
		</g>
		<g>
			<text transform="matrix(1 0 0 1 208.418 58.7354)" font-size="9">1</text>
		</g>
		<g>
			<text transform="matrix(1 0 0 1 200.4155 85.7812)" font-size="9">1-n</text>
		</g>
		
			<rect x="236.601" y="317.164" fill="#86B2D8" stroke="#010101" stroke-width="0.75" stroke-linecap="round" stroke-linejoin="round" stroke-miterlimit="1" width="83.995" height="17.998"/>
		<g>
			<text transform="matrix(1 0 0 1 266.0908 329.4531)" font-size="9">Image</text>
		</g>
		
			<rect x="236.601" y="353.172" fill="#86B2D8" stroke="#010101" stroke-width="0.75" stroke-linecap="round" stroke-linejoin="round" stroke-miterlimit="1" width="83.995" height="18"/>
		<g>
			<text transform="matrix(1 0 0 1 258.0947 365.4609)" font-size="9">Waveform</text>
		</g>
		
			<rect x="236.601" y="389.172" fill="#86B2D8" stroke="#010101" stroke-width="0.75" stroke-linecap="round" stroke-linejoin="round" stroke-miterlimit="1" width="83.995" height="18"/>
		<g>
			<text transform="matrix(1 0 0 1 263.0898 401.4609)" font-size="9">Surface</text>
		</g>
		
			<rect x="78.389" y="316.07" fill="#86B2D8" stroke="#010101" stroke-width="0.75" stroke-linecap="round" stroke-linejoin="round" stroke-miterlimit="1" width="128.779" height="18"/>
		<g>
			<text transform="matrix(1 0 0 1 105.4312 328.3594)" font-size="9">Presentation State</text>
		</g>
		
			<rect x="78.389" y="352.061" fill="#86B2D8" stroke="#010101" stroke-width="0.75" stroke-linecap="round" stroke-linejoin="round" stroke-miterlimit="1" width="128.779" height="18"/>
		<g>
			<text transform="matrix(1 0 0 1 122.6973 364.3516)" font-size="9">Raw Data</text>
		</g>
		
			<rect x="78.385" y="388.07" fill="#86B2D8" stroke="#010101" stroke-width="0.75" stroke-linecap="round" stroke-linejoin="round" stroke-miterlimit="1" width="128.778" height="18"/>
		
			<rect x="78.385" y="424.07" fill="#86B2D8" stroke="#010101" stroke-width="0.75" stroke-linecap="round" stroke-linejoin="round" stroke-miterlimit="1" width="128.778" height="18"/>
		
			<rect x="78.389" y="281.069" fill="#86B2D8" stroke="#010101" stroke-width="0.75" stroke-linecap="round" stroke-linejoin="round" stroke-miterlimit="1" width="128.779" height="18.001"/>
		<g>
			<text transform="matrix(1 0 0 1 114.4438 293.3594)" font-size="9">SR Document</text>
		</g>
		
			<polygon fill="#CCDEF0" stroke="#010101" stroke-width="0.75" stroke-linecap="round" stroke-linejoin="round" stroke-miterlimit="1" points="
			176.703,256.028 221.636,247.165 266.701,256.155 266.701,256.177 221.636,265.165 		"/>
		<g>
			<text transform="matrix(1 0 0 1 204.9404 258.624)" font-size="9">contains</text>
		</g>
		<g>
			<text transform="matrix(1 0 0 1 243.2817 247.7021)" font-size="9">1</text>
		</g>
		<g>
			<text transform="matrix(1 0 0 1 235.8008 278.9561)" font-size="9">0-n</text>
		</g>
		<g>
			<text transform="matrix(1 0 0 1 235.8008 314.6904)" font-size="9">0-n</text>
		</g>
		<g>
			<text transform="matrix(1 0 0 1 235.8008 350.4248)" font-size="9">0-n</text>
		</g>
		<g>
			<text transform="matrix(1 0 0 1 235.8008 386.1602)" font-size="9">0-n</text>
		</g>
		
			<rect x="236.601" y="424.486" fill="#86B2D8" stroke="#010101" stroke-width="0.75" stroke-linecap="round" stroke-linejoin="round" stroke-miterlimit="1" width="83.995" height="18"/>
		<g>
			<text transform="matrix(1 0 0 1 260.8418 436.7754)" font-size="9">Fiducials</text>
		</g>
		<g>
			<text transform="matrix(1 0 0 1 235.8008 421.4746)" font-size="9">0-n</text>
		</g>
		<g>
			<text transform="matrix(1 0 0 1 193.8608 278.9561)" font-size="9">0-n</text>
		</g>
		<g>
			<text transform="matrix(1 0 0 1 193.8608 314.6904)" font-size="9">0-n</text>
		</g>
		<g>
			<text transform="matrix(1 0 0 1 193.8608 350.4248)" font-size="9">0-n</text>
		</g>
		<g>
			<text transform="matrix(1 0 0 1 193.8608 386.1602)" font-size="9">0-n</text>
		</g>
		<g>
			<text transform="matrix(1 0 0 1 193.8608 421.4746)" font-size="9">0-n</text>
		</g>
		
			<rect x="78.385" y="459.385" fill="#86B2D8" stroke="#010101" stroke-width="0.75" stroke-linecap="round" stroke-linejoin="round" stroke-miterlimit="1" width="128.778" height="18"/>
		<g>
			<text transform="matrix(1 0 0 1 193.8608 456.7891)" font-size="9">0-n</text>
		</g>
		<g>
			<g>
				<polyline fill="none" stroke="#005695" stroke-width="2" stroke-miterlimit="1" points="214.288,505.461 221.62,505.461 
					221.62,469.307 				"/>
				<g>
					<polygon fill="#005695" points="215.874,507.785 207.201,505.461 215.874,503.137 					"/>
				</g>
			</g>
		</g>
		
			<rect x="78.385" y="496.449" fill="#86B2D8" stroke="#010101" stroke-width="0.75" stroke-linecap="round" stroke-linejoin="round" stroke-miterlimit="1" width="128.778" height="18"/>
		<g>
			<text transform="matrix(1 0 0 1 193.8608 493.8535)" font-size="9">0-n</text>
		</g>
		
			<rect x="236.601" y="459.801" fill="#86B2D8" stroke="#010101" stroke-width="0.75" stroke-linecap="round" stroke-linejoin="round" stroke-miterlimit="1" width="83.995" height="18"/>
		<g>
			<text transform="matrix(1 0 0 1 254.5859 472.0898)" font-size="9">Registration</text>
		</g>
		<g>
			<text transform="matrix(1 0 0 1 235.8008 456.7891)" font-size="9">0-n</text>
		</g>
		
			<rect x="236.601" y="496.461" fill="#86B2D8" stroke="#010101" stroke-width="0.75" stroke-linecap="round" stroke-linejoin="round" stroke-miterlimit="1" width="83.995" height="18"/>
		<g>
			<text transform="matrix(1 0 0 1 235.8008 493.4492)" font-size="9">0-n</text>
		</g>
		
			<rect x="236.601" y="281.892" fill="#86B2D8" stroke="#010101" stroke-width="0.75" stroke-linecap="round" stroke-linejoin="round" stroke-miterlimit="1" width="83.995" height="18.001"/>
		<g>
			<text transform="matrix(1 0 0 1 269.5908 294.1816)" font-size="9">Plan</text>
		</g>
		
			<rect x="179.83" y="213.047" fill="#86B2D8" stroke="#010101" stroke-width="0.75" stroke-linecap="round" stroke-linejoin="round" stroke-miterlimit="1" width="84" height="17.987"/>
		<g>
			<text transform="matrix(1 0 0 1 204.8218 225.3511)" font-size="12">Series</text>
		</g>
		<g>
			<text transform="matrix(1 0 0 1 248.8359 508.0898)" font-size="9">Measurements</text>
		</g>
		<g>
			<text transform="matrix(1 0 0 1 99.687 399.8965)" font-size="9">Tractography Results</text>
		</g>
		<g>
			<text transform="matrix(1 0 0 1 115.1909 435.9043)" font-size="9">Spectroscopy</text>
		</g>
		<g>
			<text transform="matrix(1 0 0 1 93.4248 471.9043)" font-size="9">Encapsulated Document</text>
		</g>
		<g>
			<text transform="matrix(1 0 0 1 88.6787 507.2188)" font-size="9">Real-World Value Mapping</text>
		</g>
	</g>
</g>
</svg>
