<?xml version="1.0" encoding="utf-8"?>

<svg version="1.1" id="Layer_1" xmlns="http://www.w3.org/2000/svg" xmlns:xlink="http://www.w3.org/1999/xlink" x="0px" y="0px"
	 viewBox="0 0 852 377" enable-background="new 0 0 852 377" xml:space="preserve">

<defs>
	<style type="text/css">
	text {
	  font-family: Helvetica, Verdana, ArialUnicodeMS, san-serif
	}
	</style>
</defs>

<g>
   <desc>
	PS 3.3 Part 3: Information Object Definitions
   </desc>
</g>

<g>
	<rect x="1" y="1" fill="#F2EDD6" width="850" height="375"/>
	<g>
		<text transform="matrix(0.8999 0 0 1 629.1311 331.8416)" font-size="11px">Isocenter</text>
		
			<text transform="matrix(0.8999 -0.0019 0.0017 1 456.3075 27.4476)" fill="#00AEEF" font-size="14px">+Z</text>
		<g>
			<g>
				
					<line fill="none" stroke="#00AEEF" stroke-width="2" stroke-linecap="round" x1="463.637" y1="359.806" x2="463.637" y2="43.63"/>
				<g>
					<polygon fill="#00AEEF" points="467.705,46.403 463.637,31.226 459.57,46.403 					"/>
				</g>
			</g>
		</g>
		
			<line fill="none" stroke="#000000" stroke-width="0.75" stroke-linecap="round" stroke-miterlimit="1" stroke-dasharray="4,4" x1="567.7" y1="328.971" x2="349.371" y2="328.971"/>
		<g>
			<path stroke="#000000" stroke-miterlimit="1" d="M469.469,328.971c0.007-3.176-2.571-5.744-5.742-5.744v5.744H469.469z"/>
			<path fill="#FFFFFF" stroke="#010101" stroke-linecap="round" stroke-linejoin="round" stroke-miterlimit="1" d="
				M463.727,323.227c-3.168,0-5.74,2.572-5.74,5.744h5.74V323.227z"/>
			<path stroke="#000000" stroke-miterlimit="1" d="M457.986,328.971c0.002,3.176,2.572,5.74,5.748,5.74l-0.008-5.74H457.986z"/>
			<path fill="#FFFFFF" stroke="#010101" stroke-linecap="round" stroke-linejoin="round" stroke-miterlimit="1" d="
				M463.727,328.971l0.008,5.74c3.167,0,5.741-2.57,5.734-5.74H463.727z"/>
		</g>
		<g>
			<g>
				<line fill="none" stroke="#000000" stroke-miterlimit="1" x1="574.679" y1="328.971" x2="624.043" y2="328.971"/>
				<g>
					<polygon points="575.868,330.715 569.363,328.971 575.868,327.228 					"/>
				</g>
			</g>
		</g>
		<g>
			<text transform="matrix(0.8999 0 0 1 629.1313 103.1881)"><tspan x="0" y="0" font-size="11px">Compensator Mounting Plane</tspan><tspan x="0" y="25.2" font-size="11px">Block and Compensator Tray in Accessory Slot</tspan><tspan x="0" y="50.4" font-size="11px">Compensator Base Plane</tspan></text>
		</g>
		
			<line fill="none" stroke="#000000" stroke-width="2" stroke-linecap="round" x1="290.684" y1="114.265" x2="581.254" y2="114.265"/>
		<g>
			<g>
				
					<line fill="none" stroke="#005695" stroke-width="2" stroke-linecap="round" stroke-miterlimit="1" x1="329.371" y1="121.788" x2="329.371" y2="134.873"/>
				<g>
					<polygon fill="#005695" points="327.047,123.373 329.371,114.701 331.695,123.373 					"/>
				</g>
				<g>
					<polygon fill="#005695" points="327.047,133.288 329.371,141.96 331.695,133.288 					"/>
				</g>
			</g>
		</g>
		<g>
			<g>
				
					<line fill="none" stroke="#005695" stroke-width="2" stroke-linecap="round" stroke-miterlimit="1" x1="349.371" y1="121.788" x2="349.371" y2="152.336"/>
				<g>
					<polygon fill="#005695" points="347.047,123.373 349.371,114.701 351.695,123.373 					"/>
				</g>
				<g>
					<polygon fill="#005695" points="347.047,150.751 349.371,159.423 351.695,150.751 					"/>
				</g>
			</g>
		</g>
		<g>
			<g>
				
					<line fill="none" stroke="#005695" stroke-width="2" stroke-linecap="round" stroke-miterlimit="1" x1="369.371" y1="121.788" x2="369.371" y2="321.884"/>
				<g>
					<polygon fill="#005695" points="367.047,123.373 369.371,114.701 371.695,123.373 					"/>
				</g>
				<g>
					<polygon fill="#005695" points="367.047,320.299 369.371,328.971 371.695,320.299 					"/>
				</g>
			</g>
		</g>
		<g>
			<g>
				
					<line fill="none" stroke="#005695" stroke-width="2" stroke-linecap="round" stroke-miterlimit="1" x1="309.371" y1="97.841" x2="309.371" y2="105.427"/>
				<g>
					<polygon fill="#005695" points="307.047,99.427 309.371,90.754 311.695,99.427 					"/>
				</g>
				<g>
					<polygon fill="#005695" points="307.047,103.842 309.371,112.514 311.695,103.842 					"/>
				</g>
			</g>
		</g>
		<g>
			<g>
				
					<line fill="none" stroke="#000000" stroke-width="0.75" stroke-linecap="round" stroke-miterlimit="1" x1="591.235" y1="90.754" x2="589.235" y2="90.754"/>
				
					<line fill="none" stroke="#000000" stroke-width="0.75" stroke-linecap="round" stroke-miterlimit="1" stroke-dasharray="3.954,3.954" x1="585.281" y1="90.754" x2="294.661" y2="90.754"/>
				
					<line fill="none" stroke="#000000" stroke-width="0.75" stroke-linecap="round" stroke-miterlimit="1" x1="292.684" y1="90.754" x2="290.684" y2="90.754"/>
			</g>
		</g>
		<g>
			<g>
				
					<line fill="none" stroke="#000000" stroke-width="0.75" stroke-linecap="round" stroke-miterlimit="1" x1="591.235" y1="159.423" x2="589.235" y2="159.423"/>
				
					<line fill="none" stroke="#000000" stroke-width="0.75" stroke-linecap="round" stroke-miterlimit="1" stroke-dasharray="3.9781,3.9781" x1="585.257" y1="159.423" x2="332.648" y2="159.423"/>
				
					<line fill="none" stroke="#000000" stroke-width="0.75" stroke-linecap="round" stroke-miterlimit="1" x1="330.659" y1="159.423" x2="328.659" y2="159.423"/>
			</g>
		</g>
		<polygon fill-rule="evenodd" clip-rule="evenodd" fill="#B3B3B3" stroke="#000000" points="564.613,159.423 564.613,114.701 
			514.875,114.701 509.022,125.987 498.156,136.853 492.723,136.853 486.871,131.42 481.438,131.42 481.438,136.853 
			476.002,136.853 464.72,136.853 464.72,142.706 459.284,142.706 453.852,136.853 453.852,131.42 447.998,125.987 442.566,120.552 
			442.566,114.701 392.826,114.701 392.826,159.423 		"/>
		
			<rect x="514.875" y="90.754" fill-rule="evenodd" clip-rule="evenodd" fill="#E6E7E8" stroke="#000000" width="49.738" height="23.511"/>
		
			<rect x="392.826" y="90.754" fill-rule="evenodd" clip-rule="evenodd" fill="#E6E7E8" stroke="#000000" width="49.863" height="23.511"/>
		<g>
			<g>
				<polyline fill="none" stroke="#000000" stroke-miterlimit="1" points="588.336,110.603 601.281,99.469 624.043,99.469 				"/>
				<g>
					<polygon points="590.374,111.149 584.306,114.069 588.101,108.506 					"/>
				</g>
			</g>
		</g>
		<g>
			<g>
				<polyline fill="none" stroke="#000000" stroke-miterlimit="1" points="588.546,156.217 596.281,150.366 624.043,150.366 				"/>
				<g>
					<polygon points="590.545,156.89 584.306,159.423 588.442,154.109 					"/>
				</g>
			</g>
		</g>
		<g>
			<g>
				<polyline fill="none" stroke="#000000" stroke-miterlimit="1" points="388.824,82.896 375.049,48.107 275.064,48.107 				"/>
				<g>
					<polygon points="390.007,81.149 390.781,87.839 386.766,82.433 					"/>
				</g>
			</g>
		</g>
		<g>
			<g>
				<polyline fill="none" stroke="#000000" stroke-miterlimit="1" points="445.025,140.144 382.259,277.4 275.064,277.4 				"/>
				<g>
					<polygon points="442.946,140.5 447.236,135.31 446.116,141.95 					"/>
				</g>
			</g>
		</g>
		<g>
			<path fill="none" stroke="#000000" d="M599.627,159.423c4.344,0,7.245-0.533,8.7-1.6c1.455-1.067,2.183-3.464,2.183-7.191
				c0-6.259,0.2-10.783,0.601-13.572c0.4-2.788,1.518-5.128,3.354-7.021c1.835-1.892,4.925-3.535,9.269-4.929
				c-4.302-1.195-7.583-3.101-9.839-5.719c-2.257-2.617-3.385-7.155-3.385-13.614c0-5.946-0.19-9.581-0.569-10.904
				c-0.38-1.323-1.107-2.34-2.183-3.051c-1.076-0.711-3.787-1.067-8.13-1.067"/>
		</g>
		<g>
			<g>
				
					<line fill="none" stroke="#000000" stroke-width="0.75" stroke-linecap="round" stroke-miterlimit="1" x1="514.875" y1="141.96" x2="512.875" y2="141.96"/>
				
					<line fill="none" stroke="#000000" stroke-width="0.75" stroke-linecap="round" stroke-miterlimit="1" stroke-dasharray="3.9511,3.9511" x1="508.924" y1="141.96" x2="313.347" y2="141.96"/>
				
					<line fill="none" stroke="#000000" stroke-width="0.75" stroke-linecap="round" stroke-miterlimit="1" x1="311.371" y1="141.96" x2="309.371" y2="141.96"/>
			</g>
		</g>
		<g>
			<text transform="matrix(0.8999 0 0 1 193.1922 51.4244)"><tspan x="0" y="0" font-size="11px">Block Orientation</tspan><tspan x="21.393" y="13.2" font-size="11px">(300A,066C)</tspan><tspan x="-3.953" y="26.4" font-size="11px">= SOURCE_SIDE</tspan></text>
		</g>
		<g>
			<text transform="matrix(0.8999 0 0 1 197.0541 106.2006)"><tspan x="0" y="0" font-size="11px">Block Thickness</tspan><tspan x="18.927" y="13.2" font-size="11px">(300A,0100)</tspan></text>
		</g>
		<g>
			<text transform="matrix(0.8999 0 0 1 98.5785 147.7778)"><tspan x="0" y="0" font-size="11px">Compensator Proximal Thickness Map</tspan><tspan x="128.358" y="13.2" font-size="11px">(300A,0664)</tspan></text>
		</g>
		<g>
			<text transform="matrix(0.8999 0 0 1 123.8616 189.3555)"><tspan x="0" y="0" font-size="11px">Compensator Base Plane Offset </tspan><tspan x="100.262" y="13.2" font-size="11px">(300A,0666)</tspan><tspan x="27.516" y="26.4" font-size="11px">(Attribute value is negative)</tspan></text>
		</g>
		<g>
			<text transform="matrix(0.8999 0 0 1 143.1472 242.4325)"><tspan x="0" y="0" font-size="11px">RT Accessory Slot Distance </tspan><tspan x="78.831" y="13.2" font-size="11px">(300A,0613)</tspan></text>
		</g>
		<g>
			<text transform="matrix(0.8999 0 0 1 135.9693 280.0094)"><tspan x="0" y="0" font-size="11px">Compensator Map Orientation</tspan><tspan x="86.807" y="13.2" font-size="11px">(300A,0663)</tspan><tspan x="59.635" y="26.4" font-size="11px">= SOURCE_SIDE</tspan></text>
		</g>
		<g>
			<text transform="matrix(0.8999 0 0 1 16.0094 331.9693)"><tspan x="0" y="0" font-size="11px">RT Device Distance Reference Location Code Sequence </tspan><tspan x="220.112" y="13.2" font-size="11px">(300A,0659)</tspan><tspan x="12.568" y="26.4" font-size="11px">code = (130359, DCM, “Treatment Machine Isocenter”)</tspan></text>
		</g>
		<g>
			<g>
				<line fill="none" stroke="#000000" stroke-miterlimit="1" x1="274.398" y1="103.254" x2="300.059" y2="103.254"/>
				<g>
					<polygon points="298.87,104.997 305.374,103.254 298.87,101.511 					"/>
				</g>
			</g>
		</g>
		<g>
			<g>
				<line fill="none" stroke="#000000" stroke-miterlimit="1" x1="272.398" y1="240.122" x2="357.645" y2="240.122"/>
				<g>
					<polygon points="356.456,241.865 362.96,240.122 356.456,238.379 					"/>
				</g>
			</g>
		</g>
		<g>
			<g>
				<line fill="none" stroke="#000000" stroke-miterlimit="1" x1="272.398" y1="328.969" x2="357.645" y2="328.969"/>
				<g>
					<polygon points="356.456,330.712 362.96,328.969 356.456,327.226 					"/>
				</g>
			</g>
		</g>
		<g>
			<g>
				<polyline fill="none" stroke="#000000" stroke-miterlimit="1" points="274.398,145.278 287.289,145.278 299.083,128.331 
					320.748,128.331 				"/>
				<g>
					<polygon points="319.559,130.074 326.064,128.331 319.559,126.587 					"/>
				</g>
			</g>
		</g>
		<g>
			<g>
				<polyline fill="none" stroke="#000000" stroke-miterlimit="1" points="274.398,186.324 287.289,186.324 308.393,150.366 
					337.3,150.366 				"/>
				<g>
					<polygon points="336.111,152.109 342.615,150.366 336.111,148.623 					"/>
				</g>
			</g>
		</g>
	</g>
</g>
</svg>
