<?xml version="1.0" encoding="utf-8"?>

<!DOCTYPE svg PUBLIC "-//W3C//DTD SVG 1.1//EN" "http://www.w3.org/Graphics/SVG/1.1/DTD/svg11.dtd">
<svg version="1.1" id="Layer_1" xmlns="http://www.w3.org/2000/svg" xmlns:xlink="http://www.w3.org/1999/xlink" x="0px" y="0px"
	 width="502px" height="262px" viewBox="0 0 502 262" enable-background="new 0 0 502 262" xml:space="preserve">
    
<defs>
	<style type="text/css">
	text {
	  font-family: Helvetica, Verdana, ArialUnicodeMS, san-serif
	}
	</style>
</defs>

<g>
   <desc>
	PS 3.3 Part 3: Information Object Definitions
   </desc>
</g>

<g>
	<rect x="1" y="1" fill="#F5EED6" width="500" height="260"/>
	<g>
		<g>
			<g>
				
					<line fill="none" stroke="#005695" stroke-width="1.875" stroke-miterlimit="1" x1="353.211" y1="51.669" x2="353.211" y2="40.31"/>
				<g>
					<polygon fill="#005695" points="355.39,50.183 353.211,58.313 351.032,50.183 					"/>
				</g>
			</g>
		</g>
		<g>
			<g>
				
					<line fill="none" stroke="#005695" stroke-width="1.875" stroke-miterlimit="1" x1="144.789" y1="40.133" x2="144.789" y2="56.631"/>
				<g>
					<polygon fill="#005695" points="142.61,55.146 144.789,63.276 146.968,55.146 					"/>
				</g>
			</g>
		</g>
		<g>
			<g>
				<polyline fill="none" stroke="#005695" stroke-width="2" stroke-miterlimit="1" points="185.673,113.304 185.673,93.437 
					144.917,93.425 144.864,81.091 				"/>
				<g>
					<polygon fill="#005695" points="187.997,111.719 185.673,120.392 183.349,111.719 					"/>
				</g>
			</g>
		</g>
		<g>
			<g>
				
					<line fill="none" stroke="#005695" stroke-width="1.875" stroke-miterlimit="1" x1="246.791" y1="40.479" x2="246.791" y2="56.628"/>
				<g>
					<polygon fill="#005695" points="244.612,55.142 246.791,63.272 248.97,55.142 					"/>
				</g>
			</g>
		</g>
		<g>
			<g>
				<polyline fill="none" stroke="#005695" stroke-width="2" stroke-miterlimit="1" points="216.593,113.304 216.593,104.376 
					353.211,104.376 353.211,87.513 				"/>
				<g>
					<polygon fill="#005695" points="218.917,111.719 216.593,120.392 214.269,111.719 					"/>
				</g>
			</g>
		</g>
		<g>
			<g>
				<polyline fill="none" stroke="#005695" stroke-width="2" stroke-miterlimit="1" points="201.11,113.304 201.11,93.147 
					246.855,93.147 246.855,81.091 				"/>
				<g>
					<polygon fill="#005695" points="203.435,111.719 201.11,120.392 198.786,111.719 					"/>
				</g>
			</g>
		</g>
		
			<polygon fill="#CCDEF0" stroke="#010101" stroke-width="0.75" stroke-linecap="round" stroke-linejoin="round" stroke-miterlimit="1" points="
			99.856,72.138 144.79,63.276 189.854,72.265 189.854,72.286 144.79,81.276 		"/>
		<g>
			<text transform="matrix(1 0 0 1 123.5938 74.7275)" font-size="9">references</text>
		</g>
		
			<polygon fill="#CCDEF0" stroke="#010101" stroke-width="0.75" stroke-linecap="round" stroke-linejoin="round" stroke-miterlimit="1" points="
			201.784,72.134 246.719,63.272 291.782,72.261 291.782,72.282 246.719,81.272 		"/>
		<g>
			<text transform="matrix(1 0 0 1 224.0239 74.7275)" font-size="9">rerferences</text>
		</g>
		
			<polygon fill="#CCDEF0" stroke="#010101" stroke-width="0.75" stroke-linecap="round" stroke-linejoin="round" stroke-miterlimit="1" points="
			303.397,72.397 352.825,57.629 402.397,72.612 402.397,72.646 352.825,87.63 		"/>
		<g>
			<text transform="matrix(1 0 0 1 322.7168 74.7285)" font-size="9">spatially defines</text>
		</g>
		
			<rect x="204.899" y="16.354" fill="#86B2D8" stroke="#010101" stroke-width="0.75" stroke-linecap="round" stroke-linejoin="round" stroke-miterlimit="1" width="83.992" height="24"/>
		<g>
			<text transform="matrix(1 0 0 1 208.2671 26.4214)"><tspan x="0" y="0" font-size="10">Implant Template</tspan><tspan x="24.731" y="9.333" font-size="10">Group</tspan></text>
		</g>
		
			<rect x="303.718" y="16.354" fill="#86B2D8" stroke="#010101" stroke-width="0.75" stroke-linecap="round" stroke-linejoin="round" stroke-miterlimit="1" width="99" height="24"/>
		<g>
			<text transform="matrix(1 0 0 1 308.7676 31.0884)" font-size="10">Frame of Reference</text>
		</g>
		
			<rect x="99.282" y="16.354" fill="#86B2D8" stroke="#010101" stroke-width="0.75" stroke-linecap="round" stroke-linejoin="round" stroke-miterlimit="1" width="91" height="24"/>
		<g>
			<text transform="matrix(1 0 0 1 105.3213 26.4214)"><tspan x="0" y="0" font-size="10">Implant Assembly</tspan><tspan x="18.616" y="9.333" font-size="10">Template</tspan></text>
		</g>
		<g>
			<text transform="matrix(1 0 0 1 166.5479 63.8047)" font-size="9">0-n</text>
		</g>
		<g>
			<text transform="matrix(1 0 0 1 166.5479 85.8105)" font-size="9">1-n</text>
		</g>
		<g>
			<text transform="matrix(1 0 0 1 267.8789 63.8047)" font-size="9">0-n</text>
		</g>
		<g>
			<text transform="matrix(1 0 0 1 267.8789 85.8105)" font-size="9">1-n</text>
		</g>
		<g>
			<g>
				
					<line fill="none" stroke="#005695" stroke-width="1.875" stroke-miterlimit="1" x1="149.46" y1="197.305" x2="149.46" y2="213.804"/>
				<g>
					<polygon fill="#005695" points="147.281,212.317 149.46,220.448 151.639,212.317 					"/>
				</g>
			</g>
		</g>
		<g>
			<g>
				
					<line fill="none" stroke="#005695" stroke-width="1.875" stroke-miterlimit="1" x1="251.461" y1="197.651" x2="251.461" y2="213.8"/>
				<g>
					<polygon fill="#005695" points="249.282,212.313 251.461,220.444 253.64,212.313 					"/>
				</g>
			</g>
		</g>
		<g>
			<g>
				<polyline fill="none" stroke="#005695" stroke-width="1.9801" stroke-miterlimit="1" points="211.884,138.628 211.884,165.583 
					251.833,165.595 251.855,170.912 				"/>
				<g>
					<polygon fill="#005695" points="249.547,169.353 251.884,177.929 254.149,169.333 					"/>
				</g>
			</g>
		</g>
		<g>
			<g>
				<polyline fill="none" stroke="#005695" stroke-width="1.8702" stroke-miterlimit="1" points="189.981,138.628 189.981,165.872 
					149.981,165.872 149.981,171.301 				"/>
				<g>
					<polygon fill="#005695" points="147.808,169.819 149.981,177.929 152.154,169.819 					"/>
				</g>
			</g>
		</g>
		
			<polygon fill="#CCDEF0" stroke="#010101" stroke-width="0.75" stroke-linecap="round" stroke-linejoin="round" stroke-miterlimit="1" points="
			104.527,188.261 149.461,179.399 194.525,188.388 194.525,188.409 149.461,197.399 		"/>
		<g>
			<text transform="matrix(1 0 0 1 132.7646 190.8516)" font-size="9">contains</text>
		</g>
		
			<polygon fill="#CCDEF0" stroke="#010101" stroke-width="0.75" stroke-linecap="round" stroke-linejoin="round" stroke-miterlimit="1" points="
			206.455,188.257 251.389,179.396 296.453,188.384 296.453,188.405 251.389,197.396 		"/>
		<g>
			<text transform="matrix(1 0 0 1 228.6948 190.8516)" font-size="9">rerferences</text>
		</g>
		
			<rect x="209.566" y="221.646" fill="#86B2D8" stroke="#010101" stroke-width="0.75" stroke-linecap="round" stroke-linejoin="round" stroke-miterlimit="1" width="84" height="24"/>
		<g>
			<text transform="matrix(1 0 0 1 221.2656 231.7637)"><tspan x="0" y="0" font-size="10">Encapsulated</tspan><tspan x="7.512" y="9.333" font-size="10">Document</tspan></text>
		</g>
		
			<rect x="107.453" y="221.646" fill="#86B2D8" stroke="#010101" stroke-width="0.7206" stroke-linecap="round" stroke-linejoin="round" stroke-miterlimit="1" width="84" height="24"/>
		<g>
			<text transform="matrix(1 0 0 1 132.2188 236.4297)" font-size="10">Surface</text>
		</g>
		<g>
			<text transform="matrix(1 0 0 1 179.2212 179.9277)" font-size="9">1</text>
		</g>
		<g>
			<text transform="matrix(1 0 0 1 171.2188 201.9336)" font-size="9">0-n</text>
		</g>
		<g>
			<text transform="matrix(1 0 0 1 280.5518 179.9277)" font-size="9">1</text>
		</g>
		<g>
			<text transform="matrix(1 0 0 1 272.5498 201.9336)" font-size="9">0-n</text>
		</g>
		<g>
			<text transform="matrix(1 0 0 1 386.8789 63.3735)" font-size="9">0-n</text>
		</g>
		<g>
			<text transform="matrix(1 0 0 1 386.8789 86.8179)" font-size="9">1-n</text>
		</g>
		
			<rect x="150.933" y="120.61" fill="#86B2D8" stroke="#010101" stroke-width="0.75" stroke-linecap="round" stroke-linejoin="round" stroke-miterlimit="1" width="100" height="17.988"/>
		<g>
			<text transform="matrix(1 0 0 1 154.5781 132.9082)" font-size="12">Implant Template</text>
		</g>
	</g>
</g>
</svg>
