<?xml version="1.0" encoding="utf-8"?>

<!DOCTYPE svg PUBLIC "-//W3C//DTD SVG 1.1//EN" "http://www.w3.org/Graphics/SVG/1.1/DTD/svg11.dtd">
<svg version="1.1" id="Layer_1" xmlns="http://www.w3.org/2000/svg" xmlns:xlink="http://www.w3.org/1999/xlink" x="0px" y="0px"
	 width="702px" height="322px" viewBox="0 0 702 322" enable-background="new 0 0 702 322" xml:space="preserve">
        
<defs>
	<style type="text/css">
	text {
	  font-family: Helvetica, Verdana, ArialUnicodeMS, san-serif
	}
	</style>
</defs>

<g>
   <desc>
	PS 3.3 Information Object Definitions
   </desc>
</g>

<g>
	<rect x="1" y="1" fill="#F5EED6" width="700" height="320"/>
	<g>
		<g>
			
				<line fill="none" stroke="#000000" stroke-width="0.75" stroke-miterlimit="1" x1="116.734" y1="121.515" x2="656.811" y2="121.515"/>
			
				<line fill="none" stroke="#000000" stroke-width="0.75" stroke-miterlimit="1" x1="116.734" y1="147.182" x2="656.811" y2="147.182"/>
			
				<line fill="none" stroke="#000000" stroke-width="0.75" stroke-miterlimit="1" x1="116.734" y1="187.632" x2="656.811" y2="187.632"/>
			
				<line fill="none" stroke="#000000" stroke-width="0.75" stroke-miterlimit="1" x1="116.734" y1="213.276" x2="656.811" y2="213.276"/>
			
				<line fill="none" stroke="#000000" stroke-width="0.75" stroke-miterlimit="1" x1="116.734" y1="250.868" x2="656.811" y2="250.868"/>
			
				<line fill="none" stroke="#000000" stroke-width="0.75" stroke-miterlimit="1" x1="116.734" y1="278.095" x2="656.811" y2="278.095"/>
			<g>
				<g>
					
						<line fill="none" stroke="#000000" stroke-width="3" stroke-linecap="round" stroke-miterlimit="1" x1="116.318" y1="61.6" x2="645.514" y2="61.6"/>
					<g>
						<polygon points="643.136,65.086 656.145,61.6 643.136,58.113 						"/>
					</g>
				</g>
			</g>
		</g>
		<g>
			
				<rect x="126.471" y="291.394" fill="#FFFFFF" stroke="#010101" stroke-width="0.75" stroke-linecap="round" stroke-linejoin="round" stroke-miterlimit="1" width="80" height="14"/>
			<g>
				<rect x="129.722" y="295.439" fill="none" width="73.499" height="8.93"/>
				<text transform="matrix(0.9288 0 0 1 129.7222 300.4473)" font-size="7">RSet = RT Radiation Set</text>
			</g>
		</g>
		<g>
			<rect x="128.358" y="16.606" fill="#CCDEF0" stroke="#B2CEE7" stroke-miterlimit="1" width="500" height="90"/>
			
				<polyline fill="#FFFFFF" stroke="#010101" stroke-width="0.75" stroke-linecap="round" stroke-linejoin="round" stroke-miterlimit="1" points="
				618.594,21.6 500.086,21.6 500.086,101.6 618.594,101.6 			"/>
			
				<rect x="133.482" y="21.6" fill="#FFFFFF" stroke="#010101" stroke-width="0.75" stroke-linecap="round" stroke-linejoin="round" stroke-miterlimit="1" width="350" height="80"/>
			<g>
				<g>
					<rect x="505.975" y="31.6" fill="#B2CEE7" width="60" height="60"/>
					<g>
						<polyline fill="none" stroke="#010101" stroke-width="0.5" stroke-miterlimit="1" points="565.975,90.6 565.975,91.6 
							564.975,91.6 						"/>
						
							<line fill="none" stroke="#010101" stroke-width="0.5" stroke-miterlimit="1" stroke-dasharray="2,2" x1="562.975" y1="91.6" x2="507.975" y2="91.6"/>
						<polyline fill="none" stroke="#010101" stroke-width="0.5" stroke-miterlimit="1" points="506.975,91.6 505.975,91.6 
							505.975,90.6 						"/>
						
							<line fill="none" stroke="#010101" stroke-width="0.5" stroke-miterlimit="1" stroke-dasharray="2,2" x1="505.975" y1="88.6" x2="505.975" y2="33.6"/>
						<polyline fill="none" stroke="#010101" stroke-width="0.5" stroke-miterlimit="1" points="505.975,32.6 505.975,31.6 
							506.975,31.6 						"/>
						
							<line fill="none" stroke="#010101" stroke-width="0.5" stroke-miterlimit="1" stroke-dasharray="2,2" x1="508.975" y1="31.6" x2="563.975" y2="31.6"/>
						<polyline fill="none" stroke="#010101" stroke-width="0.5" stroke-miterlimit="1" points="564.975,31.6 565.975,31.6 
							565.975,32.6 						"/>
						
							<line fill="none" stroke="#010101" stroke-width="0.5" stroke-miterlimit="1" stroke-dasharray="2,2" x1="565.975" y1="34.6" x2="565.975" y2="89.6"/>
					</g>
				</g>
				<g>
					<rect x="509.971" y="38.023" fill="#86B2D8" width="52" height="18"/>
					<g>
						<polyline fill="none" stroke="#010101" stroke-width="0.5" stroke-miterlimit="1" points="509.971,39.023 509.971,38.023 
							510.971,38.023 						"/>
						
							<line fill="none" stroke="#010101" stroke-width="0.5" stroke-miterlimit="1" stroke-dasharray="2,2" x1="512.971" y1="38.023" x2="559.971" y2="38.023"/>
						<polyline fill="none" stroke="#010101" stroke-width="0.5" stroke-miterlimit="1" points="560.971,38.023 561.971,38.023 
							561.971,39.023 						"/>
						
							<line fill="none" stroke="#010101" stroke-width="0.5" stroke-miterlimit="1" stroke-dasharray="1.7778,1.7778" x1="561.971" y1="40.801" x2="561.971" y2="54.135"/>
						<polyline fill="none" stroke="#010101" stroke-width="0.5" stroke-miterlimit="1" points="561.971,55.023 561.971,56.023 
							560.971,56.023 						"/>
						
							<line fill="none" stroke="#010101" stroke-width="0.5" stroke-miterlimit="1" stroke-dasharray="2,2" x1="558.971" y1="56.023" x2="511.971" y2="56.023"/>
						<polyline fill="none" stroke="#010101" stroke-width="0.5" stroke-miterlimit="1" points="510.971,56.023 509.971,56.023 
							509.971,55.023 						"/>
						
							<line fill="none" stroke="#010101" stroke-width="0.5" stroke-miterlimit="1" stroke-dasharray="1.7778,1.7778" x1="509.971" y1="53.246" x2="509.971" y2="39.912"/>
					</g>
				</g>
			</g>
			
				<rect x="208.781" y="31.885" fill="#B2CEE7" stroke="#010101" stroke-width="0.75" stroke-linecap="round" stroke-linejoin="round" stroke-miterlimit="1" width="60" height="60"/>
			
				<rect x="212.779" y="38.309" fill="#86B2D8" stroke="#010101" stroke-width="0.75" stroke-linecap="round" stroke-linejoin="round" stroke-miterlimit="1" width="52" height="18"/>
			
				<rect x="141.543" y="31.885" fill="#B2CEE7" stroke="#010101" stroke-width="0.75" stroke-linecap="round" stroke-linejoin="round" stroke-miterlimit="1" width="60" height="60"/>
			
				<rect x="145.542" y="38.309" fill="#86B2D8" stroke="#010101" stroke-width="0.75" stroke-linecap="round" stroke-linejoin="round" stroke-miterlimit="1" width="52" height="18"/>
			
				<rect x="276.018" y="31.885" fill="#B2CEE7" stroke="#010101" stroke-width="0.75" stroke-linecap="round" stroke-linejoin="round" stroke-miterlimit="1" width="60" height="60"/>
			
				<rect x="279.871" y="38.309" fill="#86B2D8" stroke="#010101" stroke-width="0.75" stroke-linecap="round" stroke-linejoin="round" stroke-miterlimit="1" width="52" height="18"/>
			
				<rect x="279.637" y="67.465" fill="#8DC63F" stroke="#010101" stroke-width="0.75" stroke-linecap="round" stroke-linejoin="round" stroke-miterlimit="1" width="52" height="18"/>
			
				<rect x="145.542" y="67.465" fill="#8DC63F" stroke="#010101" stroke-width="0.75" stroke-linecap="round" stroke-linejoin="round" stroke-miterlimit="1" width="52" height="18"/>
			
				<rect x="343.254" y="31.885" fill="#B2CEE7" stroke="#010101" stroke-width="0.75" stroke-linecap="round" stroke-linejoin="round" stroke-miterlimit="1" width="60" height="60"/>
			
				<rect x="346.961" y="38.309" fill="#86B2D8" stroke="#010101" stroke-width="0.75" stroke-linecap="round" stroke-linejoin="round" stroke-miterlimit="1" width="52" height="18"/>
			<g>
				<rect x="410.494" y="31.885" fill="#B2CEE7" width="60" height="60"/>
				<g>
					<polyline fill="none" stroke="#010101" stroke-width="0.5" stroke-miterlimit="1" points="470.494,90.885 470.494,91.885 
						469.494,91.885 					"/>
					
						<line fill="none" stroke="#010101" stroke-width="0.5" stroke-miterlimit="1" stroke-dasharray="2,2" x1="467.494" y1="91.885" x2="412.494" y2="91.885"/>
					<polyline fill="none" stroke="#010101" stroke-width="0.5" stroke-miterlimit="1" points="411.494,91.885 410.494,91.885 
						410.494,90.885 					"/>
					
						<line fill="none" stroke="#010101" stroke-width="0.5" stroke-miterlimit="1" stroke-dasharray="2,2" x1="410.494" y1="88.885" x2="410.494" y2="33.885"/>
					<polyline fill="none" stroke="#010101" stroke-width="0.5" stroke-miterlimit="1" points="410.494,32.885 410.494,31.885 
						411.494,31.885 					"/>
					
						<line fill="none" stroke="#010101" stroke-width="0.5" stroke-miterlimit="1" stroke-dasharray="2,2" x1="413.494" y1="31.885" x2="468.494" y2="31.885"/>
					<polyline fill="none" stroke="#010101" stroke-width="0.5" stroke-miterlimit="1" points="469.494,31.885 470.494,31.885 
						470.494,32.885 					"/>
					
						<line fill="none" stroke="#010101" stroke-width="0.5" stroke-miterlimit="1" stroke-dasharray="2,2" x1="470.494" y1="34.885" x2="470.494" y2="89.885"/>
				</g>
			</g>
			<g>
				<rect x="414.49" y="38.309" fill="#86B2D8" width="52" height="18"/>
				<g>
					<polyline fill="none" stroke="#010101" stroke-width="0.5" stroke-miterlimit="1" points="414.49,39.309 414.49,38.309 
						415.49,38.309 					"/>
					
						<line fill="none" stroke="#010101" stroke-width="0.5" stroke-miterlimit="1" stroke-dasharray="2,2" x1="417.49" y1="38.309" x2="464.49" y2="38.309"/>
					<polyline fill="none" stroke="#010101" stroke-width="0.5" stroke-miterlimit="1" points="465.49,38.309 466.49,38.309 
						466.49,39.309 					"/>
					
						<line fill="none" stroke="#010101" stroke-width="0.5" stroke-miterlimit="1" stroke-dasharray="1.7778,1.7778" x1="466.49" y1="41.086" x2="466.49" y2="54.42"/>
					<polyline fill="none" stroke="#010101" stroke-width="0.5" stroke-miterlimit="1" points="466.49,55.309 466.49,56.309 
						465.49,56.309 					"/>
					
						<line fill="none" stroke="#010101" stroke-width="0.5" stroke-miterlimit="1" stroke-dasharray="2,2" x1="463.49" y1="56.309" x2="416.49" y2="56.309"/>
					<polyline fill="none" stroke="#010101" stroke-width="0.5" stroke-miterlimit="1" points="415.49,56.309 414.49,56.309 
						414.49,55.309 					"/>
					
						<line fill="none" stroke="#010101" stroke-width="0.5" stroke-miterlimit="1" stroke-dasharray="1.7778,1.7778" x1="414.49" y1="53.531" x2="414.49" y2="40.197"/>
				</g>
			</g>
		</g>
		<g>
			<rect x="152.543" y="43.805" fill="none" width="40" height="7"/>
			<text transform="matrix(1 0 0 1 153.0933 48.8125)" font-size="7">RSet_A_Fx1</text>
			<rect x="152.545" y="72.961" fill="none" width="40" height="7"/>
			<text transform="matrix(1 0 0 1 153.0938 77.9688)" font-size="7">RSet_B_Fx1</text>
			<rect x="219.779" y="43.805" fill="none" width="40" height="7"/>
			<text transform="matrix(1 0 0 1 220.3301 48.8125)" font-size="7">RSet_A_Fx2</text>
			<rect x="287.016" y="43.805" fill="none" width="40" height="7"/>
			<text transform="matrix(1 0 0 1 287.5645 48.8125)" font-size="7">RSet_A_Fx3</text>
			<rect x="287.016" y="72.961" fill="none" width="40" height="7"/>
			<text transform="matrix(1 0 0 1 287.5645 77.9688)" font-size="7">RSet_B_Fx2</text>
			<rect x="354.252" y="43.805" fill="none" width="40" height="7"/>
			<text transform="matrix(1 0 0 1 354.8008 48.8125)" font-size="7">RSet_A_Fx4</text>
			<rect x="421.488" y="43.805" fill="none" width="38" height="7"/>
			<text transform="matrix(1 0 0 1 436.7363 50.2441)" font-size="9">...</text>
			<rect x="516.973" y="43.805" fill="none" width="38" height="7"/>
			<text transform="matrix(1 0 0 1 532.2207 50.2441)" font-size="9">...</text>
			<rect x="661.965" y="57.607" fill="none" width="24.712" height="8.51"/>
			<text transform="matrix(0.9288 0 0 1 661.9658 64.7656)" font-size="10">time</text>
			<text transform="matrix(0.9288 0 0 1 68.7642 124.7266)"><tspan x="0" y="0" font-size="9">RT Course</tspan><tspan x="-25.523" y="26.799" font-size="9">Treatment Phase</tspan><tspan x="-23.519" y="37.6" font-size="9">Phase 1: Normal</tspan><tspan x="-57.537" y="64.399" font-size="9">Treatment Phase Interval</tspan><tspan x="-25.523" y="91.199" font-size="9">Treatment Phase</tspan><tspan x="-17.53" y="102" font-size="9">Phase 2: Boost</tspan><tspan x="-32.023" y="128.799" font-size="9">Treatment Session</tspan><tspan x="-32.515" y="155.6" font-size="9">Treatment Fraction</tspan></text>
		</g>
		<g>
			<g>
				<g>
					
						<line fill="none" stroke="#000000" stroke-width="0.5" stroke-linecap="round" stroke-miterlimit="1" x1="128.358" y1="121.515" x2="128.358" y2="119.515"/>
					
						<line fill="none" stroke="#000000" stroke-width="0.5" stroke-linecap="round" stroke-miterlimit="1" stroke-dasharray="0.7941,1.5882" x1="128.358" y1="117.927" x2="128.358" y2="116.338"/>
					
						<line fill="none" stroke="#000000" stroke-width="0.5" stroke-linecap="round" stroke-miterlimit="1" stroke-dasharray="3.1763,1.5882,0.7941,1.5882" x1="128.358" y1="115.544" x2="128.358" y2="109.191"/>
					
						<line fill="none" stroke="#000000" stroke-width="0.5" stroke-linecap="round" stroke-miterlimit="1" x1="128.358" y1="108.397" x2="128.358" y2="106.397"/>
				</g>
			</g>
			<g>
				<g>
					
						<line fill="none" stroke="#000000" stroke-width="0.5" stroke-linecap="round" stroke-miterlimit="1" x1="628.357" y1="121.515" x2="628.357" y2="119.515"/>
					
						<line fill="none" stroke="#000000" stroke-width="0.5" stroke-linecap="round" stroke-miterlimit="1" stroke-dasharray="0.7941,1.5882" x1="628.357" y1="117.927" x2="628.357" y2="116.338"/>
					
						<line fill="none" stroke="#000000" stroke-width="0.5" stroke-linecap="round" stroke-miterlimit="1" stroke-dasharray="3.1763,1.5882,0.7941,1.5882" x1="628.357" y1="115.544" x2="628.357" y2="109.191"/>
					
						<line fill="none" stroke="#000000" stroke-width="0.5" stroke-linecap="round" stroke-miterlimit="1" x1="628.357" y1="108.397" x2="628.357" y2="106.397"/>
				</g>
			</g>
			<g>
				<g>
					
						<line fill="none" stroke="#000000" stroke-width="0.5" stroke-linecap="round" stroke-miterlimit="1" x1="133.482" y1="101.599" x2="133.482" y2="103.599"/>
					
						<line fill="none" stroke="#000000" stroke-width="0.5" stroke-linecap="round" stroke-miterlimit="1" stroke-dasharray="1.0142,2.0284" x1="133.482" y1="105.627" x2="133.482" y2="107.655"/>
					
						<line fill="none" stroke="#000000" stroke-width="0.5" stroke-linecap="round" stroke-miterlimit="1" stroke-dasharray="4.0569,2.0284,1.0142,2.0284" x1="133.482" y1="108.67" x2="133.482" y2="144.167"/>
					
						<line fill="none" stroke="#000000" stroke-width="0.5" stroke-linecap="round" stroke-miterlimit="1" x1="133.482" y1="145.182" x2="133.482" y2="147.182"/>
				</g>
			</g>
			<g>
				<g>
					
						<line fill="none" stroke="#000000" stroke-width="0.5" stroke-linecap="round" stroke-miterlimit="1" x1="141.543" y1="91.881" x2="141.543" y2="93.881"/>
					
						<line fill="none" stroke="#000000" stroke-width="0.5" stroke-linecap="round" stroke-miterlimit="1" stroke-dasharray="0.9809,1.9619" x1="141.543" y1="95.843" x2="141.543" y2="97.805"/>
					
						<line fill="none" stroke="#000000" stroke-width="0.5" stroke-linecap="round" stroke-miterlimit="1" stroke-dasharray="3.9237,1.9619,0.9809,1.9619" x1="141.543" y1="98.785" x2="141.543" y2="247.888"/>
					
						<line fill="none" stroke="#000000" stroke-width="0.5" stroke-linecap="round" stroke-miterlimit="1" x1="141.543" y1="248.868" x2="141.543" y2="250.868"/>
				</g>
			</g>
			<g>
				<g>
					
						<line fill="none" stroke="#000000" stroke-width="0.5" stroke-linecap="round" stroke-miterlimit="1" x1="201.543" y1="91.881" x2="201.543" y2="93.881"/>
					
						<line fill="none" stroke="#000000" stroke-width="0.5" stroke-linecap="round" stroke-miterlimit="1" stroke-dasharray="0.9809,1.9619" x1="201.543" y1="95.843" x2="201.543" y2="97.805"/>
					
						<line fill="none" stroke="#000000" stroke-width="0.5" stroke-linecap="round" stroke-miterlimit="1" stroke-dasharray="3.9237,1.9619,0.9809,1.9619" x1="201.543" y1="98.785" x2="201.543" y2="247.888"/>
					
						<line fill="none" stroke="#000000" stroke-width="0.5" stroke-linecap="round" stroke-miterlimit="1" x1="201.543" y1="248.868" x2="201.543" y2="250.868"/>
				</g>
			</g>
			<g>
				<g>
					
						<line fill="none" stroke="#000000" stroke-width="0.5" stroke-linecap="round" stroke-miterlimit="1" x1="212.779" y1="56.309" x2="212.779" y2="58.309"/>
					
						<line fill="none" stroke="#000000" stroke-width="0.5" stroke-linecap="round" stroke-miterlimit="1" stroke-dasharray="0.9855,1.9709" x1="212.779" y1="60.279" x2="212.779" y2="62.25"/>
					
						<line fill="none" stroke="#000000" stroke-width="0.5" stroke-linecap="round" stroke-miterlimit="1" stroke-dasharray="3.9418,1.9709,0.9855,1.9709" x1="212.779" y1="63.236" x2="212.779" y2="275.109"/>
					
						<line fill="none" stroke="#000000" stroke-width="0.5" stroke-linecap="round" stroke-miterlimit="1" x1="212.779" y1="276.095" x2="212.779" y2="278.095"/>
				</g>
			</g>
			<g>
				<g>
					
						<line fill="none" stroke="#000000" stroke-width="0.5" stroke-linecap="round" stroke-miterlimit="1" x1="264.779" y1="56.309" x2="264.779" y2="58.309"/>
					
						<line fill="none" stroke="#000000" stroke-width="0.5" stroke-linecap="round" stroke-miterlimit="1" stroke-dasharray="0.9855,1.9709" x1="264.779" y1="60.279" x2="264.779" y2="62.25"/>
					
						<line fill="none" stroke="#000000" stroke-width="0.5" stroke-linecap="round" stroke-miterlimit="1" stroke-dasharray="3.9418,1.9709,0.9855,1.9709" x1="264.779" y1="63.236" x2="264.779" y2="275.109"/>
					
						<line fill="none" stroke="#000000" stroke-width="0.5" stroke-linecap="round" stroke-miterlimit="1" x1="264.779" y1="276.095" x2="264.779" y2="278.095"/>
				</g>
			</g>
			<g>
				<g>
					
						<line fill="none" stroke="#000000" stroke-width="0.5" stroke-linecap="round" stroke-miterlimit="1" x1="483.482" y1="100.422" x2="483.482" y2="102.422"/>
					
						<line fill="none" stroke="#000000" stroke-width="0.5" stroke-linecap="round" stroke-miterlimit="1" stroke-dasharray="0.9676,1.9351" x1="483.482" y1="104.357" x2="483.482" y2="106.292"/>
					
						<line fill="none" stroke="#000000" stroke-width="0.5" stroke-linecap="round" stroke-miterlimit="1" stroke-dasharray="3.8702,1.9351,0.9676,1.9351" x1="483.482" y1="107.26" x2="483.482" y2="184.664"/>
					
						<line fill="none" stroke="#000000" stroke-width="0.5" stroke-linecap="round" stroke-miterlimit="1" x1="483.482" y1="185.632" x2="483.482" y2="187.632"/>
				</g>
			</g>
			<g>
				<g>
					
						<line fill="none" stroke="#000000" stroke-width="0.5" stroke-linecap="round" stroke-miterlimit="1" x1="500.086" y1="100.422" x2="500.086" y2="102.422"/>
					
						<line fill="none" stroke="#000000" stroke-width="0.5" stroke-linecap="round" stroke-miterlimit="1" stroke-dasharray="0.9633,1.9266" x1="500.086" y1="104.349" x2="500.086" y2="106.275"/>
					
						<line fill="none" stroke="#000000" stroke-width="0.5" stroke-linecap="round" stroke-miterlimit="1" stroke-dasharray="3.8533,1.9266,0.9633,1.9266" x1="500.086" y1="107.238" x2="500.086" y2="210.313"/>
					
						<line fill="none" stroke="#000000" stroke-width="0.5" stroke-linecap="round" stroke-miterlimit="1" x1="500.086" y1="211.276" x2="500.086" y2="213.276"/>
				</g>
			</g>
			<g>
				<g>
					
						<line fill="none" stroke="#000000" stroke-width="0.5" stroke-linecap="round" stroke-miterlimit="1" x1="618.596" y1="101.6" x2="618.596" y2="103.6"/>
					
						<line fill="none" stroke="#000000" stroke-width="0.5" stroke-linecap="round" stroke-miterlimit="1" stroke-dasharray="0.963,1.926" x1="618.596" y1="105.525" x2="618.596" y2="107.452"/>
					
						<line fill="none" stroke="#000000" stroke-width="0.5" stroke-linecap="round" stroke-miterlimit="1" stroke-dasharray="3.8521,1.926,0.963,1.926" x1="618.596" y1="108.415" x2="618.596" y2="211.458"/>
					
						<line fill="none" stroke="#000000" stroke-width="0.5" stroke-linecap="round" stroke-miterlimit="1" x1="618.596" y1="212.421" x2="618.596" y2="214.421"/>
				</g>
			</g>
		</g>
		<g>
			
				<line fill="none" stroke="#005695" stroke-width="6" stroke-linecap="round" stroke-miterlimit="1" x1="128.939" y1="121.754" x2="628.357" y2="121.754"/>
			
				<line fill="none" stroke="#005695" stroke-width="6" stroke-linecap="round" stroke-miterlimit="1" x1="133.482" y1="147.182" x2="483.482" y2="147.182"/>
			
				<line fill="none" stroke="#005695" stroke-width="6" stroke-linecap="round" stroke-miterlimit="1" x1="483.482" y1="187.632" x2="500.086" y2="187.632"/>
			
				<line fill="none" stroke="#005695" stroke-width="6" stroke-linecap="round" stroke-miterlimit="1" x1="500.086" y1="213.264" x2="618.596" y2="213.264"/>
			
				<line fill="none" stroke="#005695" stroke-width="6" stroke-linecap="round" stroke-miterlimit="1" x1="141.543" y1="250.868" x2="201.543" y2="250.868"/>
			
				<line fill="none" stroke="#005695" stroke-width="6" stroke-linecap="round" stroke-miterlimit="1" x1="264.779" y1="278.106" x2="212.779" y2="278.106"/>
		</g>
	</g>
</g>
</svg>
