<?xml version="1.0" encoding="utf-8"?>

<!DOCTYPE svg PUBLIC "-//W3C//DTD SVG 1.1//EN" "http://www.w3.org/Graphics/SVG/1.1/DTD/svg11.dtd">
<svg version="1.1" id="Layer_1" xmlns="http://www.w3.org/2000/svg" xmlns:xlink="http://www.w3.org/1999/xlink" x="0px" y="0px"
	 width="362px" height="197px" viewBox="0 0 362 197" enable-background="new 0 0 362 197" xml:space="preserve">
        
<defs>
	<style type="text/css">
	text {
	  font-family: Helvetica, Verdana, ArialUnicodeMS, san-serif
	}
	</style>
</defs>

<g>
   <desc>
	PS 3.3 Information Object Definitions
   </desc>
</g>

<g>
	<rect x="1" y="1" fill="#F5EED6" width="360" height="195"/>
	<g>
		<g>
			<text transform="matrix(1 0 0 1 80.3252 23.8359)" font-size="9">Input</text>
		</g>
		<g>
			<text transform="matrix(1 0 0 1 258.9121 23.8359)" font-size="9">Result</text>
		</g>
		<g>
			
				<rect x="196.666" y="31.139" fill="#FFFFFF" stroke="#000000" stroke-width="0.5" stroke-miterlimit="10" width="150" height="150.002"/>
			<path fill="#005695" d="M296.155,53.64c-12.322,0-23.149,9.105-29.386,22.854c-5.544-3.687-12.195-5.839-19.353-5.839
				c-19.329,0-35,15.673-35,35c0,9.061,3.442,17.316,9.091,23.531c1.643-1.184,3.653-1.889,5.833-1.889c5.522,0,10,4.478,10,10
				c0,0.625-0.064,1.235-0.175,1.828c3.242,0.992,6.684,1.529,10.251,1.529c7.8,0,15.001-2.553,20.82-6.866
				c6.39,12.058,16.516,19.851,27.918,19.851c19.33,0,35-22.385,35-50C331.155,76.026,315.485,53.64,296.155,53.64z"/>
			<ellipse fill="#FFFFFF" stroke="#000000" stroke-width="0.5" stroke-miterlimit="10" cx="301.194" cy="82.323" rx="13" ry="14"/>
			<circle fill="#FFFFFF" stroke="#000000" stroke-width="0.5" stroke-miterlimit="10" cx="266.858" cy="98.331" r="10"/>
		</g>
		<g>
			
				<rect x="15.334" y="28.639" fill="#FFFFFF" stroke="#000000" stroke-width="0.5" stroke-miterlimit="10" width="150" height="150.002"/>
			<path fill="none" stroke="#000000" stroke-width="0.5" stroke-miterlimit="10" d="M102.736,105.655c0,19.332-15.668,35-35,35
				c-19.329,0-35-15.668-35-35c0-19.327,15.671-35,35-35C87.068,70.655,102.736,86.328,102.736,105.655z"/>
			<ellipse fill="none" stroke="#000000" stroke-width="0.5" stroke-miterlimit="10" cx="116.475" cy="103.64" rx="35" ry="50"/>
			<g>
				<text transform="matrix(1 0 0 1 47.1562 91.1719)"><tspan x="0" y="0" font-size="9">Right</tspan><tspan x="0.494" y="11.799" font-size="9">Lung</tspan><tspan x="5.004" y="23.6" font-size="9">(1)</tspan></text>
			</g>
			<g>
				<text transform="matrix(1 0 0 1 43.1504 159.1719)"><tspan x="0" y="0" font-size="9">Node 1</tspan><tspan x="9.01" y="11.799" font-size="9">(3)</tspan></text>
			</g>
			<g>
				<text transform="matrix(1 0 0 1 43.1504 53.6367)"><tspan x="0" y="0" font-size="9">Node 2</tspan><tspan x="9.01" y="11.801" font-size="9">(4)</tspan></text>
			</g>
			<g>
				<text transform="matrix(1 0 0 1 98.7158 130.3047)"><tspan x="0" y="0" font-size="9">Left Lung</tspan><tspan x="13.267" y="11.801" font-size="9">(2)</tspan></text>
			</g>
			<g>
				<text transform="matrix(1 0 0 1 112.5146 80.3047)"><tspan x="0" y="0" font-size="9">CTV</tspan><tspan x="3.5" y="10.801" font-size="9">(5)</tspan></text>
			</g>
			<ellipse fill="none" stroke="#000000" stroke-width="0.5" stroke-miterlimit="10" cx="121.514" cy="82.323" rx="13" ry="14"/>
			<circle fill="none" stroke="#000000" stroke-width="0.5" stroke-miterlimit="10" cx="87.178" cy="98.331" r="10"/>
			<circle fill="none" stroke="#000000" stroke-width="0.5" stroke-miterlimit="10" cx="47.66" cy="137.298" r="10"/>
			<g>
				<g>
					
						<line fill="none" stroke="#000000" stroke-width="0.75" stroke-miterlimit="10" x1="73.484" y1="50.965" x2="74.984" y2="50.965"/>
					
						<line fill="none" stroke="#000000" stroke-width="0.75" stroke-miterlimit="10" stroke-dasharray="1.8463,1.8463" x1="76.831" y1="50.965" x2="79.601" y2="50.965"/>
					<polyline fill="none" stroke="#000000" stroke-width="0.75" stroke-miterlimit="10" points="80.523,50.965 82.023,50.965 
						82.192,52.455 					"/>
					
						<line fill="none" stroke="#000000" stroke-width="0.75" stroke-miterlimit="10" stroke-dasharray="2.8433,2.8433" x1="82.514" y1="55.28" x2="86.848" y2="93.42"/>
					
						<line fill="none" stroke="#000000" stroke-width="0.75" stroke-miterlimit="10" x1="87.009" y1="94.833" x2="87.178" y2="96.323"/>
				</g>
			</g>
			<g>
				<g>
					
						<line fill="none" stroke="#000000" stroke-width="0.75" stroke-miterlimit="10" x1="43.484" y1="140.655" x2="42.527" y2="141.811"/>
					
						<line fill="none" stroke="#000000" stroke-width="0.75" stroke-miterlimit="10" stroke-dasharray="3.3418,3.3418" x1="40.396" y1="144.384" x2="32.934" y2="153.391"/>
					<polyline fill="none" stroke="#000000" stroke-width="0.75" stroke-miterlimit="10" points="31.867,154.677 30.91,155.832 
						32.41,155.832 					"/>
					
						<line fill="none" stroke="#000000" stroke-width="0.75" stroke-miterlimit="10" stroke-dasharray="2.0247,2.0247" x1="34.435" y1="155.832" x2="37.472" y2="155.832"/>
					
						<line fill="none" stroke="#000000" stroke-width="0.75" stroke-miterlimit="10" x1="38.484" y1="155.832" x2="39.984" y2="155.832"/>
				</g>
			</g>
		</g>
	</g>
</g>
</svg>
