<?xml version="1.0" encoding="utf-8"?>

<!DOCTYPE svg PUBLIC "-//W3C//DTD SVG 1.1//EN" "http://www.w3.org/Graphics/SVG/1.1/DTD/svg11.dtd">
<svg version="1.1" id="Layer_1" xmlns="http://www.w3.org/2000/svg" xmlns:xlink="http://www.w3.org/1999/xlink" x="0px" y="0px"
	 width="502px" height="242px" viewBox="0 0 502 242" enable-background="new 0 0 502 242" xml:space="preserve">

<defs>
	<style type="text/css">
	text {
	  font-family: Helvetica, Verdana, ArialUnicodeMS, san-serif
	}
	</style>
</defs>

<g>
   <desc>
	PS 3.3 Part 3: Information Object Definitions
   </desc>
</g>

<g>
	<rect x="1" y="1" fill="#F5EED6" width="500" height="240"/>
	<g>
		
			<rect x="150.447" y="111.807" fill="#86B2D8" stroke="#010101" stroke-width="0.7151" stroke-linecap="round" stroke-linejoin="round" stroke-miterlimit="1" width="90" height="18"/>
		
			<rect x="261.559" y="111.807" fill="#86B2D8" stroke="#010101" stroke-width="0.7151" stroke-linecap="round" stroke-linejoin="round" stroke-miterlimit="1" width="90" height="18"/>
		<g>
			<g>
				<polyline fill="none" stroke="#005695" stroke-width="2" stroke-miterlimit="1" points="306.184,173.159 306.184,190.033 
					269.895,190.033 269.895,201.221 				"/>
				<g>
					<polygon fill="#005695" points="267.57,199.636 269.895,208.309 272.219,199.636 					"/>
				</g>
			</g>
		</g>
		<g>
			<g>
				
					<line fill="none" stroke="#005695" stroke-width="2" stroke-miterlimit="1" x1="195.447" y1="86.617" x2="195.447" y2="105.325"/>
				<g>
					<polygon fill="#005695" points="193.123,103.739 195.447,112.412 197.771,103.739 					"/>
				</g>
			</g>
		</g>
		<g>
			<g>
				
					<line fill="none" stroke="#005695" stroke-width="2" stroke-miterlimit="1" x1="306.559" y1="86.617" x2="306.559" y2="105.323"/>
				<g>
					<polygon fill="#005695" points="304.234,103.737 306.559,112.41 308.883,103.737 					"/>
				</g>
			</g>
		</g>
		<g>
			<g>
				<polyline fill="none" stroke="#005695" stroke-width="2" stroke-miterlimit="1" points="253.364,33.383 253.364,43.785 
					195.509,43.785 195.509,61.33 				"/>
				<g>
					<polygon fill="#005695" points="193.185,59.745 195.509,68.417 197.833,59.745 					"/>
				</g>
			</g>
		</g>
		<g>
			<g>
				<polyline fill="none" stroke="#005695" stroke-width="2" stroke-miterlimit="1" points="253.743,33.383 253.743,43.785 
					306.559,43.785 306.559,61.023 				"/>
				<g>
					<polygon fill="#005695" points="304.234,59.438 306.559,68.11 308.883,59.438 					"/>
				</g>
			</g>
		</g>
		<g>
			<g>
				
					<line fill="none" stroke="#005695" stroke-width="2" stroke-miterlimit="1" x1="306.184" y1="129.868" x2="306.184" y2="148.634"/>
				<g>
					<polygon fill="#005695" points="303.859,147.049 306.184,155.722 308.508,147.049 					"/>
				</g>
			</g>
		</g>
		
			<polygon fill="#CCDEF0" stroke="#010101" stroke-width="0.75" stroke-linecap="round" stroke-linejoin="round" stroke-miterlimit="1" points="
			150.441,77.479 195.375,68.617 240.441,77.606 240.441,77.627 195.375,86.617 		"/>
		<g>
			<text transform="matrix(1 0 0 1 174.1792 80.0859)" font-size="9">references</text>
		</g>
		
			<rect x="189.875" y="208.609" fill="#86B2D8" stroke="#010101" stroke-width="0.75" stroke-linecap="round" stroke-linejoin="round" stroke-miterlimit="1" width="125.998" height="18.008"/>
		<g>
			<text transform="matrix(1 0 0 1 206.1797 220.8965)" font-size="12">Application Setup</text>
		</g>
		<g>
			<text transform="matrix(1 0 0 1 224.6885 68.6318)" font-size="9">1</text>
		</g>
		
			<polygon fill="#CCDEF0" stroke="#010101" stroke-width="0.75" stroke-linecap="round" stroke-linejoin="round" stroke-miterlimit="1" points="
			261.559,77.479 306.492,68.617 351.559,77.606 351.559,77.627 306.492,86.617 		"/>
		<g>
			<text transform="matrix(1 0 0 1 289.7969 80.0859)" font-size="9">contains</text>
		</g>
		<g>
			<text transform="matrix(1 0 0 1 334.8242 68.6318)" font-size="9">1</text>
		</g>
		<g>
			<text transform="matrix(1 0 0 1 326.8223 91.3574)" font-size="9">1-n</text>
		</g>
		<g>
			<text transform="matrix(1 0 0 1 224.6885 91.3574)" font-size="9">1</text>
		</g>
		<g>
			<text transform="matrix(1 0 0 1 183.438 124.1016)" font-size="12">Plan</text>
		</g>
		
			<polygon fill="#CCDEF0" stroke="#010101" stroke-width="0.75" stroke-linecap="round" stroke-linejoin="round" stroke-miterlimit="1" points="
			261.564,163.976 306.488,155.108 351.553,164.103 351.553,164.124 306.488,173.121 		"/>
		<g>
			<text transform="matrix(1 0 0 1 285.3066 166.5889)" font-size="9">references</text>
		</g>
		<g>
			<text transform="matrix(1 0 0 1 334.8242 155.1348)" font-size="9">1</text>
		</g>
		<g>
			<text transform="matrix(1 0 0 1 334.8242 177.8594)" font-size="9">1</text>
		</g>
		<g>
			<g>
				<polyline fill="none" stroke="#005695" stroke-width="2" stroke-miterlimit="1" points="195.065,173.159 195.065,190.033 
					231.354,190.033 231.354,201.221 				"/>
				<g>
					<polygon fill="#005695" points="229.03,199.636 231.354,208.309 233.679,199.636 					"/>
				</g>
			</g>
		</g>
		<g>
			<g>
				
					<line fill="none" stroke="#005695" stroke-width="2" stroke-miterlimit="1" x1="195.065" y1="129.868" x2="195.065" y2="148.634"/>
				<g>
					<polygon fill="#005695" points="192.741,147.049 195.065,155.722 197.39,147.049 					"/>
				</g>
			</g>
		</g>
		
			<polygon fill="#CCDEF0" stroke="#010101" stroke-width="0.75" stroke-linecap="round" stroke-linejoin="round" stroke-miterlimit="1" points="
			150.445,163.976 195.37,155.108 240.435,164.103 240.435,164.124 195.37,173.121 		"/>
		<g>
			<text transform="matrix(1 0 0 1 178.688 166.5889)" font-size="9">contains</text>
		</g>
		<g>
			<text transform="matrix(1 0 0 1 223.7056 155.1348)" font-size="9">1</text>
		</g>
		<g>
			<text transform="matrix(1 0 0 1 215.7031 177.8594)" font-size="9">1-n</text>
		</g>
		
			<rect x="189.874" y="15.383" fill="#86B2D8" stroke="#010101" stroke-width="0.8461" stroke-linecap="round" stroke-linejoin="round" stroke-miterlimit="1" width="125.999" height="18"/>
		<g>
			<text transform="matrix(1 0 0 1 201.856 27.6797)" font-size="12">Delivery Instruction</text>
		</g>
		<g>
			<text transform="matrix(1 0 0 1 293.5566 124.082)" font-size="12">Task</text>
		</g>
	</g>
</g>
</svg>
