<?xml version="1.0" encoding="utf-8"?>

<!DOCTYPE svg PUBLIC "-//W3C//DTD SVG 1.1//EN" "http://www.w3.org/Graphics/SVG/1.1/DTD/svg11.dtd">
<svg version="1.1" id="Layer_1" xmlns="http://www.w3.org/2000/svg" xmlns:xlink="http://www.w3.org/1999/xlink" x="0px" y="0px"
	 width="582px" height="347px" viewBox="0 0 582 347" enable-background="new 0 0 582 347" xml:space="preserve">

<defs>
	<style type="text/css">
	text {
	  font-family: Helvetica, Verdana, ArialUnicodeMS, san-serif
	}
	</style>
</defs>

<g>
   <desc>
	PS 3.3 Part 3: Information Object Definitions
   </desc>
</g>

<g>
	<rect x="1" y="1" fill="#F5EED6" width="580" height="345"/>
	<g>
		<polyline fill="#DEE9F5" points="39.68,324.398 428.464,324.398 428.464,35.984 39.68,35.984 		"/>
		
			<line fill="#F2F2F2" stroke="#000000" stroke-width="0.5" stroke-miterlimit="10" x1="39.68" y1="283.135" x2="428.464" y2="283.135"/>
		<line fill="none" stroke="#B3B3B3" stroke-width="0.5" stroke-miterlimit="10" x1="39.68" y1="77.247" x2="428.464" y2="77.247"/>
		
			<line fill="none" stroke="#B3B3B3" stroke-width="0.5" stroke-miterlimit="10" x1="39.68" y1="118.368" x2="428.464" y2="118.368"/>
		<line fill="none" stroke="#B3B3B3" stroke-width="0.5" stroke-miterlimit="10" x1="39.68" y1="159.63" x2="428.464" y2="159.63"/>
		
			<line fill="none" stroke="#B3B3B3" stroke-width="0.5" stroke-miterlimit="10" x1="39.68" y1="200.751" x2="428.464" y2="200.751"/>
		
			<line fill="none" stroke="#B3B3B3" stroke-width="0.5" stroke-miterlimit="10" x1="39.68" y1="242.015" x2="428.464" y2="242.015"/>
		
			<line fill="none" stroke="#B3B3B3" stroke-width="0.5" stroke-miterlimit="10" x1="372.937" y1="324.398" x2="372.937" y2="35.984"/>
		
			<line fill="none" stroke="#B3B3B3" stroke-width="0.5" stroke-miterlimit="10" x1="317.409" y1="324.398" x2="317.409" y2="35.984"/>
		
			<line fill="none" stroke="#B3B3B3" stroke-width="0.5" stroke-miterlimit="10" x1="261.882" y1="324.398" x2="261.882" y2="35.984"/>
		
			<line fill="none" stroke="#B3B3B3" stroke-width="0.5" stroke-miterlimit="10" x1="206.261" y1="324.398" x2="206.261" y2="35.984"/>
		
			<line fill="none" stroke="#B3B3B3" stroke-width="0.5" stroke-miterlimit="10" x1="150.734" y1="324.398" x2="150.734" y2="35.984"/>
		
			<line fill="none" stroke="#B3B3B3" stroke-width="0.5" stroke-miterlimit="10" x1="95.207" y1="324.398" x2="95.207" y2="35.984"/>
		
			<line fill="#F2F2F2" stroke="#000000" stroke-width="0.5" stroke-miterlimit="10" x1="39.68" y1="35.984" x2="39.68" y2="324.398"/>
		<g>
			<text transform="matrix(1 0 0 1 432.9082 285.0615)" font-size="8">range (mm)</text>
		</g>
		<g>
			<text transform="matrix(1 0 0 1 13.8413 28.021)" font-size="8">Dose Ratio (%)</text>
		</g>
		<g>
			<text transform="matrix(1 0 0 1 25.1167 38.063)" font-size="6">120</text>
		</g>
		<g>
			<text transform="matrix(1 0 0 1 25.1167 79.4307)" font-size="6">100</text>
		</g>
		<g>
			<text transform="matrix(1 0 0 1 28.4536 120.7983)" font-size="6">80</text>
		</g>
		<g>
			<text transform="matrix(1 0 0 1 28.4536 162.166)" font-size="6">60</text>
		</g>
		<g>
			<text transform="matrix(1 0 0 1 28.4536 203.5332)" font-size="6">40</text>
		</g>
		<g>
			<text transform="matrix(1 0 0 1 28.4536 244.9014)" font-size="6">20</text>
		</g>
		<g>
			<text transform="matrix(1 0 0 1 31.7905 286.2695)" font-size="6">0</text>
		</g>
		<g>
			<text transform="matrix(1 0 0 1 40.8774 292.5195)" font-size="6">0</text>
		</g>
		<g>
			<text transform="matrix(1 0 0 1 96.3774 292.5195)" font-size="6">50</text>
		</g>
		<g>
			<text transform="matrix(1 0 0 1 151.8774 292.5195)" font-size="6">100</text>
		</g>
		<g>
			<text transform="matrix(1 0 0 1 207.3774 292.5195)" font-size="6">150</text>
		</g>
		<g>
			<text transform="matrix(1 0 0 1 262.8774 292.5195)" font-size="6">200</text>
		</g>
		<g>
			<text transform="matrix(1 0 0 1 318.377 292.5195)" font-size="6">250</text>
		</g>
		<g>
			<text transform="matrix(1 0 0 1 373.877 292.5195)" font-size="6">300</text>
		</g>
		<g>
			<text transform="matrix(1 0 0 1 429.377 292.5195)" font-size="6">350</text>
		</g>
		<g>
			<text transform="matrix(1 0 0 1 26.4556 327.6367)" font-size="6">-20</text>
		</g>
		<g>
			<text transform="matrix(1 0 0 1 214.6445 28.021)" font-size="12">Depth Dose</text>
		</g>
		<path fill-rule="evenodd" clip-rule="evenodd" fill="none" stroke="#F7941E" stroke-width="2" stroke-miterlimit="10" d="
			M40.75,220.497l1.026-105.834c0,0,1.036-7.157,1.092-10.49c0.029-1.748,0.588-2.528,2.487-3.065
			c2.685-0.759,8.911-2.286,8.911-2.286c17.212-3.921,34.778-4.963,52.491-5.159c24.173-0.27,48.35-0.676,72.433-2.952
			c9.904-0.936,19.946-2.112,29.227-6.048c6.197-2.629,12.555-3.894,19.439-4.008c5.852-0.097,11.682-1.301,17.533-1.405
			c5.673-0.101,11.344-1.203,16.92-0.83c10.491,0.701,21.457-0.542,31.418,0.062c2.914,0.176,4.822,0.701,7.072,1.557
			c3.139,1.192,6.16,0.612,9.09-0.887c1.693-0.863,3.469-1.414,5.357-1.6c8.543-0.839,17.094-0.944,25.674-0.41
			c2.938,0.183,6.018,1.108,8.844-1.548c4.463-2.903,6.148-1.424,10.135,1.939c0.555,0.468,1.629,0.445,2.57-0.439
			c1.781-1.675,4.367-4.641,4.895-4.641c1.104,0,2.051,12.294,2.051,12.294c0.943,10.147,2.916,34.572,3.504,46.902
			c1.08,22.694,2.197,45.389,3.16,68.088c0.533,12.529,1.076,25.054,2.268,37.546c0.143,1.958,0.283,3.918,0.426,5.877
			c-0.092,1.345,0.264,5.781,0.484,8.797l0.158,1.561c0.551,6.805,1.797,14.921,2.777,20.387c0.314,1.757,1.617,5.395,2.545,6.979
			c1.912,3.267,7.414,3.054,7.414,3.054l12.561-0.058"/>
		<path fill-rule="evenodd" clip-rule="evenodd" fill="none" stroke="#0072BC" stroke-width="2" stroke-miterlimit="10" d="
			M40.289,220.497l1.776-100.646c0,0,0.122-6.7,0.178-10.032c0.029-1.748,1.213-3.653,3.112-4.191
			c2.685-0.758,8.911-2.285,8.911-2.285c17.212-3.922,34.778-4.963,52.491-5.159c24.173-0.27,48.35-0.379,72.433-2.655
			c9.904-0.937,19.946-1.742,29.227-5.678c6.197-2.629,12.555-3.894,19.439-4.008c5.852-0.098,11.682-1.301,17.533-1.405
			c5.673-0.102,11.344-1.203,16.92-0.829c10.491,0.7,21.457-0.543,31.418,0.06c2.914,0.177,4.822,0.702,7.072,1.558
			c3.139,1.192,6.16,0.612,9.09-0.886c1.693-0.864,3.469-1.415,5.357-1.601c8.543-0.839,17.094-0.944,25.674-0.411
			c2.938,0.184,6.018,1.109,8.844-1.547c4.463-2.903,6.148-1.424,10.135,1.939c0.555,0.468,1.453,0.241,2.57-0.44
			c1.922-1.171,3.998-4.64,4.895-4.64c1.104,0,2.051,12.294,2.051,12.294c0.943,10.147,2.916,29.384,3.504,41.714
			c1.08,22.694,2.197,45.389,3.16,68.088c0.533,12.529,1.076,25.054,2.268,37.546c0.143,1.958,0.283,3.918,0.426,5.877
			c-0.092,1.345,0.264,5.781,0.484,8.797l0.158,1.561c0.551,6.805,1.797,14.921,2.777,20.387c0.314,1.757,1.617,5.395,2.545,6.979
			c1.912,3.267,7.414,3.054,7.414,3.054l12.561-0.058"/>
		<path fill-rule="evenodd" clip-rule="evenodd" fill="none" stroke="#C1272D" stroke-width="2" stroke-miterlimit="10" d="
			M40.75,221.218l1.264-117.083c0,0,0.082-5.389,0.138-8.72c0.029-1.749,1.305-3.188,3.204-3.725
			c2.685-0.76,8.911-2.436,8.911-2.436c17.212-3.92,34.778-5.259,52.491-5.455c24.173-0.269,48.35-0.526,72.433-2.804
			c9.904-0.935,18.315-1.987,27.596-5.924c6.196-2.629,14.186-4.833,21.07-4.947c2.926-0.049,5.9-0.682,8.847-0.682
			c3.872,0,5.763-0.845,8.687-0.724c9.224,0.382,9.245-1.278,14.821-0.906c9.149,1.585,14.118-0.491,22.321-0.128
			c4.121,0.183,7.535,0.492,9.307,0.492c2.76,0,6.869,0.697,9.119,1.553c3.137,1.192,6.002,0.019,8.932-1.479
			c1.693-0.863,3.469-1.044,5.357-1.229c8.543-0.839,17.094-0.946,25.674-0.412c2.938,0.183,6.531,0.627,9.357-2.028
			c4.463-2.903,5.635-0.571,9.621,2.791c0.555,0.468,1.629,0.446,2.57-0.439c1.781-1.674,4.367-5.01,4.895-5.01
			c1.104,0,2.051,12.293,2.051,12.293c0.943,10.147,2.916,34.572,3.504,46.902c1.08,22.695,2.197,45.389,3.16,68.088
			c0.533,12.528,1.076,35.43,2.268,47.922c0.143,1.959,0.283,3.919,0.426,5.878c-0.092,1.346,0.264,5.782,0.484,8.797l0.158,1.56
			c0.551,6.806,1.797,14.923,2.777,20.388c0.314,1.757,1.617,5.395,2.545,6.979c1.912,3.269,7.414,3.055,7.414,3.055l12.561-0.058"
			/>
		<path fill-rule="evenodd" clip-rule="evenodd" fill="none" stroke="#0DB14B" stroke-width="2" stroke-miterlimit="10" d="
			M41.751,216.396c11.457-2.501,24.058-3.226,35.707-3.857c18.146-0.982,36.336-1.306,54.531-0.902
			c12.413,0.274,24.838,0.091,37.257,0.12c10.407,0.024,20.814,0.133,31.221,0.074c9.689-0.055,19.377-0.351,29.065-0.423
			c21.767-0.161,43.478-1.07,64.875-5.149c5.771-1.1,18.584-3.867,19.141-4.363c7.463-2.543,14.754-5.49,21.002-10.161
			c6.113-4.571,12.033-9.462,16.471-15.581c7.773-8.396,11.504-27.567,12.426-33.941c1.082-7.484,4.312-24.21,4.408-24.968
			c0.9-7.17,1.812-25.949,4.197-25.949c1.883,0,2.549,19.529,3.23,27.928c0.012,0.241,1.424,27.977,2.123,41.603
			c-0.02,0.229,1.1,27.434,1.68,40.806c0.012,0.253,1.217,27.95,2.342,41.517c0,0.425,1.311,20.971,3.055,30.719
			c0.314,1.757,0.752,3.467,1.676,5.053c0.918,1.575,2.139,2.357,3.324,3.169c2.703,1.847,5.281,0.26,6.596,0.26
			s1.994,0.736,3.684,0.741c0.895,0.002,1.793-0.537,2.688-0.592c1.207-0.073,2.41,0.354,3.607,0.605
			c0.568,0.118,2.766,0.345,2.766,0.345"/>
		<rect x="440.493" y="99.668" fill-rule="evenodd" clip-rule="evenodd" fill="none" width="127.666" height="36.908"/>
		<text transform="matrix(1 0 0 1 440.4922 105.3936)"><tspan x="0" y="0" font-size="8">HIGHEST: normalized to the </tspan><tspan x="0" y="9.6" font-size="8">maximum dose of the depth dose </tspan><tspan x="0" y="19.2" font-size="8">distribution of the highest energy </tspan><tspan x="0" y="28.8" font-size="8">Non-Range Modulated component</tspan></text>
		<rect x="440.493" y="146.576" fill-rule="evenodd" clip-rule="evenodd" fill="none" width="121.5" height="6.655"/>
		<text transform="matrix(1 0 0 1 440.4922 152.3013)" font-size="8">Non-Range Modulated</text>
		<rect x="440.493" y="61.12" fill-rule="evenodd" clip-rule="evenodd" fill="none" width="121.5" height="28.548"/>
		<text transform="matrix(1 0 0 1 440.4922 66.8457)"><tspan x="0" y="0" font-size="8">CENTER: normalized to the dose </tspan><tspan x="0" y="9.6" font-size="8">at the center of the range </tspan><tspan x="0" y="19.2" font-size="8">modulated region</tspan></text>
		<rect x="440.493" y="22.572" fill-rule="evenodd" clip-rule="evenodd" fill="none" width="121.5" height="28.548"/>
		<text transform="matrix(1 0 0 1 440.4922 28.2979)"><tspan x="0" y="0" font-size="8">MAXIMUM: normalized to the </tspan><tspan x="0" y="9.6" font-size="8">maximum dose of the range </tspan><tspan x="0" y="19.2" font-size="8">modulated depth dose distribution</tspan></text>
		<polyline fill="none" stroke="#000000" stroke-width="0.5" stroke-miterlimit="10" points="375.64,101.681 415.163,150.044 
			436.614,150.044 		"/>
		<polyline fill="none" stroke="#000000" stroke-width="0.5" stroke-miterlimit="10" points="356.808,75.093 415.157,63.773 
			436.614,63.773 		"/>
		<polyline fill="none" stroke="#000000" stroke-width="0.5" stroke-miterlimit="10" points="364.308,80.751 415.157,103.182 
			436.614,103.182 		"/>
		<polyline fill="none" stroke="#000000" stroke-width="0.5" stroke-miterlimit="10" points="367.364,60.576 415.159,25.081 
			436.614,25.081 		"/>
	</g>
</g>
</svg>
