<?xml version="1.0" encoding="utf-8"?>

<!DOCTYPE svg PUBLIC "-//W3C//DTD SVG 1.1//EN" "http://www.w3.org/Graphics/SVG/1.1/DTD/svg11.dtd">
<svg version="1.1" id="Layer_1" xmlns="http://www.w3.org/2000/svg" xmlns:xlink="http://www.w3.org/1999/xlink" x="0px" y="0px"
	 width="662px" height="372px" viewBox="0 0 662 372" enable-background="new 0 0 662 372" xml:space="preserve">

<defs>
	<style type="text/css">
	text {
	  font-family: Helvetica, Verdana, ArialUnicodeMS, san-serif
	}
	</style>
</defs>

<g>
   <desc>
	PS 3.4 Service Class Specifications
   </desc>
</g>

<g>
	<rect x="1" y="1" fill="#F5EED6" width="660" height="370"/>
	<g>
		<linearGradient id="SVGID_1_" gradientUnits="userSpaceOnUse" x1="16" y1="193.3848" x2="646" y2="193.3848">
			<stop  offset="0.7" style="stop-color:#8ACA8B"/>
			<stop  offset="0.719" style="stop-color:#8BCB8D"/>
			<stop  offset="0.7258" style="stop-color:#91CD91"/>
			<stop  offset="0.7307" style="stop-color:#9AD099"/>
			<stop  offset="0.7346" style="stop-color:#A6D5A4"/>
			<stop  offset="0.738" style="stop-color:#B6DCB4"/>
			<stop  offset="0.74" style="stop-color:#C3E2C1"/>
		</linearGradient>
		<rect x="16" y="30.885" fill="url(#SVGID_1_)" width="630" height="325"/>
		<g>
			<g>
				<g>
					<g>
						<g>
							<polyline fill="none" stroke="#000000" stroke-miterlimit="1" points="439.52,326.252 439.52,68.083 450.854,68.082 							
								"/>
							<g>
								<polygon points="449.269,70.406 457.941,68.081 449.269,65.758 								"/>
							</g>
						</g>
					</g>
				</g>
				<g>
					<text transform="matrix(1 0 0 1 36.5645 51.3628)"  font-size="6">Volume Graphic Annotation</text>
				</g>
				<g>
					<g>
						<g>
							<line fill="none" stroke="#000000" stroke-miterlimit="1" x1="30.885" y1="54.094" x2="450.57" y2="54.092"/>
							<g>
								<polygon points="448.985,56.416 457.658,54.092 448.985,51.768 								"/>
							</g>
						</g>
					</g>
				</g>
				<g>
					<g>
						<g>
							<polyline fill="none" stroke="#000000" stroke-miterlimit="1" points="253.913,200.289 288.141,200.287 288.141,191.377 
															"/>
							<g>
								<polygon points="290.465,192.962 288.141,184.289 285.817,192.962 								"/>
							</g>
						</g>
					</g>
				</g>
				<g>
					<g>
						<g>
							<polyline fill="none" stroke="#000000" stroke-miterlimit="1" points="253.913,309.494 288.141,309.492 288.141,300.582 
															"/>
							<g>
								<polygon points="290.465,302.167 288.141,293.494 285.817,302.167 								"/>
							</g>
						</g>
					</g>
				</g>
				<g>
					<g>
						<g>
							<polyline fill="none" stroke="#000000" stroke-miterlimit="1" points="188.547,134.872 222.775,134.87 222.775,125.959 
															"/>
							<g>
								<polygon points="225.1,127.545 222.775,118.872 220.451,127.545 								"/>
							</g>
						</g>
					</g>
				</g>
				<g>
					<g>
						<g>
							<polyline fill="none" stroke="#000000" stroke-miterlimit="1" points="188.547,200.289 222.775,200.287 222.775,191.377 
															"/>
							<g>
								<polygon points="225.1,192.962 222.775,184.289 220.451,192.962 								"/>
							</g>
						</g>
					</g>
				</g>
				<g>
					<g>
						<g>
							<polyline fill="none" stroke="#000000" stroke-miterlimit="1" points="188.547,309.494 222.775,309.492 222.775,300.582 
															"/>
							<g>
								<polygon points="225.1,302.167 222.775,293.494 220.451,302.167 								"/>
							</g>
						</g>
					</g>
				</g>
				<g>
					<g>
						<g>
							<polyline fill="none" stroke="#000000" stroke-miterlimit="1" points="188.927,326.34 188.927,61.095 450.762,61.092 							
								"/>
							<g>
								<polygon points="449.177,63.416 457.85,61.092 449.177,58.768 								"/>
							</g>
						</g>
					</g>
				</g>
				<g>
					<g>
						<g>
							<polyline fill="none" stroke="#000000" stroke-miterlimit="1" points="439.389,222.66 468.479,222.658 468.479,214.242 
															"/>
							<g>
								<polygon points="470.803,215.827 468.479,207.154 466.154,215.827 								"/>
							</g>
						</g>
					</g>
				</g>
				<g>
					<g>
						<g>
							<g>
								<line fill="none" stroke="#000000" stroke-miterlimit="1" x1="477.479" y1="325.281" x2="477.479" y2="214.242"/>
								<g>
									<polygon points="479.803,215.827 477.479,207.154 475.154,215.827 									"/>
								</g>
							</g>
						</g>
					</g>
				</g>
				<g>
					<g>
						<polyline fill="none" stroke="#000000" stroke-miterlimit="1" points="540.266,159.789 557.102,159.789 557.102,177.702 
													"/>
						<g>
							<polygon points="554.777,176.116 557.102,184.789 559.426,176.116 							"/>
						</g>
					</g>
				</g>
				<g>
					<g>
						<g>
							<polyline fill="none" stroke="#000000" stroke-miterlimit="1" points="496.453,71.296 573.016,71.303 573.016,177.702 
															"/>
							<g>
								<polygon points="570.691,176.116 573.016,184.789 575.34,176.116 								"/>
							</g>
						</g>
					</g>
				</g>
				<g>
					<text transform="matrix(1 0 0 1 244.0728 333.2871)"><tspan x="0" y="0"  font-size="6">Render</tspan><tspan x="0.003" y="5.49"  font-size="6">Display</tspan></text>
				</g>
				<g>
					<text transform="matrix(1 0 0 1 150.1138 333.2871)"><tspan x="0" y="0"  font-size="6">Cropping Specification Index,</tspan><tspan x="15.844" y="5.49"  font-size="6">Volume Cropping</tspan></text>
				</g>
				<g>
					<text transform="matrix(1 0 0 1 429.0938 333.2871)"><tspan x="0" y="0"  font-size="6">Render</tspan><tspan x="-3.33" y="5.49"  font-size="6">Geometry</tspan></text>
				</g>
				<g>
					<text transform="matrix(1 0 0 1 467.6387 333.2871)"><tspan x="0" y="0"  font-size="6">Render</tspan><tspan x="-1.17" y="5.49"  font-size="6">Shading</tspan></text>
				</g>
				<g>
					<g>
						<polyline fill="none" stroke="#000000" stroke-miterlimit="1" points="253.913,326.34 253.913,134.872 288.141,134.87 
							288.141,125.959 						"/>
						<g>
							<polygon points="290.465,127.545 288.141,118.872 285.817,127.545 							"/>
						</g>
					</g>
				</g>
			</g>
			<g>
				
					<rect x="501.867" y="148.789" fill="#B2CEE7" stroke="#010101" stroke-width="0.8441" stroke-linecap="round" stroke-linejoin="round" stroke-miterlimit="1" width="38" height="22"/>
				<g>
					<text transform="matrix(1 0 0 1 510.3711 158.728)"><tspan x="0" y="0"  font-size="6">Graphic</tspan><tspan x="-3.842" y="5.491"  font-size="6">Annotation</tspan></text>
				</g>
			</g>
			<g>
				
					<rect x="458.131" y="46.387" fill="#B2CEE7" stroke="#010101" stroke-width="0.8441" stroke-linecap="round" stroke-linejoin="round" stroke-miterlimit="1" width="38" height="43.91"/>
				<g>
					<text transform="matrix(1 0 0 1 466.627 67.269)"><tspan x="0" y="0"  font-size="6">Graphic</tspan><tspan x="-2.836" y="5.491"  font-size="6">Projection</tspan></text>
				</g>
			</g>
			<g>
				<polygon fill="#FFFFFF" stroke="#005695" stroke-linejoin="round" points="582.75,192.094 620.428,192.094 620.428,188.199 
					631.115,195.789 620.428,203.377 620.428,200.014 582.75,200.014 				"/>
				<g>
					<text transform="matrix(1 0 0 1 585.6113 197.876)"  font-size="6">PCS-Values</text>
				</g>
				
					<rect x="545.334" y="184.789" fill="#B2CEE7" stroke="#010101" stroke-width="0.8441" stroke-linecap="round" stroke-linejoin="round" stroke-miterlimit="1" width="38" height="22"/>
				<g>
					<text transform="matrix(1 0 0 1 553.8301 194.7285)"><tspan x="0" y="0"  font-size="6">Graphic</tspan><tspan x="3" y="5.49"  font-size="6">Layer</tspan></text>
				</g>
			</g>
			<g>
				<polygon fill="#FFFFFF" stroke="#005695" stroke-linejoin="round" points="496.131,192.094 533.809,192.094 533.809,188.199 
					544.496,195.789 533.809,203.377 533.809,200.014 496.131,200.014 				"/>
				<g>
					<text transform="matrix(1 0 0 1 498.9922 197.876)"  font-size="6">PCS-Values</text>
				</g>
				
					<rect x="458.133" y="184.789" fill="#B2CEE7" stroke="#010101" stroke-width="0.8441" stroke-linecap="round" stroke-linejoin="round" stroke-miterlimit="1" width="38" height="22"/>
				<g>
					<text transform="matrix(1 0 0 1 466.959 194.7285)"><tspan x="0" y="0"  font-size="6">Volume</tspan><tspan x="-3.671" y="5.49"  font-size="6">Rendering</tspan></text>
				</g>
			</g>
			<g>
				
					<rect x="323.612" y="130.729" fill="#B2CEE7" stroke="#010101" stroke-width="0.8441" stroke-linecap="round" stroke-linejoin="round" stroke-miterlimit="1" width="38" height="22"/>
				<g>
					<text transform="matrix(1 0 0 1 332.4355 137.9253)"><tspan x="0" y="0"  font-size="6">Volume</tspan><tspan x="-1.504" y="5.491"  font-size="6">Blending</tspan><tspan x="-3.331" y="10.981"  font-size="6">(B over A)</tspan></text>
				</g>
				<polygon fill="#FFFFFF" stroke="#005695" stroke-linecap="round" stroke-linejoin="round" points="361.609,137.564 
					399.41,137.564 399.41,173.119 405.24,173.119 395.242,183.805 385.24,173.119 391.574,173.119 391.574,145.498 361.609,145.51 
					361.609,145.488 				"/>
			</g>
			<g>
				<polygon fill="#FFFFFF" stroke="#005695" stroke-linecap="round" stroke-linejoin="round" points="415.131,191.654 
					426.588,191.654 426.588,76.226 446.018,76.226 446.018,70.396 456.703,80.394 446.018,90.396 446.018,84.062 434.521,84.062 
					434.533,191.615 434.512,191.615 446.018,191.615 446.018,185.801 456.703,195.799 446.018,205.801 446.018,199.467 
					415.131,199.506 				"/>
				<g>
					<text transform="matrix(1 0 0 1 418.3027 197.6758)"  font-size="6">RGBA</text>
				</g>
				
					<rect x="377.072" y="184.86" fill="#B2CEE7" stroke="#010101" stroke-width="0.8441" stroke-linecap="round" stroke-linejoin="round" stroke-miterlimit="1" width="38" height="22"/>
				<g>
					<text transform="matrix(1 0 0 1 385.8945 192.0566)"><tspan x="0" y="0"  font-size="6">Volume</tspan><tspan x="-1.504" y="5.49"  font-size="6">Blending</tspan><tspan x="-3.331" y="10.98"  font-size="6">(B over A)</tspan></text>
				</g>
			</g>
			<g>
				<polygon fill="#FFFFFF" stroke="#005695" stroke-linecap="round" stroke-linejoin="round" points="307.141,105.015 
					346.957,105.015 346.957,119.405 352.787,119.405 342.789,130.091 332.787,119.405 339.121,119.405 339.121,112.948 
					307.141,112.96 307.141,112.938 				"/>
				<polygon fill="#FFFFFF" stroke="#005695" stroke-linecap="round" stroke-linejoin="round" points="238.048,112.537 
					238.048,104.686 257.451,104.686 257.451,98.871 268.136,108.869 257.451,118.871 257.451,112.537 				"/>
				<polygon fill="#FFFFFF" stroke="#005695" stroke-linecap="round" stroke-linejoin="round" points="177.389,112.537 
					177.389,104.686 196.792,104.686 196.792,98.871 207.477,108.869 196.792,118.871 196.792,112.537 				"/>
				<polygon fill="#FFFFFF" stroke="#005695" stroke-linecap="round" stroke-linejoin="round" points="120.828,112.537 
					120.828,104.686 127.533,104.686 127.533,98.871 138.218,108.869 127.533,118.871 127.533,112.537 				"/>
				
					<rect x="90.835" y="97.871" fill="#B2CEE7" stroke="#010101" stroke-width="0.75" stroke-linecap="round" stroke-linejoin="round" stroke-miterlimit="1" width="30" height="20.992"/>
				<g>
					<text transform="matrix(1 0 0 1 94.1436 110.5547)"  font-size="6">VOI LUT</text>
				</g>
				
					<rect x="139.391" y="97.871" fill="#B2CEE7" stroke="#010101" stroke-width="0.8441" stroke-linecap="round" stroke-linejoin="round" stroke-miterlimit="1" width="38" height="20.992"/>
				<g>
					<text transform="matrix(1 0 0 1 149.2158 107.811)"><tspan x="0" y="0"  font-size="6">Spatial</tspan><tspan x="-6.835" y="5.491"  font-size="6">Registration</tspan></text>
				</g>
				
					<rect x="269.141" y="97.871" fill="#B2CEE7" stroke="#010101" stroke-width="0.8441" stroke-linecap="round" stroke-linejoin="round" stroke-miterlimit="1" width="38" height="20.992"/>
				<g>
					<text transform="matrix(1 0 0 1 270.4653 110.5571)"  font-size="6">Classification</text>
				</g>
				
					<rect x="208.048" y="97.871" fill="#B2CEE7" stroke="#010101" stroke-width="0.75" stroke-linecap="round" stroke-linejoin="round" stroke-miterlimit="1" width="30" height="20.992"/>
				<g>
					<text transform="matrix(1 0 0 1 210.874 110.5562)"  font-size="6">Cropping</text>
				</g>
				<g>
					<text transform="matrix(1 0 0 1 311.1631 110.7559)"  font-size="6">RGBA</text>
				</g>
			</g>
			<g>
				<polygon fill="#FFFFFF" stroke="#005695" stroke-linecap="round" stroke-linejoin="round" points="307.141,177.87 
					346.957,177.87 346.957,163.479 352.787,163.479 342.789,152.794 332.787,163.479 339.121,163.479 339.121,169.937 
					307.141,169.925 307.141,169.946 				"/>
				<polygon fill="#FFFFFF" stroke="#005695" stroke-linecap="round" stroke-linejoin="round" points="177.389,177.654 
					177.389,169.803 196.792,169.803 196.792,163.988 207.477,173.986 196.792,183.988 196.792,177.654 				"/>
				<polygon fill="#FFFFFF" stroke="#005695" stroke-linecap="round" stroke-linejoin="round" points="120.828,177.654 
					120.828,169.803 127.533,169.803 127.533,163.988 138.218,173.986 127.533,183.988 127.533,177.654 				"/>
				
					<rect x="90.835" y="162.988" fill="#B2CEE7" stroke="#010101" stroke-width="0.75" stroke-linecap="round" stroke-linejoin="round" stroke-miterlimit="1" width="30" height="22"/>
				<g>
					<text transform="matrix(1 0 0 1 94.1436 175.6748)"  font-size="6">VOI LUT</text>
				</g>
				
					<rect x="139.391" y="162.988" fill="#B2CEE7" stroke="#010101" stroke-width="0.8441" stroke-linecap="round" stroke-linejoin="round" stroke-miterlimit="1" width="38" height="22"/>
				<g>
					<text transform="matrix(1 0 0 1 149.2158 172.9307)"><tspan x="0" y="0"  font-size="6">Spatial</tspan><tspan x="-6.835" y="5.491"  font-size="6">Registration</tspan></text>
				</g>
				
					<rect x="269.141" y="162.988" fill="#B2CEE7" stroke="#010101" stroke-width="0.8441" stroke-linecap="round" stroke-linejoin="round" stroke-miterlimit="1" width="38" height="22"/>
				<g>
					<text transform="matrix(1 0 0 1 270.4653 175.6768)"  font-size="6">Classification</text>
				</g>
				
					<rect x="208.048" y="162.988" fill="#B2CEE7" stroke="#010101" stroke-width="0.75" stroke-linecap="round" stroke-linejoin="round" stroke-miterlimit="1" width="30" height="22"/>
				<g>
					<text transform="matrix(1 0 0 1 210.874 175.6758)"  font-size="6">Cropping</text>
				</g>
				<g>
					<text transform="matrix(1 0 0 1 311.1631 175.6748)"  font-size="6">RGBA</text>
				</g>
				<polygon fill="#FFFFFF" stroke="#005695" stroke-linecap="round" stroke-linejoin="round" points="238.048,177.654 
					238.048,169.803 257.451,169.803 257.451,163.988 268.136,173.986 257.451,183.988 257.451,177.654 				"/>
			</g>
			<g>
				<g opacity="0.5">
					<polygon fill="#FFFFFF" points="238.048,231.658 238.048,223.807 257.451,223.807 257.451,217.992 268.136,227.99 
						257.451,237.992 257.451,231.658 					"/>
					<g>
						<polyline fill="none" stroke="#005695" stroke-linecap="round" stroke-linejoin="round" points="239.048,231.658 
							238.048,231.658 238.048,230.658 						"/>
						
							<line fill="none" stroke="#005695" stroke-linecap="round" stroke-linejoin="round" stroke-dasharray="1.9505,1.9505" x1="238.048" y1="228.708" x2="238.048" y2="225.782"/>
						<polyline fill="none" stroke="#005695" stroke-linecap="round" stroke-linejoin="round" points="238.048,224.807 
							238.048,223.807 239.048,223.807 						"/>
						
							<line fill="none" stroke="#005695" stroke-linecap="round" stroke-linejoin="round" stroke-dasharray="1.9336,1.9336" x1="240.982" y1="223.807" x2="255.484" y2="223.807"/>
						<polyline fill="none" stroke="#005695" stroke-linecap="round" stroke-linejoin="round" points="256.451,223.807 
							257.451,223.807 257.451,222.807 						"/>
						
							<line fill="none" stroke="#005695" stroke-linecap="round" stroke-linejoin="round" stroke-dasharray="1.2715,1.2715" x1="257.451" y1="221.535" x2="257.451" y2="219.628"/>
						<polyline fill="none" stroke="#005695" stroke-linecap="round" stroke-linejoin="round" points="257.451,218.992 
							257.451,217.992 258.181,218.676 						"/>
						
							<line fill="none" stroke="#005695" stroke-linecap="round" stroke-linejoin="round" stroke-dasharray="1.8048,1.8048" x1="259.499" y1="219.908" x2="266.747" y2="226.69"/>
						<polyline fill="none" stroke="#005695" stroke-linecap="round" stroke-linejoin="round" points="267.406,227.307 
							268.136,227.99 267.406,228.674 						"/>
						
							<line fill="none" stroke="#005695" stroke-linecap="round" stroke-linejoin="round" stroke-dasharray="1.8052,1.8052" x1="266.088" y1="229.907" x2="258.84" y2="236.692"/>
						<polyline fill="none" stroke="#005695" stroke-linecap="round" stroke-linejoin="round" points="258.181,237.309 
							257.451,237.992 257.451,236.992 						"/>
						
							<line fill="none" stroke="#005695" stroke-linecap="round" stroke-linejoin="round" stroke-dasharray="1.4447,1.4447" x1="257.451" y1="235.548" x2="257.451" y2="233.381"/>
						<polyline fill="none" stroke="#005695" stroke-linecap="round" stroke-linejoin="round" points="257.451,232.658 
							257.451,231.658 256.451,231.658 						"/>
						
							<line fill="none" stroke="#005695" stroke-linecap="round" stroke-linejoin="round" stroke-dasharray="1.9336,1.9336" x1="254.517" y1="231.658" x2="240.015" y2="231.658"/>
					</g>
				</g>
				<g opacity="0.5">
					<polygon fill="#FFFFFF" points="177.389,231.658 177.389,223.807 196.792,223.807 196.792,217.992 207.477,227.99 
						196.792,237.992 196.792,231.658 					"/>
					<g>
						<polyline fill="none" stroke="#005695" stroke-linecap="round" stroke-linejoin="round" points="178.389,231.658 
							177.389,231.658 177.389,230.658 						"/>
						
							<line fill="none" stroke="#005695" stroke-linecap="round" stroke-linejoin="round" stroke-dasharray="1.9505,1.9505" x1="177.389" y1="228.708" x2="177.389" y2="225.782"/>
						<polyline fill="none" stroke="#005695" stroke-linecap="round" stroke-linejoin="round" points="177.389,224.807 
							177.389,223.807 178.389,223.807 						"/>
						
							<line fill="none" stroke="#005695" stroke-linecap="round" stroke-linejoin="round" stroke-dasharray="1.9336,1.9336" x1="180.323" y1="223.807" x2="194.825" y2="223.807"/>
						<polyline fill="none" stroke="#005695" stroke-linecap="round" stroke-linejoin="round" points="195.792,223.807 
							196.792,223.807 196.792,222.807 						"/>
						
							<line fill="none" stroke="#005695" stroke-linecap="round" stroke-linejoin="round" stroke-dasharray="1.2715,1.2715" x1="196.792" y1="221.535" x2="196.792" y2="219.628"/>
						<polyline fill="none" stroke="#005695" stroke-linecap="round" stroke-linejoin="round" points="196.792,218.992 
							196.792,217.992 197.521,218.676 						"/>
						
							<line fill="none" stroke="#005695" stroke-linecap="round" stroke-linejoin="round" stroke-dasharray="1.8048,1.8048" x1="198.839" y1="219.908" x2="206.088" y2="226.69"/>
						<polyline fill="none" stroke="#005695" stroke-linecap="round" stroke-linejoin="round" points="206.747,227.307 
							207.477,227.99 206.747,228.674 						"/>
						
							<line fill="none" stroke="#005695" stroke-linecap="round" stroke-linejoin="round" stroke-dasharray="1.8052,1.8052" x1="205.429" y1="229.907" x2="198.181" y2="236.692"/>
						<polyline fill="none" stroke="#005695" stroke-linecap="round" stroke-linejoin="round" points="197.521,237.309 
							196.792,237.992 196.792,236.992 						"/>
						
							<line fill="none" stroke="#005695" stroke-linecap="round" stroke-linejoin="round" stroke-dasharray="1.4447,1.4447" x1="196.792" y1="235.548" x2="196.792" y2="233.381"/>
						<polyline fill="none" stroke="#005695" stroke-linecap="round" stroke-linejoin="round" points="196.792,232.658 
							196.792,231.658 195.792,231.658 						"/>
						
							<line fill="none" stroke="#005695" stroke-linecap="round" stroke-linejoin="round" stroke-dasharray="1.9336,1.9336" x1="193.858" y1="231.658" x2="179.356" y2="231.658"/>
					</g>
				</g>
				<g opacity="0.5">
					<polygon fill="#FFFFFF" points="120.828,231.658 120.828,223.807 127.533,223.807 127.533,217.992 138.218,227.99 
						127.533,237.992 127.533,231.658 					"/>
					<g>
						<polyline fill="none" stroke="#005695" stroke-linecap="round" stroke-linejoin="round" points="121.828,231.658 
							120.828,231.658 120.828,230.658 						"/>
						
							<line fill="none" stroke="#005695" stroke-linecap="round" stroke-linejoin="round" stroke-dasharray="1.9505,1.9505" x1="120.828" y1="228.708" x2="120.828" y2="225.782"/>
						<polyline fill="none" stroke="#005695" stroke-linecap="round" stroke-linejoin="round" points="120.828,224.807 
							120.828,223.807 121.828,223.807 						"/>
						
							<line fill="none" stroke="#005695" stroke-linecap="round" stroke-linejoin="round" stroke-dasharray="1.5684,1.5684" x1="123.396" y1="223.807" x2="125.749" y2="223.807"/>
						<polyline fill="none" stroke="#005695" stroke-linecap="round" stroke-linejoin="round" points="126.533,223.807 
							127.533,223.807 127.533,222.807 						"/>
						
							<line fill="none" stroke="#005695" stroke-linecap="round" stroke-linejoin="round" stroke-dasharray="1.2715,1.2715" x1="127.533" y1="221.535" x2="127.533" y2="219.628"/>
						<polyline fill="none" stroke="#005695" stroke-linecap="round" stroke-linejoin="round" points="127.533,218.992 
							127.533,217.992 128.263,218.676 						"/>
						
							<line fill="none" stroke="#005695" stroke-linecap="round" stroke-linejoin="round" stroke-dasharray="1.8048,1.8048" x1="129.581" y1="219.908" x2="136.829" y2="226.69"/>
						<polyline fill="none" stroke="#005695" stroke-linecap="round" stroke-linejoin="round" points="137.488,227.307 
							138.218,227.99 137.488,228.674 						"/>
						
							<line fill="none" stroke="#005695" stroke-linecap="round" stroke-linejoin="round" stroke-dasharray="1.8052,1.8052" x1="136.17" y1="229.907" x2="128.922" y2="236.692"/>
						<polyline fill="none" stroke="#005695" stroke-linecap="round" stroke-linejoin="round" points="128.263,237.309 
							127.533,237.992 127.533,236.992 						"/>
						
							<line fill="none" stroke="#005695" stroke-linecap="round" stroke-linejoin="round" stroke-dasharray="1.4447,1.4447" x1="127.533" y1="235.548" x2="127.533" y2="233.381"/>
						<polyline fill="none" stroke="#005695" stroke-linecap="round" stroke-linejoin="round" points="127.533,232.658 
							127.533,231.658 126.533,231.658 						"/>
						
							<line fill="none" stroke="#005695" stroke-linecap="round" stroke-linejoin="round" stroke-dasharray="1.5684,1.5684" x1="124.964" y1="231.658" x2="122.612" y2="231.658"/>
					</g>
				</g>
				<g opacity="0.5">
					<rect x="90.835" y="216.992" fill="#B2CEE7" width="30" height="22"/>
					<g>
						<polyline fill="none" stroke="#010101" stroke-width="0.75" stroke-linecap="round" stroke-linejoin="round" points="
							120.835,237.992 120.835,238.992 119.835,238.992 						"/>
						
							<line fill="none" stroke="#010101" stroke-width="0.75" stroke-linecap="round" stroke-linejoin="round" stroke-dasharray="1.8667,1.8667" x1="117.969" y1="238.992" x2="92.769" y2="238.992"/>
						<polyline fill="none" stroke="#010101" stroke-width="0.75" stroke-linecap="round" stroke-linejoin="round" points="
							91.835,238.992 90.835,238.992 90.835,237.992 						"/>
						
							<line fill="none" stroke="#010101" stroke-width="0.75" stroke-linecap="round" stroke-linejoin="round" stroke-dasharray="1.8182,1.8182" x1="90.835" y1="236.174" x2="90.835" y2="218.901"/>
						<polyline fill="none" stroke="#010101" stroke-width="0.75" stroke-linecap="round" stroke-linejoin="round" points="
							90.835,217.992 90.835,216.992 91.835,216.992 						"/>
						
							<line fill="none" stroke="#010101" stroke-width="0.75" stroke-linecap="round" stroke-linejoin="round" stroke-dasharray="1.8667,1.8667" x1="93.702" y1="216.992" x2="118.902" y2="216.992"/>
						<polyline fill="none" stroke="#010101" stroke-width="0.75" stroke-linecap="round" stroke-linejoin="round" points="
							119.835,216.992 120.835,216.992 120.835,217.992 						"/>
						
							<line fill="none" stroke="#010101" stroke-width="0.75" stroke-linecap="round" stroke-linejoin="round" stroke-dasharray="1.8182,1.8182" x1="120.835" y1="219.811" x2="120.835" y2="237.083"/>
					</g>
				</g>
				<g opacity="0.5">
					<rect x="139.391" y="216.992" fill="#B2CEE7" width="38" height="22"/>
					<g>
						<polyline fill="none" stroke="#010101" stroke-width="0.8441" stroke-linecap="round" stroke-linejoin="round" points="
							177.391,237.992 177.391,238.992 176.391,238.992 						"/>
						
							<line fill="none" stroke="#010101" stroke-width="0.8441" stroke-linecap="round" stroke-linejoin="round" stroke-dasharray="1.8947,1.8947" x1="174.497" y1="238.992" x2="141.338" y2="238.992"/>
						<polyline fill="none" stroke="#010101" stroke-width="0.8441" stroke-linecap="round" stroke-linejoin="round" points="
							140.391,238.992 139.391,238.992 139.391,237.992 						"/>
						
							<line fill="none" stroke="#010101" stroke-width="0.8441" stroke-linecap="round" stroke-linejoin="round" stroke-dasharray="1.8182,1.8182" x1="139.391" y1="236.174" x2="139.391" y2="218.901"/>
						<polyline fill="none" stroke="#010101" stroke-width="0.8441" stroke-linecap="round" stroke-linejoin="round" points="
							139.391,217.992 139.391,216.992 140.391,216.992 						"/>
						
							<line fill="none" stroke="#010101" stroke-width="0.8441" stroke-linecap="round" stroke-linejoin="round" stroke-dasharray="1.8947,1.8947" x1="142.286" y1="216.992" x2="175.444" y2="216.992"/>
						<polyline fill="none" stroke="#010101" stroke-width="0.8441" stroke-linecap="round" stroke-linejoin="round" points="
							176.391,216.992 177.391,216.992 177.391,217.992 						"/>
						
							<line fill="none" stroke="#010101" stroke-width="0.8441" stroke-linecap="round" stroke-linejoin="round" stroke-dasharray="1.8182,1.8182" x1="177.391" y1="219.811" x2="177.391" y2="237.083"/>
					</g>
				</g>
				<g opacity="0.5">
					<rect x="269.141" y="216.992" fill="#B2CEE7" width="38" height="22"/>
					<g>
						<polyline fill="none" stroke="#010101" stroke-width="0.8441" stroke-linecap="round" stroke-linejoin="round" points="
							307.141,237.992 307.141,238.992 306.141,238.992 						"/>
						
							<line fill="none" stroke="#010101" stroke-width="0.8441" stroke-linecap="round" stroke-linejoin="round" stroke-dasharray="1.8947,1.8947" x1="304.247" y1="238.992" x2="271.088" y2="238.992"/>
						<polyline fill="none" stroke="#010101" stroke-width="0.8441" stroke-linecap="round" stroke-linejoin="round" points="
							270.141,238.992 269.141,238.992 269.141,237.992 						"/>
						
							<line fill="none" stroke="#010101" stroke-width="0.8441" stroke-linecap="round" stroke-linejoin="round" stroke-dasharray="1.8182,1.8182" x1="269.141" y1="236.174" x2="269.141" y2="218.901"/>
						<polyline fill="none" stroke="#010101" stroke-width="0.8441" stroke-linecap="round" stroke-linejoin="round" points="
							269.141,217.992 269.141,216.992 270.141,216.992 						"/>
						
							<line fill="none" stroke="#010101" stroke-width="0.8441" stroke-linecap="round" stroke-linejoin="round" stroke-dasharray="1.8947,1.8947" x1="272.036" y1="216.992" x2="305.194" y2="216.992"/>
						<polyline fill="none" stroke="#010101" stroke-width="0.8441" stroke-linecap="round" stroke-linejoin="round" points="
							306.141,216.992 307.141,216.992 307.141,217.992 						"/>
						
							<line fill="none" stroke="#010101" stroke-width="0.8441" stroke-linecap="round" stroke-linejoin="round" stroke-dasharray="1.8182,1.8182" x1="307.141" y1="219.811" x2="307.141" y2="237.083"/>
					</g>
				</g>
				<g>
					<text transform="matrix(1 0 0 1 69.4878 229.6777)"  font-size="9">...</text>
				</g>
				<g opacity="0.5">
					<rect x="208.048" y="216.992" fill="#B2CEE7" width="30" height="22"/>
					<g>
						<polyline fill="none" stroke="#010101" stroke-width="0.75" stroke-linecap="round" stroke-linejoin="round" points="
							238.048,237.992 238.048,238.992 237.048,238.992 						"/>
						
							<line fill="none" stroke="#010101" stroke-width="0.75" stroke-linecap="round" stroke-linejoin="round" stroke-dasharray="1.8667,1.8667" x1="235.182" y1="238.992" x2="209.981" y2="238.992"/>
						<polyline fill="none" stroke="#010101" stroke-width="0.75" stroke-linecap="round" stroke-linejoin="round" points="
							209.048,238.992 208.048,238.992 208.048,237.992 						"/>
						
							<line fill="none" stroke="#010101" stroke-width="0.75" stroke-linecap="round" stroke-linejoin="round" stroke-dasharray="1.8182,1.8182" x1="208.048" y1="236.174" x2="208.048" y2="218.901"/>
						<polyline fill="none" stroke="#010101" stroke-width="0.75" stroke-linecap="round" stroke-linejoin="round" points="
							208.048,217.992 208.048,216.992 209.048,216.992 						"/>
						
							<line fill="none" stroke="#010101" stroke-width="0.75" stroke-linecap="round" stroke-linejoin="round" stroke-dasharray="1.8667,1.8667" x1="210.915" y1="216.992" x2="236.115" y2="216.992"/>
						<polyline fill="none" stroke="#010101" stroke-width="0.75" stroke-linecap="round" stroke-linejoin="round" points="
							237.048,216.992 238.048,216.992 238.048,217.992 						"/>
						
							<line fill="none" stroke="#010101" stroke-width="0.75" stroke-linecap="round" stroke-linejoin="round" stroke-dasharray="1.8182,1.8182" x1="238.048" y1="219.811" x2="238.048" y2="237.083"/>
					</g>
				</g>
				<g opacity="0.5">
					<polyline fill="#FFFFFF" points="68.201,223.801 79.188,223.801 79.188,217.992 89.875,227.99 79.188,237.992 79.188,231.656 
						68.201,231.656 					"/>
					<g>
						<line fill="none" stroke="#005695" stroke-linejoin="round" x1="68.201" y1="223.801" x2="69.201" y2="223.801"/>
						
							<line fill="none" stroke="#005695" stroke-linejoin="round" stroke-dasharray="1.7975,1.7975" x1="70.998" y1="223.801" x2="77.289" y2="223.801"/>
						<polyline fill="none" stroke="#005695" stroke-linejoin="round" points="78.188,223.801 79.188,223.801 79.188,222.801 						
							"/>
						
							<line fill="none" stroke="#005695" stroke-linejoin="round" stroke-dasharray="1.2695,1.2695" x1="79.188" y1="221.531" x2="79.188" y2="219.627"/>
						<polyline fill="none" stroke="#005695" stroke-linejoin="round" points="79.188,218.992 79.188,217.992 79.918,218.676 						
							"/>
						
							<line fill="none" stroke="#005695" stroke-linejoin="round" stroke-dasharray="1.8049,1.8049" x1="81.236" y1="219.908" x2="88.485" y2="226.69"/>
						<polyline fill="none" stroke="#005695" stroke-linejoin="round" points="89.144,227.307 89.875,227.99 89.145,228.674 						
							"/>
						
							<line fill="none" stroke="#005695" stroke-linejoin="round" stroke-dasharray="1.8053,1.8053" x1="87.826" y1="229.907" x2="80.577" y2="236.692"/>
						<polyline fill="none" stroke="#005695" stroke-linejoin="round" points="79.918,237.309 79.188,237.992 79.188,236.992 						
							"/>
						
							<line fill="none" stroke="#005695" stroke-linejoin="round" stroke-dasharray="1.4453,1.4453" x1="79.188" y1="235.547" x2="79.188" y2="233.379"/>
						<polyline fill="none" stroke="#005695" stroke-linejoin="round" points="79.188,232.656 79.188,231.656 78.188,231.656 						
							"/>
						
							<line fill="none" stroke="#005695" stroke-linejoin="round" stroke-dasharray="1.7975,1.7975" x1="76.391" y1="231.656" x2="70.1" y2="231.656"/>
						<line fill="none" stroke="#005695" stroke-linejoin="round" x1="69.201" y1="231.656" x2="68.201" y2="231.656"/>
					</g>
				</g>
			</g>
			<g>
				<polygon fill="#FFFFFF" stroke="#005695" stroke-linecap="round" stroke-linejoin="round" points="238.048,285.658 
					238.048,277.807 257.451,277.807 257.451,271.992 268.136,281.99 257.451,291.992 257.451,285.658 				"/>
				<polygon fill="#FFFFFF" stroke="#005695" stroke-linecap="round" stroke-linejoin="round" points="177.389,285.658 
					177.389,277.807 196.792,277.807 196.792,271.992 207.477,281.99 196.792,291.992 196.792,285.658 				"/>
				<polygon fill="#FFFFFF" stroke="#005695" stroke-linecap="round" stroke-linejoin="round" points="120.828,285.658 
					120.828,277.807 127.533,277.807 127.533,271.992 138.218,281.99 127.533,291.992 127.533,285.658 				"/>
				
					<rect x="90.835" y="270.992" fill="#B2CEE7" stroke="#010101" stroke-width="0.75" stroke-linecap="round" stroke-linejoin="round" stroke-miterlimit="1" width="30" height="22"/>
				
					<rect x="139.391" y="270.992" fill="#B2CEE7" stroke="#010101" stroke-width="0.8441" stroke-linecap="round" stroke-linejoin="round" stroke-miterlimit="1" width="38" height="22"/>
				
					<rect x="269.141" y="270.992" fill="#B2CEE7" stroke="#010101" stroke-width="0.8441" stroke-linecap="round" stroke-linejoin="round" stroke-miterlimit="1" width="38" height="22"/>
				
					<rect x="208.048" y="270.992" fill="#B2CEE7" stroke="#010101" stroke-width="0.75" stroke-linecap="round" stroke-linejoin="round" stroke-miterlimit="1" width="30" height="22"/>
				<g>
					<text transform="matrix(1 0 0 1 94.1436 283.6777)"  font-size="6">VOI LUT</text>
				</g>
				<g>
					<text transform="matrix(1 0 0 1 149.2158 280.9336)"><tspan x="0" y="0"  font-size="6">Spatial</tspan><tspan x="-6.835" y="5.491"  font-size="6">Registration</tspan></text>
				</g>
				<g>
					<text transform="matrix(1 0 0 1 270.4653 283.6797)"  font-size="6">Classification</text>
				</g>
				<g>
					<text transform="matrix(1 0 0 1 210.874 283.6797)"  font-size="6">Cropping</text>
				</g>
				<polygon fill="#FFFFFF" stroke="#005695" stroke-linecap="round" stroke-linejoin="round" points="307.19,285.859 
					399.41,285.859 399.41,218.805 405.24,218.805 395.242,208.119 385.24,218.805 391.574,218.805 391.574,277.926 307.19,277.914 
					307.19,277.936 				"/>
				<g>
					<text transform="matrix(1 0 0 1 311.1631 283.6777)"  font-size="6">RGBA</text>
				</g>
			</g>
			<g>
				<polyline fill="#FFFFFF" stroke="#005695" stroke-linecap="round" stroke-linejoin="round" points="31.169,177.78 
					59.759,177.78 59.759,287.162 79.189,287.162 79.189,292.992 89.875,282.994 79.189,272.992 79.189,279.326 67.693,279.326 
					67.705,177.819 67.683,177.819 79.189,177.819 79.189,183.634 89.875,173.636 79.189,163.634 79.189,169.968 67.688,169.953 
					67.693,112.537 79.189,112.537 79.189,118.871 89.875,108.869 79.189,98.871 79.189,104.701 59.759,104.701 59.759,169.943 
					31.169,169.929 				"/>
				<g>
					<text transform="matrix(1 0 0 1 36.5645 175.6768)"  font-size="6">Volume 1 Input</text>
				</g>
			</g>
		</g>
		<g>
			<text transform="matrix(1 0 0 1 534.916 24.9624)"  font-size="10">2D Pixel Data</text>
		</g>
		<g>
			<text transform="matrix(1 0 0 1 218.2456 25.9707)"  font-size="10">3D Voxel Data</text>
		</g>
	</g>
</g>
</svg>
