<?xml version="1.0" encoding="utf-8"?>

<!DOCTYPE svg PUBLIC "-//W3C//DTD SVG 1.1//EN" "http://www.w3.org/Graphics/SVG/1.1/DTD/svg11.dtd">
<svg version="1.1" id="Layer_1" xmlns="http://www.w3.org/2000/svg" xmlns:xlink="http://www.w3.org/1999/xlink" x="0px" y="0px"
	 width="502.001px" height="137px" viewBox="0 0 502.001 137" enable-background="new 0 0 502.001 137" xml:space="preserve">

<defs>
	<style type="text/css">
	text {
	  font-family: Helvetica, Verdana, ArialUnicodeMS, san-serif
	}
	</style>
</defs>

<g>
   <desc>
	PS 3.4 Service Class Specifications
   </desc>
</g>

<g>
	<rect x="1" y="1" fill="#F5EED6" width="500.001" height="135"/>
	<g>
		<path fill="#FFFFFF" stroke="#005695" stroke-linejoin="round" d="M249.961,114.559"/>
		<g>
			<g>
				<polyline fill="#FFFFFF" stroke="#005695" stroke-linejoin="round" points="166.357,31.916 206.553,31.916 206.553,26.107 
					217.24,36.106 206.553,46.107 206.553,39.771 166.357,39.771 				"/>
				<g>
					<text transform="matrix(1 0 0 1 169.0098 37.7812)" font-size="6">Scalar value</text>
				</g>
			</g>
			<g>
				<polyline fill="#FFFFFF" stroke="#005695" stroke-linejoin="round" points="166.357,61.916 206.553,61.916 206.553,56.107 
					217.24,66.106 206.553,76.107 206.553,69.771 166.357,69.771 				"/>
				<g>
					<text transform="matrix(1 0 0 1 169.0098 67.7812)" font-size="6">Scalar value</text>
				</g>
			</g>
		</g>
		<polygon fill="#FFFFFF" stroke="#005695" stroke-linejoin="round" points="288.625,57.218 288.625,44.468 324.955,44.468 
			324.955,41.106 335.643,51.105 324.955,61.106 324.955,57.218 		"/>
		<g>
			<text transform="matrix(1 0 0 1 290.8291 52.7803)" font-size="6">RGB</text>
		</g>
		<g>
			<polygon fill="#FFFFFF" stroke="#005695" stroke-linejoin="round" points="249.961,85.896 249.961,114.559 324.955,114.559 
				324.955,120.895 335.643,110.893 324.955,100.895 324.955,106.703 257.816,106.703 257.816,85.896 			"/>
		</g>
		<g>
			<text transform="matrix(1 0 0 1 291.085 112.5713)" font-size="6">Alpha</text>
		</g>
		
			<rect x="218.625" y="16.106" fill="#B2CEE7" stroke="#010101" stroke-width="0.75" stroke-linecap="round" stroke-linejoin="round" stroke-miterlimit="1" width="70" height="70"/>
		<g>
			<text transform="matrix(1 0 0 1 238.9116 45.6895)"><tspan x="0" y="0" font-size="6">Two Inputs</tspan><tspan x="10.966" y="7.891" font-size="8">➜</tspan><tspan x="6.171" y="14.181" font-size="6">RBGA</tspan></text>
		</g>
	</g>
</g>
</svg>
