<?xml version="1.0" encoding="utf-8"?>

<!DOCTYPE svg PUBLIC "-//W3C//DTD SVG 1.1//EN" "http://www.w3.org/Graphics/SVG/1.1/DTD/svg11.dtd">
<svg version="1.1" id="Layer_1" xmlns="http://www.w3.org/2000/svg" xmlns:xlink="http://www.w3.org/1999/xlink" x="0px" y="0px"
	 width="502.001px" height="322px" viewBox="0 0 502.001 322" enable-background="new 0 0 502.001 322" xml:space="preserve">

<defs>
	<style type="text/css">
	text {
	  font-family: Helvetica, Verdana, ArialUnicodeMS, san-serif
	}
	</style>
</defs>

<g>
   <desc>
	PS 3.4 Service Class Specifications
   </desc>
</g>

<g>
	<rect x="1" y="1" fill="#F5EED6" width="500.001" height="320"/>
	<g>
		<polygon fill="#86B2D8" stroke="#000000" stroke-miterlimit="10" points="97.883,244.063 250.021,163.474 369.74,191.392 
			240.975,305 97.958,243.833 		"/>
		<polygon fill="#B2CEE7" stroke="#000000" stroke-miterlimit="10" points="384.195,27.289 252.378,17 250.021,163.474 
			369.74,191.392 		"/>
		<polygon fill="#CCDEF0" stroke="#000000" stroke-miterlimit="10" points="79.366,46.071 97.883,244.063 250.021,163.474 
			252.378,17 		"/>
		<g opacity="0.7">
			<polygon fill="#C3E2C1" stroke="#000000" stroke-width="0.5" stroke-linecap="round" stroke-linejoin="round" points="
				240.908,155.174 304.729,170.776 318.696,114.383 254.074,102.868 			"/>
			<polygon fill="#C3E2C1" stroke="#000000" stroke-width="0.5" stroke-linecap="round" stroke-linejoin="round" points="
				236.161,153.707 299.85,169.249 309.522,111.429 244.392,99.924 			"/>
			<polygon fill="#C3E2C1" stroke="#000000" stroke-width="0.5" stroke-linecap="round" stroke-linejoin="round" points="
				231.379,148.129 295.159,163.474 302.432,105.154 236.896,93.832 			"/>
			<polygon fill="#C3E2C1" stroke="#000000" stroke-width="0.5" stroke-linecap="round" stroke-linejoin="round" points="
				227.118,143.923 290.689,158.989 292.722,101.799 226.846,90.522 			"/>
			<polygon fill="#C3E2C1" stroke="#000000" stroke-width="0.5" stroke-linecap="round" stroke-linejoin="round" points="
				220.427,142.656 283.669,157.493 283.895,157.547 282.962,101.196 216.947,89.982 			"/>
			<polygon fill="#C3E2C1" stroke="#000000" stroke-width="0.5" stroke-linecap="round" stroke-linejoin="round" points="
				217.272,140.712 280.186,155.457 273.508,103.395 207.672,91.842 			"/>
			<polygon fill="#C3E2C1" stroke="#000000" stroke-width="0.5" stroke-linecap="round" stroke-linejoin="round" points="
				211.658,140.207 274.383,155.017 264.479,105.435 198.686,93.564 			"/>
			<polygon fill="#C3E2C1" stroke="#000000" stroke-width="0.5" stroke-linecap="round" stroke-linejoin="round" points="
				209.417,145.162 270.666,160.083 257.847,114.958 193.549,102.509 			"/>
			<polygon fill="#C3E2C1" stroke="#000000" stroke-width="0.5" stroke-linecap="round" stroke-linejoin="round" points="
				197.097,152.669 258.12,168.364 250.209,117.44 186.476,104.78 			"/>
			<polygon fill="#C3E2C1" stroke="#000000" stroke-width="0.5" stroke-linecap="round" stroke-linejoin="round" points="
				186.636,162.368 247.497,178.922 244.956,123.558 181.778,110.539 			"/>
			<polygon fill="#C3E2C1" stroke="#000000" stroke-width="0.5" stroke-linecap="round" stroke-linejoin="round" points="
				175.713,167.081 236.757,184.354 239.982,125.635 177.039,112.373 			"/>
			<polygon fill="#C3E2C1" stroke="#000000" stroke-width="0.5" stroke-linecap="round" stroke-linejoin="round" points="
				163.473,171.826 224.232,189.729 233.378,129.605 171.191,116.054 			"/>
			<polygon fill="#C3E2C1" stroke="#000000" stroke-width="0.5" stroke-linecap="round" stroke-linejoin="round" points="
				154.066,173.645 215.445,191.915 230.712,131.456 168.371,117.861 			"/>
			<polygon fill="#C3E2C1" stroke="#000000" stroke-width="0.5" stroke-linecap="round" stroke-linejoin="round" points="
				150.159,173.61 211.097,192.003 220.261,130.619 157.866,116.755 			"/>
			<polygon fill="#C3E2C1" stroke="#000000" stroke-width="0.5" stroke-linecap="round" stroke-linejoin="round" points="
				145.376,173.194 205.942,191.562 208.349,131.06 145.898,116.939 			"/>
			<polygon fill="#C3E2C1" stroke="#000000" stroke-width="0.5" stroke-linecap="round" stroke-linejoin="round" points="
				137.432,173.992 197.947,192.456 196.392,132.38 133.802,118.063 			"/>
		</g>
		<path opacity="0.6" fill="none" stroke="#0DB14B" stroke-width="2" stroke-linejoin="round" d="M278.498,135.563
			c-9.283-1.093-18.46-8.658-26.34-11.728c-12.002-4.675-20.981,8.211-29.252,14.459c-17.742,13.402-38.803,18.978-60.641,15.345"/>
		<g>
			
				<line fill="none" stroke="#000000" stroke-width="0.75" stroke-linecap="round" stroke-linejoin="round" x1="275.223" y1="134.83" x2="281.636" y2="136.184"/>
			
				<line fill="none" stroke="#000000" stroke-width="0.75" stroke-linecap="round" stroke-linejoin="round" x1="279.095" y1="132.791" x2="277.739" y2="138.218"/>
			
				<line fill="none" stroke="#000000" stroke-width="0.75" stroke-linecap="round" stroke-linejoin="round" x1="268.04" y1="132.815" x2="274.471" y2="134.168"/>
			
				<line fill="none" stroke="#000000" stroke-width="0.75" stroke-linecap="round" stroke-linejoin="round" x1="271.689" y1="130.701" x2="270.798" y2="136.274"/>
			
				<line fill="none" stroke="#000000" stroke-width="0.75" stroke-linecap="round" stroke-linejoin="round" x1="261.678" y1="129.804" x2="268.124" y2="131.159"/>
			
				<line fill="none" stroke="#000000" stroke-width="0.75" stroke-linecap="round" stroke-linejoin="round" x1="265.205" y1="127.67" x2="264.572" y2="133.281"/>
			
				<line fill="none" stroke="#000000" stroke-width="0.75" stroke-linecap="round" stroke-linejoin="round" x1="254.842" y1="126.121" x2="261.292" y2="127.462"/>
			
				<line fill="none" stroke="#000000" stroke-width="0.75" stroke-linecap="round" stroke-linejoin="round" x1="258.094" y1="124.033" x2="258.015" y2="129.536"/>
			
				<line fill="none" stroke="#000000" stroke-width="0.75" stroke-linecap="round" stroke-linejoin="round" x1="246.608" y1="122.511" x2="253.071" y2="123.822"/>
			
				<line fill="none" stroke="#000000" stroke-width="0.75" stroke-linecap="round" stroke-linejoin="round" x1="249.712" y1="120.438" x2="249.941" y2="125.881"/>
			
				<line fill="none" stroke="#000000" stroke-width="0.75" stroke-linecap="round" stroke-linejoin="round" x1="243.108" y1="120.768" x2="243.935" y2="125.806"/>
			
				<line fill="none" stroke="#000000" stroke-width="0.75" stroke-linecap="round" stroke-linejoin="round" x1="240.322" y1="122.634" x2="246.747" y2="123.957"/>
			
				<line fill="none" stroke="#000000" stroke-width="0.75" stroke-linecap="round" stroke-linejoin="round" x1="236.222" y1="124.036" x2="237.371" y2="128.81"/>
			
				<line fill="none" stroke="#000000" stroke-width="0.75" stroke-linecap="round" stroke-linejoin="round" x1="233.611" y1="125.755" x2="240.01" y2="127.111"/>
			
				<line fill="none" stroke="#000000" stroke-width="0.75" stroke-linecap="round" stroke-linejoin="round" x1="226.418" y1="131.946" x2="232.62" y2="133.323"/>
			
				<line fill="none" stroke="#000000" stroke-width="0.75" stroke-linecap="round" stroke-linejoin="round" x1="228.778" y1="130.455" x2="230.23" y2="134.795"/>
			
				<line fill="none" stroke="#000000" stroke-width="0.75" stroke-linecap="round" stroke-linejoin="round" x1="221.897" y1="136.218" x2="222.831" y2="141.124"/>
			
				<line fill="none" stroke="#000000" stroke-width="0.75" stroke-linecap="round" stroke-linejoin="round" x1="219.271" y1="137.96" x2="225.484" y2="139.4"/>
			
				<line fill="none" stroke="#000000" stroke-width="0.75" stroke-linecap="round" stroke-linejoin="round" x1="213.863" y1="141.441" x2="214.243" y2="146.793"/>
			
				<line fill="none" stroke="#000000" stroke-width="0.75" stroke-linecap="round" stroke-linejoin="round" x1="210.97" y1="143.383" x2="217.16" y2="144.867"/>
			
				<line fill="none" stroke="#000000" stroke-width="0.75" stroke-linecap="round" stroke-linejoin="round" x1="203.062" y1="146.694" x2="202.853" y2="152.321"/>
			
				<line fill="none" stroke="#000000" stroke-width="0.75" stroke-linecap="round" stroke-linejoin="round" x1="199.903" y1="148.746" x2="206.035" y2="150.284"/>
			
				<line fill="none" stroke="#000000" stroke-width="0.75" stroke-linecap="round" stroke-linejoin="round" x1="197.256" y1="148.78" x2="196.417" y2="154.566"/>
			
				<line fill="none" stroke="#000000" stroke-width="0.75" stroke-linecap="round" stroke-linejoin="round" x1="193.78" y1="150.892" x2="199.917" y2="152.465"/>
			
				<line fill="none" stroke="#000000" stroke-width="0.75" stroke-linecap="round" stroke-linejoin="round" x1="191.67" y1="150.451" x2="189.766" y2="156.486"/>
			
				<line fill="none" stroke="#000000" stroke-width="0.75" stroke-linecap="round" stroke-linejoin="round" x1="193.78" y1="154.086" x2="187.856" y2="152.561"/>
			
				<line fill="none" stroke="#000000" stroke-width="0.75" stroke-linecap="round" stroke-linejoin="round" x1="183.009" y1="151.441" x2="181.789" y2="157.27"/>
			
				<line fill="none" stroke="#000000" stroke-width="0.75" stroke-linecap="round" stroke-linejoin="round" x1="179.336" y1="153.543" x2="185.484" y2="155.179"/>
			
				<line fill="none" stroke="#000000" stroke-width="0.75" stroke-linecap="round" stroke-linejoin="round" x1="174.202" y1="151.831" x2="173.468" y2="157.644"/>
			
				<line fill="none" stroke="#000000" stroke-width="0.75" stroke-linecap="round" stroke-linejoin="round" x1="170.739" y1="153.92" x2="176.869" y2="155.57"/>
			
				<line fill="none" stroke="#000000" stroke-width="0.75" stroke-linecap="round" stroke-linejoin="round" x1="161.956" y1="150.716" x2="162.234" y2="156.486"/>
			
				<line fill="none" stroke="#000000" stroke-width="0.75" stroke-linecap="round" stroke-linejoin="round" x1="159.062" y1="152.794" x2="165.154" y2="154.426"/>
		</g>
		<g>
			<polygon fill="none" stroke="#000000" stroke-miterlimit="10" points="369.74,191.392 240.975,305 241.829,69.158 
				384.195,27.289 			"/>
		</g>
		<g>
			<polygon fill="none" stroke="#000000" stroke-linejoin="round" stroke-miterlimit="10" points="241.829,69.158 79.366,46.071 
				252.378,17 384.195,27.289 			"/>
		</g>
		<g>
			<polygon fill="none" stroke="#000000" stroke-linecap="round" stroke-miterlimit="10" points="79.366,46.071 97.958,243.833 
				240.975,305 241.829,69.158 			"/>
		</g>
		<circle cx="133.884" cy="118.146" r="3"/>
		<polyline fill="none" stroke="#000000" stroke-width="0.75" stroke-miterlimit="10" points="254.842,124.291 288.627,73.731 
			307.586,73.731 		"/>
		<g>
			<g>
				<line fill="none" stroke="#0DB14B" stroke-width="2" x1="79.724" y1="45.975" x2="83.13" y2="85.179"/>
				<g>
					<polygon fill="#0DB14B" points="79.451,83.112 84.05,95.771 86.397,82.509 					"/>
				</g>
			</g>
		</g>
		<g>
			<g>
				
					<line fill="none" stroke="#ED1C24" stroke-width="2" stroke-linecap="round" x1="79.553" y1="45.759" x2="122.847" y2="38.688"/>
				<g>
					<polygon fill="#ED1C24" points="121.062,42.512 133.339,36.975 119.938,35.631 					"/>
				</g>
			</g>
		</g>
		<g>
			<g>
				<line fill="none" stroke="#00AEEF" stroke-width="2" stroke-linecap="round" x1="79.366" y1="45.75" x2="114.982" y2="50.98"/>
				<g>
					<polygon fill="#00AEEF" points="112.124,54.084 125.501,52.524 113.137,47.185 					"/>
				</g>
			</g>
		</g>
		<g>
			<polygon fill="#B2CEE7" points="378.499,89.884 307.586,89.884 307.586,67.68 380.638,67.68 			"/>
			<polygon fill="#F5EED6" points="380.638,67.68 479.751,67.68 479.751,89.884 378.499,89.884 			"/>
			<rect x="309.522" y="70.873" fill="none" width="170.229" height="19.011"/>
			<text transform="matrix(1 0 0 1 309.5225 76.5972)"><tspan x="0" y="0" font-size="8">Curve described by Animation Curve Sequence</tspan><tspan x="0" y="9.6" font-size="8">(0070,xA04) </tspan></text>
		</g>
		<g>
			<polygon fill="#F5EED6" points="87.604,131.946 22.249,131.946 22.249,110.539 85.396,110.539 			"/>
			<polygon fill="#CCDEF0" points="85.396,110.539 127.749,110.539 127.749,131.946 87.729,131.946 			"/>
			<rect x="28.854" y="114" fill="none" width="102.201" height="19.011"/>
			<text transform="matrix(1 0 0 1 28.854 119.7222)"><tspan x="0" y="0" font-size="8">MPR Top Left Hand Corner</tspan><tspan x="0" y="9.6" font-size="8">(0070,x505) </tspan></text>
		</g>
	</g>
</g>
</svg>
