<?xml version="1.0" encoding="utf-8"?>

<!DOCTYPE svg PUBLIC "-//W3C//DTD SVG 1.1//EN" "http://www.w3.org/Graphics/SVG/1.1/DTD/svg11.dtd">
<svg version="1.1" id="Layer_1" xmlns="http://www.w3.org/2000/svg" xmlns:xlink="http://www.w3.org/1999/xlink" x="0px" y="0px"
	 width="502.001px" height="307px" viewBox="0 0 502.001 307" enable-background="new 0 0 502.001 307" xml:space="preserve">

<defs>
	<style type="text/css">
	text {
	  font-family: Helvetica, Verdana, ArialUnicodeMS, san-serif
	}
	</style>
</defs>

<g>
   <desc>
	PS 3.4 Service Class Specifications
   </desc>
</g>

<g>
	<rect x="1" y="1" fill="#F5EED6" width="500.001" height="305"/>
	<g>
		
			<rect x="287.128" y="90.483" fill="#CCDEF0" stroke="#010101" stroke-width="0.75" stroke-linecap="round" stroke-linejoin="round" stroke-miterlimit="1" width="51" height="196.592"/>
		<g>
			<text transform="matrix(1 0 0 1 298.457 184.957)"><tspan x="0" y="0" font-size="6">Volumetric</tspan><tspan x="-2.674" y="5.49" font-size="6">Presentation</tspan><tspan x="-3.504" y="10.98" font-size="6">State Display</tspan></text>
		</g>
		<g>
			<text transform="matrix(1 0 0 1 342.0498 185.165)" font-size="6">PCS-Values</text>
		</g>
		<g>
			<g>
				<polyline fill="none" stroke="#000000" stroke-width="0.5" stroke-miterlimit="1" points="114.255,127.987 205.501,127.987 
					205.501,116.027 				"/>
				<g>
					<polygon points="206.663,116.82 205.501,112.483 204.339,116.82 					"/>
				</g>
			</g>
		</g>
		<g>
			<g>
				<polyline fill="none" stroke="#000000" stroke-width="0.5" stroke-miterlimit="1" points="205.501,127.987 253.814,127.987 
					253.814,116.027 				"/>
				<g>
					<polygon points="254.977,116.82 253.814,112.483 252.652,116.82 					"/>
				</g>
			</g>
		</g>
		<g>
			<g>
				<polyline fill="none" stroke="#000000" stroke-width="0.5" stroke-miterlimit="1" points="393.632,174.494 393.632,63.958 
					378.128,63.958 				"/>
				<g>
					<polygon points="394.794,173.702 393.632,178.038 392.47,173.702 					"/>
				</g>
			</g>
		</g>
		<g>
			<g>
				
					<line fill="none" stroke="#000000" stroke-width="0.5" stroke-miterlimit="1" x1="234.604" y1="26.433" x2="100.265" y2="26.433"/>
				<g>
					<polygon points="233.811,25.271 238.147,26.433 233.811,27.595 					"/>
				</g>
			</g>
		</g>
		<g>
			<g>
				<polyline fill="none" stroke="#000000" stroke-width="0.5" stroke-miterlimit="1" points="408.632,174.494 408.632,26.433 
					268.814,26.433 				"/>
				<g>
					<polygon points="409.794,173.702 408.632,178.038 407.47,173.702 					"/>
				</g>
			</g>
		</g>
		<g>
			<g>
				
					<line fill="none" stroke="#005695" stroke-width="2" stroke-miterlimit="1" x1="59.996" y1="101.483" x2="76.909" y2="101.483"/>
				<g>
					<polygon fill="#005695" points="75.323,103.808 83.996,101.483 75.323,99.159 					"/>
				</g>
			</g>
		</g>
		<g>
			<g>
				
					<line fill="none" stroke="#005695" stroke-width="2" stroke-miterlimit="1" x1="114.256" y1="101.483" x2="125.168" y2="101.483"/>
				<g>
					<polygon fill="#005695" points="123.583,103.808 132.256,101.483 123.583,99.159 					"/>
				</g>
			</g>
		</g>
		
			<rect x="84.102" y="90.483" fill="#CCDEF0" stroke="#010101" stroke-width="0.75" stroke-linecap="round" stroke-linejoin="round" stroke-miterlimit="1" width="30" height="22"/>
		<g>
			<text transform="matrix(1 0 0 1 87.4321 103.1509)" font-size="6">VOI LUT</text>
		</g>
		<g>
			<g>
				
					<line fill="none" stroke="#005695" stroke-width="2" stroke-miterlimit="1" x1="172.271" y1="101.483" x2="183.183" y2="101.483"/>
				<g>
					<polygon fill="#005695" points="181.598,103.808 190.271,101.483 181.598,99.159 					"/>
				</g>
			</g>
		</g>
		<g>
			<g>
				
					<line fill="none" stroke="#005695" stroke-width="2" stroke-miterlimit="1" x1="220.53" y1="101.483" x2="231.443" y2="101.483"/>
				<g>
					<polygon fill="#005695" points="229.857,103.808 238.53,101.483 229.857,99.159 					"/>
				</g>
			</g>
		</g>
		<g>
			<g>
				
					<line fill="none" stroke="#005695" stroke-width="2" stroke-miterlimit="1" x1="220.53" y1="154.513" x2="231.443" y2="154.513"/>
				<g>
					<polygon fill="#005695" points="229.857,156.837 238.53,154.513 229.857,152.188 					"/>
				</g>
			</g>
		</g>
		
			<rect x="190.501" y="90.483" fill="#CCDEF0" stroke="#010101" stroke-width="0.75" stroke-linecap="round" stroke-linejoin="round" stroke-miterlimit="1" width="30" height="22"/>
		<g>
			<text transform="matrix(1 0 0 1 193.3262 103.1509)" font-size="6">Cropping</text>
		</g>
		
			<rect x="190.501" y="143.513" fill="#CCDEF0" stroke="#010101" stroke-width="0.75" stroke-linecap="round" stroke-linejoin="round" stroke-miterlimit="1" width="30" height="22"/>
		<g>
			<text transform="matrix(1 0 0 1 193.3262 156.1797)" font-size="6">Cropping</text>
		</g>
		<g>
			<g>
				
					<line fill="none" stroke="#005695" stroke-width="2" stroke-miterlimit="1" x1="269.128" y1="101.483" x2="280.04" y2="101.483"/>
				<g>
					<polygon fill="#005695" points="278.455,103.808 287.128,101.483 278.455,99.159 					"/>
				</g>
			</g>
		</g>
		
			<rect x="238.814" y="90.483" fill="#CCDEF0" stroke="#010101" stroke-width="0.75" stroke-linecap="round" stroke-linejoin="round" stroke-miterlimit="1" width="30" height="22"/>
		<g>
			<text transform="matrix(1 0 0 1 247.1475 103.1509)" font-size="6">MPR</text>
		</g>
		
			<rect x="238.814" y="15.433" fill="#CCDEF0" stroke="#010101" stroke-width="0.75" stroke-linecap="round" stroke-linejoin="round" stroke-miterlimit="1" width="30" height="22"/>
		<g>
			<text transform="matrix(1 0 0 1 241.3091 25.355)"><tspan x="0" y="0" font-size="6">MPR and</tspan><tspan x="-0.835" y="5.491" font-size="6">Projection</tspan></text>
		</g>
		
			<rect x="132.227" y="90.483" fill="#CCDEF0" stroke="#010101" stroke-width="0.75" stroke-linecap="round" stroke-linejoin="round" stroke-miterlimit="1" width="40" height="22"/>
		<g>
			<text transform="matrix(1 0 0 1 143.0547 100.4058)"><tspan x="0" y="0" font-size="6">Spatial</tspan><tspan x="-6.835" y="5.491" font-size="6">Registration</tspan></text>
		</g>
		
			<rect x="338.128" y="52.958" fill="#CCDEF0" stroke="#010101" stroke-width="0.75" stroke-linecap="round" stroke-linejoin="round" stroke-miterlimit="1" width="40" height="22"/>
		<g>
			<text transform="matrix(1 0 0 1 347.625 62.8804)"><tspan x="0" y="0" font-size="6">Graphic</tspan><tspan x="-3.842" y="5.491" font-size="6">Annotation</tspan></text>
		</g>
		<g>
			<text transform="matrix(1 0 0 1 38.6182 103.1509)" font-size="6">Input-1</text>
		</g>
		<g>
			<text transform="matrix(1 0 0 1 38.6182 28.1001)" font-size="6">Volume graphics input</text>
		</g>
		<g>
			<text transform="matrix(1 0 0 1 38.6182 130.5029)" font-size="6">Input-1 Specific Parameters</text>
		</g>
		<g>
			<g>
				<polyline fill="none" stroke="#000000" stroke-width="0.5" stroke-miterlimit="1" points="115.089,181.017 206.335,181.017 
					206.335,169.057 				"/>
				<g>
					<polygon points="207.497,169.849 206.335,165.513 205.173,169.849 					"/>
				</g>
			</g>
		</g>
		<g>
			<g>
				<polyline fill="none" stroke="#000000" stroke-width="0.5" stroke-miterlimit="1" points="206.335,181.017 254.647,181.017 
					254.647,169.057 				"/>
				<g>
					<polygon points="255.81,169.849 254.647,165.513 253.485,169.849 					"/>
				</g>
			</g>
		</g>
		<g>
			<g>
				
					<line fill="none" stroke="#005695" stroke-width="2" stroke-miterlimit="1" x1="60.829" y1="154.513" x2="77.742" y2="154.513"/>
				<g>
					<polygon fill="#005695" points="76.156,156.837 84.829,154.513 76.156,152.188 					"/>
				</g>
			</g>
		</g>
		<g>
			<g>
				
					<line fill="none" stroke="#005695" stroke-width="2" stroke-miterlimit="1" x1="115.089" y1="154.513" x2="126.001" y2="154.513"/>
				<g>
					<polygon fill="#005695" points="124.416,156.837 133.089,154.513 124.416,152.188 					"/>
				</g>
			</g>
		</g>
		
			<rect x="84.936" y="143.513" fill="#CCDEF0" stroke="#010101" stroke-width="0.75" stroke-linecap="round" stroke-linejoin="round" stroke-miterlimit="1" width="30" height="22"/>
		<g>
			<text transform="matrix(1 0 0 1 88.2656 156.1797)" font-size="6">VOI LUT</text>
		</g>
		<g>
			<g>
				
					<line fill="none" stroke="#005695" stroke-width="2" stroke-miterlimit="1" x1="173.104" y1="154.513" x2="184.016" y2="154.513"/>
				<g>
					<polygon fill="#005695" points="182.431,156.837 191.104,154.513 182.431,152.188 					"/>
				</g>
			</g>
		</g>
		
			<rect x="386.132" y="177.779" fill="#CCDEF0" stroke="#010101" stroke-width="0.75" stroke-linecap="round" stroke-linejoin="round" stroke-miterlimit="1" width="30" height="22"/>
		<g>
			<text transform="matrix(1 0 0 1 389.127 187.7012)"><tspan x="0" y="0" font-size="6">Graphics</tspan><tspan x="4.5" y="5.49" font-size="6">Layer</tspan></text>
		</g>
		<g>
			<g>
				
					<line fill="none" stroke="#005695" stroke-width="2" stroke-miterlimit="1" x1="269.962" y1="154.513" x2="280.874" y2="154.513"/>
				<g>
					<polygon fill="#005695" points="279.289,156.837 287.962,154.513 279.289,152.188 					"/>
				</g>
			</g>
		</g>
		
			<rect x="239.647" y="143.513" fill="#CCDEF0" stroke="#010101" stroke-width="0.75" stroke-linecap="round" stroke-linejoin="round" stroke-miterlimit="1" width="30" height="22"/>
		<g>
			<text transform="matrix(1 0 0 1 247.981 156.1797)" font-size="6">MPR</text>
		</g>
		
			<rect x="133.061" y="143.513" fill="#CCDEF0" stroke="#010101" stroke-width="0.75" stroke-linecap="round" stroke-linejoin="round" stroke-miterlimit="1" width="40" height="22"/>
		<g>
			<text transform="matrix(1 0 0 1 143.8882 153.4351)"><tspan x="0" y="0" font-size="6">Spatial</tspan><tspan x="-6.835" y="5.491" font-size="6">Registration</tspan></text>
		</g>
		<g>
			<text transform="matrix(1 0 0 1 39.4517 156.1797)" font-size="6">Input-2</text>
		</g>
		<g>
			<text transform="matrix(1 0 0 1 39.4517 183.5322)" font-size="6">Input-2 Specific Parameters</text>
		</g>
		<g>
			<text transform="matrix(1 0 0 1 43.7905 222.8857)" font-size="10">...</text>
		</g>
		<g>
			<g>
				<polyline fill="none" stroke="#000000" stroke-width="0.5" stroke-miterlimit="1" points="114.255,287.075 205.501,287.075 
					205.501,275.115 				"/>
				<g>
					<polygon points="206.663,275.907 205.501,271.571 204.339,275.907 					"/>
				</g>
			</g>
		</g>
		<g>
			<g>
				<polyline fill="none" stroke="#000000" stroke-width="0.5" stroke-miterlimit="1" points="205.501,287.075 253.814,287.075 
					253.814,275.115 				"/>
				<g>
					<polygon points="254.977,275.907 253.814,271.571 252.652,275.907 					"/>
				</g>
			</g>
		</g>
		<g>
			<g>
				
					<line fill="none" stroke="#005695" stroke-width="2" stroke-miterlimit="1" x1="59.996" y1="260.571" x2="76.909" y2="260.571"/>
				<g>
					<polygon fill="#005695" points="75.323,262.896 83.996,260.571 75.323,258.247 					"/>
				</g>
			</g>
		</g>
		<g>
			<g>
				
					<line fill="none" stroke="#005695" stroke-width="2" stroke-miterlimit="1" x1="114.256" y1="260.571" x2="125.168" y2="260.571"/>
				<g>
					<polygon fill="#005695" points="123.583,262.896 132.256,260.571 123.583,258.247 					"/>
				</g>
			</g>
		</g>
		
			<rect x="84.102" y="249.571" fill="#CCDEF0" stroke="#010101" stroke-width="0.75" stroke-linecap="round" stroke-linejoin="round" stroke-miterlimit="1" width="30" height="22"/>
		<g>
			<text transform="matrix(1 0 0 1 87.4321 262.2383)" font-size="6">VOI LUT</text>
		</g>
		<g>
			<g>
				
					<line fill="none" stroke="#005695" stroke-width="2" stroke-miterlimit="1" x1="172.271" y1="260.571" x2="183.183" y2="260.571"/>
				<g>
					<polygon fill="#005695" points="181.598,262.896 190.271,260.571 181.598,258.247 					"/>
				</g>
			</g>
		</g>
		<g>
			<g>
				
					<line fill="none" stroke="#005695" stroke-width="2" stroke-miterlimit="1" x1="220.53" y1="260.571" x2="231.443" y2="260.571"/>
				<g>
					<polygon fill="#005695" points="229.857,262.896 238.53,260.571 229.857,258.247 					"/>
				</g>
			</g>
		</g>
		
			<rect x="190.501" y="249.571" fill="#CCDEF0" stroke="#010101" stroke-width="0.75" stroke-linecap="round" stroke-linejoin="round" stroke-miterlimit="1" width="30" height="22"/>
		<g>
			<text transform="matrix(1 0 0 1 193.3262 262.2383)" font-size="6">Cropping</text>
		</g>
		<g>
			<g>
				
					<line fill="none" stroke="#005695" stroke-width="2" stroke-miterlimit="1" x1="269.128" y1="260.571" x2="280.04" y2="260.571"/>
				<g>
					<polygon fill="#005695" points="278.455,262.896 287.128,260.571 278.455,258.247 					"/>
				</g>
			</g>
		</g>
		<g>
			<g>
				
					<line fill="none" stroke="#005695" stroke-width="2" stroke-miterlimit="1" x1="338.4" y1="188.779" x2="378.792" y2="188.779"/>
				<g>
					<polygon fill="#005695" points="377.207,191.104 385.88,188.779 377.207,186.455 					"/>
				</g>
			</g>
		</g>
		<g>
			<text transform="matrix(1 0 0 1 419.041 185.165)" font-size="6">PCS-Values</text>
		</g>
		<g>
			<g>
				
					<line fill="none" stroke="#005695" stroke-width="2" stroke-miterlimit="1" x1="416.132" y1="188.779" x2="456.294" y2="188.779"/>
				<g>
					<polygon fill="#005695" points="454.709,191.104 463.382,188.779 454.709,186.455 					"/>
				</g>
			</g>
		</g>
		
			<rect x="238.814" y="249.571" fill="#CCDEF0" stroke="#010101" stroke-width="0.75" stroke-linecap="round" stroke-linejoin="round" stroke-miterlimit="1" width="30" height="22"/>
		<g>
			<text transform="matrix(1 0 0 1 247.1475 262.2383)" font-size="6">MPR</text>
		</g>
		
			<rect x="132.227" y="249.571" fill="#CCDEF0" stroke="#010101" stroke-width="0.75" stroke-linecap="round" stroke-linejoin="round" stroke-miterlimit="1" width="40" height="22"/>
		<g>
			<text transform="matrix(1 0 0 1 143.0547 259.4941)"><tspan x="0" y="0" font-size="6">Spatial</tspan><tspan x="-6.835" y="5.49" font-size="6">Registration</tspan></text>
		</g>
		<g>
			<text transform="matrix(1 0 0 1 38.6182 262.2383)" font-size="6">Input-n</text>
		</g>
		<g>
			<text transform="matrix(1 0 0 1 38.6182 289.5908)" font-size="6">Input-n Specific Parameters</text>
		</g>
	</g>
</g>
</svg>
