<?xml version="1.0" encoding="utf-8"?>

<!DOCTYPE svg PUBLIC "-//W3C//DTD SVG 1.1//EN" "http://www.w3.org/Graphics/SVG/1.1/DTD/svg11.dtd">
<svg version="1.1" id="Layer_1" xmlns="http://www.w3.org/2000/svg" xmlns:xlink="http://www.w3.org/1999/xlink" x="0px" y="0px"
	 width="502.001px" height="92px" viewBox="0 0 502.001 92" enable-background="new 0 0 502.001 92" xml:space="preserve">

<defs>
	<style type="text/css">
	text {
	  font-family: Helvetica, Verdana, ArialUnicodeMS, san-serif
	}
	</style>
</defs>

<g>
   <desc>
	PS 3.4 Service Class Specifications
   </desc>
</g>

<g>
	<rect x="1" y="1" fill="#F5EED6" width="500.001" height="90"/>
	<g>
		
			<rect x="279.322" y="15.787" fill="#CCDEF0" stroke="#010101" stroke-width="0.75" stroke-linecap="round" stroke-linejoin="round" stroke-miterlimit="1" width="50" height="50"/>
		<g>
			<text transform="matrix(1 0 0 1 286.9395 36.1646)"><tspan x="0" y="0" font-size="6">Palette Color</tspan><tspan x="8.841" y="6.291" font-size="6">RGBA</tspan><tspan x="11.676" y="12.582" font-size="6">LUT</tspan></text>
		</g>
		
			<rect x="188.906" y="31.787" fill="#CCDEF0" stroke="#010101" stroke-width="0.75" stroke-linecap="round" stroke-linejoin="round" stroke-miterlimit="1" width="46" height="18"/>
		<g>
			<text transform="matrix(1 0 0 1 195.1963 39.3096)"><tspan x="0" y="0" font-size="6">Extract Most</tspan><tspan x="-3.006" y="6.291" font-size="6">Significant Bits</tspan></text>
		</g>
		<g>
			<text transform="matrix(1 0 0 1 334.0938 38.4648)" font-size="6">RGB</text>
		</g>
		<g>
			<text transform="matrix(1 0 0 1 332.9219 73.3809)" font-size="6">Alpha</text>
		</g>
		<g>
			<g>
				<line fill="none" stroke="#005695" stroke-miterlimit="1" x1="235.156" y1="40.787" x2="272.068" y2="40.787"/>
				<g>
					<polygon fill="#005695" points="270.483,43.111 279.156,40.787 270.483,38.463 					"/>
				</g>
			</g>
		</g>
		<g>
			<g>
				<line fill="none" stroke="#005695" stroke-miterlimit="1" x1="142.406" y1="40.787" x2="181.819" y2="40.787"/>
				<g>
					<polygon fill="#005695" points="180.233,43.111 188.906,40.787 180.233,38.463 					"/>
				</g>
			</g>
		</g>
		<g>
			<text transform="matrix(1 0 0 1 144.4424 38.4648)" font-size="6">Scalar value</text>
		</g>
		<g>
			<g>
				<polyline fill="none" stroke="#005695" stroke-miterlimit="1" points="304.322,66.214 304.322,76.214 352.506,76.214 				"/>
				<g>
					<polygon fill="#005695" points="350.921,78.538 359.594,76.214 350.921,73.89 					"/>
				</g>
			</g>
		</g>
		<g>
			<g>
				
					<line fill="none" stroke="#005695" stroke-width="2" stroke-miterlimit="1" x1="329.594" y1="40.787" x2="352.506" y2="40.787"/>
				<g>
					<polygon fill="#005695" points="350.921,43.111 359.594,40.787 350.921,38.463 					"/>
				</g>
			</g>
		</g>
	</g>
</g>
</svg>
