<?xml version="1.0" encoding="utf-8"?>

<!DOCTYPE svg PUBLIC "-//W3C//DTD SVG 1.1//EN" "http://www.w3.org/Graphics/SVG/1.1/DTD/svg11.dtd">
<svg version="1.1" id="Layer_1" xmlns="http://www.w3.org/2000/svg" xmlns:xlink="http://www.w3.org/1999/xlink" x="0px" y="0px"
	 width="502.001px" height="127px" viewBox="0 0 502.001 127" enable-background="new 0 0 502.001 127" xml:space="preserve">

<defs>
	<style type="text/css">
	text {
	  font-family: Helvetica, Verdana, ArialUnicodeMS, san-serif
	}
	</style>
</defs>

<g>
   <desc>
	PS 3.4 Service Class Specifications
   </desc>
</g>

<g>
	<rect x="1" y="1" fill="#F5EED6" width="500.001" height="125"/>
	<g>
		
			<rect x="292.753" y="69.3" fill="#CCDEF0" stroke="#010101" stroke-width="0.75" stroke-linecap="round" stroke-linejoin="round" stroke-miterlimit="1" width="51" height="22"/>
		<g>
			<text transform="matrix(1 0 0 1 304.082 76.4766)"><tspan x="0" y="0" font-size="6">Volumetric</tspan><tspan x="-2.674" y="5.491" font-size="6">Presentation</tspan><tspan x="-3.504" y="10.981" font-size="6">State Display</tspan></text>
		</g>
		<g>
			<text transform="matrix(1 0 0 1 355.5918 76.6855)" font-size="6">P-Values</text>
		</g>
		<g>
			<g>
				<polyline fill="none" stroke="#000000" stroke-width="0.5" stroke-miterlimit="1" points="399.257,66.015 399.257,47.979 
					383.753,47.979 				"/>
				<g>
					<polygon points="400.419,65.223 399.257,69.559 398.095,65.223 					"/>
				</g>
			</g>
		</g>
		<g>
			<g>
				
					<line fill="none" stroke="#000000" stroke-width="0.5" stroke-miterlimit="1" x1="240.229" y1="26.703" x2="105.89" y2="26.703"/>
				<g>
					<polygon points="239.436,25.541 243.772,26.703 239.436,27.865 					"/>
				</g>
			</g>
		</g>
		<g>
			<g>
				<polyline fill="none" stroke="#000000" stroke-width="0.5" stroke-miterlimit="1" points="414.257,66.015 414.257,26.703 
					274.439,26.703 				"/>
				<g>
					<polygon points="415.419,65.223 414.257,69.559 413.095,65.223 					"/>
				</g>
			</g>
		</g>
		
			<rect x="244.439" y="15.703" fill="#CCDEF0" stroke="#010101" stroke-width="0.75" stroke-linecap="round" stroke-linejoin="round" stroke-miterlimit="1" width="30" height="22"/>
		<g>
			<text transform="matrix(1 0 0 1 246.9341 25.6255)"><tspan x="0" y="0" font-size="6">MPR and</tspan><tspan x="-0.835" y="5.491" font-size="6">Projection</tspan></text>
		</g>
		
			<rect x="343.753" y="36.979" fill="#CCDEF0" stroke="#010101" stroke-width="0.75" stroke-linecap="round" stroke-linejoin="round" stroke-miterlimit="1" width="40" height="22"/>
		<g>
			<text transform="matrix(1 0 0 1 353.25 46.9009)"><tspan x="0" y="0" font-size="6">Graphic</tspan><tspan x="-3.842" y="5.491" font-size="6">Annotation</tspan></text>
		</g>
		<g>
			<text transform="matrix(1 0 0 1 44.2432 28.3706)" font-size="6">Volume graphics input</text>
		</g>
		<g>
			<g>
				<g>
					<polyline fill="none" stroke="#000000" stroke-width="0.5" stroke-miterlimit="1" points="119.88,106.804 211.126,106.804 
						211.126,94.844 					"/>
					<g>
						<polygon points="212.288,95.636 211.126,91.3 209.964,95.636 						"/>
					</g>
				</g>
			</g>
			<g>
				<g>
					<polyline fill="none" stroke="#000000" stroke-width="0.5" stroke-miterlimit="1" points="211.126,106.804 259.439,106.804 
						259.439,94.844 					"/>
					<g>
						<polygon points="260.602,95.636 259.439,91.3 258.277,95.636 						"/>
					</g>
				</g>
			</g>
			<g>
				<g>
					<line fill="none" stroke="#005695" stroke-width="2" stroke-miterlimit="1" x1="65.621" y1="80.3" x2="82.534" y2="80.3"/>
					<g>
						<polygon fill="#005695" points="80.948,82.624 89.621,80.3 80.948,77.976 						"/>
					</g>
				</g>
			</g>
			<g>
				<g>
					<line fill="none" stroke="#005695" stroke-width="2" stroke-miterlimit="1" x1="119.881" y1="80.3" x2="130.793" y2="80.3"/>
					<g>
						<polygon fill="#005695" points="129.208,82.624 137.881,80.3 129.208,77.976 						"/>
					</g>
				</g>
			</g>
			
				<rect x="89.727" y="69.3" fill="#CCDEF0" stroke="#010101" stroke-width="0.75" stroke-linecap="round" stroke-linejoin="round" stroke-miterlimit="1" width="30" height="22"/>
			<g>
				<text transform="matrix(1 0 0 1 93.0571 81.9668)" font-size="6">VOI LUT</text>
			</g>
			<g>
				<g>
					<line fill="none" stroke="#005695" stroke-width="2" stroke-miterlimit="1" x1="177.896" y1="80.3" x2="188.808" y2="80.3"/>
					<g>
						<polygon fill="#005695" points="187.223,82.624 195.896,80.3 187.223,77.976 						"/>
					</g>
				</g>
			</g>
			<g>
				<g>
					<line fill="none" stroke="#005695" stroke-width="2" stroke-miterlimit="1" x1="226.155" y1="80.3" x2="237.068" y2="80.3"/>
					<g>
						<polygon fill="#005695" points="235.482,82.624 244.155,80.3 235.482,77.976 						"/>
					</g>
				</g>
			</g>
			
				<rect x="196.126" y="69.3" fill="#CCDEF0" stroke="#010101" stroke-width="0.75" stroke-linecap="round" stroke-linejoin="round" stroke-miterlimit="1" width="30" height="22"/>
			<g>
				<text transform="matrix(1 0 0 1 198.9512 81.9668)" font-size="6">Cropping</text>
			</g>
			<g>
				<g>
					<line fill="none" stroke="#005695" stroke-width="2" stroke-miterlimit="1" x1="274.753" y1="80.3" x2="285.665" y2="80.3"/>
					<g>
						<polygon fill="#005695" points="284.08,82.624 292.753,80.3 284.08,77.976 						"/>
					</g>
				</g>
			</g>
			
				<rect x="244.439" y="69.3" fill="#CCDEF0" stroke="#010101" stroke-width="0.75" stroke-linecap="round" stroke-linejoin="round" stroke-miterlimit="1" width="30" height="22"/>
			<g>
				<text transform="matrix(1 0 0 1 252.7725 81.9668)" font-size="6">MPR</text>
			</g>
			
				<rect x="137.852" y="69.3" fill="#CCDEF0" stroke="#010101" stroke-width="0.75" stroke-linecap="round" stroke-linejoin="round" stroke-miterlimit="1" width="40" height="22"/>
			<g>
				<text transform="matrix(1 0 0 1 148.6797 79.2227)"><tspan x="0" y="0" font-size="6">Spatial</tspan><tspan x="-6.835" y="5.49" font-size="6">Registration</tspan></text>
			</g>
			<g>
				<text transform="matrix(1 0 0 1 44.2432 81.9668)" font-size="6">Input-1</text>
			</g>
			<g>
				<text transform="matrix(1 0 0 1 44.2432 109.3193)" font-size="6">Input-1 Specific Parameters</text>
			</g>
		</g>
		
			<rect x="391.757" y="69.3" fill="#CCDEF0" stroke="#010101" stroke-width="0.75" stroke-linecap="round" stroke-linejoin="round" stroke-miterlimit="1" width="30" height="22"/>
		<g>
			<text transform="matrix(1 0 0 1 394.752 79.2217)"><tspan x="0" y="0" font-size="6">Graphics</tspan><tspan x="4.5" y="5.491" font-size="6">Layer</tspan></text>
		</g>
		<g>
			<g>
				<line fill="none" stroke="#005695" stroke-width="2" stroke-miterlimit="1" x1="344.025" y1="80.3" x2="384.417" y2="80.3"/>
				<g>
					<polygon fill="#005695" points="382.832,82.624 391.505,80.3 382.832,77.976 					"/>
				</g>
			</g>
		</g>
		<g>
			<text transform="matrix(1 0 0 1 427.584 76.6855)" font-size="6">P-Values</text>
		</g>
		<g>
			<g>
				<line fill="none" stroke="#005695" stroke-width="2" stroke-miterlimit="1" x1="421.757" y1="80.3" x2="450.669" y2="80.3"/>
				<g>
					<polygon fill="#005695" points="449.084,82.624 457.757,80.3 449.084,77.976 					"/>
				</g>
			</g>
		</g>
	</g>
</g>
</svg>
