<?xml version="1.0" encoding="utf-8"?>

<!DOCTYPE svg PUBLIC "-//W3C//DTD SVG 1.1//EN" "http://www.w3.org/Graphics/SVG/1.1/DTD/svg11.dtd">
<svg version="1.1" id="Layer_1" xmlns="http://www.w3.org/2000/svg" xmlns:xlink="http://www.w3.org/1999/xlink" x="0px" y="0px"
	 width="502.001px" height="292px" viewBox="0 0 502.001 292" enable-background="new 0 0 502.001 292" xml:space="preserve">

<defs>
	<style type="text/css">
	text {
	  font-family: Helvetica, Verdana, ArialUnicodeMS, san-serif
	}
	</style>
</defs>

<g>
   <desc>
	PS 3.4 Service Class Specifications
   </desc>
</g>

<g>
	<rect x="1" y="1" fill="#F5EED6" width="500.001" height="290"/>
	<g>
		
			<rect x="404.466" y="121" fill="#CCDEF0" stroke="#010101" stroke-width="0.75" stroke-linecap="round" stroke-linejoin="round" stroke-miterlimit="1" width="67" height="50"/>
		<g>
			<text transform="matrix(1 0 0 1 417.959 147.668)" font-size="6">Animated View</text>
		</g>
		<g>
			
				<rect x="156.284" y="16" fill="#CCDEF0" stroke="#010101" stroke-width="0.75" stroke-linecap="round" stroke-linejoin="round" stroke-miterlimit="1" width="178" height="50"/>
			<g>
				<rect x="159.901" y="20" fill="none" width="171.5" height="19.763"/>
				<text transform="matrix(1 0 0 1 159.9014 24.2949)"><tspan x="0" y="0" font-size="6">Volumetric Presentation State</tspan><tspan x="6" y="6.29" font-size="6">Presentation Sequence Collection UID (0070,x102) = x y z</tspan><tspan x="6" y="12.581" font-size="6">Presentation Sequence Position Index (0070,x103) = n</tspan></text>
			</g>
		</g>
		<g>
			
				<rect x="156.284" y="86" fill="#CCDEF0" stroke="#9D9FA2" stroke-width="0.75" stroke-linecap="round" stroke-linejoin="round" stroke-miterlimit="1" stroke-dasharray="4" width="178" height="50"/>
			<g>
				<rect x="159.901" y="90" fill="none" width="171.5" height="19.763"/>
				<text transform="matrix(1 0 0 1 159.9014 94.2949)"><tspan x="0" y="0" fill="#9D9FA2" font-size="6">Volumetric Presentation State</tspan><tspan x="6" y="6.29" fill="#9D9FA2" font-size="6">Presentation Sequence Collection UID (0070,x102) = x y z</tspan><tspan x="6" y="12.581" fill="#9D9FA2" font-size="6">Presentation Sequence Position Index (0070,x103) = ...</tspan></text>
			</g>
		</g>
		<g>
			
				<rect x="156.284" y="156" fill="#CCDEF0" stroke="#010101" stroke-width="0.75" stroke-linecap="round" stroke-linejoin="round" stroke-miterlimit="1" width="178" height="50"/>
			<g>
				<rect x="159.901" y="160" fill="none" width="171.5" height="19.764"/>
				<text transform="matrix(1 0 0 1 159.9014 164.2949)"><tspan x="0" y="0" font-size="6">Volumetric Presentation State</tspan><tspan x="6" y="6.29" font-size="6">Presentation Sequence Collection UID (0070,x102) = x y z</tspan><tspan x="6" y="12.581" font-size="6">Presentation Sequence Position Index (0070,x103) = 2</tspan></text>
			</g>
		</g>
		
			<rect x="42.042" y="118.244" fill="#CCDEF0" stroke="#010101" stroke-width="0.75" stroke-linecap="round" stroke-linejoin="round" stroke-miterlimit="1" width="40" height="20"/>
		<g>
			<rect x="44.409" y="120.849" fill="none" width="15.5" height="7.292"/>
			<text transform="matrix(1 0 0 1 44.4087 125.1426)" font-size="6">Input</text>
		</g>
		<g>
			
				<rect x="156.284" y="226" fill="#CCDEF0" stroke="#010101" stroke-width="0.75" stroke-linecap="round" stroke-linejoin="round" stroke-miterlimit="1" width="178" height="50"/>
			<g>
				<rect x="159.901" y="230" fill="none" width="171.5" height="19.764"/>
				<text transform="matrix(1 0 0 1 159.9014 234.293)"><tspan x="0" y="0" font-size="6">Volumetric Presentation State</tspan><tspan x="6" y="6.289" font-size="6">Presentation Sequence Collection UID (0070,x102) = x y z</tspan><tspan x="6" y="12.58" font-size="6">Presentation Sequence Position Index (0070,x103) = 1</tspan></text>
			</g>
		</g>
		<g>
			<g>
				<line fill="none" stroke="#000000" stroke-miterlimit="1" x1="400.075" y1="125.435" x2="334.284" y2="42.07"/>
				<g>
					<polygon points="400.918,122.75 404.466,130.998 397.269,125.63 					"/>
				</g>
			</g>
		</g>
		<g>
			<g>
				<line fill="none" stroke="#000000" stroke-miterlimit="1" x1="82.042" y1="128.244" x2="151.658" y2="47.44"/>
				<g>
					<polygon points="152.384,50.158 156.284,42.07 148.863,47.124 					"/>
				</g>
			</g>
		</g>
		<g>
			<line fill="#CCDEF0" x1="82.042" y1="128.244" x2="156.284" y2="111"/>
			<g>
				
					<line fill="none" stroke="#9D9FA2" stroke-width="0.75" stroke-linecap="round" stroke-linejoin="round" stroke-dasharray="4,4" x1="82.042" y1="128.244" x2="151.106" y2="112.203"/>
				<g>
					<polygon fill="#9D9FA2" points="150.343,114.169 156.284,111 149.554,110.773 					"/>
				</g>
			</g>
		</g>
		<g>
			<g>
				<line fill="none" stroke="#000000" stroke-miterlimit="1" x1="82.042" y1="128.244" x2="150.546" y2="177.91"/>
				<g>
					<polygon points="147.898,178.861 156.284,182.07 150.627,175.098 					"/>
				</g>
			</g>
		</g>
		<g>
			<g>
				<line fill="none" stroke="#000000" stroke-miterlimit="1" x1="82.042" y1="128.244" x2="152.616" y2="244.936"/>
				<g>
					<polygon points="149.807,244.782 156.284,251 153.785,242.376 					"/>
				</g>
			</g>
		</g>
		<g>
			<g>
				<line fill="none" stroke="#000000" stroke-miterlimit="1" x1="397.365" y1="153.896" x2="334.284" y2="182.07"/>
				<g>
					<polygon points="394.971,152.42 403.837,151.005 396.866,156.664 					"/>
				</g>
			</g>
		</g>
		<g>
			<g>
				<line fill="none" stroke="#000000" stroke-miterlimit="1" x1="399.503" y1="166.61" x2="334.284" y2="251"/>
				<g>
					<polygon points="396.694,166.443 403.837,161.002 400.373,169.285 					"/>
				</g>
			</g>
		</g>
		<g>
			<line fill="#CCDEF0" x1="403.837" y1="140.995" x2="334.284" y2="112.07"/>
			<g>
				
					<line fill="none" stroke="#9D9FA2" stroke-width="0.75" stroke-linecap="round" stroke-linejoin="round" stroke-dasharray="4,4" x1="398.929" y1="138.954" x2="334.284" y2="112.07"/>
				<g>
					<polygon fill="#9D9FA2" points="398.5,136.888 403.837,140.995 397.162,140.107 					"/>
				</g>
			</g>
		</g>
		<g>
			<g>
				<path fill="none" stroke="#000000" stroke-miterlimit="1" d="M369.311,152.768c-2.166,3.184-5.819,5.271-9.959,5.271
					c-6.651,0-12.041-5.389-12.041-12.035c0-6.651,5.39-12.041,12.041-12.041c1.707,0,3.332,0.356,4.805,0.998"/>
				<g>
					<polygon points="361.725,135.888 369.014,138.82 364.168,132.636 					"/>
				</g>
			</g>
		</g>
		
			<rect x="35.534" y="128.5" fill="#CCDEF0" stroke="#010101" stroke-width="0.75" stroke-linecap="round" stroke-linejoin="round" stroke-miterlimit="1" width="40" height="20"/>
		<g>
			<rect x="37.901" y="131.104" fill="none" width="15.5" height="7.292"/>
			<text transform="matrix(1 0 0 1 37.9014 135.3984)" font-size="6">Input</text>
		</g>
		
			<rect x="30.534" y="139.75" fill="#CCDEF0" stroke="#010101" stroke-width="0.75" stroke-linecap="round" stroke-linejoin="round" stroke-miterlimit="1" width="40" height="20"/>
		<g>
			<rect x="32.901" y="142.354" fill="none" width="15.5" height="7.292"/>
			<text transform="matrix(1 0 0 1 32.9014 146.6484)" font-size="6">Input</text>
		</g>
	</g>
</g>
</svg>
