<?xml version="1.0" encoding="utf-8"?>

<!DOCTYPE svg PUBLIC "-//W3C//DTD SVG 1.1//EN" "http://www.w3.org/Graphics/SVG/1.1/DTD/svg11.dtd">
<svg version="1.1" id="Layer_1" xmlns="http://www.w3.org/2000/svg" xmlns:xlink="http://www.w3.org/1999/xlink" x="0px" y="0px"
	 width="502.001px" height="367px" viewBox="0 0 502.001 367" enable-background="new 0 0 502.001 367" xml:space="preserve">

<defs>
	<style type="text/css">
	text {
	  font-family: Helvetica, Verdana, ArialUnicodeMS, san-serif
	}
	</style>
</defs>

<g>
   <desc>
	PS 3.4 Service Class Specifications
   </desc>
</g>

<g>
	<rect x="1" y="1" fill="#F5EED6" width="500.001" height="365"/>
	<g>
		
			<rect x="281.685" y="158.5" fill="#B2CEE7" stroke="#010101" stroke-width="0.75" stroke-linecap="round" stroke-linejoin="round" stroke-miterlimit="1" width="97" height="50"/>
		
			<rect x="286.685" y="158.5" fill="#CCDEF0" stroke="#010101" stroke-width="0.75" stroke-linecap="round" stroke-linejoin="round" stroke-miterlimit="1" width="87" height="50"/>
		<g>
			<text transform="matrix(1 0 0 1 291.498 185.168)" font-size="6">Presentation State Geometry</text>
		</g>
		
			<rect x="410.182" y="158.5" fill="#CCDEF0" stroke="#010101" stroke-width="0.75" stroke-linecap="round" stroke-linejoin="round" stroke-miterlimit="1" width="67" height="50"/>
		<g>
			<text transform="matrix(1 0 0 1 423.6748 185.168)" font-size="6">Animated View</text>
		</g>
		<g>
			<g>
				<line fill="none" stroke="#000000" stroke-miterlimit="1" x1="278.384" y1="162.227" x2="214.442" y2="40.75"/>
				<g>
					<polygon points="279.702,159.741 281.685,168.498 275.588,161.906 					"/>
				</g>
			</g>
		</g>
		<g>
			<g>
				<line fill="none" stroke="#000000" stroke-miterlimit="1" x1="275.15" y1="191.25" x2="214.442" y2="216.75"/>
				<g>
					<polygon points="272.789,189.721 281.685,188.505 274.589,194.007 					"/>
				</g>
			</g>
		</g>
		<g>
			<g>
				<line fill="none" stroke="#000000" stroke-width="3" stroke-miterlimit="1" x1="396.893" y1="183.5" x2="378.685" y2="183.5"/>
				<g>
					<polygon points="393.92,179.142 410.182,183.5 393.92,187.857 					"/>
				</g>
			</g>
		</g>
		<g>
			<g>
				<line fill="none" stroke="#000000" stroke-miterlimit="1" x1="277.895" y1="204.491" x2="214.442" y2="304.75"/>
				<g>
					<polygon points="275.083,204.587 281.685,198.502 279.011,207.073 					"/>
				</g>
			</g>
		</g>
		<g>
			<line fill="#CCDEF0" x1="281.685" y1="178.495" x2="214.442" y2="128.75"/>
			<g>
				
					<line fill="none" stroke="#9D9FA2" stroke-width="0.75" stroke-linecap="round" stroke-linejoin="round" stroke-dasharray="4,4" x1="277.411" y1="175.333" x2="214.442" y2="128.75"/>
				<g>
					<polygon fill="#9D9FA2" points="277.492,173.225 281.685,178.495 275.419,176.028 					"/>
				</g>
			</g>
		</g>
		<g>
			<g>
				
					<rect x="36.442" y="15.75" fill="#CCDEF0" stroke="#010101" stroke-width="0.75" stroke-linecap="round" stroke-linejoin="round" stroke-miterlimit="1" width="178" height="50"/>
				<g>
					<rect x="40.06" y="19.75" fill="none" width="171.5" height="15"/>
					<text transform="matrix(1 0 0 1 40.0596 24.0449)"><tspan x="0" y="0" font-size="6">Volumetric Presentation State Input Sequence (0070,x201) item </tspan><tspan x="6" y="8" font-size="6">Input Sequence Position Index (0070,x203) = n</tspan></text>
				</g>
			</g>
			<g>
				
					<rect x="24.819" y="37.25" fill="#CCDEF0" stroke="#010101" stroke-width="0.75" stroke-linecap="round" stroke-linejoin="round" stroke-miterlimit="1" width="178" height="50"/>
				<g>
					<rect x="28.437" y="41.25" fill="none" width="171.5" height="15"/>
					<text transform="matrix(1 0 0 1 28.4365 45.5449)"><tspan x="0" y="0" font-size="6">Volumetric Presentation State Input Sequence (0070,x201) item </tspan><tspan x="6" y="8" font-size="6">Input Sequence Position Index (0070,x203) = n</tspan></text>
				</g>
			</g>
			<g>
				<g>
					<rect x="36.442" y="103.75" fill="#CCDEF0" width="178" height="50"/>
					<g>
						<polyline fill="none" stroke="#9D9FA2" stroke-width="0.75" stroke-linecap="round" stroke-linejoin="round" points="
							214.442,151.75 214.442,153.75 212.442,153.75 						"/>
						
							<line fill="none" stroke="#9D9FA2" stroke-width="0.75" stroke-linecap="round" stroke-linejoin="round" stroke-dasharray="4.0465,4.0465" x1="208.396" y1="153.75" x2="40.466" y2="153.75"/>
						<polyline fill="none" stroke="#9D9FA2" stroke-width="0.75" stroke-linecap="round" stroke-linejoin="round" points="
							38.442,153.75 36.442,153.75 36.442,151.75 						"/>
						
							<line fill="none" stroke="#9D9FA2" stroke-width="0.75" stroke-linecap="round" stroke-linejoin="round" stroke-dasharray="4.1818,4.1818" x1="36.442" y1="147.568" x2="36.442" y2="107.841"/>
						<polyline fill="none" stroke="#9D9FA2" stroke-width="0.75" stroke-linecap="round" stroke-linejoin="round" points="
							36.442,105.75 36.442,103.75 38.442,103.75 						"/>
						
							<line fill="none" stroke="#9D9FA2" stroke-width="0.75" stroke-linecap="round" stroke-linejoin="round" stroke-dasharray="4.0465,4.0465" x1="42.489" y1="103.75" x2="210.419" y2="103.75"/>
						<polyline fill="none" stroke="#9D9FA2" stroke-width="0.75" stroke-linecap="round" stroke-linejoin="round" points="
							212.442,103.75 214.442,103.75 214.442,105.75 						"/>
						
							<line fill="none" stroke="#9D9FA2" stroke-width="0.75" stroke-linecap="round" stroke-linejoin="round" stroke-dasharray="4.1818,4.1818" x1="214.442" y1="109.932" x2="214.442" y2="149.659"/>
					</g>
				</g>
				<g>
					<rect x="40.06" y="107.75" fill="none" width="171.5" height="15"/>
					<text transform="matrix(1 0 0 1 40.0596 112.0449)" font-size="6">...</text>
				</g>
			</g>
			<g>
				<g>
					<rect x="24.819" y="125.25" fill="#CCDEF0" width="178" height="50"/>
					<g>
						<polyline fill="none" stroke="#9D9FA2" stroke-width="0.75" stroke-linecap="round" stroke-linejoin="round" points="
							202.819,173.25 202.819,175.25 200.819,175.25 						"/>
						
							<line fill="none" stroke="#9D9FA2" stroke-width="0.75" stroke-linecap="round" stroke-linejoin="round" stroke-dasharray="4.0465,4.0465" x1="196.773" y1="175.25" x2="28.843" y2="175.25"/>
						<polyline fill="none" stroke="#9D9FA2" stroke-width="0.75" stroke-linecap="round" stroke-linejoin="round" points="
							26.819,175.25 24.819,175.25 24.819,173.25 						"/>
						
							<line fill="none" stroke="#9D9FA2" stroke-width="0.75" stroke-linecap="round" stroke-linejoin="round" stroke-dasharray="4.1818,4.1818" x1="24.819" y1="169.068" x2="24.819" y2="129.341"/>
						<polyline fill="none" stroke="#9D9FA2" stroke-width="0.75" stroke-linecap="round" stroke-linejoin="round" points="
							24.819,127.25 24.819,125.25 26.819,125.25 						"/>
						
							<line fill="none" stroke="#9D9FA2" stroke-width="0.75" stroke-linecap="round" stroke-linejoin="round" stroke-dasharray="4.0465,4.0465" x1="30.866" y1="125.25" x2="198.796" y2="125.25"/>
						<polyline fill="none" stroke="#9D9FA2" stroke-width="0.75" stroke-linecap="round" stroke-linejoin="round" points="
							200.819,125.25 202.819,125.25 202.819,127.25 						"/>
						
							<line fill="none" stroke="#9D9FA2" stroke-width="0.75" stroke-linecap="round" stroke-linejoin="round" stroke-dasharray="4.1818,4.1818" x1="202.819" y1="131.432" x2="202.819" y2="171.159"/>
					</g>
				</g>
				<g>
					<rect x="28.437" y="129.25" fill="none" width="171.5" height="15"/>
					<text transform="matrix(1 0 0 1 28.4365 133.5449)" font-size="6">...</text>
				</g>
			</g>
			<g>
				
					<rect x="36.442" y="191.75" fill="#CCDEF0" stroke="#010101" stroke-width="0.75" stroke-linecap="round" stroke-linejoin="round" stroke-miterlimit="1" width="178" height="50"/>
				<g>
					<rect x="40.06" y="195.75" fill="none" width="171.5" height="15"/>
					<text transform="matrix(1 0 0 1 40.0596 200.0449)"><tspan x="0" y="0" font-size="6">Volumetric Presentation State Input Sequence (0070,x201) item </tspan><tspan x="6" y="8" font-size="6">Input Sequence Position Index (0070,x203) = 2</tspan></text>
				</g>
			</g>
			<g>
				
					<rect x="24.819" y="213.25" fill="#CCDEF0" stroke="#010101" stroke-width="0.75" stroke-linecap="round" stroke-linejoin="round" stroke-miterlimit="1" width="178" height="50"/>
				<g>
					<rect x="28.437" y="217.25" fill="none" width="171.5" height="15"/>
					<text transform="matrix(1 0 0 1 28.4365 221.5449)"><tspan x="0" y="0" font-size="6">Volumetric Presentation State Input Sequence (0070,x201) item </tspan><tspan x="6" y="8" font-size="6">Input Sequence Position Index (0070,x203) = 2</tspan></text>
				</g>
			</g>
			<g>
				
					<rect x="36.442" y="279.75" fill="#CCDEF0" stroke="#010101" stroke-width="0.75" stroke-linecap="round" stroke-linejoin="round" stroke-miterlimit="1" width="178" height="50"/>
				<g>
					<rect x="40.06" y="283.75" fill="none" width="171.5" height="15"/>
					<text transform="matrix(1 0 0 1 40.0596 288.043)"><tspan x="0" y="0" font-size="6">Volumetric Presentation State Input Sequence (0070,x201) item </tspan><tspan x="6" y="8" font-size="6">Input Sequence Position Index (0070,x203) = 1</tspan></text>
				</g>
			</g>
			<g>
				
					<rect x="24.819" y="301.25" fill="#CCDEF0" stroke="#010101" stroke-width="0.75" stroke-linecap="round" stroke-linejoin="round" stroke-miterlimit="1" width="178" height="50"/>
				<g>
					<rect x="28.437" y="305.25" fill="none" width="171.5" height="15"/>
					<text transform="matrix(1 0 0 1 28.4365 309.543)"><tspan x="0" y="0" font-size="6">Volumetric Presentation State Input Sequence (0070,x201) item </tspan><tspan x="6" y="8" font-size="6">Input Sequence Position Index (0070,x203) = 1</tspan></text>
				</g>
			</g>
		</g>
		<g>
			<g>
				<path fill="none" stroke="#000000" stroke-miterlimit="1" d="M255.488,187.111c-2.76,4.054-7.412,6.717-12.687,6.717
					c-8.468,0-15.333-6.864-15.333-15.333c0-8.468,6.865-15.333,15.333-15.333c1.824,0,3.573,0.318,5.195,0.902"/>
				<g>
					<polygon points="244.542,165.567 255.109,169.349 247.849,160.79 					"/>
				</g>
			</g>
		</g>
	</g>
</g>
</svg>
