<?xml version="1.0" encoding="utf-8"?>

<!DOCTYPE svg PUBLIC "-//W3C//DTD SVG 1.1//EN" "http://www.w3.org/Graphics/SVG/1.1/DTD/svg11.dtd">
<svg version="1.1" id="Layer_1" xmlns="http://www.w3.org/2000/svg" xmlns:xlink="http://www.w3.org/1999/xlink" x="0px" y="0px"
	 width="502.001px" height="137px" viewBox="0 0 502.001 137" enable-background="new 0 0 502.001 137" xml:space="preserve">

<defs>
	<style type="text/css">
	text {
	  font-family: Helvetica, Verdana, ArialUnicodeMS, san-serif
	}
	</style>
</defs>

<g>
   <desc>
	PS 3.4 Service Class Specifications
   </desc>
</g>

<g>
	<rect x="1" y="1" fill="#F5EED6" width="500.001" height="135"/>
	<g>
		<path fill="#FFFFFF" stroke="#005695" stroke-linejoin="round" d="M299.039,114.559"/>
		<polyline fill="#FFFFFF" stroke="#005695" stroke-linejoin="round" points="215.436,46.915 255.631,46.915 255.631,41.106 
			266.318,51.105 255.631,61.106 255.631,54.771 215.436,54.771 		"/>
		<g>
			<polyline fill="#FFFFFF" stroke="#005695" stroke-linejoin="round" points="117.28,46.915 157.476,46.915 157.476,41.106 
				168.163,51.105 157.476,61.106 157.476,54.771 117.28,54.771 			"/>
			<g>
				<text transform="matrix(1 0 0 1 119.9316 52.7769)" font-size="6">Scalar value</text>
			</g>
		</g>
		<polygon fill="#FFFFFF" stroke="#005695" stroke-linejoin="round" points="337.703,57.218 337.703,44.468 374.033,44.468 
			374.033,41.106 384.721,51.105 374.033,61.106 374.033,57.218 		"/>
		<g>
			<text transform="matrix(1 0 0 1 339.9072 52.7773)" font-size="6">RGB</text>
		</g>
		<g>
			<polygon fill="#FFFFFF" stroke="#005695" stroke-linejoin="round" points="299.039,85.896 299.039,114.559 374.033,114.559 
				374.033,120.895 384.721,110.893 374.033,100.895 374.033,106.703 306.895,106.703 306.895,85.896 			"/>
		</g>
		<g>
			<text transform="matrix(1 0 0 1 340.1631 112.5684)" font-size="6">Alpha</text>
		</g>
		
			<rect x="267.703" y="16.106" fill="#B2CEE7" stroke="#010101" stroke-width="0.75" stroke-linecap="round" stroke-linejoin="round" stroke-miterlimit="1" width="70" height="70"/>
		<g>
			<text transform="matrix(1 0 0 1 285.3203 46.4863)"><tspan x="0" y="0" font-size="6">Palette Color</tspan><tspan x="8.841" y="6.291" font-size="6">RGBA</tspan><tspan x="11.676" y="12.581" font-size="6">LUT</tspan></text>
		</g>
		
			<rect x="169.347" y="42.106" fill="#CCDEF0" stroke="#010101" stroke-width="0.75" stroke-linecap="round" stroke-linejoin="round" stroke-miterlimit="1" width="46" height="18"/>
		<g>
			<text transform="matrix(1 0 0 1 175.6362 49.6318)"><tspan x="0" y="0" font-size="6">Extract Most</tspan><tspan x="-3.006" y="6.291" font-size="6">Significant Bits</tspan></text>
		</g>
	</g>
</g>
</svg>
