<?xml version="1.0" encoding="utf-8"?>

<!DOCTYPE svg PUBLIC "-//W3C//DTD SVG 1.1//EN" "http://www.w3.org/Graphics/SVG/1.1/DTD/svg11.dtd">
<svg version="1.1" id="Layer_1" xmlns="http://www.w3.org/2000/svg" xmlns:xlink="http://www.w3.org/1999/xlink" x="0px" y="0px"
	 width="502.001px" height="92px" viewBox="0 0 502.001 92" enable-background="new 0 0 502.001 92" xml:space="preserve">
<rect x="1" y="1" fill="#F5EED6" width="500.001" height="90"/>

<defs>
	<style type="text/css">
	text {
	  font-family: Helvetica, Verdana, ArialUnicodeMS, san-serif
	}
	</style>
</defs>

<g>
   <desc>
	PS 3.4 Service Class Specifications
   </desc>
</g>

<g>
	
		<rect x="240.797" y="15.787" fill="#CCDEF0" stroke="#010101" stroke-width="0.75" stroke-linecap="round" stroke-linejoin="round" stroke-miterlimit="1" width="50" height="50"/>
	<g>
		<text transform="matrix(1 0 0 1 252.1201 36.9644)"><tspan x="0" y="0" font-size="6">One Input</tspan><tspan x="9.47" y="7.891" font-size="8">➜</tspan><tspan x="4.675" y="14.181" font-size="6">RBGA</tspan></text>
	</g>
	<g>
		<text transform="matrix(1 0 0 1 295.5684 38.4648)" font-size="6">RGB</text>
	</g>
	<g>
		<text transform="matrix(1 0 0 1 294.3965 73.3809)" font-size="6">Alpha</text>
	</g>
	<g>
		<g>
			<line fill="none" stroke="#005695" stroke-miterlimit="1" x1="216.631" y1="44.774" x2="233.543" y2="44.774"/>
			<g>
				<polygon fill="#005695" points="231.958,47.099 240.631,44.774 231.958,42.45 				"/>
			</g>
		</g>
	</g>
	<g>
		<text transform="matrix(1 0 0 1 180.9316 46.4424)" font-size="6">Scalar value</text>
	</g>
	<g>
		<g>
			<polyline fill="none" stroke="#005695" stroke-miterlimit="1" points="265.797,66.214 265.797,76.214 313.98,76.214 			"/>
			<g>
				<polygon fill="#005695" points="312.396,78.538 321.068,76.214 312.396,73.89 				"/>
			</g>
		</g>
	</g>
	<g>
		<g>
			<line fill="none" stroke="#005695" stroke-width="2" stroke-miterlimit="1" x1="291.068" y1="40.787" x2="313.98" y2="40.787"/>
			<g>
				<polygon fill="#005695" points="312.396,43.111 321.068,40.787 312.396,38.463 				"/>
			</g>
		</g>
	</g>
</g>
</svg>
