<?xml version="1.0" encoding="utf-8"?>

<!DOCTYPE svg PUBLIC "-//W3C//DTD SVG 1.1//EN" "http://www.w3.org/Graphics/SVG/1.1/DTD/svg11.dtd">
<svg version="1.1" id="Layer_1" xmlns="http://www.w3.org/2000/svg" xmlns:xlink="http://www.w3.org/1999/xlink" x="0px" y="0px"
	 width="502.001px" height="122px" viewBox="0 0 502.001 122" enable-background="new 0 0 502.001 122" xml:space="preserve">

<defs>
	<style type="text/css">
	text {
	  font-family: Helvetica, Verdana, ArialUnicodeMS, san-serif
	}
	</style>
</defs>

<g>
   <desc>
	PS 3.4 Service Class Specifications
   </desc>
</g>

<g>
	<rect x="1" y="1" fill="#F5EED6" width="500.001" height="120"/>
	<g>
		
			<rect x="229.009" y="39.732" fill="#CCDEF0" stroke="#010101" stroke-width="0.75" stroke-linecap="round" stroke-linejoin="round" stroke-miterlimit="1" width="50" height="50"/>
		<g>
			<text transform="matrix(1 0 0 1 238.6304 63.6543)"><tspan x="0" y="0" font-size="6">Compositor</tspan><tspan x="3.832" y="5.491" font-size="6">Function</tspan></text>
		</g>
		<g>
			<text transform="matrix(1 0 0 1 286.1055 55.9746)"><tspan x="0" y="0" font-size="6">Unclamped</tspan><tspan x="8.674" y="6.291" font-size="6">RGB</tspan></text>
		</g>
		<g>
			<g>
				<line fill="none" stroke="#005695" stroke-miterlimit="1" x1="121.127" y1="44.879" x2="149.812" y2="44.879"/>
				<g>
					<polygon fill="#005695" points="148.623,46.622 155.127,44.879 148.623,43.136 					"/>
				</g>
			</g>
		</g>
		<g>
			<text transform="matrix(1 0 0 1 125.0186 42.6309)" font-size="6">Alpha-1</text>
		</g>
		<g>
			<g>
				<line fill="none" stroke="#005695" stroke-miterlimit="1" x1="121.127" y1="57.353" x2="149.812" y2="57.353"/>
				<g>
					<polygon fill="#005695" points="148.623,59.096 155.127,57.353 148.623,55.609 					"/>
				</g>
			</g>
		</g>
		<g>
			<text transform="matrix(1 0 0 1 123.8467 55.1772)" font-size="6">Alpha-2</text>
		</g>
		<g>
			<text transform="matrix(1 0 0 1 198.5337 47.3306)" font-size="6">Weight-1</text>
		</g>
		<g>
			<text transform="matrix(1 0 0 1 165.96 22.0806)" font-size="6">RGB-1</text>
		</g>
		<g>
			<text transform="matrix(1 0 0 1 165.96 103.0801)" font-size="6">RGB-2</text>
		</g>
		<g>
			<text transform="matrix(1 0 0 1 198.5337 75.6641)" font-size="6">Weight-2</text>
		</g>
		<g>
			<g>
				<line fill="none" stroke="#005695" stroke-miterlimit="1" x1="121.127" y1="73.573" x2="149.812" y2="73.573"/>
				<g>
					<polygon fill="#005695" points="148.623,75.316 155.127,73.573 148.623,71.83 					"/>
				</g>
			</g>
		</g>
		<g>
			<text transform="matrix(1 0 0 1 123.8467 71.4736)" font-size="6">Alpha-1</text>
		</g>
		<g>
			<g>
				<line fill="none" stroke="#005695" stroke-miterlimit="1" x1="121.127" y1="85.944" x2="149.812" y2="85.944"/>
				<g>
					<polygon fill="#005695" points="148.623,87.688 155.127,85.944 148.623,84.201 					"/>
				</g>
			</g>
		</g>
		<g>
			<text transform="matrix(1 0 0 1 125.0186 84.0195)" font-size="6">Alpha-2</text>
		</g>
		<g>
			<g>
				<line fill="none" stroke="#005695" stroke-width="2" stroke-miterlimit="1" x1="279.28" y1="64.732" x2="316.192" y2="64.732"/>
				<g>
					<polygon fill="#005695" points="314.607,67.057 323.28,64.732 314.607,62.408 					"/>
				</g>
			</g>
		</g>
		<g>
			<g>
				<polyline fill="none" stroke="#005695" stroke-width="2" stroke-miterlimit="1" points="120.47,105.236 253.002,105.236 
					253.002,96.82 				"/>
				<g>
					<polygon fill="#005695" points="255.326,98.405 253.002,89.732 250.678,98.405 					"/>
				</g>
			</g>
		</g>
		<g>
			<g>
				<polyline fill="none" stroke="#005695" stroke-width="2" stroke-miterlimit="1" points="120.47,24.229 253.002,24.229 
					253.002,32.645 				"/>
				<g>
					<polygon fill="#005695" points="250.678,31.06 253.002,39.732 255.326,31.06 					"/>
				</g>
			</g>
		</g>
		<g>
			<g>
				
					<line fill="none" stroke="#000000" stroke-width="0.5" stroke-miterlimit="1" x1="194.92" y1="50.732" x2="225.501" y2="50.732"/>
				<g>
					<polygon points="224.708,51.895 229.045,50.732 224.708,49.57 					"/>
				</g>
			</g>
		</g>
		
			<rect x="155.127" y="39.732" fill="#CCDEF0" stroke="#010101" stroke-width="0.75" stroke-linecap="round" stroke-linejoin="round" stroke-miterlimit="1" width="40" height="22"/>
		<g>
			<text transform="matrix(1 0 0 1 161.7881 49.2554)"><tspan x="0" y="0" font-size="6">Weighting</tspan><tspan x="5.171" y="6.291" font-size="6">LUT 1</tspan></text>
		</g>
		<g>
			<text transform="matrix(1 0 0 1 357.5293 61.3306)" font-size="6">RGB</text>
		</g>
		<g>
			<g>
				<line fill="none" stroke="#005695" stroke-width="2" stroke-miterlimit="1" x1="353.53" y1="64.732" x2="374.442" y2="64.732"/>
				<g>
					<polygon fill="#005695" points="372.857,67.057 381.53,64.732 372.857,62.408 					"/>
				</g>
			</g>
		</g>
		
			<rect x="323.53" y="53.732" fill="#CCDEF0" stroke="#010101" stroke-width="0.75" stroke-linecap="round" stroke-linejoin="round" stroke-miterlimit="1" width="30" height="22"/>
		<g>
			<text transform="matrix(1 0 0 1 329.8613 66.4004)" font-size="6">Clamp</text>
		</g>
		<g>
			<g>
				
					<line fill="none" stroke="#000000" stroke-width="0.5" stroke-miterlimit="1" x1="194.92" y1="78.732" x2="225.501" y2="78.732"/>
				<g>
					<polygon points="224.708,79.895 229.045,78.732 224.708,77.57 					"/>
				</g>
			</g>
		</g>
		
			<rect x="155.127" y="67.732" fill="#CCDEF0" stroke="#010101" stroke-width="0.75" stroke-linecap="round" stroke-linejoin="round" stroke-miterlimit="1" width="40" height="22"/>
		<g>
			<text transform="matrix(1 0 0 1 161.7881 77.2559)"><tspan x="0" y="0" font-size="6">Weighting</tspan><tspan x="5.171" y="6.29" font-size="6">LUT 2</tspan></text>
		</g>
	</g>
</g>
</svg>
