<?xml version="1.0" encoding="utf-8"?>

<!DOCTYPE svg PUBLIC "-//W3C//DTD SVG 1.1//EN" "http://www.w3.org/Graphics/SVG/1.1/DTD/svg11.dtd">
<svg version="1.1" id="Layer_1" xmlns="http://www.w3.org/2000/svg" xmlns:xlink="http://www.w3.org/1999/xlink" x="0px" y="0px"
	 width="502.001px" height="117px" viewBox="0 0 502.001 117" enable-background="new 0 0 502.001 117" xml:space="preserve">
    
<defs>
	<style type="text/css">
	text {
	  font-family: Helvetica, Verdana, ArialUnicodeMS, san-serif
	}
	</style>
</defs>

<g>
   <desc>
	PS 3.4 Service Class Specifications
   </desc>
</g>

<g>
	<rect x="1" y="1" fill="#F5EED6" width="500.001" height="115"/>
	<g>
		<g>
			<polyline fill="#FFFFFF" stroke="#005695" stroke-linejoin="round" points="168.209,85.188 204.667,85.188 204.667,81.827 
				215.355,91.826 204.667,101.827 204.667,97.938 168.209,97.938 			"/>
			<polyline fill="#FFFFFF" stroke="#005695" stroke-linejoin="round" points="168.145,65.636 204.668,65.636 204.668,59.827 
				215.355,69.825 204.668,79.827 204.668,73.491 168.145,73.491 			"/>
			<g>
				<text transform="matrix(1 0 0 1 170.7969 71.4941)" font-size="6">Alpha-2</text>
			</g>
			<g>
				<text transform="matrix(1 0 0 1 170.7969 93.4941)" font-size="6">RGB-2</text>
			</g>
		</g>
		<g>
			<polyline fill="#FFFFFF" stroke="#005695" stroke-linejoin="round" points="168.209,18.534 204.667,18.534 204.667,15.173 
				215.355,25.172 204.667,35.173 204.667,31.284 168.209,31.284 			"/>
			<g>
				<text transform="matrix(1 0 0 1 170.7969 26.8389)" font-size="6">RGB-1</text>
			</g>
			<polyline fill="#FFFFFF" stroke="#005695" stroke-linejoin="round" points="168.145,42.981 204.668,42.981 204.668,37.173 
				215.355,47.172 204.668,57.173 204.668,50.837 168.145,50.837 			"/>
			<g>
				<text transform="matrix(1 0 0 1 170.7969 48.8389)" font-size="6">Alpha-1</text>
			</g>
		</g>
		<g>
			<polyline fill="#FFFFFF" stroke="#005695" stroke-linejoin="round" points="286.709,40.861 323.168,40.861 323.168,37.5 
				333.855,47.499 323.168,57.5 323.168,53.611 286.709,53.611 			"/>
			<g>
				<text transform="matrix(1 0 0 1 289.2969 49.166)" font-size="6">RGB</text>
			</g>
			<polyline fill="#FFFFFF" stroke="#005695" stroke-linejoin="round" points="286.645,65.309 323.168,65.309 323.168,59.5 
				333.855,69.499 323.168,79.5 323.168,73.164 286.645,73.164 			"/>
			<g>
				<text transform="matrix(1 0 0 1 289.2969 71.166)" font-size="6">Alpha</text>
			</g>
		</g>
		
			<rect x="216.741" y="23.5" fill="#B2CEE7" stroke="#010101" stroke-width="0.75" stroke-linecap="round" stroke-linejoin="round" stroke-miterlimit="1" width="70" height="70"/>
		<g>
			<text transform="matrix(1 0 0 1 245.1992 57.4204)"><tspan x="0" y="0" font-size="6">RGBA</tspan><tspan x="-8.837" y="5.491" font-size="6">Compositor</tspan></text>
		</g>
	</g>
</g>
</svg>
