<?xml version="1.0" encoding="utf-8"?>

<!DOCTYPE svg PUBLIC "-//W3C//DTD SVG 1.1//EN" "http://www.w3.org/Graphics/SVG/1.1/DTD/svg11.dtd">
<svg version="1.1" id="Layer_1" xmlns="http://www.w3.org/2000/svg" xmlns:xlink="http://www.w3.org/1999/xlink" x="0px" y="0px"
	 width="502.001px" height="292px" viewBox="0 0 502.001 292" enable-background="new 0 0 502.001 292" xml:space="preserve">

<defs>
	<style type="text/css">
	text {
	  font-family: Helvetica, Verdana, ArialUnicodeMS, san-serif
	}
	</style>
</defs>

<g>
   <desc>
	PS 3.4 Service Class Specifications
   </desc>
</g>

<g>
	<rect x="1" y="1" fill="#F5EED6" width="500.001" height="290"/>
	<g>
		<polyline fill="#FFFFFF" stroke="#005695" stroke-linejoin="round" points="35.103,81.906 71.187,81.906 71.187,76.097 
			81.872,86.096 71.187,96.097 71.187,89.761 35.103,89.761 		"/>
		<polygon fill="#FFFFFF" stroke="#005695" stroke-linejoin="round" points="336.882,178.539 336.882,168.236 375.778,168.236 
			375.778,163.652 386.466,173.65 375.778,183.652 375.778,178.539 		"/>
		<polygon fill="#FFFFFF" stroke="#005695" stroke-linecap="round" stroke-linejoin="round" points="112.826,89.764 112.826,81.913 
			119.531,81.913 119.531,76.097 130.217,86.096 119.531,96.097 119.531,89.764 		"/>
		<polygon fill="#FFFFFF" stroke="#005695" stroke-linecap="round" stroke-linejoin="round" points="170.959,89.764 170.959,81.913 
			177.664,81.913 177.664,76.097 188.351,86.096 177.664,96.097 177.664,89.764 		"/>
		<polygon fill="#FFFFFF" stroke="#005695" stroke-linecap="round" stroke-linejoin="round" points="219.205,89.764 219.205,81.913 
			225.91,81.913 225.91,76.097 236.597,86.096 225.91,96.097 225.91,89.764 		"/>
		<polygon fill="#FFFFFF" stroke="#005695" stroke-linecap="round" stroke-linejoin="round" points="267.575,89.764 267.575,81.913 
			274.28,81.913 274.28,76.097 284.966,86.096 274.28,96.097 274.28,89.764 		"/>
		<polygon fill="#FFFFFF" stroke="#005695" stroke-linejoin="round" points="417.56,178.539 417.56,168.236 456.213,168.236 
			456.213,163.652 466.898,173.65 456.213,183.652 456.213,178.539 		"/>
		
			<rect x="285.86" y="75.097" fill="#CCDEF0" stroke="#010101" stroke-width="0.75" stroke-linecap="round" stroke-linejoin="round" stroke-miterlimit="1" width="51" height="197.11"/>
		<g>
			<text transform="matrix(1 0 0 1 297.1895 169.832)"><tspan x="0" y="0" font-size="6">Volumetric</tspan><tspan x="-2.673" y="5.49" font-size="6">Presentation</tspan><tspan x="-3.504" y="10.98" font-size="6">State Display</tspan></text>
		</g>
		<g>
			<g>
				<polyline fill="none" stroke="#000000" stroke-miterlimit="1" points="396.035,155.137 396.035,48.592 376.86,48.592 				"/>
				<g>
					<polygon points="398.359,153.552 396.035,162.225 393.711,153.552 					"/>
				</g>
			</g>
		</g>
		<g>
			<g>
				<line fill="none" stroke="#000000" stroke-miterlimit="1" x1="224.751" y1="27.316" x2="98.997" y2="27.316"/>
				<g>
					<polygon points="223.166,24.992 231.839,27.316 223.166,29.641 					"/>
				</g>
			</g>
		</g>
		<g>
			<g>
				<polyline fill="none" stroke="#000000" stroke-miterlimit="1" points="411.035,155.137 411.035,27.316 272.966,27.316 				"/>
				<g>
					<polygon points="413.359,153.552 411.035,162.225 408.711,153.552 					"/>
				</g>
			</g>
		</g>
		
			<rect x="232.548" y="16.316" fill="#CCDEF0" stroke="#010101" stroke-width="0.75" stroke-linecap="round" stroke-linejoin="round" stroke-miterlimit="1" width="40" height="22"/>
		<g>
			<text transform="matrix(1 0 0 1 240.042 26.2485)"><tspan x="0" y="0" font-size="6">MPR and</tspan><tspan x="-0.835" y="5.491" font-size="6">Projection</tspan></text>
		</g>
		
			<rect x="336.86" y="37.592" fill="#CCDEF0" stroke="#010101" stroke-width="0.75" stroke-linecap="round" stroke-linejoin="round" stroke-miterlimit="1" width="40" height="22"/>
		<g>
			<text transform="matrix(1 0 0 1 346.3574 47.5239)"><tspan x="0" y="0" font-size="6">Graphic</tspan><tspan x="-3.841" y="5.491" font-size="6">Annotation</tspan></text>
		</g>
		<g>
			<text transform="matrix(1 0 0 1 37.3511 30.0952)" font-size="6">Volume graphics input</text>
		</g>
		<g>
			<g>
				<polyline fill="none" stroke="#000000" stroke-miterlimit="1" points="112.987,112.967 204.233,112.967 204.233,104.551 				"/>
				<g>
					<polygon points="206.558,106.136 204.233,97.463 201.909,106.136 					"/>
				</g>
			</g>
		</g>
		<g>
			<g>
				<polyline fill="none" stroke="#000000" stroke-miterlimit="1" points="204.233,112.967 252.548,112.967 252.548,104.551 				"/>
				<g>
					<polygon points="254.872,106.136 252.548,97.463 250.224,106.136 					"/>
				</g>
			</g>
		</g>
		
			<rect x="82.834" y="75.097" fill="#CCDEF0" stroke="#010101" stroke-width="0.75" stroke-linecap="round" stroke-linejoin="round" stroke-miterlimit="1" width="30" height="22"/>
		<g>
			<text transform="matrix(1 0 0 1 86.165 87.7603)" font-size="6">VOI LUT</text>
		</g>
		
			<rect x="189.233" y="75.097" fill="#CCDEF0" stroke="#010101" stroke-width="0.75" stroke-linecap="round" stroke-linejoin="round" stroke-miterlimit="1" width="30" height="22"/>
		<g>
			<text transform="matrix(1 0 0 1 192.0591 87.7607)" font-size="6">Cropping</text>
		</g>
		
			<rect x="237.548" y="75.097" fill="#CCDEF0" stroke="#010101" stroke-width="0.75" stroke-linecap="round" stroke-linejoin="round" stroke-miterlimit="1" width="30" height="22"/>
		<g>
			<text transform="matrix(1 0 0 1 245.8804 87.7607)" font-size="6">MPR</text>
		</g>
		
			<rect x="130.959" y="75.097" fill="#CCDEF0" stroke="#010101" stroke-width="0.75" stroke-linecap="round" stroke-linejoin="round" stroke-miterlimit="1" width="40" height="22"/>
		<g>
			<text transform="matrix(1 0 0 1 141.7876 85.0146)"><tspan x="0" y="0" font-size="6">Spatial</tspan><tspan x="-6.835" y="5.491" font-size="6">Registration</tspan></text>
		</g>
		<g>
			<text transform="matrix(1 0 0 1 37.3511 114.6182)" font-size="6">Input-1 Specific Parameters</text>
		</g>
		
			<rect x="387.556" y="162.652" fill="#CCDEF0" stroke="#010101" stroke-width="0.75" stroke-linecap="round" stroke-linejoin="round" stroke-miterlimit="1" width="30" height="22"/>
		<g>
			<text transform="matrix(1 0 0 1 390.5527 172.5771)"><tspan x="0" y="0" font-size="6">Graphics</tspan><tspan x="4.5" y="5.491" font-size="6">Layer</tspan></text>
		</g>
		<g>
			<text transform="matrix(1 0 0 1 37.3062 87.7603)" font-size="6">Input-1</text>
		</g>
		<polyline fill="#FFFFFF" stroke="#005695" stroke-linejoin="round" points="35.103,134.935 71.187,134.935 71.187,129.126 
			81.872,139.125 71.187,149.127 71.187,142.791 35.103,142.791 		"/>
		<polygon fill="#FFFFFF" stroke="#005695" stroke-linecap="round" stroke-linejoin="round" points="112.826,142.793 
			112.826,134.942 119.531,134.942 119.531,129.126 130.217,139.125 119.531,149.127 119.531,142.793 		"/>
		<polygon fill="#FFFFFF" stroke="#005695" stroke-linecap="round" stroke-linejoin="round" points="170.959,142.793 
			170.959,134.942 177.664,134.942 177.664,129.126 188.351,139.125 177.664,149.127 177.664,142.793 		"/>
		<polygon fill="#FFFFFF" stroke="#005695" stroke-linecap="round" stroke-linejoin="round" points="219.205,142.793 
			219.205,134.942 225.91,134.942 225.91,129.126 236.597,139.125 225.91,149.127 225.91,142.793 		"/>
		<polygon fill="#FFFFFF" stroke="#005695" stroke-linecap="round" stroke-linejoin="round" points="267.575,142.793 
			267.575,134.942 274.28,134.942 274.28,129.126 284.966,139.125 274.28,149.127 274.28,142.793 		"/>
		<g>
			<g>
				<polyline fill="none" stroke="#000000" stroke-miterlimit="1" points="112.987,165.996 204.233,165.996 204.233,157.58 				"/>
				<g>
					<polygon points="206.558,159.165 204.233,150.492 201.909,159.165 					"/>
				</g>
			</g>
		</g>
		<g>
			<g>
				<polyline fill="none" stroke="#000000" stroke-miterlimit="1" points="204.233,165.996 252.548,165.996 252.548,157.58 				"/>
				<g>
					<polygon points="254.872,159.165 252.548,150.492 250.224,159.165 					"/>
				</g>
			</g>
		</g>
		
			<rect x="82.834" y="128.126" fill="#CCDEF0" stroke="#010101" stroke-width="0.75" stroke-linecap="round" stroke-linejoin="round" stroke-miterlimit="1" width="30" height="22"/>
		<g>
			<text transform="matrix(1 0 0 1 86.165 140.7896)" font-size="6">VOI LUT</text>
		</g>
		
			<rect x="189.233" y="128.126" fill="#CCDEF0" stroke="#010101" stroke-width="0.75" stroke-linecap="round" stroke-linejoin="round" stroke-miterlimit="1" width="30" height="22"/>
		<g>
			<text transform="matrix(1 0 0 1 192.0591 140.79)" font-size="6">Cropping</text>
		</g>
		
			<rect x="237.548" y="128.126" fill="#CCDEF0" stroke="#010101" stroke-width="0.75" stroke-linecap="round" stroke-linejoin="round" stroke-miterlimit="1" width="30" height="22"/>
		<g>
			<text transform="matrix(1 0 0 1 245.8804 140.79)" font-size="6">MPR</text>
		</g>
		
			<rect x="130.959" y="128.126" fill="#CCDEF0" stroke="#010101" stroke-width="0.75" stroke-linecap="round" stroke-linejoin="round" stroke-miterlimit="1" width="40" height="22"/>
		<g>
			<text transform="matrix(1 0 0 1 141.7876 138.0439)"><tspan x="0" y="0" font-size="6">Spatial</tspan><tspan x="-6.835" y="5.491" font-size="6">Registration</tspan></text>
		</g>
		<g>
			<text transform="matrix(1 0 0 1 37.3511 167.6475)" font-size="6">Input-2 Specific Parameters</text>
		</g>
		<g>
			<text transform="matrix(1 0 0 1 37.3062 140.7896)" font-size="6">Input-2</text>
		</g>
		<g>
			<text transform="matrix(1 0 0 1 37.7046 193.8193)" font-size="10">...</text>
		</g>
		<polyline fill="#FFFFFF" stroke="#005695" stroke-linejoin="round" points="35.103,240.994 71.187,240.994 71.187,235.186 
			81.872,245.184 71.187,255.186 71.187,248.85 35.103,248.85 		"/>
		<polygon fill="#FFFFFF" stroke="#005695" stroke-linecap="round" stroke-linejoin="round" points="112.826,248.852 112.826,241 
			119.531,241 119.531,235.186 130.217,245.184 119.531,255.186 119.531,248.852 		"/>
		<polygon fill="#FFFFFF" stroke="#005695" stroke-linecap="round" stroke-linejoin="round" points="170.959,248.852 170.959,241 
			177.664,241 177.664,235.186 188.351,245.184 177.664,255.186 177.664,248.852 		"/>
		<polygon fill="#FFFFFF" stroke="#005695" stroke-linecap="round" stroke-linejoin="round" points="219.205,248.852 219.205,241 
			225.91,241 225.91,235.186 236.597,245.184 225.91,255.186 225.91,248.852 		"/>
		<polygon fill="#FFFFFF" stroke="#005695" stroke-linecap="round" stroke-linejoin="round" points="267.575,248.852 267.575,241 
			274.28,241 274.28,235.186 284.966,245.184 274.28,255.186 274.28,248.852 		"/>
		<g>
			<g>
				<polyline fill="none" stroke="#000000" stroke-miterlimit="1" points="112.987,272.055 204.233,272.055 204.233,263.639 				"/>
				<g>
					<polygon points="206.558,265.224 204.233,256.551 201.909,265.224 					"/>
				</g>
			</g>
		</g>
		<g>
			<g>
				<polyline fill="none" stroke="#000000" stroke-miterlimit="1" points="204.233,272.055 252.548,272.055 252.548,263.639 				"/>
				<g>
					<polygon points="254.872,265.224 252.548,256.551 250.224,265.224 					"/>
				</g>
			</g>
		</g>
		
			<rect x="82.834" y="234.186" fill="#CCDEF0" stroke="#010101" stroke-width="0.75" stroke-linecap="round" stroke-linejoin="round" stroke-miterlimit="1" width="30" height="22"/>
		<g>
			<text transform="matrix(1 0 0 1 86.165 246.8486)" font-size="6">VOI LUT</text>
		</g>
		
			<rect x="189.233" y="234.186" fill="#CCDEF0" stroke="#010101" stroke-width="0.75" stroke-linecap="round" stroke-linejoin="round" stroke-miterlimit="1" width="30" height="22"/>
		<g>
			<text transform="matrix(1 0 0 1 192.0591 246.8486)" font-size="6">Cropping</text>
		</g>
		
			<rect x="237.548" y="234.186" fill="#CCDEF0" stroke="#010101" stroke-width="0.75" stroke-linecap="round" stroke-linejoin="round" stroke-miterlimit="1" width="30" height="22"/>
		<g>
			<text transform="matrix(1 0 0 1 245.8804 246.8486)" font-size="6">MPR</text>
		</g>
		
			<rect x="130.959" y="234.186" fill="#CCDEF0" stroke="#010101" stroke-width="0.75" stroke-linecap="round" stroke-linejoin="round" stroke-miterlimit="1" width="40" height="22"/>
		<g>
			<text transform="matrix(1 0 0 1 141.7876 244.1025)"><tspan x="0" y="0" font-size="6">Spatial</tspan><tspan x="-6.835" y="5.491" font-size="6">Registration</tspan></text>
		</g>
		<g>
			<text transform="matrix(1 0 0 1 37.3511 273.7061)" font-size="6">Input-n Specific Parameters</text>
		</g>
		<g>
			<text transform="matrix(1 0 0 1 37.3062 246.8486)" font-size="6">Input-n</text>
		</g>
		<g>
			<text transform="matrix(1 0 0 1 339.085 175.3223)" font-size="6">PCS-Values</text>
		</g>
		<g>
			<text transform="matrix(1 0 0 1 419.7646 175.3223)" font-size="6">PCS-Values</text>
		</g>
	</g>
</g>
</svg>
