<?xml version="1.0" encoding="utf-8"?>

<!DOCTYPE svg PUBLIC "-//W3C//DTD SVG 1.1//EN" "http://www.w3.org/Graphics/SVG/1.1/DTD/svg11.dtd">
<svg version="1.1" id="Layer_1" xmlns="http://www.w3.org/2000/svg" xmlns:xlink="http://www.w3.org/1999/xlink" x="0px" y="0px"
	 width="602px" height="287px" viewBox="0 0 602 287" enable-background="new 0 0 602 287" xml:space="preserve">

<defs>
	<style type="text/css">
	text {
	  font-family: Helvetica, Verdana, ArialUnicodeMS, san-serif
	}
	</style>
</defs>

<g>
   <desc>
	PS 3.20 - Transformation of DICOM to and from HL7 Standards
   </desc>
</g>

<g>
	<rect x="1" y="1" fill="#F5EED8" width="600" height="285"/>
	<g>
		<rect x="93.351" y="16.606" fill="#CEDFEF" stroke="#231F20" stroke-miterlimit="1" width="136.016" height="66"/>
		<rect x="37.875" y="152.007" fill="#CEDFEF" stroke="#231F20" stroke-miterlimit="1" width="96.194" height="36.908"/>
		<rect x="188.922" y="152.007" fill="#CEDFEF" stroke="#231F20" stroke-miterlimit="1" width="96.194" height="36.908"/>
		<rect x="37.875" y="230.513" fill="#CEDFEF" stroke="#231F20" stroke-miterlimit="1" width="96.194" height="39.881"/>
		<rect x="188.922" y="230.513" fill="#CEDFEF" stroke="#231F20" stroke-miterlimit="1" width="96.194" height="39.881"/>
		<rect x="428.109" y="16.606" fill="#CEDFEF" stroke="#231F20" stroke-miterlimit="1" width="136.016" height="66"/>
		<text transform="matrix(1 0 0 1 99.1104 52.3926)" font-size="10">Imaging Information System</text>
		<text transform="matrix(1 0 0 1 433.8682 52.3926)" font-size="10">Clinical  Information System</text>
		<text transform="matrix(1 0 0 1 255.2021 30.1084)" font-size="10">3a Send Transcoded Document</text>
		<text transform="matrix(1 0 0 1 253.5664 55.9922)" enable-background="new    "><tspan x="0" y="0" font-size="10">3b Query Imaging Documents /</tspan><tspan x="0" y="12" font-size="10">Retrieve Transcoded Documents</tspan></text>
		<text transform="matrix(1 0 0 1 105.8833 116.7188)" font-size="10">Step 1</text>
		<text transform="matrix(1 0 0 1 188.644 116.7188)" font-size="10">Step 2</text>
		<text transform="matrix(1 0 0 1 194.8892 173.2461)" font-size="10">Report Transcoder</text>
		<text transform="matrix(1 0 0 1 52.8379 173.2461)" font-size="10">Report Creator</text>
		<text transform="matrix(1 0 0 1 49.3379 241.6064)" enable-background="new    "><tspan x="0" y="0" font-size="10">DICOM SR</tspan><tspan x="0" y="12" font-size="10">Basic Diagnostic</tspan><tspan x="0" y="24" font-size="10">Imaging Report</tspan></text>
		<text transform="matrix(1 0 0 1 190.7959 247.3662)" enable-background="new    "><tspan x="0" y="0" font-size="10">HL7 CDA Diagnostic</tspan><tspan x="0" y="12" font-size="10">Imaging Report</tspan></text>
		<g>
			<g>
				<line fill="none" stroke="#231F20" stroke-miterlimit="1" x1="229.367" y1="33.77" x2="419.25" y2="33.77"/>
				<g>
					<polygon fill="#231F20" points="417.269,36.675 428.109,33.77 417.269,30.864 					"/>
				</g>
			</g>
		</g>
		<g>
			<g>
				<line fill="none" stroke="#231F20" stroke-miterlimit="1" x1="85.819" y1="230.513" x2="228.835" y2="192.814"/>
				<g>
					<polygon fill="#231F20" points="227.66,196.129 237.402,190.557 226.179,190.511 					"/>
				</g>
			</g>
		</g>
		<g>
			<g>
				<line fill="none" stroke="#231F20" stroke-miterlimit="1" x1="238.226" y1="69.766" x2="428.109" y2="69.766"/>
				<g>
					<polygon fill="#231F20" points="240.208,72.671 229.367,69.766 240.208,66.86 					"/>
				</g>
			</g>
		</g>
		<g>
			<g>
				<line fill="none" stroke="#231F20" stroke-miterlimit="1" x1="237.021" y1="188.916" x2="237.021" y2="221.653"/>
				<g>
					<polygon fill="#231F20" points="234.116,219.672 237.021,230.513 239.926,219.672 					"/>
				</g>
			</g>
		</g>
		<g>
			<g>
				<line fill="none" stroke="#231F20" stroke-miterlimit="1" x1="85.973" y1="188.916" x2="85.973" y2="221.653"/>
				<g>
					<polygon fill="#231F20" points="83.067,219.672 85.973,230.513 88.878,219.672 					"/>
				</g>
			</g>
		</g>
		<g>
			<g>
				<polyline fill="none" stroke="#231F20" stroke-miterlimit="1" points="161.419,82.606 161.419,119.635 237.021,119.635 
					237.021,143.148 				"/>
				<g>
					<polygon fill="#231F20" points="234.116,141.167 237.021,152.008 239.926,141.167 					"/>
				</g>
			</g>
		</g>
		<g>
			<g>
				<polyline fill="none" stroke="#231F20" stroke-miterlimit="1" points="161.421,82.606 161.421,119.635 85.819,119.635 
					85.819,143.148 				"/>
				<g>
					<polygon fill="#231F20" points="82.914,141.167 85.819,152.008 88.724,141.167 					"/>
				</g>
			</g>
		</g>
	</g>
</g>
</svg>
