<?xml version="1.0" encoding="utf-8"?>

<!DOCTYPE svg PUBLIC "-//W3C//DTD SVG 1.1//EN" "http://www.w3.org/Graphics/SVG/1.1/DTD/svg11.dtd">
<svg version="1.1" id="Layer_1" xmlns="http://www.w3.org/2000/svg" xmlns:xlink="http://www.w3.org/1999/xlink" x="0px" y="0px"
	 width="502px" height="647px" viewBox="0 0 502 647" enable-background="new 0 0 502 647" xml:space="preserve">

<defs>
	<style type="text/css">
	text {
	  font-family: Helvetica, Verdana, ArialUnicodeMS, san-serif
	}
	</style>
</defs>

<g>
   <desc>
	PS 3.20 - Transformation of DICOM to and from HL7 Standards
   </desc>
</g>

<g>
	<rect x="1" y="1" fill="#F5EED6" width="500" height="645"/>
	<g>
		<g>
			<g>
				
					<line fill="none" stroke="#231F20" stroke-width="0.75" stroke-linecap="square" stroke-miterlimit="10" x1="372.566" y1="269.287" x2="384.178" y2="269.287"/>
				<g>
					<polygon fill="#231F20" points="382.691,271.466 390.822,269.287 382.691,267.107 					"/>
				</g>
			</g>
		</g>
		<g>
			<path fill="none" stroke="#231F20" stroke-width="0.75" stroke-linecap="square" stroke-miterlimit="10" d="M132.07,146.501"/>
		</g>
		<g>
			<g>
				<polyline fill="none" stroke="#231F20" stroke-width="0.75" stroke-linecap="square" stroke-miterlimit="10" points="
					131.966,190.794 131.966,229.867 136.363,229.867 				"/>
				<g>
					<polygon fill="#231F20" points="134.877,232.046 143.007,229.867 134.877,227.688 					"/>
				</g>
			</g>
		</g>
		<g>
			<g>
				<polyline fill="none" stroke="#231F20" stroke-width="0.75" stroke-linecap="square" stroke-miterlimit="10" points="
					131.966,229.863 131.966,268.936 136.363,268.936 				"/>
				<g>
					<polygon fill="#231F20" points="134.877,271.114 143.007,268.936 134.877,266.757 					"/>
				</g>
			</g>
		</g>
		<g>
			<g>
				<polyline fill="none" stroke="#231F20" stroke-width="0.75" stroke-linecap="square" stroke-miterlimit="10" points="
					131.966,148.302 131.966,191.072 136.099,191.072 				"/>
				<g>
					<polygon fill="#231F20" points="134.613,193.251 142.744,191.072 134.613,188.894 					"/>
				</g>
			</g>
		</g>
		<g>
			<g>
				
					<line fill="none" stroke="#231F20" stroke-width="0.75" stroke-linecap="square" stroke-miterlimit="10" x1="125.738" y1="148.269" x2="136.273" y2="148.269"/>
				<g>
					<polygon fill="#231F20" points="134.787,150.447 142.917,148.269 134.787,146.09 					"/>
				</g>
			</g>
		</g>
		<g>
			<g>
				<polyline fill="none" stroke="#231F20" stroke-width="0.75" stroke-linecap="square" stroke-miterlimit="10" points="
					214.199,268.659 214.199,424.815 218.332,424.815 				"/>
				<g>
					<polygon fill="#231F20" points="216.846,426.994 224.976,424.815 216.846,422.637 					"/>
				</g>
			</g>
		</g>
		<g>
			<g>
				
					<line fill="none" stroke="#231F20" stroke-width="0.75" stroke-linecap="square" stroke-miterlimit="10" x1="207.97" y1="268.626" x2="218.505" y2="268.626"/>
				<g>
					<polygon fill="#231F20" points="217.02,270.805 225.15,268.626 217.02,266.447 					"/>
				</g>
			</g>
		</g>
		<g>
			<g>
				
					<line fill="none" stroke="#231F20" stroke-width="0.75" stroke-linecap="square" stroke-miterlimit="10" x1="290.711" y1="268.626" x2="301.246" y2="268.626"/>
				<g>
					<polygon fill="#231F20" points="299.76,270.805 307.891,268.626 299.76,266.447 					"/>
				</g>
			</g>
		</g>
		<g>
			<g>
				
					<line fill="none" stroke="#231F20" stroke-width="0.75" stroke-linecap="square" stroke-miterlimit="10" x1="207.97" y1="191.073" x2="218.505" y2="191.073"/>
				<g>
					<polygon fill="#231F20" points="217.02,193.252 225.15,191.073 217.02,188.895 					"/>
				</g>
			</g>
		</g>
		<g>
			<path fill="none" stroke="#231F20" stroke-width="0.75" stroke-linecap="square" stroke-miterlimit="10" d="M379.973,267.519"/>
		</g>
		<g>
			<g>
				<polyline fill="none" stroke="#231F20" stroke-width="0.75" stroke-linecap="square" stroke-miterlimit="10" points="
					379.871,269.32 379.871,308.261 383.633,308.261 				"/>
				<g>
					<polygon fill="#231F20" points="382.146,310.439 390.277,308.261 382.146,306.082 					"/>
				</g>
			</g>
		</g>
		<g>
			<g>
				<polyline fill="none" stroke="#231F20" stroke-width="0.75" stroke-linecap="square" stroke-miterlimit="10" points="
					379.871,308.853 379.871,347.79 383.633,347.79 				"/>
				<g>
					<polygon fill="#231F20" points="382.146,349.969 390.277,347.79 382.146,345.611 					"/>
				</g>
			</g>
		</g>
		<g>
			<g>
				<polyline fill="none" stroke="#231F20" stroke-width="0.75" stroke-linecap="square" stroke-miterlimit="10" points="
					379.871,348.382 379.871,386.187 383.633,386.187 				"/>
				<g>
					<polygon fill="#231F20" points="382.146,388.365 390.277,386.187 382.146,384.008 					"/>
				</g>
			</g>
		</g>
		<g>
			<path fill="none" stroke="#231F20" stroke-width="0.75" stroke-linecap="square" stroke-miterlimit="10" d="M296.234,423.683"/>
		</g>
		<g>
			<g>
				<polyline fill="none" stroke="#231F20" stroke-width="0.75" stroke-linecap="square" stroke-miterlimit="10" points="
					296.131,425.483 296.131,464.421 300.264,464.421 				"/>
				<g>
					<polygon fill="#231F20" points="298.777,466.6 306.908,464.421 298.777,462.242 					"/>
				</g>
			</g>
		</g>
		<g>
			<g>
				<polyline fill="none" stroke="#231F20" stroke-width="0.75" stroke-linecap="square" stroke-miterlimit="10" points="
					296.131,465.013 296.131,503.95 300.264,503.95 				"/>
				<g>
					<polygon fill="#231F20" points="298.777,506.129 306.908,503.95 298.777,501.771 					"/>
				</g>
			</g>
		</g>
		<g>
			<g>
				
					<line fill="none" stroke="#231F20" stroke-width="0.75" stroke-linecap="square" stroke-miterlimit="10" x1="289.902" y1="425.45" x2="300.438" y2="425.45"/>
				<g>
					<polygon fill="#231F20" points="298.951,427.629 307.082,425.45 298.951,423.271 					"/>
				</g>
			</g>
		</g>
		<g>
			<g>
				
					<line fill="none" stroke="#231F20" stroke-width="0.75" stroke-linecap="square" stroke-miterlimit="10" x1="367.594" y1="503.952" x2="384.197" y2="503.952"/>
				<g>
					<polygon fill="#231F20" points="382.711,506.131 390.842,503.952 382.711,501.773 					"/>
				</g>
			</g>
		</g>
		<g>
			<path fill="none" stroke="#231F20" stroke-width="0.75" stroke-linecap="square" stroke-miterlimit="10" d="M379.992,423.704"/>
		</g>
		<g>
			<g>
				<polyline fill="none" stroke="#231F20" stroke-width="0.75" stroke-linecap="square" stroke-miterlimit="10" points="
					379.891,425.505 379.891,464.44 385.154,464.44 				"/>
				<g>
					<polygon fill="#231F20" points="383.668,466.619 391.799,464.44 383.668,462.262 					"/>
				</g>
			</g>
		</g>
		<g>
			<g>
				
					<line fill="none" stroke="#231F20" stroke-width="0.75" stroke-linecap="square" stroke-miterlimit="10" x1="367.594" y1="425.472" x2="384.197" y2="425.472"/>
				<g>
					<polygon fill="#231F20" points="382.711,427.65 390.842,425.472 382.711,423.293 					"/>
				</g>
			</g>
		</g>
		<g>
			<g>
				<polyline fill="none" stroke="#231F20" stroke-width="0.75" stroke-linecap="square" stroke-miterlimit="10" points="
					379.992,503.823 379.992,541.626 385.256,541.626 				"/>
				<g>
					<polygon fill="#231F20" points="383.77,543.805 391.9,541.626 383.77,539.447 					"/>
				</g>
			</g>
		</g>
		<g>
			<g>
				<polyline fill="none" stroke="#231F20" stroke-width="0.75" stroke-linecap="square" stroke-miterlimit="10" points="
					379.992,541.72 379.992,580.886 385.256,580.886 				"/>
				<g>
					<polygon fill="#231F20" points="383.77,583.064 391.9,580.886 383.77,578.707 					"/>
				</g>
			</g>
		</g>
		<g>
			<g>
				<polyline fill="none" stroke="#231F20" stroke-width="0.75" stroke-linecap="square" stroke-miterlimit="10" points="
					379.992,581.079 379.992,620.146 385.256,620.146 				"/>
				<g>
					<polygon fill="#231F20" points="383.77,622.324 391.9,620.146 383.77,617.967 					"/>
				</g>
			</g>
		</g>
		<g>
			<path fill="#FFFF75" d="M142.775,184.6c0-1.98,1.62-3.6,3.6-3.6h58.162c1.98,0,3.6,1.62,3.6,3.6v12.95c0,1.98-1.62,3.6-3.6,3.6
				h-58.162c-1.98,0-3.6-1.62-3.6-3.6V184.6z"/>
			<path fill="none" stroke="#000000" stroke-width="0.75" stroke-linecap="square" stroke-miterlimit="1" d="M142.775,184.6
				c0-1.98,1.62-3.6,3.6-3.6h58.162c1.98,0,3.6,1.62,3.6,3.6v12.95c0,1.98-1.62,3.6-3.6,3.6h-58.162c-1.98,0-3.6-1.62-3.6-3.6V184.6
				z"/>
		</g>
		<g>
			<path fill="#FFFFFF" d="M142.775,223.744c0-1.98,1.62-3.6,3.6-3.6h58.162c1.98,0,3.6,1.62,3.6,3.6v12.95c0,1.98-1.62,3.6-3.6,3.6
				h-58.162c-1.98,0-3.6-1.62-3.6-3.6V223.744z"/>
			<path fill="none" stroke="#000000" stroke-width="0.75" stroke-linecap="square" stroke-miterlimit="1" d="M142.775,223.744
				c0-1.98,1.62-3.6,3.6-3.6h58.162c1.98,0,3.6,1.62,3.6,3.6v12.95c0,1.98-1.62,3.6-3.6,3.6h-58.162c-1.98,0-3.6-1.62-3.6-3.6
				V223.744z"/>
		</g>
		<g>
			<path fill="#78FFFF" d="M308.043,262.153c0-1.98,1.62-3.6,3.6-3.6h57.889c1.979,0,3.6,1.62,3.6,3.6v19.569
				c0,1.98-1.62,3.6-3.6,3.6h-57.889c-1.979,0-3.6-1.62-3.6-3.6V262.153z"/>
			<path fill="none" stroke="#000000" stroke-width="0.75" stroke-linecap="square" stroke-miterlimit="1" d="M308.043,262.153
				c0-1.98,1.62-3.6,3.6-3.6h57.889c1.979,0,3.6,1.62,3.6,3.6v19.569c0,1.98-1.62,3.6-3.6,3.6h-57.889c-1.979,0-3.6-1.62-3.6-3.6
				V262.153z"/>
		</g>
		<g>
			<path fill="#78FFFF" d="M390.158,379.71c0-1.979,1.62-3.6,3.6-3.6h53.83c1.979,0,3.6,1.62,3.6,3.6v12.953
				c0,1.979-1.62,3.6-3.6,3.6h-53.83c-1.979,0-3.6-1.62-3.6-3.6V379.71z"/>
			<path fill="none" stroke="#000000" stroke-width="0.75" stroke-linecap="square" stroke-miterlimit="1" d="M390.158,379.71
				c0-1.979,1.62-3.6,3.6-3.6h53.83c1.979,0,3.6,1.62,3.6,3.6v12.953c0,1.979-1.62,3.6-3.6,3.6h-53.83c-1.979,0-3.6-1.62-3.6-3.6
				V379.71z"/>
		</g>
		<text transform="matrix(1 0 0 1 394.0283 384.4121)"><tspan x="0" y="0" fill="#231F20" font-size="6">Numeric</tspan><tspan x="0" y="7.2" fill="#231F20" font-size="6">Measurements</tspan></text>
		<text transform="matrix(1 0 0 1 389.4805 373.0117)" fill="#231F20" font-size="7">TID 1404</text>
		<g>
			<path fill="#78FFFF" d="M390.158,340.644c0-1.979,1.62-3.6,3.6-3.6h53.83c1.979,0,3.6,1.62,3.6,3.6v12.949
				c0,1.979-1.62,3.6-3.6,3.6h-53.83c-1.979,0-3.6-1.62-3.6-3.6V340.644z"/>
			<path fill="none" stroke="#000000" stroke-width="0.75" stroke-linecap="square" stroke-miterlimit="1" d="M390.158,340.644
				c0-1.979,1.62-3.6,3.6-3.6h53.83c1.979,0,3.6,1.62,3.6,3.6v12.949c0,1.979-1.62,3.6-3.6,3.6h-53.83c-1.979,0-3.6-1.62-3.6-3.6
				V340.644z"/>
		</g>
		<text transform="matrix(1 0 0 1 394.0283 345.3398)"><tspan x="0" y="0" fill="#231F20" font-size="6">Volume</tspan><tspan x="0" y="7.199" fill="#231F20" font-size="6">Measurements</tspan></text>
		<text transform="matrix(1 0 0 1 389.4805 333.4453)" fill="#231F20" font-size="7">TID 1402</text>
		<g>
			<path fill="#78FFFF" d="M390.158,262.153c0-1.98,1.62-3.6,3.6-3.6h53.83c1.979,0,3.6,1.62,3.6,3.6v12.956
				c0,1.98-1.62,3.6-3.6,3.6h-53.83c-1.979,0-3.6-1.62-3.6-3.6V262.153z"/>
			<path fill="none" stroke="#000000" stroke-width="0.75" stroke-linecap="square" stroke-miterlimit="1" d="M390.158,262.153
				c0-1.98,1.62-3.6,3.6-3.6h53.83c1.979,0,3.6,1.62,3.6,3.6v12.956c0,1.98-1.62,3.6-3.6,3.6h-53.83c-1.979,0-3.6-1.62-3.6-3.6
				V262.153z"/>
		</g>
		<g>
			<path fill="#78FFFF" d="M390.158,301.423c0-1.98,1.62-3.6,3.6-3.6h53.83c1.979,0,3.6,1.62,3.6,3.6v12.953
				c0,1.98-1.62,3.6-3.6,3.6h-53.83c-1.979,0-3.6-1.62-3.6-3.6V301.423z"/>
			<path fill="none" stroke="#000000" stroke-width="0.75" stroke-linecap="square" stroke-miterlimit="1" d="M390.158,301.423
				c0-1.98,1.62-3.6,3.6-3.6h53.83c1.979,0,3.6,1.62,3.6,3.6v12.953c0,1.98-1.62,3.6-3.6,3.6h-53.83c-1.979,0-3.6-1.62-3.6-3.6
				V301.423z"/>
		</g>
		<text transform="matrix(1 0 0 1 145.2041 231.8853)" fill="#231F20" font-size="6">Observer Context</text>
		<text transform="matrix(1 0 0 1 141.1221 216.5312)" fill="#231F20" font-size="7">TID 1001</text>
		<text transform="matrix(1 0 0 1 307.2812 255.6001)" fill="#231F20" font-size="7">TID 2001</text>
		<text transform="matrix(1 0 0 1 310.7686 266.7827)"><tspan x="0" y="0" fill="#231F20" font-size="6">Basic Diagnostic</tspan><tspan x="0" y="7.2" fill="#231F20" font-size="6">Imaging Report</tspan><tspan x="0" y="14.4" fill="#231F20" font-size="6">Observations</tspan></text>
		<text transform="matrix(1 0 0 1 387.7715 255.6001)" fill="#231F20" font-size="7">TID 1400</text>
		<text transform="matrix(1 0 0 1 394.0283 265.8496)"><tspan x="0" y="0" fill="#231F20" font-size="6">Linear</tspan><tspan x="0" y="7.2" fill="#231F20" font-size="6">Measurements </tspan></text>
		<text transform="matrix(1 0 0 1 394.0342 305.3696)"><tspan x="0" y="0" fill="#231F20" font-size="6">Area</tspan><tspan x="0" y="7.2" fill="#231F20" font-size="6">Measurements</tspan></text>
		<text transform="matrix(1 0 0 1 389.4805 293.4751)" fill="#231F20" font-size="7">TID 1401</text>
		<g>
			<path fill="#FFFF75" d="M142.91,141.92c0-1.98,1.62-3.6,3.6-3.6h57.892c1.98,0,3.6,1.62,3.6,3.6v19.566c0,1.98-1.62,3.6-3.6,3.6
				H146.51c-1.98,0-3.6-1.62-3.6-3.6V141.92z"/>
			<path fill="none" stroke="#000000" stroke-width="0.75" stroke-linecap="square" stroke-miterlimit="1" d="M142.91,141.92
				c0-1.98,1.62-3.6,3.6-3.6h57.892c1.98,0,3.6,1.62,3.6,3.6v19.566c0,1.98-1.62,3.6-3.6,3.6H146.51c-1.98,0-3.6-1.62-3.6-3.6
				V141.92z"/>
		</g>
		<text transform="matrix(1 0 0 1 141.1221 135.2427)" fill="#231F20" font-size="7">TID 1204</text>
		<rect x="145.204" y="141.321" fill="none" width="48.176" height="19.765"/>
		<text transform="matrix(1 0 0 1 145.2012 145.6055)"><tspan x="0" y="0" fill="#231F20" font-size="6">Language of</tspan><tspan x="0" y="7.2" fill="#231F20" font-size="6">Content Item and </tspan><tspan x="0" y="14.4" fill="#231F20" font-size="6">Descendants</tspan></text>
		<text transform="matrix(1 0 0 1 141.1221 177.4624)" fill="#231F20" font-size="7">TID 1210</text>
		<rect x="145.204" y="184.43" fill="none" width="61.378" height="13.711"/>
		<text transform="matrix(1 0 0 1 145.2041 188.7251)"><tspan x="0" y="0" fill="#231F20" font-size="6">Equivalent Meaning(s) </tspan><tspan x="0" y="7.2" fill="#231F20" font-size="6">of Concept Name</tspan></text>
		<g>
			<path fill="#FFFF75" d="M64.794,141.708c0-1.98,1.62-3.6,3.6-3.6h53.743c1.98,0,3.6,1.62,3.6,3.6v12.897c0,1.98-1.62,3.6-3.6,3.6
				H68.395c-1.98,0-3.6-1.62-3.6-3.6V141.708z"/>
			<path fill="none" stroke="#000000" stroke-width="0.75" stroke-linecap="square" d="M64.794,141.708c0-1.98,1.62-3.6,3.6-3.6
				h53.743c1.98,0,3.6,1.62,3.6,3.6v12.897c0,1.98-1.62,3.6-3.6,3.6H68.395c-1.98,0-3.6-1.62-3.6-3.6V141.708z"/>
		</g>
		<text transform="matrix(1 0 0 1 67.2002 146.3892)"><tspan x="0" y="0" fill="#231F20" font-size="6">Basic Diagnostic</tspan><tspan x="0" y="7.2" fill="#231F20" font-size="6">Imaging Report</tspan></text>
		<text transform="matrix(1 0 0 1 64.1172 135.2388)" fill="#231F20" font-size="7">TID 2000</text>
		<g>
			<path fill="#78FFFF" d="M142.775,262.813c0-1.98,1.62-3.6,3.6-3.6h58.162c1.98,0,3.6,1.62,3.6,3.6v12.95c0,1.98-1.62,3.6-3.6,3.6
				h-58.162c-1.98,0-3.6-1.62-3.6-3.6V262.813z"/>
			<path fill="none" stroke="#000000" stroke-width="0.75" stroke-linecap="square" stroke-miterlimit="1" d="M142.775,262.813
				c0-1.98,1.62-3.6,3.6-3.6h58.162c1.98,0,3.6,1.62,3.6,3.6v12.95c0,1.98-1.62,3.6-3.6,3.6h-58.162c-1.98,0-3.6-1.62-3.6-3.6
				V262.813z"/>
		</g>
		<text transform="matrix(1 0 0 1 145.2041 270.9541)" fill="#231F20" font-size="6">(heading)</text>
		<text transform="matrix(1 0 0 1 141.1221 255.6001)" fill="#231F20" font-size="7">CONTAINER</text>
		<g>
			<path fill="#78FFFF" d="M225.143,262.278c0-1.98,1.62-3.6,3.6-3.6h57.892c1.979,0,3.6,1.62,3.6,3.6v13.485
				c0,1.98-1.62,3.6-3.6,3.6h-57.892c-1.98,0-3.6-1.62-3.6-3.6V262.278z"/>
			<path fill="none" stroke="#000000" stroke-width="0.75" stroke-linecap="square" stroke-miterlimit="1" d="M225.143,262.278
				c0-1.98,1.62-3.6,3.6-3.6h57.892c1.979,0,3.6,1.62,3.6,3.6v13.485c0,1.98-1.62,3.6-3.6,3.6h-57.892c-1.98,0-3.6-1.62-3.6-3.6
				V262.278z"/>
		</g>
		<text transform="matrix(1 0 0 1 223.3545 255.6001)" fill="#231F20" font-size="7">TID 2002</text>
		<g>
			<path fill="#FFFF75" d="M224.707,184.6c0-1.98,1.62-3.6,3.6-3.6h53.83c1.979,0,3.6,1.62,3.6,3.6v12.95c0,1.98-1.62,3.6-3.6,3.6
				h-53.83c-1.98,0-3.6-1.62-3.6-3.6V184.6z"/>
			<path fill="none" stroke="#000000" stroke-width="0.75" stroke-linecap="square" stroke-miterlimit="1" d="M224.707,184.6
				c0-1.98,1.62-3.6,3.6-3.6h53.83c1.979,0,3.6,1.62,3.6,3.6v12.95c0,1.98-1.62,3.6-3.6,3.6h-53.83c-1.98,0-3.6-1.62-3.6-3.6V184.6z
				"/>
		</g>
		<text transform="matrix(1 0 0 1 228.4639 192.7393)" fill="#231F20" font-size="6">Language of Value</text>
		<text transform="matrix(1 0 0 1 224.0298 177.4082)" fill="#231F20" font-size="7">TID 1201</text>
		<g>
			<path fill="#FFFF75" d="M49.25,102.39c0-1.98,1.62-3.6,3.6-3.6h69.331c1.98,0,3.6,1.62,3.6,3.6v12.952c0,1.98-1.62,3.6-3.6,3.6
				H52.851c-1.98,0-3.6-1.62-3.6-3.6V102.39z"/>
			<path fill="none" stroke="#000000" stroke-width="0.75" stroke-linecap="square" stroke-miterlimit="1" d="M49.25,102.39
				c0-1.98,1.62-3.6,3.6-3.6h69.331c1.98,0,3.6,1.62,3.6,3.6v12.952c0,1.98-1.62,3.6-3.6,3.6H52.851c-1.98,0-3.6-1.62-3.6-3.6
				V102.39z"/>
		</g>
		<text transform="matrix(1 0 0 1 51.1553 106.9365)"><tspan x="0" y="0" fill="#231F20" font-size="6">Document IE</tspan><tspan x="0" y="7.2" fill="#231F20" font-size="6">Document General Module</tspan></text>
		<g>
			<path fill="#FFFFFF" d="M49.25,74.876c0-1.98,1.62-3.6,3.6-3.6h69.331c1.98,0,3.6,1.62,3.6,3.6v12.952c0,1.98-1.62,3.6-3.6,3.6
				H52.851c-1.98,0-3.6-1.62-3.6-3.6V74.876z"/>
			<path fill="none" stroke="#000000" stroke-width="0.75" stroke-linecap="square" stroke-miterlimit="1" d="M49.25,74.876
				c0-1.98,1.62-3.6,3.6-3.6h69.331c1.98,0,3.6,1.62,3.6,3.6v12.952c0,1.98-1.62,3.6-3.6,3.6H52.851c-1.98,0-3.6-1.62-3.6-3.6
				V74.876z"/>
		</g>
		<text transform="matrix(1 0 0 1 51.1553 83.0229)" fill="#231F20" font-size="6">Series IE</text>
		<g>
			<path fill="#FFFF75" d="M142.755,74.876c0-1.98,1.62-3.6,3.6-3.6h69.331c1.98,0,3.6,1.62,3.6,3.6v12.952c0,1.98-1.62,3.6-3.6,3.6
				h-69.331c-1.98,0-3.6-1.62-3.6-3.6V74.876z"/>
			<path fill="none" stroke="#000000" stroke-width="0.75" stroke-linecap="square" stroke-miterlimit="1" d="M142.755,74.876
				c0-1.98,1.62-3.6,3.6-3.6h69.331c1.98,0,3.6,1.62,3.6,3.6v12.952c0,1.98-1.62,3.6-3.6,3.6h-69.331c-1.98,0-3.6-1.62-3.6-3.6
				V74.876z"/>
		</g>
		<text transform="matrix(1 0 0 1 144.6602 83.0229)" fill="#231F20" font-size="6">Equipment IE</text>
		<g>
			<path fill="#FFFF75" d="M49.25,47.628c0-1.98,1.62-3.6,3.6-3.6h69.331c1.98,0,3.6,1.62,3.6,3.6v12.952c0,1.98-1.62,3.6-3.6,3.6
				H52.851c-1.98,0-3.6-1.62-3.6-3.6V47.628z"/>
			<path fill="none" stroke="#000000" stroke-width="0.75" stroke-linecap="square" stroke-miterlimit="1" d="M49.25,47.628
				c0-1.98,1.62-3.6,3.6-3.6h69.331c1.98,0,3.6,1.62,3.6,3.6v12.952c0,1.98-1.62,3.6-3.6,3.6H52.851c-1.98,0-3.6-1.62-3.6-3.6
				V47.628z"/>
		</g>
		<text transform="matrix(1 0 0 1 51.1553 55.7749)" fill="#231F20" font-size="6">Study IE</text>
		<g>
			<path fill="#FFFF75" d="M49.25,20.38c0-1.98,1.62-3.6,3.6-3.6h69.331c1.98,0,3.6,1.62,3.6,3.6v12.952c0,1.98-1.62,3.6-3.6,3.6
				H52.851c-1.98,0-3.6-1.62-3.6-3.6V20.38z"/>
			<path fill="none" stroke="#000000" stroke-width="0.75" stroke-linecap="square" stroke-miterlimit="1" d="M49.25,20.38
				c0-1.98,1.62-3.6,3.6-3.6h69.331c1.98,0,3.6,1.62,3.6,3.6v12.952c0,1.98-1.62,3.6-3.6,3.6H52.851c-1.98,0-3.6-1.62-3.6-3.6V20.38
				z"/>
		</g>
		<text transform="matrix(1 0 0 1 51.1553 28.5269)" fill="#231F20" font-size="6">Patient IE</text>
		<g>
			<path fill="#FFFFFF" d="M49.25,613.667c0-1.979,1.62-3.6,3.6-3.6h69.331c1.98,0,3.6,1.62,3.6,3.6v12.953
				c0,1.979-1.62,3.6-3.6,3.6H52.851c-1.98,0-3.6-1.62-3.6-3.6V613.667z"/>
			<path fill="none" stroke="#000000" stroke-width="0.75" stroke-linecap="square" stroke-miterlimit="1" d="M49.25,613.667
				c0-1.979,1.62-3.6,3.6-3.6h69.331c1.98,0,3.6,1.62,3.6,3.6v12.953c0,1.979-1.62,3.6-3.6,3.6H52.851c-1.98,0-3.6-1.62-3.6-3.6
				V613.667z"/>
		</g>
		<text transform="matrix(1 0 0 1 51.1553 621.8145)" fill="#231F20" font-size="6">Not supported in Mapping</text>
		<g>
			<path fill="#78FFFF" d="M49.25,586.419c0-1.979,1.62-3.6,3.6-3.6h69.331c1.98,0,3.6,1.62,3.6,3.6v12.953
				c0,1.979-1.62,3.6-3.6,3.6H52.851c-1.98,0-3.6-1.62-3.6-3.6V586.419z"/>
			<path fill="none" stroke="#000000" stroke-width="0.75" stroke-linecap="square" stroke-miterlimit="1" d="M49.25,586.419
				c0-1.979,1.62-3.6,3.6-3.6h69.331c1.98,0,3.6,1.62,3.6,3.6v12.953c0,1.979-1.62,3.6-3.6,3.6H52.851c-1.98,0-3.6-1.62-3.6-3.6
				V586.419z"/>
		</g>
		<text transform="matrix(1 0 0 1 51.1553 594.5664)" fill="#231F20" font-size="6">Mapped to CDA Body</text>
		<g>
			<path fill="#FFFF75" d="M49.25,559.171c0-1.979,1.62-3.6,3.6-3.6h69.331c1.98,0,3.6,1.62,3.6,3.6v12.953
				c0,1.979-1.62,3.6-3.6,3.6H52.851c-1.98,0-3.6-1.62-3.6-3.6V559.171z"/>
			<path fill="none" stroke="#000000" stroke-width="0.75" stroke-linecap="square" stroke-miterlimit="1" d="M49.25,559.171
				c0-1.979,1.62-3.6,3.6-3.6h69.331c1.98,0,3.6,1.62,3.6,3.6v12.953c0,1.979-1.62,3.6-3.6,3.6H52.851c-1.98,0-3.6-1.62-3.6-3.6
				V559.171z"/>
		</g>
		<text transform="matrix(1 0 0 1 51.1553 567.3184)" fill="#231F20" font-size="6">Mapped to CDA Header</text>
		<g>
			<path fill="#78FFFF" d="M224.707,418.999c0-1.979,1.62-3.6,3.6-3.6h58.162c1.979,0,3.6,1.62,3.6,3.6v12.951
				c0,1.979-1.62,3.6-3.6,3.6h-58.162c-1.98,0-3.6-1.62-3.6-3.6V418.999z"/>
			<path fill="none" stroke="#000000" stroke-width="0.75" stroke-linecap="square" stroke-miterlimit="1" d="M224.707,418.999
				c0-1.979,1.62-3.6,3.6-3.6h58.162c1.979,0,3.6,1.62,3.6,3.6v12.951c0,1.979-1.62,3.6-3.6,3.6h-58.162c-1.98,0-3.6-1.62-3.6-3.6
				V418.999z"/>
		</g>
		<text transform="matrix(1 0 0 1 227.1357 427.1406)" fill="#231F20" font-size="6">Observer Context</text>
		<text transform="matrix(1 0 0 1 224.1714 411.7871)" fill="#231F20" font-size="7">TID 1001</text>
		<g>
			<path fill="#78FFFF" d="M306.639,497.476c0-1.979,1.62-3.6,3.6-3.6h53.83c1.979,0,3.6,1.62,3.6,3.6v12.953
				c0,1.979-1.62,3.6-3.6,3.6h-53.83c-1.979,0-3.6-1.62-3.6-3.6V497.476z"/>
			<path fill="none" stroke="#000000" stroke-width="0.75" stroke-linecap="square" stroke-miterlimit="1" d="M306.639,497.476
				c0-1.979,1.62-3.6,3.6-3.6h53.83c1.979,0,3.6,1.62,3.6,3.6v12.953c0,1.979-1.62,3.6-3.6,3.6h-53.83c-1.979,0-3.6-1.62-3.6-3.6
				V497.476z"/>
		</g>
		<text transform="matrix(1 0 0 1 310.3955 505.6172)" fill="#231F20" font-size="6">Subject Context</text>
		<text transform="matrix(1 0 0 1 305.8125 490.2861)" fill="#231F20" font-size="7">TID 1006</text>
		<g>
			<path fill="#78FFFF" d="M306.639,457.946c0-1.979,1.62-3.6,3.6-3.6h53.83c1.979,0,3.6,1.62,3.6,3.6v12.951
				c0,1.979-1.62,3.6-3.6,3.6h-53.83c-1.979,0-3.6-1.62-3.6-3.6V457.946z"/>
			<path fill="none" stroke="#000000" stroke-width="0.75" stroke-linecap="square" stroke-miterlimit="1" d="M306.639,457.946
				c0-1.979,1.62-3.6,3.6-3.6h53.83c1.979,0,3.6,1.62,3.6,3.6v12.951c0,1.979-1.62,3.6-3.6,3.6h-53.83c-1.979,0-3.6-1.62-3.6-3.6
				V457.946z"/>
		</g>
		<text transform="matrix(1 0 0 1 310.3955 466.0879)" fill="#231F20" font-size="6">Procedure Context</text>
		<text transform="matrix(1 0 0 1 305.9609 451.3525)" fill="#231F20" font-size="7">TID 1005</text>
		<g>
			<path fill="#78FFFF" d="M306.639,418.978c0-1.979,1.62-3.6,3.6-3.6h53.83c1.979,0,3.6,1.62,3.6,3.6v12.951
				c0,1.979-1.62,3.6-3.6,3.6h-53.83c-1.979,0-3.6-1.62-3.6-3.6V418.978z"/>
			<path fill="none" stroke="#000000" stroke-width="0.75" stroke-linecap="square" stroke-miterlimit="1" d="M306.639,418.978
				c0-1.979,1.62-3.6,3.6-3.6h53.83c1.979,0,3.6,1.62,3.6,3.6v12.951c0,1.979-1.62,3.6-3.6,3.6h-53.83c-1.979,0-3.6-1.62-3.6-3.6
				V418.978z"/>
		</g>
		<text transform="matrix(1 0 0 1 310.3955 427.1182)" fill="#231F20" font-size="6">Observer Context</text>
		<text transform="matrix(1 0 0 1 305.9609 411.7871)" fill="#231F20" font-size="7">TID 1002</text>
		<g>
			<path fill="#78FFFF" d="M391.617,418.339c0-1.979,1.62-3.6,3.6-3.6h53.832c1.979,0,3.6,1.62,3.6,3.6v12.953
				c0,1.979-1.62,3.6-3.6,3.6h-53.832c-1.979,0-3.6-1.62-3.6-3.6V418.339z"/>
			<path fill="none" stroke="#000000" stroke-width="0.75" stroke-linecap="square" stroke-miterlimit="1" d="M391.617,418.339
				c0-1.979,1.62-3.6,3.6-3.6h53.832c1.979,0,3.6,1.62,3.6,3.6v12.953c0,1.979-1.62,3.6-3.6,3.6h-53.832c-1.979,0-3.6-1.62-3.6-3.6
				V418.339z"/>
		</g>
		<g>
			<path fill="#78FFFF" d="M391.617,457.603c0-1.979,1.62-3.6,3.6-3.6h53.832c1.979,0,3.6,1.62,3.6,3.6v12.953
				c0,1.979-1.62,3.6-3.6,3.6h-53.832c-1.979,0-3.6-1.62-3.6-3.6V457.603z"/>
			<path fill="none" stroke="#000000" stroke-width="0.75" stroke-linecap="square" stroke-miterlimit="1" d="M391.617,457.603
				c0-1.979,1.62-3.6,3.6-3.6h53.832c1.979,0,3.6,1.62,3.6,3.6v12.953c0,1.979-1.62,3.6-3.6,3.6h-53.832c-1.979,0-3.6-1.62-3.6-3.6
				V457.603z"/>
		</g>
		<text transform="matrix(1 0 0 1 389.2305 411.792)" fill="#231F20" font-size="7">TID 1003</text>
		<text transform="matrix(1 0 0 1 393.6465 422.04)"><tspan x="0" y="0" fill="#231F20" font-size="6">Person Observer</tspan><tspan x="0" y="7.2" fill="#231F20" font-size="6">Identifying Attributes </tspan></text>
		<text transform="matrix(1 0 0 1 395.0146 461.5566)"><tspan x="0" y="0" fill="#231F20" font-size="6">Device Observer</tspan><tspan x="0" y="7.199" fill="#231F20" font-size="6">Identifying Attributes </tspan></text>
		<text transform="matrix(1 0 0 1 390.9395 449.6621)" fill="#231F20" font-size="7">TID 1004</text>
		<g>
			<path fill="#FFFFFF" d="M391.719,613.671c0-1.979,1.62-3.6,3.6-3.6h53.832c1.979,0,3.6,1.62,3.6,3.6v12.949
				c0,1.979-1.62,3.6-3.6,3.6h-53.832c-1.979,0-3.6-1.62-3.6-3.6V613.671z"/>
			<path fill="none" stroke="#000000" stroke-width="0.75" stroke-linecap="square" stroke-miterlimit="1" d="M391.719,613.671
				c0-1.979,1.62-3.6,3.6-3.6h53.832c1.979,0,3.6,1.62,3.6,3.6v12.949c0,1.979-1.62,3.6-3.6,3.6h-53.832c-1.979,0-3.6-1.62-3.6-3.6
				V613.671z"/>
		</g>
		<text transform="matrix(1 0 0 1 395.0146 618.21)"><tspan x="0" y="0" fill="#231F20" font-size="6">Subject Context,</tspan><tspan x="0" y="7.2" fill="#231F20" font-size="6">Device</tspan></text>
		<text transform="matrix(1 0 0 1 391.041 607.0039)" fill="#231F20" font-size="7">TID 1010</text>
		<g>
			<path fill="#78FFFF" d="M391.719,535.149c0-1.979,1.62-3.6,3.6-3.6h53.832c1.979,0,3.6,1.62,3.6,3.6v12.953
				c0,1.979-1.62,3.6-3.6,3.6h-53.832c-1.979,0-3.6-1.62-3.6-3.6V535.149z"/>
			<path fill="none" stroke="#000000" stroke-width="0.75" stroke-linecap="square" stroke-miterlimit="1" d="M391.719,535.149
				c0-1.979,1.62-3.6,3.6-3.6h53.832c1.979,0,3.6,1.62,3.6,3.6v12.953c0,1.979-1.62,3.6-3.6,3.6h-53.832c-1.979,0-3.6-1.62-3.6-3.6
				V535.149z"/>
		</g>
		<text transform="matrix(1 0 0 1 395.0156 539.8623)"><tspan x="0" y="0" fill="#231F20" font-size="6">Subject Context,</tspan><tspan x="0" y="7.2" fill="#231F20" font-size="6">Fetus</tspan></text>
		<text transform="matrix(1 0 0 1 391.041 528.4619)" fill="#231F20" font-size="7">TID 1008</text>
		<g>
			<path fill="#FFFFFF" d="M391.719,497.478c0-1.979,1.62-3.6,3.6-3.6h53.832c1.979,0,3.6,1.62,3.6,3.6v12.949
				c0,1.979-1.62,3.6-3.6,3.6h-53.832c-1.979,0-3.6-1.62-3.6-3.6V497.478z"/>
			<path fill="none" stroke="#000000" stroke-width="0.75" stroke-linecap="square" stroke-miterlimit="1" d="M391.719,497.478
				c0-1.979,1.62-3.6,3.6-3.6h53.832c1.979,0,3.6,1.62,3.6,3.6v12.949c0,1.979-1.62,3.6-3.6,3.6h-53.832c-1.979,0-3.6-1.62-3.6-3.6
				V497.478z"/>
		</g>
		<text transform="matrix(1 0 0 1 395.0146 502.5889)"><tspan x="0" y="0" fill="#231F20" font-size="6">Subject Context,</tspan><tspan x="0" y="7.2" fill="#231F20" font-size="6">Patient</tspan></text>
		<text transform="matrix(1 0 0 1 391.041 490.29)" fill="#231F20" font-size="7">TID 1007</text>
		<g>
			<path fill="#FFFFFF" d="M391.719,574.409c0-1.979,1.62-3.6,3.6-3.6h53.832c1.979,0,3.6,1.62,3.6,3.6v12.953
				c0,1.979-1.62,3.6-3.6,3.6h-53.832c-1.979,0-3.6-1.62-3.6-3.6V574.409z"/>
			<path fill="none" stroke="#000000" stroke-width="0.75" stroke-linecap="square" stroke-miterlimit="1" d="M391.719,574.409
				c0-1.979,1.62-3.6,3.6-3.6h53.832c1.979,0,3.6,1.62,3.6,3.6v12.953c0,1.979-1.62,3.6-3.6,3.6h-53.832c-1.979,0-3.6-1.62-3.6-3.6
				V574.409z"/>
		</g>
		<text transform="matrix(1 0 0 1 395.0146 578.958)"><tspan x="0" y="0" fill="#231F20" font-size="6">Subject Context,</tspan><tspan x="0" y="7.2" fill="#231F20" font-size="6">Specimen</tspan></text>
		<text transform="matrix(1 0 0 1 391.041 568.0537)" fill="#231F20" font-size="7">TID 1009</text>
		<text transform="matrix(1 0 0 1 228.4639 270.9541)" fill="#231F20" font-size="6">Report Narrative</text>
	</g>
</g>
</svg>
