<?xml version="1.0" encoding="utf-8"?>

<!DOCTYPE svg PUBLIC "-//W3C//DTD SVG 1.1//EN" "http://www.w3.org/Graphics/SVG/1.1/DTD/svg11.dtd">
<svg version="1.1" id="Layer_1" xmlns="http://www.w3.org/2000/svg" xmlns:xlink="http://www.w3.org/1999/xlink" x="0px" y="0px"
	 width="702px" height="442px" viewBox="0 0 702 442" enable-background="new 0 0 702 442" xml:space="preserve">

<defs>
	<style type="text/css">
	text {
	  font-family: Helvetica, Verdana, ArialUnicodeMS, san-serif
	}
	</style>
</defs>

<g>
   <desc>
	PS 3.20 - Transformation of DICOM to and from HL7 Standards
   </desc>
</g>

<g>
	<rect x="1" y="1" fill="#F5EED8" width="700" height="440"/>
	<g>
		<g>
			<path fill="none" stroke="#000000" stroke-linejoin="round" stroke-miterlimit="3" d="M248.212,327.462l-99.242,19.361"/>
			<path fill="none" stroke="#000000" stroke-linejoin="round" stroke-miterlimit="3" stroke-dasharray="1.5,1.5" d="
				M248.213,327.001l-99.333-21.222"/>
			
				<line fill="none" stroke="#000000" stroke-linejoin="round" stroke-miterlimit="3" x1="248.212" y1="405.184" x2="148.944" y2="405.184"/>
			
				<line fill="none" stroke="#000000" stroke-linejoin="round" stroke-miterlimit="3" stroke-dasharray="1.5,1.5" x1="148.97" y1="31.602" x2="248.213" y2="31.602"/>
			
				<line fill="none" stroke="#000000" stroke-linejoin="round" stroke-miterlimit="3" stroke-dasharray="1.5,1.5" x1="148.97" y1="99.862" x2="248.213" y2="99.862"/>
			
				<line fill="none" stroke="#000000" stroke-linejoin="round" stroke-miterlimit="3" x1="148.925" y1="55.698" x2="248.168" y2="55.698"/>
			
				<line fill="none" stroke="#000000" stroke-linejoin="round" stroke-miterlimit="3" x1="148.925" y1="139.065" x2="248.168" y2="139.065"/>
		</g>
		
			<rect x="85.652" y="389.729" fill="#BCFFBB" stroke="#000000" stroke-width="0.5" stroke-linecap="round" stroke-linejoin="round" stroke-miterlimit="3" width="63.225" height="31.564"/>
		
			<rect x="85.652" y="330.239" fill="#BCFFBB" stroke="#000000" stroke-width="0.5" stroke-linecap="round" stroke-linejoin="round" stroke-miterlimit="3" width="63.225" height="31.564"/>
		
			<rect x="85.652" y="289.414" fill="#BCFFBB" stroke="#000000" stroke-width="0.5" stroke-linecap="round" stroke-linejoin="round" stroke-miterlimit="3" width="63.225" height="31.564"/>
		
			<rect x="248.338" y="213.201" fill="#FFFFC8" stroke="#000000" stroke-width="0.5" stroke-linecap="round" stroke-linejoin="round" stroke-miterlimit="3" width="106" height="32.036"/>
		
			<rect x="248.213" y="389.729" fill="#FFFFC8" stroke="#000000" stroke-width="0.5" stroke-linecap="round" stroke-linejoin="round" stroke-miterlimit="3" width="106" height="31.564"/>
		
			<rect x="248.213" y="302.696" fill="#FFFF75" stroke="#000000" stroke-width="0.5" stroke-linecap="round" stroke-linejoin="round" stroke-miterlimit="3" width="106" height="47.265"/>
		
			<rect x="248.213" y="93.196" fill="#FFFF75" stroke="#000000" stroke-width="0.5" stroke-linecap="round" stroke-linejoin="round" stroke-miterlimit="3" width="106" height="91.739"/>
		
			<rect x="248.213" y="14.48" fill="#FFFF75" stroke="#000000" stroke-width="0.5" stroke-linecap="round" stroke-linejoin="round" stroke-miterlimit="3" width="106" height="57.097"/>
		
			<path fill="#78FFFF" stroke="#000000" stroke-width="0.5" stroke-linecap="round" stroke-linejoin="round" stroke-miterlimit="3" d="
			M528.947,184.935H360.944l-6.499-19.67l6.499-19.66h168.003V184.935z"/>
		
			<path fill="#78FFFF" stroke="#000000" stroke-width="0.5" stroke-linecap="round" stroke-linejoin="round" stroke-miterlimit="3" d="
			M528.947,124.922H360.721l-6.508-15.869l6.508-15.857h168.227V124.922z"/>
		
			<path fill="#78FFFF" stroke="#000000" stroke-width="0.5" stroke-linecap="round" stroke-linejoin="round" stroke-miterlimit="3" d="
			M528.947,245.487H360.841l-6.503-16.088l6.503-16.078h168.106V245.487z"/>
		
			<path fill="#78FFFF" stroke="#000000" stroke-width="0.5" stroke-linecap="round" stroke-linejoin="round" stroke-miterlimit="3" d="
			M528.947,335.837H360.146l-6-8.72l6-8.727h168.801V335.837z"/>
		
			<path fill="#78FFFF" stroke="#000000" stroke-width="0.5" stroke-linecap="round" stroke-linejoin="round" stroke-miterlimit="3" d="
			M528.947,425.271H360.769l-6.323-19.857l6.323-19.847h168.179V425.271z"/>
		
			<rect x="528.947" y="93.196" fill="#FF7D7B" stroke="#000000" stroke-width="0.5" stroke-linecap="round" stroke-linejoin="round" stroke-miterlimit="3" width="146.683" height="331.973"/>
		
			<rect x="26.37" y="120.496" fill="#79FF77" stroke="#000000" stroke-width="0.5" stroke-linecap="round" stroke-linejoin="round" stroke-miterlimit="3" width="122.728" height="37.139"/>
		
			<rect x="26.37" y="14.48" fill="#79FF77" stroke="#000000" stroke-width="0.5" stroke-linecap="round" stroke-linejoin="round" stroke-miterlimit="3" width="122.632" height="92.235"/>
		<text transform="matrix(1 0 0 1 152.8477 135.8584)" font-size="6">0..1 assignedPerson  </text>
		<text transform="matrix(1 0 0 1 152.6748 96.9858)" font-size="6">0..1 representedOrganization  </text>
		<text transform="matrix(1 0 0 1 151.6943 29.3159)" font-size="6">0..1 wholeOrganization  </text>
		<text transform="matrix(1 0 0 1 175.4648 53.5156)" font-size="6">0..1 asOrganizationPartOf  </text>
		<text transform="matrix(1 0 0 1 151.8193 352.459)" font-size="6">0..1 informationRecipient  </text>
		<text transform="matrix(1 0 0 1 151.8193 303.7695)" font-size="6">0..1 receivedOrganization  </text>
		<text transform="matrix(1 0 0 1 151.8193 403.0215)" font-size="6">0..1 assignedPerson  </text>
		<rect x="363.058" y="311.309" fill="none" width="134.5" height="8.341"/>
		<text transform="matrix(1 0 0 1 363.0576 315.6025)" font-size="6">0..* intendedRecipient</text>
		<rect x="363.058" y="328.975" fill="none" width="134.5" height="8.446"/>
		<text transform="matrix(1 0 0 1 363.0576 333.2686)" font-size="6">typeCode*: &lt;= x_InformationRecipient</text>
		<rect x="362.975" y="379.295" fill="none" width="134.5" height="8.341"/>
		<text transform="matrix(1 0 0 1 362.9746 383.5879)" font-size="6">0..* assignedEntity</text>
		<rect x="362.975" y="396.961" fill="none" width="145.124" height="30.559"/>
		<text transform="matrix(1 0 0 1 362.9746 401.2539)"><tspan x="0" y="0" font-size="6">typeCode*: &lt;= ParticipationType</tspan><tspan x="0" y="7.201" font-size="6">functionCode: CE CWE [0..1] &lt;= ParticipationFunction</tspan><tspan x="0" y="14.4" font-size="6">contextControlCode*: CS CNE [1..1] &lt;= &quot;OP&quot;</tspan><tspan x="0" y="21.6" font-size="6">time: IVL&lt;TS&gt; [0..1]</tspan></text>
		<rect x="363.13" y="86.375" fill="none" width="156.833" height="8.447"/>
		<text transform="matrix(1 0 0 1 363.1299 90.6685)" font-size="6">0..* assignedEntity</text>
		<rect x="363.28" y="138.675" fill="none" width="153.688" height="8.447"/>
		<text transform="matrix(1 0 0 1 363.2793 142.9688)" font-size="6">0..* assignedEntity</text>
		<rect x="363.303" y="206.492" fill="none" width="124.955" height="8.446"/>
		<text transform="matrix(1 0 0 1 363.3027 210.7856)" font-size="6">0..* assignedEntity</text>
		<rect x="363.13" y="104.041" fill="none" width="156.833" height="23.369"/>
		<text transform="matrix(1 0 0 1 363.1309 108.334)"><tspan x="0" y="0" font-size="6">typeCode*: &lt;= AUTHEN</tspan><tspan x="0" y="7.2" font-size="6">time*: TS [1..1]</tspan><tspan x="0" y="14.4" font-size="6">signatureCode*: CS CNE [1..1] &lt;= ParticipationSignature</tspan></text>
		<rect x="363.28" y="156.395" fill="none" width="154.17" height="30.635"/>
		<text transform="matrix(1 0 0 1 363.2793 160.6885)"><tspan x="0" y="0" font-size="6">typeCode*: &lt;= LA</tspan><tspan x="0" y="7.2" font-size="6">contextControlCode*: CS CNE [1..1] &lt;= &quot;OP&quot;</tspan><tspan x="0" y="14.4" font-size="6">time*: TS [1..1]</tspan><tspan x="0" y="21.6" font-size="6">signatureCode*: CS CNE [1..1] &lt;= ParticipationSignature</tspan></text>
		<rect x="363.303" y="224.158" fill="none" width="125.501" height="23.287"/>
		<text transform="matrix(1 0 0 1 363.3027 228.4512)"><tspan x="0" y="0" font-size="6">typeCode*: &lt;= ENT (Transcriptionist)</tspan><tspan x="0" y="7.201" font-size="6">contextControlCode*: CS CNE [1..1] &lt;= &quot;OP&quot;</tspan><tspan x="0" y="14.4" font-size="6">time: TS [0..1]</tspan></text>
		<rect x="250.713" y="314.146" fill="none" width="91" height="37.8"/>
		<text transform="matrix(1 0 0 1 250.7129 318.4395)"><tspan x="0" y="0" font-size="6">classCode*: &lt;= </tspan><tspan x="0" y="7.201" font-size="6">x_InformationRecipientRole</tspan><tspan x="0" y="14.4" font-size="6">id*: SET&lt;II&gt; [0..*]</tspan><tspan x="0" y="21.6" font-size="6">addr: SET&lt;AD&gt; [0..*]</tspan><tspan x="0" y="28.801" font-size="6">telecom: SET&lt;TEL&gt; [0..*]</tspan></text>
		<rect x="250.713" y="104.646" fill="none" width="92.382" height="37.8"/>
		<text transform="matrix(1 0 0 1 250.7129 108.9399)"><tspan x="0" y="0" font-size="6">classCode*: &lt;= ASSIGNED</tspan><tspan x="0" y="7.2" font-size="6">id*: SET&lt;II&gt; [1..*]</tspan><tspan x="0" y="14.4" font-size="6">code: CE CWE [0..1] &lt;= RoleCode</tspan><tspan x="0" y="21.6" font-size="6">addr: SET&lt;AD&gt; [0..*]</tspan><tspan x="0" y="28.8" font-size="6">telecom: SET&lt;TEL&gt; [0..*]</tspan></text>
		<rect x="250.713" y="26.551" fill="none" width="96.185" height="45.026"/>
		<text transform="matrix(1 0 0 1 250.7129 30.8442)"><tspan x="0" y="0" font-size="6">classCode*: &lt;= PART</tspan><tspan x="0" y="7.2" font-size="6">id*: SET&lt;II&gt; [0..*]</tspan><tspan x="0" y="14.4" font-size="6">code: CE CWE [0..1] &lt;= RoleCode</tspan><tspan x="0" y="21.6" font-size="6">statusCode: CS CNE [0..1] &lt;=</tspan><tspan x="0" y="28.8" font-size="6"> RoleStatus</tspan><tspan x="0" y="36" font-size="6">effectiveTime: IVL&lt;TS&gt; [0..1]</tspan></text>
		<rect x="531.447" y="104.646" fill="none" width="137.552" height="88.362"/>
		<text transform="matrix(1 0 0 1 531.4473 108.9404)"><tspan x="0" y="0" font-size="6">classCode*: &lt;= DOCCLIN</tspan><tspan x="0" y="7.2" font-size="6">moodCode*: &lt;= EVN</tspan><tspan x="0" y="14.4" font-size="6">id*: II [1..1]</tspan><tspan x="0" y="21.6" font-size="6">code*: CE CWE [1..1] &lt;= DocumentType</tspan><tspan x="0" y="28.8" font-size="6">title: ST [0..1]</tspan><tspan x="0" y="36" font-size="6">effectiveTime*: TS [1..1]</tspan><tspan x="0" y="43.2" font-size="6">confidentialityCode*: CE CWE [1..1]</tspan><tspan x="0" y="50.4" font-size="6"> &lt;= x_BasicConfidentialityKind</tspan><tspan x="0" y="57.6" font-size="6">languageCode: CS CNE [0..1] &lt;= HumanLanguage</tspan><tspan x="0" y="64.8" font-size="6">setId: II [0..1]</tspan><tspan x="0" y="72" font-size="6">versionNumber: INT [0..1]</tspan><tspan x="0" y="79.2" font-size="6">copyTime: TS [0..1] (Deprecated)</tspan></text>
		<rect x="28.87" y="131.078" fill="none" width="87.703" height="23.289"/>
		<text transform="matrix(1 0 0 1 28.8701 135.3716)"><tspan x="0" y="0" font-size="6">classCode*: &lt;= PSN</tspan><tspan x="0" y="7.199" font-size="6">determinerCode*: &lt;= INSTANCE</tspan><tspan x="0" y="14.399" font-size="6">name: SET&lt;PN&gt; [0..*]</tspan></text>
		<rect x="28.87" y="25.931" fill="none" width="116.382" height="59.535"/>
		<text transform="matrix(1 0 0 1 28.8701 30.2251)"><tspan x="0" y="0" font-size="6">classCode*: &lt;= ORG</tspan><tspan x="0" y="7.2" font-size="6">determinerCode*: &lt;= INSTANCE</tspan><tspan x="0" y="14.4" font-size="6">id: SET&lt;II&gt; [0..*]</tspan><tspan x="0" y="21.6" font-size="6">name: SET&lt;ON&gt; [0..*]</tspan><tspan x="0" y="28.8" font-size="6">telecom: SET&lt;TEL&gt; [0..*]</tspan><tspan x="0" y="36" font-size="6">addr: SET&lt;AD&gt; [0..*]</tspan><tspan x="0" y="43.2" font-size="6">standardIndustryClassCode: CE CWE [0..1]</tspan><tspan x="0" y="50.4" font-size="6"> &lt;= OrganizationIndustryClass</tspan></text>
		<g>
			<text transform="matrix(1 0 0 1 251.0879 407.1807)" font-size="6">0..1 representedOrganization  </text>
		</g>
		<g>
			<text transform="matrix(1 0 0 1 251.2129 230.8184)" font-size="6">0..1 assignedPerson  </text>
		</g>
		<g>
			<g>
				<text transform="matrix(1 0 0 1 250.7129 222.1152)" font-size="7">AssignedEntity</text>
			</g>
			<g>
				<text transform="matrix(1 0 0 1 88.1523 297.2314)" font-size="7">Organization</text>
			</g>
			<g>
				<text transform="matrix(1 0 0 1 88.1523 338.0566)" font-size="7">Person</text>
			</g>
			<g>
				<text transform="matrix(1 0 0 1 250.7129 397.5469)" font-size="7">AssignedEntity</text>
			</g>
			<g>
				<text transform="matrix(1 0 0 1 88.1523 397.5469)" font-size="7">Person</text>
			</g>
			<rect x="363.141" y="320.024" fill="none" width="134.5" height="9.715"/>
			<text transform="matrix(1 0 0 1 363.1406 325.0342)" font-size="7">informationRecipient</text>
			<rect x="363.058" y="388.011" fill="none" width="134.5" height="9.715"/>
			<text transform="matrix(1 0 0 1 363.0576 393.0205)" font-size="7">participant</text>
			<rect x="28.87" y="122.127" fill="none" width="87.703" height="7.638"/>
			<text transform="matrix(1 0 0 1 28.8701 127.1377)" font-size="7">Person</text>
			<rect x="28.87" y="16.98" fill="none" width="116.382" height="9.854"/>
			<text transform="matrix(1 0 0 1 28.8701 21.9897)" font-size="7">Organization</text>
			<rect x="363.303" y="215.208" fill="none" width="125.955" height="7.639"/>
			<text transform="matrix(1 0 0 1 363.3027 220.2173)" font-size="7">dataEnterer</text>
			<rect x="250.713" y="305.196" fill="none" width="91" height="9.589"/>
			<text transform="matrix(1 0 0 1 250.7129 310.2051)" font-size="7">IntendedRecipient</text>
			<rect x="363.28" y="147.445" fill="none" width="154.355" height="9.726"/>
			<text transform="matrix(1 0 0 1 363.2812 152.4541)" font-size="7">legalAuthenticator</text>
			<rect x="363.131" y="95.09" fill="none" width="156.833" height="7.639"/>
			<text transform="matrix(1 0 0 1 363.1309 100.0991)" font-size="7">authenticator</text>
			<g>
				<rect x="250.713" y="95.696" fill="none" width="92.382" height="8.332"/>
				<text transform="matrix(1 0 0 1 250.7129 100.7056)" font-size="7">AssignedEntity</text>
			</g>
			<rect x="250.713" y="17.601" fill="none" width="96.185" height="9.854"/>
			<text transform="matrix(1 0 0 1 250.7129 22.6099)" font-size="7">OrganizationPartOf</text>
			<rect x="531.447" y="95.696" fill="none" width="137.552" height="7.772"/>
			<text transform="matrix(1 0 0 1 531.4473 100.7056)" font-size="7">ClinicalDocument</text>
		</g>
	</g>
</g>
</svg>
