<?xml version="1.0" encoding="utf-8"?>

<!DOCTYPE svg PUBLIC "-//W3C//DTD SVG 1.1//EN" "http://www.w3.org/Graphics/SVG/1.1/DTD/svg11.dtd">
<svg version="1.1" id="Layer_1" xmlns="http://www.w3.org/2000/svg" xmlns:xlink="http://www.w3.org/1999/xlink" x="0px" y="0px"
	 width="702px" height="467px" viewBox="0 0 702 467" enable-background="new 0 0 702 467" xml:space="preserve">

<defs>
	<style type="text/css">
	text {
	  font-family: Helvetica, Verdana, ArialUnicodeMS, san-serif
	}
	</style>
</defs>

<g>
   <desc>
	PS 3.20 - Transformation of DICOM to and from HL7 Standards
   </desc>
</g>

<g>
	<rect x="1" y="1" fill="#F5EED8" width="700" height="465"/>
	<g>
		
			<rect x="429.56" y="255.364" fill="#FF7D7B" stroke="#000000" stroke-width="0.72" stroke-linecap="round" stroke-linejoin="round" stroke-miterlimit="3" width="181.354" height="49.564"/>
		<g>
			<g>
				
					<line fill="none" stroke="#000000" stroke-width="0.72" stroke-linecap="round" stroke-linejoin="round" x1="61.302" y1="49.74" x2="61.302" y2="68.447"/>
				<g>
					<polygon points="59.21,67.021 61.302,74.826 63.394,67.021 					"/>
				</g>
			</g>
		</g>
		<g>
			<g>
				
					<line fill="none" stroke="#000000" stroke-width="0.72" stroke-linecap="round" stroke-linejoin="round" x1="249.993" y1="164.854" x2="225.328" y2="164.854"/>
				<g>
					<polygon points="226.754,162.763 218.949,164.854 226.754,166.946 					"/>
				</g>
			</g>
		</g>
		<g>
			
				<path fill="#FFFFFF" stroke="#000000" stroke-width="0.72" stroke-linecap="round" stroke-linejoin="round" stroke-miterlimit="3" d="
				M165.346,15.397H47.603v33.775h125.433V24.397L165.346,15.397"/>
			
				<path fill="none" stroke="#000000" stroke-width="0.72" stroke-linecap="round" stroke-linejoin="round" stroke-miterlimit="3" d="
				M165.346,15.397v9h7.689"/>
		</g>
		<g>
			
				<path fill="#FFFFFF" stroke="#000000" stroke-width="0.72" stroke-linecap="round" stroke-linejoin="round" stroke-miterlimit="3" d="
				M368.091,147.967H250.722v33.775H375.78v-24.775L368.091,147.967"/>
			
				<path fill="none" stroke="#000000" stroke-width="0.72" stroke-linecap="round" stroke-linejoin="round" stroke-miterlimit="3" d="
				M368.091,147.967v9h7.689"/>
		</g>
		
			<rect x="429.598" y="402.191" fill="#FF7D7B" stroke="#000000" stroke-width="0.72" stroke-linecap="round" stroke-linejoin="round" stroke-miterlimit="3" width="181.354" height="49.318"/>
		
			<path fill="#F8B8B9" stroke="#000000" stroke-width="0.72" stroke-linecap="round" stroke-linejoin="round" stroke-miterlimit="3" d="
			M610.952,369.039v25.16l-90.673,7.99l-90.682-7.99v-25.16H610.952z"/>
		
			<path fill="#F8B8B9" stroke="#000000" stroke-width="0.72" stroke-linecap="round" stroke-linejoin="round" stroke-miterlimit="3" d="
			M217.468,160.214v53.971l-84.911,14l-84.903-14v-53.971H217.468z"/>
		
			<path fill="#F8B8B9" stroke="#000000" stroke-width="0.72" stroke-linecap="round" stroke-linejoin="round" stroke-miterlimit="3" d="
			M264.948,262.451h155.35l9,17.365l-9,17.376h-155.35V262.451z"/>
		
			<rect x="47.603" y="74.826" fill="#FF7D7B" stroke="#000000" stroke-width="0.5" stroke-linecap="round" stroke-linejoin="round" stroke-miterlimit="3" width="171.037" height="85.399"/>
		
			<path fill="#F8B8B9" stroke="#000000" stroke-width="0.72" stroke-linecap="round" stroke-linejoin="round" stroke-miterlimit="3" d="
			M218.816,160.214v53.971l-85.522,14l-85.515-14v-53.971H218.816z"/>
		
			<rect x="47.779" y="74.826" fill="#FF7D7B" stroke="#000000" stroke-width="0.5" stroke-linecap="round" stroke-linejoin="round" stroke-miterlimit="3" width="171.037" height="85.399"/>
		
			<path fill="#F8B8B9" stroke="#000000" stroke-width="0.72" stroke-linecap="round" stroke-linejoin="round" stroke-miterlimit="3" d="
			M264.948,326.785h155.35l9,17.365l-9,17.376h-155.35V326.785z"/>
		
			<rect x="250.412" y="193.828" fill="#F8B8B9" stroke="#000000" stroke-width="0.72" stroke-linecap="round" stroke-linejoin="round" stroke-miterlimit="3" width="165.433" height="47.9"/>
		
			<rect x="93.853" y="228.784" fill="#FF7D7B" stroke="#000000" stroke-width="0.5" stroke-linecap="round" stroke-linejoin="round" stroke-miterlimit="3" width="171.037" height="85.399"/>
		
			<rect x="94.029" y="228.784" fill="#FF7D7B" stroke="#000000" stroke-width="0.5" stroke-linecap="round" stroke-linejoin="round" stroke-miterlimit="3" width="171.037" height="99.812"/>
		
			<rect x="429.56" y="319.719" fill="#FF7D7B" stroke="#000000" stroke-width="0.72" stroke-linecap="round" stroke-linejoin="round" stroke-miterlimit="3" width="181.354" height="49.32"/>
		<g>
			<text transform="matrix(1 0 0 1 350.0146 258.5898)" font-size="6">0..1 purposeOfReference  </text>
		</g>
		<g>
			<text transform="matrix(1 0 0 1 267.4478 248.2559)" font-size="6">0..* sopInstance</text>
		</g>
		<g>
			<text transform="matrix(1 0 0 1 356.6943 322.9238)" font-size="6">0..1 referencedFrames  </text>
		</g>
		<text transform="matrix(1 0 0 1 221.2432 196.4551)" font-size="7">0..*</text>
		<g>
			<text transform="matrix(1 0 0 1 614.3691 391.4141)" font-size="6">1..1 boundary  </text>
		</g>
		<rect x="50.041" y="26.839" fill="none" width="119.001" height="23.366"/>
		<text transform="matrix(1 0 0 1 50.041 31.1328)"><tspan x="0" y="0" font-size="6">DICOM Value Type NUM</tspan><tspan x="0" y="7.2" font-size="6">DICOM Data Type Decimal String mapped </tspan><tspan x="0" y="14.4" font-size="6">to  value: PQ (Physical Quantity) Data Type</tspan></text>
		<rect x="50.103" y="86.276" fill="none" width="166.391" height="52.315"/>
		<text transform="matrix(1 0 0 1 50.1025 90.5703)"><tspan x="0" y="0" font-size="6">classCode*: &lt;= OBS</tspan><tspan x="0" y="7.2" font-size="6">moodCode*: &lt;= EVN</tspan><tspan x="0" y="14.4" font-size="6">code*: CD CWE [1..1] &lt;= ExternallyDefinedActCodes </tspan><tspan x="0" y="21.6" font-size="6">(Concept Namec Code Sequence)</tspan><tspan x="0" y="28.8" font-size="6">effectiveTime: TS [0..1] (Observation Date Time (0040,A032)</tspan><tspan x="0" y="36" font-size="6">languageCode: CE CWE [0..1] &lt;= HumanLanguage</tspan><tspan x="0" y="43.2" font-size="6">value*: PQ [1..1] (DICOM Decimal String Data Type)</tspan></text>
		<rect x="50.103" y="171.676" fill="none" width="166.391" height="23.291"/>
		<text transform="matrix(1 0 0 1 50.1025 175.9697)"><tspan x="0" y="0" font-size="6">typeCode*: &lt;= SUBJ</tspan><tspan x="0" y="7.2" font-size="6">contextControlCode: CS CNE [0..1] &lt;= ContextControl&quot;AP&quot;</tspan><tspan x="0" y="14.4" font-size="6">contextConductionInd*: BL [1..1] &quot;true&quot;</tspan></text>
		<rect x="252.913" y="205.278" fill="none" width="161.551" height="21.835"/>
		<text transform="matrix(1 0 0 1 252.9131 209.5718)"><tspan x="0" y="0" font-size="6">typeCode*: &lt;= SUBJ</tspan><tspan x="0" y="7.2" font-size="6">contextControlCode*: CS CNE [1..1] &lt;= ContextControl&quot;AP&quot;</tspan><tspan x="0" y="14.4" font-size="6">contextConductionInd*: BL [1..1] &quot;true&quot;</tspan></text>
		<rect x="96.353" y="240.234" fill="none" width="166.391" height="88.362"/>
		<text transform="matrix(1 0 0 1 96.3525 244.5283)"><tspan x="0" y="0" font-size="6">classCode*: &lt;= DGIMG</tspan><tspan x="0" y="7.2" font-size="6">moodCode*: &lt;= EVN</tspan><tspan x="0" y="14.4" font-size="6">id*: II [1..1] (SOP Instance UID (0008,0018)</tspan><tspan x="0" y="21.6" font-size="6">code*: CE CWE [1..1] &lt;= ExternallyDefinedActCodes</tspan><tspan x="0" y="28.8" font-size="6"> (SOP Class UID Code (0008,0016)</tspan><tspan x="0" y="36" font-size="6">title*: ST [0..1] (SOP Class UID derived name)</tspan><tspan x="0" y="43.2" font-size="6">text: ED [0..1] (WADO Reference)</tspan><tspan x="0" y="50.4" font-size="6">effectiveTime: TS [0..1]</tspan><tspan x="0" y="57.6" font-size="6"> (Content Date (0008,0023) and Content Time (0008,0033)</tspan><tspan x="0" y="64.8" font-size="6">targetSiteCode: SET&lt;CD&gt; CWE [0..*] &lt;= ActSite</tspan><tspan x="0" y="72" font-size="6">subjectOrientationCode: CE CWE [0..1]</tspan><tspan x="0" y="79.2" font-size="6"> &lt;= ImagingSubjectOrientation</tspan></text>
		<rect x="253.161" y="159.403" fill="none" width="122.465" height="21.98"/>
		<text transform="matrix(1 0 0 1 253.1611 163.6973)"><tspan x="0" y="0" font-size="6">INFERRED FROM, R-INFERRED FROM</tspan><tspan x="0" y="7.2" font-size="6">DICOM Relationship Types</tspan><tspan x="0" y="14.4" font-size="6">Constraint on SOP Classes</tspan></text>
		<rect x="267.448" y="273.901" fill="none" width="161.85" height="23.291"/>
		<text transform="matrix(1 0 0 1 267.4478 278.1953)"><tspan x="0" y="0" font-size="6">typeCode*: &lt;= RSON</tspan><tspan x="0" y="7.2" font-size="6">contextControlCode*: CS CNE [1..1] &lt;= ContextControl&quot;AP&quot;</tspan><tspan x="0" y="14.4" font-size="6">contextConductionInd*: BL [1..1] &quot;true&quot;</tspan></text>
		<rect x="267.448" y="338.235" fill="none" width="162.993" height="23.291"/>
		<text transform="matrix(1 0 0 1 267.4478 342.5293)"><tspan x="0" y="0" font-size="6">typeCode*: &lt;= COMP</tspan><tspan x="0" y="7.2" font-size="6">contextControlCode*: CS CNE [1..1] &lt;= ContextControl&quot;AP&quot;</tspan><tspan x="0" y="14.4" font-size="6">contextConductionInd*: BL [1..1] &quot;true&quot;</tspan></text>
		<rect x="432.188" y="267.059" fill="none" width="179.098" height="37.87"/>
		<text transform="matrix(1 0 0 1 432.1875 271.3516)"><tspan x="0" y="0" font-size="6">classCode*: &lt;= OBS</tspan><tspan x="0" y="7.201" font-size="6">moodCode*: &lt;= EVN</tspan><tspan x="0" y="14.4" font-size="6">code*: CD CWE [1..1] &lt;= ObservationType(ASSERTION)</tspan><tspan x="0" y="21.6" font-size="6">value*: CD CWE [1..1] &lt;= ExternallyDefinedActCodes</tspan><tspan x="0" y="28.801" font-size="6"> (PurposeOfReference Code: DICOM CID 7003)</tspan></text>
		<rect x="432.06" y="331.169" fill="none" width="179.098" height="37.87"/>
		<text transform="matrix(1 0 0 1 432.0596 335.4629)"><tspan x="0" y="0" font-size="6">classCode*: &lt;= ROIBND</tspan><tspan x="0" y="7.199" font-size="6">moodCode*: &lt;= EVN</tspan><tspan x="0" y="14.4" font-size="6">code*: CV CNE [1..1]</tspan><tspan x="0" y="21.6" font-size="6"> &lt;= ExternallyDefinedActCodes</tspan><tspan x="0" y="28.799" font-size="6"> (DCM 121190 &quot;Referenced Frames&quot;)</tspan></text>
		<rect x="432.098" y="413.641" fill="none" width="179.098" height="37.87"/>
		<text transform="matrix(1 0 0 1 432.0977 417.9336)"><tspan x="0" y="0" font-size="6">classCode*: &lt;= OBS</tspan><tspan x="0" y="7.201" font-size="6">moodCode*: &lt;= EVN</tspan><tspan x="0" y="14.4" font-size="6">code*: CE CNE [1..1] &lt;= ExternallyDefinedActCodes</tspan><tspan x="0" y="21.6" font-size="6"> (DCM 113036 &quot;Group of Frames for Display&quot;)</tspan><tspan x="0" y="28.801" font-size="6">value*: LIST&lt;INT&gt; [1..*] (Referenced Frame Number (0008,1160)</tspan></text>
		<rect x="432.098" y="380.49" fill="none" width="75.514" height="8.442"/>
		<text transform="matrix(1 0 0 1 432.0977 384.7852)"><tspan x="0" y="0" font-size="6">typeCode*: &lt;= COM</tspan><tspan x="54.026" y="0" font-size="6">P</tspan></text>
		<g>
			<rect x="50.103" y="77.326" fill="none" width="137.552" height="7.772"/>
			<text transform="matrix(1 0 0 1 50.1025 82.3354)" font-size="7">QuantityMeasurement</text>
			<rect x="267.448" y="264.951" fill="none" width="123.417" height="7.772"/>
			<text transform="matrix(1 0 0 1 267.4473 269.9609)" font-size="7">reason</text>
			<rect x="267.448" y="329.285" fill="none" width="123.417" height="7.772"/>
			<text transform="matrix(1 0 0 1 267.4473 334.2949)" font-size="7">component</text>
			<rect x="50.041" y="17.888" fill="none" width="123.416" height="7.773"/>
			<text transform="matrix(1 0 0 1 50.041 22.897)" font-size="7">Note</text>
			<rect x="432.188" y="258.108" fill="none" width="137.551" height="7.772"/>
			<text transform="matrix(1 0 0 1 432.1875 263.1172)" font-size="7">PurposeOfReference</text>
			<rect x="432.06" y="322.219" fill="none" width="137.551" height="7.772"/>
			<text transform="matrix(1 0 0 1 432.0605 327.2285)" font-size="7">ReferencedFrames</text>
			<rect x="50.103" y="162.726" fill="none" width="137.552" height="7.772"/>
			<text transform="matrix(1 0 0 1 50.1025 167.7349)" font-size="7">Subject</text>
			<rect x="252.913" y="196.328" fill="none" width="137.551" height="7.772"/>
			<text transform="matrix(1 0 0 1 252.9131 201.3374)" font-size="7">subject</text>
			<rect x="253.161" y="150.458" fill="none" width="123.416" height="7.771"/>
			<text transform="matrix(1 0 0 1 253.1611 155.4673)" font-size="7">Note</text>
			<rect x="96.353" y="231.284" fill="none" width="137.552" height="7.772"/>
			<text transform="matrix(1 0 0 1 96.3525 236.293)" font-size="7">SopInstance</text>
			<rect x="432.098" y="404.69" fill="none" width="137.551" height="7.772"/>
			<text transform="matrix(1 0 0 1 432.0977 409.6992)" font-size="7">Boundary</text>
			<rect x="432.098" y="371.54" fill="none" width="75.514" height="7.772"/>
			<text transform="matrix(1 0 0 1 432.0977 376.5508)" font-size="7">component</text>
		</g>
	</g>
</g>
</svg>
