<?xml version="1.0" encoding="utf-8"?>

<!DOCTYPE svg PUBLIC "-//W3C//DTD SVG 1.1//EN" "http://www.w3.org/Graphics/SVG/1.1/DTD/svg11.dtd">
<svg version="1.1" id="Layer_1" xmlns="http://www.w3.org/2000/svg" xmlns:xlink="http://www.w3.org/1999/xlink" x="0px" y="0px"
	 width="702px" height="172px" viewBox="0 0 702 172" enable-background="new 0 0 702 172" xml:space="preserve">

<defs>
	<style type="text/css">
	text {
	  font-family: Helvetica, Verdana, ArialUnicodeMS, san-serif
	}
	</style>
</defs>

<g>
   <desc>
	PS 3.20 - Transformation of DICOM to and from HL7 Standards
   </desc>
</g>

<g>
	<rect x="1" y="1" fill="#F5EED8" width="700" height="170"/>
	<g>
		
			<line fill="none" stroke="#000000" stroke-linejoin="round" stroke-miterlimit="3" x1="497.094" y1="130.02" x2="566.955" y2="130.02"/>
		
			<path fill="#F8B8B9" stroke="#000000" stroke-width="0.72" stroke-linecap="round" stroke-linejoin="round" stroke-miterlimit="3" d="
			M181.632,31.943h155.018l8.45,8.684l-8.45,8.693H181.632V31.943z"/>
		
			<rect x="345.1" y="107.536" fill="#FFFF75" stroke="#000000" stroke-width="0.5" stroke-linecap="round" stroke-linejoin="round" stroke-miterlimit="3" width="151.994" height="49.25"/>
		
			<rect x="566.955" y="111.45" fill="#79FF77" stroke="#000000" stroke-width="0.5" stroke-linecap="round" stroke-linejoin="round" stroke-miterlimit="3" width="100.096" height="37.139"/>
		
			<rect x="34.949" y="15.214" fill="#FF7D7B" stroke="#000000" stroke-width="0.5" stroke-linecap="round" stroke-linejoin="round" stroke-miterlimit="3" width="146.683" height="99.812"/>
		
			<path fill="#78FFFF" stroke="#000000" stroke-width="0.72" stroke-linecap="round" stroke-linejoin="round" stroke-miterlimit="3" d="
			M497.094,64.495v32.732l-75.971,9.809l-75.971-9.809V64.495H497.094z"/>
		
			<rect x="345.259" y="15.214" fill="#FF7D7B" stroke="#000000" stroke-width="0.72" stroke-linecap="round" stroke-linejoin="round" stroke-miterlimit="3" width="151.835" height="49.244"/>
		<rect x="289.147" y="25.324" fill="none" width="46.202" height="7.295"/>
		<text transform="matrix(1 0 0 1 289.1475 29.6182)" font-size="6">0..* serviceEvent</text>
		<g>
			<text transform="matrix(1 0 0 1 500.1836 94.25)" font-size="6">0..* assignedEntity  </text>
		</g>
		<text transform="matrix(1 0 0 1 508.918 127.7227)" font-size="6">0..1 assignedPerson  </text>
		<rect x="184.131" y="42.627" fill="none" width="118.921" height="8.443"/>
		<text transform="matrix(1 0 0 1 184.1309 46.9209)" font-size="6">typeCode*: &lt;= DOC</text>
		<rect x="347.758" y="26.658" fill="none" width="149.335" height="37.8"/>
		<text transform="matrix(1 0 0 1 347.7583 30.9531)"><tspan x="0" y="0" font-size="6">classCode*: &lt;= ACT</tspan><tspan x="0" y="7.2" font-size="6">moodCode*: &lt;= EVN</tspan><tspan x="0" y="14.4" font-size="6">id: SET&lt;II&gt; [0..*]</tspan><tspan x="0" y="21.6" font-size="6">code: CE CWE [0..1]</tspan><tspan x="0" y="28.8" font-size="6">effectiveTime: IVL&lt;TS&gt; [0..1]</tspan></text>
		<rect x="37.448" y="26.664" fill="none" width="137.552" height="88.362"/>
		<text transform="matrix(1 0 0 1 37.4487 30.9575)"><tspan x="0" y="0" font-size="6">classCode*: &lt;= DOCCLIN</tspan><tspan x="0" y="7.2" font-size="6">moodCode*: &lt;= EVN</tspan><tspan x="0" y="14.4" font-size="6">id*: II [1..1]</tspan><tspan x="0" y="21.6" font-size="6">code*: CE CWE [1..1] &lt;= DocumentType</tspan><tspan x="0" y="28.8" font-size="6">title: ST [0..1]</tspan><tspan x="0" y="36" font-size="6">effectiveTime*: TS [1..1]</tspan><tspan x="0" y="43.2" font-size="6">confidentialityCode*: CE CWE [1..1]</tspan><tspan x="0" y="50.4" font-size="6"> &lt;= x_BasicConfidentialityKind</tspan><tspan x="0" y="57.599" font-size="6">languageCode: CS CNE [0..1] &lt;= HumanLanguage</tspan><tspan x="0" y="64.8" font-size="6">setId: II [0..1]</tspan><tspan x="0" y="72" font-size="6">versionNumber: INT [0..1]</tspan><tspan x="0" y="79.201" font-size="6">copyTime: TS [0..1] (Deprecated)</tspan></text>
		<rect x="347.758" y="75.992" fill="none" width="148.97" height="20.731"/>
		<text transform="matrix(1 0 0 1 347.7583 80.2866)"><tspan x="0" y="0" font-size="6">typeCode*: &lt;= x_ServiceEventPerformer</tspan><tspan x="0" y="7.2" font-size="6">functionCode: CE CWE [0..1] &lt;= ParticipationFunction</tspan><tspan x="0" y="14.4" font-size="6">time: IVL&lt;TS&gt; [0..1]</tspan></text>
		<rect x="569.455" y="122.032" fill="none" width="87.703" height="23.289"/>
		<text transform="matrix(1 0 0 1 569.4541 126.3262)"><tspan x="0" y="0" font-size="6">classCode*: &lt;= PSN</tspan><tspan x="0" y="7.199" font-size="6">determinerCode*: &lt;= INSTANCE</tspan><tspan x="0" y="14.398" font-size="6">name: SET&lt;PN&gt; [0..*]</tspan></text>
		<rect x="347.599" y="118.986" fill="none" width="92.381" height="37.8"/>
		<text transform="matrix(1 0 0 1 347.5991 123.2793)"><tspan x="0" y="0" font-size="6">classCode*: &lt;= ASSIGNED</tspan><tspan x="0" y="7.201" font-size="6">id*: SET&lt;II&gt; [1..*]</tspan><tspan x="0" y="14.4" font-size="6">code: CE CWE [0..1] &lt;= RoleCode</tspan><tspan x="0" y="21.601" font-size="6">addr: SET&lt;AD&gt; [0..*]</tspan><tspan x="0" y="28.801" font-size="6">telecom: SET&lt;TEL&gt; [0..*]</tspan></text>
		<g>
			<rect x="37.448" y="17.714" fill="none" width="137.552" height="7.772"/>
			<text transform="matrix(1 0 0 1 37.4478 22.7231)" font-size="7">ClinicalDocument</text>
			<rect x="184.131" y="32.926" fill="none" width="59.853" height="7.639"/>
			<text transform="matrix(1 0 0 1 184.1309 37.9346)" font-size="7">documentationOf</text>
			<rect x="347.758" y="67.043" fill="none" width="137.552" height="7.771"/>
			<text transform="matrix(1 0 0 1 347.7588 72.0518)" font-size="7">performer</text>
			<rect x="347.758" y="17.714" fill="none" width="137.552" height="7.771"/>
			<text transform="matrix(1 0 0 1 347.7588 22.7231)" font-size="7">ServiceEvent</text>
			<rect x="569.455" y="113.081" fill="none" width="87.703" height="7.639"/>
			<text transform="matrix(1 0 0 1 569.4541 118.0918)" font-size="7">Person</text>
			<g>
				<rect x="347.599" y="110.036" fill="none" width="92.381" height="8.332"/>
				<text transform="matrix(1 0 0 1 347.5991 115.0449)" font-size="7">AssignedEntity</text>
			</g>
		</g>
	</g>
</g>
</svg>
