<?xml version="1.0" encoding="utf-8"?>

<!DOCTYPE svg PUBLIC "-//W3C//DTD SVG 1.1//EN" "http://www.w3.org/Graphics/SVG/1.1/DTD/svg11.dtd">
<svg version="1.1" id="Layer_1" xmlns="http://www.w3.org/2000/svg" xmlns:xlink="http://www.w3.org/1999/xlink" x="0px" y="0px"
	 width="502px" height="362px" viewBox="0 0 502 362" enable-background="new 0 0 502 362" xml:space="preserve">

<defs>
	<style type="text/css">
	text {
	  font-family: Helvetica, Verdana, ArialUnicodeMS, san-serif
	}
	</style>
</defs>

<g>
   <desc>
	PS 3.20 - Transformation of DICOM to and from HL7 Standards
   </desc>
</g>

<g>
	<rect x="1" y="1" fill="#F5EED8" width="500" height="360"/>
	<g>
		<g>
			<path fill="#CEDFEF" d="M138.075,64.097c0-1.98,1.62-3.6,3.6-3.6h53.829c1.98,0,3.6,1.62,3.6,3.6v12.95c0,1.98-1.62,3.6-3.6,3.6
				h-53.829c-1.98,0-3.6-1.62-3.6-3.6V64.097z"/>
			<path fill="none" stroke="#000000" stroke-width="0.75" stroke-linecap="square" stroke-miterlimit="1" d="M138.075,64.097
				c0-1.98,1.62-3.6,3.6-3.6h53.829c1.98,0,3.6,1.62,3.6,3.6v12.95c0,1.98-1.62,3.6-3.6,3.6h-53.829c-1.98,0-3.6-1.62-3.6-3.6
				V64.097z"/>
		</g>
		<g>
			<path fill="#CEDFEF" d="M138.075,103.241c0-1.98,1.62-3.6,3.6-3.6h53.829c1.98,0,3.6,1.62,3.6,3.6v12.95c0,1.98-1.62,3.6-3.6,3.6
				h-53.829c-1.98,0-3.6-1.62-3.6-3.6V103.241z"/>
			<path fill="none" stroke="#000000" stroke-width="0.75" stroke-linecap="square" stroke-miterlimit="1" d="M138.075,103.241
				c0-1.98,1.62-3.6,3.6-3.6h53.829c1.98,0,3.6,1.62,3.6,3.6v12.95c0,1.98-1.62,3.6-3.6,3.6h-53.829c-1.98,0-3.6-1.62-3.6-3.6
				V103.241z"/>
		</g>
		<g>
			<path fill="#CEDFEF" d="M137.798,219.355c0-1.979,1.62-3.6,3.6-3.6h53.573c1.98,0,3.6,1.62,3.6,3.6v19.57
				c0,1.979-1.62,3.6-3.6,3.6h-53.573c-1.98,0-3.6-1.62-3.6-3.6V219.355z"/>
			<path fill="none" stroke="#000000" stroke-width="0.75" stroke-linecap="square" stroke-miterlimit="1" d="M137.798,219.355
				c0-1.979,1.62-3.6,3.6-3.6h53.573c1.98,0,3.6,1.62,3.6,3.6v19.57c0,1.979-1.62,3.6-3.6,3.6h-53.573c-1.98,0-3.6-1.62-3.6-3.6
				V219.355z"/>
		</g>
		<g>
			<path fill="#CEDFEF" d="M216.163,336.912c0-1.979,1.62-3.6,3.6-3.6h53.83c1.979,0,3.6,1.62,3.6,3.6v12.953
				c0,1.979-1.62,3.6-3.6,3.6h-53.83c-1.98,0-3.6-1.62-3.6-3.6V336.912z"/>
			<path fill="none" stroke="#000000" stroke-width="0.75" stroke-linecap="square" stroke-miterlimit="1" d="M216.163,336.912
				c0-1.979,1.62-3.6,3.6-3.6h53.83c1.979,0,3.6,1.62,3.6,3.6v12.953c0,1.979-1.62,3.6-3.6,3.6h-53.83c-1.98,0-3.6-1.62-3.6-3.6
				V336.912z"/>
		</g>
		<text transform="matrix(1 0 0 1 220.0337 341.6182)"><tspan x="0" y="0" fill="#231F20" font-size="6">Numeric</tspan><tspan x="0" y="7.2" fill="#231F20" font-size="6">Measurements</tspan></text>
		<text transform="matrix(1 0 0 1 215.4858 330.2168)" fill="#231F20" font-size="7">TID 1404</text>
		<g>
			<path fill="#CEDFEF" d="M216.163,297.846c0-1.979,1.62-3.6,3.6-3.6h53.83c1.979,0,3.6,1.62,3.6,3.6v12.949
				c0,1.979-1.62,3.6-3.6,3.6h-53.83c-1.98,0-3.6-1.62-3.6-3.6V297.846z"/>
			<path fill="none" stroke="#000000" stroke-width="0.75" stroke-linecap="square" stroke-miterlimit="1" d="M216.163,297.846
				c0-1.979,1.62-3.6,3.6-3.6h53.83c1.979,0,3.6,1.62,3.6,3.6v12.949c0,1.979-1.62,3.6-3.6,3.6h-53.83c-1.98,0-3.6-1.62-3.6-3.6
				V297.846z"/>
		</g>
		<text transform="matrix(1 0 0 1 220.0337 302.5449)"><tspan x="0" y="0" fill="#231F20" font-size="6">Volume</tspan><tspan x="0" y="7.201" fill="#231F20" font-size="6">Measurements</tspan></text>
		<text transform="matrix(1 0 0 1 215.4858 290.6504)" fill="#231F20" font-size="7">TID 1402</text>
		<g>
			<path fill="#CEDFEF" d="M216.163,219.355c0-1.979,1.62-3.6,3.6-3.6h53.83c1.979,0,3.6,1.62,3.6,3.6v12.957
				c0,1.979-1.62,3.6-3.6,3.6h-53.83c-1.98,0-3.6-1.62-3.6-3.6V219.355z"/>
			<path fill="none" stroke="#000000" stroke-width="0.75" stroke-linecap="square" stroke-miterlimit="1" d="M216.163,219.355
				c0-1.979,1.62-3.6,3.6-3.6h53.83c1.979,0,3.6,1.62,3.6,3.6v12.957c0,1.979-1.62,3.6-3.6,3.6h-53.83c-1.98,0-3.6-1.62-3.6-3.6
				V219.355z"/>
		</g>
		<g>
			<path fill="#CEDFEF" d="M216.163,258.625c0-1.979,1.62-3.6,3.6-3.6h53.83c1.979,0,3.6,1.62,3.6,3.6v12.953
				c0,1.979-1.62,3.6-3.6,3.6h-53.83c-1.98,0-3.6-1.62-3.6-3.6V258.625z"/>
			<path fill="none" stroke="#000000" stroke-width="0.75" stroke-linecap="square" stroke-miterlimit="1" d="M216.163,258.625
				c0-1.979,1.62-3.6,3.6-3.6h53.83c1.979,0,3.6,1.62,3.6,3.6v12.953c0,1.979-1.62,3.6-3.6,3.6h-53.83c-1.98,0-3.6-1.62-3.6-3.6
				V258.625z"/>
		</g>
		<text transform="matrix(1 0 0 1 141.4229 111.3857)" fill="#231F20" font-size="6">Observer Context</text>
		<text transform="matrix(1 0 0 1 137.5596 96.0317)" fill="#231F20" font-size="7">TID 1001</text>
		<g>
			<path fill="#CEDFEF" d="M216.276,181.717c0-1.98,1.62-3.6,3.6-3.6h53.83c1.979,0,3.6,1.62,3.6,3.6v12.953
				c0,1.979-1.62,3.6-3.6,3.6h-53.83c-1.98,0-3.6-1.62-3.6-3.6V181.717z"/>
			<path fill="none" stroke="#000000" stroke-width="0.75" stroke-linecap="square" stroke-miterlimit="1" d="M216.276,181.717
				c0-1.98,1.62-3.6,3.6-3.6h53.83c1.979,0,3.6,1.62,3.6,3.6v12.953c0,1.979-1.62,3.6-3.6,3.6h-53.83c-1.98,0-3.6-1.62-3.6-3.6
				V181.717z"/>
		</g>
		<text transform="matrix(1 0 0 1 220.0337 189.8613)" fill="#231F20" font-size="6">Subject Context</text>
		<text transform="matrix(1 0 0 1 215.4502 174.5308)" fill="#231F20" font-size="7">TID 1006</text>
		<g>
			<path fill="#CEDFEF" d="M216.276,142.188c0-1.98,1.62-3.6,3.6-3.6h53.83c1.979,0,3.6,1.62,3.6,3.6v12.95c0,1.98-1.62,3.6-3.6,3.6
				h-53.83c-1.98,0-3.6-1.62-3.6-3.6V142.188z"/>
			<path fill="none" stroke="#000000" stroke-width="0.75" stroke-linecap="square" stroke-miterlimit="1" d="M216.276,142.188
				c0-1.98,1.62-3.6,3.6-3.6h53.83c1.979,0,3.6,1.62,3.6,3.6v12.95c0,1.98-1.62,3.6-3.6,3.6h-53.83c-1.98,0-3.6-1.62-3.6-3.6
				V142.188z"/>
		</g>
		<text transform="matrix(1 0 0 1 220.0337 150.332)" fill="#231F20" font-size="6">Procedure Context</text>
		<text transform="matrix(1 0 0 1 215.5996 135.5972)" fill="#231F20" font-size="7">TID 1005</text>
		<g>
			<path fill="#CEDFEF" d="M216.276,103.219c0-1.98,1.62-3.6,3.6-3.6h53.83c1.979,0,3.6,1.62,3.6,3.6v12.95c0,1.98-1.62,3.6-3.6,3.6
				h-53.83c-1.98,0-3.6-1.62-3.6-3.6V103.219z"/>
			<path fill="none" stroke="#000000" stroke-width="0.75" stroke-linecap="square" stroke-miterlimit="1" d="M216.276,103.219
				c0-1.98,1.62-3.6,3.6-3.6h53.83c1.979,0,3.6,1.62,3.6,3.6v12.95c0,1.98-1.62,3.6-3.6,3.6h-53.83c-1.98,0-3.6-1.62-3.6-3.6
				V103.219z"/>
		</g>
		<text transform="matrix(1 0 0 1 220.0337 111.3628)" fill="#231F20" font-size="6">Observer Context</text>
		<text transform="matrix(1 0 0 1 215.5996 96.0317)" fill="#231F20" font-size="7">TID 1002</text>
		<text transform="matrix(1 0 0 1 137.0371 212.8066)" fill="#231F20" font-size="7">TID 2001</text>
		<text transform="matrix(1 0 0 1 140.5239 223.9883)"><tspan x="0" y="0" fill="#231F20" font-size="6">Basic Diagnostic</tspan><tspan x="0" y="7.201" fill="#231F20" font-size="6">Imaging Report</tspan><tspan x="0" y="14.4" fill="#231F20" font-size="6">Observations</tspan></text>
		<text transform="matrix(1 0 0 1 213.7769 212.8066)" fill="#231F20" font-size="7">TID 1400</text>
		<text transform="matrix(1 0 0 1 220.0337 223.0557)"><tspan x="0" y="0" fill="#231F20" font-size="6">Linear</tspan><tspan x="0" y="7.2" fill="#231F20" font-size="6">Measurements </tspan></text>
		<text transform="matrix(1 0 0 1 220.0396 262.5762)"><tspan x="0" y="0" fill="#231F20" font-size="6">Area</tspan><tspan x="0" y="7.199" fill="#231F20" font-size="6">Measurements</tspan></text>
		<text transform="matrix(1 0 0 1 215.4858 250.6816)" fill="#231F20" font-size="7">TID 1401</text>
		<g>
			<path fill="#CEDFEF" d="M138.201,21.417c0-1.98,1.62-3.6,3.6-3.6h53.577c1.98,0,3.6,1.62,3.6,3.6v19.566c0,1.98-1.62,3.6-3.6,3.6
				h-53.577c-1.98,0-3.6-1.62-3.6-3.6V21.417z"/>
			<path fill="none" stroke="#000000" stroke-width="0.75" stroke-linecap="square" stroke-miterlimit="1" d="M138.201,21.417
				c0-1.98,1.62-3.6,3.6-3.6h53.577c1.98,0,3.6,1.62,3.6,3.6v19.566c0,1.98-1.62,3.6-3.6,3.6h-53.577c-1.98,0-3.6-1.62-3.6-3.6
				V21.417z"/>
		</g>
		<text transform="matrix(1 0 0 1 136.4419 14.7397)" fill="#231F20" font-size="7">TID 1204</text>
		<rect x="141.423" y="20.818" fill="none" width="48.176" height="19.765"/>
		<text transform="matrix(1 0 0 1 141.4199 25.106)"><tspan x="0" y="0" fill="#231F20" font-size="6">Language of</tspan><tspan x="0" y="7.2" fill="#231F20" font-size="6">Content Item and </tspan><tspan x="0" y="14.4" fill="#231F20" font-size="6">Descendants</tspan></text>
		<text transform="matrix(1 0 0 1 136.4419 56.9629)" fill="#231F20" font-size="7">TID 1210</text>
		<rect x="141.423" y="63.927" fill="none" width="53.128" height="13.711"/>
		<text transform="matrix(1 0 0 1 141.4229 68.2192)"><tspan x="0" y="0" fill="#231F20" font-size="6">Equivalent Meaning </tspan><tspan x="0" y="7.2" fill="#231F20" font-size="6">of Concept Name</tspan></text>
		<g>
			<path fill="none" stroke="#231F20" stroke-width="0.75" stroke-linecap="square" stroke-miterlimit="10" d="M127.39,25.998"/>
		</g>
		<g>
			<path fill="#CEDFEF" d="M60.114,21.206c0-1.98,1.62-3.6,3.6-3.6h53.743c1.98,0,3.6,1.62,3.6,3.6v12.897c0,1.98-1.62,3.6-3.6,3.6
				H63.714c-1.98,0-3.6-1.62-3.6-3.6V21.206z"/>
			<path fill="none" stroke="#000000" stroke-width="0.75" stroke-linecap="square" d="M60.114,21.206c0-1.98,1.62-3.6,3.6-3.6
				h53.743c1.98,0,3.6,1.62,3.6,3.6v12.897c0,1.98-1.62,3.6-3.6,3.6H63.714c-1.98,0-3.6-1.62-3.6-3.6V21.206z"/>
		</g>
		<text transform="matrix(1 0 0 1 72.2158 25.8896)"><tspan x="0" y="0" fill="#231F20" font-size="6">Basic Diagnostic</tspan><tspan x="0" y="7.2" fill="#231F20" font-size="6">Imaging Report</tspan></text>
		<text transform="matrix(1 0 0 1 59.437 14.7393)" fill="#231F20" font-size="7">TID 2000</text>
		<g>
			<g>
				<polyline fill="none" stroke="#231F20" stroke-width="0.75" stroke-linecap="square" stroke-miterlimit="10" points="
					127.286,70.291 127.286,109.364 131.683,109.364 				"/>
				<g>
					<polygon fill="#231F20" points="130.196,111.543 138.327,109.364 130.196,107.185 					"/>
				</g>
			</g>
		</g>
		<g>
			<g>
				<polyline fill="none" stroke="#231F20" stroke-width="0.75" stroke-linecap="square" stroke-miterlimit="10" points="
					127.286,27.799 127.286,70.569 131.419,70.569 				"/>
				<g>
					<polygon fill="#231F20" points="129.933,72.748 138.063,70.569 129.933,68.391 					"/>
				</g>
			</g>
		</g>
		<g>
			<g>
				
					<line fill="none" stroke="#231F20" stroke-width="0.75" stroke-linecap="square" stroke-miterlimit="10" x1="121.058" y1="27.766" x2="131.593" y2="27.766"/>
				<g>
					<polygon fill="#231F20" points="130.106,29.944 138.237,27.766 130.106,25.587 					"/>
				</g>
			</g>
		</g>
		<g>
			<path fill="none" stroke="#231F20" stroke-width="0.75" stroke-linecap="square" stroke-miterlimit="10" d="M205.872,107.924"/>
		</g>
		<g>
			<g>
				<polyline fill="none" stroke="#231F20" stroke-width="0.75" stroke-linecap="square" stroke-miterlimit="10" points="
					205.769,109.725 205.769,148.662 209.901,148.662 				"/>
				<g>
					<polygon fill="#231F20" points="208.415,150.841 216.546,148.662 208.415,146.482 					"/>
				</g>
			</g>
		</g>
		<g>
			<g>
				<polyline fill="none" stroke="#231F20" stroke-width="0.75" stroke-linecap="square" stroke-miterlimit="10" points="
					205.769,149.254 205.769,188.191 209.901,188.191 				"/>
				<g>
					<polygon fill="#231F20" points="208.415,190.37 216.546,188.191 208.415,186.013 					"/>
				</g>
			</g>
		</g>
		<g>
			<g>
				<polyline fill="none" stroke="#231F20" stroke-width="0.75" stroke-linecap="square" stroke-miterlimit="10" points="
					127.286,109.442 127.286,226.522 131.419,226.522 				"/>
				<g>
					<polygon fill="#231F20" points="129.933,228.701 138.063,226.522 129.933,224.344 					"/>
				</g>
			</g>
		</g>
		<g>
			<g>
				
					<line fill="none" stroke="#231F20" stroke-width="0.75" stroke-linecap="square" stroke-miterlimit="10" x1="199.54" y1="109.692" x2="210.075" y2="109.692"/>
				<g>
					<polygon fill="#231F20" points="208.589,111.871 216.72,109.692 208.589,107.513 					"/>
				</g>
			</g>
		</g>
		<g>
			<path fill="#CEDFEF" d="M216.276,64.097c0-1.98,1.62-3.6,3.6-3.6h53.83c1.979,0,3.6,1.62,3.6,3.6v12.95c0,1.98-1.62,3.6-3.6,3.6
				h-53.83c-1.98,0-3.6-1.62-3.6-3.6V64.097z"/>
			<path fill="none" stroke="#000000" stroke-width="0.75" stroke-linecap="square" stroke-miterlimit="1" d="M216.276,64.097
				c0-1.98,1.62-3.6,3.6-3.6h53.83c1.979,0,3.6,1.62,3.6,3.6v12.95c0,1.98-1.62,3.6-3.6,3.6h-53.83c-1.98,0-3.6-1.62-3.6-3.6V64.097
				z"/>
		</g>
		<text transform="matrix(1 0 0 1 220.0337 72.2397)" fill="#231F20" font-size="6">Language of Value</text>
		<text transform="matrix(1 0 0 1 215.5996 56.9087)" fill="#231F20" font-size="7">TID 1201</text>
		<g>
			<g>
				
					<line fill="none" stroke="#231F20" stroke-width="0.75" stroke-linecap="square" stroke-miterlimit="10" x1="199.54" y1="70.57" x2="210.075" y2="70.57"/>
				<g>
					<polygon fill="#231F20" points="208.589,72.749 216.72,70.57 208.589,68.392 					"/>
				</g>
			</g>
		</g>
		<g>
			<path fill="none" stroke="#231F20" stroke-width="0.75" stroke-linecap="square" stroke-miterlimit="10" d="M205.978,224.722"/>
		</g>
		<g>
			<g>
				<polyline fill="none" stroke="#231F20" stroke-width="0.75" stroke-linecap="square" stroke-miterlimit="10" points="
					205.876,226.522 205.876,265.463 209.639,265.463 				"/>
				<g>
					<polygon fill="#231F20" points="208.152,267.642 216.283,265.463 208.152,263.284 					"/>
				</g>
			</g>
		</g>
		<g>
			<g>
				<polyline fill="none" stroke="#231F20" stroke-width="0.75" stroke-linecap="square" stroke-miterlimit="10" points="
					205.876,266.055 205.876,304.992 209.639,304.992 				"/>
				<g>
					<polygon fill="#231F20" points="208.152,307.171 216.283,304.992 208.152,302.813 					"/>
				</g>
			</g>
		</g>
		<g>
			<g>
				<polyline fill="none" stroke="#231F20" stroke-width="0.75" stroke-linecap="square" stroke-miterlimit="10" points="
					205.876,305.584 205.876,343.389 209.639,343.389 				"/>
				<g>
					<polygon fill="#231F20" points="208.152,345.567 216.283,343.389 208.152,341.21 					"/>
				</g>
			</g>
		</g>
		<g>
			<g>
				
					<line fill="none" stroke="#231F20" stroke-width="0.75" stroke-linecap="square" stroke-miterlimit="10" x1="198.571" y1="226.489" x2="210.183" y2="226.489"/>
				<g>
					<polygon fill="#231F20" points="208.696,228.668 216.827,226.489 208.696,224.311 					"/>
				</g>
			</g>
		</g>
		<g>
			<g>
				
					<line fill="none" stroke="#231F20" stroke-width="0.75" stroke-linecap="square" stroke-miterlimit="10" x1="277.464" y1="188.193" x2="296.585" y2="188.193"/>
				<g>
					<polygon fill="#231F20" points="295.099,190.372 303.229,188.193 295.099,186.015 					"/>
				</g>
			</g>
		</g>
		<g>
			<path fill="#CEDFEF" d="M304.005,102.581c0-1.98,1.62-3.6,3.6-3.6h53.832c1.979,0,3.6,1.62,3.6,3.6v12.952
				c0,1.98-1.62,3.6-3.6,3.6h-53.832c-1.979,0-3.6-1.62-3.6-3.6V102.581z"/>
			<path fill="none" stroke="#000000" stroke-width="0.75" stroke-linecap="square" stroke-miterlimit="1" d="M304.005,102.581
				c0-1.98,1.62-3.6,3.6-3.6h53.832c1.979,0,3.6,1.62,3.6,3.6v12.952c0,1.98-1.62,3.6-3.6,3.6h-53.832c-1.979,0-3.6-1.62-3.6-3.6
				V102.581z"/>
		</g>
		<g>
			<path fill="#CEDFEF" d="M304.005,141.845c0-1.98,1.62-3.6,3.6-3.6h53.832c1.979,0,3.6,1.62,3.6,3.6v12.952
				c0,1.98-1.62,3.6-3.6,3.6h-53.832c-1.979,0-3.6-1.62-3.6-3.6V141.845z"/>
			<path fill="none" stroke="#000000" stroke-width="0.75" stroke-linecap="square" stroke-miterlimit="1" d="M304.005,141.845
				c0-1.98,1.62-3.6,3.6-3.6h53.832c1.979,0,3.6,1.62,3.6,3.6v12.952c0,1.98-1.62,3.6-3.6,3.6h-53.832c-1.979,0-3.6-1.62-3.6-3.6
				V141.845z"/>
		</g>
		<text transform="matrix(1 0 0 1 301.6191 96.0332)" fill="#231F20" font-size="7">TID 1003</text>
		<text transform="matrix(1 0 0 1 306.0352 106.2812)"><tspan x="0" y="0" fill="#231F20" font-size="6">Person Observer</tspan><tspan x="0" y="7.2" fill="#231F20" font-size="6">Identifying Attributes </tspan></text>
		<text transform="matrix(1 0 0 1 307.4023 145.8008)"><tspan x="0" y="0" fill="#231F20" font-size="6">Device Observer</tspan><tspan x="0" y="7.2" fill="#231F20" font-size="6">Identifying Attributes </tspan></text>
		<text transform="matrix(1 0 0 1 303.3281 133.9062)" fill="#231F20" font-size="7">TID 1004</text>
		<g>
			<path fill="none" stroke="#231F20" stroke-width="0.75" stroke-linecap="square" stroke-miterlimit="10" d="M292.38,107.945"/>
		</g>
		<g>
			<g>
				<polyline fill="none" stroke="#231F20" stroke-width="0.75" stroke-linecap="square" stroke-miterlimit="10" points="
					292.278,109.746 292.278,148.682 297.542,148.682 				"/>
				<g>
					<polygon fill="#231F20" points="296.056,150.861 304.187,148.682 296.056,146.503 					"/>
				</g>
			</g>
		</g>
		<g>
			<g>
				
					<line fill="none" stroke="#231F20" stroke-width="0.75" stroke-linecap="square" stroke-miterlimit="10" x1="277.464" y1="109.712" x2="296.585" y2="109.712"/>
				<g>
					<polygon fill="#231F20" points="295.099,111.892 303.229,109.712 295.099,107.533 					"/>
				</g>
			</g>
		</g>
		<g>
			<path fill="#CEDFEF" d="M304.106,297.912c0-1.979,1.62-3.6,3.6-3.6h53.832c1.979,0,3.6,1.62,3.6,3.6v12.949
				c0,1.979-1.62,3.6-3.6,3.6h-53.832c-1.979,0-3.6-1.62-3.6-3.6V297.912z"/>
			<path fill="none" stroke="#000000" stroke-width="0.75" stroke-linecap="square" stroke-miterlimit="1" d="M304.106,297.912
				c0-1.979,1.62-3.6,3.6-3.6h53.832c1.979,0,3.6,1.62,3.6,3.6v12.949c0,1.979-1.62,3.6-3.6,3.6h-53.832c-1.979,0-3.6-1.62-3.6-3.6
				V297.912z"/>
		</g>
		<text transform="matrix(1 0 0 1 307.4023 302.4512)"><tspan x="0" y="0" fill="#231F20" font-size="6">Subject Context,</tspan><tspan x="0" y="7.2" fill="#231F20" font-size="6">Device</tspan></text>
		<text transform="matrix(1 0 0 1 303.4297 291.2451)" fill="#231F20" font-size="7">TID 1010</text>
		<g>
			<path fill="#CEDFEF" d="M304.106,219.391c0-1.979,1.62-3.6,3.6-3.6h53.832c1.979,0,3.6,1.62,3.6,3.6v12.953
				c0,1.979-1.62,3.6-3.6,3.6h-53.832c-1.979,0-3.6-1.62-3.6-3.6V219.391z"/>
			<path fill="none" stroke="#000000" stroke-width="0.75" stroke-linecap="square" stroke-miterlimit="1" d="M304.106,219.391
				c0-1.979,1.62-3.6,3.6-3.6h53.832c1.979,0,3.6,1.62,3.6,3.6v12.953c0,1.979-1.62,3.6-3.6,3.6h-53.832c-1.979,0-3.6-1.62-3.6-3.6
				V219.391z"/>
		</g>
		<text transform="matrix(1 0 0 1 307.4033 224.1035)"><tspan x="0" y="0" fill="#231F20" font-size="6">Subject Context,</tspan><tspan x="0" y="7.2" fill="#231F20" font-size="6">Fetus</tspan></text>
		<text transform="matrix(1 0 0 1 303.4297 212.7031)" fill="#231F20" font-size="7">TID 1008</text>
		<g>
			<path fill="#CEDFEF" d="M304.106,181.719c0-1.98,1.62-3.6,3.6-3.6h53.832c1.979,0,3.6,1.62,3.6,3.6v12.949
				c0,1.979-1.62,3.6-3.6,3.6h-53.832c-1.979,0-3.6-1.62-3.6-3.6V181.719z"/>
			<path fill="none" stroke="#000000" stroke-width="0.75" stroke-linecap="square" stroke-miterlimit="1" d="M304.106,181.719
				c0-1.98,1.62-3.6,3.6-3.6h53.832c1.979,0,3.6,1.62,3.6,3.6v12.949c0,1.979-1.62,3.6-3.6,3.6h-53.832c-1.979,0-3.6-1.62-3.6-3.6
				V181.719z"/>
		</g>
		<text transform="matrix(1 0 0 1 307.4023 186.8301)"><tspan x="0" y="0" fill="#231F20" font-size="6">Subject Context,</tspan><tspan x="0" y="7.2" fill="#231F20" font-size="6">Patient</tspan></text>
		<text transform="matrix(1 0 0 1 303.4297 174.5312)" fill="#231F20" font-size="7">TID 1007</text>
		<g>
			<path fill="#CEDFEF" d="M304.106,258.65c0-1.979,1.62-3.6,3.6-3.6h53.832c1.979,0,3.6,1.62,3.6,3.6v12.953
				c0,1.979-1.62,3.6-3.6,3.6h-53.832c-1.979,0-3.6-1.62-3.6-3.6V258.65z"/>
			<path fill="none" stroke="#000000" stroke-width="0.75" stroke-linecap="square" stroke-miterlimit="1" d="M304.106,258.65
				c0-1.979,1.62-3.6,3.6-3.6h53.832c1.979,0,3.6,1.62,3.6,3.6v12.953c0,1.979-1.62,3.6-3.6,3.6h-53.832c-1.979,0-3.6-1.62-3.6-3.6
				V258.65z"/>
		</g>
		<text transform="matrix(1 0 0 1 307.4023 263.1992)"><tspan x="0" y="0" fill="#231F20" font-size="6">Subject Context,</tspan><tspan x="0" y="7.2" fill="#231F20" font-size="6">Specimen</tspan></text>
		<text transform="matrix(1 0 0 1 303.4297 252.2949)" fill="#231F20" font-size="7">TID 1009</text>
		<g>
			<path fill="#CEDFEF" d="M381.532,258.65c0-1.979,1.62-3.6,3.6-3.6h53.832c1.979,0,3.6,1.62,3.6,3.6v12.953
				c0,1.979-1.62,3.6-3.6,3.6h-53.832c-1.979,0-3.6-1.62-3.6-3.6V258.65z"/>
			<path fill="none" stroke="#000000" stroke-width="0.75" stroke-linecap="square" stroke-miterlimit="1" d="M381.532,258.65
				c0-1.979,1.62-3.6,3.6-3.6h53.832c1.979,0,3.6,1.62,3.6,3.6v12.953c0,1.979-1.62,3.6-3.6,3.6h-53.832c-1.979,0-3.6-1.62-3.6-3.6
				V258.65z"/>
		</g>
		<text transform="matrix(1 0 0 1 385.4961 263.1992)"><tspan x="0" y="0" fill="#231F20" font-size="6">Subject Context,</tspan><tspan x="0" y="7.2" fill="#231F20" font-size="6">Patient</tspan></text>
		<text transform="matrix(1 0 0 1 380.8555 252.2939)" fill="#231F20" font-size="7">TID 1007</text>
		<g>
			<g>
				<polyline fill="none" stroke="#231F20" stroke-width="0.75" stroke-linecap="square" stroke-miterlimit="10" points="
					292.38,188.064 292.38,225.867 297.644,225.867 				"/>
				<g>
					<polygon fill="#231F20" points="296.157,228.046 304.288,225.867 296.157,223.688 					"/>
				</g>
			</g>
		</g>
		<g>
			<g>
				<polyline fill="none" stroke="#231F20" stroke-width="0.75" stroke-linecap="square" stroke-miterlimit="10" points="
					292.38,225.961 292.38,265.127 297.644,265.127 				"/>
				<g>
					<polygon fill="#231F20" points="296.157,267.306 304.288,265.127 296.157,262.948 					"/>
				</g>
			</g>
		</g>
		<g>
			<g>
				<polyline fill="none" stroke="#231F20" stroke-width="0.75" stroke-linecap="square" stroke-miterlimit="10" points="
					292.38,265.32 292.38,304.387 297.644,304.387 				"/>
				<g>
					<polygon fill="#231F20" points="296.157,306.565 304.288,304.387 296.157,302.208 					"/>
				</g>
			</g>
		</g>
		<g>
			<g>
				
					<line fill="none" stroke="#231F20" stroke-width="0.75" stroke-linecap="square" stroke-miterlimit="10" x1="365.138" y1="265.127" x2="374.888" y2="265.127"/>
				<g>
					<polygon fill="#231F20" points="373.401,267.306 381.532,265.127 373.401,262.948 					"/>
				</g>
			</g>
		</g>
	</g>
</g>
</svg>
