<?xml version="1.0" encoding="utf-8"?>

<!DOCTYPE svg PUBLIC "-//W3C//DTD SVG 1.1//EN" "http://www.w3.org/Graphics/SVG/1.1/DTD/svg11.dtd">
<svg version="1.1" id="Layer_1" xmlns="http://www.w3.org/2000/svg" xmlns:xlink="http://www.w3.org/1999/xlink" x="0px" y="0px"
	 width="702px" height="227px" viewBox="0 0 702 227" enable-background="new 0 0 702 227" xml:space="preserve">

<defs>
	<style type="text/css">
	text {
	  font-family: Helvetica, Verdana, ArialUnicodeMS, san-serif
	}
	</style>
</defs>

<g>
   <desc>
	PS 3.20 - Transformation of DICOM to and from HL7 Standards
   </desc>
</g>

<g>
	<rect x="1" y="1" fill="#F5EED8" width="700" height="225"/>
	<g>
		
			<path fill="#F8B8B9" stroke="#000000" stroke-width="0.72" stroke-linecap="round" stroke-linejoin="round" stroke-miterlimit="3" d="
			M601.426,101.25v36.471l-120.207,16.5l-120.201-16.5V101.25H601.426z"/>
		
			<path fill="#F8B8B9" stroke="#000000" stroke-width="0.72" stroke-linecap="round" stroke-linejoin="round" stroke-miterlimit="3" d="
			M196.668,44.695h155.349l9,13.698l-9,13.707H196.668V44.695z"/>
		
			<rect x="361.018" y="15.607" fill="#FF7D7B" stroke="#000000" stroke-width="0.5" stroke-linecap="round" stroke-linejoin="round" stroke-miterlimit="3" width="240.408" height="85.643"/>
		
			<rect x="25.536" y="15.607" fill="#FF7D7B" stroke="#000000" stroke-width="0.5" stroke-linecap="round" stroke-linejoin="round" stroke-miterlimit="3" width="171.037" height="85.399"/>
		
			<rect x="361.018" y="154.846" fill="#FF7D7B" stroke="#000000" stroke-width="0.5" stroke-linecap="round" stroke-linejoin="round" stroke-miterlimit="3" width="240.408" height="56.547"/>
		<g>
			<text transform="matrix(1 0 0 1 606.4268 135.6289)" font-size="6">0..*  quantityMeasurement</text>
		</g>
		<g>
			<text transform="matrix(1 0 0 1 330.4849 40.834)" font-size="6">0..*  act</text>
		</g>
		<rect x="28.036" y="27.057" fill="none" width="166.391" height="73.949"/>
		<text transform="matrix(1 0 0 1 28.0356 31.3506)"><tspan x="0" y="0" font-size="6">classCode*: &lt;= DOCSECT</tspan><tspan x="0" y="7.2" font-size="6">moodCode*: &lt;= EVN</tspan><tspan x="0" y="14.4" font-size="6">id: II [0..1]</tspan><tspan x="0" y="21.6" font-size="6">code*: CE CWE [1..1] &lt;= DocumentSectionType</tspan><tspan x="0" y="28.8" font-size="6">title: ST [0..1]</tspan><tspan x="0" y="36" font-size="6">text*: ED [0..1]</tspan><tspan x="0" y="43.2" font-size="6">confidentialityCode: CE CWE [0..1]</tspan><tspan x="0" y="50.4" font-size="6"> &lt;= x_BasicConfidentialityKind</tspan><tspan x="0" y="57.6" font-size="6">languageCode: CS CNE [0..1] &lt;= HumanLanguage</tspan></text>
		<rect x="199.167" y="56.145" fill="none" width="122.944" height="15.955"/>
		<text transform="matrix(1 0 0 1 199.168 60.4395)"><tspan x="0" y="0" font-size="6">typeCode*: &lt;= x_ActRelationshipEntry</tspan><tspan x="0" y="7.2" font-size="6">contextConductionInd*: BL [1..1] &quot;true&quot;</tspan></text>
		<rect x="363.518" y="112.701" fill="none" width="167.504" height="23.289"/>
		<text transform="matrix(1 0 0 1 363.5186 116.9951)"><tspan x="0" y="0" font-size="6">typeCode*: &lt;= COMP</tspan><tspan x="0" y="7.2" font-size="6">contextControlCode*: CS CNE [1..1] &lt;= ContextControl&quot;AP&quot;</tspan><tspan x="0" y="14.4" font-size="6">contextConductionInd*: BL [1..1] &quot;true&quot;</tspan></text>
		<rect x="363.518" y="166.297" fill="none" width="234.408" height="45.096"/>
		<text transform="matrix(1 0 0 1 363.5176 170.5898)"><tspan x="0" y="0" font-size="6">classCode*: &lt;= OBS</tspan><tspan x="0" y="7.201" font-size="6">moodCode*: &lt;= EVN</tspan><tspan x="0" y="14.4" font-size="6">code*: CD CWE [1..1] &lt;= ExternallyDefinedActCodes (Concept Name Code Sequence)</tspan><tspan x="0" y="21.6" font-size="6">effectiveTime: TS [0..1] (Observation Date Time (0040,A032)</tspan><tspan x="0" y="28.801" font-size="6">languageCode: CE CWE [0..1] &lt;= HumanLanguage</tspan><tspan x="0" y="36" font-size="6">value*: PQ [1..1] (DICOM Decimal String Data Type)</tspan></text>
		<rect x="363.518" y="27.057" fill="none" width="168.527" height="73.949"/>
		<text transform="matrix(1 0 0 1 363.5176 31.3511)"><tspan x="0" y="0" font-size="6">classCode*: &lt;= x_ActClassDocumentEntryAct</tspan><tspan x="0" y="7.2" font-size="6">moodCode*: &lt;= x_DocumentActMood</tspan><tspan x="0" y="14.4" font-size="6">id: SET&lt;II&gt; [0..*]</tspan><tspan x="0" y="21.6" font-size="6">code*: CD CWE [1..1] &lt;= ActCode</tspan><tspan x="0" y="28.8" font-size="6">negationInd: BL [0..1]</tspan><tspan x="0" y="36" font-size="6">text: ED [0..1]</tspan><tspan x="0" y="43.2" font-size="6">statusCode: CS CNE [0..1] &lt;= ActStatus</tspan><tspan x="0" y="50.4" font-size="6">effectiveTime: IVL&lt;TS&gt; [0..1]</tspan><tspan x="0" y="57.6" font-size="6">priorityCode: CE CWE [0..1] &lt;= ActPriority</tspan><tspan x="0" y="64.8" font-size="6">languageCode: CS CNE [0..1] &lt;= HumanLanguage</tspan></text>
		<g>
			<rect x="28.036" y="18.107" fill="none" width="137.552" height="7.772"/>
			<text transform="matrix(1 0 0 1 28.0361 23.1162)" font-size="7">Section</text>
			<rect x="199.167" y="47.195" fill="none" width="123.417" height="7.772"/>
			<text transform="matrix(1 0 0 1 199.167 52.2041)" font-size="7">component</text>
			<rect x="363.518" y="18.107" fill="none" width="137.551" height="7.772"/>
			<text transform="matrix(1 0 0 1 363.5176 23.1162)" font-size="7">Act</text>
			<rect x="363.518" y="103.75" fill="none" width="137.551" height="7.773"/>
			<text transform="matrix(1 0 0 1 363.5176 108.7598)" font-size="7">component</text>
			<rect x="363.518" y="157.346" fill="none" width="137.551" height="7.773"/>
			<text transform="matrix(1 0 0 1 363.5176 162.3555)" font-size="7">QuantityMeasurement</text>
		</g>
	</g>
</g>
</svg>
