<?xml version="1.0" encoding="utf-8"?>

<!DOCTYPE svg PUBLIC "-//W3C//DTD SVG 1.1//EN" "http://www.w3.org/Graphics/SVG/1.1/DTD/svg11.dtd">
<svg version="1.1" id="Layer_1" xmlns="http://www.w3.org/2000/svg" xmlns:xlink="http://www.w3.org/1999/xlink" x="0px" y="0px"
	 width="702px" height="222px" viewBox="0 0 702 222" enable-background="new 0 0 702 222" xml:space="preserve">

<defs>
	<style type="text/css">
	text {
	  font-family: Helvetica, Verdana, ArialUnicodeMS, san-serif
	}
	</style>
</defs>

<g>
   <desc>
	PS 3.20 - Transformation of DICOM to and from HL7 Standards
   </desc>
</g>

<g>
	<rect x="1" y="1" fill="#F5EED8" width="700" height="220"/>
	<g>
		<g>
			<g>
				
					<line fill="none" stroke="#000000" stroke-width="0.72" stroke-linecap="round" stroke-linejoin="round" x1="408.76" y1="44.399" x2="408.76" y2="63.106"/>
				<g>
					<polygon points="406.668,61.68 408.76,69.485 410.852,61.68 					"/>
				</g>
			</g>
		</g>
		<g>
			<g>
				
					<line fill="none" stroke="#000000" stroke-width="0.72" stroke-linecap="round" stroke-linejoin="round" x1="73.277" y1="44.399" x2="73.277" y2="63.106"/>
				<g>
					<polygon points="71.185,61.68 73.277,69.485 75.369,61.68 					"/>
				</g>
			</g>
		</g>
		<g>
			
				<path fill="#FFFFFF" stroke="#000000" stroke-width="0.72" stroke-linecap="round" stroke-linejoin="round" stroke-miterlimit="3" d="
				M512.803,23.682H395.061v20.025h125.432V32.682L512.803,23.682"/>
			
				<path fill="none" stroke="#000000" stroke-width="0.72" stroke-linecap="round" stroke-linejoin="round" stroke-miterlimit="3" d="
				M512.803,23.682v9h7.689"/>
		</g>
		<g>
			
				<path fill="#FFFFFF" stroke="#000000" stroke-width="0.72" stroke-linecap="round" stroke-linejoin="round" stroke-miterlimit="3" d="
				M177.321,16.057H59.578v27.525H185.01V25.057L177.321,16.057"/>
			
				<path fill="none" stroke="#000000" stroke-width="0.72" stroke-linecap="round" stroke-linejoin="round" stroke-miterlimit="3" d="
				M177.321,16.057v9h7.689"/>
		</g>
		
			<path fill="#F8B8B9" stroke="#000000" stroke-width="0.72" stroke-linecap="round" stroke-linejoin="round" stroke-miterlimit="3" d="
			M629.445,131.152v36.471l-117.197,14l-117.188-14v-36.471H629.445z"/>
		
			<path fill="#F8B8B9" stroke="#000000" stroke-width="0.72" stroke-linecap="round" stroke-linejoin="round" stroke-miterlimit="3" d="
			M230.71,98.573h155.35l9,13.698l-9,13.707H230.71V98.573z"/>
		
			<rect x="395.061" y="69.485" fill="#FF7D7B" stroke="#000000" stroke-width="0.5" stroke-linecap="round" stroke-linejoin="round" stroke-miterlimit="3" width="234.385" height="61.784"/>
		
			<rect x="59.578" y="69.485" fill="#FF7D7B" stroke="#000000" stroke-width="0.5" stroke-linecap="round" stroke-linejoin="round" stroke-miterlimit="3" width="171.037" height="85.399"/>
		<g>
			<text transform="matrix(1 0 0 1 633.416 168.1562)" font-size="6">0..*</text>
		</g>
		<g>
			<text transform="matrix(1 0 0 1 327.0273 94.7129)" font-size="6">0..*codedObservation</text>
		</g>
		<rect x="62.078" y="80.936" fill="none" width="166.391" height="73.949"/>
		<text transform="matrix(1 0 0 1 62.0781 85.229)"><tspan x="0" y="0" font-size="6">classCode*: &lt;= DOCSECT</tspan><tspan x="0" y="7.2" font-size="6">moodCode*: &lt;= EVN</tspan><tspan x="0" y="14.4" font-size="6">id: II [0..1]</tspan><tspan x="0" y="21.6" font-size="6">code*: CE CWE [1..1] &lt;= DocumentSectionType</tspan><tspan x="0" y="28.8" font-size="6">title: ST [0..1]</tspan><tspan x="0" y="36" font-size="6">text*: ED [0..1]</tspan><tspan x="0" y="43.201" font-size="6">confidentialityCode: CE CWE [0..1]</tspan><tspan x="0" y="50.4" font-size="6"> &lt;= x_BasicConfidentialityKind</tspan><tspan x="0" y="57.599" font-size="6">languageCode: CS CNE [0..1] &lt;= HumanLanguage</tspan></text>
		<rect x="233.21" y="110.023" fill="none" width="122.944" height="15.955"/>
		<text transform="matrix(1 0 0 1 233.2104 114.3184)"><tspan x="0" y="0" font-size="6">typeCode*: &lt;= x_ActRelationshipEntry</tspan><tspan x="0" y="7.2" font-size="6">contextConductionInd*: BL [1..1] &quot;true&quot;</tspan></text>
		<rect x="62.017" y="27.498" fill="none" width="101.828" height="15.953"/>
		<text transform="matrix(1 0 0 1 62.0166 31.792)"><tspan x="0" y="0" font-size="6">DICOM SR CONTAINER Value Type</tspan><tspan x="0" y="7.2" font-size="6">Concept Name -&gt; Section.code</tspan></text>
		<rect x="397.498" y="35.127" fill="none" width="101.828" height="6.662"/>
		<text transform="matrix(1 0 0 1 397.498 39.4209)" font-size="6">DICOM Value Type CODE</text>
		<rect x="397.561" y="142.603" fill="none" width="231.885" height="23.29"/>
		<text transform="matrix(1 0 0 1 397.5605 146.8965)"><tspan x="0" y="0" font-size="6">typeCode*: &lt;= SPRT</tspan><tspan x="0" y="7.199" font-size="6">contextControlCode*: CS CNE [1..1] &lt;= ContextControl&quot;AP&quot;</tspan><tspan x="0" y="14.4" font-size="6">contextConductionInd*: BL [1..1] &quot;true&quot;</tspan></text>
		<rect x="397.561" y="80.936" fill="none" width="231.885" height="45.097"/>
		<text transform="matrix(1 0 0 1 397.5605 85.229)"><tspan x="0" y="0" font-size="6">classCode*: &lt;= OBS</tspan><tspan x="0" y="7.2" font-size="6">moodCode*: &lt;= EVN</tspan><tspan x="0" y="14.4" font-size="6">code*: CD CWE [1..1] &lt;= ExternallyDefinedActCodes(Concept Name Code Sequence)</tspan><tspan x="0" y="21.6" font-size="6">effectiveTime: TS [0..1] (Observation Date Time (0040,A032)</tspan><tspan x="0" y="28.8" font-size="6">languageCode: CE CWE [0..1] &lt;= HumanLanguage</tspan><tspan x="0" y="36" font-size="6">value*: CE CWE [1..1] &lt;= ExternallyDefinedActCodes(Concept Code Sequence)</tspan></text>
		<g>
			<rect x="62.078" y="71.985" fill="none" width="137.552" height="7.772"/>
			<text transform="matrix(1 0 0 1 62.0781 76.9946)" font-size="7">Section</text>
			<rect x="233.21" y="101.073" fill="none" width="123.417" height="7.772"/>
			<text transform="matrix(1 0 0 1 233.21 106.0825)" font-size="7">component</text>
			<rect x="62.017" y="18.547" fill="none" width="123.416" height="7.773"/>
			<text transform="matrix(1 0 0 1 62.0166 23.5566)" font-size="7">Note</text>
			<rect x="397.561" y="71.985" fill="none" width="137.551" height="7.772"/>
			<text transform="matrix(1 0 0 1 397.5605 76.9946)" font-size="7">CodedObservation</text>
			<rect x="397.561" y="133.652" fill="none" width="137.551" height="7.772"/>
			<text transform="matrix(1 0 0 1 397.5605 138.6621)" font-size="7">support</text>
			<rect x="397.498" y="26.172" fill="none" width="123.416" height="7.773"/>
			<text transform="matrix(1 0 0 1 397.499 31.1816)" font-size="7">Note</text>
			<rect x="461.502" y="185.985" fill="none" width="101.861" height="19.958"/>
			<text transform="matrix(1 0 0 1 461.8496 190.9941)"><tspan x="0" y="0" font-size="7">SopInstance (Image Reference),</tspan><tspan x="16.15" y="9.4" font-size="7">QuantityMeasurement</tspan></text>
		</g>
	</g>
</g>
</svg>
