<?xml version="1.0" encoding="utf-8"?>

<!DOCTYPE svg PUBLIC "-//W3C//DTD SVG 1.1//EN" "http://www.w3.org/Graphics/SVG/1.1/DTD/svg11.dtd">
<svg version="1.1" id="Layer_1" xmlns="http://www.w3.org/2000/svg" xmlns:xlink="http://www.w3.org/1999/xlink" x="0px" y="0px"
	 width="702px" height="292px" viewBox="0 0 702 292" enable-background="new 0 0 702 292" xml:space="preserve">

<defs>
	<style type="text/css">
	text {
	  font-family: Helvetica, Verdana, ArialUnicodeMS, san-serif
	}
	</style>
</defs>

<g>
   <desc>
	PS 3.20 - Transformation of DICOM to and from HL7 Standards
   </desc>
</g>

<g>
	<rect x="1" y="1" fill="#F5EED8" width="700" height="290"/>
	<g>
		<line fill="none" stroke="#000000" stroke-miterlimit="10" x1="389.452" y1="189.153" x2="263.154" y2="189.153"/>
		<line fill="none" stroke="#000000" stroke-miterlimit="10" x1="389.452" y1="251.618" x2="263.154" y2="251.618"/>
		
			<path fill="#78FFFF" stroke="#000000" stroke-width="0.72" stroke-linecap="round" stroke-linejoin="round" stroke-miterlimit="3" d="
			M589.452,119.378v32.732l-99.999,9.809l-100.001-9.809v-32.732H589.452z"/>
		
			<rect x="389.559" y="15.123" fill="#FF7D7B" stroke="#000000" stroke-width="0.72" stroke-linecap="round" stroke-linejoin="round" stroke-miterlimit="3" width="200" height="103.928"/>
		
			<rect x="389.399" y="161.923" fill="#FFFF75" stroke="#000000" stroke-width="0.72" stroke-linecap="round" stroke-linejoin="round" stroke-miterlimit="3" width="200.105" height="42.402"/>
		
			<rect x="63.154" y="172.393" fill="#79FF77" stroke="#000000" stroke-width="0.72" stroke-linecap="round" stroke-linejoin="round" stroke-miterlimit="3" width="200" height="92.295"/>
		
			<rect x="389.559" y="220.39" fill="#7D7AFF" stroke="#000000" stroke-width="0.72" stroke-linecap="round" stroke-linejoin="round" stroke-miterlimit="3" width="200" height="56.487"/>
		<g>
			<text transform="matrix(1 0 0 1 594.4844 148.5078)" font-size="6">1..* patientRole  </text>
		</g>
		<g>
			<text transform="matrix(1 0 0 1 309.3408 248.0078)" font-size="6">0..* languageCommunication</text>
		</g>
		<g>
			<text transform="matrix(1 0 0 1 268.1533 185.5928)" font-size="6">0..1 patient  </text>
		</g>
		<rect x="65.654" y="183.531" fill="none" width="188.707" height="81.156"/>
		<text transform="matrix(1 0 0 1 65.6538 187.8252)"><tspan x="0" y="0" font-size="6">classCode*: &lt;= PSN</tspan><tspan x="0" y="7.2" font-size="6">determinerCode*: &lt;= INSTANCE</tspan><tspan x="0" y="14.399" font-size="6">id: II [0..1] (Deprecated)</tspan><tspan x="0" y="21.601" font-size="6">name*: SET&lt;PN&gt; [0..*]</tspan><tspan x="0" y="28.8" font-size="6">administrativeGenderCode*: CE CWE [0..1] &lt;= AdministrativeGender</tspan><tspan x="0" y="36" font-size="6">birthTime*: TS [0..1]</tspan><tspan x="0" y="43.2" font-size="6">maritalStatusCode: CE CWE [0..1] &lt;= MaritalStatus</tspan><tspan x="0" y="50.399" font-size="6">religiousAffiliationCode: CE CWE [0..1] &lt;= ReligiousAffiliation</tspan><tspan x="0" y="57.601" font-size="6">raceCode: CE CWE [0..1] &lt;= Race</tspan><tspan x="0" y="64.8" font-size="6">ethnicGroupCode: CE CWE [0..1] &lt;= Ethnicity</tspan></text>
		<rect x="392.059" y="231.85" fill="none" width="192.303" height="45.027"/>
		<text transform="matrix(1 0 0 1 392.0586 236.1426)"><tspan x="0" y="0" font-size="6">LanguageCommunication</tspan><tspan x="0" y="7.201" font-size="6">(LanguageCommunication)</tspan><tspan x="0" y="14.4" font-size="6">languageCode: CS CNE [0..1] &lt;= HumanLanguage</tspan><tspan x="0" y="21.6" font-size="6">modeCode: CE CWE [0..1] &lt;= LanguageAbilityMode</tspan><tspan x="0" y="28.801" font-size="6">proficiencyLevelCode: CE CWE [0..1] &lt;= LanguageAbilityProficiency</tspan><tspan x="0" y="36" font-size="6">preferenceInd: BL [0..1]</tspan></text>
		<rect x="392.059" y="173.767" fill="none" width="192.303" height="30.559"/>
		<text transform="matrix(1 0 0 1 392.0586 178.0605)"><tspan x="0" y="0" font-size="6">classCode*: &lt;= PAT</tspan><tspan x="0" y="7.199" font-size="6">id*: SET&lt;II&gt; [1..*]</tspan><tspan x="0" y="14.399" font-size="6">addr: SET&lt;AD&gt; [0..*]</tspan><tspan x="0" y="21.6" font-size="6">telecom: SET&lt;TEL&gt; [0..*]</tspan></text>
		<rect x="392.059" y="26.573" fill="none" width="192.303" height="88.363"/>
		<text transform="matrix(1 0 0 1 392.0586 30.8662)"><tspan x="0" y="0" font-size="6">classCode*: &lt;= DOCCLIN</tspan><tspan x="0" y="7.2" font-size="6">moodCode*: &lt;= EVN</tspan><tspan x="0" y="14.4" font-size="6">id*: II [1..1]</tspan><tspan x="0" y="21.6" font-size="6">code*: CE CWE [1..1] &lt;= DocumentType</tspan><tspan x="0" y="28.8" font-size="6">title: ST [0..1]</tspan><tspan x="0" y="36" font-size="6">effectiveTime*: TS [1..1]</tspan><tspan x="0" y="43.2" font-size="6">confidentialityCode*: CE CWE [1..1]</tspan><tspan x="0" y="50.4" font-size="6"> &lt;= x_BasicConfidentialityKind</tspan><tspan x="0" y="57.6" font-size="6">languageCode: CS CNE [0..1] &lt;= HumanLanguage</tspan><tspan x="0" y="64.8" font-size="6">setId: II [0..1]</tspan><tspan x="0" y="72" font-size="6">versionNumber: INT [0..1]</tspan><tspan x="0" y="79.2" font-size="6">copyTime: TS [0..1] (Deprecated)</tspan></text>
		<rect x="392.059" y="130.875" fill="none" width="192.303" height="15.955"/>
		<text transform="matrix(1 0 0 1 392.0586 135.1685)"><tspan x="0" y="0" font-size="6">typeCode*: &lt;= RCT</tspan><tspan x="0" y="7.2" font-size="6">contextControlCode*: CS CNE [1..1] &lt;= &quot;OP&quot;</tspan></text>
		<g>
			<rect x="392.059" y="222.9" fill="none" width="137.553" height="7.771"/>
			<text transform="matrix(1 0 0 1 392.0586 227.9092)" font-size="7">LanguageCommunication</text>
			<rect x="65.654" y="174.587" fill="none" width="137.552" height="7.771"/>
			<text transform="matrix(1 0 0 1 65.6533 179.5957)" font-size="7">Patient</text>
			<rect x="392.059" y="164.817" fill="none" width="137.553" height="7.771"/>
			<text transform="matrix(1 0 0 1 392.0586 169.8262)" font-size="7">Patient Role</text>
			<rect x="392.059" y="121.926" fill="none" width="137.553" height="7.771"/>
			<text transform="matrix(1 0 0 1 392.0586 126.9346)" font-size="7">recordTarget</text>
			<rect x="392.059" y="17.624" fill="none" width="137.553" height="7.771"/>
			<text transform="matrix(1 0 0 1 392.0586 22.6323)" font-size="7">Patient Role</text>
		</g>
	</g>
</g>
</svg>
