<?xml version="1.0" encoding="utf-8"?>

<!DOCTYPE svg PUBLIC "-//W3C//DTD SVG 1.1//EN" "http://www.w3.org/Graphics/SVG/1.1/DTD/svg11.dtd">
<svg version="1.1" id="Layer_1" xmlns="http://www.w3.org/2000/svg" xmlns:xlink="http://www.w3.org/1999/xlink" x="0px" y="0px"
	 width="702px" height="152px" viewBox="0 0 702 152" enable-background="new 0 0 702 152" xml:space="preserve">

<defs>
	<style type="text/css">
	text {
	  font-family: Helvetica, Verdana, ArialUnicodeMS, san-serif
	}
	</style>
</defs>

<g>
   <desc>
	PS 3.20 - Transformation of DICOM to and from HL7 Standards
   </desc>
</g>

<g>
	<g>
		<rect x="1" y="1" fill="#F5EED8" width="700" height="150"/>
	</g>
	<g>
		
			<path fill="#F8B8B9" stroke="#000000" stroke-width="0.72" stroke-linecap="round" stroke-linejoin="round" stroke-miterlimit="3" d="
			M237.925,32.877h156.268l8.45,8.684l-8.45,8.693H237.925V32.877z"/>
		
			<rect x="91.242" y="16.147" fill="#FF7D7B" stroke="#000000" stroke-width="0.5" stroke-linecap="round" stroke-linejoin="round" stroke-miterlimit="3" width="146.683" height="99.812"/>
		
			<path fill="#78FFFF" stroke="#000000" stroke-width="0.72" stroke-linecap="round" stroke-linejoin="round" stroke-miterlimit="3" d="
			M554.637,65.429v32.732l-75.97,9.809l-75.972-9.809V65.429H554.637z"/>
		
			<rect x="402.802" y="16.147" fill="#FF7D7B" stroke="#000000" stroke-width="0.72" stroke-linecap="round" stroke-linejoin="round" stroke-miterlimit="3" width="151.835" height="49.244"/>
		
			<rect x="402.643" y="107.974" fill="#FFFFC8" stroke="#231F20" stroke-width="0.72" stroke-linecap="round" stroke-linejoin="round" stroke-miterlimit="3" width="151.994" height="27.879"/>
		<rect x="346.691" y="26.258" fill="none" width="46.202" height="7.295"/>
		<text transform="matrix(1 0 0 1 346.6909 30.5518)" font-size="6">0..* serviceEvent</text>
		<g>
			<text transform="matrix(1 0 0 1 557.7266 95.1836)" font-size="6">0..* assignedEntity  </text>
		</g>
		<rect x="405.302" y="119.817" fill="none" width="144.817" height="16.035"/>
		<text transform="matrix(1 0 0 1 405.3018 124.1123)"><tspan x="0" y="0" font-size="6">0..1 representedOrganization</tspan><tspan x="0" y="7.2" font-size="6">0..1 assignedPerson</tspan></text>
		<rect x="240.424" y="43.561" fill="none" width="118.921" height="8.443"/>
		<text transform="matrix(1 0 0 1 240.4243 47.8545)" font-size="6">typeCode*: &lt;= DOC</text>
		<rect x="405.302" y="27.592" fill="none" width="149.335" height="37.8"/>
		<text transform="matrix(1 0 0 1 405.3018 31.8867)"><tspan x="0" y="0" font-size="6">classCode*: &lt;= ACT</tspan><tspan x="0" y="7.2" font-size="6">moodCode*: &lt;= EVN</tspan><tspan x="0" y="14.4" font-size="6">id: SET&lt;II&gt; [0..*]</tspan><tspan x="0" y="21.6" font-size="6">code: CE CWE [0..1]</tspan><tspan x="0" y="28.8" font-size="6">effectiveTime: IVL&lt;TS&gt; [0..1]</tspan></text>
		<rect x="93.742" y="27.598" fill="none" width="137.552" height="88.362"/>
		<text transform="matrix(1 0 0 1 93.7422 31.8911)"><tspan x="0" y="0" font-size="6">classCode*: &lt;= DOCCLIN</tspan><tspan x="0" y="7.2" font-size="6">moodCode*: &lt;= EVN</tspan><tspan x="0" y="14.4" font-size="6">id*: II [1..1]</tspan><tspan x="0" y="21.6" font-size="6">code*: CE CWE [1..1] &lt;= DocumentType</tspan><tspan x="0" y="28.8" font-size="6">title: ST [0..1]</tspan><tspan x="0" y="36" font-size="6">effectiveTime*: TS [1..1]</tspan><tspan x="0" y="43.2" font-size="6">confidentialityCode*: CE CWE [1..1]</tspan><tspan x="0" y="50.4" font-size="6"> &lt;= x_BasicConfidentialityKind</tspan><tspan x="0" y="57.599" font-size="6">languageCode: CS CNE [0..1] &lt;= HumanLanguage</tspan><tspan x="0" y="64.8" font-size="6">setId: II [0..1]</tspan><tspan x="0" y="72" font-size="6">versionNumber: INT [0..1]</tspan><tspan x="0" y="79.201" font-size="6">copyTime: TS [0..1] (Deprecated)</tspan></text>
		<rect x="405.302" y="76.926" fill="none" width="148.97" height="20.731"/>
		<text transform="matrix(1 0 0 1 405.3018 81.2207)"><tspan x="0" y="0" font-size="6">typeCode*: &lt;= x_ServiceEventPerformer</tspan><tspan x="0" y="7.199" font-size="6">functionCode: CE CWE [0..1] &lt;= ParticipationFunction</tspan><tspan x="0" y="14.399" font-size="6">time: IVL&lt;TS&gt; [0..1]</tspan></text>
		<g>
			<rect x="240.424" y="33.859" fill="none" width="59.853" height="7.639"/>
			<text transform="matrix(1 0 0 1 240.4243 38.8682)" font-size="7">documentationOf</text>
			<rect x="93.742" y="18.647" fill="none" width="137.552" height="7.772"/>
			<text transform="matrix(1 0 0 1 93.7412 23.6567)" font-size="7">ClinicalDocument</text>
			<rect x="405.302" y="110.868" fill="none" width="137.553" height="7.771"/>
			<text transform="matrix(1 0 0 1 405.3027 115.877)" font-size="7">AssignedEntity</text>
			<rect x="405.302" y="67.977" fill="none" width="137.553" height="7.771"/>
			<text transform="matrix(1 0 0 1 405.3027 72.9854)" font-size="7">performer</text>
			<rect x="405.302" y="18.647" fill="none" width="137.553" height="7.771"/>
			<text transform="matrix(1 0 0 1 405.3027 23.6567)" font-size="7">ServiceEvent</text>
		</g>
	</g>
</g>
</svg>
