<?xml version="1.0" encoding="utf-8"?>

<!DOCTYPE svg PUBLIC "-//W3C//DTD SVG 1.1//EN" "http://www.w3.org/Graphics/SVG/1.1/DTD/svg11.dtd">
<svg version="1.1" id="Layer_1" xmlns="http://www.w3.org/2000/svg" xmlns:xlink="http://www.w3.org/1999/xlink" x="0px" y="0px"
	 width="702px" height="247px" viewBox="0 0 702 247" enable-background="new 0 0 702 247" xml:space="preserve">

<defs>
	<style type="text/css">
	text {
	  font-family: Helvetica, Verdana, ArialUnicodeMS, san-serif
	}
	</style>
</defs>

<g>
   <desc>
	PS 3.20 - Transformation of DICOM to and from HL7 Standards
   </desc>
</g>

<g>
	<rect x="1" y="1" fill="#F5EED8" width="700" height="245"/>
	<g>
		
			<line fill="none" stroke="#000000" stroke-linejoin="round" stroke-miterlimit="3" stroke-dasharray="1.5,1.5" x1="163.99" y1="33.521" x2="267.656" y2="33.521"/>
		
			<line fill="none" stroke="#000000" stroke-linejoin="round" stroke-miterlimit="3" stroke-dasharray="1.5,1.5" x1="163.99" y1="101.782" x2="267.656" y2="101.782"/>
		
			<line fill="none" stroke="#000000" stroke-linejoin="round" stroke-miterlimit="3" x1="163.943" y1="57.618" x2="267.609" y2="57.618"/>
		
			<line fill="none" stroke="#000000" stroke-linejoin="round" stroke-miterlimit="3" x1="168.677" y1="140.985" x2="267.609" y2="140.985"/>
		
			<rect x="20.677" y="117.416" fill="#FFFFFF" stroke="#000000" stroke-width="0.5" stroke-linecap="round" stroke-linejoin="round" stroke-miterlimit="3" width="148" height="113.184"/>
		
			<rect x="267.656" y="95.116" fill="#FFFF75" stroke="#000000" stroke-width="0.5" stroke-linecap="round" stroke-linejoin="round" stroke-miterlimit="3" width="106" height="49.25"/>
		
			<rect x="267.656" y="16.4" fill="#FFFF75" stroke="#000000" stroke-width="0.5" stroke-linecap="round" stroke-linejoin="round" stroke-miterlimit="3" width="106" height="57.097"/>
		
			<path fill="#78FFFF" stroke="#000000" stroke-width="0.5" stroke-linecap="round" stroke-linejoin="round" stroke-miterlimit="3" d="
			M534.641,140.624H380.388l-6.499-20.681l6.499-20.669h154.253V140.624z"/>
		
			<rect x="534.641" y="80.616" fill="#FF7D7B" stroke="#000000" stroke-width="0.5" stroke-linecap="round" stroke-linejoin="round" stroke-miterlimit="3" width="146.683" height="78.19"/>
		
			<rect x="26.313" y="129.916" fill="#79FF77" stroke="#000000" stroke-width="0.5" stroke-linecap="round" stroke-linejoin="round" stroke-miterlimit="3" width="137.424" height="33.871"/>
		
			<rect x="26.313" y="16.4" fill="#79FF77" stroke="#000000" stroke-width="0.5" stroke-linecap="round" stroke-linejoin="round" stroke-miterlimit="3" width="137.424" height="92.235"/>
		
			<rect x="25.737" y="169.793" fill="#79FF77" stroke="#000000" stroke-width="0.5" stroke-linecap="round" stroke-linejoin="round" stroke-miterlimit="3" width="138" height="55.609"/>
		<text transform="matrix(1 0 0 1 172.291 137.7783)" font-size="6">0..1 assignedAuthorChoice</text>
		<text transform="matrix(1 0 0 1 168.3682 98.9058)" font-size="6">0..1 representedOrganization  </text>
		<text transform="matrix(1 0 0 1 167.3877 31.2358)" font-size="6">0..1 wholeOrganization  </text>
		<text transform="matrix(1 0 0 1 194.9082 55.4355)" font-size="6">0..1 asOrganizationPartOf  </text>
		<rect x="382.724" y="92.346" fill="none" width="153.688" height="8.447"/>
		<text transform="matrix(1 0 0 1 382.7227 96.6387)" font-size="6">1..* assignedAuthor</text>
		<rect x="270.156" y="106.566" fill="none" width="92.382" height="37.8"/>
		<text transform="matrix(1 0 0 1 270.1562 110.8599)"><tspan x="0" y="0" font-size="6">classCode*: &lt;= ASSIGNED</tspan><tspan x="0" y="7.2" font-size="6">id*: SET&lt;II&gt; [1..*]</tspan><tspan x="0" y="14.4" font-size="6">code: CE CWE [0..1] &lt;= RoleCode</tspan><tspan x="0" y="21.6" font-size="6">addr: SET&lt;AD&gt; [0..*]</tspan><tspan x="0" y="28.8" font-size="6">telecom: SET&lt;TEL&gt; [0..*]</tspan></text>
		<rect x="270.156" y="28.471" fill="none" width="96.185" height="45.026"/>
		<text transform="matrix(1 0 0 1 270.1562 32.7642)"><tspan x="0" y="0" font-size="6">classCode*: &lt;= PART</tspan><tspan x="0" y="7.2" font-size="6">id*: SET&lt;II&gt; [0..*]</tspan><tspan x="0" y="14.4" font-size="6">code: CE CWE [0..1] &lt;= RoleCode</tspan><tspan x="0" y="21.6" font-size="6">statusCode: CS CNE [0..1] &lt;=</tspan><tspan x="0" y="28.8" font-size="6"> RoleStatus</tspan><tspan x="0" y="36" font-size="6">effectiveTime: IVL&lt;TS&gt; [0..1]</tspan></text>
		<rect x="28.813" y="140.498" fill="none" width="87.703" height="23.289"/>
		<text transform="matrix(1 0 0 1 28.8135 144.791)"><tspan x="0" y="0" font-size="6">classCode*: &lt;= PSN</tspan><tspan x="0" y="7.199" font-size="6">determinerCode*: &lt;= INSTANCE</tspan><tspan x="0" y="14.4" font-size="6">name: SET&lt;PN&gt; [0..*]</tspan></text>
		<rect x="28.813" y="27.851" fill="none" width="116.382" height="59.535"/>
		<text transform="matrix(1 0 0 1 28.8135 32.144)"><tspan x="0" y="0" font-size="6">classCode*: &lt;= ORG</tspan><tspan x="0" y="7.2" font-size="6">determinerCode*: &lt;= INSTANCE</tspan><tspan x="0" y="14.4" font-size="6">id: SET&lt;II&gt; [0..*]</tspan><tspan x="0" y="21.6" font-size="6">name: SET&lt;ON&gt; [0..*]</tspan><tspan x="0" y="28.8" font-size="6">telecom: SET&lt;TEL&gt; [0..*]</tspan><tspan x="0" y="36" font-size="6">addr: SET&lt;AD&gt; [0..*]</tspan><tspan x="0" y="43.2" font-size="6">standardIndustryClassCode: CE CWE [0..1]</tspan><tspan x="0" y="50.4" font-size="6"> &lt;= OrganizationIndustryClass</tspan></text>
		<rect x="382.724" y="110.064" fill="none" width="148.525" height="30.56"/>
		<text transform="matrix(1 0 0 1 382.7236 114.3589)"><tspan x="0" y="0" font-size="6">typeCode*: &lt;= AUT</tspan><tspan x="0" y="7.2" font-size="6">functionCode: CE CWE [9..1] &lt;= ParticipationFunction</tspan><tspan x="0" y="14.4" font-size="6">contextControlCode*: CS CNE [1..1] &lt;= &quot;OP&quot;</tspan><tspan x="0" y="21.6" font-size="6">time*: TS [1..1]</tspan></text>
		<rect x="28.813" y="180.375" fill="none" width="132.349" height="45.027"/>
		<text transform="matrix(1 0 0 1 28.8135 184.6689)"><tspan x="0" y="0" font-size="6">classCode*: &lt;= DEV</tspan><tspan x="0" y="7.2" font-size="6">determinerCode*: &lt;= INSTANCE</tspan><tspan x="0" y="14.4" font-size="6">code: CE CWE [0..1] &lt;= EntityCode</tspan><tspan x="0" y="21.6" font-size="6">manufacturerModelName: SC CWE [0..1]</tspan><tspan x="0" y="28.8" font-size="6">  &lt;= ManufacturerModelName</tspan><tspan x="0" y="36" font-size="6">softwareName: SC CWE [0..1] &lt;= SoftwareName</tspan></text>
		<rect x="537.141" y="92.066" fill="none" width="137.552" height="66.74"/>
		<text transform="matrix(1 0 0 1 537.1406 96.3604)"><tspan x="0" y="0" font-size="6">classCode*: &lt;= DOCSECT</tspan><tspan x="0" y="7.2" font-size="6">moodCode*: &lt;= EVN</tspan><tspan x="0" y="14.4" font-size="6">id: II [0..1]</tspan><tspan x="0" y="21.6" font-size="6">code*: CE CWE [1..1] &lt;= DocumentSectionType</tspan><tspan x="0" y="28.8" font-size="6">title: ST [0..1]</tspan><tspan x="0" y="36" font-size="6">text*: ED [0..1]</tspan><tspan x="0" y="43.2" font-size="6">confidentialityCode: CE CWE [0..1]</tspan><tspan x="0" y="50.4" font-size="6"> &lt;= x_BasicConfidentialityKind</tspan><tspan x="0" y="57.6" font-size="6">languageCode: CS CNE [0..1] &lt;= HumanLanguage</tspan></text>
		<g>
			<rect x="28.813" y="131.547" fill="none" width="87.703" height="7.639"/>
			<text transform="matrix(1 0 0 1 28.8135 136.5566)" font-size="7">Person</text>
			<rect x="23.177" y="119.916" fill="none" width="87.703" height="7.638"/>
			<text transform="matrix(1 0 0 1 23.1772 124.9258)" font-size="7">AuthorChoice</text>
			<rect x="28.813" y="171.425" fill="none" width="87.703" height="7.638"/>
			<text transform="matrix(1 0 0 1 28.8135 176.4336)" font-size="7">AuthoringDevice</text>
			<rect x="28.813" y="18.9" fill="none" width="116.382" height="9.854"/>
			<text transform="matrix(1 0 0 1 28.8135 23.9097)" font-size="7">Organization</text>
			<rect x="382.724" y="101.115" fill="none" width="149.942" height="9.725"/>
			<text transform="matrix(1 0 0 1 382.7246 106.1245)" font-size="7">Author</text>
			<g>
				<rect x="270.156" y="97.616" fill="none" width="92.382" height="8.332"/>
				<text transform="matrix(1 0 0 1 270.1562 102.6255)" font-size="7">AssignedAuthor</text>
			</g>
			<rect x="270.156" y="19.521" fill="none" width="96.185" height="9.854"/>
			<text transform="matrix(1 0 0 1 270.1562 24.5298)" font-size="7">OrganizationPartOf</text>
			<rect x="537.141" y="83.116" fill="none" width="137.552" height="7.772"/>
			<text transform="matrix(1 0 0 1 537.1406 88.1255)" font-size="7">Section</text>
		</g>
	</g>
</g>
</svg>
