<?xml version="1.0" encoding="utf-8"?>

<!DOCTYPE svg PUBLIC "-//W3C//DTD SVG 1.1//EN" "http://www.w3.org/Graphics/SVG/1.1/DTD/svg11.dtd">
<svg version="1.1" id="Layer_1" xmlns="http://www.w3.org/2000/svg" xmlns:xlink="http://www.w3.org/1999/xlink" x="0px" y="0px"
	 width="502px" height="277px" viewBox="0 0 502 277" enable-background="new 0 0 502 277" xml:space="preserve">

<defs>
	<style type="text/css">
	text {
	  font-family: Helvetica, Verdana, ArialUnicodeMS, san-serif
	}
	</style>
</defs>

<g>
   <desc>
	PS 3.20 - Transformation of DICOM to and from HL7 Standards
   </desc>
</g>

<g>
	<rect x="1" y="1" fill="#F5EED8" width="500" height="275"/>
	<g>
		<rect x="176" y="16" fill="#CEDFEF" stroke="#231F20" stroke-miterlimit="1" width="150" height="245"/>
		
			<rect x="188.499" y="30.733" fill="#8AB4D7" stroke="#000000" stroke-linecap="round" stroke-linejoin="round" stroke-miterlimit="3" width="125.001" height="50.567"/>
		<text transform="matrix(1 0 0 1 195.6992 43.1968)" font-size="10">Header</text>
		
			<rect x="188.499" y="141.999" fill="#8AB4D7" stroke="#000000" stroke-linecap="round" stroke-linejoin="round" stroke-miterlimit="3" width="125.001" height="104.27"/>
		<text transform="matrix(1 0 0 1 195.6992 154.4629)" font-size="10">Content Tree</text>
		<path fill="#FFFFFF" stroke="#000000" stroke-linecap="round" stroke-linejoin="round" stroke-miterlimit="3" d="M266.246,201.043
			c0.031-3.844,3.172-6.937,7.014-6.904c3.803,0.028,6.875,3.104,6.906,6.904c0.031,3.845-3.061,6.985-6.906,7.016
			c-3.842,0.029-6.982-3.062-7.014-6.906C266.246,201.116,266.246,201.079,266.246,201.043z"/>
		<path fill="#FFFFFF" stroke="#000000" stroke-linecap="round" stroke-linejoin="round" stroke-miterlimit="3" d="M224.483,201.043
			c0.031-3.844,3.172-6.937,7.016-6.904c3.8,0.028,6.875,3.104,6.905,6.904c0.03,3.845-3.062,6.985-6.905,7.016
			c-3.844,0.029-6.984-3.062-7.016-6.906C224.483,201.116,224.483,201.079,224.483,201.043z"/>
		<path fill="none" stroke="#000000" stroke-linecap="round" stroke-linejoin="round" stroke-miterlimit="3" d="M252.326,180.169
			l-20.877,13.918"/>
		<path fill="none" stroke="#000000" stroke-linecap="round" stroke-linejoin="round" stroke-miterlimit="3" d="M252.324,180.169
			l20.877,13.918"/>
		<path fill="#FFFFFF" stroke="#000000" stroke-linecap="round" stroke-linejoin="round" stroke-miterlimit="3" d="M203.603,228.884
			c0.03-3.844,3.171-6.935,7.016-6.906c3.801,0.032,6.874,3.105,6.904,6.906c0.031,3.843-3.061,6.983-6.904,7.016
			c-3.845,0.029-6.985-3.061-7.016-6.905C203.603,228.957,203.603,228.92,203.603,228.884z"/>
		<path fill="#FFFFFF" stroke="#000000" stroke-linecap="round" stroke-linejoin="round" stroke-miterlimit="3" d="M224.483,228.884
			c0.031-3.844,3.172-6.935,7.016-6.906c3.8,0.032,6.875,3.105,6.905,6.906c0.03,3.843-3.062,6.983-6.905,7.016
			c-3.844,0.029-6.984-3.061-7.016-6.905C224.483,228.957,224.483,228.92,224.483,228.884z"/>
		<path fill="#FFFFFF" stroke="#000000" stroke-linecap="round" stroke-linejoin="round" stroke-miterlimit="3" d="M245.364,228.884
			c0.03-3.844,3.171-6.935,7.017-6.906c3.801,0.032,6.873,3.105,6.904,6.906c0.029,3.843-3.061,6.983-6.904,7.016
			c-3.846,0.029-6.986-3.061-7.017-6.905C245.364,228.957,245.364,228.92,245.364,228.884z"/>
		<path fill="none" stroke="#000000" stroke-linecap="round" stroke-linejoin="round" stroke-miterlimit="3" d="M231.445,208.01
			l-20.878,13.918"/>
		<path fill="none" stroke="#000000" stroke-linecap="round" stroke-linejoin="round" stroke-miterlimit="3" d="M231.446,208.008
			v13.92"/>
		<path fill="none" stroke="#000000" stroke-linecap="round" stroke-linejoin="round" stroke-miterlimit="3" d="M231.443,208.01
			l20.879,13.918"/>
		
			<rect x="188.499" y="85.466" fill="#8AB4D7" stroke="#000000" stroke-linecap="round" stroke-linejoin="round" stroke-miterlimit="3" width="125.001" height="52.368"/>
		<text transform="matrix(1 0 0 1 195.6992 97.9287)" enable-background="new    "><tspan x="0" y="0" font-size="10">Section incl.</tspan><tspan x="0" y="12" font-size="10">Narrative Text</tspan></text>
		<path fill="#FFFFFF" stroke="#000000" stroke-linecap="round" stroke-linejoin="round" stroke-miterlimit="3" d="M245.478,172.487
			c0.031-3.843,3.173-6.935,7.018-6.903c3.802,0.029,6.876,3.104,6.905,6.903c0.031,3.845-3.061,6.984-6.905,7.015
			s-6.986-3.061-7.018-6.903C245.478,172.561,245.478,172.525,245.478,172.487z"/>
	</g>
</g>
</svg>
