<?xml version="1.0" encoding="utf-8"?>

<!DOCTYPE svg PUBLIC "-//W3C//DTD SVG 1.1//EN" "http://www.w3.org/Graphics/SVG/1.1/DTD/svg11.dtd">
<svg version="1.1" id="Layer_1" xmlns="http://www.w3.org/2000/svg" xmlns:xlink="http://www.w3.org/1999/xlink" x="0px" y="0px"
	 width="547px" height="552px" viewBox="0 0 547 552" enable-background="new 0 0 547 552" xml:space="preserve">

<defs>
	<style type="text/css">
	text {
	  font-family: Helvetica, Verdana, ArialUnicodeMS, san-serif
	}
	</style>
</defs>

<g>
   <desc>
	PS 3.7 Message Exchange
   </desc>
</g>

<g>
	<rect x="1" y="1" fill="#F4ECC0" width="545" height="550"/>
	<g>
		
			<line fill="none" stroke="#EBEDF3" stroke-width="7" stroke-linecap="round" stroke-miterlimit="1" x1="447.139" y1="246.449" x2="447.139" y2="527.554"/>
		
			<line fill="none" stroke="#EBEDF3" stroke-width="7" stroke-linecap="round" stroke-miterlimit="1" x1="272.299" y1="247.828" x2="272.299" y2="527.554"/>
		
			<rect x="22.46" y="81.448" fill="#C7D4E2" stroke="#010101" stroke-width="0.75" stroke-linecap="round" stroke-linejoin="round" stroke-miterlimit="1" width="500" height="165.001"/>
		<g>
			<path fill="#EFF1F4" d="M192.36,266.125c0-1.98,1.62-3.6,3.6-3.6h152.8c1.979,0,3.6,1.62,3.6,3.6v32.801
				c0,1.979-1.62,3.6-3.6,3.6h-152.8c-1.98,0-3.6-1.62-3.6-3.6V266.125z"/>
			<path fill="none" stroke="#999999" stroke-width="0.75" stroke-dasharray="4" d="M192.36,266.125c0-1.98,1.62-3.6,3.6-3.6h152.8
				c1.979,0,3.6,1.62,3.6,3.6v32.801c0,1.979-1.62,3.6-3.6,3.6h-152.8c-1.98,0-3.6-1.62-3.6-3.6V266.125z"/>
		</g>
		
			<line fill="none" stroke="#EBEDF3" stroke-width="4" stroke-linecap="round" stroke-miterlimit="1" x1="197.3" y1="295.352" x2="347.299" y2="295.352"/>
		<g>
			<path fill="#EFF1F4" d="M196.273,511.093c0-1.979,1.62-3.6,3.6-3.6h144.854c1.979,0,3.6,1.62,3.6,3.6v22.229
				c0,1.979-1.62,3.6-3.6,3.6H199.874c-1.98,0-3.6-1.62-3.6-3.6V511.093z"/>
			<path fill="none" stroke="#999999" stroke-width="0.75" stroke-dasharray="4" d="M196.273,511.093c0-1.979,1.62-3.6,3.6-3.6
				h144.854c1.979,0,3.6,1.62,3.6,3.6v22.229c0,1.979-1.62,3.6-3.6,3.6H199.874c-1.98,0-3.6-1.62-3.6-3.6V511.093z"/>
		</g>
		<g>
			<path fill="#EFF1F4" d="M196.273,449.982c0-1.979,1.62-3.6,3.6-3.6h144.854c1.979,0,3.6,1.62,3.6,3.6v22.229
				c0,1.979-1.62,3.6-3.6,3.6H199.874c-1.98,0-3.6-1.62-3.6-3.6V449.982z"/>
			<path fill="none" stroke="#999999" stroke-width="0.75" stroke-dasharray="4" d="M196.273,449.982c0-1.979,1.62-3.6,3.6-3.6
				h144.854c1.979,0,3.6,1.62,3.6,3.6v22.229c0,1.979-1.62,3.6-3.6,3.6H199.874c-1.98,0-3.6-1.62-3.6-3.6V449.982z"/>
		</g>
		<g>
			<path fill="#EFF1F4" d="M196.273,388.87c0-1.979,1.62-3.6,3.6-3.6h144.854c1.979,0,3.6,1.62,3.6,3.6v22.229
				c0,1.979-1.62,3.6-3.6,3.6H199.874c-1.98,0-3.6-1.62-3.6-3.6V388.87z"/>
			<path fill="none" stroke="#999999" stroke-width="0.75" stroke-dasharray="4" d="M196.273,388.87c0-1.979,1.62-3.6,3.6-3.6
				h144.854c1.979,0,3.6,1.62,3.6,3.6v22.229c0,1.979-1.62,3.6-3.6,3.6H199.874c-1.98,0-3.6-1.62-3.6-3.6V388.87z"/>
		</g>
		<g>
			<path fill="#EFF1F4" d="M196.273,327.758c0-1.979,1.62-3.6,3.6-3.6h144.854c1.979,0,3.6,1.62,3.6,3.6v22.229
				c0,1.979-1.62,3.6-3.6,3.6H199.874c-1.98,0-3.6-1.62-3.6-3.6V327.758z"/>
			<path fill="none" stroke="#999999" stroke-width="0.75" stroke-dasharray="4" d="M196.273,327.758c0-1.979,1.62-3.6,3.6-3.6
				h144.854c1.979,0,3.6,1.62,3.6,3.6v22.229c0,1.979-1.62,3.6-3.6,3.6H199.874c-1.98,0-3.6-1.62-3.6-3.6V327.758z"/>
		</g>
		<g>
			<path fill="#EFF1F4" d="M367.36,266.125c0-1.98,1.62-3.6,3.6-3.6H523.76c1.979,0,3.6,1.62,3.6,3.6v32.801
				c0,1.979-1.62,3.6-3.6,3.6H370.959c-1.979,0-3.6-1.62-3.6-3.6V266.125z"/>
			<path fill="none" stroke="#999999" stroke-width="0.75" stroke-dasharray="4" d="M367.36,266.125c0-1.98,1.62-3.6,3.6-3.6H523.76
				c1.979,0,3.6,1.62,3.6,3.6v32.801c0,1.979-1.62,3.6-3.6,3.6H370.959c-1.979,0-3.6-1.62-3.6-3.6V266.125z"/>
		</g>
		<g>
			<path fill="#E4E8EE" d="M392.618,213.167c0-1.98,1.62-3.6,3.6-3.6h102.801c1.979,0,3.6,1.62,3.6,3.6v17.678
				c0,1.98-1.62,3.6-3.6,3.6H396.217c-1.979,0-3.6-1.62-3.6-3.6V213.167z"/>
			<path fill="none" stroke="#999999" stroke-width="0.75" stroke-dasharray="4" d="M392.618,213.167c0-1.98,1.62-3.6,3.6-3.6
				h102.801c1.979,0,3.6,1.62,3.6,3.6v17.678c0,1.98-1.62,3.6-3.6,3.6H396.217c-1.979,0-3.6-1.62-3.6-3.6V213.167z"/>
		</g>
		<g>
			<path fill="#EFF1F4" d="M371.524,511.093c0-1.979,1.62-3.6,3.6-3.6h144.854c1.979,0,3.6,1.62,3.6,3.6v22.229
				c0,1.979-1.62,3.6-3.6,3.6H375.124c-1.979,0-3.6-1.62-3.6-3.6V511.093z"/>
			<path fill="none" stroke="#999999" stroke-width="0.75" stroke-dasharray="4" d="M371.524,511.093c0-1.979,1.62-3.6,3.6-3.6
				h144.854c1.979,0,3.6,1.62,3.6,3.6v22.229c0,1.979-1.62,3.6-3.6,3.6H375.124c-1.979,0-3.6-1.62-3.6-3.6V511.093z"/>
		</g>
		<g>
			<path fill="#EFF1F4" d="M371.524,327.758c0-1.979,1.62-3.6,3.6-3.6h144.854c1.979,0,3.6,1.62,3.6,3.6v22.229
				c0,1.979-1.62,3.6-3.6,3.6H375.124c-1.979,0-3.6-1.62-3.6-3.6V327.758z"/>
			<path fill="none" stroke="#999999" stroke-width="0.75" stroke-dasharray="4" d="M371.524,327.758c0-1.979,1.62-3.6,3.6-3.6
				h144.854c1.979,0,3.6,1.62,3.6,3.6v22.229c0,1.979-1.62,3.6-3.6,3.6H375.124c-1.979,0-3.6-1.62-3.6-3.6V327.758z"/>
		</g>
		
			<line fill="none" stroke="#EBEDF3" stroke-width="4" stroke-linecap="round" stroke-miterlimit="1" x1="372.133" y1="295.352" x2="522.133" y2="295.352"/>
		<text transform="matrix(1 0 0 1 23.7095 76.6221)" font-size="12">DICOM Application Entity</text>
		<polyline fill="#5D89B4" points="217.415,15.078 332.026,15.078 331.543,32.566 369.924,32.566 272.92,81.641 174.995,32.566 
			216.954,32.566 		"/>
		<text transform="matrix(1 0 0 1 228.7749 29.4849)"><tspan x="0" y="0" fill="#FFFFFF" font-size="12"> Medical Images</tspan><tspan x="-17.687" y="14.4" fill="#FFFFFF" font-size="12">and related information</tspan></text>
		<g>
			<path fill="#E4E8EE" d="M214.803,213.167c0-1.98,1.62-3.6,3.6-3.6h107.801c1.979,0,3.6,1.62,3.6,3.6v17.678
				c0,1.98-1.62,3.6-3.6,3.6H218.403c-1.98,0-3.6-1.62-3.6-3.6V213.167z"/>
			<path fill="none" stroke="#999999" stroke-width="0.75" stroke-dasharray="4" d="M214.803,213.167c0-1.98,1.62-3.6,3.6-3.6
				h107.801c1.979,0,3.6,1.62,3.6,3.6v17.678c0,1.98-1.62,3.6-3.6,3.6H218.403c-1.98,0-3.6-1.62-3.6-3.6V213.167z"/>
		</g>
		
			<rect x="364.639" y="380.256" fill="#EFF1F4" stroke="#999999" stroke-width="0.75" stroke-dasharray="4" width="165" height="100"/>
		<g>
			<path fill="#EFF1F4" d="M371.776,396.73c0-1.979,1.62-3.6,3.6-3.6h33.99c1.979,0,3.6,1.62,3.6,3.6v71.605
				c0,1.979-1.62,3.6-3.6,3.6h-33.99c-1.979,0-3.6-1.62-3.6-3.6V396.73z"/>
			<path fill="none" stroke="#999999" stroke-width="0.75" stroke-dasharray="4" d="M371.776,396.73c0-1.979,1.62-3.6,3.6-3.6h33.99
				c1.979,0,3.6,1.62,3.6,3.6v71.605c0,1.979-1.62,3.6-3.6,3.6h-33.99c-1.979,0-3.6-1.62-3.6-3.6V396.73z"/>
		</g>
		<g>
			<g>
				
					<line fill="none" stroke="#EBEDF3" stroke-width="4" stroke-linecap="round" stroke-miterlimit="1" x1="461.329" y1="432.023" x2="462.329" y2="432.023"/>
				
					<line fill="none" stroke="#EBEDF3" stroke-width="4" stroke-linecap="round" stroke-miterlimit="1" stroke-dasharray="1.5556,6.2222" x1="468.551" y1="432.023" x2="473.217" y2="432.023"/>
				
					<line fill="none" stroke="#EBEDF3" stroke-width="4" stroke-linecap="round" stroke-miterlimit="1" x1="476.329" y1="432.023" x2="477.329" y2="432.023"/>
			</g>
		</g>
		<g>
			<path fill="#EFF1F4" d="M481.456,396.73c0-1.979,1.62-3.6,3.6-3.6h33.184c1.979,0,3.6,1.62,3.6,3.6v71.605
				c0,1.979-1.62,3.6-3.6,3.6h-33.184c-1.979,0-3.6-1.62-3.6-3.6V396.73z"/>
			<path fill="none" stroke="#999999" stroke-width="0.75" stroke-dasharray="4" d="M481.456,396.73c0-1.979,1.62-3.6,3.6-3.6
				h33.184c1.979,0,3.6,1.62,3.6,3.6v71.605c0,1.979-1.62,3.6-3.6,3.6h-33.184c-1.979,0-3.6-1.62-3.6-3.6V396.73z"/>
		</g>
		<g>
			<path fill="#EFF1F4" d="M415.651,396.73c0-1.979,1.62-3.6,3.6-3.6h33.459c1.979,0,3.6,1.62,3.6,3.6v71.605
				c0,1.979-1.62,3.6-3.6,3.6H419.25c-1.979,0-3.6-1.62-3.6-3.6V396.73z"/>
			<path fill="none" stroke="#999999" stroke-width="0.75" stroke-dasharray="4" d="M415.651,396.73c0-1.979,1.62-3.6,3.6-3.6
				h33.459c1.979,0,3.6,1.62,3.6,3.6v71.605c0,1.979-1.62,3.6-3.6,3.6H419.25c-1.979,0-3.6-1.62-3.6-3.6V396.73z"/>
		</g>
		
			<line fill="none" stroke="#276092" stroke-width="7" stroke-linecap="round" stroke-miterlimit="1" x1="97.299" y1="121.575" x2="97.299" y2="527.554"/>
		<g>
			<path fill="#D4DCE6" d="M41.414,100.297c0-1.98,1.62-3.6,3.6-3.6h455.615c1.979,0,3.6,1.62,3.6,3.6v17.678
				c0,1.98-1.62,3.6-3.6,3.6H45.014c-1.98,0-3.6-1.62-3.6-3.6V100.297z"/>
			<path fill="none" stroke="#000000" stroke-width="0.75" d="M41.414,100.297c0-1.98,1.62-3.6,3.6-3.6h455.615
				c1.979,0,3.6,1.62,3.6,3.6v17.678c0,1.98-1.62,3.6-3.6,3.6H45.014c-1.98,0-3.6-1.62-3.6-3.6V100.297z"/>
		</g>
		<g>
			<path fill="#D4DCE6" d="M41.414,137.797c0-1.98,1.62-3.6,3.6-3.6h455.615c1.979,0,3.6,1.62,3.6,3.6v17.678
				c0,1.98-1.62,3.6-3.6,3.6H45.014c-1.98,0-3.6-1.62-3.6-3.6V137.797z"/>
			<path fill="none" stroke="#000000" stroke-width="0.75" d="M41.414,137.797c0-1.98,1.62-3.6,3.6-3.6h455.615
				c1.979,0,3.6,1.62,3.6,3.6v17.678c0,1.98-1.62,3.6-3.6,3.6H45.014c-1.98,0-3.6-1.62-3.6-3.6V137.797z"/>
		</g>
		<g>
			<path fill="#D4DCE6" d="M41.414,175.655c0-1.98,1.62-3.6,3.6-3.6h455.615c1.979,0,3.6,1.62,3.6,3.6v17.678
				c0,1.98-1.62,3.6-3.6,3.6H45.014c-1.98,0-3.6-1.62-3.6-3.6V175.655z"/>
			<path fill="none" stroke="#000000" stroke-width="0.75" d="M41.414,175.655c0-1.98,1.62-3.6,3.6-3.6h455.615
				c1.979,0,3.6,1.62,3.6,3.6v17.678c0,1.98-1.62,3.6-3.6,3.6H45.014c-1.98,0-3.6-1.62-3.6-3.6V175.655z"/>
		</g>
		<text transform="matrix(1 0 0 1 197.1675 112.1338)" font-size="12">Service Class Specifications</text>
		<text transform="matrix(1 0 0 1 190.8276 150.0298)" font-size="12">Information Objects Definitions</text>
		<text transform="matrix(1 0 0 1 141.0601 187.9263)" font-size="12">Dataset Structure and Encoding - Data Dictionary</text>
		<g>
			<g>
				<path fill="#D4DCE6" d="M17.299,266.125c0-1.98,1.62-3.6,3.6-3.6h152.8c1.98,0,3.6,1.62,3.6,3.6v32.801
					c0,1.979-1.62,3.6-3.6,3.6h-152.8c-1.98,0-3.6-1.62-3.6-3.6V266.125z"/>
			</g>
			<text transform="matrix(1 0 0 1 64.5386 274.9673)"><tspan x="0" y="0" font-size="11">BOUNDARY:</tspan><tspan x="-37.294" y="13.2" font-size="11">DICOM Upper Layer Service</tspan></text>
			
				<line fill="#5D89B4" stroke="#276092" stroke-width="4" stroke-linecap="round" stroke-miterlimit="1" x1="22.238" y1="295.351" x2="172.238" y2="295.351"/>
			<g>
				<path fill="#D4DCE6" d="M21.213,511.091c0-1.979,1.62-3.6,3.6-3.6h144.853c1.98,0,3.6,1.62,3.6,3.6v22.229
					c0,1.979-1.62,3.6-3.6,3.6H24.813c-1.98,0-3.6-1.62-3.6-3.6V511.091z"/>
				<path fill="none" stroke="#000000" stroke-width="0.75" d="M21.213,511.091c0-1.979,1.62-3.6,3.6-3.6h144.853
					c1.98,0,3.6,1.62,3.6,3.6v22.229c0,1.979-1.62,3.6-3.6,3.6H24.813c-1.98,0-3.6-1.62-3.6-3.6V511.091z"/>
			</g>
			<text transform="matrix(1 0 0 1 59.4692 519.6265)"><tspan x="0" y="0" font-size="9">Network Exchange</tspan><tspan x="-10.753" y="10.801" font-size="9">On-Line Communication</tspan></text>
			<g>
				<path fill="#D4DCE6" d="M21.213,449.98c0-1.979,1.62-3.6,3.6-3.6h144.853c1.98,0,3.6,1.62,3.6,3.6v22.229
					c0,1.979-1.62,3.6-3.6,3.6H24.813c-1.98,0-3.6-1.62-3.6-3.6V449.98z"/>
				<path fill="none" stroke="#000000" stroke-width="0.75" d="M21.213,449.98c0-1.979,1.62-3.6,3.6-3.6h144.853
					c1.98,0,3.6,1.62,3.6,3.6v22.229c0,1.979-1.62,3.6-3.6,3.6H24.813c-1.98,0-3.6-1.62-3.6-3.6V449.98z"/>
			</g>
			<text transform="matrix(1 0 0 1 49.6694 463.3159)" font-size="9">TCP/IP Transport Layer</text>
			<g>
				<path fill="#D4DCE6" d="M21.213,388.869c0-1.979,1.62-3.6,3.6-3.6h144.853c1.98,0,3.6,1.62,3.6,3.6v22.229
					c0,1.979-1.62,3.6-3.6,3.6H24.813c-1.98,0-3.6-1.62-3.6-3.6V388.869z"/>
				<path fill="none" stroke="#000000" stroke-width="0.75" stroke-dasharray="4" d="M21.213,388.869c0-1.979,1.62-3.6,3.6-3.6
					h144.853c1.98,0,3.6,1.62,3.6,3.6v22.229c0,1.979-1.62,3.6-3.6,3.6H24.813c-1.98,0-3.6-1.62-3.6-3.6V388.869z"/>
			</g>
			<text transform="matrix(1 0 0 1 68.4243 397.4038)"><tspan x="0" y="0" font-size="9">Security Layer</tspan><tspan x="9.004" y="10.801" font-size="9">(Optional)</tspan></text>
			<g>
				<path fill="#D4DCE6" d="M21.213,327.757c0-1.979,1.62-3.6,3.6-3.6h144.853c1.98,0,3.6,1.62,3.6,3.6v22.229
					c0,1.979-1.62,3.6-3.6,3.6H24.813c-1.98,0-3.6-1.62-3.6-3.6V327.757z"/>
				<path fill="none" stroke="#000000" stroke-width="0.75" d="M21.213,327.757c0-1.979,1.62-3.6,3.6-3.6h144.853
					c1.98,0,3.6,1.62,3.6,3.6v22.229c0,1.979-1.62,3.6-3.6,3.6H24.813c-1.98,0-3.6-1.62-3.6-3.6V327.757z"/>
			</g>
			<text transform="matrix(1 0 0 1 56.1733 341.0933)" font-size="9">DICOM Upper Layer</text>
			<g>
				<path fill="#D4DCE6" d="M39.742,213.167c0-1.98,1.62-3.6,3.6-3.6h107.8c1.98,0,3.6,1.62,3.6,3.6v17.678c0,1.98-1.62,3.6-3.6,3.6
					h-107.8c-1.98,0-3.6-1.62-3.6-3.6V213.167z"/>
				<path fill="none" stroke="#000000" stroke-width="0.75" d="M39.742,213.167c0-1.98,1.62-3.6,3.6-3.6h107.8
					c1.98,0,3.6,1.62,3.6,3.6v17.678c0,1.98-1.62,3.6-3.6,3.6h-107.8c-1.98,0-3.6-1.62-3.6-3.6V213.167z"/>
			</g>
			<text transform="matrix(1 0 0 1 44.5425 225.8223)" font-size="12">Message Exchange</text>
		</g>
	</g>
</g>
</svg>
