<?xml version="1.0" encoding="utf-8"?>

<svg version="1.1" id="Layer_1" xmlns="http://www.w3.org/2000/svg" xmlns:xlink="http://www.w3.org/1999/xlink" x="0px" y="0px"
	 viewBox="0 0 502 532" enable-background="new 0 0 502 532" xml:space="preserve">

<defs>
	<style type="text/css">
	text {
	  font-family: Helvetica, Verdana, ArialUnicodeMS, san-serif
	}
	</style>
</defs>

<g>
   <desc>
	PS3.10 : Media Storage and File Format for Media Interchange
   </desc>
</g>
    
<g>
	<rect x="1" y="1" fill="#F2EDD6" width="500" height="530"/>
	<g>
		<g>
			<rect x="277.096" y="17.17" fill="#B2CEE7" width="90" height="497.659"/>
			<rect x="195.919" y="17.17" fill="#FFFFFF" width="80.995" height="497.659"/>
			<rect x="367.028" y="17.17" fill="#86B2D8" width="90" height="497.659"/>
			
				<line fill="none" stroke="#000000" stroke-width="0.75" stroke-miterlimit="1" x1="178.315" y1="50.466" x2="463.997" y2="50.466"/>
			
				<line fill="none" stroke="#000000" stroke-width="0.75" stroke-miterlimit="1" x1="178.315" y1="69.651" x2="463.997" y2="69.651"/>
			
				<line fill="none" stroke="#000000" stroke-width="0.75" stroke-miterlimit="1" x1="178.315" y1="88.143" x2="463.997" y2="88.143"/>
			
				<line fill="none" stroke="#000000" stroke-width="0.75" stroke-miterlimit="1" x1="178.315" y1="107.085" x2="463.997" y2="107.085"/>
			
				<line fill="none" stroke="#000000" stroke-width="0.75" stroke-miterlimit="1" x1="178.315" y1="126.03" x2="463.997" y2="126.03"/>
			
				<line fill="none" stroke="#000000" stroke-width="0.75" stroke-miterlimit="1" x1="178.315" y1="145.19" x2="463.997" y2="145.19"/>
			
				<line fill="none" stroke="#000000" stroke-width="0.75" stroke-miterlimit="1" x1="178.315" y1="163.726" x2="463.997" y2="163.726"/>
			
				<line fill="none" stroke="#000000" stroke-width="0.75" stroke-miterlimit="1" x1="178.315" y1="182.901" x2="463.997" y2="182.901"/>
			
				<line fill="none" stroke="#000000" stroke-width="0.75" stroke-miterlimit="1" x1="178.315" y1="213.015" x2="463.997" y2="213.015"/>
			
				<line fill="none" stroke="#000000" stroke-width="0.75" stroke-miterlimit="1" x1="178.315" y1="243.546" x2="463.997" y2="243.546"/>
			
				<line fill="none" stroke="#000000" stroke-width="0.75" stroke-miterlimit="1" x1="178.315" y1="272.838" x2="463.997" y2="272.838"/>
			
				<line fill="none" stroke="#000000" stroke-width="0.75" stroke-miterlimit="1" x1="178.315" y1="303.296" x2="463.997" y2="303.296"/>
			
				<line fill="none" stroke="#000000" stroke-width="0.75" stroke-miterlimit="1" x1="178.315" y1="333.036" x2="463.997" y2="333.036"/>
			
				<line fill="none" stroke="#000000" stroke-width="0.75" stroke-miterlimit="1" x1="178.315" y1="362.782" x2="463.997" y2="362.782"/>
			
				<line fill="none" stroke="#000000" stroke-width="0.75" stroke-miterlimit="1" x1="178.315" y1="381.957" x2="463.997" y2="381.957"/>
			
				<line fill="none" stroke="#000000" stroke-width="0.75" stroke-miterlimit="1" x1="178.315" y1="400.272" x2="463.997" y2="400.272"/>
			
				<line fill="none" stroke="#000000" stroke-width="0.75" stroke-miterlimit="1" x1="178.315" y1="420.376" x2="463.997" y2="420.376"/>
			
				<line fill="none" stroke="#000000" stroke-width="0.75" stroke-miterlimit="1" x1="178.315" y1="439.264" x2="463.997" y2="439.264"/>
			
				<line fill="none" stroke="#000000" stroke-width="0.75" stroke-miterlimit="1" x1="178.315" y1="469.869" x2="463.997" y2="469.869"/>
			
				<line fill="none" stroke="#000000" stroke-width="0.75" stroke-miterlimit="1" x1="178.315" y1="498.993" x2="463.997" y2="498.993"/>
			<rect x="216.917" y="25.747" fill="none" width="38.999" height="10"/>
			<text transform="matrix(0.9288 0 0 1 221.5468 32.1894)" font-size="9px">General</text>
			<rect x="291.918" y="20.748" fill="none" width="60.355" height="20"/>
			<text transform="matrix(0.9288 0 0 1 306.7665 27.1899)"><tspan x="0" y="0" font-size="9px">Network</tspan><tspan x="-14.759" y="10.8" font-size="9px">Communication</tspan></text>
			<rect x="381.352" y="20.748" fill="none" width="61.353" height="20"/>
			<text transform="matrix(0.9288 0 0 1 384.8441 27.1899)"><tspan x="0" y="0" font-size="9px">Media Storage</tspan><tspan x="5.499" y="10.8" font-size="9px">Interchange</tspan></text>
			
				<line fill="none" stroke="#005695" stroke-width="6" stroke-linecap="round" stroke-miterlimit="1" x1="204.997" y1="50.466" x2="267.997" y2="50.466"/>
			
				<line fill="none" stroke="#005695" stroke-width="6" stroke-linecap="round" stroke-miterlimit="1" x1="204.997" y1="439.264" x2="267.997" y2="439.264"/>
			
				<line fill="none" stroke="#005695" stroke-width="6" stroke-linecap="round" stroke-miterlimit="1" x1="204.997" y1="420.376" x2="267.997" y2="420.376"/>
			
				<line fill="none" stroke="#005695" stroke-width="6" stroke-linecap="round" stroke-miterlimit="1" x1="204.997" y1="362.782" x2="267.997" y2="362.782"/>
			
				<line fill="none" stroke="#005695" stroke-width="6" stroke-linecap="round" stroke-miterlimit="1" x1="204.997" y1="381.957" x2="267.997" y2="381.957"/>
			
				<line fill="none" stroke="#005695" stroke-width="6" stroke-linecap="round" stroke-miterlimit="1" x1="204.997" y1="303.296" x2="267.997" y2="303.296"/>
			
				<line fill="none" stroke="#005695" stroke-width="6" stroke-linecap="round" stroke-miterlimit="1" x1="287.497" y1="88.143" x2="449.497" y2="88.143"/>
			
				<line fill="none" stroke="#005695" stroke-width="6" stroke-linecap="round" stroke-miterlimit="1" x1="287.497" y1="107.085" x2="449.497" y2="107.085"/>
			
				<line fill="none" stroke="#005695" stroke-width="6" stroke-linecap="round" stroke-miterlimit="1" x1="287.497" y1="126.03" x2="449.497" y2="126.03"/>
			
				<line fill="none" stroke="#005695" stroke-width="6" stroke-linecap="round" stroke-miterlimit="1" x1="287.497" y1="145.19" x2="449.497" y2="145.19"/>
			
				<line fill="none" stroke="#005695" stroke-width="6" stroke-linecap="round" stroke-miterlimit="1" x1="289.163" y1="163.726" x2="361.163" y2="163.726"/>
			
				<line fill="none" stroke="#005695" stroke-width="6" stroke-linecap="round" stroke-miterlimit="1" x1="289.163" y1="182.901" x2="361.163" y2="182.901"/>
			
				<line fill="none" stroke="#005695" stroke-width="6" stroke-linecap="round" stroke-miterlimit="1" x1="289.163" y1="400.272" x2="361.163" y2="400.272"/>
			
				<line fill="none" stroke="#005695" stroke-width="6" stroke-linecap="round" stroke-miterlimit="1" x1="204.997" y1="469.869" x2="267.997" y2="469.869"/>
			
				<line fill="none" stroke="#005695" stroke-width="6" stroke-linecap="round" stroke-miterlimit="1" x1="204.997" y1="498.993" x2="267.997" y2="498.993"/>
			
				<line fill="none" stroke="#005695" stroke-width="6" stroke-linecap="round" stroke-miterlimit="1" x1="377.497" y1="213.015" x2="449.497" y2="213.015"/>
			
				<line fill="none" stroke="#005695" stroke-width="6" stroke-linecap="round" stroke-miterlimit="1" x1="377.497" y1="243.546" x2="449.497" y2="243.546"/>
			
				<line fill="none" stroke="#005695" stroke-width="6" stroke-linecap="round" stroke-miterlimit="1" x1="377.497" y1="272.838" x2="449.497" y2="272.838"/>
			
				<line fill="none" stroke="#005695" stroke-width="6" stroke-linecap="round" stroke-miterlimit="1" x1="204.997" y1="333.036" x2="449.497" y2="333.036"/>
			
				<line fill="none" stroke="#005695" stroke-width="6" stroke-linecap="round" stroke-miterlimit="1" x1="206.497" y1="69.651" x2="449.497" y2="69.651"/>
		</g>
		<g>
			<text transform="matrix(1 0 0 1 38.0033 27.81)" font-size="12px">Parts of DICOM Standard</text>
			<rect x="38.003" y="46.482" fill="none" width="139.355" height="468.347"/>
			<text transform="matrix(0.9288 0 0 1 38.0033 52.209)" font-size="8px">PS3.1 Introduction and Overview</text>
			<text transform="matrix(0.9288 0 0 1 38.0033 71.209)" font-size="8px">PS3.2 Conformance</text>
			<text transform="matrix(0.9288 0 0 1 38.0033 90.209)" font-size="8px">PS3.3 </text>
			<text transform="matrix(1 0 0 1 60.309 90.209)" font-size="8px">Information Object Definitions</text>
			<text transform="matrix(1 0 0 1 38.0033 109.209)" font-size="8px">PS3.4 Service Class Specifications</text>
			<text transform="matrix(1 0 0 1 38.0033 128.209)" font-size="8px">PS3.5 Data Structure and Semantics</text>
			<text transform="matrix(1 0 0 1 38.0033 147.209)" font-size="8px">PS3.6 Data Dictionary</text>
			<text transform="matrix(1 0 0 1 38.0033 166.209)" font-size="8px">PS3.7 Message Exchange</text>
			<text transform="matrix(1 0 0 1 38.0033 185.209)" font-size="8px">PS3.8 Network Communication </text>
			<text transform="matrix(1 0 0 1 38.0033 196.209)" font-size="8px">Support for Message Exchange</text>
			<text transform="matrix(1 0 0 1 38.0033 215.209)" font-size="8px">PS3.10 Media Storage and File </text>
			<text transform="matrix(1 0 0 1 38.0033 226.209)" font-size="8px">Format for Media Interchange</text>
			<text transform="matrix(1 0 0 1 38.0033 245.2085)" font-size="8px">PS3.11 Media Storage Application </text>
			<text transform="matrix(1 0 0 1 38.0033 256.2085)" font-size="8px">Profiles</text>
			<text transform="matrix(1 0 0 1 38.0033 275.2085)" font-size="8px">PS3.12 Storage Functions and Media </text>
			<text transform="matrix(1 0 0 1 38.0033 286.2085)" font-size="8px">Formats for Data Interchange</text>
			<text transform="matrix(1 0 0 1 38.0033 305.2085)" font-size="8px">PS3.14 Grayscale Standard Display </text>
			<text transform="matrix(1 0 0 1 38.0033 316.2085)" font-size="8px">Format </text>
			<text transform="matrix(1 0 0 1 38.0033 335.2085)" font-size="8px">PS3.15 Security and System </text>
			<text transform="matrix(1 0 0 1 38.0033 346.2085)" font-size="8px">Management Profiles</text>
			<text transform="matrix(1 0 0 1 38.0033 365.2085)" font-size="8px">PS3.16 Content Mapping Resource</text>
			<text transform="matrix(1 0 0 1 38.0033 384.2085)" font-size="8px">PS3.17 Explanatory Information</text>
			<text transform="matrix(1 0 0 1 38.0033 403.2085)" font-size="8px">PS3.18 Web Services</text>
			<text transform="matrix(1 0 0 1 38.0033 422.2085)" font-size="8px">PS3.19 Application Hosting </text>
			<text transform="matrix(1 0 0 1 38.0033 441.2085)" font-size="8px">PS3.20 Imaging Reports using HL7 </text>
			<text transform="matrix(1 0 0 1 38.0033 452.2085)" font-size="8px">Clinical Document Architecture</text>
			<text transform="matrix(1 0 0 1 38.0033 471.2085)" font-size="8px">PS3.21 Transformations between </text>
			<text transform="matrix(1 0 0 1 38.0033 482.2085)" font-size="8px">DICOM and other Representations</text>
			<text transform="matrix(1 0 0 1 38.0033 501.2085)" font-size="8px">PS3.22 Real-Time Communications </text>
			<text transform="matrix(1 0 0 1 38.0033 512.2085)" font-size="8px">(DICOM RTV) </text>
		</g>
	</g>
</g>
</svg>
