<?xml version="1.0" encoding="utf-8"?>

<!DOCTYPE svg PUBLIC "-//W3C//DTD SVG 1.1//EN" "http://www.w3.org/Graphics/SVG/1.1/DTD/svg11.dtd">
<svg version="1.1" id="Layer_1" xmlns="http://www.w3.org/2000/svg" xmlns:xlink="http://www.w3.org/1999/xlink" x="0px" y="0px"
	 width="502px" height="247px" viewBox="0 0 502 247" enable-background="new 0 0 502 247" xml:space="preserve">
        
<defs>
	<style type="text/css">
	text {
	  font-family: Helvetica, Verdana, ArialUnicodeMS, san-serif
	}
	</style>
</defs>

<g>
   <desc>
	PS 3.5 Part 5: Data Structures and Encoding
   </desc>
</g>

<g>
	<rect x="1" y="1" fill="#F5EED6" width="500" height="245"/>
	<g>
		<g>
			<text transform="matrix(1 0 0 1 66 26.3887)" font-size="12">Float Pixel Data Byte Stream (VR = OF); 32 bits allocated)</text>
		</g>
		
			<rect x="66" y="35.787" fill="#CCDEF0" stroke="#010101" stroke-width="1.0187" stroke-miterlimit="1" width="370" height="194.792"/>
		<g>
			<g>
				<text transform="matrix(1 0 0 1 204.1934 204.29)"><tspan x="0" y="0" font-size="8">MSb = Most Significant Bit</tspan><tspan x="0" y="9.601" font-size="8">LSb = Least Significant Bit</tspan></text>
			</g>
			<g>
				<rect x="207.805" y="160.633" fill="#FFFFFF" width="104.781" height="13.029"/>
				<rect x="207.709" y="148.107" fill="#C0E2CA" width="104.973" height="13.029"/>
				<rect x="207.709" y="174.166" fill="#FFFFFF" width="104.973" height="13.031"/>
				<rect x="207.707" y="95.078" fill="#DCDDDE" width="104.975" height="13.03"/>
				<rect x="207.805" y="82.047" fill="#F1F2F2" width="104.781" height="13.03"/>
				<rect x="207.707" y="121.138" fill="#B1B3B6" width="104.975" height="13.028"/>
				<rect x="207.805" y="108.108" fill="#C7C8CA" width="104.781" height="13.03"/>
				<rect x="207.805" y="134.166" fill="#D8EDDD" width="104.781" height="13.031"/>
				<g>
					<text transform="matrix(1 0 0 1 241.0171 91.3467)" font-size="10">Pixel 1.1</text>
				</g>
				<g>
					<text transform="matrix(1 0 0 1 213 90.7896)" font-size="8">MSb</text>
				</g>
				<g>
					<text transform="matrix(1 0 0 1 294.6914 90.7896)" font-size="8">LSb</text>
				</g>
				<g>
					<text transform="matrix(1 0 0 1 241.0171 104.377)" font-size="10">Pixel 1.2</text>
				</g>
				<g>
					<text transform="matrix(1 0 0 1 213 103.8198)" font-size="8">MSb</text>
				</g>
				<g>
					<text transform="matrix(1 0 0 1 294.6914 103.8198)" font-size="8">LSb</text>
				</g>
				<g>
					<text transform="matrix(1 0 0 1 241.0171 117.4067)" font-size="10">Pixel 1.3</text>
				</g>
				<g>
					<text transform="matrix(1 0 0 1 213 116.8501)" font-size="8">MSb</text>
				</g>
				<g>
					<text transform="matrix(1 0 0 1 294.6914 116.8501)" font-size="8">LSb</text>
				</g>
				<g>
					<text transform="matrix(1 0 0 1 241.0171 130.4365)" font-size="10">Pixel 1.4</text>
				</g>
				<g>
					<text transform="matrix(1 0 0 1 213 129.8789)" font-size="8">MSb</text>
				</g>
				<g>
					<text transform="matrix(1 0 0 1 294.6914 129.8789)" font-size="8">LSb</text>
				</g>
				<g>
					<text transform="matrix(1 0 0 1 241.0171 143.4668)" font-size="10">Pixel 2.1</text>
				</g>
				<g>
					<text transform="matrix(1 0 0 1 213 142.9092)" font-size="8">MSb</text>
				</g>
				<g>
					<text transform="matrix(1 0 0 1 294.6914 142.9092)" font-size="8">LSb</text>
				</g>
				<g>
					<text transform="matrix(1 0 0 1 241.0171 157.4072)" font-size="10">Pixel 2.2</text>
				</g>
				<g>
					<text transform="matrix(1 0 0 1 213 156.8496)" font-size="8">MSb</text>
				</g>
				<g>
					<text transform="matrix(1 0 0 1 294.6914 156.8496)" font-size="8">LSb</text>
				</g>
				<g>
					<text transform="matrix(1 0 0 1 256.0273 169.9326)" font-size="10">...</text>
				</g>
				<g>
					<text transform="matrix(1 0 0 1 256.0273 183.4668)" font-size="10">...</text>
				</g>
				<g>
					<text transform="matrix(1 0 0 1 178.2393 91.0679)" fill="#ED1C24" font-size="9">byte 0</text>
				</g>
				<g>
					<text transform="matrix(1 0 0 1 178.2393 117.1284)" fill="#ED1C24" font-size="9">byte 2</text>
				</g>
				<g>
					<text transform="matrix(1 0 0 1 177.606 104.0986)" fill="#ED1C24" font-size="9">byte 1</text>
				</g>
				<g>
					<text transform="matrix(1 0 0 1 178.2393 143.1885)" fill="#ED1C24" font-size="9">byte 4</text>
				</g>
				<g>
					<text transform="matrix(1 0 0 1 177.606 130.1582)" fill="#ED1C24" font-size="9">byte 3</text>
				</g>
				<g>
					<text transform="matrix(1 0 0 1 177.606 157.1289)" fill="#ED1C24" font-size="9">byte 5</text>
				</g>
				<rect x="207.805" y="82.047" fill="none" stroke="#010101" stroke-miterlimit="1" width="104.781" height="104.781"/>
				<line fill="none" stroke="#010101" stroke-miterlimit="1" x1="207.805" y1="173.73" x2="312.586" y2="173.73"/>
				<line fill="none" stroke="#010101" stroke-miterlimit="1" x1="207.805" y1="160.633" x2="312.586" y2="160.633"/>
				<line fill="none" stroke="#010101" stroke-miterlimit="1" x1="207.805" y1="147.535" x2="312.586" y2="147.535"/>
				<line fill="none" stroke="#010101" stroke-miterlimit="1" x1="207.805" y1="134.438" x2="312.586" y2="134.438"/>
				<line fill="none" stroke="#010101" stroke-miterlimit="1" x1="207.805" y1="121.34" x2="312.586" y2="121.34"/>
				<line fill="none" stroke="#010101" stroke-miterlimit="1" x1="207.805" y1="108.243" x2="312.586" y2="108.243"/>
				<line fill="none" stroke="#010101" stroke-miterlimit="1" x1="207.805" y1="95.145" x2="312.586" y2="95.145"/>
				<g>
					<text transform="matrix(1 0 0 1 195.9956 56.4985)" font-size="10">Little Endian Transfer Syntax</text>
				</g>
				<g>
					<text transform="matrix(1 0 0 1 290.3535 77.6772)" font-size="10">1</text>
				</g>
				<g>
					<text transform="matrix(1 0 0 1 303.3828 77.6772)" font-size="10">0</text>
				</g>
				<g>
					<text transform="matrix(1 0 0 1 277.7129 77.6772)" font-size="10">2</text>
				</g>
				<g>
					<text transform="matrix(1 0 0 1 264.5098 77.6772)" font-size="10">3</text>
				</g>
				<g>
					<text transform="matrix(1 0 0 1 251.3027 77.6772)" font-size="10">4</text>
				</g>
				<g>
					<text transform="matrix(1 0 0 1 238.1016 77.6772)" font-size="10">5</text>
				</g>
				<g>
					<text transform="matrix(1 0 0 1 211.6328 77.6772)" font-size="10">7</text>
				</g>
				<g>
					<text transform="matrix(1 0 0 1 224.7539 77.6772)" font-size="10">6</text>
				</g>
			</g>
		</g>
	</g>
</g>
</svg>
