<?xml version="1.0" encoding="utf-8"?>

<!DOCTYPE svg PUBLIC "-//W3C//DTD SVG 1.1//EN" "http://www.w3.org/Graphics/SVG/1.1/DTD/svg11.dtd">
<svg version="1.1" id="Layer_1" xmlns="http://www.w3.org/2000/svg" xmlns:xlink="http://www.w3.org/1999/xlink" x="0px" y="0px"
	 width="502px" height="302px" viewBox="0 0 502 302" enable-background="new 0 0 502 302" xml:space="preserve">
        
<defs>
	<style type="text/css">
	text {
	  font-family: Helvetica, Verdana, ArialUnicodeMS, san-serif
	}
	</style>
</defs>

<g>
   <desc>
	PS 3.5 Part 5: Data Structures and Encoding
   </desc>
</g>

<g>
	<g>
		<rect x="1" y="1" fill="#F5EED6" width="500" height="300"/>
	</g>
	<g>
		
			<rect x="125" y="34.797" fill="#CCDEF0" stroke="#010101" stroke-width="0.75" stroke-linecap="round" stroke-linejoin="round" stroke-miterlimit="1" width="252.001" height="252"/>
		<g>
			<text transform="matrix(1 0 0 1 125.0005 25.8413)" font-size="12">Image Plane</text>
		</g>
		<g>
			<text transform="matrix(1 0 0 1 160.4263 151.9824)" font-size="10">Pixel i-1</text>
		</g>
		<g>
			<text transform="matrix(1 0 0 1 179.5176 138.5728)" font-size="10">Pixel i</text>
		</g>
		<g>
			<text transform="matrix(1 0 0 1 271.6133 223.8994)" font-size="10">Pixel i+1</text>
		</g>
		<g>
			<text transform="matrix(1 0 0 1 283.2773 210.3994)" font-size="10">Pixel i+2</text>
		</g>
		<rect x="125" y="34.797" fill="none" stroke="#939598" stroke-miterlimit="1" width="252.001" height="252"/>
		<line fill="none" stroke="#939598" stroke-miterlimit="1" x1="125" y1="275.354" x2="377.001" y2="275.354"/>
		<line fill="none" stroke="#939598" stroke-miterlimit="1" x1="212.106" y1="183.684" x2="266.356" y2="183.684"/>
		<line fill="none" stroke="#939598" stroke-miterlimit="1" x1="212.106" y1="172.24" x2="266.356" y2="172.24"/>
		<line fill="none" stroke="#939598" stroke-miterlimit="1" x1="125" y1="57.684" x2="377.001" y2="57.684"/>
		<line fill="none" stroke="#939598" stroke-miterlimit="1" x1="125" y1="46.24" x2="377.001" y2="46.24"/>
		<line fill="none" stroke="#939598" stroke-miterlimit="1" x1="365.558" y1="34.797" x2="365.558" y2="286.797"/>
		<line fill="none" stroke="#939598" stroke-miterlimit="1" x1="354.114" y1="34.797" x2="354.114" y2="286.797"/>
		<line fill="none" stroke="#939598" stroke-miterlimit="1" x1="262.444" y1="168.207" x2="262.444" y2="187.707"/>
		<line fill="none" stroke="#939598" stroke-miterlimit="1" x1="251.001" y1="168.207" x2="251.001" y2="187.707"/>
		<line fill="none" stroke="#939598" stroke-miterlimit="1" x1="239.558" y1="168.207" x2="239.558" y2="187.707"/>
		<line fill="none" stroke="#939598" stroke-miterlimit="1" x1="228.114" y1="168.207" x2="228.114" y2="187.707"/>
		<line fill="none" stroke="#939598" stroke-miterlimit="1" x1="216.608" y1="168.207" x2="216.608" y2="187.707"/>
		<line fill="none" stroke="#939598" stroke-miterlimit="1" x1="147.887" y1="34.797" x2="147.887" y2="286.797"/>
		<line fill="none" stroke="#939598" stroke-miterlimit="1" x1="136.443" y1="34.797" x2="136.443" y2="286.797"/>
		<rect x="228.113" y="172.24" fill="#6799C8" stroke="#000000" stroke-miterlimit="1" width="11.505" height="11.443"/>
		<rect x="216.608" y="172.24" fill="#86B2D8" stroke="#000000" stroke-miterlimit="1" width="11.505" height="11.443"/>
		<rect x="239.618" y="172.24" fill="#4F8ABE" stroke="#000000" stroke-miterlimit="1" width="11.505" height="11.443"/>
		<rect x="251.123" y="172.24" fill="#005695" stroke="#000000" stroke-miterlimit="1" width="11.505" height="11.443"/>
		<polyline fill="none" stroke="#010101" stroke-miterlimit="1" points="281.548,207.571 269.915,207.571 257.075,178.13 		"/>
		<polyline fill="none" stroke="#010101" stroke-miterlimit="1" points="269.455,221.17 257.822,221.17 244.982,178.584 		"/>
		<polyline fill="none" stroke="#010101" stroke-miterlimit="1" points="197.582,149.504 209.215,149.504 222.055,178.945 		"/>
		<polyline fill="none" stroke="#010101" stroke-miterlimit="1" points="209.675,135.905 221.308,135.905 234.147,178.491 		"/>
		<g>
			<g>
				
					<line fill="none" stroke="#005695" stroke-width="2" stroke-miterlimit="1" x1="153.052" y1="57.906" x2="318.003" y2="57.906"/>
				<g>
					<polygon fill="#005695" points="314.832,62.555 332.178,57.906 314.832,53.258 					"/>
				</g>
			</g>
		</g>
		<g>
			<g>
				
					<line fill="none" stroke="#005695" stroke-width="2" stroke-miterlimit="1" x1="148.118" y1="62.49" x2="148.118" y2="227.455"/>
				<g>
					<polygon fill="#005695" points="143.47,224.284 148.118,241.63 152.767,224.284 					"/>
				</g>
			</g>
		</g>
		<rect x="125.001" y="34.797" fill="none" stroke="#000000" stroke-miterlimit="1" width="252" height="252"/>
	</g>
</g>
</svg>
