<?xml version="1.0" encoding="utf-8"?>

<!DOCTYPE svg PUBLIC "-//W3C//DTD SVG 1.1//EN" "http://www.w3.org/Graphics/SVG/1.1/DTD/svg11.dtd">
<svg version="1.1" id="Layer_1" xmlns="http://www.w3.org/2000/svg" xmlns:xlink="http://www.w3.org/1999/xlink" x="0px" y="0px"
	 width="502px" height="157px" viewBox="0 0 502 157" enable-background="new 0 0 502 157" xml:space="preserve">
        
<defs>
	<style type="text/css">
	text {
	  font-family: Helvetica, Verdana, ArialUnicodeMS, san-serif
	}
	</style>
</defs>

<g>
   <desc>
	PS 3.5 Part 5: Data Structures and Encoding
   </desc>
</g>

<g>
	<rect x="1" y="1" fill="#F5EED6" width="500" height="155"/>
	<g>
		
			<rect x="121" y="35.188" fill="#CCDEF0" stroke="#010101" stroke-width="1.1057" stroke-miterlimit="1" width="260" height="105"/>
		<g>
			<text transform="matrix(1 0 0 1 120.7837 26.562)" font-size="12">Example: CT Pixel Cell</text>
		</g>
		<rect x="280.101" y="63.475" fill="#FFFFFF" stroke="#010101" stroke-miterlimit="1" width="14.4" height="14.4"/>
		<rect x="265.601" y="63.475" fill="#FFFFFF" stroke="#010101" stroke-miterlimit="1" width="14.4" height="14.4"/>
		<rect x="251.101" y="63.475" fill="#FFFFFF" stroke="#010101" stroke-miterlimit="1" width="14.4" height="14.4"/>
		<rect x="236.6" y="63.475" fill="#FFFFFF" stroke="#010101" stroke-miterlimit="1" width="14.401" height="14.4"/>
		<rect x="222.1" y="63.475" fill="#FFFFFF" stroke="#010101" stroke-miterlimit="1" width="14.4" height="14.4"/>
		<rect x="207.494" y="63.475" fill="#FFFFFF" stroke="#010101" stroke-miterlimit="1" width="14.4" height="14.4"/>
		<rect x="193.1" y="63.475" fill="#FFFFFF" stroke="#010101" stroke-miterlimit="1" width="14.4" height="14.4"/>
		<rect x="178.6" y="63.475" fill="#6799C8" stroke="#010101" stroke-miterlimit="1" width="14.4" height="14.4"/>
		<rect x="164.1" y="63.475" fill="#6799C8" stroke="#010101" stroke-miterlimit="1" width="14.4" height="14.4"/>
		<rect x="149.6" y="63.475" fill="#6799C8" stroke="#010101" stroke-miterlimit="1" width="14.4" height="14.4"/>
		<rect x="135.1" y="63.475" fill="#6799C8" stroke="#010101" stroke-miterlimit="1" width="14.4" height="14.4"/>
		<rect x="338.101" y="63.475" fill="#FFFFFF" stroke="#010101" stroke-miterlimit="1" width="14.4" height="14.4"/>
		<rect x="323.601" y="63.475" fill="#FFFFFF" stroke="#010101" stroke-miterlimit="1" width="14.4" height="14.4"/>
		<rect x="309.101" y="63.475" fill="#FFFFFF" stroke="#010101" stroke-miterlimit="1" width="14.4" height="14.4"/>
		<rect x="294.601" y="63.475" fill="#FFFFFF" stroke="#010101" stroke-miterlimit="1" width="14.4" height="14.4"/>
		<g>
			<text transform="matrix(1 0 0 1 342.5176 73.5835)" font-size="10">1</text>
		</g>
		<rect x="352.501" y="63.475" fill="#FFFFFF" stroke="#010101" stroke-miterlimit="1" width="14.4" height="14.4"/>
		<g>
			<text transform="matrix(1 0 0 1 356.918 73.5835)" font-size="10">0</text>
		</g>
		<g>
			<text transform="matrix(1 0 0 1 328.5488 73.5835)" font-size="10">2</text>
		</g>
		<g>
			<text transform="matrix(1 0 0 1 313.957 73.5835)" font-size="10">3</text>
		</g>
		<g>
			<text transform="matrix(1 0 0 1 299.3613 73.5835)" font-size="10">4</text>
		</g>
		<g>
			<text transform="matrix(1 0 0 1 284.7715 73.5835)" font-size="10">5</text>
		</g>
		<g>
			<text transform="matrix(1 0 0 1 244.6221 60.3071)" font-size="10">Pixel Sample</text>
		</g>
		<g>
			<text transform="matrix(1 0 0 1 135.1006 93.9072)"><tspan x="0" y="0" font-size="11">Bits Allocated = 16</tspan><tspan x="0" y="13.2" font-size="11">Bits Stored = 12</tspan><tspan x="0" y="26.399" font-size="11">High Bit = 11</tspan></text>
		</g>
		<g>
			<text transform="matrix(1 0 0 1 209.1338 73.5835)" fill="#312A35" font-size="10">10</text>
		</g>
		<g>
			<text transform="matrix(1 0 0 1 136.7373 73.5835)" font-size="10">15</text>
		</g>
		<g>
			<text transform="matrix(1 0 0 1 151.2393 73.5835)" font-size="10">14</text>
		</g>
		<g>
			<text transform="matrix(1 0 0 1 165.7388 73.5835)" font-size="10">13</text>
		</g>
		<g>
			<text transform="matrix(1 0 0 1 180.2393 73.5835)" font-size="10">12</text>
		</g>
		<g>
			<text transform="matrix(1 0 0 1 194.7388 73.5835)" font-size="10">11</text>
		</g>
		<g>
			<text transform="matrix(1 0 0 1 226.5195 73.5835)" font-size="10">9</text>
		</g>
		<g>
			<text transform="matrix(1 0 0 1 241.02 73.5835)" font-size="10">8</text>
		</g>
		<g>
			<text transform="matrix(1 0 0 1 255.5195 73.5835)" font-size="10">7</text>
		</g>
		<g>
			<text transform="matrix(1 0 0 1 270.0195 73.5835)" font-size="10">6</text>
		</g>
		<g>
			<g>
				
					<line fill="none" stroke="#010101" stroke-width="0.9529" stroke-miterlimit="1" x1="241.634" y1="56.88" x2="201.634" y2="56.88"/>
				<path fill="#010101" d="M199.383,57.856c1.575,0.476,2.6,0.915,3.863,1.421v-4.807c-0.452,0.215-2.288,0.946-3.863,1.421
					c-1.687,0.509-3.215,0.858-4.207,0.982C196.168,56.999,197.697,57.348,199.383,57.856z"/>
			</g>
		</g>
		<g>
			<g>
				
					<line fill="none" stroke="#010101" stroke-width="0.9618" stroke-miterlimit="1" x1="358.899" y1="56.88" x2="306.899" y2="56.88"/>
				<path fill="#010101" d="M361.171,55.894c-1.59-0.48-2.624-0.923-3.899-1.435v4.852c0.457-0.217,2.31-0.955,3.899-1.435
					c1.702-0.514,3.245-0.866,4.246-0.991C364.416,56.76,362.873,56.408,361.171,55.894z"/>
			</g>
		</g>
	</g>
</g>
</svg>
