<?xml version="1.0" encoding="utf-8"?>

<!DOCTYPE svg PUBLIC "-//W3C//DTD SVG 1.1//EN" "http://www.w3.org/Graphics/SVG/1.1/DTD/svg11.dtd">
<svg version="1.1" id="Layer_1" xmlns="http://www.w3.org/2000/svg" xmlns:xlink="http://www.w3.org/1999/xlink" x="0px" y="0px"
	 width="502px" height="272px" viewBox="0 0 502 272" enable-background="new 0 0 502 272" xml:space="preserve">

<defs>
	<style type="text/css">
	text {
	  font-family: Helvetica, Verdana, ArialUnicodeMS, san-serif
	}
	</style>
</defs>

<g>
   <desc>
	PS 3.5 Part 5: Data Structures and Encoding
   </desc>
</g>

<g>
	<rect x="1" y="1" fill="#F5EED6" width="500" height="270"/>
	<g>
		<rect x="32.5" y="49.003" fill="#CCDEF0" width="437" height="110.631"/>
		<rect x="32.5" y="33.207" fill="#4F8ABE" width="437" height="15.796"/>
		<rect x="32.5" y="159.634" fill="#B2CEE7" width="437" height="94.776"/>
		<rect x="32.5" y="17.411" fill="#FFFFFF" width="437" height="15.796"/>
		<g>
			<text transform="matrix(0.8815 0 0 1 55.0859 29.5166)" font-size="12">Offset</text>
		</g>
		<g>
			<text transform="matrix(0.8815 0 0 1 142.2227 29.5166)" font-size="12">Data</text>
		</g>
		<g>
			<text transform="matrix(0.8815 0 0 1 255.7822 29.5166)" font-size="12">Description of Data</text>
		</g>
		<g>
			<text transform="matrix(0.8815 0 0 1 423.1348 174.6504)" font-size="12">(Data)</text>
		</g>
		<g>
			<text transform="matrix(0.8815 0 0 1 423.1348 206.6514)" font-size="12">(Data)</text>
		</g>
		<g>
			<text transform="matrix(0.8815 0 0 1 423.1348 238.6504)" font-size="12">(Data)</text>
		</g>
		<g>
			<text transform="matrix(0.8815 0 0 1 416.9609 45.5166)" font-size="12">(Header)</text>
		</g>
		<g>
			<text transform="matrix(0.8815 0 0 1 206.1689 60.5981)" font-size="11">location of RLE Segment 1 (Y component)</text>
		</g>
		<g>
			<text transform="matrix(0.8815 0 0 1 206.1689 45.5981)" font-size="11">number of RLE Segments</text>
		</g>
		<g>
			<text transform="matrix(0.8815 0 0 1 206.1689 76.5981)" font-size="11">location of RLE Segment 2 (CB component)</text>
		</g>
		<g>
			<text transform="matrix(0.8815 0 0 1 206.1689 92.5981)" font-size="11">location of RLE Segment 3 (CR component)</text>
		</g>
		<g>
			<g>
				<text transform="matrix(0.8815 0 0 1 126.9746 45.7646)" font-size="11">0000 0003H</text>
			</g>
			<g>
				<text transform="matrix(0.8815 0 0 1 126.9746 61.7646)" font-size="11">0000 0040H</text>
			</g>
			<g>
				<text transform="matrix(0.8815 0 0 1 126.9746 77.7646)" font-size="11">0000 0140H</text>
			</g>
			<g>
				<text transform="matrix(0.8815 0 0 1 126.1689 93.7642)" font-size="11">0000 01C0H</text>
			</g>
			<g>
				<text transform="matrix(0.8815 0 0 1 126.9746 109.7642)" font-size="11">0000 0000H</text>
			</g>
		</g>
		<g>
			<g>
				<text transform="matrix(0.8815 0 0 1 42.7744 45.7646)" font-size="11">0000 0000H</text>
			</g>
		</g>
		<g>
			<text transform="matrix(0.8815 0 0 1 149.3535 125.7646)" font-size="11">...</text>
		</g>
		<g>
			<text transform="matrix(0.8815 0 0 1 149.3535 141.7646)" font-size="11">...</text>
		</g>
		<g>
			<text transform="matrix(0.8815 0 0 1 126.9746 157.7637)" font-size="11">0000 0000H</text>
		</g>
		<g>
			<text transform="matrix(0.8815 0 0 1 115.667 173.7637)"><tspan x="0" y="0" font-size="11">Y - RLE Segment</tspan><tspan x="31.18" y="13.201" font-size="11">Data</tspan></text>
		</g>
		<g>
			<text transform="matrix(0.8815 0 0 1 42.7744 173.7637)" font-size="11">0000 0040H</text>
		</g>
		<g>
			<text transform="matrix(0.8815 0 0 1 112.166 205.7646)"><tspan x="0" y="0" font-size="11">CB - RLE Segment</tspan><tspan x="35.151" y="13.2" font-size="11">Data</tspan></text>
		</g>
		<g>
			<text transform="matrix(0.8815 0 0 1 111.8984 237.7637)"><tspan x="0" y="0" font-size="11">CR - RLE Segment</tspan><tspan x="35.455" y="13.201" font-size="11">Data</tspan></text>
		</g>
		<g>
			<text transform="matrix(0.8815 0 0 1 42.7744 205.7646)" font-size="11">0000 0140H</text>
		</g>
		<g>
			<text transform="matrix(0.8815 0 0 1 41.9688 237.7637)" font-size="11">0000 01C0H</text>
		</g>
		<g>
			<rect x="32.5" y="17.411" fill="none" stroke="#000000" stroke-miterlimit="1" width="437" height="237"/>
			<line fill="none" stroke="#000000" stroke-miterlimit="1" x1="32.5" y1="222.818" x2="469.5" y2="222.818"/>
			<line fill="none" stroke="#000000" stroke-miterlimit="1" x1="32.5" y1="191.227" x2="469.5" y2="191.227"/>
			<line fill="none" stroke="#000000" stroke-miterlimit="1" x1="32.5" y1="159.634" x2="469.5" y2="159.634"/>
			<line fill="none" stroke="#000000" stroke-miterlimit="1" x1="32.5" y1="143.838" x2="469.5" y2="143.838"/>
			<line fill="none" stroke="#000000" stroke-miterlimit="1" x1="32.5" y1="127.984" x2="469.5" y2="127.984"/>
			<line fill="none" stroke="#000000" stroke-miterlimit="1" x1="32.5" y1="112.188" x2="469.5" y2="112.188"/>
			<line fill="none" stroke="#000000" stroke-miterlimit="1" x1="32.5" y1="96.391" x2="469.5" y2="96.391"/>
			<line fill="none" stroke="#000000" stroke-miterlimit="1" x1="32.5" y1="80.595" x2="469.5" y2="80.595"/>
			<line fill="none" stroke="#000000" stroke-miterlimit="1" x1="32.5" y1="64.799" x2="469.5" y2="64.799"/>
			<line fill="none" stroke="#000000" stroke-miterlimit="1" x1="32.5" y1="49.003" x2="469.5" y2="49.003"/>
			<line fill="none" stroke="#000000" stroke-miterlimit="1" x1="32.5" y1="33.207" x2="469.5" y2="33.207"/>
			<line fill="none" stroke="#000000" stroke-miterlimit="1" x1="403.299" y1="17.411" x2="403.299" y2="254.41"/>
			<line fill="none" stroke="#000000" stroke-miterlimit="1" x1="199.834" y1="17.411" x2="199.834" y2="254.41"/>
			<line fill="none" stroke="#000000" stroke-miterlimit="1" x1="109.351" y1="17.411" x2="109.351" y2="254.41"/>
		</g>
	</g>
</g>
</svg>
