<?xml version="1.0" encoding="utf-8"?>

<!DOCTYPE svg PUBLIC "-//W3C//DTD SVG 1.1//EN" "http://www.w3.org/Graphics/SVG/1.1/DTD/svg11.dtd">
<svg version="1.1" id="Layer_1" xmlns="http://www.w3.org/2000/svg" xmlns:xlink="http://www.w3.org/1999/xlink" x="0px" y="0px"
	 width="502px" height="227px" viewBox="0 0 502 227" enable-background="new 0 0 502 227" xml:space="preserve">
        
<defs>
	<style type="text/css">
	text {
	  font-family: Helvetica, Verdana, ArialUnicodeMS, san-serif
	}
	</style>
</defs>

<g>
   <desc>
	PS 3.5 Part 5: Data Structures and Encoding
   </desc>
</g>

<g>
	<rect x="1" y="1" fill="#F5EED6" width="500" height="225"/>
	<g>
		<rect x="122.292" y="35.163" fill="#CCDEF0" stroke="#010101" stroke-miterlimit="1" width="257.417" height="176.268"/>
		<g>
			<g>
				<text transform="matrix(0.8815 0 0 1 122.292 26.2075)" font-size="12">Example 1: Pixel and Overlay Data Cells</text>
			</g>
		</g>
		<g>
			<g>
				<text transform="matrix(0.8815 0 0 1 136.7061 171.875)"><tspan x="0" y="0" font-size="11">Bits Allocated = 16</tspan><tspan x="0" y="13.201" font-size="11">Bits Stored = 12</tspan><tspan x="0" y="26.4" font-size="11">High Bit = 11</tspan></text>
			</g>
		</g>
		<g>
			<rect x="281.707" y="57.843" fill="#FFFFFF" stroke="#010101" stroke-miterlimit="1" width="14.4" height="14.4"/>
			<rect x="267.207" y="57.843" fill="#FFFFFF" stroke="#010101" stroke-miterlimit="1" width="14.4" height="14.4"/>
			<rect x="252.707" y="57.843" fill="#FFFFFF" stroke="#010101" stroke-miterlimit="1" width="14.4" height="14.4"/>
			<rect x="238.206" y="57.843" fill="#FFFFFF" stroke="#010101" stroke-miterlimit="1" width="14.401" height="14.4"/>
			<rect x="223.706" y="57.843" fill="#FFFFFF" stroke="#010101" stroke-miterlimit="1" width="14.4" height="14.4"/>
			<rect x="209.101" y="57.843" fill="#FFFFFF" stroke="#010101" stroke-miterlimit="1" width="14.4" height="14.4"/>
			<rect x="194.706" y="57.843" fill="#FFFFFF" stroke="#010101" stroke-miterlimit="1" width="14.4" height="14.4"/>
			<rect x="180.206" y="57.843" fill="#6799C8" stroke="#010101" stroke-miterlimit="1" width="14.4" height="14.4"/>
			<rect x="165.706" y="57.843" fill="#6799C8" stroke="#010101" stroke-miterlimit="1" width="14.4" height="14.4"/>
			<rect x="151.206" y="57.843" fill="#6799C8" stroke="#010101" stroke-miterlimit="1" width="14.4" height="14.4"/>
			<rect x="136.706" y="57.843" fill="#6799C8" stroke="#010101" stroke-miterlimit="1" width="14.4" height="14.4"/>
			<rect x="339.707" y="57.843" fill="#FFFFFF" stroke="#010101" stroke-miterlimit="1" width="14.4" height="14.4"/>
			<rect x="325.207" y="57.843" fill="#FFFFFF" stroke="#010101" stroke-miterlimit="1" width="14.4" height="14.4"/>
			<rect x="310.707" y="57.843" fill="#FFFFFF" stroke="#010101" stroke-miterlimit="1" width="14.4" height="14.4"/>
			<rect x="296.207" y="57.843" fill="#FFFFFF" stroke="#010101" stroke-miterlimit="1" width="14.4" height="14.4"/>
			<g>
				<g>
					<text transform="matrix(0.8815 0 0 1 344.4541 67.8291)" font-size="10">1</text>
				</g>
			</g>
			<rect x="354.107" y="57.843" fill="#FFFFFF" stroke="#010101" stroke-miterlimit="1" width="14.4" height="14.4"/>
			<g>
				<g>
					<text transform="matrix(0.8815 0 0 1 358.8545 67.8291)" font-size="10">0</text>
				</g>
			</g>
			<g>
				<g>
					<text transform="matrix(0.8815 0 0 1 330.4844 67.8291)" font-size="10">2</text>
				</g>
			</g>
			<g>
				<g>
					<text transform="matrix(0.8815 0 0 1 315.8926 67.8291)" font-size="10">3</text>
				</g>
			</g>
			<g>
				<g>
					<text transform="matrix(0.8815 0 0 1 301.2979 67.8291)" font-size="10">4</text>
				</g>
			</g>
			<g>
				<g>
					<text transform="matrix(0.8815 0 0 1 286.707 67.8291)" font-size="10">5</text>
				</g>
			</g>
			<g>
				<g>
					<text transform="matrix(0.8815 0 0 1 246.0093 54.6753)" font-size="10">Pixel Sample 1</text>
				</g>
			</g>
			<g>
				<g>
					<text transform="matrix(0.8815 0 0 1 211.3989 67.8291)" fill="#312A35" font-size="10">10</text>
				</g>
			</g>
			<g>
				<g>
					<text transform="matrix(0.8815 0 0 1 139.0024 67.8291)" font-size="10">15</text>
				</g>
			</g>
			<g>
				<g>
					<text transform="matrix(0.8815 0 0 1 153.5044 67.8291)" font-size="10">14</text>
				</g>
			</g>
			<g>
				<g>
					<text transform="matrix(0.8815 0 0 1 168.0039 67.8291)" font-size="10">13</text>
				</g>
			</g>
			<g>
				<g>
					<text transform="matrix(0.8815 0 0 1 182.5044 67.8291)" font-size="10">12</text>
				</g>
			</g>
			<g>
				<g>
					<text transform="matrix(0.8815 0 0 1 197.0039 67.8291)" font-size="10">11</text>
				</g>
			</g>
			<g>
				<g>
					<text transform="matrix(0.8815 0 0 1 228.4556 67.8291)" font-size="10">9</text>
				</g>
			</g>
			<g>
				<g>
					<text transform="matrix(0.8815 0 0 1 242.9561 67.8291)" font-size="10">8</text>
				</g>
			</g>
			<g>
				<g>
					<text transform="matrix(0.8815 0 0 1 257.4551 67.8291)" font-size="10">7</text>
				</g>
			</g>
			<g>
				<g>
					<text transform="matrix(0.8815 0 0 1 271.9561 67.8291)" font-size="10">6</text>
				</g>
			</g>
			<g>
				<g>
					<line fill="none" stroke="#010101" stroke-miterlimit="1" x1="242.251" y1="51.248" x2="203.24" y2="51.248"/>
					<path fill="#010101" d="M200.878,52.273c1.653,0.5,2.728,0.959,4.054,1.492V48.72c-0.475,0.226-2.401,0.993-4.054,1.492
						c-1.77,0.535-3.374,0.9-4.415,1.031C197.504,51.373,199.109,51.739,200.878,52.273z"/>
				</g>
			</g>
			<g>
				<g>
					<line fill="none" stroke="#010101" stroke-miterlimit="1" x1="360.506" y1="51.248" x2="307.891" y2="51.248"/>
					<path fill="#010101" d="M362.867,50.223c-1.652-0.5-2.728-0.959-4.054-1.492v5.044c0.475-0.226,2.401-0.993,4.054-1.492
						c1.77-0.535,3.375-0.9,4.415-1.031C366.242,51.123,364.637,50.757,362.867,50.223z"/>
				</g>
			</g>
		</g>
		<g>
			<rect x="281.707" y="96.031" fill="#FFFFFF" stroke="#010101" stroke-miterlimit="1" width="14.4" height="14.4"/>
			<rect x="267.207" y="96.031" fill="#FFFFFF" stroke="#010101" stroke-miterlimit="1" width="14.4" height="14.4"/>
			<rect x="252.707" y="96.031" fill="#FFFFFF" stroke="#010101" stroke-miterlimit="1" width="14.4" height="14.4"/>
			<rect x="238.206" y="96.031" fill="#FFFFFF" stroke="#010101" stroke-miterlimit="1" width="14.401" height="14.4"/>
			<rect x="223.706" y="96.031" fill="#FFFFFF" stroke="#010101" stroke-miterlimit="1" width="14.4" height="14.4"/>
			<rect x="209.101" y="96.031" fill="#FFFFFF" stroke="#010101" stroke-miterlimit="1" width="14.4" height="14.4"/>
			<rect x="194.706" y="96.031" fill="#FFFFFF" stroke="#010101" stroke-miterlimit="1" width="14.4" height="14.4"/>
			<rect x="180.206" y="96.031" fill="#6799C8" stroke="#010101" stroke-miterlimit="1" width="14.4" height="14.4"/>
			<rect x="165.706" y="96.031" fill="#6799C8" stroke="#010101" stroke-miterlimit="1" width="14.4" height="14.4"/>
			<rect x="151.206" y="96.031" fill="#6799C8" stroke="#010101" stroke-miterlimit="1" width="14.4" height="14.4"/>
			<rect x="136.706" y="96.031" fill="#6799C8" stroke="#010101" stroke-miterlimit="1" width="14.4" height="14.4"/>
			<rect x="339.707" y="96.031" fill="#FFFFFF" stroke="#010101" stroke-miterlimit="1" width="14.4" height="14.4"/>
			<rect x="325.207" y="96.031" fill="#FFFFFF" stroke="#010101" stroke-miterlimit="1" width="14.4" height="14.4"/>
			<rect x="310.707" y="96.031" fill="#FFFFFF" stroke="#010101" stroke-miterlimit="1" width="14.4" height="14.4"/>
			<rect x="296.207" y="96.031" fill="#FFFFFF" stroke="#010101" stroke-miterlimit="1" width="14.4" height="14.4"/>
			<g>
				<g>
					<text transform="matrix(0.8815 0 0 1 344.4541 106.0176)" font-size="10">1</text>
				</g>
			</g>
			<rect x="354.107" y="96.031" fill="#FFFFFF" stroke="#010101" stroke-miterlimit="1" width="14.4" height="14.4"/>
			<g>
				<g>
					<text transform="matrix(0.8815 0 0 1 358.8545 106.0176)" font-size="10">0</text>
				</g>
			</g>
			<g>
				<g>
					<text transform="matrix(0.8815 0 0 1 330.4844 106.0176)" font-size="10">2</text>
				</g>
			</g>
			<g>
				<g>
					<text transform="matrix(0.8815 0 0 1 315.8926 106.0176)" font-size="10">3</text>
				</g>
			</g>
			<g>
				<g>
					<text transform="matrix(0.8815 0 0 1 301.2979 106.0176)" font-size="10">4</text>
				</g>
			</g>
			<g>
				<g>
					<text transform="matrix(0.8815 0 0 1 286.707 106.0176)" font-size="10">5</text>
				</g>
			</g>
			<g>
				<g>
					<text transform="matrix(0.8815 0 0 1 246.0093 92.8638)" font-size="10">Pixel Sample 2</text>
				</g>
			</g>
			<g>
				<g>
					<text transform="matrix(0.8815 0 0 1 211.3989 106.0176)" fill="#312A35" font-size="10">10</text>
				</g>
			</g>
			<g>
				<g>
					<text transform="matrix(0.8815 0 0 1 139.0024 106.0176)" font-size="10">15</text>
				</g>
			</g>
			<g>
				<g>
					<text transform="matrix(0.8815 0 0 1 153.5044 106.0176)" font-size="10">14</text>
				</g>
			</g>
			<g>
				<g>
					<text transform="matrix(0.8815 0 0 1 168.0039 106.0176)" font-size="10">13</text>
				</g>
			</g>
			<g>
				<g>
					<text transform="matrix(0.8815 0 0 1 182.5044 106.0176)" font-size="10">12</text>
				</g>
			</g>
			<g>
				<g>
					<text transform="matrix(0.8815 0 0 1 197.0039 106.0176)" font-size="10">11</text>
				</g>
			</g>
			<g>
				<g>
					<text transform="matrix(0.8815 0 0 1 228.4556 106.0176)" font-size="10">9</text>
				</g>
			</g>
			<g>
				<g>
					<text transform="matrix(0.8815 0 0 1 242.9561 106.0176)" font-size="10">8</text>
				</g>
			</g>
			<g>
				<g>
					<text transform="matrix(0.8815 0 0 1 257.4551 106.0176)" font-size="10">7</text>
				</g>
			</g>
			<g>
				<g>
					<text transform="matrix(0.8815 0 0 1 271.9561 106.0176)" font-size="10">6</text>
				</g>
			</g>
			<g>
				<g>
					<line fill="none" stroke="#010101" stroke-miterlimit="1" x1="242.251" y1="89.437" x2="203.24" y2="89.437"/>
					<path fill="#010101" d="M200.878,90.461c1.653,0.5,2.728,0.959,4.054,1.492v-5.044c-0.475,0.226-2.401,0.993-4.054,1.492
						c-1.77,0.535-3.374,0.9-4.415,1.031C197.504,89.562,199.109,89.927,200.878,90.461z"/>
				</g>
			</g>
			<g>
				<g>
					<line fill="none" stroke="#010101" stroke-miterlimit="1" x1="360.506" y1="89.437" x2="307.891" y2="89.437"/>
					<path fill="#010101" d="M362.867,88.412c-1.652-0.5-2.728-0.959-4.054-1.492v5.044c0.475-0.226,2.401-0.993,4.054-1.492
						c1.77-0.535,3.375-0.9,4.415-1.031C366.242,89.312,364.637,88.946,362.867,88.412z"/>
				</g>
			</g>
		</g>
		<g>
			<rect x="281.707" y="134.22" fill="#FFFFFF" stroke="#010101" stroke-miterlimit="1" width="14.4" height="14.4"/>
			<rect x="267.207" y="134.22" fill="#FFFFFF" stroke="#010101" stroke-miterlimit="1" width="14.4" height="14.4"/>
			<rect x="252.707" y="134.22" fill="#FFFFFF" stroke="#010101" stroke-miterlimit="1" width="14.4" height="14.4"/>
			<rect x="238.206" y="134.22" fill="#FFFFFF" stroke="#010101" stroke-miterlimit="1" width="14.401" height="14.4"/>
			<rect x="223.706" y="134.22" fill="#FFFFFF" stroke="#010101" stroke-miterlimit="1" width="14.4" height="14.4"/>
			<rect x="209.101" y="134.22" fill="#FFFFFF" stroke="#010101" stroke-miterlimit="1" width="14.4" height="14.4"/>
			<rect x="194.706" y="134.22" fill="#FFFFFF" stroke="#010101" stroke-miterlimit="1" width="14.4" height="14.4"/>
			<rect x="180.206" y="134.22" fill="#6799C8" stroke="#010101" stroke-miterlimit="1" width="14.4" height="14.4"/>
			<rect x="165.706" y="134.22" fill="#6799C8" stroke="#010101" stroke-miterlimit="1" width="14.4" height="14.4"/>
			<rect x="151.206" y="134.22" fill="#6799C8" stroke="#010101" stroke-miterlimit="1" width="14.4" height="14.4"/>
			<rect x="136.706" y="134.22" fill="#6799C8" stroke="#010101" stroke-miterlimit="1" width="14.4" height="14.4"/>
			<rect x="339.707" y="134.22" fill="#FFFFFF" stroke="#010101" stroke-miterlimit="1" width="14.4" height="14.4"/>
			<rect x="325.207" y="134.22" fill="#FFFFFF" stroke="#010101" stroke-miterlimit="1" width="14.4" height="14.4"/>
			<rect x="310.707" y="134.22" fill="#FFFFFF" stroke="#010101" stroke-miterlimit="1" width="14.4" height="14.4"/>
			<rect x="296.207" y="134.22" fill="#FFFFFF" stroke="#010101" stroke-miterlimit="1" width="14.4" height="14.4"/>
			<g>
				<g>
					<text transform="matrix(0.8815 0 0 1 344.4541 144.2061)" font-size="10">1</text>
				</g>
			</g>
			<rect x="354.107" y="134.22" fill="#FFFFFF" stroke="#010101" stroke-miterlimit="1" width="14.4" height="14.4"/>
			<g>
				<g>
					<text transform="matrix(0.8815 0 0 1 358.8545 144.2061)" font-size="10">0</text>
				</g>
			</g>
			<g>
				<g>
					<text transform="matrix(0.8815 0 0 1 330.4844 144.2061)" font-size="10">2</text>
				</g>
			</g>
			<g>
				<g>
					<text transform="matrix(0.8815 0 0 1 315.8926 144.2061)" font-size="10">3</text>
				</g>
			</g>
			<g>
				<g>
					<text transform="matrix(0.8815 0 0 1 301.2979 144.2061)" font-size="10">4</text>
				</g>
			</g>
			<g>
				<g>
					<text transform="matrix(0.8815 0 0 1 286.707 144.2061)" font-size="10">5</text>
				</g>
			</g>
			<g>
				<g>
					<text transform="matrix(0.8815 0 0 1 246.0093 131.0527)" font-size="10">Pixel Sample 3</text>
				</g>
			</g>
			<g>
				<g>
					<text transform="matrix(0.8815 0 0 1 211.3989 144.2061)" fill="#312A35" font-size="10">10</text>
				</g>
			</g>
			<g>
				<g>
					<text transform="matrix(0.8815 0 0 1 139.0024 144.2061)" font-size="10">15</text>
				</g>
			</g>
			<g>
				<g>
					<text transform="matrix(0.8815 0 0 1 153.5044 144.2061)" font-size="10">14</text>
				</g>
			</g>
			<g>
				<g>
					<text transform="matrix(0.8815 0 0 1 168.0039 144.2061)" font-size="10">13</text>
				</g>
			</g>
			<g>
				<g>
					<text transform="matrix(0.8815 0 0 1 182.5044 144.2061)" font-size="10">12</text>
				</g>
			</g>
			<g>
				<g>
					<text transform="matrix(0.8815 0 0 1 197.0039 144.2061)" font-size="10">11</text>
				</g>
			</g>
			<g>
				<g>
					<text transform="matrix(0.8815 0 0 1 228.4556 144.2061)" font-size="10">9</text>
				</g>
			</g>
			<g>
				<g>
					<text transform="matrix(0.8815 0 0 1 242.9561 144.2061)" font-size="10">8</text>
				</g>
			</g>
			<g>
				<g>
					<text transform="matrix(0.8815 0 0 1 257.4551 144.2061)" font-size="10">7</text>
				</g>
			</g>
			<g>
				<g>
					<text transform="matrix(0.8815 0 0 1 271.9561 144.2061)" font-size="10">6</text>
				</g>
			</g>
			<g>
				<g>
					<line fill="none" stroke="#010101" stroke-miterlimit="1" x1="242.251" y1="127.624" x2="203.24" y2="127.624"/>
					<path fill="#010101" d="M200.878,128.648c1.653,0.5,2.728,0.96,4.054,1.492v-5.045c-0.475,0.227-2.401,0.993-4.054,1.492
						c-1.77,0.535-3.374,0.9-4.415,1.031C197.504,127.749,199.109,128.115,200.878,128.648z"/>
				</g>
			</g>
			<g>
				<g>
					<line fill="none" stroke="#010101" stroke-miterlimit="1" x1="360.506" y1="127.624" x2="307.891" y2="127.624"/>
					<path fill="#010101" d="M362.867,126.6c-1.652-0.5-2.728-0.96-4.054-1.492v5.045c0.475-0.227,2.401-0.993,4.054-1.492
						c1.77-0.535,3.375-0.9,4.415-1.031C366.242,127.499,364.637,127.133,362.867,126.6z"/>
				</g>
			</g>
		</g>
	</g>
</g>
</svg>
