<?xml version="1.0" encoding="utf-8"?>

<!DOCTYPE svg PUBLIC "-//W3C//DTD SVG 1.1//EN" "http://www.w3.org/Graphics/SVG/1.1/DTD/svg11.dtd">
<svg version="1.1" id="Layer_1" xmlns="http://www.w3.org/2000/svg" xmlns:xlink="http://www.w3.org/1999/xlink" x="0px" y="0px"
	 width="502px" height="248px" viewBox="0 0 502 248" enable-background="new 0 0 502 248" xml:space="preserve">
        
<defs>
	<style type="text/css">
	text {
	  font-family: Helvetica, Verdana, ArialUnicodeMS, san-serif
	}
	</style>
</defs>

<g>
   <desc>
	PS 3.5 Part 5: Data Structures and Encoding
   </desc>
</g>

<g>
	<rect x="1" y="1" fill="#F5EED6" width="500" height="246"/>
	<g>
		
			<rect x="65.731" y="36.411" fill="#CCDEF0" stroke="#010101" stroke-width="1.0187" stroke-miterlimit="1" width="370" height="194.793"/>
		<g>
			<text transform="matrix(1 0 0 1 65.7314 27.4551)" font-size="12">8 Bit Pixel Data Byte Stream (VR = OB; 8 bits allocated, high bit of 7)</text>
		</g>
		<g>
			<text transform="matrix(1 0 0 1 203.9248 205.8008)"><tspan x="0" y="0" font-size="8">MSb = Most Significant Bit</tspan><tspan x="0" y="9.6" font-size="8">LSb = Least Significant Bit</tspan></text>
		</g>
		<g>
			<rect x="207.538" y="161.966" fill="#FFFFFF" width="104.781" height="13.085"/>
			<rect x="207.347" y="149.39" fill="#939598" width="104.973" height="13.084"/>
			<rect x="207.347" y="175.557" fill="#FFFFFF" width="104.973" height="13.084"/>
			<rect x="207.538" y="96.143" fill="#E6E7E8" width="104.975" height="13.083"/>
			<rect x="207.538" y="83.06" fill="#FFFFFF" width="104.781" height="13.083"/>
			<rect x="207.538" y="122.309" fill="#BCBEC0" width="104.975" height="13.084"/>
			<rect x="207.538" y="109.226" fill="#D1D3D4" width="104.781" height="13.083"/>
			<rect x="207.538" y="135.394" fill="#A7A9AC" width="104.781" height="13.084"/>
			<g>
				<text transform="matrix(1 0 0 1 246.2227 92.397)" font-size="10">Pixel 1</text>
			</g>
			<g>
				<text transform="matrix(1 0 0 1 210.2842 91.8374)" font-size="8">MSb</text>
			</g>
			<g>
				<text transform="matrix(1 0 0 1 295.6465 91.8374)" font-size="8">LSb</text>
			</g>
			<g>
				<text transform="matrix(1 0 0 1 246.2227 105.48)" font-size="10">Pixel 2</text>
			</g>
			<g>
				<text transform="matrix(1 0 0 1 210.2842 104.9209)" font-size="8">MSb</text>
			</g>
			<g>
				<text transform="matrix(1 0 0 1 295.6465 104.9209)" font-size="8">LSb</text>
			</g>
			<g>
				<text transform="matrix(1 0 0 1 246.2227 118.5635)" font-size="10">Pixel 3</text>
			</g>
			<g>
				<text transform="matrix(1 0 0 1 210.2842 118.0039)" font-size="8">MSb</text>
			</g>
			<g>
				<text transform="matrix(1 0 0 1 295.6465 118.0039)" font-size="8">LSb</text>
			</g>
			<g>
				<text transform="matrix(1 0 0 1 246.2227 131.6465)" font-size="10">Pixel 4</text>
			</g>
			<g>
				<text transform="matrix(1 0 0 1 210.2842 131.0879)" font-size="8">MSb</text>
			</g>
			<g>
				<text transform="matrix(1 0 0 1 295.6465 131.0879)" font-size="8">LSb</text>
			</g>
			<g>
				<text transform="matrix(1 0 0 1 246.2227 144.7305)" font-size="10">Pixel 5</text>
			</g>
			<g>
				<text transform="matrix(1 0 0 1 210.2842 144.1719)" font-size="8">MSb</text>
			</g>
			<g>
				<text transform="matrix(1 0 0 1 295.6465 144.1719)" font-size="8">LSb</text>
			</g>
			<g>
				<text transform="matrix(1 0 0 1 246.2227 158.7266)" font-size="10">Pixel 6</text>
			</g>
			<g>
				<text transform="matrix(1 0 0 1 210.2842 158.168)" font-size="8">MSb</text>
			</g>
			<g>
				<text transform="matrix(1 0 0 1 295.6465 158.168)" font-size="8">LSb</text>
			</g>
			<g>
				<text transform="matrix(1 0 0 1 258.7695 171.3027)" font-size="10">...</text>
			</g>
			<g>
				<text transform="matrix(1 0 0 1 258.7695 184.8926)" font-size="10">...</text>
			</g>
			<g>
				<text transform="matrix(1 0 0 1 177.9717 92.1167)" fill="#ED1C24" font-size="9">byte 0</text>
			</g>
			<g>
				<text transform="matrix(1 0 0 1 177.9717 118.2832)" fill="#ED1C24" font-size="9">byte 2</text>
			</g>
			<g>
				<text transform="matrix(1 0 0 1 177.3379 105.2002)" fill="#ED1C24" font-size="9">byte 1</text>
			</g>
			<g>
				<text transform="matrix(1 0 0 1 177.9717 144.4512)" fill="#ED1C24" font-size="9">byte 4</text>
			</g>
			<g>
				<text transform="matrix(1 0 0 1 177.3379 131.3672)" fill="#ED1C24" font-size="9">byte 3</text>
			</g>
			<g>
				<text transform="matrix(1 0 0 1 177.3379 158.4473)" fill="#ED1C24" font-size="9">byte 5</text>
			</g>
			
				<rect x="207.538" y="83.06" fill="none" stroke="#010101" stroke-width="1.002" stroke-miterlimit="1" width="104.781" height="105.211"/>
			
				<line fill="none" stroke="#010101" stroke-width="1.002" stroke-miterlimit="1" x1="207.538" y1="175.119" x2="312.319" y2="175.119"/>
			
				<line fill="none" stroke="#010101" stroke-width="1.002" stroke-miterlimit="1" x1="207.538" y1="161.968" x2="312.319" y2="161.968"/>
			
				<line fill="none" stroke="#010101" stroke-width="1.002" stroke-miterlimit="1" x1="207.538" y1="148.817" x2="312.319" y2="148.817"/>
			
				<line fill="none" stroke="#010101" stroke-width="1.002" stroke-miterlimit="1" x1="207.538" y1="135.666" x2="312.319" y2="135.666"/>
			
				<line fill="none" stroke="#010101" stroke-width="1.002" stroke-miterlimit="1" x1="207.538" y1="122.513" x2="312.319" y2="122.513"/>
			
				<line fill="none" stroke="#010101" stroke-width="1.002" stroke-miterlimit="1" x1="207.538" y1="109.362" x2="312.319" y2="109.362"/>
			
				<line fill="none" stroke="#010101" stroke-width="1.002" stroke-miterlimit="1" x1="207.538" y1="96.21" x2="312.319" y2="96.21"/>
			<g>
				<text transform="matrix(1 0 0 1 195.7275 57.4062)" font-size="10">Little Endian Transfer Syntax</text>
			</g>
			<g>
				<text transform="matrix(1 0 0 1 290.3623 78.6709)" font-size="9">1</text>
			</g>
			<g>
				<text transform="matrix(1 0 0 1 303.3936 78.6709)" font-size="9">0</text>
			</g>
			<g>
				<text transform="matrix(1 0 0 1 277.7236 78.6709)" font-size="9">2</text>
			</g>
			<g>
				<text transform="matrix(1 0 0 1 264.5186 78.6709)" font-size="9">3</text>
			</g>
			<g>
				<text transform="matrix(1 0 0 1 251.3135 78.6709)" font-size="9">4</text>
			</g>
			<g>
				<text transform="matrix(1 0 0 1 238.1104 78.6709)" font-size="9">5</text>
			</g>
			<g>
				<text transform="matrix(1 0 0 1 211.6436 78.6709)" font-size="9">7</text>
			</g>
			<g>
				<text transform="matrix(1 0 0 1 224.7627 78.6709)" font-size="9">6</text>
			</g>
		</g>
	</g>
</g>
</svg>
