<?xml version="1.0" encoding="utf-8"?>

<!DOCTYPE svg PUBLIC "-//W3C//DTD SVG 1.1//EN" "http://www.w3.org/Graphics/SVG/1.1/DTD/svg11.dtd">
<svg version="1.1" id="Layer_1" xmlns="http://www.w3.org/2000/svg" xmlns:xlink="http://www.w3.org/1999/xlink" x="0px" y="0px"
	 width="502px" height="547px" viewBox="0 0 502 547" enable-background="new 0 0 502 547" xml:space="preserve">

<defs>
	<style type="text/css">
	text {
	  font-family: Helvetica, Verdana, ArialUnicodeMS, san-serif
	}
	</style>
</defs>

<g>
   <desc>
	PS3.5 Part 5: Data Structures and Encoding
   </desc>
</g>

<g>
	<rect x="1" y="1" fill="#F5EED6" width="500" height="240"/>
	<g>
		<g>
			<rect x="72.25" y="30.957" fill="#CCDEF0" stroke="#010101" stroke-miterlimit="1" width="358" height="194"/>
			<g>
				<text transform="matrix(0.8815 0 0 1 199.9458 201.9824)"><tspan x="0" y="0" font-size="10">MSb = Most Significant Bit</tspan><tspan x="0" y="12" font-size="10">LSb = Least Significant Bit</tspan></text>
			</g>
			<g>
				<text transform="matrix(0.8815 0 0 1 71.8364 23.9082)" font-size="10">Example 1: CT Pixel Data Value Byte Stream</text>
			</g>
			<rect x="306.509" y="151.829" fill="#FFFFFF" width="104.974" height="13.03"/>
			<rect x="306.509" y="164.859" fill="#FFFFFF" width="104.974" height="13.03"/>
			<rect x="306.701" y="72.739" fill="#FFFFFF" width="104.962" height="13.03"/>
			<rect x="306.701" y="98.799" fill="#FFFFFF" width="104.974" height="13.03"/>
			<rect x="306.701" y="85.769" fill="#86B2D8" width="52.391" height="13.03"/>
			<rect x="359.092" y="85.769" fill="#FFFFFF" width="52.391" height="13.03"/>
			<rect x="306.701" y="124.859" fill="#FFFFFF" width="104.974" height="13.03"/>
			<rect x="306.701" y="111.829" fill="#86B2D8" width="52.391" height="13.03"/>
			<rect x="359.092" y="111.829" fill="#FFFFFF" width="52.391" height="13.03"/>
			<rect x="306.701" y="137.889" fill="#86B2D8" width="52.391" height="13.03"/>
			<rect x="359.092" y="137.889" fill="#FFFFFF" width="52.391" height="13.03"/>
			<g>
				<text transform="matrix(0.8815 0 0 1 317.1562 81.7466)" font-size="10">Pixel 1</text>
			</g>
			<g>
				<text transform="matrix(0.8815 0 0 1 317.1562 108.2891)" font-size="10">Pixel 2</text>
			</g>
			<g>
				<text transform="matrix(0.8815 0 0 1 317.1562 134.3491)" font-size="10">Pixel 3</text>
			</g>
			<g>
				<text transform="matrix(0.8815 0 0 1 362.6914 95.0176)" font-size="10">MSb</text>
			</g>
			<g>
				<text transform="matrix(0.8815 0 0 1 362.6914 121.0776)" font-size="10">MSb</text>
			</g>
			<g>
				<text transform="matrix(0.8815 0 0 1 362.6914 147.1377)" font-size="10">MSb</text>
			</g>
			<g>
				<text transform="matrix(0.8815 0 0 1 390.543 81.7466)" font-size="10">LSb</text>
			</g>
			<g>
				<text transform="matrix(0.8815 0 0 1 390.543 108.2891)" font-size="10">LSb</text>
			</g>
			<g>
				<text transform="matrix(0.8815 0 0 1 390.543 134.3491)" font-size="10">LSb</text>
			</g>
			<g>
				<text transform="matrix(0.8815 0 0 1 358.4199 160.8062)" font-size="10">...</text>
			</g>
			<g>
				<text transform="matrix(0.8815 0 0 1 358.4199 174.0771)" font-size="10">...</text>
			</g>
			<g>
				<text transform="matrix(0.8815 0 0 1 302.498 47.1929)" font-size="10">Little Endian Transfer Syntax</text>
			</g>
			<g>
				<text transform="matrix(0.8815 0 0 1 389.5791 68.3716)" font-size="10">1</text>
			</g>
			<g>
				<text transform="matrix(0.8815 0 0 1 402.6094 68.3716)" font-size="10">0</text>
			</g>
			<g>
				<text transform="matrix(0.8815 0 0 1 376.9395 68.3716)" font-size="10">2</text>
			</g>
			<g>
				<text transform="matrix(0.8815 0 0 1 363.7354 68.3716)" font-size="10">3</text>
			</g>
			<g>
				<text transform="matrix(0.8815 0 0 1 350.5293 68.3716)" font-size="10">4</text>
			</g>
			<g>
				<text transform="matrix(0.8815 0 0 1 337.3271 68.3716)" font-size="10">5</text>
			</g>
			<g>
				<text transform="matrix(0.8815 0 0 1 310.8594 68.3716)" font-size="10">7</text>
			</g>
			<g>
				<text transform="matrix(0.8815 0 0 1 323.9795 68.3716)" font-size="10">6</text>
			</g>
			<g>
				<text transform="matrix(0.8815 0 0 1 278.5801 81.7466)" fill="#ED1C24" font-size="9">byte 0</text>
			</g>
			<g>
				<text transform="matrix(0.8815 0 0 1 278.5801 108.2891)" fill="#ED1C24" font-size="9">byte 2</text>
			</g>
			<g>
				<text transform="matrix(0.8815 0 0 1 277.9473 95.0176)" fill="#ED1C24" font-size="9">byte 1</text>
			</g>
			<g>
				<text transform="matrix(0.8815 0 0 1 278.5801 134.3491)" fill="#ED1C24" font-size="9">byte 4</text>
			</g>
			<g>
				<text transform="matrix(0.8815 0 0 1 277.9473 121.0776)" fill="#ED1C24" font-size="9">byte 3</text>
			</g>
			<g>
				<text transform="matrix(0.8815 0 0 1 277.9473 147.1377)" fill="#ED1C24" font-size="9">byte 5</text>
			</g>
			<rect x="306.701" y="72.739" fill="none" stroke="#010101" stroke-miterlimit="1" width="104.781" height="104.781"/>
			<line fill="none" stroke="#010101" stroke-miterlimit="1" x1="306.701" y1="164.422" x2="411.482" y2="164.422"/>
			<line fill="none" stroke="#010101" stroke-miterlimit="1" x1="306.701" y1="151.325" x2="411.482" y2="151.325"/>
			<line fill="none" stroke="#010101" stroke-miterlimit="1" x1="306.701" y1="138.227" x2="411.482" y2="138.227"/>
			<line fill="none" stroke="#010101" stroke-miterlimit="1" x1="306.701" y1="125.129" x2="411.482" y2="125.129"/>
			<line fill="none" stroke="#010101" stroke-miterlimit="1" x1="306.701" y1="112.032" x2="411.482" y2="112.032"/>
			<line fill="none" stroke="#010101" stroke-miterlimit="1" x1="306.701" y1="98.934" x2="411.482" y2="98.934"/>
			<line fill="none" stroke="#010101" stroke-miterlimit="1" x1="306.701" y1="85.836" x2="411.482" y2="85.836"/>
		</g>
	</g>
</g>
</svg>
