<?xml version="1.0" encoding="utf-8"?>

<!DOCTYPE svg PUBLIC "-//W3C//DTD SVG 1.1//EN" "http://www.w3.org/Graphics/SVG/1.1/DTD/svg11.dtd">
<svg version="1.1" id="Layer_1" xmlns="http://www.w3.org/2000/svg" xmlns:xlink="http://www.w3.org/1999/xlink" x="0px" y="0px"
	 width="502px" height="252px" viewBox="0 0 502 252" enable-background="new 0 0 502 252" xml:space="preserve">
        
<defs>
	<style type="text/css">
	text {
	  font-family: Helvetica, Verdana, ArialUnicodeMS, san-serif
	}
	</style>
</defs>

<g>
   <desc>
	PS 3.5 Part 5: Data Structures and Encoding
   </desc>
</g>

<g>
	<rect x="1" y="1" fill="#F5EED6" width="500" height="250"/>
	<g>
		
			<rect x="66" y="38.096" fill="#CCDEF0" stroke="#010101" stroke-width="1.0187" stroke-miterlimit="1" width="370" height="194.788"/>
		<g>
			<text transform="matrix(1 0 0 1 66 29.1392)" font-size="12">Double Pixel Data Byte Stream (VR = OD; 64 bits allocated)</text>
		</g>
		<g>
			<g>
				<text transform="matrix(1 0 0 1 204.1934 206.6602)"><tspan x="0" y="0" font-size="8">MSb = Most Significant Bit</tspan><tspan x="0" y="9.6" font-size="8">LSb = Least Significant Bit</tspan></text>
			</g>
			<g>
				<g>
					<rect x="207.805" y="163.001" fill="#FFFFFF" width="104.781" height="13.029"/>
					<rect x="207.709" y="150.476" fill="#C0E2CA" width="104.973" height="13.029"/>
					<rect x="207.709" y="176.534" fill="#FFFFFF" width="104.973" height="13.031"/>
					<rect x="207.707" y="97.448" fill="#DCDDDE" width="104.975" height="13.03"/>
					<rect x="207.805" y="84.418" fill="#F1F2F2" width="104.781" height="13.03"/>
					<rect x="207.707" y="123.509" fill="#B1B3B6" width="104.975" height="13.025"/>
					<rect x="207.805" y="110.479" fill="#C7C8CA" width="104.781" height="13.031"/>
					<rect x="207.805" y="136.534" fill="#D8EDDD" width="104.781" height="13.031"/>
					<g>
						<text transform="matrix(1 0 0 1 241.0171 93.7163)" font-size="10">Pixel 1.1</text>
					</g>
					<g>
						<text transform="matrix(1 0 0 1 211.7759 93.1592)" font-size="8">MSb</text>
					</g>
					<g>
						<text transform="matrix(1 0 0 1 294.6914 93.1592)" font-size="8">LSb</text>
					</g>
					<g>
						<text transform="matrix(1 0 0 1 241.0171 106.7466)" font-size="10">Pixel 1.2</text>
					</g>
					<g>
						<text transform="matrix(1 0 0 1 211.7759 106.1895)" font-size="8">MSb</text>
					</g>
					<g>
						<text transform="matrix(1 0 0 1 294.6914 106.1895)" font-size="8">LSb</text>
					</g>
					<g>
						<text transform="matrix(1 0 0 1 241.0171 119.7764)" font-size="10">Pixel 1.3</text>
					</g>
					<g>
						<text transform="matrix(1 0 0 1 211.7759 119.2197)" font-size="8">MSb</text>
					</g>
					<g>
						<text transform="matrix(1 0 0 1 294.6914 119.2197)" font-size="8">LSb</text>
					</g>
					<g>
						<text transform="matrix(1 0 0 1 241.0171 132.8066)" font-size="10">Pixel 1.4</text>
					</g>
					<g>
						<text transform="matrix(1 0 0 1 211.7759 132.249)" font-size="8">MSb</text>
					</g>
					<g>
						<text transform="matrix(1 0 0 1 294.6914 132.249)" font-size="8">LSb</text>
					</g>
					<g>
						<text transform="matrix(1 0 0 1 241.0171 145.8359)" font-size="10">Pixel 2.1</text>
					</g>
					<g>
						<text transform="matrix(1 0 0 1 211.7759 145.2793)" font-size="8">MSb</text>
					</g>
					<g>
						<text transform="matrix(1 0 0 1 294.6914 145.2793)" font-size="8">LSb</text>
					</g>
					<g>
						<text transform="matrix(1 0 0 1 241.0171 159.7773)" font-size="10">Pixel 2.2</text>
					</g>
					<g>
						<text transform="matrix(1 0 0 1 211.7759 159.2188)" font-size="8">MSb</text>
					</g>
					<g>
						<text transform="matrix(1 0 0 1 294.6914 159.2188)" font-size="8">LSb</text>
					</g>
					<g>
						<text transform="matrix(1 0 0 1 256.0273 172.3027)" font-size="10">...</text>
					</g>
					<g>
						<text transform="matrix(1 0 0 1 256.0273 185.8359)" font-size="10">...</text>
					</g>
					<g>
						<text transform="matrix(1 0 0 1 178.2393 93.4375)" fill="#ED1C24" font-size="9">byte 0</text>
					</g>
					<g>
						<text transform="matrix(1 0 0 1 178.2393 119.498)" fill="#ED1C24" font-size="9">byte 2</text>
					</g>
					<g>
						<text transform="matrix(1 0 0 1 177.606 106.4683)" fill="#ED1C24" font-size="9">byte 1</text>
					</g>
					<g>
						<text transform="matrix(1 0 0 1 178.2393 145.5586)" fill="#ED1C24" font-size="9">byte 4</text>
					</g>
					<g>
						<text transform="matrix(1 0 0 1 177.606 132.5273)" fill="#ED1C24" font-size="9">byte 3</text>
					</g>
					<g>
						<text transform="matrix(1 0 0 1 177.606 159.498)" fill="#ED1C24" font-size="9">byte 5</text>
					</g>
					<line fill="none" stroke="#010101" stroke-miterlimit="1" x1="207.805" y1="176.099" x2="312.586" y2="176.099"/>
					<line fill="none" stroke="#010101" stroke-miterlimit="1" x1="207.805" y1="163.001" x2="312.586" y2="163.001"/>
					<line fill="none" stroke="#010101" stroke-miterlimit="1" x1="207.805" y1="149.903" x2="312.586" y2="149.903"/>
					<line fill="none" stroke="#010101" stroke-miterlimit="1" x1="207.805" y1="136.806" x2="312.586" y2="136.806"/>
					<line fill="none" stroke="#010101" stroke-miterlimit="1" x1="207.805" y1="123.71" x2="312.586" y2="123.71"/>
					<line fill="none" stroke="#010101" stroke-miterlimit="1" x1="207.805" y1="110.613" x2="312.586" y2="110.613"/>
					<line fill="none" stroke="#010101" stroke-miterlimit="1" x1="207.805" y1="97.516" x2="312.586" y2="97.516"/>
					<g>
						<text transform="matrix(1 0 0 1 195.9956 58.8682)" font-size="10">Little Endian Transfer Syntax</text>
					</g>
					<g>
						<text transform="matrix(1 0 0 1 290.3535 80.0469)" font-size="10">1</text>
					</g>
					<g>
						<text transform="matrix(1 0 0 1 303.3828 80.0469)" font-size="10">0</text>
					</g>
					<g>
						<text transform="matrix(1 0 0 1 277.7129 80.0469)" font-size="10">2</text>
					</g>
					<g>
						<text transform="matrix(1 0 0 1 264.5098 80.0469)" font-size="10">3</text>
					</g>
					<g>
						<text transform="matrix(1 0 0 1 251.3027 80.0469)" font-size="10">4</text>
					</g>
					<g>
						<text transform="matrix(1 0 0 1 238.1016 80.0469)" font-size="10">5</text>
					</g>
					<g>
						<text transform="matrix(1 0 0 1 211.6328 80.0469)" font-size="10">7</text>
					</g>
					<g>
						<text transform="matrix(1 0 0 1 224.7539 80.0469)" font-size="10">6</text>
					</g>
					<rect x="207.805" y="84.418" fill="none" stroke="#010101" stroke-miterlimit="1" width="104.781" height="104.778"/>
				</g>
			</g>
		</g>
	</g>
</g>
</svg>
