<?xml version="1.0" encoding="utf-8"?>

<!DOCTYPE svg PUBLIC "-//W3C//DTD SVG 1.1//EN" "http://www.w3.org/Graphics/SVG/1.1/DTD/svg11.dtd">
<svg version="1.1" id="Layer_1" xmlns="http://www.w3.org/2000/svg" xmlns:xlink="http://www.w3.org/1999/xlink" x="0px" y="0px"
	 width="502px" height="262px" viewBox="0 0 502 262" enable-background="new 0 0 502 262" xml:space="preserve">

<defs>
	<style type="text/css">
	text {
	  font-family: Helvetica, Verdana, ArialUnicodeMS, san-serif
	}
	</style>
</defs>

<g>
   <desc>
	PS3.5 Part 5: Data Structures and Encoding
   </desc>
</g>

<g>
	<rect x="1" y="1" fill="#F5EED6" width="500" height="135"/>
	<g>
		<rect x="64.292" y="29.661" fill="#CCDEF0" stroke="#010101" stroke-miterlimit="1" width="257.417" height="86.75"/>
		<rect x="223.707" y="52.341" fill="#FFFFFF" stroke="#010101" stroke-miterlimit="1" width="14.4" height="14.4"/>
		<rect x="209.207" y="52.341" fill="#FFFFFF" stroke="#010101" stroke-miterlimit="1" width="14.4" height="14.4"/>
		<rect x="194.707" y="52.341" fill="#FFFFFF" stroke="#010101" stroke-miterlimit="1" width="14.4" height="14.4"/>
		<rect x="180.206" y="52.341" fill="#FFFFFF" stroke="#010101" stroke-miterlimit="1" width="14.401" height="14.4"/>
		<rect x="165.706" y="52.341" fill="#FFFFFF" stroke="#010101" stroke-miterlimit="1" width="14.4" height="14.4"/>
		<rect x="151.101" y="52.341" fill="#FFFFFF" stroke="#010101" stroke-miterlimit="1" width="14.4" height="14.4"/>
		<rect x="136.706" y="52.341" fill="#FFFFFF" stroke="#010101" stroke-miterlimit="1" width="14.4" height="14.4"/>
		<rect x="122.206" y="52.341" fill="#6799C8" stroke="#010101" stroke-miterlimit="1" width="14.4" height="14.4"/>
		<rect x="107.706" y="52.341" fill="#6799C8" stroke="#010101" stroke-miterlimit="1" width="14.4" height="14.4"/>
		<rect x="93.206" y="52.341" fill="#6799C8" stroke="#010101" stroke-miterlimit="1" width="14.4" height="14.4"/>
		<rect x="78.706" y="52.341" fill="#6799C8" stroke="#010101" stroke-miterlimit="1" width="14.4" height="14.4"/>
		<rect x="281.707" y="52.341" fill="#FFFFFF" stroke="#010101" stroke-miterlimit="1" width="14.4" height="14.4"/>
		<rect x="267.207" y="52.341" fill="#FFFFFF" stroke="#010101" stroke-miterlimit="1" width="14.4" height="14.4"/>
		<rect x="252.707" y="52.341" fill="#FFFFFF" stroke="#010101" stroke-miterlimit="1" width="14.4" height="14.4"/>
		<rect x="238.207" y="52.341" fill="#FFFFFF" stroke="#010101" stroke-miterlimit="1" width="14.4" height="14.4"/>
		<g>
			<g>
				<text transform="matrix(0.8815 0 0 1 286.4541 62.3306)" font-size="10">1</text>
			</g>
		</g>
		<rect x="296.107" y="52.341" fill="#FFFFFF" stroke="#010101" stroke-miterlimit="1" width="14.4" height="14.4"/>
		<g>
			<g>
				<text transform="matrix(0.8815 0 0 1 300.8545 62.3306)" font-size="10">0</text>
			</g>
		</g>
		<g>
			<g>
				<text transform="matrix(0.8815 0 0 1 272.4844 62.3306)" font-size="10">2</text>
			</g>
		</g>
		<g>
			<g>
				<text transform="matrix(0.8815 0 0 1 257.8926 62.3306)" font-size="10">3</text>
			</g>
		</g>
		<g>
			<g>
				<text transform="matrix(0.8815 0 0 1 243.2979 62.3306)" font-size="10">4</text>
			</g>
		</g>
		<g>
			<g>
				<text transform="matrix(0.8815 0 0 1 228.707 62.3306)" font-size="10">5</text>
			</g>
		</g>
		<g>
			<g>
				<text transform="matrix(0.8815 0 0 1 64.2925 26.3413)" font-size="11">Example 1: CT Pixel Cell</text>
			</g>
		</g>
		<g>
			<g>
				<text transform="matrix(0.8815 0 0 1 191.6851 49.1768)" font-size="10">Pixel Sample</text>
			</g>
		</g>
		<g>
			<g>
				<text transform="matrix(0.8815 0 0 1 78.707 82.7769)"><tspan x="0" y="0" font-size="11">Bits Allocated = 16</tspan><tspan x="0" y="13.2" font-size="11">Bits Stored = 12</tspan><tspan x="0" y="26.4" font-size="11">High Bit = 11</tspan></text>
			</g>
		</g>
		<g>
			<g>
				<text transform="matrix(0.8815 0 0 1 153.3989 62.3306)" fill="#312A35" font-size="10">10</text>
			</g>
		</g>
		<g>
			<g>
				<text transform="matrix(0.8815 0 0 1 81.0024 62.3306)" font-size="10">15</text>
			</g>
		</g>
		<g>
			<g>
				<text transform="matrix(0.8815 0 0 1 95.5044 62.3306)" font-size="10">14</text>
			</g>
		</g>
		<g>
			<g>
				<text transform="matrix(0.8815 0 0 1 110.0039 62.3306)" font-size="10">13</text>
			</g>
		</g>
		<g>
			<g>
				<text transform="matrix(0.8815 0 0 1 124.5044 62.3306)" font-size="10">12</text>
			</g>
		</g>
		<g>
			<g>
				<text transform="matrix(0.8815 0 0 1 139.0039 62.3306)" font-size="10">11</text>
			</g>
		</g>
		<g>
			<g>
				<text transform="matrix(0.8815 0 0 1 170.4556 62.3306)" font-size="10">9</text>
			</g>
		</g>
		<g>
			<g>
				<text transform="matrix(0.8815 0 0 1 184.9561 62.3306)" font-size="10">8</text>
			</g>
		</g>
		<g>
			<g>
				<text transform="matrix(0.8815 0 0 1 199.4556 62.3306)" font-size="10">7</text>
			</g>
		</g>
		<g>
			<g>
				<text transform="matrix(0.8815 0 0 1 213.9561 62.3306)" font-size="10">6</text>
			</g>
		</g>
		<g>
			<g>
				<line fill="none" stroke="#010101" stroke-miterlimit="1" x1="189.291" y1="45.746" x2="145.24" y2="45.746"/>
				<path fill="#010101" d="M142.878,46.771c1.653,0.5,2.728,0.959,4.054,1.492v-5.044c-0.475,0.226-2.401,0.993-4.054,1.492
					c-1.77,0.535-3.374,0.9-4.415,1.031C139.504,45.871,141.109,46.237,142.878,46.771z"/>
			</g>
		</g>
		<g>
			<g>
				<line fill="none" stroke="#010101" stroke-miterlimit="1" x1="302.506" y1="45.746" x2="246.291" y2="45.746"/>
				<path fill="#010101" d="M304.867,44.721c-1.652-0.5-2.728-0.959-4.054-1.492v5.044c0.475-0.226,2.401-0.993,4.054-1.492
					c1.77-0.535,3.375-0.9,4.415-1.031C308.242,45.621,306.637,45.255,304.867,44.721z"/>
			</g>
		</g>

	</g>
</g>
</svg>
