<?xml version="1.0" encoding="utf-8"?>

<!DOCTYPE svg PUBLIC "-//W3C//DTD SVG 1.1//EN" "http://www.w3.org/Graphics/SVG/1.1/DTD/svg11.dtd">
<svg version="1.1" id="Layer_1" xmlns="http://www.w3.org/2000/svg" xmlns:xlink="http://www.w3.org/1999/xlink" x="0px" y="0px"
	 width="502px" height="247px" viewBox="0 0 502 247" enable-background="new 0 0 502 247" xml:space="preserve">
        
<defs>
	<style type="text/css">
	text {
	  font-family: Helvetica, Verdana, ArialUnicodeMS, san-serif
	}
	</style>
</defs>

<g>
   <desc>
	PS 3.5 Part 5: Data Structures and Encoding
   </desc>
</g>

<g>
	<rect x="1" y="1" fill="#F5EED6" width="500" height="245"/>
	<g>
		
			<rect x="66" y="36.941" fill="#CCDEF0" stroke="#010101" stroke-width="1.0187" stroke-miterlimit="1" width="370" height="194.792"/>
		<g>
			<text transform="matrix(1 0 0 1 66 25.3413)" font-size="12">Example: CT Pixel Data Value Byte Stream (VR = OW)</text>
		</g>
		<g>
			<text transform="matrix(1 0 0 1 204.1929 205.3213)"><tspan x="0" y="0" font-size="8">MSb = Most Significant Bit</tspan><tspan x="0" y="9.601" font-size="8">LSb = Least Significant Bit</tspan></text>
		</g>
		<g>
			<rect x="207.616" y="162.539" fill="#FFFFFF" width="104.974" height="13.031"/>
			<rect x="207.616" y="175.57" fill="#FFFFFF" width="104.974" height="13.029"/>
			<rect x="207.809" y="83.449" fill="#E6E7E8" width="104.962" height="13.029"/>
			<rect x="207.809" y="109.509" fill="#D8EDDD" width="104.974" height="13.03"/>
			<rect x="207.809" y="96.479" fill="#86B2D8" width="52.391" height="13.03"/>
			<rect x="260.199" y="96.479" fill="#E6E7E8" width="52.391" height="13.03"/>
			<rect x="207.809" y="135.57" fill="#FDDDCE" width="104.974" height="13.029"/>
			<rect x="207.809" y="122.539" fill="#86B2D8" width="52.391" height="13.031"/>
			<rect x="260.199" y="122.539" fill="#D8EDDD" width="52.391" height="13.031"/>
			<rect x="207.809" y="148.6" fill="#86B2D8" width="52.391" height="13.029"/>
			<rect x="260.199" y="148.6" fill="#FDDDCE" width="52.391" height="13.029"/>
			<g>
				<text transform="matrix(1 0 0 1 216.4858 92.4536)" font-size="10">Pixel 1</text>
			</g>
			<g>
				<text transform="matrix(1 0 0 1 216.4858 118.9961)" font-size="10">Pixel 2</text>
			</g>
			<g>
				<text transform="matrix(1 0 0 1 216.4858 145.0566)" font-size="10">Pixel 3</text>
			</g>
			<g>
				<text transform="matrix(1 0 0 1 263.4121 105.7246)" font-size="8">MSb</text>
			</g>
			<g>
				<text transform="matrix(1 0 0 1 263.4121 131.7852)" font-size="8">MSb</text>
			</g>
			<g>
				<text transform="matrix(1 0 0 1 263.4121 157.8447)" font-size="8">MSb</text>
			</g>
			<g>
				<text transform="matrix(1 0 0 1 294.8242 92.4536)" font-size="8">LSb</text>
			</g>
			<g>
				<text transform="matrix(1 0 0 1 294.8242 118.9961)" font-size="8">LSb</text>
			</g>
			<g>
				<text transform="matrix(1 0 0 1 294.8242 145.0566)" font-size="8">LSb</text>
			</g>
			<g>
				<text transform="matrix(1 0 0 1 259.0332 171.5137)" font-size="10">...</text>
			</g>
			<g>
				<text transform="matrix(1 0 0 1 259.0332 184.7842)" font-size="10">...</text>
			</g>
			<g>
				<text transform="matrix(1 0 0 1 195.9995 57.8999)" font-size="10">Little Endian Transfer Syntax</text>
			</g>
			<g>
				<text transform="matrix(1 0 0 1 290.6348 79.0786)" font-size="9">1</text>
			</g>
			<g>
				<text transform="matrix(1 0 0 1 303.665 79.0786)" font-size="9">0</text>
			</g>
			<g>
				<text transform="matrix(1 0 0 1 277.9951 79.0786)" font-size="9">2</text>
			</g>
			<g>
				<text transform="matrix(1 0 0 1 264.791 79.0786)" font-size="9">3</text>
			</g>
			<g>
				<text transform="matrix(1 0 0 1 251.585 79.0786)" font-size="9">4</text>
			</g>
			<g>
				<text transform="matrix(1 0 0 1 238.3828 79.0786)" font-size="9">5</text>
			</g>
			<g>
				<text transform="matrix(1 0 0 1 211.915 79.0786)" font-size="9">7</text>
			</g>
			<g>
				<text transform="matrix(1 0 0 1 225.0352 79.0786)" font-size="9">6</text>
			</g>
			<g>
				<text transform="matrix(1 0 0 1 178.2349 92.4536)" fill="#ED1C24" font-size="9">byte 0</text>
			</g>
			<g>
				<text transform="matrix(1 0 0 1 178.2349 118.9961)" fill="#ED1C24" font-size="9">byte 2</text>
			</g>
			<g>
				<text transform="matrix(1 0 0 1 177.6021 105.7246)" fill="#ED1C24" font-size="9">byte 1</text>
			</g>
			<g>
				<text transform="matrix(1 0 0 1 178.2349 145.0566)" fill="#ED1C24" font-size="9">byte 4</text>
			</g>
			<g>
				<text transform="matrix(1 0 0 1 177.6021 131.7852)" fill="#ED1C24" font-size="9">byte 3</text>
			</g>
			<g>
				<text transform="matrix(1 0 0 1 177.6021 157.8447)" fill="#ED1C24" font-size="9">byte 5</text>
			</g>
			<rect x="207.809" y="83.449" fill="none" stroke="#010101" stroke-miterlimit="1" width="104.781" height="104.781"/>
			<line fill="none" stroke="#010101" stroke-miterlimit="1" x1="207.809" y1="175.133" x2="312.59" y2="175.133"/>
			<line fill="none" stroke="#010101" stroke-miterlimit="1" x1="207.809" y1="162.035" x2="312.59" y2="162.035"/>
			<line fill="none" stroke="#010101" stroke-miterlimit="1" x1="207.809" y1="148.938" x2="312.59" y2="148.938"/>
			<line fill="none" stroke="#010101" stroke-miterlimit="1" x1="207.809" y1="135.84" x2="312.59" y2="135.84"/>
			<line fill="none" stroke="#010101" stroke-miterlimit="1" x1="207.809" y1="122.742" x2="312.59" y2="122.742"/>
			<line fill="none" stroke="#010101" stroke-miterlimit="1" x1="207.809" y1="109.645" x2="312.59" y2="109.645"/>
			<line fill="none" stroke="#010101" stroke-miterlimit="1" x1="207.809" y1="96.547" x2="312.59" y2="96.547"/>
		</g>
	</g>
</g>
</svg>
