<?xml version="1.0" encoding="utf-8"?>

<!DOCTYPE svg PUBLIC "-//W3C//DTD SVG 1.1//EN" "http://www.w3.org/Graphics/SVG/1.1/DTD/svg11.dtd">
<svg version="1.1" id="Layer_1" xmlns="http://www.w3.org/2000/svg" xmlns:xlink="http://www.w3.org/1999/xlink" x="0px" y="0px"
	 width="542px" height="552px" viewBox="0 0 542 552" enable-background="new 0 0 542 552" xml:space="preserve">

<defs>
	<style type="text/css">
	text {
	  font-family: Helvetica, Verdana, ArialUnicodeMS, san-serif
	}
	</style>
</defs>

<g>
   <desc>
	PS 3.18 Web Access to DICOM Persistent Objects (WADO)
   </desc>
</g>

<g>
	<rect x="1" y="1" fill="#F4ECC0" width="540" height="550"/>
	<g>
		
			<line fill="none" stroke="#EBEDF3" stroke-width="7" stroke-linecap="round" stroke-miterlimit="1" x1="95.877" y1="247.811" x2="95.877" y2="527.538"/>
		
			<line fill="none" stroke="#EBEDF3" stroke-width="7" stroke-linecap="round" stroke-miterlimit="1" x1="445.779" y1="246.432" x2="445.779" y2="527.538"/>
		
			<rect x="21.099" y="81.449" fill="#C7D4E2" stroke="#010101" stroke-width="0.75" stroke-linecap="round" stroke-linejoin="round" stroke-miterlimit="1" width="500" height="165"/>
		
			<line fill="none" stroke="#276092" stroke-width="7" stroke-linecap="round" stroke-miterlimit="1" x1="270.939" y1="115.308" x2="270.939" y2="527.554"/>
		<g>
			<path fill="#D4DCE6" d="M191,266.126c0-1.98,1.62-3.6,3.6-3.6h152.8c1.979,0,3.6,1.62,3.6,3.6v32.801c0,1.979-1.62,3.6-3.6,3.6
				H194.6c-1.98,0-3.6-1.62-3.6-3.6V266.126z"/>
		</g>
		<text transform="matrix(1 0 0 1 238.2393 274.9688)"><tspan x="0" y="0" font-size="11">BOUNDARY:</tspan><tspan x="-5.798" y="13.201" font-size="11">DICOM – HTTP</tspan></text>
		
			<line fill="#5D89B4" stroke="#276092" stroke-width="4" stroke-linecap="round" stroke-miterlimit="1" x1="195.939" y1="295.353" x2="345.939" y2="295.353"/>
		<g>
			<g>
				<path fill="#D4DCE6" d="M194.913,511.093c0-1.979,1.62-3.6,3.6-3.6h144.854c1.979,0,3.6,1.62,3.6,3.6v22.229
					c0,1.979-1.62,3.6-3.6,3.6H198.513c-1.98,0-3.6-1.62-3.6-3.6V511.093z"/>
				<path fill="none" stroke="#000000" stroke-width="0.75" d="M194.913,511.093c0-1.979,1.62-3.6,3.6-3.6h144.854
					c1.979,0,3.6,1.62,3.6,3.6v22.229c0,1.979-1.62,3.6-3.6,3.6H198.513c-1.98,0-3.6-1.62-3.6-3.6V511.093z"/>
			</g>
			<text transform="matrix(1 0 0 1 233.1699 519.6284)"><tspan x="0" y="0" font-size="9">Network Exchange</tspan><tspan x="-10.753" y="10.8" font-size="9">On-Line Communication</tspan></text>
		</g>
		<g>
			<g>
				<path fill="#D4DCE6" d="M194.913,449.982c0-1.979,1.62-3.6,3.6-3.6h144.854c1.979,0,3.6,1.62,3.6,3.6v22.229
					c0,1.979-1.62,3.6-3.6,3.6H198.513c-1.98,0-3.6-1.62-3.6-3.6V449.982z"/>
				<path fill="none" stroke="#000000" stroke-width="0.75" d="M194.913,449.982c0-1.979,1.62-3.6,3.6-3.6h144.854
					c1.979,0,3.6,1.62,3.6,3.6v22.229c0,1.979-1.62,3.6-3.6,3.6H198.513c-1.98,0-3.6-1.62-3.6-3.6V449.982z"/>
			</g>
			<text transform="matrix(1 0 0 1 223.3701 463.3179)" font-size="9">TCP/IP Transport Layer</text>
		</g>
		<g>
			<g>
				<path fill="#D4DCE6" d="M194.913,388.871c0-1.979,1.62-3.6,3.6-3.6h144.854c1.979,0,3.6,1.62,3.6,3.6v22.229
					c0,1.979-1.62,3.6-3.6,3.6H198.513c-1.98,0-3.6-1.62-3.6-3.6V388.871z"/>
				<path fill="none" stroke="#000000" stroke-width="0.75" stroke-dasharray="4" d="M194.913,388.871c0-1.979,1.62-3.6,3.6-3.6
					h144.854c1.979,0,3.6,1.62,3.6,3.6v22.229c0,1.979-1.62,3.6-3.6,3.6H198.513c-1.98,0-3.6-1.62-3.6-3.6V388.871z"/>
			</g>
			<text transform="matrix(1 0 0 1 242.125 397.4058)"><tspan x="0" y="0" font-size="9">Security Layer</tspan><tspan x="9.004" y="10.8" font-size="9">(Optional)</tspan></text>
		</g>
		<g>
			<g>
				<path fill="#D4DCE6" d="M194.913,327.759c0-1.979,1.62-3.6,3.6-3.6h144.854c1.979,0,3.6,1.62,3.6,3.6v22.229
					c0,1.979-1.62,3.6-3.6,3.6H198.513c-1.98,0-3.6-1.62-3.6-3.6V327.759z"/>
				<path fill="none" stroke="#000000" stroke-width="0.75" d="M194.913,327.759c0-1.979,1.62-3.6,3.6-3.6h144.854
					c1.979,0,3.6,1.62,3.6,3.6v22.229c0,1.979-1.62,3.6-3.6,3.6H198.513c-1.98,0-3.6-1.62-3.6-3.6V327.759z"/>
			</g>
			<text transform="matrix(1 0 0 1 259.1377 341.0952)" font-size="9">HTTP</text>
		</g>
		<text transform="matrix(1 0 0 1 22.3491 76.623)" font-size="12">DICOM Application Entity</text>
		<polyline fill="#5D89B4" points="216.055,15.079 330.666,15.079 330.183,32.566 368.564,32.566 271.56,81.641 173.635,32.566 
			215.594,32.566 		"/>
		<text transform="matrix(1 0 0 1 227.4146 29.4858)"><tspan x="0" y="0" fill="#FFFFFF" font-size="12"> Medical Images</tspan><tspan x="-17.687" y="14.4" fill="#FFFFFF" font-size="12">and related information</tspan></text>
		<g>
			<path fill="#D4DCE6" d="M40.053,100.297c0-1.98,1.62-3.6,3.6-3.6h455.616c1.979,0,3.6,1.62,3.6,3.6v17.678
				c0,1.98-1.62,3.6-3.6,3.6H43.653c-1.98,0-3.6-1.62-3.6-3.6V100.297z"/>
			<path fill="none" stroke="#000000" stroke-width="0.75" d="M40.053,100.297c0-1.98,1.62-3.6,3.6-3.6h455.616
				c1.979,0,3.6,1.62,3.6,3.6v17.678c0,1.98-1.62,3.6-3.6,3.6H43.653c-1.98,0-3.6-1.62-3.6-3.6V100.297z"/>
		</g>
		<g>
			<path fill="#D4DCE6" d="M40.053,137.797c0-1.98,1.62-3.6,3.6-3.6h455.616c1.979,0,3.6,1.62,3.6,3.6v17.678
				c0,1.98-1.62,3.6-3.6,3.6H43.653c-1.98,0-3.6-1.62-3.6-3.6V137.797z"/>
			<path fill="none" stroke="#000000" stroke-width="0.75" d="M40.053,137.797c0-1.98,1.62-3.6,3.6-3.6h455.616
				c1.979,0,3.6,1.62,3.6,3.6v17.678c0,1.98-1.62,3.6-3.6,3.6H43.653c-1.98,0-3.6-1.62-3.6-3.6V137.797z"/>
		</g>
		<g>
			<path fill="#D4DCE6" d="M40.053,175.656c0-1.98,1.62-3.6,3.6-3.6h455.616c1.979,0,3.6,1.62,3.6,3.6v17.678
				c0,1.98-1.62,3.6-3.6,3.6H43.653c-1.98,0-3.6-1.62-3.6-3.6V175.656z"/>
			<path fill="none" stroke="#000000" stroke-width="0.75" d="M40.053,175.656c0-1.98,1.62-3.6,3.6-3.6h455.616
				c1.979,0,3.6,1.62,3.6,3.6v17.678c0,1.98-1.62,3.6-3.6,3.6H43.653c-1.98,0-3.6-1.62-3.6-3.6V175.656z"/>
		</g>
		<text transform="matrix(1 0 0 1 195.8071 112.1348)" font-size="12">Service Class Specifications</text>
		<text transform="matrix(1 0 0 1 189.4673 150.0308)" font-size="12">Information Objects Definitions</text>
		<text transform="matrix(1 0 0 1 139.6997 187.9272)" font-size="12">Dataset Structure and Encoding - Data Dictionary</text>
		<g>
			<path fill="#D4DCE6" d="M38.442,213.168c0-1.98,1.62-3.6,3.6-3.6h107.8c1.98,0,3.6,1.62,3.6,3.6v17.678c0,1.98-1.62,3.6-3.6,3.6
				h-107.8c-1.98,0-3.6-1.62-3.6-3.6V213.168z"/>
			<path fill="none" stroke="#000000" stroke-width="0.75" d="M38.442,213.168c0-1.98,1.62-3.6,3.6-3.6h107.8
				c1.98,0,3.6,1.62,3.6,3.6v17.678c0,1.98-1.62,3.6-3.6,3.6h-107.8c-1.98,0-3.6-1.62-3.6-3.6V213.168z"/>
		</g>
		<g>
			<path fill="#D4DCE6" d="M213.442,213.168c0-1.98,1.62-3.6,3.6-3.6h107.801c1.979,0,3.6,1.62,3.6,3.6v17.678
				c0,1.98-1.62,3.6-3.6,3.6H217.042c-1.98,0-3.6-1.62-3.6-3.6V213.168z"/>
			<path fill="none" stroke="#000000" stroke-width="0.75" d="M213.442,213.168c0-1.98,1.62-3.6,3.6-3.6h107.801
				c1.979,0,3.6,1.62,3.6,3.6v17.678c0,1.98-1.62,3.6-3.6,3.6H217.042c-1.98,0-3.6-1.62-3.6-3.6V213.168z"/>
		</g>
		<text transform="matrix(1 0 0 1 233.9316 225.8237)" font-size="12">Web Services</text>
		<g>
			<path fill="#EFF1F4" d="M365.779,266.108c0-1.98,1.62-3.6,3.6-3.6h152.801c1.979,0,3.6,1.62,3.6,3.6v32.801
				c0,1.979-1.62,3.6-3.6,3.6H369.378c-1.979,0-3.6-1.62-3.6-3.6V266.108z"/>
			<path fill="none" stroke="#999999" stroke-width="0.75" stroke-dasharray="4" d="M365.779,266.108c0-1.98,1.62-3.6,3.6-3.6
				h152.801c1.979,0,3.6,1.62,3.6,3.6v32.801c0,1.979-1.62,3.6-3.6,3.6H369.378c-1.979,0-3.6-1.62-3.6-3.6V266.108z"/>
		</g>
		<g>
			<path fill="#E4E8EE" d="M390.779,213.15c0-1.98,1.62-3.6,3.6-3.6h102.801c1.979,0,3.6,1.62,3.6,3.6v17.678
				c0,1.98-1.62,3.6-3.6,3.6H394.378c-1.979,0-3.6-1.62-3.6-3.6V213.15z"/>
			<path fill="none" stroke="#999999" stroke-width="0.75" stroke-dasharray="4" d="M390.779,213.15c0-1.98,1.62-3.6,3.6-3.6
				h102.801c1.979,0,3.6,1.62,3.6,3.6v17.678c0,1.98-1.62,3.6-3.6,3.6H394.378c-1.979,0-3.6-1.62-3.6-3.6V213.15z"/>
		</g>
		<g>
			<path fill="#EFF1F4" d="M369.751,511.077c0-1.979,1.62-3.6,3.6-3.6h144.854c1.979,0,3.6,1.62,3.6,3.6v22.229
				c0,1.979-1.62,3.6-3.6,3.6H373.351c-1.979,0-3.6-1.62-3.6-3.6V511.077z"/>
			<path fill="none" stroke="#999999" stroke-width="0.75" stroke-dasharray="4" d="M369.751,511.077c0-1.979,1.62-3.6,3.6-3.6
				h144.854c1.979,0,3.6,1.62,3.6,3.6v22.229c0,1.979-1.62,3.6-3.6,3.6H373.351c-1.979,0-3.6-1.62-3.6-3.6V511.077z"/>
		</g>
		<g>
			<path fill="#EFF1F4" d="M369.751,327.742c0-1.979,1.62-3.6,3.6-3.6h144.854c1.979,0,3.6,1.62,3.6,3.6v22.229
				c0,1.979-1.62,3.6-3.6,3.6H373.351c-1.979,0-3.6-1.62-3.6-3.6V327.742z"/>
			<path fill="none" stroke="#999999" stroke-width="0.75" stroke-dasharray="4" d="M369.751,327.742c0-1.979,1.62-3.6,3.6-3.6
				h144.854c1.979,0,3.6,1.62,3.6,3.6v22.229c0,1.979-1.62,3.6-3.6,3.6H373.351c-1.979,0-3.6-1.62-3.6-3.6V327.742z"/>
		</g>
		
			<line fill="none" stroke="#EBEDF3" stroke-width="4" stroke-linecap="round" stroke-miterlimit="1" x1="370.779" y1="295.335" x2="520.779" y2="295.335"/>
		
			<rect x="363.279" y="380.24" fill="#EFF1F4" stroke="#999999" stroke-width="0.75" stroke-dasharray="4" width="165" height="100"/>
		<g>
			<path fill="#EFF1F4" d="M414.048,396.713c0-1.979,1.62-3.6,3.6-3.6h33.988c1.979,0,3.6,1.62,3.6,3.6v71.605
				c0,1.979-1.62,3.6-3.6,3.6h-33.988c-1.979,0-3.6-1.62-3.6-3.6V396.713z"/>
			<path fill="none" stroke="#999999" stroke-width="0.75" stroke-dasharray="4" d="M414.048,396.713c0-1.979,1.62-3.6,3.6-3.6
				h33.988c1.979,0,3.6,1.62,3.6,3.6v71.605c0,1.979-1.62,3.6-3.6,3.6h-33.988c-1.979,0-3.6-1.62-3.6-3.6V396.713z"/>
		</g>
		<g>
			<g>
				
					<line fill="none" stroke="#EBEDF3" stroke-width="4" stroke-linecap="round" stroke-miterlimit="1" x1="461.234" y1="432.006" x2="462.234" y2="432.006"/>
				
					<line fill="none" stroke="#EBEDF3" stroke-width="4" stroke-linecap="round" stroke-miterlimit="1" stroke-dasharray="1.5556,6.2222" x1="468.457" y1="432.006" x2="473.123" y2="432.006"/>
				
					<line fill="none" stroke="#EBEDF3" stroke-width="4" stroke-linecap="round" stroke-miterlimit="1" x1="476.234" y1="432.006" x2="477.234" y2="432.006"/>
			</g>
		</g>
		<g>
			<path fill="#EFF1F4" d="M367.666,396.713c0-1.979,1.62-3.6,3.6-3.6h33.184c1.979,0,3.6,1.62,3.6,3.6v71.605
				c0,1.979-1.62,3.6-3.6,3.6h-33.184c-1.979,0-3.6-1.62-3.6-3.6V396.713z"/>
			<path fill="none" stroke="#999999" stroke-width="0.75" stroke-dasharray="4" d="M367.666,396.713c0-1.979,1.62-3.6,3.6-3.6
				h33.184c1.979,0,3.6,1.62,3.6,3.6v71.605c0,1.979-1.62,3.6-3.6,3.6h-33.184c-1.979,0-3.6-1.62-3.6-3.6V396.713z"/>
		</g>
		<g>
			<path fill="#EFF1F4" d="M483.236,396.713c0-1.979,1.62-3.6,3.6-3.6h33.457c1.979,0,3.6,1.62,3.6,3.6v71.605
				c0,1.979-1.62,3.6-3.6,3.6h-33.457c-1.979,0-3.6-1.62-3.6-3.6V396.713z"/>
			<path fill="none" stroke="#999999" stroke-width="0.75" stroke-dasharray="4" d="M483.236,396.713c0-1.979,1.62-3.6,3.6-3.6
				h33.457c1.979,0,3.6,1.62,3.6,3.6v71.605c0,1.979-1.62,3.6-3.6,3.6h-33.457c-1.979,0-3.6-1.62-3.6-3.6V396.713z"/>
		</g>
		<g>
			<path fill="#EFF1F4" d="M15.938,266.108c0-1.98,1.62-3.6,3.6-3.6h152.8c1.98,0,3.6,1.62,3.6,3.6v32.801c0,1.979-1.62,3.6-3.6,3.6
				h-152.8c-1.98,0-3.6-1.62-3.6-3.6V266.108z"/>
			<path fill="none" stroke="#999999" stroke-width="0.75" stroke-dasharray="4" d="M15.938,266.108c0-1.98,1.62-3.6,3.6-3.6h152.8
				c1.98,0,3.6,1.62,3.6,3.6v32.801c0,1.979-1.62,3.6-3.6,3.6h-152.8c-1.98,0-3.6-1.62-3.6-3.6V266.108z"/>
		</g>
		
			<line fill="none" stroke="#EBEDF3" stroke-width="4" stroke-linecap="round" stroke-miterlimit="1" x1="20.878" y1="295.335" x2="170.878" y2="295.335"/>
		<g>
			<path fill="#EFF1F4" d="M19.852,511.077c0-1.979,1.62-3.6,3.6-3.6h144.853c1.98,0,3.6,1.62,3.6,3.6v22.229
				c0,1.979-1.62,3.6-3.6,3.6H23.452c-1.98,0-3.6-1.62-3.6-3.6V511.077z"/>
			<path fill="none" stroke="#999999" stroke-width="0.75" stroke-dasharray="4" d="M19.852,511.077c0-1.979,1.62-3.6,3.6-3.6
				h144.853c1.98,0,3.6,1.62,3.6,3.6v22.229c0,1.979-1.62,3.6-3.6,3.6H23.452c-1.98,0-3.6-1.62-3.6-3.6V511.077z"/>
		</g>
		<g>
			<path fill="#EFF1F4" d="M19.852,449.965c0-1.979,1.62-3.6,3.6-3.6h144.853c1.98,0,3.6,1.62,3.6,3.6v22.229
				c0,1.979-1.62,3.6-3.6,3.6H23.452c-1.98,0-3.6-1.62-3.6-3.6V449.965z"/>
			<path fill="none" stroke="#999999" stroke-width="0.75" stroke-dasharray="4" d="M19.852,449.965c0-1.979,1.62-3.6,3.6-3.6
				h144.853c1.98,0,3.6,1.62,3.6,3.6v22.229c0,1.979-1.62,3.6-3.6,3.6H23.452c-1.98,0-3.6-1.62-3.6-3.6V449.965z"/>
		</g>
		<g>
			<path fill="#EFF1F4" d="M19.852,388.853c0-1.979,1.62-3.6,3.6-3.6h144.853c1.98,0,3.6,1.62,3.6,3.6v22.229
				c0,1.979-1.62,3.6-3.6,3.6H23.452c-1.98,0-3.6-1.62-3.6-3.6V388.853z"/>
			<path fill="none" stroke="#999999" stroke-width="0.75" stroke-dasharray="4" d="M19.852,388.853c0-1.979,1.62-3.6,3.6-3.6
				h144.853c1.98,0,3.6,1.62,3.6,3.6v22.229c0,1.979-1.62,3.6-3.6,3.6H23.452c-1.98,0-3.6-1.62-3.6-3.6V388.853z"/>
		</g>
		<g>
			<path fill="#EFF1F4" d="M19.852,327.742c0-1.979,1.62-3.6,3.6-3.6h144.853c1.98,0,3.6,1.62,3.6,3.6v22.229
				c0,1.979-1.62,3.6-3.6,3.6H23.452c-1.98,0-3.6-1.62-3.6-3.6V327.742z"/>
			<path fill="none" stroke="#999999" stroke-width="0.75" stroke-dasharray="4" d="M19.852,327.742c0-1.979,1.62-3.6,3.6-3.6
				h144.853c1.98,0,3.6,1.62,3.6,3.6v22.229c0,1.979-1.62,3.6-3.6,3.6H23.452c-1.98,0-3.6-1.62-3.6-3.6V327.742z"/>
		</g>
		<g>
			<path fill="#E4E8EE" d="M38.381,213.15c0-1.98,1.62-3.6,3.6-3.6h107.8c1.98,0,3.6,1.62,3.6,3.6v17.678c0,1.98-1.62,3.6-3.6,3.6
				h-107.8c-1.98,0-3.6-1.62-3.6-3.6V213.15z"/>
			<path fill="none" stroke="#999999" stroke-width="0.75" stroke-dasharray="4" d="M38.381,213.15c0-1.98,1.62-3.6,3.6-3.6h107.8
				c1.98,0,3.6,1.62,3.6,3.6v17.678c0,1.98-1.62,3.6-3.6,3.6h-107.8c-1.98,0-3.6-1.62-3.6-3.6V213.15z"/>
		</g>
	</g>
</g>
</svg>
