<?xml version="1.0" encoding="utf-8"?>

<svg version="1.1" id="Layer_1" xmlns="http://www.w3.org/2000/svg" xmlns:xlink="http://www.w3.org/1999/xlink" x="0px" y="0px"
	 viewBox="0 0 502 447" enable-background="new 0 0 502 447" xml:space="preserve">

<defs>
	<style type="text/css">
	text {
	  font-family: Helvetica, Verdana, ArialUnicodeMS, san-serif
	}
	</style>
</defs>

<g>
   <desc>
	PS 3.18 : Web Services
   </desc>
</g>

<g>
	<rect x="1" y="1" fill="#F2EDD6" width="500" height="445"/>
	<g>
		
			<rect x="37.019" y="99.38" fill="#B2CEE7" stroke="#010101" stroke-width="0.75" stroke-linecap="round" stroke-linejoin="round" stroke-miterlimit="1" width="169.276" height="55.844"/>
		<rect x="41.159" y="102.852" fill="none" width="164.911" height="8.763"/>
		<text transform="matrix(0.9288 0 0 1 41.1592 108.5772)" font-size="8px">Uncompressed bulk data</text>
		
			<rect x="37.019" y="43.388" fill="#B2CEE7" stroke="#010101" stroke-width="0.75" stroke-linecap="round" stroke-linejoin="round" stroke-miterlimit="1" width="169.276" height="41.994"/>
		<rect x="41.159" y="46.859" fill="none" width="164.911" height="17.525"/>
		<text transform="matrix(0.9288 0 0 1 41.1592 52.585)"><tspan x="0" y="0" font-size="8px">Metadata</tspan><tspan x="0" y="9.6" font-size="8px">(attributes smaller than bulk data threshold)</tspan></text>
		
			<rect x="37.019" y="169.37" fill="#B2CEE7" stroke="#010101" stroke-width="0.75" stroke-linecap="round" stroke-linejoin="round" stroke-miterlimit="1" width="169.276" height="55.992"/>
		<rect x="41.159" y="172.842" fill="none" width="164.911" height="8.763"/>
		<text transform="matrix(0.9288 0 0 1 41.1592 178.5674)" font-size="8px">Compressed pixel data (single-frame)</text>
		
			<rect x="37.019" y="239.362" fill="#B2CEE7" stroke="#010101" stroke-width="0.75" stroke-linecap="round" stroke-linejoin="round" stroke-miterlimit="1" width="169.276" height="13.998"/>
		<rect x="41.159" y="242.834" fill="none" width="164.911" height="7.717"/>
		<text transform="matrix(0.9288 0 0 1 41.1592 248.5591)" font-size="8px">Compressed pixel data (multi-frame)</text>
		
			<rect x="37.019" y="253.36" fill="#B2CEE7" stroke="#010101" stroke-width="0.75" stroke-linecap="round" stroke-linejoin="round" stroke-miterlimit="1" width="169.276" height="27.996"/>
		<rect x="41.159" y="256.832" fill="none" width="164.911" height="8.762"/>
		<text transform="matrix(0.9288 0 0 1 41.1592 262.5571)" font-size="8px">Frame 1</text>
		
			<rect x="37.019" y="281.356" fill="#B2CEE7" stroke="#010101" stroke-width="0.75" stroke-linecap="round" stroke-linejoin="round" stroke-miterlimit="1" width="169.276" height="27.996"/>
		<rect x="41.159" y="284.828" fill="none" width="164.911" height="8.762"/>
		<text transform="matrix(0.9288 0 0 1 41.1592 290.5532)" font-size="8px">Frame 2</text>
		
			<rect x="37.019" y="309.353" fill="#B2CEE7" stroke="#010101" stroke-width="0.75" stroke-linecap="round" stroke-linejoin="round" stroke-miterlimit="1" width="169.276" height="27.996"/>
		<rect x="41.159" y="312.824" fill="none" width="164.911" height="9.179"/>
		<text transform="matrix(0.9288 0 0 1 41.1592 318.5493)" font-size="8px">...</text>
		
			<rect x="37.019" y="351.347" fill="#B2CEE7" stroke="#010101" stroke-width="0.75" stroke-linecap="round" stroke-linejoin="round" stroke-miterlimit="1" width="169.271" height="55.991"/>
		<rect x="41.159" y="354.818" fill="none" width="164.911" height="8.762"/>
		<text transform="matrix(0.9288 0 0 1 41.1592 360.5435)" font-size="8px">Compressed pixel data (multi-frame or video)</text>
		<rect x="77.124" y="27.354" fill="none" width="89.067" height="10.311"/>
		<text transform="matrix(0.9288 0 0 1 80.6133 34.5112)" font-size="10px">IOD Representation</text>
		
			<rect x="295.922" y="337.107" fill="#FFFFFF" stroke="#010101" stroke-width="0.75" stroke-linecap="round" stroke-linejoin="round" stroke-miterlimit="1" width="169.059" height="33.262"/>
		
			<rect x="295.922" y="148.225" fill="#FFFFFF" stroke="#010101" stroke-width="0.75" stroke-linecap="round" stroke-linejoin="round" stroke-miterlimit="1" width="169.059" height="43.563"/>
		
			<rect x="295.914" y="57.386" fill="#B2CEE7" stroke="#010101" stroke-width="0.75" stroke-linecap="round" stroke-linejoin="round" stroke-miterlimit="1" width="169.059" height="13.998"/>
		
			<rect x="295.914" y="57.386" fill="#E6E6E6" stroke="#010101" stroke-width="0.75" stroke-linecap="round" stroke-linejoin="round" stroke-miterlimit="1" width="169.059" height="27.996"/>
		
			<rect x="295.922" y="43.388" fill="#E6E6E6" stroke="#010101" stroke-width="0.75" stroke-linecap="round" stroke-linejoin="round" stroke-miterlimit="1" width="169.059" height="13.998"/>
		<rect x="300.068" y="46.859" fill="none" width="164.912" height="7.717"/>
		<text transform="matrix(0.9288 0 0 1 300.0742 52.5708)" font-size="8px">Content-Type: multipart/related</text>
		
			<rect x="295.918" y="253.001" fill="#F2F2F2" stroke="#010101" stroke-width="0.75" stroke-linecap="round" stroke-linejoin="round" stroke-miterlimit="1" width="169.059" height="27.996"/>
		
			<rect x="295.918" y="280.997" fill="#E6E6E6" stroke="#010101" stroke-width="0.75" stroke-linecap="round" stroke-linejoin="round" stroke-miterlimit="1" width="169.059" height="27.996"/>
		
			<rect x="295.918" y="308.993" fill="#E6E6E6" stroke="#010101" stroke-width="0.75" stroke-linecap="round" stroke-linejoin="round" stroke-miterlimit="1" width="169.059" height="27.996"/>
		<rect x="300.055" y="312.464" fill="none" width="164.912" height="9.18"/>
		<text transform="matrix(0.9288 0 0 1 300.0552 318.1904)" font-size="8px">...</text>
		<rect x="331.918" y="26.807" fill="none" width="97.066" height="11.973"/>
		<text transform="matrix(0.9288 0 0 1 335.5391 33.9644)" font-size="10px">HTTP Representation</text>
		<rect x="300.055" y="60.857" fill="none" width="164.912" height="21.38"/>
		<text transform="matrix(0.9288 0 0 1 300.0557 66.583)"><tspan x="0" y="0" font-size="8px">Content-Type: application/dicom+xml</tspan><tspan x="0" y="9.6" font-size="8px">[Metadata]</tspan></text>
		
			<rect x="295.914" y="191.788" fill="#B2CEE7" stroke="#010101" stroke-width="0.75" stroke-linecap="round" stroke-linejoin="round" stroke-miterlimit="1" width="169.059" height="13.998"/>
		
			<rect x="295.914" y="191.788" fill="#E6E6E6" stroke="#010101" stroke-width="0.75" stroke-linecap="round" stroke-linejoin="round" stroke-miterlimit="1" width="169.059" height="27.996"/>
		<rect x="300.055" y="195.26" fill="none" width="164.912" height="21.38"/>
		<text transform="matrix(0.9288 0 0 1 300.0557 200.9854)"><tspan x="0" y="0" font-size="8px">Content-Type: [single-frame media type]</tspan><tspan x="0" y="9.6" font-size="8px">[Compressed Pixel Data (single-frame)]</tspan></text>
		
			<rect x="295.914" y="113.378" fill="#F2F2F2" stroke="#010101" stroke-width="0.75" stroke-linecap="round" stroke-linejoin="round" stroke-miterlimit="1" width="169.059" height="34.904"/>
		
			<rect x="295.922" y="99.38" fill="#B2CEE7" stroke="#010101" stroke-width="0.75" stroke-linecap="round" stroke-linejoin="round" stroke-miterlimit="1" width="169.059" height="13.998"/>
		
			<rect x="295.922" y="99.38" fill="#E6E6E6" stroke="#010101" stroke-width="0.75" stroke-linecap="round" stroke-linejoin="round" stroke-miterlimit="1" width="169.059" height="13.998"/>
		<rect x="300.068" y="102.852" fill="none" width="164.912" height="7.717"/>
		<text transform="matrix(0.9288 0 0 1 300.0742 108.563)" font-size="8px">Content-Type: multipart/related</text>
		<rect x="300.055" y="116.85" fill="none" width="164.912" height="21.38"/>
		<text transform="matrix(0.9288 0 0 1 300.0557 122.5752)"><tspan x="0" y="0" font-size="8px">Content-Type: application/octet-stream</tspan><tspan x="0" y="9.6" font-size="8px">[Uncompressed Bulk Data]</tspan></text>
		<rect x="376.496" y="165.565" fill="none" width="7.91" height="8.883"/>
		<text transform="matrix(0.9288 0 0 1 376.4961 171.2905)" font-size="8px">...</text>
		<rect x="376.496" y="349.296" fill="none" width="7.91" height="8.883"/>
		<text transform="matrix(0.9288 0 0 1 376.4961 355.0225)" font-size="8px">...</text>
		
			<rect x="295.922" y="398.483" fill="#FFFFFF" stroke="#010101" stroke-width="0.75" stroke-linecap="round" stroke-linejoin="round" stroke-miterlimit="1" width="169.059" height="33.262"/>
		
			<rect x="295.918" y="370.369" fill="#E6E6E6" stroke="#010101" stroke-width="0.75" stroke-linecap="round" stroke-linejoin="round" stroke-miterlimit="1" width="169.059" height="27.995"/>
		<rect x="376.496" y="410.673" fill="none" width="7.91" height="8.883"/>
		<text transform="matrix(0.9288 0 0 1 376.4961 416.3984)" font-size="8px">...</text>
		
			<rect x="295.922" y="219.739" fill="#E6E6E6" stroke="#010101" stroke-width="0.75" stroke-linecap="round" stroke-linejoin="round" stroke-miterlimit="1" width="169.059" height="33.261"/>
		<rect x="300.055" y="222.197" fill="none" width="164.912" height="8.883"/>
		<text transform="matrix(0.9288 0 0 1 300.0562 227.9243)" font-size="8px">...</text>
		<rect x="300.055" y="256.472" fill="none" width="164.912" height="21.381"/>
		<text transform="matrix(0.9288 0 0 1 300.0562 262.1982)"><tspan x="0" y="0" font-size="8px">Content-Type: [single-frame media type]</tspan><tspan x="0" y="9.6" font-size="8px">[Compressed Pixel Data (Frame 1)]</tspan></text>
		<rect x="300.055" y="284.468" fill="none" width="164.912" height="21.381"/>
		<text transform="matrix(0.9288 0 0 1 300.0562 290.1943)"><tspan x="0" y="0" font-size="8px">Content-Type: [single-frame media type]</tspan><tspan x="0" y="9.6" font-size="8px">[Compressed Pixel Data (Frame 2)]</tspan></text>
		<rect x="300.055" y="373.458" fill="none" width="164.912" height="21.381"/>
		<text transform="matrix(0.9288 0 0 1 300.0562 379.1841)"><tspan x="0" y="0" font-size="8px">Content-Type: [multi-frame media type]</tspan><tspan x="0" y="9.6" font-size="8px">[Compressed pixel data (multi-frame or video)]</tspan></text>
		<polygon fill="#FFFFFF" stroke="#4F8ABE" stroke-linecap="round" stroke-linejoin="round" stroke-miterlimit="1" points="
			214.208,38.668 214.208,25.694 250.233,25.694 250.233,15.255 287.793,32.506 250.233,49.765 250.233,38.668 		"/>
		<rect x="233.554" y="27.102" fill="none" width="34.891" height="8.51"/>
		<text transform="matrix(0.9288 0 0 1 233.5542 34.2588)" font-size="10px">maps to</text>
		<g>
			<g>
				
					<line fill="none" stroke="#010101" stroke-width="0.75" stroke-linecap="round" stroke-linejoin="round" x1="206.07" y1="68.309" x2="289.278" y2="68.309"/>
				<g>
					<polygon fill="#010101" points="287.792,70.487 295.923,68.309 287.792,66.13 					"/>
				</g>
			</g>
		</g>
		<g>
			<g>
				
					<line fill="none" stroke="#010101" stroke-width="0.75" stroke-linecap="round" stroke-linejoin="round" x1="206.07" y1="123.51" x2="289.278" y2="123.51"/>
				<g>
					<polygon fill="#010101" points="287.792,125.688 295.923,123.51 287.792,121.331 					"/>
				</g>
			</g>
		</g>
		<g>
			<g>
				
					<line fill="none" stroke="#010101" stroke-width="0.75" stroke-linecap="round" stroke-linejoin="round" x1="206.07" y1="203.01" x2="289.278" y2="203.01"/>
				<g>
					<polygon fill="#010101" points="287.792,205.188 295.923,203.01 287.792,200.831 					"/>
				</g>
			</g>
		</g>
		<g>
			<g>
				
					<line fill="none" stroke="#010101" stroke-width="0.75" stroke-linecap="round" stroke-linejoin="round" x1="206.07" y1="265.594" x2="289.278" y2="265.594"/>
				<g>
					<polygon fill="#010101" points="287.792,267.772 295.923,265.594 287.792,263.415 					"/>
				</g>
			</g>
		</g>
		<g>
			<g>
				
					<line fill="none" stroke="#010101" stroke-width="0.75" stroke-linecap="round" stroke-linejoin="round" x1="206.07" y1="291.51" x2="289.278" y2="291.51"/>
				<g>
					<polygon fill="#010101" points="287.792,293.689 295.923,291.51 287.792,289.331 					"/>
				</g>
			</g>
		</g>
		<g>
			<g>
				
					<line fill="none" stroke="#010101" stroke-width="0.75" stroke-linecap="round" stroke-linejoin="round" x1="206.07" y1="317.426" x2="289.278" y2="317.426"/>
				<g>
					<polygon fill="#010101" points="287.792,319.604 295.923,317.426 287.792,315.247 					"/>
				</g>
			</g>
		</g>
		<g>
			<g>
				
					<line fill="none" stroke="#010101" stroke-width="0.75" stroke-linecap="round" stroke-linejoin="round" x1="206.07" y1="381.51" x2="289.278" y2="381.51"/>
				<g>
					<polygon fill="#010101" points="287.792,383.689 295.923,381.51 287.792,379.331 					"/>
				</g>
			</g>
		</g>
	</g>
</g>
</svg>
