<?xml version="1.0" encoding="utf-8"?>

<!DOCTYPE svg PUBLIC "-//W3C//DTD SVG 1.1//EN" "http://www.w3.org/Graphics/SVG/1.1/DTD/svg11.dtd">
<svg version="1.1" id="Layer_1" xmlns="http://www.w3.org/2000/svg" xmlns:xlink="http://www.w3.org/1999/xlink" x="0px" y="0px"
	 width="502px" height="347px" viewBox="0 0 502 347" enable-background="new 0 0 502 347" xml:space="preserve">

<defs>
	<style type="text/css">
	text {
	  font-family: Helvetica, Verdana, ArialUnicodeMS, san-serif
	}
	</style>
</defs>

<g>
   <desc>
	PS 3.17 Part 17: Explanatory Information
   </desc>
</g>

<g>
	<rect x="1" y="1" fill="#F5EED6" width="500" height="345"/>
	<g>
		<g>
			<polygon fill="#6799C8" stroke="#000000" stroke-miterlimit="1" points="135.974,43.186 332.611,104.288 284.207,149.974 
				73.192,67.554 73.19,67.549 93.443,59.737 76.834,53.183 76.832,53.181 105.041,42.324 123.585,48.087 			"/>
			<g>
				<g>
					<line fill="none" stroke="#00AEEF" x1="198.549" y1="66.906" x2="180.291" y2="60.911"/>
					<g>
						<polygon fill="#00AEEF" points="183.079,58.769 171.873,58.148 181.267,64.29 						"/>
					</g>
				</g>
			</g>
			<polyline fill="#B2CEE7" stroke="#636466" points="192.863,114.553 167.68,128.545 167.68,104.459 			"/>
			<polyline fill="none" stroke="#999999" stroke-dasharray="2,2" points="229.404,72.218 229.404,94.252 192.863,114.553 			"/>
			<polygon opacity="0.5" fill="#B2CEE7" stroke="#000000" points="167.68,104.459 167.68,49.189 229.404,17.396 229.404,72.218 			
				"/>
			<g>
				<g>
					<line fill="none" stroke="#ED1C24" x1="198.501" y1="66.555" x2="215.373" y2="58.5"/>
					<g>
						<polygon fill="#ED1C24" points="214.836,61.976 223.368,54.684 212.333,56.732 						"/>
					</g>
				</g>
			</g>
			<g>
				<g>
					<line fill="none" stroke="#0DB14B" x1="198.501" y1="66.555" x2="198.535" y2="87.29"/>
					<g>
						<polygon fill="#0DB14B" points="195.626,85.313 198.549,96.149 201.437,85.303 						"/>
					</g>
				</g>
			</g>
			<g>
				<path stroke="#000000" stroke-miterlimit="1" d="M203.939,66.875c0-3.037-2.462-5.5-5.5-5.5v5.5H203.939z"/>
				
					<path fill="#FFFFFF" stroke="#010101" stroke-width="0.75" stroke-linecap="round" stroke-linejoin="round" stroke-miterlimit="1" d="
					M198.438,61.375c-3.038,0-5.5,2.462-5.5,5.5h5.5V61.375z"/>
				<path stroke="#000000" stroke-miterlimit="1" d="M192.939,66.875c0,3.037,2.462,5.5,5.5,5.5v-5.5H192.939z"/>
				
					<path fill="#FFFFFF" stroke="#010101" stroke-width="0.75" stroke-linecap="round" stroke-linejoin="round" stroke-miterlimit="1" d="
					M198.438,66.875v5.5c3.038,0,5.5-2.462,5.5-5.5H198.438z"/>
			</g>
			<g>
				<path stroke="#000000" stroke-width="0.5" stroke-miterlimit="1" d="M76.834,50.183c-1.657,0-3,1.344-3,3.001h3V50.183z"/>
				
					<path fill="#FFFFFF" stroke="#010101" stroke-width="0.5" stroke-linecap="round" stroke-linejoin="round" stroke-miterlimit="1" d="
					M73.834,53.184c0,1.657,1.343,3,3,3v-3H73.834z"/>
				<path stroke="#000000" stroke-width="0.5" stroke-miterlimit="1" d="M76.834,56.184c1.657,0,3-1.343,3-3h-3V56.184z"/>
				
					<path fill="#FFFFFF" stroke="#010101" stroke-width="0.5" stroke-linecap="round" stroke-linejoin="round" stroke-miterlimit="1" d="
					M76.834,53.184h3c0-1.657-1.343-3.001-3-3.001V53.184z"/>
			</g>
			<g>
				<g>
					<line fill="none" stroke="#000000" stroke-dasharray="2,2" x1="76.834" y1="53.183" x2="158.831" y2="49.126"/>
					<g>
						<polygon points="156.996,52.126 167.68,48.689 156.708,46.323 						"/>
					</g>
				</g>
			</g>
			<text transform="matrix(1 0 0 1 37.2554 36.9053)"><tspan x="0" y="0" font-size="10">Table</tspan><tspan x="-12.505" y="12" font-size="10">Fixed Point</tspan></text>
			<text transform="matrix(1 0 0 1 187.207 52.1821)" font-size="10">Isocenter</text>
			<text transform="matrix(1 0 0 1 125.1577 154.9722)" font-size="10">3D pre-intervention</text>
			<text transform="matrix(1 0 0 1 268.9551 110.8018)"><tspan x="0" y="0" font-size="10">X-Ray</tspan><tspan x="1.385" y="12" font-size="10">Table</tspan></text>
		</g>
		<g>
			<polygon fill="#CCDEF0" stroke="#999999" stroke-width="0.5" stroke-miterlimit="1" stroke-dasharray="2,2" points="
				228.113,209.52 424.75,270.621 376.348,316.307 165.331,233.887 165.329,233.883 185.583,226.07 168.973,219.517 
				168.971,219.515 197.18,208.658 215.724,214.42 			"/>
			<polygon fill="#6799C8" stroke="#000000" stroke-miterlimit="1" points="280.613,209.52 477.25,270.621 428.848,316.307 
				217.832,233.887 217.83,233.883 238.083,226.07 221.473,219.517 221.471,219.515 249.679,208.658 268.225,214.42 			"/>
			<g>
				<g>
					<line fill="none" stroke="#00AEEF" x1="293.189" y1="239.489" x2="274.931" y2="233.495"/>
					<g>
						<polygon fill="#00AEEF" points="277.72,231.353 266.514,230.731 275.907,236.873 						"/>
					</g>
				</g>
			</g>
			<g>
				<polygon fill="#B2CEE7" stroke="#808285" points="290.559,262.293 315.021,271.849 262.32,301.129 262.32,251.264 				"/>
			</g>
			<polyline fill="none" stroke="#999999" stroke-dasharray="2,2" points="324.045,244.802 324.045,266.836 315.021,271.849 			"/>
			<g>
				<polygon opacity="0.5" fill="#B2CEE7" stroke="#000000" points="262.32,251.264 262.32,221.772 324.045,189.98 324.045,244.802 
					290.559,262.293 				"/>
			</g>
			<g>
				<g>
					<line fill="none" stroke="#ED1C24" x1="293.141" y1="239.139" x2="310.013" y2="231.084"/>
					<g>
						<polygon fill="#ED1C24" points="309.477,234.56 318.008,227.268 306.973,229.316 						"/>
					</g>
				</g>
			</g>
			<g>
				<g>
					<line fill="none" stroke="#0DB14B" x1="293.141" y1="239.139" x2="293.175" y2="259.873"/>
					<g>
						<polygon fill="#0DB14B" points="290.267,257.896 293.189,268.732 296.077,257.887 						"/>
					</g>
				</g>
			</g>
			<g>
				<path stroke="#000000" stroke-miterlimit="1" d="M298.578,239.458c0-3.037-2.461-5.499-5.5-5.499v5.499H298.578z"/>
				
					<path fill="#FFFFFF" stroke="#010101" stroke-width="0.75" stroke-linecap="round" stroke-linejoin="round" stroke-miterlimit="1" d="
					M293.078,233.959c-3.037,0-5.5,2.462-5.5,5.499h5.5V233.959z"/>
				<path stroke="#000000" stroke-miterlimit="1" d="M287.578,239.458c0,3.037,2.463,5.499,5.5,5.499v-5.499H287.578z"/>
				
					<path fill="#FFFFFF" stroke="#010101" stroke-width="0.75" stroke-linecap="round" stroke-linejoin="round" stroke-miterlimit="1" d="
					M293.078,239.458v5.499c3.039,0,5.5-2.462,5.5-5.499H293.078z"/>
			</g>
			<g>
				<path stroke="#000000" stroke-width="0.5" stroke-miterlimit="1" d="M221.473,216.516c-1.657,0-3,1.344-3,3.002h3V216.516z"/>
				
					<path fill="#FFFFFF" stroke="#010101" stroke-width="0.5" stroke-linecap="round" stroke-linejoin="round" stroke-miterlimit="1" d="
					M218.473,219.518c0,1.656,1.343,3,3,3v-3H218.473z"/>
				<path stroke="#000000" stroke-width="0.5" stroke-miterlimit="1" d="M221.473,222.518c1.657,0,3.001-1.344,3.001-3h-3.001
					V222.518z"/>
				
					<path fill="#FFFFFF" stroke="#010101" stroke-width="0.5" stroke-linecap="round" stroke-linejoin="round" stroke-miterlimit="1" d="
					M221.473,219.518h3.001c0-1.658-1.344-3.002-3.001-3.002V219.518z"/>
			</g>
			<g>
				<g>
					<line fill="none" stroke="#000000" stroke-dasharray="2,2" x1="221.473" y1="219.517" x2="253.475" y2="221.284"/>
					<g>
						<polygon points="251.336,224.075 262.32,221.772 251.656,218.273 						"/>
					</g>
				</g>
			</g>
			<text transform="matrix(1 0 0 1 180.6812 203.9062)"><tspan x="0" y="0" font-size="10">Table</tspan><tspan x="-12.505" y="12" font-size="10">Fixed Point</tspan></text>
			<text transform="matrix(1 0 0 1 281.8457 224.7656)" font-size="10">Isocenter</text>
			<text transform="matrix(1 0 0 1 217.5728 326.3057)" font-size="10">3D post-intervention</text>
			<text transform="matrix(1 0 0 1 413.5938 277.1348)"><tspan x="0" y="0" font-size="10">X-Ray</tspan><tspan x="1.385" y="12" font-size="10">Table</tspan></text>
		</g>
	</g>
</g>
</svg>
