<?xml version="1.0" encoding="utf-8"?>

<!DOCTYPE svg PUBLIC "-//W3C//DTD SVG 1.1//EN" "http://www.w3.org/Graphics/SVG/1.1/DTD/svg11.dtd">
<svg version="1.1" id="Layer_1" xmlns="http://www.w3.org/2000/svg" xmlns:xlink="http://www.w3.org/1999/xlink" x="0px" y="0px"
	 width="502px" height="427px" viewBox="0 0 502 427" enable-background="new 0 0 502 427" xml:space="preserve">

<defs>
	<style type="text/css">
	text {
	  font-family: Helvetica, Verdana, ArialUnicodeMS, san-serif
	}
	</style>
</defs>

<g>
   <desc>
	PS 3.17 Part 17: Explanatory Information
   </desc>
</g>

<g>
	<rect x="1" y="1" fill="#F5EED6" width="500" height="425"/>
	<g>
		<rect x="138.39" y="59.109" fill="#86B2D8" stroke="#010101" stroke-miterlimit="1" width="100.241" height="25"/>
		<rect x="263.369" y="59.109" fill="#86B2D8" stroke="#010101" stroke-miterlimit="1" width="100.24" height="25"/>
		<rect x="179.512" y="245.902" fill="#86B2D8" stroke="#010101" stroke-miterlimit="1" width="142" height="16"/>
		<rect x="138.39" y="110.933" fill="#FFFFFF" stroke="#010101" stroke-miterlimit="1" width="9.999" height="10"/>
		<rect x="148.389" y="110.933" fill="#FFFFFF" stroke="#010101" stroke-miterlimit="1" width="9.999" height="10"/>
		<rect x="158.388" y="110.933" fill="#FFFFFF" stroke="#010101" stroke-miterlimit="1" width="9.999" height="10"/>
		<rect x="168.387" y="110.933" fill="#FFFFFF" stroke="#010101" stroke-miterlimit="1" width="9.999" height="10"/>
		<rect x="178.386" y="110.933" fill="#FFFFFF" stroke="#010101" stroke-miterlimit="1" width="9.999" height="10"/>
		<rect x="188.385" y="110.933" fill="#FFFFFF" stroke="#010101" stroke-miterlimit="1" width="9.999" height="10"/>
		<rect x="198.384" y="110.933" fill="#FFFFFF" stroke="#010101" stroke-miterlimit="1" width="9.999" height="10"/>
		<rect x="208.383" y="110.933" fill="#FFFFFF" stroke="#010101" stroke-miterlimit="1" width="9.999" height="10"/>
		<rect x="218.382" y="110.933" fill="#FFFFFF" stroke="#010101" stroke-miterlimit="1" width="9.999" height="10"/>
		<rect x="228.381" y="110.933" fill="#FFFFFF" stroke="#010101" stroke-miterlimit="1" width="9.999" height="10"/>
		<rect x="263.369" y="110.933" fill="#B2CEE7" stroke="#010101" stroke-miterlimit="1" width="10" height="10"/>
		<rect x="273.369" y="110.933" fill="#B2CEE7" stroke="#010101" stroke-miterlimit="1" width="9.998" height="10"/>
		<rect x="283.367" y="110.933" fill="#B2CEE7" stroke="#010101" stroke-miterlimit="1" width="10" height="10"/>
		<rect x="293.367" y="110.933" fill="#B2CEE7" stroke="#010101" stroke-miterlimit="1" width="9.998" height="10"/>
		<rect x="303.365" y="110.933" fill="#B2CEE7" stroke="#010101" stroke-miterlimit="1" width="10" height="10"/>
		<rect x="313.365" y="110.933" fill="#B2CEE7" stroke="#010101" stroke-miterlimit="1" width="9.998" height="10"/>
		<rect x="323.363" y="110.933" fill="#B2CEE7" stroke="#010101" stroke-miterlimit="1" width="10" height="10"/>
		<rect x="333.363" y="110.933" fill="#B2CEE7" stroke="#010101" stroke-miterlimit="1" width="9.998" height="10"/>
		<rect x="343.361" y="110.933" fill="#B2CEE7" stroke="#010101" stroke-miterlimit="1" width="10" height="10"/>
		<rect x="353.361" y="110.933" fill="#B2CEE7" stroke="#010101" stroke-miterlimit="1" width="9.998" height="10"/>
		<g>
			<text transform="matrix(0.8815 0 0 1 154.8213 69.5234)"><tspan x="0" y="0" font-size="10">XA 2D Projection</tspan><tspan x="-3.887" y="10.008" font-size="10">SOP Instance “C1”</tspan></text>
		</g>
		<g>
			<text transform="matrix(0.8815 0 0 1 279.8672 69.5234)"><tspan x="0" y="0" font-size="10">XA 2D Projection</tspan><tspan x="-3.886" y="10.008" font-size="10">SOP Instance “C2”</tspan></text>
		</g>
		<rect x="138.39" y="37.742" fill="#86B2D8" stroke="#010101" stroke-miterlimit="1" width="100.241" height="18"/>
		<g>
			<text transform="matrix(0.8815 0 0 1 166.3398 49.5234)" font-size="10">Series “B1”</text>
		</g>
		<rect x="263.369" y="37.742" fill="#86B2D8" stroke="#010101" stroke-miterlimit="1" width="100.242" height="18"/>
		<g>
			<text transform="matrix(0.8815 0 0 1 291.3203 49.5234)" font-size="10">Series “B2”</text>
		</g>
		<rect x="138.389" y="16.161" fill="#86B2D8" stroke="#010101" stroke-miterlimit="1" width="225.222" height="18"/>
		<g>
			<text transform="matrix(0.8815 0 0 1 232.6284 27.9424)" font-size="10">Study “A”</text>
		</g>
		<g>
			<text transform="matrix(0.8815 0 0 1 138.4365 129.0576)" font-size="8">1...</text>
		</g>
		<g>
			<text transform="matrix(0.8815 0 0 1 168.0947 98.0654)" font-size="9">Rotation #1</text>
		</g>
		<g>
			<text transform="matrix(0.8815 0 0 1 222.2368 129.0576)" font-size="8">...N1</text>
		</g>
		<g>
			<text transform="matrix(0.8815 0 0 1 263.9385 129.0576)" font-size="8">1...</text>
		</g>
		<g>
			<text transform="matrix(0.8815 0 0 1 347.7383 129.0576)" font-size="8">...N2</text>
		</g>
		<g>
			<g>
				<line fill="none" stroke="#010101" stroke-miterlimit="1" x1="143.705" y1="100.74" x2="233.064" y2="100.74"/>
				<g>
					<polygon fill="#010101" points="144.894,102.483 138.39,100.74 144.894,98.997 					"/>
				</g>
				<g>
					<polygon fill="#010101" points="231.875,102.483 238.38,100.74 231.875,98.997 					"/>
				</g>
			</g>
		</g>
		<g>
			<text transform="matrix(0.8815 0 0 1 292.3486 98.0654)" font-size="9">Rotation #2</text>
		</g>
		<g>
			<g>
				<line fill="none" stroke="#010101" stroke-miterlimit="1" x1="267.958" y1="100.74" x2="357.317" y2="100.74"/>
				<g>
					<polygon fill="#010101" points="269.147,102.483 262.643,100.74 269.147,98.997 					"/>
				</g>
				<g>
					<polygon fill="#010101" points="356.128,102.483 362.633,100.74 356.128,98.997 					"/>
				</g>
			</g>
		</g>
		<g>
			<g>
				<line fill="none" stroke="#010101" stroke-miterlimit="1" x1="250.875" y1="237.621" x2="250.875" y2="213.972"/>
				<g>
					<polygon fill="#010101" points="252.617,236.432 250.875,242.937 249.131,236.432 					"/>
				</g>
			</g>
		</g>
		<g>
			<g>
				<line fill="none" stroke="#010101" stroke-miterlimit="1" x1="240.748" y1="192.943" x2="188.981" y2="165.438"/>
				<g>
					<polygon fill="#010101" points="240.516,190.846 245.442,195.438 238.88,193.925 					"/>
				</g>
			</g>
		</g>
		<g>
			<g>
				<line fill="none" stroke="#010101" stroke-miterlimit="1" x1="261.476" y1="192.943" x2="313.242" y2="165.438"/>
				<g>
					<polygon fill="#010101" points="263.343,193.925 256.781,195.438 261.707,190.846 					"/>
				</g>
			</g>
		</g>
		<polygon fill="#CCDEF0" stroke="#000000" points="206.108,278.584 206.108,339.557 185.965,352.564 185.965,291.592 		"/>
		<polygon fill="#CCDEF0" stroke="#000000" points="220.306,278.584 220.306,339.557 200.164,352.562 200.164,291.592 		"/>
		<polygon fill="#CCDEF0" stroke="#000000" points="234.502,278.584 234.504,339.559 214.362,352.564 214.362,291.594 		"/>
		<polygon fill="#CCDEF0" stroke="#000000" points="248.702,278.584 248.702,339.557 228.559,352.564 228.559,291.592 		"/>
		<polygon fill="#CCDEF0" stroke="#000000" points="262.9,278.584 262.9,339.557 242.757,352.564 242.757,291.592 		"/>
		<polygon fill="#CCDEF0" stroke="#000000" points="277.098,278.584 277.098,339.557 256.955,352.564 256.955,291.592 		"/>
		<polygon fill="#CCDEF0" stroke="#000000" points="291.295,278.584 291.295,339.557 271.152,352.562 271.152,291.592 		"/>
		<polygon fill="#CCDEF0" stroke="#000000" points="305.494,278.584 305.494,339.559 285.352,352.564 285.352,291.594 		"/>
		<polygon fill="#CCDEF0" stroke="#000000" points="319.691,278.584 319.691,339.557 299.549,352.564 299.549,291.592 		"/>
		<g>
			<text transform="matrix(0.8815 0 0 1 196.1343 256.6836)" font-size="10">X-Ray 3D SOP Instance “Z”</text>
		</g>
		<g>
			<text transform="matrix(0.8815 0 0 1 202.104 393.0693)"><tspan x="0" y="0" font-size="10">Reconstruction #1</tspan><tspan x="0" y="14.8" font-size="9">- From Acquisition Context #1, #2</tspan></text>
		</g>
		<g>
			<text transform="matrix(0.8815 0 0 1 185.9658 361.8555)" font-size="8">1...</text>
		</g>
		<g>
			<text transform="matrix(0.8815 0 0 1 299.1582 361.8555)" font-size="8">...M</text>
		</g>
		<g>
			<path fill="none" stroke="#000000" d="M236.299,133.352c0,5.204-4.336,9.204-16.502,9.204c-3.253,0-6.625-0.253-9.876-0.571
				c-3.252-0.191-6.504-0.444-9.637-0.444c-3.854,0-12.139,0.634-12.139,5.142h-0.026c0-4.507-7.709-5.142-11.925-5.142
				c-3.373,0-6.745,0.253-10.118,0.508c-3.373,0.254-6.745,0.507-9.998,0.507c-11.081,0-15.779-3.872-15.779-9.268"/>
		</g>
		<g>
			<path fill="none" stroke="#000000" d="M361.432,133.346c0,5.208-4.338,9.211-16.502,9.211c-3.25,0-6.623-0.253-9.877-0.572
				c-3.252-0.191-6.504-0.444-9.637-0.444c-3.855,0-12.139,0.635-12.139,5.146h-0.027c0-4.511-7.709-5.146-11.926-5.146
				c-3.371,0-6.744,0.253-10.117,0.508c-3.373,0.254-6.744,0.508-9.996,0.508c-11.082,0-15.779-3.875-15.779-9.275"/>
		</g>
		<g>
			<path fill="none" stroke="#000000" d="M314.635,366.555c0,5.413-5.76,9.571-21.92,9.571c-4.32,0-8.799-0.265-13.119-0.594
				c-4.32-0.198-8.641-0.462-12.801-0.462c-5.121,0-16.125,0.66-16.125,5.346h-0.035c0-4.686-10.24-5.346-15.84-5.346
				c-4.48,0-8.96,0.264-13.44,0.527s-8.96,0.528-13.28,0.528c-14.72,0-20.96-4.026-20.96-9.637"/>
		</g>
		<g>
			<path fill="#86B2D8" d="M295.057,207.973c0,3.3-2.7,6-6,6h-76.364c-3.3,0-6-2.7-6-6v-5.07c0-3.3,2.7-6,6-6h76.364
				c3.3,0,6,2.7,6,6V207.973z"/>
			<path fill="none" stroke="#000000" stroke-miterlimit="1" d="M295.057,207.973c0,3.3-2.7,6-6,6h-76.364c-3.3,0-6-2.7-6-6v-5.07
				c0-3.3,2.7-6,6-6h76.364c3.3,0,6,2.7,6,6V207.973z"/>
		</g>
		<g>
			<text transform="matrix(0.8815 0 0 1 215.3486 208.2188)" font-size="10">Reconstruction #1</text>
		</g>
		<g>
			<text transform="matrix(0.8815 0 0 1 144.4023 159.3213)" font-size="10">Acquisition Context #1</text>
		</g>
		<g>
			<text transform="matrix(0.8815 0 0 1 269.4492 159.3213)" font-size="10">Acquisition Context #2</text>
		</g>
	</g>
</g>
</svg>
