<?xml version="1.0" encoding="utf-8"?>

<svg version="1.1" id="Layer_1" xmlns="http://www.w3.org/2000/svg" xmlns:xlink="http://www.w3.org/1999/xlink" x="0px" y="0px"
	 viewBox="0 0 552 127" enable-background="new 0 0 552 127" xml:space="preserve">

<defs>
	<style type="text/css">
	text {
	  font-family: Helvetica, Verdana, ArialUnicodeMS, san-serif
	}
	</style>
</defs>

<g>
   <desc>
	PS 3.17 : Explanatory Information
   </desc>
</g>

<g>
	<rect x="1" y="1" fill="#F3EDD6" width="550" height="125"/>
	<g>
		
			<rect x="78.369" y="15.538" fill="#CBD0E0" stroke="#010101" stroke-width="0.75" stroke-miterlimit="1" width="14.4" height="14.401"/>
		
			<rect x="92.869" y="15.538" fill="#CBD0E0" stroke="#010101" stroke-width="0.75" stroke-miterlimit="1" width="14.4" height="14.401"/>
		
			<rect x="107.369" y="15.538" fill="#CBD0E0" stroke="#010101" stroke-width="0.75" stroke-miterlimit="1" width="14.4" height="14.401"/>
		
			<rect x="121.869" y="15.538" fill="#CBD0E0" stroke="#010101" stroke-width="0.75" stroke-miterlimit="1" width="14.4" height="14.401"/>
		
			<rect x="136.369" y="15.538" fill="#CBD0E0" stroke="#010101" stroke-width="0.75" stroke-miterlimit="1" width="14.4" height="14.401"/>
		
			<rect x="150.974" y="15.538" fill="#CBD0E0" stroke="#010101" stroke-width="0.75" stroke-miterlimit="1" width="14.4" height="14.401"/>
		
			<rect x="165.369" y="15.538" fill="#CBD0E0" stroke="#010101" stroke-width="0.75" stroke-miterlimit="1" width="14.401" height="14.401"/>
		
			<rect x="179.869" y="15.538" fill="#CBD0E0" stroke="#010101" stroke-width="0.75" stroke-miterlimit="1" width="14.4" height="14.401"/>
		
			<rect x="194.369" y="15.538" fill="#CBD0E0" stroke="#010101" stroke-width="0.75" stroke-miterlimit="1" width="14.4" height="14.401"/>
		
			<rect x="208.869" y="15.538" fill="#CBD0E0" stroke="#010101" stroke-width="0.75" stroke-miterlimit="1" width="14.4" height="14.401"/>
		
			<rect x="223.369" y="15.538" fill="#CBD0E0" stroke="#010101" stroke-width="0.75" stroke-miterlimit="1" width="14.4" height="14.401"/>
		
			<rect x="20.369" y="15.538" fill="#CBD0E0" stroke="#010101" stroke-width="0.75" stroke-miterlimit="1" width="14.4" height="14.401"/>
		
			<rect x="34.869" y="15.538" fill="#CBD0E0" stroke="#010101" stroke-width="0.75" stroke-miterlimit="1" width="14.4" height="14.401"/>
		
			<rect x="49.369" y="15.538" fill="#CBD0E0" stroke="#010101" stroke-width="0.75" stroke-miterlimit="1" width="14.4" height="14.401"/>
		
			<rect x="63.869" y="15.538" fill="#CBD0E0" stroke="#010101" stroke-width="0.75" stroke-miterlimit="1" width="14.4" height="14.401"/>
		
			<rect x="237.869" y="15.538" fill="#CBD0E0" stroke="#010101" stroke-width="0.75" stroke-miterlimit="1" width="14.4" height="14.401"/>
		<g>
			<text transform="matrix(0.8815 0 0 1 24.629 27.614)" font-size="10px">V</text>
		</g>
		<g>
			<text transform="matrix(0.8815 0 0 1 38.6007 27.614)" font-size="10px">A</text>
		</g>
		<g>
			<text transform="matrix(0.8815 0 0 1 52.4611 27.614)" font-size="10px">M</text>
		</g>
		<g>
			<text transform="matrix(0.8815 0 0 1 67.7853 27.614)" font-size="10px">V</text>
		</g>
		<g>
			<text transform="matrix(0.8815 0 0 1 82.3776 27.614)" font-size="10px">A</text>
		</g>
		<g>
			<text transform="matrix(0.8815 0 0 1 97.2547 27.614)" font-size="10px">V</text>
		</g>
		<g>
			<text transform="matrix(0.8815 0 0 1 111.2264 27.614)" font-size="10px">A</text>
		</g>
		<g>
			<text transform="matrix(0.8815 0 0 1 139.6771 27.614)" font-size="10px">...</text>
		</g>
		<g>
			<text transform="matrix(0.8815 0 0 1 169.8804 27.614)" font-size="10px">V</text>
		</g>
		<g>
			<text transform="matrix(0.8815 0 0 1 183.8521 27.614)" font-size="10px">A</text>
		</g>
		<g>
			<text transform="matrix(0.8815 0 0 1 198.4444 27.614)" font-size="10px">V</text>
		</g>
		<g>
			<text transform="matrix(0.8815 0 0 1 211.8121 27.614)" font-size="10px">V </text>
		</g>
		<g>
			<text transform="matrix(0.8815 0 0 1 242.5061 27.614)" font-size="10px">V</text>
		</g>
		<g>
			<text transform="matrix(0.8815 0 0 1 255.7439 27.614)" font-size="10px">...</text>
		</g>
		<g>
			<path fill="none" stroke="#000000" d="M252.27,40.12c0,5.413-10.372,9.571-39.472,9.571c-7.78,0-15.844-0.264-23.624-0.594
				c-7.78-0.198-15.559-0.462-23.051-0.462c-9.222,0-29.037,0.66-29.037,5.347h-0.063c0-4.686-18.44-5.347-28.524-5.347
				c-8.067,0-16.135,0.264-24.203,0.528c-8.067,0.264-16.135,0.528-23.914,0.528c-26.507,0-37.744-4.026-37.744-9.637"/>
		</g>
		<g>
			<g>
				<line fill="none" stroke="#010101" stroke-miterlimit="1" x1="20.369" y1="78.472" x2="20.369" y2="32.538"/>
				<g>
					<polygon fill="#010101" points="22.112,77.283 20.369,83.788 18.626,77.283 					"/>
				</g>
			</g>
		</g>
		<g>
			<text transform="matrix(0.8815 0 0 1 121.0427 65.5802)" font-size="10px">Frame n</text>
		</g>
		<g>
			<text transform="matrix(0.8815 0 0 1 9.5925 108.1663)" font-size="10px">time t</text>
		</g>
		<g>
			<text transform="matrix(0.8815 0 0 1 234.9299 108.1663)" font-size="10px">time t + (1/60)s</text>
		</g>
		
			<rect x="323.218" y="15.538" fill="#CBD0E0" stroke="#010101" stroke-width="0.75" stroke-miterlimit="1" width="14.4" height="14.401"/>
		
			<rect x="337.718" y="15.538" fill="#CBD0E0" stroke="#010101" stroke-width="0.75" stroke-miterlimit="1" width="14.4" height="14.401"/>
		
			<rect x="352.218" y="15.538" fill="#CBD0E0" stroke="#010101" stroke-width="0.75" stroke-miterlimit="1" width="14.4" height="14.401"/>
		
			<rect x="366.718" y="15.538" fill="#CBD0E0" stroke="#010101" stroke-width="0.75" stroke-miterlimit="1" width="14.4" height="14.401"/>
		
			<rect x="381.218" y="15.538" fill="#CBD0E0" stroke="#010101" stroke-width="0.75" stroke-miterlimit="1" width="14.4" height="14.401"/>
		
			<rect x="395.823" y="15.538" fill="#CBD0E0" stroke="#010101" stroke-width="0.75" stroke-miterlimit="1" width="14.4" height="14.401"/>
		
			<rect x="410.218" y="15.538" fill="#CBD0E0" stroke="#010101" stroke-width="0.75" stroke-miterlimit="1" width="14.401" height="14.401"/>
		
			<rect x="424.719" y="15.538" fill="#CBD0E0" stroke="#010101" stroke-width="0.75" stroke-miterlimit="1" width="14.4" height="14.401"/>
		
			<rect x="439.219" y="15.538" fill="#CBD0E0" stroke="#010101" stroke-width="0.75" stroke-miterlimit="1" width="14.4" height="14.401"/>
		
			<rect x="453.719" y="15.538" fill="#CBD0E0" stroke="#010101" stroke-width="0.75" stroke-miterlimit="1" width="14.4" height="14.401"/>
		
			<rect x="468.219" y="15.538" fill="#CBD0E0" stroke="#010101" stroke-width="0.75" stroke-miterlimit="1" width="14.4" height="14.401"/>
		
			<rect x="265.218" y="15.538" fill="#CBD0E0" stroke="#010101" stroke-width="0.75" stroke-miterlimit="1" width="14.4" height="14.401"/>
		
			<rect x="279.718" y="15.538" fill="#CBD0E0" stroke="#010101" stroke-width="0.75" stroke-miterlimit="1" width="14.4" height="14.401"/>
		
			<rect x="294.218" y="15.538" fill="#CBD0E0" stroke="#010101" stroke-width="0.75" stroke-miterlimit="1" width="14.4" height="14.401"/>
		
			<rect x="308.718" y="15.538" fill="#CBD0E0" stroke="#010101" stroke-width="0.75" stroke-miterlimit="1" width="14.4" height="14.401"/>
		
			<rect x="482.719" y="15.538" fill="#CBD0E0" stroke="#010101" stroke-width="0.75" stroke-miterlimit="1" width="14.4" height="14.401"/>
		<g>
			<text transform="matrix(0.8815 0 0 1 269.4786 27.614)" font-size="10px">V</text>
		</g>
		<g>
			<text transform="matrix(0.8815 0 0 1 283.4503 27.614)" font-size="10px">A</text>
		</g>
		<g>
			<text transform="matrix(0.8815 0 0 1 297.3107 27.614)" font-size="10px">M</text>
		</g>
		<g>
			<text transform="matrix(0.8815 0 0 1 312.6349 27.614)" font-size="10px">V</text>
		</g>
		<g>
			<text transform="matrix(0.8815 0 0 1 327.2272 27.614)" font-size="10px">A</text>
		</g>
		<g>
			<text transform="matrix(0.8815 0 0 1 342.1043 27.614)" font-size="10px">V</text>
		</g>
		<g>
			<text transform="matrix(0.8815 0 0 1 356.076 27.614)" font-size="10px">A</text>
		</g>
		<g>
			<text transform="matrix(0.8815 0 0 1 384.5267 27.614)" font-size="10px">...</text>
		</g>
		<g>
			<text transform="matrix(0.8815 0 0 1 414.73 27.614)" font-size="10px">V</text>
		</g>
		<g>
			<text transform="matrix(0.8815 0 0 1 428.7017 27.614)" font-size="10px">A</text>
		</g>
		<g>
			<text transform="matrix(0.8815 0 0 1 443.294 27.614)" font-size="10px">V</text>
		</g>
		<g>
			<text transform="matrix(0.8815 0 0 1 456.6617 27.614)" font-size="10px">V </text>
		</g>
		<g>
			<text transform="matrix(0.8815 0 0 1 487.3557 27.614)" font-size="10px">V</text>
		</g>
		<g>
			<text transform="matrix(0.8815 0 0 1 500.5935 27.614)" font-size="10px">...</text>
		</g>
		<g>
			<path fill="none" stroke="#000000" d="M497.119,40.12c0,5.413-10.372,9.571-39.472,9.571c-7.78,0-15.844-0.264-23.624-0.594
				c-7.78-0.198-15.56-0.462-23.051-0.462c-9.222,0-29.037,0.66-29.037,5.347h-0.063c0-4.686-18.44-5.347-28.524-5.347
				c-8.067,0-16.135,0.264-24.203,0.528c-8.067,0.264-16.135,0.528-23.914,0.528c-26.507,0-37.744-4.026-37.744-9.637"/>
		</g>
		<g>
			<g>
				<line fill="none" stroke="#010101" stroke-miterlimit="1" x1="265.218" y1="78.472" x2="265.218" y2="32.538"/>
				<g>
					<polygon fill="#010101" points="266.962,77.283 265.218,83.788 263.475,77.283 					"/>
				</g>
			</g>
		</g>
		<line fill="none" stroke="#010101" stroke-width="0.75" stroke-miterlimit="1" x1="20.369" y1="98.738" x2="20.369" y2="86.488"/>
		
			<line fill="none" stroke="#010101" stroke-width="0.75" stroke-miterlimit="1" x1="265.218" y1="98.738" x2="265.218" y2="86.488"/>
		<g>
			<text transform="matrix(0.8815 0 0 1 360.8669 65.5802)" font-size="10px">Frame n+1</text>
		</g>
		<g>
			<text transform="matrix(0.8815 0 0 1 523.2733 95.3387)" font-size="10px">Time</text>
		</g>
		<g>
			<line fill="#005695" x1="9.137" y1="91.488" x2="519.757" y2="91.488"/>
			<g>
				<line fill="none" stroke="#010101" stroke-width="2" stroke-miterlimit="1" x1="9.137" y1="91.488" x2="507.354" y2="91.488"/>
				<g>
					<polygon fill="#010101" points="504.58,95.556 519.757,91.488 504.58,87.421 					"/>
				</g>
			</g>
		</g>
	</g>
</g>
</svg>
