<?xml version="1.0" encoding="utf-8"?>

<!DOCTYPE svg PUBLIC "-//W3C//DTD SVG 1.1//EN" "http://www.w3.org/Graphics/SVG/1.1/DTD/svg11.dtd">
<svg version="1.1" id="Layer_1" xmlns="http://www.w3.org/2000/svg" xmlns:xlink="http://www.w3.org/1999/xlink" x="0px" y="0px"
	 width="552px" height="342px" viewBox="0 0 552 342" enable-background="new 0 0 552 342" xml:space="preserve">

<defs>
	<style type="text/css">
	text {
	  font-family: Helvetica, Verdana, ArialUnicodeMS, san-serif
	}
	</style>
</defs>

<g>
   <desc>
	PS 3.17 Part 17: Explanatory Information
   </desc>
</g>

<g>
	<rect x="1" y="1" fill="#F5EED6" width="550" height="340"/>
	<g>
		<rect x="342.812" y="76.664" fill="none" width="170.564" height="248.127"/>
		<text transform="matrix(0.9288 0 0 1 342.8125 82.3887)"><tspan x="0" y="0" font-size="8">Common to all frames of the X-Ray 3D</tspan><tspan x="0" y="70" font-size="8">= 0.20</tspan><tspan x="0" y="84" font-size="8">= 0.20</tspan><tspan x="0" y="126" font-size="8">= same in both volumes</tspan><tspan x="0" y="182" font-size="8">Frame “i” of the X-Ray 3D</tspan><tspan x="0" y="224" font-size="8">= px+30\py-40\pz-50</tspan></text>
		
			<rect x="38.623" y="73.191" fill="#B2CEE7" stroke="#010101" stroke-width="0.75" stroke-linecap="round" stroke-linejoin="round" stroke-miterlimit="1" width="286.332" height="139.637"/>
		
			<rect x="55.398" y="87.189" fill="#86B2D8" stroke="#010101" stroke-width="0.75" stroke-linecap="round" stroke-linejoin="round" stroke-miterlimit="1" width="269.574" height="125.539"/>
		<rect x="42.763" y="76.664" fill="none" width="164.911" height="7.717"/>
		<text transform="matrix(0.9288 0 0 1 42.7671 82.3662)" font-size="8">Shared Functional Group Sequence</text>
		
			<rect x="72.194" y="114.829" fill="#FFFFFF" stroke="#010101" stroke-width="0.75" stroke-linecap="round" stroke-linejoin="round" stroke-miterlimit="1" width="252.761" height="55.906"/>
		
			<rect x="84.153" y="128.876" fill="#86B2D8" stroke="#010101" stroke-width="0.75" stroke-linecap="round" stroke-linejoin="round" stroke-miterlimit="1" width="240.819" height="41.859"/>
		
			<rect x="96.857" y="142.829" fill="#FFFFFF" stroke="#010101" stroke-width="0.75" stroke-linecap="round" stroke-linejoin="round" stroke-miterlimit="1" width="228.115" height="13.953"/>
		<rect x="76.32" y="119.058" fill="none" width="170.795" height="7.717"/>
		<text transform="matrix(0.9288 0 0 1 76.3203 124.7817)" font-size="8">&gt;Pixel Measures Sequence</text>
		<rect x="279.713" y="119.059" fill="none" width="44.984" height="7.716"/>
		<text transform="matrix(0.9288 0 0 1 279.6943 124.7617)" font-size="8">(0028,9110)</text>
		<rect x="279.713" y="76.664" fill="none" width="44.984" height="7.717"/>
		<text transform="matrix(0.9288 0 0 1 279.6943 82.3667)" font-size="8">(5200,9229)</text>
		<rect x="87.486" y="133.574" fill="none" width="108.835" height="7.717"/>
		<text transform="matrix(0.9288 0 0 1 87.4863 139.2964)" font-size="8">Item 1</text>
		<rect x="58.003" y="91.776" fill="none" width="127.731" height="7.721"/>
		<text transform="matrix(0.9288 0 0 1 58.0078 97.478)" font-size="8">Item 1</text>
		<rect x="100.566" y="147.49" fill="none" width="136.597" height="7.717"/>
		<text transform="matrix(0.9288 0 0 1 100.5703 153.1855)" font-size="8">&gt;&gt;Slice Thickness</text>
		<rect x="280.115" y="147.49" fill="none" width="44.582" height="7.717"/>
		<text transform="matrix(0.9288 0 0 1 280.0967 153.1909)" font-size="8">(0018,0050)</text>
		
			<rect x="72.194" y="170.774" fill="#FFFFFF" stroke="#010101" stroke-width="0.75" stroke-linecap="round" stroke-linejoin="round" stroke-miterlimit="1" width="252.761" height="41.954"/>
		
			<rect x="84.153" y="184.821" fill="#86B2D8" stroke="#010101" stroke-width="0.75" stroke-linecap="round" stroke-linejoin="round" stroke-miterlimit="1" width="240.819" height="27.907"/>
		
			<rect x="96.857" y="198.775" fill="#FFFFFF" stroke="#010101" stroke-width="0.75" stroke-linecap="round" stroke-linejoin="round" stroke-miterlimit="1" width="228.115" height="13.953"/>
		<rect x="76.32" y="175.004" fill="none" width="170.795" height="7.717"/>
		<text transform="matrix(0.9288 0 0 1 76.3203 180.7266)" font-size="8">&gt;Plane Orientation Sequence</text>
		<rect x="279.713" y="175.004" fill="none" width="44.984" height="7.717"/>
		<text transform="matrix(0.9288 0 0 1 279.6943 180.707)" font-size="8">(0028,9116)</text>
		<rect x="87.486" y="189.52" fill="none" width="108.835" height="7.717"/>
		<text transform="matrix(0.9288 0 0 1 87.4863 195.2422)" font-size="8">Item 1</text>
		<rect x="100.566" y="203.436" fill="none" width="136.597" height="7.717"/>
		<text transform="matrix(0.9288 0 0 1 100.5703 209.1309)" font-size="8">&gt;&gt;Image Orientation (Patient)</text>
		<rect x="279.713" y="203.436" fill="none" width="44.984" height="7.715"/>
		<text transform="matrix(0.9288 0 0 1 279.6943 209.1377)" font-size="8">(0020,0037)</text>
		
			<rect x="96.857" y="156.782" fill="#FFFFFF" stroke="#010101" stroke-width="0.75" stroke-linecap="round" stroke-linejoin="round" stroke-miterlimit="1" width="228.115" height="13.953"/>
		<rect x="100.566" y="161.443" fill="none" width="136.597" height="7.717"/>
		<text transform="matrix(0.9288 0 0 1 100.5703 167.1387)" font-size="8">&gt;&gt;Pixel Spacing</text>
		<rect x="280.115" y="161.443" fill="none" width="44.582" height="7.717"/>
		<text transform="matrix(0.9288 0 0 1 280.0967 167.144)" font-size="8">(0028,0030)</text>
		
			<rect x="72.194" y="100.792" fill="#FFFFFF" stroke="#010101" stroke-width="0.75" stroke-linecap="round" stroke-linejoin="round" stroke-miterlimit="1" width="252.778" height="14"/>
		<rect x="76.32" y="103.964" fill="none" width="189.98" height="7.717"/>
		<text transform="matrix(0.9288 0 0 1 76.3203 109.687)" font-size="8">...</text>
		<rect x="42.763" y="217.162" fill="none" width="127.731" height="7.721"/>
		<text transform="matrix(0.9288 0 0 1 42.7671 222.8633)" font-size="8">...</text>
		
			<rect x="38.623" y="227.199" fill="#B2CEE7" stroke="#010101" stroke-width="0.75" stroke-linecap="round" stroke-linejoin="round" stroke-miterlimit="1" width="286.332" height="97.592"/>
		
			<rect x="55.398" y="241.197" fill="#86B2D8" stroke="#010101" stroke-width="0.75" stroke-linecap="round" stroke-linejoin="round" stroke-miterlimit="1" width="269.574" height="14"/>
		<rect x="42.763" y="230.672" fill="none" width="164.911" height="7.717"/>
		<text transform="matrix(0.9288 0 0 1 42.7671 236.374)" font-size="8">Per-Frame Functional Groups Sequence</text>
		<rect x="279.713" y="230.672" fill="none" width="44.984" height="7.717"/>
		<text transform="matrix(0.9288 0 0 1 279.6943 236.375)" font-size="8">(5200,9230)</text>
		
			<rect x="72.194" y="241.197" fill="#FFFFFF" stroke="#010101" stroke-width="0.75" stroke-linecap="round" stroke-linejoin="round" stroke-miterlimit="1" width="252.778" height="14"/>
		<rect x="76.32" y="244.369" fill="none" width="189.98" height="7.717"/>
		<text transform="matrix(0.9288 0 0 1 76.3203 250.0918)" font-size="8">...</text>
		
			<rect x="55.398" y="310.791" fill="#86B2D8" stroke="#010101" stroke-width="0.75" stroke-linecap="round" stroke-linejoin="round" stroke-miterlimit="1" width="269.574" height="14"/>
		
			<rect x="72.194" y="310.791" fill="#FFFFFF" stroke="#010101" stroke-width="0.75" stroke-linecap="round" stroke-linejoin="round" stroke-miterlimit="1" width="252.778" height="14"/>
		<rect x="76.32" y="313.963" fill="none" width="189.98" height="7.717"/>
		<text transform="matrix(0.9288 0 0 1 76.3203 319.6855)" font-size="8">...</text>
		
			<rect x="55.398" y="255.572" fill="#86B2D8" stroke="#010101" stroke-width="0.75" stroke-linecap="round" stroke-linejoin="round" stroke-miterlimit="1" width="269.574" height="55.219"/>
		<rect x="58.003" y="260.158" fill="none" width="127.731" height="7.721"/>
		<text transform="matrix(0.9288 0 0 1 58.0078 265.8613)" font-size="8">Item i</text>
		
			<rect x="72.194" y="268.838" fill="#FFFFFF" stroke="#010101" stroke-width="0.75" stroke-linecap="round" stroke-linejoin="round" stroke-miterlimit="1" width="252.761" height="41.953"/>
		
			<rect x="84.153" y="282.885" fill="#86B2D8" stroke="#010101" stroke-width="0.75" stroke-linecap="round" stroke-linejoin="round" stroke-miterlimit="1" width="240.819" height="27.906"/>
		
			<rect x="96.857" y="296.838" fill="#FFFFFF" stroke="#010101" stroke-width="0.75" stroke-linecap="round" stroke-linejoin="round" stroke-miterlimit="1" width="228.115" height="13.953"/>
		<rect x="76.32" y="273.066" fill="none" width="170.795" height="7.717"/>
		<text transform="matrix(0.9288 0 0 1 76.3203 278.7891)" font-size="8">&gt;Plane Position Sequence</text>
		<rect x="279.713" y="273.066" fill="none" width="44.984" height="7.717"/>
		<text transform="matrix(0.9288 0 0 1 279.6943 278.7695)" font-size="8">(0020,9113)</text>
		<rect x="87.486" y="287.582" fill="none" width="108.835" height="7.717"/>
		<text transform="matrix(0.9288 0 0 1 87.4863 293.3047)" font-size="8">Item 1</text>
		<rect x="100.566" y="301.498" fill="none" width="136.597" height="7.717"/>
		<text transform="matrix(0.9288 0 0 1 100.5703 307.1934)" font-size="8">&gt;&gt;Image Position (Patient)</text>
		<rect x="280.115" y="301.498" fill="none" width="44.582" height="7.717"/>
		<text transform="matrix(0.9288 0 0 1 280.0967 307.1992)" font-size="8">(0020,0032)</text>
		<rect x="342.839" y="20.681" fill="none" width="157.383" height="38.524"/>
		<text transform="matrix(0.9288 0 0 1 342.8389 26.4062)"><tspan x="0" y="0" font-size="8">= UID “Z2”</tspan><tspan x="0" y="28" font-size="8">= UID “D”</tspan></text>
		<rect x="42.788" y="62.679" fill="none" width="164.911" height="7.717"/>
		<text transform="matrix(0.9288 0 0 1 42.7925 68.3813)" font-size="8">...</text>
		
			<rect x="38.648" y="17.209" fill="#B2CEE7" stroke="#010101" stroke-width="0.75" stroke-linecap="round" stroke-linejoin="round" stroke-miterlimit="1" width="286.333" height="13.998"/>
		
			<rect x="38.648" y="17.209" fill="#B2CEE7" stroke="#010101" stroke-width="0.75" stroke-linecap="round" stroke-linejoin="round" stroke-miterlimit="1" width="286.333" height="13.998"/>
		<rect x="42.788" y="20.681" fill="none" width="164.911" height="7.717"/>
		<text transform="matrix(0.9288 0 0 1 42.7925 26.3833)" font-size="8">SOP Instance UID</text>
		<rect x="279.739" y="20.681" fill="none" width="44.984" height="7.716"/>
		<text transform="matrix(0.9288 0 0 1 279.7197 26.3838)" font-size="8">(0008,0018)</text>
		
			<rect x="38.648" y="45.207" fill="#B2CEE7" stroke="#010101" stroke-width="0.75" stroke-linecap="round" stroke-linejoin="round" stroke-miterlimit="1" width="286.333" height="13.998"/>
		<rect x="42.788" y="48.679" fill="none" width="164.911" height="7.717"/>
		<text transform="matrix(0.9288 0 0 1 42.7925 54.3813)" font-size="8">Frame of Reference UID</text>
		<rect x="279.739" y="48.679" fill="none" width="44.984" height="7.716"/>
		<text transform="matrix(0.9288 0 0 1 279.7197 54.3813)" font-size="8">(0020,0052)</text>
		<rect x="42.788" y="34.679" fill="none" width="164.911" height="7.717"/>
		<text transform="matrix(0.9288 0 0 1 42.7925 40.3813)" font-size="8">...</text>
	</g>
</g>
</svg>
