<?xml version="1.0" encoding="utf-8"?>

<!DOCTYPE svg PUBLIC "-//W3C//DTD SVG 1.1//EN" "http://www.w3.org/Graphics/SVG/1.1/DTD/svg11.dtd">
<svg version="1.1" id="Layer_1" xmlns="http://www.w3.org/2000/svg" xmlns:xlink="http://www.w3.org/1999/xlink" x="0px" y="0px"
	 width="552px" height="177px" viewBox="0 0 552 177" enable-background="new 0 0 552 177" xml:space="preserve">
<g>
	<rect x="1" y="1" fill="#F5EED6" width="550" height="175"/>
	<g>
		
			<rect x="171.263" y="15.48" fill="#CCDEF0" stroke="#010101" stroke-width="0.75" stroke-linecap="round" stroke-linejoin="round" stroke-miterlimit="1" width="50" height="50"/>
		<g>
			<text transform="matrix(1 0 0 1 183.0869 31.9072)"><tspan x="0" y="0" font-size="6">One Input</tspan><tspan x="9.469" y="7.891" font-size="8">➜</tspan><tspan x="4.674" y="14.181" font-size="6">RBGA</tspan><tspan x="-6.993" y="20.472" font-size="6">(EQUAL_RGB)</tspan></text>
		</g>
		<g>
			<text transform="matrix(1 0 0 1 228.5171 38.1523)" font-size="6">RGB-1</text>
		</g>
		<g>
			<text transform="matrix(1 0 0 1 231.1904 73.0684)" font-size="6">Alpha</text>
		</g>
		<g>
			<g>
				<polyline fill="none" stroke="#005695" stroke-miterlimit="1" points="196.263,65.907 196.263,75.907 253.697,75.907 				"/>
				<g>
					<polygon fill="#005695" points="252.112,78.231 260.785,75.907 252.112,73.583 					"/>
				</g>
			</g>
		</g>
		
			<rect x="171.263" y="111.52" fill="#CCDEF0" stroke="#010101" stroke-width="0.75" stroke-linecap="round" stroke-linejoin="round" stroke-miterlimit="1" width="50" height="50"/>
		<g>
			<text transform="matrix(1 0 0 1 183.0859 131.0918)"><tspan x="0" y="0" font-size="6">One Input</tspan><tspan x="9.469" y="7.891" font-size="8">➜</tspan><tspan x="4.674" y="14.182" font-size="6">RBGA</tspan></text>
		</g>
		<g>
			<text transform="matrix(1 0 0 1 228.5171 133.291)" font-size="6">RGB-2</text>
		</g>
		<g>
			<text transform="matrix(1 0 0 1 231.1904 98.8555)" font-size="6">Alpha</text>
		</g>
		<g>
			<g>
				<polyline fill="none" stroke="#005695" stroke-miterlimit="1" points="196.263,111.092 196.263,101.092 253.697,101.092 				"/>
				<g>
					<polygon fill="#005695" points="252.112,103.416 260.785,101.092 252.112,98.768 					"/>
				</g>
			</g>
		</g>
		<g>
			<g>
				<polyline fill="none" stroke="#005695" stroke-width="2" stroke-miterlimit="1" points="221.535,136.52 286.051,136.52 
					286.025,121.245 				"/>
				<g>
					<polygon fill="#005695" points="288.353,122.826 286.014,114.157 283.704,122.834 					"/>
				</g>
			</g>
		</g>
		<g>
			<g>
				<polyline fill="none" stroke="#005695" stroke-width="2" stroke-miterlimit="1" points="221.535,40.48 286.051,40.48 
					286.025,55.755 				"/>
				<g>
					<polygon fill="#005695" points="283.704,54.167 286.014,62.843 288.353,54.174 					"/>
				</g>
			</g>
		</g>
		
			<rect x="261.013" y="63.73" fill="#CCDEF0" stroke="#010101" stroke-width="0.75" stroke-linecap="round" stroke-linejoin="round" stroke-miterlimit="1" width="50" height="50"/>
		<g>
			<text transform="matrix(1 0 0 1 315.7842 86.4023)" font-size="6">RGB</text>
		</g>
		<g>
			<text transform="matrix(1 0 0 1 340.0039 33.4941)" font-size="6">ICC Input Profile</text>
		</g>
		<g>
			<g>
				<line fill="none" stroke="#005695" stroke-miterlimit="1" x1="362.014" y1="37.322" x2="362.014" y2="56.314"/>
				<g>
					<polygon fill="#005695" points="359.689,54.729 362.014,63.401 364.338,54.729 					"/>
				</g>
			</g>
		</g>
		<g>
			<g>
				<line fill="none" stroke="#005695" stroke-width="2" stroke-miterlimit="1" x1="311.014" y1="88.4" x2="333.926" y2="88.4"/>
				<g>
					<polygon fill="#005695" points="332.341,90.725 341.014,88.4 332.341,86.076 					"/>
				</g>
			</g>
		</g>
		<g>
			<text transform="matrix(1 0 0 1 385.3389 86.0723)" font-size="6">PCS Values</text>
		</g>
		<g>
			<g>
				<line fill="none" stroke="#005695" stroke-width="2" stroke-miterlimit="1" x1="383.014" y1="88.4" x2="421.963" y2="88.4"/>
				<g>
					<polygon fill="#005695" points="420.378,90.725 429.051,88.4 420.378,86.076 					"/>
				</g>
			</g>
		</g>
		<rect x="263.512" y="72.763" fill="none" width="45.001" height="31.935"/>
		<text transform="matrix(1 0 0 1 279.5117 77.0503)"><tspan x="0" y="0" font-size="6">RGB </tspan><tspan x="-8.837" y="7.2" font-size="6">Compositor</tspan><tspan x="-8.339" y="12.69" font-size="6">(one minus </tspan><tspan x="-3.839" y="19.891" font-size="6">Alpha-2 </tspan><tspan x="-7.173" y="27.09" font-size="6">weighting)</tspan></text>
		
			<rect x="341.014" y="63.4" fill="#CCDEF0" stroke="#010101" stroke-width="0.75" stroke-linecap="round" stroke-linejoin="round" stroke-miterlimit="1" width="42" height="50"/>
		<rect x="345.014" y="73.49" fill="none" width="34" height="29.82"/>
		<text transform="matrix(1 0 0 1 353.5098 77.7773)"><tspan x="0" y="0" font-size="6">Profile </tspan><tspan x="-6.674" y="7.2" font-size="6">Connection </tspan><tspan x="-0.004" y="14.4" font-size="6">Space </tspan><tspan x="-5.166" y="21.6" font-size="6">Transform</tspan></text>
		<g>
			<g>
				
					<line fill="none" stroke="#005695" stroke-width="2" stroke-miterlimit="1" x1="153.263" y1="136.588" x2="164.176" y2="136.588"/>
				<g>
					<polygon fill="#005695" points="162.59,138.912 171.263,136.588 162.59,134.264 					"/>
				</g>
			</g>
		</g>
		
			<rect x="122.95" y="125.588" fill="#CCDEF0" stroke="#010101" stroke-width="0.75" stroke-linecap="round" stroke-linejoin="round" stroke-miterlimit="1" width="29.999" height="22"/>
		<g>
			<text transform="matrix(1 0 0 1 132.1147 135.5049)"><tspan x="0" y="0" font-size="6">PET</tspan><tspan x="-0.832" y="5.491" font-size="6">MPR</tspan></text>
		</g>
		<g>
			<g>
				
					<line fill="none" stroke="#005695" stroke-width="2" stroke-miterlimit="1" x1="153.263" y1="40.754" x2="164.176" y2="40.754"/>
				<g>
					<polygon fill="#005695" points="162.59,43.079 171.263,40.754 162.59,38.43 					"/>
				</g>
			</g>
		</g>
		
			<rect x="122.95" y="29.755" fill="#CCDEF0" stroke="#010101" stroke-width="0.75" stroke-linecap="round" stroke-linejoin="round" stroke-miterlimit="1" width="29.999" height="22"/>
		<g>
			<text transform="matrix(1 0 0 1 133.9502 39.6724)"><tspan x="0" y="0" font-size="6">CT</tspan><tspan x="-2.667" y="5.491" font-size="6">MPR</tspan></text>
		</g>
	</g>
</g>
</svg>
