<?xml version="1.0" encoding="utf-8"?>

<!DOCTYPE svg PUBLIC "-//W3C//DTD SVG 1.1//EN" "http://www.w3.org/Graphics/SVG/1.1/DTD/svg11.dtd">
<svg version="1.1" id="Layer_1" xmlns="http://www.w3.org/2000/svg" xmlns:xlink="http://www.w3.org/1999/xlink" x="0px" y="0px"
	 width="502px" height="222px" viewBox="0 0 502 222" enable-background="new 0 0 502 222" xml:space="preserve">

<defs>
	<style type="text/css">
	text {
	  font-family: Helvetica, Verdana, ArialUnicodeMS, san-serif
	}
	</style>
</defs>

<g>
   <desc>
	PS 3.17 Part 17: Explanatory Information
   </desc>
</g>

<g>
	<rect x="1" y="1" fill="#F5EED6" width="500" height="220"/>
	<g>
		<circle fill="#CCDEF0" stroke="#000000" stroke-miterlimit="10" cx="251" cy="110.229" r="82.935"/>
		<path fill="#86B2D8" d="M277.426,114.313c18.464-17.157,29.594-34.678,34.222-52.528c-19.547-2.176-39.015-4.465-70.035,9.552
			C252.253,79.778,265.321,88.802,277.426,114.313z"/>
		
			<path fill="none" stroke="#666666" stroke-width="0.3188" stroke-linecap="round" stroke-linejoin="round" stroke-miterlimit="10" stroke-dasharray="1.2736,0.9552" d="
			M251,191.996c-32.388,5.458-58.644-26.987-58.644-72.469S218.612,32.752,251,27.294"/>
		
			<path fill="none" stroke="#666666" stroke-width="0.3188" stroke-linecap="round" stroke-linejoin="round" stroke-miterlimit="10" stroke-dasharray="1.2735,0.9551" d="
			M251,191.996c-11.855,7.455-21.465-23.371-21.465-68.853c0-45.48,9.609-88.394,21.465-95.85"/>
		
			<path fill="none" stroke="#666666" stroke-width="0.3188" stroke-linecap="round" stroke-linejoin="round" stroke-miterlimit="10" stroke-dasharray="1.2735,0.9551" d="
			M251,191.996c11.855,7.455,21.465-23.371,21.465-68.853c0-45.48-9.609-88.394-21.465-95.85"/>
		
			<path fill="none" stroke="#666666" stroke-width="0.3188" stroke-linecap="round" stroke-linejoin="round" stroke-miterlimit="10" stroke-dasharray="1.2736,0.9552" d="
			M251,191.996c32.388,5.458,58.644-26.987,58.644-72.469S283.388,32.752,251,27.294"/>
		
			<path fill="none" stroke="#666666" stroke-width="0.3188" stroke-linecap="round" stroke-linejoin="round" stroke-miterlimit="10" stroke-dasharray="1.2752,0.9564" d="
			M251,191.996c44.243,1.997,80.109-33.253,80.109-78.734c0-45.48-35.866-83.97-80.109-85.968"/>
		
			<path fill="none" stroke="#666666" stroke-width="0.3188" stroke-linecap="round" stroke-linejoin="round" stroke-miterlimit="10" stroke-dasharray="1.2752,0.9564" d="
			M251,27.294c-44.243,1.998-80.109,40.487-80.109,85.968c0,45.481,35.866,80.731,80.109,78.734"/>
		
			<path fill="none" stroke="#666666" stroke-width="0.3188" stroke-linecap="round" stroke-linejoin="round" stroke-miterlimit="10" stroke-dasharray="1.2715,0.9536" d="
			M179.253,151.671c0.798,2.887,7.784,5.734,20.96,7.938c28.049,4.692,73.525,4.692,101.574,0
			c12.271-2.054,19.174-4.665,20.707-7.347"/>
		
			<path fill="none" stroke="#666666" stroke-width="0.3188" stroke-linecap="round" stroke-linejoin="round" stroke-miterlimit="10" stroke-dasharray="1.2749,0.9562" d="
			M173.191,138.933c1.039,3.087,8.606,6.124,22.702,8.482c30.435,5.092,79.779,5.092,110.214,0
			c13.315-2.228,20.805-5.062,22.47-7.971"/>
		
			<path fill="none" stroke="#666666" stroke-width="0.3188" stroke-linecap="round" stroke-linejoin="round" stroke-miterlimit="10" stroke-dasharray="1.2746,0.956" d="
			M169.325,124.428c0,3.497,7.974,6.995,23.922,9.663c31.896,5.336,83.61,5.336,115.506,0c15.545-2.602,23.514-5.99,23.907-9.398"/>
		
			<path fill="none" stroke="#666666" stroke-width="0.3188" stroke-linecap="round" stroke-linejoin="round" stroke-miterlimit="10" stroke-dasharray="1.2746,0.956" d="
			M169.387,95.496c-0.854,3.673,7.1,7.393,23.86,10.197c31.896,5.337,83.61,5.337,115.506,0c15.948-2.668,23.923-6.166,23.923-9.663
			"/>
		
			<path fill="none" stroke="#666666" stroke-width="0.3188" stroke-linecap="round" stroke-linejoin="round" stroke-miterlimit="10" stroke-dasharray="1.2749,0.9562" d="
			M173.13,81.735c-0.845,3.512,6.743,7.068,22.763,9.748c30.435,5.093,79.779,5.093,110.214,0
			c16.064-2.688,23.649-6.257,22.755-9.776"/>
		
			<path fill="none" stroke="#666666" stroke-width="0.3188" stroke-linecap="round" stroke-linejoin="round" stroke-miterlimit="10" stroke-dasharray="1.2715,0.9536" d="
			M179.593,68.051c-2.25,3.491,4.624,7.116,20.62,9.793c28.049,4.693,73.525,4.693,101.574,0
			c14.024-2.347,21.037-5.422,21.037-8.498"/>
		
			<path fill="none" stroke="#666666" stroke-width="0.3188" stroke-linecap="round" stroke-linejoin="round" stroke-miterlimit="10" stroke-dasharray="1.2772,0.9579" d="
			M188.056,56.225c-2.596,3.18,3.41,6.519,18.02,8.963c24.811,4.151,65.037,4.151,89.848,0c13.956-2.335,20.062-5.486,18.316-8.535"
			/>
		
			<path fill="none" stroke="#666666" stroke-width="0.3188" stroke-linecap="round" stroke-linejoin="round" stroke-miterlimit="10" d="
			M333.936,110.229c0,3.551-8.098,7.103-24.292,9.812c-32.388,5.419-84.899,5.419-117.287,0c-16.195-2.71-24.292-6.261-24.292-9.812
			"/>
		
			<path fill="none" stroke="#666666" stroke-width="0.3188" stroke-linecap="round" stroke-linejoin="round" stroke-miterlimit="10" d="
			M333.936,110.606c0-3.551-8.098-7.103-24.292-9.812c-32.388-5.419-84.899-5.419-117.287,0c-16.195,2.71-24.292,6.261-24.292,9.812
			"/>
		<text transform="matrix(1 0 0 1 227.4336 70.854)"><tspan x="0" y="0" font-size="12">x</tspan><tspan x="6" y="4" font-size="10">1</tspan></text>
		<text transform="matrix(1 0 0 1 268.0586 55.229)"><tspan x="0" y="0" fill="#00AEEF" font-size="12">G</tspan><tspan x="9.334" y="4" fill="#00AEEF" font-size="10">b</tspan></text>
		<text transform="matrix(1 0 0 1 301.8086 93.729)"><tspan x="0" y="0" fill="#ED1C24" font-size="12">G</tspan><tspan x="9.334" y="4" fill="#ED1C24" font-size="10">c</tspan></text>
		<text transform="matrix(1 0 0 1 248.5586 94.0747)"><tspan x="0" y="0" fill="#0DB14B" font-size="12">G</tspan><tspan x="9.334" y="4" fill="#0DB14B" font-size="10">a</tspan></text>
		<text transform="matrix(1 0 0 1 280.3223 120.8535)"><tspan x="0" y="0" font-size="12">x</tspan><tspan x="6" y="4" font-size="10">2</tspan></text>
		<text transform="matrix(1 0 0 1 314.5312 59.229)"><tspan x="0" y="0" font-size="12">x</tspan><tspan x="6" y="4" font-size="10">3</tspan></text>
		<g>
			<path d="M264.289,101.834l-1.379,3.802c0.096,0.576,0.264,0.912,0.491,1.14c0.12,0.107,0.432,0.42,0.804,0.048
				c0.252-0.252,0.264-0.636,0.288-0.792h0.216l-0.024,0.708c-0.012,0.228-0.132,0.695-0.455,0.96
				c-0.324,0.264-0.588,0.167-0.804-0.036c-0.288-0.276-0.479-0.696-0.768-1.476c-0.204,0.348-0.468,1.176-1.535,1.523
				c-0.552,0.18-1.14,0.312-1.931-0.036c-0.444-0.204-0.78-0.492-1.02-0.899c-0.312-0.54-0.552-1.344-0.372-2.687
				c0.12-0.876,0.443-1.499,1.308-2.087c0.371-0.252,1.079-0.384,1.583-0.3c0.563,0.096,1.02,0.479,1.295,0.936
				c0.228,0.384,0.396,0.863,0.456,1.331h0.023l0.768-2.135H264.289z M262.13,105c-0.084-0.6-0.216-1.535-0.527-2.039
				c-0.191-0.312-0.516-0.623-0.863-0.731c-0.708-0.203-0.924,0-1.188,0.336c-0.3,0.384-0.443,0.899-0.527,1.535
				c-0.084,0.66-0.036,1.331,0.084,2.003c0.06,0.348,0.18,0.731,0.468,1.02c0.264,0.264,0.419,0.336,0.743,0.36
				c0.204,0.012,0.479-0.097,0.743-0.324c0.24-0.204,0.564-0.792,0.708-1.176L262.13,105z"/>
		</g>
		<g>
			<path d="M259.623,69.027l-2.446,5.229c0.048,0.384,0.384,1.763,0.107,2.687c-0.168,0.563-0.407,0.731-0.755,0.707
				c-0.336-0.023-0.564-0.359-0.564-0.839c0-0.84,0.492-1.991,0.72-2.579c-0.191-1.415-0.288-1.787-0.504-2.591
				c-0.144-0.552-0.396-1.211-0.575-1.427c-0.132-0.156-0.636-0.54-1.14-0.12c-0.384,0.324-0.359,0.756-0.396,1.056h-0.192
				c0.013-0.372-0.048-0.815,0.204-1.499c0.3-0.815,1.115-0.708,1.344-0.636c0.371,0.107,0.731,0.407,1.031,1.619
				c0.191,0.839,0.384,1.679,0.54,2.614h0.023l1.355-4.222H259.623z"/>
		</g>
		<line fill="#6ABD45" x1="241.78" y1="71.307" x2="251.082" y2="110.151"/>
		
			<line fill="none" stroke="#000000" stroke-width="0.5" stroke-dasharray="2,1" x1="241.78" y1="71.307" x2="251.082" y2="110.151"/>
		<path fill="none" stroke="#000000" stroke-width="0.5" stroke-dasharray="2,1" d="M251.076,67.53
			c1.48,2.58,1.08,8.323-1.342,10.208"/>
		<path fill="none" stroke="#00AEEF" stroke-width="0.8" d="M241.613,71.337c31.02-14.018,50.488-11.728,70.035-9.552"/>
		<path fill="none" stroke="#ED1C24" stroke-width="0.8" d="M311.647,61.785c-4.628,17.85-15.758,35.371-34.222,52.528"/>
		<path fill="none" stroke="#0DB14B" stroke-width="0.8" d="M277.426,114.313c-12.104-25.512-25.173-34.536-35.813-42.976"/>
		<line fill="#6ABD45" x1="277.256" y1="114.018" x2="251.082" y2="110.151"/>
		
			<line fill="none" stroke="#000000" stroke-width="0.5" stroke-dasharray="2,1" x1="277.256" y1="114.018" x2="251.082" y2="110.151"/>
		<path fill="none" stroke="#000000" stroke-width="0.5" stroke-dasharray="2,1" d="M249.646,104.155
			c3.191-0.804,6.419,1.162,7.217,4.399c0.197,0.804,0.229,1.644,0.093,2.459"/>
		
			<line fill="none" stroke="#000000" stroke-width="3" stroke-linecap="round" stroke-linejoin="round" stroke-miterlimit="10" x1="251" y1="110.229" x2="251" y2="110.229"/>
		
			<line fill="none" stroke="#000000" stroke-width="3" stroke-linecap="round" stroke-linejoin="round" stroke-miterlimit="10" x1="277.25" y1="113.979" x2="277.25" y2="113.979"/>
		
			<line fill="none" stroke="#000000" stroke-width="3" stroke-linecap="round" stroke-linejoin="round" stroke-miterlimit="10" x1="241.625" y1="70.854" x2="241.625" y2="70.854"/>
		
			<line fill="none" stroke="#000000" stroke-width="3" stroke-linecap="round" stroke-linejoin="round" stroke-miterlimit="10" x1="311.647" y1="61.785" x2="311.647" y2="61.785"/>
	</g>
</g>
</svg>
