<?xml version="1.0" encoding="utf-8"?>

<!DOCTYPE svg PUBLIC "-//W3C//DTD SVG 1.1//EN" "http://www.w3.org/Graphics/SVG/1.1/DTD/svg11.dtd">
<svg version="1.1" id="Layer_1" xmlns="http://www.w3.org/2000/svg" xmlns:xlink="http://www.w3.org/1999/xlink" x="0px" y="0px"
	 width="512px" height="382px" viewBox="0 0 512 382" enable-background="new 0 0 512 382" xml:space="preserve">

<defs>
	<style type="text/css">
	text {
	  font-family: Helvetica, Verdana, ArialUnicodeMS, san-serif
	}
	</style>
</defs>

<g>
   <desc>
	PS 3.17 Explanatory Information
   </desc>
</g>

<g>
	<rect x="1" y="1" fill="#F5EED6" width="510" height="380"/>
	<g>
		<g>
			<g>
				
					<line fill="none" stroke="#000000" stroke-width="0.5" stroke-linecap="round" stroke-miterlimit="1" x1="468.6" y1="71.525" x2="468.6" y2="367.299"/>
				
					<line fill="none" stroke="#000000" stroke-width="0.5" stroke-linecap="round" stroke-miterlimit="1" x1="354.6" y1="71.525" x2="354.6" y2="367.299"/>
				
					<line fill="none" stroke="#000000" stroke-width="0.5" stroke-linecap="round" stroke-miterlimit="1" x1="227.599" y1="71.525" x2="227.599" y2="367.299"/>
				
					<line fill="none" stroke="#000000" stroke-width="0.5" stroke-linecap="round" stroke-miterlimit="1" x1="110.599" y1="71.525" x2="110.599" y2="367.299"/>
			</g>
			<g>
				<g>
					
						<line fill="none" stroke="#005695" stroke-linecap="round" stroke-miterlimit="1" x1="240.729" y1="152.519" x2="468.633" y2="152.519"/>
					<g>
						<polygon fill="#005695" points="242.71,155.424 231.869,152.519 242.71,149.614 						"/>
					</g>
				</g>
			</g>
			<g>
				<g>
					
						<line fill="none" stroke="#005695" stroke-linecap="round" stroke-miterlimit="1" x1="114.737" y1="180.441" x2="214.07" y2="180.441"/>
					<g>
						<polygon fill="#005695" points="212.089,183.347 222.93,180.441 212.089,177.536 						"/>
					</g>
				</g>
			</g>
			<g>
				<g>
					
						<line fill="none" stroke="#005695" stroke-linecap="round" stroke-miterlimit="1" x1="114.737" y1="284.229" x2="213.486" y2="284.229"/>
					<g>
						<polygon fill="#005695" points="211.505,287.135 222.346,284.229 211.505,281.324 						"/>
					</g>
				</g>
			</g>
			<g>
				<g>
					<polyline fill="none" stroke="#005695" stroke-linecap="round" stroke-miterlimit="1" points="232.42,204.577 246.8,204.561 
						246.8,215.275 241.323,215.275 					"/>
					<g>
						<polygon fill="#005695" points="243.305,212.37 232.464,215.275 243.305,218.181 						"/>
					</g>
				</g>
			</g>
			<g>
				<g>
					
						<line fill="none" stroke="#005695" stroke-linecap="round" stroke-miterlimit="1" x1="232.422" y1="335.066" x2="340.99" y2="335.066"/>
					<g>
						<polygon fill="#005695" points="339.009,337.972 349.85,335.066 339.009,332.161 						"/>
					</g>
				</g>
			</g>
		</g>
		<rect x="15.4" y="73.531" opacity="0.35" fill="#0DB14B" width="481.199" height="145.117"/>
		<rect x="15.4" y="306.32" opacity="0.35" fill="#0DB14B" width="481.199" height="53.678"/>
		<rect x="15.4" y="218.648" opacity="0.15" fill="#0DB14B" width="481.199" height="87.672"/>
		<text transform="matrix(1 0 0 1 19.6802 85.0791)" font-size="9">Preparation</text>
		<text transform="matrix(1 0 0 1 19.6802 230.2012)" font-size="9">Administration</text>
		<text transform="matrix(1 0 0 1 19.6802 317.5234)" font-size="9">Contrast Report Use</text>
		
			<rect x="440.6" y="21.402" fill="#CCDEF0" stroke="#010101" stroke-width="0.75" stroke-linecap="round" stroke-linejoin="round" stroke-miterlimit="1" width="56" height="30.289"/>
		<text transform="matrix(1 0 0 1 461.0977 39.0542)" font-size="9">RIS</text>
		
			<rect x="318.6" y="21.402" fill="#CCDEF0" stroke="#010101" stroke-width="0.75" stroke-linecap="round" stroke-linejoin="round" stroke-miterlimit="1" width="72" height="30.289"/>
		<text transform="matrix(1 0 0 1 323.334 33.6548)"><tspan x="0" y="0" font-size="9">Contrast Usage</tspan><tspan x="8.258" y="10.8" font-size="9">Consumers</tspan></text>
		
			<rect x="186.599" y="21.402" fill="#CCDEF0" stroke="#010101" stroke-width="0.75" stroke-linecap="round" stroke-linejoin="round" stroke-miterlimit="1" width="82.001" height="30.289"/>
		<text transform="matrix(1 0 0 1 193.5811 33.6543)"><tspan x="0" y="0" font-size="9">Contrast Infusion</tspan><tspan x="16.258" y="10.8" font-size="9">Manager</tspan></text>
		<text transform="matrix(1 0 0 1 114.4097 39.0547)" font-size="9">Operator</text>
		<text transform="matrix(1 0 0 1 297.5918 148.0327)" fill="#010101" font-size="7">Patient and Study context</text>
		<text transform="matrix(1 0 0 1 248.9556 207.8291)"><tspan x="0" y="0" fill="#010101" font-size="7">Create explict</tspan><tspan x="0" y="8.399" fill="#010101" font-size="7">Contrast Usage plan</tspan></text>
		<text transform="matrix(1 0 0 1 122.8789 177.1992)" fill="#010101" font-size="7">Patient / Study selection</text>
		<text transform="matrix(1 0 0 1 117.8389 279.9717)" fill="#010101" font-size="7">Register contrast usage details</text>
		
			<rect x="105.755" y="180.208" fill="#CCDEF0" stroke="#010101" stroke-width="0.75" stroke-linecap="round" stroke-linejoin="round" stroke-miterlimit="1" width="9.5" height="104.021"/>
		
			<rect x="463.883" y="137.352" fill="#CCDEF0" stroke="#010101" stroke-width="0.75" stroke-linecap="round" stroke-linejoin="round" stroke-miterlimit="1" width="9.5" height="15.167"/>
		
			<rect x="222.844" y="152.116" fill="#CCDEF0" stroke="#010101" stroke-width="0.75" stroke-linecap="round" stroke-linejoin="round" stroke-miterlimit="1" width="9.5" height="15.167"/>
		<text transform="matrix(1 0 0 1 239.8833 330.5664)" fill="#010101" font-size="7">Imaging Agent Administration SR</text>
		
			<rect x="349.85" y="335.063" fill="#CCDEF0" stroke="#010101" stroke-width="0.75" stroke-linecap="round" stroke-linejoin="round" stroke-miterlimit="1" width="9.5" height="15.168"/>
		
			<rect x="222.93" y="211.573" fill="#CCDEF0" stroke="#010101" stroke-width="0.75" stroke-linecap="round" stroke-linejoin="round" stroke-miterlimit="1" width="9.494" height="123.492"/>
		
			<rect x="222.93" y="180.441" fill="#CCDEF0" stroke="#010101" stroke-width="0.75" stroke-linecap="round" stroke-linejoin="round" stroke-miterlimit="1" width="9.494" height="25.127"/>
		<g>
			
				<path fill="#FFFFFF" stroke="#010101" stroke-width="0.72" stroke-linecap="round" stroke-linejoin="round" stroke-miterlimit="3" d="
				M227.946,234.978H20.471v30.549h215.165V243.98L227.946,234.978"/>
			
				<path fill="none" stroke="#010101" stroke-width="0.72" stroke-linecap="round" stroke-linejoin="round" stroke-miterlimit="3" d="
				M227.946,234.978v9h7.689"/>
			<rect x="23.918" y="238.477" fill="none" width="21.98" height="7.771"/>
			<text transform="matrix(1 0 0 1 23.917 243.4814)" fill="#010101" font-size="7">Note</text>
			<g>
				<rect x="23.917" y="248.52" fill="none" width="212.919" height="16.346"/>
				<text transform="matrix(1 0 0 1 23.917 253.1729)"><tspan x="0" y="0" fill="#010101" font-size="6.5">As many or as few details as possible - since it’s manual, only limited </tspan><tspan x="0" y="7.8" fill="#010101" font-size="6.5">information is expected. (e.g., total volume, average flow rate, etc.)</tspan></text>
			</g>
		</g>
		<g>
			
				<path fill="#FFFFFF" stroke="#010101" stroke-width="0.72" stroke-linecap="round" stroke-linejoin="round" stroke-miterlimit="3" d="
				M227.946,89.842H20.471v47.682h215.165V98.844L227.946,89.842"/>
			
				<path fill="none" stroke="#010101" stroke-width="0.72" stroke-linecap="round" stroke-linejoin="round" stroke-miterlimit="3" d="
				M227.946,89.842v9h7.689"/>
			<rect x="23.918" y="93.341" fill="none" width="21.98" height="7.771"/>
			<text transform="matrix(1 0 0 1 23.917 98.3472)" fill="#010101" font-size="7">Note</text>
			<g>
				<rect x="23.723" y="102.783" fill="none" width="212.921" height="30.913"/>
				<text transform="matrix(1 0 0 1 23.7217 107.791)"><tspan x="0" y="0" fill="#010101" font-size="7">The procedure details contain information expected by the infusion </tspan><tspan x="0" y="8.4" fill="#010101" font-size="7">informer / infusion action informer may use procedure code, </tspan><tspan x="0" y="16.8" fill="#010101" font-size="7">procedure name or explicit contrast reference. The mechanism that </tspan><tspan x="0" y="25.2" fill="#010101" font-size="7">steers this information into the Infusion Manager is not addressed. </tspan></text>
			</g>
		</g>
		<g>
			<g>
				
					<line fill="none" stroke="#000000" stroke-width="0.5" stroke-linecap="round" stroke-miterlimit="1" x1="110.599" y1="51.445" x2="110.599" y2="52.945"/>
				
					<line fill="none" stroke="#000000" stroke-width="0.5" stroke-linecap="round" stroke-miterlimit="1" stroke-dasharray="3.0687,3.0687" x1="110.599" y1="56.014" x2="110.599" y2="66.755"/>
				
					<line fill="none" stroke="#000000" stroke-width="0.5" stroke-linecap="round" stroke-miterlimit="1" x1="110.599" y1="68.289" x2="110.599" y2="69.789"/>
			</g>
		</g>
		<g>
			<g>
				
					<line fill="none" stroke="#000000" stroke-width="0.5" stroke-linecap="round" stroke-miterlimit="1" x1="227.594" y1="51.445" x2="227.594" y2="52.945"/>
				
					<line fill="none" stroke="#000000" stroke-width="0.5" stroke-linecap="round" stroke-miterlimit="1" stroke-dasharray="3.0687,3.0687" x1="227.594" y1="56.014" x2="227.594" y2="66.755"/>
				
					<line fill="none" stroke="#000000" stroke-width="0.5" stroke-linecap="round" stroke-miterlimit="1" x1="227.594" y1="68.289" x2="227.594" y2="69.789"/>
			</g>
		</g>
		<g>
			<g>
				
					<line fill="none" stroke="#000000" stroke-width="0.5" stroke-linecap="round" stroke-miterlimit="1" x1="354.595" y1="51.445" x2="354.595" y2="52.945"/>
				
					<line fill="none" stroke="#000000" stroke-width="0.5" stroke-linecap="round" stroke-miterlimit="1" stroke-dasharray="3.0687,3.0687" x1="354.595" y1="56.014" x2="354.595" y2="66.755"/>
				
					<line fill="none" stroke="#000000" stroke-width="0.5" stroke-linecap="round" stroke-miterlimit="1" x1="354.595" y1="68.289" x2="354.595" y2="69.789"/>
			</g>
		</g>
		<g>
			<g>
				
					<line fill="none" stroke="#000000" stroke-width="0.5" stroke-linecap="round" stroke-miterlimit="1" x1="468.494" y1="51.445" x2="468.494" y2="52.945"/>
				
					<line fill="none" stroke="#000000" stroke-width="0.5" stroke-linecap="round" stroke-miterlimit="1" stroke-dasharray="3.0687,3.0687" x1="468.494" y1="56.014" x2="468.494" y2="66.755"/>
				
					<line fill="none" stroke="#000000" stroke-width="0.5" stroke-linecap="round" stroke-miterlimit="1" x1="468.494" y1="68.289" x2="468.494" y2="69.789"/>
			</g>
		</g>
		<g>
			<polygon fill="#B2CEE7" stroke="#000000" stroke-width="0.25" stroke-linecap="round" stroke-linejoin="round" points="
				101.592,39.278 101.46,39.607 101.41,40.42 101.482,41.161 101.811,42.456 101.836,42.53 102.071,42.939 102.201,43.04 
				102.248,43.062 102.32,43.066 102.398,43.063 102.474,43.042 102.527,43.016 102.552,42.988 102.654,42.857 102.778,42.396 
				102.727,41.061 102.577,40.32 102.293,39.531 102.269,39.482 102.045,39.207 101.993,39.198 101.815,39.153 101.635,39.251 			
				"/>
			<polygon fill="#B2CEE7" stroke="#000000" stroke-width="0.25" stroke-linecap="round" stroke-linejoin="round" points="
				102.784,38.416 102.554,38.081 102.198,37.876 101.789,37.836 101.405,37.988 101.124,38.291 100.999,38.691 101.053,39.097 
				101.076,39.148 101.306,39.483 101.663,39.688 102.073,39.715 102.457,39.576 102.751,39.272 102.878,38.872 102.811,38.465 			
				"/>
			<polygon fill="#B2CEE7" stroke="#000000" stroke-width="0.25" stroke-linecap="round" stroke-linejoin="round" points="
				94.375,39.146 94.533,39.383 94.636,40.097 94.654,40.271 94.629,40.981 94.372,42.224 94.128,42.653 94.074,42.751 
				93.966,42.83 93.895,42.878 93.815,42.904 93.722,42.904 93.663,42.878 93.567,42.829 93.51,42.752 93.355,42.377 93.311,41.176 
				93.31,40.979 93.414,40.268 93.665,39.502 93.745,39.379 93.925,39.13 94.019,39.079 94.124,39.053 94.229,39.053 94.324,39.081 
							"/>
			<polygon fill="#B2CEE7" stroke="#000000" stroke-width="0.25" stroke-linecap="round" stroke-linejoin="round" points="
				94.883,39.333 95.089,39.018 95.133,38.619 94.985,38.237 94.685,37.937 94.299,37.799 93.894,37.825 93.559,38.012 
				93.459,38.14 93.254,38.469 93.212,38.869 93.361,39.25 93.662,39.536 94.045,39.688 94.451,39.663 94.787,39.477 			"/>
			<polygon fill="#B2CEE7" stroke="#000000" stroke-width="0.25" stroke-linecap="round" stroke-linejoin="round" points="
				95.666,36.918 95.39,37.192 95.29,37.317 94.729,39.884 94.758,41.135 95.041,42.051 95.316,42.426 95.415,42.547 95.548,42.625 
				96.302,42.89 97.397,43.056 98.618,43.042 99.707,42.886 100.424,42.607 100.572,42.53 100.671,42.421 100.907,42.045 
				101.206,41.129 101.251,39.865 100.699,37.3 100.599,37.175 100.311,36.915 100.213,36.845 99.504,36.644 98.513,36.538 
				97.424,36.539 96.452,36.659 95.751,36.861 			"/>
			<polyline fill="#B2CEE7" stroke="#000000" stroke-width="0.25" stroke-linecap="round" stroke-linejoin="round" points="
				102.222,37.456 102.222,37.469 102.17,37.623 102.269,38.014 102.269,38.015 102.501,38.465 102.754,38.899 103.04,39.201 
				103.209,39.232 103.389,39.18 105.924,38.114 108.619,36.536 108.978,36.259 109.151,36.058 109.18,35.903 109.126,35.723 
				108.977,35.398 108.772,35.011 108.545,34.628 108.346,34.326 108.218,34.173 108.067,34.121 107.811,34.151 107.382,34.321 
				104.611,35.754 102.37,37.342 102.222,37.456 102.269,38.014 102.269,38.015 			"/>
			<polygon fill="#B2CEE7" stroke="#000000" stroke-width="0.25" stroke-linecap="round" stroke-linejoin="round" points="
				99.806,37.272 98.993,37.83 98.693,37.952 98.257,38.011 97.757,38.011 97.32,37.954 97.014,37.832 96.208,37.275 96.025,37.02 
				95.523,36.052 95.519,34.961 96.003,33.971 96.208,33.745 97.01,33.158 97.315,33.059 97.75,33.007 98.237,33.007 98.688,33.058 
				98.998,33.157 99.781,33.742 100.009,33.968 100.49,34.958 100.469,36.048 99.964,37.017 			"/>
			<polygon fill="#B2CEE7" stroke="#000000" stroke-width="0.25" stroke-linecap="round" stroke-linejoin="round" points="
				87.135,36.382 87.496,36.642 90.189,38.167 92.724,39.182 92.904,39.232 93.06,39.199 93.355,38.892 93.407,38.818 
				93.489,38.668 93.593,38.47 93.709,38.268 93.788,38.106 93.822,38.002 93.919,37.601 93.916,37.556 93.848,37.4 93.712,37.275 
				91.43,35.729 88.641,34.353 88.225,34.201 87.958,34.173 87.819,34.229 87.675,34.35 87.474,34.626 87.261,34.992 87.059,35.397 
				86.914,35.749 86.865,35.974 86.908,36.127 87.067,36.313 			"/>
			<polygon fill="#B2CEE7" stroke="#000000" stroke-width="0.25" stroke-linecap="round" stroke-linejoin="round" points="
				86.123,33.846 86.55,33.663 87.033,33.688 87.471,33.921 87.781,34.323 87.907,34.804 87.824,35.265 87.542,35.623 
				87.388,35.768 86.959,35.949 86.478,35.922 86.042,35.678 85.718,35.29 85.59,34.81 85.67,34.347 85.952,33.974 			"/>
			<polygon fill="#B2CEE7" stroke="#000000" stroke-width="0.25" stroke-linecap="round" stroke-linejoin="round" points="
				109.276,33.562 109.768,33.641 110.174,33.926 110.417,34.377 110.419,34.506 110.423,34.989 110.215,35.418 110.121,35.517 
				109.965,35.625 109.765,35.743 109.565,35.822 109.409,35.854 109.328,35.848 108.824,35.77 108.417,35.474 108.187,35.037 
				108.167,34.528 108.183,34.426 108.388,33.996 108.471,33.898 108.64,33.792 108.774,33.712 108.827,33.686 109.027,33.593 
				109.181,33.559 			"/>
			<polygon fill="#B2CEE7" stroke="#000000" stroke-width="0.25" stroke-linecap="round" stroke-linejoin="round" points="
				86.43,33.49 86.511,33.361 88.566,31.178 89.964,29.726 90.167,29.574 91.479,28.721 91.833,28.642 92.063,28.667 92.315,28.746 
				92.645,28.992 92.981,29.33 93.265,29.727 93.458,30.083 93.491,30.337 93.488,30.568 93.36,30.903 92.365,32.09 92.171,32.265 
				90.566,33.459 88.154,35.212 88.007,35.271 87.871,35.263 87.594,35.216 87.242,35.01 86.886,34.677 86.602,34.278 
				86.432,33.916 86.43,33.64 			"/>
			<polygon fill="#B2CEE7" stroke="#000000" stroke-width="0.25" stroke-linecap="round" stroke-linejoin="round" points="
				109.638,33.533 109.554,33.308 109.459,33.178 107.399,31.003 106,29.557 104.664,28.72 104.302,28.641 104.073,28.637 
				103.866,28.663 103.563,28.821 103.213,29.124 102.887,29.503 102.655,29.886 102.55,30.209 102.552,30.418 102.604,30.641 
				102.749,30.994 103.75,32.171 105.372,33.343 107.803,35.069 107.938,35.142 108.186,35.192 108.316,35.17 108.643,35.042 
				109.002,34.762 109.332,34.383 109.56,33.996 109.637,33.665 			"/>
			<polygon fill="#B2CEE7" stroke="#000000" stroke-width="0.25" stroke-linecap="round" stroke-linejoin="round" points="
				95.774,33.897 95.367,33.257 95.21,32.249 94.702,28.974 94.988,26.762 95.54,26.124 95.796,25.978 96.662,25.615 97.087,25.544 
				97.679,25.513 98.343,25.513 98.952,25.543 99.383,25.614 100.243,25.976 100.523,26.122 101.074,26.759 101.339,28.971 
				100.82,32.245 100.648,33.241 100.239,33.894 100.042,34.097 99.453,34.279 99.021,34.402 98.384,34.474 97.67,34.474 
				97.017,34.403 96.58,34.281 95.995,34.099 			"/>
			<polygon fill="#B2CEE7" stroke="#000000" stroke-width="0.25" stroke-linecap="round" stroke-linejoin="round" points="
				92.779,27.416 92.273,27.857 92.034,28.492 92.085,29.196 92.419,29.81 92.979,30.238 93.645,30.386 94.302,30.216 
				94.809,29.781 94.961,29.633 95.217,29.015 95.184,28.311 94.838,27.694 94.278,27.265 93.61,27.117 92.953,27.291 			"/>
			<polygon fill="#B2CEE7" stroke="#000000" stroke-width="0.25" stroke-linecap="round" stroke-linejoin="round" points="
				103.469,27.495 103.898,28.076 104.026,28.786 103.842,29.48 103.365,30.037 102.706,30.338 101.994,30.316 101.362,29.986 
				100.948,29.42 100.82,28.712 101.001,28.007 101.463,27.45 102.122,27.147 102.835,27.167 102.861,27.171 			"/>
			<polygon fill="#B2CEE7" stroke="#000000" stroke-width="0.25" stroke-linecap="round" stroke-linejoin="round" points="
				98.742,25.917 99.307,25.46 99.634,24.786 99.637,24.047 99.33,23.381 98.764,22.907 98.687,22.875 98.038,22.747 97.395,22.875 
				97.323,22.92 96.756,23.382 96.433,24.048 96.434,24.799 96.758,25.461 97.323,25.917 97.397,25.968 97.598,26 98.032,26.075 
				98.487,26 98.672,25.967 			"/>
			<polygon fill="#B2CEE7" stroke="#000000" stroke-width="0.25" stroke-linecap="round" stroke-linejoin="round" points="
				96.125,23.403 95.774,23.107 95.519,22.6 95.342,21.812 94.759,18.179 95.013,16.854 95.979,15.458 96.888,14.906 98.063,14.7 
				99.25,14.906 100.144,15.458 101.106,16.853 101.355,18.178 100.749,21.81 100.569,22.599 100.312,23.106 99.959,23.389 
				99.788,23.483 99.273,23.557 98.493,23.59 97.626,23.59 96.842,23.558 96.307,23.484 			"/>
			<polygon fill="#B2CEE7" stroke="#000000" stroke-width="0.25" stroke-linecap="round" stroke-linejoin="round" points="
				94.128,66.601 94.55,66.488 95.776,64.428 96.067,63.662 96.062,63.254 96.071,62.992 95.903,62.717 95.589,62.486 
				95.209,62.343 94.834,62.314 94.528,62.412 94.253,62.665 94.059,62.893 93.711,63.65 93.077,65.934 93.297,66.288 
				93.442,66.396 93.69,66.517 93.945,66.586 			"/>
			<polygon fill="#B2CEE7" stroke="#000000" stroke-width="0.25" stroke-linecap="round" stroke-linejoin="round" points="
				95.415,61.313 95.244,61.313 95.092,61.347 94.928,61.416 94.731,61.548 94.583,61.798 94.499,62.008 94.5,62.333 94.573,62.557 
				94.727,62.794 94.905,62.942 95.164,63.02 95.24,63.043 95.412,63.043 95.55,62.996 95.741,62.942 95.924,62.795 96.074,62.559 
				96.156,62.334 96.155,62.022 96.079,61.799 95.927,61.549 95.749,61.417 95.564,61.348 			"/>
			<polygon fill="#B2CEE7" stroke="#000000" stroke-width="0.25" stroke-linecap="round" stroke-linejoin="round" points="
				95.194,62.154 94.839,62.032 94.606,61.825 94.531,61.569 94.397,61.033 94.324,59.921 94.046,57.102 94.065,54.052 
				94.174,53.599 94.304,53.318 94.455,53.211 94.733,53.015 95.118,52.912 95.546,52.912 95.927,53.016 96.045,53.093 
				96.352,53.32 96.456,53.601 96.583,54.054 96.681,57.104 96.48,59.923 96.433,61.035 96.307,61.57 96.209,61.827 95.956,62.033 
				95.596,62.155 95.569,62.155 95.239,62.155 			"/>
			<polygon fill="#B2CEE7" stroke="#000000" stroke-width="0.25" stroke-linecap="round" stroke-linejoin="round" points="
				95.597,51.972 95.847,52.055 96.076,52.226 96.261,52.537 96.362,52.806 96.363,53.212 96.256,53.471 96.075,53.78 
				95.826,53.954 95.598,54.032 95.414,54.084 95.194,54.083 95.012,54.032 94.76,53.953 94.533,53.778 94.331,53.47 94.249,53.198 
				94.245,52.792 94.37,52.535 94.548,52.225 94.785,52.054 95.01,51.971 95.208,51.92 95.415,51.92 			"/>
			<polygon fill="#B2CEE7" stroke="#000000" stroke-width="0.25" stroke-linecap="round" stroke-linejoin="round" points="
				96.428,52.754 96.554,52.53 96.587,52.4 96.581,52.154 97.087,47.805 97.403,44.58 97.189,44.178 97.041,43.973 96.64,43.796 
				96.307,43.65 95.956,43.59 95.571,43.568 95.216,43.599 94.864,43.716 94.457,43.848 94.299,44.045 94.041,44.411 94.045,47.658 
				94.123,52.047 94.091,52.279 94.119,52.424 94.221,52.654 94.28,52.706 94.585,52.888 95.042,53.009 95.567,53.034 
				96.028,52.958 96.354,52.791 			"/>
			<polygon fill="#B2CEE7" stroke="#000000" stroke-width="0.25" stroke-linecap="round" stroke-linejoin="round" points="
				101.648,66.575 101.22,66.434 100.092,64.314 99.824,63.525 99.842,63.125 99.873,62.872 100.065,62.61 100.396,62.407 
				100.784,62.282 101.162,62.297 101.454,62.407 101.714,62.68 101.891,62.936 102.21,63.696 102.733,66.001 102.5,66.332 
				102.347,66.428 102.091,66.528 101.832,66.576 			"/>
			<polygon fill="#B2CEE7" stroke="#000000" stroke-width="0.25" stroke-linecap="round" stroke-linejoin="round" points="
				100.397,61.293 100.569,61.292 100.72,61.338 100.88,61.394 101.081,61.526 101.226,61.775 101.329,61.997 101.313,62.31 
				101.257,62.534 101.102,62.784 100.927,62.919 100.67,62.998 100.577,63.021 100.418,63.022 100.266,62.988 100.091,62.936 
				99.905,62.789 99.758,62.54 99.658,62.329 99.661,62.004 99.732,61.793 99.885,61.543 100.061,61.397 100.261,61.34 			"/>
			<polygon fill="#B2CEE7" stroke="#000000" stroke-width="0.25" stroke-linecap="round" stroke-linejoin="round" points="
				100.647,62.133 101,62.022 101.228,61.802 101.36,61.297 101.435,61.01 101.514,59.898 101.818,57.078 101.839,54.029 
				101.719,53.577 101.583,53.296 101.435,53.189 101.152,52.994 100.751,52.892 100.324,52.893 99.958,53.01 99.837,53.088 
				99.549,53.316 99.452,53.597 99.322,54.051 99.197,57.1 99.359,59.919 99.4,61.018 99.51,61.565 99.613,61.821 99.883,62.027 
				100.245,62.134 100.269,62.135 100.599,62.134 			"/>
			<polygon fill="#B2CEE7" stroke="#000000" stroke-width="0.25" stroke-linecap="round" stroke-linejoin="round" points="
				100.717,54.076 100.499,54.077 100.313,54.026 100.089,53.949 99.838,53.774 99.66,53.467 99.534,53.195 99.55,52.789 
				99.631,52.532 99.833,52.222 100.057,52.049 100.312,51.953 100.493,51.901 100.7,51.901 100.899,51.951 101.106,52.046 
				101.36,52.204 101.535,52.526 101.666,52.782 101.66,53.188 101.583,53.447 101.378,53.757 101.156,53.932 100.899,54.024 			"/>
			<polygon fill="#B2CEE7" stroke="#000000" stroke-width="0.25" stroke-linecap="round" stroke-linejoin="round" points="
				101.709,52.631 101.792,52.401 101.82,52.257 101.789,52.025 101.888,47.637 101.914,44.403 101.643,44.025 101.464,43.829 
				101.049,43.697 100.704,43.593 100.347,43.563 99.963,43.573 99.626,43.646 99.274,43.794 98.893,43.972 98.766,44.176 
				98.539,44.579 98.847,47.803 99.332,52.15 99.324,52.384 99.357,52.527 99.502,52.738 99.577,52.787 99.908,52.94 
				100.373,53.015 100.896,52.989 101.336,52.866 101.637,52.684 			"/>
			<polygon fill="#B2CEE7" stroke="#000000" stroke-width="0.25" stroke-linecap="round" stroke-linejoin="round" points="
				96.308,44.535 96.808,44.232 96.917,44.077 97.243,43.519 97.273,42.882 97.015,42.294 96.894,42.127 96.452,41.772 
				96.26,41.709 96.003,41.659 95.719,41.64 95.448,41.664 95.266,41.718 94.782,42.025 94.653,42.174 94.33,42.735 94.303,43.385 
				94.575,43.97 94.677,44.131 95.136,44.481 95.313,44.561 95.57,44.613 95.869,44.632 96.127,44.605 			"/>
			<polygon fill="#B2CEE7" stroke="#000000" stroke-width="0.25" stroke-linecap="round" stroke-linejoin="round" points="
				99.679,41.693 99.935,41.643 100.219,41.635 100.493,41.659 100.677,41.713 101.157,42.02 101.305,42.168 101.615,42.729 
				101.64,43.365 101.379,43.951 101.285,44.124 100.822,44.463 100.648,44.555 100.393,44.608 100.094,44.616 99.833,44.589 
				99.637,44.531 99.154,44.23 99.025,44.075 98.713,43.517 98.672,42.881 98.944,42.28 99.045,42.125 99.504,41.769 			"/>
		</g>
	</g>
</g>
</svg>
