<?xml version="1.0" encoding="utf-8"?>

<!DOCTYPE svg PUBLIC "-//W3C//DTD SVG 1.1//EN" "http://www.w3.org/Graphics/SVG/1.1/DTD/svg11.dtd">
<svg version="1.1" id="Layer_1" xmlns="http://www.w3.org/2000/svg" xmlns:xlink="http://www.w3.org/1999/xlink" x="0px" y="0px"
	 width="502px" height="282px" viewBox="0 0 502 282" enable-background="new 0 0 502 282" xml:space="preserve">

<defs>
	<style type="text/css">
	text {
	  font-family: Helvetica, Verdana, ArialUnicodeMS, san-serif
	}
	</style>
</defs>

<g>
   <desc>
	PS 3.17 : Explanatory Information
   </desc>
</g>

<g>
	<rect x="1" y="1" fill="#F5EED6" width="500" height="280"/>
	<g>
		<g>
			<g>
				<path fill="none" stroke="#005695" d="M376.453,194.32c6.445-15.15,10.016-31.849,10.016-49.391
					c0-54.44-34.384-100.751-82.37-117.9"/>
				<g>
					<polygon fill="#005695" points="378.501,193.924 374.271,199.163 375.313,192.511 					"/>
				</g>
			</g>
		</g>
		<g>
			<g>
				<path fill="none" stroke="#005695" d="M224.03,26.27c-49.127,16.507-84.562,63.396-84.562,118.66
					c0,18.047,3.778,35.2,10.579,50.694"/>
				<g>
					<polygon fill="#005695" points="147.999,195.247 152.285,200.441 151.171,193.8 					"/>
				</g>
			</g>
		</g>
		<g>
			<g>
				<line fill="none" stroke="#005695" x1="263.469" y1="194.93" x2="263.469" y2="51.245"/>
				<g>
					<polygon fill="#005695" points="265.212,52.434 263.469,45.93 261.726,52.434 					"/>
				</g>
			</g>
		</g>
		<g>
			<rect x="223.291" y="125.541" fill="#F5EED6" width="81" height="14"/>
			<text transform="matrix(1 0 0 1 241.6289 134.2124)" font-size="9">defined by</text>
		</g>
		<g>
			<rect x="90.117" y="123.451" fill="#F5EED6" width="100.333" height="17"/>
			<text transform="matrix(1 0 0 1 90.9414 134.2261)" font-size="9">sonographer 1 measures</text>
		</g>
		<g>
			<rect x="334.982" y="123.451" fill="#F5EED6" width="100.334" height="17"/>
			<text transform="matrix(1 0 0 1 335.8076 134.2261)" font-size="9">sonographer 2 measures</text>
		</g>
		<g>
			<path fill="#FFFFFF" stroke="#4F8ABE" stroke-width="3" d="M299.159,229.59c0,19.333-15.668,35-35,35s-35-15.667-35-35
				c0-19.332,15.668-35,35-35S299.159,210.258,299.159,229.59z"/>
			<rect x="236.659" y="213.84" fill="none" width="55" height="31.5"/>
			<text transform="matrix(1 0 0 1 246.6426 220.2822)"><tspan x="0" y="0" font-size="9">Intended</tspan><tspan x="-4.987" y="10.8" font-size="9">Real-World </tspan><tspan x="0.758" y="21.6" font-size="9">Quantity</tspan></text>
		</g>
		<g>
			<path fill="#FFFFFF" stroke="#4F8ABE" stroke-width="3" d="M209.2,229.651c0,19.333-15.668,35-35,35s-35-15.667-35-35
				c0-19.332,15.668-35,35-35S209.2,210.319,209.2,229.651z"/>
			<rect x="146.699" y="213.15" fill="none" width="55" height="33"/>
			<text transform="matrix(1 0 0 1 154.189 219.5938)"><tspan x="0" y="0" font-size="9">Measured</tspan><tspan x="-2.494" y="10.8" font-size="9">Real-World </tspan><tspan x="3.252" y="21.6" font-size="9">Quantity</tspan></text>
		</g>
		<g>
			<path fill="#FFFFFF" stroke="#4F8ABE" stroke-width="3" d="M389.196,229.651c0,19.333-15.668,35-35,35s-35-15.667-35-35
				c0-19.332,15.668-35,35-35S389.196,210.319,389.196,229.651z"/>
			<rect x="326.696" y="213.9" fill="none" width="55" height="31.5"/>
			<text transform="matrix(1 0 0 1 334.1855 220.3438)"><tspan x="0" y="0" font-size="9">Measured</tspan><tspan x="-2.494" y="10.8" font-size="9">Real-World </tspan><tspan x="3.252" y="21.6" font-size="9">Quantity</tspan></text>
		</g>
		<g>
			<g>
				<path fill="#B2CEE7" d="M224.159,19.213c0-0.992,0.812-1.803,1.803-1.803h76.394c0.991,0,1.803,0.812,1.803,1.803v24.394
					c0,0.992-0.812,1.803-1.803,1.803h-76.394c-0.992,0-1.803-0.812-1.803-1.803V19.213z"/>
				
					<path fill="none" stroke="#010101" stroke-width="0.3756" stroke-linecap="round" stroke-linejoin="round" stroke-miterlimit="10" d="
					M224.159,19.213c0-0.992,0.812-1.803,1.803-1.803h76.394c0.991,0,1.803,0.812,1.803,1.803v24.394
					c0,0.992-0.812,1.803-1.803,1.803h-76.394c-0.992,0-1.803-0.812-1.803-1.803V19.213z"/>
			</g>
			<text transform="matrix(1 0 0 1 255.1553 28.5161)"><tspan x="0" y="0" font-size="9">ASE</tspan><tspan x="-26.264" y="10.8" font-size="9">Recommendation</tspan></text>
		</g>
	</g>
</g>
</svg>
