<?xml version="1.0" encoding="utf-8"?>

<svg version="1.1" id="Layer_1" xmlns="http://www.w3.org/2000/svg" xmlns:xlink="http://www.w3.org/1999/xlink" x="0px" y="0px"
	 viewBox="0 0 502 67" enable-background="new 0 0 502 67" xml:space="preserve">

<defs>
	<style type="text/css">
	text {
	  font-family: Helvetica, Verdana, ArialUnicodeMS, san-serif
	}
	</style>
</defs>

<g>
   <desc>
	PS 3.17 : Explanatory Information
   </desc>
</g>

<g>
	<rect x="1" y="1" fill="#F3EDD6" width="500" height="65"/>
	<g>
		
			<rect x="251.05" y="15.934" fill="#FFFFFF" stroke="#010101" stroke-width="0.75" stroke-miterlimit="1" width="14.4" height="14.401"/>
		
			<rect x="265.55" y="15.934" fill="#FFFFFF" stroke="#010101" stroke-width="0.75" stroke-miterlimit="1" width="14.4" height="14.401"/>
		
			<rect x="280.05" y="15.934" fill="#FFFFFF" stroke="#010101" stroke-width="0.75" stroke-miterlimit="1" width="14.4" height="14.401"/>
		
			<rect x="294.55" y="15.934" fill="#FFFFFF" stroke="#010101" stroke-width="0.75" stroke-miterlimit="1" width="14.4" height="14.401"/>
		
			<rect x="193.05" y="15.934" fill="#FFFFFF" stroke="#010101" stroke-width="0.75" stroke-miterlimit="1" width="14.4" height="14.401"/>
		
			<rect x="207.55" y="15.934" fill="#FFFFFF" stroke="#010101" stroke-width="0.75" stroke-miterlimit="1" width="14.4" height="14.401"/>
		
			<rect x="222.05" y="15.934" fill="#FFFFFF" stroke="#010101" stroke-width="0.75" stroke-miterlimit="1" width="14.4" height="14.401"/>
		
			<rect x="236.55" y="15.934" fill="#FFFFFF" stroke="#010101" stroke-width="0.75" stroke-miterlimit="1" width="14.4" height="14.401"/>
		<g>
			<text transform="matrix(0.8815 0 0 1 197.7989 28.0101)" font-size="10px">0</text>
		</g>
		<g>
			<text transform="matrix(0.8815 0 0 1 211.7705 28.0101)" font-size="10px">1</text>
		</g>
		<g>
			<text transform="matrix(0.8815 0 0 1 226.3628 28.0101)" font-size="10px">2</text>
		</g>
		<g>
			<text transform="matrix(0.8815 0 0 1 240.9551 28.0101)" font-size="10px">3</text>
		</g>
		<g>
			<text transform="matrix(0.8815 0 0 1 255.5474 28.0101)" font-size="10px">4</text>
		</g>
		<g>
			<text transform="matrix(0.8815 0 0 1 270.4246 28.0101)" font-size="10px">5</text>
		</g>
		<g>
			<text transform="matrix(0.8815 0 0 1 284.3962 28.0101)" font-size="10px">6</text>
		</g>
		<g>
			<text transform="matrix(0.8815 0 0 1 298.9885 28.0101)" font-size="10px">7</text>
		</g>
		<rect x="193.05" y="35.694" fill="#CBD0E0" stroke="#010101" stroke-miterlimit="1" width="14.4" height="14.401"/>
		<rect x="207.55" y="35.694" fill="#CBD0E0" stroke="#010101" stroke-miterlimit="1" width="14.4" height="14.401"/>
		<g>
			<text transform="matrix(0.8815 0 0 1 197.3101 47.7702)" font-size="10px">S</text>
		</g>
		<g>
			<text transform="matrix(0.8815 0 0 1 211.2818 47.7702)" font-size="10px">E</text>
		</g>
		<rect x="222.05" y="35.694" fill="#CBD0E0" stroke="#010101" stroke-miterlimit="1" width="86.9" height="14.401"/>
		<g>
			<text transform="matrix(0.8815 0 0 1 248.3513 45.6789)" font-size="10px">reserved</text>
		</g>
	</g>
</g>
</svg>
