<?xml version="1.0" encoding="utf-8"?>

<!DOCTYPE svg PUBLIC "-//W3C//DTD SVG 1.1//EN" "http://www.w3.org/Graphics/SVG/1.1/DTD/svg11.dtd">
<svg version="1.1" id="Layer_1" xmlns="http://www.w3.org/2000/svg" xmlns:xlink="http://www.w3.org/1999/xlink" x="0px" y="0px"
	 width="502px" height="392px" viewBox="0 0 502 392" enable-background="new 0 0 502 392" xml:space="preserve">

<defs>
	<style type="text/css">
	text {
	  font-family: Helvetica, Verdana, ArialUnicodeMS, san-serif
	}
	</style>
</defs>

<g>
   <desc>
	PS 3.17 Part 17: Explanatory Information
   </desc>
</g>

<g>
	<rect x="1" y="1" fill="#F5EED6" width="500" height="390"/>
</g>
<g>
	
		<rect x="166.153" y="65.865" fill="#B2CEE7" stroke="#010101" stroke-width="0.75" stroke-linecap="round" stroke-linejoin="round" stroke-miterlimit="1" width="80" height="26.996"/>
	<g>
		<text transform="matrix(1 0 0 1 169.1899 77.0898)"><tspan x="0" y="0" font-size="7">Implant Component List</tspan><tspan x="14.021" y="8.4" font-size="7">(CONTAINER)</tspan></text>
	</g>
	
		<rect x="358.264" y="47.038" fill="#B2CEE7" stroke="#010101" stroke-width="0.75" stroke-linecap="round" stroke-linejoin="round" stroke-miterlimit="1" width="97" height="26.996"/>
	<g>
		<text transform="matrix(1 0 0 1 361.627 58.2627)"><tspan x="0" y="0" font-size="7">Selected Implant Component</tspan><tspan x="22.193" y="8.4" font-size="7">(CONTAINER)</tspan></text>
	</g>
	
		<rect x="358.264" y="85.416" fill="#B2CEE7" stroke="#010101" stroke-width="0.75" stroke-linecap="round" stroke-linejoin="round" stroke-miterlimit="1" width="97" height="26.996"/>
	<g>
		<text transform="matrix(1 0 0 1 361.627 96.6406)"><tspan x="0" y="0" font-size="7">Selected Implant Component</tspan><tspan x="22.193" y="8.4" font-size="7">(CONTAINER)</tspan></text>
	</g>
	<g>
		<g>
			
				<line fill="none" stroke="#005695" stroke-linecap="round" stroke-miterlimit="1" x1="65.695" y1="79.005" x2="80.167" y2="79.005"/>
			<path fill="#005695" d="M82.529,77.98c-1.653-0.5-2.728-0.959-4.054-1.492v5.044c0.475-0.226,2.401-0.993,4.054-1.492
				c1.77-0.535,3.374-0.9,4.415-1.031C85.903,78.88,84.299,78.514,82.529,77.98z"/>
		</g>
	</g>
	<g>
		<g>
			
				<line fill="none" stroke="#005695" stroke-linecap="round" stroke-miterlimit="1" x1="149.151" y1="79.365" x2="159.513" y2="79.365"/>
			<path fill="#005695" d="M161.875,78.34c-1.653-0.5-2.728-0.959-4.054-1.492v5.044c0.475-0.226,2.401-0.993,4.054-1.492
				c1.77-0.535,3.374-0.9,4.415-1.031C165.249,79.24,163.644,78.875,161.875,78.34z"/>
		</g>
	</g>
	<g>
		<g>
			
				<line fill="none" stroke="#005695" stroke-linecap="round" stroke-miterlimit="1" x1="245.819" y1="79.365" x2="256.181" y2="79.365"/>
			<path fill="#005695" d="M258.543,78.34c-1.654-0.5-2.729-0.959-4.055-1.492v5.044c0.475-0.226,2.4-0.993,4.055-1.492
				c1.77-0.535,3.373-0.9,4.414-1.031C261.916,79.24,260.312,78.875,258.543,78.34z"/>
		</g>
	</g>
	<g>
		<g>
			
				<line fill="none" stroke="#005695" stroke-linecap="round" stroke-miterlimit="1" x1="65.695" y1="156.892" x2="80.167" y2="156.892"/>
			<path fill="#005695" d="M82.529,155.867c-1.653-0.5-2.728-0.959-4.054-1.492v5.044c0.475-0.226,2.401-0.993,4.054-1.492
				c1.77-0.535,3.374-0.9,4.415-1.031C85.903,156.767,84.299,156.401,82.529,155.867z"/>
		</g>
	</g>
	
		<polygon fill="#CCDEF0" stroke="#010101" stroke-width="0.75" stroke-linecap="round" stroke-linejoin="round" stroke-miterlimit="1" points="
		85.94,79.041 117.417,65.865 148.948,79.467 148.948,79.498 117.382,92.861 	"/>
	<g>
		<text transform="matrix(1 0.0022 -0.0022 1 99.3569 81.2505)" font-size="7">CONTAINS</text>
	</g>
	
		<polygon fill="#CCDEF0" stroke="#010101" stroke-width="0.75" stroke-linecap="round" stroke-linejoin="round" stroke-miterlimit="1" points="
		263.53,79.153 295.007,65.978 326.538,79.579 326.538,79.61 294.972,92.974 	"/>
	<g>
		<text transform="matrix(1 0.0022 -0.0022 1 276.9473 81.3628)" font-size="7">CONTAINS</text>
	</g>
	
		<polygon fill="#CCDEF0" stroke="#010101" stroke-width="0.75" stroke-linecap="round" stroke-linejoin="round" stroke-miterlimit="1" points="
		85.94,293.51 117.417,280.335 148.948,293.936 148.948,293.967 117.382,307.33 	"/>
	<g>
		<g>
			
				<line fill="none" stroke="#005695" stroke-linecap="round" stroke-miterlimit="1" x1="149.151" y1="293.832" x2="159.513" y2="293.832"/>
			<path fill="#005695" d="M161.875,292.807c-1.653-0.499-2.728-0.959-4.054-1.491v5.044c0.475-0.225,2.401-0.992,4.054-1.491
				c1.77-0.534,3.374-0.9,4.415-1.03C165.249,293.707,163.644,293.342,161.875,292.807z"/>
		</g>
	</g>
	<g>
		<text transform="matrix(1 0.0022 -0.0022 1 99.3569 295.7188)" font-size="7">CONTAINS</text>
	</g>
	<g>
		<g>
			<polyline fill="none" stroke="#005695" stroke-linecap="round" stroke-miterlimit="1" points="65.696,34.748 65.695,347.966 
				80.167,347.966 			"/>
			<path fill="#005695" d="M82.529,346.941c-1.653-0.5-2.728-0.96-4.054-1.492v5.045c0.475-0.227,2.401-0.993,4.054-1.492
				c1.77-0.535,3.374-0.9,4.415-1.031C85.903,347.841,84.299,347.475,82.529,346.941z"/>
		</g>
	</g>
	<g>
		<g>
			<polyline fill="none" stroke="#005695" stroke-linecap="round" stroke-miterlimit="1" points="326.537,79.668 338.185,79.668 
				338.185,60.536 351.397,60.536 			"/>
			<path fill="#005695" d="M353.76,59.511c-1.654-0.5-2.729-0.959-4.055-1.492v5.044c0.475-0.226,2.4-0.993,4.055-1.492
				c1.77-0.535,3.373-0.9,4.414-1.031C357.133,60.411,355.529,60.045,353.76,59.511z"/>
		</g>
	</g>
	<g>
		<g>
			<polyline fill="none" stroke="#005695" stroke-linecap="round" stroke-miterlimit="1" points="338.186,79.668 338.185,98.914 
				351.397,98.914 			"/>
			<path fill="#005695" d="M353.76,97.889c-1.654-0.5-2.729-0.959-4.055-1.492v5.044c0.475-0.226,2.4-0.993,4.055-1.492
				c1.77-0.535,3.373-0.9,4.414-1.031C357.133,98.789,355.529,98.423,353.76,97.889z"/>
		</g>
	</g>
	
		<rect x="166.153" y="143.032" fill="#B2CEE7" stroke="#010101" stroke-width="0.75" stroke-linecap="round" stroke-linejoin="round" stroke-miterlimit="1" width="80" height="26.996"/>
	<g>
		<text transform="matrix(1 0 0 1 190.9829 154.2563)"><tspan x="0" y="0" font-size="7">Assembly</tspan><tspan x="-7.772" y="8.4" font-size="7">(CONTAINER)</tspan></text>
	</g>
	
		<rect x="358.264" y="124.205" fill="#B2CEE7" stroke="#010101" stroke-width="0.75" stroke-linecap="round" stroke-linejoin="round" stroke-miterlimit="1" width="97" height="26.996"/>
	<g>
		<text transform="matrix(1 0 0 1 369.9902 135.4292)"><tspan x="0" y="0" font-size="7">Component Connection</tspan><tspan x="13.83" y="8.4" font-size="7">(CONTAINER)</tspan></text>
	</g>
	
		<rect x="358.264" y="162.583" fill="#B2CEE7" stroke="#010101" stroke-width="0.75" stroke-linecap="round" stroke-linejoin="round" stroke-miterlimit="1" width="97" height="26.996"/>
	<g>
		<text transform="matrix(1 0 0 1 369.9902 173.8071)"><tspan x="0" y="0" font-size="7">Component Connection</tspan><tspan x="13.83" y="8.4" font-size="7">(CONTAINER)</tspan></text>
	</g>
	<g>
		<g>
			
				<line fill="none" stroke="#005695" stroke-linecap="round" stroke-miterlimit="1" x1="149.151" y1="156.532" x2="159.513" y2="156.532"/>
			<path fill="#005695" d="M161.875,155.507c-1.653-0.5-2.728-0.959-4.054-1.492v5.044c0.475-0.226,2.401-0.993,4.054-1.492
				c1.77-0.535,3.374-0.9,4.415-1.031C165.249,156.407,163.644,156.041,161.875,155.507z"/>
		</g>
	</g>
	<g>
		<g>
			
				<line fill="none" stroke="#005695" stroke-linecap="round" stroke-miterlimit="1" x1="245.819" y1="156.532" x2="256.181" y2="156.532"/>
			<path fill="#005695" d="M258.543,155.507c-1.654-0.5-2.729-0.959-4.055-1.492v5.044c0.475-0.226,2.4-0.993,4.055-1.492
				c1.77-0.535,3.373-0.9,4.414-1.031C261.916,156.407,260.312,156.041,258.543,155.507z"/>
		</g>
	</g>
	
		<polygon fill="#CCDEF0" stroke="#010101" stroke-width="0.75" stroke-linecap="round" stroke-linejoin="round" stroke-miterlimit="1" points="
		85.94,156.208 117.417,143.032 148.948,156.633 148.948,156.665 117.382,170.028 	"/>
	<g>
		<text transform="matrix(1 0.0022 -0.0022 1 99.3569 158.417)" font-size="7">CONTAINS</text>
	</g>
	
		<polygon fill="#CCDEF0" stroke="#010101" stroke-width="0.75" stroke-linecap="round" stroke-linejoin="round" stroke-miterlimit="1" points="
		263.53,156.32 295.007,143.144 326.538,156.746 326.538,156.777 294.972,170.14 	"/>
	<g>
		<text transform="matrix(1 0.0022 -0.0022 1 276.9473 158.5293)" font-size="7">CONTAINS</text>
	</g>
	<g>
		<g>
			<polyline fill="none" stroke="#005695" stroke-linecap="round" stroke-miterlimit="1" points="326.537,156.835 338.185,156.835 
				338.185,137.702 351.397,137.702 			"/>
			<path fill="#005695" d="M353.76,136.677c-1.654-0.5-2.729-0.959-4.055-1.492v5.044c0.475-0.226,2.4-0.993,4.055-1.492
				c1.77-0.535,3.373-0.9,4.414-1.031C357.133,137.577,355.529,137.211,353.76,136.677z"/>
		</g>
	</g>
	<g>
		<g>
			<polyline fill="none" stroke="#005695" stroke-linecap="round" stroke-miterlimit="1" points="338.186,156.835 338.185,176.08 
				351.397,176.08 			"/>
			<path fill="#005695" d="M353.76,175.055c-1.654-0.5-2.729-0.959-4.055-1.492v5.044c0.475-0.226,2.4-0.993,4.055-1.492
				c1.77-0.535,3.373-0.9,4.414-1.031C357.133,175.955,355.529,175.589,353.76,175.055z"/>
		</g>
	</g>
	<g>
		<g>
			<polyline fill="none" stroke="#005695" stroke-linecap="round" stroke-miterlimit="1" stroke-dasharray="2,3" points="
				326.537,293.597 338.185,293.597 338.185,274.464 351.397,274.464 			"/>
			<path fill="#005695" d="M353.76,273.438c-1.654-0.499-2.729-0.959-4.055-1.491v5.044c0.475-0.225,2.4-0.992,4.055-1.491
				c1.77-0.534,3.373-0.9,4.414-1.03C357.133,274.339,355.529,273.974,353.76,273.438z"/>
		</g>
	</g>
	<g>
		<g>
			<polyline fill="none" stroke="#005695" stroke-linecap="round" stroke-miterlimit="1" stroke-dasharray="2,3" points="
				338.186,293.597 338.185,312.842 351.397,312.842 			"/>
			<path fill="#005695" d="M353.76,311.817c-1.654-0.5-2.729-0.96-4.055-1.492v5.045c0.475-0.227,2.4-0.993,4.055-1.492
				c1.77-0.535,3.373-0.9,4.414-1.031C357.133,312.717,355.529,312.351,353.76,311.817z"/>
		</g>
	</g>
	<g>
		<g>
			
				<line fill="none" stroke="#005695" stroke-linecap="round" stroke-miterlimit="1" x1="65.695" y1="214.616" x2="80.167" y2="214.616"/>
			<path fill="#005695" d="M82.529,213.592c-1.653-0.499-2.728-0.96-4.054-1.491v5.044c0.475-0.226,2.401-0.993,4.054-1.491
				c1.77-0.535,3.374-0.9,4.415-1.031C85.903,214.491,84.299,214.126,82.529,213.592z"/>
		</g>
	</g>
	
		<rect x="166.153" y="200.757" fill="#B2CEE7" stroke="#010101" stroke-width="0.75" stroke-linecap="round" stroke-linejoin="round" stroke-miterlimit="1" width="80" height="26.996"/>
	<g>
		<text transform="matrix(1 0 0 1 190.9829 211.9814)"><tspan x="0" y="0" font-size="7">Assembly</tspan><tspan x="-7.772" y="8.399" font-size="7">(CONTAINER)</tspan></text>
	</g>
	
		<rect x="358.264" y="201.118" fill="#B2CEE7" stroke="#010101" stroke-width="0.75" stroke-linecap="round" stroke-linejoin="round" stroke-miterlimit="1" width="97" height="26.996"/>
	<g>
		<text transform="matrix(1 0 0 1 369.9902 212.3428)"><tspan x="0" y="0" font-size="7">Component Connection</tspan><tspan x="13.83" y="8.399" font-size="7">(CONTAINER)</tspan></text>
	</g>
	<g>
		<g>
			
				<line fill="none" stroke="#005695" stroke-linecap="round" stroke-miterlimit="1" x1="149.151" y1="214.257" x2="159.513" y2="214.257"/>
			<path fill="#005695" d="M161.875,213.231c-1.653-0.499-2.728-0.959-4.054-1.491v5.044c0.475-0.225,2.401-0.992,4.054-1.491
				c1.77-0.534,3.374-0.9,4.415-1.03C165.249,214.132,163.644,213.767,161.875,213.231z"/>
		</g>
	</g>
	<g>
		<g>
			
				<line fill="none" stroke="#005695" stroke-linecap="round" stroke-miterlimit="1" x1="245.819" y1="214.257" x2="256.181" y2="214.257"/>
			<path fill="#005695" d="M258.543,213.231c-1.654-0.499-2.729-0.959-4.055-1.491v5.044c0.475-0.225,2.4-0.992,4.055-1.491
				c1.77-0.534,3.373-0.9,4.414-1.03C261.916,214.132,260.312,213.767,258.543,213.231z"/>
		</g>
	</g>
	
		<polygon fill="#CCDEF0" stroke="#010101" stroke-width="0.75" stroke-linecap="round" stroke-linejoin="round" stroke-miterlimit="1" points="
		85.94,213.933 117.417,200.757 148.948,214.358 148.948,214.39 117.382,227.753 	"/>
	<g>
		<text transform="matrix(1 0.0022 -0.0022 1 99.3569 216.1426)" font-size="7">CONTAINS</text>
	</g>
	<g>
		<g>
			
				<line fill="none" stroke="#005695" stroke-linecap="round" stroke-miterlimit="1" x1="65.695" y1="252.806" x2="80.167" y2="252.806"/>
			<path fill="#005695" d="M82.529,251.781c-1.653-0.499-2.728-0.96-4.054-1.491v5.044c0.475-0.226,2.401-0.993,4.054-1.491
				c1.77-0.535,3.374-0.9,4.415-1.031C85.903,252.681,84.299,252.315,82.529,251.781z"/>
		</g>
	</g>
	<g>
		<g>
			
				<line fill="none" stroke="#005695" stroke-linecap="round" stroke-miterlimit="1" stroke-dasharray="2,3" x1="149.151" y1="252.446" x2="159.513" y2="252.446"/>
			<path fill="#005695" d="M161.875,251.421c-1.653-0.499-2.728-0.959-4.054-1.491v5.044c0.475-0.225,2.401-0.992,4.054-1.491
				c1.77-0.534,3.374-0.9,4.415-1.03C165.249,252.321,163.644,251.956,161.875,251.421z"/>
		</g>
	</g>
	<g>
		<g>
			
				<line fill="none" stroke="#005695" stroke-linecap="round" stroke-miterlimit="1" stroke-dasharray="2,3" x1="341.037" y1="293.832" x2="351.398" y2="293.832"/>
			<path fill="#005695" d="M353.76,292.807c-1.652-0.499-2.728-0.959-4.054-1.491v5.044c0.475-0.225,2.401-0.992,4.054-1.491
				c1.77-0.534,3.375-0.9,4.415-1.03C357.135,293.707,355.529,293.342,353.76,292.807z"/>
		</g>
	</g>
	<g>
		<g>
			
				<line fill="none" stroke="#005695" stroke-linecap="round" stroke-miterlimit="1" stroke-dasharray="2,3" x1="341.037" y1="348.079" x2="351.398" y2="348.079"/>
			<path fill="#005695" d="M353.76,347.054c-1.652-0.499-2.728-0.959-4.054-1.491v5.044c0.475-0.225,2.401-0.992,4.054-1.491
				c1.77-0.534,3.375-0.9,4.415-1.03C357.135,347.954,355.529,347.589,353.76,347.054z"/>
		</g>
	</g>
	
		<polygon fill="#CCDEF0" stroke="#010101" stroke-width="0.75" stroke-linecap="round" stroke-linejoin="round" stroke-miterlimit="1" points="
		85.94,252.122 117.417,238.946 148.948,252.548 148.948,252.579 117.382,265.942 	"/>
	<g>
		<text transform="matrix(1 0.0022 -0.0022 1 99.3569 254.3301)" font-size="7">CONTAINS</text>
	</g>
	<g>
		<g>
			
				<line fill="none" stroke="#005695" stroke-linecap="round" stroke-miterlimit="1" x1="65.695" y1="293.832" x2="80.167" y2="293.832"/>
			<path fill="#005695" d="M82.529,292.808c-1.653-0.5-2.728-0.96-4.054-1.492v5.045c0.475-0.227,2.401-0.993,4.054-1.492
				c1.77-0.535,3.374-0.9,4.415-1.031C85.903,293.707,84.299,293.341,82.529,292.808z"/>
		</g>
	</g>
	<g>
		<g>
			
				<line fill="none" stroke="#005695" stroke-linecap="round" stroke-miterlimit="1" x1="149.151" y1="347.969" x2="159.513" y2="347.969"/>
			<path fill="#005695" d="M161.875,346.943c-1.653-0.499-2.728-0.959-4.054-1.491v5.044c0.475-0.225,2.401-0.992,4.054-1.491
				c1.77-0.534,3.374-0.9,4.415-1.03C165.249,347.844,163.644,347.479,161.875,346.943z"/>
		</g>
	</g>
	
		<polygon fill="#CCDEF0" stroke="#010101" stroke-width="0.75" stroke-linecap="round" stroke-linejoin="round" stroke-miterlimit="1" points="
		85.94,347.645 117.417,334.469 148.948,348.07 148.948,348.102 117.382,361.465 	"/>
	<g>
		<text transform="matrix(1 0.0022 -0.0022 1 99.3569 349.8545)" font-size="7">CONTAINS</text>
	</g>
	
		<polygon fill="#CCDEF0" stroke="#010101" stroke-width="0.75" stroke-linecap="round" stroke-linejoin="round" stroke-miterlimit="1" points="
		263.53,214.045 295.007,200.869 326.538,214.471 326.538,214.502 294.972,227.865 	"/>
	<g>
		<text transform="matrix(1 0.0022 -0.0022 1 276.9473 216.2539)" font-size="7">CONTAINS</text>
	</g>
	<g>
		<g>
			
				<line fill="none" stroke="#005695" stroke-linecap="round" stroke-miterlimit="1" x1="326.537" y1="214.56" x2="351.398" y2="214.56"/>
			<path fill="#005695" d="M353.76,213.534c-1.652-0.499-2.728-0.959-4.054-1.491v5.044c0.475-0.225,2.401-0.992,4.054-1.491
				c1.77-0.534,3.375-0.9,4.415-1.03C357.135,214.435,355.529,214.069,353.76,213.534z"/>
		</g>
	</g>
	
		<rect x="166.153" y="280.152" fill="#B2CEE7" stroke="#010101" stroke-width="0.75" stroke-linecap="round" stroke-linejoin="round" stroke-miterlimit="1" width="80" height="26.996"/>
	<g>
		<text transform="matrix(1 0 0 1 174.0503 287.1982)"><tspan x="0" y="0" font-size="7">Planning Information</tspan><tspan x="-5.444" y="8.399" font-size="7">for Intraoperative Usage</tspan><tspan x="9.16" y="16.8" font-size="7">(CONTAINER)</tspan></text>
	</g>
	<g>
		<g>
			
				<line fill="none" stroke="#005695" stroke-linecap="round" stroke-miterlimit="1" x1="245.819" y1="293.652" x2="256.181" y2="293.652"/>
			<path fill="#005695" d="M258.543,292.627c-1.654-0.499-2.729-0.959-4.055-1.491v5.044c0.475-0.225,2.4-0.992,4.055-1.491
				c1.77-0.534,3.373-0.9,4.414-1.03C261.916,293.527,260.312,293.162,258.543,292.627z"/>
		</g>
	</g>
	
		<polygon fill="#CCDEF0" stroke="#010101" stroke-width="0.75" stroke-linecap="round" stroke-linejoin="round" stroke-miterlimit="1" points="
		263.53,293.44 295.007,280.265 326.538,293.866 326.538,293.897 294.972,307.261 	"/>
	<g>
		<text transform="matrix(1 0.0022 -0.0022 1 276.9473 295.6504)" font-size="7">CONTAINS</text>
	</g>
	<g>
		<g>
			<polyline fill="none" stroke="#005695" stroke-linecap="round" stroke-miterlimit="1" stroke-dasharray="2,3" points="
				326.537,347.911 338.185,347.911 338.185,328.778 351.397,328.778 			"/>
			<path fill="#005695" d="M353.76,327.753c-1.654-0.499-2.729-0.959-4.055-1.491v5.044c0.475-0.225,2.4-0.992,4.055-1.491
				c1.77-0.534,3.373-0.9,4.414-1.03C357.133,328.653,355.529,328.288,353.76,327.753z"/>
		</g>
	</g>
	<g>
		<g>
			<polyline fill="none" stroke="#005695" stroke-linecap="round" stroke-miterlimit="1" stroke-dasharray="2,3" points="
				338.186,347.911 338.185,367.156 351.397,367.156 			"/>
			<path fill="#005695" d="M353.76,366.132c-1.654-0.5-2.729-0.96-4.055-1.492v5.045c0.475-0.227,2.4-0.993,4.055-1.492
				c1.77-0.535,3.373-0.9,4.414-1.031C357.133,367.031,355.529,366.665,353.76,366.132z"/>
		</g>
	</g>
	
		<rect x="166.153" y="334.467" fill="#B2CEE7" stroke="#010101" stroke-width="0.75" stroke-linecap="round" stroke-linejoin="round" stroke-miterlimit="1" width="80" height="26.996"/>
	<g>
		<text transform="matrix(1 0 0 1 180.0835 341.5146)"><tspan x="0" y="0" font-size="7">Information used</tspan><tspan x="7.779" y="8.399" font-size="7">for planning</tspan><tspan x="3.127" y="16.8" font-size="7">(CONTAINER)</tspan></text>
	</g>
	<g>
		<g>
			
				<line fill="none" stroke="#005695" stroke-linecap="round" stroke-miterlimit="1" x1="245.819" y1="347.967" x2="256.181" y2="347.967"/>
			<path fill="#005695" d="M258.543,346.941c-1.654-0.499-2.729-0.959-4.055-1.491v5.044c0.475-0.225,2.4-0.992,4.055-1.491
				c1.77-0.534,3.373-0.9,4.414-1.03C261.916,347.842,260.312,347.477,258.543,346.941z"/>
		</g>
	</g>
	
		<polygon fill="#CCDEF0" stroke="#010101" stroke-width="0.75" stroke-linecap="round" stroke-linejoin="round" stroke-miterlimit="1" points="
		263.53,347.755 295.007,334.579 326.538,348.181 326.538,348.212 294.972,361.575 	"/>
	<g>
		<text transform="matrix(1 0.0022 -0.0022 1 276.9473 349.9668)" font-size="7">CONTAINS</text>
	</g>
	
		<rect x="23.58" y="7.399" fill="#86B2D8" stroke="#010101" stroke-width="0.75" stroke-linecap="round" stroke-linejoin="round" stroke-miterlimit="1" width="84" height="27"/>
	<g>
		<text transform="matrix(1 0 0 1 37.7891 18.3262)"><tspan x="0" y="0" font-size="8">Document Root</tspan><tspan x="1.57" y="9.6" font-size="8">(CONTAINER)</tspan></text>
	</g>
</g>
</svg>
