<?xml version="1.0" encoding="utf-8"?>

<!DOCTYPE svg PUBLIC "-//W3C//DTD SVG 1.1//EN" "http://www.w3.org/Graphics/SVG/1.1/DTD/svg11.dtd">
<svg version="1.1" id="Layer_1" xmlns="http://www.w3.org/2000/svg" xmlns:xlink="http://www.w3.org/1999/xlink" x="0px" y="0px"
	 width="602px" height="752px" viewBox="0 0 602 752" enable-background="new 0 0 602 752" xml:space="preserve">
    
<defs>
	<style type="text/css">
	text {
	  font-family: Helvetica, Verdana, ArialUnicodeMS, san-serif
	}
	</style>
</defs>

<g>
   <desc>
	PS 3.17 : Explanatory Information
   </desc>
</g>

<g>
	<rect x="1" y="1" fill="#F5EED6" width="600" height="750"/>
	<g>
		
			<rect x="35.086" y="25.86" fill="#B2CEE7" stroke="#010101" stroke-width="0.75" stroke-linecap="round" stroke-linejoin="round" stroke-miterlimit="1" width="286.332" height="710.316"/>
		
			<rect x="51.844" y="39.858" fill="#86B2D8" stroke="#010101" stroke-width="0.75" stroke-linecap="round" stroke-linejoin="round" stroke-miterlimit="1" width="269.574" height="139.264"/>
		
			<rect x="68.657" y="53.124" fill="#FFFFFF" stroke="#010101" stroke-width="0.75" stroke-linecap="round" stroke-linejoin="round" stroke-miterlimit="1" width="252.761" height="125.943"/>
		<g>
			<rect x="337.592" y="44.445" fill="none" width="124.407" height="127.646"/>
			<text transform="matrix(0.9288 0 0 1 337.5918 50.1719)"><tspan x="0" y="0"  font-size="8">Frame 1 in OCT B-Scan Volume</tspan><tspan x="0" y="70"  font-size="8">For Frame 1</tspan><tspan x="0" y="84"  font-size="8">= &quot;1.2.840.10008.5.1.4.1.1.77.1.5.4&quot;</tspan><tspan x="0" y="98"  font-size="8">= &quot;1.2.3.4.5&quot;</tspan><tspan x="0" y="112"  font-size="8">= 1</tspan></text>
			<rect x="463.007" y="127.882" fill="none" width="103.907" height="8.679"/>
			<text transform="matrix(0.9288 0 0 1 463.0068 133.6084)"  font-size="8">Opthalmic Tomography Image</text>
		</g>
		<g>
			<rect x="337.592" y="183.709" fill="none" width="124.407" height="127.646"/>
			<text transform="matrix(0.9288 0 0 1 337.5918 189.4355)"><tspan x="0" y="0"  font-size="8">Frame 2 in OCT B-Scan Volume</tspan><tspan x="0" y="70"  font-size="8">For Frame 2</tspan><tspan x="0" y="84"  font-size="8">= &quot;1.2.840.10008.5.1.4.1.1.77.1.5.4&quot;</tspan><tspan x="0" y="98"  font-size="8">= &quot;1.2.3.4.5&quot;</tspan><tspan x="0" y="112"  font-size="8">= 2</tspan></text>
			<rect x="463.007" y="267.146" fill="none" width="103.907" height="8.679"/>
			<text transform="matrix(0.9288 0 0 1 463.0068 272.8721)"  font-size="8">Opthalmic Tomography Image</text>
		</g>
		<g>
			<rect x="337.592" y="322.973" fill="none" width="124.407" height="127.646"/>
			<text transform="matrix(0.9288 0 0 1 337.5918 328.6992)"><tspan x="0" y="0"  font-size="8">Frame 3 in OCT B-Scan Volume</tspan><tspan x="0" y="70"  font-size="8">For Frame 3</tspan><tspan x="0" y="84"  font-size="8">= &quot;1.2.840.10008.5.1.4.1.1.77.1.5.4&quot;</tspan><tspan x="0" y="98"  font-size="8">= &quot;1.2.3.4.5&quot;</tspan><tspan x="0" y="112"  font-size="8">= 3</tspan></text>
			<rect x="463.007" y="406.41" fill="none" width="103.907" height="8.678"/>
			<text transform="matrix(0.9288 0 0 1 463.0068 412.1357)"  font-size="8">Opthalmic Tomography Image</text>
		</g>
		<g>
			<rect x="337.592" y="462.236" fill="none" width="124.407" height="127.646"/>
			<text transform="matrix(0.9288 0 0 1 337.5918 467.9629)"><tspan x="0" y="0"  font-size="8">Frame 4 in OCT B-Scan Volume</tspan><tspan x="0" y="70"  font-size="8">For Frame 4</tspan><tspan x="0" y="84"  font-size="8">= &quot;1.2.840.10008.5.1.4.1.1.77.1.5.4&quot;</tspan><tspan x="0" y="98"  font-size="8">= &quot;1.2.3.4.5&quot;</tspan><tspan x="0" y="112"  font-size="8">= 4</tspan></text>
			<rect x="463.007" y="545.674" fill="none" width="103.907" height="8.678"/>
			<text transform="matrix(0.9288 0 0 1 463.0068 551.3994)"  font-size="8">Opthalmic Tomography Image</text>
		</g>
		<g>
			<rect x="337.592" y="601.5" fill="none" width="124.407" height="127.646"/>
			<text transform="matrix(0.9288 0 0 1 337.5918 607.2266)"><tspan x="0" y="0"  font-size="8">Frame 5 in OCT B-Scan Volume</tspan><tspan x="0" y="70"  font-size="8">For Frame 5</tspan><tspan x="0" y="84"  font-size="8">= &quot;1.2.840.10008.5.1.4.1.1.77.1.5.4&quot;</tspan><tspan x="0" y="98"  font-size="8">= &quot;1.2.3.4.5&quot;</tspan><tspan x="0" y="112"  font-size="8">= 5</tspan></text>
			<rect x="463.007" y="684.938" fill="none" width="103.907" height="8.678"/>
			<text transform="matrix(0.9288 0 0 1 463.0068 690.6631)"  font-size="8">Opthalmic Tomography Image</text>
		</g>
		
			<rect x="80.599" y="67.619" fill="#86B2D8" stroke="#010101" stroke-width="0.75" stroke-linecap="round" stroke-linejoin="round" stroke-miterlimit="1" width="240.819" height="111.448"/>
		<rect x="39.226" y="15.823" fill="none" width="127.731" height="7.721"/>
		<text transform="matrix(0.9288 0 0 1 39.2256 21.5498)"  font-size="8">...</text>
		<rect x="39.226" y="29.333" fill="none" width="164.911" height="7.717"/>
		<text transform="matrix(0.9288 0 0 1 39.2256 35.0586)"  font-size="8">Per-Frame Functional Groups Sequence</text>
		<rect x="54.755" y="44.445" fill="none" width="127.731" height="7.721"/>
		<text transform="matrix(0.9288 0 0 1 54.7554 50.1499)"  font-size="8">Item 1</text>
		
			<rect x="93.062" y="109.124" fill="#86B2D8" stroke="#010101" stroke-width="0.75" stroke-linecap="round" stroke-linejoin="round" stroke-miterlimit="1" width="228.356" height="69.998"/>
		
			<rect x="105.766" y="123.077" fill="#FFFFFF" stroke="#010101" stroke-width="0.75" stroke-linecap="round" stroke-linejoin="round" stroke-miterlimit="1" width="215.652" height="13.953"/>
		<rect x="112.896" y="127.737" fill="none" width="136.596" height="7.717"/>
		<text transform="matrix(0.9288 0 0 1 112.8989 133.4419)"  font-size="8">&gt;&gt;&gt;Referenced SOP Class UID</text>
		<rect x="276.32" y="127.737" fill="none" width="44.582" height="7.717"/>
		<text transform="matrix(0.9288 0 0 1 276.3013 133.418)"  font-size="8">(0008,1150)</text>
		
			<rect x="93.062" y="95.171" fill="#FFFFFF" stroke="#010101" stroke-width="0.75" stroke-linecap="round" stroke-linejoin="round" stroke-miterlimit="1" width="228.356" height="13.953"/>
		<rect x="96.771" y="99.831" fill="none" width="136.596" height="7.717"/>
		<text transform="matrix(0.9288 0 0 1 96.771 105.5356)"  font-size="8">&gt;&gt;Source Image Sequence</text>
		<rect x="276.32" y="99.831" fill="none" width="44.582" height="7.717"/>
		<text transform="matrix(0.9288 0 0 1 276.3013 105.5117)"  font-size="8">(0008,2112)</text>
		
			<rect x="93.062" y="81.124" fill="#FFFFFF" stroke="#010101" stroke-width="0.75" stroke-linecap="round" stroke-linejoin="round" stroke-miterlimit="1" width="228.356" height="13.953"/>
		<rect x="72.859" y="57.353" fill="none" width="170.795" height="7.717"/>
		<text transform="matrix(0.9288 0 0 1 72.8594 63.0571)"  font-size="8">&gt;Derivation Image Sequence</text>
		<rect x="276.252" y="57.354" fill="none" width="44.984" height="7.716"/>
		<text transform="matrix(0.9288 0 0 1 276.2334 63.0356)"  font-size="8">(0008,9124)</text>
		<rect x="276.252" y="29.334" fill="none" width="44.984" height="7.716"/>
		<text transform="matrix(0.9288 0 0 1 276.2334 35.0161)"  font-size="8">5200,9230)</text>
		<rect x="84.025" y="71.868" fill="none" width="108.836" height="7.717"/>
		<text transform="matrix(0.9288 0 0 1 84.0254 77.5728)"  font-size="8">Item 1</text>
		<rect x="97.105" y="114.368" fill="none" width="108.836" height="7.717"/>
		<text transform="matrix(0.9288 0 0 1 97.1055 120.0728)"  font-size="8">Item 1</text>
		<rect x="97.105" y="85.784" fill="none" width="136.596" height="7.717"/>
		<text transform="matrix(0.9288 0 0 1 97.1055 91.4888)"  font-size="8">&gt;&gt;...</text>
		
			<rect x="105.766" y="150.983" fill="#FFFFFF" stroke="#010101" stroke-width="0.75" stroke-linecap="round" stroke-linejoin="round" stroke-miterlimit="1" width="215.652" height="13.953"/>
		<rect x="275.918" y="155.644" fill="none" width="44.984" height="7.716"/>
		<text transform="matrix(0.9288 0 0 1 275.8989 161.3257)"  font-size="8">(0008,1160)</text>
		<rect x="112.896" y="155.644" fill="none" width="136.596" height="7.717"/>
		<text transform="matrix(0.9288 0 0 1 112.8989 161.3481)"  font-size="8">&gt;&gt;&gt;Referenced Frame Number</text>
		
			<rect x="105.766" y="165.114" fill="#FFFFFF" stroke="#010101" stroke-width="0.75" stroke-linecap="round" stroke-linejoin="round" stroke-miterlimit="1" width="215.652" height="13.953"/>
		<rect x="112.896" y="169.774" fill="none" width="136.596" height="7.717"/>
		<text transform="matrix(0.9288 0 0 1 112.8989 175.479)"  font-size="8">...</text>
		
			<rect x="105.766" y="137.03" fill="#FFFFFF" stroke="#010101" stroke-width="0.75" stroke-linecap="round" stroke-linejoin="round" stroke-miterlimit="1" width="215.652" height="13.953"/>
		<rect x="112.896" y="141.69" fill="none" width="136.596" height="7.717"/>
		<text transform="matrix(0.9288 0 0 1 112.8989 147.395)"  font-size="8">&gt;&gt;&gt;Referenced SOP Instance UID</text>
		<rect x="276.32" y="141.69" fill="none" width="44.582" height="7.717"/>
		<text transform="matrix(0.9288 0 0 1 276.3013 147.3711)"  font-size="8">(0008,1155)</text>
		
			<rect x="51.844" y="179.122" fill="#86B2D8" stroke="#010101" stroke-width="0.75" stroke-linecap="round" stroke-linejoin="round" stroke-miterlimit="1" width="269.574" height="139.264"/>
		
			<rect x="68.657" y="192.388" fill="#FFFFFF" stroke="#010101" stroke-width="0.75" stroke-linecap="round" stroke-linejoin="round" stroke-miterlimit="1" width="252.761" height="125.943"/>
		
			<rect x="80.599" y="206.883" fill="#86B2D8" stroke="#010101" stroke-width="0.75" stroke-linecap="round" stroke-linejoin="round" stroke-miterlimit="1" width="240.819" height="111.448"/>
		<rect x="54.755" y="183.709" fill="none" width="127.731" height="7.721"/>
		<text transform="matrix(0.9288 0 0 1 54.7554 189.4136)"  font-size="8">Item 2</text>
		
			<rect x="93.062" y="248.388" fill="#86B2D8" stroke="#010101" stroke-width="0.75" stroke-linecap="round" stroke-linejoin="round" stroke-miterlimit="1" width="228.356" height="69.998"/>
		
			<rect x="105.766" y="262.341" fill="#FFFFFF" stroke="#010101" stroke-width="0.75" stroke-linecap="round" stroke-linejoin="round" stroke-miterlimit="1" width="215.652" height="13.953"/>
		<rect x="112.896" y="267.001" fill="none" width="136.596" height="7.717"/>
		<text transform="matrix(0.9288 0 0 1 112.8989 272.7056)"  font-size="8">&gt;&gt;&gt;Referenced SOP Class UID</text>
		<rect x="276.32" y="267.001" fill="none" width="44.582" height="7.717"/>
		<text transform="matrix(0.9288 0 0 1 276.3013 272.6816)"  font-size="8">(0008,1150)</text>
		
			<rect x="93.062" y="234.435" fill="#FFFFFF" stroke="#010101" stroke-width="0.75" stroke-linecap="round" stroke-linejoin="round" stroke-miterlimit="1" width="228.356" height="13.953"/>
		<rect x="96.771" y="239.095" fill="none" width="136.596" height="7.717"/>
		<text transform="matrix(0.9288 0 0 1 96.771 244.7993)"  font-size="8">&gt;&gt;Source Image Sequence</text>
		<rect x="276.32" y="239.095" fill="none" width="44.582" height="7.717"/>
		<text transform="matrix(0.9288 0 0 1 276.3013 244.7754)"  font-size="8">(0008,2112)</text>
		
			<rect x="93.062" y="220.388" fill="#FFFFFF" stroke="#010101" stroke-width="0.75" stroke-linecap="round" stroke-linejoin="round" stroke-miterlimit="1" width="228.356" height="13.953"/>
		<rect x="72.859" y="196.616" fill="none" width="170.795" height="7.717"/>
		<text transform="matrix(0.9288 0 0 1 72.8594 202.3208)"  font-size="8">&gt;Derivation Image Sequence</text>
		<rect x="276.252" y="196.617" fill="none" width="44.984" height="7.716"/>
		<text transform="matrix(0.9288 0 0 1 276.2334 202.2993)"  font-size="8">(0008,9124)</text>
		<rect x="84.025" y="211.132" fill="none" width="108.836" height="7.717"/>
		<text transform="matrix(0.9288 0 0 1 84.0254 216.8364)"  font-size="8">Item 1</text>
		<rect x="97.105" y="253.632" fill="none" width="108.836" height="7.717"/>
		<text transform="matrix(0.9288 0 0 1 97.1055 259.3364)"  font-size="8">Item 1</text>
		<rect x="97.105" y="225.048" fill="none" width="136.596" height="7.717"/>
		<text transform="matrix(0.9288 0 0 1 97.1055 230.7524)"  font-size="8">&gt;&gt;...</text>
		
			<rect x="105.766" y="290.247" fill="#FFFFFF" stroke="#010101" stroke-width="0.75" stroke-linecap="round" stroke-linejoin="round" stroke-miterlimit="1" width="215.652" height="13.953"/>
		<rect x="275.918" y="294.907" fill="none" width="44.984" height="7.716"/>
		<text transform="matrix(0.9288 0 0 1 275.8989 300.5894)"  font-size="8">(0008,1160)</text>
		<rect x="112.896" y="294.907" fill="none" width="136.596" height="7.717"/>
		<text transform="matrix(0.9288 0 0 1 112.8989 300.6118)"  font-size="8">&gt;&gt;&gt;Referenced Frame Number</text>
		
			<rect x="105.766" y="304.378" fill="#FFFFFF" stroke="#010101" stroke-width="0.75" stroke-linecap="round" stroke-linejoin="round" stroke-miterlimit="1" width="215.652" height="13.953"/>
		<rect x="112.896" y="309.038" fill="none" width="136.596" height="7.717"/>
		<text transform="matrix(0.9288 0 0 1 112.8989 314.7427)"  font-size="8">...</text>
		
			<rect x="105.766" y="276.294" fill="#FFFFFF" stroke="#010101" stroke-width="0.75" stroke-linecap="round" stroke-linejoin="round" stroke-miterlimit="1" width="215.652" height="13.953"/>
		<rect x="112.896" y="280.954" fill="none" width="136.596" height="7.717"/>
		<text transform="matrix(0.9288 0 0 1 112.8989 286.6587)"  font-size="8">&gt;&gt;&gt;Referenced SOP Instance UID</text>
		<rect x="276.32" y="280.954" fill="none" width="44.582" height="7.717"/>
		<text transform="matrix(0.9288 0 0 1 276.3013 286.6348)"  font-size="8">(0008,1155)</text>
		
			<rect x="51.844" y="318.386" fill="#86B2D8" stroke="#010101" stroke-width="0.75" stroke-linecap="round" stroke-linejoin="round" stroke-miterlimit="1" width="269.574" height="139.264"/>
		
			<rect x="68.657" y="331.651" fill="#FFFFFF" stroke="#010101" stroke-width="0.75" stroke-linecap="round" stroke-linejoin="round" stroke-miterlimit="1" width="252.761" height="125.943"/>
		
			<rect x="80.599" y="346.146" fill="#86B2D8" stroke="#010101" stroke-width="0.75" stroke-linecap="round" stroke-linejoin="round" stroke-miterlimit="1" width="240.819" height="111.448"/>
		<rect x="54.755" y="322.973" fill="none" width="127.731" height="7.721"/>
		<text transform="matrix(0.9288 0 0 1 54.7554 328.6772)"  font-size="8">Item 3</text>
		
			<rect x="93.062" y="387.651" fill="#86B2D8" stroke="#010101" stroke-width="0.75" stroke-linecap="round" stroke-linejoin="round" stroke-miterlimit="1" width="228.356" height="69.998"/>
		
			<rect x="105.766" y="401.604" fill="#FFFFFF" stroke="#010101" stroke-width="0.75" stroke-linecap="round" stroke-linejoin="round" stroke-miterlimit="1" width="215.652" height="13.953"/>
		<rect x="112.896" y="406.265" fill="none" width="136.596" height="7.717"/>
		<text transform="matrix(0.9288 0 0 1 112.8989 411.9688)"  font-size="8">&gt;&gt;&gt;Referenced SOP Class UID</text>
		<rect x="276.32" y="406.265" fill="none" width="44.582" height="7.717"/>
		<text transform="matrix(0.9288 0 0 1 276.3013 411.9453)"  font-size="8">(0008,1150)</text>
		
			<rect x="93.062" y="373.698" fill="#FFFFFF" stroke="#010101" stroke-width="0.75" stroke-linecap="round" stroke-linejoin="round" stroke-miterlimit="1" width="228.356" height="13.953"/>
		<rect x="96.771" y="378.358" fill="none" width="136.596" height="7.717"/>
		<text transform="matrix(0.9288 0 0 1 96.771 384.0625)"  font-size="8">&gt;&gt;Source Image Sequence</text>
		<rect x="276.32" y="378.358" fill="none" width="44.582" height="7.717"/>
		<text transform="matrix(0.9288 0 0 1 276.3013 384.0391)"  font-size="8">(0008,2112)</text>
		
			<rect x="93.062" y="359.651" fill="#FFFFFF" stroke="#010101" stroke-width="0.75" stroke-linecap="round" stroke-linejoin="round" stroke-miterlimit="1" width="228.356" height="13.953"/>
		<rect x="72.859" y="335.88" fill="none" width="170.795" height="7.717"/>
		<text transform="matrix(0.9288 0 0 1 72.8594 341.5845)"  font-size="8">&gt;Derivation Image Sequence</text>
		<rect x="276.252" y="335.881" fill="none" width="44.984" height="7.716"/>
		<text transform="matrix(0.9288 0 0 1 276.2334 341.563)"  font-size="8">(0008,9124)</text>
		<rect x="84.025" y="350.396" fill="none" width="108.836" height="7.717"/>
		<text transform="matrix(0.9288 0 0 1 84.0254 356.1001)"  font-size="8">Item 1</text>
		<rect x="97.105" y="392.896" fill="none" width="108.836" height="7.717"/>
		<text transform="matrix(0.9288 0 0 1 97.1055 398.5996)"  font-size="8">Item 1</text>
		<rect x="97.105" y="364.312" fill="none" width="136.596" height="7.717"/>
		<text transform="matrix(0.9288 0 0 1 97.1055 370.0161)"  font-size="8">&gt;&gt;...</text>
		
			<rect x="105.766" y="429.511" fill="#FFFFFF" stroke="#010101" stroke-width="0.75" stroke-linecap="round" stroke-linejoin="round" stroke-miterlimit="1" width="215.652" height="13.953"/>
		<rect x="275.918" y="434.171" fill="none" width="44.984" height="7.716"/>
		<text transform="matrix(0.9288 0 0 1 275.8989 439.8535)"  font-size="8">(0008,1160)</text>
		<rect x="112.896" y="434.171" fill="none" width="136.596" height="7.717"/>
		<text transform="matrix(0.9288 0 0 1 112.8989 439.875)"  font-size="8">&gt;&gt;&gt;Referenced Frame Number</text>
		
			<rect x="105.766" y="443.642" fill="#FFFFFF" stroke="#010101" stroke-width="0.75" stroke-linecap="round" stroke-linejoin="round" stroke-miterlimit="1" width="215.652" height="13.953"/>
		<rect x="112.896" y="448.302" fill="none" width="136.596" height="7.717"/>
		<text transform="matrix(0.9288 0 0 1 112.8989 454.0059)"  font-size="8">...</text>
		
			<rect x="105.766" y="415.558" fill="#FFFFFF" stroke="#010101" stroke-width="0.75" stroke-linecap="round" stroke-linejoin="round" stroke-miterlimit="1" width="215.652" height="13.953"/>
		<rect x="112.896" y="420.218" fill="none" width="136.596" height="7.717"/>
		<text transform="matrix(0.9288 0 0 1 112.8989 425.9219)"  font-size="8">&gt;&gt;&gt;Referenced SOP Instance UID</text>
		<rect x="276.32" y="420.218" fill="none" width="44.582" height="7.717"/>
		<text transform="matrix(0.9288 0 0 1 276.3013 425.8984)"  font-size="8">(0008,1155)</text>
		
			<rect x="51.844" y="457.649" fill="#86B2D8" stroke="#010101" stroke-width="0.75" stroke-linecap="round" stroke-linejoin="round" stroke-miterlimit="1" width="269.574" height="139.264"/>
		
			<rect x="68.657" y="470.915" fill="#FFFFFF" stroke="#010101" stroke-width="0.75" stroke-linecap="round" stroke-linejoin="round" stroke-miterlimit="1" width="252.761" height="125.943"/>
		
			<rect x="80.599" y="485.41" fill="#86B2D8" stroke="#010101" stroke-width="0.75" stroke-linecap="round" stroke-linejoin="round" stroke-miterlimit="1" width="240.819" height="111.448"/>
		<rect x="54.755" y="462.236" fill="none" width="127.731" height="7.721"/>
		<text transform="matrix(0.9288 0 0 1 54.7554 467.9414)"  font-size="8">Item 4</text>
		
			<rect x="93.062" y="526.915" fill="#86B2D8" stroke="#010101" stroke-width="0.75" stroke-linecap="round" stroke-linejoin="round" stroke-miterlimit="1" width="228.356" height="69.998"/>
		
			<rect x="105.766" y="540.868" fill="#FFFFFF" stroke="#010101" stroke-width="0.75" stroke-linecap="round" stroke-linejoin="round" stroke-miterlimit="1" width="215.652" height="13.953"/>
		<rect x="112.896" y="545.528" fill="none" width="136.596" height="7.717"/>
		<text transform="matrix(0.9288 0 0 1 112.8989 551.2324)"  font-size="8">&gt;&gt;&gt;Referenced SOP Class UID</text>
		<rect x="276.32" y="545.528" fill="none" width="44.582" height="7.717"/>
		<text transform="matrix(0.9288 0 0 1 276.3013 551.209)"  font-size="8">(0008,1150)</text>
		
			<rect x="93.062" y="512.962" fill="#FFFFFF" stroke="#010101" stroke-width="0.75" stroke-linecap="round" stroke-linejoin="round" stroke-miterlimit="1" width="228.356" height="13.953"/>
		<rect x="96.771" y="517.622" fill="none" width="136.596" height="7.717"/>
		<text transform="matrix(0.9288 0 0 1 96.771 523.3262)"  font-size="8">&gt;&gt;Source Image Sequence</text>
		<rect x="276.32" y="517.622" fill="none" width="44.582" height="7.717"/>
		<text transform="matrix(0.9288 0 0 1 276.3013 523.3027)"  font-size="8">(0008,2112)</text>
		
			<rect x="93.062" y="498.915" fill="#FFFFFF" stroke="#010101" stroke-width="0.75" stroke-linecap="round" stroke-linejoin="round" stroke-miterlimit="1" width="228.356" height="13.953"/>
		<rect x="72.859" y="475.144" fill="none" width="170.795" height="7.717"/>
		<text transform="matrix(0.9288 0 0 1 72.8594 480.8477)"  font-size="8">&gt;Derivation Image Sequence</text>
		<rect x="276.252" y="475.145" fill="none" width="44.984" height="7.716"/>
		<text transform="matrix(0.9288 0 0 1 276.2334 480.8262)"  font-size="8">(0008,9124)</text>
		<rect x="84.025" y="489.659" fill="none" width="108.836" height="7.717"/>
		<text transform="matrix(0.9288 0 0 1 84.0254 495.3633)"  font-size="8">Item 1</text>
		<rect x="97.105" y="532.159" fill="none" width="108.836" height="7.717"/>
		<text transform="matrix(0.9288 0 0 1 97.1055 537.8633)"  font-size="8">Item 1</text>
		<rect x="97.105" y="503.575" fill="none" width="136.596" height="7.717"/>
		<text transform="matrix(0.9288 0 0 1 97.1055 509.2793)"  font-size="8">&gt;&gt;...</text>
		
			<rect x="105.766" y="568.774" fill="#FFFFFF" stroke="#010101" stroke-width="0.75" stroke-linecap="round" stroke-linejoin="round" stroke-miterlimit="1" width="215.652" height="13.953"/>
		<rect x="275.918" y="573.435" fill="none" width="44.984" height="7.716"/>
		<text transform="matrix(0.9288 0 0 1 275.8989 579.1172)"  font-size="8">(0008,1160)</text>
		<rect x="112.896" y="573.435" fill="none" width="136.596" height="7.717"/>
		<text transform="matrix(0.9288 0 0 1 112.8989 579.1387)"  font-size="8">&gt;&gt;&gt;Referenced Frame Number</text>
		
			<rect x="105.766" y="582.905" fill="#FFFFFF" stroke="#010101" stroke-width="0.75" stroke-linecap="round" stroke-linejoin="round" stroke-miterlimit="1" width="215.652" height="13.953"/>
		<rect x="112.896" y="587.565" fill="none" width="136.596" height="7.717"/>
		<text transform="matrix(0.9288 0 0 1 112.8989 593.2695)"  font-size="8">...</text>
		
			<rect x="105.766" y="554.821" fill="#FFFFFF" stroke="#010101" stroke-width="0.75" stroke-linecap="round" stroke-linejoin="round" stroke-miterlimit="1" width="215.652" height="13.953"/>
		<rect x="112.896" y="559.481" fill="none" width="136.596" height="7.717"/>
		<text transform="matrix(0.9288 0 0 1 112.8989 565.1855)"  font-size="8">&gt;&gt;&gt;Referenced SOP Instance UID</text>
		<rect x="276.32" y="559.481" fill="none" width="44.582" height="7.717"/>
		<text transform="matrix(0.9288 0 0 1 276.3013 565.1621)"  font-size="8">(0008,1155)</text>
		
			<rect x="51.844" y="596.913" fill="#86B2D8" stroke="#010101" stroke-width="0.75" stroke-linecap="round" stroke-linejoin="round" stroke-miterlimit="1" width="269.574" height="139.264"/>
		
			<rect x="68.657" y="610.179" fill="#FFFFFF" stroke="#010101" stroke-width="0.75" stroke-linecap="round" stroke-linejoin="round" stroke-miterlimit="1" width="252.761" height="125.943"/>
		
			<rect x="80.599" y="624.674" fill="#86B2D8" stroke="#010101" stroke-width="0.75" stroke-linecap="round" stroke-linejoin="round" stroke-miterlimit="1" width="240.819" height="111.448"/>
		<rect x="54.755" y="601.5" fill="none" width="127.731" height="7.721"/>
		<text transform="matrix(0.9288 0 0 1 54.7554 607.2051)"  font-size="8">Item 5</text>
		
			<rect x="93.062" y="666.179" fill="#86B2D8" stroke="#010101" stroke-width="0.75" stroke-linecap="round" stroke-linejoin="round" stroke-miterlimit="1" width="228.356" height="69.998"/>
		
			<rect x="105.766" y="680.132" fill="#FFFFFF" stroke="#010101" stroke-width="0.75" stroke-linecap="round" stroke-linejoin="round" stroke-miterlimit="1" width="215.652" height="13.953"/>
		<rect x="112.896" y="684.792" fill="none" width="136.596" height="7.717"/>
		<text transform="matrix(0.9288 0 0 1 112.8989 690.4961)"  font-size="8">&gt;&gt;&gt;Referenced SOP Class UID</text>
		<rect x="276.32" y="684.792" fill="none" width="44.582" height="7.717"/>
		<text transform="matrix(0.9288 0 0 1 276.3013 690.4727)"  font-size="8">(0008,1150)</text>
		
			<rect x="93.062" y="652.226" fill="#FFFFFF" stroke="#010101" stroke-width="0.75" stroke-linecap="round" stroke-linejoin="round" stroke-miterlimit="1" width="228.356" height="13.953"/>
		<rect x="96.771" y="656.886" fill="none" width="136.596" height="7.717"/>
		<text transform="matrix(0.9288 0 0 1 96.771 662.5898)"  font-size="8">&gt;&gt;Source Image Sequence</text>
		<rect x="276.32" y="656.886" fill="none" width="44.582" height="7.717"/>
		<text transform="matrix(0.9288 0 0 1 276.3013 662.5664)"  font-size="8">(0008,2112)</text>
		
			<rect x="93.062" y="638.179" fill="#FFFFFF" stroke="#010101" stroke-width="0.75" stroke-linecap="round" stroke-linejoin="round" stroke-miterlimit="1" width="228.356" height="13.953"/>
		<rect x="72.859" y="614.407" fill="none" width="170.795" height="7.717"/>
		<text transform="matrix(0.9288 0 0 1 72.8594 620.1113)"  font-size="8">&gt;Derivation Image Sequence</text>
		<rect x="276.252" y="614.408" fill="none" width="44.984" height="7.716"/>
		<text transform="matrix(0.9288 0 0 1 276.2334 620.0898)"  font-size="8">(0008,9124)</text>
		<rect x="84.025" y="628.923" fill="none" width="108.836" height="7.717"/>
		<text transform="matrix(0.9288 0 0 1 84.0254 634.627)"  font-size="8">Item 1</text>
		<rect x="97.105" y="671.423" fill="none" width="108.836" height="7.717"/>
		<text transform="matrix(0.9288 0 0 1 97.1055 677.127)"  font-size="8">Item 1</text>
		<rect x="97.105" y="642.839" fill="none" width="136.596" height="7.717"/>
		<text transform="matrix(0.9288 0 0 1 97.1055 648.543)"  font-size="8">&gt;&gt;...</text>
		
			<rect x="105.766" y="708.038" fill="#FFFFFF" stroke="#010101" stroke-width="0.75" stroke-linecap="round" stroke-linejoin="round" stroke-miterlimit="1" width="215.652" height="13.953"/>
		<rect x="275.918" y="712.698" fill="none" width="44.984" height="7.716"/>
		<text transform="matrix(0.9288 0 0 1 275.8989 718.3809)"  font-size="8">(0008,1160)</text>
		<rect x="112.896" y="712.698" fill="none" width="136.596" height="7.717"/>
		<text transform="matrix(0.9288 0 0 1 112.8989 718.4023)"  font-size="8">&gt;&gt;&gt;Referenced Frame Number</text>
		
			<rect x="105.766" y="722.169" fill="#FFFFFF" stroke="#010101" stroke-width="0.75" stroke-linecap="round" stroke-linejoin="round" stroke-miterlimit="1" width="215.652" height="13.953"/>
		<rect x="112.896" y="726.829" fill="none" width="136.596" height="7.717"/>
		<text transform="matrix(0.9288 0 0 1 112.8989 732.5332)"  font-size="8">...</text>
		
			<rect x="105.766" y="694.085" fill="#FFFFFF" stroke="#010101" stroke-width="0.75" stroke-linecap="round" stroke-linejoin="round" stroke-miterlimit="1" width="215.652" height="13.953"/>
		<rect x="112.896" y="698.745" fill="none" width="136.596" height="7.717"/>
		<text transform="matrix(0.9288 0 0 1 112.8989 704.4492)"  font-size="8">&gt;&gt;&gt;Referenced SOP Instance UID</text>
		<rect x="276.32" y="698.745" fill="none" width="44.582" height="7.717"/>
		<text transform="matrix(0.9288 0 0 1 276.3013 704.4258)"  font-size="8">(0008,1155)</text>
	</g>
</g>
</svg>
