<?xml version="1.0" encoding="utf-8"?>

<!DOCTYPE svg PUBLIC "-//W3C//DTD SVG 1.1//EN" "http://www.w3.org/Graphics/SVG/1.1/DTD/svg11.dtd">
<svg version="1.1" id="Layer_1" xmlns="http://www.w3.org/2000/svg" xmlns:xlink="http://www.w3.org/1999/xlink" x="0px" y="0px"
	 width="882px" height="252px" viewBox="0 0 882 252" enable-background="new 0 0 882 252" xml:space="preserve">

<defs>
	<style type="text/css">
	text {
	  font-family: Helvetica, Verdana, ArialUnicodeMS, san-serif
	}
	</style>
</defs>

<g>
   <desc>
	PS 3.17 Part 17: Explanatory Information
   </desc>
</g>

<g>
	<rect x="1" y="1" fill="#F4ECC0" width="880" height="250"/>
	<g>
		<g>
			<g>
				<path fill="#5D89B4" stroke="#000000" stroke-width="0.372" stroke-miterlimit="10" d="M602.354,116.394
					c-0.597-39.926,26.354-72.702,60.197-73.207c33.842-0.505,61.758,31.452,62.355,71.379
					c0.596,39.925-26.356,72.699-60.199,73.204S602.949,156.319,602.354,116.394z M664.589,179.841
					c30.13-0.449,54.125-29.629,53.594-65.175c-0.531-35.546-25.384-63.998-55.516-63.547
					c-30.128,0.449-54.121,29.628-53.592,65.176C609.604,151.839,634.459,180.29,664.589,179.841z"/>
				<g>
					<g>
						
							<radialGradient id="SVGID_1_" cx="1376.3916" cy="-200.0986" r="143.0101" gradientTransform="matrix(-0.4361 0.0065 0.0066 0.4443 1265.3948 195.288)" gradientUnits="userSpaceOnUse">
							<stop  offset="0.7038" style="stop-color:#FFFFFF"/>
							<stop  offset="0.9779" style="stop-color:#CCCCCC"/>
						</radialGradient>
						<path fill="url(#SVGID_1_)" d="M662.667,51.119c-30.128,0.449-54.121,29.628-53.592,65.176
							c0.529,35.544,25.384,63.996,55.514,63.546s54.125-29.629,53.594-65.175C717.651,79.12,692.799,50.667,662.667,51.119z
							 M654.565,144.093l-0.002,0.005c-9.428-3.753-16.372-14.932-16.57-28.239c-0.197-13.305,6.337-24.684,15.646-28.716
							c9.426,3.753,16.436,14.929,16.635,28.234C670.472,128.68,663.872,140.057,654.565,144.093z"/>
					</g>
					<g>
						<path fill="none" stroke="#000000" stroke-width="0.372" stroke-miterlimit="10" d="M662.667,51.119
							c-30.128,0.449-54.121,29.628-53.592,65.176c0.529,35.544,25.384,63.996,55.514,63.546s54.125-29.629,53.594-65.175
							C717.651,79.12,692.799,50.667,662.667,51.119z M654.565,144.093l-0.002,0.005c-9.428-3.753-16.372-14.932-16.57-28.239
							c-0.197-13.305,6.337-24.684,15.646-28.716c9.426,3.753,16.436,14.929,16.635,28.234
							C670.472,128.68,663.872,140.057,654.565,144.093z"/>
					</g>
				</g>
				<path fill="#E6E7E8" stroke="#000000" stroke-width="0.372" stroke-linejoin="bevel" stroke-miterlimit="10" d="M654.49,144.069
					c2.307,0.93,4.764,1.414,7.307,1.376c12.897-0.192,23.156-13.75,22.908-30.28c-0.245-16.533-10.903-29.777-23.802-29.584
					c-2.516,0.035-4.932,0.582-7.188,1.561l-0.001,0.001c9.425,3.755,16.365,14.931,16.564,28.237
					c0.198,13.3-6.403,24.677-15.711,28.716L654.49,144.069z"/>
				
					<radialGradient id="SVGID_2_" cx="1371.2832" cy="-199.7725" r="52.3016" gradientTransform="matrix(-0.4361 0.0065 0.0066 0.4443 1265.3948 195.288)" gradientUnits="userSpaceOnUse">
					<stop  offset="0.5303" style="stop-color:#FFFFFF"/>
					<stop  offset="0.7833" style="stop-color:#A7A9AC"/>
					<stop  offset="1" style="stop-color:#A7A9AC"/>
					<stop  offset="1" style="stop-color:#000000"/>
				</radialGradient>
				<path fill="url(#SVGID_2_)" stroke="#000000" stroke-width="0.372" stroke-linejoin="bevel" stroke-miterlimit="10" d="
					M676.1,115.293c-0.218-14.647-8.61-26.706-19.49-29.135c0.537-0.136,1.083-0.25,1.632-0.339
					c11.666,1.522,20.906,14.049,21.134,29.424c0.231,15.375-8.63,28.172-20.248,30.042c-0.551-0.073-1.097-0.173-1.64-0.292
					C668.29,142.243,676.319,129.939,676.1,115.293z"/>
				
					<radialGradient id="SVGID_3_" cx="1393.8184" cy="-205.562" r="271.1464" gradientTransform="matrix(-0.4306 0.0064 0.0064 0.4306 1263.6143 195.6555)" gradientUnits="userSpaceOnUse">
					<stop  offset="0.6165" style="stop-color:#E6E6E6"/>
					<stop  offset="1" style="stop-color:#747575"/>
				</radialGradient>
				<path fill="url(#SVGID_3_)" stroke="#000000" stroke-width="0.372" stroke-linejoin="bevel" stroke-miterlimit="10" d="
					M643.822,183.798c-23.743-9.7-41.002-36.103-41.469-67.404c-0.597-39.926,26.354-72.702,60.197-73.207
					c5.458-0.082,10.762,0.682,15.821,2.187c-7.932-2.948-16.521-4.499-25.472-4.366c-39.154,0.584-70.413,33.187-69.823,72.816
					C583.611,149.596,609.911,178.869,643.822,183.798z"/>
				<path fill="#D1D3D4" stroke="#000000" stroke-width="0.372" stroke-linejoin="bevel" stroke-miterlimit="10" d="
					M679.248,185.496c-5.259,1.667-10.671,2.215-14.541,2.273c-23.724,0.354-44.534-15.242-55.064-38.354l8.737,47.517l59.048-4.259
					L679.248,185.496z"/>
				<g>
					<polygon fill="#276092" stroke="#000000" stroke-width="0.372" stroke-linejoin="bevel" stroke-miterlimit="10" points="
						582.135,148.967 590.611,193.348 607.136,198.013 598.452,150.65 					"/>
					<polygon fill="#5D89B4" stroke="#000000" stroke-width="0.372" stroke-linejoin="bevel" stroke-miterlimit="10" points="
						609.67,149.415 618.38,196.932 607.136,198.013 598.452,150.65 					"/>
					<g>
						<path fill="#7EA0C4" stroke="#000000" stroke-width="0.372" stroke-linejoin="bevel" stroke-miterlimit="10" d="
							M582.137,148.967l10.019-1.013c1.604,0.972,2.538,1.061,6.382,1.536c2.612,0.324,9.116,0.274,11.133-0.075l-11.23,1.174
							L582.137,148.967z"/>
					</g>
				</g>
			</g>
			<g>
				
					<path fill="#999999" stroke="#000000" stroke-width="0.372" stroke-linecap="square" stroke-linejoin="bevel" stroke-miterlimit="10" d="
					M837.679,160.696c-8.06,1.58-172.966-18.745-172.966-18.745c-2.055,0-3.901-1.938-3.901-3.991l155.665,14.707
					C819.576,159.177,834.827,160.417,837.679,160.696z"/>
				
					<path fill="#D9D9D9" stroke="#000000" stroke-width="0.372" stroke-linecap="square" stroke-linejoin="bevel" stroke-miterlimit="10" d="
					M661.438,126.568l152.602,12.009c2.705,0.742,2.437,14.098,2.437,14.098l-155.665-14.644
					C660.812,138.031,659.957,126.452,661.438,126.568z"/>
				
					<path fill="#9CB6D3" stroke="#000000" stroke-width="0.372" stroke-linecap="square" stroke-linejoin="bevel" stroke-miterlimit="10" d="
					M660.592,130.59l155.426,13.11c0.114,0.115,0.338,3.443,0.338,3.443l-155.764-13.685V130.59z"/>
				
					<polygon fill="#BFBFBF" stroke="#000000" stroke-width="0.372" stroke-linecap="square" stroke-linejoin="bevel" stroke-miterlimit="10" points="
					814.04,138.577 661.438,126.568 698.135,125.207 864.413,136.286 				"/>
				
					<path fill="#9CB6D3" stroke="#000000" stroke-width="0.372" stroke-linecap="square" stroke-linejoin="bevel" stroke-miterlimit="10" d="
					M697.968,123.576c0.037,1.226-5.926,2.404-13.32,2.631c-7.393,0.229-13.412-0.581-13.449-1.807l145.295,11.341
					c0.068,1.226,6.968,2.48,15.301,2.02c8.332-0.464,15.032-1.921,14.964-3.146L697.968,123.576z"/>
				
					<path fill="#5D89B4" stroke="#000000" stroke-width="0.372" stroke-linecap="square" stroke-linejoin="bevel" stroke-miterlimit="10" d="
					M816.477,135.748l-145.293-11.34c0,0-1.59,0.161-1.59,1.859l145.353,11.492C814.746,135.74,816.477,135.748,816.477,135.748z"/>
				
					<path fill="#999999" stroke="#000000" stroke-width="0.372" stroke-linecap="square" stroke-linejoin="bevel" stroke-miterlimit="10" d="
					M840.159,130.216c-11.345,0-18.826,3.47-18.731,7.241l4.174,0.593c-0.046-0.194-0.071-0.393-0.074-0.593
					c-0.095-3.771,6.957-7.009,15.755-7.229L840.159,130.216z"/>
				
					<path fill="#002D5C" stroke="#000000" stroke-width="0.372" stroke-linecap="square" stroke-linejoin="bevel" stroke-miterlimit="10" d="
					M821.428,137.457l-6.481,0.302c-0.188-2.018,1.547-2.018,1.547-2.018C816.582,136.798,821.428,137.457,821.428,137.457z"/>
				
					<path fill="#BFBFBF" stroke="#000000" stroke-width="0.372" stroke-linecap="square" stroke-linejoin="bevel" stroke-miterlimit="10" d="
					M843.13,136.329l-11.371,0.591l-0.001,0.001c-0.011,0.121-0.016,0.242-0.012,0.363c0.004,0.172,0.035,0.307,0.066,0.475
					l19.784-0.882L843.13,136.329z"/>
				
					<path fill="#8C8C8C" stroke="#000000" stroke-width="0.372" stroke-linecap="square" stroke-linejoin="bevel" stroke-miterlimit="10" d="
					M843.301,136.329c3.26-0.797,3.826-1.559,3.7-2.608c-0.188-1.566-4.342-2.359-9.282-1.77l-0.042-0.012
					c1.181-0.315,2.481-0.506,3.854-0.541c5.479-0.137,9.987,2.367,10.066,5.479L843.301,136.329z"/>
				
					<path fill="#D9D9D9" stroke="#000000" stroke-width="0.372" stroke-linecap="square" stroke-linejoin="bevel" stroke-miterlimit="10" d="
					M857.379,136.605c0,0,6.479-0.291,7.034-0.319c2.883-0.151,2.499,11.16,2.447,12.868l0.015-0.002
					c0,2.422-8.139,9.033-21.758,11.192c-9.051,1.435-26.223-1.604-28.641-7.678c0.07-14.497-2.42-14.015-2.501-14.097
					c0,0,3.854-0.124,11.626-0.521c-0.046-0.194-0.071-0.393-0.074-0.593c-0.095-3.771,6.957-7.009,15.755-7.229
					C850.078,130.006,857.283,132.835,857.379,136.605z M851.576,136.877c-0.078-3.111-4.586-5.615-10.066-5.479
					c-5.48,0.14-9.861,2.774-9.784,5.887c0.005,0.172,0.036,0.308,0.068,0.476L851.576,136.877z"/>
				
					<path fill="#808080" stroke="#000000" stroke-width="0.372" stroke-linecap="square" stroke-linejoin="bevel" stroke-miterlimit="10" d="
					M753.997,184.859l25.145-29.374l-16.218-1.882c-5.885-0.812-11.711-2.586-14.728-5.146l0.004-0.007l-31.87,40.046
					L753.997,184.859z"/>
				<polygon fill="#DEDFE0" stroke="#000000" stroke-width="0.372" stroke-miterlimit="10" points="712.09,145.265 712.094,145.26 
					685.112,180.399 716.33,188.496 748.2,148.45 				"/>
				
					<polygon fill="#4D4D4D" stroke="#000000" stroke-width="0.372" stroke-linecap="square" stroke-linejoin="bevel" stroke-miterlimit="10" points="
					765.123,199.671 764.76,205.932 724.194,210.999 724.194,204.016 				"/>
				
					<polygon fill="#808080" stroke="#000000" stroke-width="0.372" stroke-linecap="square" stroke-linejoin="bevel" stroke-miterlimit="10" points="
					724.194,204.016 718.151,188.496 756.16,184.959 765.125,199.673 				"/>
				<path fill="#DEDFE0" stroke="#000000" stroke-width="0.372" stroke-miterlimit="10" d="M675.347,201.142l48.848,9.857v-6.983
					l-6.043-15.52l-33.259-8.612c-4.524-1.241-5.827,6.443-5.827,6.443L675.347,201.142z"/>
			</g>
		</g>
		<g>
			<rect x="693.119" y="37.997" opacity="0.9" fill="#FFFFFF" width="133.002" height="22"/>
			<rect x="693.119" y="59.997" opacity="0.9" fill="#D1D3D4" width="133.002" height="22.001"/>
			<rect x="693.119" y="81.998" opacity="0.9" fill="#FFFFFF" width="133.002" height="21.999"/>
			<rect x="693.119" y="103.997" opacity="0.9" fill="#D1D3D4" width="133.002" height="22"/>
			<rect x="693.119" y="125.997" opacity="0.9" fill="#FFFFFF" width="133.002" height="22.004"/>
			<rect x="693.119" y="148.001" opacity="0.9" fill="#D1D3D4" width="133.002" height="22.001"/>
			<rect x="693.119" y="170.002" opacity="0.9" fill="#FFFFFF" width="133.002" height="21.999"/>
			<g>
				<text transform="matrix(1 0 0 1 699.1191 52.8608)"><tspan x="0" y="0" font-size="10">Semi-auto Scan Setup</tspan><tspan x="0" y="22" font-size="10">Prior Compatibility</tspan><tspan x="0" y="44" font-size="10">Patient Positioning</tspan><tspan x="0" y="66" font-size="10">Sharing Best Practice</tspan><tspan x="0" y="88" font-size="10">Protocol Backups</tspan><tspan x="0" y="110" font-size="10">Acquisition Validation</tspan><tspan x="0" y="132" font-size="10">Scan QA / Troubleshooting</tspan></text>
			</g>
			<g>
				<text transform="matrix(1 0 0 1 699.1211 26.8384)" font-size="12">Applications</text>
			</g>
		</g>
		<g>
			
				<path fill="#D4DCE6" stroke="#010101" stroke-width="0.7698" stroke-linecap="round" stroke-linejoin="round" stroke-miterlimit="1" d="
				M552.744,103.837c0-27.734-100,21.76-100-5.121V30.45h100V103.837z"/>
			<g>
				<rect x="457.795" y="34.609" fill="none" width="89.898" height="71.682"/>
				<text transform="matrix(1 0 0 1 457.7949 38.9023)"><tspan x="0" y="0" font-size="6">Device = Scanomatic Series</tspan><tspan x="0" y="7.2" font-size="6">...</tspan><tspan x="0" y="14.4" font-size="6">Pat. Pos. : Feet First / Supine</tspan><tspan x="0" y="21.6" font-size="6">Pat. Instruct. : Single Breath Hold </tspan><tspan x="47.547" y="28.8" font-size="6">/ Full Inspiration</tspan><tspan x="0" y="36" font-size="6">...</tspan><tspan x="0" y="43.2" font-size="6">kVp : 80~140</tspan><tspan x="0" y="50.4" font-size="6">Slice Thickness : 1.0~2.5mm</tspan><tspan x="0" y="57.6" font-size="6">Recon. Kernel : Std.</tspan><tspan x="0" y="64.8" font-size="6">...</tspan></text>
			</g>
			<g>
				<text transform="matrix(1 0 0 1 452.7441 26.7227)" font-size="12">Defined Protocol</text>
			</g>
			<g>
				
					<path fill="#C7D4E2" stroke="#010101" stroke-width="0.7668" stroke-linecap="round" stroke-linejoin="round" stroke-miterlimit="1" d="
					M552.744,232.763c0-27.52-100,21.592-100-5.08v-67.74h100V232.763z"/>
				<g>
					<rect x="457.795" y="162.51" fill="none" width="81.398" height="72.539"/>
					<text transform="matrix(1 0 0 1 457.7949 166.8027)"><tspan x="0" y="0" font-size="6">Device = Scanomatic Delta</tspan><tspan x="0" y="7.2" font-size="6">Version = 3.0.4</tspan><tspan x="0" y="14.4" font-size="6">...</tspan><tspan x="0" y="21.6" font-size="6">Pat. Pos. : Feet First / Supine</tspan><tspan x="0" y="28.8" font-size="6">Pat. Instruct. : Given</tspan><tspan x="0" y="36" font-size="6">...</tspan><tspan x="0" y="43.2" font-size="6">kVp : 120</tspan><tspan x="0" y="50.4" font-size="6">Slice Thickness : 1.0mm</tspan><tspan x="0" y="57.6" font-size="6">Recon. Kernel : FC12</tspan><tspan x="0" y="64.8" font-size="6">...</tspan></text>
				</g>
				<g>
					<text transform="matrix(1 0 0 1 452.7441 156.2227)" font-size="12">Performed Protocol</text>
				</g>
			</g>
			<g>
				<polygon fill="#FFFFFF" stroke="#276092" stroke-linejoin="round" points="450.221,123.397 560.58,123.397 560.58,129.733 
					571.268,119.731 560.58,109.733 560.58,115.542 450.221,115.542 				"/>
				<polygon fill="#FFFFFF" stroke="#276092" stroke-linejoin="round" points="556.268,138.397 444.908,138.397 444.908,144.733 
					434.221,134.731 444.908,124.733 444.908,130.542 556.268,130.542 				"/>
			</g>
		</g>
		<g>
			<g>
				<path fill="#58595B" d="M417.414,57.378v51.391c0,1.122-0.518,2.026-1.162,2.026h-17.451c-0.641,0-1.16-0.904-1.16-2.026V57.378
					c0-1.119,0.52-2.027,1.16-2.027h17.451C416.896,55.351,417.414,56.259,417.414,57.378"/>
				<rect x="399.578" y="111.242" fill="#58595B" width="15.475" height="1.505"/>
				<path fill="#58595B" stroke="#FFFFFF" stroke-width="0.5" d="M415.053,107.275v-4.34c0-0.416-0.219-0.756-0.488-0.756h-3.027
					c-0.268,0-0.485,0.34-0.485,0.756v4.34c0,0.416,0.218,0.752,0.485,0.752h3.027C414.834,108.027,415.053,107.691,415.053,107.275
					"/>
				<rect x="400.004" y="73" fill="#58595B" stroke="#FFFFFF" stroke-width="0.5" width="14.623" height="6.29"/>
				<rect x="400.004" y="63.142" fill="#58595B" stroke="#FFFFFF" stroke-width="0.5" width="14.623" height="6.294"/>
				<path fill="#FFFFFF" d="M400.906,95.09V83.774c0-0.192-0.053-0.366-0.133-0.495c-0.082-0.127-0.193-0.203-0.318-0.203
					c-0.251,0-0.451,0.312-0.451,0.698V95.09c0,0.192,0.05,0.366,0.132,0.492c0.079,0.126,0.195,0.206,0.319,0.206
					C400.701,95.789,400.906,95.472,400.906,95.09"/>
			</g>
			<g>
				<path fill="#9CB6D3" stroke="#000000" stroke-width="0.5" stroke-miterlimit="3.8637" d="M390.836,151.046
					c0-9.17,7.428-16.598,16.59-16.598c9.172,0,16.598,7.428,16.598,16.598c0,9.166-7.426,16.592-16.598,16.592
					C398.264,167.638,390.836,160.212,390.836,151.046z"/>
				<path fill="#D4DCE6" stroke="#000000" stroke-width="0.5" stroke-miterlimit="3.8637" d="M415.225,137.558
					c1.83,0.973,2.936,1.954,4.277,3.513l-24.54,19.471c1.332,1.794,2.528,2.886,4.466,4.02L415.225,137.558z"/>
				<path fill="none" stroke="#000000" stroke-width="0.5" stroke-miterlimit="3.8637" d="M391.822,151.046
					c0-8.626,6.986-15.611,15.605-15.611c8.625,0,15.611,6.985,15.611,15.611c0,8.619-6.986,15.605-15.611,15.605
					C398.809,166.651,391.822,159.665,391.822,151.046z"/>
				<path fill="#FFFFFF" stroke="#000000" stroke-width="0.5" stroke-miterlimit="3.8637" d="M402.529,151.045
					c0-2.709,2.193-4.902,4.898-4.902c2.711,0,4.904,2.193,4.904,4.902c0,2.706-2.193,4.9-4.904,4.9
					C404.723,155.945,402.529,153.751,402.529,151.045z"/>
				<circle stroke="#000000" stroke-width="0.5" stroke-miterlimit="3.8637" cx="407.43" cy="151.045" r="1.769"/>
			</g>
			<g>
				<text transform="matrix(1 0 0 1 388.479 127.3291)" font-size="12">or...</text>
			</g>
			<path fill="none" stroke="#5D89B4" stroke-width="2.2722" d="M352.584,201.836h1.934c4.284,0,7.144-1.334,8.578-4.001
				c1.436-2.667,2.152-8.659,2.152-17.978c0-15.649,0.197-26.959,0.594-33.93c0.395-6.972,1.496-12.822,3.306-17.553
				c1.81-4.73,4.856-8.836,9.14-12.323c-4.242-2.986-7.476-7.751-9.701-14.297c-2.225-6.543-3.338-17.888-3.338-34.035
				c0-14.867-0.188-23.954-0.561-27.262c-0.375-3.307-1.092-5.85-2.152-7.629c-1.062-1.777-3.733-2.667-8.018-2.667h-1.934"/>
			<g>
				<path fill="#EC2227" stroke="#010101" stroke-width="0.5" stroke-miterlimit="10" d="M406.378,166.858l6.81,3.933
					c0.516,0.298,1.137,0.337,1.551,0.097l18.004-10.503c1.904-1.11,1.546-3.087-0.815-4.45c-2.362-1.365-5.803-1.576-7.71-0.474
					l-18.002,10.5C405.796,166.203,405.862,166.562,406.378,166.858"/>
				
					<path fill="#ED1C24" stroke="#010101" stroke-width="0.5" stroke-linecap="round" stroke-linejoin="round" stroke-miterlimit="10" d="
					M405.941,166.366c0.011,0.17,0.157,0.349,0.437,0.508v0.001l6.81,3.931c0.516,0.299,1.137,0.338,1.551,0.098l18.004-10.502
					c0.785-0.459,1.187-1.063,1.22-1.713l-0.001,3.778c0.001,0.685-0.398,1.323-1.224,1.798l-17.998,10.561
					c-0.416,0.24-1.037,0.201-1.553-0.098l-6.809-3.93c-0.291-0.169-0.438-0.355-0.437-0.532v-3.896V166.366z"/>
				
					<path fill="none" stroke="#E7E7E7" stroke-width="0.502" stroke-linecap="round" stroke-linejoin="bevel" stroke-miterlimit="10" d="
					M433.901,158.781c-0.007,0.648-0.443,1.191-1.228,1.648l-17.95,10.432c-0.482,0.291-1.026,0.233-1.545-0.064l-6.753-3.91h0.004
					c-0.237-0.135-0.395-0.269-0.395-0.403"/>
				<g>
					<path fill="#939598" d="M400.813,173.974l5.969,3.446l5.95-3.403l-5.95-3.445L400.813,173.974z"/>
					<path fill="#424143" d="M400.813,173.974l5.969-3.402v-2.92l-5.969,3.401V173.974z"/>
					<path fill="#BDBEC0" d="M406.338,176.726l6.407-3.742l-0.003-0.438l-6.404,3.688V176.726L406.338,176.726z"/>
					<path fill="#E7E7E7" d="M401.221,173.771v-0.49l5.117,2.953v0.492L401.221,173.771z"/>
					<path fill="#D2D3D4" d="M406.338,176.233l-5.117-2.953l6.396-3.693l5.128,2.955L406.338,176.233L406.338,176.233z"/>
					<polyline fill="#939598" points="402.6,173.222 403.237,173.592 408.896,170.323 408.258,169.956 402.6,173.222 					"/>
					<polyline fill="#939598" points="403.664,173.838 404.305,174.207 409.962,170.94 409.323,170.571 403.664,173.838 					"/>
					<polyline fill="#939598" points="404.731,174.454 405.37,174.823 411.028,171.555 410.39,171.187 404.731,174.454 					"/>
					<polyline fill="#939598" points="405.796,175.067 406.436,175.437 412.096,172.172 411.456,171.802 405.796,175.067 					"/>
					<polygon fill="#A8AAAD" points="406.782,167.651 400.813,171.063 406.782,174.544 412.732,171.063 					"/>
					<path fill="#595A5C" d="M406.782,177.421v-2.877l5.953-3.48l0.018,2.955L406.782,177.421z"/>
					<path fill="#424143" d="M406.424,171.853l1.62-0.938l0.769,0.444l-1.622,0.937L406.424,171.853z"/>
					<path fill="#424143" d="M404.719,170.866l1.619-0.936l0.768,0.442l-1.619,0.937L404.719,170.866z"/>
					<polygon fill="none" stroke="#E7E7E7" stroke-width="0.5" stroke-linejoin="bevel" stroke-miterlimit="10" points="
						400.844,173.942 406.768,177.405 406.768,174.544 400.828,171.069 					"/>
				</g>
				<path fill="#FFFFFF" d="M414.37,163.748c-0.244,0.142-0.25,0.378-0.043,0.585l-1.168,0.674c-0.03,0.018-0.049,0.04-0.057,0.066
					l-0.465,1.832l-0.377,0.218c-0.365-0.132-0.795-0.134-1.048,0.014c-0.308,0.177-0.233,0.507,0.161,0.735
					c0.397,0.229,0.969,0.27,1.276,0.094c0.242-0.143,0.248-0.378,0.043-0.585l0.473-0.272l0.002,0.002l0.001-0.004l1.049-0.604
					l0.002,0.001l2.832-0.24c0.047-0.004,0.086-0.015,0.116-0.032l1.066-0.615l0.295,0.17l0.146,0.085l0.114-0.067l0.896-0.518
					l0.113-0.066l-0.146-0.084l-1.08-0.625l-0.147-0.084l-0.113,0.064l-0.898,0.521l-0.112,0.063l0.146,0.087l0.348,0.198
					l-1.021,0.592l-1.875,0.158l4.022-2.323l0.566,0.325l0.203,0.119l0.035-0.139l0.268-1.052l0.035-0.136l-0.238,0.019
					l-1.821,0.155l-0.238,0.021l0.203,0.117l0.547,0.315l-5.16,2.979l0.324-1.275l1.115-0.645c0.364,0.131,0.793,0.131,1.045-0.014
					c0.307-0.178,0.235-0.508-0.16-0.736C415.249,163.612,414.68,163.571,414.37,163.748"/>
				
					<line fill="none" stroke="#E7E7E7" stroke-width="0.4642" stroke-linecap="round" stroke-linejoin="round" stroke-miterlimit="10" x1="414.101" y1="171.041" x2="414.101" y2="174.541"/>
			</g>
		</g>
		<g>
			<path fill="#006F3B" stroke="#000000" stroke-width="0.5539" d="M15.116,181.799h302.206c0,29.393-74.383,39.2-166.149,39.2
				c-56.276,0-106.015-3.688-136.069-13.322L15.116,181.799z"/>
			<polygon fill="#C29D92" stroke="#000000" stroke-width="0.5539" stroke-linejoin="bevel" points="15.101,199.604 
				125.953,190.536 125.953,154.46 15.118,169.335 			"/>
			<polygon fill="#967974" stroke="#000000" stroke-width="0.5539" stroke-linejoin="bevel" points="306.362,199.045 
				126.002,190.528 125.953,154.46 306.33,170.689 			"/>
			<polygon fill="#7EA0C4" stroke="#000000" stroke-width="0.5539" stroke-linejoin="bevel" points="126.918,147.075 
				109.877,145.249 109.877,121.689 126.918,124.208 			"/>
			<polygon fill="#9CB6D3" stroke="#000000" stroke-width="0.5539" stroke-linejoin="bevel" points="143.165,120.214 
				126.918,124.187 126.918,147.764 143.165,144.986 			"/>
			<polygon fill="#9CB6D3" stroke="#000000" stroke-width="0.5539" stroke-linejoin="bevel" points="143.169,98.407 126.918,94.807 
				126.918,76.407 143.169,70.787 			"/>
			<polygon fill="#7EA0C4" stroke="#000000" stroke-width="0.5539" stroke-linejoin="bevel" points="126.918,94.677 109.935,99.594 
				109.851,72.035 126.918,76.341 			"/>
			<polygon fill="#977348" stroke="#000000" stroke-width="0.5539" points="15.101,141.023 125.875,114.794 306.336,148.99 
				299.875,150.688 299.875,149.471 143.241,121.066 126.978,124.228 109.855,121.754 15.116,143.211 			"/>
			<polygon fill="#D6A477" stroke="#000000" stroke-width="0.5539" points="125.875,61.464 306.336,118.158 299.875,119.439 
				299.875,118.578 143.241,70.84 126.978,76.442 109.855,72.061 15.095,107.165 15.095,103.604 			"/>
			<polygon fill="#C7D4E2" stroke="#000000" stroke-width="0.5539" stroke-linejoin="bevel" points="299.835,128.663 
				143.169,89.146 143.169,70.787 299.835,118.568 			"/>
			<polygon fill="#C7D4E2" stroke="#000000" stroke-width="0.5539" stroke-linejoin="bevel" points="299.835,149.469 
				143.241,121.066 143.241,144.739 299.835,163.904 			"/>
			<polygon fill="#276092" stroke="#000000" stroke-width="0.5539" stroke-linejoin="bevel" points="15.112,140.992 
				125.868,114.769 125.868,94.545 109.964,99.345 109.879,89.882 15.1,119.723 			"/>
			<polygon fill="#002D5C" stroke="#000000" stroke-width="0.5539" stroke-linejoin="bevel" points="306.357,149.009 
				125.869,114.769 125.869,94.545 143.155,98.451 143.148,89.107 306.357,130.38 			"/>
			<polygon fill="#276092" stroke="#000000" stroke-width="0.5539" stroke-linejoin="bevel" points="15.106,103.637 125.868,61.48 
				125.868,31 15.1,81.436 			"/>
			<polygon fill="#002D5C" stroke="#000000" stroke-width="0.5539" stroke-linejoin="bevel" points="306.357,118.201 125.87,61.492 
				125.87,31 306.357,97.833 			"/>
			<polygon fill="#E6E7E8" stroke="#000000" stroke-width="0.5539" stroke-linejoin="bevel" points="306.337,164.694 
				125.953,142.651 125.953,145.599 306.337,166.403 			"/>
			<polygon fill="#D1D3D4" stroke="#000000" stroke-width="0.5539" stroke-linejoin="bevel" points="306.337,170.683 
				125.955,154.425 125.955,145.617 306.337,166.426 			"/>
			<polygon fill="#E6E7E8" stroke="#000000" stroke-width="0.5539" stroke-linejoin="bevel" points="15.121,169.308 
				125.963,154.433 125.963,145.62 15.121,162.614 			"/>
			<polygon fill="#FFFFFF" stroke="#000000" stroke-width="0.5539" stroke-linejoin="bevel" points="15.101,162.578 
				125.966,145.613 125.966,142.651 15.095,160.566 			"/>
			<polygon fill="#D4DCE6" stroke="#000000" stroke-width="0.5539" stroke-linejoin="bevel" points="15.118,119.751 109.877,89.88 
				109.877,72.035 15.106,107.146 			"/>
			<polygon fill="#D4DCE6" stroke="#000000" stroke-width="0.5539" stroke-linejoin="bevel" points="15.101,160.539 
				109.877,145.268 109.877,121.744 15.121,143.163 			"/>
			<polygon opacity="0.6" fill="#FFFFFF" stroke="#000000" stroke-width="0.5539" points="125.953,132.981 143.241,135.423 
				143.241,144.739 125.953,142.667 			"/>
			<polygon opacity="0.6" fill="#FFFFFF" stroke="#000000" stroke-width="0.5539" points="125.868,84.862 143.155,89.133 
				143.155,98.451 125.868,94.545 			"/>
			<polygon opacity="0.6" fill="#FFFFFF" stroke="#000000" stroke-width="0.5539" points="109.877,145.249 125.953,142.688 
				125.953,132.981 109.794,135.786 			"/>
			<polygon opacity="0.6" fill="#FFFFFF" stroke="#000000" stroke-width="0.5539" stroke-linejoin="bevel" points="109.964,99.345 
				125.868,94.584 125.868,84.878 109.877,89.882 			"/>
			<path fill="#006F3B" stroke="#000000" stroke-width="0.5539" d="M183.285,219.321c19.875-2.354,36.047-8.193,51.299-24.354
				c17.79-18.85,82.785-13.211,82.785-13.211l0,0c-0.047,25.845-54.019,35.987-133.885,38.798"/>
			<path fill="#006F3B" d="M18.991,199.835l-3.875,0.328l-0.012-17.51c9.716,1.438,19.153,4.405,23.71,10.289
				c1.301,1.681,2.614,3.234,3.942,4.669L18.991,199.835z"/>
			<path fill="none" stroke="#000000" stroke-width="0.5539" d="M84.07,214.132c-18.741-0.488-32.533-4.763-45.255-21.189
				c-4.557-5.884-13.995-8.851-23.71-10.289"/>
			
				<line fill="none" stroke="#000000" stroke-width="0.554" stroke-miterlimit="10" x1="15.116" y1="200.163" x2="15.104" y2="182.653"/>
		</g>
		<g>
			<rect x="153.119" y="38.448" opacity="0.9" fill="#FFFFFF" width="201.502" height="31"/>
			<rect x="153.119" y="69.448" opacity="0.9" fill="#D1D3D4" width="201.502" height="31"/>
			<rect x="153.119" y="100.448" opacity="0.9" fill="#FFFFFF" width="201.502" height="30.996"/>
			<rect x="153.119" y="131.444" opacity="0.9" fill="#D1D3D4" width="201.502" height="31"/>
			<rect x="153.119" y="162.444" opacity="0.9" fill="#FFFFFF" width="201.502" height="31"/>
			<g>
				<text transform="matrix(1 0 0 1 252.937 56.7324)"><tspan x="0" y="0" font-size="10">Prior Scan</tspan><tspan x="0" y="31" font-size="10">Protocol Library</tspan><tspan x="0" y="62" font-size="10">Clinical Trial Protocol</tspan><tspan x="0" y="93" font-size="10">Local Standards</tspan><tspan x="0" y="124" font-size="10">Best Practice</tspan></text>
			</g>
			<g>
				<text transform="matrix(1 0 0 1 158.979 56.7324)"><tspan x="0" y="0" font-size="10">Modality</tspan><tspan x="0" y="31" font-size="10">Vendor</tspan><tspan x="0" y="62" font-size="10">Clinical Trial</tspan><tspan x="0" y="93" font-size="10">Hospital</tspan><tspan x="0" y="124" font-size="10">ACR/RSNA/AAPM</tspan></text>
			</g>
			<rect x="158.969" y="18.153" fill="none" width="47.333" height="11.333"/>
			<text transform="matrix(1 0 0 1 158.9692 26.7402)" font-size="12">Sources</text>
		</g>
	</g>
</g>
</svg>
