<?xml version="1.0" encoding="utf-8"?>

<!DOCTYPE svg PUBLIC "-//W3C//DTD SVG 1.1//EN" "http://www.w3.org/Graphics/SVG/1.1/DTD/svg11.dtd">
<svg version="1.1" id="Layer_1" xmlns="http://www.w3.org/2000/svg" xmlns:xlink="http://www.w3.org/1999/xlink" x="0px" y="0px"
	 width="552px" height="742px" viewBox="0 0 552 742" enable-background="new 0 0 552 742" xml:space="preserve">

<defs>
	<style type="text/css">
	text {
	  font-family: Helvetica, Verdana, ArialUnicodeMS, san-serif
	}
	</style>
</defs>

<g>
   <desc>
	PS 3.17 Part 17: Explanatory Information
   </desc>
</g>

<g>
	<g>
		<rect x="1" y="1" fill="#F5EED6" width="550" height="740"/>
	</g>
	<g>
		<rect x="349.404" y="19.319" fill="none" width="157.383" height="80.52"/>
		<text transform="matrix(0.9288 0 0 1 349.4043 25.0425)"><tspan x="0" y="0" font-size="8">= ORIGINAL\PRIMARY\VOLUME\NONE</tspan><tspan x="0" y="14" font-size="8">= UID “Z”</tspan><tspan x="0" y="28" font-size="8">= XA</tspan><tspan x="0" y="42" font-size="8">= MONOCHROME</tspan><tspan x="0" y="56" font-size="8">= VOLUME</tspan><tspan x="0" y="70" font-size="8">= NONE</tspan></text>
		<rect x="349.404" y="117.312" fill="none" width="157.383" height="178.194"/>
		<text transform="matrix(0.9288 0 0 1 349.4043 137.0347)"><tspan x="0" y="0" font-size="8">Contributing sources (only one in this example)</tspan><tspan x="0" y="98" font-size="8">= XA Image or Enhanced XA Image</tspan><tspan x="0" y="112" font-size="8">= UID “C”</tspan><tspan x="0" y="126" font-size="8">= UID “B”</tspan><tspan x="0" y="140" font-size="8">= UID “A”</tspan></text>
		<rect x="349.404" y="312.976" fill="none" width="157.383" height="178.194"/>
		<text transform="matrix(0.9288 0 0 1 349.4043 332.6992)"><tspan x="0" y="0" font-size="8">Acquisition context #1</tspan><tspan x="0" y="28" font-size="8">one source image for this acquisition context</tspan><tspan x="0" y="42" font-size="8">= XA Image or Enhanced XA Image</tspan><tspan x="0" y="56" font-size="8">= UID “C”</tspan><tspan x="0" y="98" font-size="8">data or projection #1 of this acquisition context</tspan><tspan x="0" y="126" font-size="8">data or projection #2 of this acquisition context</tspan></text>
		<rect x="349.404" y="508.64" fill="none" width="157.383" height="52.26"/>
		<text transform="matrix(0.9288 0 0 1 349.4043 528.3633)"><tspan x="0" y="0" font-size="8">Reconstruction #1</tspan><tspan x="0" y="14" font-size="8">=1</tspan></text>
		<rect x="349.404" y="578.606" fill="none" width="157.383" height="135.239"/>
		<text transform="matrix(0.9288 0 0 1 349.4043 584.3301)"><tspan x="0" y="0" font-size="8">= UID “D”</tspan><tspan x="0" y="28" font-size="8">One dimension</tspan><tspan x="0" y="42" font-size="8">=UID “E”</tspan><tspan x="0" y="84" font-size="8">= UID “E”</tspan><tspan x="0" y="98" font-size="8">= (0020,0032)</tspan><tspan x="0" y="112" font-size="8">=(0020,9113)</tspan><tspan x="0" y="126" font-size="8">= 3D</tspan></text>
		
			<rect x="45.213" y="113.84" fill="#B2CEE7" stroke="#010101" stroke-width="0.75" stroke-linecap="round" stroke-linejoin="round" stroke-miterlimit="1" width="286.333" height="181.666"/>
		
			<rect x="61.989" y="127.838" fill="#86B2D8" stroke="#010101" stroke-width="0.75" stroke-linecap="round" stroke-linejoin="round" stroke-miterlimit="1" width="269.576" height="167.668"/>
		<rect x="49.354" y="117.311" fill="none" width="164.911" height="7.717"/>
		<text transform="matrix(0.9288 0 0 1 49.3579 123.0137)" font-size="8">Contributing Sources Sequence</text>
		<rect x="49.354" y="103.313" fill="none" width="164.911" height="7.717"/>
		<text transform="matrix(0.9288 0 0 1 49.3579 109.0156)" font-size="8">...</text>
		
			<rect x="45.213" y="57.844" fill="#B2CEE7" stroke="#010101" stroke-width="0.75" stroke-linecap="round" stroke-linejoin="round" stroke-miterlimit="1" width="286.333" height="13.998"/>
		
			<rect x="45.213" y="57.844" fill="#B2CEE7" stroke="#010101" stroke-width="0.75" stroke-linecap="round" stroke-linejoin="round" stroke-miterlimit="1" width="286.333" height="13.998"/>
		<rect x="49.354" y="61.315" fill="none" width="164.911" height="7.717"/>
		<text transform="matrix(0.9288 0 0 1 49.3579 67.0176)" font-size="8">Pixel Presentation</text>
		
			<rect x="45.213" y="29.848" fill="#B2CEE7" stroke="#010101" stroke-width="0.75" stroke-linecap="round" stroke-linejoin="round" stroke-miterlimit="1" width="286.333" height="13.998"/>
		<rect x="49.354" y="33.319" fill="none" width="164.911" height="7.717"/>
		<text transform="matrix(0.9288 0 0 1 49.3579 39.0244)" font-size="8">SOP Instance UID</text>
		
			<rect x="78.785" y="141.478" fill="#FFFFFF" stroke="#010101" stroke-width="0.75" stroke-linecap="round" stroke-linejoin="round" stroke-miterlimit="1" width="252.762" height="140.028"/>
		
			<rect x="90.744" y="155.524" fill="#86B2D8" stroke="#010101" stroke-width="0.75" stroke-linecap="round" stroke-linejoin="round" stroke-miterlimit="1" width="240.821" height="125.981"/>
		
			<rect x="103.448" y="169.478" fill="#FFFFFF" stroke="#010101" stroke-width="0.75" stroke-linecap="round" stroke-linejoin="round" stroke-miterlimit="1" width="228.117" height="98.028"/>
		
			<rect x="116.448" y="183.431" fill="#86B2D8" stroke="#010101" stroke-width="0.75" stroke-linecap="round" stroke-linejoin="round" stroke-miterlimit="1" width="215.117" height="84.075"/>
		<rect x="82.911" y="145.706" fill="none" width="170.795" height="7.717"/>
		<text transform="matrix(0.9288 0 0 1 82.9111 151.4292)" font-size="8">&gt;Contributing SOP Instances Reference Sequence</text>
		<rect x="286.305" y="145.707" fill="none" width="44.984" height="7.716"/>
		<text transform="matrix(0.9288 0 0 1 286.2852 151.4092)" font-size="8">(0020,9529)</text>
		<rect x="286.305" y="117.312" fill="none" width="44.984" height="7.716"/>
		<text transform="matrix(0.9288 0 0 1 286.2852 123.0142)" font-size="8">(0018,9506)</text>
		<rect x="94.077" y="160.221" fill="none" width="108.835" height="7.717"/>
		<text transform="matrix(0.9288 0 0 1 94.0771 165.9438)" font-size="8">Item 1</text>
		<rect x="120.198" y="188.054" fill="none" width="136.597" height="7.717"/>
		<text transform="matrix(0.9288 0 0 1 120.2021 193.751)" font-size="8">Item 1</text>
		<rect x="64.594" y="132.423" fill="none" width="127.731" height="7.721"/>
		<text transform="matrix(0.9288 0 0 1 64.5986 138.1255)" font-size="8">Item 1</text>
		<rect x="107.157" y="174.138" fill="none" width="136.597" height="7.717"/>
		<text transform="matrix(0.9288 0 0 1 107.1611 179.833)" font-size="8">&gt;&gt;Reference Series Sequence</text>
		<rect x="286.707" y="174.138" fill="none" width="44.582" height="7.717"/>
		<text transform="matrix(0.9288 0 0 1 286.6875 179.8384)" font-size="8">(0008,1115)</text>
		
			<rect x="129.136" y="197.508" fill="#FFFFFF" stroke="#010101" stroke-width="0.75" stroke-linecap="round" stroke-linejoin="round" stroke-miterlimit="1" width="202.428" height="56"/>
		<rect x="133.407" y="202.093" fill="none" width="127.75" height="7.721"/>
		<text transform="matrix(0.9288 0 0 1 133.4116 207.7964)" font-size="8">&gt;&gt;&gt;Referenced Instance Sequence</text>
		<rect x="286.305" y="202.096" fill="none" width="44.984" height="7.716"/>
		<text transform="matrix(0.9288 0 0 1 286.2852 207.7959)" font-size="8">(0008,114a)</text>
		<rect x="286.305" y="61.315" fill="none" width="44.984" height="7.716"/>
		<text transform="matrix(0.9288 0 0 1 286.2852 67.0181)" font-size="8">(0008,9205)</text>
		
			<rect x="45.213" y="85.842" fill="#B2CEE7" stroke="#010101" stroke-width="0.75" stroke-linecap="round" stroke-linejoin="round" stroke-miterlimit="1" width="286.333" height="13.998"/>
		<rect x="49.354" y="89.313" fill="none" width="164.911" height="7.717"/>
		<text transform="matrix(0.9288 0 0 1 49.3579 95.0156)" font-size="8">Volume Based Calculation Technique</text>
		<rect x="286.305" y="89.313" fill="none" width="44.984" height="7.716"/>
		<text transform="matrix(0.9288 0 0 1 286.2852 95.0156)" font-size="8">(0008,9207)</text>
		
			<rect x="45.213" y="71.842" fill="#B2CEE7" stroke="#010101" stroke-width="0.75" stroke-linecap="round" stroke-linejoin="round" stroke-miterlimit="1" width="286.333" height="13.998"/>
		<rect x="49.354" y="75.313" fill="none" width="164.911" height="7.717"/>
		<text transform="matrix(0.9288 0 0 1 49.3579 81.0156)" font-size="8">Volumetric Properties</text>
		<rect x="286.305" y="75.313" fill="none" width="44.984" height="7.716"/>
		<text transform="matrix(0.9288 0 0 1 286.2852 81.0156)" font-size="8">(0008,9206)</text>
		
			<rect x="45.227" y="43.846" fill="#B2CEE7" stroke="#010101" stroke-width="0.75" stroke-linecap="round" stroke-linejoin="round" stroke-miterlimit="1" width="286.332" height="13.998"/>
		
			<rect x="45.227" y="43.846" fill="#B2CEE7" stroke="#010101" stroke-width="0.75" stroke-linecap="round" stroke-linejoin="round" stroke-miterlimit="1" width="286.332" height="13.998"/>
		<rect x="49.367" y="47.317" fill="none" width="164.911" height="7.717"/>
		<text transform="matrix(0.9288 0 0 1 49.3716 53.0195)" font-size="8">Modality</text>
		<rect x="286.316" y="47.317" fill="none" width="44.984" height="7.716"/>
		<text transform="matrix(0.9288 0 0 1 286.2988 53.02)" font-size="8">(0008,0060)</text>
		<rect x="286.305" y="33.319" fill="none" width="44.984" height="7.716"/>
		<text transform="matrix(0.9288 0 0 1 286.2852 39.022)" font-size="8">(0008,0018)</text>
		
			<rect x="45.213" y="15.848" fill="#B2CEE7" stroke="#010101" stroke-width="0.75" stroke-linecap="round" stroke-linejoin="round" stroke-miterlimit="1" width="286.333" height="13.998"/>
		<rect x="49.354" y="19.319" fill="none" width="164.911" height="7.717"/>
		<text transform="matrix(0.9288 0 0 1 49.3579 25.0244)" font-size="8">Image Type</text>
		<rect x="286.305" y="19.319" fill="none" width="44.984" height="7.716"/>
		<text transform="matrix(0.9288 0 0 1 286.2852 25.0249)" font-size="8">(0008,0008)</text>
		
			<rect x="129.136" y="253.506" fill="#FFFFFF" stroke="#010101" stroke-width="0.75" stroke-linecap="round" stroke-linejoin="round" stroke-miterlimit="1" width="202.428" height="14"/>
		<rect x="133.407" y="256.646" fill="none" width="127.75" height="7.721"/>
		<text transform="matrix(0.9288 0 0 1 133.4116 262.3486)" font-size="8">&gt;&gt;&gt;Series Instance UID</text>
		<rect x="286.707" y="256.647" fill="none" width="44.582" height="7.717"/>
		<text transform="matrix(0.9288 0 0 1 286.6875 262.3486)" font-size="8">(0020,000e)</text>
		
			<rect x="142.265" y="211.508" fill="#86B2D8" stroke="#010101" stroke-width="0.75" stroke-linecap="round" stroke-linejoin="round" stroke-miterlimit="1" width="189.286" height="42"/>
		
			<rect x="154.954" y="225.508" fill="#FFFFFF" stroke="#010101" stroke-width="0.75" stroke-linecap="round" stroke-linejoin="round" stroke-miterlimit="1" width="176.597" height="14"/>
		<rect x="159.224" y="228.647" fill="none" width="123.659" height="7.721"/>
		<text transform="matrix(0.9288 0 0 1 159.2256 234.3506)" font-size="8">&gt;&gt;&gt;&gt;Referenced SOP Class UID</text>
		
			<rect x="154.954" y="239.508" fill="#FFFFFF" stroke="#010101" stroke-width="0.75" stroke-linecap="round" stroke-linejoin="round" stroke-miterlimit="1" width="176.597" height="14"/>
		<rect x="286.307" y="228.29" fill="none" width="44.582" height="7.717"/>
		<text transform="matrix(0.9288 0 0 1 286.2852 233.9907)" font-size="8">(0008,1150)</text>
		<rect x="286.307" y="242.29" fill="none" width="44.582" height="7.717"/>
		<text transform="matrix(0.9288 0 0 1 286.2852 247.9907)" font-size="8">(0008,1155)</text>
		<rect x="149.724" y="216.096" fill="none" width="158.989" height="7.717"/>
		<text transform="matrix(0.9288 0 0 1 149.7295 221.7988)" font-size="8">Item 1</text>
		
			<rect x="78.785" y="281.506" fill="#FFFFFF" stroke="#010101" stroke-width="0.75" stroke-linecap="round" stroke-linejoin="round" stroke-miterlimit="1" width="252.78" height="14"/>
		
			<rect x="103.448" y="267.506" fill="#FFFFFF" stroke="#010101" stroke-width="0.75" stroke-linecap="round" stroke-linejoin="round" stroke-miterlimit="1" width="228.117" height="14"/>
		<rect x="82.911" y="284.678" fill="none" width="189.98" height="7.717"/>
		<text transform="matrix(0.9288 0 0 1 82.9111 290.4009)" font-size="8">&gt;... (other attributes from the contributing image sources)</text>
		<rect x="159.224" y="242.647" fill="none" width="123.659" height="7.721"/>
		<text transform="matrix(0.9288 0 0 1 159.2256 248.3506)" font-size="8">&gt;&gt;&gt;&gt;Referenced SOP Instance UID</text>
		<rect x="107.157" y="270.647" fill="none" width="136.597" height="7.717"/>
		<text transform="matrix(0.9288 0 0 1 107.1611 276.3428)" font-size="8">&gt;&gt;Study Instance UID</text>
		<rect x="286.707" y="270.647" fill="none" width="44.582" height="7.717"/>
		<text transform="matrix(0.9288 0 0 1 286.6875 276.3481)" font-size="8">(0020,000d)</text>
		
			<rect x="45.213" y="309.504" fill="#B2CEE7" stroke="#010101" stroke-width="0.75" stroke-linecap="round" stroke-linejoin="round" stroke-miterlimit="1" width="286.333" height="181.667"/>
		
			<rect x="61.989" y="323.502" fill="#86B2D8" stroke="#010101" stroke-width="0.75" stroke-linecap="round" stroke-linejoin="round" stroke-miterlimit="1" width="269.576" height="167.669"/>
		<rect x="49.354" y="312.976" fill="none" width="164.911" height="7.717"/>
		<text transform="matrix(0.9288 0 0 1 49.3579 318.6782)" font-size="8">X-Ray 3D Acquisition Sequence</text>
		<rect x="49.354" y="298.978" fill="none" width="164.911" height="7.717"/>
		<text transform="matrix(0.9288 0 0 1 49.3579 304.6802)" font-size="8">...</text>
		
			<rect x="78.785" y="337.142" fill="#FFFFFF" stroke="#010101" stroke-width="0.75" stroke-linecap="round" stroke-linejoin="round" stroke-miterlimit="1" width="252.762" height="55.906"/>
		
			<rect x="90.744" y="351.189" fill="#86B2D8" stroke="#010101" stroke-width="0.75" stroke-linecap="round" stroke-linejoin="round" stroke-miterlimit="1" width="240.821" height="41.858"/>
		
			<rect x="103.448" y="365.142" fill="#FFFFFF" stroke="#010101" stroke-width="0.75" stroke-linecap="round" stroke-linejoin="round" stroke-miterlimit="1" width="228.117" height="13.953"/>
		<rect x="82.911" y="341.371" fill="none" width="170.795" height="7.717"/>
		<text transform="matrix(0.9288 0 0 1 82.9111 347.0938)" font-size="8">&gt;Source Image Sequence</text>
		<rect x="286.305" y="341.371" fill="none" width="44.984" height="7.716"/>
		<text transform="matrix(0.9288 0 0 1 286.2852 347.0737)" font-size="8">(0008,2112)</text>
		<rect x="286.305" y="312.976" fill="none" width="44.984" height="7.716"/>
		<text transform="matrix(0.9288 0 0 1 286.2852 318.6787)" font-size="8">(0018,9507)</text>
		<rect x="94.077" y="355.885" fill="none" width="108.835" height="7.717"/>
		<text transform="matrix(0.9288 0 0 1 94.0771 361.6084)" font-size="8">Item 1</text>
		<rect x="64.594" y="328.088" fill="none" width="127.731" height="7.721"/>
		<text transform="matrix(0.9288 0 0 1 64.5986 333.79)" font-size="8">Item 1</text>
		<rect x="107.157" y="369.802" fill="none" width="136.597" height="7.717"/>
		<text transform="matrix(0.9288 0 0 1 107.1611 375.498)" font-size="8">&gt;&gt;Referenced SOP Class UID</text>
		<rect x="286.707" y="369.802" fill="none" width="44.582" height="7.717"/>
		<text transform="matrix(0.9288 0 0 1 286.6875 375.5029)" font-size="8">(0008,1150)</text>
		
			<rect x="78.785" y="407.087" fill="#FFFFFF" stroke="#010101" stroke-width="0.75" stroke-linecap="round" stroke-linejoin="round" stroke-miterlimit="1" width="252.762" height="84.084"/>
		
			<rect x="90.744" y="421.134" fill="#86B2D8" stroke="#010101" stroke-width="0.75" stroke-linecap="round" stroke-linejoin="round" stroke-miterlimit="1" width="240.821" height="27.906"/>
		
			<rect x="103.448" y="435.087" fill="#FFFFFF" stroke="#010101" stroke-width="0.75" stroke-linecap="round" stroke-linejoin="round" stroke-miterlimit="1" width="228.117" height="13.953"/>
		<rect x="82.911" y="411.315" fill="none" width="170.795" height="7.717"/>
		<text transform="matrix(0.9288 0 0 1 82.9111 417.0391)" font-size="8">&gt;Per Projection Acquisition Sequence</text>
		<rect x="286.305" y="411.316" fill="none" width="44.984" height="7.716"/>
		<text transform="matrix(0.9288 0 0 1 286.2852 417.0195)" font-size="8">(0008,9538)</text>
		<rect x="94.077" y="425.831" fill="none" width="108.835" height="7.717"/>
		<text transform="matrix(0.9288 0 0 1 94.0771 431.5537)" font-size="8">Item 1</text>
		<rect x="107.157" y="439.747" fill="none" width="136.597" height="7.717"/>
		<text transform="matrix(0.9288 0 0 1 107.1611 445.4434)" font-size="8">&gt;&gt;... (other attributes)</text>
		
			<rect x="90.744" y="449.04" fill="#86B2D8" stroke="#010101" stroke-width="0.75" stroke-linecap="round" stroke-linejoin="round" stroke-miterlimit="1" width="240.821" height="27.906"/>
		
			<rect x="103.448" y="462.993" fill="#FFFFFF" stroke="#010101" stroke-width="0.75" stroke-linecap="round" stroke-linejoin="round" stroke-miterlimit="1" width="228.117" height="13.953"/>
		<rect x="94.077" y="453.737" fill="none" width="108.835" height="7.717"/>
		<text transform="matrix(0.9288 0 0 1 94.0771 459.46)" font-size="8">Item 2</text>
		
			<rect x="90.744" y="477.218" fill="#86B2D8" stroke="#010101" stroke-width="0.75" stroke-linecap="round" stroke-linejoin="round" stroke-miterlimit="1" width="240.821" height="13.953"/>
		<rect x="94.077" y="481.915" fill="none" width="108.835" height="7.717"/>
		<text transform="matrix(0.9288 0 0 1 94.0771 487.6377)" font-size="8">...</text>
		<rect x="107.157" y="467.653" fill="none" width="136.597" height="7.717"/>
		<text transform="matrix(0.9288 0 0 1 107.1611 473.3496)" font-size="8">&gt;&gt;... (other attributes)</text>
		
			<rect x="103.448" y="379.095" fill="#FFFFFF" stroke="#010101" stroke-width="0.75" stroke-linecap="round" stroke-linejoin="round" stroke-miterlimit="1" width="228.117" height="13.953"/>
		<rect x="107.157" y="383.755" fill="none" width="136.597" height="7.717"/>
		<text transform="matrix(0.9288 0 0 1 107.1611 389.4512)" font-size="8">&gt;&gt;Referenced SOP Instance UID</text>
		<rect x="286.707" y="383.755" fill="none" width="44.582" height="7.717"/>
		<text transform="matrix(0.9288 0 0 1 286.6875 389.4561)" font-size="8">(0008,1155)</text>
		
			<rect x="78.785" y="393.087" fill="#FFFFFF" stroke="#010101" stroke-width="0.75" stroke-linecap="round" stroke-linejoin="round" stroke-miterlimit="1" width="252.78" height="14"/>
		<rect x="82.911" y="396.259" fill="none" width="189.98" height="7.717"/>
		<text transform="matrix(0.9288 0 0 1 82.9111 401.9814)" font-size="8">&gt;... (other attributes of this acquisition context)</text>
		
			<rect x="45.213" y="505.168" fill="#B2CEE7" stroke="#010101" stroke-width="0.75" stroke-linecap="round" stroke-linejoin="round" stroke-miterlimit="1" width="286.333" height="55.638"/>
		
			<rect x="61.989" y="519.166" fill="#86B2D8" stroke="#010101" stroke-width="0.75" stroke-linecap="round" stroke-linejoin="round" stroke-miterlimit="1" width="269.576" height="41.733"/>
		<rect x="49.354" y="508.64" fill="none" width="164.911" height="7.717"/>
		<text transform="matrix(0.9288 0 0 1 49.3579 514.3418)" font-size="8">X-Ray 3D Reconstruction Sequence</text>
		<rect x="49.354" y="494.642" fill="none" width="164.911" height="7.717"/>
		<text transform="matrix(0.9288 0 0 1 49.3579 500.3438)" font-size="8">...</text>
		
			<rect x="78.785" y="532.806" fill="#FFFFFF" stroke="#010101" stroke-width="0.75" stroke-linecap="round" stroke-linejoin="round" stroke-miterlimit="1" width="252.762" height="14.047"/>
		<rect x="82.911" y="537.034" fill="none" width="170.795" height="7.717"/>
		<text transform="matrix(0.9288 0 0 1 82.9111 542.7578)" font-size="8">&gt;Acquisition Index</text>
		<rect x="286.305" y="537.035" fill="none" width="44.984" height="7.716"/>
		<text transform="matrix(0.9288 0 0 1 286.2852 542.7383)" font-size="8">(0020,9518)</text>
		
			<rect x="78.785" y="546.853" fill="#FFFFFF" stroke="#010101" stroke-width="0.75" stroke-linecap="round" stroke-linejoin="round" stroke-miterlimit="1" width="252.762" height="14.047"/>
		<rect x="82.911" y="551.081" fill="none" width="170.795" height="7.717"/>
		<text transform="matrix(0.9288 0 0 1 82.9111 556.8047)" font-size="8">&gt;... (other attributes related to this reconstruction)</text>
		<rect x="286.305" y="508.64" fill="none" width="44.984" height="7.717"/>
		<text transform="matrix(0.9288 0 0 1 286.2852 514.3428)" font-size="8">(0018,9530)</text>
		<rect x="64.594" y="523.752" fill="none" width="127.731" height="7.721"/>
		<text transform="matrix(0.9288 0 0 1 64.5986 529.4541)" font-size="8">Item 1</text>
		
			<rect x="45.213" y="575.135" fill="#B2CEE7" stroke="#010101" stroke-width="0.75" stroke-linecap="round" stroke-linejoin="round" stroke-miterlimit="1" width="286.333" height="13.998"/>
		
			<rect x="45.213" y="589.135" fill="#B2CEE7" stroke="#010101" stroke-width="0.75" stroke-linecap="round" stroke-linejoin="round" stroke-miterlimit="1" width="286.333" height="41.435"/>
		<rect x="49.354" y="592.606" fill="none" width="164.911" height="7.717"/>
		<text transform="matrix(0.9288 0 0 1 49.3579 598.3086)" font-size="8">Dimension Organization Sequence</text>
		<rect x="286.305" y="592.606" fill="none" width="44.984" height="7.717"/>
		<text transform="matrix(0.9288 0 0 1 286.2852 598.3096)" font-size="8">(0020,9221)</text>
		
			<rect x="61.989" y="602.883" fill="#86B2D8" stroke="#010101" stroke-width="0.75" stroke-linecap="round" stroke-linejoin="round" stroke-miterlimit="1" width="269.576" height="27.687"/>
		<rect x="49.354" y="578.606" fill="none" width="164.911" height="7.717"/>
		<text transform="matrix(0.9288 0 0 1 49.3579 584.3086)" font-size="8">Frame of Reference UID</text>
		<rect x="49.354" y="564.608" fill="none" width="164.911" height="7.717"/>
		<text transform="matrix(0.9288 0 0 1 49.3579 570.3105)" font-size="8">...</text>
		
			<rect x="78.785" y="616.522" fill="#FFFFFF" stroke="#010101" stroke-width="0.75" stroke-linecap="round" stroke-linejoin="round" stroke-miterlimit="1" width="252.762" height="14.047"/>
		<rect x="82.911" y="620.751" fill="none" width="170.795" height="7.717"/>
		<text transform="matrix(0.9288 0 0 1 82.9111 626.4746)" font-size="8">&gt;Dimension Organization UID</text>
		<rect x="286.305" y="620.752" fill="none" width="44.984" height="7.716"/>
		<text transform="matrix(0.9288 0 0 1 286.2852 626.4551)" font-size="8">(0020,9164)</text>
		<rect x="286.305" y="578.606" fill="none" width="44.984" height="7.717"/>
		<text transform="matrix(0.9288 0 0 1 286.2852 584.3096)" font-size="8">(0020,0052)</text>
		<rect x="64.594" y="607.469" fill="none" width="127.731" height="7.721"/>
		<text transform="matrix(0.9288 0 0 1 64.5986 613.1709)" font-size="8">Item 1</text>
		
			<rect x="45.213" y="630.569" fill="#B2CEE7" stroke="#010101" stroke-width="0.75" stroke-linecap="round" stroke-linejoin="round" stroke-miterlimit="1" width="286.333" height="69.528"/>
		<rect x="49.354" y="634.041" fill="none" width="164.911" height="7.717"/>
		<text transform="matrix(0.9288 0 0 1 49.3579 639.7441)" font-size="8">Dimension Index Sequence</text>
		<rect x="286.305" y="634.041" fill="none" width="44.984" height="7.717"/>
		<text transform="matrix(0.9288 0 0 1 286.2852 639.7441)" font-size="8">(0020,9222)</text>
		
			<rect x="61.989" y="644.317" fill="#86B2D8" stroke="#010101" stroke-width="0.75" stroke-linecap="round" stroke-linejoin="round" stroke-miterlimit="1" width="269.576" height="55.78"/>
		
			<rect x="78.785" y="657.957" fill="#FFFFFF" stroke="#010101" stroke-width="0.75" stroke-linecap="round" stroke-linejoin="round" stroke-miterlimit="1" width="252.762" height="14.047"/>
		<rect x="82.911" y="662.186" fill="none" width="170.795" height="7.717"/>
		<text transform="matrix(0.9288 0 0 1 82.9111 667.9092)" font-size="8">&gt;Dimension Organization UID</text>
		<rect x="286.305" y="662.187" fill="none" width="44.984" height="7.716"/>
		<text transform="matrix(0.9288 0 0 1 286.2852 667.8887)" font-size="8">(0020,9164)</text>
		
			<rect x="78.785" y="672.004" fill="#FFFFFF" stroke="#010101" stroke-width="0.75" stroke-linecap="round" stroke-linejoin="round" stroke-miterlimit="1" width="252.762" height="14.047"/>
		<rect x="82.911" y="676.232" fill="none" width="170.795" height="7.717"/>
		<text transform="matrix(0.9288 0 0 1 82.9111 681.9561)" font-size="8">&gt;Dimension Index Pointer</text>
		<rect x="286.305" y="676.233" fill="none" width="44.984" height="7.716"/>
		<text transform="matrix(0.9288 0 0 1 286.2852 681.9355)" font-size="8">(0020,9165)</text>
		
			<rect x="78.785" y="686.051" fill="#FFFFFF" stroke="#010101" stroke-width="0.75" stroke-linecap="round" stroke-linejoin="round" stroke-miterlimit="1" width="252.762" height="14.047"/>
		<rect x="82.911" y="690.279" fill="none" width="170.795" height="7.717"/>
		<text transform="matrix(0.9288 0 0 1 82.9111 696.0029)" font-size="8">&gt;Functional Group Pointer</text>
		<rect x="286.305" y="690.28" fill="none" width="44.984" height="7.716"/>
		<text transform="matrix(0.9288 0 0 1 286.2852 695.9824)" font-size="8">(0020,9167)</text>
		<rect x="64.594" y="648.903" fill="none" width="127.731" height="7.721"/>
		<text transform="matrix(0.9288 0 0 1 64.5986 654.6055)" font-size="8">Item 1</text>
		
			<rect x="45.213" y="700.098" fill="#B2CEE7" stroke="#010101" stroke-width="0.75" stroke-linecap="round" stroke-linejoin="round" stroke-miterlimit="1" width="286.333" height="13.748"/>
		<rect x="49.354" y="703.569" fill="none" width="164.911" height="7.717"/>
		<text transform="matrix(0.9288 0 0 1 49.3579 709.2715)" font-size="8">Dimension Organization Type</text>
		<rect x="286.305" y="703.569" fill="none" width="44.984" height="7.717"/>
		<text transform="matrix(0.9288 0 0 1 286.2852 709.2725)" font-size="8">(0020,9311)</text>
		<rect x="49.354" y="718.432" fill="none" width="127.731" height="7.721"/>
		<text transform="matrix(0.9288 0 0 1 49.3579 724.1338)" font-size="8">...</text>
	</g>
</g>
</svg>
