<?xml version="1.0" encoding="utf-8"?>

<!DOCTYPE svg PUBLIC "-//W3C//DTD SVG 1.1//EN" "http://www.w3.org/Graphics/SVG/1.1/DTD/svg11.dtd">
<svg version="1.1" id="Layer_1" xmlns="http://www.w3.org/2000/svg" xmlns:xlink="http://www.w3.org/1999/xlink" x="0px" y="0px"
	 width="552px" height="437px" viewBox="0 0 552 437" enable-background="new 0 0 552 437" xml:space="preserve">

<defs>
	<style type="text/css">
	text {
	  font-family: Helvetica, Verdana, ArialUnicodeMS, san-serif
	}
	</style>
</defs>

<g>
   <desc>
	PS 3.17 Part 17: Explanatory Information
   </desc>
</g>

<g>
	<g>
		<rect x="1" y="1" fill="#F5EED6" width="550" height="435"/>
	</g>
	<g>
		<rect x="342.812" y="118.274" fill="none" width="170.564" height="191.037"/>
		<text transform="matrix(0.9288 0 0 1 342.8125 123.9976)"><tspan x="0" y="0" font-size="8">Common to all frames of the X-Ray 3D</tspan><tspan x="0" y="56" font-size="8">= 0.1</tspan><tspan x="0" y="70" font-size="8">= 0.1</tspan><tspan x="0" y="112" font-size="8">= 1\0\0\0\1\0</tspan><tspan x="0" y="154" font-size="8">May be different value vs. full reconstruction</tspan><tspan x="0" y="168" font-size="8">May be different value vs. full reconstruction</tspan></text>
		<rect x="342.812" y="327.17" fill="none" width="157.383" height="94.119"/>
		<text transform="matrix(0.9288 0 0 1 342.8125 332.8926)"><tspan x="0" y="0" font-size="8">“P” frames</tspan><tspan x="0" y="28" font-size="8">Frame “i” of the X-Ray 3D</tspan><tspan x="0" y="70" font-size="8">May be different value vs. full reconstruction</tspan></text>
		
			<rect x="38.623" y="99.689" fill="#B2CEE7" stroke="#010101" stroke-width="0.75" stroke-linecap="round" stroke-linejoin="round" stroke-miterlimit="1" width="286.332" height="209.637"/>
		
			<rect x="55.398" y="113.688" fill="#86B2D8" stroke="#010101" stroke-width="0.75" stroke-linecap="round" stroke-linejoin="round" stroke-miterlimit="1" width="269.574" height="195.623"/>
		<rect x="42.763" y="103.162" fill="none" width="164.911" height="7.717"/>
		<text transform="matrix(0.9288 0 0 1 42.7671 108.8643)" font-size="8">Shared Functional Group Sequence</text>
		
			<rect x="72.194" y="141.327" fill="#FFFFFF" stroke="#010101" stroke-width="0.75" stroke-linecap="round" stroke-linejoin="round" stroke-miterlimit="1" width="252.761" height="55.906"/>
		
			<rect x="84.153" y="155.374" fill="#86B2D8" stroke="#010101" stroke-width="0.75" stroke-linecap="round" stroke-linejoin="round" stroke-miterlimit="1" width="240.819" height="41.859"/>
		
			<rect x="96.857" y="169.327" fill="#FFFFFF" stroke="#010101" stroke-width="0.75" stroke-linecap="round" stroke-linejoin="round" stroke-miterlimit="1" width="228.115" height="13.953"/>
		<rect x="76.32" y="145.556" fill="none" width="170.795" height="7.717"/>
		<text transform="matrix(0.9288 0 0 1 76.3203 151.2798)" font-size="8">&gt;Pixel Measures Sequence</text>
		<rect x="279.713" y="145.557" fill="none" width="44.984" height="7.716"/>
		<text transform="matrix(0.9288 0 0 1 279.6943 151.2598)" font-size="8">(0028,9110)</text>
		<rect x="279.713" y="103.162" fill="none" width="44.984" height="7.717"/>
		<text transform="matrix(0.9288 0 0 1 279.6943 108.8647)" font-size="8">(5200,9229)</text>
		<rect x="87.486" y="160.072" fill="none" width="108.835" height="7.717"/>
		<text transform="matrix(0.9288 0 0 1 87.4863 165.7944)" font-size="8">Item 1</text>
		<rect x="58.003" y="118.274" fill="none" width="127.731" height="7.721"/>
		<text transform="matrix(0.9288 0 0 1 58.0078 123.9761)" font-size="8">Item 1</text>
		<rect x="100.566" y="173.988" fill="none" width="136.597" height="7.717"/>
		<text transform="matrix(0.9288 0 0 1 100.5703 179.6836)" font-size="8">&gt;&gt;Slice Thickness</text>
		<rect x="280.115" y="173.988" fill="none" width="44.582" height="7.717"/>
		<text transform="matrix(0.9288 0 0 1 280.0967 179.689)" font-size="8">(0018,0050)</text>
		
			<rect x="72.194" y="197.272" fill="#FFFFFF" stroke="#010101" stroke-width="0.75" stroke-linecap="round" stroke-linejoin="round" stroke-miterlimit="1" width="252.761" height="41.954"/>
		
			<rect x="84.153" y="211.319" fill="#86B2D8" stroke="#010101" stroke-width="0.75" stroke-linecap="round" stroke-linejoin="round" stroke-miterlimit="1" width="240.819" height="27.907"/>
		
			<rect x="96.857" y="225.273" fill="#FFFFFF" stroke="#010101" stroke-width="0.75" stroke-linecap="round" stroke-linejoin="round" stroke-miterlimit="1" width="228.115" height="13.953"/>
		<rect x="76.32" y="201.501" fill="none" width="170.795" height="7.717"/>
		<text transform="matrix(0.9288 0 0 1 76.3203 207.2251)" font-size="8">&gt;Plane Orientation Sequence</text>
		<rect x="279.713" y="201.502" fill="none" width="44.984" height="7.716"/>
		<text transform="matrix(0.9288 0 0 1 279.6943 207.2051)" font-size="8">(0028,9116)</text>
		<rect x="87.486" y="216.017" fill="none" width="108.835" height="7.717"/>
		<text transform="matrix(0.9288 0 0 1 87.4863 221.7402)" font-size="8">Item 1</text>
		<rect x="100.566" y="229.934" fill="none" width="136.597" height="7.717"/>
		<text transform="matrix(0.9288 0 0 1 100.5703 235.6289)" font-size="8">&gt;&gt;Image Orientation (Patient)</text>
		
			<rect x="72.194" y="239.227" fill="#FFFFFF" stroke="#010101" stroke-width="0.75" stroke-linecap="round" stroke-linejoin="round" stroke-miterlimit="1" width="252.761" height="56.084"/>
		
			<rect x="84.153" y="253.273" fill="#86B2D8" stroke="#010101" stroke-width="0.75" stroke-linecap="round" stroke-linejoin="round" stroke-miterlimit="1" width="240.819" height="42.037"/>
		
			<rect x="96.857" y="267.227" fill="#FFFFFF" stroke="#010101" stroke-width="0.75" stroke-linecap="round" stroke-linejoin="round" stroke-miterlimit="1" width="228.115" height="13.953"/>
		<rect x="76.32" y="243.455" fill="none" width="170.795" height="7.717"/>
		<text transform="matrix(0.9288 0 0 1 76.3203 249.1777)" font-size="8">&gt;Frame Anatomy Sequence</text>
		<rect x="279.713" y="243.455" fill="none" width="44.984" height="7.717"/>
		<text transform="matrix(0.9288 0 0 1 279.6943 249.1582)" font-size="8">(0020,9071)</text>
		<rect x="279.713" y="229.934" fill="none" width="44.984" height="7.715"/>
		<text transform="matrix(0.9288 0 0 1 279.6943 235.6357)" font-size="8">(0020,0037)</text>
		<rect x="279.713" y="271.887" fill="none" width="44.984" height="7.715"/>
		<text transform="matrix(0.9288 0 0 1 279.6943 277.5889)" font-size="8">(0020,9072)</text>
		<rect x="87.486" y="257.971" fill="none" width="108.835" height="7.717"/>
		<text transform="matrix(0.9288 0 0 1 87.4863 263.6934)" font-size="8">Item 1</text>
		<rect x="100.566" y="271.887" fill="none" width="136.597" height="7.717"/>
		<text transform="matrix(0.9288 0 0 1 100.5703 277.582)" font-size="8">&gt;&gt;Frame Laterality</text>
		
			<rect x="96.857" y="281.357" fill="#FFFFFF" stroke="#010101" stroke-width="0.75" stroke-linecap="round" stroke-linejoin="round" stroke-miterlimit="1" width="228.115" height="13.953"/>
		<rect x="279.713" y="286.018" fill="none" width="44.984" height="7.715"/>
		<text transform="matrix(0.9288 0 0 1 279.6943 291.7197)" font-size="8">(0008,2218)</text>
		<rect x="100.566" y="286.018" fill="none" width="136.597" height="7.717"/>
		<text transform="matrix(0.9288 0 0 1 100.5703 291.7129)" font-size="8">&gt;&gt;Anatomic Region Sequence</text>
		
			<rect x="96.857" y="183.28" fill="#FFFFFF" stroke="#010101" stroke-width="0.75" stroke-linecap="round" stroke-linejoin="round" stroke-miterlimit="1" width="228.115" height="13.953"/>
		<rect x="100.566" y="187.941" fill="none" width="136.597" height="7.717"/>
		<text transform="matrix(0.9288 0 0 1 100.5703 193.6367)" font-size="8">&gt;&gt;Pixel Spacing</text>
		<rect x="280.115" y="187.941" fill="none" width="44.582" height="7.717"/>
		<text transform="matrix(0.9288 0 0 1 280.0967 193.6421)" font-size="8">(0028,0030)</text>
		
			<rect x="72.194" y="127.29" fill="#FFFFFF" stroke="#010101" stroke-width="0.75" stroke-linecap="round" stroke-linejoin="round" stroke-miterlimit="1" width="252.778" height="14"/>
		<rect x="76.32" y="130.462" fill="none" width="189.98" height="7.717"/>
		<text transform="matrix(0.9288 0 0 1 76.3203 136.1851)" font-size="8">...</text>
		
			<rect x="72.194" y="295.311" fill="#FFFFFF" stroke="#010101" stroke-width="0.75" stroke-linecap="round" stroke-linejoin="round" stroke-miterlimit="1" width="252.778" height="14"/>
		<rect x="76.32" y="298.482" fill="none" width="189.98" height="7.717"/>
		<text transform="matrix(0.9288 0 0 1 76.3203 304.2041)" font-size="8">...</text>
		<rect x="42.763" y="313.66" fill="none" width="127.731" height="7.721"/>
		<text transform="matrix(0.9288 0 0 1 42.7671 319.3613)" font-size="8">...</text>
		
			<rect x="38.623" y="323.697" fill="#B2CEE7" stroke="#010101" stroke-width="0.75" stroke-linecap="round" stroke-linejoin="round" stroke-miterlimit="1" width="286.332" height="97.592"/>
		
			<rect x="55.398" y="337.695" fill="#86B2D8" stroke="#010101" stroke-width="0.75" stroke-linecap="round" stroke-linejoin="round" stroke-miterlimit="1" width="269.574" height="14"/>
		<rect x="42.763" y="327.17" fill="none" width="164.911" height="7.717"/>
		<text transform="matrix(0.9288 0 0 1 42.7671 332.8721)" font-size="8">Per-Frame Functional Groups Sequence</text>
		<rect x="279.713" y="327.17" fill="none" width="44.984" height="7.717"/>
		<text transform="matrix(0.9288 0 0 1 279.6943 332.873)" font-size="8">(5200,9230)</text>
		
			<rect x="72.194" y="337.695" fill="#FFFFFF" stroke="#010101" stroke-width="0.75" stroke-linecap="round" stroke-linejoin="round" stroke-miterlimit="1" width="252.778" height="14"/>
		<rect x="76.32" y="340.867" fill="none" width="189.98" height="7.717"/>
		<text transform="matrix(0.9288 0 0 1 76.3203 346.5898)" font-size="8">...</text>
		
			<rect x="55.398" y="407.289" fill="#86B2D8" stroke="#010101" stroke-width="0.75" stroke-linecap="round" stroke-linejoin="round" stroke-miterlimit="1" width="269.574" height="14"/>
		
			<rect x="72.194" y="407.289" fill="#FFFFFF" stroke="#010101" stroke-width="0.75" stroke-linecap="round" stroke-linejoin="round" stroke-miterlimit="1" width="252.778" height="14"/>
		<rect x="76.32" y="410.461" fill="none" width="189.98" height="7.717"/>
		<text transform="matrix(0.9288 0 0 1 76.3203 416.1836)" font-size="8">...</text>
		
			<rect x="55.398" y="352.07" fill="#86B2D8" stroke="#010101" stroke-width="0.75" stroke-linecap="round" stroke-linejoin="round" stroke-miterlimit="1" width="269.574" height="55.219"/>
		<rect x="58.003" y="356.656" fill="none" width="127.731" height="7.721"/>
		<text transform="matrix(0.9288 0 0 1 58.0078 362.3594)" font-size="8">Item i</text>
		
			<rect x="72.194" y="365.336" fill="#FFFFFF" stroke="#010101" stroke-width="0.75" stroke-linecap="round" stroke-linejoin="round" stroke-miterlimit="1" width="252.761" height="41.953"/>
		
			<rect x="84.153" y="379.383" fill="#86B2D8" stroke="#010101" stroke-width="0.75" stroke-linecap="round" stroke-linejoin="round" stroke-miterlimit="1" width="240.819" height="27.906"/>
		
			<rect x="96.857" y="393.336" fill="#FFFFFF" stroke="#010101" stroke-width="0.75" stroke-linecap="round" stroke-linejoin="round" stroke-miterlimit="1" width="228.115" height="13.953"/>
		<rect x="76.32" y="369.564" fill="none" width="170.795" height="7.717"/>
		<text transform="matrix(0.9288 0 0 1 76.3203 375.2871)" font-size="8">&gt;Plane Position Sequence</text>
		<rect x="279.713" y="369.564" fill="none" width="44.984" height="7.717"/>
		<text transform="matrix(0.9288 0 0 1 279.6943 375.2676)" font-size="8">(0020,9113)</text>
		<rect x="87.486" y="384.08" fill="none" width="108.835" height="7.717"/>
		<text transform="matrix(0.9288 0 0 1 87.4863 389.8027)" font-size="8">Item 1</text>
		<rect x="100.566" y="397.996" fill="none" width="136.597" height="7.717"/>
		<text transform="matrix(0.9288 0 0 1 100.5703 403.6914)" font-size="8">&gt;&gt;Image Position (Patient)</text>
		<rect x="280.115" y="397.996" fill="none" width="44.582" height="7.717"/>
		<text transform="matrix(0.9288 0 0 1 280.0967 403.6973)" font-size="8">(0020,0032)</text>
		<rect x="342.839" y="19.183" fill="none" width="157.383" height="66.521"/>
		<text transform="matrix(0.9288 0 0 1 342.8389 24.9067)"><tspan x="0" y="0" font-size="8">= UID “Z2”</tspan><tspan x="0" y="14" font-size="8">= 256</tspan><tspan x="0" y="28" font-size="8">= 256</tspan><tspan x="0" y="56" font-size="8">= UID “D”</tspan></text>
		<rect x="42.788" y="89.177" fill="none" width="164.911" height="7.717"/>
		<text transform="matrix(0.9288 0 0 1 42.7925 94.8794)" font-size="8">...</text>
		
			<rect x="38.648" y="43.708" fill="#B2CEE7" stroke="#010101" stroke-width="0.75" stroke-linecap="round" stroke-linejoin="round" stroke-miterlimit="1" width="286.333" height="13.998"/>
		
			<rect x="38.648" y="43.708" fill="#B2CEE7" stroke="#010101" stroke-width="0.75" stroke-linecap="round" stroke-linejoin="round" stroke-miterlimit="1" width="286.333" height="13.998"/>
		<rect x="42.788" y="47.179" fill="none" width="164.911" height="7.717"/>
		<text transform="matrix(0.9288 0 0 1 42.7925 52.8813)" font-size="8">Columns</text>
		
			<rect x="38.648" y="15.711" fill="#B2CEE7" stroke="#010101" stroke-width="0.75" stroke-linecap="round" stroke-linejoin="round" stroke-miterlimit="1" width="286.333" height="13.998"/>
		<rect x="42.788" y="19.183" fill="none" width="164.911" height="7.717"/>
		<text transform="matrix(0.9288 0 0 1 42.7925 24.8853)" font-size="8">SOP Instance UID</text>
		<rect x="279.739" y="47.179" fill="none" width="44.984" height="7.716"/>
		<text transform="matrix(0.9288 0 0 1 279.7197 52.8818)" font-size="8">(0028,0011)</text>
		
			<rect x="38.648" y="71.706" fill="#B2CEE7" stroke="#010101" stroke-width="0.75" stroke-linecap="round" stroke-linejoin="round" stroke-miterlimit="1" width="286.333" height="13.998"/>
		<rect x="42.788" y="75.177" fill="none" width="164.911" height="7.717"/>
		<text transform="matrix(0.9288 0 0 1 42.7925 80.8794)" font-size="8">Frame of Reference UID</text>
		<rect x="279.739" y="75.177" fill="none" width="44.984" height="7.716"/>
		<text transform="matrix(0.9288 0 0 1 279.7197 80.8794)" font-size="8">(0020,0052)</text>
		<rect x="42.788" y="61.177" fill="none" width="164.911" height="7.717"/>
		<text transform="matrix(0.9288 0 0 1 42.7925 66.8794)" font-size="8">...</text>
		
			<rect x="38.662" y="29.709" fill="#B2CEE7" stroke="#010101" stroke-width="0.75" stroke-linecap="round" stroke-linejoin="round" stroke-miterlimit="1" width="286.331" height="13.998"/>
		
			<rect x="38.662" y="29.709" fill="#B2CEE7" stroke="#010101" stroke-width="0.75" stroke-linecap="round" stroke-linejoin="round" stroke-miterlimit="1" width="286.331" height="13.998"/>
		<rect x="42.802" y="33.181" fill="none" width="164.911" height="7.717"/>
		<text transform="matrix(0.9288 0 0 1 42.8062 38.8833)" font-size="8">Rows</text>
		<rect x="279.751" y="33.181" fill="none" width="44.984" height="7.716"/>
		<text transform="matrix(0.9288 0 0 1 279.7324 38.8838)" font-size="8">(0028,0010)</text>
		<rect x="279.739" y="19.183" fill="none" width="44.984" height="7.716"/>
		<text transform="matrix(0.9288 0 0 1 279.7197 24.8857)" font-size="8">(0008,0018)</text>
	</g>
</g>
</svg>
