<?xml version="1.0" encoding="utf-8"?>

<svg version="1.1" id="Layer_1" xmlns="http://www.w3.org/2000/svg" xmlns:xlink="http://www.w3.org/1999/xlink" x="0px" y="0px"
	 viewBox="0 0 502 97" enable-background="new 0 0 502 97" xml:space="preserve">

<defs>
	<style type="text/css">
	text {
	  font-family: Helvetica, Verdana, ArialUnicodeMS, san-serif
	}
	</style>
</defs>

<g>
   <desc>
	PS 3.17 : Explanatory Information
   </desc>
</g>

<g>
	<rect x="1" y="1" fill="#F3EDD6" width="500" height="95"/>
	<g>
		<g>
			<rect x="84.299" y="37.248" fill="#CBD0E0" stroke="#010101" stroke-miterlimit="1" width="57.9" height="14.401"/>
			<rect x="142.299" y="37.248" fill="#CBD0E0" stroke="#010101" stroke-miterlimit="1" width="14.4" height="14.401"/>
			<rect x="156.904" y="37.248" fill="#CBD0E0" stroke="#010101" stroke-miterlimit="1" width="101.4" height="14.401"/>
			<rect x="26.299" y="37.248" fill="#CBD0E0" stroke="#010101" stroke-miterlimit="1" width="29.4" height="14.401"/>
			<rect x="55.299" y="37.248" fill="#CBD0E0" stroke="#010101" stroke-miterlimit="1" width="14.4" height="14.401"/>
			<rect x="69.799" y="37.248" fill="#CBD0E0" stroke="#010101" stroke-miterlimit="1" width="14.4" height="14.401"/>
			<rect x="258.3" y="37.248" fill="#CBD0E0" stroke="#010101" stroke-miterlimit="1" width="217.401" height="14.401"/>
		</g>
		<g>
			<text transform="matrix(0.8815 0 0 1 30.585 48.3241)" font-size="10px">V = 2</text>
		</g>
		<g>
			<text transform="matrix(0.8815 0 0 1 59.1235 48.3241)" font-size="10px">P</text>
		</g>
		<g>
			<text transform="matrix(0.8815 0 0 1 73.7158 48.3241)" font-size="10px">X</text>
		</g>
		<g>
			<text transform="matrix(0.8815 0 0 1 106.8819 48.3241)" font-size="10px">CC</text>
		</g>
		<g>
			<text transform="matrix(0.8815 0 0 1 145.6096 48.3241)" font-size="10px">M</text>
		</g>
		<g>
			<text transform="matrix(0.8815 0 0 1 201.7414 48.3241)" font-size="10px">PT</text>
		</g>
		<g>
			<text transform="matrix(0.8815 0 0 1 331.5632 48.3241)" font-size="10px">sequence number</text>
		</g>
		<g>
			<rect x="26.299" y="51.649" fill="#CBD0E0" stroke="#010101" stroke-miterlimit="1" width="449.401" height="14.401"/>
		</g>
		<g>
			<text transform="matrix(0.8815 0 0 1 238.5098 62.2249)" font-size="10px">timestamp</text>
		</g>
		<g>
			<rect x="26.299" y="66.05" fill="#CBD0E0" stroke="#010101" stroke-miterlimit="1" width="449.401" height="14.401"/>
		</g>
		<g>
			<text transform="matrix(0.8815 0 0 1 179.4688 76.6257)" font-size="10px">synchronization source (SSRC) identifier</text>
		</g>
		<g>
			
				<rect x="461.3" y="16.55" fill="#FFFFFF" stroke="#010101" stroke-width="0.75" stroke-miterlimit="1" width="14.4" height="14.401"/>
			
				<rect x="301.8" y="16.55" fill="#FFFFFF" stroke="#010101" stroke-width="0.75" stroke-miterlimit="1" width="14.4" height="14.401"/>
			
				<rect x="316.3" y="16.55" fill="#FFFFFF" stroke="#010101" stroke-width="0.75" stroke-miterlimit="1" width="14.4" height="14.401"/>
			
				<rect x="330.8" y="16.55" fill="#FFFFFF" stroke="#010101" stroke-width="0.75" stroke-miterlimit="1" width="14.4" height="14.401"/>
			
				<rect x="345.3" y="16.55" fill="#FFFFFF" stroke="#010101" stroke-width="0.75" stroke-miterlimit="1" width="14.4" height="14.401"/>
			
				<rect x="359.8" y="16.55" fill="#FFFFFF" stroke="#010101" stroke-width="0.75" stroke-miterlimit="1" width="14.4" height="14.401"/>
			
				<rect x="374.3" y="16.55" fill="#FFFFFF" stroke="#010101" stroke-width="0.75" stroke-miterlimit="1" width="14.4" height="14.401"/>
			
				<rect x="388.8" y="16.55" fill="#FFFFFF" stroke="#010101" stroke-width="0.75" stroke-miterlimit="1" width="14.4" height="14.401"/>
			
				<rect x="403.3" y="16.55" fill="#FFFFFF" stroke="#010101" stroke-width="0.75" stroke-miterlimit="1" width="14.4" height="14.401"/>
			
				<rect x="417.8" y="16.55" fill="#FFFFFF" stroke="#010101" stroke-width="0.75" stroke-miterlimit="1" width="14.4" height="14.401"/>
			
				<rect x="432.3" y="16.55" fill="#FFFFFF" stroke="#010101" stroke-width="0.75" stroke-miterlimit="1" width="14.4" height="14.401"/>
			
				<rect x="446.8" y="16.55" fill="#FFFFFF" stroke="#010101" stroke-width="0.75" stroke-miterlimit="1" width="14.4" height="14.401"/>
			
				<rect x="84.299" y="16.55" fill="#FFFFFF" stroke="#010101" stroke-width="0.75" stroke-miterlimit="1" width="14.4" height="14.401"/>
			
				<rect x="98.799" y="16.55" fill="#FFFFFF" stroke="#010101" stroke-width="0.75" stroke-miterlimit="1" width="14.4" height="14.401"/>
			
				<rect x="113.299" y="16.55" fill="#FFFFFF" stroke="#010101" stroke-width="0.75" stroke-miterlimit="1" width="14.4" height="14.401"/>
			
				<rect x="127.799" y="16.55" fill="#FFFFFF" stroke="#010101" stroke-width="0.75" stroke-miterlimit="1" width="14.4" height="14.401"/>
			
				<rect x="142.299" y="16.55" fill="#FFFFFF" stroke="#010101" stroke-width="0.75" stroke-miterlimit="1" width="14.4" height="14.401"/>
			
				<rect x="156.904" y="16.55" fill="#FFFFFF" stroke="#010101" stroke-width="0.75" stroke-miterlimit="1" width="14.4" height="14.401"/>
			
				<rect x="171.299" y="16.55" fill="#FFFFFF" stroke="#010101" stroke-width="0.75" stroke-miterlimit="1" width="14.401" height="14.401"/>
			
				<rect x="185.8" y="16.55" fill="#FFFFFF" stroke="#010101" stroke-width="0.75" stroke-miterlimit="1" width="14.4" height="14.401"/>
			
				<rect x="200.3" y="16.55" fill="#FFFFFF" stroke="#010101" stroke-width="0.75" stroke-miterlimit="1" width="14.4" height="14.401"/>
			
				<rect x="214.8" y="16.55" fill="#FFFFFF" stroke="#010101" stroke-width="0.75" stroke-miterlimit="1" width="14.4" height="14.401"/>
			
				<rect x="229.3" y="16.55" fill="#FFFFFF" stroke="#010101" stroke-width="0.75" stroke-miterlimit="1" width="14.4" height="14.401"/>
			
				<rect x="26.299" y="16.55" fill="#FFFFFF" stroke="#010101" stroke-width="0.75" stroke-miterlimit="1" width="14.4" height="14.401"/>
			
				<rect x="40.799" y="16.55" fill="#FFFFFF" stroke="#010101" stroke-width="0.75" stroke-miterlimit="1" width="14.4" height="14.401"/>
			
				<rect x="55.299" y="16.55" fill="#FFFFFF" stroke="#010101" stroke-width="0.75" stroke-miterlimit="1" width="14.4" height="14.401"/>
			
				<rect x="69.799" y="16.55" fill="#FFFFFF" stroke="#010101" stroke-width="0.75" stroke-miterlimit="1" width="14.4" height="14.401"/>
			
				<rect x="243.8" y="16.55" fill="#FFFFFF" stroke="#010101" stroke-width="0.75" stroke-miterlimit="1" width="14.4" height="14.401"/>
			
				<rect x="258.3" y="16.55" fill="#FFFFFF" stroke="#010101" stroke-width="0.75" stroke-miterlimit="1" width="14.401" height="14.401"/>
			
				<rect x="272.8" y="16.55" fill="#FFFFFF" stroke="#010101" stroke-width="0.75" stroke-miterlimit="1" width="14.4" height="14.401"/>
			
				<rect x="287.3" y="16.55" fill="#FFFFFF" stroke="#010101" stroke-width="0.75" stroke-miterlimit="1" width="14.4" height="14.401"/>
		</g>
		<g>
			<text transform="matrix(0.8815 0 0 1 31.0484 28.6257)" font-size="10px">0</text>
		</g>
		<g>
			<text transform="matrix(0.8815 0 0 1 45.02 28.6257)" font-size="10px">1</text>
		</g>
		<g>
			<text transform="matrix(0.8815 0 0 1 59.6123 28.6257)" font-size="10px">2</text>
		</g>
		<g>
			<text transform="matrix(0.8815 0 0 1 74.2046 28.6257)" font-size="10px">3</text>
		</g>
		<g>
			<text transform="matrix(0.8815 0 0 1 88.7969 28.6257)" font-size="10px">4</text>
		</g>
		<g>
			<text transform="matrix(0.8815 0 0 1 103.674 28.6257)" font-size="10px">5</text>
		</g>
		<g>
			<text transform="matrix(0.8815 0 0 1 117.6457 28.6257)" font-size="10px">6</text>
		</g>
		<g>
			<text transform="matrix(0.8815 0 0 1 132.238 28.6257)" font-size="10px">7</text>
		</g>
		<g>
			<text transform="matrix(0.8815 0 0 1 146.8303 28.6257)" font-size="10px">8</text>
		</g>
		<g>
			<text transform="matrix(0.8815 0 0 1 161.4226 28.6257)" font-size="10px">9</text>
		</g>
		<g>
			<text transform="matrix(0.8815 0 0 1 173.8481 28.6257)" font-size="10px">10</text>
		</g>
		<g>
			<text transform="matrix(0.8815 0 0 1 187.8198 28.6257)" font-size="10px">11</text>
		</g>
		<g>
			<text transform="matrix(0.8815 0 0 1 202.412 28.6257)" font-size="10px">12</text>
		</g>
		<g>
			<text transform="matrix(0.8815 0 0 1 217.0043 28.6257)" font-size="10px">13</text>
		</g>
		<g>
			<text transform="matrix(0.8815 0 0 1 231.5966 28.6257)" font-size="10px">14</text>
		</g>
		<g>
			<text transform="matrix(0.8815 0 0 1 246.4738 28.6257)" font-size="10px">15</text>
		</g>
		<g>
			<text transform="matrix(0.8815 0 0 1 260.4455 28.6257)" font-size="10px">16</text>
		</g>
		<g>
			<text transform="matrix(0.8815 0 0 1 275.0378 28.6257)" font-size="10px">17</text>
		</g>
		<g>
			<text transform="matrix(0.8815 0 0 1 289.6301 28.6257)" font-size="10px">18</text>
		</g>
		<g>
			<text transform="matrix(0.8815 0 0 1 304.2224 28.6257)" font-size="10px">19</text>
		</g>
		<g>
			<text transform="matrix(0.8815 0 0 1 319.0995 28.6257)" font-size="10px">20</text>
		</g>
		<g>
			<text transform="matrix(0.8815 0 0 1 333.0712 28.6257)" font-size="10px">21</text>
		</g>
		<g>
			<text transform="matrix(0.8815 0 0 1 347.6635 28.6257)" font-size="10px">22</text>
		</g>
		<g>
			<text transform="matrix(0.8815 0 0 1 362.2558 28.6257)" font-size="10px">23</text>
		</g>
		<g>
			<text transform="matrix(0.8815 0 0 1 376.8481 28.6257)" font-size="10px">24</text>
		</g>
		<g>
			<text transform="matrix(0.8815 0 0 1 391.7252 28.6257)" font-size="10px">25</text>
		</g>
		<g>
			<text transform="matrix(0.8815 0 0 1 405.6969 28.6257)" font-size="10px">26</text>
		</g>
		<g>
			<text transform="matrix(0.8815 0 0 1 420.2892 28.6257)" font-size="10px">27</text>
		</g>
		<g>
			<text transform="matrix(0.8815 0 0 1 434.8815 28.6257)" font-size="10px">29</text>
		</g>
		<g>
			<text transform="matrix(0.8815 0 0 1 449.4738 28.6257)" font-size="10px">30</text>
		</g>
		<g>
			<text transform="matrix(0.8815 0 0 1 464.3509 28.6257)" font-size="10px">31</text>
		</g>
	</g>
</g>
</svg>
