<?xml version="1.0" encoding="utf-8"?>

<!DOCTYPE svg PUBLIC "-//W3C//DTD SVG 1.1//EN" "http://www.w3.org/Graphics/SVG/1.1/DTD/svg11.dtd">
<svg version="1.1" id="Layer_1" xmlns="http://www.w3.org/2000/svg" xmlns:xlink="http://www.w3.org/1999/xlink" x="0px" y="0px"
	 width="627px" height="547px" viewBox="0 0 627 547" enable-background="new 0 0 627 547" xml:space="preserve">

<defs>
	<style type="text/css">
	text {
	  font-family: Helvetica, Verdana, ArialUnicodeMS, san-serif
	}
	</style>
</defs>

<g>
   <desc>
	PS 3.17 : Explanatory Information
   </desc>
</g>

<g>
	<rect x="1" y="1" fill="#F5EED8" width="625" height="545"/>
	<g>
		
			<line fill="#538DBE" stroke="#005995" stroke-linecap="round" stroke-linejoin="round" stroke-miterlimit="1" stroke-dasharray="3" x1="498.356" y1="469.111" x2="498.356" y2="15.979"/>
		
			<line fill="#538DBE" stroke="#005995" stroke-linecap="round" stroke-linejoin="round" stroke-miterlimit="1" stroke-dasharray="3" x1="344.537" y1="469.111" x2="344.537" y2="15.979"/>
		
			<rect x="344.377" y="27.099" fill="#CEDFEF" stroke="#010101" stroke-width="0.75" stroke-linecap="round" stroke-linejoin="round" stroke-miterlimit="1" width="153.979" height="423.466"/>
		<rect x="346.541" y="28.987" fill="none" width="151.691" height="8.51"/>
		<text transform="matrix(0.9288 0 0 1 346.541 35.4297)" font-size="9">Shared Functional Groups Sequence</text>
		
			<rect x="344.377" y="39.965" fill="#8AB4D7" stroke="#010101" stroke-width="0.75" stroke-linecap="round" stroke-linejoin="round" stroke-miterlimit="1" width="153.979" height="76.537"/>
		
			<rect x="358.775" y="55.04" fill="#B4CFE6" stroke="#010101" stroke-width="0.75" stroke-linecap="round" stroke-linejoin="round" stroke-miterlimit="1" width="139.581" height="61.462"/>
		
			<rect x="373.079" y="70.404" fill="#8AB4D7" stroke="#010101" stroke-width="0.75" stroke-linecap="round" stroke-linejoin="round" stroke-miterlimit="1" width="125.277" height="46.098"/>
		<rect x="358.775" y="43.577" fill="none" width="139.581" height="8.511"/>
		<text transform="matrix(0.9288 0 0 1 358.7754 50.0181)" font-size="9">Item 1 (Shared - All Frames)</text>
		<rect x="387.479" y="85.77" fill="#FFFFFF" stroke="#000000" width="110.877" height="30.732"/>
		<rect x="393.021" y="89.472" fill="none" width="103.894" height="18.125"/>
		<text transform="matrix(0.8793 0 0 1 393.0215 95.3125)"><tspan x="0" y="0" font-size="8.1589">Reference to source image </tspan><tspan x="0" y="9.791" font-size="8.1589">(external object)</tspan></text>
		<rect x="375.683" y="73.189" fill="none" width="121.71" height="7.715"/>
		<text transform="matrix(0.8793 0 0 1 375.6826 79.0293)" font-size="8.1589">Item 1</text>
		<rect x="362.693" y="58.744" fill="none" width="135.663" height="7.716"/>
		<text transform="matrix(0.8793 0 0 1 362.6934 64.5835)" font-size="8.1589">Derivative Image Sequence</text>
		<rect x="378.888" y="15.979" fill="none" width="84.958" height="8.51"/>
		<text transform="matrix(0.9288 0 0 1 392.0977 22.4199)" font-size="9">Other Attributes</text>
		<rect x="378.889" y="456.574" fill="none" width="84.957" height="8.51"/>
		<text transform="matrix(0.9288 0 0 1 392.0977 462.9551)" font-size="9">Other Attributes</text>
		<rect x="346.541" y="119.45" fill="none" width="151.688" height="8.51"/>
		<text transform="matrix(0.9288 0 0 1 346.541 125.833)" font-size="9">Per-frame Functional Groups Sequence</text>
		
			<rect x="344.377" y="130.428" fill="#8AB4D7" stroke="#010101" stroke-width="0.75" stroke-linecap="round" stroke-linejoin="round" stroke-miterlimit="1" width="153.979" height="76.536"/>
		
			<rect x="358.775" y="145.503" fill="#B4CFE6" stroke="#010101" stroke-width="0.75" stroke-linecap="round" stroke-linejoin="round" stroke-miterlimit="1" width="139.581" height="61.461"/>
		
			<rect x="373.079" y="160.867" fill="#8AB4D7" stroke="#010101" stroke-width="0.75" stroke-linecap="round" stroke-linejoin="round" stroke-miterlimit="1" width="125.277" height="46.097"/>
		<rect x="358.775" y="134.039" fill="none" width="139.581" height="8.511"/>
		<text transform="matrix(0.9288 0 0 1 358.7754 140.4224)" font-size="9">Item 1 (Frame 1)</text>
		<rect x="387.479" y="176.231" fill="#FFFFFF" stroke="#000000" width="110.877" height="30.732"/>
		<rect x="393.021" y="180.158" fill="none" width="83.516" height="21.006"/>
		<text transform="matrix(0.8793 0 0 1 393.0215 185.9385)"><tspan x="0" y="0" font-size="8.1589">Referenced Segment </tspan><tspan x="0" y="9.791" font-size="8.1589">Number = 1</tspan></text>
		<rect x="375.683" y="163.652" fill="none" width="121.71" height="7.716"/>
		<text transform="matrix(0.8793 0 0 1 375.6826 169.4331)" font-size="8.1589">Item 1</text>
		<rect x="362.693" y="149.207" fill="none" width="135.663" height="7.716"/>
		<text transform="matrix(0.8793 0 0 1 362.6934 154.9878)" font-size="8.1589">Segment Identification Sequence</text>
		
			<rect x="344.377" y="206.985" fill="#8AB4D7" stroke="#010101" stroke-width="0.75" stroke-linecap="round" stroke-linejoin="round" stroke-miterlimit="1" width="153.979" height="76.544"/>
		
			<rect x="358.775" y="222.065" fill="#B4CFE6" stroke="#010101" stroke-width="0.75" stroke-linecap="round" stroke-linejoin="round" stroke-miterlimit="1" width="139.581" height="61.464"/>
		
			<rect x="373.079" y="237.433" fill="#8AB4D7" stroke="#010101" stroke-width="0.75" stroke-linecap="round" stroke-linejoin="round" stroke-miterlimit="1" width="125.277" height="46.097"/>
		<rect x="358.775" y="210.598" fill="none" width="139.581" height="8.513"/>
		<text transform="matrix(0.9288 0 0 1 358.7754 216.981)" font-size="9">Item 2 (Frame 2)</text>
		<rect x="387.479" y="252.8" fill="#FFFFFF" stroke="#000000" width="110.877" height="30.729"/>
		<rect x="393.021" y="256.812" fill="none" width="75.581" height="23.924"/>
		<text transform="matrix(0.8793 0 0 1 393.0215 262.5923)"><tspan x="0" y="0" font-size="8.1589">Referenced Segment </tspan><tspan x="0" y="9.791" font-size="8.1589">Number = 2</tspan></text>
		<rect x="375.683" y="240.22" fill="none" width="121.71" height="7.715"/>
		<text transform="matrix(0.8793 0 0 1 375.6826 246.0005)" font-size="8.1589">Item 1</text>
		<rect x="362.693" y="225.771" fill="none" width="135.663" height="7.716"/>
		<text transform="matrix(0.8793 0 0 1 362.6934 231.5518)" font-size="8.1589">Segment Identification Sequence</text>
		
			<rect x="344.377" y="283.551" fill="#8AB4D7" stroke="#010101" stroke-width="0.75" stroke-linecap="round" stroke-linejoin="round" stroke-miterlimit="1" width="153.979" height="76.533"/>
		
			<rect x="358.775" y="298.625" fill="#B4CFE6" stroke="#010101" stroke-width="0.75" stroke-linecap="round" stroke-linejoin="round" stroke-miterlimit="1" width="139.581" height="61.459"/>
		
			<rect x="373.079" y="313.99" fill="#8AB4D7" stroke="#010101" stroke-width="0.75" stroke-linecap="round" stroke-linejoin="round" stroke-miterlimit="1" width="125.277" height="46.094"/>
		<rect x="358.775" y="287.162" fill="none" width="139.581" height="8.51"/>
		<text transform="matrix(0.9288 0 0 1 358.7754 293.5439)" font-size="9">Item 3 (Frame 3)</text>
		<rect x="387.479" y="329.355" fill="#FFFFFF" stroke="#000000" width="110.877" height="30.729"/>
		<rect x="393.021" y="333.305" fill="none" width="75.658" height="20.717"/>
		<text transform="matrix(0.8793 0 0 1 393.0215 339.085)"><tspan x="0" y="0" font-size="8.1589">Referenced Segment </tspan><tspan x="0" y="9.791" font-size="8.1589">Number = 3</tspan></text>
		<rect x="375.683" y="316.775" fill="none" width="121.71" height="7.715"/>
		<text transform="matrix(0.8793 0 0 1 375.6826 322.5547)" font-size="8.1589">Item 1</text>
		<rect x="362.693" y="302.33" fill="none" width="135.663" height="7.715"/>
		<text transform="matrix(0.8793 0 0 1 362.6934 308.1094)" font-size="8.1589">Segment Identification Sequence</text>
		
			<rect x="344.377" y="360.105" fill="#8AB4D7" stroke="#010101" stroke-width="0.75" stroke-linecap="round" stroke-linejoin="round" stroke-miterlimit="1" width="153.979" height="76.533"/>
		
			<rect x="358.775" y="375.18" fill="#B4CFE6" stroke="#010101" stroke-width="0.75" stroke-linecap="round" stroke-linejoin="round" stroke-miterlimit="1" width="139.581" height="61.459"/>
		
			<rect x="373.079" y="390.545" fill="#8AB4D7" stroke="#010101" stroke-width="0.75" stroke-linecap="round" stroke-linejoin="round" stroke-miterlimit="1" width="125.277" height="46.094"/>
		<rect x="358.775" y="363.717" fill="none" width="139.581" height="8.51"/>
		<text transform="matrix(0.9288 0 0 1 358.7754 370.0986)" font-size="9">Item 4 (Frame 4)</text>
		<rect x="387.479" y="405.91" fill="#FFFFFF" stroke="#000000" width="110.877" height="30.729"/>
		<rect x="393.021" y="409.842" fill="none" width="76.235" height="19.779"/>
		<text transform="matrix(0.8793 0 0 1 393.0215 415.6221)"><tspan x="0" y="0" font-size="8.1589">Referenced Segment </tspan><tspan x="0" y="9.791" font-size="8.1589">Number = 4</tspan></text>
		<rect x="375.683" y="393.33" fill="none" width="121.71" height="7.715"/>
		<text transform="matrix(0.8793 0 0 1 375.6826 399.1094)" font-size="8.1589">Item 1</text>
		<rect x="362.693" y="378.885" fill="none" width="135.663" height="7.715"/>
		<text transform="matrix(0.8793 0 0 1 362.6934 384.6641)" font-size="8.1589">Segment Identification Sequence</text>
		
			<rect x="516.356" y="102.97" fill="#CEDFEF" stroke="#010101" stroke-width="0.75" stroke-linecap="round" stroke-linejoin="round" stroke-miterlimit="1" width="81.591" height="319.987"/>
		
			<line fill="#538DBE" stroke="#005995" stroke-linecap="round" stroke-linejoin="round" stroke-miterlimit="1" stroke-dasharray="3" x1="597.947" y1="437.479" x2="597.947" y2="85.829"/>
		
			<line fill="#538DBE" stroke="#005995" stroke-linecap="round" stroke-linejoin="round" stroke-miterlimit="1" stroke-dasharray="3" x1="516.356" y1="437.477" x2="516.356" y2="85.829"/>
		<rect x="517.488" y="105.799" fill="none" width="80.459" height="8.51"/>
		<text transform="matrix(0.8191 0 0 1 517.4883 112.1826)" font-size="9">Pixel Data</text>
		
			<rect x="531.847" y="116.747" fill="#8AB4D7" stroke="#010101" stroke-width="0.75" stroke-linecap="round" stroke-linejoin="round" stroke-miterlimit="1" width="66.101" height="76.56"/>
		<rect x="535.673" y="120.347" fill="none" width="62.274" height="8.511"/>
		<text transform="matrix(0.8191 0 0 1 535.6738 126.7305)" font-size="9">Frame 1</text>
		
			<rect x="531.847" y="193.307" fill="#8AB4D7" stroke="#010101" stroke-width="0.75" stroke-linecap="round" stroke-linejoin="round" stroke-miterlimit="1" width="66.101" height="76.54"/>
		<rect x="535.673" y="196.908" fill="none" width="62.274" height="8.51"/>
		<text transform="matrix(0.8191 0 0 1 535.6738 203.29)" font-size="9">Frame 2</text>
		
			<rect x="531.847" y="346.402" fill="#8AB4D7" stroke="#010101" stroke-width="0.75" stroke-linecap="round" stroke-linejoin="round" stroke-miterlimit="1" width="66.101" height="76.555"/>
		<rect x="535.673" y="350.002" fill="none" width="62.274" height="8.51"/>
		<text transform="matrix(0.8191 0 0 1 535.6738 356.3838)" font-size="9">Frame 4</text>
		
			<rect x="531.847" y="269.847" fill="#8AB4D7" stroke="#010101" stroke-width="0.75" stroke-linecap="round" stroke-linejoin="round" stroke-miterlimit="1" width="66.101" height="76.556"/>
		<rect x="535.673" y="273.447" fill="none" width="62.274" height="8.51"/>
		<text transform="matrix(0.8191 0 0 1 535.6738 279.8291)" font-size="9">Frame 3</text>
		
			<rect x="29.071" y="178.544" fill="#CEDFEF" stroke="#010101" stroke-width="0.75" stroke-linecap="round" stroke-linejoin="round" stroke-miterlimit="1" width="297.116" height="333.931"/>
		
			<line fill="#538DBE" stroke="#005995" stroke-linecap="round" stroke-linejoin="round" stroke-miterlimit="1" stroke-dasharray="3" x1="326.188" y1="531.021" x2="326.188" y2="161.401"/>
		
			<line fill="#538DBE" stroke="#005995" stroke-linecap="round" stroke-linejoin="round" stroke-miterlimit="1" stroke-dasharray="3" x1="29.071" y1="531.021" x2="29.071" y2="161.401"/>
		<rect x="135.169" y="164.978" fill="none" width="84.957" height="8.51"/>
		<text transform="matrix(0.9288 0 0 1 148.3594 171.4189)" font-size="9">Other Attributes</text>
		<rect x="135.169" y="518.484" fill="none" width="84.957" height="8.51"/>
		<text transform="matrix(0.9288 0 0 1 148.3594 524.8662)" font-size="9">Other Attributes</text>
		<rect x="32.155" y="181.373" fill="none" width="195.457" height="8.511"/>
		<text transform="matrix(0.9288 0 0 1 32.1367 187.7559)" font-size="9">Segment Sequence</text>
		
			<rect x="46.638" y="192.351" fill="#8AB4D7" stroke="#010101" stroke-width="0.75" stroke-linecap="round" stroke-linejoin="round" stroke-miterlimit="1" width="279.55" height="76.533"/>
		<rect x="50.977" y="195.962" fill="none" width="176.445" height="8.511"/>
		<text transform="matrix(0.9288 0 0 1 50.958 202.3452)" font-size="9">Item 1 (Segment 1)</text>
		<rect x="63.415" y="207.426" fill="#FFFFFF" stroke="#005995" width="262.772" height="61.458"/>
		<line fill="#FFFFFF" stroke="#005995" x1="63.415" y1="253.519" x2="326.188" y2="253.519"/>
		<line fill="#FFFFFF" stroke="#005995" x1="63.415" y1="238.155" x2="326.188" y2="238.155"/>
		<line fill="#FFFFFF" stroke="#005995" x1="63.415" y1="222.79" x2="326.188" y2="222.79"/>
		<rect x="66.796" y="211.13" fill="none" width="259.391" height="56.672"/>
		<text transform="matrix(0.9288 0 0 1 66.7964 217.5728)"><tspan x="0" y="0" font-size="9">Segment Number = 1</tspan><tspan x="0" y="15.8" font-size="9">Segment Label = Left Ventricle</tspan><tspan x="0" y="31.6" font-size="9">Segment Property Category Code Sequence = Tissue</tspan><tspan x="0" y="47.4" font-size="9">Segment Property Type Code Sequence = Left Ventricle</tspan></text>
		
			<rect x="46.638" y="268.903" fill="#8AB4D7" stroke="#010101" stroke-width="0.75" stroke-linecap="round" stroke-linejoin="round" stroke-miterlimit="1" width="279.55" height="76.534"/>
		<rect x="50.977" y="272.515" fill="none" width="176.445" height="8.512"/>
		<text transform="matrix(0.9288 0 0 1 50.958 278.8984)" font-size="9">Item 2 (Segment 2)</text>
		<rect x="63.415" y="283.98" fill="#FFFFFF" stroke="#005995" width="262.772" height="61.457"/>
		<line fill="#FFFFFF" stroke="#005995" x1="63.415" y1="330.072" x2="326.188" y2="330.072"/>
		<line fill="#FFFFFF" stroke="#005995" x1="63.415" y1="314.709" x2="326.188" y2="314.709"/>
		<line fill="#FFFFFF" stroke="#005995" x1="63.415" y1="299.344" x2="326.188" y2="299.344"/>
		<rect x="66.129" y="287.684" fill="none" width="260.058" height="56.672"/>
		<text transform="matrix(0.9288 0 0 1 66.1294 294.125)"><tspan x="0" y="0" font-size="9">Segment Number = 2</tspan><tspan x="0" y="15.801" font-size="9">Segment Label = Right Ventricle</tspan><tspan x="0" y="31.6" font-size="9">Segment Property Category Code Sequence = Tissue</tspan><tspan x="0" y="47.4" font-size="9">Segment Property Type Code Sequence = Right Ventricle</tspan></text>
		
			<rect x="46.638" y="345.438" fill="#8AB4D7" stroke="#010101" stroke-width="0.75" stroke-linecap="round" stroke-linejoin="round" stroke-miterlimit="1" width="279.55" height="76.533"/>
		<rect x="50.977" y="349.049" fill="none" width="176.445" height="8.512"/>
		<text transform="matrix(0.9288 0 0 1 50.958 355.4316)" font-size="9">Item 3 (Segment 3)</text>
		<rect x="63.415" y="360.514" fill="#FFFFFF" stroke="#005995" width="262.772" height="61.457"/>
		<line fill="#FFFFFF" stroke="#005995" x1="63.415" y1="406.605" x2="326.188" y2="406.605"/>
		<line fill="#FFFFFF" stroke="#005995" x1="63.415" y1="391.242" x2="326.188" y2="391.242"/>
		<line fill="#FFFFFF" stroke="#005995" x1="63.415" y1="375.877" x2="326.188" y2="375.877"/>
		<rect x="66.796" y="364.217" fill="none" width="259.391" height="56.672"/>
		<text transform="matrix(0.9288 0 0 1 66.7964 370.6582)"><tspan x="0" y="0" font-size="9">Segment Number = 3</tspan><tspan x="0" y="15.801" font-size="9">Segment Label = Stent</tspan><tspan x="0" y="31.6" font-size="9">Segment Property Category Code Sequence = Physical Object</tspan><tspan x="0" y="47.4" font-size="9">Segment Property Type Code Sequence = Stent</tspan></text>
		
			<rect x="46.638" y="421.971" fill="#8AB4D7" stroke="#010101" stroke-width="0.75" stroke-linecap="round" stroke-linejoin="round" stroke-miterlimit="1" width="279.55" height="76.533"/>
		<rect x="50.977" y="425.582" fill="none" width="176.445" height="8.512"/>
		<text transform="matrix(0.9288 0 0 1 50.958 431.9648)" font-size="9">Item 4 (Segment 4)</text>
		<rect x="63.415" y="437.047" fill="#FFFFFF" stroke="#005995" width="262.772" height="61.457"/>
		<line fill="#FFFFFF" stroke="#005995" x1="63.415" y1="483.139" x2="326.188" y2="483.139"/>
		<line fill="#FFFFFF" stroke="#005995" x1="63.415" y1="467.775" x2="326.188" y2="467.775"/>
		<line fill="#FFFFFF" stroke="#005995" x1="63.415" y1="452.41" x2="326.188" y2="452.41"/>
		<rect x="66.796" y="440.771" fill="none" width="259.391" height="56.672"/>
		<text transform="matrix(0.9288 0 0 1 66.7964 447.2129)"><tspan x="0" y="0" font-size="9">Segment Number = 4</tspan><tspan x="0" y="15.801" font-size="9">Segment Label = Aorta</tspan><tspan x="0" y="31.6" font-size="9">Segment Property Category Code Sequence = Anatomical Structure</tspan><tspan x="0" y="47.4" font-size="9">Segment Property Type Code Sequence = Aorta</tspan></text>
		<g>
			<g>
				<line fill="none" stroke="#EB222F" stroke-width="2" x1="435.718" y1="200.218" x2="306.525" y2="200.218"/>
				<path fill="#EB222F" d="M303.691,201.448c1.984,0.599,3.273,1.151,4.865,1.79v-6.053c-0.569,0.271-2.881,1.191-4.865,1.79
					c-2.124,0.642-4.049,1.08-5.298,1.237C299.643,200.368,301.568,200.807,303.691,201.448z"/>
				<circle fill="#EB222F" cx="435.718" cy="200.218" r="4.511"/>
			</g>
		</g>
		<g>
			<g>
				<line fill="none" stroke="#FFF02B" stroke-width="2" x1="435.718" y1="276.771" x2="306.525" y2="276.771"/>
				<path fill="#FFF02B" d="M303.691,278.001c1.984,0.6,3.273,1.151,4.865,1.79v-6.053c-0.569,0.271-2.881,1.191-4.865,1.79
					c-2.124,0.642-4.049,1.08-5.298,1.236C299.643,276.922,301.568,277.36,303.691,278.001z"/>
				<circle fill="#FFF02B" cx="435.718" cy="276.772" r="4.511"/>
			</g>
		</g>
		<g>
			<g>
				<line fill="none" stroke="#21B152" stroke-width="2" x1="435.718" y1="353.324" x2="306.525" y2="353.324"/>
				<path fill="#21B152" d="M303.691,354.554c1.984,0.6,3.273,1.151,4.865,1.79v-6.053c-0.569,0.271-2.881,1.191-4.865,1.79
					c-2.124,0.642-4.049,1.08-5.298,1.236C299.643,353.475,301.568,353.913,303.691,354.554z"/>
				<circle fill="#21B152" cx="435.718" cy="353.325" r="4.511"/>
			</g>
		</g>
		<g>
			<g>
				<line fill="none" stroke="#00B0ED" stroke-width="2" x1="435.718" y1="429.877" x2="306.525" y2="429.877"/>
				<path fill="#00B0ED" d="M303.691,431.106c1.984,0.6,3.273,1.151,4.865,1.79v-6.053c-0.569,0.271-2.881,1.191-4.865,1.79
					c-2.124,0.642-4.049,1.08-5.298,1.236C299.643,430.027,301.568,430.466,303.691,431.106z"/>
				<circle fill="#00B0ED" cx="435.718" cy="429.877" r="4.511"/>
			</g>
		</g>
		<g>
			<g>
				<line fill="none" stroke="#EB222F" stroke-width="2" x1="435.718" y1="137.968" x2="546.911" y2="137.968"/>
				<path fill="#EB222F" d="M549.745,136.738c-1.983-0.599-3.273-1.151-4.865-1.79v6.053c0.57-0.271,2.882-1.191,4.865-1.79
					c2.124-0.642,4.049-1.08,5.298-1.237C553.794,137.818,551.869,137.379,549.745,136.738z"/>
				<circle fill="#EB222F" cx="435.718" cy="137.968" r="4.511"/>
			</g>
		</g>
		<g>
			<g>
				<line fill="none" stroke="#FFF02B" stroke-width="2" x1="435.718" y1="214.521" x2="546.911" y2="214.521"/>
				<path fill="#FFF02B" d="M549.745,213.291c-1.983-0.599-3.273-1.151-4.865-1.79v6.053c0.57-0.271,2.882-1.191,4.865-1.79
					c2.124-0.642,4.049-1.08,5.298-1.237C553.794,214.371,551.869,213.932,549.745,213.291z"/>
				<circle fill="#FFF02B" cx="435.718" cy="214.52" r="4.511"/>
			</g>
		</g>
		<g>
			<g>
				<line fill="none" stroke="#21B152" stroke-width="2" x1="435.718" y1="291.074" x2="546.911" y2="291.074"/>
				<path fill="#21B152" d="M549.745,289.845c-1.983-0.6-3.273-1.151-4.865-1.79v6.053c0.57-0.271,2.882-1.191,4.865-1.79
					c2.124-0.642,4.049-1.08,5.298-1.236C553.794,290.924,551.869,290.485,549.745,289.845z"/>
				<circle fill="#21B152" cx="435.718" cy="291.074" r="4.511"/>
			</g>
		</g>
		<g>
			<g>
				<line fill="none" stroke="#00B0ED" stroke-width="2" x1="435.718" y1="367.627" x2="546.911" y2="367.627"/>
				<path fill="#00B0ED" d="M549.745,366.397c-1.983-0.6-3.273-1.151-4.865-1.79v6.053c0.57-0.271,2.882-1.191,4.865-1.79
					c2.124-0.642,4.049-1.08,5.298-1.236C553.794,367.477,551.869,367.038,549.745,366.397z"/>
				<circle fill="#00B0ED" cx="435.718" cy="367.626" r="4.511"/>
			</g>
		</g>
	</g>
</g>
</svg>
