<?xml version="1.0" encoding="utf-8"?>

<!DOCTYPE svg PUBLIC "-//W3C//DTD SVG 1.1//EN" "http://www.w3.org/Graphics/SVG/1.1/DTD/svg11.dtd">
<svg version="1.1" id="Layer_1" xmlns="http://www.w3.org/2000/svg" xmlns:xlink="http://www.w3.org/1999/xlink" x="0px" y="0px"
	 width="502px" height="427px" viewBox="0 0 502 427" enable-background="new 0 0 502 427" xml:space="preserve">

<defs>
	<style type="text/css">
	text {
	  font-family: Helvetica, Verdana, ArialUnicodeMS, san-serif
	}
	</style>
</defs>

<g>
   <desc>
	PS 3.17 Part 17: Explanatory Information
   </desc>
</g>

<g>
	<rect x="1" y="1" fill="#F5EED6" width="500" height="425"/>
	<g>
		<rect x="138.296" y="16.718" fill="#86B2D8" stroke="#010101" stroke-miterlimit="1" width="299.97" height="16"/>
		<rect x="216.919" y="251.509" fill="#86B2D8" stroke="#010101" stroke-miterlimit="1" width="142" height="16"/>
		<rect x="141.921" y="101.541" fill="#FFFFFF" stroke="#010101" stroke-miterlimit="1" width="9.999" height="10"/>
		<rect x="151.92" y="101.541" fill="#FFFFFF" stroke="#010101" stroke-miterlimit="1" width="9.999" height="10"/>
		<rect x="161.919" y="101.541" fill="#FFFFFF" stroke="#010101" stroke-miterlimit="1" width="9.999" height="10"/>
		<rect x="192.005" y="101.541" fill="#FFFFFF" stroke="#010101" stroke-miterlimit="1" width="9.999" height="10"/>
		<rect x="202.004" y="101.541" fill="#FFFFFF" stroke="#010101" stroke-miterlimit="1" width="9.999" height="10"/>
		<rect x="212.003" y="101.541" fill="#FFFFFF" stroke="#010101" stroke-miterlimit="1" width="9.999" height="10"/>
		<rect x="242.088" y="101.541" fill="#FFFFFF" stroke="#010101" stroke-miterlimit="1" width="10" height="10"/>
		<rect x="252.088" y="101.541" fill="#FFFFFF" stroke="#010101" stroke-miterlimit="1" width="9.998" height="10"/>
		<rect x="262.086" y="101.541" fill="#FFFFFF" stroke="#010101" stroke-miterlimit="1" width="10" height="10"/>
		<rect x="292.172" y="101.541" fill="#FFFFFF" stroke="#010101" stroke-miterlimit="1" width="9.999" height="10"/>
		<rect x="302.171" y="101.541" fill="#FFFFFF" stroke="#010101" stroke-miterlimit="1" width="9.999" height="10"/>
		<rect x="312.17" y="101.541" fill="#FFFFFF" stroke="#010101" stroke-miterlimit="1" width="9.999" height="10"/>
		<rect x="342.255" y="101.541" fill="#FFFFFF" stroke="#010101" stroke-miterlimit="1" width="10" height="10"/>
		<rect x="352.255" y="101.541" fill="#FFFFFF" stroke="#010101" stroke-miterlimit="1" width="9.998" height="10"/>
		<rect x="362.253" y="101.541" fill="#FFFFFF" stroke="#010101" stroke-miterlimit="1" width="10" height="10"/>
		<rect x="392.339" y="101.541" fill="#FFFFFF" stroke="#010101" stroke-miterlimit="1" width="10" height="10"/>
		<rect x="402.339" y="101.541" fill="#FFFFFF" stroke="#010101" stroke-miterlimit="1" width="9.998" height="10"/>
		<rect x="412.337" y="101.541" fill="#FFFFFF" stroke="#010101" stroke-miterlimit="1" width="10" height="10"/>
		<g>
			<text transform="matrix(0.8815 0 0 1 218.5913 27.6299)" font-size="10">XA 2D Projection SOP Instance “C”</text>
		</g>
		<g>
			<g>
				<line fill="none" stroke="#010101" stroke-miterlimit="1" x1="288.735" y1="243.229" x2="288.735" y2="171.046"/>
				<g>
					<polygon fill="#010101" points="290.479,242.039 288.735,248.544 286.992,242.039 					"/>
				</g>
			</g>
		</g>
		<g>
			<text transform="matrix(0.8815 0 0 1 220.0664 262.2891)" font-size="10">X-Ray 3D Image SOP Instance “Z”</text>
		</g>
		<g>
			<path fill="#86B2D8" d="M332.918,209.829c0,3.3-2.7,6-6,6h-76.365c-3.3,0-6-2.7-6-6v-5.068c0-3.3,2.7-6,6-6h76.365
				c3.3,0,6,2.7,6,6V209.829z"/>
			<path fill="none" stroke="#000000" stroke-miterlimit="1" d="M332.918,209.829c0,3.3-2.7,6-6,6h-76.365c-3.3,0-6-2.7-6-6v-5.068
				c0-3.3,2.7-6,6-6h76.365c3.3,0,6,2.7,6,6V209.829z"/>
		</g>
		<g>
			<text transform="matrix(0.8815 0 0 1 253.209 210.0752)" font-size="10">Reconstruction #1</text>
		</g>
		<g>
			<g>
				<line fill="none" stroke="#010101" stroke-miterlimit="1" x1="188.162" y1="243.229" x2="188.162" y2="171.046"/>
				<g>
					<polygon fill="#010101" points="189.905,242.039 188.162,248.544 186.419,242.039 					"/>
				</g>
			</g>
		</g>
		<g>
			<path fill="#86B2D8" d="M232.345,209.829c0,3.3-2.7,6-6,6H149.98c-3.3,0-6-2.7-6-6v-5.068c0-3.3,2.7-6,6-6h76.365
				c3.3,0,6,2.7,6,6V209.829z"/>
			<path fill="none" stroke="#000000" stroke-miterlimit="1" d="M232.345,209.829c0,3.3-2.7,6-6,6H149.98c-3.3,0-6-2.7-6-6v-5.068
				c0-3.3,2.7-6,6-6h76.365c3.3,0,6,2.7,6,6V209.829z"/>
		</g>
		<g>
			<text transform="matrix(0.8815 0 0 1 152.6362 210.0752)" font-size="10">Reconstruction #1</text>
		</g>
		<g>
			<g>
				<line fill="none" stroke="#010101" stroke-miterlimit="1" x1="388.21" y1="243.229" x2="388.21" y2="171.046"/>
				<g>
					<polygon fill="#010101" points="389.953,242.039 388.21,248.544 386.467,242.039 					"/>
				</g>
			</g>
		</g>
		<g>
			<path fill="#86B2D8" d="M432.392,209.829c0,3.3-2.7,6-6,6h-76.364c-3.3,0-6-2.7-6-6v-5.068c0-3.3,2.7-6,6-6h76.364
				c3.3,0,6,2.7,6,6V209.829z"/>
			<path fill="none" stroke="#000000" stroke-miterlimit="1" d="M432.392,209.829c0,3.3-2.7,6-6,6h-76.364c-3.3,0-6-2.7-6-6v-5.068
				c0-3.3,2.7-6,6-6h76.364c3.3,0,6,2.7,6,6V209.829z"/>
		</g>
		<g>
			<text transform="matrix(0.8815 0 0 1 352.6826 210.0752)" font-size="10">Reconstruction #1</text>
		</g>
		<g>
			<text transform="matrix(0.8815 0 0 1 144.3091 164.9277)" font-size="10">Acquisition Context #1</text>
		</g>
		<g>
			<text transform="matrix(0.8815 0 0 1 244.8823 164.9277)" font-size="10">Acquisition Context #2</text>
		</g>
		<g>
			<text transform="matrix(0.8815 0 0 1 344.3555 164.9277)" font-size="10">Acquisition Context #3</text>
		</g>
		<rect x="138.281" y="16.718" fill="#86B2D8" stroke="#010101" stroke-miterlimit="1" width="300" height="16"/>
		<rect x="138.281" y="251.509" fill="#86B2D8" stroke="#010101" stroke-miterlimit="1" width="300" height="16"/>
		<rect x="141.921" y="101.541" fill="#FFFFFF" stroke="#010101" stroke-miterlimit="1" width="9.999" height="10"/>
		<rect x="151.92" y="101.541" fill="#CCDEF0" stroke="#010101" stroke-miterlimit="1" width="9.999" height="10"/>
		<rect x="161.919" y="101.541" fill="#86B2D8" stroke="#010101" stroke-miterlimit="1" width="9.999" height="10"/>
		<g>
			<text transform="matrix(0.8815 0 0 1 218.5913 27.6299)" font-size="10">XA 2D Projection SOP Instance “C”</text>
		</g>
		<g>
			<text transform="matrix(0.8815 0 0 1 142.0933 119.6641)" font-size="8">1...</text>
		</g>
		<g>
			<text transform="matrix(0.8815 0 0 1 173.8877 108.7646)" font-size="8">...</text>
		</g>
		<rect x="192.005" y="101.541" fill="#FFFFFF" stroke="#010101" stroke-miterlimit="1" width="9.999" height="10"/>
		<rect x="202.004" y="101.541" fill="#CCDEF0" stroke="#010101" stroke-miterlimit="1" width="9.999" height="10"/>
		<rect x="212.003" y="101.541" fill="#86B2D8" stroke="#010101" stroke-miterlimit="1" width="9.999" height="10"/>
		<g>
			<text transform="matrix(0.8815 0 0 1 223.9712 108.7646)" font-size="8">...</text>
		</g>
		<rect x="242.088" y="101.541" fill="#FFFFFF" stroke="#010101" stroke-miterlimit="1" width="10" height="10"/>
		<rect x="252.088" y="101.541" fill="#CCDEF0" stroke="#010101" stroke-miterlimit="1" width="9.998" height="10"/>
		<rect x="262.086" y="101.541" fill="#86B2D8" stroke="#010101" stroke-miterlimit="1" width="10" height="10"/>
		<g>
			<text transform="matrix(0.8815 0 0 1 274.0547 108.7646)" font-size="8">...</text>
		</g>
		<rect x="292.172" y="101.541" fill="#FFFFFF" stroke="#010101" stroke-miterlimit="1" width="9.999" height="10"/>
		<rect x="302.171" y="101.541" fill="#CCDEF0" stroke="#010101" stroke-miterlimit="1" width="9.999" height="10"/>
		<rect x="312.17" y="101.541" fill="#86B2D8" stroke="#010101" stroke-miterlimit="1" width="9.999" height="10"/>
		<g>
			<text transform="matrix(0.8815 0 0 1 324.1387 108.7646)" font-size="8">...</text>
		</g>
		<rect x="342.255" y="101.541" fill="#FFFFFF" stroke="#010101" stroke-miterlimit="1" width="10" height="10"/>
		<rect x="352.255" y="101.541" fill="#CCDEF0" stroke="#010101" stroke-miterlimit="1" width="9.998" height="10"/>
		<rect x="362.253" y="101.541" fill="#86B2D8" stroke="#010101" stroke-miterlimit="1" width="10" height="10"/>
		<g>
			<text transform="matrix(0.8815 0 0 1 374.2217 108.7646)" font-size="8">...</text>
		</g>
		<rect x="392.339" y="101.541" fill="#FFFFFF" stroke="#010101" stroke-miterlimit="1" width="10" height="10"/>
		<rect x="402.339" y="101.541" fill="#CCDEF0" stroke="#010101" stroke-miterlimit="1" width="9.998" height="10"/>
		<rect x="412.337" y="101.541" fill="#86B2D8" stroke="#010101" stroke-miterlimit="1" width="10" height="10"/>
		<g>
			<text transform="matrix(0.8815 0 0 1 424.3047 108.7646)" font-size="8">...</text>
		</g>
		<g>
			<text transform="matrix(0.8815 0 0 1 242.8608 51.1768)" font-size="9">ECG-triggered acquisition</text>
		</g>
		<g>
			<text transform="matrix(0.8815 0 0 1 411.3652 119.6641)" font-size="8">...N</text>
		</g>
		<g>
			<g>
				<line fill="none" stroke="#010101" stroke-miterlimit="1" x1="143.598" y1="56.353" x2="432.965" y2="56.353"/>
				<g>
					<polygon fill="#010101" points="144.787,58.096 138.282,56.353 144.787,54.609 					"/>
				</g>
				<g>
					<polygon fill="#010101" points="431.775,58.096 438.28,56.353 431.775,54.609 					"/>
				</g>
			</g>
		</g>
		<g>
			<text transform="matrix(0.8815 0 0 1 158.8306 284.6768)" font-size="9">Cardiac phase A</text>
		</g>
		<g>
			<g>
				<line fill="none" stroke="#010101" stroke-miterlimit="1" x1="148.478" y1="289.853" x2="227.847" y2="289.853"/>
				<g>
					<polygon fill="#010101" points="149.667,291.596 143.162,289.853 149.667,288.109 					"/>
				</g>
				<g>
					<polygon fill="#010101" points="226.658,291.596 233.162,289.853 226.658,288.109 					"/>
				</g>
			</g>
		</g>
		<g>
			<text transform="matrix(0.8815 0 0 1 258.5859 284.6768)" font-size="9">Cardiac phase B</text>
		</g>
		<g>
			<g>
				<line fill="none" stroke="#010101" stroke-miterlimit="1" x1="248.233" y1="289.853" x2="327.602" y2="289.853"/>
				<g>
					<polygon fill="#010101" points="249.422,291.596 242.918,289.853 249.422,288.109 					"/>
				</g>
				<g>
					<polygon fill="#010101" points="326.412,291.596 332.917,289.853 326.412,288.109 					"/>
				</g>
			</g>
		</g>
		<g>
			<text transform="matrix(0.8815 0 0 1 358.123 284.6768)" font-size="9">Cardiac phase C</text>
		</g>
		<g>
			<g>
				<line fill="none" stroke="#010101" stroke-miterlimit="1" x1="347.989" y1="289.853" x2="427.358" y2="289.853"/>
				<g>
					<polygon fill="#010101" points="349.179,291.596 342.674,289.853 349.179,288.109 					"/>
				</g>
				<g>
					<polygon fill="#010101" points="426.169,291.596 432.674,289.853 426.169,288.109 					"/>
				</g>
			</g>
		</g>
		<g>
			<g>
				<line fill="none" stroke="#010101" stroke-miterlimit="1" x1="288.735" y1="243.229" x2="288.735" y2="171.046"/>
				<g>
					<polygon fill="#010101" points="290.479,242.039 288.735,248.544 286.992,242.039 					"/>
				</g>
			</g>
		</g>
		<g>
			<polygon fill="#B2CEE7" stroke="#000000" points="156.718,296.286 156.718,337.321 143.162,346.077 143.162,305.04 			"/>
			<polygon fill="#B2CEE7" stroke="#000000" points="166.273,296.286 166.273,337.321 152.718,346.075 152.718,305.04 			"/>
			<polygon fill="#B2CEE7" stroke="#000000" points="175.828,296.286 175.83,337.323 162.273,346.077 162.273,305.042 			"/>
			<polygon fill="#B2CEE7" stroke="#000000" points="185.385,296.286 185.385,337.321 171.828,346.077 171.828,305.04 			"/>
			<polygon fill="#B2CEE7" stroke="#000000" points="194.94,296.286 194.94,337.321 181.384,346.077 181.384,305.04 			"/>
			<polygon fill="#B2CEE7" stroke="#000000" points="204.496,296.286 204.496,337.321 190.939,346.077 190.939,305.04 			"/>
			<polygon fill="#B2CEE7" stroke="#000000" points="214.051,296.286 214.051,337.321 200.494,346.075 200.494,305.04 			"/>
			<polygon fill="#B2CEE7" stroke="#000000" points="223.606,296.286 223.606,337.323 210.05,346.077 210.05,305.042 			"/>
			<polygon fill="#B2CEE7" stroke="#000000" points="233.162,296.286 233.162,337.321 219.605,346.077 219.605,305.04 			"/>
			<polygon fill="#B2CEE7" stroke="#000000" points="156.718,296.286 156.718,337.321 143.162,346.077 143.162,305.04 			"/>
			<polygon fill="#B2CEE7" stroke="#000000" points="166.273,296.286 166.273,337.321 152.718,346.075 152.718,305.04 			"/>
			<polygon fill="#B2CEE7" stroke="#000000" points="175.828,296.286 175.83,337.323 162.273,346.077 162.273,305.042 			"/>
			<polygon fill="#B2CEE7" stroke="#000000" points="185.385,296.286 185.385,337.321 171.828,346.077 171.828,305.04 			"/>
			<polygon fill="#B2CEE7" stroke="#000000" points="194.94,296.286 194.94,337.321 181.384,346.077 181.384,305.04 			"/>
			<polygon fill="#B2CEE7" stroke="#000000" points="204.496,296.286 204.496,337.321 190.939,346.077 190.939,305.04 			"/>
			<polygon fill="#B2CEE7" stroke="#000000" points="214.051,296.286 214.051,337.321 200.494,346.075 200.494,305.04 			"/>
			<polygon fill="#B2CEE7" stroke="#000000" points="223.606,296.286 223.606,337.323 210.05,346.077 210.05,305.042 			"/>
			<polygon fill="#B2CEE7" stroke="#000000" points="233.162,296.286 233.162,337.321 219.605,346.077 219.605,305.04 			"/>
		</g>
		<g>
			<polygon fill="#6799C8" stroke="#000000" points="256.474,296.286 256.474,337.321 242.918,346.077 242.918,305.04 			"/>
			<polygon fill="#6799C8" stroke="#000000" points="266.029,296.286 266.029,337.321 252.474,346.075 252.474,305.04 			"/>
			<polygon fill="#6799C8" stroke="#000000" points="275.584,296.286 275.586,337.323 262.029,346.077 262.029,305.042 			"/>
			<polygon fill="#6799C8" stroke="#000000" points="285.141,296.286 285.141,337.321 271.584,346.077 271.584,305.04 			"/>
			<polygon fill="#6799C8" stroke="#000000" points="294.696,296.286 294.696,337.321 281.14,346.077 281.14,305.04 			"/>
			<polygon fill="#6799C8" stroke="#000000" points="304.252,296.286 304.252,337.321 290.695,346.077 290.695,305.04 			"/>
			<polygon fill="#6799C8" stroke="#000000" points="313.807,296.286 313.807,337.321 300.25,346.075 300.25,305.04 			"/>
			<polygon fill="#6799C8" stroke="#000000" points="323.362,296.286 323.362,337.323 309.806,346.077 309.806,305.042 			"/>
			<polygon fill="#6799C8" stroke="#000000" points="332.918,296.286 332.918,337.321 319.361,346.077 319.361,305.04 			"/>
			<polygon fill="#6799C8" stroke="#000000" points="256.474,296.286 256.474,337.321 242.918,346.077 242.918,305.04 			"/>
			<polygon fill="#6799C8" stroke="#000000" points="266.029,296.286 266.029,337.321 252.474,346.075 252.474,305.04 			"/>
			<polygon fill="#6799C8" stroke="#000000" points="275.584,296.286 275.586,337.323 262.029,346.077 262.029,305.042 			"/>
			<polygon fill="#6799C8" stroke="#000000" points="285.141,296.286 285.141,337.321 271.584,346.077 271.584,305.04 			"/>
			<polygon fill="#6799C8" stroke="#000000" points="294.696,296.286 294.696,337.321 281.14,346.077 281.14,305.04 			"/>
			<polygon fill="#6799C8" stroke="#000000" points="304.252,296.286 304.252,337.321 290.695,346.077 290.695,305.04 			"/>
			<polygon fill="#6799C8" stroke="#000000" points="313.807,296.286 313.807,337.321 300.25,346.075 300.25,305.04 			"/>
			<polygon fill="#6799C8" stroke="#000000" points="323.362,296.286 323.362,337.323 309.806,346.077 309.806,305.042 			"/>
			<polygon fill="#6799C8" stroke="#000000" points="332.918,296.286 332.918,337.321 319.361,346.077 319.361,305.04 			"/>
		</g>
		<g>
			<polygon fill="#005695" stroke="#000000" points="356.229,296.286 356.229,337.321 342.674,346.077 342.674,305.04 			"/>
			<polygon fill="#005695" stroke="#000000" points="365.785,296.286 365.785,337.321 352.229,346.075 352.229,305.04 			"/>
			<polygon fill="#005695" stroke="#000000" points="375.34,296.286 375.342,337.323 361.785,346.077 361.785,305.042 			"/>
			<polygon fill="#005695" stroke="#000000" points="384.896,296.286 384.896,337.321 371.34,346.077 371.34,305.04 			"/>
			<polygon fill="#005695" stroke="#000000" points="394.452,296.286 394.452,337.321 380.896,346.077 380.896,305.04 			"/>
			<polygon fill="#005695" stroke="#000000" points="404.008,296.286 404.008,337.321 390.451,346.077 390.451,305.04 			"/>
			<polygon fill="#005695" stroke="#000000" points="413.562,296.286 413.562,337.321 400.006,346.075 400.006,305.04 			"/>
			<polygon fill="#005695" stroke="#000000" points="423.118,296.286 423.118,337.323 409.562,346.077 409.562,305.042 			"/>
			<polygon fill="#005695" stroke="#000000" points="432.674,296.286 432.674,337.321 419.117,346.077 419.117,305.04 			"/>
			<polygon fill="#005695" stroke="#000000" points="356.229,296.286 356.229,337.321 342.674,346.077 342.674,305.04 			"/>
			<polygon fill="#005695" stroke="#000000" points="365.785,296.286 365.785,337.321 352.229,346.075 352.229,305.04 			"/>
			<polygon fill="#005695" stroke="#000000" points="375.34,296.286 375.342,337.323 361.785,346.077 361.785,305.042 			"/>
			<polygon fill="#005695" stroke="#000000" points="384.896,296.286 384.896,337.321 371.34,346.077 371.34,305.04 			"/>
			<polygon fill="#005695" stroke="#000000" points="394.452,296.286 394.452,337.321 380.896,346.077 380.896,305.04 			"/>
			<polygon fill="#005695" stroke="#000000" points="404.008,296.286 404.008,337.321 390.451,346.077 390.451,305.04 			"/>
			<polygon fill="#005695" stroke="#000000" points="413.562,296.286 413.562,337.321 400.006,346.075 400.006,305.04 			"/>
			<polygon fill="#005695" stroke="#000000" points="423.118,296.286 423.118,337.323 409.562,346.077 409.562,305.042 			"/>
			<polygon fill="#005695" stroke="#000000" points="432.674,296.286 432.674,337.321 419.117,346.077 419.117,305.04 			"/>
		</g>
		<g>
			<text transform="matrix(0.8815 0 0 1 233.541 262.2891)" font-size="10">X-Ray 3D SOP Instance “Z”</text>
		</g>
		<g>
			<text transform="matrix(0.8815 0 0 1 145.0635 391.1758)"><tspan x="0" y="0" font-size="7">Reconstruction #1</tspan><tspan x="0" y="8.4" font-size="7">- From Acquisition Context #1</tspan><tspan x="0" y="16.8" font-size="7">- Stack ID #1</tspan></text>
		</g>
		<g>
			<text transform="matrix(0.8815 0 0 1 92.1919 354.9619)"><tspan x="0" y="0" font-size="7">Frame Number:</tspan><tspan x="-32.299" y="9" font-size="7">In-Stack Position Number:</tspan></text>
		</g>
		<g>
			<text transform="matrix(0.8815 0 0 1 141.9121 355.8486)" font-size="8">1...</text>
		</g>
		<g>
			<text transform="matrix(0.8815 0 0 1 212.3755 355.8486)" font-size="8">...M</text>
		</g>
		<g>
			<path fill="none" stroke="#000000" d="M228.166,366.817c0,5.412-3.835,9.57-14.597,9.57c-2.877,0-5.86-0.264-8.738-0.594
				c-2.876-0.197-5.753-0.461-8.524-0.461c-3.41,0-10.739,0.66-10.739,5.346h-0.023c0-4.686-6.819-5.346-10.549-5.346
				c-2.983,0-5.967,0.264-8.95,0.527s-5.967,0.527-8.844,0.527c-9.803,0-13.958-4.025-13.958-9.637"/>
		</g>
		<g>
			<text transform="matrix(0.8815 0 0 1 245.3755 391.1758)"><tspan x="0" y="0" font-size="7">Reconstruction #2</tspan><tspan x="0" y="8.4" font-size="7">- From Acquisition Context #2</tspan><tspan x="0" y="16.8" font-size="7">- Stack ID #1</tspan></text>
		</g>
		<g>
			<text transform="matrix(0.8815 0 0 1 242.918 355.8486)" font-size="8">M+1...</text>
		</g>
		<g>
			<text transform="matrix(0.8815 0 0 1 308.0879 355.8486)" font-size="8">...2xM</text>
		</g>
		<g>
			<path fill="none" stroke="#000000" d="M328.478,366.817c0,5.412-3.836,9.57-14.598,9.57c-2.877,0-5.859-0.264-8.737-0.594
				c-2.876-0.197-5.753-0.461-8.524-0.461c-3.41,0-10.739,0.66-10.739,5.346h-0.022c0-4.686-6.819-5.346-10.55-5.346
				c-2.982,0-5.967,0.264-8.949,0.527c-2.984,0.264-5.967,0.527-8.845,0.527c-9.803,0-13.958-4.025-13.958-9.637"/>
		</g>
		<g>
			<text transform="matrix(0.8815 0 0 1 345.7588 391.1758)"><tspan x="0" y="0" font-size="7">Reconstruction #3</tspan><tspan x="0" y="8.4" font-size="7">- From Acquisition Context #3</tspan><tspan x="0" y="16.8" font-size="7">- Stack ID #1</tspan></text>
		</g>
		<g>
			<text transform="matrix(0.8815 0 0 1 342.6738 355.8486)" font-size="8">2xM+1...</text>
		</g>
		<g>
			<text transform="matrix(0.8815 0 0 1 409.3467 355.8486)" font-size="8">...3xM</text>
		</g>
		<g>
			<text transform="matrix(0.8815 0 0 1 141.9121 363.6318)" font-size="8">1...</text>
		</g>
		<g>
			<text transform="matrix(0.8815 0 0 1 212.3755 363.6318)" font-size="8">...M</text>
		</g>
		<g>
			<text transform="matrix(0.8815 0 0 1 242.918 363.6318)" font-size="8">1...</text>
		</g>
		<g>
			<text transform="matrix(0.8815 0 0 1 315.5361 363.6318)" font-size="8">...M</text>
		</g>
		<g>
			<text transform="matrix(0.8815 0 0 1 342.6738 363.6318)" font-size="8">1...</text>
		</g>
		<g>
			<text transform="matrix(0.8815 0 0 1 416.7949 363.6318)" font-size="8">...M</text>
		</g>
		<g>
			<path fill="none" stroke="#000000" d="M428.861,366.817c0,5.412-3.836,9.57-14.598,9.57c-2.877,0-5.859-0.264-8.738-0.594
				c-2.875-0.197-5.752-0.461-8.523-0.461c-3.41,0-10.739,0.66-10.739,5.346h-0.022c0-4.686-6.82-5.346-10.55-5.346
				c-2.983,0-5.967,0.264-8.95,0.527s-5.967,0.527-8.844,0.527c-9.803,0-13.959-4.025-13.959-9.637"/>
		</g>
		<g>
			<path fill="#CCDEF0" d="M332.918,209.829c0,3.3-2.7,6-6,6h-76.365c-3.3,0-6-2.7-6-6v-5.068c0-3.3,2.7-6,6-6h76.365
				c3.3,0,6,2.7,6,6V209.829z"/>
			<path fill="none" stroke="#000000" stroke-miterlimit="1" d="M332.918,209.829c0,3.3-2.7,6-6,6h-76.365c-3.3,0-6-2.7-6-6v-5.068
				c0-3.3,2.7-6,6-6h76.365c3.3,0,6,2.7,6,6V209.829z"/>
		</g>
		<g>
			<text transform="matrix(0.8815 0 0 1 253.209 210.0752)" font-size="10">Reconstruction #2</text>
		</g>
		<g>
			<g>
				<line fill="none" stroke="#010101" stroke-miterlimit="1" x1="188.162" y1="243.229" x2="188.162" y2="171.046"/>
				<g>
					<polygon fill="#010101" points="189.905,242.039 188.162,248.544 186.419,242.039 					"/>
				</g>
			</g>
		</g>
		<g>
			<path fill="#FFFFFF" d="M232.345,209.829c0,3.3-2.7,6-6,6H149.98c-3.3,0-6-2.7-6-6v-5.068c0-3.3,2.7-6,6-6h76.365
				c3.3,0,6,2.7,6,6V209.829z"/>
			<path fill="none" stroke="#000000" stroke-miterlimit="1" d="M232.345,209.829c0,3.3-2.7,6-6,6H149.98c-3.3,0-6-2.7-6-6v-5.068
				c0-3.3,2.7-6,6-6h76.365c3.3,0,6,2.7,6,6V209.829z"/>
		</g>
		<g>
			<text transform="matrix(0.8815 0 0 1 152.6362 210.0752)" font-size="10">Reconstruction #1</text>
		</g>
		<g>
			<g>
				<line fill="none" stroke="#010101" stroke-miterlimit="1" x1="388.21" y1="243.229" x2="388.21" y2="171.046"/>
				<g>
					<polygon fill="#010101" points="389.953,242.039 388.21,248.544 386.467,242.039 					"/>
				</g>
			</g>
		</g>
		<g>
			<path fill="#86B2D8" d="M432.392,209.829c0,3.3-2.7,6-6,6h-76.364c-3.3,0-6-2.7-6-6v-5.068c0-3.3,2.7-6,6-6h76.364
				c3.3,0,6,2.7,6,6V209.829z"/>
			<path fill="none" stroke="#010101" stroke-miterlimit="1" d="M432.392,209.829c0,3.3-2.7,6-6,6h-76.364c-3.3,0-6-2.7-6-6v-5.068
				c0-3.3,2.7-6,6-6h76.364c3.3,0,6,2.7,6,6V209.829z"/>
		</g>
		<g>
			<text transform="matrix(0.8815 0 0 1 352.6826 210.0752)" font-size="10">Reconstruction #3</text>
		</g>
		<g>
			<text transform="matrix(0.8815 0 0 1 144.3091 164.9277)" font-size="10">Acquisition Context #1</text>
		</g>
		<g>
			<text transform="matrix(0.8815 0 0 1 244.8823 164.9277)" font-size="10">Acquisition Context #2</text>
		</g>
		<g>
			<text transform="matrix(0.8815 0 0 1 344.3555 164.9277)" font-size="10">Acquisition Context #3</text>
		</g>
		<g>
			<g>
				<path fill="none" stroke="#ED1C24" stroke-miterlimit="1" d="M138.282,83.886c6.012-0.026,11.176-0.05,11.176-0.05
					s1.36-0.2,2.128-2.703c0.282-0.92,1.044-0.977,1.441,0.075c1.3,3.434,1.417,2.634,4.384,2.622l1.766,4.246l1.554-23.165
					l1.284,26.141l1.458-7.211c0,0,4.424-0.018,6.669-0.026c1.738-0.007,2.368-3.156,5.019-3.166
					c2.525-0.011,2.983,3.059,5.033,3.051c0.594-0.002,4.207-0.02,8.165-0.039"/>
			</g>
			<g>
				<path fill="none" stroke="#ED1C24" stroke-miterlimit="1" d="M188.267,83.632c6.012-0.026,11.176-0.05,11.176-0.05
					s1.36-0.199,2.128-2.703c0.282-0.92,1.044-0.976,1.441,0.075c1.3,3.435,1.417,2.634,4.384,2.623l1.766,4.246l1.554-23.165
					L212,90.799l1.457-7.212c0,0,4.424-0.018,6.669-0.026c1.738-0.006,2.368-3.155,5.019-3.166c2.525-0.01,2.983,3.06,5.033,3.052
					c0.594-0.003,4.207-0.02,8.165-0.039"/>
			</g>
			<g>
				<path fill="none" stroke="#ED1C24" stroke-miterlimit="1" d="M238.251,83.379c6.012-0.026,11.176-0.05,11.176-0.05
					s1.359-0.2,2.128-2.703c0.282-0.92,1.045-0.977,1.441,0.075c1.3,3.434,1.417,2.634,4.384,2.622l1.766,4.246l1.554-23.165
					l1.284,26.141l1.457-7.211c0,0,4.425-0.018,6.67-0.026c1.737-0.007,2.367-3.156,5.019-3.166
					c2.524-0.011,2.982,3.059,5.032,3.051c0.594-0.002,4.207-0.02,8.165-0.039"/>
			</g>
			<g>
				<path fill="none" stroke="#ED1C24" stroke-miterlimit="1" d="M288.236,83.125c6.011-0.026,11.175-0.05,11.175-0.05
					s1.361-0.199,2.129-2.703c0.283-0.92,1.045-0.976,1.441,0.075c1.301,3.435,1.418,2.634,4.385,2.623l1.764,4.246l1.555-23.165
					l1.285,26.141l1.455-7.212c0,0,4.426-0.018,6.67-0.026c1.738-0.006,2.367-3.155,5.02-3.166c2.525-0.01,2.982,3.06,5.033,3.052
					c0.594-0.003,4.205-0.02,8.164-0.039"/>
			</g>
			<g>
				<path fill="none" stroke="#ED1C24" stroke-miterlimit="1" d="M338.22,82.872c6.014-0.026,11.178-0.05,11.178-0.05
					s1.359-0.199,2.127-2.703c0.283-0.92,1.045-0.977,1.441,0.075c1.301,3.434,1.418,2.634,4.385,2.622l1.766,4.246l1.555-23.165
					l1.283,26.141l1.457-7.211c0,0,4.424-0.018,6.668-0.026c1.738-0.007,2.369-3.156,5.02-3.166
					c2.525-0.011,2.982,3.059,5.033,3.051c0.594-0.002,4.207-0.02,8.164-0.039"/>
			</g>
			<g>
				<path fill="none" stroke="#ED1C24" stroke-miterlimit="1" d="M388.206,82.618c6.012-0.026,11.176-0.05,11.176-0.05
					s1.359-0.199,2.127-2.703c0.283-0.92,1.045-0.976,1.441,0.075c1.301,3.435,1.418,2.634,4.385,2.623l1.766,4.246l1.555-23.165
					l1.283,26.141l1.457-7.212c0,0,4.424-0.018,6.668-0.026c1.738-0.006,2.369-3.155,5.02-3.166c2.525-0.01,2.984,3.06,5.033,3.052
					c0.594-0.003,4.207-0.02,8.164-0.039"/>
			</g>
		</g>
		
			<line fill="none" stroke="#010101" stroke-width="0.5" stroke-miterlimit="1" stroke-dasharray="2,4" x1="146.921" y1="111.541" x2="188.888" y2="156.046"/>
		
			<line fill="none" stroke="#010101" stroke-width="0.5" stroke-miterlimit="1" stroke-dasharray="2,4" x1="197.004" y1="111.541" x2="188.888" y2="156.046"/>
		
			<line fill="none" stroke="#010101" stroke-width="0.5" stroke-miterlimit="1" stroke-dasharray="2,4" x1="247.088" y1="111.541" x2="188.888" y2="156.046"/>
		
			<line fill="none" stroke="#010101" stroke-width="0.5" stroke-miterlimit="1" stroke-dasharray="2,4" x1="297.171" y1="111.541" x2="188.888" y2="156.046"/>
		
			<line fill="none" stroke="#010101" stroke-width="0.5" stroke-miterlimit="1" stroke-dasharray="2,4" x1="347.255" y1="111.541" x2="188.888" y2="156.046"/>
		
			<line fill="none" stroke="#010101" stroke-width="0.5" stroke-miterlimit="1" stroke-dasharray="2,4" x1="397.339" y1="111.541" x2="188.888" y2="156.046"/>
	</g>
</g>
</svg>
