<?xml version="1.0" encoding="utf-8"?>

<!DOCTYPE svg PUBLIC "-//W3C//DTD SVG 1.1//EN" "http://www.w3.org/Graphics/SVG/1.1/DTD/svg11.dtd">
<svg version="1.1" id="Layer_1" xmlns="http://www.w3.org/2000/svg" xmlns:xlink="http://www.w3.org/1999/xlink" x="0px" y="0px"
	 width="502px" height="202px" viewBox="0 0 502 202" enable-background="new 0 0 502 202" xml:space="preserve">

<defs>
	<style type="text/css">
	text {
	  font-family: Helvetica, Verdana, ArialUnicodeMS, san-serif
	}
	</style>
</defs>

<g>
   <desc>
	PS 3.17 Part 17: Explanatory Information
   </desc>
</g>

<g>
	<rect x="1" y="1" fill="#F5EED6" width="500" height="200"/>
	<g>
		<g>
			
				<rect x="32.271" y="26.902" fill="#86B2D8" stroke="#010101" stroke-width="0.75" stroke-linecap="round" stroke-linejoin="round" stroke-miterlimit="1" width="141.722" height="160"/>
			<text transform="matrix(1 0 0 1 32.7256 23.0718)" font-size="9">X-Ray Equipment</text>
			<g>
				<rect x="45.225" y="37.551" fill="#CCDEF0" stroke="#000000" stroke-miterlimit="10" width="115" height="138.701"/>
				<g>
					<g>
						<rect x="65.225" y="59.095" fill="#CCDEF0" width="75" height="28"/>
						<g>
							<polyline fill="none" stroke="#000000" stroke-miterlimit="10" points="140.225,86.095 140.225,87.095 139.225,87.095 
															"/>
							
								<line fill="none" stroke="#000000" stroke-miterlimit="10" stroke-dasharray="1.973,1.973" x1="137.251" y1="87.095" x2="67.211" y2="87.095"/>
							<polyline fill="none" stroke="#000000" stroke-miterlimit="10" points="66.225,87.095 65.225,87.095 65.225,86.095 							
								"/>
							
								<line fill="none" stroke="#000000" stroke-miterlimit="10" stroke-dasharray="2,2" x1="65.225" y1="84.095" x2="65.225" y2="61.095"/>
							<polyline fill="none" stroke="#000000" stroke-miterlimit="10" points="65.225,60.095 65.225,59.095 66.225,59.095 							
								"/>
							
								<line fill="none" stroke="#000000" stroke-miterlimit="10" stroke-dasharray="1.973,1.973" x1="68.198" y1="59.095" x2="138.238" y2="59.095"/>
							<polyline fill="none" stroke="#000000" stroke-miterlimit="10" points="139.225,59.095 140.225,59.095 140.225,60.095 
															"/>
							
								<line fill="none" stroke="#000000" stroke-miterlimit="10" stroke-dasharray="2,2" x1="140.225" y1="62.095" x2="140.225" y2="85.095"/>
						</g>
					</g>
					<text transform="matrix(0.8863 0 0 1 73.1558 70.2012)"><tspan x="0" y="0" font-size="8">X-Ray Acquisition</tspan><tspan x="11.678" y="9.6" font-size="8">Parameters</tspan></text>
				</g>
				<text transform="matrix(1 0 0 1 48.9834 48.0259)" font-size="9">Acquisition Context</text>
				<g>
					<g>
						<rect x="87.076" y="100.626" fill="#D1D3D4" stroke="#000000" stroke-miterlimit="10" width="48.148" height="48.153"/>
						<rect x="84.67" y="103.033" fill="#D1D3D4" stroke="#000000" stroke-miterlimit="10" width="48.148" height="48.158"/>
						<rect x="82.264" y="105.439" fill="#D1D3D4" stroke="#000000" stroke-miterlimit="10" width="48.148" height="48.164"/>
						<rect x="79.857" y="107.848" fill="#D1D3D4" stroke="#000000" stroke-miterlimit="10" width="48.148" height="48.164"/>
						<rect x="77.445" y="110.254" fill="#D1D3D4" stroke="#000000" stroke-miterlimit="10" width="48.154" height="48.164"/>
						<rect x="75.037" y="112.66" fill="#D1D3D4" stroke="#000000" stroke-miterlimit="10" width="48.157" height="48.166"/>
						<rect x="72.631" y="115.072" fill="#D1D3D4" stroke="#000000" stroke-miterlimit="10" width="48.153" height="48.158"/>
						<rect x="70.225" y="117.484" fill="#D1D3D4" stroke="#000000" stroke-miterlimit="10" width="48.147" height="48.154"/>
					</g>
					<text transform="matrix(1 0 0 1 87.9736 136.8779)"><tspan x="0" y="0" font-size="9">2D</tspan><tspan x="-13.214" y="10.8" font-size="9">Projection</tspan></text>
				</g>
			</g>
		</g>
		<g>
			
				<rect x="190.244" y="26.902" fill="#86B2D8" stroke="#010101" stroke-width="0.75" stroke-linecap="round" stroke-linejoin="round" stroke-miterlimit="1" width="141.722" height="160"/>
			<rect x="203.604" y="37.551" fill="#CCDEF0" stroke="#000000" stroke-miterlimit="10" width="115" height="138.701"/>
			<text transform="matrix(1 0 0 1 207.355 48.0259)" font-size="9">3D Reconstruction</text>
			<g>
				
					<rect x="221.104" y="59.095" fill="#CCDEF0" stroke="#000000" stroke-miterlimit="10" stroke-dasharray="2" width="80" height="28"/>
				<text transform="matrix(1 0 0 1 226.4082 70.1968)"><tspan x="0" y="0" font-size="8">3D Reconstruction</tspan><tspan x="13.015" y="9.6" font-size="8">Parameters</tspan></text>
			</g>
			<text transform="matrix(1 0 0 1 191.1938 23.0718)" font-size="9">3D Reconstruction Application</text>
			<g>
				<g>
					<rect x="228.604" y="117.482" fill="#D1D3D4" stroke="#000000" stroke-miterlimit="10" width="48.148" height="48.156"/>
					<polygon fill="#A7A9AC" stroke="#000000" stroke-miterlimit="10" points="276.753,165.639 276.753,117.482 293.604,100.628 
						293.604,148.783 					"/>
					<polygon fill="#FFFFFF" stroke="#000000" stroke-miterlimit="10" points="228.604,117.482 276.753,117.482 293.604,100.628 
						245.456,100.628 					"/>
				</g>
				<text transform="matrix(1 0 0 1 246.1089 136.8789)"><tspan x="0" y="0" font-size="9">3D</tspan><tspan x="-8.983" y="10.799" font-size="9">Volume</tspan></text>
			</g>
		</g>
		<rect x="362.729" y="93.632" fill="#CCDEF0" stroke="#000000" stroke-miterlimit="10" width="107" height="28"/>
		<g>
			<text transform="matrix(1 0 0 1 367.6855 104.7344)"><tspan x="0" y="0" font-size="9">X-Ray 3D Angiography</tspan><tspan x="30.525" y="10.799" font-size="9">Instance</tspan></text>
		</g>
		<g>
			<g>
				
					<line fill="none" stroke="#005695" stroke-width="2" stroke-miterlimit="1" x1="160.225" y1="107.848" x2="196.267" y2="107.848"/>
				<g>
					<polygon fill="#005695" points="194.682,110.172 203.354,107.848 194.682,105.523 					"/>
				</g>
			</g>
		</g>
		<g>
			<g>
				
					<line fill="none" stroke="#005695" stroke-width="2" stroke-miterlimit="1" x1="318.604" y1="107.848" x2="354.646" y2="107.848"/>
				<g>
					<polygon fill="#005695" points="353.062,110.172 361.734,107.848 353.062,105.523 					"/>
				</g>
			</g>
		</g>
	</g>
</g>
</svg>
