<?xml version="1.0" encoding="utf-8"?>

<!DOCTYPE svg PUBLIC "-//W3C//DTD SVG 1.1//EN" "http://www.w3.org/Graphics/SVG/1.1/DTD/svg11.dtd">
<svg version="1.1" id="Layer_1" xmlns="http://www.w3.org/2000/svg" xmlns:xlink="http://www.w3.org/1999/xlink" x="0px" y="0px"
	 width="552px" height="642px" viewBox="0 0 552 642" enable-background="new 0 0 552 642" xml:space="preserve">

<defs>
	<style type="text/css">
	text {
	  font-family: Helvetica, Verdana, ArialUnicodeMS, san-serif
	}
	</style>
</defs>

<g>
   <desc>
	PS 3.17 Part 17: Explanatory Information
   </desc>
</g>

<g>
	<rect x="1" y="1" fill="#F5EED6" width="550" height="640"/>
	<g>
		<rect x="349.404" y="20.213" fill="none" width="157.383" height="247.334"/>
		<text transform="matrix(0.9288 0 0 1 349.4043 25.9375)"><tspan x="0" y="0" font-size="8">=UID “Z”</tspan><tspan x="0" y="42" font-size="8">Acquisition context #1</tspan><tspan x="0" y="84" font-size="8">= XA Image or Enhanced XA Image</tspan><tspan x="0" y="98" font-size="8">= UID “C”</tspan><tspan x="0" y="112" font-size="8">= 1\9\17\25...</tspan><tspan x="0" y="140" font-size="8">Acquisition context #2</tspan><tspan x="0" y="182" font-size="8">= XA Image or Enhanced XA Image</tspan><tspan x="0" y="196" font-size="8">= UID “C”</tspan><tspan x="0" y="210" font-size="8">= 2\10\18\26...</tspan></text>
		<rect x="349.404" y="284.83" fill="none" width="157.383" height="135.731"/>
		<text transform="matrix(0.9288 0 0 1 349.4043 304.5547)"><tspan x="0" y="0" font-size="8">Reconstruction #1</tspan><tspan x="0" y="14" font-size="8">= 1</tspan><tspan x="0" y="28" font-size="8">= Cardiac Phase A</tspan><tspan x="0" y="56" font-size="8">Reconstruction #2</tspan><tspan x="0" y="70" font-size="8">= 2</tspan><tspan x="0" y="84" font-size="8">= Cardiac Phase B</tspan></text>
		<rect x="349.404" y="435.933" fill="none" width="157.383" height="177.02"/>
		<text transform="matrix(0.9288 0 0 1 349.4043 455.6572)"><tspan x="0" y="0" font-size="8">One dimension</tspan><tspan x="0" y="14" font-size="8">= UID “E”</tspan><tspan x="0" y="56" font-size="8">= UID “E”</tspan><tspan x="0" y="70" font-size="8">= (0020,9241)</tspan><tspan x="0" y="84" font-size="8">= (0018,9118)</tspan><tspan x="0" y="112" font-size="8">= UID “E”</tspan><tspan x="0" y="126" font-size="8">= (0020,0032)</tspan><tspan x="0" y="140" font-size="8">= (0020,9113)</tspan><tspan x="0" y="154" font-size="8">= 3D</tspan></text>
		
			<rect x="45.213" y="44.739" fill="#B2CEE7" stroke="#010101" stroke-width="0.75" stroke-linecap="round" stroke-linejoin="round" stroke-miterlimit="1" width="286.334" height="222.808"/>
		
			<rect x="61.988" y="58.737" fill="#86B2D8" stroke="#010101" stroke-width="0.75" stroke-linecap="round" stroke-linejoin="round" stroke-miterlimit="1" width="269.576" height="97.585"/>
		<rect x="49.354" y="48.211" fill="none" width="164.911" height="7.717"/>
		<text transform="matrix(0.9288 0 0 1 49.3579 53.9136)" font-size="8">X-Ray 3D Acquisition Sequence</text>
		<rect x="49.354" y="34.213" fill="none" width="164.911" height="7.717"/>
		<text transform="matrix(0.9288 0 0 1 49.3579 39.9155)" font-size="8">...</text>
		
			<rect x="78.784" y="72.377" fill="#FFFFFF" stroke="#010101" stroke-width="0.75" stroke-linecap="round" stroke-linejoin="round" stroke-miterlimit="1" width="252.763" height="69.945"/>
		
			<rect x="90.743" y="86.425" fill="#86B2D8" stroke="#010101" stroke-width="0.75" stroke-linecap="round" stroke-linejoin="round" stroke-miterlimit="1" width="240.821" height="56.146"/>
		
			<rect x="103.447" y="100.377" fill="#FFFFFF" stroke="#010101" stroke-width="0.75" stroke-linecap="round" stroke-linejoin="round" stroke-miterlimit="1" width="228.117" height="13.953"/>
		<rect x="82.911" y="76.606" fill="none" width="170.795" height="7.717"/>
		<text transform="matrix(0.9288 0 0 1 82.9111 82.3291)" font-size="8">&gt;Source Image Sequence</text>
		<rect x="286.305" y="76.606" fill="none" width="44.984" height="7.716"/>
		<text transform="matrix(0.9288 0 0 1 286.2852 82.3091)" font-size="8">(0008,2112)</text>
		<rect x="286.305" y="48.211" fill="none" width="44.984" height="7.716"/>
		<text transform="matrix(0.9288 0 0 1 286.2852 53.9141)" font-size="8">(0018,9507)</text>
		<rect x="94.077" y="91.121" fill="none" width="108.835" height="7.717"/>
		<text transform="matrix(0.9288 0 0 1 94.0771 96.8438)" font-size="8">Item 1</text>
		<rect x="64.594" y="63.323" fill="none" width="127.731" height="7.721"/>
		<text transform="matrix(0.9288 0 0 1 64.5986 69.0254)" font-size="8">Item 1</text>
		<rect x="107.157" y="105.037" fill="none" width="136.597" height="7.717"/>
		<text transform="matrix(0.9288 0 0 1 107.1611 110.7329)" font-size="8">&gt;&gt;Referenced SOP Class UID</text>
		<rect x="286.707" y="105.037" fill="none" width="44.582" height="7.717"/>
		<text transform="matrix(0.9288 0 0 1 286.6875 110.7383)" font-size="8">(0008,1150)</text>
		
			<rect x="103.447" y="114.33" fill="#FFFFFF" stroke="#010101" stroke-width="0.75" stroke-linecap="round" stroke-linejoin="round" stroke-miterlimit="1" width="228.117" height="13.953"/>
		<rect x="107.157" y="118.99" fill="none" width="136.597" height="7.717"/>
		<text transform="matrix(0.9288 0 0 1 107.1611 124.686)" font-size="8">&gt;&gt;Referenced SOP Instance UID</text>
		<rect x="286.707" y="118.99" fill="none" width="44.582" height="7.717"/>
		<text transform="matrix(0.9288 0 0 1 286.6875 124.6914)" font-size="8">(0008,1155)</text>
		
			<rect x="103.447" y="128.597" fill="#FFFFFF" stroke="#010101" stroke-width="0.75" stroke-linecap="round" stroke-linejoin="round" stroke-miterlimit="1" width="228.117" height="13.953"/>
		<rect x="107.157" y="133.257" fill="none" width="136.597" height="7.717"/>
		<text transform="matrix(0.9288 0 0 1 107.1611 138.9526)" font-size="8">&gt;&gt;Referenced Frame Number</text>
		<rect x="286.707" y="133.257" fill="none" width="44.582" height="7.717"/>
		<text transform="matrix(0.9288 0 0 1 286.6875 138.958)" font-size="8">(0008,1160)</text>
		
			<rect x="78.784" y="142.322" fill="#FFFFFF" stroke="#010101" stroke-width="0.75" stroke-linecap="round" stroke-linejoin="round" stroke-miterlimit="1" width="252.78" height="14"/>
		<rect x="82.911" y="145.494" fill="none" width="189.98" height="7.717"/>
		<text transform="matrix(0.9288 0 0 1 82.9111 151.2168)" font-size="8">&gt;... (other attributes of this source)</text>
		
			<rect x="61.988" y="156.322" fill="#86B2D8" stroke="#010101" stroke-width="0.75" stroke-linecap="round" stroke-linejoin="round" stroke-miterlimit="1" width="269.576" height="97.585"/>
		
			<rect x="78.784" y="169.962" fill="#FFFFFF" stroke="#010101" stroke-width="0.75" stroke-linecap="round" stroke-linejoin="round" stroke-miterlimit="1" width="252.763" height="69.945"/>
		
			<rect x="90.743" y="184.01" fill="#86B2D8" stroke="#010101" stroke-width="0.75" stroke-linecap="round" stroke-linejoin="round" stroke-miterlimit="1" width="240.821" height="56.146"/>
		
			<rect x="103.447" y="197.962" fill="#FFFFFF" stroke="#010101" stroke-width="0.75" stroke-linecap="round" stroke-linejoin="round" stroke-miterlimit="1" width="228.117" height="13.953"/>
		<rect x="82.911" y="174.19" fill="none" width="170.795" height="7.717"/>
		<text transform="matrix(0.9288 0 0 1 82.9111 179.9141)" font-size="8">&gt;Source Image Sequence</text>
		<rect x="286.305" y="174.191" fill="none" width="44.984" height="7.716"/>
		<text transform="matrix(0.9288 0 0 1 286.2852 179.894)" font-size="8">(0008,2112)</text>
		<rect x="94.077" y="188.706" fill="none" width="108.835" height="7.717"/>
		<text transform="matrix(0.9288 0 0 1 94.0771 194.4287)" font-size="8">Item 1</text>
		<rect x="64.594" y="160.908" fill="none" width="127.731" height="7.721"/>
		<text transform="matrix(0.9288 0 0 1 64.5986 166.6104)" font-size="8">Item 2</text>
		
			<rect x="61.988" y="253.907" fill="#86B2D8" stroke="#010101" stroke-width="0.75" stroke-linecap="round" stroke-linejoin="round" stroke-miterlimit="1" width="269.576" height="13.64"/>
		<rect x="64.594" y="258.493" fill="none" width="127.731" height="7.721"/>
		<text transform="matrix(0.9288 0 0 1 64.5986 264.1953)" font-size="8">...</text>
		<rect x="107.157" y="202.622" fill="none" width="136.597" height="7.717"/>
		<text transform="matrix(0.9288 0 0 1 107.1611 208.3179)" font-size="8">&gt;&gt;Referenced SOP Class UID</text>
		<rect x="286.707" y="202.622" fill="none" width="44.582" height="7.717"/>
		<text transform="matrix(0.9288 0 0 1 286.6875 208.3232)" font-size="8">(0008,1150)</text>
		
			<rect x="103.447" y="211.915" fill="#FFFFFF" stroke="#010101" stroke-width="0.75" stroke-linecap="round" stroke-linejoin="round" stroke-miterlimit="1" width="228.117" height="13.953"/>
		<rect x="107.157" y="216.575" fill="none" width="136.597" height="7.717"/>
		<text transform="matrix(0.9288 0 0 1 107.1611 222.271)" font-size="8">&gt;&gt;Referenced SOP Instance UID</text>
		<rect x="286.707" y="216.575" fill="none" width="44.582" height="7.717"/>
		<text transform="matrix(0.9288 0 0 1 286.6875 222.2764)" font-size="8">(0008,1155)</text>
		
			<rect x="103.447" y="226.182" fill="#FFFFFF" stroke="#010101" stroke-width="0.75" stroke-linecap="round" stroke-linejoin="round" stroke-miterlimit="1" width="228.117" height="13.953"/>
		<rect x="107.157" y="230.842" fill="none" width="136.597" height="7.717"/>
		<text transform="matrix(0.9288 0 0 1 107.1611 236.5376)" font-size="8">&gt;&gt;Referenced Frame Number</text>
		<rect x="286.707" y="230.842" fill="none" width="44.582" height="7.717"/>
		<text transform="matrix(0.9288 0 0 1 286.6875 236.543)" font-size="8">(0008,1160)</text>
		
			<rect x="78.784" y="239.907" fill="#FFFFFF" stroke="#010101" stroke-width="0.75" stroke-linecap="round" stroke-linejoin="round" stroke-miterlimit="1" width="252.78" height="14"/>
		<rect x="82.911" y="243.079" fill="none" width="189.98" height="7.717"/>
		<text transform="matrix(0.9288 0 0 1 82.9111 248.8018)" font-size="8">&gt;... (other attributes of this source)</text>
		
			<rect x="45.213" y="16.741" fill="#B2CEE7" stroke="#010101" stroke-width="0.75" stroke-linecap="round" stroke-linejoin="round" stroke-miterlimit="1" width="286.332" height="13.998"/>
		<rect x="49.353" y="20.213" fill="none" width="164.911" height="7.717"/>
		<text transform="matrix(0.9288 0 0 1 49.3569 25.9165)" font-size="8">SOP Instance UID</text>
		<rect x="286.303" y="20.213" fill="none" width="44.984" height="7.716"/>
		<text transform="matrix(0.9288 0 0 1 286.2842 25.915)" font-size="8">(0008,0018)</text>
		
			<rect x="45.213" y="281.357" fill="#B2CEE7" stroke="#010101" stroke-width="0.75" stroke-linecap="round" stroke-linejoin="round" stroke-miterlimit="1" width="286.333" height="139.239"/>
		
			<rect x="61.989" y="295.355" fill="#86B2D8" stroke="#010101" stroke-width="0.75" stroke-linecap="round" stroke-linejoin="round" stroke-miterlimit="1" width="269.576" height="55.783"/>
		<rect x="49.353" y="284.829" fill="none" width="164.911" height="7.717"/>
		<text transform="matrix(0.9288 0 0 1 49.3574 290.5317)" font-size="8">X-Ray 3D Reconstruction Sequence</text>
		<rect x="49.353" y="270.831" fill="none" width="164.911" height="7.717"/>
		<text transform="matrix(0.9288 0 0 1 49.3574 276.5337)" font-size="8">...</text>
		
			<rect x="78.785" y="308.995" fill="#FFFFFF" stroke="#010101" stroke-width="0.75" stroke-linecap="round" stroke-linejoin="round" stroke-miterlimit="1" width="252.762" height="14.048"/>
		<rect x="82.911" y="313.225" fill="none" width="170.795" height="7.717"/>
		<text transform="matrix(0.9288 0 0 1 82.9106 318.9473)" font-size="8">&gt;Acquisition Index</text>
		<rect x="286.305" y="313.225" fill="none" width="44.984" height="7.716"/>
		<text transform="matrix(0.9288 0 0 1 286.2852 318.9272)" font-size="8">(0020,9518)</text>
		
			<rect x="78.785" y="323.043" fill="#FFFFFF" stroke="#010101" stroke-width="0.75" stroke-linecap="round" stroke-linejoin="round" stroke-miterlimit="1" width="252.762" height="14.048"/>
		<rect x="82.911" y="327.272" fill="none" width="170.795" height="7.717"/>
		<text transform="matrix(0.9288 0 0 1 82.9106 332.9951)" font-size="8">&gt;Reconstruction Description</text>
		<rect x="286.305" y="327.272" fill="none" width="44.984" height="7.716"/>
		<text transform="matrix(0.9288 0 0 1 286.2852 332.9746)" font-size="8">(0020,9518)</text>
		
			<rect x="78.785" y="337.091" fill="#FFFFFF" stroke="#010101" stroke-width="0.75" stroke-linecap="round" stroke-linejoin="round" stroke-miterlimit="1" width="252.762" height="14.048"/>
		<rect x="82.911" y="341.32" fill="none" width="170.795" height="7.717"/>
		<text transform="matrix(0.9288 0 0 1 82.9106 347.043)" font-size="8">&gt;... (other attributes related to this reconstruction)</text>
		<rect x="286.305" y="284.83" fill="none" width="44.984" height="7.715"/>
		<text transform="matrix(0.9288 0 0 1 286.2852 290.5322)" font-size="8">(0018,9530)</text>
		<rect x="64.594" y="299.941" fill="none" width="127.731" height="7.721"/>
		<text transform="matrix(0.9288 0 0 1 64.5981 305.6436)" font-size="8">Item 1</text>
		
			<rect x="61.989" y="351.139" fill="#86B2D8" stroke="#010101" stroke-width="0.75" stroke-linecap="round" stroke-linejoin="round" stroke-miterlimit="1" width="269.576" height="55.783"/>
		
			<rect x="78.785" y="364.778" fill="#FFFFFF" stroke="#010101" stroke-width="0.75" stroke-linecap="round" stroke-linejoin="round" stroke-miterlimit="1" width="252.762" height="14.048"/>
		<rect x="82.911" y="369.008" fill="none" width="170.795" height="7.717"/>
		<text transform="matrix(0.9288 0 0 1 82.9106 374.7305)" font-size="8">&gt;Acquisition Index</text>
		<rect x="286.305" y="369.008" fill="none" width="44.984" height="7.716"/>
		<text transform="matrix(0.9288 0 0 1 286.2852 374.7109)" font-size="8">(0020,9518)</text>
		
			<rect x="78.785" y="378.826" fill="#FFFFFF" stroke="#010101" stroke-width="0.75" stroke-linecap="round" stroke-linejoin="round" stroke-miterlimit="1" width="252.762" height="14.048"/>
		<rect x="82.911" y="383.056" fill="none" width="170.795" height="7.717"/>
		<text transform="matrix(0.9288 0 0 1 82.9106 388.7783)" font-size="8">&gt;Reconstruction Description</text>
		<rect x="286.305" y="383.056" fill="none" width="44.984" height="7.716"/>
		<text transform="matrix(0.9288 0 0 1 286.2852 388.7578)" font-size="8">(0020,9518)</text>
		
			<rect x="78.785" y="392.874" fill="#FFFFFF" stroke="#010101" stroke-width="0.75" stroke-linecap="round" stroke-linejoin="round" stroke-miterlimit="1" width="252.762" height="14.048"/>
		<rect x="82.911" y="397.104" fill="none" width="170.795" height="7.717"/>
		<text transform="matrix(0.9288 0 0 1 82.9106 402.8262)" font-size="8">&gt;... (other attributes related to this reconstruction)</text>
		<rect x="64.594" y="355.725" fill="none" width="127.731" height="7.721"/>
		<text transform="matrix(0.9288 0 0 1 64.5981 361.4268)" font-size="8">Item 2</text>
		<rect x="49.353" y="423.253" fill="none" width="164.911" height="5.903"/>
		<text transform="matrix(1.214 0 0 1 49.353 427.6328)" font-size="6.1206">...</text>
		
			<rect x="61.988" y="406.922" fill="#86B2D8" stroke="#010101" stroke-width="0.75" stroke-linecap="round" stroke-linejoin="round" stroke-miterlimit="1" width="269.576" height="13.64"/>
		<rect x="64.594" y="411.508" fill="none" width="127.731" height="7.721"/>
		<text transform="matrix(0.9288 0 0 1 64.5986 417.21)" font-size="8">...</text>
		
			<rect x="45.213" y="432.461" fill="#B2CEE7" stroke="#010101" stroke-width="0.75" stroke-linecap="round" stroke-linejoin="round" stroke-miterlimit="1" width="286.334" height="41.435"/>
		<rect x="49.353" y="435.933" fill="none" width="164.911" height="7.717"/>
		<text transform="matrix(0.9288 0 0 1 49.3574 441.6348)" font-size="8">Dimension Organization Sequence</text>
		<rect x="286.305" y="435.933" fill="none" width="44.984" height="7.717"/>
		<text transform="matrix(0.9288 0 0 1 286.2852 441.6357)" font-size="8">(0020,9221)</text>
		
			<rect x="61.988" y="446.209" fill="#86B2D8" stroke="#010101" stroke-width="0.75" stroke-linecap="round" stroke-linejoin="round" stroke-miterlimit="1" width="269.576" height="27.687"/>
		
			<rect x="78.784" y="459.849" fill="#FFFFFF" stroke="#010101" stroke-width="0.75" stroke-linecap="round" stroke-linejoin="round" stroke-miterlimit="1" width="252.763" height="14.047"/>
		<rect x="82.911" y="464.077" fill="none" width="170.795" height="7.717"/>
		<text transform="matrix(0.9288 0 0 1 82.9106 469.8008)" font-size="8">&gt;Dimension Organization UID</text>
		<rect x="286.305" y="464.078" fill="none" width="44.984" height="7.716"/>
		<text transform="matrix(0.9288 0 0 1 286.2852 469.7812)" font-size="8">(0020,9164)</text>
		<rect x="64.594" y="450.795" fill="none" width="127.731" height="7.721"/>
		<text transform="matrix(0.9288 0 0 1 64.5981 456.4971)" font-size="8">Item 1</text>
		
			<rect x="45.213" y="473.896" fill="#B2CEE7" stroke="#010101" stroke-width="0.75" stroke-linecap="round" stroke-linejoin="round" stroke-miterlimit="1" width="286.334" height="125.309"/>
		<rect x="49.353" y="477.367" fill="none" width="164.911" height="7.717"/>
		<text transform="matrix(0.9288 0 0 1 49.3574 483.0703)" font-size="8">Dimension Index Sequence</text>
		<rect x="286.305" y="477.367" fill="none" width="44.984" height="7.717"/>
		<text transform="matrix(0.9288 0 0 1 286.2852 483.0703)" font-size="8">(0020,9222)</text>
		
			<rect x="61.988" y="487.644" fill="#86B2D8" stroke="#010101" stroke-width="0.75" stroke-linecap="round" stroke-linejoin="round" stroke-miterlimit="1" width="269.576" height="55.78"/>
		
			<rect x="78.784" y="501.283" fill="#FFFFFF" stroke="#010101" stroke-width="0.75" stroke-linecap="round" stroke-linejoin="round" stroke-miterlimit="1" width="252.763" height="14.047"/>
		<rect x="82.911" y="505.512" fill="none" width="170.795" height="7.717"/>
		<text transform="matrix(0.9288 0 0 1 82.9106 511.2354)" font-size="8">&gt;Dimension Organization UID</text>
		<rect x="286.305" y="505.513" fill="none" width="44.984" height="7.716"/>
		<text transform="matrix(0.9288 0 0 1 286.2852 511.2148)" font-size="8">(0020,9164)</text>
		
			<rect x="78.784" y="515.33" fill="#FFFFFF" stroke="#010101" stroke-width="0.75" stroke-linecap="round" stroke-linejoin="round" stroke-miterlimit="1" width="252.763" height="14.047"/>
		<rect x="82.911" y="519.559" fill="none" width="170.795" height="7.717"/>
		<text transform="matrix(0.9288 0 0 1 82.9106 525.2822)" font-size="8">&gt;Dimension Index Pointer</text>
		<rect x="286.305" y="519.56" fill="none" width="44.984" height="7.716"/>
		<text transform="matrix(0.9288 0 0 1 286.2852 525.2617)" font-size="8">(0020,9165)</text>
		
			<rect x="78.784" y="529.377" fill="#FFFFFF" stroke="#010101" stroke-width="0.75" stroke-linecap="round" stroke-linejoin="round" stroke-miterlimit="1" width="252.763" height="14.047"/>
		<rect x="82.911" y="533.605" fill="none" width="170.795" height="7.717"/>
		<text transform="matrix(0.9288 0 0 1 82.9106 539.3291)" font-size="8">&gt;Functional Group Pointer</text>
		<rect x="286.305" y="533.606" fill="none" width="44.984" height="7.716"/>
		<text transform="matrix(0.9288 0 0 1 286.2852 539.3086)" font-size="8">(0020,9167)</text>
		<rect x="64.594" y="492.229" fill="none" width="127.731" height="7.721"/>
		<text transform="matrix(0.9288 0 0 1 64.5981 497.9316)" font-size="8">Item 1</text>
		
			<rect x="61.988" y="543.424" fill="#86B2D8" stroke="#010101" stroke-width="0.75" stroke-linecap="round" stroke-linejoin="round" stroke-miterlimit="1" width="269.576" height="55.78"/>
		
			<rect x="78.784" y="557.063" fill="#FFFFFF" stroke="#010101" stroke-width="0.75" stroke-linecap="round" stroke-linejoin="round" stroke-miterlimit="1" width="252.763" height="14.047"/>
		<rect x="82.911" y="561.292" fill="none" width="170.795" height="7.717"/>
		<text transform="matrix(0.9288 0 0 1 82.9106 567.0156)" font-size="8">&gt;Dimension Organization UID</text>
		<rect x="286.305" y="561.293" fill="none" width="44.984" height="7.716"/>
		<text transform="matrix(0.9288 0 0 1 286.2852 566.9961)" font-size="8">(0020,9164)</text>
		
			<rect x="78.784" y="571.11" fill="#FFFFFF" stroke="#010101" stroke-width="0.75" stroke-linecap="round" stroke-linejoin="round" stroke-miterlimit="1" width="252.763" height="14.047"/>
		<rect x="82.911" y="575.339" fill="none" width="170.795" height="7.717"/>
		<text transform="matrix(0.9288 0 0 1 82.9106 581.0625)" font-size="8">&gt;Dimension Index Pointer</text>
		<rect x="286.305" y="575.34" fill="none" width="44.984" height="7.716"/>
		<text transform="matrix(0.9288 0 0 1 286.2852 581.043)" font-size="8">(0020,9165)</text>
		
			<rect x="78.784" y="585.157" fill="#FFFFFF" stroke="#010101" stroke-width="0.75" stroke-linecap="round" stroke-linejoin="round" stroke-miterlimit="1" width="252.763" height="14.047"/>
		<rect x="82.911" y="589.386" fill="none" width="170.795" height="7.717"/>
		<text transform="matrix(0.9288 0 0 1 82.9106 595.1094)" font-size="8">&gt;Functional Group Pointer</text>
		<rect x="286.305" y="589.387" fill="none" width="44.984" height="7.716"/>
		<text transform="matrix(0.9288 0 0 1 286.2852 595.0898)" font-size="8">(0020,9167)</text>
		<rect x="64.594" y="548.01" fill="none" width="127.731" height="7.721"/>
		<text transform="matrix(0.9288 0 0 1 64.5981 553.7119)" font-size="8">Item 1</text>
		
			<rect x="45.213" y="599.204" fill="#B2CEE7" stroke="#010101" stroke-width="0.75" stroke-linecap="round" stroke-linejoin="round" stroke-miterlimit="1" width="286.334" height="13.748"/>
		<rect x="49.353" y="602.676" fill="none" width="164.911" height="7.717"/>
		<text transform="matrix(0.9288 0 0 1 49.3574 608.3789)" font-size="8">Dimension Organization Type</text>
		<rect x="286.305" y="602.676" fill="none" width="44.984" height="7.717"/>
		<text transform="matrix(0.9288 0 0 1 286.2852 608.3789)" font-size="8">(0020,9311)</text>
		<rect x="49.353" y="617.538" fill="none" width="127.731" height="7.721"/>
		<text transform="matrix(0.9288 0 0 1 49.3574 623.2402)" font-size="8">...</text>
	</g>
</g>
</svg>
