<?xml version="1.0" encoding="utf-8"?>

<!DOCTYPE svg PUBLIC "-//W3C//DTD SVG 1.1//EN" "http://www.w3.org/Graphics/SVG/1.1/DTD/svg11.dtd">
<svg version="1.1" id="Layer_1" xmlns="http://www.w3.org/2000/svg" xmlns:xlink="http://www.w3.org/1999/xlink" x="0px" y="0px"
	 width="502px" height="187px" viewBox="0 0 502 187" enable-background="new 0 0 502 187" xml:space="preserve">

<defs>
	<style type="text/css">
	text {
	  font-family: Helvetica, Verdana, ArialUnicodeMS, san-serif
	}
	</style>
</defs>

<g>
   <desc>
	PS 3.17 Part 17: Explanatory Information
   </desc>
</g>

<g>
	<rect x="1" y="1" fill="#F5EED6" width="500" height="185"/>
	<g>
		<polyline fill="#B2CEE7" stroke="#636466" stroke-linecap="square" points="287.454,145.583 264.428,158.377 264.428,136.666 		
			"/>
		<polygon fill="#86B2D8" stroke="#000000" stroke-miterlimit="1" points="201.859,63.262 398.497,124.363 350.093,170.049 
			139.078,87.629 139.076,87.625 159.329,79.812 142.72,73.259 142.718,73.257 170.926,62.399 189.471,68.162 		"/>
		<g>
			<g>
				<line fill="none" stroke="#00AEEF" x1="159.909" y1="66.39" x2="126.578" y2="52.69"/>
				<g>
					<polygon fill="#00AEEF" points="129.515,50.756 118.384,49.322 127.306,56.13 					"/>
				</g>
			</g>
		</g>
		<polyline fill="none" stroke="#999999" stroke-dasharray="2,2" points="326.152,102.05 326.152,124.084 288.349,145.086 		"/>
		<polygon opacity="0.5" fill="#B2CEE7" stroke="#000000" stroke-linejoin="round" points="264.428,136.541 264.428,80.271 
			326.152,48.478 326.152,102.05 		"/>
		<g>
			<g>
				<line fill="none" stroke="#ED1C24" x1="159.975" y1="66.402" x2="193.485" y2="53.724"/>
				<g>
					<polygon fill="#ED1C24" points="192.66,57.143 201.771,50.589 190.604,51.708 					"/>
				</g>
			</g>
		</g>
		<g>
			<g>
				<line fill="none" stroke="#0DB14B" x1="159.975" y1="66.402" x2="160.013" y2="97.562"/>
				<g>
					<polygon fill="#0DB14B" points="157.105,95.585 160.023,106.422 162.916,95.577 					"/>
				</g>
			</g>
		</g>
		<g>
			<g>
				<line fill="none" stroke="#000000" stroke-width="2" x1="159.97" y1="66.38" x2="250.376" y2="78.402"/>
				<g>
					<polygon points="246.621,82.592 264.428,80.271 247.847,73.376 					"/>
				</g>
			</g>
		</g>
		<g>
			<path stroke="#000000" stroke-width="0.5" stroke-miterlimit="1" d="M159.97,63.379c-1.657,0-3,1.344-3,3.001h3V63.379z"/>
			
				<path fill="#FFFFFF" stroke="#010101" stroke-width="0.5" stroke-linecap="round" stroke-linejoin="round" stroke-miterlimit="1" d="
				M156.97,66.38c0,1.657,1.343,3,3,3v-3H156.97z"/>
			<path stroke="#000000" stroke-width="0.5" stroke-miterlimit="1" d="M159.97,69.38c1.657,0,3-1.343,3-3h-3V69.38z"/>
			
				<path fill="#FFFFFF" stroke="#010101" stroke-width="0.5" stroke-linecap="round" stroke-linejoin="round" stroke-miterlimit="1" d="
				M159.97,66.38h3c0-1.657-1.343-3.001-3-3.001V66.38z"/>
		</g>
		<text transform="matrix(1 0 0 1 142.7485 25.814)"><tspan x="0" y="0" font-size="10">Patient</tspan><tspan x="-8.894" y="12" font-size="10">Coordinate</tspan><tspan x="-1.104" y="24" font-size="10">System</tspan></text>
		<text transform="matrix(0.9914 0.1306 -0.1306 0.9914 180.0454 77.9424)"><tspan x="0" y="0" font-size="8">Image Position</tspan><tspan x="11.342" y="8" font-size="8">(Patient)</tspan><tspan x="4.887" y="16" font-size="8">(0020,0032)</tspan></text>
		<text transform="matrix(1 0 0 1 299.0723 78.5112)" font-size="10">Slice</text>
		<text transform="matrix(1 0 0 1 334.8408 130.877)"><tspan x="0" y="0" font-size="10">X-Ray</tspan><tspan x="1.384" y="12" font-size="10">Table</tspan></text>
		<text transform="matrix(1 -0.0019 0.0019 1 103.521 49.3203)" fill="#00AEEF" font-size="11">+Z</text>
		<text transform="matrix(1 -0.0019 0.0019 1 201.0747 50.5869)" fill="#ED1C24" font-size="11">+X</text>
		<text transform="matrix(1 -0.0019 0.0019 1 154.1489 115.9629)" fill="#0DB14B" font-size="11">+Y</text>
	</g>
</g>
</svg>
