<?xml version="1.0" encoding="utf-8"?>

<!DOCTYPE svg PUBLIC "-//W3C//DTD SVG 1.1//EN" "http://www.w3.org/Graphics/SVG/1.1/DTD/svg11.dtd">
<svg version="1.1" id="Layer_1" xmlns="http://www.w3.org/2000/svg" xmlns:xlink="http://www.w3.org/1999/xlink" x="0px" y="0px"
	 width="552px" height="342px" viewBox="0 0 552 342" enable-background="new 0 0 552 342" xml:space="preserve">

<defs>
	<style type="text/css">
	text {
	  font-family: Helvetica, Verdana, ArialUnicodeMS, san-serif
	}
	</style>
</defs>

<g>
   <desc>
	PS 3.17 Part 17: Explanatory Information
   </desc>
</g>

<g>
	<rect x="1" y="1" fill="#F5EED6" width="550" height="340"/>
	<g>
		
			<rect x="170.137" y="16.902" fill="#CCDEF0" stroke="#010101" stroke-width="0.75" stroke-linecap="round" stroke-linejoin="round" stroke-miterlimit="1" width="50" height="50"/>
		<g>
			<text transform="matrix(1 0 0 1 181.9604 33.3296)"><tspan x="0" y="0" font-size="6">One Input</tspan><tspan x="9.469" y="7.891" font-size="8">➜</tspan><tspan x="4.674" y="14.181" font-size="6">RBGA</tspan><tspan x="-6.993" y="20.472" font-size="6">(EQUAL_RGB)</tspan></text>
		</g>
		<g>
			<text transform="matrix(1 0 0 1 227.3906 39.5742)" font-size="6">RGB-1</text>
		</g>
		<g>
			<text transform="matrix(1 0 0 1 227.3965 74.4902)" font-size="6">Alpha-1</text>
		</g>
		<g>
			<g>
				<line fill="none" stroke="#005695" stroke-miterlimit="1" x1="122.721" y1="45.89" x2="162.883" y2="45.89"/>
				<g>
					<polygon fill="#005695" points="161.298,48.214 169.971,45.89 161.298,43.565 					"/>
				</g>
			</g>
		</g>
		<g>
			<text transform="matrix(1 0 0 1 125.271 43.3018)" font-size="6">Scalar value</text>
		</g>
		<g>
			<g>
				<polyline fill="none" stroke="#005695" stroke-miterlimit="1" points="195.137,67.329 195.137,77.329 252.571,77.329 				"/>
				<g>
					<polygon fill="#005695" points="250.985,79.653 259.658,77.329 250.985,75.005 					"/>
				</g>
			</g>
		</g>
		
			<rect x="170.137" y="112.941" fill="#CCDEF0" stroke="#010101" stroke-width="0.75" stroke-linecap="round" stroke-linejoin="round" stroke-miterlimit="1" width="50" height="50"/>
		<g>
			<text transform="matrix(1 0 0 1 181.9595 129.3682)"><tspan x="0" y="0" font-size="6">One Input</tspan><tspan x="9.469" y="7.891" font-size="8">➜</tspan><tspan x="4.674" y="14.181" font-size="6">RBGA</tspan><tspan x="6.842" y="20.472" font-size="6">“red”</tspan></text>
		</g>
		<g>
			<text transform="matrix(1 0 0 1 227.3906 134.7129)" font-size="6">RGB-2</text>
		</g>
		<g>
			<text transform="matrix(1 0 0 1 227.3965 100.2773)" font-size="6">Alpha-2</text>
		</g>
		<g>
			<g>
				<line fill="none" stroke="#005695" stroke-miterlimit="1" x1="122.721" y1="133.953" x2="162.883" y2="133.953"/>
				<g>
					<polygon fill="#005695" points="161.298,136.277 169.971,133.953 161.298,131.629 					"/>
				</g>
			</g>
		</g>
		<g>
			<text transform="matrix(1 0 0 1 125.271 132.2754)" font-size="6">Scalar value</text>
		</g>
		<g>
			<g>
				<polyline fill="none" stroke="#005695" stroke-miterlimit="1" points="195.137,112.514 195.137,102.514 252.571,102.514 				"/>
				<g>
					<polygon fill="#005695" points="250.985,104.838 259.658,102.514 250.985,100.19 					"/>
				</g>
			</g>
		</g>
		<g>
			<g>
				<polyline fill="none" stroke="#005695" stroke-width="2" stroke-miterlimit="1" points="220.408,137.941 284.924,137.941 
					284.898,122.667 				"/>
				<g>
					<polygon fill="#005695" points="287.226,124.248 284.887,115.579 282.577,124.255 					"/>
				</g>
			</g>
		</g>
		<g>
			<g>
				<polyline fill="none" stroke="#005695" stroke-width="2" stroke-miterlimit="1" points="220.408,41.902 284.924,41.902 
					284.898,57.177 				"/>
				<g>
					<polygon fill="#005695" points="282.577,55.588 284.887,64.265 287.226,55.596 					"/>
				</g>
			</g>
		</g>
		
			<rect x="259.887" y="65.152" fill="#CCDEF0" stroke="#010101" stroke-width="0.75" stroke-linecap="round" stroke-linejoin="round" stroke-miterlimit="1" width="50" height="50"/>
		<g>
			<text transform="matrix(1 0 0 1 311.9902 87.8242)" font-size="6">RGB-4</text>
		</g>
		
			<rect x="170.137" y="194.02" fill="#CCDEF0" stroke="#010101" stroke-width="0.75" stroke-linecap="round" stroke-linejoin="round" stroke-miterlimit="1" width="50" height="50"/>
		<g>
			<text transform="matrix(1 0 0 1 181.4595 210.4463)"><tspan x="0" y="0" font-size="6">One Input</tspan><tspan x="9.469" y="7.891" font-size="8">➜</tspan><tspan x="4.674" y="14.181" font-size="6">RBGA</tspan><tspan x="2.842" y="20.472" font-size="6">“yellow”</tspan></text>
		</g>
		<g>
			<text transform="matrix(1 0 0 1 227.3906 215.791)" font-size="6">RGB-3</text>
		</g>
		<g>
			<text transform="matrix(1 0 0 1 227.3965 181.3555)" font-size="6">Alpha-3</text>
		</g>
		<g>
			<g>
				<line fill="none" stroke="#005695" stroke-miterlimit="1" x1="122.721" y1="215.031" x2="162.883" y2="215.031"/>
				<g>
					<polygon fill="#005695" points="161.298,217.355 169.971,215.031 161.298,212.707 					"/>
				</g>
			</g>
		</g>
		<g>
			<text transform="matrix(1 0 0 1 125.271 213.3535)" font-size="6">Scalar value</text>
		</g>
		<g>
			<g>
				<polyline fill="none" stroke="#005695" stroke-miterlimit="1" points="195.137,193.592 195.137,183.592 302.57,183.592 				"/>
				<g>
					<polygon fill="#005695" points="300.985,185.916 309.658,183.592 300.985,181.268 					"/>
				</g>
			</g>
		</g>
		<g>
			<g>
				<polyline fill="none" stroke="#005695" stroke-width="2" stroke-miterlimit="1" points="220.408,219.02 334.924,219.02 
					334.898,203.745 				"/>
				<g>
					<polygon fill="#005695" points="337.226,205.326 334.887,196.657 332.577,205.334 					"/>
				</g>
			</g>
		</g>
		<g>
			<g>
				<polyline fill="none" stroke="#005695" stroke-width="2" stroke-miterlimit="1" points="310.158,90.152 334.674,90.152 
					334.642,138.255 				"/>
				<g>
					<polygon fill="#005695" points="332.318,136.668 334.637,145.343 336.967,136.672 					"/>
				</g>
			</g>
		</g>
		
			<rect x="309.637" y="146.23" fill="#CCDEF0" stroke="#010101" stroke-width="0.75" stroke-linecap="round" stroke-linejoin="round" stroke-miterlimit="1" width="50" height="50"/>
		<g>
			<text transform="matrix(1 0 0 1 361.7402 168.9023)" font-size="6">RGB-5</text>
		</g>
		
			<rect x="170.137" y="275.098" fill="#CCDEF0" stroke="#010101" stroke-width="0.75" stroke-linecap="round" stroke-linejoin="round" stroke-miterlimit="1" width="50" height="50"/>
		<g>
			<text transform="matrix(1 0 0 1 181.4595 291.5244)"><tspan x="0" y="0" font-size="6">One Input</tspan><tspan x="9.469" y="7.891" font-size="8">➜</tspan><tspan x="4.674" y="14.181" font-size="6">RBGA</tspan><tspan x="3.505" y="20.472" font-size="6">“green”</tspan></text>
		</g>
		<g>
			<text transform="matrix(1 0 0 1 227.3906 296.8691)" font-size="6">RGB-6</text>
		</g>
		<g>
			<text transform="matrix(1 0 0 1 227.3965 262.4336)" font-size="6">Alpha-6</text>
		</g>
		<g>
			<text transform="matrix(1 0 0 1 439.752 197.4023)" font-size="6">ICC Input Profile</text>
		</g>
		<g>
			<g>
				<line fill="none" stroke="#005695" stroke-miterlimit="1" x1="122.721" y1="296.109" x2="162.883" y2="296.109"/>
				<g>
					<polygon fill="#005695" points="161.298,298.434 169.971,296.109 161.298,293.785 					"/>
				</g>
			</g>
		</g>
		<g>
			<text transform="matrix(1 0 0 1 125.271 294.4316)" font-size="6">Scalar value</text>
		</g>
		<g>
			<g>
				<polyline fill="none" stroke="#005695" stroke-miterlimit="1" points="195.137,274.67 195.137,264.67 353.07,264.67 				"/>
				<g>
					<polygon fill="#005695" points="351.485,266.994 360.158,264.67 351.485,262.346 					"/>
				</g>
			</g>
		</g>
		<g>
			<g>
				<line fill="none" stroke="#005695" stroke-miterlimit="1" x1="461.762" y1="201.23" x2="461.762" y2="220.222"/>
				<g>
					<polygon fill="#005695" points="459.438,218.637 461.762,227.31 464.086,218.637 					"/>
				</g>
			</g>
		</g>
		<g>
			<g>
				<polyline fill="none" stroke="#005695" stroke-width="2" stroke-miterlimit="1" points="220.408,300.098 385.008,300.098 
					384.91,284.822 				"/>
				<g>
					<polygon fill="#005695" points="387.245,286.393 384.865,277.735 382.597,286.423 					"/>
				</g>
			</g>
		</g>
		<g>
			<g>
				<polyline fill="none" stroke="#005695" stroke-width="2" stroke-miterlimit="1" points="359.637,171.23 385.527,171.23 
					385.495,219.333 				"/>
				<g>
					<polygon fill="#005695" points="383.172,217.747 385.49,226.421 387.82,217.75 					"/>
				</g>
			</g>
		</g>
		
			<rect x="360.49" y="227.309" fill="#CCDEF0" stroke="#010101" stroke-width="0.75" stroke-linecap="round" stroke-linejoin="round" stroke-miterlimit="1" width="50" height="50"/>
		<g>
			<text transform="matrix(1 0 0 1 415.2617 249.9805)" font-size="6">RGB</text>
		</g>
		<g>
			<g>
				
					<line fill="none" stroke="#005695" stroke-width="2" stroke-miterlimit="1" x1="410.762" y1="252.309" x2="433.674" y2="252.309"/>
				<g>
					<polygon fill="#005695" points="432.089,254.633 440.762,252.309 432.089,249.984 					"/>
				</g>
			</g>
		</g>
		<g>
			<text transform="matrix(1 0 0 1 485.0879 249.9805)" font-size="6">PCS Values</text>
		</g>
		<g>
			<g>
				
					<line fill="none" stroke="#005695" stroke-width="2" stroke-miterlimit="1" x1="482.762" y1="252.309" x2="521.711" y2="252.309"/>
				<g>
					<polygon fill="#005695" points="520.126,254.633 528.799,252.309 520.126,249.984 					"/>
				</g>
			</g>
		</g>
		<rect x="262.386" y="72.913" fill="none" width="45" height="34.479"/>
		<text transform="matrix(1 0 0 1 278.3848 77.2002)"><tspan x="0" y="0" font-size="6">RGB </tspan><tspan x="-8.837" y="7.2" font-size="6">Compositor</tspan><tspan x="-8.339" y="12.69" font-size="6">(one minus </tspan><tspan x="-3.839" y="19.891" font-size="6">Alpha-2 </tspan><tspan x="-7.173" y="27.09" font-size="6">weighting)</tspan></text>
		<rect x="312.137" y="158.771" fill="none" width="45" height="24.918"/>
		<text transform="matrix(1 0 0 1 328.1348 163.0581)"><tspan x="0" y="0" font-size="6">RGB </tspan><tspan x="-8.837" y="7.2" font-size="6">Compositor</tspan><tspan x="-12.008" y="12.69" font-size="6">(pass-through</tspan><tspan x="-7.173" y="18.181" font-size="6">weighting)</tspan></text>
		<rect x="363.027" y="239.85" fill="none" width="45" height="24.918"/>
		<text transform="matrix(1 0 0 1 379.0273 244.1367)"><tspan x="0" y="0" font-size="6">RGB </tspan><tspan x="-8.838" y="7.199" font-size="6">Compositor</tspan><tspan x="-12.01" y="12.689" font-size="6">(pass-through</tspan><tspan x="-7.174" y="18.181" font-size="6">weighting)</tspan></text>
		
			<rect x="440.762" y="227.309" fill="#CCDEF0" stroke="#010101" stroke-width="0.75" stroke-linecap="round" stroke-linejoin="round" stroke-miterlimit="1" width="42" height="50"/>
		<rect x="444.762" y="237.398" fill="none" width="34" height="29.82"/>
		<text transform="matrix(1 0 0 1 453.2578 241.6855)"><tspan x="0" y="0" font-size="6">Profile </tspan><tspan x="-6.674" y="7.2" font-size="6">Connection </tspan><tspan x="-0.003" y="14.4" font-size="6">Space </tspan><tspan x="-5.165" y="21.6" font-size="6">Transform</tspan></text>
		<g>
			<g>
				<line fill="none" stroke="#005695" stroke-width="2" stroke-miterlimit="1" x1="68.266" y1="45.889" x2="85.178" y2="45.889"/>
				<g>
					<polygon fill="#005695" points="83.593,48.213 92.266,45.889 83.593,43.565 					"/>
				</g>
			</g>
		</g>
		
			<rect x="92.55" y="34.889" fill="#CCDEF0" stroke="#010101" stroke-width="0.75" stroke-linecap="round" stroke-linejoin="round" stroke-miterlimit="1" width="30" height="22"/>
		<g>
			<text transform="matrix(1 0 0 1 100.8818 47.5527)" font-size="6">MPR</text>
		</g>
		<g>
			<g>
				
					<line fill="none" stroke="#005695" stroke-width="2" stroke-miterlimit="1" x1="68.266" y1="132.283" x2="85.178" y2="132.283"/>
				<g>
					<polygon fill="#005695" points="83.593,134.607 92.266,132.283 83.593,129.959 					"/>
				</g>
			</g>
		</g>
		
			<rect x="92.55" y="121.283" fill="#CCDEF0" stroke="#010101" stroke-width="0.75" stroke-linecap="round" stroke-linejoin="round" stroke-miterlimit="1" width="30" height="22"/>
		<g>
			<text transform="matrix(1 0 0 1 100.8818 133.9453)" font-size="6">MPR</text>
		</g>
		<g>
			<g>
				
					<line fill="none" stroke="#005695" stroke-width="2" stroke-miterlimit="1" x1="68.266" y1="215.031" x2="85.178" y2="215.031"/>
				<g>
					<polygon fill="#005695" points="83.593,217.355 92.266,215.031 83.593,212.707 					"/>
				</g>
			</g>
		</g>
		
			<rect x="92.55" y="204.031" fill="#CCDEF0" stroke="#010101" stroke-width="0.75" stroke-linecap="round" stroke-linejoin="round" stroke-miterlimit="1" width="30" height="22"/>
		<g>
			<text transform="matrix(1 0 0 1 100.8818 216.6953)" font-size="6">MPR</text>
		</g>
		<g>
			<g>
				
					<line fill="none" stroke="#005695" stroke-width="2" stroke-miterlimit="1" x1="68.266" y1="296.109" x2="85.178" y2="296.109"/>
				<g>
					<polygon fill="#005695" points="83.593,298.434 92.266,296.109 83.593,293.785 					"/>
				</g>
			</g>
		</g>
		
			<rect x="92.55" y="285.109" fill="#CCDEF0" stroke="#010101" stroke-width="0.75" stroke-linecap="round" stroke-linejoin="round" stroke-miterlimit="1" width="30" height="22"/>
		<g>
			<text transform="matrix(1 0 0 1 100.8818 297.7725)" font-size="6">MPR</text>
		</g>
		<g>
			<text transform="matrix(1 0 0 1 29.8628 47.5518)" font-size="6">Lung Volume</text>
		</g>
		<g>
			<text transform="matrix(1 0 0 1 28.6953 131.2007)"><tspan x="0" y="0" font-size="6">Large Nodule</tspan><tspan x="-0.5" y="5.491" font-size="6">Segmentation</tspan></text>
		</g>
		<g>
			<text transform="matrix(1 0 0 1 28.8667 295.0273)"><tspan x="0" y="0" font-size="6">Small Nodule</tspan><tspan x="-0.671" y="5.49" font-size="6">Segmentation</tspan></text>
		</g>
		<g>
			<text transform="matrix(1 0 0 1 23.2007 213.9492)"><tspan x="0" y="0" font-size="6">Medium Nodule</tspan><tspan x="2.498" y="5.49" font-size="6">Segmentation</tspan></text>
		</g>
	</g>
</g>
</svg>
