<?xml version="1.0" encoding="utf-8"?>

<!DOCTYPE svg PUBLIC "-//W3C//DTD SVG 1.1//EN" "http://www.w3.org/Graphics/SVG/1.1/DTD/svg11.dtd">
<svg version="1.1" id="Layer_1" xmlns="http://www.w3.org/2000/svg" xmlns:xlink="http://www.w3.org/1999/xlink" x="0px" y="0px"
	 width="502px" height="477px" viewBox="0 0 502 477" enable-background="new 0 0 502 477" xml:space="preserve">

<defs>
	<style type="text/css">
	text {
	  font-family: Helvetica, Verdana, ArialUnicodeMS, san-serif
	}
	</style>
</defs>

<g>
   <desc>
	PS 3.17 Part 17: Explanatory Information
   </desc>
</g>

<g>
	<rect x="1" y="1" fill="#F5EED6" width="500" height="475"/>
	<g>
		<g>
			<ellipse fill="#B2CEE7" stroke="#010101" stroke-miterlimit="10" cx="365.275" cy="240.403" rx="108.923" ry="111.675"/>
			<ellipse fill="#CCDEF0" stroke="#010101" stroke-miterlimit="10" cx="365.274" cy="240.403" rx="72.617" ry="74.267"/>
			
				<line fill="none" stroke="#010101" stroke-linecap="round" stroke-linejoin="round" stroke-miterlimit="8" x1="287.707" y1="319.07" x2="442.843" y2="161.737"/>
			
				<line fill="none" stroke="#010101" stroke-linecap="round" stroke-linejoin="round" stroke-miterlimit="8" x1="288.259" y1="161.187" x2="442.292" y2="319.621"/>
			<ellipse fill="#FFFFFF" stroke="#010101" stroke-miterlimit="10" cx="365.274" cy="240.403" rx="36.309" ry="36.858"/>
			<circle fill="#010101" cx="365.274" cy="240.403" r="2.75"/>
			<ellipse fill="#B2CEE7" stroke="#010101" stroke-miterlimit="10" cx="133.677" cy="240.403" rx="109.474" ry="111.675"/>
			<ellipse fill="#CCDEF0" stroke="#010101" stroke-miterlimit="10" cx="133.677" cy="240.403" rx="73.167" ry="74.267"/>
			
				<line fill="none" stroke="#010101" stroke-linecap="round" stroke-linejoin="round" stroke-miterlimit="8" x1="56.109" y1="319.07" x2="211.244" y2="161.737"/>
			
				<line fill="none" stroke="#010101" stroke-linecap="round" stroke-linejoin="round" stroke-miterlimit="8" x1="56.66" y1="161.187" x2="210.694" y2="319.621"/>
			<ellipse fill="#FFFFFF" stroke="#010101" stroke-miterlimit="10" cx="134.227" cy="240.403" rx="36.308" ry="36.858"/>
			<circle fill="#010101" cx="134.227" cy="240.403" r="2.751"/>
		</g>
		<g>
			<text transform="matrix(1 0 0 1 108.5264 144.3477)"><tspan x="0" y="0" fill="#ED1C24" font-size="8">Outer Superior</tspan><tspan x="11.779" y="9.6" fill="#ED1C24" font-size="8">Subfield</tspan></text>
			<text transform="matrix(1 0 0 1 109.4131 182.894)"><tspan x="0" y="0" fill="#ED1C24" font-size="8">Inner Superior</tspan><tspan x="10.893" y="9.6" fill="#ED1C24" font-size="8">Subfield</tspan></text>
			<text transform="matrix(1 0 0 1 69.8389 232.1475)"><tspan x="0" y="0" fill="#ED1C24" font-size="8">Inner </tspan><tspan x="-6.666" y="9.601" fill="#ED1C24" font-size="8">Temporal</tspan><tspan x="-4.227" y="19.2" fill="#ED1C24" font-size="8">Subfield</tspan></text>
			<text transform="matrix(1 0 0 1 176.7451 232.1475)"><tspan x="0" y="0" fill="#ED1C24" font-size="8">Inner </tspan><tspan x="0.002" y="9.601" fill="#ED1C24" font-size="8">Nasal</tspan><tspan x="-4.227" y="19.2" fill="#ED1C24" font-size="8">Subfield</tspan></text>
			<text transform="matrix(1 0 0 1 213.4849 232.1475)"><tspan x="0" y="0" fill="#ED1C24" font-size="8">Outer </tspan><tspan x="0.889" y="9.601" fill="#ED1C24" font-size="8">Nasal</tspan><tspan x="-3.34" y="19.2" fill="#ED1C24" font-size="8">Subfield</tspan></text>
			<text transform="matrix(1 0 0 1 32.1172 232.1475)"><tspan x="0" y="0" fill="#ED1C24" font-size="8">Outer</tspan><tspan x="-6.891" y="9.601" fill="#ED1C24" font-size="8">Temporal</tspan><tspan x="-4.451" y="19.2" fill="#ED1C24" font-size="8">Subfield</tspan></text>
			<text transform="matrix(1 0 0 1 122.7549 218.8276)"><tspan x="0" y="0" fill="#ED1C24" font-size="8">Center</tspan><tspan x="-2.449" y="9.6" fill="#ED1C24" font-size="8">Subfield</tspan></text>
			<text transform="matrix(1 0 0 1 122.7549 250.5742)"><tspan x="0" y="0" font-size="8">Center</tspan><tspan x="2.889" y="9.6" font-size="8">Point</tspan></text>
			<text transform="matrix(1 0 0 1 112.083 291.2148)"><tspan x="0" y="0" fill="#ED1C24" font-size="8">Inner Inferior</tspan><tspan x="8.223" y="9.6" fill="#ED1C24" font-size="8">Subfield</tspan></text>
			<text transform="matrix(1 0 0 1 111.1963 330.2803)"><tspan x="0" y="0" fill="#ED1C24" font-size="8">Outer Inferior</tspan><tspan x="9.109" y="9.601" fill="#ED1C24" font-size="8">Subfield</tspan></text>
			<text transform="matrix(1 0 0 1 340.4414 144.3477)"><tspan x="0" y="0" fill="#ED1C24" font-size="8">Outer Superior</tspan><tspan x="11.779" y="9.6" fill="#ED1C24" font-size="8">Subfield</tspan></text>
			<text transform="matrix(1 0 0 1 341.3281 182.894)"><tspan x="0" y="0" fill="#ED1C24" font-size="8">Inner Superior</tspan><tspan x="10.893" y="9.6" fill="#ED1C24" font-size="8">Subfield</tspan></text>
			<text transform="matrix(1 0 0 1 301.7539 232.1475)"><tspan x="0" y="0" fill="#ED1C24" font-size="8">Inner </tspan><tspan x="0.002" y="9.601" fill="#ED1C24" font-size="8">Nasal</tspan><tspan x="-4.227" y="19.2" fill="#ED1C24" font-size="8">Subfield</tspan></text>
			<text transform="matrix(1 0 0 1 408.6602 232.1475)"><tspan x="0" y="0" fill="#ED1C24" font-size="8">Inner </tspan><tspan x="-6.666" y="9.601" fill="#ED1C24" font-size="8">Temporal</tspan><tspan x="-4.227" y="19.2" fill="#ED1C24" font-size="8">Subfield</tspan></text>
			<text transform="matrix(1 0 0 1 445.4004 232.1475)"><tspan x="0" y="0" fill="#ED1C24" font-size="8">Outer </tspan><tspan x="-5.779" y="9.601" fill="#ED1C24" font-size="8">Temporal</tspan><tspan x="-3.34" y="19.2" fill="#ED1C24" font-size="8">Subfield</tspan></text>
			<text transform="matrix(1 0 0 1 264.0332 232.1475)"><tspan x="0" y="0" fill="#ED1C24" font-size="8">Outer</tspan><tspan x="-0.223" y="9.601" fill="#ED1C24" font-size="8">Nasal</tspan><tspan x="-4.451" y="19.2" fill="#ED1C24" font-size="8">Subfield</tspan></text>
			<text transform="matrix(1 0 0 1 354.6699 218.8276)"><tspan x="0" y="0" fill="#ED1C24" font-size="8">Center</tspan><tspan x="-2.449" y="9.6" fill="#ED1C24" font-size="8">Subfield</tspan></text>
			<text transform="matrix(1 0 0 1 354.6699 250.5742)"><tspan x="0" y="0" font-size="8">Center</tspan><tspan x="2.889" y="9.6" font-size="8">Point</tspan></text>
			<text transform="matrix(1 0 0 1 433.4375 124.2471)" font-size="11">Left Eye</text>
			<text transform="matrix(1 0 0 1 24.1514 124.2471)" font-size="11">Right Eye</text>
			<text transform="matrix(1 0 0 1 343.998 291.2148)"><tspan x="0" y="0" fill="#ED1C24" font-size="8">Inner Inferior</tspan><tspan x="8.223" y="9.6" fill="#ED1C24" font-size="8">Subfield</tspan></text>
			<text transform="matrix(1 0 0 1 343.1113 330.2803)"><tspan x="0" y="0" fill="#ED1C24" font-size="8">Outer Inferior</tspan><tspan x="9.109" y="9.601" fill="#ED1C24" font-size="8">Subfield</tspan></text>
		</g>
	</g>
</g>
</svg>
