<?xml version="1.0" encoding="utf-8"?>

<!DOCTYPE svg PUBLIC "-//W3C//DTD SVG 1.1//EN" "http://www.w3.org/Graphics/SVG/1.1/DTD/svg11.dtd">
<svg version="1.1" id="Layer_1" xmlns="http://www.w3.org/2000/svg" xmlns:xlink="http://www.w3.org/1999/xlink" x="0px" y="0px"
	 width="552px" height="237px" viewBox="0 0 552 237" enable-background="new 0 0 552 237" xml:space="preserve">

<defs>
	<style type="text/css">
	text {
	  font-family: Helvetica, Verdana, ArialUnicodeMS, san-serif
	}
	</style>
</defs>

<g>
   <desc>
	PS 3.17 Part 17: Explanatory Information
   </desc>
</g>

<g>
	<rect x="1" y="1" fill="#F5EED6" width="550" height="235"/>
	<g>
		<g>
			<g>
				<polyline fill="none" stroke="#005695" stroke-width="2" stroke-linecap="round" stroke-miterlimit="1" points="
					271.035,177.117 271.035,186.301 323.416,186.301 323.416,86.762 345.23,86.762 345.23,93.065 				"/>
				<path fill="#005695" d="M346.46,95.899c0.6-1.984,1.151-3.273,1.79-4.865h-6.053c0.271,0.569,1.191,2.881,1.79,4.865
					c0.642,2.124,1.08,4.049,1.236,5.298C345.381,99.948,345.819,98.022,346.46,95.899z"/>
			</g>
		</g>
		
			<rect x="123.83" y="100.355" fill="#86B2D8" stroke="#010101" stroke-width="0.75" stroke-linecap="round" stroke-linejoin="round" stroke-miterlimit="1" width="98.992" height="18"/>
		<g>
			<text transform="matrix(1 0 0 1 134.8057 111.8325)" font-size="9">Acquisition Context</text>
		</g>
		<g>
			<g>
				<polyline fill="none" stroke="#005695" stroke-width="2" stroke-linecap="round" stroke-miterlimit="1" points="
					174.094,127.449 66.253,127.449 66.253,141.904 				"/>
				<path fill="#005695" d="M67.483,144.738c0.599-1.983,1.151-3.273,1.79-4.865H63.22c0.271,0.57,1.191,2.882,1.79,4.865
					c0.642,2.124,1.08,4.049,1.237,5.298C66.403,148.787,66.842,146.862,67.483,144.738z"/>
			</g>
		</g>
		<g>
			<g>
				<polyline fill="none" stroke="#005695" stroke-width="2" stroke-linecap="round" stroke-miterlimit="1" points="
					173.967,127.449 271.178,127.449 271.178,141.904 				"/>
				<path fill="#005695" d="M272.408,144.738c0.599-1.983,1.151-3.273,1.79-4.865h-6.053c0.271,0.57,1.191,2.882,1.79,4.865
					c0.642,2.124,1.08,4.049,1.237,5.298C271.328,148.787,271.767,146.862,272.408,144.738z"/>
			</g>
		</g>
		<g>
			<line fill="#4F8ABE" x1="173.314" y1="118.926" x2="173.314" y2="150.366"/>
			<g>
				
					<line fill="none" stroke="#005695" stroke-width="2" stroke-linecap="round" stroke-miterlimit="1" x1="173.314" y1="118.926" x2="173.314" y2="139.735"/>
				<g>
					<polygon fill="#005695" points="169.828,137.357 173.314,150.366 176.801,137.357 					"/>
				</g>
			</g>
		</g>
		<g>
			<text transform="matrix(1 0 0 1 204.5503 153.9844)" font-size="9">1</text>
		</g>
		<g>
			<text transform="matrix(1 0 0 1 204.5493 175.9883)" font-size="9">0-n</text>
		</g>
		<g>
			<line fill="#4F8ABE" x1="173.088" y1="174.686" x2="173.088" y2="198.803"/>
			<g>
				
					<line fill="none" stroke="#005695" stroke-width="2" stroke-linecap="round" stroke-miterlimit="1" x1="173.088" y1="174.686" x2="173.088" y2="188.172"/>
				<g>
					<polygon fill="#005695" points="169.602,185.794 173.088,198.803 176.574,185.794 					"/>
				</g>
			</g>
		</g>
		
			<rect x="123.582" y="198.873" fill="#86B2D8" stroke="#010101" stroke-width="0.75" stroke-linecap="round" stroke-linejoin="round" stroke-miterlimit="1" width="99" height="22.484"/>
		<g>
			<text transform="matrix(1 0 0 1 128.3354 208.1855)"><tspan x="0" y="0" font-size="9">(Multiframe 2D) X-Ray</tspan><tspan x="1.226" y="8.799" font-size="9">Angiography Instance</tspan></text>
		</g>
		<g>
			<line fill="#4F8ABE" x1="66.259" y1="174.686" x2="66.259" y2="198.803"/>
			<g>
				
					<line fill="none" stroke="#005695" stroke-width="2" stroke-linecap="round" stroke-miterlimit="1" x1="66.259" y1="174.686" x2="66.259" y2="188.172"/>
				<g>
					<polygon fill="#005695" points="62.772,185.794 66.259,198.803 69.745,185.794 					"/>
				</g>
			</g>
		</g>
		
			<rect x="16.753" y="198.873" fill="#86B2D8" stroke="#010101" stroke-width="0.75" stroke-linecap="round" stroke-linejoin="round" stroke-miterlimit="1" width="99" height="22.484"/>
		<g>
			<text transform="matrix(1 0 0 1 20.2383 208.1855)"><tspan x="0" y="0" font-size="9">X-Ray 2D Angiography</tspan><tspan x="26.013" y="8.799" font-size="9">Projection</tspan></text>
		</g>
		
			<polygon fill="#CCDEF0" stroke="#010101" stroke-width="0.75" stroke-linecap="round" stroke-linejoin="round" stroke-miterlimit="1" points="
			128.584,162.078 173.008,148.785 217.584,162.27 217.584,162.301 173.008,175.785 		"/>
		<g>
			<text transform="matrix(1 0 0 1 146.4233 164.7607)" font-size="9">is encoded in</text>
		</g>
		<g>
			<text transform="matrix(1 0 0 1 302.3926 153.9844)" font-size="9">1-n</text>
		</g>
		<g>
			<text transform="matrix(1 0 0 1 310.3945 175.9883)" font-size="9">1</text>
		</g>
		
			<polygon fill="#CCDEF0" stroke="#010101" stroke-width="0.75" stroke-linecap="round" stroke-linejoin="round" stroke-miterlimit="1" points="
			226.678,162.078 271.102,148.785 315.678,162.27 315.678,162.301 271.102,175.785 		"/>
		<g>
			<text transform="matrix(1 0 0 1 250.7749 164.7607)" font-size="9">is used by</text>
		</g>
		<g>
			<text transform="matrix(1 0 0 1 93.2866 153.9844)" font-size="9">1</text>
		</g>
		<g>
			<text transform="matrix(1 0 0 1 93.2856 175.9883)" font-size="9">1-n</text>
		</g>
		
			<polygon fill="#CCDEF0" stroke="#010101" stroke-width="0.75" stroke-linecap="round" stroke-linejoin="round" stroke-miterlimit="1" points="
			27.32,162.078 66.753,148.785 106.32,162.27 106.32,162.301 66.753,175.785 		"/>
		<g>
			<line fill="#4F8ABE" x1="485.753" y1="174.686" x2="485.753" y2="198.803"/>
			<g>
				
					<line fill="none" stroke="#005695" stroke-width="2" stroke-linecap="round" stroke-miterlimit="1" x1="485.753" y1="174.686" x2="485.753" y2="188.172"/>
				<g>
					<polygon fill="#005695" points="482.267,185.794 485.753,198.803 489.239,185.794 					"/>
				</g>
			</g>
		</g>
		
			<rect x="436.247" y="198.873" fill="#86B2D8" stroke="#010101" stroke-width="0.75" stroke-linecap="round" stroke-linejoin="round" stroke-miterlimit="1" width="99" height="22.484"/>
		<g>
			<text transform="matrix(1 0 0 1 438.7324 208.1855)"><tspan x="0" y="0" font-size="9">X-Ray 3D Angiographic</tspan><tspan x="31.766" y="8.799" font-size="9">Volume</tspan></text>
		</g>
		<g>
			<text transform="matrix(1 0 0 1 517.3633 153.9844)" font-size="9">1</text>
		</g>
		<g>
			<text transform="matrix(1 0 0 1 517.3633 175.9883)" font-size="9">1</text>
		</g>
		
			<polygon fill="#CCDEF0" stroke="#010101" stroke-width="0.75" stroke-linecap="round" stroke-linejoin="round" stroke-miterlimit="1" points="
			446.814,162.078 486.247,148.785 525.814,162.27 525.814,162.301 486.247,175.785 		"/>
		<g>
			<text transform="matrix(1 0 0 1 45.4194 164.7607)" font-size="9">consists of</text>
		</g>
		<g>
			<g>
				
					<line fill="none" stroke="#005695" stroke-width="2" stroke-linecap="round" stroke-miterlimit="1" x1="173.891" y1="81.814" x2="173.891" y2="93.517"/>
				<path fill="#005695" d="M175.121,96.351c0.599-1.984,1.151-3.273,1.79-4.865h-6.053c0.271,0.569,1.191,2.881,1.79,4.865
					c0.642,2.124,1.08,4.049,1.237,5.298C174.041,100.4,174.479,98.475,175.121,96.351z"/>
			</g>
		</g>
		<g>
			<text transform="matrix(1 0 0 1 197.46 64.4224)" font-size="9">1</text>
		</g>
		<g>
			<text transform="matrix(1 0 0 1 197.4604 86.4272)" font-size="9">1-n</text>
		</g>
		
			<polygon fill="#CCDEF0" stroke="#010101" stroke-width="0.75" stroke-linecap="round" stroke-linejoin="round" stroke-miterlimit="1" points="
			137.844,72.382 173.791,83.46 209.844,72.222 209.844,72.197 173.791,60.96 		"/>
		<g>
			<text transform="matrix(1 0 0 1 159.1187 74.6787)" font-size="9">creates</text>
		</g>
		<g>
			<g>
				
					<line fill="none" stroke="#005695" stroke-width="2" stroke-linecap="round" stroke-miterlimit="1" x1="174.174" y1="39.578" x2="174.174" y2="54.031"/>
				<path fill="#005695" d="M175.404,56.865c0.599-1.984,1.151-3.273,1.79-4.865h-6.053c0.271,0.569,1.191,2.881,1.79,4.865
					c0.642,2.124,1.08,4.049,1.237,5.298C174.324,60.914,174.763,58.989,175.404,56.865z"/>
			</g>
		</g>
		
			<rect x="132.096" y="15.643" fill="#86B2D8" stroke="#010101" stroke-width="0.75" stroke-linecap="round" stroke-linejoin="round" stroke-miterlimit="1" width="83.996" height="24"/>
		<g>
			<text transform="matrix(1 0 0 1 138.8267 29.9824)" font-size="9">X-Ray Equipment</text>
		</g>
		
			<rect x="329.649" y="100.355" fill="#86B2D8" stroke="#010101" stroke-width="0.75" stroke-linecap="round" stroke-linejoin="round" stroke-miterlimit="1" width="98.992" height="18"/>
		<g>
			<text transform="matrix(1 0 0 1 342.1279 111.8325)" font-size="9">3D Reconstruction</text>
		</g>
		<g>
			<g>
				<polyline fill="none" stroke="#005695" stroke-width="2" stroke-linecap="round" stroke-miterlimit="1" points="378.71,127.449 
					485.747,127.449 485.747,141.904 				"/>
				<path fill="#005695" d="M486.977,144.738c0.6-1.983,1.151-3.273,1.79-4.865h-6.053c0.271,0.57,1.191,2.882,1.79,4.865
					c0.642,2.124,1.08,4.049,1.236,5.298C485.897,148.787,486.336,146.862,486.977,144.738z"/>
			</g>
		</g>
		<g>
			<line fill="#4F8ABE" x1="379.134" y1="118.926" x2="379.134" y2="150.366"/>
			<g>
				
					<line fill="none" stroke="#005695" stroke-width="2" stroke-linecap="round" stroke-miterlimit="1" x1="379.134" y1="118.926" x2="379.134" y2="139.735"/>
				<g>
					<polygon fill="#005695" points="375.647,137.357 379.134,150.366 382.62,137.357 					"/>
				</g>
			</g>
		</g>
		<g>
			<text transform="matrix(1 0 0 1 408.8691 153.9844)" font-size="9">1-n</text>
		</g>
		<g>
			<text transform="matrix(1 0 0 1 416.8691 175.9883)" font-size="9">1</text>
		</g>
		<g>
			<line fill="#4F8ABE" x1="378.907" y1="174.686" x2="378.907" y2="198.803"/>
			<g>
				
					<line fill="none" stroke="#005695" stroke-width="2" stroke-linecap="round" stroke-miterlimit="1" x1="378.907" y1="174.686" x2="378.907" y2="188.172"/>
				<g>
					<polygon fill="#005695" points="375.421,185.794 378.907,198.803 382.394,185.794 					"/>
				</g>
			</g>
		</g>
		
			<rect x="329.401" y="198.873" fill="#86B2D8" stroke="#010101" stroke-width="0.75" stroke-linecap="round" stroke-linejoin="round" stroke-miterlimit="1" width="99" height="22.484"/>
		<g>
			<text transform="matrix(1 0 0 1 332.8867 208.1855)"><tspan x="0" y="0" font-size="9">X-Ray 3D Angiography</tspan><tspan x="29.013" y="8.799" font-size="9">Instance</tspan></text>
		</g>
		
			<polygon fill="#CCDEF0" stroke="#010101" stroke-width="0.75" stroke-linecap="round" stroke-linejoin="round" stroke-miterlimit="1" points="
			334.403,162.078 378.827,148.785 423.403,162.27 423.403,162.301 378.827,175.785 		"/>
		<g>
			<text transform="matrix(1 0 0 1 352.2422 164.7607)" font-size="9">is encoded in</text>
		</g>
		<g>
			<text transform="matrix(1 0 0 1 464.3457 164.7607)" font-size="9">consists of</text>
		</g>
		<g>
			<g>
				
					<line fill="none" stroke="#005695" stroke-width="2" stroke-linecap="round" stroke-miterlimit="1" x1="379.71" y1="81.814" x2="379.71" y2="93.517"/>
				<path fill="#005695" d="M380.939,96.351c0.6-1.984,1.151-3.273,1.79-4.865h-6.053c0.271,0.569,1.191,2.881,1.79,4.865
					c0.642,2.124,1.08,4.049,1.236,5.298C379.86,100.4,380.299,98.475,380.939,96.351z"/>
			</g>
		</g>
		<g>
			<text transform="matrix(1 0 0 1 403.2793 64.4224)" font-size="9">1</text>
		</g>
		<g>
			<text transform="matrix(1 0 0 1 403.2793 86.4272)" font-size="9">1-n</text>
		</g>
		
			<polygon fill="#CCDEF0" stroke="#010101" stroke-width="0.75" stroke-linecap="round" stroke-linejoin="round" stroke-miterlimit="1" points="
			343.663,72.382 379.61,83.46 415.663,72.222 415.663,72.197 379.61,60.96 		"/>
		<g>
			<text transform="matrix(1 0 0 1 364.9375 74.6787)" font-size="9">creates</text>
		</g>
		<g>
			<g>
				
					<line fill="none" stroke="#005695" stroke-width="2" stroke-linecap="round" stroke-miterlimit="1" x1="379.993" y1="39.578" x2="379.993" y2="54.031"/>
				<path fill="#005695" d="M381.223,56.865c0.6-1.984,1.151-3.273,1.79-4.865h-6.053c0.271,0.569,1.191,2.881,1.79,4.865
					c0.642,2.124,1.08,4.049,1.236,5.298C380.144,60.914,380.582,58.989,381.223,56.865z"/>
			</g>
		</g>
		
			<rect x="337.915" y="15.643" fill="#86B2D8" stroke="#010101" stroke-width="0.75" stroke-linecap="round" stroke-linejoin="round" stroke-miterlimit="1" width="83.996" height="24"/>
		<g>
			<text transform="matrix(1 0 0 1 342.8945 25.5825)"><tspan x="0" y="0" font-size="9">3D Reconstruction</tspan><tspan x="15.003" y="8.8" font-size="9">Application</tspan></text>
		</g>
	</g>
</g>
</svg>
