<?xml version="1.0" encoding="utf-8"?>

<!DOCTYPE svg PUBLIC "-//W3C//DTD SVG 1.1//EN" "http://www.w3.org/Graphics/SVG/1.1/DTD/svg11.dtd">
<svg version="1.1" id="Layer_1" xmlns="http://www.w3.org/2000/svg" xmlns:xlink="http://www.w3.org/1999/xlink" x="0px" y="0px"
	 width="502px" height="112px" viewBox="0 0 502 112" enable-background="new 0 0 502 112" xml:space="preserve">

<defs>
	<style type="text/css">
	text {
	  font-family: Helvetica, Verdana, ArialUnicodeMS, san-serif
	}
	</style>
</defs>

<g>
   <desc>
	PS 3.17 Part 17: Explanatory Information
   </desc>
</g>

<g>
	<rect x="1" y="1" fill="#F5EED6" width="500" height="110"/>
	<g>
		<text transform="matrix(1 0 0 1 191.8066 60.3799)" font-size="9">=</text>
		<text transform="matrix(1 0 0 1 166.5605 28.2666)"><tspan x="0" y="0" font-size="9">A</tspan><tspan x="6.003" y="5" font-size="9">x</tspan></text>
		<text transform="matrix(1 0 0 1 166.5605 50.3076)"><tspan x="0" y="0" font-size="9">A</tspan><tspan x="6.003" y="5" font-size="9">y</tspan></text>
		<text transform="matrix(1 0 0 1 166.5605 69.8271)"><tspan x="0" y="0" font-size="9">A</tspan><tspan x="6.003" y="5" font-size="9">z</tspan></text>
		<polyline fill="none" stroke="#000000" stroke-width="1.25" stroke-miterlimit="10" points="162.341,17.178 157.841,17.178 
			157.841,94.822 162.341,94.822 		"/>
		<polyline fill="none" stroke="#000000" stroke-width="1.25" stroke-miterlimit="10" points="180.375,17.178 184.875,17.178 
			184.875,94.822 180.375,94.822 		"/>
		<text transform="matrix(1 0 0 1 169.3086 89.1611)" font-size="9">1</text>
		<text transform="matrix(1 0 0 1 325.8438 28.2666)"><tspan x="0" y="0" font-size="9">B</tspan><tspan x="6.004" y="5" font-size="9">x</tspan></text>
		<text transform="matrix(1 0 0 1 325.8438 50.3076)"><tspan x="0" y="0" font-size="9">B</tspan><tspan x="6.004" y="5" font-size="9">y</tspan></text>
		<text transform="matrix(1 0 0 1 325.8438 69.8271)"><tspan x="0" y="0" font-size="9">B</tspan><tspan x="6.004" y="5" font-size="9">z</tspan></text>
		<polyline fill="none" stroke="#000000" stroke-width="1.25" stroke-miterlimit="10" points="321.625,17.178 317.125,17.178 
			317.125,94.822 321.625,94.822 		"/>
		<polyline fill="none" stroke="#000000" stroke-width="1.25" stroke-miterlimit="10" points="339.658,17.178 344.158,17.178 
			344.158,94.822 339.658,94.822 		"/>
		<text transform="matrix(1 0 0 1 328.5918 89.1611)" font-size="9">1</text>
		<text transform="matrix(1 0 0 1 213.3975 28.2666)"><tspan x="0" y="0" font-size="9">M</tspan><tspan x="7.497" y="5" font-size="9">11</tspan></text>
		<text transform="matrix(1 0 0 1 213.3975 50.3076)"><tspan x="0" y="0" font-size="9">M</tspan><tspan x="7.497" y="5" font-size="9">21</tspan></text>
		<text transform="matrix(1 0 0 1 213.3975 69.8271)"><tspan x="0" y="0" font-size="9">M</tspan><tspan x="7.497" y="5" font-size="9">31</tspan></text>
		<polyline fill="none" stroke="#000000" stroke-width="1.25" stroke-miterlimit="10" points="209.306,17.178 204.806,17.178 
			204.806,94.822 209.306,94.822 		"/>
		<polyline fill="none" stroke="#000000" stroke-width="1.25" stroke-miterlimit="10" points="304.959,17.178 309.459,17.178 
			309.459,94.822 304.959,94.822 		"/>
		<text transform="matrix(1 0 0 1 219.6484 89.1611)" font-size="9">0</text>
		<text transform="matrix(1 0 0 1 238.9131 28.2666)"><tspan x="0" y="0" font-size="9">M</tspan><tspan x="7.497" y="5" font-size="9">12</tspan></text>
		<text transform="matrix(1 0 0 1 238.9131 50.3076)"><tspan x="0" y="0" font-size="9">M</tspan><tspan x="7.497" y="5" font-size="9">22</tspan></text>
		<text transform="matrix(1 0 0 1 238.9131 69.8271)"><tspan x="0" y="0" font-size="9">M</tspan><tspan x="7.497" y="5" font-size="9">32</tspan></text>
		<text transform="matrix(1 0 0 1 245.1641 89.1611)" font-size="9">0</text>
		<text transform="matrix(1 0 0 1 264.4297 28.2666)"><tspan x="0" y="0" font-size="9">M</tspan><tspan x="7.497" y="5" font-size="9">13</tspan></text>
		<text transform="matrix(1 0 0 1 264.4297 50.3076)"><tspan x="0" y="0" font-size="9">M</tspan><tspan x="7.497" y="5" font-size="9">23</tspan></text>
		<text transform="matrix(1 0 0 1 264.4297 69.8271)"><tspan x="0" y="0" font-size="9">M</tspan><tspan x="7.497" y="5" font-size="9">33</tspan></text>
		<text transform="matrix(1 0 0 1 270.6807 89.1611)" font-size="9">0</text>
		<text transform="matrix(1 0 0 1 290.8262 28.2666)"><tspan x="0" y="0" font-size="9">T</tspan><tspan x="5.498" y="5" font-size="9">x</tspan></text>
		<text transform="matrix(1 0 0 1 290.8262 50.3076)"><tspan x="0" y="0" font-size="9">T</tspan><tspan x="5.498" y="5" font-size="9">y</tspan></text>
		<text transform="matrix(1 0 0 1 290.8262 69.8271)"><tspan x="0" y="0" font-size="9">T</tspan><tspan x="5.498" y="5" font-size="9">z</tspan></text>
		<text transform="matrix(1 0 0 1 293.3223 89.1611)" font-size="9">1</text>
	</g>
</g>
</svg>
