<?xml version="1.0" encoding="utf-8"?>

<!DOCTYPE svg PUBLIC "-//W3C//DTD SVG 1.1//EN" "http://www.w3.org/Graphics/SVG/1.1/DTD/svg11.dtd">
<svg version="1.1" id="Layer_1" xmlns="http://www.w3.org/2000/svg" xmlns:xlink="http://www.w3.org/1999/xlink" x="0px" y="0px"
	 width="502px" height="247px" viewBox="0 0 502 247" enable-background="new 0 0 502 247" xml:space="preserve">

<defs>
	<style type="text/css">
	text {
	  font-family: Helvetica, Verdana, ArialUnicodeMS, san-serif
	}
	</style>
</defs>

<g>
   <desc>
	PS 3.17 Part 17: Explanatory Information
   </desc>
</g>

<g>
	<rect x="1" y="1" fill="#F5EED6" width="500" height="245"/>
	<g>
		<rect x="51" y="16" fill="#CCDEF0" width="400" height="215"/>
		<g>
			<text transform="matrix(0.9135 0 0 1 126.2642 181.3906)" font-size="7">Alpha-1 Input</text>
		</g>
		<g>
			<text transform="matrix(0.9135 0 0 1 115.3491 27.3911)" font-size="9">Weight-1 Output</text>
		</g>
		<g>
			<text transform="matrix(0 -0.9135 1 0 73.23 134.9648)" font-size="7">Alpha-2 Input</text>
		</g>
		<rect x="76.283" y="36.11" fill="#B6B8BA" width="137.994" height="138"/>
		<polyline fill="none" stroke="#000000" stroke-miterlimit="1" points="76.283,36.11 76.283,174.109 214.277,174.109 		"/>
		<g>
			<text transform="matrix(0.9135 0 0 1 71.7339 174.165)" font-size="6">0</text>
		</g>
		<g>
			<text transform="matrix(0.9135 0 0 1 54.0728 37.833)"><tspan x="0" y="0" font-size="6">2</tspan><tspan x="3.337" y="-4" font-size="4">numBits</tspan><tspan x="17.786" y="0" font-size="6">-1</tspan></text>
		</g>
		<g>
			<text transform="matrix(0.9135 0 0 1 203.8223 182.582)"><tspan x="0" y="0" font-size="6">2</tspan><tspan x="3.337" y="-4" font-size="4">numBits</tspan><tspan x="17.786" y="0" font-size="6">-1</tspan></text>
		</g>
		<g>
			<text transform="matrix(0.9135 0 0 1 74.7593 179.915)" font-size="6">0</text>
		</g>
		<g>
			<text transform="matrix(0.9135 0 0 1 349.248 181.2734)" font-size="7">Alpha-1 Input</text>
		</g>
		<g>
			<text transform="matrix(0.9135 0 0 1 338.333 27.2739)" font-size="9">Weight-2 Output</text>
		</g>
		<g>
			<text transform="matrix(0 -0.9135 1 0 296.2139 134.8477)" font-size="7">Alpha-2 Input</text>
		</g>
		<rect x="299.268" y="35.993" fill="#737577" width="137.994" height="138"/>
		<polyline fill="none" stroke="#000000" stroke-miterlimit="1" points="299.268,35.993 299.268,173.992 437.262,173.992 		"/>
		<g>
			<text transform="matrix(0.9135 0 0 1 294.7178 174.0479)" font-size="6">0</text>
		</g>
		<g>
			<text transform="matrix(0.9135 0 0 1 277.0566 37.7158)"><tspan x="0" y="0" font-size="6">2</tspan><tspan x="3.337" y="-4" font-size="4">numBits</tspan><tspan x="17.786" y="0" font-size="6">-1</tspan></text>
		</g>
		<g>
			<text transform="matrix(0.9135 0 0 1 426.8066 182.4648)"><tspan x="0" y="0" font-size="6">2</tspan><tspan x="3.336" y="-4" font-size="4">numBits</tspan><tspan x="17.786" y="0" font-size="6">-1</tspan></text>
		</g>
		<g>
			<text transform="matrix(0.9135 0 0 1 297.7432 179.7979)" font-size="6">0</text>
		</g>
		<g>
			<linearGradient id="SVGID_1_" gradientUnits="userSpaceOnUse" x1="207.9268" y1="214.1094" x2="307.9277" y2="214.1094">
				<stop  offset="0" style="stop-color:#000000"/>
				<stop  offset="1" style="stop-color:#FFFFFF"/>
			</linearGradient>
			<rect x="207.927" y="209.109" fill="url(#SVGID_1_)" width="100.001" height="10"/>
			<g>
				<text transform="matrix(0.9135 0 0 1 228.6035 205.2734)" font-size="7">Weight Output Scale</text>
			</g>
			<g>
				<text transform="matrix(0.9135 0 0 1 304.1172 225.7158)" font-size="6">1.0</text>
			</g>
			<g>
				<text transform="matrix(0.9135 0 0 1 204.1177 225.7158)" font-size="6">0.0</text>
			</g>
		</g>
	</g>
</g>
</svg>
