<?xml version="1.0" encoding="utf-8"?>

<!DOCTYPE svg PUBLIC "-//W3C//DTD SVG 1.1//EN" "http://www.w3.org/Graphics/SVG/1.1/DTD/svg11.dtd">
<svg version="1.1" id="Layer_1" xmlns="http://www.w3.org/2000/svg" xmlns:xlink="http://www.w3.org/1999/xlink" x="0px" y="0px"
	 width="502px" height="257px" viewBox="0 0 502 257" enable-background="new 0 0 502 257" xml:space="preserve">

<defs>
	<style type="text/css">
	text {
	  font-family: Helvetica, Verdana, ArialUnicodeMS, san-serif
	}
	</style>
</defs>

<g>
   <desc>
	PS 3.3 Part 3: Information Object Definitions
   </desc>
</g>

<g>
	<rect x="1" y="1" fill="#F5EED6" width="500" height="255"/>
	<g>
		
			<rect x="257.5" y="13.179" fill="#CCDEF0" stroke="#B3B3B3" stroke-width="0.25" stroke-miterlimit="1" width="211.645" height="211.68"/>
		
			<line fill="#CCDEF0" stroke="#B3B3B3" stroke-width="0.25" stroke-miterlimit="1" x1="257.5" y1="213.074" x2="469.145" y2="213.074"/>
		
			<line fill="#CCDEF0" stroke="#B3B3B3" stroke-width="0.25" stroke-miterlimit="1" x1="257.5" y1="201.343" x2="469.145" y2="201.343"/>
		
			<line fill="#CCDEF0" stroke="#B3B3B3" stroke-width="0.25" stroke-miterlimit="1" x1="257.5" y1="189.562" x2="469.145" y2="189.562"/>
		
			<line fill="#CCDEF0" stroke="#B3B3B3" stroke-width="0.25" stroke-miterlimit="1" x1="257.5" y1="177.83" x2="469.145" y2="177.83"/>
		
			<line fill="#CCDEF0" stroke="#B3B3B3" stroke-width="0.25" stroke-miterlimit="1" x1="257.5" y1="166.046" x2="469.145" y2="166.046"/>
		
			<line fill="#CCDEF0" stroke="#B3B3B3" stroke-width="0.25" stroke-miterlimit="1" x1="257.5" y1="154.314" x2="469.145" y2="154.314"/>
		
			<line fill="#CCDEF0" stroke="#B3B3B3" stroke-width="0.25" stroke-miterlimit="1" x1="257.5" y1="142.533" x2="469.145" y2="142.533"/>
		
			<line fill="#CCDEF0" stroke="#B3B3B3" stroke-width="0.25" stroke-miterlimit="1" x1="257.5" y1="130.802" x2="469.145" y2="130.802"/>
		
			<line fill="#CCDEF0" stroke="#B3B3B3" stroke-width="0.25" stroke-miterlimit="1" x1="257.5" y1="119.018" x2="469.145" y2="119.018"/>
		
			<line fill="#CCDEF0" stroke="#B3B3B3" stroke-width="0.25" stroke-miterlimit="1" x1="257.5" y1="107.235" x2="469.145" y2="107.235"/>
		
			<line fill="#CCDEF0" stroke="#B3B3B3" stroke-width="0.25" stroke-miterlimit="1" x1="257.5" y1="95.505" x2="469.145" y2="95.505"/>
		
			<line fill="#CCDEF0" stroke="#B3B3B3" stroke-width="0.25" stroke-miterlimit="1" x1="257.5" y1="83.722" x2="469.145" y2="83.722"/>
		
			<line fill="#CCDEF0" stroke="#B3B3B3" stroke-width="0.25" stroke-miterlimit="1" x1="257.5" y1="71.99" x2="469.145" y2="71.99"/>
		
			<line fill="#CCDEF0" stroke="#B3B3B3" stroke-width="0.25" stroke-miterlimit="1" x1="257.5" y1="60.207" x2="469.145" y2="60.207"/>
		
			<line fill="#CCDEF0" stroke="#B3B3B3" stroke-width="0.25" stroke-miterlimit="1" x1="257.5" y1="48.476" x2="469.145" y2="48.476"/>
		
			<line fill="#CCDEF0" stroke="#B3B3B3" stroke-width="0.25" stroke-miterlimit="1" x1="257.5" y1="36.692" x2="469.145" y2="36.692"/>
		
			<line fill="#CCDEF0" stroke="#B3B3B3" stroke-width="0.25" stroke-miterlimit="1" x1="257.5" y1="24.962" x2="469.145" y2="24.962"/>
		
			<line fill="#CCDEF0" stroke="#B3B3B3" stroke-width="0.25" stroke-miterlimit="1" x1="457.365" y1="13.179" x2="457.365" y2="224.858"/>
		
			<line fill="#CCDEF0" stroke="#B3B3B3" stroke-width="0.25" stroke-miterlimit="1" x1="445.635" y1="13.179" x2="445.635" y2="224.858"/>
		
			<line fill="#CCDEF0" stroke="#B3B3B3" stroke-width="0.25" stroke-miterlimit="1" x1="433.854" y1="13.179" x2="433.854" y2="224.858"/>
		
			<line fill="#CCDEF0" stroke="#B3B3B3" stroke-width="0.25" stroke-miterlimit="1" x1="422.125" y1="13.179" x2="422.125" y2="224.858"/>
		
			<line fill="#CCDEF0" stroke="#B3B3B3" stroke-width="0.25" stroke-miterlimit="1" x1="410.344" y1="13.179" x2="410.344" y2="224.858"/>
		
			<line fill="#CCDEF0" stroke="#B3B3B3" stroke-width="0.25" stroke-miterlimit="1" x1="398.613" y1="13.179" x2="398.613" y2="224.858"/>
		
			<line fill="#CCDEF0" stroke="#B3B3B3" stroke-width="0.25" stroke-miterlimit="1" x1="386.832" y1="13.179" x2="386.832" y2="224.858"/>
		
			<line fill="#CCDEF0" stroke="#B3B3B3" stroke-width="0.25" stroke-miterlimit="1" x1="375.104" y1="13.179" x2="375.104" y2="224.858"/>
		
			<line fill="#CCDEF0" stroke="#B3B3B3" stroke-width="0.25" stroke-miterlimit="1" x1="363.322" y1="13.179" x2="363.322" y2="224.858"/>
		
			<line fill="#CCDEF0" stroke="#B3B3B3" stroke-width="0.25" stroke-miterlimit="1" x1="351.541" y1="13.179" x2="351.541" y2="224.858"/>
		
			<line fill="#CCDEF0" stroke="#B3B3B3" stroke-width="0.25" stroke-miterlimit="1" x1="339.812" y1="13.179" x2="339.812" y2="224.858"/>
		
			<line fill="#CCDEF0" stroke="#B3B3B3" stroke-width="0.25" stroke-miterlimit="1" x1="328.031" y1="13.179" x2="328.031" y2="224.858"/>
		
			<line fill="#CCDEF0" stroke="#B3B3B3" stroke-width="0.25" stroke-miterlimit="1" x1="316.302" y1="13.179" x2="316.302" y2="224.858"/>
		
			<line fill="#CCDEF0" stroke="#B3B3B3" stroke-width="0.25" stroke-miterlimit="1" x1="304.52" y1="13.179" x2="304.52" y2="224.858"/>
		
			<line fill="#CCDEF0" stroke="#B3B3B3" stroke-width="0.25" stroke-miterlimit="1" x1="292.791" y1="13.179" x2="292.791" y2="224.858"/>
		
			<line fill="#CCDEF0" stroke="#B3B3B3" stroke-width="0.25" stroke-miterlimit="1" x1="281.01" y1="13.179" x2="281.01" y2="224.858"/>
		
			<line fill="#CCDEF0" stroke="#B3B3B3" stroke-width="0.25" stroke-miterlimit="1" x1="269.28" y1="13.179" x2="269.28" y2="224.858"/>
		
			<rect x="19.5" y="13.179" fill="#CCDEF0" stroke="#B3B3B3" stroke-width="0.25" stroke-miterlimit="1" width="211.646" height="211.68"/>
		
			<line fill="#CCDEF0" stroke="#B3B3B3" stroke-width="0.25" stroke-miterlimit="1" x1="19.5" y1="213.074" x2="231.146" y2="213.074"/>
		
			<line fill="#CCDEF0" stroke="#B3B3B3" stroke-width="0.25" stroke-miterlimit="1" x1="19.5" y1="201.343" x2="231.146" y2="201.343"/>
		
			<line fill="#CCDEF0" stroke="#B3B3B3" stroke-width="0.25" stroke-miterlimit="1" x1="19.5" y1="189.562" x2="231.146" y2="189.562"/>
		
			<line fill="#CCDEF0" stroke="#B3B3B3" stroke-width="0.25" stroke-miterlimit="1" x1="19.5" y1="177.83" x2="231.146" y2="177.83"/>
		
			<line fill="#CCDEF0" stroke="#B3B3B3" stroke-width="0.25" stroke-miterlimit="1" x1="19.5" y1="166.046" x2="231.146" y2="166.046"/>
		
			<line fill="#CCDEF0" stroke="#B3B3B3" stroke-width="0.25" stroke-miterlimit="1" x1="19.5" y1="154.314" x2="231.146" y2="154.314"/>
		
			<line fill="#CCDEF0" stroke="#B3B3B3" stroke-width="0.25" stroke-miterlimit="1" x1="19.5" y1="142.533" x2="231.146" y2="142.533"/>
		
			<line fill="#CCDEF0" stroke="#B3B3B3" stroke-width="0.25" stroke-miterlimit="1" x1="19.5" y1="130.802" x2="231.146" y2="130.802"/>
		
			<line fill="#CCDEF0" stroke="#B3B3B3" stroke-width="0.25" stroke-miterlimit="1" x1="19.5" y1="119.018" x2="231.146" y2="119.018"/>
		
			<line fill="#CCDEF0" stroke="#B3B3B3" stroke-width="0.25" stroke-miterlimit="1" x1="19.5" y1="107.235" x2="231.146" y2="107.235"/>
		
			<line fill="#CCDEF0" stroke="#B3B3B3" stroke-width="0.25" stroke-miterlimit="1" x1="19.5" y1="95.505" x2="231.146" y2="95.505"/>
		
			<line fill="#CCDEF0" stroke="#B3B3B3" stroke-width="0.25" stroke-miterlimit="1" x1="19.5" y1="83.722" x2="231.146" y2="83.722"/>
		<line fill="#CCDEF0" stroke="#B3B3B3" stroke-width="0.25" stroke-miterlimit="1" x1="19.5" y1="71.99" x2="231.146" y2="71.99"/>
		
			<line fill="#CCDEF0" stroke="#B3B3B3" stroke-width="0.25" stroke-miterlimit="1" x1="19.5" y1="60.207" x2="231.146" y2="60.207"/>
		
			<line fill="#CCDEF0" stroke="#B3B3B3" stroke-width="0.25" stroke-miterlimit="1" x1="19.5" y1="48.476" x2="231.146" y2="48.476"/>
		
			<line fill="#CCDEF0" stroke="#B3B3B3" stroke-width="0.25" stroke-miterlimit="1" x1="19.5" y1="36.692" x2="231.146" y2="36.692"/>
		
			<line fill="#CCDEF0" stroke="#B3B3B3" stroke-width="0.25" stroke-miterlimit="1" x1="19.5" y1="24.962" x2="231.146" y2="24.962"/>
		
			<line fill="#CCDEF0" stroke="#B3B3B3" stroke-width="0.25" stroke-miterlimit="1" x1="219.365" y1="13.179" x2="219.365" y2="224.858"/>
		
			<line fill="#CCDEF0" stroke="#B3B3B3" stroke-width="0.25" stroke-miterlimit="1" x1="207.635" y1="13.179" x2="207.635" y2="224.858"/>
		
			<line fill="#CCDEF0" stroke="#B3B3B3" stroke-width="0.25" stroke-miterlimit="1" x1="195.854" y1="13.179" x2="195.854" y2="224.858"/>
		
			<line fill="#CCDEF0" stroke="#B3B3B3" stroke-width="0.25" stroke-miterlimit="1" x1="184.125" y1="13.179" x2="184.125" y2="224.858"/>
		
			<line fill="#CCDEF0" stroke="#B3B3B3" stroke-width="0.25" stroke-miterlimit="1" x1="172.344" y1="13.179" x2="172.344" y2="224.858"/>
		
			<line fill="#CCDEF0" stroke="#B3B3B3" stroke-width="0.25" stroke-miterlimit="1" x1="160.614" y1="13.179" x2="160.614" y2="224.858"/>
		
			<line fill="#CCDEF0" stroke="#B3B3B3" stroke-width="0.25" stroke-miterlimit="1" x1="148.833" y1="13.179" x2="148.833" y2="224.858"/>
		
			<line fill="#CCDEF0" stroke="#B3B3B3" stroke-width="0.25" stroke-miterlimit="1" x1="137.104" y1="13.179" x2="137.104" y2="224.858"/>
		
			<line fill="#CCDEF0" stroke="#B3B3B3" stroke-width="0.25" stroke-miterlimit="1" x1="125.322" y1="13.179" x2="125.322" y2="224.858"/>
		
			<line fill="#CCDEF0" stroke="#B3B3B3" stroke-width="0.25" stroke-miterlimit="1" x1="113.541" y1="13.179" x2="113.541" y2="224.858"/>
		
			<line fill="#CCDEF0" stroke="#B3B3B3" stroke-width="0.25" stroke-miterlimit="1" x1="101.812" y1="13.179" x2="101.812" y2="224.858"/>
		
			<line fill="#CCDEF0" stroke="#B3B3B3" stroke-width="0.25" stroke-miterlimit="1" x1="90.031" y1="13.179" x2="90.031" y2="224.858"/>
		
			<line fill="#CCDEF0" stroke="#B3B3B3" stroke-width="0.25" stroke-miterlimit="1" x1="78.302" y1="13.179" x2="78.302" y2="224.858"/>
		
			<line fill="#CCDEF0" stroke="#B3B3B3" stroke-width="0.25" stroke-miterlimit="1" x1="66.521" y1="13.179" x2="66.521" y2="224.858"/>
		
			<line fill="#CCDEF0" stroke="#B3B3B3" stroke-width="0.25" stroke-miterlimit="1" x1="54.791" y1="13.179" x2="54.791" y2="224.858"/>
		
			<line fill="#CCDEF0" stroke="#B3B3B3" stroke-width="0.25" stroke-miterlimit="1" x1="43.01" y1="13.179" x2="43.01" y2="224.858"/>
		
			<line fill="#CCDEF0" stroke="#B3B3B3" stroke-width="0.25" stroke-miterlimit="1" x1="31.28" y1="13.179" x2="31.28" y2="224.858"/>
		<g>
			<text transform="matrix(1 0 0 1 42.937 77.3101)"><tspan x="0" y="0" font-size="6">A1 (0,0,0)</tspan><tspan x="0" y="5.053" font-size="6">Fa: 0.2</tspan><tspan x="0" y="10.106" font-size="6">ADC: 0.6</tspan></text>
		</g>
		<g>
			<text transform="matrix(1 0 0 1 120.585 79.2944)"><tspan x="0" y="0" font-size="6">A3 (3.5,-0.1,0)</tspan><tspan x="0" y="5.053" font-size="6">Fa: 0.5</tspan><tspan x="0" y="10.106" font-size="6">ADC: 0.7</tspan></text>
		</g>
		<g>
			<text transform="matrix(1 0 0 1 73.6045 72.6235)"><tspan x="0" y="0" font-size="6">A2 (1.5,0.2,0)</tspan><tspan x="0" y="5.053" font-size="6">Fa: 0.4</tspan></text>
		</g>
		<g>
			<g>
				<line fill="none" stroke="#BCBEC0" stroke-miterlimit="1" x1="191.185" y1="107.27" x2="191.279" y2="106.274"/>
				
					<line fill="none" stroke="#BCBEC0" stroke-miterlimit="1" stroke-dasharray="2.0697,2.0697" x1="191.476" y1="104.213" x2="195.695" y2="59.915"/>
				<line fill="none" stroke="#BCBEC0" stroke-miterlimit="1" x1="195.793" y1="58.884" x2="195.888" y2="57.889"/>
			</g>
		</g>
		
			<line fill="none" stroke="#BCBEC0" stroke-miterlimit="1" stroke-dasharray="2,2" x1="191.185" y1="107.27" x2="200.591" y2="166.057"/>
		<line fill="none" stroke="#003468" stroke-width="2" stroke-miterlimit="1" x1="184.13" y1="48.482" x2="137.08" y2="62.591"/>
		<line fill="none" stroke="#003468" stroke-width="2" stroke-miterlimit="1" x1="137.08" y1="62.591" x2="90.064" y2="55.537"/>
		<line fill="none" stroke="#003468" stroke-width="2" stroke-miterlimit="1" x1="90.064" y1="55.537" x2="54.798" y2="60.239"/>
		<line fill="none" stroke="#003468" stroke-width="2" stroke-miterlimit="1" x1="54.356" y1="154.276" x2="101.827" y2="149.597"/>
		<line fill="none" stroke="#003468" stroke-width="2" stroke-miterlimit="1" x1="101.827" y1="149.597" x2="148.835" y2="154.3"/>
		<circle fill="#0DB14B" stroke="#000000" stroke-miterlimit="1" cx="54.798" cy="154.3" r="5.879"/>
		<circle fill="#0DB14B" stroke="#000000" stroke-miterlimit="1" cx="148.834" cy="154.3" r="5.878"/>
		<circle fill="#0DB14B" stroke="#000000" stroke-miterlimit="1" cx="101.828" cy="149.597" r="5.878"/>
		<circle fill="#00AEEF" stroke="#000000" stroke-miterlimit="1" cx="184.13" cy="48.482" r="5.878"/>
		<circle fill="#CCDEF0" stroke="#CCCCCC" stroke-miterlimit="1" cx="195.888" cy="57.889" r="5.879"/>
		<circle fill="#CCDEF0" stroke="#CCCCCC" stroke-miterlimit="1" cx="191.185" cy="107.27" r="5.879"/>
		<circle fill="#CCDEF0" stroke="#CCCCCC" stroke-miterlimit="1" cx="200.59" cy="166.057" r="5.878"/>
		<circle fill="#0DB14B" stroke="#000000" stroke-miterlimit="1" cx="137.08" cy="62.591" r="5.879"/>
		<circle fill="#ED1C24" stroke="#000000" stroke-miterlimit="1" cx="90.064" cy="55.537" r="5.879"/>
		<g>
			<text transform="matrix(1 0 0 1 168.5952 65.3853)"><tspan x="0" y="0" font-size="6">A4 (5.5,0.5,0)</tspan><tspan x="0" y="5.053" font-size="6">Fa: 0.8</tspan></text>
		</g>
		<g>
			<text transform="matrix(1 0 0 1 86.9785 165.959)"><tspan x="0" y="0" font-size="6">B2 (2,-3.8,0)</tspan><tspan x="0" y="5.053" font-size="6">Fa: 0.8</tspan><tspan x="0" y="10.105" font-size="6">ADC: 0.5</tspan></text>
		</g>
		<g>
			<text transform="matrix(1 0 0 1 42.937 170.3105)"><tspan x="0" y="0" font-size="6">B1 (0,-4,0)</tspan><tspan x="0" y="5.053" font-size="6">Fa: 0.3</tspan></text>
		</g>
		<g>
			<text transform="matrix(1 0 0 1 132.7842 171.1543)"><tspan x="0" y="0" font-size="6">B3 (4,-4,0)</tspan><tspan x="0" y="5.053" font-size="6">Fa: 0.9</tspan></text>
		</g>
		<g>
			<text transform="matrix(1 0 0 1 443.5801 59.521)" font-size="6">C1 (6,0.1,0)</text>
		</g>
		<g>
			<text transform="matrix(1 0 0 1 438.5156 108.2026)" font-size="6">C2 (5.8,-0.2,0)</text>
		</g>
		<g>
			<text transform="matrix(1 0 0 1 448.3145 166.793)" font-size="6">C3 (6.2,-4.5,0)</text>
		</g>
		<line fill="none" stroke="#003468" stroke-width="2" stroke-miterlimit="1" x1="429.184" y1="107.27" x2="433.887" y2="57.889"/>
		<line fill="none" stroke="#003468" stroke-width="2" stroke-miterlimit="1" x1="429.184" y1="107.27" x2="438.59" y2="166.057"/>
		
			<line fill="none" stroke="#BCBEC0" stroke-miterlimit="1" stroke-dasharray="2,2" x1="422.129" y1="48.482" x2="375.08" y2="62.591"/>
		
			<line fill="none" stroke="#BCBEC0" stroke-miterlimit="1" stroke-dasharray="2,2" x1="375.08" y1="62.591" x2="328.064" y2="55.537"/>
		
			<line fill="none" stroke="#BCBEC0" stroke-miterlimit="1" stroke-dasharray="2,2" x1="328.064" y1="55.537" x2="292.797" y2="60.239"/>
		
			<line fill="none" stroke="#BCBEC0" stroke-miterlimit="1" stroke-dasharray="2,2" x1="292.356" y1="154.276" x2="339.827" y2="149.597"/>
		
			<line fill="none" stroke="#BCBEC0" stroke-miterlimit="1" stroke-dasharray="2,2" x1="339.827" y1="149.597" x2="386.834" y2="154.3"/>
		<circle fill="#CCDEF0" stroke="#CCCCCC" stroke-miterlimit="1" cx="292.797" cy="60.239" r="5.879"/>
		<circle fill="#CCDEF0" stroke="#CCCCCC" stroke-miterlimit="1" cx="292.797" cy="154.3" r="5.879"/>
		<circle fill="#CCDEF0" stroke="#CCCCCC" stroke-miterlimit="1" cx="386.834" cy="154.3" r="5.879"/>
		<circle fill="#CCDEF0" stroke="#CCCCCC" stroke-miterlimit="1" cx="339.828" cy="149.597" r="5.878"/>
		<circle fill="#CCDEF0" stroke="#CCCCCC" stroke-miterlimit="1" cx="422.13" cy="48.482" r="5.878"/>
		<circle fill="#ED1C24" stroke="#000000" stroke-miterlimit="1" cx="433.887" cy="57.889" r="5.879"/>
		<circle fill="#ED1C24" stroke="#000000" stroke-miterlimit="1" cx="429.184" cy="107.27" r="5.879"/>
		<circle fill="#ED1C24" stroke="#000000" stroke-miterlimit="1" cx="438.59" cy="166.057" r="5.879"/>
		<circle fill="#CCDEF0" stroke="#CCCCCC" stroke-miterlimit="1" cx="375.08" cy="62.591" r="5.879"/>
		<circle fill="#CCDEF0" stroke="#CCCCCC" stroke-miterlimit="1" cx="328.064" cy="55.537" r="5.879"/>
		<line fill="none" stroke="#000000" stroke-miterlimit="1" x1="54.798" y1="48.476" x2="54.798" y2="71.99"/>
		<line fill="none" stroke="#000000" stroke-miterlimit="1" x1="43.01" y1="60.24" x2="66.521" y2="60.24"/>
		<line fill="none" stroke="#000000" stroke-miterlimit="1" x1="292.83" y1="48.476" x2="292.83" y2="71.99"/>
		<line fill="none" stroke="#000000" stroke-miterlimit="1" x1="281.042" y1="60.24" x2="304.553" y2="60.24"/>
		<circle fill="#FFF200" stroke="#000000" stroke-miterlimit="1" cx="54.798" cy="60.239" r="5.879"/>
		<g>
			<text transform="matrix(1 0 0 1 87.9751 243.1152)" font-size="12">Track Set Left</text>
		</g>
		<g>
			<text transform="matrix(1 0 0 1 321.9756 243.1152)" font-size="12">Track Set Right</text>
		</g>
	</g>
</g>
</svg>
