<?xml version="1.0" encoding="utf-8"?>

<!DOCTYPE svg PUBLIC "-//W3C//DTD SVG 1.1//EN" "http://www.w3.org/Graphics/SVG/1.1/DTD/svg11.dtd">
<svg version="1.1" id="Layer_1" xmlns="http://www.w3.org/2000/svg" xmlns:xlink="http://www.w3.org/1999/xlink" x="0px" y="0px"
	 width="502px" height="282px" viewBox="0 0 502 282" enable-background="new 0 0 502 282" xml:space="preserve">

<defs>
	<style type="text/css">
	text {
	  font-family: Helvetica, Verdana, ArialUnicodeMS, san-serif
	}
	</style>
</defs>

<g>
   <desc>
	PS 3.17 : Explanatory Information
   </desc>
</g>

<g>
	<rect x="1" y="1" fill="#F5EED6" width="500" height="280"/>
	<g>
		<g>
			<g>
				<path fill="none" stroke="#005695" d="M222.14,227.825c-37.357-16.085-63.512-53.229-63.512-96.485
					c0-44.011,27.077-81.697,65.48-97.31"/>
				<g>
					<polygon fill="#005695" points="221.736,225.696 227.074,229.802 220.398,228.916 					"/>
				</g>
			</g>
		</g>
		<g>
			<g>
				<path fill="none" stroke="#005695" d="M308.899,36.573c35.329,16.906,59.729,52.986,59.729,94.767
					c0,45.139-28.48,83.623-68.452,98.464"/>
				<g>
					<polygon fill="#005695" points="309.224,38.709 304.048,34.401 310.685,35.543 					"/>
				</g>
			</g>
		</g>
		<rect x="113.45" y="113.951" fill="#F5EED6" width="92.333" height="36"/>
		<rect x="345.217" y="123.351" fill="#F5EED6" width="45" height="16"/>
		<text transform="matrix(1 0 0 1 347.1289 134.2124)" font-size="9">defined by</text>
		<text transform="matrix(1 0 0 1 135.0356 124.3398)"><tspan x="0" y="0" font-size="9">sonographer</tspan><tspan x="-23.253" y="10.8" font-size="9">follows recommendation</tspan><tspan x="2.757" y="21.6" font-size="9">to measure</tspan></text>
		<g>
			<g>
				<path fill="#FFFFFF" stroke="#4F8ABE" stroke-width="3" d="M299.159,229.59c0,19.333-15.668,35-35,35s-35-15.667-35-35
					c0-19.332,15.668-35,35-35S299.159,210.258,299.159,229.59z"/>
				<rect x="236.659" y="208.84" fill="none" width="55" height="41.5"/>
				<text transform="matrix(1 0 0 1 241.6553 215.2822)"><tspan x="0" y="0" font-size="9">Real-World </tspan><tspan x="0.742" y="10.8" font-size="9">Quantity of </tspan><tspan x="8" y="21.6" font-size="9">Clinical </tspan><tspan x="7.496" y="32.4" font-size="9">Interest</tspan></text>
			</g>
		</g>
		<g>
			<g>
				<path fill="#B2CEE7" d="M224.159,19.213c0-0.992,0.812-1.803,1.803-1.803h76.394c0.991,0,1.803,0.812,1.803,1.803v24.394
					c0,0.992-0.812,1.803-1.803,1.803h-76.394c-0.992,0-1.803-0.812-1.803-1.803V19.213z"/>
				
					<path fill="none" stroke="#010101" stroke-width="0.3756" stroke-linecap="round" stroke-linejoin="round" stroke-miterlimit="10" d="
					M224.159,19.213c0-0.992,0.812-1.803,1.803-1.803h76.394c0.991,0,1.803,0.812,1.803,1.803v24.394
					c0,0.992-0.812,1.803-1.803,1.803h-76.394c-0.992,0-1.803-0.812-1.803-1.803V19.213z"/>
			</g>
			<text transform="matrix(1 0 0 1 255.1553 28.5161)"><tspan x="0" y="0" font-size="9">ASE</tspan><tspan x="-26.264" y="10.8" font-size="9">Recommendation</tspan></text>
		</g>
	</g>
</g>
</svg>
