<?xml version="1.0" encoding="utf-8"?>

<!DOCTYPE svg PUBLIC "-//W3C//DTD SVG 1.1//EN" "http://www.w3.org/Graphics/SVG/1.1/DTD/svg11.dtd">
<svg version="1.1" id="Layer_1" xmlns="http://www.w3.org/2000/svg" xmlns:xlink="http://www.w3.org/1999/xlink" x="0px" y="0px"
	 width="552px" height="232px" viewBox="0 0 552 232" enable-background="new 0 0 552 232" xml:space="preserve">

<defs>
	<style type="text/css">
	text {
	  font-family: Helvetica, Verdana, ArialUnicodeMS, san-serif
	}
	</style>
</defs>

<g>
   <desc>
	PS 3.17 Part 17: Explanatory Information
   </desc>
</g>

<g>
	<rect x="1" y="1" fill="#F5EED6" width="550" height="230"/>
	<g>
		<polygon fill="#FFFFFF" stroke="#005695" stroke-linejoin="round" points="313.132,122.145 313.132,109.395 332.085,109.395 
			332.085,106.034 342.772,116.034 332.085,126.033 332.085,122.145 		"/>
		<polygon fill="#FFFFFF" stroke="#005695" stroke-linejoin="round" points="404.189,122.145 404.189,109.395 442.23,109.395 
			442.23,106.034 452.918,116.034 442.23,126.033 442.23,122.145 		"/>
		<g>
			<text transform="matrix(1 0 0 1 315.3105 117.7012)" font-size="6">RGB</text>
		</g>
		
			<rect x="344.196" y="86.034" fill="#B2CEE7" stroke="#010101" stroke-width="0.75" stroke-linecap="round" stroke-linejoin="round" stroke-miterlimit="1" width="60" height="60"/>
		<g>
			<text transform="matrix(1 0 0 1 352.1582 55.8779)" font-size="6">ICC Input Profile</text>
		</g>
		<g>
			<g>
				<line fill="none" stroke="#005695" stroke-miterlimit="1" x1="374.2" y1="59.461" x2="374.2" y2="78.454"/>
				<g>
					<polygon fill="#005695" points="371.876,76.869 374.2,85.542 376.524,76.869 					"/>
				</g>
			</g>
		</g>
		<rect x="357.203" y="101.125" fill="none" width="34" height="29.821"/>
		<text transform="matrix(1 0 0 1 365.6641 105.4097)"><tspan x="0" y="0" font-size="6">Profile </tspan><tspan x="-6.674" y="7.2" font-size="6">Connection </tspan><tspan x="-0.004" y="14.4" font-size="6">Space </tspan><tspan x="-5.166" y="21.6" font-size="6">Transform</tspan></text>
		<g>
			<text transform="matrix(1 0 0 1 406.6855 117.7012)" font-size="6">PCS-Values</text>
		</g>
		<polyline fill="#FFFFFF" stroke="#005695" stroke-linejoin="round" points="211.415,192.254 289.653,192.254 289.653,157.346 
			293.548,157.346 283.54,146.658 273.535,157.346 276.898,157.346 276.898,179.504 211.415,179.504 		"/>
		<polyline fill="#FFFFFF" stroke="#005695" stroke-linejoin="round" points="211.169,39.701 289.653,39.701 289.653,74.242 
			293.548,74.242 283.54,84.929 273.535,74.242 276.898,74.242 276.898,52.452 211.169,52.452 		"/>
		<path fill="#FFFFFF" stroke="#005695" stroke-linejoin="round" d="M177.423,104.909"/>
		<polyline fill="#FFFFFF" stroke="#005695" stroke-linejoin="round" points="99.083,42.161 139.279,42.161 139.279,36.352 
			149.965,46.352 139.279,56.352 139.279,50.016 99.083,50.016 		"/>
		<path fill="#FFFFFF" stroke="#005695" stroke-linejoin="round" d="M177.423,122.195"/>
		<polyline fill="#FFFFFF" stroke="#005695" stroke-linejoin="round" points="99.083,189.838 139.279,189.838 139.279,195.646 
			149.965,185.648 139.279,175.646 139.279,181.982 99.083,181.982 		"/>
		<g>
			<text transform="matrix(1 0 0 1 102.958 48.0229)" font-size="6">Scalar value</text>
		</g>
		<g>
			<text transform="matrix(1 0 0 1 213.644 49.2471)" font-size="6">RGB-1</text>
		</g>
		
			<rect x="151.087" y="16.353" fill="#B2CEE7" stroke="#010101" stroke-width="0.75" stroke-linecap="round" stroke-linejoin="round" stroke-miterlimit="1" width="60" height="60"/>
		<g>
			<text transform="matrix(1 0 0 1 167.8696 40.9326)"><tspan x="0" y="0" font-size="6">One Input</tspan><tspan x="9.469" y="7.891" font-size="8">➜</tspan><tspan x="4.674" y="14.181" font-size="6">RBGA</tspan></text>
		</g>
		<g>
			<text transform="matrix(1 0 0 1 101.7339 187.3184)" font-size="6">Scalar value</text>
		</g>
		<g>
			<text transform="matrix(1 0 0 1 213.644 188.751)" font-size="6">RGB-2</text>
		</g>
		<polygon fill="#FFFFFF" stroke="#005695" stroke-linejoin="round" points="177.423,76.401 177.423,107.391 241.399,107.391 
			241.399,113.727 252.087,103.725 241.399,93.727 241.399,99.536 185.278,99.536 185.278,76.401 		"/>
		<polygon fill="#FFFFFF" stroke="#005695" stroke-linejoin="round" points="177.423,155.666 177.423,124.678 241.399,124.678 
			241.399,118.342 252.087,128.344 241.399,138.342 241.399,132.533 185.278,132.533 185.278,155.666 		"/>
		<g>
			<text transform="matrix(1 0 0 1 213.6499 105.7676)" font-size="6">Alpha-1</text>
		</g>
		<g>
			<text transform="matrix(1 0 0 1 213.6499 130.5859)" font-size="6">Alpha-2</text>
		</g>
		
			<rect x="151.087" y="155.646" fill="#B2CEE7" stroke="#010101" stroke-width="0.75" stroke-linecap="round" stroke-linejoin="round" stroke-miterlimit="1" width="60" height="60"/>
		<g>
			<text transform="matrix(1 0 0 1 167.9097 180.2266)"><tspan x="0" y="0" font-size="6">One Input</tspan><tspan x="9.469" y="7.891" font-size="8">➜</tspan><tspan x="4.674" y="14.182" font-size="6">RBGA</tspan></text>
		</g>
		
			<rect x="253.287" y="86.035" fill="#B2CEE7" stroke="#010101" stroke-width="0.75" stroke-linecap="round" stroke-linejoin="round" stroke-miterlimit="1" width="60" height="60"/>
		<rect x="252.953" y="112.357" fill="none" width="60.668" height="7.354"/>
		<text transform="matrix(1 0 0 1 260.6138 116.6523)" font-size="6">RGB Compositor</text>
	</g>
</g>
</svg>
