<?xml version="1.0" encoding="utf-8"?>

<!DOCTYPE svg PUBLIC "-//W3C//DTD SVG 1.1//EN" "http://www.w3.org/Graphics/SVG/1.1/DTD/svg11.dtd">
<svg version="1.1" id="Layer_1" xmlns="http://www.w3.org/2000/svg" xmlns:xlink="http://www.w3.org/1999/xlink" x="0px" y="0px"
	 width="552px" height="52px" viewBox="0 0 552 52" enable-background="new 0 0 552 52" xml:space="preserve">

<defs>
	<style type="text/css">
	text {
	  font-family: Helvetica, Verdana, ArialUnicodeMS, san-serif
	}
	</style>
</defs>

<g>
   <desc>
	PS 3.17 Part 17: Explanatory Information
   </desc>
</g>

<g>
	<rect x="1" y="1" fill="#F5EED6" width="550" height="50"/>
	<g>
		<polyline fill="#FFFFFF" stroke="#005695" stroke-linejoin="round" points="302.768,21.808 342.963,21.808 342.963,16 
			353.65,25.999 342.963,36 342.963,29.664 302.768,29.664 		"/>
		<g>
			<text transform="matrix(1 0 0 1 305.4189 27.6709)" font-size="6">P-Values</text>
		</g>
		<polyline fill="#FFFFFF" stroke="#005695" stroke-linejoin="round" points="198.349,21.809 238.545,21.809 238.545,16 
			249.233,25.999 238.545,36 238.545,29.664 198.349,29.664 		"/>
		<g>
			<text transform="matrix(1 0 0 1 201.001 27.6709)" font-size="6">Scalar value</text>
		</g>
		
			<rect x="250.767" y="17" fill="#CCDEF0" stroke="#010101" stroke-width="0.75" stroke-linecap="round" stroke-linejoin="round" stroke-miterlimit="1" width="52" height="18"/>
		<g>
			<text transform="matrix(1 0 0 1 253.4199 24.9258)"><tspan x="0" y="0" font-size="6">Presentation LUT</tspan><tspan x="14.67" y="5.491" font-size="6">Shape</tspan></text>
		</g>
	</g>
</g>
</svg>
