<?xml version="1.0" encoding="utf-8"?>

<!DOCTYPE svg PUBLIC "-//W3C//DTD SVG 1.1//EN" "http://www.w3.org/Graphics/SVG/1.1/DTD/svg11.dtd">
<svg version="1.1" id="Layer_1" xmlns="http://www.w3.org/2000/svg" xmlns:xlink="http://www.w3.org/1999/xlink" x="0px" y="0px"
	 width="632px" height="192px" viewBox="0 0 632 192" enable-background="new 0 0 632 192" xml:space="preserve">

<defs>
	<style type="text/css">
	text {
	  font-family: Helvetica, Verdana, ArialUnicodeMS, san-serif
	}
	</style>
</defs>

<g>
   <desc>
	PS 3.17 Explanatory Information
   </desc>
</g>

<g>
	<rect x="1" y="1" fill="#F5EED6" width="630" height="190"/>
	<g>
		<g>
			<g>
				<polyline fill="none" stroke="#005695" stroke-width="2" stroke-miterlimit="1" points="506.85,156.907 390.251,156.907 
					390.251,113.914 375.993,113.914 				"/>
				<g>
					<polygon fill="#005695" points="504.868,154.002 515.709,156.907 504.868,159.812 					"/>
				</g>
			</g>
		</g>
		
			<rect x="240.886" y="61" fill="#86B2D8" stroke="#010101" stroke-width="0.9028" stroke-linecap="round" stroke-linejoin="round" stroke-miterlimit="1" width="136.001" height="70"/>
		<text transform="matrix(1 0 0 1 267.3091 92.4629)"><tspan x="0" y="0" fill="#010101" font-size="11">Contrast Infusion</tspan><tspan x="19.871" y="13.2" fill="#010101" font-size="11">Manager</tspan></text>
		
			<rect x="517.584" y="14.947" fill="#C3E2C1" stroke="#010101" stroke-width="0.9028" stroke-linecap="round" stroke-linejoin="round" stroke-miterlimit="1" width="100" height="40"/>
		<text transform="matrix(1 0 0 1 547.1104 38.0093)" fill="#010101" font-size="11">Modality</text>
		
			<rect x="517.584" y="75.014" fill="#B1DAAE" stroke="#010101" stroke-width="0.9028" stroke-linecap="round" stroke-linejoin="round" stroke-miterlimit="1" width="100" height="40"/>
		<text transform="matrix(1 0 0 1 552.6133 98.0762)" fill="#010101" font-size="11">PACS</text>
		
			<rect x="517.584" y="137.053" fill="#9DD29C" stroke="#010101" stroke-width="0.9028" stroke-linecap="round" stroke-linejoin="round" stroke-miterlimit="1" width="100" height="40"/>
		<text transform="matrix(1 0 0 1 523.8779 160.1152)" fill="#010101" font-size="11">Reporting System</text>
		<g>
			<g>
				<polyline fill="none" stroke="#005695" stroke-width="2" stroke-miterlimit="1" points="506.85,35.204 390.251,35.204 
					390.251,78.501 375.993,78.501 				"/>
				<g>
					<polygon fill="#005695" points="504.868,32.299 515.709,35.204 504.868,38.109 					"/>
				</g>
			</g>
		</g>
		<g>
			<g>
				
					<line fill="none" stroke="#005695" stroke-width="2" stroke-miterlimit="1" x1="375.993" y1="96.297" x2="508.725" y2="96.297"/>
				<g>
					<polygon fill="#005695" points="506.743,99.202 517.584,96.297 506.743,93.392 					"/>
				</g>
			</g>
		</g>
		<g>
			
				<rect x="403.652" y="20.884" fill="#CCDEF0" stroke="#010101" stroke-width="0.9028" stroke-linecap="round" stroke-linejoin="round" stroke-miterlimit="1" width="90" height="28"/>
			<text transform="matrix(1 0 0 1 419.8135 32.4766)"><tspan x="0" y="0" fill="#010101" font-size="9">Imaging Agent</tspan><tspan x="-6.994" y="10.8" fill="#010101" font-size="9">Administration SR</tspan></text>
		</g>
		<g>
			
				<rect x="403.652" y="82" fill="#CCDEF0" stroke="#010101" stroke-width="0.9028" stroke-linecap="round" stroke-linejoin="round" stroke-miterlimit="1" width="90" height="28"/>
			<text transform="matrix(1 0 0 1 419.8135 93.5928)"><tspan x="0" y="0" fill="#010101" font-size="9">Imaging Agent</tspan><tspan x="-6.994" y="10.8" fill="#010101" font-size="9">Administration SR</tspan></text>
		</g>
		
			<rect x="14.414" y="75.014" fill="#76C37A" stroke="#010101" stroke-width="0.9028" stroke-linecap="round" stroke-linejoin="round" stroke-miterlimit="1" width="100" height="40"/>
		<text transform="matrix(1 0 0 1 55.2397 98.0762)" fill="#010101" font-size="11">RIS</text>
		<g>
			<g>
				
					<line fill="none" stroke="#005695" stroke-width="2" stroke-miterlimit="1" x1="240.886" y1="96.297" x2="123.272" y2="96.297"/>
				<g>
					<polygon fill="#005695" points="125.254,93.392 114.413,96.297 125.254,99.202 					"/>
				</g>
			</g>
		</g>
		<g>
			
				<rect x="133.306" y="82" fill="#CCDEF0" stroke="#010101" stroke-width="0.9028" stroke-linecap="round" stroke-linejoin="round" stroke-miterlimit="1" width="90" height="28"/>
			<text transform="matrix(1 0 0 1 149.4722 93.5928)"><tspan x="0" y="0" fill="#010101" font-size="9">Imaging Agent</tspan><tspan x="-6.994" y="10.8" fill="#010101" font-size="9">Administration SR</tspan></text>
		</g>
		<g>
			
				<rect x="403.652" y="143.116" fill="#CCDEF0" stroke="#010101" stroke-width="0.9028" stroke-linecap="round" stroke-linejoin="round" stroke-miterlimit="1" width="90" height="28"/>
			<text transform="matrix(1 0 0 1 419.8135 154.709)"><tspan x="0" y="0" fill="#010101" font-size="9">Imaging Agent</tspan><tspan x="-6.994" y="10.8" fill="#010101" font-size="9">Administration SR</tspan></text>
		</g>
	</g>
</g>
</svg>
