<?xml version="1.0" encoding="utf-8"?>

<!DOCTYPE svg PUBLIC "-//W3C//DTD SVG 1.1//EN" "http://www.w3.org/Graphics/SVG/1.1/DTD/svg11.dtd">
<svg version="1.1" id="Layer_1" xmlns="http://www.w3.org/2000/svg" xmlns:xlink="http://www.w3.org/1999/xlink" x="0px" y="0px"
	 width="502px" height="287px" viewBox="0 0 502 287" enable-background="new 0 0 502 287" xml:space="preserve">

<defs>
	<style type="text/css">
	text {
	  font-family: Helvetica, Verdana, ArialUnicodeMS, san-serif
	}
	</style>
</defs>

<g>
   <desc>
	PS 3.17 : Explanatory Information
   </desc>
</g>

<g>
	<rect x="1" y="1" fill="#F5EED6" width="500" height="285"/>
	<g>
		<g>
			<g>
				<path fill="none" stroke="#005695" d="M277.826,33.312c-49.127,16.507-84.562,63.396-84.562,118.661
					c0,18.047,3.778,35.2,10.579,50.694"/>
				<g>
					<polygon fill="#005695" points="201.795,202.29 206.081,207.484 204.967,200.843 					"/>
				</g>
			</g>
		</g>
		<g>
			<g>
				<line fill="none" stroke="#005695" x1="317.265" y1="201.973" x2="317.265" y2="58.288"/>
				<g>
					<polygon fill="#005695" points="319.008,59.477 317.265,52.972 315.521,59.477 					"/>
				</g>
			</g>
		</g>
		<g>
			<rect x="277.087" y="132.583" fill="#F5EED6" width="81" height="14"/>
			<text transform="matrix(1 0 0 1 295.4248 141.2549)" font-size="9">defined by</text>
		</g>
		<g>
			<rect x="143.913" y="130.494" fill="#F5EED6" width="100.333" height="17"/>
			<text transform="matrix(1 0 0 1 148.4902 141.2686)" font-size="9">sonographer measures</text>
		</g>
		<g>
			<circle fill="#FFFFFF" stroke="#4F8ABE" stroke-width="3" cx="317.955" cy="236.633" r="35"/>
			<rect x="290.455" y="220.883" fill="none" width="55" height="31.5"/>
			<text transform="matrix(1 0 0 1 300.4385 227.3242)"><tspan x="0" y="0" font-size="9">Intended</tspan><tspan x="-4.987" y="10.801" font-size="9">Real-World </tspan><tspan x="0.758" y="21.6" font-size="9">Quantity</tspan></text>
		</g>
		<g>
			<path fill="#FFFFFF" stroke="#4F8ABE" stroke-width="3" d="M262.996,236.693c0,19.334-15.668,35-35,35s-35-15.666-35-35
				c0-19.332,15.668-35,35-35S262.996,217.361,262.996,236.693z"/>
			<rect x="200.495" y="220.193" fill="none" width="55" height="33"/>
			<text transform="matrix(1 0 0 1 207.9849 226.6357)"><tspan x="0" y="0" font-size="9">Measured</tspan><tspan x="-2.494" y="10.8" font-size="9">Real-World </tspan><tspan x="3.252" y="21.6" font-size="9">Quantity</tspan></text>
		</g>
		<g>
			<g>
				<path fill="#B2CEE7" d="M277.354,17.109c0-0.992,0.812-1.803,1.803-1.803h76.397c0.991,0,1.803,0.812,1.803,1.803v31.06
					c0,0.992-0.812,1.803-1.803,1.803h-76.397c-0.991,0-1.803-0.812-1.803-1.803V17.109z"/>
				
					<path fill="none" stroke="#010101" stroke-width="0.3756" stroke-linecap="round" stroke-linejoin="round" stroke-miterlimit="10" d="
					M277.354,17.109c0-0.992,0.812-1.803,1.803-1.803h76.397c0.991,0,1.803,0.812,1.803,1.803v31.06
					c0,0.992-0.812,1.803-1.803,1.803h-76.397c-0.991,0-1.803-0.812-1.803-1.803V17.109z"/>
			</g>
			<rect x="283.831" y="17.639" fill="none" width="67.336" height="32"/>
			<text transform="matrix(1 0 0 1 290.2324 24.0815)"><tspan x="0" y="0" font-size="9">Non-standard </tspan><tspan x="-0.246" y="10.8" font-size="9">Measurement </tspan><tspan x="8.506" y="21.6" font-size="9">Definition</tspan></text>
		</g>
	</g>
</g>
</svg>
