<?xml version="1.0" encoding="utf-8"?>

<!DOCTYPE svg PUBLIC "-//W3C//DTD SVG 1.1//EN" "http://www.w3.org/Graphics/SVG/1.1/DTD/svg11.dtd">
<svg version="1.1" id="Layer_1" xmlns="http://www.w3.org/2000/svg" xmlns:xlink="http://www.w3.org/1999/xlink" x="0px" y="0px"
	 width="502px" height="377px" viewBox="0 0 502 377" enable-background="new 0 0 502 377" xml:space="preserve">

<defs>
	<style type="text/css">
	text {
	  font-family: Helvetica, Verdana, ArialUnicodeMS, san-serif
	}
	</style>
</defs>

<g>
   <desc>
	PS 3.17 Part 17: Explanatory Information
   </desc>
</g>

<g>
	<rect x="1" y="1" fill="#F5EED6" width="500" height="375"/>
	<g>
		<rect x="177.811" y="14.885" fill="#86B2D8" stroke="#010101" stroke-miterlimit="1" width="146" height="16"/>
		<rect x="243.287" y="62.209" fill="#CCDEF0" stroke="#010101" stroke-miterlimit="1" width="14.401" height="14.401"/>
		<rect x="257.787" y="62.209" fill="#CCDEF0" stroke="#010101" stroke-miterlimit="1" width="14.4" height="14.401"/>
		<rect x="272.287" y="62.209" fill="#CCDEF0" stroke="#010101" stroke-miterlimit="1" width="14.4" height="14.401"/>
		<rect x="286.787" y="62.209" fill="#CCDEF0" stroke="#010101" stroke-miterlimit="1" width="14.4" height="14.401"/>
		<rect x="301.287" y="62.209" fill="#CCDEF0" stroke="#010101" stroke-miterlimit="1" width="14.4" height="14.401"/>
		<rect x="185.287" y="62.209" fill="#CCDEF0" stroke="#010101" stroke-miterlimit="1" width="14.4" height="14.401"/>
		<rect x="199.787" y="62.209" fill="#CCDEF0" stroke="#010101" stroke-miterlimit="1" width="14.4" height="14.401"/>
		<rect x="214.287" y="62.209" fill="#CCDEF0" stroke="#010101" stroke-miterlimit="1" width="14.4" height="14.401"/>
		<rect x="228.787" y="62.209" fill="#CCDEF0" stroke="#010101" stroke-miterlimit="1" width="14.4" height="14.401"/>
		<g>
			<text transform="matrix(0.8815 0 0 1 181.4834 25.7993)" font-size="10">XA 2D Projection SOP Instance “C”</text>
		</g>
		<g>
			<text transform="matrix(0.8815 0 0 1 186.9937 89.0835)" font-size="8">1...</text>
		</g>
		<g>
			<text transform="matrix(0.8815 0 0 1 212.6738 49.3413)" font-size="9">Non-Contrast Frames</text>
		</g>
		<g>
			<text transform="matrix(0.8815 0 0 1 302.252 89.0835)" font-size="8">...N</text>
		</g>
		<g>
			<g>
				<line fill="none" stroke="#010101" stroke-miterlimit="1" x1="190.751" y1="52.016" x2="309.345" y2="52.016"/>
				<g>
					<polygon fill="#010101" points="191.94,53.759 185.436,52.016 191.94,50.272 					"/>
				</g>
				<g>
					<polygon fill="#010101" points="308.155,53.759 314.66,52.016 308.155,50.272 					"/>
				</g>
			</g>
		</g>
		<g>
			<path fill="none" stroke="#000000" d="M314.934,90.613c0,5.413-5.76,9.571-21.92,9.571c-4.32,0-8.799-0.264-13.119-0.594
				c-4.32-0.198-8.641-0.462-12.801-0.462c-5.121,0-16.125,0.66-16.125,5.347h-0.035c0-4.687-10.24-5.347-15.84-5.347
				c-4.48,0-8.96,0.264-13.44,0.528c-4.48,0.264-8.96,0.528-13.28,0.528c-14.72,0-20.96-4.026-20.96-9.637"/>
		</g>
		<rect x="82.706" y="184.678" fill="#86B2D8" stroke="#010101" stroke-miterlimit="1" width="146" height="16"/>
		<g>
			<g>
				<line fill="none" stroke="#010101" stroke-miterlimit="1" x1="160.076" y1="178.221" x2="226.362" y2="120.463"/>
				<g>
					<polygon fill="#010101" points="162.117,178.754 156.068,181.713 159.827,176.126 					"/>
				</g>
			</g>
		</g>
		<polygon fill="#CCDEF0" stroke="#000000" points="111.301,229.859 111.301,290.832 91.159,303.84 91.159,242.867 		"/>
		<polygon fill="#CCDEF0" stroke="#000000" points="125.5,229.859 125.5,290.832 105.357,303.838 105.357,242.867 		"/>
		<polygon fill="#CCDEF0" stroke="#000000" points="139.696,229.859 139.698,290.834 119.555,303.84 119.555,242.869 		"/>
		<polygon fill="#CCDEF0" stroke="#000000" points="153.895,229.859 153.895,290.832 133.752,303.84 133.752,242.867 		"/>
		<polygon fill="#CCDEF0" stroke="#000000" points="168.093,229.859 168.093,290.832 147.951,303.84 147.951,242.867 		"/>
		<polygon fill="#CCDEF0" stroke="#000000" points="182.292,229.859 182.292,290.832 162.149,303.84 162.149,242.867 		"/>
		<polygon fill="#CCDEF0" stroke="#000000" points="196.489,229.859 196.489,290.832 176.346,303.838 176.346,242.867 		"/>
		<polygon fill="#CCDEF0" stroke="#000000" points="210.687,229.859 210.687,290.834 190.544,303.84 190.544,242.869 		"/>
		<polygon fill="#CCDEF0" stroke="#000000" points="224.884,229.859 224.884,290.832 204.743,303.84 204.743,242.867 		"/>
		<g>
			<text transform="matrix(0.8815 0 0 1 98.8765 195.459)" font-size="10">X-Ray 3D SOP Instance “Z1”</text>
		</g>
		<g>
			<text transform="matrix(0.8815 0 0 1 128.4644 216.8887)" font-size="9">Full field of view</text>
		</g>
		<g>
			<text transform="matrix(0.8815 0 0 1 107.2974 344.3457)"><tspan x="0" y="0" font-size="10">Reconstruction Z1</tspan><tspan x="0" y="14.799" font-size="9">- From Acquisition Context #1</tspan></text>
		</g>
		<g>
			<text transform="matrix(0.8815 0 0 1 91.1592 313.1309)" font-size="8">1...</text>
		</g>
		<g>
			<text transform="matrix(0.8815 0 0 1 204.3516 313.1309)" font-size="8">...M</text>
		</g>
		<g>
			<g>
				<line fill="none" stroke="#010101" stroke-miterlimit="1" x1="96.729" y1="220.812" x2="215.324" y2="220.812"/>
				<g>
					<polygon fill="#010101" points="97.918,222.556 91.414,220.812 97.918,219.069 					"/>
				</g>
				<g>
					<polygon fill="#010101" points="214.135,222.556 220.639,220.812 214.135,219.069 					"/>
				</g>
			</g>
		</g>
		<g>
			<path fill="none" stroke="#000000" d="M219.829,317.83c0,5.414-5.76,9.572-21.92,9.572c-4.32,0-8.8-0.266-13.12-0.594
				c-4.319-0.199-8.64-0.463-12.8-0.463c-5.121,0-16.125,0.66-16.125,5.346h-0.035c0-4.686-10.24-5.346-15.84-5.346
				c-4.48,0-8.96,0.264-13.44,0.527s-8.96,0.529-13.28,0.529c-14.72,0-20.96-4.027-20.96-9.637"/>
		</g>
		<g>
			<path fill="#86B2D8" d="M219,157.928c0,3.3-2.7,6-6,6h-76.365c-3.3,0-6-2.7-6-6v-15c0-3.3,2.7-6,6-6H213c3.3,0,6,2.7,6,6V157.928
				z"/>
			<path fill="none" stroke="#000000" stroke-miterlimit="1" d="M219,157.928c0,3.3-2.7,6-6,6h-76.365c-3.3,0-6-2.7-6-6v-15
				c0-3.3,2.7-6,6-6H213c3.3,0,6,2.7,6,6V157.928z"/>
		</g>
		<g>
			<text transform="matrix(0.8815 0 0 1 139.0552 147.3472)"><tspan x="0" y="0" font-size="10">Reconstruction Z1</tspan><tspan x="5.004" y="12" font-size="10">Full field of view</tspan></text>
		</g>
		<rect x="273.295" y="184.678" fill="#86B2D8" stroke="#010101" stroke-miterlimit="1" width="146" height="16"/>
		<g>
			<g>
				<line fill="none" stroke="#010101" stroke-miterlimit="1" x1="342.648" y1="178.221" x2="276.361" y2="120.463"/>
				<g>
					<polygon fill="#010101" points="342.897,176.126 346.656,181.713 340.607,178.754 					"/>
				</g>
			</g>
		</g>
		<polygon fill="#B2CEE7" stroke="#000000" points="314.115,229.859 314.115,290.832 299.998,303.84 299.998,242.867 		"/>
		<polygon fill="#B2CEE7" stroke="#000000" points="324.066,229.859 324.066,290.832 309.949,303.838 309.949,242.867 		"/>
		<polygon fill="#B2CEE7" stroke="#000000" points="334.016,229.859 334.018,290.834 319.9,303.84 319.9,242.869 		"/>
		<polygon fill="#B2CEE7" stroke="#000000" points="343.969,229.859 343.969,290.832 329.852,303.84 329.852,242.867 		"/>
		<polygon fill="#B2CEE7" stroke="#000000" points="353.92,229.859 353.92,290.832 339.803,303.84 339.803,242.867 		"/>
		<polygon fill="#B2CEE7" stroke="#000000" points="363.871,229.859 363.871,290.832 349.754,303.84 349.754,242.867 		"/>
		<polygon fill="#B2CEE7" stroke="#000000" points="373.822,229.859 373.822,290.832 359.703,303.838 359.703,242.867 		"/>
		<polygon fill="#B2CEE7" stroke="#000000" points="383.773,229.859 383.773,290.834 369.656,303.84 369.656,242.869 		"/>
		<polygon fill="#B2CEE7" stroke="#000000" points="393.723,229.859 393.723,290.832 379.607,303.84 379.607,242.867 		"/>
		<g>
			<text transform="matrix(0.8815 0 0 1 289.4648 195.459)" font-size="10">X-Ray 3D SOP Instance “Z2”</text>
		</g>
		<g>
			<text transform="matrix(0.8815 0 0 1 317.2871 216.8887)" font-size="9">Object of interest</text>
		</g>
		<g>
			<text transform="matrix(0.8815 0 0 1 297.8867 344.3457)"><tspan x="0" y="0" font-size="10">Reconstruction Z2</tspan><tspan x="0" y="14.799" font-size="9">- From Acquisition Context #1</tspan></text>
		</g>
		<g>
			<text transform="matrix(0.8815 0 0 1 297.998 313.1309)" font-size="8">1...</text>
		</g>
		<g>
			<text transform="matrix(0.8815 0 0 1 373.0254 313.1309)" font-size="8">...P</text>
		</g>
		<g>
			<g>
				<line fill="none" stroke="#010101" stroke-miterlimit="1" x1="305.313" y1="220.812" x2="388.407" y2="220.812"/>
				<g>
					<polygon fill="#010101" points="306.503,222.556 299.998,220.812 306.503,219.069 					"/>
				</g>
				<g>
					<polygon fill="#010101" points="387.218,222.556 393.723,220.812 387.218,219.069 					"/>
				</g>
			</g>
		</g>
		<g>
			<path fill="none" stroke="#000000" d="M395.342,317.83c0,5.414-4.396,9.572-16.736,9.572c-3.299,0-6.721-0.266-10.02-0.594
				c-3.297-0.199-6.596-0.463-9.773-0.463c-3.91,0-12.312,0.66-12.312,5.346h-0.027c0-4.686-7.818-5.346-12.094-5.346
				c-3.422,0-6.844,0.264-10.264,0.527s-6.842,0.529-10.141,0.529c-11.24,0-16.004-4.027-16.004-9.637"/>
		</g>
		<g>
			<path fill="#86B2D8" d="M372.09,157.928c0,3.3-2.7,6-6,6h-76.365c-3.3,0-6-2.7-6-6v-15c0-3.3,2.7-6,6-6h76.365c3.3,0,6,2.7,6,6
				V157.928z"/>
			<path fill="none" stroke="#000000" stroke-miterlimit="1" d="M372.09,157.928c0,3.3-2.7,6-6,6h-76.365c-3.3,0-6-2.7-6-6v-15
				c0-3.3,2.7-6,6-6h76.365c3.3,0,6,2.7,6,6V157.928z"/>
		</g>
		<g>
			<text transform="matrix(0.8815 0 0 1 292.1445 147.3472)"><tspan x="0" y="0" font-size="10">Reconstruction Z2</tspan><tspan x="2.499" y="12" font-size="10">Object of Interest</tspan></text>
		</g>
		<g>
			<text transform="matrix(0.8815 0 0 1 207.3154 116.0972)" font-size="10">Acquisition Context #1</text>
		</g>
	</g>
</g>
</svg>
