<?xml version="1.0" encoding="utf-8"?>

<!DOCTYPE svg PUBLIC "-//W3C//DTD SVG 1.1//EN" "http://www.w3.org/Graphics/SVG/1.1/DTD/svg11.dtd">
<svg version="1.1" id="Layer_1" xmlns="http://www.w3.org/2000/svg" xmlns:xlink="http://www.w3.org/1999/xlink" x="0px" y="0px"
	 width="552px" height="632px" viewBox="0 0 552 632" enable-background="new 0 0 552 632" xml:space="preserve">

<defs>
	<style type="text/css">
	text {
	  font-family: Helvetica, Verdana, ArialUnicodeMS, san-serif
	}
	</style>
</defs>

<g>
   <desc>
	PS 3.17 Part 17: Explanatory Information
   </desc>
</g>

<g>
	<g>
		<rect x="1" y="1" fill="#F5EED6" width="550" height="630"/>
	</g>
	<g>
		<rect x="342.812" y="25.432" fill="none" width="170.564" height="360.539"/>
		<text transform="matrix(0.9288 0 0 1 342.8125 45.1548)"><tspan x="0" y="0" font-size="8">Common to all frames of the X-Ray 3D</tspan><tspan x="0" y="266" font-size="8">= ORIGINAL\PRIMARY\VOLUME\NONE</tspan><tspan x="0" y="280" font-size="8">= MONOCHROME</tspan><tspan x="0" y="294" font-size="8">= VOLUME</tspan><tspan x="0" y="308" font-size="8">= NONE</tspan><tspan x="0" y="322" font-size="8">= 1 (all rames share the same reconstruction data)</tspan></text>
		<rect x="342.812" y="403.814" fill="none" width="157.383" height="206.227"/>
		<text transform="matrix(0.9288 0 0 1 342.8125 437.5371)"><tspan x="0" y="0" font-size="8">Frame “i” of the X-Ray 3D</tspan><tspan x="0" y="42" font-size="8">= DateTime of the 1st frame of source</tspan><tspan x="0" y="56" font-size="8">= DateTime of the 1st frame of source</tspan><tspan x="0" y="70" font-size="8">= 5000.0</tspan><tspan x="0" y="84" font-size="8">= i (consecutive numbers from 1 to M)</tspan><tspan x="0" y="98" font-size="8">= 1 (all frames belong to the same stack)</tspan><tspan x="0" y="112" font-size="8">= i (consecutive numbers from 1 to M)</tspan></text>
		
			<rect x="38.623" y="21.959" fill="#B2CEE7" stroke="#010101" stroke-width="0.75" stroke-linecap="round" stroke-linejoin="round" stroke-miterlimit="1" width="286.333" height="364.011"/>
		
			<rect x="55.398" y="35.958" fill="#86B2D8" stroke="#010101" stroke-width="0.75" stroke-linecap="round" stroke-linejoin="round" stroke-miterlimit="1" width="269.575" height="350.013"/>
		<rect x="42.763" y="25.432" fill="none" width="164.911" height="7.717"/>
		<text transform="matrix(0.9288 0 0 1 42.7671 31.1343)" font-size="8">Shared Functional Group Sequence</text>
		
			<rect x="72.194" y="63.597" fill="#FFFFFF" stroke="#010101" stroke-width="0.75" stroke-linecap="round" stroke-linejoin="round" stroke-miterlimit="1" width="252.761" height="55.906"/>
		
			<rect x="84.153" y="77.644" fill="#86B2D8" stroke="#010101" stroke-width="0.75" stroke-linecap="round" stroke-linejoin="round" stroke-miterlimit="1" width="240.82" height="41.859"/>
		
			<rect x="96.857" y="91.597" fill="#FFFFFF" stroke="#010101" stroke-width="0.75" stroke-linecap="round" stroke-linejoin="round" stroke-miterlimit="1" width="228.116" height="13.953"/>
		<rect x="76.32" y="67.826" fill="none" width="170.795" height="7.717"/>
		<text transform="matrix(0.9288 0 0 1 76.3203 73.5498)" font-size="8">&gt;Pixel Measures Sequence</text>
		<rect x="279.713" y="67.827" fill="none" width="44.984" height="7.716"/>
		<text transform="matrix(0.9288 0 0 1 279.6943 73.5298)" font-size="8">(0028,9110)</text>
		<rect x="279.713" y="25.432" fill="none" width="44.984" height="7.717"/>
		<text transform="matrix(0.9288 0 0 1 279.6943 31.1348)" font-size="8">(5200,9229)</text>
		<rect x="87.486" y="82.342" fill="none" width="108.835" height="7.717"/>
		<text transform="matrix(0.9288 0 0 1 87.4863 88.0645)" font-size="8">Item 1</text>
		<rect x="58.003" y="40.544" fill="none" width="127.731" height="7.721"/>
		<text transform="matrix(0.9288 0 0 1 58.0078 46.2461)" font-size="8">Item 1</text>
		<rect x="100.566" y="96.258" fill="none" width="136.597" height="7.717"/>
		<text transform="matrix(0.9288 0 0 1 100.5703 101.9536)" font-size="8">&gt;&gt;Slice Thickness</text>
		<rect x="280.115" y="96.258" fill="none" width="44.582" height="7.717"/>
		<text transform="matrix(0.9288 0 0 1 280.0967 101.959)" font-size="8">(0018,0050)</text>
		
			<rect x="72.194" y="119.542" fill="#FFFFFF" stroke="#010101" stroke-width="0.75" stroke-linecap="round" stroke-linejoin="round" stroke-miterlimit="1" width="252.761" height="41.953"/>
		
			<rect x="84.153" y="133.589" fill="#86B2D8" stroke="#010101" stroke-width="0.75" stroke-linecap="round" stroke-linejoin="round" stroke-miterlimit="1" width="240.82" height="27.906"/>
		
			<rect x="96.857" y="147.542" fill="#FFFFFF" stroke="#010101" stroke-width="0.75" stroke-linecap="round" stroke-linejoin="round" stroke-miterlimit="1" width="228.116" height="13.953"/>
		<rect x="76.32" y="123.771" fill="none" width="170.795" height="7.717"/>
		<text transform="matrix(0.9288 0 0 1 76.3203 129.4951)" font-size="8">&gt;Plane Orientation Sequence</text>
		<rect x="279.713" y="123.772" fill="none" width="44.984" height="7.716"/>
		<text transform="matrix(0.9288 0 0 1 279.6943 129.4751)" font-size="8">(0028,9116)</text>
		<rect x="87.486" y="138.287" fill="none" width="108.835" height="7.717"/>
		<text transform="matrix(0.9288 0 0 1 87.4863 144.0098)" font-size="8">Item 1</text>
		<rect x="100.566" y="152.203" fill="none" width="136.597" height="7.717"/>
		<text transform="matrix(0.9288 0 0 1 100.5703 157.8989)" font-size="8">&gt;&gt;Image Orientation (Patient)</text>
		
			<rect x="72.194" y="161.496" fill="#FFFFFF" stroke="#010101" stroke-width="0.75" stroke-linecap="round" stroke-linejoin="round" stroke-miterlimit="1" width="252.761" height="56.084"/>
		
			<rect x="84.153" y="175.542" fill="#86B2D8" stroke="#010101" stroke-width="0.75" stroke-linecap="round" stroke-linejoin="round" stroke-miterlimit="1" width="240.82" height="42.037"/>
		
			<rect x="96.857" y="189.496" fill="#FFFFFF" stroke="#010101" stroke-width="0.75" stroke-linecap="round" stroke-linejoin="round" stroke-miterlimit="1" width="228.116" height="13.953"/>
		<rect x="76.32" y="165.725" fill="none" width="170.795" height="7.717"/>
		<text transform="matrix(0.9288 0 0 1 76.3203 171.4482)" font-size="8">&gt;Frame Anatomy Sequence</text>
		<rect x="279.713" y="165.726" fill="none" width="44.984" height="7.716"/>
		<text transform="matrix(0.9288 0 0 1 279.6943 171.4282)" font-size="8">(0020,9071)</text>
		<rect x="279.713" y="152.203" fill="none" width="44.984" height="7.716"/>
		<text transform="matrix(0.9288 0 0 1 279.6943 157.9058)" font-size="8">(0020,0037)</text>
		<rect x="279.713" y="194.156" fill="none" width="44.984" height="7.716"/>
		<text transform="matrix(0.9288 0 0 1 279.6943 199.8589)" font-size="8">(0020,9072)</text>
		<rect x="87.486" y="180.24" fill="none" width="108.835" height="7.717"/>
		<text transform="matrix(0.9288 0 0 1 87.4863 185.9629)" font-size="8">Item 1</text>
		<rect x="100.566" y="194.156" fill="none" width="136.597" height="7.717"/>
		<text transform="matrix(0.9288 0 0 1 100.5703 199.8521)" font-size="8">&gt;&gt;Frame Laterality</text>
		
			<rect x="96.857" y="203.626" fill="#FFFFFF" stroke="#010101" stroke-width="0.75" stroke-linecap="round" stroke-linejoin="round" stroke-miterlimit="1" width="228.116" height="13.953"/>
		<rect x="279.713" y="208.287" fill="none" width="44.984" height="7.716"/>
		<text transform="matrix(0.9288 0 0 1 279.6943 213.9897)" font-size="8">(0008,2218)</text>
		<rect x="100.566" y="208.287" fill="none" width="136.597" height="7.717"/>
		<text transform="matrix(0.9288 0 0 1 100.5703 213.9829)" font-size="8">&gt;&gt;Anatomic Region Sequence</text>
		
			<rect x="72.194" y="217.58" fill="#FFFFFF" stroke="#010101" stroke-width="0.75" stroke-linecap="round" stroke-linejoin="round" stroke-miterlimit="1" width="252.761" height="56.084"/>
		
			<rect x="84.153" y="231.626" fill="#86B2D8" stroke="#010101" stroke-width="0.75" stroke-linecap="round" stroke-linejoin="round" stroke-miterlimit="1" width="240.82" height="42.037"/>
		
			<rect x="96.857" y="245.58" fill="#FFFFFF" stroke="#010101" stroke-width="0.75" stroke-linecap="round" stroke-linejoin="round" stroke-miterlimit="1" width="228.116" height="13.953"/>
		<rect x="76.32" y="221.809" fill="none" width="170.795" height="7.717"/>
		<text transform="matrix(0.9288 0 0 1 76.3203 227.5322)" font-size="8">&gt;Frame VOI LUT Sequence</text>
		<rect x="279.713" y="221.81" fill="none" width="44.984" height="7.716"/>
		<text transform="matrix(0.9288 0 0 1 279.6943 227.5122)" font-size="8">(0028,9132)</text>
		<rect x="279.713" y="250.24" fill="none" width="44.984" height="7.716"/>
		<text transform="matrix(0.9288 0 0 1 279.6943 255.9429)" font-size="8">(0028,1050)</text>
		<rect x="87.486" y="236.324" fill="none" width="108.835" height="7.717"/>
		<text transform="matrix(0.9288 0 0 1 87.4863 242.0469)" font-size="8">Item 1</text>
		<rect x="100.566" y="250.24" fill="none" width="136.597" height="7.717"/>
		<text transform="matrix(0.9288 0 0 1 100.5703 255.936)" font-size="8">&gt;&gt;Window Center</text>
		
			<rect x="96.857" y="259.71" fill="#FFFFFF" stroke="#010101" stroke-width="0.75" stroke-linecap="round" stroke-linejoin="round" stroke-miterlimit="1" width="228.116" height="13.953"/>
		<rect x="279.713" y="264.371" fill="none" width="44.984" height="7.716"/>
		<text transform="matrix(0.9288 0 0 1 279.6943 270.0737)" font-size="8">(0028,1051)</text>
		<rect x="100.566" y="264.371" fill="none" width="136.597" height="7.717"/>
		<text transform="matrix(0.9288 0 0 1 100.5703 270.0669)" font-size="8">&gt;&gt;Window Width</text>
		
			<rect x="72.194" y="273.664" fill="#FFFFFF" stroke="#010101" stroke-width="0.75" stroke-linecap="round" stroke-linejoin="round" stroke-miterlimit="1" width="252.761" height="98.307"/>
		
			<rect x="84.153" y="287.71" fill="#86B2D8" stroke="#010101" stroke-width="0.75" stroke-linecap="round" stroke-linejoin="round" stroke-miterlimit="1" width="240.82" height="84.26"/>
		
			<rect x="96.857" y="301.664" fill="#FFFFFF" stroke="#010101" stroke-width="0.75" stroke-linecap="round" stroke-linejoin="round" stroke-miterlimit="1" width="228.116" height="13.953"/>
		<rect x="76.32" y="277.893" fill="none" width="170.795" height="7.717"/>
		<text transform="matrix(0.9288 0 0 1 76.3203 283.6162)" font-size="8">&gt;X-Ray 3D Frame Type Sequence</text>
		<rect x="279.713" y="277.894" fill="none" width="44.984" height="7.716"/>
		<text transform="matrix(0.9288 0 0 1 279.6943 283.5962)" font-size="8">(0018,9504)</text>
		<rect x="279.713" y="306.324" fill="none" width="44.984" height="7.716"/>
		<text transform="matrix(0.9288 0 0 1 279.6943 312.0269)" font-size="8">(0008,9007)</text>
		<rect x="87.486" y="292.408" fill="none" width="108.835" height="7.717"/>
		<text transform="matrix(0.9288 0 0 1 87.4863 298.1309)" font-size="8">Item 1</text>
		<rect x="100.566" y="306.324" fill="none" width="136.597" height="7.717"/>
		<text transform="matrix(0.9288 0 0 1 100.5703 312.02)" font-size="8">&gt;&gt;Frame Type</text>
		
			<rect x="96.857" y="315.794" fill="#FFFFFF" stroke="#010101" stroke-width="0.75" stroke-linecap="round" stroke-linejoin="round" stroke-miterlimit="1" width="228.116" height="13.954"/>
		<rect x="279.713" y="320.455" fill="none" width="44.984" height="7.716"/>
		<text transform="matrix(0.9288 0 0 1 279.6943 326.1582)" font-size="8">(0008,9205)</text>
		<rect x="100.566" y="320.455" fill="none" width="136.597" height="7.717"/>
		<text transform="matrix(0.9288 0 0 1 100.5703 326.1504)" font-size="8">&gt;&gt;Pixel Presentation</text>
		
			<rect x="96.857" y="329.748" fill="#FFFFFF" stroke="#010101" stroke-width="0.75" stroke-linecap="round" stroke-linejoin="round" stroke-miterlimit="1" width="228.116" height="13.953"/>
		<rect x="279.713" y="334.408" fill="none" width="44.984" height="7.716"/>
		<text transform="matrix(0.9288 0 0 1 279.6943 340.1113)" font-size="8">(0008,9206)</text>
		<rect x="100.566" y="334.408" fill="none" width="136.597" height="7.717"/>
		<text transform="matrix(0.9288 0 0 1 100.5703 340.1035)" font-size="8">&gt;&gt;Volumetric Properties</text>
		
			<rect x="96.857" y="343.879" fill="#FFFFFF" stroke="#010101" stroke-width="0.75" stroke-linecap="round" stroke-linejoin="round" stroke-miterlimit="1" width="228.116" height="13.953"/>
		<rect x="279.713" y="348.539" fill="none" width="44.984" height="7.716"/>
		<text transform="matrix(0.9288 0 0 1 279.6943 354.2422)" font-size="8">(0008,9207)</text>
		<rect x="100.566" y="348.539" fill="none" width="136.597" height="7.717"/>
		<text transform="matrix(0.9288 0 0 1 100.5703 354.2344)" font-size="8">&gt;&gt;Volume Based Calculation Technique</text>
		
			<rect x="96.857" y="357.832" fill="#FFFFFF" stroke="#010101" stroke-width="0.75" stroke-linecap="round" stroke-linejoin="round" stroke-miterlimit="1" width="228.116" height="13.953"/>
		<rect x="279.713" y="362.492" fill="none" width="44.984" height="7.716"/>
		<text transform="matrix(0.9288 0 0 1 279.6943 368.1953)" font-size="8">(0020,9536)</text>
		<rect x="100.566" y="362.492" fill="none" width="136.597" height="7.717"/>
		<text transform="matrix(0.9288 0 0 1 100.5703 368.1875)" font-size="8">&gt;&gt;Reconstruction Index</text>
		
			<rect x="96.857" y="105.55" fill="#FFFFFF" stroke="#010101" stroke-width="0.75" stroke-linecap="round" stroke-linejoin="round" stroke-miterlimit="1" width="228.116" height="13.953"/>
		<rect x="100.566" y="110.211" fill="none" width="136.597" height="7.717"/>
		<text transform="matrix(0.9288 0 0 1 100.5703 115.9067)" font-size="8">&gt;&gt;Pixel Spacing</text>
		<rect x="280.115" y="110.211" fill="none" width="44.582" height="7.717"/>
		<text transform="matrix(0.9288 0 0 1 280.0967 115.9121)" font-size="8">(0028,0030)</text>
		
			<rect x="72.194" y="49.56" fill="#FFFFFF" stroke="#010101" stroke-width="0.75" stroke-linecap="round" stroke-linejoin="round" stroke-miterlimit="1" width="252.779" height="14"/>
		<rect x="76.32" y="52.732" fill="none" width="189.98" height="7.717"/>
		<text transform="matrix(0.9288 0 0 1 76.3203 58.4551)" font-size="8">...</text>
		
			<rect x="72.194" y="371.971" fill="#FFFFFF" stroke="#010101" stroke-width="0.75" stroke-linecap="round" stroke-linejoin="round" stroke-miterlimit="1" width="252.779" height="14"/>
		<rect x="76.32" y="375.143" fill="none" width="189.98" height="7.717"/>
		<text transform="matrix(0.9288 0 0 1 76.3203 380.8652)" font-size="8">...</text>
		<rect x="42.763" y="390.305" fill="none" width="127.731" height="7.721"/>
		<text transform="matrix(0.9288 0 0 1 42.7671 396.0068)" font-size="8">...</text>
		
			<rect x="38.623" y="400.342" fill="#B2CEE7" stroke="#010101" stroke-width="0.75" stroke-linecap="round" stroke-linejoin="round" stroke-miterlimit="1" width="286.333" height="209.699"/>
		
			<rect x="55.398" y="414.34" fill="#86B2D8" stroke="#010101" stroke-width="0.75" stroke-linecap="round" stroke-linejoin="round" stroke-miterlimit="1" width="269.575" height="14"/>
		<rect x="42.763" y="403.814" fill="none" width="164.911" height="7.717"/>
		<text transform="matrix(0.9288 0 0 1 42.7671 409.5176)" font-size="8">Per-Frame Functional Groups Sequence</text>
		<rect x="279.713" y="403.814" fill="none" width="44.984" height="7.717"/>
		<text transform="matrix(0.9288 0 0 1 279.6943 409.5176)" font-size="8">(5200,9230)</text>
		
			<rect x="72.194" y="414.34" fill="#FFFFFF" stroke="#010101" stroke-width="0.75" stroke-linecap="round" stroke-linejoin="round" stroke-miterlimit="1" width="252.779" height="14"/>
		<rect x="76.32" y="417.513" fill="none" width="189.98" height="7.717"/>
		<text transform="matrix(0.9288 0 0 1 76.3203 423.2354)" font-size="8">...</text>
		
			<rect x="55.398" y="596.041" fill="#86B2D8" stroke="#010101" stroke-width="0.75" stroke-linecap="round" stroke-linejoin="round" stroke-miterlimit="1" width="269.575" height="14"/>
		
			<rect x="72.194" y="596.041" fill="#FFFFFF" stroke="#010101" stroke-width="0.75" stroke-linecap="round" stroke-linejoin="round" stroke-miterlimit="1" width="252.779" height="14"/>
		<rect x="76.32" y="599.213" fill="none" width="189.98" height="7.717"/>
		<text transform="matrix(0.9288 0 0 1 76.3203 604.9355)" font-size="8">...</text>
		
			<rect x="55.398" y="428.715" fill="#86B2D8" stroke="#010101" stroke-width="0.75" stroke-linecap="round" stroke-linejoin="round" stroke-miterlimit="1" width="269.575" height="167.326"/>
		<polygon fill="none" points="185.735,441.022 58.003,441.022 58.878,433.302 186.61,433.302 		"/>
		<text transform="matrix(0.9288 0 0 1 58.814 439.0273)" font-size="8">Item i</text>
		
			<rect x="72.194" y="441.98" fill="#FFFFFF" stroke="#010101" stroke-width="0.75" stroke-linecap="round" stroke-linejoin="round" stroke-miterlimit="1" width="252.761" height="112.074"/>
		
			<rect x="84.153" y="456.027" fill="#86B2D8" stroke="#010101" stroke-width="0.75" stroke-linecap="round" stroke-linejoin="round" stroke-miterlimit="1" width="240.82" height="98.027"/>
		
			<rect x="96.857" y="469.98" fill="#FFFFFF" stroke="#010101" stroke-width="0.75" stroke-linecap="round" stroke-linejoin="round" stroke-miterlimit="1" width="228.116" height="13.953"/>
		<rect x="76.32" y="446.209" fill="none" width="170.795" height="7.717"/>
		<text transform="matrix(0.9288 0 0 1 76.3203 451.9326)" font-size="8">&gt;Frame Content Sequence</text>
		<rect x="279.713" y="446.21" fill="none" width="44.984" height="7.716"/>
		<text transform="matrix(0.9288 0 0 1 279.6943 451.9121)" font-size="8">(0020,9111)</text>
		<rect x="87.486" y="460.725" fill="none" width="108.835" height="7.717"/>
		<text transform="matrix(0.9288 0 0 1 87.4863 466.4473)" font-size="8">Item 1</text>
		<rect x="100.566" y="474.641" fill="none" width="136.597" height="7.717"/>
		<text transform="matrix(0.9288 0 0 1 100.5703 480.3359)" font-size="8">&gt;&gt;Frame Reference DateTime</text>
		<rect x="280.115" y="474.641" fill="none" width="44.582" height="7.717"/>
		<text transform="matrix(0.9288 0 0 1 280.0967 480.3418)" font-size="8">(0018,9151)</text>
		
			<rect x="72.194" y="554.088" fill="#FFFFFF" stroke="#010101" stroke-width="0.75" stroke-linecap="round" stroke-linejoin="round" stroke-miterlimit="1" width="252.761" height="41.953"/>
		
			<rect x="84.153" y="568.135" fill="#86B2D8" stroke="#010101" stroke-width="0.75" stroke-linecap="round" stroke-linejoin="round" stroke-miterlimit="1" width="240.82" height="27.906"/>
		
			<rect x="96.857" y="582.088" fill="#FFFFFF" stroke="#010101" stroke-width="0.75" stroke-linecap="round" stroke-linejoin="round" stroke-miterlimit="1" width="228.116" height="13.953"/>
		<rect x="76.32" y="558.316" fill="none" width="170.795" height="7.717"/>
		<text transform="matrix(0.9288 0 0 1 76.3203 564.04)" font-size="8">&gt;Plane Position Sequence</text>
		<rect x="279.713" y="558.317" fill="none" width="44.984" height="7.716"/>
		<text transform="matrix(0.9288 0 0 1 279.6943 564.0195)" font-size="8">(0020,9113)</text>
		<rect x="279.713" y="586.748" fill="none" width="44.984" height="7.716"/>
		<text transform="matrix(0.9288 0 0 1 279.6943 592.4512)" font-size="8">(0020,0032)</text>
		<rect x="87.486" y="572.832" fill="none" width="108.835" height="7.717"/>
		<text transform="matrix(0.9288 0 0 1 87.4863 578.5547)" font-size="8">Item 1</text>
		<rect x="100.566" y="586.748" fill="none" width="136.597" height="7.717"/>
		<text transform="matrix(0.9288 0 0 1 100.5703 592.4434)" font-size="8">&gt;&gt;Image Position (Patient)</text>
		
			<rect x="96.857" y="497.887" fill="#FFFFFF" stroke="#010101" stroke-width="0.75" stroke-linecap="round" stroke-linejoin="round" stroke-miterlimit="1" width="228.116" height="13.953"/>
		<rect x="279.713" y="502.547" fill="none" width="44.984" height="7.716"/>
		<text transform="matrix(0.9288 0 0 1 279.6943 508.25)" font-size="8">(0018,9220)</text>
		<rect x="100.566" y="502.547" fill="none" width="136.597" height="7.717"/>
		<text transform="matrix(0.9288 0 0 1 100.5703 508.2422)" font-size="8">&gt;&gt;Frame Acquisition Duration</text>
		
			<rect x="96.857" y="512.018" fill="#FFFFFF" stroke="#010101" stroke-width="0.75" stroke-linecap="round" stroke-linejoin="round" stroke-miterlimit="1" width="228.116" height="13.953"/>
		<rect x="279.713" y="516.678" fill="none" width="44.984" height="7.716"/>
		<text transform="matrix(0.9288 0 0 1 279.6943 522.3809)" font-size="8">(0020,9157)</text>
		<rect x="100.566" y="516.678" fill="none" width="136.597" height="7.717"/>
		<text transform="matrix(0.9288 0 0 1 100.5703 522.373)" font-size="8">&gt;&gt;Dimension Index Values</text>
		
			<rect x="96.857" y="525.971" fill="#FFFFFF" stroke="#010101" stroke-width="0.75" stroke-linecap="round" stroke-linejoin="round" stroke-miterlimit="1" width="228.116" height="13.953"/>
		<rect x="279.713" y="530.631" fill="none" width="44.984" height="7.716"/>
		<text transform="matrix(0.9288 0 0 1 279.6943 536.334)" font-size="8">(0020,9056)</text>
		<rect x="100.566" y="530.631" fill="none" width="136.597" height="7.717"/>
		<text transform="matrix(0.9288 0 0 1 100.5703 536.3262)" font-size="8">&gt;&gt;Stack ID</text>
		
			<rect x="96.857" y="540.102" fill="#FFFFFF" stroke="#010101" stroke-width="0.75" stroke-linecap="round" stroke-linejoin="round" stroke-miterlimit="1" width="228.116" height="13.953"/>
		<rect x="279.713" y="544.762" fill="none" width="44.984" height="7.716"/>
		<text transform="matrix(0.9288 0 0 1 279.6943 550.4648)" font-size="8">(0020,9057)</text>
		<rect x="100.566" y="544.762" fill="none" width="136.597" height="7.717"/>
		<text transform="matrix(0.9288 0 0 1 100.5703 550.457)" font-size="8">&gt;&gt;In-Stack Position Number</text>
		
			<rect x="96.857" y="483.934" fill="#FFFFFF" stroke="#010101" stroke-width="0.75" stroke-linecap="round" stroke-linejoin="round" stroke-miterlimit="1" width="228.116" height="13.953"/>
		<rect x="100.566" y="488.594" fill="none" width="136.597" height="7.717"/>
		<text transform="matrix(0.9288 0 0 1 100.5703 494.2891)" font-size="8">&gt;&gt;Frame Acquisition DateTime</text>
		<rect x="280.115" y="488.594" fill="none" width="44.582" height="7.717"/>
		<text transform="matrix(0.9288 0 0 1 280.0967 494.2949)" font-size="8">(0018,9074)</text>
	</g>
</g>
</svg>
