<?xml version="1.0" encoding="utf-8"?>

<!DOCTYPE svg PUBLIC "-//W3C//DTD SVG 1.1//EN" "http://www.w3.org/Graphics/SVG/1.1/DTD/svg11.dtd">
<svg version="1.1" id="Layer_1" xmlns="http://www.w3.org/2000/svg" xmlns:xlink="http://www.w3.org/1999/xlink" x="0px" y="0px"
	 width="552px" height="392px" viewBox="0 0 552 392" enable-background="new 0 0 552 392" xml:space="preserve">

<defs>
	<style type="text/css">
	text {
	  font-family: Helvetica, Verdana, ArialUnicodeMS, san-serif
	}
	</style>
</defs>

<g>
   <desc>
	PS 3.17 Part 17: Explanatory Information
   </desc>
</g>

<g>
	<rect x="1" y="1" fill="#F5EED6" width="550" height="390"/>
	<g>
		<rect x="349.404" y="18.38" fill="none" width="157.383" height="358.712"/>
		<text transform="matrix(0.9288 0 0 1 349.4043 24.105)"><tspan x="0" y="0" font-size="8">= UID “C2”</tspan><tspan x="0" y="28" font-size="8">= UID “D”</tspan><tspan x="0" y="56" font-size="8">= DIGITAL_DETECTOR</tspan><tspan x="0" y="70" font-size="8">= CARM</tspan><tspan x="0" y="84" font-size="8">= YES</tspan><tspan x="0" y="182" font-size="8">=-30.0</tspan><tspan x="0" y="196" font-size="8">= 20.0</tspan><tspan x="0" y="210" font-size="8">= 0.0</tspan><tspan x="0" y="224" font-size="8">= 50.0</tspan><tspan x="0" y="238" font-size="8">= 30.0</tspan><tspan x="0" y="252" font-size="8">= 10.0</tspan><tspan x="0" y="266" font-size="8">= 0.0</tspan><tspan x="0" y="280" font-size="8">= 0.0</tspan><tspan x="0" y="294" font-size="8">= 0.0</tspan><tspan x="0" y="336" font-size="8">= 780.0</tspan><tspan x="0" y="350" font-size="8">= 1200.0</tspan></text>
		
			<rect x="45.213" y="126.312" fill="#B2CEE7" stroke="#010101" stroke-width="0.75" stroke-linecap="round" stroke-linejoin="round" stroke-miterlimit="1" width="286.332" height="250.779"/>
		
			<rect x="61.988" y="154.311" fill="#86B2D8" stroke="#010101" stroke-width="0.75" stroke-linecap="round" stroke-linejoin="round" stroke-miterlimit="1" width="269.574" height="222.781"/>
		
			<rect x="45.238" y="14.908" fill="#B2CEE7" stroke="#010101" stroke-width="0.75" stroke-linecap="round" stroke-linejoin="round" stroke-miterlimit="1" width="286.332" height="13.998"/>
		
			<rect x="45.238" y="14.908" fill="#B2CEE7" stroke="#010101" stroke-width="0.75" stroke-linecap="round" stroke-linejoin="round" stroke-miterlimit="1" width="286.332" height="13.998"/>
		<rect x="49.378" y="18.379" fill="none" width="164.911" height="7.717"/>
		<text transform="matrix(0.9288 0 0 1 49.3828 24.082)" font-size="8">SOP Instance UID</text>
		<rect x="286.328" y="18.38" fill="none" width="44.984" height="7.716"/>
		<text transform="matrix(0.9288 0 0 1 286.3105 24.0825)" font-size="8">(0008,0018)</text>
		
			<rect x="45.238" y="42.906" fill="#B2CEE7" stroke="#010101" stroke-width="0.75" stroke-linecap="round" stroke-linejoin="round" stroke-miterlimit="1" width="286.332" height="13.998"/>
		<rect x="49.378" y="46.377" fill="none" width="164.911" height="7.717"/>
		<text transform="matrix(0.9288 0 0 1 49.3828 52.0801)" font-size="8">Frame of Reference UID</text>
		<rect x="286.328" y="46.377" fill="none" width="44.984" height="7.716"/>
		<text transform="matrix(0.9288 0 0 1 286.3105 52.0801)" font-size="8">(0020,0052)</text>
		<rect x="49.378" y="32.377" fill="none" width="164.911" height="7.717"/>
		<text transform="matrix(0.9288 0 0 1 49.3828 38.0801)" font-size="8">...</text>
		<rect x="49.353" y="116.325" fill="none" width="164.911" height="7.717"/>
		<text transform="matrix(0.9288 0 0 1 49.3574 122.0293)" font-size="8">...</text>
		
			<rect x="45.213" y="98.854" fill="#B2CEE7" stroke="#010101" stroke-width="0.75" stroke-linecap="round" stroke-linejoin="round" stroke-miterlimit="1" width="286.334" height="13.998"/>
		<rect x="49.353" y="102.325" fill="none" width="164.911" height="7.717"/>
		<text transform="matrix(0.9288 0 0 1 49.3574 108.0293)" font-size="8">C-Arm Positioner Tabletop Relationship</text>
		<rect x="286.305" y="102.325" fill="none" width="44.984" height="7.716"/>
		<text transform="matrix(0.9288 0 0 1 286.2852 108.0278)" font-size="8">(0018,9474)</text>
		
			<rect x="45.213" y="84.955" fill="#B2CEE7" stroke="#010101" stroke-width="0.75" stroke-linecap="round" stroke-linejoin="round" stroke-miterlimit="1" width="286.334" height="13.998"/>
		<rect x="49.353" y="88.426" fill="none" width="164.911" height="7.717"/>
		<text transform="matrix(0.9288 0 0 1 49.3574 94.1299)" font-size="8">Positioner Type</text>
		<rect x="286.305" y="88.426" fill="none" width="44.984" height="7.716"/>
		<text transform="matrix(0.9288 0 0 1 286.2852 94.1284)" font-size="8">(0018,1508)</text>
		<rect x="82.911" y="354.369" fill="none" width="170.795" height="7.717"/>
		<text transform="matrix(0.9288 0 0 1 82.9106 360.0918)" font-size="8">&gt;Source Image Sequence</text>
		<rect x="286.305" y="354.369" fill="none" width="44.984" height="7.717"/>
		<text transform="matrix(0.9288 0 0 1 286.2852 360.0723)" font-size="8">(0008,2112)</text>
		<rect x="94.077" y="368.883" fill="none" width="108.835" height="7.719"/>
		<text transform="matrix(0.9288 0 0 1 94.0767 374.6064)" font-size="8">Item 1</text>
		
			<rect x="78.784" y="321.186" fill="#FFFFFF" stroke="#010101" stroke-width="0.75" stroke-linecap="round" stroke-linejoin="round" stroke-miterlimit="1" width="252.763" height="55.906"/>
		
			<rect x="90.743" y="335.234" fill="#86B2D8" stroke="#010101" stroke-width="0.75" stroke-linecap="round" stroke-linejoin="round" stroke-miterlimit="1" width="240.821" height="41.857"/>
		
			<rect x="103.447" y="349.186" fill="#FFFFFF" stroke="#010101" stroke-width="0.75" stroke-linecap="round" stroke-linejoin="round" stroke-miterlimit="1" width="228.117" height="13.953"/>
		<rect x="82.911" y="325.416" fill="none" width="170.795" height="7.717"/>
		<text transform="matrix(0.9288 0 0 1 82.9106 331.1387)" font-size="8">&gt;X-Ray Geometry Sequence</text>
		<rect x="286.305" y="325.416" fill="none" width="44.984" height="7.717"/>
		<text transform="matrix(0.9288 0 0 1 286.2852 331.1191)" font-size="8">(0018,9476)</text>
		<rect x="94.077" y="339.93" fill="none" width="108.835" height="7.719"/>
		<text transform="matrix(0.9288 0 0 1 94.0767 345.6533)" font-size="8">Item 1</text>
		<rect x="107.156" y="353.848" fill="none" width="136.597" height="7.717"/>
		<text transform="matrix(0.9288 0 0 1 107.1606 359.543)" font-size="8">&gt;&gt;Distance Source to Isocenter</text>
		<rect x="286.707" y="353.848" fill="none" width="44.582" height="7.717"/>
		<text transform="matrix(0.9288 0 0 1 286.6875 359.5479)" font-size="8">(0018,9402)</text>
		
			<rect x="103.447" y="363.139" fill="#FFFFFF" stroke="#010101" stroke-width="0.75" stroke-linecap="round" stroke-linejoin="round" stroke-miterlimit="1" width="228.117" height="13.953"/>
		<rect x="107.156" y="367.801" fill="none" width="136.597" height="7.717"/>
		<text transform="matrix(0.9288 0 0 1 107.1606 373.4961)" font-size="8">&gt;&gt;Distance Source to Detector</text>
		<rect x="286.707" y="367.801" fill="none" width="44.582" height="7.717"/>
		<text transform="matrix(0.9288 0 0 1 286.6875 373.501)" font-size="8">(0018,1110)</text>
		
			<rect x="45.238" y="70.904" fill="#B2CEE7" stroke="#010101" stroke-width="0.75" stroke-linecap="round" stroke-linejoin="round" stroke-miterlimit="1" width="286.332" height="13.998"/>
		<rect x="49.378" y="74.375" fill="none" width="164.911" height="7.717"/>
		<text transform="matrix(0.9288 0 0 1 49.3828 80.0781)" font-size="8">X-Ray Receptor Type</text>
		<rect x="286.328" y="74.375" fill="none" width="44.984" height="7.716"/>
		<text transform="matrix(0.9288 0 0 1 286.3105 80.0781)" font-size="8">(0018,9420)</text>
		<rect x="49.378" y="60.375" fill="none" width="164.911" height="7.717"/>
		<text transform="matrix(0.9288 0 0 1 49.3828 66.0781)" font-size="8">...</text>
		
			<rect x="61.988" y="140.311" fill="#86B2D8" stroke="#010101" stroke-width="0.75" stroke-linecap="round" stroke-linejoin="round" stroke-miterlimit="1" width="269.574" height="14"/>
		<rect x="49.353" y="129.785" fill="none" width="164.911" height="7.717"/>
		<text transform="matrix(0.9288 0 0 1 49.3574 135.4868)" font-size="8">Per-Frame Functional Groups Sequence</text>
		<rect x="286.303" y="129.785" fill="none" width="44.984" height="7.717"/>
		<text transform="matrix(0.9288 0 0 1 286.2852 135.4873)" font-size="8">(5200,9230)</text>
		
			<rect x="78.784" y="140.311" fill="#FFFFFF" stroke="#010101" stroke-width="0.75" stroke-linecap="round" stroke-linejoin="round" stroke-miterlimit="1" width="252.778" height="14"/>
		<rect x="82.911" y="143.482" fill="none" width="189.98" height="7.717"/>
		<text transform="matrix(0.9288 0 0 1 82.9106 149.2051)" font-size="8">...</text>
		<rect x="64.594" y="158.896" fill="none" width="127.731" height="7.721"/>
		<text transform="matrix(0.9288 0 0 1 64.5981 164.5986)" font-size="8">Item i</text>
		
			<rect x="78.784" y="167.576" fill="#FFFFFF" stroke="#010101" stroke-width="0.75" stroke-linecap="round" stroke-linejoin="round" stroke-miterlimit="1" width="252.761" height="153.709"/>
		
			<rect x="90.743" y="181.623" fill="#86B2D8" stroke="#010101" stroke-width="0.75" stroke-linecap="round" stroke-linejoin="round" stroke-miterlimit="1" width="240.819" height="139.531"/>
		
			<rect x="103.447" y="195.576" fill="#FFFFFF" stroke="#010101" stroke-width="0.75" stroke-linecap="round" stroke-linejoin="round" stroke-miterlimit="1" width="228.115" height="13.953"/>
		<rect x="82.911" y="171.804" fill="none" width="170.795" height="7.717"/>
		<text transform="matrix(0.9288 0 0 1 82.9106 177.5273)" font-size="8">&gt;Isocenter Reference System Sequence</text>
		<rect x="286.303" y="171.804" fill="none" width="44.984" height="7.717"/>
		<text transform="matrix(0.9288 0 0 1 286.2852 177.5073)" font-size="8">(0018,9462)</text>
		<rect x="94.077" y="186.32" fill="none" width="108.836" height="7.717"/>
		<text transform="matrix(0.9288 0 0 1 94.0767 192.042)" font-size="8">Item 1</text>
		<rect x="107.156" y="200.236" fill="none" width="165.734" height="7.717"/>
		<text transform="matrix(0.9288 0 0 1 107.1562 205.9609)" font-size="8">&gt;&gt;Positioner Isocenter Primary Angle</text>
		<rect x="286.705" y="200.236" fill="none" width="44.582" height="7.717"/>
		<text transform="matrix(0.9288 0 0 1 286.6875 205.9365)" font-size="8">(0018,9463)</text>
		
			<rect x="103.447" y="209.529" fill="#FFFFFF" stroke="#010101" stroke-width="0.75" stroke-linecap="round" stroke-linejoin="round" stroke-miterlimit="1" width="228.115" height="13.953"/>
		<rect x="107.156" y="214.189" fill="none" width="165.735" height="7.717"/>
		<text transform="matrix(0.9288 0 0 1 107.1562 219.9141)" font-size="8">&gt;&gt;Positioner Isocenter Secondary Angle</text>
		<rect x="286.705" y="214.189" fill="none" width="44.582" height="7.717"/>
		<text transform="matrix(0.9288 0 0 1 286.6875 219.8896)" font-size="8">(0018,9464)</text>
		
			<rect x="103.447" y="223.482" fill="#FFFFFF" stroke="#010101" stroke-width="0.75" stroke-linecap="round" stroke-linejoin="round" stroke-miterlimit="1" width="228.115" height="13.953"/>
		<rect x="107.156" y="228.143" fill="none" width="165.735" height="7.717"/>
		<text transform="matrix(0.9288 0 0 1 107.1562 233.8672)" font-size="8">&gt;&gt;Positioner Isocenter Detector Rotation Angle</text>
		<rect x="286.705" y="228.143" fill="none" width="44.582" height="7.717"/>
		<text transform="matrix(0.9288 0 0 1 286.6875 233.8428)" font-size="8">(0018,9465)</text>
		
			<rect x="103.447" y="237.436" fill="#FFFFFF" stroke="#010101" stroke-width="0.75" stroke-linecap="round" stroke-linejoin="round" stroke-miterlimit="1" width="228.115" height="13.953"/>
		<rect x="107.156" y="242.096" fill="none" width="136.596" height="7.717"/>
		<text transform="matrix(0.9288 0 0 1 107.1606 247.791)" font-size="8">&gt;&gt;Table X Position to Isocenter</text>
		<rect x="286.705" y="242.096" fill="none" width="44.582" height="7.717"/>
		<text transform="matrix(0.9288 0 0 1 286.6875 247.7959)" font-size="8">(0018,9466)</text>
		
			<rect x="103.447" y="251.389" fill="#FFFFFF" stroke="#010101" stroke-width="0.75" stroke-linecap="round" stroke-linejoin="round" stroke-miterlimit="1" width="228.115" height="13.953"/>
		<rect x="107.156" y="256.049" fill="none" width="136.596" height="7.717"/>
		<text transform="matrix(0.9288 0 0 1 107.1606 261.7441)" font-size="8">&gt;&gt;Table Y Position to Isocenter</text>
		<rect x="286.705" y="256.049" fill="none" width="44.582" height="7.717"/>
		<text transform="matrix(0.9288 0 0 1 286.6875 261.749)" font-size="8">(0018,9467)</text>
		
			<rect x="103.447" y="265.342" fill="#FFFFFF" stroke="#010101" stroke-width="0.75" stroke-linecap="round" stroke-linejoin="round" stroke-miterlimit="1" width="228.115" height="13.953"/>
		<rect x="107.156" y="270.002" fill="none" width="136.596" height="7.717"/>
		<text transform="matrix(0.9288 0 0 1 107.1606 275.6973)" font-size="8">&gt;&gt;Table Z Position to Isocenter</text>
		<rect x="286.705" y="270.002" fill="none" width="44.582" height="7.717"/>
		<text transform="matrix(0.9288 0 0 1 286.6875 275.7021)" font-size="8">(0018,9468)</text>
		
			<rect x="103.447" y="279.295" fill="#FFFFFF" stroke="#010101" stroke-width="0.75" stroke-linecap="round" stroke-linejoin="round" stroke-miterlimit="1" width="228.115" height="13.953"/>
		<rect x="107.156" y="283.955" fill="none" width="136.596" height="7.717"/>
		<text transform="matrix(0.9288 0 0 1 107.1606 289.6504)" font-size="8">&gt;&gt;Table Horizontal Rotation Angle</text>
		<rect x="286.705" y="283.955" fill="none" width="44.582" height="7.717"/>
		<text transform="matrix(0.9288 0 0 1 286.6875 289.6553)" font-size="8">(0018,9469)</text>
		
			<rect x="103.447" y="293.248" fill="#FFFFFF" stroke="#010101" stroke-width="0.75" stroke-linecap="round" stroke-linejoin="round" stroke-miterlimit="1" width="228.115" height="13.953"/>
		<rect x="107.156" y="297.908" fill="none" width="136.596" height="7.717"/>
		<text transform="matrix(0.9288 0 0 1 107.1606 303.6035)" font-size="8">&gt;&gt;Table Head Tilt Angle</text>
		<rect x="286.705" y="297.908" fill="none" width="44.582" height="7.717"/>
		<text transform="matrix(0.9288 0 0 1 286.6875 303.6084)" font-size="8">(0018,9470)</text>
		
			<rect x="103.447" y="307.201" fill="#FFFFFF" stroke="#010101" stroke-width="0.75" stroke-linecap="round" stroke-linejoin="round" stroke-miterlimit="1" width="228.115" height="13.953"/>
		<rect x="107.156" y="311.861" fill="none" width="136.596" height="7.717"/>
		<text transform="matrix(0.9288 0 0 1 107.1606 317.5566)" font-size="8">&gt;&gt;Table Cradle Tilt Angle</text>
		<rect x="286.705" y="311.861" fill="none" width="44.582" height="7.717"/>
		<text transform="matrix(0.9288 0 0 1 286.6875 317.5615)" font-size="8">(0018,9471)</text>
	</g>
</g>
</svg>
