<?xml version="1.0" encoding="utf-8"?>

<!DOCTYPE svg PUBLIC "-//W3C//DTD SVG 1.1//EN" "http://www.w3.org/Graphics/SVG/1.1/DTD/svg11.dtd">
<svg version="1.1" id="Layer_1" xmlns="http://www.w3.org/2000/svg" xmlns:xlink="http://www.w3.org/1999/xlink" x="0px" y="0px"
	 width="552px" height="507px" viewBox="0 0 552 507" enable-background="new 0 0 552 507" xml:space="preserve">

<defs>
	<style type="text/css">
	text {
	  font-family: Helvetica, Verdana, ArialUnicodeMS, san-serif
	}
	</style>
</defs>

<g>
   <desc>
	PS 3.17 Part 17: Explanatory Information
   </desc>
</g>

<g>
	<rect x="1" y="1" fill="#F5EED6" width="550" height="505"/>
	<g>
		
			<rect x="45.239" y="15.819" fill="#B2CEE7" stroke="#010101" stroke-width="0.75" stroke-linecap="round" stroke-linejoin="round" stroke-miterlimit="1" width="286.332" height="13.998"/>
		
			<rect x="45.239" y="15.819" fill="#B2CEE7" stroke="#010101" stroke-width="0.75" stroke-linecap="round" stroke-linejoin="round" stroke-miterlimit="1" width="286.332" height="13.998"/>
		<rect x="49.378" y="19.291" fill="none" width="164.911" height="7.717"/>
		<text transform="matrix(0.9288 0 0 1 49.3828 24.9937)" font-size="8">SOP Instance UID</text>
		<rect x="286.328" y="19.292" fill="none" width="44.984" height="7.716"/>
		<text transform="matrix(0.9288 0 0 1 286.3105 24.9941)" font-size="8">(0008,0018)</text>
		
			<rect x="45.239" y="43.817" fill="#B2CEE7" stroke="#010101" stroke-width="0.75" stroke-linecap="round" stroke-linejoin="round" stroke-miterlimit="1" width="286.332" height="13.998"/>
		<rect x="49.378" y="47.289" fill="none" width="164.911" height="7.717"/>
		<text transform="matrix(0.9288 0 0 1 49.3828 52.9917)" font-size="8">Frame of Reference UID</text>
		<rect x="286.328" y="47.289" fill="none" width="44.984" height="7.716"/>
		<text transform="matrix(0.9288 0 0 1 286.3105 52.9917)" font-size="8">(0020,0052)</text>
		<rect x="49.378" y="33.289" fill="none" width="164.911" height="7.717"/>
		<text transform="matrix(0.9288 0 0 1 49.3828 38.9917)" font-size="8">...</text>
		<rect x="349.404" y="19.292" fill="none" width="157.383" height="471.806"/>
		<text transform="matrix(0.9288 0 0 1 349.4043 25.0166)"><tspan x="0" y="0" font-size="8">= UID “Z1”</tspan><tspan x="0" y="28" font-size="8">= UID “D”</tspan><tspan x="0" y="56" font-size="8">= 1\0\0\20\0\1\0\40\0\0\1\260\0\0\0\1</tspan><tspan x="0" y="70" font-size="8">= ISOCENTER</tspan><tspan x="0" y="210" font-size="8">= XA Image or Enhanced XA Image</tspan><tspan x="0" y="224" font-size="8">= UID “C1”</tspan><tspan x="0" y="238" font-size="8">= UID “B1”</tspan><tspan x="0" y="252" font-size="8">= UID “A”</tspan><tspan x="0" y="308" font-size="8">Acquisition context #1</tspan><tspan x="0" y="350" font-size="8">= Enhanced XA Image</tspan><tspan x="0" y="364" font-size="8">= UID “C1”</tspan><tspan x="0" y="378" font-size="8">= 20.0</tspan><tspan x="0" y="392" font-size="8">= 40.0</tspan><tspan x="0" y="406" font-size="8">= 60.0</tspan><tspan x="0" y="420" font-size="8">= 0.0</tspan><tspan x="0" y="434" font-size="8">= 0.0</tspan><tspan x="0" y="448" font-size="8">= 0.0</tspan></text>
		
			<rect x="45.213" y="113.864" fill="#B2CEE7" stroke="#010101" stroke-width="0.75" stroke-linecap="round" stroke-linejoin="round" stroke-miterlimit="1" width="286.333" height="181.666"/>
		
			<rect x="61.989" y="127.862" fill="#86B2D8" stroke="#010101" stroke-width="0.75" stroke-linecap="round" stroke-linejoin="round" stroke-miterlimit="1" width="269.576" height="167.668"/>
		<rect x="49.353" y="117.335" fill="none" width="164.911" height="7.717"/>
		<text transform="matrix(0.9288 0 0 1 49.3574 123.0396)" font-size="8">Contributing Sources Sequence</text>
		<rect x="49.353" y="103.337" fill="none" width="164.911" height="7.717"/>
		<text transform="matrix(0.9288 0 0 1 49.3574 109.0415)" font-size="8">...</text>
		
			<rect x="78.785" y="141.502" fill="#FFFFFF" stroke="#010101" stroke-width="0.75" stroke-linecap="round" stroke-linejoin="round" stroke-miterlimit="1" width="252.762" height="140.028"/>
		
			<rect x="90.744" y="155.549" fill="#86B2D8" stroke="#010101" stroke-width="0.75" stroke-linecap="round" stroke-linejoin="round" stroke-miterlimit="1" width="240.821" height="125.981"/>
		
			<rect x="103.448" y="169.502" fill="#FFFFFF" stroke="#010101" stroke-width="0.75" stroke-linecap="round" stroke-linejoin="round" stroke-miterlimit="1" width="228.117" height="98.028"/>
		
			<rect x="116.448" y="183.455" fill="#86B2D8" stroke="#010101" stroke-width="0.75" stroke-linecap="round" stroke-linejoin="round" stroke-miterlimit="1" width="215.117" height="84.075"/>
		<rect x="82.911" y="145.73" fill="none" width="170.795" height="7.717"/>
		<text transform="matrix(0.9288 0 0 1 82.9106 151.4551)" font-size="8">&gt;Contributing SOP Instances Reference Sequence</text>
		<rect x="286.305" y="145.731" fill="none" width="44.984" height="7.716"/>
		<text transform="matrix(0.9288 0 0 1 286.2852 151.4346)" font-size="8">(0020,9529)</text>
		<rect x="286.305" y="117.336" fill="none" width="44.984" height="7.716"/>
		<text transform="matrix(0.9288 0 0 1 286.2852 123.04)" font-size="8">(0018,9506)</text>
		<rect x="94.077" y="160.245" fill="none" width="108.835" height="7.717"/>
		<text transform="matrix(0.9288 0 0 1 94.0767 165.9683)" font-size="8">Item 1</text>
		<rect x="120.197" y="188.078" fill="none" width="136.597" height="7.717"/>
		<text transform="matrix(0.9288 0 0 1 120.2017 193.7754)" font-size="8">Item 1</text>
		<rect x="64.594" y="132.448" fill="none" width="127.731" height="7.721"/>
		<text transform="matrix(0.9288 0 0 1 64.5981 138.1514)" font-size="8">Item 1</text>
		<rect x="107.156" y="174.162" fill="none" width="136.597" height="7.717"/>
		<text transform="matrix(0.9288 0 0 1 107.1606 179.8574)" font-size="8">&gt;&gt;Reference Series Sequence</text>
		<rect x="286.707" y="174.162" fill="none" width="44.582" height="7.717"/>
		<text transform="matrix(0.9288 0 0 1 286.6875 179.8628)" font-size="8">(0008,1115)</text>
		
			<rect x="129.136" y="197.532" fill="#FFFFFF" stroke="#010101" stroke-width="0.75" stroke-linecap="round" stroke-linejoin="round" stroke-miterlimit="1" width="202.428" height="56"/>
		<rect x="133.406" y="202.118" fill="none" width="127.75" height="7.721"/>
		<text transform="matrix(0.9288 0 0 1 133.4111 207.8208)" font-size="8">&gt;&gt;&gt;Referenced Instance Sequence</text>
		<rect x="286.305" y="202.12" fill="none" width="44.984" height="7.716"/>
		<text transform="matrix(0.9288 0 0 1 286.2852 207.8203)" font-size="8">(0008,114a)</text>
		
			<rect x="45.213" y="85.866" fill="#B2CEE7" stroke="#010101" stroke-width="0.75" stroke-linecap="round" stroke-linejoin="round" stroke-miterlimit="1" width="286.333" height="13.998"/>
		<rect x="49.353" y="89.337" fill="none" width="164.911" height="7.717"/>
		<text transform="matrix(0.9288 0 0 1 49.3574 95.0415)" font-size="8">Equipment Coordinate System Identification</text>
		<rect x="286.305" y="89.337" fill="none" width="44.984" height="7.716"/>
		<text transform="matrix(0.9288 0 0 1 286.2852 95.04)" font-size="8">(0028,9537)</text>
		
			<rect x="129.136" y="253.53" fill="#FFFFFF" stroke="#010101" stroke-width="0.75" stroke-linecap="round" stroke-linejoin="round" stroke-miterlimit="1" width="202.428" height="14"/>
		<rect x="133.406" y="256.67" fill="none" width="127.75" height="7.721"/>
		<text transform="matrix(0.9288 0 0 1 133.4111 262.373)" font-size="8">&gt;&gt;&gt;Series Instance UID</text>
		<rect x="286.707" y="256.672" fill="none" width="44.582" height="7.717"/>
		<text transform="matrix(0.9288 0 0 1 286.6865 262.373)" font-size="8">(0020,000e)</text>
		
			<rect x="142.265" y="211.532" fill="#86B2D8" stroke="#010101" stroke-width="0.75" stroke-linecap="round" stroke-linejoin="round" stroke-miterlimit="1" width="189.286" height="42"/>
		
			<rect x="154.954" y="225.532" fill="#FFFFFF" stroke="#010101" stroke-width="0.75" stroke-linecap="round" stroke-linejoin="round" stroke-miterlimit="1" width="176.597" height="14"/>
		<rect x="159.223" y="228.672" fill="none" width="123.66" height="7.721"/>
		<text transform="matrix(0.9288 0 0 1 159.2251 234.375)" font-size="8">&gt;&gt;&gt;&gt;Referenced SOP Class UID</text>
		
			<rect x="154.954" y="239.532" fill="#FFFFFF" stroke="#010101" stroke-width="0.75" stroke-linecap="round" stroke-linejoin="round" stroke-miterlimit="1" width="176.597" height="14"/>
		<rect x="286.307" y="228.314" fill="none" width="44.582" height="7.717"/>
		<text transform="matrix(0.9288 0 0 1 286.2842 234.0151)" font-size="8">(0008,1150)</text>
		<rect x="286.307" y="242.314" fill="none" width="44.582" height="7.717"/>
		<text transform="matrix(0.9288 0 0 1 286.2842 248.0151)" font-size="8">(0008,1155)</text>
		<rect x="149.724" y="216.12" fill="none" width="158.989" height="7.717"/>
		<text transform="matrix(0.9288 0 0 1 149.729 221.8232)" font-size="8">Item 1</text>
		
			<rect x="78.785" y="281.53" fill="#FFFFFF" stroke="#010101" stroke-width="0.75" stroke-linecap="round" stroke-linejoin="round" stroke-miterlimit="1" width="252.78" height="14"/>
		
			<rect x="103.448" y="267.53" fill="#FFFFFF" stroke="#010101" stroke-width="0.75" stroke-linecap="round" stroke-linejoin="round" stroke-miterlimit="1" width="228.117" height="14"/>
		<rect x="82.911" y="284.702" fill="none" width="189.98" height="7.717"/>
		<text transform="matrix(0.9288 0 0 1 82.9106 290.4258)" font-size="8">&gt;... (other attributes from the contributing image sources)</text>
		<rect x="159.223" y="242.672" fill="none" width="123.66" height="7.721"/>
		<text transform="matrix(0.9288 0 0 1 159.2251 248.375)" font-size="8">&gt;&gt;&gt;&gt;Referenced SOP Instance UID</text>
		<rect x="107.156" y="270.672" fill="none" width="136.597" height="7.717"/>
		<text transform="matrix(0.9288 0 0 1 107.1606 276.3672)" font-size="8">&gt;&gt;Study Instance UID</text>
		<rect x="286.707" y="270.672" fill="none" width="44.582" height="7.717"/>
		<text transform="matrix(0.9288 0 0 1 286.6875 276.373)" font-size="8">(0020,000d)</text>
		
			<rect x="45.213" y="309.514" fill="#B2CEE7" stroke="#010101" stroke-width="0.75" stroke-linecap="round" stroke-linejoin="round" stroke-miterlimit="1" width="286.333" height="181.667"/>
		
			<rect x="61.989" y="323.512" fill="#86B2D8" stroke="#010101" stroke-width="0.75" stroke-linecap="round" stroke-linejoin="round" stroke-miterlimit="1" width="269.576" height="167.669"/>
		<rect x="49.353" y="312.986" fill="none" width="164.911" height="7.717"/>
		<text transform="matrix(0.9288 0 0 1 49.3574 318.6885)" font-size="8">X-Ray 3D Acquisition Sequence</text>
		<rect x="49.353" y="298.988" fill="none" width="164.911" height="7.717"/>
		<text transform="matrix(0.9288 0 0 1 49.3574 304.6904)" font-size="8">...</text>
		
			<rect x="78.785" y="337.151" fill="#FFFFFF" stroke="#010101" stroke-width="0.75" stroke-linecap="round" stroke-linejoin="round" stroke-miterlimit="1" width="252.762" height="55.906"/>
		
			<rect x="90.744" y="351.199" fill="#86B2D8" stroke="#010101" stroke-width="0.75" stroke-linecap="round" stroke-linejoin="round" stroke-miterlimit="1" width="240.821" height="41.858"/>
		
			<rect x="103.448" y="365.151" fill="#FFFFFF" stroke="#010101" stroke-width="0.75" stroke-linecap="round" stroke-linejoin="round" stroke-miterlimit="1" width="228.117" height="13.953"/>
		<rect x="82.911" y="341.381" fill="none" width="170.795" height="7.717"/>
		<text transform="matrix(0.9288 0 0 1 82.9106 347.1035)" font-size="8">&gt;Source Image Sequence</text>
		<rect x="286.305" y="341.381" fill="none" width="44.984" height="7.717"/>
		<text transform="matrix(0.9288 0 0 1 286.2852 347.084)" font-size="8">(0008,2112)</text>
		<rect x="286.305" y="312.986" fill="none" width="44.984" height="7.715"/>
		<text transform="matrix(0.9288 0 0 1 286.2852 318.6895)" font-size="8">(0018,9507)</text>
		<rect x="94.077" y="355.895" fill="none" width="108.835" height="7.719"/>
		<text transform="matrix(0.9288 0 0 1 94.0767 361.6191)" font-size="8">Item 1</text>
		<rect x="64.594" y="328.098" fill="none" width="127.731" height="7.721"/>
		<text transform="matrix(0.9288 0 0 1 64.5981 333.8008)" font-size="8">Item 1</text>
		<rect x="107.156" y="369.812" fill="none" width="136.597" height="7.717"/>
		<text transform="matrix(0.9288 0 0 1 107.1606 375.5078)" font-size="8">&gt;&gt;Referenced SOP Class UID</text>
		<rect x="286.707" y="369.812" fill="none" width="44.582" height="7.717"/>
		<text transform="matrix(0.9288 0 0 1 286.6875 375.5137)" font-size="8">(0008,1150)</text>
		
			<rect x="103.448" y="379.104" fill="#FFFFFF" stroke="#010101" stroke-width="0.75" stroke-linecap="round" stroke-linejoin="round" stroke-miterlimit="1" width="228.117" height="13.953"/>
		<rect x="107.156" y="383.766" fill="none" width="136.597" height="7.717"/>
		<text transform="matrix(0.9288 0 0 1 107.1606 389.4609)" font-size="8">&gt;&gt;Referenced SOP Instance UID</text>
		<rect x="286.707" y="383.766" fill="none" width="44.582" height="7.717"/>
		<text transform="matrix(0.9288 0 0 1 286.6875 389.4668)" font-size="8">(0008,1155)</text>
		
			<rect x="78.785" y="393.097" fill="#FFFFFF" stroke="#010101" stroke-width="0.75" stroke-linecap="round" stroke-linejoin="round" stroke-miterlimit="1" width="252.78" height="14"/>
		<rect x="82.911" y="396.27" fill="none" width="189.98" height="7.717"/>
		<text transform="matrix(0.9288 0 0 1 82.9106 401.9922)" font-size="8">&gt;Table X Position to Isocenter</text>
		
			<rect x="45.239" y="71.815" fill="#B2CEE7" stroke="#010101" stroke-width="0.75" stroke-linecap="round" stroke-linejoin="round" stroke-miterlimit="1" width="286.332" height="13.998"/>
		<rect x="49.378" y="75.287" fill="none" width="164.911" height="7.717"/>
		<text transform="matrix(0.9288 0 0 1 49.3828 80.9897)" font-size="8">Image to Equipment Mapping Matrix</text>
		<rect x="286.328" y="75.287" fill="none" width="44.984" height="7.716"/>
		<text transform="matrix(0.9288 0 0 1 286.3105 80.9897)" font-size="8">(0028,9520)</text>
		<rect x="49.378" y="61.287" fill="none" width="164.911" height="7.717"/>
		<text transform="matrix(0.9288 0 0 1 49.3828 66.9897)" font-size="8">...</text>
		<rect x="286.707" y="396.27" fill="none" width="44.582" height="7.717"/>
		<text transform="matrix(0.9288 0 0 1 286.6875 401.9707)" font-size="8">(0018,9466)</text>
		
			<rect x="78.785" y="407.097" fill="#FFFFFF" stroke="#010101" stroke-width="0.75" stroke-linecap="round" stroke-linejoin="round" stroke-miterlimit="1" width="252.78" height="14"/>
		<rect x="82.911" y="410.27" fill="none" width="189.98" height="7.717"/>
		<text transform="matrix(0.9288 0 0 1 82.9106 415.9922)" font-size="8">&gt;Table Y Position to Isocenter</text>
		<rect x="286.707" y="410.27" fill="none" width="44.582" height="7.717"/>
		<text transform="matrix(0.9288 0 0 1 286.6875 415.9707)" font-size="8">(0018,9467)</text>
		
			<rect x="78.785" y="421.097" fill="#FFFFFF" stroke="#010101" stroke-width="0.75" stroke-linecap="round" stroke-linejoin="round" stroke-miterlimit="1" width="252.78" height="14"/>
		<rect x="82.911" y="424.27" fill="none" width="189.98" height="7.717"/>
		<text transform="matrix(0.9288 0 0 1 82.9106 429.9922)" font-size="8">&gt;Table Z Position to Isocenter</text>
		<rect x="286.707" y="424.27" fill="none" width="44.582" height="7.717"/>
		<text transform="matrix(0.9288 0 0 1 286.6875 429.9707)" font-size="8">(0018,9468)</text>
		
			<rect x="78.785" y="435.097" fill="#FFFFFF" stroke="#010101" stroke-width="0.75" stroke-linecap="round" stroke-linejoin="round" stroke-miterlimit="1" width="252.78" height="14"/>
		<rect x="82.911" y="438.27" fill="none" width="189.98" height="7.717"/>
		<text transform="matrix(0.9288 0 0 1 82.9106 443.9922)" font-size="8">&gt;Table Horizontal Rotation Angle</text>
		<rect x="286.707" y="438.27" fill="none" width="44.582" height="7.717"/>
		<text transform="matrix(0.9288 0 0 1 286.6875 443.9707)" font-size="8">(0018,9469)</text>
		
			<rect x="78.785" y="449.097" fill="#FFFFFF" stroke="#010101" stroke-width="0.75" stroke-linecap="round" stroke-linejoin="round" stroke-miterlimit="1" width="252.78" height="14"/>
		<rect x="82.911" y="452.27" fill="none" width="189.98" height="7.717"/>
		<text transform="matrix(0.9288 0 0 1 82.9106 457.9922)" font-size="8">&gt;Table Head Tilt Angle</text>
		<rect x="286.707" y="452.27" fill="none" width="44.582" height="7.717"/>
		<text transform="matrix(0.9288 0 0 1 286.6875 457.9707)" font-size="8">(0018,9470)</text>
		
			<rect x="78.785" y="463.097" fill="#FFFFFF" stroke="#010101" stroke-width="0.75" stroke-linecap="round" stroke-linejoin="round" stroke-miterlimit="1" width="252.78" height="14"/>
		<rect x="82.911" y="466.27" fill="none" width="189.98" height="7.717"/>
		<text transform="matrix(0.9288 0 0 1 82.9106 471.9922)" font-size="8">&gt;Table Cradle Tilt Angle</text>
		<rect x="286.707" y="466.27" fill="none" width="44.582" height="7.717"/>
		<text transform="matrix(0.9288 0 0 1 286.6875 471.9707)" font-size="8">(0018,9471)</text>
		
			<rect x="78.785" y="477.097" fill="#FFFFFF" stroke="#010101" stroke-width="0.75" stroke-linecap="round" stroke-linejoin="round" stroke-miterlimit="1" width="252.78" height="14"/>
		<rect x="82.911" y="480.27" fill="none" width="189.98" height="7.717"/>
		<text transform="matrix(0.9288 0 0 1 82.9106 485.9922)" font-size="8">&gt;... (other attributes of this acquisition context)</text>
	</g>
</g>
</svg>
