<?xml version="1.0" encoding="utf-8"?>

<!DOCTYPE svg PUBLIC "-//W3C//DTD SVG 1.1//EN" "http://www.w3.org/Graphics/SVG/1.1/DTD/svg11.dtd">
<svg version="1.1" id="Layer_1" xmlns="http://www.w3.org/2000/svg" xmlns:xlink="http://www.w3.org/1999/xlink" x="0px" y="0px"
	 width="552px" height="857px" viewBox="0 0 552 857" enable-background="new 0 0 552 857" xml:space="preserve">

<defs>
	<style type="text/css">
	text {
	  font-family: Helvetica, Verdana, ArialUnicodeMS, san-serif
	}
	</style>
</defs>

<g>
   <desc>
	PS 3.17 Part 17: Explanatory Information
   </desc>
</g>

<g>
	<rect x="1" y="1" fill="#F5EED6" width="550" height="855"/>
	<g>
		<rect x="342.813" y="19.764" fill="none" width="157.383" height="429.767"/>
		<text transform="matrix(0.9288 0 0 1 342.8135 25.4878)"><tspan x="0" y="0" font-size="8">= UID “Z”</tspan><tspan x="0" y="28" font-size="8">Two contributing sources in this example</tspan><tspan x="0" y="140" font-size="8">= XA Image or Enhanced XA Image</tspan><tspan x="0" y="154" font-size="8">= UID “C1”</tspan><tspan x="0" y="168" font-size="8">= UID “B1”</tspan><tspan x="0" y="182" font-size="8">= UID “A”</tspan><tspan x="0" y="196" font-size="8">= Date and time of the Instance “C1”</tspan><tspan x="0" y="210" font-size="8">= Protocol 1</tspan><tspan x="0" y="336" font-size="8">= XA Image or Enhanced XA Image</tspan><tspan x="0" y="350" font-size="8">= UID “C2”</tspan><tspan x="0" y="364" font-size="8">= UID “B2”</tspan><tspan x="0" y="378" font-size="8">= UID “A”</tspan><tspan x="0" y="392" font-size="8">= Date and time of the Instance “C2”</tspan><tspan x="0" y="406" font-size="8">= Protocol 2</tspan></text>
		<rect x="342.813" y="467.018" fill="none" width="157.383" height="178.193"/>
		<text transform="matrix(0.9288 0 0 1 342.8125 486.7402)"><tspan x="0" y="0" font-size="8">Acquisition context #1</tspan><tspan x="0" y="28" font-size="8">one source image for this acquisition context</tspan><tspan x="0" y="42" font-size="8">= XA Image or Enhanced XA Image</tspan><tspan x="0" y="56" font-size="8">= UID “C1”</tspan><tspan x="0" y="84" font-size="8">Acquisition context #2</tspan><tspan x="0" y="112" font-size="8">one source image for this acquisition context</tspan><tspan x="0" y="126" font-size="8">= XA Image or Enhanced XA Image</tspan><tspan x="0" y="140" font-size="8">= UID “C2”</tspan></text>
		<rect x="342.813" y="662.681" fill="none" width="157.383" height="52.26"/>
		<text transform="matrix(0.9288 0 0 1 342.8125 682.4043)"><tspan x="0" y="0" font-size="8">Reconstruction #1</tspan><tspan x="0" y="14" font-size="8">=1\2</tspan></text>
		
			<rect x="38.623" y="44.291" fill="#B2CEE7" stroke="#010101" stroke-width="0.75" stroke-linecap="round" stroke-linejoin="round" stroke-miterlimit="1" width="286.333" height="405.24"/>
		
			<rect x="55.398" y="58.289" fill="#86B2D8" stroke="#010101" stroke-width="0.75" stroke-linecap="round" stroke-linejoin="round" stroke-miterlimit="1" width="269.575" height="195.621"/>
		<rect x="42.763" y="47.762" fill="none" width="164.911" height="7.717"/>
		<text transform="matrix(0.9288 0 0 1 42.7671 53.4678)" font-size="8">Contributing Sources Sequence</text>
		<rect x="42.763" y="33.764" fill="none" width="164.911" height="7.717"/>
		<text transform="matrix(0.9288 0 0 1 42.7671 39.4697)" font-size="8">...</text>
		
			<rect x="72.194" y="71.929" fill="#FFFFFF" stroke="#010101" stroke-width="0.75" stroke-linecap="round" stroke-linejoin="round" stroke-miterlimit="1" width="252.762" height="140.028"/>
		
			<rect x="84.153" y="85.976" fill="#86B2D8" stroke="#010101" stroke-width="0.75" stroke-linecap="round" stroke-linejoin="round" stroke-miterlimit="1" width="240.82" height="125.981"/>
		
			<rect x="96.857" y="99.929" fill="#FFFFFF" stroke="#010101" stroke-width="0.75" stroke-linecap="round" stroke-linejoin="round" stroke-miterlimit="1" width="228.116" height="98.028"/>
		
			<rect x="109.857" y="113.882" fill="#86B2D8" stroke="#010101" stroke-width="0.75" stroke-linecap="round" stroke-linejoin="round" stroke-miterlimit="1" width="215.116" height="84.075"/>
		<rect x="76.32" y="76.157" fill="none" width="170.795" height="7.717"/>
		<text transform="matrix(0.9288 0 0 1 76.3203 81.8833)" font-size="8">&gt;Contributing SOP Instances Reference Sequence</text>
		<rect x="279.714" y="76.158" fill="none" width="44.984" height="7.716"/>
		<text transform="matrix(0.9288 0 0 1 279.6943 81.8628)" font-size="8">(0020,9529)</text>
		<rect x="279.714" y="47.763" fill="none" width="44.984" height="7.716"/>
		<text transform="matrix(0.9288 0 0 1 279.6943 53.4683)" font-size="8">(0018,9506)</text>
		<rect x="87.486" y="90.672" fill="none" width="108.835" height="7.717"/>
		<text transform="matrix(0.9288 0 0 1 87.4863 96.395)" font-size="8">Item 1</text>
		<rect x="113.607" y="118.505" fill="none" width="136.597" height="7.717"/>
		<text transform="matrix(0.9288 0 0 1 113.6113 124.2021)" font-size="8">Item 1</text>
		<rect x="58.003" y="62.875" fill="none" width="127.731" height="7.721"/>
		<text transform="matrix(0.9288 0 0 1 58.0078 68.5796)" font-size="8">Item 1</text>
		<rect x="100.566" y="104.589" fill="none" width="136.597" height="7.717"/>
		<text transform="matrix(0.9288 0 0 1 100.5703 110.2842)" font-size="8">&gt;&gt;Reference Series Sequence</text>
		<rect x="280.116" y="104.589" fill="none" width="44.582" height="7.717"/>
		<text transform="matrix(0.9288 0 0 1 280.0967 110.2896)" font-size="8">(0008,1115)</text>
		
			<rect x="122.546" y="127.959" fill="#FFFFFF" stroke="#010101" stroke-width="0.75" stroke-linecap="round" stroke-linejoin="round" stroke-miterlimit="1" width="202.428" height="56"/>
		<rect x="126.816" y="132.544" fill="none" width="127.75" height="7.721"/>
		<text transform="matrix(0.9288 0 0 1 126.8208 138.2476)" font-size="8">&gt;&gt;&gt;Referenced Instance Sequence</text>
		<rect x="279.714" y="132.547" fill="none" width="44.984" height="7.716"/>
		<text transform="matrix(0.9288 0 0 1 279.6943 138.2471)" font-size="8">(0008,114a)</text>
		
			<rect x="38.623" y="16.293" fill="#B2CEE7" stroke="#010101" stroke-width="0.75" stroke-linecap="round" stroke-linejoin="round" stroke-miterlimit="1" width="286.333" height="13.998"/>
		<rect x="42.763" y="19.764" fill="none" width="164.911" height="7.717"/>
		<text transform="matrix(0.9288 0 0 1 42.7671 25.4697)" font-size="8">SOP Instance UID</text>
		<rect x="279.714" y="19.764" fill="none" width="44.984" height="7.716"/>
		<text transform="matrix(0.9288 0 0 1 279.6943 25.4683)" font-size="8">(0008,0018)</text>
		
			<rect x="122.546" y="183.957" fill="#FFFFFF" stroke="#010101" stroke-width="0.75" stroke-linecap="round" stroke-linejoin="round" stroke-miterlimit="1" width="202.428" height="14"/>
		<rect x="126.816" y="187.097" fill="none" width="127.75" height="7.721"/>
		<text transform="matrix(0.9288 0 0 1 126.8208 192.7998)" font-size="8">&gt;&gt;&gt;Series Instance UID</text>
		<rect x="280.116" y="187.099" fill="none" width="44.582" height="7.717"/>
		<text transform="matrix(0.9288 0 0 1 280.0957 192.7998)" font-size="8">(0020,000e)</text>
		
			<rect x="135.675" y="141.959" fill="#86B2D8" stroke="#010101" stroke-width="0.75" stroke-linecap="round" stroke-linejoin="round" stroke-miterlimit="1" width="189.285" height="42"/>
		
			<rect x="148.363" y="155.959" fill="#FFFFFF" stroke="#010101" stroke-width="0.75" stroke-linecap="round" stroke-linejoin="round" stroke-miterlimit="1" width="176.597" height="14"/>
		<rect x="152.633" y="159.099" fill="none" width="123.659" height="7.721"/>
		<text transform="matrix(0.9288 0 0 1 152.6348 164.8018)" font-size="8">&gt;&gt;&gt;&gt;Referenced SOP Class UID</text>
		
			<rect x="148.363" y="169.959" fill="#FFFFFF" stroke="#010101" stroke-width="0.75" stroke-linecap="round" stroke-linejoin="round" stroke-miterlimit="1" width="176.597" height="14"/>
		<rect x="279.716" y="158.741" fill="none" width="44.582" height="7.717"/>
		<text transform="matrix(0.9288 0 0 1 279.6934 164.4419)" font-size="8">(0008,1150)</text>
		<rect x="279.716" y="172.741" fill="none" width="44.582" height="7.717"/>
		<text transform="matrix(0.9288 0 0 1 279.6934 178.4419)" font-size="8">(0008,1155)</text>
		<rect x="143.133" y="146.547" fill="none" width="158.989" height="7.717"/>
		<text transform="matrix(0.9288 0 0 1 143.1387 152.25)" font-size="8">Item 1</text>
		
			<rect x="72.194" y="211.957" fill="#FFFFFF" stroke="#010101" stroke-width="0.75" stroke-linecap="round" stroke-linejoin="round" stroke-miterlimit="1" width="252.779" height="14"/>
		
			<rect x="96.857" y="197.957" fill="#FFFFFF" stroke="#010101" stroke-width="0.75" stroke-linecap="round" stroke-linejoin="round" stroke-miterlimit="1" width="228.116" height="14"/>
		<rect x="76.32" y="215.129" fill="none" width="189.98" height="7.717"/>
		<text transform="matrix(0.9288 0 0 1 76.3203 220.8521)" font-size="8">&gt;Acquisition Datetime</text>
		<rect x="152.633" y="173.099" fill="none" width="123.659" height="7.721"/>
		<text transform="matrix(0.9288 0 0 1 152.6348 178.8018)" font-size="8">&gt;&gt;&gt;&gt;Referenced SOP Instance UID</text>
		<rect x="100.566" y="201.099" fill="none" width="136.597" height="7.717"/>
		<text transform="matrix(0.9288 0 0 1 100.5703 206.7939)" font-size="8">&gt;&gt;Study Instance UID</text>
		<rect x="280.116" y="201.099" fill="none" width="44.582" height="7.717"/>
		<text transform="matrix(0.9288 0 0 1 280.0967 206.7993)" font-size="8">(0020,000d)</text>
		<rect x="280.116" y="215.129" fill="none" width="44.582" height="7.717"/>
		<text transform="matrix(0.9288 0 0 1 280.0967 220.8296)" font-size="8">(0008,002A)</text>
		
			<rect x="72.194" y="226.037" fill="#FFFFFF" stroke="#010101" stroke-width="0.75" stroke-linecap="round" stroke-linejoin="round" stroke-miterlimit="1" width="252.779" height="14"/>
		<rect x="76.32" y="229.209" fill="none" width="189.98" height="7.717"/>
		<text transform="matrix(0.9288 0 0 1 76.3203 234.9321)" font-size="8">&gt;Acquisition Protocol Name</text>
		<rect x="280.116" y="229.209" fill="none" width="44.582" height="7.717"/>
		<text transform="matrix(0.9288 0 0 1 280.0967 234.9097)" font-size="8">(0018,9423)</text>
		
			<rect x="38.623" y="463.545" fill="#B2CEE7" stroke="#010101" stroke-width="0.75" stroke-linecap="round" stroke-linejoin="round" stroke-miterlimit="1" width="286.333" height="181.667"/>
		
			<rect x="55.398" y="477.543" fill="#86B2D8" stroke="#010101" stroke-width="0.75" stroke-linecap="round" stroke-linejoin="round" stroke-miterlimit="1" width="269.575" height="83.71"/>
		<rect x="42.763" y="467.017" fill="none" width="164.911" height="7.717"/>
		<text transform="matrix(0.9288 0 0 1 42.7671 472.7188)" font-size="8">X-Ray 3D Acquisition Sequence</text>
		<rect x="42.763" y="453.019" fill="none" width="164.911" height="7.717"/>
		<text transform="matrix(0.9288 0 0 1 42.7671 458.7207)" font-size="8">...</text>
		
			<rect x="72.194" y="491.183" fill="#FFFFFF" stroke="#010101" stroke-width="0.75" stroke-linecap="round" stroke-linejoin="round" stroke-miterlimit="1" width="252.762" height="55.906"/>
		
			<rect x="84.153" y="505.23" fill="#86B2D8" stroke="#010101" stroke-width="0.75" stroke-linecap="round" stroke-linejoin="round" stroke-miterlimit="1" width="240.82" height="41.858"/>
		
			<rect x="96.857" y="519.183" fill="#FFFFFF" stroke="#010101" stroke-width="0.75" stroke-linecap="round" stroke-linejoin="round" stroke-miterlimit="1" width="228.116" height="13.953"/>
		<rect x="76.32" y="495.412" fill="none" width="170.795" height="7.717"/>
		<text transform="matrix(0.9288 0 0 1 76.3203 501.1348)" font-size="8">&gt;Source Image Sequence</text>
		<rect x="279.714" y="495.412" fill="none" width="44.984" height="7.716"/>
		<text transform="matrix(0.9288 0 0 1 279.6943 501.1152)" font-size="8">(0008,2112)</text>
		<rect x="279.714" y="467.018" fill="none" width="44.984" height="7.715"/>
		<text transform="matrix(0.9288 0 0 1 279.6943 472.7197)" font-size="8">(0018,9507)</text>
		<rect x="87.486" y="509.926" fill="none" width="108.835" height="7.718"/>
		<text transform="matrix(0.9288 0 0 1 87.4863 515.6494)" font-size="8">Item 1</text>
		<rect x="58.003" y="482.129" fill="none" width="127.731" height="7.721"/>
		<text transform="matrix(0.9288 0 0 1 58.0078 487.8311)" font-size="8">Item 1</text>
		<rect x="100.566" y="523.843" fill="none" width="136.597" height="7.717"/>
		<text transform="matrix(0.9288 0 0 1 100.5703 529.5391)" font-size="8">&gt;&gt;Referenced SOP Class UID</text>
		<rect x="280.116" y="523.843" fill="none" width="44.582" height="7.717"/>
		<text transform="matrix(0.9288 0 0 1 280.0967 529.5439)" font-size="8">(0008,1150)</text>
		
			<rect x="96.857" y="533.136" fill="#FFFFFF" stroke="#010101" stroke-width="0.75" stroke-linecap="round" stroke-linejoin="round" stroke-miterlimit="1" width="228.116" height="13.953"/>
		<rect x="100.566" y="537.796" fill="none" width="136.597" height="7.717"/>
		<text transform="matrix(0.9288 0 0 1 100.5703 543.4922)" font-size="8">&gt;&gt;Referenced SOP Instance UID</text>
		<rect x="280.116" y="537.796" fill="none" width="44.582" height="7.717"/>
		<text transform="matrix(0.9288 0 0 1 280.0967 543.4971)" font-size="8">(0008,1155)</text>
		
			<rect x="72.194" y="547.128" fill="#FFFFFF" stroke="#010101" stroke-width="0.75" stroke-linecap="round" stroke-linejoin="round" stroke-miterlimit="1" width="252.779" height="14"/>
		<rect x="76.32" y="550.3" fill="none" width="189.98" height="7.717"/>
		<text transform="matrix(0.9288 0 0 1 76.3203 556.0225)" font-size="8">&gt;... (other attributes of this source: kVp, mA, FOV, filter...)</text>
		
			<rect x="55.398" y="561.253" fill="#86B2D8" stroke="#010101" stroke-width="0.75" stroke-linecap="round" stroke-linejoin="round" stroke-miterlimit="1" width="269.575" height="83.71"/>
		
			<rect x="72.194" y="574.893" fill="#FFFFFF" stroke="#010101" stroke-width="0.75" stroke-linecap="round" stroke-linejoin="round" stroke-miterlimit="1" width="252.762" height="55.906"/>
		
			<rect x="84.153" y="588.94" fill="#86B2D8" stroke="#010101" stroke-width="0.75" stroke-linecap="round" stroke-linejoin="round" stroke-miterlimit="1" width="240.82" height="41.858"/>
		
			<rect x="96.857" y="602.893" fill="#FFFFFF" stroke="#010101" stroke-width="0.75" stroke-linecap="round" stroke-linejoin="round" stroke-miterlimit="1" width="228.116" height="13.953"/>
		<rect x="76.32" y="579.122" fill="none" width="170.795" height="7.717"/>
		<text transform="matrix(0.9288 0 0 1 76.3203 584.8447)" font-size="8">&gt;Source Image Sequence</text>
		<rect x="279.714" y="579.122" fill="none" width="44.984" height="7.716"/>
		<text transform="matrix(0.9288 0 0 1 279.6943 584.8242)" font-size="8">(0008,2112)</text>
		<rect x="87.486" y="593.636" fill="none" width="108.835" height="7.718"/>
		<text transform="matrix(0.9288 0 0 1 87.4863 599.3594)" font-size="8">Item 1</text>
		<rect x="58.003" y="565.839" fill="none" width="127.731" height="7.721"/>
		<text transform="matrix(0.9288 0 0 1 58.0078 571.541)" font-size="8">Item 2</text>
		<rect x="100.566" y="607.553" fill="none" width="136.597" height="7.717"/>
		<text transform="matrix(0.9288 0 0 1 100.5703 613.248)" font-size="8">&gt;&gt;Referenced SOP Class UID</text>
		<rect x="280.116" y="607.553" fill="none" width="44.582" height="7.717"/>
		<text transform="matrix(0.9288 0 0 1 280.0967 613.2539)" font-size="8">(0008,1150)</text>
		
			<rect x="96.857" y="616.846" fill="#FFFFFF" stroke="#010101" stroke-width="0.75" stroke-linecap="round" stroke-linejoin="round" stroke-miterlimit="1" width="228.116" height="13.953"/>
		<rect x="100.566" y="621.506" fill="none" width="136.597" height="7.717"/>
		<text transform="matrix(0.9288 0 0 1 100.5703 627.2012)" font-size="8">&gt;&gt;Referenced SOP Instance UID</text>
		<rect x="280.116" y="621.506" fill="none" width="44.582" height="7.717"/>
		<text transform="matrix(0.9288 0 0 1 280.0967 627.207)" font-size="8">(0008,1155)</text>
		
			<rect x="72.194" y="630.838" fill="#FFFFFF" stroke="#010101" stroke-width="0.75" stroke-linecap="round" stroke-linejoin="round" stroke-miterlimit="1" width="252.779" height="14"/>
		<rect x="76.32" y="634.01" fill="none" width="189.98" height="7.717"/>
		<text transform="matrix(0.9288 0 0 1 76.3203 639.7324)" font-size="8">&gt;... (other attributes of this source: kVp, mA, FOV, filter...)</text>
		
			<rect x="38.623" y="659.209" fill="#B2CEE7" stroke="#010101" stroke-width="0.75" stroke-linecap="round" stroke-linejoin="round" stroke-miterlimit="1" width="286.333" height="55.638"/>
		
			<rect x="55.398" y="673.207" fill="#86B2D8" stroke="#010101" stroke-width="0.75" stroke-linecap="round" stroke-linejoin="round" stroke-miterlimit="1" width="269.575" height="41.733"/>
		<rect x="42.763" y="662.681" fill="none" width="164.911" height="7.717"/>
		<text transform="matrix(0.9288 0 0 1 42.7671 668.3828)" font-size="8">X-Ray 3D Reconstruction Sequence</text>
		<rect x="42.763" y="648.683" fill="none" width="164.911" height="7.717"/>
		<text transform="matrix(0.9288 0 0 1 42.7671 654.3848)" font-size="8">...</text>
		<rect x="42.763" y="718.105" fill="none" width="164.911" height="7.717"/>
		<text transform="matrix(0.9288 0 0 1 42.7671 723.8086)" font-size="8">...</text>
		
			<rect x="72.194" y="686.847" fill="#FFFFFF" stroke="#010101" stroke-width="0.75" stroke-linecap="round" stroke-linejoin="round" stroke-miterlimit="1" width="252.762" height="14.047"/>
		<rect x="76.32" y="691.075" fill="none" width="170.795" height="7.717"/>
		<text transform="matrix(0.9288 0 0 1 76.3203 696.7988)" font-size="8">&gt;Acquisition Index</text>
		<rect x="279.714" y="691.076" fill="none" width="44.984" height="7.716"/>
		<text transform="matrix(0.9288 0 0 1 279.6943 696.7793)" font-size="8">(0020,9518)</text>
		
			<rect x="72.194" y="700.894" fill="#FFFFFF" stroke="#010101" stroke-width="0.75" stroke-linecap="round" stroke-linejoin="round" stroke-miterlimit="1" width="252.762" height="14.047"/>
		<rect x="76.32" y="705.122" fill="none" width="170.795" height="7.717"/>
		<text transform="matrix(0.9288 0 0 1 76.3203 710.8457)" font-size="8">&gt;... (other attributes related to this reconstruction)</text>
		<rect x="279.714" y="662.681" fill="none" width="44.984" height="7.717"/>
		<text transform="matrix(0.9288 0 0 1 279.6943 668.3838)" font-size="8">(0018,9530)</text>
		<rect x="58.003" y="677.793" fill="none" width="127.731" height="7.721"/>
		<text transform="matrix(0.9288 0 0 1 58.0078 683.4951)" font-size="8">Item 1</text>
		
			<rect x="72.194" y="239.91" fill="#FFFFFF" stroke="#010101" stroke-width="0.75" stroke-linecap="round" stroke-linejoin="round" stroke-miterlimit="1" width="252.779" height="14"/>
		<rect x="76.32" y="243.082" fill="none" width="189.98" height="7.717"/>
		<text transform="matrix(0.9288 0 0 1 76.3203 248.8052)" font-size="8">&gt;... (other attributes from the contributing image sources)</text>
		
			<rect x="55.398" y="253.91" fill="#86B2D8" stroke="#010101" stroke-width="0.75" stroke-linecap="round" stroke-linejoin="round" stroke-miterlimit="1" width="269.575" height="195.621"/>
		
			<rect x="72.194" y="267.55" fill="#FFFFFF" stroke="#010101" stroke-width="0.75" stroke-linecap="round" stroke-linejoin="round" stroke-miterlimit="1" width="252.762" height="140.028"/>
		
			<rect x="84.153" y="281.597" fill="#86B2D8" stroke="#010101" stroke-width="0.75" stroke-linecap="round" stroke-linejoin="round" stroke-miterlimit="1" width="240.82" height="125.981"/>
		
			<rect x="96.857" y="295.55" fill="#FFFFFF" stroke="#010101" stroke-width="0.75" stroke-linecap="round" stroke-linejoin="round" stroke-miterlimit="1" width="228.116" height="98.028"/>
		
			<rect x="109.857" y="309.503" fill="#86B2D8" stroke="#010101" stroke-width="0.75" stroke-linecap="round" stroke-linejoin="round" stroke-miterlimit="1" width="215.116" height="84.075"/>
		<rect x="76.32" y="271.778" fill="none" width="170.795" height="7.717"/>
		<text transform="matrix(0.9288 0 0 1 76.3203 277.5015)" font-size="8">&gt;Contributing SOP Instances Reference Sequence</text>
		<rect x="279.714" y="271.779" fill="none" width="44.984" height="7.716"/>
		<text transform="matrix(0.9288 0 0 1 279.6943 277.4814)" font-size="8">(0020,9529)</text>
		<rect x="87.486" y="286.293" fill="none" width="108.835" height="7.717"/>
		<text transform="matrix(0.9288 0 0 1 87.4863 292.0161)" font-size="8">Item 1</text>
		<rect x="113.607" y="314.126" fill="none" width="136.597" height="7.717"/>
		<text transform="matrix(0.9288 0 0 1 113.6113 319.8232)" font-size="8">Item 1</text>
		<rect x="58.003" y="258.496" fill="none" width="127.731" height="7.721"/>
		<text transform="matrix(0.9288 0 0 1 58.0078 264.1978)" font-size="8">Item 2</text>
		<rect x="100.566" y="300.21" fill="none" width="136.597" height="7.717"/>
		<text transform="matrix(0.9288 0 0 1 100.5703 305.9053)" font-size="8">&gt;&gt;Reference Series Sequence</text>
		<rect x="280.116" y="300.21" fill="none" width="44.582" height="7.717"/>
		<text transform="matrix(0.9288 0 0 1 280.0967 305.9106)" font-size="8">(0008,1115)</text>
		
			<rect x="122.546" y="323.58" fill="#FFFFFF" stroke="#010101" stroke-width="0.75" stroke-linecap="round" stroke-linejoin="round" stroke-miterlimit="1" width="202.428" height="56"/>
		<rect x="126.816" y="328.166" fill="none" width="127.75" height="7.721"/>
		<text transform="matrix(0.9288 0 0 1 126.8208 333.8687)" font-size="8">&gt;&gt;&gt;Referenced Instance Sequence</text>
		<rect x="279.714" y="328.168" fill="none" width="44.984" height="7.716"/>
		<text transform="matrix(0.9288 0 0 1 279.6943 333.8682)" font-size="8">(0008,114a)</text>
		
			<rect x="122.546" y="379.578" fill="#FFFFFF" stroke="#010101" stroke-width="0.75" stroke-linecap="round" stroke-linejoin="round" stroke-miterlimit="1" width="202.428" height="14"/>
		<rect x="126.816" y="382.718" fill="none" width="127.75" height="7.721"/>
		<text transform="matrix(0.9288 0 0 1 126.8208 388.4209)" font-size="8">&gt;&gt;&gt;Series Instance UID</text>
		<rect x="280.116" y="382.72" fill="none" width="44.582" height="7.717"/>
		<text transform="matrix(0.9288 0 0 1 280.0957 388.4209)" font-size="8">(0020,000e)</text>
		
			<rect x="135.675" y="337.58" fill="#86B2D8" stroke="#010101" stroke-width="0.75" stroke-linecap="round" stroke-linejoin="round" stroke-miterlimit="1" width="189.285" height="42"/>
		
			<rect x="148.363" y="351.58" fill="#FFFFFF" stroke="#010101" stroke-width="0.75" stroke-linecap="round" stroke-linejoin="round" stroke-miterlimit="1" width="176.597" height="14"/>
		<rect x="152.633" y="354.72" fill="none" width="123.659" height="7.721"/>
		<text transform="matrix(0.9288 0 0 1 152.6348 360.4229)" font-size="8">&gt;&gt;&gt;&gt;Referenced SOP Class UID</text>
		
			<rect x="148.363" y="365.58" fill="#FFFFFF" stroke="#010101" stroke-width="0.75" stroke-linecap="round" stroke-linejoin="round" stroke-miterlimit="1" width="176.597" height="14"/>
		<rect x="279.716" y="354.361" fill="none" width="44.582" height="7.717"/>
		<text transform="matrix(0.9288 0 0 1 279.6934 360.063)" font-size="8">(0008,1150)</text>
		<rect x="279.716" y="368.361" fill="none" width="44.582" height="7.717"/>
		<text transform="matrix(0.9288 0 0 1 279.6934 374.063)" font-size="8">(0008,1155)</text>
		<rect x="143.133" y="342.168" fill="none" width="158.989" height="7.717"/>
		<text transform="matrix(0.9288 0 0 1 143.1387 347.8711)" font-size="8">Item 1</text>
		
			<rect x="72.194" y="407.578" fill="#FFFFFF" stroke="#010101" stroke-width="0.75" stroke-linecap="round" stroke-linejoin="round" stroke-miterlimit="1" width="252.779" height="14"/>
		
			<rect x="96.857" y="393.578" fill="#FFFFFF" stroke="#010101" stroke-width="0.75" stroke-linecap="round" stroke-linejoin="round" stroke-miterlimit="1" width="228.116" height="14"/>
		<rect x="76.32" y="410.75" fill="none" width="189.98" height="7.717"/>
		<text transform="matrix(0.9288 0 0 1 76.3203 416.4731)" font-size="8">&gt;Acquisition Datetime</text>
		<rect x="152.633" y="368.72" fill="none" width="123.659" height="7.721"/>
		<text transform="matrix(0.9288 0 0 1 152.6348 374.4229)" font-size="8">&gt;&gt;&gt;&gt;Referenced SOP Instance UID</text>
		<rect x="100.566" y="396.72" fill="none" width="136.597" height="7.717"/>
		<text transform="matrix(0.9288 0 0 1 100.5703 402.415)" font-size="8">&gt;&gt;Study Instance UID</text>
		<rect x="280.116" y="396.72" fill="none" width="44.582" height="7.717"/>
		<text transform="matrix(0.9288 0 0 1 280.0967 402.4204)" font-size="8">(0020,000d)</text>
		<rect x="280.116" y="410.75" fill="none" width="44.582" height="7.717"/>
		<text transform="matrix(0.9288 0 0 1 280.0967 416.4507)" font-size="8">(0008,002A)</text>
		
			<rect x="72.194" y="421.658" fill="#FFFFFF" stroke="#010101" stroke-width="0.75" stroke-linecap="round" stroke-linejoin="round" stroke-miterlimit="1" width="252.779" height="14"/>
		<rect x="76.32" y="424.83" fill="none" width="189.98" height="7.717"/>
		<text transform="matrix(0.9288 0 0 1 76.3203 430.5527)" font-size="8">&gt;Acquisition Protocol Name</text>
		<rect x="280.116" y="424.83" fill="none" width="44.582" height="7.717"/>
		<text transform="matrix(0.9288 0 0 1 280.0967 430.5312)" font-size="8">(0018,9423)</text>
		
			<rect x="72.194" y="435.531" fill="#FFFFFF" stroke="#010101" stroke-width="0.75" stroke-linecap="round" stroke-linejoin="round" stroke-miterlimit="1" width="252.779" height="14"/>
		<rect x="76.32" y="438.703" fill="none" width="189.98" height="7.717"/>
		<text transform="matrix(0.9288 0 0 1 76.3203 444.4258)" font-size="8">&gt;... (other attributes from the contributing image sources)</text>
		<rect x="342.812" y="732.494" fill="none" width="170.564" height="108.213"/>
		<text transform="matrix(0.9288 0 0 1 342.8125 752.2178)"><tspan x="0" y="0" font-size="8">Common to all frames of the X-Ray 3D</tspan><tspan x="0" y="56" font-size="8">= 1 (all frames share the same reconstruction data)</tspan></text>
		
			<rect x="38.623" y="729.021" fill="#B2CEE7" stroke="#010101" stroke-width="0.75" stroke-linecap="round" stroke-linejoin="round" stroke-miterlimit="1" width="286.332" height="111.686"/>
		
			<rect x="55.398" y="743.02" fill="#86B2D8" stroke="#010101" stroke-width="0.75" stroke-linecap="round" stroke-linejoin="round" stroke-miterlimit="1" width="269.574" height="97.688"/>
		<rect x="42.763" y="732.494" fill="none" width="164.911" height="7.717"/>
		<text transform="matrix(0.9288 0 0 1 42.7671 738.1973)" font-size="8">Shared Functional Group Sequence</text>
		<rect x="279.713" y="732.494" fill="none" width="44.984" height="7.717"/>
		<text transform="matrix(0.9288 0 0 1 279.6943 738.1973)" font-size="8">(5200,9229)</text>
		<rect x="58.003" y="747.606" fill="none" width="127.731" height="7.721"/>
		<text transform="matrix(0.9288 0 0 1 58.0078 753.3086)" font-size="8">Item 1</text>
		
			<rect x="72.194" y="770.623" fill="#FFFFFF" stroke="#010101" stroke-width="0.75" stroke-linecap="round" stroke-linejoin="round" stroke-miterlimit="1" width="252.761" height="56.084"/>
		
			<rect x="84.153" y="784.67" fill="#86B2D8" stroke="#010101" stroke-width="0.75" stroke-linecap="round" stroke-linejoin="round" stroke-miterlimit="1" width="240.819" height="42.037"/>
		
			<rect x="96.857" y="798.623" fill="#FFFFFF" stroke="#010101" stroke-width="0.75" stroke-linecap="round" stroke-linejoin="round" stroke-miterlimit="1" width="228.115" height="13.953"/>
		<rect x="76.32" y="774.852" fill="none" width="170.795" height="7.717"/>
		<text transform="matrix(0.9288 0 0 1 76.3203 780.5752)" font-size="8">&gt;X-Ray 3D Frame Type Sequence</text>
		<rect x="279.713" y="774.853" fill="none" width="44.984" height="7.716"/>
		<text transform="matrix(0.9288 0 0 1 279.6943 780.5547)" font-size="8">(0018,9504)</text>
		<rect x="279.713" y="803.283" fill="none" width="44.984" height="7.716"/>
		<text transform="matrix(0.9288 0 0 1 279.6943 808.9863)" font-size="8">(0020,9536)</text>
		<rect x="87.486" y="789.367" fill="none" width="108.836" height="7.717"/>
		<text transform="matrix(0.9288 0 0 1 87.4863 795.0898)" font-size="8">Item 1</text>
		<rect x="100.566" y="803.283" fill="none" width="136.596" height="7.717"/>
		<text transform="matrix(0.9288 0 0 1 100.5703 808.9785)" font-size="8">&gt;&gt;Reconstruction Index</text>
		
			<rect x="96.857" y="812.754" fill="#FFFFFF" stroke="#010101" stroke-width="0.75" stroke-linecap="round" stroke-linejoin="round" stroke-miterlimit="1" width="228.115" height="13.953"/>
		<rect x="100.566" y="817.414" fill="none" width="136.596" height="7.717"/>
		<text transform="matrix(0.9288 0 0 1 100.5703 823.1094)" font-size="8">&gt;&gt;...</text>
		
			<rect x="72.194" y="756.623" fill="#FFFFFF" stroke="#010101" stroke-width="0.75" stroke-linecap="round" stroke-linejoin="round" stroke-miterlimit="1" width="252.778" height="14"/>
		<rect x="76.32" y="759.795" fill="none" width="189.98" height="7.717"/>
		<text transform="matrix(0.9288 0 0 1 76.3203 765.5176)" font-size="8">...</text>
		
			<rect x="72.194" y="826.707" fill="#FFFFFF" stroke="#010101" stroke-width="0.75" stroke-linecap="round" stroke-linejoin="round" stroke-miterlimit="1" width="252.778" height="14"/>
		<rect x="76.32" y="829.879" fill="none" width="189.98" height="7.717"/>
		<text transform="matrix(0.9288 0 0 1 76.3203 835.6016)" font-size="8">...</text>
	</g>
</g>
</svg>
