<?xml version="1.0" encoding="utf-8"?>

<!DOCTYPE svg PUBLIC "-//W3C//DTD SVG 1.1//EN" "http://www.w3.org/Graphics/SVG/1.1/DTD/svg11.dtd">
<svg version="1.1" id="Layer_1" xmlns="http://www.w3.org/2000/svg" xmlns:xlink="http://www.w3.org/1999/xlink" x="0px" y="0px"
	 width="502px" height="262px" viewBox="0 0 502 262" enable-background="new 0 0 502 262" xml:space="preserve">

<defs>
	<style type="text/css">
	text {
	  font-family: Helvetica, Verdana, ArialUnicodeMS, san-serif
	}
	</style>
</defs>

<g>
   <desc>
	PS 3.17 Part 17: Explanatory Information
   </desc>
</g>

<g>
	<rect x="1" y="1" fill="#F5EED6" width="500" height="260"/>
	<g>
		
			<polygon opacity="0.6" fill="#E3ECF5" stroke="#808285" stroke-width="0.5" stroke-miterlimit="1" stroke-dasharray="2,2" points="
			16.365,147.945 362.71,237.898 398.554,182.186 98.6,123.711 81.069,128.877 55.328,123.015 19.12,133.674 42.402,140.684 		"/>
		<g>
			<g>
				<path fill="#FEDA00" d="M188.343,198.929c2.625-2.253,3.8-5.414,2.622-7.061c-1.178-1.646-4.26-1.154-6.886,1.101
					c-2.627,2.253-3.8,5.413-2.623,7.06C182.635,201.676,185.716,201.183,188.343,198.929z"/>
				<path d="M186.498,196.143c-0.259,0.222-0.563,0.267-0.683,0.102c-0.119-0.167-0.007-0.481,0.251-0.702
					c0.259-0.222,0.563-0.268,0.682-0.1C186.867,195.608,186.756,195.921,186.498,196.143z"/>
				<path d="M184.959,196.392c0.039-0.406,0.319-0.899,0.771-1.286c0.032-0.029,0.066-0.056,0.102-0.083l-1.306-1.826
					c-0.034,0.028-0.069,0.057-0.102,0.084c-1.524,1.31-2.481,2.973-2.638,4.353L184.959,196.392z"/>
				<path d="M185.471,197.107c0.369,0.056,0.874-0.125,1.323-0.513c0.035-0.028,0.067-0.059,0.1-0.09l1.306,1.828
					c-0.033,0.029-0.065,0.057-0.099,0.086c-1.525,1.309-3.228,1.93-4.49,1.765L185.471,197.107z"/>
				<path d="M186.958,194.575c0.372,0.051,0.656,0.287,0.61,0.73c-0.004,0.034-0.009,0.067-0.016,0.102l3.108-1.194
					c0.004-0.032,0.008-0.065,0.011-0.1c0.154-1.504-0.691-2.397-1.937-2.591L186.958,194.575z"/>
			</g>
			
				<ellipse transform="matrix(0.6868 0.7269 -0.7269 0.6868 200.7608 -73.9971)" fill="none" stroke="#ED1C24" stroke-width="0.5" stroke-linejoin="round" cx="186.236" cy="195.935" rx="3.625" ry="6.382"/>
			<path fill="#CCCCCC" stroke="#ED1C24" stroke-width="0.5" stroke-linejoin="round" d="M190.874,191.552
				c1.375,1.455,0.414,4.598-2.148,7.019c-2.562,2.421-5.753,3.203-7.128,1.748l8.999,10.076c1.215,1.286,4.033,0.595,6.295-1.543
				c2.263-2.137,3.309-4.89,2.272-6.334L190.874,191.552z"/>
		</g>
		<polygon opacity="0.6" fill="#97A6C5" stroke="#000000" stroke-width="0.5" stroke-miterlimit="1" points="104.696,147.189 
			451.041,237.143 486.885,181.43 186.931,122.955 169.4,128.121 143.659,122.26 107.451,132.918 130.734,139.928 		"/>
		<g opacity="0.8">
			<polygon fill="#EDF3F9" stroke="#000000" stroke-width="0.5" stroke-miterlimit="1" points="201.879,152.467 174.35,146.049 
				174.35,115.468 201.879,120.693 			"/>
			<polygon fill="#C9D7EA" stroke="#000000" stroke-width="0.5" stroke-miterlimit="1" points="221.771,112.299 193.989,107.674 
				174.433,115.468 203.233,120.693 			"/>
			<polygon fill="#4F8ABE" stroke="#000000" stroke-width="0.5" stroke-miterlimit="1" points="221.771,142.35 201.878,152.674 
				201.878,120.695 221.771,112.299 			"/>
		</g>
		<g>
			<text transform="matrix(1 0 0 1 409.8203 198.0488)" font-size="9">X-Ray Table</text>
		</g>
		<text transform="matrix(1 0 0 1 200.918 217.2754)"><tspan x="0" y="0" font-size="9">X-Ray</tspan><tspan x="-1.755" y="10.8" font-size="9">Source</tspan></text>
		<g>
			<g>
				
					<line fill="none" stroke="#808285" stroke-linecap="round" stroke-linejoin="round" x1="76.898" y1="53.694" x2="77.204" y2="54.091"/>
				
					<line fill="none" stroke="#808285" stroke-linecap="round" stroke-linejoin="round" stroke-dasharray="0.9928,1.9857" x1="78.415" y1="55.664" x2="183.168" y2="191.786"/>
				
					<line fill="none" stroke="#808285" stroke-linecap="round" stroke-linejoin="round" x1="183.774" y1="192.572" x2="184.079" y2="192.969"/>
			</g>
		</g>
		<g>
			<g>
				<text transform="matrix(1 -0.0019 0.0019 1 91.6504 108.2598)" fill="#00AEEF" font-size="11">+Z</text>
				<text transform="matrix(1 -0.0019 0.0019 1 158.3706 104.626)" fill="#ED1C24" font-size="11">+X</text>
				<text transform="matrix(1 -0.0019 0.0019 1 112.6948 166.252)" fill="#0DB14B" font-size="11">+Y</text>
				<g>
					<g>
						<line fill="none" stroke="#0DB14B" stroke-width="1.9059" x1="129.286" y1="119.808" x2="129.286" y2="151.366"/>
						<g>
							<polygon fill="#0DB14B" points="126.518,149.478 129.286,159.809 132.055,149.478 							"/>
						</g>
					</g>
				</g>
				<g>
					<g>
						<line fill="none" stroke="#ED1C24" stroke-width="2.2517" x1="128.835" y1="121.308" x2="154.333" y2="109.773"/>
						<g>
							<polygon fill="#ED1C24" points="153.649,113.673 163.421,105.663 150.953,107.713 							"/>
						</g>
					</g>
				</g>
				<g>
					<g>
						<line fill="none" stroke="#00AEEF" stroke-width="2.2517" x1="128.974" y1="121.093" x2="102.347" y2="114.191"/>
						<g>
							<polygon fill="#00AEEF" points="105.327,111.584 92.691,111.688 103.685,117.917 							"/>
						</g>
					</g>
				</g>
				<g>
					<path stroke="#000000" stroke-width="0.7506" stroke-miterlimit="1" d="M136.081,119.804c0.003-3.673-2.973-6.645-6.644-6.645
						v6.649L136.081,119.804z"/>
					
						<path fill="#FFFFFF" stroke="#010101" stroke-width="0.5629" stroke-linecap="round" stroke-linejoin="round" stroke-miterlimit="1" d="
						M129.438,113.159c-3.668,0-6.642,2.976-6.642,6.651l6.642-0.002V113.159z"/>
					<path stroke="#000000" stroke-width="0.7506" stroke-miterlimit="1" d="M122.796,119.81c0.002,3.667,2.979,6.642,6.646,6.642
						l-0.005-6.644L122.796,119.81z"/>
					
						<path fill="#FFFFFF" stroke="#010101" stroke-width="0.5629" stroke-linecap="round" stroke-linejoin="round" stroke-miterlimit="1" d="
						M129.438,119.808l0.005,6.644c3.668-0.001,6.642-2.979,6.639-6.648L129.438,119.808z"/>
				</g>
			</g>
		</g>
		<text transform="matrix(1 0 0 1 79.3208 128.7515)"><tspan x="0" y="0" font-size="9">Isocenter</tspan><tspan x="-5.754" y="10.799" font-size="9">Coordinates</tspan></text>
		<polygon fill="#D1D3D4" stroke="#005695" stroke-linecap="round" stroke-linejoin="round" points="72.117,74.243 31.445,65.625 
			52.317,33.607 91.081,39.756 		"/>
		<g>
			<text transform="matrix(1 0 0 1 48.4058 49.6533)"><tspan x="0" y="0" font-size="9">X-Ray</tspan><tspan x="-4.073" y="10.8" font-size="9">Detector</tspan></text>
		</g>
		<text transform="matrix(1 0 0 1 203.1133 107.1719)" font-size="9">Volume</text>
	</g>
</g>
</svg>
