<?xml version="1.0" encoding="utf-8"?>

<!DOCTYPE svg PUBLIC "-//W3C//DTD SVG 1.1//EN" "http://www.w3.org/Graphics/SVG/1.1/DTD/svg11.dtd">
<svg version="1.1" id="Layer_1" xmlns="http://www.w3.org/2000/svg" xmlns:xlink="http://www.w3.org/1999/xlink" x="0px" y="0px"
	 width="502px" height="427px" viewBox="0 0 502 427" enable-background="new 0 0 502 427" xml:space="preserve">

<defs>
	<style type="text/css">
	text {
	  font-family: Helvetica, Verdana, ArialUnicodeMS, san-serif
	}
	</style>
</defs>

<g>
   <desc>
	PS 3.17 Part 17: Explanatory Information
   </desc>
</g>

<g>
	<rect x="1" y="1" fill="#F5EED6" width="500" height="425"/>
	<g>
		<rect x="92.284" y="59.11" fill="#86B2D8" stroke="#010101" stroke-miterlimit="1" width="100.241" height="25"/>
		<rect x="292.264" y="59.11" fill="#86B2D8" stroke="#010101" stroke-miterlimit="1" width="100.24" height="25"/>
		<rect x="92.284" y="110.934" fill="#FFFFFF" stroke="#010101" stroke-miterlimit="1" width="9.999" height="10"/>
		<rect x="102.283" y="110.934" fill="#FFFFFF" stroke="#010101" stroke-miterlimit="1" width="9.999" height="10"/>
		<rect x="112.282" y="110.934" fill="#FFFFFF" stroke="#010101" stroke-miterlimit="1" width="9.999" height="10"/>
		<rect x="122.281" y="110.934" fill="#FFFFFF" stroke="#010101" stroke-miterlimit="1" width="9.999" height="10"/>
		<rect x="132.28" y="110.934" fill="#FFFFFF" stroke="#010101" stroke-miterlimit="1" width="9.999" height="10"/>
		<rect x="142.279" y="110.934" fill="#FFFFFF" stroke="#010101" stroke-miterlimit="1" width="9.999" height="10"/>
		<rect x="152.278" y="110.934" fill="#FFFFFF" stroke="#010101" stroke-miterlimit="1" width="9.999" height="10"/>
		<rect x="162.277" y="110.934" fill="#FFFFFF" stroke="#010101" stroke-miterlimit="1" width="9.999" height="10"/>
		<rect x="172.276" y="110.934" fill="#FFFFFF" stroke="#010101" stroke-miterlimit="1" width="9.999" height="10"/>
		<rect x="182.275" y="110.934" fill="#FFFFFF" stroke="#010101" stroke-miterlimit="1" width="9.999" height="10"/>
		<g>
			<text transform="matrix(0.8815 0 0 1 108.7153 69.5244)"><tspan x="0" y="0" font-size="10">XA 2D Projection</tspan><tspan x="-3.887" y="10.008" font-size="10">SOP Instance “C1”</tspan></text>
		</g>
		<rect x="92.284" y="227.938" fill="#86B2D8" stroke="#010101" stroke-miterlimit="1" width="100.241" height="25"/>
		<g>
			<text transform="matrix(0.8815 0 0 1 123.1738 238.3516)"><tspan x="0" y="0" font-size="10">X-Ray 3D</tspan><tspan x="-19.731" y="10.008" font-size="10">SOP Instance “Z1”</tspan></text>
		</g>
		<g>
			<text transform="matrix(0.8815 0 0 1 308.7617 69.5244)"><tspan x="0" y="0" font-size="10">XA 2D Projection</tspan><tspan x="-3.887" y="10.008" font-size="10">SOP Instance “C2”</tspan></text>
		</g>
		<rect x="92.284" y="37.743" fill="#86B2D8" stroke="#010101" stroke-miterlimit="1" width="100.241" height="18"/>
		<g>
			<text transform="matrix(0.8815 0 0 1 120.2339 49.5244)" font-size="10">Series “B1”</text>
		</g>
		<rect x="292.264" y="37.743" fill="#86B2D8" stroke="#010101" stroke-miterlimit="1" width="100.242" height="18"/>
		<g>
			<text transform="matrix(0.8815 0 0 1 320.2148 49.5244)" font-size="10">Series “B2”</text>
		</g>
		<rect x="92.284" y="16.162" fill="#86B2D8" stroke="#010101" stroke-miterlimit="1" width="300.222" height="18"/>
		<g>
			<text transform="matrix(0.8815 0 0 1 224.0225 27.9434)" font-size="10">Study “A”</text>
		</g>
		<g>
			<text transform="matrix(0.8815 0 0 1 92.3306 129.0586)" font-size="8">1...</text>
		</g>
		<g>
			<text transform="matrix(0.8815 0 0 1 114.2754 98.0664)" font-size="9">Pre-intervention</text>
		</g>
		<g>
			<text transform="matrix(0.8815 0 0 1 176.1309 129.0586)" font-size="8">...N1</text>
		</g>
		<g>
			<g>
				<line fill="none" stroke="#010101" stroke-miterlimit="1" x1="97.599" y1="100.741" x2="186.958" y2="100.741"/>
				<g>
					<polygon fill="#010101" points="98.788,102.484 92.284,100.741 98.788,98.998 					"/>
				</g>
				<g>
					<polygon fill="#010101" points="185.77,102.484 192.274,100.741 185.77,98.998 					"/>
				</g>
			</g>
		</g>
		<g>
			<text transform="matrix(0.8815 0 0 1 108.542 275.0898)" font-size="9">3D pre-intervention</text>
		</g>
		<g>
			<g>
				<line fill="none" stroke="#010101" stroke-miterlimit="1" x1="97.599" y1="277.764" x2="186.958" y2="277.764"/>
				<g>
					<polygon fill="#010101" points="98.788,279.507 92.284,277.764 98.788,276.021 					"/>
				</g>
				<g>
					<polygon fill="#010101" points="185.77,279.507 192.274,277.764 185.77,276.021 					"/>
				</g>
			</g>
		</g>
		<g>
			<g>
				<line fill="none" stroke="#010101" stroke-miterlimit="1" x1="197.226" y1="71.61" x2="198.226" y2="71.61"/>
				
					<line fill="none" stroke="#010101" stroke-miterlimit="1" stroke-dasharray="2.0316,2.0316" x1="200.258" y1="71.61" x2="284.569" y2="71.61"/>
				<line fill="none" stroke="#010101" stroke-miterlimit="1" x1="285.585" y1="71.61" x2="286.585" y2="71.61"/>
				<g>
					<polygon fill="#010101" points="198.415,73.354 191.911,71.61 198.415,69.867 					"/>
				</g>
				<g>
					<polygon fill="#010101" points="285.396,73.354 291.9,71.61 285.396,69.867 					"/>
				</g>
			</g>
		</g>
		<g>
			<path fill="none" stroke="#000000" d="M190.193,133.353c0,5.204-4.336,9.204-16.502,9.204c-3.253,0-6.625-0.253-9.876-0.571
				c-3.252-0.191-6.504-0.444-9.637-0.444c-3.854,0-12.139,0.634-12.139,5.142h-0.026c0-4.507-7.709-5.142-11.925-5.142
				c-3.373,0-6.745,0.253-10.118,0.508c-3.373,0.254-6.745,0.507-9.998,0.507c-11.081,0-15.779-3.872-15.779-9.268"/>
		</g>
		<g>
			<g>
				<line fill="none" stroke="#010101" stroke-miterlimit="1" x1="142.512" y1="222.624" x2="142.512" y2="163.098"/>
				<g>
					<polygon fill="#010101" points="144.255,221.435 142.512,227.939 140.769,221.435 					"/>
				</g>
			</g>
		</g>
		<polygon fill="#CCDEF0" stroke="#000000" points="109.529,287.914 109.529,333.509 94.466,343.236 94.466,297.642 		"/>
		<polygon fill="#CCDEF0" stroke="#000000" points="120.146,287.914 120.146,333.509 105.083,343.235 105.083,297.642 		"/>
		<polygon fill="#CCDEF0" stroke="#000000" points="130.762,287.914 130.763,333.511 115.701,343.236 115.701,297.643 		"/>
		<polygon fill="#CCDEF0" stroke="#000000" points="141.38,287.914 141.38,333.509 126.317,343.236 126.317,297.642 		"/>
		<polygon fill="#CCDEF0" stroke="#000000" points="151.998,287.914 151.998,333.509 136.935,343.236 136.935,297.642 		"/>
		<polygon fill="#CCDEF0" stroke="#000000" points="162.615,287.914 162.615,333.509 147.552,343.236 147.552,297.642 		"/>
		<polygon fill="#CCDEF0" stroke="#000000" points="173.231,287.914 173.231,333.509 158.168,343.235 158.168,297.642 		"/>
		<polygon fill="#CCDEF0" stroke="#000000" points="183.85,287.914 183.85,333.511 168.787,343.236 168.787,297.643 		"/>
		<polygon fill="#CCDEF0" stroke="#000000" points="194.466,287.914 194.466,333.509 179.403,343.236 179.403,297.642 		"/>
		<g>
			<text transform="matrix(0.8815 0 0 1 93.7417 393.0703)"><tspan x="0" y="0" font-size="10">Reconstruction Z1 #1</tspan><tspan x="0" y="14.8" font-size="9">- From Acquisition Context C1 #1</tspan></text>
		</g>
		<g>
			<text transform="matrix(0.8815 0 0 1 94.4663 361.8564)" font-size="8">1...</text>
		</g>
		<g>
			<text transform="matrix(0.8815 0 0 1 179.0977 361.8564)" font-size="8">...M1</text>
		</g>
		<g>
			<path fill="none" stroke="#000000" d="M194.347,366.806c0,5.218-4.517,9.226-17.189,9.226c-3.388,0-6.9-0.257-10.287-0.575
				c-3.389-0.19-6.776-0.443-10.039-0.443c-4.015,0-12.645,0.638-12.645,5.151h-0.027c0-4.514-8.031-5.151-12.422-5.151
				c-3.513,0-7.026,0.253-10.539,0.509c-3.513,0.253-7.026,0.51-10.415,0.51c-11.542,0-16.437-3.883-16.437-9.288"/>
		</g>
		<g>
			<path fill="#86B2D8" d="M190.512,192.974c0,3.3-2.7,6-6,6h-84c-3.3,0-6-2.7-6-6v-5.07c0-3.3,2.7-6,6-6h84c3.3,0,6,2.7,6,6
				V192.974z"/>
			<path fill="none" stroke="#000000" stroke-miterlimit="1" d="M190.512,192.974c0,3.3-2.7,6-6,6h-84c-3.3,0-6-2.7-6-6v-5.07
				c0-3.3,2.7-6,6-6h84c3.3,0,6,2.7,6,6V192.974z"/>
		</g>
		<g>
			<text transform="matrix(0.8815 0 0 1 100.6182 193.2197)" font-size="10">Reconstruction Z1 #1</text>
		</g>
		<g>
			<text transform="matrix(0.8815 0 0 1 91.4375 159.3223)" font-size="10">Acquisition Context C1 #1</text>
		</g>
		<rect x="292.264" y="110.934" fill="#FFFFFF" stroke="#010101" stroke-miterlimit="1" width="9.998" height="10"/>
		<rect x="302.262" y="110.934" fill="#FFFFFF" stroke="#010101" stroke-miterlimit="1" width="10" height="10"/>
		<rect x="312.262" y="110.934" fill="#FFFFFF" stroke="#010101" stroke-miterlimit="1" width="9.998" height="10"/>
		<rect x="322.26" y="110.934" fill="#FFFFFF" stroke="#010101" stroke-miterlimit="1" width="10" height="10"/>
		<rect x="332.26" y="110.934" fill="#FFFFFF" stroke="#010101" stroke-miterlimit="1" width="9.998" height="10"/>
		<rect x="342.258" y="110.934" fill="#FFFFFF" stroke="#010101" stroke-miterlimit="1" width="10" height="10"/>
		<rect x="352.258" y="110.934" fill="#FFFFFF" stroke="#010101" stroke-miterlimit="1" width="9.998" height="10"/>
		<rect x="362.256" y="110.934" fill="#FFFFFF" stroke="#010101" stroke-miterlimit="1" width="10" height="10"/>
		<rect x="372.256" y="110.934" fill="#FFFFFF" stroke="#010101" stroke-miterlimit="1" width="9.998" height="10"/>
		<rect x="382.254" y="110.934" fill="#FFFFFF" stroke="#010101" stroke-miterlimit="1" width="10" height="10"/>
		<rect x="292.264" y="227.938" fill="#86B2D8" stroke="#010101" stroke-miterlimit="1" width="100.24" height="25"/>
		<g>
			<text transform="matrix(0.8815 0 0 1 323.1533 238.3516)"><tspan x="0" y="0" font-size="10">X-Ray 3D</tspan><tspan x="-19.731" y="10.008" font-size="10">SOP Instance “Z2”</tspan></text>
		</g>
		<g>
			<text transform="matrix(0.8815 0 0 1 292.3105 129.0586)" font-size="8">1...</text>
		</g>
		<g>
			<text transform="matrix(0.8815 0 0 1 312.4902 98.0664)" font-size="9">Post-intervention</text>
		</g>
		<g>
			<text transform="matrix(0.8815 0 0 1 376.1104 129.0586)" font-size="8">...N2</text>
		</g>
		<g>
			<g>
				<line fill="none" stroke="#010101" stroke-miterlimit="1" x1="297.579" y1="100.741" x2="386.938" y2="100.741"/>
				<g>
					<polygon fill="#010101" points="298.769,102.484 292.264,100.741 298.769,98.998 					"/>
				</g>
				<g>
					<polygon fill="#010101" points="385.749,102.484 392.254,100.741 385.749,98.998 					"/>
				</g>
			</g>
		</g>
		<g>
			<text transform="matrix(0.8815 0 0 1 306.7568 275.0898)" font-size="9">3D post-intervention</text>
		</g>
		<g>
			<g>
				<line fill="none" stroke="#010101" stroke-miterlimit="1" x1="297.579" y1="277.764" x2="386.938" y2="277.764"/>
				<g>
					<polygon fill="#010101" points="298.769,279.507 292.264,277.764 298.769,276.021 					"/>
				</g>
				<g>
					<polygon fill="#010101" points="385.749,279.507 392.254,277.764 385.749,276.021 					"/>
				</g>
			</g>
		</g>
		<g>
			<path fill="none" stroke="#000000" d="M390.174,133.353c0,5.204-4.336,9.204-16.502,9.204c-3.254,0-6.625-0.253-9.877-0.571
				c-3.252-0.191-6.504-0.444-9.637-0.444c-3.854,0-12.139,0.634-12.139,5.142h-0.027c0-4.507-7.709-5.142-11.924-5.142
				c-3.373,0-6.746,0.253-10.119,0.508c-3.373,0.254-6.744,0.507-9.998,0.507c-11.08,0-15.777-3.872-15.777-9.268"/>
		</g>
		<g>
			<g>
				<line fill="none" stroke="#010101" stroke-miterlimit="1" x1="342.492" y1="222.624" x2="342.492" y2="163.098"/>
				<g>
					<polygon fill="#010101" points="344.235,221.435 342.492,227.939 340.749,221.435 					"/>
				</g>
			</g>
		</g>
		<polygon fill="#CCDEF0" stroke="#000000" points="309.508,287.914 309.508,333.509 294.445,343.236 294.445,297.642 		"/>
		<polygon fill="#CCDEF0" stroke="#000000" points="320.125,287.914 320.125,333.509 305.062,343.235 305.062,297.642 		"/>
		<polygon fill="#CCDEF0" stroke="#000000" points="330.742,287.914 330.742,333.511 315.68,343.236 315.68,297.643 		"/>
		<polygon fill="#CCDEF0" stroke="#000000" points="341.359,287.914 341.359,333.509 326.297,343.236 326.297,297.642 		"/>
		<polygon fill="#CCDEF0" stroke="#000000" points="351.979,287.914 351.979,333.509 336.914,343.236 336.914,297.642 		"/>
		<polygon fill="#CCDEF0" stroke="#000000" points="362.594,287.914 362.594,333.509 347.531,343.236 347.531,297.642 		"/>
		<polygon fill="#CCDEF0" stroke="#000000" points="373.211,287.914 373.211,333.509 358.148,343.235 358.148,297.642 		"/>
		<polygon fill="#CCDEF0" stroke="#000000" points="383.83,287.914 383.83,333.511 368.766,343.236 368.766,297.643 		"/>
		<polygon fill="#CCDEF0" stroke="#000000" points="394.445,287.914 394.445,333.509 379.383,343.236 379.383,297.642 		"/>
		<g>
			<text transform="matrix(0.8815 0 0 1 293.7207 393.0703)"><tspan x="0" y="0" font-size="10">Reconstruction Z2 #1</tspan><tspan x="0" y="14.8" font-size="9">- From Acquisition Context C2 #1</tspan></text>
		</g>
		<g>
			<text transform="matrix(0.8815 0 0 1 294.4453 361.8564)" font-size="8">1...</text>
		</g>
		<g>
			<text transform="matrix(0.8815 0 0 1 379.0771 361.8564)" font-size="8">...M2</text>
		</g>
		<g>
			<path fill="none" stroke="#000000" d="M394.326,366.806c0,5.218-4.516,9.226-17.189,9.226c-3.389,0-6.9-0.257-10.287-0.575
				c-3.389-0.19-6.775-0.443-10.039-0.443c-4.014,0-12.645,0.638-12.645,5.151h-0.027c0-4.514-8.031-5.151-12.422-5.151
				c-3.514,0-7.027,0.253-10.539,0.509c-3.514,0.253-7.027,0.51-10.414,0.51c-11.543,0-16.438-3.883-16.438-9.288"/>
		</g>
		<g>
			<path fill="#86B2D8" d="M390.492,192.974c0,3.3-2.7,6-6,6h-84c-3.3,0-6-2.7-6-6v-5.07c0-3.3,2.7-6,6-6h84c3.3,0,6,2.7,6,6
				V192.974z"/>
			<path fill="none" stroke="#000000" stroke-miterlimit="1" d="M390.492,192.974c0,3.3-2.7,6-6,6h-84c-3.3,0-6-2.7-6-6v-5.07
				c0-3.3,2.7-6,6-6h84c3.3,0,6,2.7,6,6V192.974z"/>
		</g>
		<g>
			<text transform="matrix(0.8815 0 0 1 300.5977 193.2197)" font-size="10">Reconstruction Z2 #1</text>
		</g>
		<g>
			<text transform="matrix(0.8815 0 0 1 291.417 159.3223)" font-size="10">Acquisition Context C2 #1</text>
		</g>
		<g>
			<text transform="matrix(0.8815 0 0 1 214.9316 67.2803)"><tspan x="0" y="0" font-size="9">Same Frame of</tspan><tspan x="10.248" y="13.8" font-size="9">Reference</tspan></text>
		</g>
		<g>
			<g>
				<line fill="none" stroke="#010101" stroke-miterlimit="1" x1="197.226" y1="240.353" x2="198.226" y2="240.353"/>
				
					<line fill="none" stroke="#010101" stroke-miterlimit="1" stroke-dasharray="2.0316,2.0316" x1="200.258" y1="240.353" x2="284.569" y2="240.353"/>
				<line fill="none" stroke="#010101" stroke-miterlimit="1" x1="285.585" y1="240.353" x2="286.585" y2="240.353"/>
				<g>
					<polygon fill="#010101" points="198.415,242.096 191.911,240.353 198.415,238.609 					"/>
				</g>
				<g>
					<polygon fill="#010101" points="285.396,242.096 291.9,240.353 285.396,238.609 					"/>
				</g>
			</g>
		</g>
		<g>
			<text transform="matrix(0.8815 0 0 1 214.9316 236.0225)"><tspan x="0" y="0" font-size="9">Same Frame of</tspan><tspan x="10.248" y="13.8" font-size="9">Reference</tspan></text>
		</g>
	</g>
</g>
</svg>
