<?xml version="1.0" encoding="utf-8"?>

<svg version="1.1" id="Layer_1" xmlns="http://www.w3.org/2000/svg" xmlns:xlink="http://www.w3.org/1999/xlink" x="0px" y="0px"
	 viewBox="0 0 642 617" enable-background="new 0 0 642 617" xml:space="preserve">
    
<defs>
	<style type="text/css">
	text {
	  font-family: Helvetica, Verdana, ArialUnicodeMS, san-serif
	}
	</style>
</defs>

<g>
   <desc>
	PS 3.17 : Explanatory Information
   </desc>
</g>

<g>
	<rect x="1" y="1" fill="#F3EDD6" width="640" height="615"/>
	<g>
		
			<line fill="none" stroke="#000000" stroke-width="0.5" stroke-linecap="round" stroke-miterlimit="1" x1="256.637" y1="51.926" x2="256.637" y2="600.235"/>
		
			<line fill="none" stroke="#000000" stroke-width="0.5" stroke-linecap="round" stroke-miterlimit="1" x1="142.769" y1="51.926" x2="142.769" y2="600.235"/>
		
			<line fill="none" stroke="#000000" stroke-width="0.5" stroke-linecap="round" stroke-miterlimit="1" x1="426.662" y1="51.926" x2="426.662" y2="600.235"/>
		
			<line fill="none" stroke="#000000" stroke-width="0.5" stroke-linecap="round" stroke-miterlimit="1" x1="89.741" y1="51.926" x2="89.741" y2="600.235"/>
		
			<rect x="123.769" y="16.765" fill="#CCDEF0" stroke="#010101" stroke-width="0.75" stroke-linecap="round" stroke-linejoin="round" stroke-miterlimit="1" width="38" height="35"/>
		
			<rect x="70.741" y="16.765" fill="#CCDEF0" stroke="#010101" stroke-width="0.75" stroke-linecap="round" stroke-linejoin="round" stroke-miterlimit="1" width="38" height="35"/>
		<text transform="matrix(1 0 0 1 80.1802 36.7305)" font-size="9px">User</text>
		<text transform="matrix(1 0 0 1 127.769 36.7305)" font-size="9px">Archive</text>
		
			<rect x="392.662" y="16.765" fill="#CCDEF0" stroke="#010101" stroke-width="0.75" stroke-linecap="round" stroke-linejoin="round" stroke-miterlimit="1" width="68" height="35"/>
		
			<rect x="222.638" y="16.765" fill="#CCDEF0" stroke="#010101" stroke-width="0.75" stroke-linecap="round" stroke-linejoin="round" stroke-miterlimit="1" width="68" height="35"/>
		<text transform="matrix(1 0 0 1 406.1626 25.9307)"><tspan x="0" y="0" font-size="9px">Treatment</tspan><tspan x="4.254" y="10.8" font-size="9px">Delivery</tspan><tspan x="-7.743" y="21.6" font-size="9px">System (TDS)</tspan></text>
		<text transform="matrix(1 0 0 1 236.1294 25.9307)"><tspan x="0" y="0" font-size="9px">Treatment</tspan><tspan x="-5.759" y="10.8" font-size="9px">Management</tspan><tspan x="-9.492" y="21.6" font-size="9px">System (TMS) </tspan></text>
		
			<rect x="422.168" y="96.528" fill="#CCDEF0" stroke="#010101" stroke-width="0.75" stroke-linecap="round" stroke-linejoin="round" stroke-miterlimit="1" width="9" height="57.834"/>
		
			<rect x="422.168" y="161.028" fill="#CCDEF0" stroke="#010101" stroke-width="0.75" stroke-linecap="round" stroke-linejoin="round" stroke-miterlimit="1" width="9" height="191"/>
		
			<rect x="252.137" y="113.615" fill="#CCDEF0" stroke="#010101" stroke-width="0.75" stroke-linecap="round" stroke-linejoin="round" stroke-miterlimit="1" width="9" height="29.08"/>
		
			<rect x="252.137" y="177.282" fill="#CCDEF0" stroke="#010101" stroke-width="0.75" stroke-linecap="round" stroke-linejoin="round" stroke-miterlimit="1" width="9" height="29.08"/>
		
			<rect x="252.137" y="267.282" fill="#CCDEF0" stroke="#010101" stroke-width="0.75" stroke-linecap="round" stroke-linejoin="round" stroke-miterlimit="1" width="9" height="24.246"/>
		
			<rect x="252.137" y="299.968" fill="#CCDEF0" stroke="#010101" stroke-width="0.75" stroke-linecap="round" stroke-linejoin="round" stroke-miterlimit="1" width="9" height="44.102"/>
		
			<rect x="252.137" y="383.792" fill="#CCDEF0" stroke="#010101" stroke-width="0.75" stroke-linecap="round" stroke-linejoin="round" stroke-miterlimit="1" width="9" height="176.777"/>
		
			<rect x="85.241" y="92.336" fill="#CCDEF0" stroke="#010101" stroke-width="0.75" stroke-linecap="round" stroke-linejoin="round" stroke-miterlimit="1" width="9" height="78.692"/>
		
			<rect x="138.27" y="223.683" fill="#CCDEF0" stroke="#010101" stroke-width="0.75" stroke-linecap="round" stroke-linejoin="round" stroke-miterlimit="1" width="9" height="39.346"/>
		
			<rect x="138.27" y="507.45" fill="#CCDEF0" stroke="#010101" stroke-width="0.75" stroke-linecap="round" stroke-linejoin="round" stroke-miterlimit="1" width="9" height="19.67"/>
		
			<rect x="85.244" y="365.528" fill="#CCDEF0" stroke="#010101" stroke-width="0.75" stroke-linecap="round" stroke-linejoin="round" stroke-miterlimit="1" width="9" height="212"/>
		
			<rect x="422.168" y="369.132" fill="#CCDEF0" stroke="#010101" stroke-width="0.75" stroke-linecap="round" stroke-linejoin="round" stroke-miterlimit="1" width="9" height="206"/>
		<g>
			<g>
				
					<line fill="none" stroke="#005695" stroke-linecap="round" stroke-miterlimit="1" x1="94.244" y1="103.032" x2="416.132" y2="103.032"/>
				<g>
					<polygon fill="#005695" points="414.943,104.775 421.448,103.032 414.943,101.289 					"/>
				</g>
			</g>
		</g>
		<g>
			<g>
				
					<line fill="none" stroke="#005695" stroke-linecap="round" stroke-miterlimit="1" x1="94.244" y1="374.778" x2="416.132" y2="374.778"/>
				<g>
					<polygon fill="#005695" points="414.943,376.521 421.448,374.778 414.943,373.035 					"/>
				</g>
			</g>
		</g>
		<g>
			<g>
				
					<line fill="none" stroke="#005695" stroke-linecap="round" stroke-miterlimit="1" x1="94.244" y1="167.695" x2="415.733" y2="167.695"/>
				<g>
					<polygon fill="#005695" points="414.544,169.438 421.048,167.695 414.544,165.952 					"/>
				</g>
			</g>
		</g>
		<g>
			<g>
				
					<line fill="none" stroke="#005695" stroke-linecap="round" stroke-miterlimit="1" x1="153.853" y1="233.449" x2="421.048" y2="233.449"/>
				<g>
					<polygon fill="#005695" points="155.042,235.192 148.538,233.449 155.042,231.706 					"/>
				</g>
			</g>
		</g>
		<g>
			<g>
				
					<line fill="none" stroke="#005695" stroke-linecap="round" stroke-miterlimit="1" x1="148.538" y1="258.528" x2="415.733" y2="258.528"/>
				<g>
					<polygon fill="#005695" points="414.544,260.271 421.048,258.528 414.544,256.785 					"/>
				</g>
			</g>
		</g>
		<g>
			<g>
				
					<line fill="none" stroke="#005695" stroke-linecap="round" stroke-miterlimit="1" x1="265.858" y1="121.695" x2="421.024" y2="121.695"/>
				<g>
					<polygon fill="#005695" points="267.047,123.438 260.543,121.695 267.047,119.952 					"/>
				</g>
			</g>
		</g>
		<g>
			<g>
				
					<line fill="none" stroke="#005695" stroke-linecap="round" stroke-miterlimit="1" x1="260.543" y1="138.878" x2="415.708" y2="138.878"/>
				<g>
					<polygon fill="#005695" points="414.519,140.621 421.024,138.878 414.519,137.135 					"/>
				</g>
			</g>
		</g>
		<g>
			<g>
				
					<line fill="none" stroke="#005695" stroke-linecap="round" stroke-miterlimit="1" x1="266.502" y1="185.562" x2="421.048" y2="185.562"/>
				<g>
					<polygon fill="#005695" points="267.691,187.305 261.186,185.562 267.691,183.818 					"/>
				</g>
			</g>
		</g>
		<g>
			<g>
				
					<line fill="none" stroke="#005695" stroke-linecap="round" stroke-miterlimit="1" x1="266.502" y1="284.248" x2="421.048" y2="284.248"/>
				<g>
					<polygon fill="#005695" points="267.691,285.991 261.186,284.248 267.691,282.505 					"/>
				</g>
			</g>
		</g>
		<g>
			<g>
				
					<line fill="none" stroke="#005695" stroke-linecap="round" stroke-miterlimit="1" x1="266.502" y1="393.528" x2="421.048" y2="393.528"/>
				<g>
					<polygon fill="#005695" points="267.691,395.271 261.186,393.528 267.691,391.785 					"/>
				</g>
			</g>
		</g>
		<g>
			<g>
				
					<line fill="none" stroke="#005695" stroke-linecap="round" stroke-miterlimit="1" x1="153.853" y1="517.285" x2="421.048" y2="517.285"/>
				<g>
					<polygon fill="#005695" points="155.042,519.028 148.538,517.285 155.042,515.542 					"/>
				</g>
			</g>
		</g>
		<g>
			<g>
				
					<line fill="none" stroke="#005695" stroke-linecap="round" stroke-miterlimit="1" x1="99.559" y1="571.528" x2="421.048" y2="571.528"/>
				<g>
					<polygon fill="#005695" points="100.748,573.271 94.244,571.528 100.748,569.785 					"/>
				</g>
			</g>
		</g>
		<g>
			<g>
				
					<line fill="none" stroke="#005695" stroke-linecap="round" stroke-miterlimit="1" x1="266.502" y1="446.028" x2="421.048" y2="446.028"/>
				<g>
					<polygon fill="#005695" points="267.691,447.771 261.186,446.028 267.691,444.285 					"/>
				</g>
			</g>
		</g>
		<g>
			<g>
				
					<line fill="none" stroke="#005695" stroke-linecap="round" stroke-miterlimit="1" x1="266.502" y1="499.069" x2="421.048" y2="499.069"/>
				<g>
					<polygon fill="#005695" points="267.691,500.812 261.186,499.069 267.691,497.326 					"/>
				</g>
			</g>
		</g>
		<g>
			<g>
				
					<line fill="none" stroke="#005695" stroke-linecap="round" stroke-miterlimit="1" x1="266.502" y1="535.028" x2="421.048" y2="535.028"/>
				<g>
					<polygon fill="#005695" points="267.691,536.771 261.186,535.028 267.691,533.285 					"/>
				</g>
			</g>
		</g>
		<g>
			<g>
				
					<line fill="none" stroke="#005695" stroke-linecap="round" stroke-miterlimit="1" x1="266.502" y1="553.29" x2="421.048" y2="553.29"/>
				<g>
					<polygon fill="#005695" points="267.691,555.033 261.186,553.29 267.691,551.547 					"/>
				</g>
			</g>
		</g>
		<g>
			<g>
				
					<line fill="none" stroke="#005695" stroke-linecap="round" stroke-miterlimit="1" x1="266.502" y1="305.976" x2="421.048" y2="305.976"/>
				<g>
					<polygon fill="#005695" points="267.691,307.719 261.186,305.976 267.691,304.232 					"/>
				</g>
			</g>
		</g>
		<g>
			<g>
				
					<line fill="none" stroke="#005695" stroke-linecap="round" stroke-miterlimit="1" x1="261.186" y1="202.744" x2="415.733" y2="202.744"/>
				<g>
					<polygon fill="#005695" points="414.544,204.487 421.048,202.744 414.544,201.001 					"/>
				</g>
			</g>
		</g>
		<g>
			<g>
				
					<line fill="none" stroke="#005695" stroke-linecap="round" stroke-miterlimit="1" x1="261.186" y1="339.209" x2="415.733" y2="339.209"/>
				<g>
					<polygon fill="#005695" points="414.544,340.952 421.048,339.209 414.544,337.466 					"/>
				</g>
			</g>
		</g>
		<g>
			<g>
				<polyline fill="none" stroke="#005695" stroke-linecap="round" stroke-miterlimit="1" points="431.168,138.878 440.904,138.878 
					440.904,151.054 436.484,151.054 				"/>
				<g>
					<polygon fill="#005695" points="437.673,149.311 431.168,151.054 437.673,152.797 					"/>
				</g>
			</g>
		</g>
		<g>
			<g>
				<polyline fill="none" stroke="#005695" stroke-linecap="round" stroke-miterlimit="1" points="431.168,399.389 440.904,399.389 
					440.904,411.564 436.484,411.564 				"/>
				<g>
					<polygon fill="#005695" points="437.673,409.821 431.168,411.564 437.673,413.308 					"/>
				</g>
			</g>
		</g>
		<g>
			<g>
				<polyline fill="none" stroke="#005695" stroke-linecap="round" stroke-miterlimit="1" points="431.168,417.387 440.904,417.387 
					440.904,429.562 436.484,429.562 				"/>
				<g>
					<polygon fill="#005695" points="437.673,427.819 431.168,429.562 437.673,431.306 					"/>
				</g>
			</g>
		</g>
		<g>
			<g>
				<polyline fill="none" stroke="#005695" stroke-linecap="round" stroke-miterlimit="1" points="431.168,453.026 440.904,453.026 
					440.904,465.202 436.484,465.202 				"/>
				<g>
					<polygon fill="#005695" points="437.673,463.459 431.168,465.202 437.673,466.945 					"/>
				</g>
			</g>
		</g>
		<g>
			<g>
				<polyline fill="none" stroke="#005695" stroke-linecap="round" stroke-miterlimit="1" points="431.168,471.024 440.904,471.024 
					440.904,483.2 436.484,483.2 				"/>
				<g>
					<polygon fill="#005695" points="437.673,481.457 431.168,483.2 437.673,484.943 					"/>
				</g>
			</g>
		</g>
		<g>
			<g>
				<polyline fill="none" stroke="#005695" stroke-linecap="round" stroke-miterlimit="1" points="431.168,202.744 440.904,202.744 
					440.904,234.528 436.484,234.528 				"/>
				<g>
					<polygon fill="#005695" points="437.673,232.785 431.168,234.528 437.673,236.271 					"/>
				</g>
			</g>
		</g>
		<rect x="101.331" y="94.369" fill="none" width="469.929" height="480.997"/>
		<text transform="matrix(1.0017 0 0 1 101.3306 99.3799)"><tspan x="0" y="0" font-size="7px">1. ‘List Procedures for Delivery’ on TDS console</tspan><tspan x="0" y="18.4" font-size="7px" letter-spacing="45.924">	</tspan><tspan x="48" y="18.4" font-size="7px" letter-spacing="119.801">	</tspan><tspan x="169.999" y="18.4" font-size="7px">2. Query UPS (C-FIND)</tspan><tspan x="0" y="36.8" font-size="7px" letter-spacing="45.924">	</tspan><tspan x="48" y="36.8" font-size="7px" letter-spacing="119.801">	</tspan><tspan x="169.999" y="36.8" font-size="7px">3. Receive 0-n UPS</tspan><tspan x="0" y="47.2" font-size="7px" letter-spacing="45.924">	</tspan><tspan x="48" y="47.2" font-size="7px" letter-spacing="119.801">	</tspan><tspan x="169.999" y="47.2" font-size="7px" letter-spacing="168.72">	</tspan><tspan x="341.433" y="47.2" font-size="7px">Display list to User</tspan><tspan x="0" y="65.6" font-size="7px">4. ‘Select Procedure’ on TDS console (optional, if only one procedure in list)</tspan><tspan x="0" y="84" font-size="7px" letter-spacing="45.924">	</tspan><tspan x="48" y="84" font-size="7px" letter-spacing="119.801">	</tspan><tspan x="169.999" y="84" font-size="7px">5. Get UPS details (C-GET)</tspan><tspan x="0" y="101.4" font-size="7px" letter-spacing="45.924">	</tspan><tspan x="48" y="101.4" font-size="7px" letter-spacing="119.801">	</tspan><tspan x="169.999" y="101.4" font-size="7px">Receive UPS details</tspan><tspan x="0" y="122.8" font-size="7px" letter-spacing="45.924">	</tspan><tspan x="48" y="122.8" font-size="7px" letter-spacing="119.801">	</tspan><tspan x="169.999" y="122.8" font-size="7px" letter-spacing="168.72">	</tspan><tspan x="341.433" y="122.8" font-size="7px">Extract input UIDs from selected UPS</tspan><tspan x="0" y="131.2" font-size="7px" letter-spacing="45.924">	</tspan><tspan x="48" y="131.2" font-size="7px">5a. Retrieve Archive Objects (C-MOVE)</tspan><tspan x="0" y="147.6" font-size="7px" letter-spacing="45.924">	</tspan><tspan x="48" y="147.6" font-size="7px">RT Plan and any other required objects</tspan><tspan x="0" y="156" font-size="7px" letter-spacing="45.924">	</tspan><tspan x="48" y="156" font-size="7px">(e.g., verification images, RT Beam Treatment Records)</tspan><tspan x="0" y="172.4" font-size="7px" letter-spacing="45.924">	</tspan><tspan x="48" y="172.4" font-size="7px" letter-spacing="119.801">	</tspan><tspan x="169.999" y="172.4" font-size="7px">6. Change UPS ‘IN PROCESS’</tspan><tspan x="0" y="180.8" font-size="7px" letter-spacing="45.924">	</tspan><tspan x="48" y="180.8" font-size="7px" letter-spacing="119.801">	</tspan><tspan x="169.999" y="180.8" font-size="7px">(N-ACTION with Transaction UID)</tspan><tspan x="0" y="202.2" font-size="7px" letter-spacing="45.924">	</tspan><tspan x="48" y="202.2" font-size="7px" letter-spacing="119.801">	</tspan><tspan x="169.999" y="202.2" font-size="7px">7. Retrieve TMS objects (C-MOVE)</tspan><tspan x="0" y="220.6" font-size="7px" letter-spacing="45.924">	</tspan><tspan x="48" y="220.6" font-size="7px" letter-spacing="119.801">	</tspan><tspan x="169.999" y="220.6" font-size="7px">RT Beams Delivery Instruction</tspan><tspan x="0" y="229" font-size="7px" letter-spacing="45.924">	</tspan><tspan x="48" y="229" font-size="7px" letter-spacing="119.801">	</tspan><tspan x="169.999" y="229" font-size="7px">RT Treatment Record Summary</tspan><tspan x="0" y="237.4" fill="#010101" font-size="7px" letter-spacing="45.924">	</tspan><tspan x="48" y="237.4" fill="#010101" font-size="7px" letter-spacing="119.801">	</tspan><tspan x="169.999" y="237.4" fill="#010101" font-size="7px">RT Beams Treatment Rec (if not in 5)</tspan><tspan x="0" y="271.2" font-size="7px">8. ‘Start Treatment Sesion’ on TDS console</tspan><tspan x="0" y="289.6" font-size="7px" letter-spacing="45.924">	</tspan><tspan x="48" y="289.6" font-size="7px" letter-spacing="119.801">	</tspan><tspan x="169.999" y="289.6" font-size="7px">9. Set UPS 0% complete, Beam ‘1’ (N-SET)</tspan><tspan x="0" y="308" font-size="7px" letter-spacing="45.924">	</tspan><tspan x="48" y="308" font-size="7px" letter-spacing="119.801">	</tspan><tspan x="169.999" y="308" font-size="7px" letter-spacing="168.72">	</tspan><tspan x="341.433" y="308" font-size="7px">Verify</tspan><tspan x="0" y="326.4" font-size="7px" letter-spacing="45.924">	</tspan><tspan x="48" y="326.4" font-size="7px" letter-spacing="119.801">	</tspan><tspan x="169.999" y="326.4" font-size="7px" letter-spacing="168.72">	</tspan><tspan x="341.433" y="326.4" font-size="7px">DELIVER RADIATION</tspan><tspan x="0" y="342.8" font-size="7px" letter-spacing="45.924">	</tspan><tspan x="48" y="342.8" font-size="7px" letter-spacing="119.801">	</tspan><tspan x="169.999" y="342.8" font-size="7px">9. Set UPS 50% complete, Beam ‘2’ (N-SET)</tspan><tspan x="0" y="361.2" font-size="7px" letter-spacing="45.924">	</tspan><tspan x="48" y="361.2" font-size="7px" letter-spacing="119.801">	</tspan><tspan x="169.999" y="361.2" font-size="7px" letter-spacing="168.72">	</tspan><tspan x="341.433" y="361.2" font-size="7px">Verify</tspan><tspan x="0" y="379.6" font-size="7px" letter-spacing="45.924">	</tspan><tspan x="48" y="379.6" font-size="7px" letter-spacing="119.801">	</tspan><tspan x="169.999" y="379.6" font-size="7px" letter-spacing="168.72">	</tspan><tspan x="341.433" y="379.6" font-size="7px">DELIVER RADIATION</tspan><tspan x="0" y="396" font-size="7px" letter-spacing="45.924">	</tspan><tspan x="48" y="396" font-size="7px" letter-spacing="119.801">	</tspan><tspan x="169.999" y="396" font-size="7px">10. Set UPS 100% complete, (N-SET)</tspan><tspan x="0" y="413.4" font-size="7px" letter-spacing="45.924">	</tspan><tspan x="48" y="413.4" font-size="7px">11. Store RT Treatment Record and other result objects (C-STORE)</tspan><tspan x="0" y="431.8" font-size="7px" letter-spacing="45.924">	</tspan><tspan x="48" y="431.8" font-size="7px" letter-spacing="119.801">	</tspan><tspan x="169.999" y="431.8" font-size="7px">12. Set UPS to Final State (N-SET)</tspan><tspan x="0" y="450.2" font-size="7px" letter-spacing="45.924">	</tspan><tspan x="48" y="450.2" font-size="7px" letter-spacing="119.801">	</tspan><tspan x="169.999" y="450.2" font-size="7px">13. Change UPS ‘COMPLETED’ (N-ACTION)</tspan><tspan x="0" y="468.6" font-size="7px">14. Indicate ‘Treatment Session Completed on TDS Console’</tspan></text>
	</g>
</g>
</svg>
