<?xml version="1.0" encoding="utf-8"?>

<!DOCTYPE svg PUBLIC "-//W3C//DTD SVG 1.1//EN" "http://www.w3.org/Graphics/SVG/1.1/DTD/svg11.dtd">
<svg version="1.1" id="Layer_1" xmlns="http://www.w3.org/2000/svg" xmlns:xlink="http://www.w3.org/1999/xlink" x="0px" y="0px"
	 width="862px" height="362px" viewBox="0 0 862 362" enable-background="new 0 0 862 362" xml:space="preserve">

<defs>
	<style type="text/css">
	text {
	  font-family: Helvetica, Verdana, ArialUnicodeMS, san-serif
	}
	</style>
</defs>

<g>
   <desc>
	PS 3.17 Explanatory Information
   </desc>
</g>

<g>
	<rect x="1" y="1" fill="#F5EED6" width="860" height="360"/>
	<g>
		<g>
			<g>
				<g>
					<polyline fill="none" stroke="#005695" stroke-width="2" stroke-linecap="round" stroke-miterlimit="1" points="
						686.66,159.472 686.66,181.353 696.076,181.353 					"/>
					<path fill="#005695" d="M698.91,180.123c-1.983-0.599-3.273-1.151-4.865-1.79v6.053c0.57-0.271,2.882-1.191,4.865-1.79
						c2.124-0.642,4.049-1.08,5.298-1.237C702.959,181.203,701.034,180.764,698.91,180.123z"/>
				</g>
			</g>
			<g>
				<g>
					<polyline fill="none" stroke="#005695" stroke-width="2" stroke-linecap="round" stroke-miterlimit="1" points="
						546.125,160.479 546.125,182.36 555.541,182.36 					"/>
					<path fill="#005695" d="M558.375,181.13c-1.983-0.599-3.273-1.151-4.865-1.79v6.053c0.57-0.271,2.882-1.191,4.865-1.79
						c2.124-0.642,4.049-1.08,5.298-1.236C562.424,182.21,560.499,181.771,558.375,181.13z"/>
				</g>
			</g>
			<g>
				<g>
					<polyline fill="none" stroke="#005695" stroke-width="2" stroke-linecap="round" stroke-miterlimit="1" points="
						546.125,181.922 546.125,216.185 555.541,216.185 					"/>
					<path fill="#005695" d="M558.375,214.955c-1.983-0.6-3.273-1.151-4.865-1.79v6.053c0.57-0.271,2.882-1.191,4.865-1.79
						c2.124-0.642,4.049-1.08,5.298-1.236C562.424,216.034,560.499,215.596,558.375,214.955z"/>
				</g>
			</g>
			<g>
				<g>
					<polyline fill="none" stroke="#005695" stroke-width="2" stroke-linecap="round" stroke-miterlimit="1" points="
						546.125,216.973 546.125,250.009 555.541,250.009 					"/>
					<path fill="#005695" d="M558.375,248.779c-1.983-0.6-3.273-1.151-4.865-1.79v6.053c0.57-0.271,2.882-1.191,4.865-1.79
						c2.124-0.642,4.049-1.08,5.298-1.236C562.424,249.858,560.499,249.42,558.375,248.779z"/>
				</g>
			</g>
			<g>
				<g>
					<polyline fill="none" stroke="#005695" stroke-width="2" stroke-linecap="round" stroke-miterlimit="1" points="
						179.502,109.198 179.502,131.079 188.918,131.079 					"/>
					<path fill="#005695" d="M191.752,129.849c-1.984-0.599-3.273-1.151-4.865-1.79v6.053c0.569-0.271,2.881-1.191,4.865-1.79
						c2.124-0.642,4.049-1.08,5.298-1.237C195.801,130.929,193.875,130.49,191.752,129.849z"/>
				</g>
			</g>
			<g>
				<g>
					<polyline fill="none" stroke="#005695" stroke-width="2" stroke-linecap="round" stroke-miterlimit="1" points="
						179.502,130.641 179.502,164.903 188.918,164.903 					"/>
					<path fill="#005695" d="M191.752,163.673c-1.984-0.599-3.273-1.151-4.865-1.79v6.053c0.569-0.271,2.881-1.191,4.865-1.79
						c2.124-0.642,4.049-1.08,5.298-1.237C195.801,164.753,193.875,164.314,191.752,163.673z"/>
				</g>
			</g>
			<g>
				<g>
					<polyline fill="none" stroke="#005695" stroke-width="2" stroke-linecap="round" stroke-miterlimit="1" points="
						179.502,165.691 179.502,198.728 188.918,198.728 					"/>
					<path fill="#005695" d="M191.752,197.498c-1.984-0.6-3.273-1.151-4.865-1.79v6.053c0.569-0.271,2.881-1.191,4.865-1.79
						c2.124-0.642,4.049-1.08,5.298-1.236C195.801,198.577,193.875,198.139,191.752,197.498z"/>
				</g>
			</g>
			<g>
				<g>
					<polyline fill="none" stroke="#005695" stroke-width="2" stroke-linecap="round" stroke-miterlimit="1" points="
						615.883,120.575 547.168,120.575 547.168,129.394 					"/>
					<path fill="#005695" d="M548.397,132.228c0.6-1.984,1.151-3.273,1.79-4.865h-6.053c0.271,0.569,1.191,2.881,1.79,4.865
						c0.642,2.124,1.08,4.049,1.236,5.298C547.318,136.276,547.757,134.351,548.397,132.228z"/>
				</g>
			</g>
			<g>
				<g>
					<polyline fill="none" stroke="#005695" stroke-width="2" stroke-linecap="round" stroke-linejoin="round" points="
						348.062,45.751 348.062,63.587 383.017,63.587 383.017,78.009 					"/>
					<g>
						<polygon fill="#005695" points="380.692,76.424 383.017,85.097 385.341,76.424 						"/>
					</g>
				</g>
			</g>
			<g>
				<g>
					<polyline fill="none" stroke="#005695" stroke-width="2" stroke-linecap="round" stroke-linejoin="round" points="
						617.418,109.695 617.418,120.575 685.176,120.575 685.176,126.608 					"/>
					<g>
						<polygon fill="#005695" points="682.852,125.022 685.176,133.695 687.5,125.022 						"/>
					</g>
				</g>
			</g>
			<g>
				<g>
					<polyline fill="none" stroke="#005695" stroke-width="2" stroke-linecap="round" stroke-miterlimit="1" points="
						216.117,63.587 78.87,63.587 78.87,78.042 					"/>
					<path fill="#005695" d="M80.1,80.876c0.599-1.984,1.151-3.273,1.79-4.865h-6.053c0.271,0.569,1.191,2.881,1.79,4.865
						c0.642,2.124,1.08,4.049,1.237,5.298C79.02,84.925,79.459,83,80.1,80.876z"/>
				</g>
			</g>
			<g>
				<g>
					<polyline fill="none" stroke="#005695" stroke-width="2" stroke-linecap="round" stroke-miterlimit="1" points="
						348.062,63.587 216.861,63.587 216.861,78.042 					"/>
					<path fill="#005695" d="M218.091,80.876c0.599-1.984,1.151-3.273,1.79-4.865h-6.053c0.271,0.569,1.191,2.881,1.79,4.865
						c0.642,2.124,1.08,4.049,1.237,5.298C217.011,84.925,217.45,83,218.091,80.876z"/>
				</g>
			</g>
			<g>
				<g>
					<polyline fill="none" stroke="#005695" stroke-width="2" stroke-linecap="round" stroke-miterlimit="1" points="
						381.833,63.587 616.854,63.587 616.854,78.042 					"/>
					<path fill="#005695" d="M618.083,80.876c0.6-1.984,1.151-3.273,1.79-4.865h-6.053c0.271,0.569,1.191,2.881,1.79,4.865
						c0.642,2.124,1.08,4.049,1.236,5.298C617.004,84.925,617.442,83,618.083,80.876z"/>
				</g>
			</g>
			<g>
				<g>
					<polyline fill="none" stroke="#005695" stroke-width="2" stroke-linecap="round" stroke-miterlimit="1" points="
						343.938,198.728 343.938,232.99 353.354,232.99 					"/>
					<path fill="#005695" d="M356.188,231.761c-1.984-0.6-3.273-1.151-4.865-1.79v6.053c0.569-0.271,2.881-1.191,4.865-1.79
						c2.124-0.642,4.049-1.08,5.298-1.236C360.237,232.84,358.312,232.401,356.188,231.761z"/>
				</g>
			</g>
			<g>
				<g>
					<polyline fill="none" stroke="#005695" stroke-width="2" stroke-linecap="round" stroke-miterlimit="1" points="
						343.938,109.198 343.938,131.079 353.354,131.079 					"/>
					<path fill="#005695" d="M356.188,129.849c-1.984-0.599-3.273-1.151-4.865-1.79v6.053c0.569-0.271,2.881-1.191,4.865-1.79
						c2.124-0.642,4.049-1.08,5.298-1.237C360.237,130.929,358.312,130.49,356.188,129.849z"/>
				</g>
			</g>
			<g>
				<g>
					<polyline fill="none" stroke="#005695" stroke-width="2" stroke-linecap="round" stroke-miterlimit="1" points="
						343.938,130.81 343.938,198.161 353.354,198.161 					"/>
					<path fill="#005695" d="M356.188,196.932c-1.984-0.6-3.273-1.151-4.865-1.79v6.053c0.569-0.271,2.881-1.191,4.865-1.79
						c2.124-0.642,4.049-1.08,5.298-1.236C360.237,198.011,358.312,197.572,356.188,196.932z"/>
				</g>
			</g>
			<g>
				<g>
					<polyline fill="none" stroke="#005695" stroke-width="2" stroke-linecap="round" stroke-miterlimit="1" points="
						343.938,232.472 343.938,299.823 353.354,299.823 					"/>
					<path fill="#005695" d="M356.188,298.594c-1.984-0.6-3.273-1.151-4.865-1.79v6.053c0.569-0.271,2.881-1.191,4.865-1.79
						c2.124-0.642,4.049-1.08,5.298-1.236C360.237,299.673,358.312,299.234,356.188,298.594z"/>
				</g>
			</g>
		</g>
		<g>
			
				<rect x="284.198" y="21.749" fill="#4F8ABE" stroke="#010101" stroke-width="0.75" stroke-linecap="round" stroke-linejoin="round" stroke-miterlimit="1" width="128" height="24"/>
			<g>
				<text transform="matrix(1 0 0 1 305.6855 36.064)" font-size="9">Multi-Energy Imaging</text>
			</g>
		</g>
		<g>
			
				<rect x="14.861" y="85.746" fill="#CCDEF0" stroke="#010101" stroke-width="0.75" stroke-linecap="round" stroke-linejoin="round" stroke-miterlimit="1" width="128" height="24"/>
			<g>
				<text transform="matrix(1 0 0 1 39.6006 100.251)" font-size="9">Standard CT Image</text>
			</g>
		</g>
		<g>
			
				<rect x="152.861" y="85.746" fill="#B2CEE7" stroke="#010101" stroke-width="0.75" stroke-linecap="round" stroke-linejoin="round" stroke-miterlimit="1" width="128" height="24"/>
			<g>
				<text transform="matrix(1 0 0 1 169.8457 100.251)" font-size="9">Objective Image Family</text>
			</g>
			
				<rect x="195.978" y="119.079" fill="#B2CEE7" stroke="#010101" stroke-width="0.75" stroke-linecap="round" stroke-linejoin="round" stroke-miterlimit="1" width="113.039" height="24"/>
			
				<rect x="195.979" y="152.412" fill="#B2CEE7" stroke="#010101" stroke-width="0.75" stroke-linecap="round" stroke-linejoin="round" stroke-miterlimit="1" width="113.039" height="24"/>
			
				<rect x="195.979" y="185.745" fill="#B2CEE7" stroke="#010101" stroke-width="0.75" stroke-linecap="round" stroke-linejoin="round" stroke-miterlimit="1" width="113.039" height="24"/>
			<g>
				<text transform="matrix(1 0 0 1 200.9517 129.1841)"><tspan x="0" y="0" font-size="9">Virtual Monoenergetic</tspan><tspan x="0" y="8.8" font-size="9">Image (VMI)</tspan></text>
			</g>
			<g>
				<text transform="matrix(1 0 0 1 200.9517 162.5166)"><tspan x="0" y="0" font-size="9">Effective Atomic Number</tspan><tspan x="0" y="8.8" font-size="9">(Z) Image</tspan></text>
			</g>
			<g>
				<text transform="matrix(1 0 0 1 200.9517 195.8496)" font-size="9">Electron Density Image</text>
			</g>
		</g>
		<g>
			
				<rect x="319.018" y="85.746" fill="#86B2D8" stroke="#010101" stroke-width="0.75" stroke-linecap="round" stroke-linejoin="round" stroke-miterlimit="1" width="127.998" height="24"/>
			<g>
				<text transform="matrix(1 0 0 1 323.7451 100.251)" font-size="9">Material Quantification Family</text>
			</g>
			
				<rect x="360.22" y="119.547" fill="#86B2D8" stroke="#010101" stroke-width="0.75" stroke-linecap="round" stroke-linejoin="round" stroke-miterlimit="1" width="107.999" height="24"/>
			
				<rect x="360.22" y="185.67" fill="#86B2D8" stroke="#010101" stroke-width="0.75" stroke-linecap="round" stroke-linejoin="round" stroke-miterlimit="1" width="107.999" height="24"/>
			<rect x="376.923" y="135.759" fill="#76C37A" width="125.999" height="36"/>
			<g>
				<text transform="matrix(1 0 0 1 365.3872 129.1841)" font-size="9">Material-Specific Image</text>
			</g>
			<g>
				<text transform="matrix(1 0 0 1 380.876 144.5342)"><tspan x="0" y="0" font-size="9">Examples:</tspan><tspan x="0" y="14" font-size="9">  • Iodine Map</tspan><tspan x="0" y="22.8" font-size="9">  • Bone Density</tspan></text>
			</g>
			
				<rect x="360.22" y="221.539" fill="#86B2D8" stroke="#010101" stroke-width="0.75" stroke-linecap="round" stroke-linejoin="round" stroke-miterlimit="1" width="107.999" height="24"/>
			<rect x="376.923" y="237.75" fill="#76C37A" width="125.999" height="36.001"/>
			<g>
				<text transform="matrix(1 0 0 1 365.3877 231.1768)" font-size="9">Value-based Map Image</text>
			</g>
			<g>
				<text transform="matrix(1 0 0 1 380.876 246.5254)"><tspan x="0" y="0" font-size="9">Examples:</tspan><tspan x="0" y="14" font-size="9">  • Gout crystals</tspan><tspan x="0" y="22.801" font-size="9">  • </tspan></text>
			</g>
			<g>
				<text transform="matrix(1 0 0 1 365.3872 195.7812)" font-size="9">Fractional Map Image</text>
			</g>
			
				<rect x="360.22" y="287.332" fill="#86B2D8" stroke="#010101" stroke-width="0.75" stroke-linecap="round" stroke-linejoin="round" stroke-miterlimit="1" width="107.999" height="24"/>
			<g>
				<text transform="matrix(1 0 0 1 365.3872 297.4434)" font-size="9">Material Removed Image</text>
			</g>
			<rect x="376.923" y="304.251" fill="#76C37A" width="125.999" height="36"/>
			<g>
				<text transform="matrix(1 0 0 1 380.876 313.0254)"><tspan x="0" y="0" font-size="9">Examples:</tspan><tspan x="0" y="14" font-size="9">  • Virtual unenhanced (VUE)</tspan><tspan x="0" y="22.801" font-size="9">  • Virtual non-contrast (VNC)</tspan></text>
			</g>
		</g>
		
			<rect x="552.172" y="85.746" fill="#6799C8" stroke="#010101" stroke-width="0.75" stroke-linecap="round" stroke-linejoin="round" stroke-miterlimit="1" width="128" height="24"/>
		
			<rect x="653.953" y="135.772" fill="#6799C8" stroke="#010101" stroke-width="0.75" stroke-linecap="round" stroke-linejoin="round" stroke-miterlimit="1" width="62.445" height="24"/>
		<g>
			<g>
				<text transform="matrix(1 0 0 1 559.1543 100.251)" font-size="9">Material Visualization Family</text>
			</g>
			
				<rect x="512.922" y="136.495" fill="#6799C8" stroke="#010101" stroke-width="0.75" stroke-linecap="round" stroke-linejoin="round" stroke-miterlimit="1" width="67.484" height="24"/>
			<g>
				<text transform="matrix(1 0 0 1 526.1602 151.0005)" font-size="9">Other IOD</text>
			</g>
			<g>
				<text transform="matrix(1 0 0 1 669.9277 150.2783)" font-size="9">CT IOD</text>
			</g>
			
				<rect x="704.436" y="170.36" fill="#6799C8" stroke="#010101" stroke-width="0.75" stroke-linecap="round" stroke-linejoin="round" stroke-miterlimit="1" width="108" height="24"/>
			<g>
				<text transform="matrix(1 0 0 1 709.6035 180.4712)" font-size="9">Material Modified Image</text>
			</g>
			<rect x="721.139" y="187.278" fill="#76C37A" width="126" height="36"/>
			<g>
				<text transform="matrix(1 0 0 1 725.0928 196.0547)"><tspan x="0" y="0" font-size="9">Examples:</tspan><tspan x="0" y="14" font-size="9">  • Highlighted</tspan><tspan x="0" y="22.799" font-size="9">  • Partially suppressed</tspan></text>
			</g>
			
				<rect x="562.854" y="170.36" fill="#6799C8" stroke="#010101" stroke-width="0.75" stroke-linecap="round" stroke-linejoin="round" stroke-miterlimit="1" width="108" height="24"/>
			
				<rect x="562.854" y="204.198" fill="#6799C8" stroke="#010101" stroke-width="0.75" stroke-linecap="round" stroke-linejoin="round" stroke-miterlimit="1" width="108" height="24"/>
			
				<rect x="562.854" y="237.026" fill="#6799C8" stroke="#010101" stroke-width="0.75" stroke-linecap="round" stroke-linejoin="round" stroke-miterlimit="1" width="108" height="24"/>
			<g>
				<text transform="matrix(1 0 0 1 567.8281 180.4653)" font-size="9">Color Overlay Image</text>
			</g>
			<g>
				<text transform="matrix(1 0 0 1 567.8281 214.3018)" font-size="9">Color Blending Image</text>
			</g>
			<g>
				<text transform="matrix(1 0 0 1 567.8281 247.1309)" font-size="9">Color Map Image</text>
			</g>
		</g>
	</g>
</g>
</svg>
