<?xml version="1.0" encoding="utf-8"?>

<!DOCTYPE svg PUBLIC "-//W3C//DTD SVG 1.1//EN" "http://www.w3.org/Graphics/SVG/1.1/DTD/svg11.dtd">
<svg version="1.1" id="Layer_1" xmlns="http://www.w3.org/2000/svg" xmlns:xlink="http://www.w3.org/1999/xlink" x="0px" y="0px"
	 width="702px" height="232px" viewBox="0 0 702 232" enable-background="new 0 0 702 232" xml:space="preserve">

<defs>
	<style type="text/css">
	text {
	  font-family: Helvetica, Verdana, ArialUnicodeMS, san-serif
	}
	</style>
</defs>

<g>
   <desc>
	PS 3.17 Part 17: Explanatory Information
   </desc>
</g>

<g>
	<rect x="1" y="1" fill="#F5EED6" width="700" height="230"/>
	<g>
		<polygon fill="#FFFFFF" stroke="#005695" stroke-linejoin="round" points="403.247,122.146 403.247,109.396 422.2,109.396 
			422.2,106.035 432.888,116.035 422.2,126.035 422.2,122.146 		"/>
		<polygon fill="#FFFFFF" stroke="#005695" stroke-linejoin="round" points="494.305,122.146 494.305,109.396 532.346,109.396 
			532.346,106.035 543.033,116.035 532.346,126.035 532.346,122.146 		"/>
		<polyline fill="#FFFFFF" stroke="#005695" stroke-linejoin="round" points="301.651,192.254 379.891,192.254 379.891,157.346 
			383.785,157.346 373.777,146.658 363.771,157.346 367.135,157.346 367.135,179.504 301.651,179.504 		"/>
		<polyline fill="#FFFFFF" stroke="#005695" stroke-linejoin="round" points="301.406,39.701 379.891,39.701 379.891,74.242 
			383.785,74.242 373.777,84.929 363.771,74.242 367.135,74.242 367.135,52.452 301.406,52.452 		"/>
		<path fill="#FFFFFF" stroke="#005695" stroke-linejoin="round" d="M267.659,104.909"/>
		<polyline fill="#FFFFFF" stroke="#005695" stroke-linejoin="round" points="189.319,42.162 229.515,42.162 229.515,36.353 
			240.202,46.353 229.515,56.353 229.515,50.017 189.319,50.017 		"/>
		<path fill="#FFFFFF" stroke="#005695" stroke-linejoin="round" d="M267.659,122.195"/>
		<polyline fill="#FFFFFF" stroke="#005695" stroke-linejoin="round" points="189.319,189.838 229.515,189.838 229.515,195.646 
			240.202,185.648 229.515,175.646 229.515,181.982 189.319,181.982 		"/>
		<g>
			<text transform="matrix(1 0 0 1 405.4248 117.7012)" font-size="6">RGB</text>
		</g>
		
			<rect x="434.312" y="86.035" fill="#B2CEE7" stroke="#010101" stroke-width="0.75" stroke-linecap="round" stroke-linejoin="round" stroke-miterlimit="1" width="60" height="60"/>
		<g>
			<text transform="matrix(1 0 0 1 442.2725 55.8779)" font-size="6">ICC Input Profile</text>
		</g>
		<g>
			<g>
				<line fill="none" stroke="#005695" stroke-miterlimit="1" x1="464.315" y1="59.462" x2="464.315" y2="78.455"/>
				<g>
					<polygon fill="#005695" points="461.991,76.87 464.315,85.542 466.64,76.87 					"/>
				</g>
			</g>
		</g>
		<rect x="447.318" y="101.125" fill="none" width="34" height="29.82"/>
		<text transform="matrix(1 0 0 1 455.8145 105.4204)"><tspan x="0" y="0" font-size="6">Profile </tspan><tspan x="-6.674" y="7.2" font-size="6">Connection </tspan><tspan x="-0.003" y="14.4" font-size="6">Space </tspan><tspan x="-5.165" y="21.6" font-size="6">Transform</tspan></text>
		<g>
			<text transform="matrix(1 0 0 1 193.1943 48.0239)" font-size="6">Scalar value</text>
		</g>
		<g>
			<text transform="matrix(1 0 0 1 303.8804 49.2471)" font-size="6">RGB-1</text>
		</g>
		
			<rect x="241.323" y="16.353" fill="#B2CEE7" stroke="#010101" stroke-width="0.75" stroke-linecap="round" stroke-linejoin="round" stroke-miterlimit="1" width="60" height="60"/>
		<g>
			<text transform="matrix(1 0 0 1 258.106 37.7881)"><tspan x="0" y="0" font-size="6">One Input</tspan><tspan x="9.469" y="7.891" font-size="8">➜</tspan><tspan x="4.674" y="14.181" font-size="6">RBGA</tspan><tspan x="-6.993" y="20.472" font-size="6">(EQUAL_RGB)</tspan></text>
		</g>
		<g>
			<text transform="matrix(1 0 0 1 191.9702 187.3174)" font-size="6">Scalar value</text>
		</g>
		<g>
			<text transform="matrix(1 0 0 1 303.8804 188.751)" font-size="6">RGB-2</text>
		</g>
		<polygon fill="#FFFFFF" stroke="#005695" stroke-linejoin="round" points="267.659,76.401 267.659,107.391 331.636,107.391 
			331.636,113.727 342.324,103.725 331.636,93.727 331.636,99.536 275.514,99.536 275.514,76.401 		"/>
		<polygon fill="#FFFFFF" stroke="#005695" stroke-linejoin="round" points="267.659,155.666 267.659,124.678 331.636,124.678 
			331.636,118.342 342.324,128.344 331.636,138.342 331.636,132.533 275.514,132.533 275.514,155.666 		"/>
		<g>
			<text transform="matrix(1 0 0 1 303.8862 105.7676)" font-size="6">Alpha-1</text>
		</g>
		<g>
			<text transform="matrix(1 0 0 1 303.8862 130.5859)" font-size="6">Alpha-2</text>
		</g>
		
			<rect x="241.323" y="155.646" fill="#B2CEE7" stroke="#010101" stroke-width="0.75" stroke-linecap="round" stroke-linejoin="round" stroke-miterlimit="1" width="60" height="60"/>
		<g>
			<text transform="matrix(1 0 0 1 258.146 180.2266)"><tspan x="0" y="0" font-size="6">One Input</tspan><tspan x="9.469" y="7.891" font-size="8">➜</tspan><tspan x="4.674" y="14.182" font-size="6">RBGA</tspan></text>
		</g>
		
			<rect x="343.523" y="86.035" fill="#B2CEE7" stroke="#010101" stroke-width="0.75" stroke-linecap="round" stroke-linejoin="round" stroke-miterlimit="1" width="60" height="60"/>
		<g>
			<text transform="matrix(1 0 0 1 496.7998 117.7012)" font-size="6">PCS-Values</text>
		</g>
		
			<rect x="158.969" y="35.353" fill="#CCDEF0" stroke="#010101" stroke-width="0.75" stroke-linecap="round" stroke-linejoin="round" stroke-miterlimit="1" width="30" height="22"/>
		<g>
			<text transform="matrix(1 0 0 1 169.9678 45.2783)"><tspan x="0" y="0" font-size="6">CT</tspan><tspan x="-2.667" y="5.491" font-size="6">MPR</tspan></text>
		</g>
		
			<rect x="158.969" y="174.646" fill="#CCDEF0" stroke="#010101" stroke-width="0.75" stroke-linecap="round" stroke-linejoin="round" stroke-miterlimit="1" width="30" height="22"/>
		<g>
			<text transform="matrix(1 0 0 1 168.1323 184.5723)"><tspan x="0" y="0" font-size="6">PET</tspan><tspan x="-0.832" y="5.491" font-size="6">MPR</tspan></text>
		</g>
		<rect x="343.189" y="106.373" fill="none" width="60.668" height="19.333"/>
		<text transform="matrix(1 0 0 1 350.8501 110.6665)"><tspan x="0" y="0" font-size="6">RGB Compositor</tspan><tspan x="-3.341" y="5.49" font-size="6">(one minus Alpha-2 </tspan><tspan x="9" y="12.69" font-size="6">weighting)</tspan></text>
	</g>
</g>
</svg>
