<?xml version="1.0" encoding="utf-8"?>

<!DOCTYPE svg PUBLIC "-//W3C//DTD SVG 1.1//EN" "http://www.w3.org/Graphics/SVG/1.1/DTD/svg11.dtd">
<svg version="1.1" id="Layer_1" xmlns="http://www.w3.org/2000/svg" xmlns:xlink="http://www.w3.org/1999/xlink" x="0px" y="0px"
	 width="552px" height="262px" viewBox="0 0 552 262" enable-background="new 0 0 552 262" xml:space="preserve">

<defs>
	<style type="text/css">
	text {
	  font-family: Helvetica, Verdana, ArialUnicodeMS, san-serif
	}
	</style>
</defs>

<g>
   <desc>
	PS 3.17 Part 17: Explanatory Information
   </desc>
</g>

<g>
	<rect x="1" y="1" fill="#F5EED6" width="550" height="260"/>
	<g>
		
			<rect x="145.314" y="17.441" fill="#CCDEF0" stroke="#010101" stroke-width="0.75" stroke-linecap="round" stroke-linejoin="round" stroke-miterlimit="1" width="50" height="50"/>
		<g>
			<text transform="matrix(1 0 0 1 157.1382 33.8696)"><tspan x="0" y="0" font-size="6">One Input</tspan><tspan x="9.469" y="7.891" font-size="8">➜</tspan><tspan x="4.674" y="14.181" font-size="6">RBGA</tspan></text>
		</g>
		<g>
			<text transform="matrix(1 0 0 1 202.5684 40.1143)" font-size="6">RGB-1</text>
		</g>
		<g>
			<text transform="matrix(1 0 0 1 202.5742 75.0303)" font-size="6">Alpha-1</text>
		</g>
		<g>
			<g>
				<line fill="none" stroke="#005695" stroke-miterlimit="1" x1="99.148" y1="42.701" x2="138.061" y2="42.701"/>
				<g>
					<polygon fill="#005695" points="136.476,45.025 145.148,42.701 136.476,40.377 					"/>
				</g>
			</g>
		</g>
		<g>
			<text transform="matrix(1 0 0 1 103.0347 40.1143)" font-size="6">Scalar value</text>
		</g>
		<g>
			<g>
				<polyline fill="none" stroke="#005695" stroke-miterlimit="1" points="170.314,67.868 170.314,77.868 227.749,77.868 				"/>
				<g>
					<polygon fill="#005695" points="226.163,80.192 234.836,77.868 226.163,75.544 					"/>
				</g>
			</g>
		</g>
		
			<rect x="145.314" y="113.48" fill="#CCDEF0" stroke="#010101" stroke-width="0.75" stroke-linecap="round" stroke-linejoin="round" stroke-miterlimit="1" width="50" height="50"/>
		<g>
			<text transform="matrix(1 0 0 1 157.1382 133.0537)"><tspan x="0" y="0" font-size="6">One Input</tspan><tspan x="9.469" y="7.891" font-size="8">➜</tspan><tspan x="4.674" y="14.181" font-size="6">RBGA</tspan></text>
		</g>
		<g>
			<text transform="matrix(1 0 0 1 202.5684 135.2529)" font-size="6">RGB-2</text>
		</g>
		<g>
			<text transform="matrix(1 0 0 1 202.5742 100.8174)" font-size="6">Alpha-2</text>
		</g>
		<g>
			<g>
				<line fill="none" stroke="#005695" stroke-miterlimit="1" x1="99.148" y1="138.48" x2="138.061" y2="138.48"/>
				<g>
					<polygon fill="#005695" points="136.476,140.805 145.148,138.48 136.476,136.156 					"/>
				</g>
			</g>
		</g>
		<g>
			<text transform="matrix(1 0 0 1 103.0347 136.8037)" font-size="6">Scalar value</text>
		</g>
		<g>
			<g>
				<polyline fill="none" stroke="#005695" stroke-miterlimit="1" points="170.314,113.053 170.314,103.053 227.749,103.053 				"/>
				<g>
					<polygon fill="#005695" points="226.163,105.377 234.836,103.053 226.163,100.729 					"/>
				</g>
			</g>
		</g>
		<g>
			<g>
				<polyline fill="none" stroke="#005695" stroke-width="2" stroke-miterlimit="1" points="195.586,138.48 260.102,138.48 
					260.076,123.206 				"/>
				<g>
					<polygon fill="#005695" points="262.403,124.787 260.064,116.118 257.754,124.794 					"/>
				</g>
			</g>
		</g>
		<g>
			<g>
				<polyline fill="none" stroke="#005695" stroke-width="2" stroke-miterlimit="1" points="195.586,42.441 260.102,42.441 
					260.076,57.716 				"/>
				<g>
					<polygon fill="#005695" points="257.754,56.127 260.064,64.804 262.403,56.135 					"/>
				</g>
			</g>
		</g>
		
			<rect x="235.064" y="65.691" fill="#CCDEF0" stroke="#010101" stroke-width="0.75" stroke-linecap="round" stroke-linejoin="round" stroke-miterlimit="1" width="50" height="50"/>
		<g>
			<text transform="matrix(1 0 0 1 287.168 88.3643)" font-size="6">RGB-4</text>
		</g>
		
			<rect x="145.314" y="194.559" fill="#CCDEF0" stroke="#010101" stroke-width="0.75" stroke-linecap="round" stroke-linejoin="round" stroke-miterlimit="1" width="50" height="50"/>
		<g>
			<text transform="matrix(1 0 0 1 156.6372 214.1318)"><tspan x="0" y="0" font-size="6">One Input</tspan><tspan x="9.469" y="7.891" font-size="8">➜</tspan><tspan x="4.674" y="14.181" font-size="6">RBGA</tspan></text>
		</g>
		<g>
			<text transform="matrix(1 0 0 1 202.5684 216.3311)" font-size="6">RGB-3</text>
		</g>
		<g>
			<text transform="matrix(1 0 0 1 202.5742 181.8955)" font-size="6">Alpha-3</text>
		</g>
		<g>
			<g>
				<line fill="none" stroke="#005695" stroke-miterlimit="1" x1="99.148" y1="219.559" x2="138.061" y2="219.559"/>
				<g>
					<polygon fill="#005695" points="136.476,221.883 145.148,219.559 136.476,217.234 					"/>
				</g>
			</g>
		</g>
		<g>
			<text transform="matrix(1 0 0 1 103.0347 217.8818)" font-size="6">Scalar value</text>
		</g>
		<g>
			<g>
				<polyline fill="none" stroke="#005695" stroke-miterlimit="1" points="170.314,194.131 170.314,184.131 277.748,184.131 				"/>
				<g>
					<polygon fill="#005695" points="276.163,186.455 284.836,184.131 276.163,181.807 					"/>
				</g>
			</g>
		</g>
		<g>
			<g>
				<polyline fill="none" stroke="#005695" stroke-width="2" stroke-miterlimit="1" points="195.586,219.559 310.102,219.559 
					310.076,204.284 				"/>
				<g>
					<polygon fill="#005695" points="312.403,205.865 310.064,197.196 307.755,205.873 					"/>
				</g>
			</g>
		</g>
		<g>
			<g>
				<polyline fill="none" stroke="#005695" stroke-width="2" stroke-miterlimit="1" points="285.336,90.691 309.852,90.691 
					309.819,138.794 				"/>
				<g>
					<polygon fill="#005695" points="307.496,137.208 309.814,145.882 312.145,137.211 					"/>
				</g>
			</g>
		</g>
		
			<rect x="284.814" y="146.77" fill="#CCDEF0" stroke="#010101" stroke-width="0.75" stroke-linecap="round" stroke-linejoin="round" stroke-miterlimit="1" width="50" height="50"/>
		<g>
			<text transform="matrix(1 0 0 1 363.8047 116.1113)" font-size="6">ICC Input Profile</text>
		</g>
		<g>
			<g>
				<line fill="none" stroke="#005695" stroke-miterlimit="1" x1="385.814" y1="119.938" x2="385.814" y2="138.93"/>
				<g>
					<polygon fill="#005695" points="383.49,137.345 385.814,146.018 388.139,137.345 					"/>
				</g>
			</g>
		</g>
		<g>
			<text transform="matrix(1 0 0 1 339.3145 168.6895)" font-size="6">RGB</text>
		</g>
		<g>
			<g>
				
					<line fill="none" stroke="#005695" stroke-width="2" stroke-miterlimit="1" x1="334.814" y1="171.017" x2="357.727" y2="171.017"/>
				<g>
					<polygon fill="#005695" points="356.142,173.341 364.814,171.017 356.142,168.692 					"/>
				</g>
			</g>
		</g>
		<g>
			<text transform="matrix(1 0 0 1 409.1406 168.6895)" font-size="6">PCS Values</text>
		</g>
		<g>
			<g>
				
					<line fill="none" stroke="#005695" stroke-width="2" stroke-miterlimit="1" x1="406.814" y1="171.017" x2="445.764" y2="171.017"/>
				<g>
					<polygon fill="#005695" points="444.179,173.341 452.852,171.017 444.179,168.692 					"/>
				</g>
			</g>
		</g>
		<rect x="237.564" y="84.017" fill="none" width="45" height="13.349"/>
		<text transform="matrix(1 0 0 1 253.563 88.3052)"><tspan x="0" y="0" font-size="6">RGB </tspan><tspan x="-8.837" y="7.2" font-size="6">Compositor</tspan></text>
		<rect x="287.314" y="165.107" fill="none" width="45" height="13.324"/>
		<text transform="matrix(1 0 0 1 303.3135 169.3955)"><tspan x="0" y="0" font-size="6">RGB </tspan><tspan x="-8.837" y="7.2" font-size="6">Compositor</tspan></text>
		
			<rect x="364.814" y="146.017" fill="#CCDEF0" stroke="#010101" stroke-width="0.75" stroke-linecap="round" stroke-linejoin="round" stroke-miterlimit="1" width="42" height="50"/>
		<rect x="368.814" y="156.106" fill="none" width="34" height="29.82"/>
		<text transform="matrix(1 0 0 1 377.3105 160.3945)"><tspan x="0" y="0" font-size="6">Profile </tspan><tspan x="-6.674" y="7.2" font-size="6">Connection </tspan><tspan x="-0.003" y="14.4" font-size="6">Space </tspan><tspan x="-5.165" y="21.6" font-size="6">Transform</tspan></text>
	</g>
</g>
</svg>
