<?xml version="1.0" encoding="utf-8"?>

<!DOCTYPE svg PUBLIC "-//W3C//DTD SVG 1.1//EN" "http://www.w3.org/Graphics/SVG/1.1/DTD/svg11.dtd">
<svg version="1.1" id="Layer_1" xmlns="http://www.w3.org/2000/svg" xmlns:xlink="http://www.w3.org/1999/xlink" x="0px" y="0px"
	 width="502px" height="382px" viewBox="0 0 502 382" enable-background="new 0 0 502 382" xml:space="preserve">

<defs>
	<style type="text/css">
	text {
	  font-family: Helvetica, Verdana, ArialUnicodeMS, san-serif
	}
	</style>
</defs>

<g>
   <desc>
	PS 3.17 Part 17: Explanatory Information
   </desc>
</g>

<g>
	<rect x="1" y="1" fill="#F5EED6" width="500" height="380"/>
	<g>
		<rect x="101.377" y="16.378" fill="#86B2D8" stroke="#010101" stroke-miterlimit="1" width="299.97" height="16"/>
		<rect x="180" y="198.671" fill="#86B2D8" stroke="#010101" stroke-miterlimit="1" width="142" height="16"/>
		<rect x="101.377" y="63.702" fill="#FFFFFF" stroke="#010101" stroke-miterlimit="1" width="9.999" height="10"/>
		<rect x="111.376" y="63.702" fill="#FFFFFF" stroke="#010101" stroke-miterlimit="1" width="9.999" height="10"/>
		<rect x="121.375" y="63.702" fill="#FFFFFF" stroke="#010101" stroke-miterlimit="1" width="9.999" height="10"/>
		<rect x="131.375" y="63.702" fill="#FFFFFF" stroke="#010101" stroke-miterlimit="1" width="9.999" height="10"/>
		<rect x="141.374" y="63.702" fill="#FFFFFF" stroke="#010101" stroke-miterlimit="1" width="9.999" height="10"/>
		<rect x="151.373" y="63.702" fill="#FFFFFF" stroke="#010101" stroke-miterlimit="1" width="9.999" height="10"/>
		<rect x="161.372" y="63.702" fill="#FFFFFF" stroke="#010101" stroke-miterlimit="1" width="9.999" height="10"/>
		<rect x="171.371" y="63.702" fill="#FFFFFF" stroke="#010101" stroke-miterlimit="1" width="9.999" height="10"/>
		<rect x="181.37" y="63.702" fill="#FFFFFF" stroke="#010101" stroke-miterlimit="1" width="9.999" height="10"/>
		<rect x="191.369" y="63.702" fill="#FFFFFF" stroke="#010101" stroke-miterlimit="1" width="9.999" height="10"/>
		<rect x="201.368" y="63.702" fill="#B2CEE7" stroke="#010101" stroke-miterlimit="1" width="9.999" height="10"/>
		<rect x="211.367" y="63.702" fill="#B2CEE7" stroke="#010101" stroke-miterlimit="1" width="9.999" height="10"/>
		<rect x="221.366" y="63.702" fill="#B2CEE7" stroke="#010101" stroke-miterlimit="1" width="10" height="10"/>
		<rect x="231.365" y="63.702" fill="#B2CEE7" stroke="#010101" stroke-miterlimit="1" width="9.998" height="10"/>
		<rect x="241.363" y="63.702" fill="#B2CEE7" stroke="#010101" stroke-miterlimit="1" width="10" height="10"/>
		<rect x="251.363" y="63.702" fill="#B2CEE7" stroke="#010101" stroke-miterlimit="1" width="9.998" height="10"/>
		<rect x="261.361" y="63.702" fill="#B2CEE7" stroke="#010101" stroke-miterlimit="1" width="10" height="10"/>
		<rect x="271.361" y="63.702" fill="#B2CEE7" stroke="#010101" stroke-miterlimit="1" width="9.998" height="10"/>
		<rect x="281.359" y="63.702" fill="#B2CEE7" stroke="#010101" stroke-miterlimit="1" width="10" height="10"/>
		<rect x="291.359" y="63.702" fill="#B2CEE7" stroke="#010101" stroke-miterlimit="1" width="9.998" height="10"/>
		<rect x="301.357" y="63.702" fill="#6799C8" stroke="#010101" stroke-miterlimit="1" width="10" height="10"/>
		<rect x="311.357" y="63.702" fill="#6799C8" stroke="#010101" stroke-miterlimit="1" width="9.998" height="10"/>
		<rect x="321.355" y="63.702" fill="#6799C8" stroke="#010101" stroke-miterlimit="1" width="10" height="10"/>
		<rect x="331.355" y="63.702" fill="#6799C8" stroke="#010101" stroke-miterlimit="1" width="9.998" height="10"/>
		<rect x="341.354" y="63.702" fill="#6799C8" stroke="#010101" stroke-miterlimit="1" width="10" height="10"/>
		<rect x="351.354" y="63.702" fill="#6799C8" stroke="#010101" stroke-miterlimit="1" width="9.998" height="10"/>
		<rect x="361.352" y="63.702" fill="#6799C8" stroke="#010101" stroke-miterlimit="1" width="10" height="10"/>
		<rect x="371.352" y="63.702" fill="#6799C8" stroke="#010101" stroke-miterlimit="1" width="9.998" height="10"/>
		<rect x="381.35" y="63.702" fill="#6799C8" stroke="#010101" stroke-miterlimit="1" width="10" height="10"/>
		<rect x="391.35" y="63.702" fill="#6799C8" stroke="#010101" stroke-miterlimit="1" width="9.998" height="10"/>
		<g>
			<text transform="matrix(0.8815 0 0 1 181.6724 27.292)" font-size="10">XA 2D Projection SOP Instance “C”</text>
		</g>
		<g>
			<text transform="matrix(0.8815 0 0 1 101.3774 81.8262)" font-size="8">N1...</text>
		</g>
		<g>
			<text transform="matrix(0.8815 0 0 1 131.0825 50.834)" font-size="9">Rotation #1</text>
		</g>
		<g>
			<text transform="matrix(0.8815 0 0 1 185.2246 81.8262)" font-size="8">...N2</text>
		</g>
		<g>
			<text transform="matrix(0.8815 0 0 1 201.6284 81.8262)" font-size="8">N3...</text>
		</g>
		<g>
			<text transform="matrix(0.8815 0 0 1 285.4756 81.8262)" font-size="8">...N4</text>
		</g>
		<g>
			<text transform="matrix(0.8815 0 0 1 301.8789 81.8262)" font-size="8">N5...</text>
		</g>
		<g>
			<text transform="matrix(0.8815 0 0 1 385.7266 81.8262)" font-size="8">...N6</text>
		</g>
		<g>
			<g>
				<line fill="none" stroke="#010101" stroke-miterlimit="1" x1="106.693" y1="53.508" x2="196.052" y2="53.508"/>
				<g>
					<polygon fill="#010101" points="107.882,55.251 101.377,53.508 107.882,51.765 					"/>
				</g>
				<g>
					<polygon fill="#010101" points="194.863,55.251 201.368,53.508 194.863,51.765 					"/>
				</g>
			</g>
		</g>
		<g>
			<text transform="matrix(0.8815 0 0 1 230.7095 50.834)" font-size="9">Rotation #2</text>
		</g>
		<g>
			<g>
				<line fill="none" stroke="#010101" stroke-miterlimit="1" x1="206.32" y1="53.508" x2="295.679" y2="53.508"/>
				<g>
					<polygon fill="#010101" points="207.509,55.251 201.004,53.508 207.509,51.765 					"/>
				</g>
				<g>
					<polygon fill="#010101" points="294.489,55.251 300.994,53.508 294.489,51.765 					"/>
				</g>
			</g>
		</g>
		<g>
			<text transform="matrix(0.8815 0 0 1 330.3359 50.834)" font-size="9">Rotation #3</text>
		</g>
		<g>
			<g>
				<line fill="none" stroke="#010101" stroke-miterlimit="1" x1="305.946" y1="53.508" x2="395.306" y2="53.508"/>
				<g>
					<polygon fill="#010101" points="307.136,55.251 300.631,53.508 307.136,51.765 					"/>
				</g>
				<g>
					<polygon fill="#010101" points="394.116,55.251 400.621,53.508 394.116,51.765 					"/>
				</g>
			</g>
		</g>
		<g>
			<g>
				<line fill="none" stroke="#010101" stroke-miterlimit="1" x1="251.362" y1="190.391" x2="251.362" y2="118.206"/>
				<g>
					<polygon fill="#010101" points="253.105,189.202 251.362,195.706 249.619,189.202 					"/>
				</g>
			</g>
		</g>
		<g>
			<g>
				<line fill="none" stroke="#010101" stroke-miterlimit="1" x1="203.736" y1="145.712" x2="151.969" y2="118.206"/>
				<g>
					<polygon fill="#010101" points="203.504,143.615 208.43,148.206 201.868,146.693 					"/>
				</g>
			</g>
		</g>
		<g>
			<g>
				<line fill="none" stroke="#010101" stroke-miterlimit="1" x1="299.464" y1="145.712" x2="351.23" y2="118.206"/>
				<g>
					<polygon fill="#010101" points="301.331,146.693 294.77,148.206 299.695,143.615 					"/>
				</g>
			</g>
		</g>
		<polygon fill="#CCDEF0" stroke="#000000" points="206.596,231.353 206.596,292.325 186.453,305.333 186.453,244.36 		"/>
		<polygon fill="#CCDEF0" stroke="#000000" points="220.794,231.353 220.794,292.325 200.651,305.331 200.651,244.36 		"/>
		<polygon fill="#CCDEF0" stroke="#000000" points="234.99,231.353 234.992,292.327 214.85,305.333 214.85,244.362 		"/>
		<polygon fill="#CCDEF0" stroke="#000000" points="249.189,231.353 249.189,292.325 229.047,305.333 229.047,244.36 		"/>
		<polygon fill="#CCDEF0" stroke="#000000" points="263.388,231.353 263.388,292.325 243.245,305.333 243.245,244.36 		"/>
		<polygon fill="#CCDEF0" stroke="#000000" points="277.586,231.353 277.586,292.325 257.443,305.333 257.443,244.36 		"/>
		<polygon fill="#CCDEF0" stroke="#000000" points="291.783,231.353 291.783,292.325 271.641,305.331 271.641,244.36 		"/>
		<polygon fill="#CCDEF0" stroke="#000000" points="305.981,231.353 305.981,292.327 285.839,305.333 285.839,244.362 		"/>
		<polygon fill="#CCDEF0" stroke="#000000" points="320.179,231.353 320.179,292.325 300.037,305.333 300.037,244.36 		"/>
		<g>
			<text transform="matrix(0.8815 0 0 1 196.6221 209.4512)" font-size="10">X-Ray 3D SOP Instance “Z”</text>
		</g>
		<g>
			<text transform="matrix(0.8815 0 0 1 202.5918 345.8379)"><tspan x="0" y="0" font-size="10">Reconstruction #1</tspan><tspan x="0" y="14.8" font-size="9">- From Acquisition Context #1, #2, #3</tspan></text>
		</g>
		<g>
			<text transform="matrix(0.8815 0 0 1 186.4536 314.624)" font-size="8">1...</text>
		</g>
		<g>
			<text transform="matrix(0.8815 0 0 1 299.6465 314.624)" font-size="8">...M</text>
		</g>
		<g>
			<path fill="none" stroke="#000000" d="M199.287,86.12c0,5.204-4.336,9.204-16.502,9.204c-3.253,0-6.625-0.253-9.876-0.571
				c-3.252-0.191-6.504-0.444-9.637-0.444c-3.854,0-12.139,0.634-12.139,5.142h-0.026c0-4.507-7.709-5.142-11.925-5.142
				c-3.373,0-6.745,0.253-10.118,0.508c-3.373,0.254-6.745,0.507-9.998,0.507c-11.081,0-15.779-3.872-15.779-9.268"/>
		</g>
		<g>
			<path fill="none" stroke="#000000" d="M299.622,86.136c0,5.191-4.337,9.181-16.502,9.181c-3.25,0-6.622-0.252-9.878-0.57
				c-3.251-0.19-6.502-0.443-9.636-0.443c-3.856,0-12.14,0.632-12.14,5.128h-0.025c0-4.496-7.709-5.128-11.926-5.128
				c-3.372,0-6.744,0.253-10.117,0.507c-3.373,0.253-6.745,0.506-9.998,0.506c-11.081,0-15.778-3.861-15.778-9.245"/>
		</g>
		<g>
			<path fill="none" stroke="#000000" d="M399.419,86.115c0,5.208-4.338,9.211-16.501,9.211c-3.251,0-6.623-0.253-9.878-0.572
				c-3.252-0.191-6.503-0.444-9.637-0.444c-3.855,0-12.138,0.635-12.138,5.146h-0.028c0-4.511-7.709-5.146-11.926-5.146
				c-3.371,0-6.744,0.253-10.117,0.508c-3.372,0.254-6.744,0.508-9.995,0.508c-11.083,0-15.78-3.875-15.78-9.275"/>
		</g>
		<g>
			<path fill="none" stroke="#000000" d="M315.123,319.323c0,5.413-5.76,9.571-21.92,9.571c-4.32,0-8.8-0.265-13.12-0.594
				c-4.319-0.198-8.64-0.462-12.8-0.462c-5.121,0-16.125,0.66-16.125,5.346h-0.035c0-4.686-10.24-5.346-15.841-5.346
				c-4.479,0-8.96,0.264-13.44,0.527c-4.48,0.264-8.96,0.528-13.28,0.528c-14.72,0-20.96-4.026-20.96-9.637"/>
		</g>
		<g>
			<path fill="#86B2D8" d="M295.545,156.991c0,3.3-2.7,6-6,6H213.18c-3.3,0-6-2.7-6-6v-5.07c0-3.3,2.7-6,6-6h76.365c3.3,0,6,2.7,6,6
				V156.991z"/>
			<path fill="none" stroke="#000000" stroke-miterlimit="1" d="M295.545,156.991c0,3.3-2.7,6-6,6H213.18c-3.3,0-6-2.7-6-6v-5.07
				c0-3.3,2.7-6,6-6h76.365c3.3,0,6,2.7,6,6V156.991z"/>
		</g>
		<g>
			<text transform="matrix(0.8815 0 0 1 215.8364 157.2373)" font-size="10">Reconstruction #1</text>
		</g>
		<g>
			<text transform="matrix(0.8815 0 0 1 107.3901 112.0898)" font-size="10">Acquisition Context #1</text>
		</g>
		<g>
			<text transform="matrix(0.8815 0 0 1 207.9634 112.0898)" font-size="10">Acquisition Context #2</text>
		</g>
		<g>
			<text transform="matrix(0.8815 0 0 1 307.4375 112.0898)" font-size="10">Acquisition Context #3</text>
		</g>
	</g>
</g>
</svg>
