<?xml version="1.0" encoding="utf-8"?>

<!DOCTYPE svg PUBLIC "-//W3C//DTD SVG 1.1//EN" "http://www.w3.org/Graphics/SVG/1.1/DTD/svg11.dtd">
<svg version="1.1" id="Layer_1" xmlns="http://www.w3.org/2000/svg" xmlns:xlink="http://www.w3.org/1999/xlink" x="0px" y="0px"
	 width="502px" height="382px" viewBox="0 0 502 382" enable-background="new 0 0 502 382" xml:space="preserve">

<defs>
	<style type="text/css">
	text {
	  font-family: Helvetica, Verdana, ArialUnicodeMS, san-serif
	}
	</style>
</defs>

<g>
   <desc>
	PS 3.17 Part 17: Explanatory Information
   </desc>
</g>

<g>
	<rect x="1" y="1" fill="#F5EED6" width="500" height="380"/>
	<g>
		<rect x="180" y="16.378" fill="#86B2D8" stroke="#010101" stroke-miterlimit="1" width="142" height="16"/>
		<rect x="180" y="186.171" fill="#86B2D8" stroke="#010101" stroke-miterlimit="1" width="142" height="16"/>
		<g>
			<text transform="matrix(0.8815 0 0 1 181.6724 27.292)" font-size="10">XA 2D Projection SOP Instance “C”</text>
		</g>
		<g>
			<text transform="matrix(0.8815 0 0 1 221.4609 50.834)" font-size="9">Contrast Frames</text>
		</g>
		<g>
			<text transform="matrix(0.8815 0 0 1 190.4966 86.5762)" font-size="8">1</text>
		</g>
		<g>
			<text transform="matrix(0.8815 0 0 1 226.9131 86.5762)" font-size="8">6</text>
		</g>
		<g>
			<text transform="matrix(0.8815 0 0 1 258.6182 86.5762)" font-size="8">11</text>
		</g>
		<g>
			<text transform="matrix(0.8815 0 0 1 295.1602 86.5762)" font-size="8">16</text>
		</g>
		<g>
			<g>
				<line fill="none" stroke="#010101" stroke-miterlimit="1" x1="190.94" y1="53.508" x2="309.534" y2="53.508"/>
				<g>
					<polygon fill="#010101" points="192.129,55.251 185.625,53.508 192.129,51.765 					"/>
				</g>
				<g>
					<polygon fill="#010101" points="308.345,55.251 314.85,53.508 308.345,51.765 					"/>
				</g>
			</g>
		</g>
		<g>
			<g>
				<line fill="none" stroke="#010101" stroke-miterlimit="1" x1="251.362" y1="177.891" x2="251.362" y2="121.956"/>
				<g>
					<polygon fill="#010101" points="253.105,176.702 251.362,183.206 249.619,176.702 					"/>
				</g>
			</g>
		</g>
		<polygon fill="#CCDEF0" stroke="#000000" points="206.596,231.353 206.596,292.325 186.453,305.333 186.453,244.36 		"/>
		<polygon fill="#CCDEF0" stroke="#000000" points="220.794,231.353 220.794,292.325 200.651,305.331 200.651,244.36 		"/>
		<polygon fill="#CCDEF0" stroke="#000000" points="234.99,231.353 234.992,292.327 214.85,305.333 214.85,244.362 		"/>
		<polygon fill="#CCDEF0" stroke="#000000" points="249.189,231.353 249.189,292.325 229.047,305.333 229.047,244.36 		"/>
		<polygon fill="#CCDEF0" stroke="#000000" points="263.388,231.353 263.388,292.325 243.245,305.333 243.245,244.36 		"/>
		<polygon fill="#CCDEF0" stroke="#000000" points="277.586,231.353 277.586,292.325 257.443,305.333 257.443,244.36 		"/>
		<polygon fill="#CCDEF0" stroke="#000000" points="291.783,231.353 291.783,292.325 271.641,305.331 271.641,244.36 		"/>
		<polygon fill="#CCDEF0" stroke="#000000" points="305.981,231.353 305.981,292.327 285.839,305.333 285.839,244.362 		"/>
		<polygon fill="#CCDEF0" stroke="#000000" points="320.179,231.353 320.179,292.325 300.037,305.333 300.037,244.36 		"/>
		<g>
			<text transform="matrix(0.8815 0 0 1 196.6221 196.9512)" font-size="10">X-Ray 3D SOP Instance “Z”</text>
		</g>
		<g>
			<text transform="matrix(0.8815 0 0 1 222.4341 218.3818)" font-size="9">Contrast Volume</text>
		</g>
		<g>
			<text transform="matrix(0.8815 0 0 1 202.5918 345.8379)"><tspan x="0" y="0" font-size="10">Reconstruction #1</tspan><tspan x="0" y="14.8" font-size="9">- From Acquisition Context #1</tspan></text>
		</g>
		<g>
			<text transform="matrix(0.8815 0 0 1 186.4536 314.624)" font-size="8">1...</text>
		</g>
		<g>
			<text transform="matrix(0.8815 0 0 1 299.6465 314.624)" font-size="8">...M</text>
		</g>
		<g>
			<g>
				<line fill="none" stroke="#010101" stroke-miterlimit="1" x1="192.023" y1="221.056" x2="310.618" y2="221.056"/>
				<g>
					<polygon fill="#010101" points="193.212,222.799 186.708,221.056 193.212,219.312 					"/>
				</g>
				<g>
					<polygon fill="#010101" points="309.429,222.799 315.934,221.056 309.429,219.312 					"/>
				</g>
			</g>
		</g>
		<path fill="none" stroke="#000000" d="M315.123,92.105c0,5.413-5.76,9.571-21.92,9.571c-4.32,0-8.8-0.264-13.12-0.594
			c-4.319-0.198-8.64-0.462-12.8-0.462c-5.121,0-16.125,0.66-16.125,5.347h-0.035c0-4.687-10.24-5.347-15.84-5.347
			c-4.48,0-8.96,0.264-13.44,0.528c-4.48,0.264-8.96,0.528-13.28,0.528c-14.72,0-20.96-4.026-20.96-9.637"/>
		<path fill="none" stroke="#000000" d="M315.123,319.323c0,5.413-5.76,9.571-21.92,9.571c-4.32,0-8.8-0.265-13.12-0.594
			c-4.319-0.198-8.64-0.462-12.8-0.462c-5.121,0-16.125,0.66-16.125,5.346h-0.035c0-4.686-10.24-5.346-15.84-5.346
			c-4.48,0-8.96,0.264-13.44,0.527s-8.96,0.528-13.28,0.528c-14.72,0-20.96-4.026-20.96-9.637"/>
		<g>
			<path fill="#86B2D8" d="M295.545,149.491c0,3.3-2.7,6-6,6H213.18c-3.3,0-6-2.7-6-6v-5.07c0-3.3,2.7-6,6-6h76.365c3.3,0,6,2.7,6,6
				V149.491z"/>
			<path fill="none" stroke="#000000" stroke-miterlimit="1" d="M295.545,149.491c0,3.3-2.7,6-6,6H213.18c-3.3,0-6-2.7-6-6v-5.07
				c0-3.3,2.7-6,6-6h76.365c3.3,0,6,2.7,6,6V149.491z"/>
		</g>
		<g>
			<text transform="matrix(0.8815 0 0 1 207.5093 117.5898)"><tspan x="0" y="0" font-size="10">Acquisition Context #1</tspan><tspan x="9.451" y="32" font-size="10">Reconstruction #1</tspan></text>
		</g>
		<rect x="279.395" y="63.702" fill="#CCDEF0" stroke="#010101" stroke-miterlimit="1" width="7.177" height="14.401"/>
		<rect x="286.621" y="63.702" fill="#CCDEF0" stroke="#010101" stroke-miterlimit="1" width="7.176" height="14.401"/>
		<rect x="293.847" y="63.702" fill="#4F8ABE" stroke="#010101" stroke-miterlimit="1" width="7.177" height="14.401"/>
		<rect x="301.073" y="63.702" fill="#CCDEF0" stroke="#010101" stroke-miterlimit="1" width="7.176" height="14.401"/>
		<rect x="308.299" y="63.702" fill="#CCDEF0" stroke="#010101" stroke-miterlimit="1" width="7.177" height="14.401"/>
		<rect x="250.49" y="63.702" fill="#CCDEF0" stroke="#010101" stroke-miterlimit="1" width="7.176" height="14.401"/>
		<rect x="257.716" y="63.702" fill="#4F8ABE" stroke="#010101" stroke-miterlimit="1" width="7.177" height="14.401"/>
		<rect x="264.942" y="63.702" fill="#CCDEF0" stroke="#010101" stroke-miterlimit="1" width="7.177" height="14.401"/>
		<rect x="272.168" y="63.702" fill="#CCDEF0" stroke="#010101" stroke-miterlimit="1" width="7.177" height="14.401"/>
		<rect x="214.38" y="63.702" fill="#CCDEF0" stroke="#010101" stroke-miterlimit="1" width="7.176" height="14.401"/>
		<rect x="221.606" y="63.702" fill="#4F8ABE" stroke="#010101" stroke-miterlimit="1" width="7.176" height="14.401"/>
		<rect x="228.833" y="63.702" fill="#CCDEF0" stroke="#010101" stroke-miterlimit="1" width="7.176" height="14.401"/>
		<rect x="236.059" y="63.702" fill="#CCDEF0" stroke="#010101" stroke-miterlimit="1" width="7.176" height="14.401"/>
		<rect x="243.285" y="63.702" fill="#CCDEF0" stroke="#010101" stroke-miterlimit="1" width="7.177" height="14.401"/>
		<rect x="185.476" y="63.702" fill="#4F8ABE" stroke="#010101" stroke-miterlimit="1" width="7.176" height="14.401"/>
		<rect x="192.702" y="63.702" fill="#CCDEF0" stroke="#010101" stroke-miterlimit="1" width="7.177" height="14.401"/>
		<rect x="199.928" y="63.702" fill="#CCDEF0" stroke="#010101" stroke-miterlimit="1" width="7.177" height="14.401"/>
		<rect x="207.154" y="63.702" fill="#CCDEF0" stroke="#010101" stroke-miterlimit="1" width="7.177" height="14.401"/>
	</g>
</g>
</svg>
