<?xml version="1.0" encoding="utf-8"?>

<!DOCTYPE svg PUBLIC "-//W3C//DTD SVG 1.1//EN" "http://www.w3.org/Graphics/SVG/1.1/DTD/svg11.dtd">
<svg version="1.1" id="Layer_1" xmlns="http://www.w3.org/2000/svg" xmlns:xlink="http://www.w3.org/1999/xlink" x="0px" y="0px"
	 width="552px" height="182px" viewBox="0 0 552 182" enable-background="new 0 0 552 182" xml:space="preserve">

<defs>
	<style type="text/css">
	text {
	  font-family: Helvetica, Verdana, ArialUnicodeMS, san-serif
	}
	</style>
</defs>

<g>
   <desc>
	PS 3.17 Part 17: Explanatory Information
   </desc>
</g>

<g>
	<rect x="1" y="1" fill="#F5EED6" width="550" height="180"/>
	<g>
		<g>
			<g>
				
					<polygon fill="#FFFFFF" stroke="#4F8ABE" stroke-width="2" stroke-linecap="round" stroke-linejoin="round" stroke-miterlimit="1" points="
					316.134,154.905 316.134,159.044 298.459,147.464 316.134,135.891 316.134,139.636 393.884,139.636 393.884,135.891 
					411.56,147.464 393.884,159.044 393.884,154.905 				"/>
			</g>
		</g>
		<g>
			<line fill="#4F8ABE" x1="183.436" y1="71.005" x2="219.896" y2="71.005"/>
			<g>
				
					<line fill="none" stroke="#005695" stroke-width="1.6141" stroke-linecap="round" stroke-miterlimit="1" x1="183.436" y1="71.005" x2="211.317" y2="71.005"/>
				<g>
					<polygon fill="#005695" points="209.398,73.818 219.896,71.005 209.398,68.191 					"/>
				</g>
			</g>
		</g>
		<g>
			<line fill="#4F8ABE" x1="253.396" y1="133.22" x2="253.396" y2="104.47"/>
			<g>
				
					<line fill="none" stroke="#005695" stroke-width="1.6141" stroke-linecap="round" stroke-miterlimit="1" x1="253.396" y1="133.22" x2="253.396" y2="113.05"/>
				<g>
					<polygon fill="#005695" points="256.209,114.969 253.396,104.47 250.582,114.969 					"/>
				</g>
			</g>
		</g>
		<g>
			<line fill="#4F8ABE" x1="321.734" y1="71.005" x2="286.52" y2="71.005"/>
			<g>
				
					<line fill="none" stroke="#005695" stroke-width="1.614" stroke-linecap="round" stroke-miterlimit="1" x1="313.155" y1="71.005" x2="286.52" y2="71.005"/>
				<g>
					<polygon fill="#005695" points="311.236,68.191 321.734,71.005 311.236,73.818 					"/>
				</g>
			</g>
		</g>
		<g>
			
				<path fill="#CCDEF0" stroke="#010101" stroke-width="0.75" stroke-linecap="round" stroke-linejoin="round" stroke-miterlimit="1" d="
				M413.382,121.683c0-4.903,11.27-8.879,25.168-8.879c13.91,0,25.189,3.976,25.189,8.879v36.242c0,4.899-11.279,8.879-25.189,8.879
				c-13.898,0-25.168-3.979-25.168-8.879V121.683z"/>
			
				<path fill="#86B2D8" stroke="#010101" stroke-width="0.75" stroke-linecap="round" stroke-linejoin="round" stroke-miterlimit="1" d="
				M413.382,121.793c0-4.896,11.27-8.862,25.168-8.862c13.91,0,25.189,3.966,25.189,8.862c0,4.904-11.279,8.882-25.189,8.882
				C424.651,130.675,413.382,126.697,413.382,121.793z"/>
		</g>
		<text transform="matrix(1 0 0 1 418.5508 143.9297)"><tspan x="0" y="0" font-size="9">Persistent</tspan><tspan x="4.248" y="10.801" font-size="9">Storage</tspan></text>
		<g>
			<path fill="#86B2D8" d="M209.84,135.772c0-0.991,0.812-1.803,1.803-1.803h83.394c0.991,0,1.803,0.812,1.803,1.803v23.393
				c0,0.991-0.812,1.803-1.803,1.803h-83.394c-0.992,0-1.803-0.812-1.803-1.803V135.772z"/>
			
				<path fill="none" stroke="#010101" stroke-width="0.3756" stroke-linecap="round" stroke-linejoin="round" stroke-miterlimit="10" d="
				M209.84,135.772c0-0.991,0.812-1.803,1.803-1.803h83.394c0.991,0,1.803,0.812,1.803,1.803v23.393
				c0,0.991-0.812,1.803-1.803,1.803h-83.394c-0.992,0-1.803-0.812-1.803-1.803V135.772z"/>
		</g>
		<g>
			<text transform="matrix(0.9288 0 0 1 216.8726 149.9736)" font-size="9">Display Parameters</text>
		</g>
		<g>
			<path fill="#4F8ABE" d="M321.734,59.308c0-0.992,0.812-1.803,1.803-1.803h59.396c0.991,0,1.803,0.812,1.803,1.803v23.394
				c0,0.992-0.812,1.803-1.803,1.803h-59.396c-0.991,0-1.803-0.812-1.803-1.803V59.308z"/>
			
				<path fill="none" stroke="#010101" stroke-width="0.3756" stroke-linecap="round" stroke-linejoin="round" stroke-miterlimit="10" d="
				M321.734,59.308c0-0.992,0.812-1.803,1.803-1.803h59.396c0.991,0,1.803,0.812,1.803,1.803v23.394
				c0,0.992-0.812,1.803-1.803,1.803h-59.396c-0.991,0-1.803-0.812-1.803-1.803V59.308z"/>
		</g>
		<g>
			<text transform="matrix(0.9288 0 0 1 329.7168 68.1108)"><tspan x="0" y="0" fill="#FFFFFF" font-size="9">Presentation</tspan><tspan x="12.516" y="10.8" fill="#FFFFFF" font-size="9">(View)</tspan></text>
		</g>
		<g>
			<text transform="matrix(0.9288 0 0 1 320.6211 150.3486)" font-size="9">Presentation State</text>
		</g>
		<g>
			<g>
				<g>
					<polygon fill="#005695" stroke="#000000" stroke-width="0.5" stroke-linejoin="round" stroke-miterlimit="10" points="
						110.229,71.276 110.229,22.511 102.916,15.196 102.916,63.961 					"/>
				</g>
				<g>
					<polygon fill="#86B2D8" stroke="#000000" stroke-width="0.5" stroke-linejoin="round" stroke-miterlimit="10" points="
						110.229,22.511 158.987,22.511 151.674,15.196 102.916,15.196 					"/>
				</g>
				
					<rect x="110.229" y="22.511" fill="#CCDEF0" stroke="#000000" stroke-width="0.5" stroke-miterlimit="10" width="48.759" height="48.766"/>
			</g>
			<g>
				<g>
					
						<polygon fill="none" stroke="#000000" stroke-width="0.5" stroke-linejoin="round" stroke-miterlimit="10" stroke-dasharray="2,3" points="
						122.429,83.478 122.429,34.711 115.116,27.396 115.116,76.162 					"/>
				</g>
				<g>
					
						<polygon fill="none" stroke="#000000" stroke-width="0.5" stroke-linejoin="round" stroke-miterlimit="10" stroke-dasharray="2,3" points="
						122.429,34.711 171.188,34.711 163.874,27.396 115.116,27.396 					"/>
				</g>
				
					<rect x="122.429" y="34.711" fill="none" stroke="#000000" stroke-width="0.5" stroke-linejoin="round" stroke-miterlimit="10" stroke-dasharray="2,3" width="48.759" height="48.767"/>
			</g>
			<g>
				<g>
					<polygon fill="#005695" stroke="#000000" stroke-width="0.5" stroke-linejoin="round" stroke-miterlimit="10" points="
						134.629,95.676 134.629,46.911 127.315,39.595 127.315,88.36 					"/>
				</g>
				<g>
					<polygon fill="#86B2D8" stroke="#000000" stroke-width="0.5" stroke-linejoin="round" stroke-miterlimit="10" points="
						134.629,46.911 183.387,46.911 176.074,39.595 127.315,39.595 					"/>
				</g>
				
					<rect x="134.629" y="46.911" fill="#CCDEF0" stroke="#000000" stroke-width="0.5" stroke-miterlimit="10" width="48.759" height="48.765"/>
			</g>
			<g>
				<g>
					<line fill="none" stroke="#0DB14B" x1="134.682" y1="47.065" x2="134.682" y2="55.485"/>
					<g>
						<polygon fill="#0DB14B" points="133.229,54.495 134.682,59.915 136.134,54.495 						"/>
					</g>
				</g>
			</g>
			<g>
				<g>
					<line fill="none" stroke="#ED1C24" x1="144.053" y1="46.94" x2="134.687" y2="46.94"/>
					<g>
						<polygon fill="#ED1C24" points="143.062,45.488 148.482,46.94 143.062,48.393 						"/>
					</g>
				</g>
			</g>
			<path stroke="#000000" stroke-width="0.5" stroke-miterlimit="1" d="M131.955,46.915c-0.003-1.484,1.201-2.684,2.683-2.684v2.684
				H131.955z"/>
			
				<path fill="#FFFFFF" stroke="#010101" stroke-width="0.5" stroke-linecap="round" stroke-linejoin="round" stroke-miterlimit="1" d="
				M134.638,44.231c1.48,0,2.682,1.201,2.682,2.684h-2.682V44.231z"/>
			<path stroke="#000000" stroke-width="0.5" stroke-miterlimit="1" d="M137.319,46.915c-0.001,1.482-1.201,2.682-2.686,2.682
				l0.004-2.682H137.319z"/>
			
				<path fill="#FFFFFF" stroke="#010101" stroke-width="0.5" stroke-linecap="round" stroke-linejoin="round" stroke-miterlimit="1" d="
				M134.638,46.915l-0.004,2.682c-1.479,0-2.682-1.201-2.679-2.682H134.638z"/>
			<g>
				<g>
					
						<line fill="none" stroke="#000000" stroke-width="0.75" stroke-miterlimit="10" x1="127.51" y1="99.801" x2="90.616" y2="63.092"/>
					<g>
						<polygon points="91.911,62.844 88.261,60.749 90.374,64.389 						"/>
					</g>
				</g>
			</g>
			<g>
				<text transform="matrix(0.9288 0 0 1 139.6909 62.4287)"><tspan x="0" y="0" font-size="9">Volumetric</tspan><tspan x="6.998" y="10.8" font-size="9">Source</tspan><tspan x="-1.254" y="21.6" font-size="9">Information</tspan></text>
			</g>
		</g>
		<circle fill="#CCDEF0" stroke="#010101" stroke-width="0.6316" cx="253.396" cy="71.005" r="32.499"/>
		<g>
			<text transform="matrix(1 0 0 1 238.6465 67.4673)"><tspan x="0" y="0" font-size="9">Display</tspan><tspan x="-4.252" y="10.8" font-size="9">Algorithm</tspan></text>
		</g>
	</g>
</g>
</svg>
