<?xml version="1.0" encoding="utf-8"?>

<!DOCTYPE svg PUBLIC "-//W3C//DTD SVG 1.1//EN" "http://www.w3.org/Graphics/SVG/1.1/DTD/svg11.dtd">
<svg version="1.1" id="Layer_1" xmlns="http://www.w3.org/2000/svg" xmlns:xlink="http://www.w3.org/1999/xlink" x="0px" y="0px"
	 width="552px" height="177px" viewBox="0 0 552 177" enable-background="new 0 0 552 177" xml:space="preserve">
<g>
	<rect x="1" y="1" fill="#F5EED6" width="550" height="175"/>
	<g>
		
			<rect x="289.954" y="15.48" fill="#CCDEF0" stroke="#010101" stroke-width="0.75" stroke-linecap="round" stroke-linejoin="round" stroke-miterlimit="1" width="50" height="50"/>
		<g>
			<text transform="matrix(1 0 0 1 301.7773 35.0527)"><tspan x="0" y="0" font-size="6">One Input</tspan><tspan x="9.47" y="7.891" font-size="8">➜</tspan><tspan x="4.675" y="14.181" font-size="6">RBGA</tspan></text>
		</g>
		<g>
			<text transform="matrix(1 0 0 1 347.208 38.1523)" font-size="6">RGB-1</text>
		</g>
		<g>
			<text transform="matrix(1 0 0 1 347.2139 73.0684)" font-size="6">Alpha-1</text>
		</g>
		<g>
			<g>
				<polyline fill="none" stroke="#005695" stroke-miterlimit="1" points="314.954,65.907 314.954,75.907 372.388,75.907 				"/>
				<g>
					<polygon fill="#005695" points="370.803,78.231 379.476,75.907 370.803,73.583 					"/>
				</g>
			</g>
		</g>
		
			<rect x="289.954" y="111.52" fill="#CCDEF0" stroke="#010101" stroke-width="0.75" stroke-linecap="round" stroke-linejoin="round" stroke-miterlimit="1" width="50" height="50"/>
		<g>
			<text transform="matrix(1 0 0 1 301.7773 131.0918)"><tspan x="0" y="0" font-size="6">One Input</tspan><tspan x="9.469" y="7.891" font-size="8">➜</tspan><tspan x="4.674" y="14.182" font-size="6">RBGA</tspan></text>
		</g>
		<g>
			<text transform="matrix(1 0 0 1 347.208 133.291)" font-size="6">RGB-2</text>
		</g>
		<g>
			<text transform="matrix(1 0 0 1 347.2139 98.8555)" font-size="6">Alpha-2</text>
		</g>
		<g>
			<g>
				<polyline fill="none" stroke="#005695" stroke-miterlimit="1" points="314.954,111.092 314.954,101.092 372.388,101.092 				"/>
				<g>
					<polygon fill="#005695" points="370.803,103.416 379.476,101.092 370.803,98.768 					"/>
				</g>
			</g>
		</g>
		<g>
			<g>
				<polyline fill="none" stroke="#005695" stroke-width="2" stroke-miterlimit="1" points="340.226,136.52 404.741,136.52 
					404.716,121.245 				"/>
				<g>
					<polygon fill="#005695" points="407.043,122.826 404.704,114.157 402.395,122.834 					"/>
				</g>
			</g>
		</g>
		<g>
			<g>
				<polyline fill="none" stroke="#005695" stroke-width="2" stroke-miterlimit="1" points="340.226,40.48 404.741,40.48 
					404.716,55.755 				"/>
				<g>
					<polygon fill="#005695" points="402.395,54.167 404.704,62.843 407.043,54.174 					"/>
				</g>
			</g>
		</g>
		
			<rect x="379.704" y="63.73" fill="#CCDEF0" stroke="#010101" stroke-width="0.75" stroke-linecap="round" stroke-linejoin="round" stroke-miterlimit="1" width="50" height="50"/>
		<g>
			<text transform="matrix(1 0 0 1 434.4746 86.4023)" font-size="6">RGB</text>
		</g>
		<g>
			<text transform="matrix(1 0 0 1 458.6943 33.4941)" font-size="6">ICC Input Profile</text>
		</g>
		<g>
			<g>
				<line fill="none" stroke="#005695" stroke-miterlimit="1" x1="480.704" y1="37.322" x2="480.704" y2="56.314"/>
				<g>
					<polygon fill="#005695" points="478.38,54.729 480.704,63.401 483.028,54.729 					"/>
				</g>
			</g>
		</g>
		<g>
			<g>
				<line fill="none" stroke="#005695" stroke-width="2" stroke-miterlimit="1" x1="429.704" y1="88.4" x2="452.616" y2="88.4"/>
				<g>
					<polygon fill="#005695" points="451.031,90.725 459.704,88.4 451.031,86.076 					"/>
				</g>
			</g>
		</g>
		<g>
			<text transform="matrix(1 0 0 1 504.0293 86.0723)" font-size="6">PCS Values</text>
		</g>
		<g>
			<g>
				<line fill="none" stroke="#005695" stroke-width="2" stroke-miterlimit="1" x1="501.704" y1="88.4" x2="540.653" y2="88.4"/>
				<g>
					<polygon fill="#005695" points="539.068,90.725 547.741,88.4 539.068,86.076 					"/>
				</g>
			</g>
		</g>
		<rect x="382.203" y="82.222" fill="none" width="45.001" height="13.016"/>
		<text transform="matrix(1 0 0 1 398.2031 86.5093)"><tspan x="0" y="0" font-size="6">RGB </tspan><tspan x="-8.838" y="7.2" font-size="6">Compositor</tspan></text>
		
			<rect x="459.704" y="63.4" fill="#CCDEF0" stroke="#010101" stroke-width="0.75" stroke-linecap="round" stroke-linejoin="round" stroke-miterlimit="1" width="42" height="50"/>
		<rect x="463.704" y="73.49" fill="none" width="34" height="29.82"/>
		<text transform="matrix(1 0 0 1 472.2002 77.7773)"><tspan x="0" y="0" font-size="6">Profile </tspan><tspan x="-6.674" y="7.2" font-size="6">Connection </tspan><tspan x="-0.003" y="14.4" font-size="6">Space </tspan><tspan x="-5.165" y="21.6" font-size="6">Transform</tspan></text>
		<g>
			<g>
				
					<line fill="none" stroke="#005695" stroke-width="2" stroke-miterlimit="1" x1="222.523" y1="136.588" x2="233.436" y2="136.588"/>
				<g>
					<polygon fill="#005695" points="231.851,138.912 240.523,136.588 231.851,134.264 					"/>
				</g>
			</g>
		</g>
		
			<rect x="192.494" y="125.588" fill="#CCDEF0" stroke="#010101" stroke-width="0.75" stroke-linecap="round" stroke-linejoin="round" stroke-miterlimit="1" width="30" height="22"/>
		<g>
			<text transform="matrix(1 0 0 1 195.3188 138.25)" font-size="6">Cropping</text>
		</g>
		<g>
			<g>
				
					<line fill="none" stroke="#005695" stroke-width="2" stroke-miterlimit="1" x1="62.822" y1="136.588" x2="79.735" y2="136.588"/>
				<g>
					<polygon fill="#005695" points="78.149,138.912 86.822,136.588 78.149,134.264 					"/>
				</g>
			</g>
		</g>
		<g>
			<g>
				
					<line fill="none" stroke="#005695" stroke-width="2" stroke-miterlimit="1" x1="117.082" y1="136.588" x2="127.995" y2="136.588"/>
				<g>
					<polygon fill="#005695" points="126.409,138.912 135.082,136.588 126.409,134.264 					"/>
				</g>
			</g>
		</g>
		
			<rect x="86.929" y="125.588" fill="#CCDEF0" stroke="#010101" stroke-width="0.75" stroke-linecap="round" stroke-linejoin="round" stroke-miterlimit="1" width="30" height="22"/>
		<g>
			<text transform="matrix(1 0 0 1 90.2583 138.25)" font-size="6">VOI LUT</text>
		</g>
		<g>
			<g>
				
					<line fill="none" stroke="#005695" stroke-width="2" stroke-miterlimit="1" x1="175.097" y1="136.588" x2="186.009" y2="136.588"/>
				<g>
					<polygon fill="#005695" points="184.424,138.912 193.097,136.588 184.424,134.264 					"/>
				</g>
			</g>
		</g>
		<g>
			<g>
				
					<line fill="none" stroke="#005695" stroke-width="2" stroke-miterlimit="1" x1="271.954" y1="136.588" x2="282.866" y2="136.588"/>
				<g>
					<polygon fill="#005695" points="281.281,138.912 289.954,136.588 281.281,134.264 					"/>
				</g>
			</g>
		</g>
		
			<rect x="241.641" y="125.588" fill="#CCDEF0" stroke="#010101" stroke-width="0.75" stroke-linecap="round" stroke-linejoin="round" stroke-miterlimit="1" width="29.999" height="22"/>
		<g>
			<text transform="matrix(1 0 0 1 249.9736 138.25)" font-size="6">MPR</text>
		</g>
		
			<rect x="135.054" y="125.588" fill="#CCDEF0" stroke="#010101" stroke-width="0.75" stroke-linecap="round" stroke-linejoin="round" stroke-miterlimit="1" width="40" height="22"/>
		<g>
			<text transform="matrix(1 0 0 1 145.8809 135.5049)"><tspan x="0" y="0" font-size="6">Spatial</tspan><tspan x="-6.835" y="5.491" font-size="6">Registration</tspan></text>
		</g>
		<g>
			<text transform="matrix(1 0 0 1 10.5991 138)" font-size="6">Flow Velocity Data</text>
		</g>
		<g>
			<g>
				
					<line fill="none" stroke="#005695" stroke-width="2" stroke-miterlimit="1" x1="222.523" y1="40.754" x2="233.436" y2="40.754"/>
				<g>
					<polygon fill="#005695" points="231.851,43.079 240.523,40.754 231.851,38.43 					"/>
				</g>
			</g>
		</g>
		
			<rect x="192.494" y="29.755" fill="#CCDEF0" stroke="#010101" stroke-width="0.75" stroke-linecap="round" stroke-linejoin="round" stroke-miterlimit="1" width="30" height="22"/>
		<g>
			<text transform="matrix(1 0 0 1 195.3188 42.4165)" font-size="6">Cropping</text>
		</g>
		<g>
			<g>
				<polyline fill="none" stroke="#000000" stroke-width="0.5" stroke-miterlimit="1" points="63.409,89.467 256.891,89.467 
					256.891,55.297 				"/>
				<g>
					<polygon points="258.053,56.09 256.891,51.753 255.729,56.09 					"/>
				</g>
			</g>
		</g>
		<g>
			<g>
				<polyline fill="none" stroke="#000000" stroke-width="0.5" stroke-miterlimit="1" points="63.409,89.406 256.891,89.406 
					256.891,121.261 				"/>
				<g>
					<polygon points="255.729,120.469 256.891,124.805 258.053,120.469 					"/>
				</g>
			</g>
		</g>
		<g>
			<g>
				<line fill="none" stroke="#005695" stroke-width="2" stroke-miterlimit="1" x1="62.822" y1="40.754" x2="79.735" y2="40.754"/>
				<g>
					<polygon fill="#005695" points="78.149,43.079 86.822,40.754 78.149,38.43 					"/>
				</g>
			</g>
		</g>
		<g>
			<g>
				
					<line fill="none" stroke="#005695" stroke-width="2" stroke-miterlimit="1" x1="117.082" y1="40.754" x2="127.995" y2="40.754"/>
				<g>
					<polygon fill="#005695" points="126.409,43.079 135.082,40.754 126.409,38.43 					"/>
				</g>
			</g>
		</g>
		
			<rect x="86.929" y="29.755" fill="#CCDEF0" stroke="#010101" stroke-width="0.75" stroke-linecap="round" stroke-linejoin="round" stroke-miterlimit="1" width="30" height="22"/>
		<g>
			<text transform="matrix(1 0 0 1 90.2583 42.4165)" font-size="6">VOI LUT</text>
		</g>
		<g>
			<g>
				
					<line fill="none" stroke="#005695" stroke-width="2" stroke-miterlimit="1" x1="175.097" y1="40.754" x2="186.009" y2="40.754"/>
				<g>
					<polygon fill="#005695" points="184.424,43.079 193.097,40.754 184.424,38.43 					"/>
				</g>
			</g>
		</g>
		<g>
			<g>
				
					<line fill="none" stroke="#005695" stroke-width="2" stroke-miterlimit="1" x1="271.954" y1="40.754" x2="282.866" y2="40.754"/>
				<g>
					<polygon fill="#005695" points="281.281,43.079 289.954,40.754 281.281,38.43 					"/>
				</g>
			</g>
		</g>
		
			<rect x="241.641" y="29.755" fill="#CCDEF0" stroke="#010101" stroke-width="0.75" stroke-linecap="round" stroke-linejoin="round" stroke-miterlimit="1" width="29.999" height="22"/>
		<g>
			<text transform="matrix(1 0 0 1 249.9736 42.4165)" font-size="6">MPR</text>
		</g>
		
			<rect x="135.054" y="29.755" fill="#CCDEF0" stroke="#010101" stroke-width="0.75" stroke-linecap="round" stroke-linejoin="round" stroke-miterlimit="1" width="40" height="22"/>
		<g>
			<text transform="matrix(1 0 0 1 145.8809 39.6714)"><tspan x="0" y="0" font-size="6">Spatial</tspan><tspan x="-6.835" y="5.491" font-size="6">Registration</tspan></text>
		</g>
		<g>
			<text transform="matrix(1 0 0 1 4.2593 42.1665)" font-size="6">Tissue Intensity Data</text>
		</g>
		<g>
			<text transform="matrix(1 0 0 1 18.9429 90.8994)" font-size="6">MPR Geometry</text>
		</g>
	</g>
</g>
</svg>
