<?xml version="1.0" encoding="utf-8"?>

<!DOCTYPE svg PUBLIC "-//W3C//DTD SVG 1.1//EN" "http://www.w3.org/Graphics/SVG/1.1/DTD/svg11.dtd">
<svg version="1.1" id="Layer_1" xmlns="http://www.w3.org/2000/svg" xmlns:xlink="http://www.w3.org/1999/xlink" x="0px" y="0px"
	 width="552px" height="57px" viewBox="0 0 552 57" enable-background="new 0 0 552 57" xml:space="preserve">

<defs>
	<style type="text/css">
	text {
	  font-family: Helvetica, Verdana, ArialUnicodeMS, san-serif
	}
	</style>
</defs>

<g>
   <desc>
	PS 3.17 Part 17: Explanatory Information
   </desc>
</g>

<g>
	<rect x="1" y="1" fill="#F5EED6" width="550" height="55"/>
<g>
	<g>
		<g>
			<line fill="none" stroke="#005695" stroke-width="2" stroke-miterlimit="1" x1="121.812" y1="28.5" x2="159.974" y2="28.5"/>
			<g>
				<polygon fill="#005695" points="158.389,30.824 167.062,28.5 158.389,26.176 				"/>
			</g>
		</g>
	</g>
	<g>
		<g>
			<line fill="none" stroke="#005695" stroke-width="2" stroke-miterlimit="1" x1="201.6" y1="28.5" x2="241.013" y2="28.5"/>
			<g>
				<polygon fill="#005695" points="239.427,30.824 248.1,28.5 239.427,26.176 				"/>
			</g>
		</g>
	</g>
	
		<rect x="167.6" y="17.5" fill="#CCDEF0" stroke="#010101" stroke-width="0.75" stroke-linecap="round" stroke-linejoin="round" stroke-miterlimit="1" width="34" height="22"/>
	<g>
		<text transform="matrix(1 0 0 1 172.9312 30.1621)" font-size="6">VOI LUT</text>
	</g>
	
		<rect x="248.1" y="17.5" fill="#CCDEF0" stroke="#010101" stroke-width="0.75" stroke-linecap="round" stroke-linejoin="round" stroke-miterlimit="1" width="44" height="22"/>
	<g>
		<text transform="matrix(1 0 0 1 253.7627 30.1621)" font-size="6">MPR Slicing</text>
	</g>
	<g>
		<g>
			<line fill="none" stroke="#005695" stroke-width="2" stroke-miterlimit="1" x1="390.188" y1="28.5" x2="423.101" y2="28.5"/>
			<g>
				<polygon fill="#005695" points="421.516,30.824 430.188,28.5 421.516,26.176 				"/>
			</g>
		</g>
	</g>
	
		<rect x="338.601" y="17.5" fill="#CCDEF0" stroke="#010101" stroke-width="0.75" stroke-linecap="round" stroke-linejoin="round" stroke-miterlimit="1" width="52" height="22"/>
	<g>
		<text transform="matrix(1 0 0 1 341.2559 30.1621)" font-size="6">Presentation LUT</text>
	</g>
	<g>
		<text transform="matrix(1 0 0 1 123.6978 25.667)" font-size="6">Scalar value</text>
	</g>
	<g>
		<text transform="matrix(1 0 0 1 204.4478 25.667)" font-size="6">Scalar value</text>
	</g>
	<g>
		<g>
			<line fill="none" stroke="#005695" stroke-width="2" stroke-miterlimit="1" x1="292.101" y1="28.5" x2="331.513" y2="28.5"/>
			<g>
				<polygon fill="#005695" points="329.928,30.824 338.601,28.5 329.928,26.176 				"/>
			</g>
		</g>
	</g>
	<g>
		<text transform="matrix(1 0 0 1 294.9473 25.667)" font-size="6">Scalar value</text>
	</g>
	<g>
		<text transform="matrix(1 0 0 1 394.2832 25.667)" font-size="6">P-Values</text>
	</g>
</g>
</g>
</svg>
