<?xml version="1.0" encoding="utf-8"?>

<!DOCTYPE svg PUBLIC "-//W3C//DTD SVG 1.1//EN" "http://www.w3.org/Graphics/SVG/1.1/DTD/svg11.dtd">
<svg version="1.1" id="Layer_1" xmlns="http://www.w3.org/2000/svg" xmlns:xlink="http://www.w3.org/1999/xlink" x="0px" y="0px"
	 width="507px" height="367px" viewBox="0 0 507 367" enable-background="new 0 0 507 367" xml:space="preserve">

<defs>
	<style type="text/css">
	text {
	  font-family: Helvetica, Verdana, ArialUnicodeMS, san-serif
	}
	</style>
</defs>

<g>
   <desc>
	PS 3.17 Explanatory Information
   </desc>
</g>

<g>
	<rect x="1" y="1" fill="#F5EED6" width="505" height="365"/>
    <g>
	<g>
		<g>
			
				<line fill="none" stroke="#005695" stroke-linecap="round" stroke-miterlimit="1" x1="109.993" y1="84.496" x2="217.313" y2="84.496"/>
			<g>
				<polygon fill="#005695" points="215.332,87.401 226.173,84.496 215.332,81.591 				"/>
			</g>
		</g>
	</g>
	<g>
		<g>
			
				<line fill="none" stroke="#005695" stroke-linecap="round" stroke-miterlimit="1" x1="118.853" y1="102.394" x2="120.353" y2="102.394"/>
			
				<line fill="none" stroke="#005695" stroke-linecap="round" stroke-miterlimit="1" stroke-dasharray="2.9806,2.9806" x1="123.333" y1="102.394" x2="223.183" y2="102.394"/>
			
				<line fill="none" stroke="#005695" stroke-linecap="round" stroke-miterlimit="1" x1="224.673" y1="102.394" x2="226.173" y2="102.394"/>
			<g>
				<polygon fill="#005695" points="120.834,105.299 109.993,102.394 120.834,99.488 				"/>
			</g>
		</g>
	</g>
	<g>
		<g>
			
				<line fill="none" stroke="#005695" stroke-linecap="round" stroke-miterlimit="1" x1="110.973" y1="253.057" x2="315.325" y2="253.057"/>
			<g>
				<polygon fill="#005695" points="313.344,255.962 324.185,253.057 313.344,250.151 				"/>
			</g>
		</g>
	</g>
	
		<line fill="none" stroke="#000000" stroke-width="0.5" stroke-linecap="round" stroke-miterlimit="1" x1="329.04" y1="63.425" x2="329.04" y2="353.698"/>
	
		<line fill="none" stroke="#000000" stroke-width="0.5" stroke-linecap="round" stroke-miterlimit="1" x1="232.173" y1="63.425" x2="232.173" y2="353.698"/>
	
		<line fill="none" stroke="#000000" stroke-width="0.5" stroke-linecap="round" stroke-miterlimit="1" x1="105.172" y1="63.425" x2="105.172" y2="353.698"/>
	<rect x="16.591" y="232.357" opacity="0.35" fill="#0DB14B" width="472.343" height="61.178"/>
	<rect x="16.591" y="293.535" opacity="0.15" fill="#0DB14B" width="471.881" height="55.482"/>
	<text transform="matrix(1 0 0 1 23.2534 244.0225)" font-size="9">Alternative 1</text>
	
		<rect x="288.04" y="13.302" fill="#CCDEF0" stroke="#010101" stroke-width="0.75" stroke-linecap="round" stroke-linejoin="round" stroke-miterlimit="1" width="82" height="30.289"/>
	
		<rect x="191.173" y="13.302" fill="#CCDEF0" stroke="#010101" stroke-width="0.75" stroke-linecap="round" stroke-linejoin="round" stroke-miterlimit="1" width="82" height="30.289"/>
	<text transform="matrix(1 0 0 1 23.2534 305.0947)" font-size="9">Alternative 2</text>
	<text transform="matrix(1 0 0 1 224.6709 30.9526)" font-size="9">RIS</text>
	
		<rect x="64.172" y="13.302" fill="#CCDEF0" stroke="#010101" stroke-width="0.75" stroke-linecap="round" stroke-linejoin="round" stroke-miterlimit="1" width="82.001" height="30.289"/>
	<text transform="matrix(1 0 0 1 316.6768 30.9526)" font-size="9">PACS</text>
	<text transform="matrix(1 0 0 1 82.6592 25.5522)"><tspan x="0" y="0" font-size="9">Protocoling</tspan><tspan x="0.499" y="10.8" font-size="9">Application</tspan></text>
	<g>
		<g>
			
				<line fill="none" stroke="#005695" stroke-linecap="round" stroke-miterlimit="1" stroke-dasharray="3,3" x1="343.183" y1="262.996" x2="444.661" y2="262.996"/>
			<g>
				<polygon fill="#005695" points="345.164,265.901 334.323,262.996 345.164,260.091 				"/>
			</g>
		</g>
	</g>
	<text transform="matrix(1 0 0 1 137.9263 81.5127)" fill="#010101" font-size="7">Worklist Query</text>
	<g>
		<g>
			
				<line fill="none" stroke="#005695" stroke-linecap="round" stroke-miterlimit="1" x1="334.323" y1="282.529" x2="435.802" y2="282.529"/>
			<g>
				<polygon fill="#005695" points="433.82,285.435 444.661,282.529 433.82,279.624 				"/>
			</g>
		</g>
	</g>
	<text transform="matrix(1 0 0 1 349.9805 259.1963)" fill="#010101" font-size="7">Query contrast usage details</text>
	<g>
		<g>
			
				<line fill="none" stroke="#005695" stroke-linecap="round" stroke-miterlimit="1" x1="110.973" y1="144.875" x2="315.325" y2="144.875"/>
			<g>
				<polygon fill="#005695" points="313.344,147.78 324.185,144.875 313.344,141.969 				"/>
			</g>
		</g>
	</g>
	<text transform="matrix(1 0 0 1 337.5645 278.7295)" fill="#010101" font-size="7">Provide contrast usage details</text>
	<g>
		<g>
			
				<line fill="none" stroke="#005695" stroke-linecap="round" stroke-miterlimit="1" x1="119.832" y1="163.775" x2="324.185" y2="163.775"/>
			<g>
				<polygon fill="#005695" points="121.813,166.681 110.973,163.775 121.813,160.87 				"/>
			</g>
		</g>
	</g>
	<text transform="matrix(1 0 0 1 184.168 141.2866)" fill="#010101" font-size="7">Requests prior performed SR</text>
	<text transform="matrix(1 0 0 1 188.4487 160.187)" fill="#010101" font-size="7">Return prior performed SR</text>
	<text transform="matrix(1 0 0 1 137.9263 99.4102)" fill="#010101" font-size="7">Procedure Steps</text>
	<g>
		<g>
			
				<line fill="none" stroke="#005695" stroke-linecap="round" stroke-miterlimit="1" x1="110.973" y1="325.119" x2="434.825" y2="325.119"/>
			<g>
				<polygon fill="#005695" points="432.844,328.024 443.685,325.119 432.844,322.214 				"/>
			</g>
		</g>
	</g>
	<text transform="matrix(1 0 0 1 181.6333 249.4111)" fill="#010101" font-size="7">Register contrast usage details</text>
	<g>
		<g>
			<polyline fill="none" stroke="#005695" stroke-linecap="round" stroke-miterlimit="1" points="110.267,114.688 130.693,114.672 
				130.693,125.387 119.17,125.387 			"/>
			<g>
				<polygon fill="#005695" points="121.151,122.481 110.311,125.387 121.151,128.292 				"/>
			</g>
		</g>
	</g>
	<text transform="matrix(1 0 0 1 181.6333 321.4756)" fill="#010101" font-size="7">Register contrast usage details</text>
	<g>
		<g>
			<polyline fill="none" stroke="#005695" stroke-linecap="round" stroke-miterlimit="1" points="110.267,179.494 130.693,179.478 
				130.693,190.192 119.17,190.192 			"/>
			<g>
				<polygon fill="#005695" points="121.151,187.287 110.311,190.192 121.151,193.098 				"/>
			</g>
		</g>
	</g>
	<text transform="matrix(1 0 0 1 137.9263 122.7158)" fill="#010101" font-size="7">Radiologist starts new case</text>
	<g>
		<g>
			<polyline fill="none" stroke="#005695" stroke-linecap="round" stroke-miterlimit="1" points="110.267,201.744 130.693,201.728 
				130.693,212.442 119.17,212.442 			"/>
			<g>
				<polygon fill="#005695" points="121.151,209.537 110.311,212.442 121.151,215.348 				"/>
			</g>
		</g>
	</g>
	<text transform="matrix(1 0 0 1 137.9263 187.5215)" fill="#010101" font-size="7">Radiologist reviews orders</text>
	
		<rect x="227.423" y="84.496" fill="#CCDEF0" stroke="#010101" stroke-width="0.75" stroke-linecap="round" stroke-linejoin="round" stroke-miterlimit="1" width="9.5" height="44.452"/>
	
		<rect x="324.186" y="144.875" fill="#CCDEF0" stroke="#010101" stroke-width="0.75" stroke-linecap="round" stroke-linejoin="round" stroke-miterlimit="1" width="9.5" height="18.901"/>
	
		<rect x="324.186" y="253.057" fill="#CCDEF0" stroke="#010101" stroke-width="0.75" stroke-linecap="round" stroke-linejoin="round" stroke-miterlimit="1" width="9.5" height="35.961"/>
	
		<polyline fill="#CCDEF0" stroke="#010101" stroke-width="0.75" stroke-linecap="round" stroke-linejoin="round" stroke-miterlimit="1" points="
		454.161,302.143 454.161,337.643 444.661,337.643 444.661,302.143 	"/>
	
		<polyline fill="#CCDEF0" stroke="#010101" stroke-width="0.75" stroke-linecap="round" stroke-linejoin="round" stroke-miterlimit="1" points="
		444.661,286.018 444.661,262.996 454.161,262.996 454.161,286.018 	"/>
	
		<polyline fill="#CCDEF0" stroke="#010101" stroke-width="0.75" stroke-linecap="round" stroke-linejoin="round" stroke-miterlimit="1" points="
		109.997,306.619 109.997,340.119 100.503,340.119 100.503,306.619 	"/>
	<g>
		<g>
			
				<line fill="none" stroke="#000000" stroke-width="0.5" stroke-linecap="round" stroke-miterlimit="1" x1="105.167" y1="43.345" x2="105.167" y2="44.845"/>
			
				<line fill="none" stroke="#000000" stroke-width="0.5" stroke-linecap="round" stroke-miterlimit="1" stroke-dasharray="3.0687,3.0687" x1="105.167" y1="47.914" x2="105.167" y2="58.654"/>
			
				<line fill="none" stroke="#000000" stroke-width="0.5" stroke-linecap="round" stroke-miterlimit="1" x1="105.167" y1="60.188" x2="105.167" y2="61.688"/>
		</g>
	</g>
	<g>
		<g>
			
				<line fill="none" stroke="#000000" stroke-width="0.5" stroke-linecap="round" stroke-miterlimit="1" x1="232.168" y1="43.345" x2="232.168" y2="44.845"/>
			
				<line fill="none" stroke="#000000" stroke-width="0.5" stroke-linecap="round" stroke-miterlimit="1" stroke-dasharray="3.0687,3.0687" x1="232.168" y1="47.914" x2="232.168" y2="58.654"/>
			
				<line fill="none" stroke="#000000" stroke-width="0.5" stroke-linecap="round" stroke-miterlimit="1" x1="232.168" y1="60.188" x2="232.168" y2="61.688"/>
		</g>
	</g>
	<g>
		<g>
			
				<line fill="none" stroke="#000000" stroke-width="0.5" stroke-linecap="round" stroke-miterlimit="1" x1="328.935" y1="43.345" x2="328.935" y2="44.845"/>
			
				<line fill="none" stroke="#000000" stroke-width="0.5" stroke-linecap="round" stroke-miterlimit="1" stroke-dasharray="3.0687,3.0687" x1="328.935" y1="47.914" x2="328.935" y2="58.654"/>
			
				<line fill="none" stroke="#000000" stroke-width="0.5" stroke-linecap="round" stroke-miterlimit="1" x1="328.935" y1="60.188" x2="328.935" y2="61.688"/>
		</g>
	</g>
	<g>
		
			<line fill="none" stroke="#000000" stroke-width="0.5" stroke-linecap="round" stroke-miterlimit="1" x1="449.411" y1="63.425" x2="449.411" y2="353.698"/>
	</g>
	
		<rect x="408.411" y="13.302" fill="#CCDEF0" stroke="#010101" stroke-width="0.75" stroke-linecap="round" stroke-linejoin="round" stroke-miterlimit="1" width="82" height="30.289"/>
	<text transform="matrix(1 0 0 1 137.9263 209.7715)"><tspan x="0" y="0" fill="#010101" font-size="7">Radiologist customizes</tspan><tspan x="0" y="8.399" fill="#010101" font-size="7">injection protocol for patient</tspan></text>
	<g>
		<g>
			
				<line fill="none" stroke="#000000" stroke-width="0.5" stroke-linecap="round" stroke-miterlimit="1" x1="449.306" y1="43.345" x2="449.306" y2="44.845"/>
			
				<line fill="none" stroke="#000000" stroke-width="0.5" stroke-linecap="round" stroke-miterlimit="1" stroke-dasharray="3.0687,3.0687" x1="449.306" y1="47.914" x2="449.306" y2="58.654"/>
			
				<line fill="none" stroke="#000000" stroke-width="0.5" stroke-linecap="round" stroke-miterlimit="1" x1="449.306" y1="60.188" x2="449.306" y2="61.688"/>
		</g>
	</g>
	<text transform="matrix(1 0 0 1 415.3916 25.5522)"><tspan x="0" y="0" font-size="9">Contrast Infusion</tspan><tspan x="16.257" y="10.8" font-size="9">Manager</tspan></text>
	
		<polyline fill="#CCDEF0" stroke="#010101" stroke-width="0.75" stroke-linecap="round" stroke-linejoin="round" stroke-miterlimit="1" points="
		100.503,278.729 100.503,76.979 109.997,76.979 109.997,278.729 	"/>
	
		<line fill="#CCDEF0" stroke="#010101" stroke-width="0.75" stroke-linecap="round" stroke-linejoin="round" stroke-miterlimit="1" stroke-dasharray="1,2" x1="109.997" y1="278.729" x2="100.503" y2="278.729"/>
	
		<line fill="#CCDEF0" stroke="#010101" stroke-width="0.75" stroke-linecap="round" stroke-linejoin="round" stroke-miterlimit="1" stroke-dasharray="1,2" x1="100.503" y1="306.621" x2="109.997" y2="306.621"/>
	
		<line fill="none" stroke="#010101" stroke-width="0.75" stroke-linecap="round" stroke-linejoin="round" stroke-miterlimit="1" stroke-dasharray="1,2" x1="444.661" y1="286.018" x2="454.161" y2="286.018"/>
	
		<line fill="none" stroke="#010101" stroke-width="0.75" stroke-linecap="round" stroke-linejoin="round" stroke-miterlimit="1" stroke-dasharray="1,2" x1="444.661" y1="302.146" x2="454.161" y2="302.146"/>

</g>
</g>
</svg>
