<?xml version="1.0" encoding="utf-8"?>

<!DOCTYPE svg PUBLIC "-//W3C//DTD SVG 1.1//EN" "http://www.w3.org/Graphics/SVG/1.1/DTD/svg11.dtd">
<svg version="1.1" id="Layer_1" xmlns="http://www.w3.org/2000/svg" xmlns:xlink="http://www.w3.org/1999/xlink" x="0px" y="0px"
	 width="602px" height="207px" viewBox="0 0 602 207" enable-background="new 0 0 602 207" xml:space="preserve">
<g>
	<rect x="1" y="1" fill="#F5EED6" width="600" height="205"/>
	<g>
		<polygon fill="#FFFFFF" stroke="#005695" stroke-linejoin="round" points="447.857,109.61 447.857,96.86 466.811,96.86 
			466.811,93.499 477.498,103.499 466.811,113.499 466.811,109.61 		"/>
		<polygon fill="#FFFFFF" stroke="#005695" stroke-linejoin="round" points="543.321,109.61 543.321,96.86 581.362,96.86 
			581.362,93.499 592.05,103.499 581.362,113.499 581.362,109.61 		"/>
		<polyline fill="#FFFFFF" stroke="#005695" stroke-linejoin="round" points="348.438,167.39 424.234,167.39 424.234,144.723 
			428.129,144.723 418.119,134.035 408.115,144.723 411.479,144.723 411.479,154.64 348.438,154.64 		"/>
		<polyline fill="#FFFFFF" stroke="#005695" stroke-linejoin="round" points="348.192,39.564 424.234,39.564 424.234,61.864 
			428.129,61.864 418.119,72.552 408.115,61.864 411.479,61.864 411.479,52.315 348.192,52.315 		"/>
		<path fill="#FFFFFF" stroke="#005695" stroke-linejoin="round" d="M299.15,92.286"/>
		<polygon fill="#FFFFFF" stroke="#005695" stroke-linejoin="round" points="314.444,75.864 314.444,92.286 375.978,92.286 
			375.978,98.622 386.665,88.62 375.978,78.622 375.978,84.431 322.299,84.431 322.299,75.864 		"/>
		<path fill="#FFFFFF" stroke="#005695" stroke-linejoin="round" d="M299.15,114.959"/>
		<polygon fill="#FFFFFF" stroke="#005695" stroke-linejoin="round" points="314.444,131.381 314.444,114.959 375.978,114.959 
			375.978,108.623 386.665,118.625 375.978,128.623 375.978,122.814 322.299,122.814 322.299,131.381 		"/>
		<path fill="#FFFFFF" stroke="#005695" stroke-linejoin="round" d="M324.712,62.373"/>
		<path fill="#FFFFFF" stroke="#005695" stroke-linejoin="round" d="M414.088,154.391"/>
		<g>
			<text transform="matrix(1 0 0 1 450.0518 105.167)" font-size="6">RGB</text>
		</g>
		
			<rect x="479.369" y="71.499" fill="#B2CEE7" stroke="#010101" stroke-width="0.75" stroke-linecap="round" stroke-linejoin="round" stroke-miterlimit="1" width="64" height="64"/>
		<g>
			<text transform="matrix(1 0 0 1 489.3477 38.4478)" font-size="6">ICC Input Profile</text>
		</g>
		<g>
			<g>
				<line fill="none" stroke="#005695" stroke-miterlimit="1" x1="510.885" y1="42.032" x2="510.885" y2="61.025"/>
				<g>
					<polygon fill="#005695" points="508.561,59.439 510.885,68.112 513.209,59.439 					"/>
				</g>
			</g>
		</g>
		<rect x="494.375" y="88.59" fill="none" width="34" height="29.82"/>
		<text transform="matrix(1 0 0 1 502.8525 92.8755)"><tspan x="0" y="0" font-size="6">Profile </tspan><tspan x="-6.674" y="7.2" font-size="6">Connection </tspan><tspan x="-0.003" y="14.4" font-size="6">Space </tspan><tspan x="-5.165" y="21.6" font-size="6">Transform</tspan></text>
		<g>
			<text transform="matrix(1 0 0 1 350.6748 49.1104)" font-size="6">RGB-1</text>
		</g>
		<g>
			<text transform="matrix(1 0 0 1 350.6807 90.6636)" font-size="6">Alpha-1</text>
		</g>
		
			<rect x="288.108" y="16.217" fill="#B2CEE7" stroke="#010101" stroke-width="0.75" stroke-linecap="round" stroke-linejoin="round" stroke-miterlimit="1" width="60" height="60"/>
		<g>
			<text transform="matrix(1 0 0 1 304.9004 40.7959)"><tspan x="0" y="0" font-size="6">One Input</tspan><tspan x="9.47" y="7.891" font-size="8">➜</tspan><tspan x="4.675" y="14.181" font-size="6">RBGA</tspan></text>
		</g>
		<g>
			<text transform="matrix(1 0 0 1 350.6748 163.8896)" font-size="6">RGB-2</text>
		</g>
		<g>
			<text transform="matrix(1 0 0 1 350.6807 120.8682)" font-size="6">Alpha-2</text>
		</g>
		
			<rect x="288.108" y="130.783" fill="#B2CEE7" stroke="#010101" stroke-width="0.75" stroke-linecap="round" stroke-linejoin="round" stroke-miterlimit="1" width="60" height="60"/>
		<g>
			<text transform="matrix(1 0 0 1 304.9404 152.2207)"><tspan x="0" y="0" font-size="6">One Input</tspan><tspan x="9.47" y="7.891" font-size="8">➜</tspan><tspan x="4.675" y="14.182" font-size="6">RBGA</tspan><tspan x="6.843" y="20.472" font-size="6">“red”</tspan></text>
		</g>
		
			<rect x="387.867" y="73.412" fill="#B2CEE7" stroke="#010101" stroke-width="0.75" stroke-linecap="round" stroke-linejoin="round" stroke-miterlimit="1" width="60" height="60"/>
		<g>
			<text transform="matrix(1 0 0 1 545.833 105.167)" font-size="6">PCS-Values</text>
		</g>
		<rect x="395.367" y="96.344" fill="none" width="45" height="14.137"/>
		<text transform="matrix(1 0 0 1 411.3701 100.6387)"><tspan x="0" y="0" font-size="6">RGB </tspan><tspan x="-8.837" y="7.2" font-size="6">Compositor</tspan></text>
		<polyline fill="#FFFFFF" stroke="#005695" stroke-linejoin="round" points="9.951,42.299 72.966,42.299 72.966,36.49 
			83.651,46.489 72.966,56.49 72.966,50.154 9.951,50.154 		"/>
		<polygon fill="#FFFFFF" stroke="#005695" stroke-linecap="round" stroke-linejoin="round" points="114.605,50.157 114.605,42.306 
			121.311,42.306 121.311,36.49 131.996,46.489 121.311,56.49 121.311,50.157 		"/>
		<polygon fill="#FFFFFF" stroke="#005695" stroke-linecap="round" stroke-linejoin="round" points="172.738,50.157 172.738,42.306 
			179.443,42.306 179.443,36.49 190.13,46.489 179.443,56.49 179.443,50.157 		"/>
		<polygon fill="#FFFFFF" stroke="#005695" stroke-linecap="round" stroke-linejoin="round" points="220.984,50.157 220.984,42.306 
			227.689,42.306 227.689,36.49 238.376,46.489 227.689,56.49 227.689,50.157 		"/>
		<polygon fill="#FFFFFF" stroke="#005695" stroke-linecap="round" stroke-linejoin="round" points="269.352,50.157 269.352,42.306 
			276.057,42.306 276.057,36.49 286.743,46.489 276.057,56.49 276.057,50.157 		"/>
		<g>
			<g>
				<line fill="none" stroke="#000000" stroke-miterlimit="1" x1="254.327" y1="103.592" x2="254.327" y2="65.797"/>
				<g>
					<polygon points="256.651,67.382 254.327,58.709 252.003,67.382 					"/>
				</g>
			</g>
		</g>
		
			<rect x="84.613" y="35.49" fill="#CCDEF0" stroke="#010101" stroke-width="0.75" stroke-linecap="round" stroke-linejoin="round" stroke-miterlimit="1" width="30" height="22"/>
		<g>
			<text transform="matrix(1 0 0 1 87.9434 48.1597)" font-size="6">VOI LUT</text>
		</g>
		
			<rect x="191.013" y="35.49" fill="#CCDEF0" stroke="#010101" stroke-width="0.75" stroke-linecap="round" stroke-linejoin="round" stroke-miterlimit="1" width="30" height="22"/>
		<g>
			<text transform="matrix(1 0 0 1 193.8374 48.1597)" font-size="6">Cropping</text>
		</g>
		
			<rect x="239.327" y="35.49" fill="#CCDEF0" stroke="#010101" stroke-width="0.75" stroke-linecap="round" stroke-linejoin="round" stroke-miterlimit="1" width="29.998" height="22"/>
		<g>
			<text transform="matrix(1 0 0 1 247.6587 48.1597)" font-size="6">MPR</text>
		</g>
		
			<rect x="132.738" y="35.49" fill="#CCDEF0" stroke="#010101" stroke-width="0.75" stroke-linecap="round" stroke-linejoin="round" stroke-miterlimit="1" width="40" height="22"/>
		<g>
			<text transform="matrix(1 0 0 1 143.5659 45.4146)"><tspan x="0" y="0" font-size="6">Spatial</tspan><tspan x="-6.835" y="5.491" font-size="6">Registration</tspan></text>
		</g>
		<g>
			<text transform="matrix(1 0 0 1 12.4009 104.8164)" font-size="6">MPR Geometry</text>
		</g>
		<g>
			<text transform="matrix(1 0 0 1 12.4009 48.1597)" font-size="6">Tissue Intensity Data</text>
		</g>
		<polyline fill="#FFFFFF" stroke="#005695" stroke-linejoin="round" points="9.951,157.218 72.966,157.218 72.966,151.409 
			83.651,161.408 72.966,171.409 72.966,165.073 9.951,165.073 		"/>
		<polygon fill="#FFFFFF" stroke="#005695" stroke-linecap="round" stroke-linejoin="round" points="114.605,165.076 
			114.605,157.225 121.311,157.225 121.311,151.409 131.996,161.408 121.311,171.409 121.311,165.076 		"/>
		<polygon fill="#FFFFFF" stroke="#005695" stroke-linecap="round" stroke-linejoin="round" points="172.738,165.076 
			172.738,157.225 179.443,157.225 179.443,151.409 190.13,161.408 179.443,171.409 179.443,165.076 		"/>
		<polygon fill="#FFFFFF" stroke="#005695" stroke-linecap="round" stroke-linejoin="round" points="220.984,165.076 
			220.984,157.225 227.689,157.225 227.689,151.409 238.376,161.408 227.689,171.409 227.689,165.076 		"/>
		<polygon fill="#FFFFFF" stroke="#005695" stroke-linecap="round" stroke-linejoin="round" points="269.352,165.076 
			269.352,157.225 276.057,157.225 276.057,151.409 286.743,161.408 276.057,171.409 276.057,165.076 		"/>
		<g>
			<g>
				<polyline fill="none" stroke="#000000" stroke-miterlimit="1" points="55.792,103.486 254.329,103.486 254.329,142.873 				"/>
				<g>
					<polygon points="252.004,141.288 254.329,149.961 256.653,141.288 					"/>
				</g>
			</g>
		</g>
		
			<rect x="84.613" y="150.409" fill="#CCDEF0" stroke="#010101" stroke-width="0.75" stroke-linecap="round" stroke-linejoin="round" stroke-miterlimit="1" width="30" height="22"/>
		<g>
			<text transform="matrix(1 0 0 1 87.9434 163.0811)" font-size="6">VOI LUT</text>
		</g>
		
			<rect x="191.013" y="150.409" fill="#CCDEF0" stroke="#010101" stroke-width="0.75" stroke-linecap="round" stroke-linejoin="round" stroke-miterlimit="1" width="30" height="22"/>
		<g>
			<text transform="matrix(1 0 0 1 193.8374 163.0811)" font-size="6">Cropping</text>
		</g>
		
			<rect x="239.327" y="150.409" fill="#CCDEF0" stroke="#010101" stroke-width="0.75" stroke-linecap="round" stroke-linejoin="round" stroke-miterlimit="1" width="29.998" height="22"/>
		<g>
			<text transform="matrix(1 0 0 1 247.6587 163.0811)" font-size="6">MPR</text>
		</g>
		
			<rect x="132.738" y="150.409" fill="#CCDEF0" stroke="#010101" stroke-width="0.75" stroke-linecap="round" stroke-linejoin="round" stroke-miterlimit="1" width="40" height="22"/>
		<g>
			<text transform="matrix(1 0 0 1 143.5659 160.3359)"><tspan x="0" y="0" font-size="6">Spatial</tspan><tspan x="-6.835" y="5.49" font-size="6">Registration</tspan></text>
		</g>
		<g>
			<text transform="matrix(1 0 0 1 12.4009 163.0811)" font-size="6">Flow Velocity Data</text>
		</g>
	</g>
</g>
</svg>
