<?xml version="1.0" encoding="utf-8"?>

<svg version="1.1" id="Layer_1" xmlns="http://www.w3.org/2000/svg" xmlns:xlink="http://www.w3.org/1999/xlink" x="0px" y="0px"
	 viewBox="0 0 502 207" enable-background="new 0 0 502 207" xml:space="preserve">

<defs>
	<style type="text/css">
	text {
	  font-family: Helvetica, Verdana, ArialUnicodeMS, san-serif
	}
	</style>
</defs>

<g>
   <desc>
	PS 3.17 : Explanatory Information
   </desc>
</g>

<g>
	<rect x="1" y="1" fill="#F3EDD6" width="500" height="205"/>
	<g>
		<g>
			<line fill="#4F8ABE" x1="125.378" y1="63.472" x2="125.378" y2="175.264"/>
			<g>
				
					<line fill="none" stroke="#005695" stroke-width="2" stroke-miterlimit="1" x1="125.378" y1="70.559" x2="125.378" y2="168.177"/>
				<g>
					<polygon fill="#005695" points="123.054,72.145 125.378,63.472 127.702,72.145 					"/>
				</g>
				<g>
					<polygon fill="#005695" points="123.054,166.592 125.378,175.264 127.702,166.592 					"/>
				</g>
			</g>
		</g>
		
			<rect x="140.061" y="62.764" fill="#E4E6EF" stroke="#010101" stroke-width="0.75" stroke-linecap="round" stroke-linejoin="round" stroke-miterlimit="1" width="264" height="112.5"/>
		
			<rect x="150.061" y="62.764" fill="#B2B9D1" stroke="#010101" stroke-width="0.75" stroke-linecap="round" stroke-linejoin="round" stroke-miterlimit="1" width="58" height="112.5"/>
		<g>
			<text transform="matrix(0.8815 0 0 1 318.16 49.6223)" font-size="10px">VANC</text>
		</g>
		<g>
			<text transform="matrix(0.8815 0 0 1 178.2041 50.122)" font-size="10px">HANC</text>
		</g>
		<g>
			<text transform="matrix(0.8815 0 0 1 97.939 24.5875)"><tspan x="0" y="0" font-size="10px">EAV</tspan><tspan x="3.894" y="10.008" font-size="10px">(4)</tspan></text>
		</g>
		<g>
			<text transform="matrix(0.8815 0 0 1 139.3881 24.5878)"><tspan x="0" y="0" font-size="10px">LN</tspan><tspan x="0.281" y="10.008" font-size="10px">(2)</tspan></text>
		</g>
		<g>
			<text transform="matrix(0.8815 0 0 1 175.1226 24.5879)"><tspan x="0" y="0" font-size="10px">CRC</tspan><tspan x="4.722" y="10.008" font-size="10px">(4)</tspan></text>
		</g>
		<rect x="212.061" y="67.264" fill="#FFFFFF" stroke="#000000" stroke-miterlimit="1" width="192" height="108"/>
		<g>
			<text transform="matrix(0.8815 0 0 1 284.3008 124.0489)" font-size="10px">Active Lines</text>
		</g>
		<g>
			<line fill="#4F8ABE" x1="228.758" y1="67.264" x2="228.758" y2="174.91"/>
			<g>
				
					<line fill="none" stroke="#005695" stroke-width="2" stroke-miterlimit="1" x1="228.758" y1="74.352" x2="228.758" y2="167.823"/>
				<g>
					<polygon fill="#005695" points="226.434,75.937 228.758,67.264 231.082,75.937 					"/>
				</g>
				<g>
					<polygon fill="#005695" points="226.434,166.238 228.758,174.91 231.082,166.238 					"/>
				</g>
			</g>
		</g>
		<line fill="none" stroke="#010101" stroke-miterlimit="1" x1="140.061" y1="191.277" x2="140.061" y2="177.277"/>
		<polyline fill="none" stroke="#010101" stroke-width="0.75" stroke-miterlimit="1" points="299.896,64.472 308.061,47.081 
			316.185,47.081 		"/>
		<polyline fill="none" stroke="#010101" stroke-width="0.75" stroke-miterlimit="1" points="160.565,64.472 168.73,47.081 
			176.855,47.081 		"/>
		<line fill="none" stroke="#010101" stroke-miterlimit="1" x1="404.061" y1="191.277" x2="404.061" y2="177.277"/>
		<g>
			<line fill="#4F8ABE" x1="140.769" y1="184.277" x2="404.061" y2="184.277"/>
			<g>
				
					<line fill="none" stroke="#005695" stroke-width="2" stroke-miterlimit="1" x1="147.856" y1="184.277" x2="396.974" y2="184.277"/>
				<g>
					<polygon fill="#005695" points="149.441,186.601 140.769,184.277 149.441,181.953 					"/>
				</g>
				<g>
					<polygon fill="#005695" points="395.388,186.601 404.061,184.277 395.388,181.953 					"/>
				</g>
			</g>
		</g>
		<g>
			<line fill="#4F8ABE" x1="212.061" y1="161.289" x2="404.061" y2="161.289"/>
			<g>
				
					<line fill="none" stroke="#005695" stroke-width="2" stroke-miterlimit="1" x1="219.149" y1="161.289" x2="396.974" y2="161.289"/>
				<g>
					<polygon fill="#005695" points="220.734,163.613 212.061,161.289 220.734,158.965 					"/>
				</g>
				<g>
					<polygon fill="#005695" points="395.388,163.613 404.061,161.289 395.388,158.965 					"/>
				</g>
			</g>
		</g>
		<g>
			<line fill="#4F8ABE" x1="150.061" y1="161.289" x2="208.061" y2="161.289"/>
			<g>
				
					<line fill="none" stroke="#005695" stroke-width="2" stroke-miterlimit="1" x1="157.148" y1="161.289" x2="200.974" y2="161.289"/>
				<g>
					<polygon fill="#005695" points="158.734,163.614 150.061,161.289 158.734,158.965 					"/>
				</g>
				<g>
					<polygon fill="#005695" points="199.388,163.614 208.061,161.289 199.388,158.965 					"/>
				</g>
			</g>
		</g>
		
			<rect x="208.061" y="62.764" fill="#00AEEF" stroke="#010101" stroke-width="0.75" stroke-linecap="round" stroke-linejoin="round" stroke-miterlimit="1" width="4" height="112.5"/>
		
			<rect x="140.061" y="62.764" fill="#ED1C24" stroke="#010101" stroke-width="0.75" stroke-linecap="round" stroke-linejoin="round" stroke-miterlimit="1" width="4" height="112.5"/>
		
			<rect x="146.061" y="62.764" fill="#0DB14B" stroke="#010101" stroke-width="0.75" stroke-linecap="round" stroke-linejoin="round" stroke-miterlimit="1" width="4" height="112.5"/>
		
			<rect x="144.061" y="62.764" fill="#FFF200" stroke="#010101" stroke-width="0.75" stroke-linecap="round" stroke-linejoin="round" stroke-miterlimit="1" width="2" height="112.5"/>
		<g>
			<rect x="114.378" y="110.049" fill="#F3EDD6" width="22" height="14"/>
			<g>
				<text transform="matrix(0.8815 0 0 1 115.5724 120.5142)" font-size="10px">1125</text>
			</g>
		</g>
		<line fill="none" stroke="#010101" stroke-miterlimit="1" x1="118.378" y1="62.764" x2="132.378" y2="62.764"/>
		<line fill="none" stroke="#010101" stroke-miterlimit="1" x1="118.378" y1="175.264" x2="132.378" y2="175.264"/>
		<g>
			<rect x="261.415" y="177.277" fill="#F3EDD6" width="22" height="14"/>
			<g>
				<text transform="matrix(0.8815 0 0 1 262.6095 186.8761)" font-size="10px">2640</text>
			</g>
		</g>
		<g>
			<rect x="217.758" y="109.981" fill="#FFFFFF" width="22" height="14"/>
			<g>
				<text transform="matrix(0.8815 0 0 1 218.9525 119.3679)" font-size="10px">1080</text>
			</g>
		</g>
		<g>
			<rect x="168.061" y="154.777" fill="#B2B9D1" width="22" height="14"/>
			<g>
				<text transform="matrix(0.8815 0 0 1 171.7072 165.0873)" font-size="10px">708</text>
			</g>
		</g>
		<g>
			<rect x="301.723" y="154.777" fill="#FFFFFF" width="22" height="14"/>
			<g>
				<text transform="matrix(0.8815 0 0 1 302.9176 165.0873)" font-size="10px">1920</text>
			</g>
		</g>
		<polyline fill="none" stroke="#010101" stroke-width="0.75" stroke-miterlimit="1" points="147.923,64.472 161.747,21.088 
			172.516,21.088 		"/>
		<g>
			<text transform="matrix(0.8815 0 0 1 237.8125 24.5879)"><tspan x="0" y="0" font-size="10px">SAV</tspan><tspan x="3.894" y="10.008" font-size="10px">(4)</tspan></text>
		</g>
		<polyline fill="none" stroke="#010101" stroke-width="0.75" stroke-miterlimit="1" points="209.883,64.472 223.707,21.088 
			234.476,21.088 		"/>
		
			<line fill="none" stroke="#010101" stroke-width="0.75" stroke-miterlimit="1" x1="145.335" y1="64.472" x2="145.335" y2="38.053"/>
		<polyline fill="none" stroke="#010101" stroke-width="0.75" stroke-miterlimit="1" points="142.016,64.472 128.192,21.088 
			117.423,21.088 		"/>
	</g>
</g>
</svg>
