<?xml version="1.0" encoding="utf-8"?>

<!DOCTYPE svg PUBLIC "-//W3C//DTD SVG 1.1//EN" "http://www.w3.org/Graphics/SVG/1.1/DTD/svg11.dtd">
<svg version="1.1" id="Layer_1" xmlns="http://www.w3.org/2000/svg" xmlns:xlink="http://www.w3.org/1999/xlink" x="0px" y="0px"
	 width="502px" height="492px" viewBox="0 0 502 492" enable-background="new 0 0 502 492" xml:space="preserve">

<defs>
	<style type="text/css">
	text {
	  font-family: Helvetica, Verdana, ArialUnicodeMS, san-serif
	}
	</style>
</defs>

<g>
   <desc>
	PS 3.17 Part 17: Explanatory Information
   </desc>
</g>

<g>
	<rect x="1" y="1" fill="#F5EED6" width="500" height="490"/>
	<g>
		<g>
			<g>
				<g>
					<line fill="none" stroke="#0DB14B" stroke-width="1.9059" x1="219.222" y1="361.047" x2="219.279" y2="422.595"/>
					<g>
						<polygon fill="#0DB14B" points="216.509,420.709 219.287,431.037 222.046,420.704 						"/>
					</g>
				</g>
			</g>
			<polygon opacity="0.8" fill="#97A6C5" stroke="#000000" stroke-width="0.5" stroke-miterlimit="1" points="108.094,386.336 
				454.439,476.289 490.283,420.576 190.328,362.102 172.798,367.268 147.057,361.406 110.849,372.064 134.132,379.074 			"/>
			<g>
				<g>
					
						<line fill="none" stroke="#808285" stroke-width="0.5" stroke-linecap="round" stroke-linejoin="round" x1="219.097" y1="360.822" x2="219.589" y2="360.906"/>
					
						<line fill="none" stroke="#808285" stroke-width="0.5" stroke-linecap="round" stroke-linejoin="round" stroke-dasharray="0.9811,1.9622" x1="221.523" y1="361.238" x2="272.776" y2="370.018"/>
					
						<line fill="none" stroke="#808285" stroke-width="0.5" stroke-linecap="round" stroke-linejoin="round" x1="273.743" y1="370.184" x2="274.236" y2="370.268"/>
				</g>
			</g>
			<g>
				<text transform="matrix(1 0 0 1 359.2891 426.6621)" font-size="9">X-Ray Table</text>
			</g>
			<text transform="matrix(1 0 0 1 180.5947 320.3467)" font-size="9">Volume</text>
			<g>
				<text transform="matrix(1 -0.0019 0.0019 1 131.8848 347.5195)" fill="#00AEEF" font-size="11">+Z</text>
				<text transform="matrix(1 -0.0019 0.0019 1 276.7051 336.6992)" fill="#ED1C24" font-size="11">+X</text>
				<text transform="matrix(1 -0.0019 0.0019 1 213.4292 442.7422)" fill="#0DB14B" font-size="11">+Y</text>
				<g>
					<g>
						<line fill="none" stroke="#00AEEF" stroke-width="2.2517" x1="218.992" y1="360.949" x2="157.565" y2="350.496"/>
						<g>
							<polygon fill="#00AEEF" points="160.313,347.646 147.732,348.822 159.216,354.095 							"/>
						</g>
					</g>
				</g>
				<g>
					<g>
						<line fill="none" stroke="#ED1C24" stroke-width="2.2517" x1="219.222" y1="360.947" x2="267.515" y2="340.576"/>
						<g>
							<polygon fill="#ED1C24" points="266.73,344.457 276.705,336.699 264.188,338.429 							"/>
						</g>
					</g>
				</g>
			</g>
			<g opacity="0.7">
				<polygon fill="#EDF3F9" stroke="#000000" stroke-width="0.5" stroke-miterlimit="1" points="230.373,392.855 186.455,382.615 
					186.455,333.83 230.373,342.168 				"/>
				<polygon fill="#C9D7EA" stroke="#000000" stroke-width="0.5" stroke-miterlimit="1" points="262.102,328.771 217.787,321.393 
					186.59,333.83 230.279,342.168 				"/>
				<polygon fill="#4F8ABE" stroke="#000000" stroke-width="0.5" stroke-miterlimit="1" points="262.103,376.709 230.372,393.18 
					230.372,342.17 262.103,328.771 				"/>
			</g>
			
				<line fill="none" stroke="#808285" stroke-width="0.5" stroke-linecap="round" stroke-linejoin="round" stroke-dasharray="0.9092,1.8184" x1="219.162" y1="291.326" x2="219.162" y2="360.529"/>
			
				<line fill="none" stroke="#808285" stroke-width="0.5" stroke-linecap="round" stroke-linejoin="round" stroke-dasharray="0.9092,1.8184" x1="178.789" y1="377.992" x2="219.097" y2="360.822"/>
			<g>
				<path stroke="#000000" stroke-width="0.4517" stroke-miterlimit="1" d="M223.213,360.812c0.001-2.211-1.789-3.998-3.999-3.998
					v4.002L223.213,360.812z"/>
				
					<path fill="#FFFFFF" stroke="#010101" stroke-width="0.3388" stroke-linecap="round" stroke-linejoin="round" stroke-miterlimit="1" d="
					M219.214,356.814c-2.207,0-3.997,1.791-3.997,4.004l3.997-0.002V356.814z"/>
				<path stroke="#000000" stroke-width="0.4517" stroke-miterlimit="1" d="M215.217,360.818c0.001,2.203,1.793,3.996,4,3.996
					l-0.003-3.998L215.217,360.818z"/>
				
					<path fill="#FFFFFF" stroke="#010101" stroke-width="0.3388" stroke-linecap="round" stroke-linejoin="round" stroke-miterlimit="1" d="
					M219.214,360.816l0.003,3.998c2.207-0.002,3.997-1.793,3.996-4.002L219.214,360.816z"/>
			</g>
			<g opacity="0.6">
				<polygon fill="#B2CEE7" stroke="#000000" stroke-width="0.5" stroke-miterlimit="1" points="220.347,367.207 212.372,365.311 
					212.372,356.277 220.347,357.822 				"/>
				<polygon fill="#6799C8" stroke="#000000" stroke-width="0.5" stroke-miterlimit="1" points="226.221,355.342 218.014,353.975 
					212.235,356.277 220.744,357.822 				"/>
				<polygon fill="#005695" stroke="#000000" stroke-width="0.5" stroke-miterlimit="1" points="226.221,364.217 220.346,367.268 
					220.346,357.822 226.221,355.342 				"/>
			</g>
			<g>
				<text transform="matrix(1 0 0 1 160.1274 468.9863)" font-size="12">X-Ray 3D Reconstructed Volume</text>
			</g>
		</g>
		<g>
			<g>
				<g>
					<path fill="none" stroke="#000000" stroke-linejoin="round" stroke-dasharray="3,4" d="M220.443,97.857
						c0,68.587-37.185,124.58-83.922,127.922"/>
					<g>
						<polygon points="137.452,224.26 132.097,225.937 137.573,227.163 						"/>
					</g>
				</g>
			</g>
			<polygon opacity="0.8" fill="#97A6C5" stroke="#000000" stroke-width="0.5" stroke-miterlimit="1" points="11.717,147.47 
				358.062,237.423 393.906,181.71 93.951,123.236 76.421,128.402 50.68,122.541 14.472,133.199 37.754,140.208 			"/>
			<text transform="matrix(1 0 0 1 242.9839 80.417)"><tspan x="0" y="0" font-size="9">X-Ray</tspan><tspan x="-1.755" y="10.8" font-size="9">Source</tspan></text>
			<polygon id="Plane.1_1_" fill="#D1D3D4" stroke="#005695" stroke-linecap="round" stroke-linejoin="round" points="
				63.096,121.779 20.186,111.484 20.186,170.907 63.096,184.831 			"/>
			<polygon id="Plane.2_2_" fill="#D1D3D4" stroke="#005695" stroke-linecap="round" stroke-linejoin="round" points="
				166.179,18.818 123.155,15.71 80.715,18.818 125.503,22.437 			"/>
			<g>
				<path fill="#FFFFFF" stroke="#ED1C24" stroke-linejoin="round" d="M89.287,24.072l15.367-2.947l3.439,5.261l-5.344-0.543
					C67.979,43.444,43.505,80.68,43.505,147.179l-9.18-2.16c0-65.127,24.919-103.185,60.292-120.456L89.287,24.072z"/>
			</g>
			<g>
				<g>
					<path fill="#FEDA00" d="M219.232,90.516c-1.22-3.238-3.788-5.422-5.738-4.879c-1.949,0.544-2.541,3.609-1.321,6.848
						s3.788,5.422,5.737,4.879C219.861,96.819,220.452,93.755,219.232,90.516z"/>
					<path d="M215.983,91.296c0.119,0.319,0.058,0.621-0.139,0.676c-0.197,0.054-0.455-0.159-0.573-0.476
						c-0.12-0.319-0.059-0.621,0.139-0.675C215.607,90.766,215.863,90.979,215.983,91.296z"/>
					<path d="M215.69,92.827c-0.368-0.175-0.735-0.608-0.944-1.164c-0.017-0.041-0.03-0.082-0.043-0.125l-2.163,0.603
						c0.015,0.042,0.029,0.083,0.045,0.124c0.709,1.881,1.943,3.349,3.188,3.967L215.69,92.827z"/>
					<path d="M216.538,92.591c0.179-0.328,0.182-0.863-0.028-1.419c-0.016-0.042-0.032-0.083-0.051-0.124l2.164-0.603
						c0.017,0.041,0.031,0.082,0.047,0.123c0.708,1.881,0.71,3.693,0.123,4.823L216.538,92.591z"/>
					<path d="M214.667,90.328c0.176-0.332,0.495-0.519,0.896-0.324c0.031,0.016,0.061,0.032,0.09,0.05l-0.059-3.33
						c-0.029-0.015-0.06-0.03-0.09-0.044c-1.36-0.659-2.489-0.17-3.097,0.934L214.667,90.328z"/>
				</g>
				
					<ellipse transform="matrix(0.9179 -0.3967 0.3967 0.9179 -18.5883 93.0845)" fill="none" stroke="#ED1C24" stroke-width="0.5" stroke-linejoin="round" cx="215.698" cy="91.472" rx="3.626" ry="6.381"/>
				<path fill="#CCCCCC" stroke="#ED1C24" stroke-width="0.5" stroke-linejoin="round" d="M213.166,85.614
					c1.838-0.794,4.462,1.184,5.86,4.419c1.398,3.235,1.042,6.501-0.796,7.296l12.547-5.01c1.624-0.701,1.938-3.586,0.703-6.442
					c-1.234-2.857-3.464-4.782-5.175-4.302L213.166,85.614z"/>
			</g>
			<g>
				<g>
					<path fill="#FEDA00" d="M124.237,226.811c3.461-0.02,6.401-1.67,6.568-3.688c0.167-2.017-2.502-3.635-5.963-3.615
						c-3.462,0.02-6.399,1.671-6.567,3.687C118.108,225.214,120.777,226.832,124.237,226.811z"/>
					<path d="M124.634,223.494c-0.341,0.001-0.602-0.161-0.587-0.365c0.019-0.203,0.309-0.371,0.646-0.372
						c0.341-0.002,0.603,0.161,0.586,0.365C125.262,223.325,124.973,223.492,124.634,223.494z"/>
					<path d="M123.301,222.688c0.291-0.284,0.824-0.479,1.419-0.482c0.044-0.001,0.087,0.001,0.131,0.004l0.187-2.238
						c-0.045-0.001-0.089-0.002-0.133-0.001c-2.01,0.012-3.814,0.66-4.827,1.612L123.301,222.688z"/>
					<path d="M123.227,223.564c0.245,0.281,0.747,0.471,1.341,0.466c0.045,0,0.089-0.001,0.133-0.004l-0.186,2.238
						c-0.044,0.002-0.087,0.001-0.131,0.001c-2.01,0.012-3.711-0.615-4.565-1.558L123.227,223.564z"/>
					<path d="M125.998,222.595c0.251,0.28,0.315,0.645-0.007,0.952c-0.025,0.023-0.05,0.046-0.076,0.067l3.142,1.1
						c0.024-0.021,0.05-0.045,0.073-0.068c1.09-1.046,1.022-2.275,0.198-3.229L125.998,222.595z"/>
				</g>
				
					<ellipse transform="matrix(0.0535 0.9986 -0.9986 0.0535 340.7539 86.8441)" fill="none" stroke="#ED1C24" stroke-width="0.5" stroke-linejoin="round" cx="124.568" cy="223.165" rx="3.626" ry="6.381"/>
				<path fill="#CCCCCC" stroke="#ED1C24" stroke-width="0.5" stroke-linejoin="round" d="M130.941,222.824
					c0.107,1.999-2.659,3.773-6.18,3.962c-3.519,0.189-6.458-1.279-6.565-3.278l0.344,13.506c0.094,1.767,2.69,3.062,5.798,2.896
					c3.108-0.166,6.188-1.589,6.331-3.36L130.941,222.824z"/>
			</g>
			
				<line fill="none" stroke="#808285" stroke-width="0.9092" stroke-linecap="round" stroke-linejoin="round" stroke-dasharray="0.9092,1.8184" x1="124.75" y1="106.257" x2="124.75" y2="221.915"/>
			
				<line fill="none" stroke="#808285" stroke-width="0.9092" stroke-linecap="round" stroke-linejoin="round" stroke-dasharray="0.9092,1.8184" x1="124.75" y1="18.85" x2="124.75" y2="73.007"/>
			<g>
				<g>
					
						<line fill="none" stroke="#808285" stroke-linecap="round" stroke-linejoin="round" x1="44.641" y1="145.566" x2="45.117" y2="145.415"/>
					
						<line fill="none" stroke="#808285" stroke-linecap="round" stroke-linejoin="round" stroke-dasharray="0.9928,1.9857" x1="47.01" y1="144.815" x2="210.75" y2="92.935"/>
					
						<line fill="none" stroke="#808285" stroke-linecap="round" stroke-linejoin="round" x1="211.696" y1="92.635" x2="212.173" y2="92.484"/>
				</g>
			</g>
			<g>
				<g>
					<text transform="matrix(1 -0.0019 0.0019 1 87.0498 107.4033)" fill="#00AEEF" font-size="11">+Z</text>
					<text transform="matrix(1 -0.0019 0.0019 1 146.27 106.2695)" fill="#ED1C24" font-size="11">+X</text>
					
						<text transform="matrix(1 -0.0019 0.0019 1 108.0942 165.3945)" fill="#0DB14B" font-size="11">+Y</text>
					<g>
						<g>
							<line fill="none" stroke="#0DB14B" stroke-width="1.9059" x1="124.685" y1="118.95" x2="124.685" y2="150.508"/>
							<g>
								<polygon fill="#0DB14B" points="121.916,148.62 124.685,158.951 127.453,148.62 								"/>
							</g>
						</g>
					</g>
					<g>
						<g>
							<line fill="none" stroke="#ED1C24" stroke-width="2.2517" x1="124.233" y1="120.45" x2="151.823" y2="111.602"/>
							<g>
								<polygon fill="#ED1C24" points="150.697,115.397 161.32,108.555 148.7,109.168 								"/>
							</g>
						</g>
					</g>
					<g>
						<g>
							<line fill="none" stroke="#00AEEF" stroke-width="2.2517" x1="124.373" y1="120.235" x2="97.745" y2="113.333"/>
							<g>
								<polygon fill="#00AEEF" points="100.725,110.727 88.09,110.831 99.083,117.059 								"/>
							</g>
						</g>
					</g>
					<g>
						<path stroke="#000000" stroke-width="0.7506" stroke-miterlimit="1" d="M131.479,118.946c0.003-3.673-2.973-6.645-6.643-6.645
							v6.649L131.479,118.946z"/>
						
							<path fill="#FFFFFF" stroke="#010101" stroke-width="0.5629" stroke-linecap="round" stroke-linejoin="round" stroke-miterlimit="1" d="
							M124.837,112.301c-3.668,0-6.642,2.976-6.642,6.651l6.642-0.002V112.301z"/>
						<path stroke="#000000" stroke-width="0.7506" stroke-miterlimit="1" d="M118.195,118.952c0.001,3.667,2.978,6.642,6.646,6.642
							l-0.005-6.644L118.195,118.952z"/>
						
							<path fill="#FFFFFF" stroke="#010101" stroke-width="0.5629" stroke-linecap="round" stroke-linejoin="round" stroke-miterlimit="1" d="
							M124.837,118.95l0.005,6.644c3.668-0.001,6.641-2.979,6.638-6.648L124.837,118.95z"/>
					</g>
				</g>
			</g>
			<g>
				<text transform="matrix(1 0 0 1 29.5552 158.7959)"><tspan x="0" y="0" font-size="9">X-Ray</tspan><tspan x="-4.073" y="10.8" font-size="9">Detector</tspan></text>
			</g>
			<g>
				<text transform="matrix(1 0 0 1 262.9121 187.7959)" font-size="9">X-Ray Table</text>
			</g>
			<text transform="matrix(1 0 0 1 105.5371 81.4995)"><tspan x="0" y="0" font-size="9">Isocenter</tspan><tspan x="-3.504" y="10.8" font-size="9">Coordinate</tspan><tspan x="3.507" y="21.6" font-size="9">System</tspan></text>
			<g>
				<text transform="matrix(1 0 0 1 68.2148 272.8379)" font-size="12">Rotational Acquisition</text>
			</g>
		</g>
	</g>
</g>
</svg>
