<?xml version="1.0" encoding="utf-8"?>

<!DOCTYPE svg PUBLIC "-//W3C//DTD SVG 1.1//EN" "http://www.w3.org/Graphics/SVG/1.1/DTD/svg11.dtd">
<svg version="1.1" id="Layer_1" xmlns="http://www.w3.org/2000/svg" xmlns:xlink="http://www.w3.org/1999/xlink" x="0px" y="0px"
	 width="502px" height="247px" viewBox="0 0 502 247" enable-background="new 0 0 502 247" xml:space="preserve">

<defs>
	<style type="text/css">
	text {
	  font-family: Helvetica, Verdana, ArialUnicodeMS, san-serif
	}
	</style>
</defs>

<g>
   <desc>
	PS 3.17 Part 17: Explanatory Information
   </desc>
</g>

<g>
	<rect x="1" y="1" fill="#F5EED6" width="500" height="245"/>
	<g>
		<g>
			<g>
				
					<line fill="none" stroke="#005695" stroke-linecap="round" stroke-miterlimit="1" x1="58.439" y1="91.564" x2="58.439" y2="100.203"/>
				<path fill="#005695" d="M59.464,102.564c0.5-1.652,0.959-2.728,1.492-4.054h-5.044c0.226,0.475,0.993,2.401,1.492,4.054
					c0.535,1.77,0.9,3.375,1.031,4.415C58.564,105.939,58.93,104.333,59.464,102.564z"/>
			</g>
		</g>
		<g>
			<g>
				
					<line fill="none" stroke="#005695" stroke-linecap="round" stroke-miterlimit="1" x1="391.077" y1="92.463" x2="391.077" y2="101.102"/>
				<path fill="#005695" d="M392.103,103.464c0.499-1.654,0.959-2.729,1.491-4.055h-5.044c0.225,0.475,0.992,2.4,1.491,4.055
					c0.534,1.77,0.9,3.373,1.03,4.414C391.202,106.837,391.567,105.234,392.103,103.464z"/>
			</g>
		</g>
		<g>
			<g>
				
					<line fill="none" stroke="#005695" stroke-linecap="round" stroke-miterlimit="1" x1="437.309" y1="178.002" x2="437.309" y2="186.641"/>
				<path fill="#005695" d="M438.333,189.002c0.5-1.652,0.96-2.729,1.492-4.055h-5.045c0.227,0.475,0.993,2.402,1.492,4.055
					c0.535,1.77,0.9,3.375,1.031,4.414C437.434,192.377,437.8,190.771,438.333,189.002z"/>
			</g>
		</g>
		<g>
			<g>
				<polyline fill="none" stroke="#005695" stroke-linecap="round" stroke-miterlimit="1" points="239.174,49.026 391.075,49.026 
					391.075,60.452 				"/>
				<path fill="#005695" d="M392.101,62.814c0.499-1.654,0.959-2.729,1.491-4.055h-5.044c0.225,0.475,0.992,2.4,1.491,4.055
					c0.534,1.77,0.9,3.373,1.03,4.414C391.2,66.187,391.565,64.583,392.101,62.814z"/>
			</g>
		</g>
		<g>
			<g>
				
					<line fill="none" stroke="#005695" stroke-linecap="round" stroke-miterlimit="1" x1="148.741" y1="92.463" x2="148.741" y2="101.102"/>
				<path fill="#005695" d="M149.766,103.464c0.5-1.654,0.959-2.729,1.492-4.055h-5.044c0.226,0.475,0.993,2.4,1.492,4.055
					c0.535,1.77,0.9,3.373,1.031,4.414C148.866,106.837,149.232,105.234,149.766,103.464z"/>
			</g>
		</g>
		<g>
			<g>
				<polyline fill="none" stroke="#005695" stroke-linecap="round" stroke-miterlimit="1" points="238.244,49.026 148.741,49.026 
					148.741,60.082 				"/>
				<path fill="#005695" d="M149.766,62.443c0.5-1.652,0.959-2.728,1.492-4.054h-5.044c0.226,0.475,0.993,2.401,1.492,4.054
					c0.535,1.77,0.9,3.375,1.031,4.415C148.866,65.818,149.232,64.212,149.766,62.443z"/>
			</g>
		</g>
		<g>
			<g>
				
					<line fill="none" stroke="#005695" stroke-linecap="round" stroke-miterlimit="1" x1="238.795" y1="33.902" x2="238.795" y2="60.299"/>
				<path fill="#005695" d="M239.82,62.661c0.5-1.653,0.959-2.728,1.492-4.054h-5.044c0.226,0.475,0.993,2.401,1.492,4.054
					c0.535,1.77,0.9,3.374,1.031,4.415C238.92,66.035,239.286,64.431,239.82,62.661z"/>
			</g>
		</g>
		<g>
			<g>
				
					<line fill="none" stroke="#005695" stroke-linecap="round" stroke-miterlimit="1" x1="238.795" y1="92.463" x2="238.795" y2="101.102"/>
				<path fill="#005695" d="M239.819,103.464c0.499-1.654,0.96-2.729,1.491-4.055h-5.044c0.226,0.475,0.993,2.4,1.491,4.055
					c0.535,1.77,0.9,3.373,1.031,4.414C238.92,106.837,239.285,105.234,239.819,103.464z"/>
			</g>
		</g>
		<g>
			<g>
				
					<line fill="none" stroke="#005695" stroke-linecap="round" stroke-miterlimit="1" x1="238.797" y1="134.564" x2="238.797" y2="145.619"/>
				<path fill="#005695" d="M239.821,147.98c0.499-1.652,0.96-2.729,1.491-4.055h-5.044c0.226,0.475,0.993,2.402,1.491,4.055
					c0.535,1.77,0.9,3.375,1.031,4.414C238.922,151.355,239.287,149.75,239.821,147.98z"/>
			</g>
		</g>
		<g>
			<g>
				
					<line fill="none" stroke="#005695" stroke-linecap="round" stroke-miterlimit="1" x1="238.795" y1="178.002" x2="238.795" y2="186.264"/>
				<path fill="#005695" d="M239.819,188.627c0.499-1.654,0.96-2.729,1.491-4.055h-5.044c0.226,0.475,0.993,2.4,1.491,4.055
					c0.535,1.77,0.9,3.373,1.031,4.414C238.92,192,239.285,190.396,239.819,188.627z"/>
			</g>
		</g>
		<g>
			<g>
				<polyline fill="none" stroke="#005695" stroke-linecap="round" stroke-miterlimit="1" points="148.074,49.026 58.438,49.026 
					58.438,60.082 				"/>
				<path fill="#005695" d="M59.463,62.443c0.5-1.652,0.959-2.728,1.492-4.054h-5.044c0.226,0.475,0.993,2.401,1.492,4.054
					c0.535,1.77,0.9,3.375,1.031,4.415C58.563,65.818,58.929,64.212,59.463,62.443z"/>
			</g>
		</g>
		<g>
			<g>
				<polyline fill="none" stroke="#005695" stroke-linecap="round" stroke-miterlimit="1" points="391.064,133.977 391.064,139.818 
					344.48,139.818 344.48,145.756 				"/>
				<path fill="#005695" d="M345.505,148.117c0.5-1.652,0.96-2.729,1.492-4.055h-5.045c0.227,0.475,0.993,2.402,1.492,4.055
					c0.535,1.77,0.9,3.375,1.031,4.414C344.605,151.492,344.972,149.887,345.505,148.117z"/>
			</g>
		</g>
		<g>
			<g>
				<path fill="none" stroke="#005695" stroke-linecap="round" stroke-miterlimit="1" d="M344.243,178.949c0,0.01,0,27.849,0,27.849
					h-51.265v-87.142H281.46"/>
				<path fill="#005695" d="M279.099,120.682c1.653,0.499,2.728,0.959,4.054,1.491v-5.044c-0.475,0.225-2.4,0.992-4.054,1.491
					c-1.77,0.534-3.374,0.9-4.415,1.03C275.725,119.781,277.329,120.146,279.099,120.682z"/>
			</g>
		</g>
		<g>
			<g>
				<polyline fill="none" stroke="#005695" stroke-linecap="round" stroke-miterlimit="1" points="391.068,139.818 436.471,139.818 
					436.471,145.316 				"/>
				<path fill="#005695" d="M437.495,147.68c0.5-1.654,0.96-2.729,1.492-4.055h-5.045c0.227,0.475,0.993,2.4,1.492,4.055
					c0.535,1.77,0.9,3.373,1.031,4.414C436.596,151.053,436.962,149.449,437.495,147.68z"/>
			</g>
		</g>
		
			<polygon fill="#CCDEF0" stroke="#010101" stroke-width="0.75" stroke-linecap="round" stroke-linejoin="round" stroke-miterlimit="1" points="
			346.077,79.546 391.036,66.377 436.077,79.972 436.077,80.002 390.987,93.357 		"/>
		<text transform="matrix(1 0 0 1 372.9922 81.7793)" font-size="7">CONTAINS</text>
		
			<polygon fill="#CCDEF0" stroke="#010101" stroke-width="0.75" stroke-linecap="round" stroke-linejoin="round" stroke-miterlimit="1" points="
			22.266,79.674 58.237,66.5 94.272,80.1 94.272,80.131 58.198,93.496 		"/>
		<g>
			<text transform="matrix(1 0.0022 -0.0022 1 40.1807 82.3711)" font-size="7">CONTAINS</text>
		</g>
		
			<rect x="112.74" y="106.789" fill="#B2CEE7" stroke="#010101" stroke-width="0.75" stroke-linecap="round" stroke-linejoin="round" stroke-miterlimit="1" width="72" height="26.985"/>
		<g>
			<text transform="matrix(1 0 0 1 126.8584 117.9961)"><tspan x="0" y="0" font-size="7">BPD = 58 mm</tspan><tspan x="13.911" y="8.4" font-size="7">NUM</tspan></text>
		</g>
		
			<rect x="22.438" y="106.789" fill="#B2CEE7" stroke="#010101" stroke-width="0.75" stroke-linecap="round" stroke-linejoin="round" stroke-miterlimit="1" width="72" height="26.985"/>
		<g>
			<text transform="matrix(1 0 0 1 36.5566 117.9961)"><tspan x="0" y="0" font-size="7">BPD = 54 mm</tspan><tspan x="13.911" y="8.399" font-size="7">NUM</tspan></text>
		</g>
		
			<rect x="198.297" y="193.111" fill="#B2CEE7" stroke="#010101" stroke-width="0.75" stroke-linecap="round" stroke-linejoin="round" stroke-miterlimit="1" width="81.001" height="26.984"/>
		<g>
			<text transform="matrix(1 0 0 1 210.8779 204.3223)"><tspan x="0" y="0" font-size="7">derivation = mean</tspan><tspan x="17.808" y="8.4" font-size="7">CODE</tspan></text>
		</g>
		
			<polygon fill="#CCDEF0" stroke="#010101" stroke-width="0.75" stroke-linecap="round" stroke-linejoin="round" stroke-miterlimit="1" points="
			112.74,79.546 148.709,66.377 184.74,79.972 184.74,80.002 148.668,93.357 		"/>
		<text transform="matrix(1 0 0 1 130.6558 81.7793)" font-size="7">CONTAINS</text>
		
			<rect x="202.798" y="106.789" fill="#B2CEE7" stroke="#010101" stroke-width="0.75" stroke-linecap="round" stroke-linejoin="round" stroke-miterlimit="1" width="72" height="26.985"/>
		<g>
			<text transform="matrix(1 0 0 1 216.9155 117.9961)"><tspan x="0" y="0" font-size="7">BPD = 56 mm</tspan><tspan x="13.911" y="8.4" font-size="7">NUM</tspan></text>
		</g>
		
			<polygon fill="#CCDEF0" stroke="#010101" stroke-width="0.75" stroke-linecap="round" stroke-linejoin="round" stroke-miterlimit="1" points="
			202.798,79.546 238.766,66.377 274.798,79.972 274.798,80.002 238.725,93.357 		"/>
		<text transform="matrix(1 0 0 1 220.7129 81.7793)" font-size="7">CONTAINS</text>
		
			<polygon fill="#CCDEF0" stroke="#010101" stroke-width="0.75" stroke-linecap="round" stroke-linejoin="round" stroke-miterlimit="1" points="
			202.798,165.084 238.766,151.916 274.798,165.51 274.798,165.541 238.725,178.895 		"/>
		<text transform="matrix(1 0 0 1 213.7129 167.3203)" font-size="7">HAS CON MOD</text>
		
			<rect x="180.291" y="6.958" fill="#86B2D8" stroke="#010101" stroke-width="0.75" stroke-linecap="round" stroke-linejoin="round" stroke-miterlimit="1" width="117.008" height="27.002"/>
		<g>
			<text transform="matrix(1 0 0 1 185.4434 17.8535)"><tspan x="0" y="0" font-size="8">Fetal Biometry Measurements</tspan><tspan x="29.795" y="9.6" font-size="8">CONTAINER</tspan></text>
		</g>
		
			<rect x="396.806" y="193.115" fill="#B2CEE7" stroke="#010101" stroke-width="0.75" stroke-linecap="round" stroke-linejoin="round" stroke-miterlimit="1" width="81" height="26.984"/>
		<g>
			<text transform="matrix(1 0 0 1 400.6328 204.3223)"><tspan x="0" y="0" font-size="7">Equation = (Hadlock84)</tspan><tspan x="26.563" y="8.4" font-size="7">CODE</tspan></text>
		</g>
		
			<polygon fill="#CCDEF0" stroke="#010101" stroke-width="0.75" stroke-linecap="round" stroke-linejoin="round" stroke-miterlimit="1" points="
			391.917,165.086 436.878,151.912 481.917,165.512 481.917,165.541 436.827,178.896 		"/>
		<text transform="matrix(1 0 0 1 407.748 167.3203)" font-size="7">INFERRED FROM</text>
		
			<rect x="337.075" y="106.781" fill="#B2CEE7" stroke="#010101" stroke-width="0.75" stroke-linecap="round" stroke-linejoin="round" stroke-miterlimit="1" width="108.006" height="27"/>
		<g>
			<text transform="matrix(1 0 0 1 366.4004 117.6748)"><tspan x="0" y="0" font-size="8">Image LIbrary</tspan><tspan x="1.121" y="9.601" font-size="8">CONTAINER</tspan></text>
		</g>
		
			<polygon fill="#CCDEF0" stroke="#010101" stroke-width="0.75" stroke-linecap="round" stroke-linejoin="round" stroke-miterlimit="1" points="
			299.478,165.084 344.437,151.916 389.478,165.51 389.478,165.541 344.388,178.895 		"/>
		<text transform="matrix(1 0 0 1 322.8945 164.4375)"><tspan x="0" y="0" font-size="7">R-INFERRED</tspan><tspan x="11.279" y="8.399" font-size="7">FROM</tspan></text>
	</g>
</g>
</svg>
