<?xml version="1.0" encoding="utf-8"?>

<!DOCTYPE svg PUBLIC "-//W3C//DTD SVG 1.1//EN" "http://www.w3.org/Graphics/SVG/1.1/DTD/svg11.dtd">
<svg version="1.1" id="Layer_1" xmlns="http://www.w3.org/2000/svg" xmlns:xlink="http://www.w3.org/1999/xlink" x="0px" y="0px"
	 width="642px" height="452px" viewBox="0 0 642 452" enable-background="new 0 0 642 452" xml:space="preserve">

<defs>
	<style type="text/css">
	text {
	  font-family: Helvetica, Verdana, ArialUnicodeMS, san-serif
	}
	</style>
</defs>

<g>
   <desc>
	PS 3.17 Explanatory Information
   </desc>
</g>

<g>
	<rect x="1" y="1" fill="#F5EED6" width="640" height="450"/>
	<g>
		<g>
			<g>
				<g>
					
						<line fill="none" stroke="#005695" stroke-linecap="round" stroke-miterlimit="1" x1="128.688" y1="124.308" x2="355.568" y2="124.308"/>
					<g>
						<polygon fill="#005695" points="353.587,127.213 364.428,124.308 353.587,121.402 						"/>
					</g>
				</g>
			</g>
			<g>
				<g>
					
						<line fill="none" stroke="#005695" stroke-linecap="round" stroke-miterlimit="1" x1="128.688" y1="157.567" x2="226.901" y2="157.567"/>
					<g>
						<polygon fill="#005695" points="224.92,160.473 235.761,157.567 224.92,154.662 						"/>
					</g>
				</g>
			</g>
			<g>
				<g>
					
						<line fill="none" stroke="#005695" stroke-linecap="round" stroke-miterlimit="1" x1="128.688" y1="174.194" x2="226.901" y2="174.194"/>
					<g>
						<polygon fill="#005695" points="224.92,177.1 235.761,174.194 224.92,171.289 						"/>
					</g>
				</g>
			</g>
			<g>
				<g>
					
						<line fill="none" stroke="#005695" stroke-linecap="round" stroke-miterlimit="1" x1="246.371" y1="185.242" x2="353.691" y2="185.242"/>
					<g>
						<polygon fill="#005695" points="351.71,188.147 362.551,185.242 351.71,182.337 						"/>
					</g>
				</g>
			</g>
			<g>
				<g>
					
						<line fill="none" stroke="#005695" stroke-linecap="round" stroke-miterlimit="1" x1="128.688" y1="229.99" x2="226.901" y2="229.99"/>
					<g>
						<polygon fill="#005695" points="224.92,232.896 235.761,229.99 224.92,227.085 						"/>
					</g>
				</g>
			</g>
			<g>
				<g>
					
						<line fill="none" stroke="#005695" stroke-linecap="round" stroke-miterlimit="1" x1="128.688" y1="296.28" x2="226.901" y2="296.28"/>
					<g>
						<polygon fill="#005695" points="224.92,299.186 235.761,296.28 224.92,293.375 						"/>
					</g>
				</g>
			</g>
			<g>
				<g>
					
						<line fill="none" stroke="#005695" stroke-linecap="round" stroke-miterlimit="1" x1="128.688" y1="333.271" x2="226.901" y2="333.271"/>
					<g>
						<polygon fill="#005695" points="224.92,336.176 235.761,333.271 224.92,330.365 						"/>
					</g>
				</g>
			</g>
			<g>
				<g>
					
						<line fill="none" stroke="#005695" stroke-linecap="round" stroke-miterlimit="1" x1="246.371" y1="239.308" x2="353.691" y2="239.308"/>
					<g>
						<polygon fill="#005695" points="351.71,242.213 362.551,239.308 351.71,236.402 						"/>
					</g>
				</g>
			</g>
			<g>
				<g>
					
						<line fill="none" stroke="#005695" stroke-linecap="round" stroke-miterlimit="1" x1="246.371" y1="305.833" x2="353.691" y2="305.833"/>
					<g>
						<polygon fill="#005695" points="351.71,308.738 362.551,305.833 351.71,302.928 						"/>
					</g>
				</g>
			</g>
			<g>
				<g>
					
						<line fill="none" stroke="#005695" stroke-linecap="round" stroke-miterlimit="1" x1="246.371" y1="370.885" x2="353.691" y2="370.885"/>
					<g>
						<polygon fill="#005695" points="351.71,373.79 362.551,370.885 351.71,367.979 						"/>
					</g>
				</g>
			</g>
			<g>
				<g>
					
						<line fill="none" stroke="#005695" stroke-linecap="round" stroke-miterlimit="1" x1="246.371" y1="203.14" x2="353.691" y2="203.14"/>
					<g>
						<polygon fill="#005695" points="351.71,206.045 362.551,203.14 351.71,200.234 						"/>
					</g>
				</g>
			</g>
			<g>
				<g>
					
						<line fill="none" stroke="#005695" stroke-linecap="round" stroke-miterlimit="1" x1="246.371" y1="274.575" x2="353.691" y2="274.575"/>
					<g>
						<polygon fill="#005695" points="351.71,277.48 362.551,274.575 351.71,271.67 						"/>
					</g>
				</g>
			</g>
			<g>
				<g>
					
						<line fill="none" stroke="#005695" stroke-linecap="round" stroke-miterlimit="1" x1="382.16" y1="96.386" x2="596.908" y2="96.386"/>
					<g>
						<polygon fill="#005695" points="384.142,99.291 373.301,96.386 384.142,93.48 						"/>
					</g>
				</g>
			</g>
			<g>
				<g>
					
						<line fill="none" stroke="#005695" stroke-linecap="round" stroke-miterlimit="1" x1="373.301" y1="394.326" x2="476.898" y2="394.326"/>
					<g>
						<polygon fill="#005695" points="474.917,397.231 485.758,394.326 474.917,391.421 						"/>
					</g>
				</g>
			</g>
			<g>
				<g>
					<polyline fill="none" stroke="#005695" stroke-linecap="round" stroke-miterlimit="1" points="246.645,250.796 
						267.071,250.779 267.071,261.494 255.548,261.494 					"/>
					<g>
						<polygon fill="#005695" points="257.529,258.589 246.688,261.494 257.529,264.399 						"/>
					</g>
				</g>
			</g>
			<g>
				<g>
					<polyline fill="none" stroke="#005695" stroke-linecap="round" stroke-miterlimit="1" points="246.645,345.572 
						267.071,345.556 267.071,356.271 255.548,356.271 					"/>
					<g>
						<polygon fill="#005695" points="257.529,353.365 246.688,356.271 257.529,359.176 						"/>
					</g>
				</g>
			</g>
		</g>
		
			<line fill="none" stroke="#000000" stroke-width="0.5" stroke-linecap="round" stroke-miterlimit="1" x1="490.613" y1="72.837" x2="490.613" y2="422.61"/>
		
			<line fill="none" stroke="#000000" stroke-width="0.5" stroke-linecap="round" stroke-miterlimit="1" x1="368.551" y1="72.837" x2="368.551" y2="422.61"/>
		
			<line fill="none" stroke="#000000" stroke-width="0.5" stroke-linecap="round" stroke-miterlimit="1" x1="241.55" y1="72.837" x2="241.55" y2="422.61"/>
		
			<line fill="none" stroke="#000000" stroke-width="0.5" stroke-linecap="round" stroke-miterlimit="1" x1="124.55" y1="72.837" x2="124.55" y2="422.61"/>
		<rect x="29.352" y="74.843" opacity="0.35" fill="#0DB14B" width="595.522" height="67.784"/>
		<rect x="29.352" y="382.312" opacity="0.35" fill="#0DB14B" width="595.522" height="53.678"/>
		<rect x="29.352" y="142.627" opacity="0.15" fill="#0DB14B" width="595.522" height="239.685"/>
		<text transform="matrix(1 0 0 1 33.6313 86.3906)" font-size="9">Preparation</text>
		<text transform="matrix(1 0 0 1 33.6313 154.8452)" font-size="9">Administration</text>
		<text transform="matrix(1 0 0 1 33.6313 394.4346)" font-size="9">Contrast Report Use</text>
		
			<rect x="454.613" y="22.714" fill="#CCDEF0" stroke="#010101" stroke-width="0.75" stroke-linecap="round" stroke-linejoin="round" stroke-miterlimit="1" width="72" height="30.289"/>
		
			<rect x="327.551" y="22.714" fill="#CCDEF0" stroke="#010101" stroke-width="0.75" stroke-linecap="round" stroke-linejoin="round" stroke-miterlimit="1" width="82" height="30.289"/>
		<text transform="matrix(1 0 0 1 334.5322 34.9663)"><tspan x="0" y="0" font-size="9">Contrast Infusion</tspan><tspan x="16.258" y="10.8" font-size="9">Manager</tspan></text>
		<text transform="matrix(1 0 0 1 459.2441 34.9663)"><tspan x="0" y="0" font-size="9">Contrast Usage</tspan><tspan x="8.258" y="10.8" font-size="9">Consumers</tspan></text>
		
			<rect x="200.55" y="22.714" fill="#CCDEF0" stroke="#010101" stroke-width="0.75" stroke-linecap="round" stroke-linejoin="round" stroke-miterlimit="1" width="82.001" height="30.289"/>
		<text transform="matrix(1 0 0 1 207.5322 34.9658)"><tspan x="0" y="0" font-size="9">Contrast Infusion</tspan><tspan x="19.015" y="10.8" font-size="9">System</tspan></text>
		<text transform="matrix(1 0 0 1 128.3608 40.3662)" font-size="9">Operator</text>
		<text transform="matrix(1 0 0 1 442.876 91.8887)" fill="#010101" font-size="7">Patient and Study context</text>
		<text transform="matrix(1 0 0 1 209.0083 121.0552)" fill="#010101" font-size="7">Patient / Study selection</text>
		<text transform="matrix(1 0 0 1 155.5728 154.8452)" fill="#010101" font-size="7">Program infusion</text>
		<text transform="matrix(1 0 0 1 161.6021 172.1787)" fill="#010101" font-size="7">Start infusion</text>
		<text transform="matrix(1 0 0 1 161.6021 227.9746)" fill="#010101" font-size="7">Adjust settings</text>
		<text transform="matrix(1 0 0 1 161.6021 294.2646)" fill="#010101" font-size="7">Adjust settings</text>
		<text transform="matrix(1 0 0 1 161.6021 331.2549)" fill="#010101" font-size="7">Modify / Correct</text>
		<text transform="matrix(1 0 0 1 274.3042 182.2588)" fill="#010101" font-size="7">Start infusion event</text>
		<text transform="matrix(1 0 0 1 274.3042 236.3242)" fill="#010101" font-size="7">Update parameters</text>
		<text transform="matrix(1 0 0 1 274.3042 302.8496)" fill="#010101" font-size="7">Update parameters</text>
		<text transform="matrix(1 0 0 1 274.3042 200.1562)" fill="#010101" font-size="7">Pump infusion event</text>
		<text transform="matrix(1 0 0 1 274.3042 271.5918)" fill="#010101" font-size="7">Pump infusion event</text>
		<text transform="matrix(1 0 0 1 274.3042 258.8232)" fill="#010101" font-size="7">Pump infusion event</text>
		
			<rect x="119.706" y="124.084" fill="#CCDEF0" stroke="#010101" stroke-width="0.75" stroke-linecap="round" stroke-linejoin="round" stroke-miterlimit="1" width="9.5" height="209.187"/>
		
			<rect x="592.124" y="81.218" fill="#CCDEF0" stroke="#010101" stroke-width="0.75" stroke-linecap="round" stroke-linejoin="round" stroke-miterlimit="1" width="9.5" height="15.168"/>
		
			<rect x="363.801" y="95.981" fill="#CCDEF0" stroke="#010101" stroke-width="0.75" stroke-linecap="round" stroke-linejoin="round" stroke-miterlimit="1" width="9.5" height="15.168"/>
		
			<rect x="363.801" y="123.192" fill="#CCDEF0" stroke="#010101" stroke-width="0.75" stroke-linecap="round" stroke-linejoin="round" stroke-miterlimit="1" width="9.5" height="15.168"/>
		
			<rect x="363.801" y="184.318" fill="#CCDEF0" stroke="#010101" stroke-width="0.75" stroke-linecap="round" stroke-linejoin="round" stroke-miterlimit="1" width="9.5" height="210.116"/>
		<text transform="matrix(1 0 0 1 376.502 391.2764)" fill="#010101" font-size="7">Imaging Agent Administration SR</text>
		
			<rect x="485.758" y="394.308" fill="#CCDEF0" stroke="#010101" stroke-width="0.75" stroke-linecap="round" stroke-linejoin="round" stroke-miterlimit="1" width="9.5" height="15.168"/>
		
			<rect x="236.881" y="148.575" fill="#CCDEF0" stroke="#010101" stroke-width="0.75" stroke-linecap="round" stroke-linejoin="round" stroke-miterlimit="1" width="9.494" height="222.31"/>
		<g>
			
				<path fill="#FFFFFF" stroke="#010101" stroke-width="0.72" stroke-linecap="round" stroke-linejoin="round" stroke-miterlimit="3" d="
				M225.231,197.148h-86.538v19.463h94.228v-10.46L225.231,197.148"/>
			
				<path fill="none" stroke="#010101" stroke-width="0.72" stroke-linecap="round" stroke-linejoin="round" stroke-miterlimit="3" d="
				M225.231,197.148v9h7.689"/>
			<g>
				<rect x="142.519" y="199.604" fill="none" width="87.57" height="16.346"/>
				<text transform="matrix(1 0 0 1 142.5181 204.2554)"><tspan x="0" y="0" fill="#010101" font-size="6.5">e.g., Pressure limit reached</tspan><tspan x="0" y="7.8" fill="#010101" font-size="6.5">flow rate limited</tspan></text>
			</g>
		</g>
		<g>
			
				<path fill="#FFFFFF" stroke="#010101" stroke-width="0.72" stroke-linecap="round" stroke-linejoin="round" stroke-miterlimit="3" d="
				M225.231,251.763h-86.538v13.416h94.228v-4.413L225.231,251.763"/>
			
				<path fill="none" stroke="#010101" stroke-width="0.72" stroke-linecap="round" stroke-linejoin="round" stroke-miterlimit="3" d="
				M225.231,251.763v9h7.689"/>
			<g>
				<rect x="142.519" y="255.227" fill="none" width="87.57" height="7.165"/>
				<text transform="matrix(1 0 0 1 142.519 259.8799)" fill="#010101" font-size="6.5">e.g.,Extravasation</text>
			</g>
		</g>
		<g>
			
				<path fill="#FFFFFF" stroke="#010101" stroke-width="0.72" stroke-linecap="round" stroke-linejoin="round" stroke-miterlimit="3" d="
				M103.664,327.763H17.126v13.416h94.228v-4.413L103.664,327.763"/>
			
				<path fill="none" stroke="#010101" stroke-width="0.72" stroke-linecap="round" stroke-linejoin="round" stroke-miterlimit="3" d="
				M103.664,327.763v9h7.689"/>
			<g>
				<rect x="20.952" y="331.227" fill="none" width="87.57" height="7.165"/>
				<text transform="matrix(1 0 0 1 20.9521 335.8799)" fill="#010101" font-size="6.5">e.g.,Validate</text>
			</g>
		</g>
		<g>
			
				<path fill="#FFFFFF" stroke="#010101" stroke-width="0.72" stroke-linecap="round" stroke-linejoin="round" stroke-miterlimit="3" d="
				M585.59,387.611h-86.538v13.416h94.228v-4.413L585.59,387.611"/>
			
				<path fill="none" stroke="#010101" stroke-width="0.72" stroke-linecap="round" stroke-linejoin="round" stroke-miterlimit="3" d="
				M585.59,387.611v9h7.689"/>
			<g>
				<rect x="502.878" y="391.075" fill="none" width="87.57" height="7.165"/>
				<text transform="matrix(1 0 0 1 502.8779 395.7285)" fill="#010101" font-size="6.5">Contrast Report</text>
			</g>
		</g>
		<g>
			
				<path fill="#FFFFFF" stroke="#010101" stroke-width="0.72" stroke-linecap="round" stroke-linejoin="round" stroke-miterlimit="3" d="
				M103.664,218.354H17.126v19.463h94.228v-10.46L103.664,218.354"/>
			
				<path fill="none" stroke="#010101" stroke-width="0.72" stroke-linecap="round" stroke-linejoin="round" stroke-miterlimit="3" d="
				M103.664,218.354v9h7.689"/>
			<g>
				<rect x="20.952" y="220.81" fill="none" width="87.57" height="16.346"/>
				<text transform="matrix(1 0 0 1 20.9512 225.4604)"><tspan x="0" y="0" fill="#010101" font-size="6.5">e.g., Pressure limit reached</tspan><tspan x="0" y="7.8" fill="#010101" font-size="6.5">flow rate limited</tspan></text>
			</g>
		</g>
		<g>
			
				<path fill="#FFFFFF" stroke="#010101" stroke-width="0.72" stroke-linecap="round" stroke-linejoin="round" stroke-miterlimit="3" d="
				M103.664,285.541H17.126v19.463h94.228v-10.46L103.664,285.541"/>
			
				<path fill="none" stroke="#010101" stroke-width="0.72" stroke-linecap="round" stroke-linejoin="round" stroke-miterlimit="3" d="
				M103.664,285.541v9h7.689"/>
			<g>
				<rect x="20.952" y="287.997" fill="none" width="87.57" height="16.346"/>
				<text transform="matrix(1 0 0 1 20.9512 292.6484)"><tspan x="0" y="0" fill="#010101" font-size="6.5">e.g., Increase volume to </tspan><tspan x="0" y="7.8" fill="#010101" font-size="6.5">compensate for extravasation</tspan></text>
			</g>
		</g>
		<g>
			<g>
				
					<line fill="none" stroke="#000000" stroke-width="0.5" stroke-linecap="round" stroke-miterlimit="1" x1="124.55" y1="52.757" x2="124.55" y2="54.257"/>
				
					<line fill="none" stroke="#000000" stroke-width="0.5" stroke-linecap="round" stroke-miterlimit="1" stroke-dasharray="3.0687,3.0687" x1="124.55" y1="57.326" x2="124.55" y2="68.066"/>
				
					<line fill="none" stroke="#000000" stroke-width="0.5" stroke-linecap="round" stroke-miterlimit="1" x1="124.55" y1="69.601" x2="124.55" y2="71.101"/>
			</g>
		</g>
		<g>
			<g>
				
					<line fill="none" stroke="#000000" stroke-width="0.5" stroke-linecap="round" stroke-miterlimit="1" x1="241.545" y1="52.757" x2="241.545" y2="54.257"/>
				
					<line fill="none" stroke="#000000" stroke-width="0.5" stroke-linecap="round" stroke-miterlimit="1" stroke-dasharray="3.0687,3.0687" x1="241.545" y1="57.326" x2="241.545" y2="68.066"/>
				
					<line fill="none" stroke="#000000" stroke-width="0.5" stroke-linecap="round" stroke-miterlimit="1" x1="241.545" y1="69.601" x2="241.545" y2="71.101"/>
			</g>
		</g>
		<g>
			<g>
				
					<line fill="none" stroke="#000000" stroke-width="0.5" stroke-linecap="round" stroke-miterlimit="1" x1="368.546" y1="52.757" x2="368.546" y2="54.257"/>
				
					<line fill="none" stroke="#000000" stroke-width="0.5" stroke-linecap="round" stroke-miterlimit="1" stroke-dasharray="3.0687,3.0687" x1="368.546" y1="57.326" x2="368.546" y2="68.066"/>
				
					<line fill="none" stroke="#000000" stroke-width="0.5" stroke-linecap="round" stroke-miterlimit="1" x1="368.546" y1="69.601" x2="368.546" y2="71.101"/>
			</g>
		</g>
		<g>
			<g>
				
					<line fill="none" stroke="#000000" stroke-width="0.5" stroke-linecap="round" stroke-miterlimit="1" x1="490.508" y1="52.757" x2="490.508" y2="54.257"/>
				
					<line fill="none" stroke="#000000" stroke-width="0.5" stroke-linecap="round" stroke-miterlimit="1" stroke-dasharray="3.0687,3.0687" x1="490.508" y1="57.326" x2="490.508" y2="68.066"/>
				
					<line fill="none" stroke="#000000" stroke-width="0.5" stroke-linecap="round" stroke-miterlimit="1" x1="490.508" y1="69.601" x2="490.508" y2="71.101"/>
			</g>
		</g>
		<g>
			
				<line fill="none" stroke="#000000" stroke-width="0.5" stroke-linecap="round" stroke-miterlimit="1" x1="596.875" y1="72.837" x2="596.875" y2="422.61"/>
		</g>
		
			<rect x="568.875" y="22.714" fill="#CCDEF0" stroke="#010101" stroke-width="0.75" stroke-linecap="round" stroke-linejoin="round" stroke-miterlimit="1" width="56" height="30.289"/>
		<text transform="matrix(1 0 0 1 589.3721 40.3657)" font-size="9">RIS</text>
		<g>
			<g>
				
					<line fill="none" stroke="#000000" stroke-width="0.5" stroke-linecap="round" stroke-miterlimit="1" x1="596.77" y1="52.757" x2="596.77" y2="54.257"/>
				
					<line fill="none" stroke="#000000" stroke-width="0.5" stroke-linecap="round" stroke-miterlimit="1" stroke-dasharray="3.0687,3.0687" x1="596.77" y1="57.326" x2="596.77" y2="68.066"/>
				
					<line fill="none" stroke="#000000" stroke-width="0.5" stroke-linecap="round" stroke-miterlimit="1" x1="596.77" y1="69.601" x2="596.77" y2="71.101"/>
			</g>
		</g>
		<g>
			<polygon fill="#B2CEE7" stroke="#000000" stroke-width="0.25" stroke-linecap="round" stroke-linejoin="round" points="
				115.543,40.59 115.412,40.918 115.361,41.731 115.434,42.473 115.762,43.768 115.787,43.842 116.021,44.25 116.152,44.351 
				116.199,44.374 116.271,44.378 116.35,44.375 116.426,44.354 116.479,44.327 116.504,44.3 116.605,44.169 116.729,43.707 
				116.678,42.372 116.527,41.631 116.244,40.843 116.221,40.794 115.996,40.518 115.943,40.51 115.766,40.465 115.586,40.562 			
				"/>
			<polygon fill="#B2CEE7" stroke="#000000" stroke-width="0.25" stroke-linecap="round" stroke-linejoin="round" points="
				116.734,39.727 116.506,39.392 116.148,39.188 115.74,39.147 115.355,39.299 115.074,39.603 114.949,40.002 115.004,40.408 
				115.027,40.46 115.258,40.795 115.613,40.999 116.023,41.026 116.408,40.888 116.703,40.584 116.83,40.184 116.762,39.776 			"/>
			<polygon fill="#B2CEE7" stroke="#000000" stroke-width="0.25" stroke-linecap="round" stroke-linejoin="round" points="
				108.326,40.457 108.484,40.694 108.588,41.408 108.605,41.582 108.58,42.293 108.322,43.535 108.08,43.964 108.025,44.062 
				107.918,44.141 107.846,44.189 107.766,44.215 107.674,44.215 107.613,44.189 107.518,44.14 107.461,44.063 107.307,43.688 
				107.262,42.487 107.262,42.291 107.365,41.579 107.615,40.813 107.695,40.69 107.877,40.441 107.971,40.391 108.074,40.364 
				108.18,40.364 108.275,40.392 			"/>
			<polygon fill="#B2CEE7" stroke="#000000" stroke-width="0.25" stroke-linecap="round" stroke-linejoin="round" points="
				108.834,40.645 109.041,40.329 109.084,39.93 108.936,39.549 108.637,39.248 108.25,39.11 107.846,39.136 107.51,39.323 
				107.41,39.451 107.205,39.78 107.164,40.18 107.312,40.561 107.613,40.848 107.996,40.999 108.402,40.974 108.738,40.788 			"/>
			<polygon fill="#B2CEE7" stroke="#000000" stroke-width="0.25" stroke-linecap="round" stroke-linejoin="round" points="
				109.617,38.229 109.342,38.503 109.24,38.628 108.68,41.195 108.709,42.446 108.992,43.362 109.268,43.737 109.365,43.858 
				109.5,43.936 110.254,44.201 111.348,44.367 112.568,44.354 113.658,44.197 114.375,43.918 114.523,43.841 114.623,43.732 
				114.857,43.356 115.156,42.44 115.203,41.177 114.65,38.611 114.551,38.486 114.262,38.226 114.164,38.156 113.455,37.955 
				112.465,37.85 111.375,37.851 110.402,37.97 109.703,38.173 			"/>
			<polyline fill="#B2CEE7" stroke="#000000" stroke-width="0.25" stroke-linecap="round" stroke-linejoin="round" points="
				116.174,38.767 116.174,38.78 116.121,38.935 116.221,39.325 116.221,39.326 116.453,39.776 116.705,40.211 116.99,40.512 
				117.16,40.544 117.34,40.491 119.875,39.426 122.57,37.847 122.93,37.57 123.102,37.369 123.131,37.214 123.078,37.034 
				122.928,36.709 122.723,36.322 122.496,35.939 122.297,35.638 122.17,35.484 122.018,35.432 121.762,35.463 121.334,35.632 
				118.562,37.065 116.32,38.653 116.174,38.767 116.221,39.325 116.221,39.326 			"/>
			<polygon fill="#B2CEE7" stroke="#000000" stroke-width="0.25" stroke-linecap="round" stroke-linejoin="round" points="
				113.758,38.583 112.943,39.141 112.645,39.264 112.209,39.322 111.709,39.322 111.271,39.265 110.965,39.143 110.158,38.586 
				109.977,38.331 109.475,37.363 109.471,36.272 109.955,35.282 110.158,35.056 110.961,34.47 111.266,34.37 111.701,34.318 
				112.188,34.318 112.639,34.369 112.949,34.468 113.732,35.054 113.961,35.279 114.441,36.27 114.42,37.359 113.916,38.328 			"/>
			<polygon fill="#B2CEE7" stroke="#000000" stroke-width="0.25" stroke-linecap="round" stroke-linejoin="round" points="
				101.086,37.693 101.447,37.953 104.141,39.478 106.676,40.493 106.855,40.544 107.012,40.51 107.307,40.203 107.357,40.129 
				107.439,39.979 107.545,39.781 107.66,39.579 107.738,39.418 107.773,39.313 107.871,38.912 107.867,38.867 107.799,38.712 
				107.664,38.586 105.381,37.041 102.592,35.664 102.176,35.512 101.908,35.484 101.77,35.54 101.627,35.661 101.426,35.938 
				101.213,36.304 101.01,36.709 100.865,37.061 100.816,37.285 100.859,37.438 101.018,37.624 			"/>
			<polygon fill="#B2CEE7" stroke="#000000" stroke-width="0.25" stroke-linecap="round" stroke-linejoin="round" points="
				100.074,35.157 100.502,34.975 100.984,35 101.422,35.232 101.732,35.634 101.857,36.115 101.775,36.576 101.492,36.934 
				101.34,37.079 100.91,37.261 100.43,37.233 99.992,36.989 99.67,36.602 99.541,36.121 99.621,35.658 99.902,35.285 			"/>
			<polygon fill="#B2CEE7" stroke="#000000" stroke-width="0.25" stroke-linecap="round" stroke-linejoin="round" points="
				123.227,34.873 123.719,34.952 124.125,35.237 124.367,35.688 124.371,35.817 124.375,36.301 124.166,36.729 124.072,36.828 
				123.916,36.937 123.717,37.055 123.516,37.134 123.359,37.165 123.279,37.159 122.775,37.081 122.369,36.785 122.139,36.348 
				122.119,35.84 122.135,35.737 122.34,35.308 122.422,35.21 122.592,35.103 122.725,35.023 122.777,34.997 122.979,34.904 
				123.133,34.87 			"/>
			<polygon fill="#B2CEE7" stroke="#000000" stroke-width="0.25" stroke-linecap="round" stroke-linejoin="round" points="
				100.381,34.801 100.463,34.673 102.518,32.489 103.916,31.037 104.119,30.886 105.43,30.032 105.785,29.953 106.014,29.979 
				106.266,30.058 106.596,30.304 106.932,30.642 107.217,31.038 107.41,31.394 107.441,31.648 107.439,31.879 107.311,32.215 
				106.316,33.401 106.123,33.576 104.518,34.771 102.105,36.523 101.959,36.583 101.822,36.574 101.545,36.527 101.193,36.321 
				100.838,35.988 100.553,35.589 100.383,35.227 100.381,34.951 			"/>
			<polygon fill="#B2CEE7" stroke="#000000" stroke-width="0.25" stroke-linecap="round" stroke-linejoin="round" points="
				123.59,34.845 123.506,34.619 123.41,34.489 121.35,32.314 119.951,30.868 118.615,30.031 118.254,29.952 118.023,29.948 
				117.816,29.974 117.514,30.132 117.164,30.435 116.838,30.814 116.605,31.197 116.502,31.521 116.504,31.729 116.555,31.952 
				116.699,32.306 117.701,33.482 119.322,34.654 121.754,36.381 121.889,36.453 122.137,36.503 122.268,36.481 122.594,36.353 
				122.953,36.073 123.283,35.694 123.512,35.307 123.588,34.976 			"/>
			<polygon fill="#B2CEE7" stroke="#000000" stroke-width="0.25" stroke-linecap="round" stroke-linejoin="round" points="
				109.725,35.208 109.318,34.568 109.162,33.56 108.652,30.285 108.939,28.073 109.49,27.436 109.748,27.289 110.613,26.927 
				111.039,26.855 111.631,26.824 112.295,26.824 112.902,26.854 113.334,26.926 114.193,27.287 114.475,27.434 115.025,28.07 
				115.291,30.282 114.771,33.557 114.6,34.552 114.189,35.205 113.992,35.408 113.404,35.591 112.973,35.714 112.336,35.785 
				111.621,35.785 110.969,35.715 110.531,35.593 109.945,35.41 			"/>
			<polygon fill="#B2CEE7" stroke="#000000" stroke-width="0.25" stroke-linecap="round" stroke-linejoin="round" points="
				106.73,28.728 106.225,29.168 105.984,29.804 106.037,30.507 106.371,31.121 106.93,31.549 107.596,31.697 108.254,31.527 
				108.76,31.092 108.912,30.944 109.168,30.326 109.135,29.622 108.789,29.005 108.229,28.576 107.561,28.429 106.904,28.603 			
				"/>
			<polygon fill="#B2CEE7" stroke="#000000" stroke-width="0.25" stroke-linecap="round" stroke-linejoin="round" points="
				117.42,28.807 117.85,29.387 117.977,30.098 117.793,30.792 117.316,31.349 116.656,31.649 115.945,31.627 115.312,31.298 
				114.898,30.731 114.771,30.023 114.953,29.318 115.414,28.762 116.072,28.458 116.787,28.478 116.812,28.482 			"/>
			<polygon fill="#B2CEE7" stroke="#000000" stroke-width="0.25" stroke-linecap="round" stroke-linejoin="round" points="
				112.693,27.229 113.258,26.771 113.586,26.097 113.588,25.358 113.281,24.692 112.715,24.218 112.639,24.186 111.988,24.059 
				111.346,24.187 111.273,24.231 110.707,24.693 110.385,25.359 110.385,26.11 110.709,26.772 111.273,27.229 111.348,27.279 
				111.549,27.312 111.982,27.386 112.438,27.312 112.623,27.278 			"/>
			<polygon fill="#B2CEE7" stroke="#000000" stroke-width="0.25" stroke-linecap="round" stroke-linejoin="round" points="
				110.076,24.714 109.725,24.419 109.471,23.911 109.293,23.123 108.711,19.49 108.965,18.165 109.93,16.77 110.84,16.218 
				112.014,16.011 113.201,16.218 114.096,16.77 115.057,18.164 115.307,19.489 114.699,23.121 114.52,23.91 114.264,24.417 
				113.91,24.7 113.738,24.795 113.225,24.868 112.443,24.901 111.578,24.901 110.793,24.869 110.258,24.796 			"/>
			<polygon fill="#B2CEE7" stroke="#000000" stroke-width="0.25" stroke-linecap="round" stroke-linejoin="round" points="
				108.079,67.912 108.501,67.799 109.728,65.739 110.018,64.973 110.014,64.565 110.021,64.304 109.854,64.028 109.54,63.798 
				109.16,63.654 108.785,63.626 108.479,63.724 108.204,63.976 108.01,64.204 107.662,64.962 107.027,67.245 107.248,67.6 
				107.393,67.708 107.641,67.828 107.896,67.897 			"/>
			<polygon fill="#B2CEE7" stroke="#000000" stroke-width="0.25" stroke-linecap="round" stroke-linejoin="round" points="
				109.365,62.625 109.195,62.625 109.043,62.658 108.879,62.728 108.682,62.859 108.535,63.109 108.449,63.319 108.451,63.645 
				108.523,63.868 108.678,64.105 108.855,64.253 109.115,64.331 109.191,64.354 109.363,64.354 109.502,64.307 109.691,64.254 
				109.875,64.106 110.025,63.87 110.107,63.646 110.105,63.334 110.029,63.11 109.879,62.86 109.699,62.729 109.516,62.659 			"/>
			<polygon fill="#B2CEE7" stroke="#000000" stroke-width="0.25" stroke-linecap="round" stroke-linejoin="round" points="
				109.145,63.466 108.791,63.343 108.557,63.137 108.482,62.88 108.348,62.345 108.275,61.232 107.998,58.413 108.016,55.363 
				108.125,54.91 108.256,54.63 108.406,54.522 108.684,54.326 109.068,54.223 109.498,54.224 109.879,54.327 109.996,54.404 
				110.303,54.631 110.406,54.912 110.535,55.365 110.633,58.415 110.432,61.234 110.385,62.347 110.258,62.882 110.16,63.138 
				109.906,63.344 109.547,63.466 109.52,63.467 109.189,63.466 			"/>
			<polygon fill="#B2CEE7" stroke="#000000" stroke-width="0.25" stroke-linecap="round" stroke-linejoin="round" points="
				109.549,53.283 109.799,53.366 110.027,53.537 110.213,53.848 110.312,54.117 110.314,54.523 110.207,54.782 110.025,55.091 
				109.777,55.266 109.549,55.344 109.365,55.396 109.145,55.395 108.963,55.343 108.711,55.265 108.484,55.09 108.281,54.781 
				108.199,54.509 108.195,54.103 108.32,53.847 108.5,53.536 108.736,53.365 108.961,53.282 109.16,53.231 109.365,53.231 			"/>
			<polygon fill="#B2CEE7" stroke="#000000" stroke-width="0.25" stroke-linecap="round" stroke-linejoin="round" points="
				110.379,54.065 110.506,53.842 110.539,53.711 110.531,53.465 111.039,49.116 111.354,45.892 111.141,45.489 110.992,45.284 
				110.592,45.107 110.258,44.961 109.906,44.901 109.521,44.879 109.168,44.91 108.814,45.027 108.408,45.159 108.25,45.356 
				107.992,45.723 107.996,48.97 108.074,53.358 108.043,53.591 108.07,53.735 108.172,53.965 108.23,54.017 108.537,54.199 
				108.994,54.32 109.518,54.345 109.979,54.27 110.305,54.102 			"/>
			<polygon fill="#B2CEE7" stroke="#000000" stroke-width="0.25" stroke-linecap="round" stroke-linejoin="round" points="
				115.6,67.887 115.171,67.745 114.043,65.626 113.775,64.837 113.793,64.437 113.824,64.184 114.016,63.922 114.348,63.718 
				114.735,63.594 115.113,63.608 115.405,63.719 115.666,63.991 115.842,64.247 116.161,65.008 116.685,67.312 116.451,67.644 
				116.299,67.739 116.043,67.839 115.783,67.887 			"/>
			<polygon fill="#B2CEE7" stroke="#000000" stroke-width="0.25" stroke-linecap="round" stroke-linejoin="round" points="
				114.348,62.604 114.52,62.604 114.672,62.649 114.832,62.705 115.031,62.837 115.178,63.086 115.279,63.309 115.264,63.621 
				115.209,63.845 115.053,64.095 114.879,64.23 114.621,64.31 114.527,64.333 114.369,64.333 114.217,64.3 114.043,64.247 
				113.855,64.1 113.709,63.852 113.609,63.641 113.611,63.315 113.684,63.104 113.836,62.854 114.012,62.709 114.213,62.651 			"/>
			<polygon fill="#B2CEE7" stroke="#000000" stroke-width="0.25" stroke-linecap="round" stroke-linejoin="round" points="
				114.598,63.444 114.951,63.333 115.18,63.113 115.311,62.608 115.387,62.321 115.465,61.209 115.77,58.389 115.791,55.341 
				115.67,54.888 115.535,54.607 115.387,54.501 115.104,54.305 114.703,54.203 114.275,54.204 113.91,54.321 113.789,54.399 
				113.5,54.627 113.402,54.908 113.273,55.362 113.148,58.411 113.311,61.23 113.352,62.329 113.461,62.877 113.564,63.133 
				113.834,63.338 114.195,63.445 114.221,63.446 114.551,63.445 			"/>
			<polygon fill="#B2CEE7" stroke="#000000" stroke-width="0.25" stroke-linecap="round" stroke-linejoin="round" points="
				114.668,55.388 114.449,55.389 114.264,55.337 114.041,55.26 113.789,55.086 113.611,54.778 113.484,54.507 113.502,54.101 
				113.582,53.844 113.783,53.533 114.008,53.36 114.264,53.265 114.443,53.213 114.65,53.212 114.85,53.263 115.057,53.357 
				115.311,53.515 115.486,53.837 115.617,54.094 115.611,54.5 115.535,54.759 115.33,55.068 115.107,55.243 114.85,55.335 			"/>
			<polygon fill="#B2CEE7" stroke="#000000" stroke-width="0.25" stroke-linecap="round" stroke-linejoin="round" points="
				115.66,53.942 115.742,53.713 115.771,53.568 115.74,53.336 115.84,48.948 115.865,45.715 115.594,45.337 115.416,45.14 
				115,45.009 114.654,44.904 114.299,44.874 113.914,44.885 113.578,44.958 113.225,45.105 112.844,45.283 112.717,45.487 
				112.49,45.891 112.799,49.114 113.283,53.462 113.275,53.695 113.309,53.838 113.453,54.049 113.527,54.098 113.859,54.252 
				114.324,54.326 114.848,54.301 115.287,54.178 115.588,53.995 			"/>
			<polygon fill="#B2CEE7" stroke="#000000" stroke-width="0.25" stroke-linecap="round" stroke-linejoin="round" points="
				110.26,45.846 110.76,45.543 110.869,45.389 111.193,44.83 111.225,44.193 110.967,43.605 110.846,43.438 110.402,43.083 
				110.211,43.021 109.955,42.971 109.67,42.951 109.398,42.976 109.217,43.029 108.732,43.337 108.604,43.485 108.281,44.047 
				108.254,44.696 108.525,45.281 108.629,45.442 109.088,45.793 109.264,45.872 109.521,45.924 109.82,45.943 110.078,45.917 			
				"/>
			<polygon fill="#B2CEE7" stroke="#000000" stroke-width="0.25" stroke-linecap="round" stroke-linejoin="round" points="
				113.631,43.005 113.887,42.954 114.17,42.946 114.443,42.971 114.629,43.024 115.107,43.331 115.256,43.479 115.566,44.04 
				115.592,44.677 115.33,45.262 115.236,45.436 114.773,45.774 114.6,45.866 114.344,45.919 114.045,45.927 113.785,45.9 
				113.588,45.843 113.105,45.541 112.977,45.387 112.664,44.828 112.623,44.192 112.895,43.591 112.996,43.437 113.455,43.08 			
				"/>
		</g>
		<text transform="matrix(1 0 0 1 274.3042 353.5986)" fill="#010101" font-size="7">Infusion finished</text>
		<text transform="matrix(1 0 0 1 274.3042 369.2344)" fill="#010101" font-size="7">Infusion finished</text>
	</g>
</g>
</svg>
