<?xml version="1.0" encoding="utf-8"?>

<!DOCTYPE svg PUBLIC "-//W3C//DTD SVG 1.1//EN" "http://www.w3.org/Graphics/SVG/1.1/DTD/svg11.dtd">
<svg version="1.1" id="Layer_1" xmlns="http://www.w3.org/2000/svg" xmlns:xlink="http://www.w3.org/1999/xlink" x="0px" y="0px"
	 width="502px" height="307px" viewBox="0 0 502 307" enable-background="new 0 0 502 307" xml:space="preserve">

<defs>
	<style type="text/css">
	text {
	  font-family: Helvetica, Verdana, ArialUnicodeMS, san-serif
	}
	</style>
</defs>

<g>
   <desc>
	PS 3.17 Part 17: Explanatory Information
   </desc>
</g>

<g>
	<rect x="1" y="1" fill="#F5EED6" width="500" height="305"/>
	<g>
		
			<rect x="293.262" y="88.424" fill="#CCDEF0" stroke="#010101" stroke-width="0.75" stroke-linecap="round" stroke-linejoin="round" stroke-miterlimit="1" width="51" height="196.591"/>
		<g>
			<text transform="matrix(1 0 0 1 304.5923 182.8916)"><tspan x="0" y="0" font-size="6">Volumetric</tspan><tspan x="-2.674" y="5.491" font-size="6">Presentation</tspan><tspan x="-3.504" y="10.981" font-size="6">State Display</tspan></text>
		</g>
		<g>
			<g>
				<polyline fill="none" stroke="#000000" stroke-width="0.5" stroke-miterlimit="1" points="67.637,125.928 259.953,125.928 
					259.953,113.968 				"/>
				<g>
					<polygon points="261.115,114.761 259.953,110.424 258.791,114.761 					"/>
				</g>
			</g>
		</g>
		<g>
			<g>
				<polyline fill="none" stroke="#000000" stroke-width="0.5" stroke-miterlimit="1" points="424.766,172.435 424.766,61.899 
					384.829,61.899 				"/>
				<g>
					<polygon points="425.928,171.643 424.766,175.979 423.604,171.643 					"/>
				</g>
			</g>
		</g>
		<g>
			<g>
				
					<line fill="none" stroke="#000000" stroke-width="0.5" stroke-miterlimit="1" x1="240.739" y1="24.374" x2="86.381" y2="24.374"/>
				<g>
					<polygon points="239.946,23.211 244.283,24.374 239.946,25.536 					"/>
				</g>
			</g>
		</g>
		<g>
			<g>
				<polyline fill="none" stroke="#000000" stroke-width="0.5" stroke-miterlimit="1" points="439.766,172.435 439.766,24.374 
					275.42,24.374 				"/>
				<g>
					<polygon points="440.928,171.643 439.766,175.979 438.604,171.643 					"/>
				</g>
			</g>
		</g>
		<g>
			<g>
				<line fill="none" stroke="#005695" stroke-width="2" stroke-miterlimit="1" x1="62.381" y1="99.424" x2="83.044" y2="99.424"/>
				<g>
					<polygon fill="#005695" points="81.458,101.749 90.131,99.424 81.458,97.1 					"/>
				</g>
			</g>
		</g>
		<g>
			<g>
				
					<line fill="none" stroke="#005695" stroke-width="2" stroke-miterlimit="1" x1="120.391" y1="99.424" x2="131.304" y2="99.424"/>
				<g>
					<polygon fill="#005695" points="129.718,101.749 138.391,99.424 129.718,97.1 					"/>
				</g>
			</g>
		</g>
		
			<rect x="90.237" y="88.424" fill="#CCDEF0" stroke="#010101" stroke-width="0.75" stroke-linecap="round" stroke-linejoin="round" stroke-miterlimit="1" width="30" height="22"/>
		<g>
			<text transform="matrix(1 0 0 1 93.5669 101.0859)" font-size="6">VOI LUT</text>
		</g>
		<g>
			<g>
				
					<line fill="none" stroke="#005695" stroke-width="2" stroke-miterlimit="1" x1="178.406" y1="99.424" x2="237.578" y2="99.424"/>
				<g>
					<polygon fill="#005695" points="235.993,101.749 244.666,99.424 235.993,97.1 					"/>
				</g>
			</g>
		</g>
		<g>
			<g>
				
					<line fill="none" stroke="#005695" stroke-width="2" stroke-miterlimit="1" x1="226.666" y1="152.454" x2="237.578" y2="152.454"/>
				<g>
					<polygon fill="#005695" points="235.993,154.777 244.666,152.454 235.993,150.129 					"/>
				</g>
			</g>
		</g>
		
			<rect x="196.636" y="141.454" fill="#CCDEF0" stroke="#010101" stroke-width="0.75" stroke-linecap="round" stroke-linejoin="round" stroke-miterlimit="1" width="30" height="22"/>
		<g>
			<text transform="matrix(1 0 0 1 199.4609 154.1152)" font-size="6">Cropping</text>
		</g>
		<g>
			<g>
				
					<line fill="none" stroke="#005695" stroke-width="2" stroke-miterlimit="1" x1="275.262" y1="99.424" x2="286.174" y2="99.424"/>
				<g>
					<polygon fill="#005695" points="284.589,101.749 293.262,99.424 284.589,97.1 					"/>
				</g>
			</g>
		</g>
		
			<rect x="244.95" y="88.424" fill="#CCDEF0" stroke="#010101" stroke-width="0.75" stroke-linecap="round" stroke-linejoin="round" stroke-miterlimit="1" width="30" height="22"/>
		<g>
			<text transform="matrix(1 0 0 1 253.2817 101.0859)" font-size="6">MPR</text>
		</g>
		
			<rect x="244.95" y="13.374" fill="#CCDEF0" stroke="#010101" stroke-width="0.75" stroke-linecap="round" stroke-linejoin="round" stroke-miterlimit="1" width="30" height="22"/>
		<g>
			<text transform="matrix(1 0 0 1 247.4438 23.29)"><tspan x="0" y="0" font-size="6">MPR and</tspan><tspan x="-0.835" y="5.491" font-size="6">Projection</tspan></text>
		</g>
		
			<rect x="138.362" y="88.424" fill="#CCDEF0" stroke="#010101" stroke-width="0.75" stroke-linecap="round" stroke-linejoin="round" stroke-miterlimit="1" width="40" height="22"/>
		<g>
			<text transform="matrix(1 0 0 1 149.1895 98.3408)"><tspan x="0" y="0" font-size="6">Spatial</tspan><tspan x="-6.835" y="5.491" font-size="6">Registration</tspan></text>
		</g>
		
			<rect x="344.262" y="50.899" fill="#CCDEF0" stroke="#010101" stroke-width="0.75" stroke-linecap="round" stroke-linejoin="round" stroke-miterlimit="1" width="40" height="22"/>
		<g>
			<text transform="matrix(1 0 0 1 353.7593 60.8154)"><tspan x="0" y="0" font-size="6">Graphic</tspan><tspan x="-3.841" y="5.491" font-size="6">Annotation</tspan></text>
		</g>
		<g>
			<text transform="matrix(1 0 0 1 22.4844 101.0859)" font-size="6">Lung Volume</text>
		</g>
		<g>
			<text transform="matrix(1 0 0 1 22.4844 26.0352)" font-size="6">Volume graphics input</text>
		</g>
		<g>
			<text transform="matrix(1 0 0 1 22.4844 127.563)" font-size="6">MPR Geometry</text>
		</g>
		<g>
			<g>
				<polyline fill="none" stroke="#000000" stroke-width="0.5" stroke-miterlimit="1" points="100.557,178.957 212.47,178.957 
					212.47,166.997 				"/>
				<g>
					<polygon points="213.632,167.789 212.47,163.453 211.308,167.789 					"/>
				</g>
			</g>
		</g>
		<g>
			<g>
				<polyline fill="none" stroke="#000000" stroke-width="0.5" stroke-miterlimit="1" points="212.47,178.957 260.782,178.957 
					260.782,166.997 				"/>
				<g>
					<polygon points="261.944,167.789 260.782,163.453 259.62,167.789 					"/>
				</g>
			</g>
		</g>
		<g>
			<g>
				
					<line fill="none" stroke="#005695" stroke-width="2" stroke-miterlimit="1" x1="63.214" y1="152.454" x2="83.877" y2="152.454"/>
				<g>
					<polygon fill="#005695" points="82.292,154.777 90.964,152.454 82.292,150.129 					"/>
				</g>
			</g>
		</g>
		<g>
			<g>
				
					<line fill="none" stroke="#005695" stroke-width="2" stroke-miterlimit="1" x1="121.224" y1="152.454" x2="132.137" y2="152.454"/>
				<g>
					<polygon fill="#005695" points="130.551,154.777 139.224,152.454 130.551,150.129 					"/>
				</g>
			</g>
		</g>
		
			<rect x="91.071" y="141.454" fill="#CCDEF0" stroke="#010101" stroke-width="0.75" stroke-linecap="round" stroke-linejoin="round" stroke-miterlimit="1" width="30" height="22"/>
		<g>
			<text transform="matrix(1 0 0 1 94.4004 154.1152)" font-size="6">VOI LUT</text>
		</g>
		<g>
			<g>
				
					<line fill="none" stroke="#005695" stroke-width="2" stroke-miterlimit="1" x1="179.239" y1="152.454" x2="190.151" y2="152.454"/>
				<g>
					<polygon fill="#005695" points="188.566,154.777 197.239,152.454 188.566,150.129 					"/>
				</g>
			</g>
		</g>
		
			<rect x="417.266" y="175.721" fill="#CCDEF0" stroke="#010101" stroke-width="0.75" stroke-linecap="round" stroke-linejoin="round" stroke-miterlimit="1" width="30" height="22"/>
		
			<rect x="362.766" y="175.721" fill="#CCDEF0" stroke="#010101" stroke-width="0.75" stroke-linecap="round" stroke-linejoin="round" stroke-miterlimit="1" width="30" height="22"/>
		<g>
			<text transform="matrix(1 0 0 1 420.2622 185.6367)"><tspan x="0" y="0" font-size="6">Graphics</tspan><tspan x="4.5" y="5.49" font-size="6">Layer</tspan></text>
		</g>
		<g>
			<g>
				
					<line fill="none" stroke="#005695" stroke-width="2" stroke-miterlimit="1" x1="276.096" y1="152.454" x2="287.008" y2="152.454"/>
				<g>
					<polygon fill="#005695" points="285.423,154.777 294.096,152.454 285.423,150.129 					"/>
				</g>
			</g>
		</g>
		<g>
			<g>
				
					<line fill="none" stroke="#005695" stroke-width="2" stroke-miterlimit="1" x1="344.262" y1="186.721" x2="355.174" y2="186.721"/>
				<g>
					<polygon fill="#005695" points="353.589,189.045 362.262,186.721 353.589,184.396 					"/>
				</g>
			</g>
		</g>
		
			<rect x="245.783" y="141.454" fill="#CCDEF0" stroke="#010101" stroke-width="0.75" stroke-linecap="round" stroke-linejoin="round" stroke-miterlimit="1" width="29.999" height="22"/>
		<g>
			<text transform="matrix(1 0 0 1 254.1157 154.1152)" font-size="6">MPR</text>
		</g>
		
			<rect x="139.196" y="141.454" fill="#CCDEF0" stroke="#010101" stroke-width="0.75" stroke-linecap="round" stroke-linejoin="round" stroke-miterlimit="1" width="40" height="22"/>
		<g>
			<text transform="matrix(1 0 0 1 150.0229 151.3701)"><tspan x="0" y="0" font-size="6">Spatial</tspan><tspan x="-6.835" y="5.491" font-size="6">Registration</tspan></text>
		</g>
		<g>
			<text transform="matrix(1 0 0 1 22.4844 154.1152)" font-size="6">Lung Volume</text>
		</g>
		<g>
			<text transform="matrix(1 0 0 1 22.4844 180.5918)"><tspan x="0" y="0" font-size="6">Large Nodule Segmentation</tspan><tspan x="16.689" y="5.491" font-size="6">MPR Geometry</tspan></text>
		</g>
		<g>
			<g>
				<polyline fill="none" stroke="#000000" stroke-width="0.5" stroke-miterlimit="1" points="101.055,285.016 211.636,285.016 
					211.636,273.056 				"/>
				<g>
					<polygon points="212.798,273.848 211.636,269.512 210.474,273.848 					"/>
				</g>
			</g>
		</g>
		<g>
			<g>
				<polyline fill="none" stroke="#000000" stroke-width="0.5" stroke-miterlimit="1" points="211.636,285.016 259.95,285.016 
					259.95,273.056 				"/>
				<g>
					<polygon points="261.112,273.848 259.95,269.512 258.788,273.848 					"/>
				</g>
			</g>
		</g>
		<g>
			<g>
				
					<line fill="none" stroke="#005695" stroke-width="2" stroke-miterlimit="1" x1="62.381" y1="258.512" x2="83.044" y2="258.512"/>
				<g>
					<polygon fill="#005695" points="81.458,260.836 90.131,258.512 81.458,256.188 					"/>
				</g>
			</g>
		</g>
		<g>
			<g>
				
					<line fill="none" stroke="#005695" stroke-width="2" stroke-miterlimit="1" x1="120.391" y1="258.512" x2="131.304" y2="258.512"/>
				<g>
					<polygon fill="#005695" points="129.718,260.836 138.391,258.512 129.718,256.188 					"/>
				</g>
			</g>
		</g>
		
			<rect x="90.237" y="247.512" fill="#CCDEF0" stroke="#010101" stroke-width="0.75" stroke-linecap="round" stroke-linejoin="round" stroke-miterlimit="1" width="30" height="22"/>
		<g>
			<text transform="matrix(1 0 0 1 93.5669 260.1738)" font-size="6">VOI LUT</text>
		</g>
		<g>
			<g>
				
					<line fill="none" stroke="#005695" stroke-width="2" stroke-miterlimit="1" x1="178.406" y1="258.512" x2="189.318" y2="258.512"/>
				<g>
					<polygon fill="#005695" points="187.733,260.836 196.406,258.512 187.733,256.188 					"/>
				</g>
			</g>
		</g>
		<g>
			<g>
				
					<line fill="none" stroke="#005695" stroke-width="2" stroke-miterlimit="1" x1="226.666" y1="258.512" x2="237.578" y2="258.512"/>
				<g>
					<polygon fill="#005695" points="235.993,260.836 244.666,258.512 235.993,256.188 					"/>
				</g>
			</g>
		</g>
		
			<rect x="196.636" y="247.512" fill="#CCDEF0" stroke="#010101" stroke-width="0.75" stroke-linecap="round" stroke-linejoin="round" stroke-miterlimit="1" width="30" height="22"/>
		<g>
			<text transform="matrix(1 0 0 1 199.4609 260.1738)" font-size="6">Cropping</text>
		</g>
		<g>
			<g>
				
					<line fill="none" stroke="#005695" stroke-width="2" stroke-miterlimit="1" x1="275.262" y1="258.512" x2="286.174" y2="258.512"/>
				<g>
					<polygon fill="#005695" points="284.589,260.836 293.262,258.512 284.589,256.188 					"/>
				</g>
			</g>
		</g>
		<g>
			<g>
				
					<line fill="none" stroke="#005695" stroke-width="2" stroke-miterlimit="1" x1="392.766" y1="186.721" x2="409.678" y2="186.721"/>
				<g>
					<polygon fill="#005695" points="408.093,189.045 416.766,186.721 408.093,184.396 					"/>
				</g>
			</g>
		</g>
		<g>
			<text transform="matrix(1 0 0 1 450.0708 184.252)" font-size="6">PCS</text>
		</g>
		<g>
			<g>
				
					<line fill="none" stroke="#005695" stroke-width="2" stroke-miterlimit="1" x1="447.266" y1="186.721" x2="466.178" y2="186.721"/>
				<g>
					<polygon fill="#005695" points="464.593,189.045 473.266,186.721 464.593,184.396 					"/>
				</g>
			</g>
		</g>
		
			<rect x="244.95" y="247.512" fill="#CCDEF0" stroke="#010101" stroke-width="0.75" stroke-linecap="round" stroke-linejoin="round" stroke-miterlimit="1" width="30" height="22"/>
		<g>
			<text transform="matrix(1 0 0 1 253.2817 260.1738)" font-size="6">MPR</text>
		</g>
		
			<rect x="138.362" y="247.512" fill="#CCDEF0" stroke="#010101" stroke-width="0.75" stroke-linecap="round" stroke-linejoin="round" stroke-miterlimit="1" width="40" height="22"/>
		<g>
			<text transform="matrix(1 0 0 1 149.1895 257.4287)"><tspan x="0" y="0" font-size="6">Spatial</tspan><tspan x="-6.835" y="5.491" font-size="6">Registration</tspan></text>
		</g>
		<g>
			<text transform="matrix(1 0 0 1 22.4844 260.1738)" font-size="6">Lung Volume</text>
		</g>
		<g>
			<text transform="matrix(1 0 0 1 22.4844 286.1504)"><tspan x="0" y="0" font-size="6">Small Nodule Segmentation</tspan><tspan x="16.518" y="5.491" font-size="6">MPR Geometry</tspan></text>
		</g>
		<g>
			<g>
				
					<line fill="none" stroke="#005695" stroke-width="2" stroke-miterlimit="1" x1="226.666" y1="205.484" x2="237.578" y2="205.484"/>
				<g>
					<polygon fill="#005695" points="235.993,207.809 244.666,205.484 235.993,203.16 					"/>
				</g>
			</g>
		</g>
		
			<rect x="196.636" y="194.484" fill="#CCDEF0" stroke="#010101" stroke-width="0.75" stroke-linecap="round" stroke-linejoin="round" stroke-miterlimit="1" width="30" height="22"/>
		<g>
			<text transform="matrix(1 0 0 1 199.4609 207.1445)" font-size="6">Cropping</text>
		</g>
		<g>
			<g>
				<polyline fill="none" stroke="#000000" stroke-width="0.5" stroke-miterlimit="1" points="106.055,231.988 212.47,231.988 
					212.47,220.028 				"/>
				<g>
					<polygon points="213.632,220.82 212.47,216.484 211.308,220.82 					"/>
				</g>
			</g>
		</g>
		<g>
			<g>
				<polyline fill="none" stroke="#000000" stroke-width="0.5" stroke-miterlimit="1" points="212.47,231.988 260.782,231.988 
					260.782,220.028 				"/>
				<g>
					<polygon points="261.944,220.82 260.782,216.484 259.62,220.82 					"/>
				</g>
			</g>
		</g>
		<g>
			<g>
				
					<line fill="none" stroke="#005695" stroke-width="2" stroke-miterlimit="1" x1="63.214" y1="205.484" x2="83.877" y2="205.484"/>
				<g>
					<polygon fill="#005695" points="82.292,207.809 90.964,205.484 82.292,203.16 					"/>
				</g>
			</g>
		</g>
		<g>
			<g>
				
					<line fill="none" stroke="#005695" stroke-width="2" stroke-miterlimit="1" x1="121.224" y1="205.484" x2="132.137" y2="205.484"/>
				<g>
					<polygon fill="#005695" points="130.551,207.809 139.224,205.484 130.551,203.16 					"/>
				</g>
			</g>
		</g>
		
			<rect x="91.071" y="194.484" fill="#CCDEF0" stroke="#010101" stroke-width="0.75" stroke-linecap="round" stroke-linejoin="round" stroke-miterlimit="1" width="30" height="22"/>
		<g>
			<text transform="matrix(1 0 0 1 94.4004 207.1445)" font-size="6">VOI LUT</text>
		</g>
		<g>
			<g>
				
					<line fill="none" stroke="#005695" stroke-width="2" stroke-miterlimit="1" x1="179.239" y1="205.484" x2="190.151" y2="205.484"/>
				<g>
					<polygon fill="#005695" points="188.566,207.809 197.239,205.484 188.566,203.16 					"/>
				</g>
			</g>
		</g>
		<g>
			<g>
				
					<line fill="none" stroke="#005695" stroke-width="2" stroke-miterlimit="1" x1="276.096" y1="205.484" x2="287.008" y2="205.484"/>
				<g>
					<polygon fill="#005695" points="285.423,207.809 294.096,205.484 285.423,203.16 					"/>
				</g>
			</g>
		</g>
		
			<rect x="245.783" y="194.484" fill="#CCDEF0" stroke="#010101" stroke-width="0.75" stroke-linecap="round" stroke-linejoin="round" stroke-miterlimit="1" width="29.999" height="22"/>
		<g>
			<text transform="matrix(1 0 0 1 254.1157 207.1445)" font-size="6">MPR</text>
		</g>
		
			<rect x="139.196" y="194.484" fill="#CCDEF0" stroke="#010101" stroke-width="0.75" stroke-linecap="round" stroke-linejoin="round" stroke-miterlimit="1" width="40" height="22"/>
		<g>
			<text transform="matrix(1 0 0 1 150.0229 204.4004)"><tspan x="0" y="0" font-size="6">Spatial</tspan><tspan x="-6.835" y="5.49" font-size="6">Registration</tspan></text>
		</g>
		<g>
			<text transform="matrix(1 0 0 1 22.4844 207.1445)" font-size="6">Lung Volume</text>
		</g>
		<g>
			<text transform="matrix(1 0 0 1 22.4844 233.3721)"><tspan x="0" y="0" font-size="6">Medium Nodule Segmentation</tspan><tspan x="19.686" y="5.491" font-size="6">MPR Geometry</tspan></text>
		</g>
		<g>
			<text transform="matrix(1 0 0 1 371.5972 185.6367)"><tspan x="0" y="0" font-size="6">PCS</tspan><tspan x="-7.5" y="5.49" font-size="6">Transform</tspan></text>
		</g>
	</g>
</g>
</svg>
