<?xml version="1.0" encoding="utf-8"?>

<!DOCTYPE svg PUBLIC "-//W3C//DTD SVG 1.1//EN" "http://www.w3.org/Graphics/SVG/1.1/DTD/svg11.dtd">
<svg version="1.1" id="Layer_1" xmlns="http://www.w3.org/2000/svg" xmlns:xlink="http://www.w3.org/1999/xlink" x="0px" y="0px"
	 width="552px" height="767px" viewBox="0 0 552 767" enable-background="new 0 0 552 767" xml:space="preserve">

<defs>
	<style type="text/css">
	text {
	  font-family: Helvetica, Verdana, ArialUnicodeMS, san-serif
	}
	</style>
</defs>

<g>
   <desc>
	PS 3.17 Part 17: Explanatory Information
   </desc>
</g>

<g>
	<rect x="1" y="1" fill="#F5EED6" width="550" height="765"/>
	<g>
		<rect x="348.562" y="44.256" fill="none" width="157.383" height="218.646"/>
		<text transform="matrix(0.9288 0 0 1 348.5615 49.9795)"><tspan x="0" y="0" font-size="8">Frame “1” of the X-Ray 3D</tspan><tspan x="0" y="42" font-size="8">= 1</tspan><tspan x="0" y="84" font-size="8">= 1st frame of source of cardiac phase A</tspan><tspan x="0" y="98" font-size="8">= 1st frame of source of cardiac phase A</tspan><tspan x="0" y="112" font-size="8">= END_SYSTOLE</tspan><tspan x="0" y="126" font-size="8">= 1\1</tspan><tspan x="0" y="140" font-size="8">= 1</tspan><tspan x="0" y="154" font-size="8">= 1</tspan><tspan x="0" y="196" font-size="8">= 0.0</tspan><tspan x="0" y="210" font-size="8">= 0.0</tspan></text>
		<rect x="348.562" y="281.488" fill="none" width="157.383" height="218.646"/>
		<text transform="matrix(0.9288 0 0 1 348.5615 287.2119)"><tspan x="0" y="0" font-size="8">Frame “2” of the X-Ray 3D</tspan><tspan x="0" y="42" font-size="8">= 1</tspan><tspan x="0" y="84" font-size="8">= 1st frame of source of cardiac phase A</tspan><tspan x="0" y="98" font-size="8">= 1st frame of source of cardiac phase A</tspan><tspan x="0" y="112" font-size="8">= END_SYSTOLE</tspan><tspan x="0" y="126" font-size="8">= 1\2</tspan><tspan x="0" y="140" font-size="8">= 1</tspan><tspan x="0" y="154" font-size="8">= 2</tspan><tspan x="0" y="196" font-size="8">= 0.0</tspan><tspan x="0" y="210" font-size="8">= 0.0</tspan></text>
		<rect x="348.562" y="518.721" fill="none" width="157.383" height="218.646"/>
		<text transform="matrix(0.9288 0 0 1 348.5615 524.4443)"><tspan x="0" y="0" font-size="8">Frame “257” of the X-Ray 3D</tspan><tspan x="0" y="42" font-size="8">= 2</tspan><tspan x="0" y="84" font-size="8">= 1st frame of source of cardiac phase B</tspan><tspan x="0" y="98" font-size="8">= 1st frame of source of cardiac phase B</tspan><tspan x="0" y="112" font-size="8">= UNDETERMINED</tspan><tspan x="0" y="126" font-size="8">= 2\1</tspan><tspan x="0" y="140" font-size="8">= 1</tspan><tspan x="0" y="154" font-size="8">= 1</tspan><tspan x="0" y="196" font-size="8">= 12.5</tspan><tspan x="0" y="210" font-size="8">= 0.125</tspan></text>
		<rect x="48.51" y="680.038" fill="none" width="127.731" height="7.721"/>
		<text transform="matrix(0.9288 0 0 1 48.5146 685.7383)" font-size="8">...</text>
		
			<rect x="46.056" y="25.671" fill="#B2CEE7" stroke="#010101" stroke-width="0.75" stroke-linecap="round" stroke-linejoin="round" stroke-miterlimit="1" width="286.332" height="725.695"/>
		
			<rect x="62.813" y="39.669" fill="#86B2D8" stroke="#010101" stroke-width="0.75" stroke-linecap="round" stroke-linejoin="round" stroke-miterlimit="1" width="269.574" height="237.232"/>
		<rect x="50.195" y="15.634" fill="none" width="127.731" height="7.721"/>
		<text transform="matrix(0.9288 0 0 1 50.1953 21.3604)" font-size="8">...</text>
		<rect x="50.195" y="29.144" fill="none" width="164.911" height="7.717"/>
		<text transform="matrix(0.9288 0 0 1 50.1953 34.8691)" font-size="8">Per-Frame Functional Groups Sequence</text>
		
			<rect x="79.594" y="262.901" fill="#FFFFFF" stroke="#010101" stroke-width="0.75" stroke-linecap="round" stroke-linejoin="round" stroke-miterlimit="1" width="252.778" height="14"/>
		<rect x="83.72" y="266.073" fill="none" width="189.98" height="7.717"/>
		<text transform="matrix(0.9288 0 0 1 83.7197 271.7969)" font-size="8">...</text>
		
			<rect x="79.368" y="94.888" fill="#FFFFFF" stroke="#010101" stroke-width="0.75" stroke-linecap="round" stroke-linejoin="round" stroke-miterlimit="1" width="252.762" height="112.074"/>
		<rect x="65.725" y="44.256" fill="none" width="127.731" height="7.721"/>
		<text transform="matrix(0.9288 0 0 1 65.7251 49.9795)" font-size="8">Item 1</text>
		
			<rect x="79.627" y="52.935" fill="#FFFFFF" stroke="#010101" stroke-width="0.75" stroke-linecap="round" stroke-linejoin="round" stroke-miterlimit="1" width="252.761" height="41.953"/>
		
			<rect x="79.626" y="94.888" fill="#FFFFFF" stroke="#010101" stroke-width="0.75" stroke-linecap="round" stroke-linejoin="round" stroke-miterlimit="1" width="252.762" height="112.074"/>
		
			<rect x="91.327" y="108.935" fill="#86B2D8" stroke="#010101" stroke-width="0.75" stroke-linecap="round" stroke-linejoin="round" stroke-miterlimit="1" width="241.061" height="98.027"/>
		
			<rect x="104.031" y="122.888" fill="#FFFFFF" stroke="#010101" stroke-width="0.75" stroke-linecap="round" stroke-linejoin="round" stroke-miterlimit="1" width="228.356" height="13.953"/>
		<rect x="83.495" y="99.116" fill="none" width="170.795" height="7.717"/>
		<text transform="matrix(0.9288 0 0 1 83.4946 104.8398)" font-size="8">&gt;Frame Content Sequence</text>
		<rect x="286.888" y="99.117" fill="none" width="44.984" height="7.716"/>
		<text transform="matrix(0.9288 0 0 1 286.8691 104.8184)" font-size="8">(0020,9111)</text>
		<rect x="94.661" y="113.632" fill="none" width="108.836" height="7.717"/>
		<text transform="matrix(0.9288 0 0 1 94.6606 119.3555)" font-size="8">Item 1</text>
		<rect x="107.741" y="127.548" fill="none" width="136.596" height="7.717"/>
		<text transform="matrix(0.9288 0 0 1 107.7407 133.2715)" font-size="8">&gt;&gt;Frame Reference DateTime</text>
		<rect x="287.29" y="127.548" fill="none" width="44.582" height="7.717"/>
		<text transform="matrix(0.9288 0 0 1 287.2715 133.2476)" font-size="8">(0018,9151)</text>
		
			<rect x="79.618" y="206.995" fill="#FFFFFF" stroke="#010101" stroke-width="0.75" stroke-linecap="round" stroke-linejoin="round" stroke-miterlimit="1" width="252.761" height="55.906"/>
		
			<rect x="91.577" y="221.042" fill="#86B2D8" stroke="#010101" stroke-width="0.75" stroke-linecap="round" stroke-linejoin="round" stroke-miterlimit="1" width="240.819" height="41.859"/>
		
			<rect x="104.281" y="234.995" fill="#FFFFFF" stroke="#010101" stroke-width="0.75" stroke-linecap="round" stroke-linejoin="round" stroke-miterlimit="1" width="228.115" height="13.953"/>
		<rect x="83.744" y="211.224" fill="none" width="170.795" height="7.717"/>
		<text transform="matrix(0.9288 0 0 1 83.7441 216.9473)" font-size="8">&gt;Cardiac Synchronization Sequence</text>
		<rect x="287.137" y="211.225" fill="none" width="44.984" height="7.716"/>
		<text transform="matrix(0.9288 0 0 1 287.1182 216.9258)" font-size="8">(0018,9118)</text>
		<rect x="287.137" y="239.655" fill="none" width="44.984" height="7.716"/>
		<text transform="matrix(0.9288 0 0 1 287.1182 245.3564)" font-size="8">(0020,9241)</text>
		<rect x="94.91" y="225.739" fill="none" width="108.836" height="7.717"/>
		<text transform="matrix(0.9288 0 0 1 94.9102 231.4629)" font-size="8">Item 1</text>
		<rect x="107.99" y="239.655" fill="none" width="136.596" height="7.717"/>
		<text transform="matrix(0.9288 0 0 1 107.9902 245.3789)" font-size="8">&gt;&gt;Nominal Percentage of Cardiac Phase</text>
		
			<rect x="104.281" y="248.948" fill="#FFFFFF" stroke="#010101" stroke-width="0.75" stroke-linecap="round" stroke-linejoin="round" stroke-miterlimit="1" width="228.115" height="13.953"/>
		<rect x="287.137" y="253.608" fill="none" width="44.984" height="7.716"/>
		<text transform="matrix(0.9288 0 0 1 287.1182 259.3096)" font-size="8">(0020,9153)</text>
		<rect x="107.99" y="253.608" fill="none" width="136.596" height="7.717"/>
		<text transform="matrix(0.9288 0 0 1 107.9902 259.332)" font-size="8">&gt;&gt;Nominal Cardiac Trigger Delay Time</text>
		
			<rect x="91.568" y="66.981" fill="#86B2D8" stroke="#010101" stroke-width="0.75" stroke-linecap="round" stroke-linejoin="round" stroke-miterlimit="1" width="240.819" height="27.906"/>
		
			<rect x="104.272" y="80.935" fill="#FFFFFF" stroke="#010101" stroke-width="0.75" stroke-linecap="round" stroke-linejoin="round" stroke-miterlimit="1" width="228.115" height="13.953"/>
		<rect x="83.829" y="57.163" fill="none" width="170.795" height="7.717"/>
		<text transform="matrix(0.9288 0 0 1 83.8291 62.8867)" font-size="8">&gt;X-Ray 3D Frame Type Sequence</text>
		<rect x="287.222" y="57.164" fill="none" width="44.984" height="7.716"/>
		<text transform="matrix(0.9288 0 0 1 287.2031 62.8652)" font-size="8">(0018,9504)</text>
		<rect x="287.222" y="85.595" fill="none" width="44.984" height="7.716"/>
		<text transform="matrix(0.9288 0 0 1 287.2031 91.2959)" font-size="8">(0020,9536)</text>
		<rect x="94.995" y="71.679" fill="none" width="108.836" height="7.717"/>
		<text transform="matrix(0.9288 0 0 1 94.9951 77.4023)" font-size="8">Item 1</text>
		<rect x="108.075" y="85.595" fill="none" width="136.596" height="7.717"/>
		<text transform="matrix(0.9288 0 0 1 108.0752 91.3184)" font-size="8">&gt;&gt;Reconstruction Index</text>
		
			<rect x="104.031" y="150.794" fill="#FFFFFF" stroke="#010101" stroke-width="0.75" stroke-linecap="round" stroke-linejoin="round" stroke-miterlimit="1" width="228.356" height="13.953"/>
		<rect x="286.888" y="155.454" fill="none" width="44.984" height="7.716"/>
		<text transform="matrix(0.9288 0 0 1 286.8691 161.1553)" font-size="8">(0018,9236)</text>
		<rect x="107.741" y="155.454" fill="none" width="136.596" height="7.717"/>
		<text transform="matrix(0.9288 0 0 1 107.7407 161.1777)" font-size="8">&gt;&gt;Cardiac Cycle Position</text>
		
			<rect x="104.031" y="164.925" fill="#FFFFFF" stroke="#010101" stroke-width="0.75" stroke-linecap="round" stroke-linejoin="round" stroke-miterlimit="1" width="228.356" height="13.953"/>
		<rect x="286.888" y="169.585" fill="none" width="44.984" height="7.716"/>
		<text transform="matrix(0.9288 0 0 1 286.8691 175.2861)" font-size="8">(0020,9157)</text>
		<rect x="107.741" y="169.585" fill="none" width="136.596" height="7.717"/>
		<text transform="matrix(0.9288 0 0 1 107.7407 175.3086)" font-size="8">&gt;&gt;Dimension Index Values</text>
		
			<rect x="104.031" y="178.878" fill="#FFFFFF" stroke="#010101" stroke-width="0.75" stroke-linecap="round" stroke-linejoin="round" stroke-miterlimit="1" width="228.356" height="13.953"/>
		<rect x="286.888" y="183.538" fill="none" width="44.984" height="7.716"/>
		<text transform="matrix(0.9288 0 0 1 286.8691 189.2393)" font-size="8">(0020,9056)</text>
		<rect x="107.741" y="183.538" fill="none" width="136.596" height="7.717"/>
		<text transform="matrix(0.9288 0 0 1 107.7407 189.2617)" font-size="8">&gt;&gt;Stack ID</text>
		
			<rect x="104.031" y="193.009" fill="#FFFFFF" stroke="#010101" stroke-width="0.75" stroke-linecap="round" stroke-linejoin="round" stroke-miterlimit="1" width="228.356" height="13.953"/>
		<rect x="286.888" y="197.669" fill="none" width="44.984" height="7.716"/>
		<text transform="matrix(0.9288 0 0 1 286.8691 203.3701)" font-size="8">(0020,9057)</text>
		<rect x="107.741" y="197.669" fill="none" width="136.596" height="7.717"/>
		<text transform="matrix(0.9288 0 0 1 107.7407 203.3926)" font-size="8">&gt;&gt;In-Stack Position Number</text>
		
			<rect x="104.031" y="136.841" fill="#FFFFFF" stroke="#010101" stroke-width="0.75" stroke-linecap="round" stroke-linejoin="round" stroke-miterlimit="1" width="228.356" height="13.953"/>
		<rect x="107.741" y="141.501" fill="none" width="136.596" height="7.717"/>
		<text transform="matrix(0.9288 0 0 1 107.7407 147.2246)" font-size="8">&gt;&gt;Frame Acquisition DateTime</text>
		<rect x="287.29" y="141.501" fill="none" width="44.582" height="7.717"/>
		<text transform="matrix(0.9288 0 0 1 287.2715 147.2007)" font-size="8">(0018,9074)</text>
		
			<rect x="62.813" y="276.901" fill="#86B2D8" stroke="#010101" stroke-width="0.75" stroke-linecap="round" stroke-linejoin="round" stroke-miterlimit="1" width="269.574" height="237.232"/>
		
			<rect x="79.594" y="500.134" fill="#FFFFFF" stroke="#010101" stroke-width="0.75" stroke-linecap="round" stroke-linejoin="round" stroke-miterlimit="1" width="252.778" height="14"/>
		<rect x="83.72" y="503.306" fill="none" width="189.98" height="7.717"/>
		<text transform="matrix(0.9288 0 0 1 83.7197 509.0293)" font-size="8">...</text>
		
			<rect x="79.368" y="332.12" fill="#FFFFFF" stroke="#010101" stroke-width="0.75" stroke-linecap="round" stroke-linejoin="round" stroke-miterlimit="1" width="252.762" height="112.074"/>
		<rect x="65.725" y="281.488" fill="none" width="127.731" height="7.721"/>
		<text transform="matrix(0.9288 0 0 1 65.7251 287.2119)" font-size="8">Item 2</text>
		
			<rect x="79.627" y="290.167" fill="#FFFFFF" stroke="#010101" stroke-width="0.75" stroke-linecap="round" stroke-linejoin="round" stroke-miterlimit="1" width="252.761" height="41.953"/>
		
			<rect x="79.626" y="332.12" fill="#FFFFFF" stroke="#010101" stroke-width="0.75" stroke-linecap="round" stroke-linejoin="round" stroke-miterlimit="1" width="252.762" height="112.074"/>
		
			<rect x="91.327" y="346.167" fill="#86B2D8" stroke="#010101" stroke-width="0.75" stroke-linecap="round" stroke-linejoin="round" stroke-miterlimit="1" width="241.061" height="98.027"/>
		
			<rect x="104.031" y="360.12" fill="#FFFFFF" stroke="#010101" stroke-width="0.75" stroke-linecap="round" stroke-linejoin="round" stroke-miterlimit="1" width="228.356" height="13.953"/>
		<rect x="83.495" y="336.349" fill="none" width="170.795" height="7.717"/>
		<text transform="matrix(0.9288 0 0 1 83.4946 342.0723)" font-size="8">&gt;Frame Content Sequence</text>
		<rect x="286.888" y="336.35" fill="none" width="44.984" height="7.716"/>
		<text transform="matrix(0.9288 0 0 1 286.8691 342.0508)" font-size="8">(0020,9111)</text>
		<rect x="94.661" y="350.864" fill="none" width="108.836" height="7.717"/>
		<text transform="matrix(0.9288 0 0 1 94.6606 356.5879)" font-size="8">Item 1</text>
		<rect x="107.741" y="364.78" fill="none" width="136.596" height="7.717"/>
		<text transform="matrix(0.9288 0 0 1 107.7407 370.5039)" font-size="8">&gt;&gt;Frame Reference DateTime</text>
		<rect x="287.29" y="364.78" fill="none" width="44.582" height="7.717"/>
		<text transform="matrix(0.9288 0 0 1 287.2715 370.48)" font-size="8">(0018,9151)</text>
		
			<rect x="79.618" y="444.228" fill="#FFFFFF" stroke="#010101" stroke-width="0.75" stroke-linecap="round" stroke-linejoin="round" stroke-miterlimit="1" width="252.761" height="55.906"/>
		
			<rect x="91.577" y="458.274" fill="#86B2D8" stroke="#010101" stroke-width="0.75" stroke-linecap="round" stroke-linejoin="round" stroke-miterlimit="1" width="240.819" height="41.859"/>
		
			<rect x="104.281" y="472.228" fill="#FFFFFF" stroke="#010101" stroke-width="0.75" stroke-linecap="round" stroke-linejoin="round" stroke-miterlimit="1" width="228.115" height="13.953"/>
		<rect x="83.744" y="448.456" fill="none" width="170.795" height="7.717"/>
		<text transform="matrix(0.9288 0 0 1 83.7441 454.1797)" font-size="8">&gt;Cardiac Synchronization Sequence</text>
		<rect x="287.137" y="448.457" fill="none" width="44.984" height="7.716"/>
		<text transform="matrix(0.9288 0 0 1 287.1182 454.1582)" font-size="8">(0018,9118)</text>
		<rect x="287.137" y="476.888" fill="none" width="44.984" height="7.716"/>
		<text transform="matrix(0.9288 0 0 1 287.1182 482.5889)" font-size="8">(0020,9241)</text>
		<rect x="94.91" y="462.972" fill="none" width="108.836" height="7.717"/>
		<text transform="matrix(0.9288 0 0 1 94.9102 468.6953)" font-size="8">Item 1</text>
		<rect x="107.99" y="476.888" fill="none" width="136.596" height="7.717"/>
		<text transform="matrix(0.9288 0 0 1 107.9902 482.6113)" font-size="8">&gt;&gt;Nominal Percentage of Cardiac Phase</text>
		
			<rect x="104.281" y="486.181" fill="#FFFFFF" stroke="#010101" stroke-width="0.75" stroke-linecap="round" stroke-linejoin="round" stroke-miterlimit="1" width="228.115" height="13.953"/>
		<rect x="287.137" y="490.841" fill="none" width="44.984" height="7.716"/>
		<text transform="matrix(0.9288 0 0 1 287.1182 496.542)" font-size="8">(0020,9153)</text>
		<rect x="107.99" y="490.841" fill="none" width="136.596" height="7.717"/>
		<text transform="matrix(0.9288 0 0 1 107.9902 496.5645)" font-size="8">&gt;&gt;Nominal Cardiac Trigger Delay Time</text>
		
			<rect x="91.568" y="304.214" fill="#86B2D8" stroke="#010101" stroke-width="0.75" stroke-linecap="round" stroke-linejoin="round" stroke-miterlimit="1" width="240.819" height="27.906"/>
		
			<rect x="104.272" y="318.167" fill="#FFFFFF" stroke="#010101" stroke-width="0.75" stroke-linecap="round" stroke-linejoin="round" stroke-miterlimit="1" width="228.115" height="13.953"/>
		<rect x="83.829" y="294.396" fill="none" width="170.795" height="7.717"/>
		<text transform="matrix(0.9288 0 0 1 83.8291 300.1191)" font-size="8">&gt;X-Ray 3D Frame Type Sequence</text>
		<rect x="287.222" y="294.396" fill="none" width="44.984" height="7.716"/>
		<text transform="matrix(0.9288 0 0 1 287.2031 300.0977)" font-size="8">(0018,9504)</text>
		<rect x="287.222" y="322.827" fill="none" width="44.984" height="7.716"/>
		<text transform="matrix(0.9288 0 0 1 287.2031 328.5283)" font-size="8">(0020,9536)</text>
		<rect x="94.995" y="308.911" fill="none" width="108.836" height="7.717"/>
		<text transform="matrix(0.9288 0 0 1 94.9951 314.6348)" font-size="8">Item 1</text>
		<rect x="108.075" y="322.827" fill="none" width="136.596" height="7.717"/>
		<text transform="matrix(0.9288 0 0 1 108.0752 328.5508)" font-size="8">&gt;&gt;Reconstruction Index</text>
		
			<rect x="104.031" y="388.026" fill="#FFFFFF" stroke="#010101" stroke-width="0.75" stroke-linecap="round" stroke-linejoin="round" stroke-miterlimit="1" width="228.356" height="13.953"/>
		<rect x="286.888" y="392.687" fill="none" width="44.984" height="7.716"/>
		<text transform="matrix(0.9288 0 0 1 286.8691 398.3877)" font-size="8">(0018,9236)</text>
		<rect x="107.741" y="392.687" fill="none" width="136.596" height="7.717"/>
		<text transform="matrix(0.9288 0 0 1 107.7407 398.4102)" font-size="8">&gt;&gt;Cardiac Cycle Position</text>
		
			<rect x="104.031" y="402.157" fill="#FFFFFF" stroke="#010101" stroke-width="0.75" stroke-linecap="round" stroke-linejoin="round" stroke-miterlimit="1" width="228.356" height="13.953"/>
		<rect x="286.888" y="406.817" fill="none" width="44.984" height="7.716"/>
		<text transform="matrix(0.9288 0 0 1 286.8691 412.5186)" font-size="8">(0020,9157)</text>
		<rect x="107.741" y="406.817" fill="none" width="136.596" height="7.717"/>
		<text transform="matrix(0.9288 0 0 1 107.7407 412.541)" font-size="8">&gt;&gt;Dimension Index Values</text>
		
			<rect x="104.031" y="416.11" fill="#FFFFFF" stroke="#010101" stroke-width="0.75" stroke-linecap="round" stroke-linejoin="round" stroke-miterlimit="1" width="228.356" height="13.953"/>
		<rect x="286.888" y="420.771" fill="none" width="44.984" height="7.716"/>
		<text transform="matrix(0.9288 0 0 1 286.8691 426.4717)" font-size="8">(0020,9056)</text>
		<rect x="107.741" y="420.771" fill="none" width="136.596" height="7.717"/>
		<text transform="matrix(0.9288 0 0 1 107.7407 426.4941)" font-size="8">&gt;&gt;Stack ID</text>
		
			<rect x="104.031" y="430.241" fill="#FFFFFF" stroke="#010101" stroke-width="0.75" stroke-linecap="round" stroke-linejoin="round" stroke-miterlimit="1" width="228.356" height="13.953"/>
		<rect x="286.888" y="434.901" fill="none" width="44.984" height="7.716"/>
		<text transform="matrix(0.9288 0 0 1 286.8691 440.6025)" font-size="8">(0020,9057)</text>
		<rect x="107.741" y="434.901" fill="none" width="136.596" height="7.717"/>
		<text transform="matrix(0.9288 0 0 1 107.7407 440.625)" font-size="8">&gt;&gt;In-Stack Position Number</text>
		
			<rect x="104.031" y="374.073" fill="#FFFFFF" stroke="#010101" stroke-width="0.75" stroke-linecap="round" stroke-linejoin="round" stroke-miterlimit="1" width="228.356" height="13.953"/>
		<rect x="107.741" y="378.733" fill="none" width="136.596" height="7.717"/>
		<text transform="matrix(0.9288 0 0 1 107.7407 384.457)" font-size="8">&gt;&gt;Frame Acquisition DateTime</text>
		<rect x="287.29" y="378.733" fill="none" width="44.582" height="7.717"/>
		<text transform="matrix(0.9288 0 0 1 287.2715 384.4336)" font-size="8">(0018,9074)</text>
		
			<rect x="62.813" y="514.134" fill="#86B2D8" stroke="#010101" stroke-width="0.75" stroke-linecap="round" stroke-linejoin="round" stroke-miterlimit="1" width="269.574" height="237.232"/>
		
			<rect x="79.594" y="737.366" fill="#FFFFFF" stroke="#010101" stroke-width="0.75" stroke-linecap="round" stroke-linejoin="round" stroke-miterlimit="1" width="252.778" height="14"/>
		<rect x="83.72" y="740.538" fill="none" width="189.98" height="7.717"/>
		<text transform="matrix(0.9288 0 0 1 83.7197 746.2617)" font-size="8">...</text>
		
			<rect x="79.368" y="569.353" fill="#FFFFFF" stroke="#010101" stroke-width="0.75" stroke-linecap="round" stroke-linejoin="round" stroke-miterlimit="1" width="252.762" height="112.074"/>
		<rect x="65.725" y="518.721" fill="none" width="127.731" height="7.721"/>
		<text transform="matrix(0.9288 0 0 1 65.7251 524.4443)" font-size="8">Item 257</text>
		
			<rect x="79.627" y="527.399" fill="#FFFFFF" stroke="#010101" stroke-width="0.75" stroke-linecap="round" stroke-linejoin="round" stroke-miterlimit="1" width="252.761" height="41.953"/>
		
			<rect x="79.626" y="569.353" fill="#FFFFFF" stroke="#010101" stroke-width="0.75" stroke-linecap="round" stroke-linejoin="round" stroke-miterlimit="1" width="252.762" height="112.074"/>
		
			<rect x="91.327" y="583.399" fill="#86B2D8" stroke="#010101" stroke-width="0.75" stroke-linecap="round" stroke-linejoin="round" stroke-miterlimit="1" width="241.061" height="98.027"/>
		
			<rect x="104.031" y="597.353" fill="#FFFFFF" stroke="#010101" stroke-width="0.75" stroke-linecap="round" stroke-linejoin="round" stroke-miterlimit="1" width="228.356" height="13.953"/>
		<rect x="83.495" y="573.581" fill="none" width="170.795" height="7.717"/>
		<text transform="matrix(0.9288 0 0 1 83.4946 579.3047)" font-size="8">&gt;Frame Content Sequence</text>
		<rect x="286.888" y="573.582" fill="none" width="44.984" height="7.716"/>
		<text transform="matrix(0.9288 0 0 1 286.8691 579.2832)" font-size="8">(0020,9111)</text>
		<rect x="94.661" y="588.097" fill="none" width="108.836" height="7.717"/>
		<text transform="matrix(0.9288 0 0 1 94.6606 593.8203)" font-size="8">Item 1</text>
		<rect x="107.741" y="602.013" fill="none" width="136.596" height="7.717"/>
		<text transform="matrix(0.9288 0 0 1 107.7407 607.7363)" font-size="8">&gt;&gt;Frame Reference DateTime</text>
		<rect x="287.29" y="602.013" fill="none" width="44.582" height="7.717"/>
		<text transform="matrix(0.9288 0 0 1 287.2715 607.7129)" font-size="8">(0018,9151)</text>
		
			<rect x="79.618" y="681.46" fill="#FFFFFF" stroke="#010101" stroke-width="0.75" stroke-linecap="round" stroke-linejoin="round" stroke-miterlimit="1" width="252.761" height="55.906"/>
		
			<rect x="91.577" y="695.507" fill="#86B2D8" stroke="#010101" stroke-width="0.75" stroke-linecap="round" stroke-linejoin="round" stroke-miterlimit="1" width="240.819" height="41.859"/>
		
			<rect x="104.281" y="709.46" fill="#FFFFFF" stroke="#010101" stroke-width="0.75" stroke-linecap="round" stroke-linejoin="round" stroke-miterlimit="1" width="228.115" height="13.953"/>
		<rect x="83.744" y="685.688" fill="none" width="170.795" height="7.717"/>
		<text transform="matrix(0.9288 0 0 1 83.7441 691.4121)" font-size="8">&gt;Cardiac Synchronization Sequence</text>
		<rect x="287.137" y="685.689" fill="none" width="44.984" height="7.716"/>
		<text transform="matrix(0.9288 0 0 1 287.1182 691.3906)" font-size="8">(0018,9118)</text>
		<rect x="287.137" y="714.12" fill="none" width="44.984" height="7.716"/>
		<text transform="matrix(0.9288 0 0 1 287.1182 719.8213)" font-size="8">(0020,9241)</text>
		<rect x="94.91" y="700.204" fill="none" width="108.836" height="7.717"/>
		<text transform="matrix(0.9288 0 0 1 94.9102 705.9277)" font-size="8">Item 1</text>
		<rect x="107.99" y="714.12" fill="none" width="136.596" height="7.717"/>
		<text transform="matrix(0.9288 0 0 1 107.9902 719.8438)" font-size="8">&gt;&gt;Nominal Percentage of Cardiac Phase</text>
		
			<rect x="104.281" y="723.413" fill="#FFFFFF" stroke="#010101" stroke-width="0.75" stroke-linecap="round" stroke-linejoin="round" stroke-miterlimit="1" width="228.115" height="13.953"/>
		<rect x="287.137" y="728.073" fill="none" width="44.984" height="7.716"/>
		<text transform="matrix(0.9288 0 0 1 287.1182 733.7744)" font-size="8">(0020,9153)</text>
		<rect x="107.99" y="728.073" fill="none" width="136.596" height="7.717"/>
		<text transform="matrix(0.9288 0 0 1 107.9902 733.7969)" font-size="8">&gt;&gt;Nominal Cardiac Trigger Delay Time</text>
		
			<rect x="91.568" y="541.446" fill="#86B2D8" stroke="#010101" stroke-width="0.75" stroke-linecap="round" stroke-linejoin="round" stroke-miterlimit="1" width="240.819" height="27.906"/>
		
			<rect x="104.272" y="555.399" fill="#FFFFFF" stroke="#010101" stroke-width="0.75" stroke-linecap="round" stroke-linejoin="round" stroke-miterlimit="1" width="228.115" height="13.953"/>
		<rect x="83.829" y="531.628" fill="none" width="170.795" height="7.717"/>
		<text transform="matrix(0.9288 0 0 1 83.8291 537.3516)" font-size="8">&gt;X-Ray 3D Frame Type Sequence</text>
		<rect x="287.222" y="531.629" fill="none" width="44.984" height="7.716"/>
		<text transform="matrix(0.9288 0 0 1 287.2031 537.3301)" font-size="8">(0018,9504)</text>
		<rect x="287.222" y="560.06" fill="none" width="44.984" height="7.716"/>
		<text transform="matrix(0.9288 0 0 1 287.2031 565.7607)" font-size="8">(0020,9536)</text>
		<rect x="94.995" y="546.144" fill="none" width="108.836" height="7.717"/>
		<text transform="matrix(0.9288 0 0 1 94.9951 551.8672)" font-size="8">Item 1</text>
		<rect x="108.075" y="560.06" fill="none" width="136.596" height="7.717"/>
		<text transform="matrix(0.9288 0 0 1 108.0752 565.7832)" font-size="8">&gt;&gt;Reconstruction Index</text>
		
			<rect x="104.031" y="625.259" fill="#FFFFFF" stroke="#010101" stroke-width="0.75" stroke-linecap="round" stroke-linejoin="round" stroke-miterlimit="1" width="228.356" height="13.953"/>
		<rect x="286.888" y="629.919" fill="none" width="44.984" height="7.716"/>
		<text transform="matrix(0.9288 0 0 1 286.8691 635.6201)" font-size="8">(0018,9236)</text>
		<rect x="107.741" y="629.919" fill="none" width="136.596" height="7.717"/>
		<text transform="matrix(0.9288 0 0 1 107.7407 635.6426)" font-size="8">&gt;&gt;Cardiac Cycle Position</text>
		
			<rect x="104.031" y="639.39" fill="#FFFFFF" stroke="#010101" stroke-width="0.75" stroke-linecap="round" stroke-linejoin="round" stroke-miterlimit="1" width="228.356" height="13.953"/>
		<rect x="286.888" y="644.05" fill="none" width="44.984" height="7.716"/>
		<text transform="matrix(0.9288 0 0 1 286.8691 649.751)" font-size="8">(0020,9157)</text>
		<rect x="107.741" y="644.05" fill="none" width="136.596" height="7.717"/>
		<text transform="matrix(0.9288 0 0 1 107.7407 649.7734)" font-size="8">&gt;&gt;Dimension Index Values</text>
		
			<rect x="104.031" y="653.343" fill="#FFFFFF" stroke="#010101" stroke-width="0.75" stroke-linecap="round" stroke-linejoin="round" stroke-miterlimit="1" width="228.356" height="13.953"/>
		<rect x="286.888" y="658.003" fill="none" width="44.984" height="7.716"/>
		<text transform="matrix(0.9288 0 0 1 286.8691 663.7041)" font-size="8">(0020,9056)</text>
		<rect x="107.741" y="658.003" fill="none" width="136.596" height="7.717"/>
		<text transform="matrix(0.9288 0 0 1 107.7407 663.7266)" font-size="8">&gt;&gt;Stack ID</text>
		
			<rect x="104.031" y="667.474" fill="#FFFFFF" stroke="#010101" stroke-width="0.75" stroke-linecap="round" stroke-linejoin="round" stroke-miterlimit="1" width="228.356" height="13.953"/>
		<rect x="286.888" y="672.134" fill="none" width="44.984" height="7.716"/>
		<text transform="matrix(0.9288 0 0 1 286.8691 677.835)" font-size="8">(0020,9057)</text>
		<rect x="107.741" y="672.134" fill="none" width="136.596" height="7.717"/>
		<text transform="matrix(0.9288 0 0 1 107.7407 677.8574)" font-size="8">&gt;&gt;In-Stack Position Number</text>
		
			<rect x="104.031" y="611.306" fill="#FFFFFF" stroke="#010101" stroke-width="0.75" stroke-linecap="round" stroke-linejoin="round" stroke-miterlimit="1" width="228.356" height="13.953"/>
		<rect x="107.741" y="615.966" fill="none" width="136.596" height="7.717"/>
		<text transform="matrix(0.9288 0 0 1 107.7407 621.6895)" font-size="8">&gt;&gt;Frame Acquisition DateTime</text>
		<rect x="287.29" y="615.966" fill="none" width="44.582" height="7.717"/>
		<text transform="matrix(0.9288 0 0 1 287.2715 621.666)" font-size="8">(0018,9074)</text>
	</g>
</g>
</svg>
