<?xml version="1.0" encoding="utf-8"?>

<!DOCTYPE svg PUBLIC "-//W3C//DTD SVG 1.1//EN" "http://www.w3.org/Graphics/SVG/1.1/DTD/svg11.dtd">
<svg version="1.1" id="Layer_1" xmlns="http://www.w3.org/2000/svg" xmlns:xlink="http://www.w3.org/1999/xlink" x="0px" y="0px"
	 width="552px" height="222px" viewBox="0 0 552 222" enable-background="new 0 0 552 222" xml:space="preserve">
<g>
	<rect x="1" y="1" fill="#F5EED6" width="550" height="220"/>
	<g>
		<g>
			<g>
				
					<line fill="none" stroke="#005695" stroke-width="2" stroke-miterlimit="1" x1="263.117" y1="196.453" x2="274.03" y2="196.453"/>
				<g>
					<polygon fill="#005695" points="272.444,198.777 281.117,196.453 272.444,194.129 					"/>
				</g>
			</g>
		</g>
		
			<rect x="233.088" y="185.453" fill="#CCDEF0" stroke="#010101" stroke-width="0.75" stroke-linecap="round" stroke-linejoin="round" stroke-miterlimit="1" width="30" height="22"/>
		<g>
			<text transform="matrix(1 0 0 1 235.9126 198.1152)" font-size="6">Cropping</text>
		</g>
		<g>
			<g>
				
					<line fill="none" stroke="#005695" stroke-width="2" stroke-miterlimit="1" x1="103.416" y1="196.453" x2="120.329" y2="196.453"/>
				<g>
					<polygon fill="#005695" points="118.743,198.777 127.416,196.453 118.743,194.129 					"/>
				</g>
			</g>
		</g>
		<g>
			<g>
				
					<line fill="none" stroke="#005695" stroke-width="2" stroke-miterlimit="1" x1="157.676" y1="196.453" x2="168.588" y2="196.453"/>
				<g>
					<polygon fill="#005695" points="167.003,198.777 175.676,196.453 167.003,194.129 					"/>
				</g>
			</g>
		</g>
		
			<rect x="127.522" y="185.453" fill="#CCDEF0" stroke="#010101" stroke-width="0.75" stroke-linecap="round" stroke-linejoin="round" stroke-miterlimit="1" width="30" height="22"/>
		<g>
			<text transform="matrix(1 0 0 1 130.8521 198.1152)" font-size="6">VOI LUT</text>
		</g>
		<g>
			<g>
				
					<line fill="none" stroke="#005695" stroke-width="2" stroke-miterlimit="1" x1="215.69" y1="196.453" x2="226.603" y2="196.453"/>
				<g>
					<polygon fill="#005695" points="225.018,198.777 233.69,196.453 225.018,194.129 					"/>
				</g>
			</g>
		</g>
		<g>
			<g>
				
					<line fill="none" stroke="#005695" stroke-width="2" stroke-miterlimit="1" x1="312.548" y1="196.453" x2="323.46" y2="196.453"/>
				<g>
					<polygon fill="#005695" points="321.875,198.777 330.548,196.453 321.875,194.129 					"/>
				</g>
			</g>
		</g>
		
			<rect x="282.234" y="185.453" fill="#CCDEF0" stroke="#010101" stroke-width="0.75" stroke-linecap="round" stroke-linejoin="round" stroke-miterlimit="1" width="29.999" height="22"/>
		<g>
			<text transform="matrix(1 0 0 1 290.5674 198.1152)" font-size="6">MPR</text>
		</g>
		
			<rect x="175.647" y="185.453" fill="#CCDEF0" stroke="#010101" stroke-width="0.75" stroke-linecap="round" stroke-linejoin="round" stroke-miterlimit="1" width="40" height="22"/>
		<g>
			<text transform="matrix(1 0 0 1 186.4746 195.3691)"><tspan x="0" y="0" font-size="6">Spatial</tspan><tspan x="-6.835" y="5.491" font-size="6">Registration</tspan></text>
		</g>
		<g>
			<text transform="matrix(1 0 0 1 74.8677 197.8652)" font-size="6">PET Data</text>
		</g>
		<g>
			<g>
				
					<line fill="none" stroke="#005695" stroke-width="2" stroke-miterlimit="1" x1="263.117" y1="100.619" x2="274.03" y2="100.619"/>
				<g>
					<polygon fill="#005695" points="272.444,102.943 281.117,100.619 272.444,98.295 					"/>
				</g>
			</g>
		</g>
		
			<rect x="233.088" y="89.62" fill="#CCDEF0" stroke="#010101" stroke-width="0.75" stroke-linecap="round" stroke-linejoin="round" stroke-miterlimit="1" width="30" height="22"/>
		<g>
			<text transform="matrix(1 0 0 1 235.9126 102.2812)" font-size="6">Cropping</text>
		</g>
		<g>
			<g>
				<polyline fill="none" stroke="#000000" stroke-width="0.5" stroke-miterlimit="1" points="104.003,149.332 297.484,149.332 
					297.484,115.162 				"/>
				<g>
					<polygon points="298.646,115.954 297.484,111.618 296.322,115.954 					"/>
				</g>
			</g>
		</g>
		<g>
			<g>
				<polyline fill="none" stroke="#000000" stroke-width="0.5" stroke-miterlimit="1" points="104.003,149.271 297.484,149.271 
					297.484,181.126 				"/>
				<g>
					<polygon points="296.322,180.334 297.484,184.67 298.646,180.334 					"/>
				</g>
			</g>
		</g>
		<g>
			<g>
				
					<line fill="none" stroke="#005695" stroke-width="2" stroke-miterlimit="1" x1="103.416" y1="100.619" x2="120.329" y2="100.619"/>
				<g>
					<polygon fill="#005695" points="118.743,102.943 127.416,100.619 118.743,98.295 					"/>
				</g>
			</g>
		</g>
		<g>
			<g>
				
					<line fill="none" stroke="#005695" stroke-width="2" stroke-miterlimit="1" x1="157.676" y1="100.619" x2="168.588" y2="100.619"/>
				<g>
					<polygon fill="#005695" points="167.003,102.943 175.676,100.619 167.003,98.295 					"/>
				</g>
			</g>
		</g>
		
			<rect x="127.522" y="89.62" fill="#CCDEF0" stroke="#010101" stroke-width="0.75" stroke-linecap="round" stroke-linejoin="round" stroke-miterlimit="1" width="30" height="22"/>
		<g>
			<text transform="matrix(1 0 0 1 130.8521 102.2812)" font-size="6">VOI LUT</text>
		</g>
		<g>
			<g>
				
					<line fill="none" stroke="#005695" stroke-width="2" stroke-miterlimit="1" x1="215.69" y1="100.619" x2="226.603" y2="100.619"/>
				<g>
					<polygon fill="#005695" points="225.018,102.943 233.69,100.619 225.018,98.295 					"/>
				</g>
			</g>
		</g>
		<g>
			<g>
				
					<line fill="none" stroke="#005695" stroke-width="2" stroke-miterlimit="1" x1="312.548" y1="100.619" x2="323.46" y2="100.619"/>
				<g>
					<polygon fill="#005695" points="321.875,102.943 330.548,100.619 321.875,98.295 					"/>
				</g>
			</g>
		</g>
		
			<rect x="282.234" y="89.62" fill="#CCDEF0" stroke="#010101" stroke-width="0.75" stroke-linecap="round" stroke-linejoin="round" stroke-miterlimit="1" width="29.999" height="22"/>
		<g>
			<text transform="matrix(1 0 0 1 290.5674 102.2812)" font-size="6">MPR</text>
		</g>
		
			<rect x="175.647" y="89.62" fill="#CCDEF0" stroke="#010101" stroke-width="0.75" stroke-linecap="round" stroke-linejoin="round" stroke-miterlimit="1" width="40" height="22"/>
		<g>
			<text transform="matrix(1 0 0 1 186.4746 99.5361)"><tspan x="0" y="0" font-size="6">Spatial</tspan><tspan x="-6.835" y="5.491" font-size="6">Registration</tspan></text>
		</g>
		<g>
			<text transform="matrix(1 0 0 1 78.5386 102.0312)" font-size="6">CT Data</text>
		</g>
		<g>
			<text transform="matrix(1 0 0 1 59.5366 150.7637)" font-size="6">MPR Geometry</text>
		</g>
		<g>
			<g>
				<polyline fill="none" stroke="#000000" stroke-width="0.5" stroke-miterlimit="1" points="461.99,134.007 461.99,63.072 
					422.053,63.072 				"/>
				<g>
					<polygon points="463.152,133.215 461.99,137.551 460.828,133.215 					"/>
				</g>
			</g>
		</g>
		<g>
			<g>
				
					<line fill="none" stroke="#000000" stroke-width="0.5" stroke-miterlimit="1" x1="277.963" y1="25.547" x2="104.003" y2="25.547"/>
				<g>
					<polygon points="277.171,24.385 281.507,25.547 277.171,26.709 					"/>
				</g>
			</g>
		</g>
		<g>
			<g>
				<polyline fill="none" stroke="#000000" stroke-width="0.5" stroke-miterlimit="1" points="476.99,134.007 476.99,25.547 
					312.645,25.547 				"/>
				<g>
					<polygon points="478.152,133.215 476.99,137.551 475.828,133.215 					"/>
				</g>
			</g>
		</g>
		
			<rect x="282.174" y="14.547" fill="#CCDEF0" stroke="#010101" stroke-width="0.75" stroke-linecap="round" stroke-linejoin="round" stroke-miterlimit="1" width="30" height="22"/>
		<g>
			<text transform="matrix(1 0 0 1 284.668 24.4634)"><tspan x="0" y="0" font-size="6">MPR and</tspan><tspan x="-0.835" y="5.491" font-size="6">Projection</tspan></text>
		</g>
		
			<rect x="381.486" y="52.072" fill="#CCDEF0" stroke="#010101" stroke-width="0.75" stroke-linecap="round" stroke-linejoin="round" stroke-miterlimit="1" width="40" height="22"/>
		<g>
			<text transform="matrix(1 0 0 1 390.9834 61.9888)"><tspan x="0" y="0" font-size="6">Graphic</tspan><tspan x="-3.841" y="5.491" font-size="6">Annotation</tspan></text>
		</g>
		<g>
			<text transform="matrix(1 0 0 1 41.5103 26.7056)" font-size="6">Volume graphics input</text>
		</g>
		<g>
			<g>
				
					<line fill="none" stroke="#005695" stroke-width="2" stroke-miterlimit="1" x1="381.486" y1="149.145" x2="392.398" y2="149.145"/>
				<g>
					<polygon fill="#005695" points="390.813,151.469 399.486,149.145 390.813,146.82 					"/>
				</g>
			</g>
		</g>
		<g>
			<g>
				
					<line fill="none" stroke="#005695" stroke-width="2" stroke-miterlimit="1" x1="429.99" y1="149.145" x2="446.902" y2="149.145"/>
				<g>
					<polygon fill="#005695" points="445.317,151.469 453.99,149.145 445.317,146.82 					"/>
				</g>
			</g>
		</g>
		<g>
			<text transform="matrix(1 0 0 1 487.2949 146.6758)" font-size="6">PCS</text>
		</g>
		<g>
			<g>
				
					<line fill="none" stroke="#005695" stroke-width="2" stroke-miterlimit="1" x1="484.49" y1="149.145" x2="503.402" y2="149.145"/>
				<g>
					<polygon fill="#005695" points="501.817,151.469 510.49,149.145 501.817,146.82 					"/>
				</g>
			</g>
		</g>
		
			<rect x="454.49" y="138.145" fill="#CCDEF0" stroke="#010101" stroke-width="0.75" stroke-linecap="round" stroke-linejoin="round" stroke-miterlimit="1" width="30" height="22"/>
		<g>
			<text transform="matrix(1 0 0 1 457.4863 148.0596)"><tspan x="0" y="0" font-size="6">Graphics</tspan><tspan x="4.5" y="5.491" font-size="6">Layer</tspan></text>
		</g>
		
			<rect x="399.99" y="138.145" fill="#CCDEF0" stroke="#010101" stroke-width="0.75" stroke-linecap="round" stroke-linejoin="round" stroke-miterlimit="1" width="30" height="22"/>
		<g>
			<text transform="matrix(1 0 0 1 408.8213 148.0596)"><tspan x="0" y="0" font-size="6">PCS</tspan><tspan x="-7.5" y="5.491" font-size="6">Transform</tspan></text>
		</g>
		
			<rect x="330.486" y="89.62" fill="#CCDEF0" stroke="#010101" stroke-width="0.75" stroke-linecap="round" stroke-linejoin="round" stroke-miterlimit="1" width="51" height="117.833"/>
		<g>
			<text transform="matrix(1 0 0 1 341.8164 145.3145)"><tspan x="0" y="0" font-size="6">Volumetric</tspan><tspan x="-2.674" y="5.491" font-size="6">Presentation</tspan><tspan x="-3.504" y="10.981" font-size="6">State Display</tspan></text>
		</g>
	</g>
</g>
</svg>
