<?xml version="1.0" encoding="utf-8"?>

<!DOCTYPE svg PUBLIC "-//W3C//DTD SVG 1.1//EN" "http://www.w3.org/Graphics/SVG/1.1/DTD/svg11.dtd">
<svg version="1.1" id="Layer_1" xmlns="http://www.w3.org/2000/svg" xmlns:xlink="http://www.w3.org/1999/xlink" x="0px" y="0px"
	 width="502px" height="222px" viewBox="0 0 502 222" enable-background="new 0 0 502 222" xml:space="preserve">

<defs>
	<style type="text/css">
	text {
	  font-family: Helvetica, Verdana, ArialUnicodeMS, san-serif
	}
	</style>
</defs>

<g>
   <desc>
	PS 3.17 Part 17: Explanatory Information
   </desc>
</g>

<g>
	<rect x="1" y="1" fill="#F5EED6" width="500" height="220"/>
	<g>
		
			<line fill="none" stroke="#ED2224" stroke-width="0.5" stroke-linecap="round" stroke-linejoin="round" stroke-miterlimit="10" x1="251" y1="191.995" x2="306.615" y2="134.436"/>
		
			<line fill="none" stroke="#005695" stroke-width="0.5" stroke-linecap="round" stroke-linejoin="round" stroke-miterlimit="10" x1="204.078" y1="70.15" x2="251" y2="193.12"/>
		
			<line fill="none" stroke="#ED2224" stroke-width="0.5" stroke-linecap="round" stroke-linejoin="round" stroke-miterlimit="10" stroke-dasharray="2,1" x1="251" y1="110.229" x2="305.191" y2="120.733"/>
		<path opacity="0.5" fill="#6799C8" d="M163.034,124.947c48.582,8.128,127.35,8.128,175.932,0c48.582-8.129,48.582-21.308,0-29.436
			c-48.582-8.129-127.35-8.129-175.932,0C114.452,103.64,114.452,116.818,163.034,124.947z"/>
		<path opacity="0.5" fill="#B2CEE7" stroke="#000000" stroke-miterlimit="10" d="M333.936,110.229
			c0,3.551-8.098,7.103-24.292,9.812c-32.388,5.419-84.899,5.419-117.287,0c-16.195-2.71-24.292-6.261-24.292-9.812
			c0,45.804,37.132,82.935,82.936,82.935S333.936,156.033,333.936,110.229z"/>
		<g>
			
				<path fill="none" stroke="#666666" stroke-width="0.3188" stroke-linecap="round" stroke-linejoin="round" stroke-miterlimit="10" stroke-dasharray="1.2736,0.9552" d="
				M251,191.996c-32.388,5.458-58.644-26.987-58.644-72.469S218.612,32.752,251,27.294"/>
			
				<path fill="none" stroke="#666666" stroke-width="0.3188" stroke-linecap="round" stroke-linejoin="round" stroke-miterlimit="10" stroke-dasharray="1.2735,0.9551" d="
				M251,191.996c-11.855,7.455-21.465-23.371-21.465-68.853c0-45.48,9.609-88.394,21.465-95.85"/>
			
				<path fill="none" stroke="#666666" stroke-width="0.3188" stroke-linecap="round" stroke-linejoin="round" stroke-miterlimit="10" stroke-dasharray="1.2735,0.9551" d="
				M251,191.996c11.855,7.455,21.465-23.371,21.465-68.853c0-45.48-9.609-88.394-21.465-95.85"/>
			
				<path fill="none" stroke="#666666" stroke-width="0.3188" stroke-linecap="round" stroke-linejoin="round" stroke-miterlimit="10" stroke-dasharray="1.2736,0.9552" d="
				M251,191.996c32.388,5.458,58.644-26.987,58.644-72.469S283.388,32.752,251,27.294"/>
			
				<path fill="none" stroke="#666666" stroke-width="0.3188" stroke-linecap="round" stroke-linejoin="round" stroke-miterlimit="10" stroke-dasharray="1.2752,0.9564" d="
				M251,191.996c44.243,1.997,80.109-33.253,80.109-78.734c0-45.48-35.866-83.97-80.109-85.968"/>
			
				<path fill="none" stroke="#666666" stroke-width="0.3188" stroke-linecap="round" stroke-linejoin="round" stroke-miterlimit="10" stroke-dasharray="1.2752,0.9564" d="
				M251,27.294c-44.243,1.998-80.109,40.487-80.109,85.968c0,45.481,35.866,80.731,80.109,78.734"/>
			<g>
				
					<path fill="none" stroke="#666666" stroke-width="0.3188" stroke-linecap="round" stroke-linejoin="round" stroke-miterlimit="10" stroke-dasharray="1.2715,0.9536" d="
					M179.253,151.671c0.798,2.887,7.784,5.734,20.96,7.938c28.049,4.692,73.525,4.692,101.574,0
					c12.271-2.054,19.174-4.665,20.707-7.347"/>
				
					<path fill="none" stroke="#666666" stroke-width="0.3188" stroke-linecap="round" stroke-linejoin="round" stroke-miterlimit="10" stroke-dasharray="1.2749,0.9562" d="
					M173.191,138.933c1.039,3.087,8.606,6.124,22.702,8.482c30.435,5.092,79.779,5.092,110.214,0
					c13.315-2.228,20.805-5.062,22.47-7.971"/>
				
					<path fill="none" stroke="#666666" stroke-width="0.3188" stroke-linecap="round" stroke-linejoin="round" stroke-miterlimit="10" stroke-dasharray="1.2746,0.956" d="
					M169.325,124.428c0,3.497,7.974,6.995,23.922,9.663c31.896,5.336,83.61,5.336,115.506,0c15.545-2.602,23.514-5.99,23.907-9.398"
					/>
				
					<path fill="none" stroke="#666666" stroke-width="0.3188" stroke-linecap="round" stroke-linejoin="round" stroke-miterlimit="10" stroke-dasharray="1.2746,0.956" d="
					M169.387,95.496c-0.854,3.673,7.1,7.393,23.86,10.197c31.896,5.337,83.61,5.337,115.506,0
					c15.948-2.668,23.923-6.166,23.923-9.663"/>
				
					<path fill="none" stroke="#666666" stroke-width="0.3188" stroke-linecap="round" stroke-linejoin="round" stroke-miterlimit="10" stroke-dasharray="1.2749,0.9562" d="
					M173.13,81.735c-0.845,3.512,6.743,7.068,22.763,9.748c30.435,5.093,79.779,5.093,110.214,0
					c16.064-2.688,23.649-6.257,22.755-9.776"/>
				
					<path fill="none" stroke="#666666" stroke-width="0.3188" stroke-linecap="round" stroke-linejoin="round" stroke-miterlimit="10" stroke-dasharray="1.2715,0.9536" d="
					M179.593,68.051c-2.25,3.491,4.624,7.116,20.62,9.793c28.049,4.693,73.525,4.693,101.574,0
					c14.024-2.347,21.037-5.422,21.037-8.498"/>
				
					<path fill="none" stroke="#666666" stroke-width="0.3188" stroke-linecap="round" stroke-linejoin="round" stroke-miterlimit="10" stroke-dasharray="1.2772,0.9579" d="
					M188.056,56.225c-2.596,3.18,3.41,6.519,18.02,8.963c24.811,4.151,65.037,4.151,89.848,0
					c13.956-2.335,20.062-5.486,18.316-8.535"/>
			</g>
		</g>
		<line fill="none" stroke="#00AEEF" stroke-miterlimit="10" x1="251" y1="193.164" x2="251" y2="27.294"/>
		
			<line fill="none" stroke="#005695" stroke-width="0.5" stroke-miterlimit="10" stroke-dasharray="2,1" x1="251" y1="110.229" x2="221.27" y2="115.204"/>
		
			<ellipse fill="none" stroke="#005695" stroke-width="0.5" stroke-linecap="round" stroke-linejoin="round" stroke-miterlimit="10" stroke-dasharray="2,1" cx="251" cy="110.229" rx="40.559" ry="6.787"/>
		
			<ellipse fill="none" stroke="#ED2224" stroke-width="0.5" stroke-linecap="round" stroke-linejoin="round" stroke-miterlimit="10" stroke-dasharray="2,1" cx="251" cy="110.229" rx="95.249" ry="17.965"/>
		
			<line fill="none" stroke="#000000" stroke-width="3" stroke-linecap="round" stroke-linejoin="round" stroke-miterlimit="10" x1="251" y1="110.229" x2="251" y2="110.229"/>
		
			<line fill="#005695" stroke="#005695" stroke-width="3" stroke-linecap="round" stroke-linejoin="round" stroke-miterlimit="10" x1="221.678" y1="115.135" x2="221.678" y2="115.135"/>
		<path opacity="0.5" fill="#B2CEE7" stroke="#000000" stroke-miterlimit="10" d="M333.936,110.229
			c0-45.804-37.132-82.936-82.936-82.936s-82.936,37.132-82.935,82.936c0,3.551,8.097,7.102,24.292,9.812
			c32.388,5.419,84.899,5.419,117.287,0C325.838,117.332,333.936,113.78,333.936,110.229z"/>
		
			<line fill="#005695" stroke="#005695" stroke-width="3" stroke-linecap="round" stroke-linejoin="round" stroke-miterlimit="10" x1="204.078" y1="69.025" x2="204.078" y2="69.025"/>
		
			<line fill="none" stroke="#ED1C24" stroke-width="3" stroke-linecap="round" stroke-linejoin="round" stroke-miterlimit="10" x1="306.519" y1="134.619" x2="306.519" y2="134.619"/>
		
			<line fill="none" stroke="#ED1C24" stroke-width="3" stroke-linecap="round" stroke-linejoin="round" stroke-miterlimit="10" x1="317.541" y1="123.128" x2="317.541" y2="123.128"/>
		
			<line fill="none" stroke="#000000" stroke-width="3" stroke-linecap="round" stroke-linejoin="round" stroke-miterlimit="10" x1="251" y1="28.464" x2="251" y2="28.464"/>
		
			<line fill="none" stroke="#000000" stroke-width="3" stroke-linecap="round" stroke-linejoin="round" stroke-miterlimit="10" x1="251" y1="191.995" x2="251" y2="191.995"/>
		<text transform="matrix(1 0 0 1 234.166 202.6914)" font-size="10">Cornea</text>
		<text transform="matrix(1 0 0 1 236.71 24.876)" font-size="10">Fovea</text>
		<text transform="matrix(1 0 0 1 205.4336 65.1753)" font-size="12">p</text>
		<text transform="matrix(1 0 0 1 307.6797 142.1738)" font-size="12">q</text>
		<text transform="matrix(1 0 0 1 222.3262 110.6919)" font-size="12">p´</text>
		<text transform="matrix(1 0 0 1 318.791 130.8301)" font-size="12">q´</text>
		<text transform="matrix(1 0 0 1 253.5361 108.9785)" font-size="12">f</text>
		
			<line fill="none" stroke="#ED2224" stroke-width="0.5" stroke-linecap="round" stroke-linejoin="round" stroke-miterlimit="10" stroke-dasharray="2,1" x1="305.191" y1="120.733" x2="317.541" y2="123.128"/>
		
			<line fill="none" stroke="#ED2224" stroke-width="0.5" stroke-linecap="round" stroke-linejoin="round" stroke-miterlimit="10" x1="306.615" y1="134.436" x2="317.541" y2="123.128"/>
	</g>
</g>
</svg>
