<?xml version="1.0" encoding="utf-8"?>

<!DOCTYPE svg PUBLIC "-//W3C//DTD SVG 1.1//EN" "http://www.w3.org/Graphics/SVG/1.1/DTD/svg11.dtd">
<svg version="1.1" id="Layer_1" xmlns="http://www.w3.org/2000/svg" xmlns:xlink="http://www.w3.org/1999/xlink" x="0px" y="0px"
	 width="552px" height="237px" viewBox="0 0 552 237" enable-background="new 0 0 552 237" xml:space="preserve">

<defs>
	<style type="text/css">
	text {
	  font-family: Helvetica, Verdana, ArialUnicodeMS, san-serif
	}
	</style>
</defs>

<g>
   <desc>
	PS 3.17 Part 17: Explanatory Information
   </desc>
</g>

<g>
	<rect x="1" y="1" fill="#F5EED6" width="550" height="235"/>
	<g>
		<rect x="349.404" y="29.402" fill="none" width="157.383" height="178.194"/>
		<text transform="matrix(0.9288 0 0 1 349.4043 49.125)"><tspan x="0" y="0" font-size="8">Acquisition context #1</tspan><tspan x="0" y="28" font-size="8">one source image for this acquisition context</tspan><tspan x="0" y="42" font-size="8">= XA Image or Enhanced XA Image</tspan><tspan x="0" y="56" font-size="8">= UID “C”</tspan><tspan x="0" y="70" font-size="8">= 1\6\11\16\...</tspan><tspan x="0" y="112" font-size="8">data of frame #1 from this source</tspan><tspan x="0" y="140" font-size="8">data of frame #6 from this source</tspan></text>
		
			<rect x="45.213" y="25.93" fill="#B2CEE7" stroke="#010101" stroke-width="0.75" stroke-linecap="round" stroke-linejoin="round" stroke-miterlimit="1" width="286.334" height="195.667"/>
		
			<rect x="61.988" y="39.928" fill="#86B2D8" stroke="#010101" stroke-width="0.75" stroke-linecap="round" stroke-linejoin="round" stroke-miterlimit="1" width="269.576" height="181.669"/>
		<rect x="49.354" y="29.401" fill="none" width="164.911" height="7.717"/>
		<text transform="matrix(0.9288 0 0 1 49.3579 35.104)" font-size="8">X-Ray 3D Acquisition Sequence</text>
		<rect x="49.354" y="15.403" fill="none" width="164.911" height="7.717"/>
		<text transform="matrix(0.9288 0 0 1 49.3579 21.106)" font-size="8">...</text>
		
			<rect x="78.784" y="53.567" fill="#FFFFFF" stroke="#010101" stroke-width="0.75" stroke-linecap="round" stroke-linejoin="round" stroke-miterlimit="1" width="252.763" height="69.381"/>
		
			<rect x="90.743" y="67.615" fill="#86B2D8" stroke="#010101" stroke-width="0.75" stroke-linecap="round" stroke-linejoin="round" stroke-miterlimit="1" width="240.821" height="56.146"/>
		
			<rect x="103.447" y="81.567" fill="#FFFFFF" stroke="#010101" stroke-width="0.75" stroke-linecap="round" stroke-linejoin="round" stroke-miterlimit="1" width="228.117" height="13.953"/>
		<rect x="82.911" y="57.796" fill="none" width="170.795" height="7.717"/>
		<text transform="matrix(0.9288 0 0 1 82.9111 63.5195)" font-size="8">&gt;Source Image Sequence</text>
		<rect x="286.305" y="57.797" fill="none" width="44.984" height="7.716"/>
		<text transform="matrix(0.9288 0 0 1 286.2852 63.4995)" font-size="8">(0008,2112)</text>
		<rect x="286.305" y="29.402" fill="none" width="44.984" height="7.716"/>
		<text transform="matrix(0.9288 0 0 1 286.2852 35.1045)" font-size="8">(0018,9507)</text>
		<rect x="94.077" y="72.311" fill="none" width="108.835" height="7.717"/>
		<text transform="matrix(0.9288 0 0 1 94.0771 78.0342)" font-size="8">Item 1</text>
		<rect x="64.594" y="44.514" fill="none" width="127.731" height="7.721"/>
		<text transform="matrix(0.9288 0 0 1 64.5986 50.2158)" font-size="8">Item 1</text>
		<rect x="107.157" y="86.228" fill="none" width="136.597" height="7.717"/>
		<text transform="matrix(0.9288 0 0 1 107.1611 91.9233)" font-size="8">&gt;&gt;Referenced SOP Class UID</text>
		<rect x="286.707" y="86.228" fill="none" width="44.582" height="7.717"/>
		<text transform="matrix(0.9288 0 0 1 286.6875 91.9287)" font-size="8">(0008,1150)</text>
		
			<rect x="78.784" y="137.513" fill="#FFFFFF" stroke="#010101" stroke-width="0.75" stroke-linecap="round" stroke-linejoin="round" stroke-miterlimit="1" width="252.763" height="84.084"/>
		
			<rect x="90.743" y="151.56" fill="#86B2D8" stroke="#010101" stroke-width="0.75" stroke-linecap="round" stroke-linejoin="round" stroke-miterlimit="1" width="240.821" height="27.906"/>
		
			<rect x="103.447" y="165.513" fill="#FFFFFF" stroke="#010101" stroke-width="0.75" stroke-linecap="round" stroke-linejoin="round" stroke-miterlimit="1" width="228.117" height="13.953"/>
		<rect x="82.911" y="141.741" fill="none" width="170.795" height="7.717"/>
		<text transform="matrix(0.9288 0 0 1 82.9111 147.4648)" font-size="8">&gt;Per Projection Acquisition Sequence</text>
		<rect x="286.305" y="141.742" fill="none" width="44.984" height="7.716"/>
		<text transform="matrix(0.9288 0 0 1 286.2852 147.4453)" font-size="8">(0008,9538)</text>
		<rect x="94.077" y="156.257" fill="none" width="108.835" height="7.717"/>
		<text transform="matrix(0.9288 0 0 1 94.0771 161.9795)" font-size="8">Item 1</text>
		<rect x="107.157" y="170.173" fill="none" width="136.597" height="7.717"/>
		<text transform="matrix(0.9288 0 0 1 107.1611 175.8691)" font-size="8">&gt;&gt;... (other attributes)</text>
		
			<rect x="90.743" y="179.466" fill="#86B2D8" stroke="#010101" stroke-width="0.75" stroke-linecap="round" stroke-linejoin="round" stroke-miterlimit="1" width="240.821" height="27.906"/>
		
			<rect x="103.447" y="193.419" fill="#FFFFFF" stroke="#010101" stroke-width="0.75" stroke-linecap="round" stroke-linejoin="round" stroke-miterlimit="1" width="228.117" height="13.953"/>
		<rect x="94.077" y="184.163" fill="none" width="108.835" height="7.717"/>
		<text transform="matrix(0.9288 0 0 1 94.0771 189.8857)" font-size="8">Item 2</text>
		
			<rect x="90.743" y="207.644" fill="#86B2D8" stroke="#010101" stroke-width="0.75" stroke-linecap="round" stroke-linejoin="round" stroke-miterlimit="1" width="240.821" height="13.953"/>
		<rect x="94.077" y="212.341" fill="none" width="108.835" height="7.717"/>
		<text transform="matrix(0.9288 0 0 1 94.0771 218.0635)" font-size="8">...</text>
		<rect x="107.157" y="198.079" fill="none" width="136.597" height="7.717"/>
		<text transform="matrix(0.9288 0 0 1 107.1611 203.7754)" font-size="8">&gt;&gt;... (other attributes)</text>
		
			<rect x="103.447" y="95.521" fill="#FFFFFF" stroke="#010101" stroke-width="0.75" stroke-linecap="round" stroke-linejoin="round" stroke-miterlimit="1" width="228.117" height="13.953"/>
		<rect x="107.157" y="100.181" fill="none" width="136.597" height="7.717"/>
		<text transform="matrix(0.9288 0 0 1 107.1611 105.8765)" font-size="8">&gt;&gt;Referenced SOP Instance UID</text>
		<rect x="286.707" y="100.181" fill="none" width="44.582" height="7.717"/>
		<text transform="matrix(0.9288 0 0 1 286.6875 105.8818)" font-size="8">(0008,1155)</text>
		
			<rect x="103.447" y="109.787" fill="#FFFFFF" stroke="#010101" stroke-width="0.75" stroke-linecap="round" stroke-linejoin="round" stroke-miterlimit="1" width="228.117" height="13.953"/>
		<rect x="107.157" y="114.447" fill="none" width="136.597" height="7.717"/>
		<text transform="matrix(0.9288 0 0 1 107.1611 120.1426)" font-size="8">&gt;&gt;Referenced Frame Number</text>
		<rect x="286.707" y="114.447" fill="none" width="44.582" height="7.717"/>
		<text transform="matrix(0.9288 0 0 1 286.6875 120.1484)" font-size="8">(0008,1160)</text>
		
			<rect x="78.784" y="123.513" fill="#FFFFFF" stroke="#010101" stroke-width="0.75" stroke-linecap="round" stroke-linejoin="round" stroke-miterlimit="1" width="252.78" height="14"/>
		<rect x="82.911" y="126.685" fill="none" width="189.98" height="7.717"/>
		<text transform="matrix(0.9288 0 0 1 82.9111 132.4072)" font-size="8">&gt;... (other attributes of this acquisition context)</text>
	</g>
</g>
</svg>
