<?xml version="1.0" encoding="utf-8"?>

<!DOCTYPE svg PUBLIC "-//W3C//DTD SVG 1.1//EN" "http://www.w3.org/Graphics/SVG/1.1/DTD/svg11.dtd">
<svg version="1.1" id="Layer_1" xmlns="http://www.w3.org/2000/svg" xmlns:xlink="http://www.w3.org/1999/xlink" x="0px" y="0px"
	 width="552px" height="551.921px" viewBox="0 0 552 551.921" enable-background="new 0 0 552 551.921" xml:space="preserve">

<defs>
	<style type="text/css">
	text {
	  font-family: Helvetica, Verdana, ArialUnicodeMS, san-serif
	}
	</style>
</defs>

<g>
   <desc>
	PS 3.1 Part 1: Introduction and Overview
   </desc>
   <title>
	Figure 5-1 General Communication Model
   </title>
</g>
<g>
	<rect x="1" y="1" fill="#F5EED6" width="550" height="549.921"/>
	<g>
		
			<rect x="26.099" y="81.409" fill="#B2CEE7" stroke="#010101" stroke-width="0.75" stroke-linecap="round" stroke-linejoin="round" stroke-miterlimit="1" width="500" height="165"/>
		
			<line fill="none" stroke="#005695" stroke-width="7" stroke-linecap="round" stroke-miterlimit="1" x1="100.938" y1="115.269" x2="100.938" y2="527.515"/>
		<g>
			<path fill="#CCDEF0" d="M21,266.086c0-1.98,1.62-3.6,3.6-3.6h152.8c1.98,0,3.6,1.62,3.6,3.6v32.801c0,1.979-1.62,3.6-3.6,3.6
				H24.6c-1.98,0-3.6-1.62-3.6-3.6V266.086z"/>
		</g>
		<text transform="matrix(1 0 0 1 68.2393 274.9297)"><tspan x="0" y="0" font-size="11">BOUNDARY:</tspan><tspan x="-37.294" y="13.2" font-size="11">DICOM Upper Layer Service</tspan></text>
		
			<line fill="#4F8ABE" stroke="#005695" stroke-width="4" stroke-linecap="round" stroke-miterlimit="1" x1="25.939" y1="295.313" x2="175.939" y2="295.313"/>
		<g>
			<g>
				<path fill="#CCDEF0" d="M24.913,511.054c0-1.979,1.62-3.6,3.6-3.6h144.853c1.98,0,3.6,1.62,3.6,3.6v22.229
					c0,1.979-1.62,3.6-3.6,3.6H28.513c-1.98,0-3.6-1.62-3.6-3.6V511.054z"/>
				<path fill="none" stroke="#000000" stroke-width="0.75" d="M24.913,511.054c0-1.979,1.62-3.6,3.6-3.6h144.853
					c1.98,0,3.6,1.62,3.6,3.6v22.229c0,1.979-1.62,3.6-3.6,3.6H28.513c-1.98,0-3.6-1.62-3.6-3.6V511.054z"/>
			</g>
			<text transform="matrix(1 0 0 1 63.1699 519.5889)"><tspan x="0" y="0" font-size="9">Network Exchange</tspan><tspan x="-10.753" y="10.801" font-size="9">On-Line Communication</tspan></text>
		</g>
		<g>
			<g>
				<path fill="#CCDEF0" d="M24.913,449.942c0-1.979,1.62-3.6,3.6-3.6h144.853c1.98,0,3.6,1.62,3.6,3.6v22.229
					c0,1.979-1.62,3.6-3.6,3.6H28.513c-1.98,0-3.6-1.62-3.6-3.6V449.942z"/>
				<path fill="none" stroke="#000000" stroke-width="0.75" d="M24.913,449.942c0-1.979,1.62-3.6,3.6-3.6h144.853
					c1.98,0,3.6,1.62,3.6,3.6v22.229c0,1.979-1.62,3.6-3.6,3.6H28.513c-1.98,0-3.6-1.62-3.6-3.6V449.942z"/>
			</g>
			<text transform="matrix(1 0 0 1 53.3701 463.2783)" font-size="9">TCP/IP Transport Layer</text>
		</g>
		<g>
			<g>
				<path fill="#CCDEF0" d="M24.913,388.831c0-1.979,1.62-3.6,3.6-3.6h144.853c1.98,0,3.6,1.62,3.6,3.6v22.229
					c0,1.979-1.62,3.6-3.6,3.6H28.513c-1.98,0-3.6-1.62-3.6-3.6V388.831z"/>
				<path fill="none" stroke="#000000" stroke-width="0.75" stroke-dasharray="4" d="M24.913,388.831c0-1.979,1.62-3.6,3.6-3.6
					h144.853c1.98,0,3.6,1.62,3.6,3.6v22.229c0,1.979-1.62,3.6-3.6,3.6H28.513c-1.98,0-3.6-1.62-3.6-3.6V388.831z"/>
			</g>
			<text transform="matrix(1 0 0 1 72.125 397.3662)"><tspan x="0" y="0" font-size="9">Security Layer</tspan><tspan x="9.004" y="10.801" font-size="9">(Optional)</tspan></text>
		</g>
		<g>
			<g>
				<path fill="#CCDEF0" d="M24.913,327.72c0-1.979,1.62-3.6,3.6-3.6h144.853c1.98,0,3.6,1.62,3.6,3.6v22.229
					c0,1.979-1.62,3.6-3.6,3.6H28.513c-1.98,0-3.6-1.62-3.6-3.6V327.72z"/>
				<path fill="none" stroke="#000000" stroke-width="0.75" d="M24.913,327.72c0-1.979,1.62-3.6,3.6-3.6h144.853
					c1.98,0,3.6,1.62,3.6,3.6v22.229c0,1.979-1.62,3.6-3.6,3.6H28.513c-1.98,0-3.6-1.62-3.6-3.6V327.72z"/>
			</g>
			<text transform="matrix(1 0 0 1 59.874 341.0557)" font-size="9">DICOM Upper Layer</text>
		</g>
		
			<line fill="none" stroke="#005695" stroke-width="7" stroke-linecap="round" stroke-miterlimit="1" x1="275.938" y1="115.269" x2="275.938" y2="527.515"/>
		<g>
			<path fill="#CCDEF0" d="M196,266.086c0-1.98,1.62-3.6,3.6-3.6h152.8c1.979,0,3.6,1.62,3.6,3.6v32.801c0,1.979-1.62,3.6-3.6,3.6
				H199.6c-1.98,0-3.6-1.62-3.6-3.6V266.086z"/>
		</g>
		<text transform="matrix(1 0 0 1 243.2393 274.9297)"><tspan x="0" y="0" font-size="11">BOUNDARY:</tspan><tspan x="-5.798" y="13.2" font-size="11">DICOM – HTTP</tspan></text>
		
			<line fill="#4F8ABE" stroke="#005695" stroke-width="4" stroke-linecap="round" stroke-miterlimit="1" x1="200.939" y1="295.313" x2="350.939" y2="295.313"/>
		<g>
			<g>
				<path fill="#CCDEF0" d="M199.913,511.054c0-1.979,1.62-3.6,3.6-3.6h144.853c1.979,0,3.6,1.62,3.6,3.6v22.229
					c0,1.979-1.62,3.6-3.6,3.6H203.513c-1.98,0-3.6-1.62-3.6-3.6V511.054z"/>
				<path fill="none" stroke="#000000" stroke-width="0.75" d="M199.913,511.054c0-1.979,1.62-3.6,3.6-3.6h144.853
					c1.979,0,3.6,1.62,3.6,3.6v22.229c0,1.979-1.62,3.6-3.6,3.6H203.513c-1.98,0-3.6-1.62-3.6-3.6V511.054z"/>
			</g>
			<text transform="matrix(1 0 0 1 238.1699 519.5889)"><tspan x="0" y="0" font-size="9">Network Exchange</tspan><tspan x="-10.753" y="10.801" font-size="9">On-Line Communication</tspan></text>
		</g>
		<g>
			<g>
				<path fill="#CCDEF0" d="M199.913,449.942c0-1.979,1.62-3.6,3.6-3.6h144.853c1.979,0,3.6,1.62,3.6,3.6v22.229
					c0,1.979-1.62,3.6-3.6,3.6H203.513c-1.98,0-3.6-1.62-3.6-3.6V449.942z"/>
				<path fill="none" stroke="#000000" stroke-width="0.75" d="M199.913,449.942c0-1.979,1.62-3.6,3.6-3.6h144.853
					c1.979,0,3.6,1.62,3.6,3.6v22.229c0,1.979-1.62,3.6-3.6,3.6H203.513c-1.98,0-3.6-1.62-3.6-3.6V449.942z"/>
			</g>
			<text transform="matrix(1 0 0 1 228.3701 463.2783)" font-size="9">TCP/IP Transport Layer</text>
		</g>
		<g>
			<g>
				<path fill="#CCDEF0" d="M199.913,388.831c0-1.979,1.62-3.6,3.6-3.6h144.853c1.979,0,3.6,1.62,3.6,3.6v22.229
					c0,1.979-1.62,3.6-3.6,3.6H203.513c-1.98,0-3.6-1.62-3.6-3.6V388.831z"/>
				<path fill="none" stroke="#000000" stroke-width="0.75" stroke-dasharray="4" d="M199.913,388.831c0-1.979,1.62-3.6,3.6-3.6
					h144.853c1.979,0,3.6,1.62,3.6,3.6v22.229c0,1.979-1.62,3.6-3.6,3.6H203.513c-1.98,0-3.6-1.62-3.6-3.6V388.831z"/>
			</g>
			<text transform="matrix(1 0 0 1 247.125 397.3662)"><tspan x="0" y="0" font-size="9">Security Layer</tspan><tspan x="9.004" y="10.801" font-size="9">(Optional)</tspan></text>
		</g>
		<g>
			<g>
				<path fill="#CCDEF0" d="M199.913,327.72c0-1.979,1.62-3.6,3.6-3.6h144.853c1.979,0,3.6,1.62,3.6,3.6v22.229
					c0,1.979-1.62,3.6-3.6,3.6H203.513c-1.98,0-3.6-1.62-3.6-3.6V327.72z"/>
				<path fill="none" stroke="#000000" stroke-width="0.75" d="M199.913,327.72c0-1.979,1.62-3.6,3.6-3.6h144.853
					c1.979,0,3.6,1.62,3.6,3.6v22.229c0,1.979-1.62,3.6-3.6,3.6H203.513c-1.98,0-3.6-1.62-3.6-3.6V327.72z"/>
			</g>
			<text transform="matrix(1 0 0 1 264.1377 341.0557)" font-size="9">HTTP</text>
		</g>
		
			<line fill="none" stroke="#005695" stroke-width="7" stroke-linecap="round" stroke-miterlimit="1" x1="450.778" y1="115.269" x2="450.778" y2="527.515"/>
		<g>
			<path fill="#CCDEF0" d="M371,266.086c0-1.98,1.62-3.6,3.6-3.6H527.4c1.979,0,3.6,1.62,3.6,3.6v32.801c0,1.979-1.62,3.6-3.6,3.6
				H374.6c-1.979,0-3.6-1.62-3.6-3.6V266.086z"/>
		</g>
		<g>
			<path fill="#CCDEF0" d="M396.258,213.128c0-1.98,1.62-3.6,3.6-3.6h102.801c1.979,0,3.6,1.62,3.6,3.6v17.678
				c0,1.98-1.62,3.6-3.6,3.6H399.857c-1.979,0-3.6-1.62-3.6-3.6V213.128z"/>
			<path fill="none" stroke="#000000" stroke-width="0.75" d="M396.258,213.128c0-1.98,1.62-3.6,3.6-3.6h102.801
				c1.979,0,3.6,1.62,3.6,3.6v17.678c0,1.98-1.62,3.6-3.6,3.6H399.857c-1.979,0-3.6-1.62-3.6-3.6V213.128z"/>
		</g>
		<g>
			<g>
				<path fill="#CCDEF0" d="M375.163,511.054c0-1.979,1.62-3.6,3.6-3.6h144.854c1.979,0,3.6,1.62,3.6,3.6v22.229
					c0,1.979-1.62,3.6-3.6,3.6H378.763c-1.979,0-3.6-1.62-3.6-3.6V511.054z"/>
				<path fill="none" stroke="#000000" stroke-width="0.75" d="M375.163,511.054c0-1.979,1.62-3.6,3.6-3.6h144.854
					c1.979,0,3.6,1.62,3.6,3.6v22.229c0,1.979-1.62,3.6-3.6,3.6H378.763c-1.979,0-3.6-1.62-3.6-3.6V511.054z"/>
			</g>
			<text transform="matrix(1 0 0 1 396.9023 519.6064)"><tspan x="0" y="0" font-size="9">Media Storage Interchange</tspan><tspan x="5.766" y="10.801" font-size="9">Off-Line Communication</tspan></text>
		</g>
		<g>
			<g>
				<path fill="#CCDEF0" d="M375.163,327.72c0-1.979,1.62-3.6,3.6-3.6h144.854c1.979,0,3.6,1.62,3.6,3.6v22.229
					c0,1.979-1.62,3.6-3.6,3.6H378.763c-1.979,0-3.6-1.62-3.6-3.6V327.72z"/>
				<path fill="none" stroke="#000000" stroke-width="0.75" stroke-dasharray="4" d="M375.163,327.72c0-1.979,1.62-3.6,3.6-3.6
					h144.854c1.979,0,3.6,1.62,3.6,3.6v22.229c0,1.979-1.62,3.6-3.6,3.6H378.763c-1.979,0-3.6-1.62-3.6-3.6V327.72z"/>
			</g>
			<text transform="matrix(1 0 0 1 422.4258 336.2725)"><tspan x="0" y="0" font-size="9">Security Layer</tspan><tspan x="9.005" y="10.801" font-size="9">(Optional)</tspan></text>
		</g>
		<g>
			<g>
				<rect x="373.35" y="377.544" fill="#B2CEE7" width="155.68" height="105.912"/>
			</g>
			<g>
				<text transform="matrix(1 0 0 1 376.2734 388.0537)" font-size="9">Physical Media and File Formats</text>
			</g>
			<g>
				<polygon fill="#CCDEF0" stroke="#000000" stroke-width="0.75" points="520.643,475.108 469.654,475.108 469.654,407.276 
					478.291,398.628 520.643,398.628 				"/>
				<text transform="matrix(1 0 0 1 474.6934 408.1475)"><tspan x="0" y="0" font-size="9">&lt;FILE&gt;</tspan><tspan x="0" y="10.799" font-size="9">   &lt;FIELD&gt;</tspan><tspan x="0" y="21.6" font-size="9">   .</tspan><tspan x="0" y="32.4" font-size="9">   .</tspan><tspan x="0" y="43.199" font-size="9">   .</tspan><tspan x="0" y="54" font-size="9">   &lt;/FIELD&gt;</tspan><tspan x="0" y="64.799" font-size="9">&lt;/FILE&gt;</tspan></text>
			</g>
			<g>
				<path fill="#D9D9D9" stroke="#000000" stroke-width="0.25" stroke-miterlimit="3.8637" d="M383.993,436.874
					c0-20.23,16.385-36.615,36.6-36.615c20.232,0,36.615,16.385,36.615,36.615c0,20.219-16.383,36.602-36.615,36.602
					C400.378,473.476,383.993,457.093,383.993,436.874z"/>
				<path fill="#808080" stroke="#000000" stroke-width="0.25" stroke-miterlimit="3.8637" d="M437.793,407.118
					c4.041,2.146,6.478,4.309,9.438,7.748l-54.136,42.953c2.938,3.959,5.579,6.365,9.852,8.867L437.793,407.118z"/>
				<path fill="none" stroke="#000000" stroke-miterlimit="3.8637" d="M386.167,436.874c0-19.029,15.414-34.439,34.428-34.439
					c19.027,0,34.439,15.41,34.439,34.439c0,19.014-15.412,34.426-34.439,34.426C401.581,471.3,386.167,455.888,386.167,436.874z"/>
				<path fill="#FFFFFF" stroke="#000000" stroke-width="0.5" stroke-miterlimit="3.8637" d="M409.787,436.87
					c0-5.975,4.84-10.814,10.809-10.814c5.98,0,10.818,4.84,10.818,10.814c0,5.971-4.838,10.811-10.818,10.811
					C414.627,447.681,409.787,442.841,409.787,436.87z"/>
				<path stroke="#000000" stroke-width="0.5" stroke-miterlimit="3.8637" d="M416.698,436.87c0-2.156,1.748-3.904,3.9-3.904
					c2.158,0,3.904,1.748,3.904,3.904c0,2.154-1.746,3.9-3.904,3.9C418.446,440.771,416.698,439.024,416.698,436.87z"/>
			</g>
		</g>
		<text transform="matrix(1 0 0 1 418.0791 274.9297)"><tspan x="0" y="0" font-size="11">BOUNDARY:</tspan><tspan x="-30.868" y="13.2" font-size="11">DICOM Basic File Service</tspan></text>
		
			<line fill="#4F8ABE" stroke="#005695" stroke-width="4" stroke-linecap="round" stroke-miterlimit="1" x1="375.772" y1="295.313" x2="525.772" y2="295.313"/>
		<text transform="matrix(1 0 0 1 420.4375 225.7847)" font-size="12">File Format</text>
		<text transform="matrix(1 0 0 1 27.3491 76.584)" font-size="12">DICOM Application Entity</text>
		<polyline fill="#4F8ABE" points="221.055,15.039 335.665,15.039 335.184,32.527 373.563,32.527 276.56,81.602 178.635,32.527 
			220.594,32.527 		"/>
		<text transform="matrix(1 0 0 1 232.4146 29.4468)"><tspan x="0" y="0" fill="#FFFFFF" font-size="12"> Medical Images</tspan><tspan x="-17.687" y="14.4" fill="#FFFFFF" font-size="12">and related information</tspan></text>
		<g>
			<path fill="#CCDEF0" d="M45.053,100.258c0-1.98,1.62-3.6,3.6-3.6h455.615c1.979,0,3.6,1.62,3.6,3.6v17.678
				c0,1.98-1.62,3.6-3.6,3.6H48.653c-1.98,0-3.6-1.62-3.6-3.6V100.258z"/>
			<path fill="none" stroke="#000000" stroke-width="0.75" d="M45.053,100.258c0-1.98,1.62-3.6,3.6-3.6h455.615
				c1.979,0,3.6,1.62,3.6,3.6v17.678c0,1.98-1.62,3.6-3.6,3.6H48.653c-1.98,0-3.6-1.62-3.6-3.6V100.258z"/>
		</g>
		<g>
			<path fill="#CCDEF0" d="M45.053,137.758c0-1.98,1.62-3.6,3.6-3.6h455.615c1.979,0,3.6,1.62,3.6,3.6v17.678
				c0,1.98-1.62,3.6-3.6,3.6H48.653c-1.98,0-3.6-1.62-3.6-3.6V137.758z"/>
			<path fill="none" stroke="#000000" stroke-width="0.75" d="M45.053,137.758c0-1.98,1.62-3.6,3.6-3.6h455.615
				c1.979,0,3.6,1.62,3.6,3.6v17.678c0,1.98-1.62,3.6-3.6,3.6H48.653c-1.98,0-3.6-1.62-3.6-3.6V137.758z"/>
		</g>
		<g>
			<path fill="#CCDEF0" d="M45.053,175.617c0-1.98,1.62-3.6,3.6-3.6h455.615c1.979,0,3.6,1.62,3.6,3.6v17.678
				c0,1.98-1.62,3.6-3.6,3.6H48.653c-1.98,0-3.6-1.62-3.6-3.6V175.617z"/>
			<path fill="none" stroke="#000000" stroke-width="0.75" d="M45.053,175.617c0-1.98,1.62-3.6,3.6-3.6h455.615
				c1.979,0,3.6,1.62,3.6,3.6v17.678c0,1.98-1.62,3.6-3.6,3.6H48.653c-1.98,0-3.6-1.62-3.6-3.6V175.617z"/>
		</g>
		<text transform="matrix(1 0 0 1 200.8071 112.0957)" font-size="12">Service Class Specifications</text>
		<text transform="matrix(1 0 0 1 194.4673 149.9917)" font-size="12">Information Objects Definitions</text>
		<text transform="matrix(1 0 0 1 144.6997 187.8882)" font-size="12">Dataset Structure and Encoding - Data Dictionary</text>
		<g>
			<path fill="#CCDEF0" d="M43.442,213.128c0-1.98,1.62-3.6,3.6-3.6h107.8c1.98,0,3.6,1.62,3.6,3.6v17.678c0,1.98-1.62,3.6-3.6,3.6
				h-107.8c-1.98,0-3.6-1.62-3.6-3.6V213.128z"/>
			<path fill="none" stroke="#000000" stroke-width="0.75" d="M43.442,213.128c0-1.98,1.62-3.6,3.6-3.6h107.8
				c1.98,0,3.6,1.62,3.6,3.6v17.678c0,1.98-1.62,3.6-3.6,3.6h-107.8c-1.98,0-3.6-1.62-3.6-3.6V213.128z"/>
		</g>
		<text transform="matrix(1 0 0 1 48.2432 225.7847)" font-size="12">Message Exchange</text>
		<g>
			<path fill="#CCDEF0" d="M218.442,213.128c0-1.98,1.62-3.6,3.6-3.6h107.8c1.979,0,3.6,1.62,3.6,3.6v17.678
				c0,1.98-1.62,3.6-3.6,3.6h-107.8c-1.98,0-3.6-1.62-3.6-3.6V213.128z"/>
			<path fill="none" stroke="#000000" stroke-width="0.75" d="M218.442,213.128c0-1.98,1.62-3.6,3.6-3.6h107.8
				c1.979,0,3.6,1.62,3.6,3.6v17.678c0,1.98-1.62,3.6-3.6,3.6h-107.8c-1.98,0-3.6-1.62-3.6-3.6V213.128z"/>
		</g>
		<text transform="matrix(1 0 0 1 223.2432 225.7847)" font-size="12">Message Exchange</text>
	</g>
</g>
</svg>
